<?xml version="1.0" encoding="utf-8" standalone="no"?>
<!DOCTYPE svg PUBLIC "-//W3C//DTD SVG 1.1//EN"
  "http://www.w3.org/Graphics/SVG/1.1/DTD/svg11.dtd">
<svg xmlns:xlink="http://www.w3.org/1999/xlink" width="676.8pt" height="446.4pt" viewBox="0 0 676.8 446.4" xmlns="http://www.w3.org/2000/svg" version="1.1">
 <metadata>
  <rdf:RDF xmlns:dc="http://purl.org/dc/elements/1.1/" xmlns:cc="http://creativecommons.org/ns#" xmlns:rdf="http://www.w3.org/1999/02/22-rdf-syntax-ns#">
   <cc:Work>
    <dc:type rdf:resource="http://purl.org/dc/dcmitype/StillImage"/>
    <dc:date>2026-07-20T06:41:55.313796</dc:date>
    <dc:format>image/svg+xml</dc:format>
    <dc:creator>
     <cc:Agent>
      <dc:title>Matplotlib v3.9.4, https://matplotlib.org/</dc:title>
     </cc:Agent>
    </dc:creator>
   </cc:Work>
  </rdf:RDF>
 </metadata>
 <defs>
  <style type="text/css">*{stroke-linejoin: round; stroke-linecap: butt}</style>
 </defs>
 <g id="figure_1">
  <g id="patch_1">
   <path d="M 0 446.4 
L 676.8 446.4 
L 676.8 0 
L 0 0 
z
" style="fill: #ffffff"/>
  </g>
  <g id="axes_1">
   <g id="patch_2">
    <path d="M 74.448 348.192 
L 642.96 348.192 
L 642.96 93.744 
L 74.448 93.744 
z
" style="fill: #ffffff"/>
   </g>
   <g id="patch_3">
    <path d="M 169.2 348.192 
L 358.704 348.192 
L 358.704 93.744 
L 169.2 93.744 
z
" clip-path="url(#p8b15f94808)" style="fill: #e7f0ea; opacity: 0.58; stroke: #e7f0ea; stroke-linejoin: miter"/>
   </g>
   <g id="matplotlib.axis_1">
    <g id="xtick_1">
     <g id="line2d_1">
      <path d="M 74.448 348.192 
L 74.448 93.744 
" clip-path="url(#p8b15f94808)" style="fill: none; stroke: #dfe5e8; stroke-width: 0.65; stroke-linecap: square"/>
     </g>
     <g id="line2d_2">
      <defs>
       <path id="m24f79d3c47" d="M 0 0 
L 0 3.5 
" style="stroke: #000000; stroke-width: 0.8"/>
      </defs>
      <g>
       <use xlink:href="#m24f79d3c47" x="74.448" y="348.192" style="stroke: #000000; stroke-width: 0.8"/>
      </g>
     </g>
     <g id="text_1">
      <text style="font: 10px 'DejaVu Sans', 'Bitstream Vera Sans', 'Computer Modern Sans Serif', 'Lucida Grande', 'Verdana', 'Geneva', 'Lucid', 'Arial', 'Helvetica', 'Avant Garde', sans-serif; text-anchor: middle" x="74.448" y="362.790438" transform="rotate(-0 74.448 362.790438)">0</text>
     </g>
    </g>
    <g id="xtick_2">
     <g id="line2d_3">
      <path d="M 169.2 348.192 
L 169.2 93.744 
" clip-path="url(#p8b15f94808)" style="fill: none; stroke: #dfe5e8; stroke-width: 0.65; stroke-linecap: square"/>
     </g>
     <g id="line2d_4">
      <g>
       <use xlink:href="#m24f79d3c47" x="169.2" y="348.192" style="stroke: #000000; stroke-width: 0.8"/>
      </g>
     </g>
     <g id="text_2">
      <text style="font: 10px 'DejaVu Sans', 'Bitstream Vera Sans', 'Computer Modern Sans Serif', 'Lucida Grande', 'Verdana', 'Geneva', 'Lucid', 'Arial', 'Helvetica', 'Avant Garde', sans-serif; text-anchor: middle" x="169.2" y="362.790438" transform="rotate(-0 169.2 362.790438)">1</text>
     </g>
    </g>
    <g id="xtick_3">
     <g id="line2d_5">
      <path d="M 263.952 348.192 
L 263.952 93.744 
" clip-path="url(#p8b15f94808)" style="fill: none; stroke: #dfe5e8; stroke-width: 0.65; stroke-linecap: square"/>
     </g>
     <g id="line2d_6">
      <g>
       <use xlink:href="#m24f79d3c47" x="263.952" y="348.192" style="stroke: #000000; stroke-width: 0.8"/>
      </g>
     </g>
     <g id="text_3">
      <text style="font: 10px 'DejaVu Sans', 'Bitstream Vera Sans', 'Computer Modern Sans Serif', 'Lucida Grande', 'Verdana', 'Geneva', 'Lucid', 'Arial', 'Helvetica', 'Avant Garde', sans-serif; text-anchor: middle" x="263.952" y="362.790438" transform="rotate(-0 263.952 362.790438)">2</text>
     </g>
    </g>
    <g id="xtick_4">
     <g id="line2d_7">
      <path d="M 358.704 348.192 
L 358.704 93.744 
" clip-path="url(#p8b15f94808)" style="fill: none; stroke: #dfe5e8; stroke-width: 0.65; stroke-linecap: square"/>
     </g>
     <g id="line2d_8">
      <g>
       <use xlink:href="#m24f79d3c47" x="358.704" y="348.192" style="stroke: #000000; stroke-width: 0.8"/>
      </g>
     </g>
     <g id="text_4">
      <text style="font: 10px 'DejaVu Sans', 'Bitstream Vera Sans', 'Computer Modern Sans Serif', 'Lucida Grande', 'Verdana', 'Geneva', 'Lucid', 'Arial', 'Helvetica', 'Avant Garde', sans-serif; text-anchor: middle" x="358.704" y="362.790438" transform="rotate(-0 358.704 362.790438)">3</text>
     </g>
    </g>
    <g id="xtick_5">
     <g id="line2d_9">
      <path d="M 453.456 348.192 
L 453.456 93.744 
" clip-path="url(#p8b15f94808)" style="fill: none; stroke: #dfe5e8; stroke-width: 0.65; stroke-linecap: square"/>
     </g>
     <g id="line2d_10">
      <g>
       <use xlink:href="#m24f79d3c47" x="453.456" y="348.192" style="stroke: #000000; stroke-width: 0.8"/>
      </g>
     </g>
     <g id="text_5">
      <text style="font: 10px 'DejaVu Sans', 'Bitstream Vera Sans', 'Computer Modern Sans Serif', 'Lucida Grande', 'Verdana', 'Geneva', 'Lucid', 'Arial', 'Helvetica', 'Avant Garde', sans-serif; text-anchor: middle" x="453.456" y="362.790438" transform="rotate(-0 453.456 362.790438)">4</text>
     </g>
    </g>
    <g id="xtick_6">
     <g id="line2d_11">
      <path d="M 548.208 348.192 
L 548.208 93.744 
" clip-path="url(#p8b15f94808)" style="fill: none; stroke: #dfe5e8; stroke-width: 0.65; stroke-linecap: square"/>
     </g>
     <g id="line2d_12">
      <g>
       <use xlink:href="#m24f79d3c47" x="548.208" y="348.192" style="stroke: #000000; stroke-width: 0.8"/>
      </g>
     </g>
     <g id="text_6">
      <text style="font: 10px 'DejaVu Sans', 'Bitstream Vera Sans', 'Computer Modern Sans Serif', 'Lucida Grande', 'Verdana', 'Geneva', 'Lucid', 'Arial', 'Helvetica', 'Avant Garde', sans-serif; text-anchor: middle" x="548.208" y="362.790438" transform="rotate(-0 548.208 362.790438)">5</text>
     </g>
    </g>
    <g id="xtick_7">
     <g id="line2d_13">
      <path d="M 642.96 348.192 
L 642.96 93.744 
" clip-path="url(#p8b15f94808)" style="fill: none; stroke: #dfe5e8; stroke-width: 0.65; stroke-linecap: square"/>
     </g>
     <g id="line2d_14">
      <g>
       <use xlink:href="#m24f79d3c47" x="642.96" y="348.192" style="stroke: #000000; stroke-width: 0.8"/>
      </g>
     </g>
     <g id="text_7">
      <text style="font: 10px 'DejaVu Sans', 'Bitstream Vera Sans', 'Computer Modern Sans Serif', 'Lucida Grande', 'Verdana', 'Geneva', 'Lucid', 'Arial', 'Helvetica', 'Avant Garde', sans-serif; text-anchor: middle" x="642.96" y="362.790438" transform="rotate(-0 642.96 362.790438)">6</text>
     </g>
    </g>
    <g id="text_8">
     <text style="font: 10px 'DejaVu Sans', 'Bitstream Vera Sans', 'Computer Modern Sans Serif', 'Lucida Grande', 'Verdana', 'Geneva', 'Lucid', 'Arial', 'Helvetica', 'Avant Garde', sans-serif; text-anchor: middle" x="358.704" y="376.468563" transform="rotate(-0 358.704 376.468563)">sUCS dE threshold</text>
    </g>
   </g>
   <g id="matplotlib.axis_2">
    <g id="ytick_1">
     <g id="line2d_15">
      <path d="M 74.448 348.192 
L 642.96 348.192 
" clip-path="url(#p8b15f94808)" style="fill: none; stroke: #dfe5e8; stroke-width: 0.65; stroke-linecap: square"/>
     </g>
     <g id="line2d_16">
      <defs>
       <path id="m471ad27243" d="M 0 0 
L -3.5 0 
" style="stroke: #000000; stroke-width: 0.8"/>
      </defs>
      <g>
       <use xlink:href="#m471ad27243" x="74.448" y="348.192" style="stroke: #000000; stroke-width: 0.8"/>
      </g>
     </g>
     <g id="text_9">
      <text style="font: 10px 'DejaVu Sans', 'Bitstream Vera Sans', 'Computer Modern Sans Serif', 'Lucida Grande', 'Verdana', 'Geneva', 'Lucid', 'Arial', 'Helvetica', 'Avant Garde', sans-serif; text-anchor: end" x="67.448" y="351.991219" transform="rotate(-0 67.448 351.991219)">0</text>
     </g>
    </g>
    <g id="ytick_2">
     <g id="line2d_17">
      <path d="M 74.448 297.3024 
L 642.96 297.3024 
" clip-path="url(#p8b15f94808)" style="fill: none; stroke: #dfe5e8; stroke-width: 0.65; stroke-linecap: square"/>
     </g>
     <g id="line2d_18">
      <g>
       <use xlink:href="#m471ad27243" x="74.448" y="297.3024" style="stroke: #000000; stroke-width: 0.8"/>
      </g>
     </g>
     <g id="text_10">
      <text style="font: 10px 'DejaVu Sans', 'Bitstream Vera Sans', 'Computer Modern Sans Serif', 'Lucida Grande', 'Verdana', 'Geneva', 'Lucid', 'Arial', 'Helvetica', 'Avant Garde', sans-serif; text-anchor: end" x="67.448" y="301.101619" transform="rotate(-0 67.448 301.101619)">20</text>
     </g>
    </g>
    <g id="ytick_3">
     <g id="line2d_19">
      <path d="M 74.448 246.4128 
L 642.96 246.4128 
" clip-path="url(#p8b15f94808)" style="fill: none; stroke: #dfe5e8; stroke-width: 0.65; stroke-linecap: square"/>
     </g>
     <g id="line2d_20">
      <g>
       <use xlink:href="#m471ad27243" x="74.448" y="246.4128" style="stroke: #000000; stroke-width: 0.8"/>
      </g>
     </g>
     <g id="text_11">
      <text style="font: 10px 'DejaVu Sans', 'Bitstream Vera Sans', 'Computer Modern Sans Serif', 'Lucida Grande', 'Verdana', 'Geneva', 'Lucid', 'Arial', 'Helvetica', 'Avant Garde', sans-serif; text-anchor: end" x="67.448" y="250.212019" transform="rotate(-0 67.448 250.212019)">40</text>
     </g>
    </g>
    <g id="ytick_4">
     <g id="line2d_21">
      <path d="M 74.448 195.5232 
L 642.96 195.5232 
" clip-path="url(#p8b15f94808)" style="fill: none; stroke: #dfe5e8; stroke-width: 0.65; stroke-linecap: square"/>
     </g>
     <g id="line2d_22">
      <g>
       <use xlink:href="#m471ad27243" x="74.448" y="195.5232" style="stroke: #000000; stroke-width: 0.8"/>
      </g>
     </g>
     <g id="text_12">
      <text style="font: 10px 'DejaVu Sans', 'Bitstream Vera Sans', 'Computer Modern Sans Serif', 'Lucida Grande', 'Verdana', 'Geneva', 'Lucid', 'Arial', 'Helvetica', 'Avant Garde', sans-serif; text-anchor: end" x="67.448" y="199.322419" transform="rotate(-0 67.448 199.322419)">60</text>
     </g>
    </g>
    <g id="ytick_5">
     <g id="line2d_23">
      <path d="M 74.448 144.6336 
L 642.96 144.6336 
" clip-path="url(#p8b15f94808)" style="fill: none; stroke: #dfe5e8; stroke-width: 0.65; stroke-linecap: square"/>
     </g>
     <g id="line2d_24">
      <g>
       <use xlink:href="#m471ad27243" x="74.448" y="144.6336" style="stroke: #000000; stroke-width: 0.8"/>
      </g>
     </g>
     <g id="text_13">
      <text style="font: 10px 'DejaVu Sans', 'Bitstream Vera Sans', 'Computer Modern Sans Serif', 'Lucida Grande', 'Verdana', 'Geneva', 'Lucid', 'Arial', 'Helvetica', 'Avant Garde', sans-serif; text-anchor: end" x="67.448" y="148.432819" transform="rotate(-0 67.448 148.432819)">80</text>
     </g>
    </g>
    <g id="ytick_6">
     <g id="line2d_25">
      <path d="M 74.448 93.744 
L 642.96 93.744 
" clip-path="url(#p8b15f94808)" style="fill: none; stroke: #dfe5e8; stroke-width: 0.65; stroke-linecap: square"/>
     </g>
     <g id="line2d_26">
      <g>
       <use xlink:href="#m471ad27243" x="74.448" y="93.744" style="stroke: #000000; stroke-width: 0.8"/>
      </g>
     </g>
     <g id="text_14">
      <text style="font: 10px 'DejaVu Sans', 'Bitstream Vera Sans', 'Computer Modern Sans Serif', 'Lucida Grande', 'Verdana', 'Geneva', 'Lucid', 'Arial', 'Helvetica', 'Avant Garde', sans-serif; text-anchor: end" x="67.448" y="97.543219" transform="rotate(-0 67.448 97.543219)">100</text>
     </g>
    </g>
    <g id="text_15">
     <text style="font: 10px 'DejaVu Sans', 'Bitstream Vera Sans', 'Computer Modern Sans Serif', 'Lucida Grande', 'Verdana', 'Geneva', 'Lucid', 'Arial', 'Helvetica', 'Avant Garde', sans-serif; text-anchor: middle" x="42.280812" y="220.968" transform="rotate(-90 42.280812 220.968)">observers%</text>
    </g>
   </g>
   <g id="line2d_27">
    <path d="M 74.448 348.192 
L 161.61984 348.192 
L 163.51488 345.998483 
L 165.40992 344.367406 
L 167.30496 344.367406 
L 169.2 342.173889 
L 172.99008 342.173889 
L 174.88512 340.542812 
L 180.57024 340.542812 
L 182.46528 338.349294 
L 184.36032 336.718218 
L 188.1504 336.718218 
L 190.04544 334.5247 
L 191.94048 332.893623 
L 193.83552 332.893623 
L 195.73056 330.700106 
L 199.52064 330.700106 
L 201.41568 329.069029 
L 208.99584 329.069029 
L 210.89088 325.244435 
L 214.68096 321.982281 
L 216.576 317.08905 
L 220.36608 313.826897 
L 224.15616 313.826897 
L 226.0512 312.19582 
L 235.5264 312.19582 
L 239.31648 305.671512 
L 243.10656 302.409358 
L 245.0016 302.409358 
L 246.89664 297.516127 
L 248.79168 297.516127 
L 250.68672 294.253973 
L 256.37184 289.360743 
L 258.26688 287.167225 
L 260.16192 283.905072 
L 263.952 283.905072 
L 265.84704 282.273995 
L 269.63712 282.273995 
L 271.53216 280.080477 
L 273.4272 280.080477 
L 275.32224 278.449401 
L 277.21728 275.187247 
L 279.11232 273.55617 
L 281.00736 271.362653 
L 284.79744 271.362653 
L 286.69248 269.731576 
L 290.48256 269.731576 
L 292.3776 268.100499 
L 294.27264 264.838345 
L 307.53792 264.838345 
L 309.43296 263.207268 
L 311.328 259.382674 
L 313.22304 259.382674 
L 315.11808 257.751597 
L 317.01312 257.751597 
L 318.90816 256.12052 
L 320.8032 256.12052 
L 326.48832 251.227289 
L 328.38336 247.965135 
L 334.06848 247.965135 
L 337.85856 244.702981 
L 339.7536 244.702981 
L 341.64864 240.878387 
L 343.54368 240.878387 
L 345.43872 239.24731 
L 347.33376 239.24731 
L 349.2288 233.791639 
L 351.12384 233.791639 
L 353.01888 232.160562 
L 354.91392 232.160562 
L 356.80896 229.967045 
L 360.59904 229.967045 
L 364.38912 226.704891 
L 371.96928 226.704891 
L 373.86432 224.511374 
L 377.6544 224.511374 
L 379.54944 222.317857 
L 381.44448 222.317857 
L 383.33952 220.68678 
L 389.02464 220.68678 
L 390.91968 217.424626 
L 392.81472 215.231109 
L 404.18496 215.231109 
L 407.97504 211.968955 
L 409.87008 211.968955 
L 415.5552 205.388403 
L 417.45024 205.388403 
L 421.24032 202.126249 
L 423.13536 202.126249 
L 425.0304 197.739215 
L 434.5056 197.739215 
L 436.40064 196.108138 
L 442.08576 196.108138 
L 443.9808 194.477061 
L 455.35104 194.477061 
L 457.24608 192.845984 
L 459.14112 192.845984 
L 461.03616 191.214907 
L 476.19648 191.214907 
L 478.09152 189.02139 
L 481.8816 189.02139 
L 483.77664 187.390313 
L 487.56672 187.390313 
L 489.46176 185.759236 
L 491.3568 185.759236 
L 493.25184 184.128159 
L 495.14688 184.128159 
L 497.04192 181.934642 
L 498.93696 181.934642 
L 500.832 180.303565 
L 514.09728 180.303565 
L 515.99232 175.916531 
L 517.88736 175.916531 
L 519.7824 174.285454 
L 525.46752 174.285454 
L 527.36256 172.654377 
L 529.2576 170.460859 
L 557.6832 170.460859 
L 559.57824 168.267342 
L 595.584 168.267342 
L 597.47904 166.636265 
L 601.26912 166.636265 
L 603.16416 164.442748 
L 614.5344 164.442748 
L 616.42944 162.249231 
L 620.21952 162.249231 
L 622.11456 160.055714 
L 631.58976 160.055714 
L 633.4848 157.862196 
L 642.96 157.862196 
L 642.96 157.862196 
" clip-path="url(#p8b15f94808)" style="fill: none; stroke: #252525; stroke-width: 2.5; stroke-linecap: square"/>
   </g>
   <g id="line2d_28">
    <path d="M 74.448 348.192 
L 121.824 348.192 
L 123.71904 345.998483 
L 182.46528 345.998483 
L 184.36032 343.804966 
L 199.52064 343.804966 
L 201.41568 341.611448 
L 216.576 341.611448 
L 218.47104 339.417931 
L 254.4768 339.417931 
L 256.37184 335.593337 
L 258.26688 335.593337 
L 260.16192 333.39982 
L 262.05696 333.39982 
L 263.952 331.206302 
L 265.84704 325.188191 
L 267.74208 325.188191 
L 271.53216 321.926037 
L 279.11232 321.926037 
L 284.79744 315.345485 
L 286.69248 313.714408 
L 288.58752 313.714408 
L 290.48256 311.520891 
L 292.3776 311.520891 
L 294.27264 309.889814 
L 296.16768 309.889814 
L 298.06272 308.258737 
L 301.8528 308.258737 
L 303.74784 306.06522 
L 309.43296 306.06522 
L 313.22304 301.678186 
L 315.11808 298.416032 
L 317.01312 296.784955 
L 318.90816 292.960361 
L 324.59328 292.960361 
L 328.38336 288.573326 
L 347.33376 288.573326 
L 349.2288 285.311172 
L 351.12384 285.311172 
L 353.01888 283.117655 
L 356.80896 283.117655 
L 358.704 279.855501 
L 362.49408 279.855501 
L 364.38912 277.661984 
L 366.28416 276.030907 
L 370.07424 276.030907 
L 375.75936 271.137676 
L 379.54944 271.137676 
L 383.33952 267.875523 
L 387.1296 267.875523 
L 389.02464 265.682005 
L 390.91968 264.050928 
L 394.70976 264.050928 
L 396.6048 262.419851 
L 398.49984 262.419851 
L 400.39488 259.157698 
L 402.28992 259.157698 
L 404.18496 257.526621 
L 406.08 257.526621 
L 407.97504 255.895544 
L 409.87008 250.439873 
L 411.76512 250.439873 
L 413.66016 248.246355 
L 415.5552 248.246355 
L 417.45024 244.421761 
L 419.34528 244.421761 
L 421.24032 242.228244 
L 423.13536 242.228244 
L 425.0304 235.703936 
L 430.71552 230.810706 
L 436.40064 230.810706 
L 440.19072 227.548552 
L 443.9808 227.548552 
L 445.87584 225.355034 
L 449.66592 222.092881 
L 451.56096 218.268286 
L 453.456 218.268286 
L 455.35104 214.443692 
L 457.24608 214.443692 
L 459.14112 212.250175 
L 461.03616 212.250175 
L 462.9312 206.794504 
L 464.82624 206.794504 
L 466.72128 205.163427 
L 470.51136 205.163427 
L 472.4064 201.338833 
L 474.30144 201.338833 
L 476.19648 199.707756 
L 478.09152 199.707756 
L 479.98656 198.076679 
L 483.77664 198.076679 
L 485.67168 196.445602 
L 493.25184 196.445602 
L 495.14688 194.814525 
L 497.04192 191.552371 
L 498.93696 191.552371 
L 500.832 189.358854 
L 502.72704 187.727777 
L 519.7824 187.727777 
L 521.67744 186.0967 
L 523.57248 182.272106 
L 525.46752 177.885072 
L 531.15264 177.885072 
L 533.04768 176.253995 
L 538.7328 176.253995 
L 540.62784 174.060477 
L 542.52288 166.411289 
L 544.41792 164.780212 
L 555.78816 164.780212 
L 557.6832 161.518058 
L 559.57824 161.518058 
L 561.47328 159.886981 
L 565.26336 159.886981 
L 567.1584 158.255905 
L 569.05344 158.255905 
L 570.94848 156.062387 
L 572.84352 154.43131 
L 584.21376 154.43131 
L 586.1088 148.975639 
L 588.00384 147.344562 
L 591.79392 147.344562 
L 595.584 144.082408 
L 635.37984 144.082408 
L 637.27488 141.888891 
L 641.06496 141.888891 
L 642.96 139.695374 
L 642.96 139.695374 
" clip-path="url(#p8b15f94808)" style="fill: none; stroke: #3b83b4; stroke-width: 1.35; stroke-linecap: square"/>
   </g>
   <g id="line2d_29">
    <path d="M 74.448 348.192 
L 138.87936 348.192 
L 140.7744 346.560923 
L 144.56448 346.560923 
L 146.45952 344.929846 
L 161.61984 344.929846 
L 165.40992 341.667692 
L 169.2 341.667692 
L 171.09504 338.405538 
L 172.99008 336.774462 
L 176.78016 336.774462 
L 178.6752 333.512308 
L 180.57024 331.31879 
L 182.46528 329.687714 
L 191.94048 329.687714 
L 193.83552 328.056637 
L 199.52064 328.056637 
L 205.20576 323.163406 
L 212.78592 323.163406 
L 214.68096 321.532329 
L 235.5264 321.532329 
L 237.42144 318.270175 
L 239.31648 318.270175 
L 241.21152 316.639098 
L 252.58176 316.639098 
L 254.4768 315.008021 
L 256.37184 315.008021 
L 258.26688 310.11479 
L 260.16192 306.852637 
L 263.952 303.590483 
L 265.84704 303.590483 
L 267.74208 301.396966 
L 269.63712 301.396966 
L 273.4272 298.134812 
L 275.32224 298.134812 
L 277.21728 294.872658 
L 292.3776 294.872658 
L 294.27264 293.241581 
L 296.16768 293.241581 
L 299.95776 289.979427 
L 303.74784 289.979427 
L 305.64288 287.78591 
L 307.53792 286.154833 
L 309.43296 286.154833 
L 313.22304 281.767798 
L 315.11808 281.767798 
L 317.01312 279.574281 
L 322.69824 274.68105 
L 324.59328 274.68105 
L 326.48832 273.049973 
L 330.2784 273.049973 
L 332.17344 270.856456 
L 334.06848 267.594302 
L 335.96352 265.963225 
L 337.85856 265.963225 
L 339.7536 264.332149 
L 343.54368 264.332149 
L 345.43872 262.701072 
L 347.33376 260.507554 
L 358.704 260.507554 
L 362.49408 256.12052 
L 366.28416 256.12052 
L 368.1792 254.489443 
L 381.44448 254.489443 
L 387.1296 249.596212 
L 389.02464 249.596212 
L 390.91968 247.965135 
L 392.81472 247.965135 
L 394.70976 246.334058 
L 406.08 246.334058 
L 407.97504 243.071905 
L 419.34528 243.071905 
L 421.24032 241.440828 
L 423.13536 241.440828 
L 425.0304 239.809751 
L 426.92544 239.809751 
L 430.71552 236.547597 
L 447.77088 236.547597 
L 449.66592 234.91652 
L 455.35104 234.91652 
L 457.24608 233.285443 
L 459.14112 233.285443 
L 461.03616 230.023289 
L 462.9312 227.829772 
L 464.82624 227.829772 
L 466.72128 226.198695 
L 479.98656 226.198695 
L 481.8816 224.567618 
L 485.67168 224.567618 
L 487.56672 220.743024 
L 489.46176 220.743024 
L 491.3568 219.111947 
L 495.14688 214.724912 
L 497.04192 214.724912 
L 498.93696 212.531395 
L 502.72704 212.531395 
L 506.51712 209.269241 
L 508.41216 207.075724 
L 519.7824 207.075724 
L 521.67744 204.882207 
L 525.46752 204.882207 
L 527.36256 201.057613 
L 529.2576 199.426536 
L 534.94272 199.426536 
L 536.83776 196.164382 
L 538.7328 196.164382 
L 540.62784 194.533305 
L 561.47328 194.533305 
L 563.36832 190.708711 
L 565.26336 190.708711 
L 567.1584 188.515194 
L 589.89888 188.515194 
L 591.79392 182.497082 
L 597.47904 182.497082 
L 599.37408 180.866005 
L 605.0592 180.866005 
L 606.95424 178.672488 
L 612.63936 178.672488 
L 614.5344 177.041411 
L 631.58976 177.041411 
L 633.4848 175.410334 
L 642.96 175.410334 
L 642.96 175.410334 
" clip-path="url(#p8b15f94808)" style="fill: none; stroke-dasharray: 4.995,2.16; stroke-dashoffset: 0; stroke: #c38a19; stroke-width: 1.35"/>
   </g>
   <g id="line2d_30">
    <path d="M 74.448 348.192 
L 163.51488 348.192 
L 165.40992 346.560923 
L 167.30496 346.560923 
L 169.2 344.929846 
L 174.88512 344.929846 
L 176.78016 342.736329 
L 178.6752 341.105252 
L 182.46528 341.105252 
L 184.36032 339.474175 
L 186.25536 339.474175 
L 188.1504 337.843098 
L 205.20576 337.843098 
L 208.99584 334.580944 
L 210.89088 334.580944 
L 212.78592 332.949867 
L 216.576 332.949867 
L 218.47104 329.125273 
L 220.36608 327.494196 
L 226.0512 327.494196 
L 229.84128 320.969889 
L 231.73632 319.338812 
L 233.63136 319.338812 
L 239.31648 314.445581 
L 246.89664 314.445581 
L 248.79168 312.814504 
L 252.58176 312.814504 
L 254.4768 311.183427 
L 256.37184 311.183427 
L 258.26688 309.55235 
L 260.16192 307.358833 
L 265.84704 307.358833 
L 267.74208 305.165316 
L 269.63712 303.534239 
L 271.53216 301.340721 
L 282.9024 301.340721 
L 284.79744 299.147204 
L 286.69248 299.147204 
L 288.58752 296.953687 
L 292.3776 293.691533 
L 294.27264 290.429379 
L 296.16768 290.429379 
L 298.06272 288.798302 
L 299.95776 288.798302 
L 301.8528 287.167225 
L 303.74784 284.973708 
L 307.53792 284.973708 
L 309.43296 281.711554 
L 311.328 281.711554 
L 313.22304 280.080477 
L 315.11808 280.080477 
L 317.01312 278.449401 
L 318.90816 275.187247 
L 320.8032 271.362653 
L 322.69824 269.731576 
L 324.59328 269.731576 
L 328.38336 266.469422 
L 330.2784 262.644828 
L 335.96352 262.644828 
L 337.85856 261.013751 
L 339.7536 261.013751 
L 341.64864 259.382674 
L 343.54368 256.12052 
L 345.43872 256.12052 
L 347.33376 254.489443 
L 360.59904 254.489443 
L 362.49408 252.858366 
L 370.07424 252.858366 
L 371.96928 251.227289 
L 379.54944 251.227289 
L 381.44448 247.965135 
L 389.02464 247.965135 
L 392.81472 244.702981 
L 398.49984 244.702981 
L 400.39488 243.071905 
L 406.08 243.071905 
L 407.97504 241.440828 
L 413.66016 241.440828 
L 417.45024 238.178674 
L 421.24032 238.178674 
L 423.13536 236.547597 
L 425.0304 236.547597 
L 426.92544 234.35408 
L 428.82048 234.35408 
L 430.71552 232.160562 
L 434.5056 232.160562 
L 436.40064 230.529485 
L 443.9808 230.529485 
L 445.87584 227.267332 
L 451.56096 227.267332 
L 453.456 225.636255 
L 455.35104 225.636255 
L 459.14112 221.24922 
L 464.82624 221.24922 
L 466.72128 219.055703 
L 468.61632 219.055703 
L 470.51136 217.424626 
L 474.30144 217.424626 
L 476.19648 214.162472 
L 478.09152 214.162472 
L 479.98656 210.337878 
L 481.8816 210.337878 
L 483.77664 208.144361 
L 485.67168 206.513284 
L 489.46176 206.513284 
L 491.3568 204.319767 
L 523.57248 204.319767 
L 527.36256 201.057613 
L 531.15264 201.057613 
L 533.04768 199.426536 
L 534.94272 197.233019 
L 536.83776 197.233019 
L 538.7328 195.601942 
L 542.52288 195.601942 
L 544.41792 191.214907 
L 546.31296 189.02139 
L 548.208 189.02139 
L 550.10304 187.390313 
L 559.57824 187.390313 
L 561.47328 185.759236 
L 567.1584 185.759236 
L 569.05344 183.565719 
L 570.94848 181.934642 
L 599.37408 181.934642 
L 601.26912 179.741125 
L 606.95424 179.741125 
L 608.84928 178.110048 
L 612.63936 178.110048 
L 614.5344 174.847894 
L 624.0096 174.847894 
L 625.90464 173.216817 
L 641.06496 173.216817 
L 642.96 171.0233 
L 642.96 171.0233 
" clip-path="url(#p8b15f94808)" style="fill: none; stroke-dasharray: 1.35,2.2275; stroke-dashoffset: 0; stroke: #7d8a92; stroke-width: 1.35"/>
   </g>
   <g id="line2d_31">
    <path d="M 74.448 348.192 
L 201.41568 348.192 
L 203.31072 345.998483 
L 267.74208 345.998483 
L 269.63712 344.367406 
L 290.48256 344.367406 
L 292.3776 342.173889 
L 294.27264 342.173889 
L 296.16768 339.980371 
L 311.328 339.980371 
L 313.22304 338.349294 
L 315.11808 338.349294 
L 317.01312 336.718218 
L 320.8032 336.718218 
L 324.59328 333.456064 
L 339.7536 333.456064 
L 341.64864 331.824987 
L 364.38912 331.824987 
L 366.28416 330.19391 
L 368.1792 328.000393 
L 371.96928 324.738239 
L 373.86432 324.738239 
L 375.75936 323.107162 
L 377.6544 319.845008 
L 385.23456 319.845008 
L 389.02464 316.582854 
L 390.91968 316.582854 
L 392.81472 314.951777 
L 400.39488 314.951777 
L 402.28992 313.3207 
L 404.18496 313.3207 
L 406.08 308.427469 
L 413.66016 308.427469 
L 415.5552 306.796393 
L 421.24032 306.796393 
L 423.13536 305.165316 
L 426.92544 305.165316 
L 428.82048 303.534239 
L 430.71552 303.534239 
L 438.29568 297.009931 
L 447.77088 297.009931 
L 449.66592 295.378854 
L 451.56096 293.185337 
L 453.456 293.185337 
L 455.35104 289.360743 
L 462.9312 289.360743 
L 464.82624 287.167225 
L 468.61632 287.167225 
L 470.51136 284.973708 
L 472.4064 283.342631 
L 474.30144 283.342631 
L 478.09152 280.080477 
L 479.98656 280.080477 
L 481.8816 278.449401 
L 483.77664 278.449401 
L 485.67168 274.624806 
L 487.56672 271.362653 
L 491.3568 268.100499 
L 493.25184 268.100499 
L 497.04192 264.838345 
L 498.93696 262.644828 
L 500.832 262.644828 
L 502.72704 259.382674 
L 504.62208 257.751597 
L 512.20224 257.751597 
L 514.09728 254.489443 
L 515.99232 254.489443 
L 517.88736 252.858366 
L 519.7824 252.858366 
L 521.67744 251.227289 
L 523.57248 249.033772 
L 525.46752 247.402695 
L 527.36256 243.578101 
L 531.15264 243.578101 
L 533.04768 241.947024 
L 540.62784 241.947024 
L 542.52288 240.315947 
L 546.31296 240.315947 
L 548.208 238.12243 
L 551.99808 234.860276 
L 553.89312 234.860276 
L 561.47328 228.335968 
L 563.36832 226.142451 
L 578.52864 226.142451 
L 580.42368 222.880297 
L 591.79392 222.880297 
L 593.68896 217.987066 
L 595.584 217.987066 
L 597.47904 216.355989 
L 606.95424 216.355989 
L 608.84928 212.531395 
L 610.74432 212.531395 
L 612.63936 210.337878 
L 616.42944 210.337878 
L 618.32448 208.706801 
L 625.90464 208.706801 
L 627.79968 205.444647 
L 629.69472 203.81357 
L 631.58976 203.81357 
L 633.4848 201.620053 
L 635.37984 201.620053 
L 637.27488 199.988976 
L 639.16992 197.795459 
L 641.06496 197.795459 
L 642.96 195.601942 
L 642.96 195.601942 
" clip-path="url(#p8b15f94808)" style="fill: none; stroke-dasharray: 8.64,2.16,1.35,2.16; stroke-dashoffset: 0; stroke: #d0526a; stroke-width: 1.35"/>
   </g>
   <g id="line2d_32">
    <path d="M 74.448 348.192 
L 207.1008 348.192 
L 208.99584 343.804966 
L 212.78592 343.804966 
L 214.68096 341.611448 
L 216.576 341.611448 
L 218.47104 339.417931 
L 222.26112 339.417931 
L 226.0512 335.030897 
L 231.73632 335.030897 
L 233.63136 332.837379 
L 235.5264 332.837379 
L 237.42144 330.643862 
L 256.37184 330.643862 
L 262.05696 324.06331 
L 273.4272 324.06331 
L 275.32224 321.869793 
L 298.06272 321.869793 
L 299.95776 319.676276 
L 301.8528 319.676276 
L 303.74784 317.482759 
L 317.01312 317.482759 
L 318.90816 313.095724 
L 322.69824 313.095724 
L 326.48832 308.70869 
L 337.85856 308.70869 
L 339.7536 306.515172 
L 347.33376 306.515172 
L 349.2288 304.321655 
L 358.704 304.321655 
L 362.49408 299.934621 
L 370.07424 299.934621 
L 371.96928 297.741103 
L 379.54944 297.741103 
L 381.44448 293.354069 
L 387.1296 293.354069 
L 389.02464 291.160552 
L 390.91968 291.160552 
L 392.81472 288.967034 
L 415.5552 288.967034 
L 419.34528 284.58 
L 447.77088 284.58 
L 449.66592 280.192966 
L 466.72128 280.192966 
L 468.61632 277.999448 
L 476.19648 277.999448 
L 478.09152 276.368371 
L 487.56672 276.368371 
L 489.46176 274.174854 
L 493.25184 274.174854 
L 498.93696 267.594302 
L 510.3072 267.594302 
L 512.20224 263.207268 
L 514.09728 263.207268 
L 515.99232 261.576191 
L 517.88736 259.382674 
L 550.10304 259.382674 
L 553.89312 256.12052 
L 557.6832 256.12052 
L 559.57824 254.489443 
L 561.47328 252.295926 
L 574.73856 252.295926 
L 578.52864 249.033772 
L 582.31872 249.033772 
L 584.21376 247.402695 
L 586.1088 247.402695 
L 588.00384 245.771618 
L 591.79392 245.771618 
L 593.68896 242.509464 
L 595.584 242.509464 
L 599.37408 239.24731 
L 601.26912 239.24731 
L 603.16416 237.616233 
L 605.0592 237.616233 
L 606.95424 235.985156 
L 620.21952 235.985156 
L 622.11456 234.35408 
L 624.0096 234.35408 
L 625.90464 231.091926 
L 627.79968 229.460849 
L 631.58976 229.460849 
L 633.4848 226.198695 
L 639.16992 226.198695 
L 641.06496 224.567618 
L 642.96 224.567618 
L 642.96 224.567618 
" clip-path="url(#p8b15f94808)" style="fill: none; stroke-dasharray: 6.75,2.7,1.35,2.7; stroke-dashoffset: 0; stroke: #2f8f84; stroke-width: 1.35"/>
   </g>
   <g id="patch_4">
    <path d="M 74.448 348.192 
L 74.448 93.744 
" style="fill: none; stroke: #000000; stroke-width: 0.8; stroke-linejoin: miter; stroke-linecap: square"/>
   </g>
   <g id="patch_5">
    <path d="M 74.448 348.192 
L 642.96 348.192 
" style="fill: none; stroke: #000000; stroke-width: 0.8; stroke-linejoin: miter; stroke-linecap: square"/>
   </g>
  </g>
  <g id="text_16">
   <text style="font: 18px 'DejaVu Sans', 'Bitstream Vera Sans', 'Computer Modern Sans Serif', 'Lucida Grande', 'Verdana', 'Geneva', 'Lucid', 'Arial', 'Helvetica', 'Avant Garde', sans-serif; text-anchor: start" x="74.448" y="38.229188" transform="rotate(-0 74.448 38.229188)">D55 Direct</text>
  </g>
  <g id="text_17">
   <text style="fill: #66747c; font: 10px 'DejaVu Sans', 'Bitstream Vera Sans', 'Computer Modern Sans Serif', 'Lucida Grande', 'Verdana', 'Geneva', 'Lucid', 'Arial', 'Helvetica', 'Avant Garde', sans-serif; text-anchor: start" x="74.448" y="64.728" transform="rotate(-0 74.448 64.728)">All devices</text>
  </g>
  <g id="legend_1">
   <g id="line2d_33">
    <path d="M 185.17875 404.151391 
L 194.27875 404.151391 
L 203.37875 404.151391 
" style="fill: none; stroke: #252525; stroke-width: 2.5; stroke-linecap: square"/>
   </g>
   <g id="text_18">
    <text style="font: 9.1px 'DejaVu Sans', 'Bitstream Vera Sans', 'Computer Modern Sans Serif', 'Lucida Grande', 'Verdana', 'Geneva', 'Lucid', 'Arial', 'Helvetica', 'Avant Garde', sans-serif; text-anchor: start" x="210.65875" y="407.336391" transform="rotate(-0 210.65875 407.336391)">Potera CMF</text>
   </g>
   <g id="line2d_34">
    <path d="M 185.17875 417.508484 
L 194.27875 417.508484 
L 203.37875 417.508484 
" style="fill: none; stroke: #3b83b4; stroke-width: 1.35; stroke-linecap: square"/>
   </g>
   <g id="text_19">
    <text style="font: 9.1px 'DejaVu Sans', 'Bitstream Vera Sans', 'Computer Modern Sans Serif', 'Lucida Grande', 'Verdana', 'Geneva', 'Lucid', 'Arial', 'Helvetica', 'Avant Garde', sans-serif; text-anchor: start" x="210.65875" y="420.693484" transform="rotate(-0 210.65875 420.693484)">CIE 2015 2°</text>
   </g>
   <g id="line2d_35">
    <path d="M 282.931234 404.151391 
L 292.031234 404.151391 
L 301.131234 404.151391 
" style="fill: none; stroke-dasharray: 4.995,2.16; stroke-dashoffset: 0; stroke: #c38a19; stroke-width: 1.35"/>
   </g>
   <g id="text_20">
    <text style="font: 9.1px 'DejaVu Sans', 'Bitstream Vera Sans', 'Computer Modern Sans Serif', 'Lucida Grande', 'Verdana', 'Geneva', 'Lucid', 'Arial', 'Helvetica', 'Avant Garde', sans-serif; text-anchor: start" x="308.411234" y="407.336391" transform="rotate(-0 308.411234 407.336391)">CIE 2015 10°</text>
   </g>
   <g id="line2d_36">
    <path d="M 282.931234 417.508484 
L 292.031234 417.508484 
L 301.131234 417.508484 
" style="fill: none; stroke-dasharray: 1.35,2.2275; stroke-dashoffset: 0; stroke: #7d8a92; stroke-width: 1.35"/>
   </g>
   <g id="text_21">
    <text style="font: 9.1px 'DejaVu Sans', 'Bitstream Vera Sans', 'Computer Modern Sans Serif', 'Lucida Grande', 'Verdana', 'Geneva', 'Lucid', 'Arial', 'Helvetica', 'Avant Garde', sans-serif; text-anchor: start" x="308.411234" y="420.693484" transform="rotate(-0 308.411234 420.693484)">CIE 1964 10°</text>
   </g>
   <g id="line2d_37">
    <path d="M 386.473594 404.151391 
L 395.573594 404.151391 
L 404.673594 404.151391 
" style="fill: none; stroke-dasharray: 8.64,2.16,1.35,2.16; stroke-dashoffset: 0; stroke: #d0526a; stroke-width: 1.35"/>
   </g>
   <g id="text_22">
    <text style="font: 9.1px 'DejaVu Sans', 'Bitstream Vera Sans', 'Computer Modern Sans Serif', 'Lucida Grande', 'Verdana', 'Geneva', 'Lucid', 'Arial', 'Helvetica', 'Avant Garde', sans-serif; text-anchor: start" x="411.953594" y="407.336391" transform="rotate(-0 411.953594 407.336391)">CIE 1931 2°</text>
   </g>
   <g id="line2d_38">
    <path d="M 386.473594 417.508484 
L 395.573594 417.508484 
L 404.673594 417.508484 
" style="fill: none; stroke-dasharray: 6.75,2.7,1.35,2.7; stroke-dashoffset: 0; stroke: #2f8f84; stroke-width: 1.35"/>
   </g>
   <g id="text_23">
    <text style="font: 9.1px 'DejaVu Sans', 'Bitstream Vera Sans', 'Computer Modern Sans Serif', 'Lucida Grande', 'Verdana', 'Geneva', 'Lucid', 'Arial', 'Helvetica', 'Avant Garde', sans-serif; text-anchor: start" x="411.953594" y="420.693484" transform="rotate(-0 411.953594 420.693484)">Judd–Vos 1978 2°</text>
   </g>
  </g>
 </g>
 <defs>
  <clipPath id="p8b15f94808">
   <rect x="74.448" y="93.744" width="568.512" height="254.448"/>
  </clipPath>
 </defs>
</svg>
