<?xml version="1.0" encoding="utf-8" standalone="no"?>
<!DOCTYPE svg PUBLIC "-//W3C//DTD SVG 1.1//EN"
  "http://www.w3.org/Graphics/SVG/1.1/DTD/svg11.dtd">
<svg xmlns:xlink="http://www.w3.org/1999/xlink" width="676.8pt" height="446.4pt" viewBox="0 0 676.8 446.4" xmlns="http://www.w3.org/2000/svg" version="1.1">
 <metadata>
  <rdf:RDF xmlns:dc="http://purl.org/dc/elements/1.1/" xmlns:cc="http://creativecommons.org/ns#" xmlns:rdf="http://www.w3.org/1999/02/22-rdf-syntax-ns#">
   <cc:Work>
    <dc:type rdf:resource="http://purl.org/dc/dcmitype/StillImage"/>
    <dc:date>2026-07-20T06:41:55.406798</dc:date>
    <dc:format>image/svg+xml</dc:format>
    <dc:creator>
     <cc:Agent>
      <dc:title>Matplotlib v3.9.4, https://matplotlib.org/</dc:title>
     </cc:Agent>
    </dc:creator>
   </cc:Work>
  </rdf:RDF>
 </metadata>
 <defs>
  <style type="text/css">*{stroke-linejoin: round; stroke-linecap: butt}</style>
 </defs>
 <g id="figure_1">
  <g id="patch_1">
   <path d="M 0 446.4 
L 676.8 446.4 
L 676.8 0 
L 0 0 
z
" style="fill: #ffffff"/>
  </g>
  <g id="axes_1">
   <g id="patch_2">
    <path d="M 74.448 348.192 
L 642.96 348.192 
L 642.96 93.744 
L 74.448 93.744 
z
" style="fill: #ffffff"/>
   </g>
   <g id="patch_3">
    <path d="M 169.2 348.192 
L 358.704 348.192 
L 358.704 93.744 
L 169.2 93.744 
z
" clip-path="url(#p788ed2ecb2)" style="fill: #e7f0ea; opacity: 0.58; stroke: #e7f0ea; stroke-linejoin: miter"/>
   </g>
   <g id="matplotlib.axis_1">
    <g id="xtick_1">
     <g id="line2d_1">
      <path d="M 74.448 348.192 
L 74.448 93.744 
" clip-path="url(#p788ed2ecb2)" style="fill: none; stroke: #dfe5e8; stroke-width: 0.65; stroke-linecap: square"/>
     </g>
     <g id="line2d_2">
      <defs>
       <path id="m7633c857b2" d="M 0 0 
L 0 3.5 
" style="stroke: #000000; stroke-width: 0.8"/>
      </defs>
      <g>
       <use xlink:href="#m7633c857b2" x="74.448" y="348.192" style="stroke: #000000; stroke-width: 0.8"/>
      </g>
     </g>
     <g id="text_1">
      <text style="font: 10px 'DejaVu Sans', 'Bitstream Vera Sans', 'Computer Modern Sans Serif', 'Lucida Grande', 'Verdana', 'Geneva', 'Lucid', 'Arial', 'Helvetica', 'Avant Garde', sans-serif; text-anchor: middle" x="74.448" y="362.790438" transform="rotate(-0 74.448 362.790438)">0</text>
     </g>
    </g>
    <g id="xtick_2">
     <g id="line2d_3">
      <path d="M 169.2 348.192 
L 169.2 93.744 
" clip-path="url(#p788ed2ecb2)" style="fill: none; stroke: #dfe5e8; stroke-width: 0.65; stroke-linecap: square"/>
     </g>
     <g id="line2d_4">
      <g>
       <use xlink:href="#m7633c857b2" x="169.2" y="348.192" style="stroke: #000000; stroke-width: 0.8"/>
      </g>
     </g>
     <g id="text_2">
      <text style="font: 10px 'DejaVu Sans', 'Bitstream Vera Sans', 'Computer Modern Sans Serif', 'Lucida Grande', 'Verdana', 'Geneva', 'Lucid', 'Arial', 'Helvetica', 'Avant Garde', sans-serif; text-anchor: middle" x="169.2" y="362.790438" transform="rotate(-0 169.2 362.790438)">1</text>
     </g>
    </g>
    <g id="xtick_3">
     <g id="line2d_5">
      <path d="M 263.952 348.192 
L 263.952 93.744 
" clip-path="url(#p788ed2ecb2)" style="fill: none; stroke: #dfe5e8; stroke-width: 0.65; stroke-linecap: square"/>
     </g>
     <g id="line2d_6">
      <g>
       <use xlink:href="#m7633c857b2" x="263.952" y="348.192" style="stroke: #000000; stroke-width: 0.8"/>
      </g>
     </g>
     <g id="text_3">
      <text style="font: 10px 'DejaVu Sans', 'Bitstream Vera Sans', 'Computer Modern Sans Serif', 'Lucida Grande', 'Verdana', 'Geneva', 'Lucid', 'Arial', 'Helvetica', 'Avant Garde', sans-serif; text-anchor: middle" x="263.952" y="362.790438" transform="rotate(-0 263.952 362.790438)">2</text>
     </g>
    </g>
    <g id="xtick_4">
     <g id="line2d_7">
      <path d="M 358.704 348.192 
L 358.704 93.744 
" clip-path="url(#p788ed2ecb2)" style="fill: none; stroke: #dfe5e8; stroke-width: 0.65; stroke-linecap: square"/>
     </g>
     <g id="line2d_8">
      <g>
       <use xlink:href="#m7633c857b2" x="358.704" y="348.192" style="stroke: #000000; stroke-width: 0.8"/>
      </g>
     </g>
     <g id="text_4">
      <text style="font: 10px 'DejaVu Sans', 'Bitstream Vera Sans', 'Computer Modern Sans Serif', 'Lucida Grande', 'Verdana', 'Geneva', 'Lucid', 'Arial', 'Helvetica', 'Avant Garde', sans-serif; text-anchor: middle" x="358.704" y="362.790438" transform="rotate(-0 358.704 362.790438)">3</text>
     </g>
    </g>
    <g id="xtick_5">
     <g id="line2d_9">
      <path d="M 453.456 348.192 
L 453.456 93.744 
" clip-path="url(#p788ed2ecb2)" style="fill: none; stroke: #dfe5e8; stroke-width: 0.65; stroke-linecap: square"/>
     </g>
     <g id="line2d_10">
      <g>
       <use xlink:href="#m7633c857b2" x="453.456" y="348.192" style="stroke: #000000; stroke-width: 0.8"/>
      </g>
     </g>
     <g id="text_5">
      <text style="font: 10px 'DejaVu Sans', 'Bitstream Vera Sans', 'Computer Modern Sans Serif', 'Lucida Grande', 'Verdana', 'Geneva', 'Lucid', 'Arial', 'Helvetica', 'Avant Garde', sans-serif; text-anchor: middle" x="453.456" y="362.790438" transform="rotate(-0 453.456 362.790438)">4</text>
     </g>
    </g>
    <g id="xtick_6">
     <g id="line2d_11">
      <path d="M 548.208 348.192 
L 548.208 93.744 
" clip-path="url(#p788ed2ecb2)" style="fill: none; stroke: #dfe5e8; stroke-width: 0.65; stroke-linecap: square"/>
     </g>
     <g id="line2d_12">
      <g>
       <use xlink:href="#m7633c857b2" x="548.208" y="348.192" style="stroke: #000000; stroke-width: 0.8"/>
      </g>
     </g>
     <g id="text_6">
      <text style="font: 10px 'DejaVu Sans', 'Bitstream Vera Sans', 'Computer Modern Sans Serif', 'Lucida Grande', 'Verdana', 'Geneva', 'Lucid', 'Arial', 'Helvetica', 'Avant Garde', sans-serif; text-anchor: middle" x="548.208" y="362.790438" transform="rotate(-0 548.208 362.790438)">5</text>
     </g>
    </g>
    <g id="xtick_7">
     <g id="line2d_13">
      <path d="M 642.96 348.192 
L 642.96 93.744 
" clip-path="url(#p788ed2ecb2)" style="fill: none; stroke: #dfe5e8; stroke-width: 0.65; stroke-linecap: square"/>
     </g>
     <g id="line2d_14">
      <g>
       <use xlink:href="#m7633c857b2" x="642.96" y="348.192" style="stroke: #000000; stroke-width: 0.8"/>
      </g>
     </g>
     <g id="text_7">
      <text style="font: 10px 'DejaVu Sans', 'Bitstream Vera Sans', 'Computer Modern Sans Serif', 'Lucida Grande', 'Verdana', 'Geneva', 'Lucid', 'Arial', 'Helvetica', 'Avant Garde', sans-serif; text-anchor: middle" x="642.96" y="362.790438" transform="rotate(-0 642.96 362.790438)">6</text>
     </g>
    </g>
    <g id="text_8">
     <text style="font: 10px 'DejaVu Sans', 'Bitstream Vera Sans', 'Computer Modern Sans Serif', 'Lucida Grande', 'Verdana', 'Geneva', 'Lucid', 'Arial', 'Helvetica', 'Avant Garde', sans-serif; text-anchor: middle" x="358.704" y="376.468563" transform="rotate(-0 358.704 376.468563)">sUCS dE threshold</text>
    </g>
   </g>
   <g id="matplotlib.axis_2">
    <g id="ytick_1">
     <g id="line2d_15">
      <path d="M 74.448 348.192 
L 642.96 348.192 
" clip-path="url(#p788ed2ecb2)" style="fill: none; stroke: #dfe5e8; stroke-width: 0.65; stroke-linecap: square"/>
     </g>
     <g id="line2d_16">
      <defs>
       <path id="mfb3109a6c2" d="M 0 0 
L -3.5 0 
" style="stroke: #000000; stroke-width: 0.8"/>
      </defs>
      <g>
       <use xlink:href="#mfb3109a6c2" x="74.448" y="348.192" style="stroke: #000000; stroke-width: 0.8"/>
      </g>
     </g>
     <g id="text_9">
      <text style="font: 10px 'DejaVu Sans', 'Bitstream Vera Sans', 'Computer Modern Sans Serif', 'Lucida Grande', 'Verdana', 'Geneva', 'Lucid', 'Arial', 'Helvetica', 'Avant Garde', sans-serif; text-anchor: end" x="67.448" y="351.991219" transform="rotate(-0 67.448 351.991219)">0</text>
     </g>
    </g>
    <g id="ytick_2">
     <g id="line2d_17">
      <path d="M 74.448 297.3024 
L 642.96 297.3024 
" clip-path="url(#p788ed2ecb2)" style="fill: none; stroke: #dfe5e8; stroke-width: 0.65; stroke-linecap: square"/>
     </g>
     <g id="line2d_18">
      <g>
       <use xlink:href="#mfb3109a6c2" x="74.448" y="297.3024" style="stroke: #000000; stroke-width: 0.8"/>
      </g>
     </g>
     <g id="text_10">
      <text style="font: 10px 'DejaVu Sans', 'Bitstream Vera Sans', 'Computer Modern Sans Serif', 'Lucida Grande', 'Verdana', 'Geneva', 'Lucid', 'Arial', 'Helvetica', 'Avant Garde', sans-serif; text-anchor: end" x="67.448" y="301.101619" transform="rotate(-0 67.448 301.101619)">20</text>
     </g>
    </g>
    <g id="ytick_3">
     <g id="line2d_19">
      <path d="M 74.448 246.4128 
L 642.96 246.4128 
" clip-path="url(#p788ed2ecb2)" style="fill: none; stroke: #dfe5e8; stroke-width: 0.65; stroke-linecap: square"/>
     </g>
     <g id="line2d_20">
      <g>
       <use xlink:href="#mfb3109a6c2" x="74.448" y="246.4128" style="stroke: #000000; stroke-width: 0.8"/>
      </g>
     </g>
     <g id="text_11">
      <text style="font: 10px 'DejaVu Sans', 'Bitstream Vera Sans', 'Computer Modern Sans Serif', 'Lucida Grande', 'Verdana', 'Geneva', 'Lucid', 'Arial', 'Helvetica', 'Avant Garde', sans-serif; text-anchor: end" x="67.448" y="250.212019" transform="rotate(-0 67.448 250.212019)">40</text>
     </g>
    </g>
    <g id="ytick_4">
     <g id="line2d_21">
      <path d="M 74.448 195.5232 
L 642.96 195.5232 
" clip-path="url(#p788ed2ecb2)" style="fill: none; stroke: #dfe5e8; stroke-width: 0.65; stroke-linecap: square"/>
     </g>
     <g id="line2d_22">
      <g>
       <use xlink:href="#mfb3109a6c2" x="74.448" y="195.5232" style="stroke: #000000; stroke-width: 0.8"/>
      </g>
     </g>
     <g id="text_12">
      <text style="font: 10px 'DejaVu Sans', 'Bitstream Vera Sans', 'Computer Modern Sans Serif', 'Lucida Grande', 'Verdana', 'Geneva', 'Lucid', 'Arial', 'Helvetica', 'Avant Garde', sans-serif; text-anchor: end" x="67.448" y="199.322419" transform="rotate(-0 67.448 199.322419)">60</text>
     </g>
    </g>
    <g id="ytick_5">
     <g id="line2d_23">
      <path d="M 74.448 144.6336 
L 642.96 144.6336 
" clip-path="url(#p788ed2ecb2)" style="fill: none; stroke: #dfe5e8; stroke-width: 0.65; stroke-linecap: square"/>
     </g>
     <g id="line2d_24">
      <g>
       <use xlink:href="#mfb3109a6c2" x="74.448" y="144.6336" style="stroke: #000000; stroke-width: 0.8"/>
      </g>
     </g>
     <g id="text_13">
      <text style="font: 10px 'DejaVu Sans', 'Bitstream Vera Sans', 'Computer Modern Sans Serif', 'Lucida Grande', 'Verdana', 'Geneva', 'Lucid', 'Arial', 'Helvetica', 'Avant Garde', sans-serif; text-anchor: end" x="67.448" y="148.432819" transform="rotate(-0 67.448 148.432819)">80</text>
     </g>
    </g>
    <g id="ytick_6">
     <g id="line2d_25">
      <path d="M 74.448 93.744 
L 642.96 93.744 
" clip-path="url(#p788ed2ecb2)" style="fill: none; stroke: #dfe5e8; stroke-width: 0.65; stroke-linecap: square"/>
     </g>
     <g id="line2d_26">
      <g>
       <use xlink:href="#mfb3109a6c2" x="74.448" y="93.744" style="stroke: #000000; stroke-width: 0.8"/>
      </g>
     </g>
     <g id="text_14">
      <text style="font: 10px 'DejaVu Sans', 'Bitstream Vera Sans', 'Computer Modern Sans Serif', 'Lucida Grande', 'Verdana', 'Geneva', 'Lucid', 'Arial', 'Helvetica', 'Avant Garde', sans-serif; text-anchor: end" x="67.448" y="97.543219" transform="rotate(-0 67.448 97.543219)">100</text>
     </g>
    </g>
    <g id="text_15">
     <text style="font: 10px 'DejaVu Sans', 'Bitstream Vera Sans', 'Computer Modern Sans Serif', 'Lucida Grande', 'Verdana', 'Geneva', 'Lucid', 'Arial', 'Helvetica', 'Avant Garde', sans-serif; text-anchor: middle" x="42.280812" y="220.968" transform="rotate(-90 42.280812 220.968)">observers%</text>
    </g>
   </g>
   <g id="line2d_27">
    <path d="M 74.448 348.192 
L 110.45376 348.192 
L 112.3488 346.560923 
L 118.03392 346.560923 
L 119.92896 344.929846 
L 127.50912 344.929846 
L 131.2992 341.667692 
L 140.7744 341.667692 
L 142.66944 340.036615 
L 152.14464 340.036615 
L 154.03968 337.843098 
L 157.82976 334.580944 
L 159.7248 334.580944 
L 161.61984 332.949867 
L 165.40992 332.949867 
L 167.30496 331.31879 
L 169.2 331.31879 
L 171.09504 329.687714 
L 172.99008 329.687714 
L 176.78016 326.42556 
L 178.6752 326.42556 
L 180.57024 323.163406 
L 182.46528 320.969889 
L 184.36032 316.582854 
L 186.25536 316.582854 
L 188.1504 314.389337 
L 191.94048 311.127183 
L 197.6256 311.127183 
L 199.52064 309.496106 
L 201.41568 309.496106 
L 203.31072 306.233952 
L 205.20576 304.602875 
L 208.99584 304.602875 
L 210.89088 302.971798 
L 212.78592 299.147204 
L 214.68096 297.516127 
L 220.36608 297.516127 
L 222.26112 295.88505 
L 227.94624 295.88505 
L 229.84128 292.060456 
L 239.31648 292.060456 
L 241.21152 290.429379 
L 245.0016 290.429379 
L 246.89664 285.536149 
L 248.79168 285.536149 
L 250.68672 283.342631 
L 252.58176 280.080477 
L 254.4768 280.080477 
L 256.37184 276.255883 
L 258.26688 276.255883 
L 263.952 271.362653 
L 269.63712 271.362653 
L 273.4272 268.100499 
L 277.21728 268.100499 
L 279.11232 265.906981 
L 281.00736 265.906981 
L 282.9024 262.644828 
L 286.69248 259.382674 
L 288.58752 259.382674 
L 290.48256 254.489443 
L 296.16768 254.489443 
L 305.64288 246.334058 
L 307.53792 242.509464 
L 309.43296 240.315947 
L 311.328 237.053793 
L 318.90816 237.053793 
L 320.8032 234.860276 
L 328.38336 234.860276 
L 330.2784 233.229199 
L 334.06848 233.229199 
L 337.85856 228.842164 
L 339.7536 225.01757 
L 341.64864 223.386493 
L 343.54368 220.12434 
L 347.33376 220.12434 
L 349.2288 216.862186 
L 358.704 216.862186 
L 360.59904 215.231109 
L 366.28416 215.231109 
L 368.1792 210.337878 
L 371.96928 205.950844 
L 373.86432 202.68869 
L 390.91968 202.68869 
L 392.81472 201.057613 
L 396.6048 201.057613 
L 398.49984 198.864095 
L 402.28992 198.864095 
L 406.08 194.477061 
L 407.97504 194.477061 
L 409.87008 192.283544 
L 411.76512 192.283544 
L 413.66016 190.090027 
L 419.34528 190.090027 
L 421.24032 187.896509 
L 426.92544 187.896509 
L 428.82048 185.702992 
L 434.5056 185.702992 
L 436.40064 184.071915 
L 440.19072 184.071915 
L 442.08576 182.440838 
L 455.35104 182.440838 
L 457.24608 180.247321 
L 459.14112 180.247321 
L 461.03616 178.053804 
L 470.51136 178.053804 
L 472.4064 174.79165 
L 479.98656 174.79165 
L 481.8816 173.160573 
L 487.56672 173.160573 
L 489.46176 170.967056 
L 502.72704 170.967056 
L 504.62208 168.773538 
L 506.51712 168.773538 
L 508.41216 166.580021 
L 515.99232 166.580021 
L 517.88736 164.948944 
L 521.67744 164.948944 
L 523.57248 161.12435 
L 527.36256 161.12435 
L 529.2576 159.493273 
L 534.94272 159.493273 
L 536.83776 157.862196 
L 561.47328 157.862196 
L 563.36832 155.668679 
L 582.31872 155.668679 
L 586.1088 151.281645 
L 589.89888 151.281645 
L 591.79392 149.650568 
L 595.584 149.650568 
L 597.47904 147.45705 
L 601.26912 147.45705 
L 603.16416 145.263533 
L 624.0096 145.263533 
L 625.90464 143.070016 
L 633.4848 143.070016 
L 635.37984 140.876499 
L 637.27488 140.876499 
L 641.06496 136.489464 
L 642.96 136.489464 
L 642.96 136.489464 
" clip-path="url(#p788ed2ecb2)" style="fill: none; stroke: #252525; stroke-width: 2.5; stroke-linecap: square"/>
   </g>
   <g id="line2d_28">
    <path d="M 74.448 348.192 
L 104.76864 348.192 
L 106.66368 345.998483 
L 121.824 345.998483 
L 123.71904 343.804966 
L 129.40416 343.804966 
L 131.2992 341.611448 
L 135.08928 341.611448 
L 138.87936 337.224414 
L 146.45952 337.224414 
L 148.35456 335.593337 
L 152.14464 331.206302 
L 157.82976 331.206302 
L 159.7248 329.575225 
L 163.51488 329.575225 
L 167.30496 325.188191 
L 176.78016 325.188191 
L 178.6752 322.994674 
L 188.1504 322.994674 
L 190.04544 321.363597 
L 197.6256 321.363597 
L 201.41568 318.101443 
L 203.31072 315.907926 
L 208.99584 315.907926 
L 210.89088 312.083332 
L 214.68096 312.083332 
L 216.576 309.889814 
L 222.26112 309.889814 
L 224.15616 308.258737 
L 226.0512 308.258737 
L 227.94624 304.434143 
L 229.84128 302.803066 
L 233.63136 302.803066 
L 235.5264 300.609549 
L 246.89664 300.609549 
L 248.79168 298.416032 
L 254.4768 298.416032 
L 256.37184 295.153878 
L 258.26688 292.960361 
L 262.05696 292.960361 
L 263.952 290.766844 
L 265.84704 289.135767 
L 271.53216 289.135767 
L 273.4272 287.50469 
L 275.32224 284.242536 
L 279.11232 284.242536 
L 281.00736 277.718228 
L 282.9024 277.718228 
L 286.69248 274.456074 
L 288.58752 274.456074 
L 290.48256 272.262557 
L 299.95776 272.262557 
L 301.8528 270.06904 
L 305.64288 270.06904 
L 309.43296 266.806886 
L 311.328 264.613369 
L 313.22304 264.613369 
L 315.11808 262.419851 
L 317.01312 262.419851 
L 318.90816 260.788775 
L 324.59328 260.788775 
L 326.48832 259.157698 
L 330.2784 259.157698 
L 332.17344 254.770663 
L 335.96352 254.770663 
L 337.85856 253.139586 
L 339.7536 253.139586 
L 341.64864 251.508509 
L 349.2288 251.508509 
L 351.12384 249.877432 
L 353.01888 247.683915 
L 354.91392 246.052838 
L 358.704 246.052838 
L 362.49408 242.790684 
L 364.38912 242.790684 
L 366.28416 240.597167 
L 368.1792 238.96609 
L 370.07424 235.703936 
L 371.96928 235.703936 
L 377.6544 225.917475 
L 383.33952 221.024244 
L 385.23456 221.024244 
L 387.1296 219.393167 
L 389.02464 219.393167 
L 392.81472 216.131013 
L 396.6048 216.131013 
L 400.39488 212.868859 
L 404.18496 212.868859 
L 406.08 211.237782 
L 411.76512 211.237782 
L 413.66016 209.606706 
L 417.45024 209.606706 
L 423.13536 204.713475 
L 425.0304 204.713475 
L 426.92544 202.519958 
L 430.71552 202.519958 
L 432.61056 200.888881 
L 436.40064 200.888881 
L 438.29568 198.695363 
L 440.19072 198.695363 
L 442.08576 194.870769 
L 445.87584 194.870769 
L 447.77088 193.239692 
L 449.66592 193.239692 
L 451.56096 191.608615 
L 453.456 189.415098 
L 455.35104 189.415098 
L 459.14112 186.152944 
L 461.03616 183.959427 
L 462.9312 182.32835 
L 464.82624 178.503756 
L 466.72128 178.503756 
L 468.61632 176.310239 
L 472.4064 176.310239 
L 474.30144 174.679162 
L 479.98656 174.679162 
L 483.77664 170.292127 
L 487.56672 170.292127 
L 489.46176 168.66105 
L 495.14688 168.66105 
L 497.04192 167.029973 
L 500.832 167.029973 
L 502.72704 165.398897 
L 504.62208 165.398897 
L 506.51712 163.205379 
L 508.41216 163.205379 
L 510.3072 161.011862 
L 512.20224 161.011862 
L 514.09728 159.380785 
L 515.99232 154.993751 
L 517.88736 153.362674 
L 523.57248 153.362674 
L 525.46752 151.169156 
L 527.36256 149.53808 
L 533.04768 149.53808 
L 534.94272 147.344562 
L 536.83776 147.344562 
L 538.7328 145.151045 
L 540.62784 143.519968 
L 548.208 143.519968 
L 550.10304 141.326451 
L 570.94848 141.326451 
L 572.84352 139.132934 
L 580.42368 139.132934 
L 584.21376 135.87078 
L 586.1088 135.87078 
L 588.00384 134.239703 
L 612.63936 134.239703 
L 614.5344 132.608626 
L 616.42944 130.415109 
L 625.90464 130.415109 
L 627.79968 128.784032 
L 629.69472 128.784032 
L 631.58976 126.590515 
L 642.96 126.590515 
L 642.96 126.590515 
" clip-path="url(#p788ed2ecb2)" style="fill: none; stroke: #3b83b4; stroke-width: 1.35; stroke-linecap: square"/>
   </g>
   <g id="line2d_29">
    <path d="M 74.448 348.192 
L 85.81824 348.192 
L 87.71328 346.560923 
L 108.55872 346.560923 
L 110.45376 344.929846 
L 116.13888 344.929846 
L 118.03392 343.298769 
L 121.824 343.298769 
L 123.71904 341.667692 
L 127.50912 341.667692 
L 129.40416 340.036615 
L 131.2992 340.036615 
L 135.08928 336.774462 
L 159.7248 336.774462 
L 161.61984 335.143385 
L 165.40992 335.143385 
L 167.30496 333.512308 
L 172.99008 333.512308 
L 174.88512 329.687714 
L 176.78016 329.687714 
L 182.46528 324.794483 
L 203.31072 324.794483 
L 205.20576 323.163406 
L 216.576 323.163406 
L 220.36608 319.901252 
L 226.0512 319.901252 
L 227.94624 316.639098 
L 229.84128 316.639098 
L 231.73632 315.008021 
L 239.31648 315.008021 
L 241.21152 313.376944 
L 243.10656 310.11479 
L 245.0016 310.11479 
L 250.68672 305.22156 
L 252.58176 303.028042 
L 258.26688 303.028042 
L 260.16192 301.396966 
L 269.63712 301.396966 
L 271.53216 299.765889 
L 273.4272 299.765889 
L 275.32224 295.941294 
L 279.11232 295.941294 
L 282.9024 292.679141 
L 286.69248 292.679141 
L 288.58752 291.048064 
L 292.3776 291.048064 
L 294.27264 289.416987 
L 298.06272 289.416987 
L 299.95776 287.78591 
L 301.8528 287.78591 
L 303.74784 284.523756 
L 305.64288 284.523756 
L 309.43296 281.261602 
L 313.22304 281.261602 
L 317.01312 277.999448 
L 320.8032 277.999448 
L 322.69824 271.981337 
L 326.48832 271.981337 
L 328.38336 268.156743 
L 330.2784 268.156743 
L 334.06848 264.894589 
L 337.85856 260.507554 
L 345.43872 260.507554 
L 351.12384 255.614324 
L 354.91392 255.614324 
L 356.80896 253.420806 
L 362.49408 253.420806 
L 364.38912 251.227289 
L 368.1792 251.227289 
L 370.07424 249.596212 
L 377.6544 249.596212 
L 379.54944 247.965135 
L 381.44448 245.771618 
L 383.33952 244.140541 
L 392.81472 244.140541 
L 394.70976 242.509464 
L 402.28992 242.509464 
L 404.18496 240.878387 
L 413.66016 240.878387 
L 415.5552 239.24731 
L 417.45024 239.24731 
L 419.34528 237.616233 
L 421.24032 237.616233 
L 423.13536 234.35408 
L 425.0304 229.967045 
L 430.71552 229.967045 
L 434.5056 226.704891 
L 443.9808 226.704891 
L 445.87584 223.442737 
L 449.66592 223.442737 
L 451.56096 221.81166 
L 453.456 221.81166 
L 455.35104 220.180584 
L 457.24608 217.987066 
L 459.14112 216.355989 
L 461.03616 216.355989 
L 464.82624 211.968955 
L 470.51136 211.968955 
L 472.4064 208.144361 
L 476.19648 208.144361 
L 478.09152 204.882207 
L 479.98656 204.882207 
L 483.77664 201.620053 
L 489.46176 201.620053 
L 493.25184 197.233019 
L 495.14688 197.233019 
L 497.04192 192.845984 
L 510.3072 192.845984 
L 515.99232 187.952753 
L 533.04768 187.952753 
L 534.94272 186.321676 
L 563.36832 186.321676 
L 565.26336 184.128159 
L 567.1584 182.497082 
L 578.52864 182.497082 
L 580.42368 180.303565 
L 584.21376 180.303565 
L 586.1088 178.110048 
L 588.00384 176.478971 
L 597.47904 176.478971 
L 599.37408 174.847894 
L 603.16416 174.847894 
L 605.0592 171.0233 
L 610.74432 171.0233 
L 612.63936 168.829782 
L 631.58976 168.829782 
L 633.4848 166.636265 
L 642.96 166.636265 
L 642.96 166.636265 
" clip-path="url(#p788ed2ecb2)" style="fill: none; stroke-dasharray: 4.995,2.16; stroke-dashoffset: 0; stroke: #c38a19; stroke-width: 1.35"/>
   </g>
   <g id="line2d_30">
    <path d="M 74.448 348.192 
L 102.8736 348.192 
L 104.76864 346.560923 
L 118.03392 346.560923 
L 119.92896 344.367406 
L 135.08928 344.367406 
L 136.98432 341.105252 
L 140.7744 341.105252 
L 142.66944 339.474175 
L 154.03968 339.474175 
L 155.93472 337.843098 
L 157.82976 337.843098 
L 159.7248 336.212021 
L 172.99008 336.212021 
L 176.78016 332.949867 
L 178.6752 332.949867 
L 180.57024 331.31879 
L 184.36032 331.31879 
L 186.25536 329.687714 
L 190.04544 329.687714 
L 191.94048 328.056637 
L 193.83552 324.794483 
L 203.31072 324.794483 
L 205.20576 323.163406 
L 212.78592 323.163406 
L 214.68096 320.969889 
L 220.36608 320.969889 
L 222.26112 317.707735 
L 224.15616 316.076658 
L 231.73632 316.076658 
L 233.63136 314.445581 
L 235.5264 311.183427 
L 237.42144 308.98991 
L 243.10656 308.98991 
L 245.0016 307.358833 
L 256.37184 307.358833 
L 262.05696 302.465602 
L 263.952 300.272085 
L 269.63712 300.272085 
L 271.53216 298.641008 
L 273.4272 295.378854 
L 277.21728 292.1167 
L 284.79744 292.1167 
L 286.69248 289.923183 
L 292.3776 289.923183 
L 296.16768 286.661029 
L 299.95776 286.661029 
L 301.8528 284.467512 
L 311.328 284.467512 
L 313.22304 279.011841 
L 315.11808 275.187247 
L 317.01312 273.55617 
L 318.90816 273.55617 
L 320.8032 271.925093 
L 322.69824 271.925093 
L 324.59328 270.294016 
L 332.17344 270.294016 
L 335.96352 267.031862 
L 337.85856 262.644828 
L 341.64864 262.644828 
L 343.54368 258.820233 
L 349.2288 258.820233 
L 354.91392 253.927003 
L 360.59904 253.927003 
L 362.49408 252.295926 
L 364.38912 252.295926 
L 366.28416 250.664849 
L 383.33952 250.664849 
L 385.23456 249.033772 
L 392.81472 249.033772 
L 394.70976 247.402695 
L 404.18496 247.402695 
L 406.08 245.209178 
L 407.97504 245.209178 
L 409.87008 243.01566 
L 415.5552 243.01566 
L 417.45024 241.384584 
L 419.34528 241.384584 
L 421.24032 239.191066 
L 423.13536 233.735395 
L 430.71552 233.735395 
L 432.61056 228.279724 
L 438.29568 223.386493 
L 440.19072 223.386493 
L 443.9808 220.12434 
L 445.87584 220.12434 
L 447.77088 215.737305 
L 449.66592 213.543788 
L 455.35104 213.543788 
L 457.24608 211.912711 
L 459.14112 211.912711 
L 461.03616 210.281634 
L 470.51136 210.281634 
L 472.4064 208.088117 
L 479.98656 208.088117 
L 481.8816 206.45704 
L 483.77664 206.45704 
L 485.67168 203.194886 
L 487.56672 203.194886 
L 489.46176 201.563809 
L 493.25184 201.563809 
L 495.14688 199.932732 
L 500.832 199.932732 
L 502.72704 198.301655 
L 506.51712 198.301655 
L 508.41216 194.477061 
L 514.09728 194.477061 
L 515.99232 192.845984 
L 534.94272 192.845984 
L 536.83776 191.214907 
L 538.7328 189.02139 
L 540.62784 187.390313 
L 550.10304 187.390313 
L 551.99808 185.196796 
L 553.89312 185.196796 
L 555.78816 183.565719 
L 559.57824 183.565719 
L 561.47328 181.934642 
L 570.94848 181.934642 
L 572.84352 179.741125 
L 578.52864 179.741125 
L 580.42368 177.547607 
L 582.31872 177.547607 
L 584.21376 175.916531 
L 597.47904 175.916531 
L 599.37408 173.723013 
L 601.26912 172.091936 
L 618.32448 172.091936 
L 620.21952 169.898419 
L 631.58976 169.898419 
L 633.4848 168.267342 
L 642.96 168.267342 
L 642.96 168.267342 
" clip-path="url(#p788ed2ecb2)" style="fill: none; stroke-dasharray: 1.35,2.2275; stroke-dashoffset: 0; stroke: #7d8a92; stroke-width: 1.35"/>
   </g>
   <g id="line2d_31">
    <path d="M 74.448 348.192 
L 163.51488 348.192 
L 165.40992 345.998483 
L 184.36032 345.998483 
L 186.25536 344.367406 
L 212.78592 344.367406 
L 214.68096 342.736329 
L 233.63136 342.736329 
L 237.42144 339.474175 
L 241.21152 339.474175 
L 243.10656 337.280658 
L 262.05696 337.280658 
L 263.952 335.649581 
L 273.4272 335.649581 
L 275.32224 333.456064 
L 298.06272 333.456064 
L 299.95776 331.824987 
L 307.53792 331.824987 
L 309.43296 330.19391 
L 335.96352 330.19391 
L 337.85856 328.000393 
L 339.7536 326.369316 
L 341.64864 323.107162 
L 347.33376 323.107162 
L 349.2288 321.476085 
L 354.91392 321.476085 
L 358.704 318.213931 
L 371.96928 318.213931 
L 375.75936 314.951777 
L 396.6048 314.951777 
L 402.28992 310.058546 
L 406.08 310.058546 
L 407.97504 308.427469 
L 413.66016 308.427469 
L 415.5552 306.796393 
L 417.45024 306.796393 
L 419.34528 304.602875 
L 428.82048 304.602875 
L 430.71552 302.971798 
L 453.456 302.971798 
L 457.24608 299.709645 
L 474.30144 299.709645 
L 476.19648 298.078568 
L 478.09152 298.078568 
L 481.8816 294.816414 
L 493.25184 294.816414 
L 495.14688 290.99182 
L 497.04192 290.99182 
L 500.832 287.729666 
L 504.62208 287.729666 
L 506.51712 286.098589 
L 508.41216 286.098589 
L 510.3072 283.905072 
L 512.20224 283.905072 
L 514.09728 282.273995 
L 521.67744 282.273995 
L 523.57248 280.642918 
L 525.46752 278.449401 
L 529.2576 275.187247 
L 531.15264 275.187247 
L 533.04768 273.55617 
L 540.62784 273.55617 
L 542.52288 271.362653 
L 546.31296 271.362653 
L 548.208 269.169135 
L 550.10304 269.169135 
L 551.99808 267.538058 
L 553.89312 267.538058 
L 555.78816 263.713464 
L 557.6832 263.713464 
L 559.57824 262.082387 
L 561.47328 262.082387 
L 563.36832 259.88887 
L 574.73856 259.88887 
L 576.6336 254.433199 
L 578.52864 252.802122 
L 586.1088 252.802122 
L 588.00384 249.539968 
L 589.89888 247.346451 
L 591.79392 247.346451 
L 593.68896 245.152934 
L 599.37408 240.259703 
L 618.32448 240.259703 
L 620.21952 238.066186 
L 622.11456 234.241592 
L 625.90464 234.241592 
L 627.79968 232.610515 
L 629.69472 230.416997 
L 631.58976 230.416997 
L 633.4848 228.78592 
L 642.96 228.78592 
L 642.96 228.78592 
" clip-path="url(#p788ed2ecb2)" style="fill: none; stroke-dasharray: 8.64,2.16,1.35,2.16; stroke-dashoffset: 0; stroke: #d0526a; stroke-width: 1.35"/>
   </g>
   <g id="line2d_32">
    <path d="M 74.448 348.192 
L 136.98432 348.192 
L 138.87936 345.998483 
L 152.14464 345.998483 
L 154.03968 343.804966 
L 161.61984 343.804966 
L 163.51488 341.611448 
L 169.2 341.611448 
L 171.09504 339.417931 
L 176.78016 339.417931 
L 178.6752 337.224414 
L 182.46528 337.224414 
L 184.36032 335.030897 
L 197.6256 335.030897 
L 199.52064 332.837379 
L 207.1008 332.837379 
L 212.78592 326.256828 
L 220.36608 326.256828 
L 222.26112 321.869793 
L 226.0512 321.869793 
L 229.84128 317.482759 
L 237.42144 317.482759 
L 239.31648 313.095724 
L 243.10656 313.095724 
L 245.0016 310.902207 
L 262.05696 310.902207 
L 263.952 309.27113 
L 296.16768 309.27113 
L 298.06272 307.640053 
L 299.95776 307.640053 
L 301.8528 305.446536 
L 303.74784 305.446536 
L 305.64288 303.815459 
L 318.90816 303.815459 
L 320.8032 299.428424 
L 322.69824 297.234907 
L 324.59328 295.60383 
L 326.48832 293.410313 
L 330.2784 293.410313 
L 332.17344 291.216796 
L 334.06848 291.216796 
L 337.85856 286.829761 
L 339.7536 281.37409 
L 343.54368 281.37409 
L 345.43872 279.743013 
L 347.33376 277.549496 
L 351.12384 277.549496 
L 356.80896 272.656265 
L 358.704 272.656265 
L 360.59904 271.025188 
L 362.49408 271.025188 
L 364.38912 268.831671 
L 373.86432 268.831671 
L 375.75936 264.444637 
L 379.54944 264.444637 
L 383.33952 260.057602 
L 385.23456 260.057602 
L 387.1296 256.233008 
L 398.49984 256.233008 
L 400.39488 254.039491 
L 407.97504 254.039491 
L 409.87008 252.408414 
L 411.76512 252.408414 
L 413.66016 248.58382 
L 415.5552 248.58382 
L 417.45024 246.390302 
L 423.13536 246.390302 
L 426.92544 243.128149 
L 434.5056 243.128149 
L 436.40064 241.497072 
L 440.19072 241.497072 
L 442.08576 239.303554 
L 443.9808 237.672477 
L 447.77088 237.672477 
L 449.66592 236.041401 
L 451.56096 233.847883 
L 453.456 230.585729 
L 455.35104 228.954653 
L 457.24608 228.954653 
L 461.03616 224.567618 
L 462.9312 224.567618 
L 464.82624 222.374101 
L 466.72128 222.374101 
L 468.61632 220.180584 
L 470.51136 218.549507 
L 472.4064 216.355989 
L 474.30144 214.724912 
L 476.19648 214.724912 
L 478.09152 212.531395 
L 479.98656 209.269241 
L 481.8816 205.444647 
L 483.77664 205.444647 
L 485.67168 203.81357 
L 489.46176 203.81357 
L 493.25184 199.426536 
L 495.14688 199.426536 
L 497.04192 197.795459 
L 500.832 197.795459 
L 504.62208 193.408424 
L 506.51712 191.777347 
L 508.41216 191.777347 
L 510.3072 187.952753 
L 512.20224 187.952753 
L 514.09728 186.321676 
L 515.99232 186.321676 
L 517.88736 184.690599 
L 521.67744 184.690599 
L 523.57248 183.059523 
L 525.46752 183.059523 
L 527.36256 179.797369 
L 529.2576 178.166292 
L 531.15264 178.166292 
L 533.04768 174.904138 
L 544.41792 174.904138 
L 546.31296 173.273061 
L 548.208 171.079544 
L 550.10304 169.448467 
L 557.6832 169.448467 
L 561.47328 166.186313 
L 563.36832 166.186313 
L 565.26336 162.924159 
L 567.1584 161.293082 
L 570.94848 161.293082 
L 572.84352 159.662005 
L 580.42368 159.662005 
L 582.31872 157.468488 
L 588.00384 157.468488 
L 589.89888 155.837411 
L 591.79392 153.643894 
L 593.68896 150.38174 
L 603.16416 150.38174 
L 605.0592 148.750663 
L 606.95424 148.750663 
L 608.84928 147.119586 
L 612.63936 147.119586 
L 614.5344 145.488509 
L 616.42944 145.488509 
L 620.21952 138.964202 
L 624.0096 138.964202 
L 625.90464 137.333125 
L 635.37984 137.333125 
L 637.27488 135.702048 
L 642.96 135.702048 
L 642.96 135.702048 
" clip-path="url(#p788ed2ecb2)" style="fill: none; stroke-dasharray: 6.75,2.7,1.35,2.7; stroke-dashoffset: 0; stroke: #2f8f84; stroke-width: 1.35"/>
   </g>
   <g id="patch_4">
    <path d="M 74.448 348.192 
L 74.448 93.744 
" style="fill: none; stroke: #000000; stroke-width: 0.8; stroke-linejoin: miter; stroke-linecap: square"/>
   </g>
   <g id="patch_5">
    <path d="M 74.448 348.192 
L 642.96 348.192 
" style="fill: none; stroke: #000000; stroke-width: 0.8; stroke-linejoin: miter; stroke-linecap: square"/>
   </g>
  </g>
  <g id="text_16">
   <text style="font: 18px 'DejaVu Sans', 'Bitstream Vera Sans', 'Computer Modern Sans Serif', 'Lucida Grande', 'Verdana', 'Geneva', 'Lucid', 'Arial', 'Helvetica', 'Avant Garde', sans-serif; text-anchor: start" x="74.448" y="38.229188" transform="rotate(-0 74.448 38.229188)">D55 Direct</text>
  </g>
  <g id="text_17">
   <text style="fill: #66747c; font: 10px 'DejaVu Sans', 'Bitstream Vera Sans', 'Computer Modern Sans Serif', 'Lucida Grande', 'Verdana', 'Geneva', 'Lucid', 'Arial', 'Helvetica', 'Avant Garde', sans-serif; text-anchor: start" x="74.448" y="64.728" transform="rotate(-0 74.448 64.728)">KSF LCD</text>
  </g>
  <g id="legend_1">
   <g id="line2d_33">
    <path d="M 185.17875 404.151391 
L 194.27875 404.151391 
L 203.37875 404.151391 
" style="fill: none; stroke: #252525; stroke-width: 2.5; stroke-linecap: square"/>
   </g>
   <g id="text_18">
    <text style="font: 9.1px 'DejaVu Sans', 'Bitstream Vera Sans', 'Computer Modern Sans Serif', 'Lucida Grande', 'Verdana', 'Geneva', 'Lucid', 'Arial', 'Helvetica', 'Avant Garde', sans-serif; text-anchor: start" x="210.65875" y="407.336391" transform="rotate(-0 210.65875 407.336391)">Potera CMF</text>
   </g>
   <g id="line2d_34">
    <path d="M 185.17875 417.508484 
L 194.27875 417.508484 
L 203.37875 417.508484 
" style="fill: none; stroke: #3b83b4; stroke-width: 1.35; stroke-linecap: square"/>
   </g>
   <g id="text_19">
    <text style="font: 9.1px 'DejaVu Sans', 'Bitstream Vera Sans', 'Computer Modern Sans Serif', 'Lucida Grande', 'Verdana', 'Geneva', 'Lucid', 'Arial', 'Helvetica', 'Avant Garde', sans-serif; text-anchor: start" x="210.65875" y="420.693484" transform="rotate(-0 210.65875 420.693484)">CIE 2015 2°</text>
   </g>
   <g id="line2d_35">
    <path d="M 282.931234 404.151391 
L 292.031234 404.151391 
L 301.131234 404.151391 
" style="fill: none; stroke-dasharray: 4.995,2.16; stroke-dashoffset: 0; stroke: #c38a19; stroke-width: 1.35"/>
   </g>
   <g id="text_20">
    <text style="font: 9.1px 'DejaVu Sans', 'Bitstream Vera Sans', 'Computer Modern Sans Serif', 'Lucida Grande', 'Verdana', 'Geneva', 'Lucid', 'Arial', 'Helvetica', 'Avant Garde', sans-serif; text-anchor: start" x="308.411234" y="407.336391" transform="rotate(-0 308.411234 407.336391)">CIE 2015 10°</text>
   </g>
   <g id="line2d_36">
    <path d="M 282.931234 417.508484 
L 292.031234 417.508484 
L 301.131234 417.508484 
" style="fill: none; stroke-dasharray: 1.35,2.2275; stroke-dashoffset: 0; stroke: #7d8a92; stroke-width: 1.35"/>
   </g>
   <g id="text_21">
    <text style="font: 9.1px 'DejaVu Sans', 'Bitstream Vera Sans', 'Computer Modern Sans Serif', 'Lucida Grande', 'Verdana', 'Geneva', 'Lucid', 'Arial', 'Helvetica', 'Avant Garde', sans-serif; text-anchor: start" x="308.411234" y="420.693484" transform="rotate(-0 308.411234 420.693484)">CIE 1964 10°</text>
   </g>
   <g id="line2d_37">
    <path d="M 386.473594 404.151391 
L 395.573594 404.151391 
L 404.673594 404.151391 
" style="fill: none; stroke-dasharray: 8.64,2.16,1.35,2.16; stroke-dashoffset: 0; stroke: #d0526a; stroke-width: 1.35"/>
   </g>
   <g id="text_22">
    <text style="font: 9.1px 'DejaVu Sans', 'Bitstream Vera Sans', 'Computer Modern Sans Serif', 'Lucida Grande', 'Verdana', 'Geneva', 'Lucid', 'Arial', 'Helvetica', 'Avant Garde', sans-serif; text-anchor: start" x="411.953594" y="407.336391" transform="rotate(-0 411.953594 407.336391)">CIE 1931 2°</text>
   </g>
   <g id="line2d_38">
    <path d="M 386.473594 417.508484 
L 395.573594 417.508484 
L 404.673594 417.508484 
" style="fill: none; stroke-dasharray: 6.75,2.7,1.35,2.7; stroke-dashoffset: 0; stroke: #2f8f84; stroke-width: 1.35"/>
   </g>
   <g id="text_23">
    <text style="font: 9.1px 'DejaVu Sans', 'Bitstream Vera Sans', 'Computer Modern Sans Serif', 'Lucida Grande', 'Verdana', 'Geneva', 'Lucid', 'Arial', 'Helvetica', 'Avant Garde', sans-serif; text-anchor: start" x="411.953594" y="420.693484" transform="rotate(-0 411.953594 420.693484)">Judd–Vos 1978 2°</text>
   </g>
  </g>
 </g>
 <defs>
  <clipPath id="p788ed2ecb2">
   <rect x="74.448" y="93.744" width="568.512" height="254.448"/>
  </clipPath>
 </defs>
</svg>
