<?xml version="1.0" encoding="utf-8" standalone="no"?>
<!DOCTYPE svg PUBLIC "-//W3C//DTD SVG 1.1//EN"
  "http://www.w3.org/Graphics/SVG/1.1/DTD/svg11.dtd">
<svg xmlns:xlink="http://www.w3.org/1999/xlink" width="676.8pt" height="446.4pt" viewBox="0 0 676.8 446.4" xmlns="http://www.w3.org/2000/svg" version="1.1">
 <metadata>
  <rdf:RDF xmlns:dc="http://purl.org/dc/elements/1.1/" xmlns:cc="http://creativecommons.org/ns#" xmlns:rdf="http://www.w3.org/1999/02/22-rdf-syntax-ns#">
   <cc:Work>
    <dc:type rdf:resource="http://purl.org/dc/dcmitype/StillImage"/>
    <dc:date>2026-07-20T06:41:55.344308</dc:date>
    <dc:format>image/svg+xml</dc:format>
    <dc:creator>
     <cc:Agent>
      <dc:title>Matplotlib v3.9.4, https://matplotlib.org/</dc:title>
     </cc:Agent>
    </dc:creator>
   </cc:Work>
  </rdf:RDF>
 </metadata>
 <defs>
  <style type="text/css">*{stroke-linejoin: round; stroke-linecap: butt}</style>
 </defs>
 <g id="figure_1">
  <g id="patch_1">
   <path d="M 0 446.4 
L 676.8 446.4 
L 676.8 0 
L 0 0 
z
" style="fill: #ffffff"/>
  </g>
  <g id="axes_1">
   <g id="patch_2">
    <path d="M 74.448 348.192 
L 642.96 348.192 
L 642.96 93.744 
L 74.448 93.744 
z
" style="fill: #ffffff"/>
   </g>
   <g id="patch_3">
    <path d="M 169.2 348.192 
L 358.704 348.192 
L 358.704 93.744 
L 169.2 93.744 
z
" clip-path="url(#pf7b084562c)" style="fill: #e7f0ea; opacity: 0.58; stroke: #e7f0ea; stroke-linejoin: miter"/>
   </g>
   <g id="matplotlib.axis_1">
    <g id="xtick_1">
     <g id="line2d_1">
      <path d="M 74.448 348.192 
L 74.448 93.744 
" clip-path="url(#pf7b084562c)" style="fill: none; stroke: #dfe5e8; stroke-width: 0.65; stroke-linecap: square"/>
     </g>
     <g id="line2d_2">
      <defs>
       <path id="m4416b194ba" d="M 0 0 
L 0 3.5 
" style="stroke: #000000; stroke-width: 0.8"/>
      </defs>
      <g>
       <use xlink:href="#m4416b194ba" x="74.448" y="348.192" style="stroke: #000000; stroke-width: 0.8"/>
      </g>
     </g>
     <g id="text_1">
      <text style="font: 10px 'DejaVu Sans', 'Bitstream Vera Sans', 'Computer Modern Sans Serif', 'Lucida Grande', 'Verdana', 'Geneva', 'Lucid', 'Arial', 'Helvetica', 'Avant Garde', sans-serif; text-anchor: middle" x="74.448" y="362.790438" transform="rotate(-0 74.448 362.790438)">0</text>
     </g>
    </g>
    <g id="xtick_2">
     <g id="line2d_3">
      <path d="M 169.2 348.192 
L 169.2 93.744 
" clip-path="url(#pf7b084562c)" style="fill: none; stroke: #dfe5e8; stroke-width: 0.65; stroke-linecap: square"/>
     </g>
     <g id="line2d_4">
      <g>
       <use xlink:href="#m4416b194ba" x="169.2" y="348.192" style="stroke: #000000; stroke-width: 0.8"/>
      </g>
     </g>
     <g id="text_2">
      <text style="font: 10px 'DejaVu Sans', 'Bitstream Vera Sans', 'Computer Modern Sans Serif', 'Lucida Grande', 'Verdana', 'Geneva', 'Lucid', 'Arial', 'Helvetica', 'Avant Garde', sans-serif; text-anchor: middle" x="169.2" y="362.790438" transform="rotate(-0 169.2 362.790438)">1</text>
     </g>
    </g>
    <g id="xtick_3">
     <g id="line2d_5">
      <path d="M 263.952 348.192 
L 263.952 93.744 
" clip-path="url(#pf7b084562c)" style="fill: none; stroke: #dfe5e8; stroke-width: 0.65; stroke-linecap: square"/>
     </g>
     <g id="line2d_6">
      <g>
       <use xlink:href="#m4416b194ba" x="263.952" y="348.192" style="stroke: #000000; stroke-width: 0.8"/>
      </g>
     </g>
     <g id="text_3">
      <text style="font: 10px 'DejaVu Sans', 'Bitstream Vera Sans', 'Computer Modern Sans Serif', 'Lucida Grande', 'Verdana', 'Geneva', 'Lucid', 'Arial', 'Helvetica', 'Avant Garde', sans-serif; text-anchor: middle" x="263.952" y="362.790438" transform="rotate(-0 263.952 362.790438)">2</text>
     </g>
    </g>
    <g id="xtick_4">
     <g id="line2d_7">
      <path d="M 358.704 348.192 
L 358.704 93.744 
" clip-path="url(#pf7b084562c)" style="fill: none; stroke: #dfe5e8; stroke-width: 0.65; stroke-linecap: square"/>
     </g>
     <g id="line2d_8">
      <g>
       <use xlink:href="#m4416b194ba" x="358.704" y="348.192" style="stroke: #000000; stroke-width: 0.8"/>
      </g>
     </g>
     <g id="text_4">
      <text style="font: 10px 'DejaVu Sans', 'Bitstream Vera Sans', 'Computer Modern Sans Serif', 'Lucida Grande', 'Verdana', 'Geneva', 'Lucid', 'Arial', 'Helvetica', 'Avant Garde', sans-serif; text-anchor: middle" x="358.704" y="362.790438" transform="rotate(-0 358.704 362.790438)">3</text>
     </g>
    </g>
    <g id="xtick_5">
     <g id="line2d_9">
      <path d="M 453.456 348.192 
L 453.456 93.744 
" clip-path="url(#pf7b084562c)" style="fill: none; stroke: #dfe5e8; stroke-width: 0.65; stroke-linecap: square"/>
     </g>
     <g id="line2d_10">
      <g>
       <use xlink:href="#m4416b194ba" x="453.456" y="348.192" style="stroke: #000000; stroke-width: 0.8"/>
      </g>
     </g>
     <g id="text_5">
      <text style="font: 10px 'DejaVu Sans', 'Bitstream Vera Sans', 'Computer Modern Sans Serif', 'Lucida Grande', 'Verdana', 'Geneva', 'Lucid', 'Arial', 'Helvetica', 'Avant Garde', sans-serif; text-anchor: middle" x="453.456" y="362.790438" transform="rotate(-0 453.456 362.790438)">4</text>
     </g>
    </g>
    <g id="xtick_6">
     <g id="line2d_11">
      <path d="M 548.208 348.192 
L 548.208 93.744 
" clip-path="url(#pf7b084562c)" style="fill: none; stroke: #dfe5e8; stroke-width: 0.65; stroke-linecap: square"/>
     </g>
     <g id="line2d_12">
      <g>
       <use xlink:href="#m4416b194ba" x="548.208" y="348.192" style="stroke: #000000; stroke-width: 0.8"/>
      </g>
     </g>
     <g id="text_6">
      <text style="font: 10px 'DejaVu Sans', 'Bitstream Vera Sans', 'Computer Modern Sans Serif', 'Lucida Grande', 'Verdana', 'Geneva', 'Lucid', 'Arial', 'Helvetica', 'Avant Garde', sans-serif; text-anchor: middle" x="548.208" y="362.790438" transform="rotate(-0 548.208 362.790438)">5</text>
     </g>
    </g>
    <g id="xtick_7">
     <g id="line2d_13">
      <path d="M 642.96 348.192 
L 642.96 93.744 
" clip-path="url(#pf7b084562c)" style="fill: none; stroke: #dfe5e8; stroke-width: 0.65; stroke-linecap: square"/>
     </g>
     <g id="line2d_14">
      <g>
       <use xlink:href="#m4416b194ba" x="642.96" y="348.192" style="stroke: #000000; stroke-width: 0.8"/>
      </g>
     </g>
     <g id="text_7">
      <text style="font: 10px 'DejaVu Sans', 'Bitstream Vera Sans', 'Computer Modern Sans Serif', 'Lucida Grande', 'Verdana', 'Geneva', 'Lucid', 'Arial', 'Helvetica', 'Avant Garde', sans-serif; text-anchor: middle" x="642.96" y="362.790438" transform="rotate(-0 642.96 362.790438)">6</text>
     </g>
    </g>
    <g id="text_8">
     <text style="font: 10px 'DejaVu Sans', 'Bitstream Vera Sans', 'Computer Modern Sans Serif', 'Lucida Grande', 'Verdana', 'Geneva', 'Lucid', 'Arial', 'Helvetica', 'Avant Garde', sans-serif; text-anchor: middle" x="358.704" y="376.468563" transform="rotate(-0 358.704 376.468563)">sUCS dE threshold</text>
    </g>
   </g>
   <g id="matplotlib.axis_2">
    <g id="ytick_1">
     <g id="line2d_15">
      <path d="M 74.448 348.192 
L 642.96 348.192 
" clip-path="url(#pf7b084562c)" style="fill: none; stroke: #dfe5e8; stroke-width: 0.65; stroke-linecap: square"/>
     </g>
     <g id="line2d_16">
      <defs>
       <path id="m6957d18898" d="M 0 0 
L -3.5 0 
" style="stroke: #000000; stroke-width: 0.8"/>
      </defs>
      <g>
       <use xlink:href="#m6957d18898" x="74.448" y="348.192" style="stroke: #000000; stroke-width: 0.8"/>
      </g>
     </g>
     <g id="text_9">
      <text style="font: 10px 'DejaVu Sans', 'Bitstream Vera Sans', 'Computer Modern Sans Serif', 'Lucida Grande', 'Verdana', 'Geneva', 'Lucid', 'Arial', 'Helvetica', 'Avant Garde', sans-serif; text-anchor: end" x="67.448" y="351.991219" transform="rotate(-0 67.448 351.991219)">0</text>
     </g>
    </g>
    <g id="ytick_2">
     <g id="line2d_17">
      <path d="M 74.448 297.3024 
L 642.96 297.3024 
" clip-path="url(#pf7b084562c)" style="fill: none; stroke: #dfe5e8; stroke-width: 0.65; stroke-linecap: square"/>
     </g>
     <g id="line2d_18">
      <g>
       <use xlink:href="#m6957d18898" x="74.448" y="297.3024" style="stroke: #000000; stroke-width: 0.8"/>
      </g>
     </g>
     <g id="text_10">
      <text style="font: 10px 'DejaVu Sans', 'Bitstream Vera Sans', 'Computer Modern Sans Serif', 'Lucida Grande', 'Verdana', 'Geneva', 'Lucid', 'Arial', 'Helvetica', 'Avant Garde', sans-serif; text-anchor: end" x="67.448" y="301.101619" transform="rotate(-0 67.448 301.101619)">20</text>
     </g>
    </g>
    <g id="ytick_3">
     <g id="line2d_19">
      <path d="M 74.448 246.4128 
L 642.96 246.4128 
" clip-path="url(#pf7b084562c)" style="fill: none; stroke: #dfe5e8; stroke-width: 0.65; stroke-linecap: square"/>
     </g>
     <g id="line2d_20">
      <g>
       <use xlink:href="#m6957d18898" x="74.448" y="246.4128" style="stroke: #000000; stroke-width: 0.8"/>
      </g>
     </g>
     <g id="text_11">
      <text style="font: 10px 'DejaVu Sans', 'Bitstream Vera Sans', 'Computer Modern Sans Serif', 'Lucida Grande', 'Verdana', 'Geneva', 'Lucid', 'Arial', 'Helvetica', 'Avant Garde', sans-serif; text-anchor: end" x="67.448" y="250.212019" transform="rotate(-0 67.448 250.212019)">40</text>
     </g>
    </g>
    <g id="ytick_4">
     <g id="line2d_21">
      <path d="M 74.448 195.5232 
L 642.96 195.5232 
" clip-path="url(#pf7b084562c)" style="fill: none; stroke: #dfe5e8; stroke-width: 0.65; stroke-linecap: square"/>
     </g>
     <g id="line2d_22">
      <g>
       <use xlink:href="#m6957d18898" x="74.448" y="195.5232" style="stroke: #000000; stroke-width: 0.8"/>
      </g>
     </g>
     <g id="text_12">
      <text style="font: 10px 'DejaVu Sans', 'Bitstream Vera Sans', 'Computer Modern Sans Serif', 'Lucida Grande', 'Verdana', 'Geneva', 'Lucid', 'Arial', 'Helvetica', 'Avant Garde', sans-serif; text-anchor: end" x="67.448" y="199.322419" transform="rotate(-0 67.448 199.322419)">60</text>
     </g>
    </g>
    <g id="ytick_5">
     <g id="line2d_23">
      <path d="M 74.448 144.6336 
L 642.96 144.6336 
" clip-path="url(#pf7b084562c)" style="fill: none; stroke: #dfe5e8; stroke-width: 0.65; stroke-linecap: square"/>
     </g>
     <g id="line2d_24">
      <g>
       <use xlink:href="#m6957d18898" x="74.448" y="144.6336" style="stroke: #000000; stroke-width: 0.8"/>
      </g>
     </g>
     <g id="text_13">
      <text style="font: 10px 'DejaVu Sans', 'Bitstream Vera Sans', 'Computer Modern Sans Serif', 'Lucida Grande', 'Verdana', 'Geneva', 'Lucid', 'Arial', 'Helvetica', 'Avant Garde', sans-serif; text-anchor: end" x="67.448" y="148.432819" transform="rotate(-0 67.448 148.432819)">80</text>
     </g>
    </g>
    <g id="ytick_6">
     <g id="line2d_25">
      <path d="M 74.448 93.744 
L 642.96 93.744 
" clip-path="url(#pf7b084562c)" style="fill: none; stroke: #dfe5e8; stroke-width: 0.65; stroke-linecap: square"/>
     </g>
     <g id="line2d_26">
      <g>
       <use xlink:href="#m6957d18898" x="74.448" y="93.744" style="stroke: #000000; stroke-width: 0.8"/>
      </g>
     </g>
     <g id="text_14">
      <text style="font: 10px 'DejaVu Sans', 'Bitstream Vera Sans', 'Computer Modern Sans Serif', 'Lucida Grande', 'Verdana', 'Geneva', 'Lucid', 'Arial', 'Helvetica', 'Avant Garde', sans-serif; text-anchor: end" x="67.448" y="97.543219" transform="rotate(-0 67.448 97.543219)">100</text>
     </g>
    </g>
    <g id="text_15">
     <text style="font: 10px 'DejaVu Sans', 'Bitstream Vera Sans', 'Computer Modern Sans Serif', 'Lucida Grande', 'Verdana', 'Geneva', 'Lucid', 'Arial', 'Helvetica', 'Avant Garde', sans-serif; text-anchor: middle" x="42.280812" y="220.968" transform="rotate(-90 42.280812 220.968)">observers%</text>
    </g>
   </g>
   <g id="line2d_27">
    <path d="M 74.448 348.192 
L 121.824 348.192 
L 125.61408 344.929846 
L 127.50912 344.929846 
L 129.40416 343.298769 
L 135.08928 343.298769 
L 136.98432 341.105252 
L 140.7744 337.843098 
L 148.35456 337.843098 
L 150.2496 335.649581 
L 169.2 335.649581 
L 171.09504 334.018504 
L 174.88512 329.631469 
L 176.78016 329.631469 
L 178.6752 328.000393 
L 186.25536 328.000393 
L 188.1504 326.369316 
L 195.73056 326.369316 
L 199.52064 323.107162 
L 201.41568 320.913645 
L 203.31072 319.282568 
L 205.20576 319.282568 
L 208.99584 314.895533 
L 210.89088 314.895533 
L 212.78592 311.633379 
L 222.26112 311.633379 
L 224.15616 310.002302 
L 226.0512 305.615268 
L 227.94624 305.615268 
L 229.84128 303.984191 
L 241.21152 303.984191 
L 243.10656 302.353114 
L 245.0016 299.09096 
L 246.89664 299.09096 
L 248.79168 295.266366 
L 254.4768 295.266366 
L 256.37184 293.072849 
L 260.16192 289.810695 
L 265.84704 289.810695 
L 269.63712 286.548541 
L 271.53216 286.548541 
L 273.4272 282.723947 
L 279.11232 282.723947 
L 281.00736 280.53043 
L 286.69248 280.53043 
L 290.48256 277.268276 
L 292.3776 277.268276 
L 294.27264 275.074759 
L 296.16768 273.443682 
L 301.8528 273.443682 
L 303.74784 271.250164 
L 307.53792 271.250164 
L 309.43296 267.988011 
L 311.328 266.356934 
L 313.22304 264.163416 
L 315.11808 262.53234 
L 317.01312 259.270186 
L 320.8032 259.270186 
L 322.69824 257.639109 
L 324.59328 253.814515 
L 326.48832 252.183438 
L 328.38336 248.921284 
L 334.06848 248.921284 
L 339.7536 244.028053 
L 345.43872 244.028053 
L 347.33376 242.396976 
L 349.2288 239.134822 
L 351.12384 237.503745 
L 362.49408 237.503745 
L 366.28416 234.241592 
L 368.1792 234.241592 
L 370.07424 230.979438 
L 373.86432 230.979438 
L 375.75936 229.348361 
L 377.6544 227.154844 
L 379.54944 227.154844 
L 381.44448 225.523767 
L 387.1296 225.523767 
L 389.02464 223.330249 
L 390.91968 223.330249 
L 392.81472 220.068095 
L 398.49984 220.068095 
L 400.39488 218.437019 
L 402.28992 218.437019 
L 404.18496 216.805942 
L 406.08 216.805942 
L 407.97504 215.174865 
L 409.87008 215.174865 
L 411.76512 210.78783 
L 413.66016 209.156753 
L 415.5552 206.963236 
L 423.13536 206.963236 
L 425.0304 203.701082 
L 440.19072 203.701082 
L 442.08576 202.070005 
L 443.9808 202.070005 
L 445.87584 196.051894 
L 451.56096 191.158663 
L 453.456 191.158663 
L 455.35104 188.965146 
L 474.30144 188.965146 
L 476.19648 187.334069 
L 495.14688 187.334069 
L 497.04192 185.702992 
L 504.62208 185.702992 
L 506.51712 183.509475 
L 519.7824 183.509475 
L 521.67744 181.878398 
L 523.57248 181.878398 
L 525.46752 179.684881 
L 529.2576 176.422727 
L 531.15264 174.22921 
L 533.04768 174.22921 
L 534.94272 172.035692 
L 536.83776 172.035692 
L 538.7328 170.404615 
L 574.73856 170.404615 
L 576.6336 168.211098 
L 589.89888 168.211098 
L 591.79392 166.017581 
L 593.68896 166.017581 
L 595.584 164.386504 
L 614.5344 164.386504 
L 616.42944 162.192987 
L 631.58976 162.192987 
L 633.4848 159.999469 
L 642.96 159.999469 
L 642.96 159.999469 
" clip-path="url(#pf7b084562c)" style="fill: none; stroke: #252525; stroke-width: 2.5; stroke-linecap: square"/>
   </g>
   <g id="line2d_28">
    <path d="M 74.448 348.192 
L 138.87936 348.192 
L 140.7744 345.998483 
L 150.2496 345.998483 
L 152.14464 343.804966 
L 178.6752 343.804966 
L 180.57024 339.417931 
L 182.46528 339.417931 
L 186.25536 335.030897 
L 191.94048 335.030897 
L 193.83552 332.837379 
L 197.6256 332.837379 
L 199.52064 330.643862 
L 203.31072 330.643862 
L 205.20576 329.012785 
L 226.0512 329.012785 
L 227.94624 325.188191 
L 233.63136 325.188191 
L 235.5264 320.801156 
L 239.31648 320.801156 
L 241.21152 318.607639 
L 245.0016 318.607639 
L 246.89664 316.414122 
L 254.4768 316.414122 
L 256.37184 312.027088 
L 262.05696 312.027088 
L 263.952 310.396011 
L 275.32224 310.396011 
L 277.21728 308.202493 
L 279.11232 306.571416 
L 281.00736 306.571416 
L 282.9024 304.94034 
L 286.69248 304.94034 
L 288.58752 302.746822 
L 322.69824 302.746822 
L 324.59328 299.484668 
L 330.2784 299.484668 
L 332.17344 292.39792 
L 339.7536 292.39792 
L 341.64864 289.135767 
L 345.43872 289.135767 
L 349.2288 284.748732 
L 351.12384 284.748732 
L 353.01888 282.555215 
L 356.80896 282.555215 
L 358.704 280.361698 
L 360.59904 274.906027 
L 362.49408 272.712509 
L 364.38912 272.712509 
L 368.1792 269.450355 
L 373.86432 269.450355 
L 375.75936 267.819279 
L 377.6544 267.819279 
L 379.54944 265.625761 
L 387.1296 265.625761 
L 389.02464 263.994684 
L 392.81472 263.994684 
L 394.70976 262.363607 
L 396.6048 262.363607 
L 398.49984 260.17009 
L 404.18496 255.276859 
L 411.76512 255.276859 
L 413.66016 252.014706 
L 415.5552 250.383629 
L 432.61056 250.383629 
L 434.5056 248.752552 
L 436.40064 245.490398 
L 438.29568 243.296881 
L 440.19072 243.296881 
L 442.08576 240.034727 
L 443.9808 240.034727 
L 445.87584 236.772573 
L 449.66592 236.772573 
L 451.56096 234.579056 
L 457.24608 234.579056 
L 459.14112 232.947979 
L 466.72128 232.947979 
L 470.51136 229.685825 
L 472.4064 229.685825 
L 474.30144 228.054748 
L 476.19648 222.599077 
L 481.8816 222.599077 
L 485.67168 219.336923 
L 489.46176 219.336923 
L 491.3568 217.705846 
L 493.25184 217.705846 
L 495.14688 215.512329 
L 500.832 215.512329 
L 502.72704 213.318812 
L 504.62208 211.687735 
L 506.51712 209.494218 
L 508.41216 209.494218 
L 512.20224 206.232064 
L 514.09728 202.96991 
L 517.88736 202.96991 
L 519.7824 201.338833 
L 525.46752 201.338833 
L 529.2576 198.076679 
L 536.83776 198.076679 
L 538.7328 196.445602 
L 540.62784 196.445602 
L 542.52288 194.814525 
L 544.41792 191.552371 
L 546.31296 187.727777 
L 550.10304 187.727777 
L 551.99808 183.903183 
L 553.89312 183.903183 
L 555.78816 182.272106 
L 557.6832 180.078589 
L 559.57824 180.078589 
L 561.47328 178.447512 
L 565.26336 178.447512 
L 567.1584 176.816435 
L 576.6336 176.816435 
L 578.52864 174.622918 
L 580.42368 174.622918 
L 582.31872 172.991841 
L 584.21376 172.991841 
L 586.1088 171.360764 
L 591.79392 171.360764 
L 593.68896 167.53617 
L 597.47904 167.53617 
L 599.37408 165.905093 
L 612.63936 165.905093 
L 614.5344 163.711576 
L 627.79968 163.711576 
L 629.69472 162.080499 
L 631.58976 159.886981 
L 633.4848 158.255905 
L 635.37984 156.062387 
L 637.27488 154.43131 
L 639.16992 152.237793 
L 641.06496 152.237793 
L 642.96 150.606716 
L 642.96 150.606716 
" clip-path="url(#pf7b084562c)" style="fill: none; stroke: #3b83b4; stroke-width: 1.35; stroke-linecap: square"/>
   </g>
   <g id="line2d_29">
    <path d="M 74.448 348.192 
L 123.71904 348.192 
L 125.61408 346.560923 
L 140.7744 346.560923 
L 144.56448 343.298769 
L 146.45952 339.474175 
L 150.2496 339.474175 
L 152.14464 337.843098 
L 154.03968 337.843098 
L 155.93472 336.212021 
L 165.40992 336.212021 
L 167.30496 334.580944 
L 169.2 334.580944 
L 172.99008 331.31879 
L 184.36032 331.31879 
L 188.1504 328.056637 
L 203.31072 328.056637 
L 205.20576 325.863119 
L 212.78592 325.863119 
L 214.68096 324.232042 
L 216.576 320.407448 
L 220.36608 320.407448 
L 222.26112 318.776371 
L 229.84128 318.776371 
L 231.73632 315.514218 
L 235.5264 315.514218 
L 237.42144 313.883141 
L 239.31648 313.883141 
L 241.21152 311.689623 
L 245.0016 311.689623 
L 254.4768 303.534239 
L 258.26688 303.534239 
L 260.16192 300.272085 
L 269.63712 300.272085 
L 271.53216 298.641008 
L 275.32224 298.641008 
L 277.21728 295.378854 
L 284.79744 295.378854 
L 292.3776 288.854546 
L 294.27264 286.661029 
L 296.16768 286.661029 
L 298.06272 283.398875 
L 299.95776 283.398875 
L 303.74784 280.136721 
L 309.43296 280.136721 
L 313.22304 276.874568 
L 315.11808 273.049973 
L 320.8032 273.049973 
L 322.69824 271.418897 
L 324.59328 269.225379 
L 326.48832 269.225379 
L 328.38336 267.594302 
L 330.2784 263.769708 
L 332.17344 262.138631 
L 337.85856 262.138631 
L 339.7536 260.507554 
L 345.43872 260.507554 
L 347.33376 258.314037 
L 349.2288 258.314037 
L 351.12384 256.12052 
L 370.07424 256.12052 
L 371.96928 254.489443 
L 398.49984 254.489443 
L 400.39488 252.295926 
L 413.66016 252.295926 
L 415.5552 247.908891 
L 417.45024 245.715374 
L 419.34528 245.715374 
L 421.24032 242.45322 
L 423.13536 242.45322 
L 425.0304 240.822143 
L 426.92544 238.628626 
L 430.71552 238.628626 
L 432.61056 234.804032 
L 434.5056 234.804032 
L 436.40064 233.172955 
L 449.66592 233.172955 
L 451.56096 231.541878 
L 453.456 231.541878 
L 455.35104 229.348361 
L 457.24608 229.348361 
L 459.14112 223.89269 
L 470.51136 223.89269 
L 472.4064 219.505655 
L 474.30144 219.505655 
L 476.19648 217.874578 
L 481.8816 217.874578 
L 485.67168 214.612424 
L 487.56672 211.350271 
L 489.46176 211.350271 
L 491.3568 209.719194 
L 493.25184 207.525676 
L 502.72704 207.525676 
L 504.62208 205.894599 
L 508.41216 205.894599 
L 510.3072 204.263523 
L 525.46752 204.263523 
L 527.36256 202.632446 
L 529.2576 202.632446 
L 531.15264 201.001369 
L 533.04768 201.001369 
L 534.94272 199.370292 
L 536.83776 199.370292 
L 538.7328 197.739215 
L 542.52288 197.739215 
L 544.41792 196.108138 
L 546.31296 196.108138 
L 548.208 194.477061 
L 559.57824 194.477061 
L 561.47328 192.845984 
L 582.31872 192.845984 
L 584.21376 191.214907 
L 586.1088 191.214907 
L 588.00384 187.952753 
L 605.0592 187.952753 
L 606.95424 185.759236 
L 616.42944 185.759236 
L 618.32448 183.565719 
L 620.21952 183.565719 
L 622.11456 181.372202 
L 625.90464 181.372202 
L 627.79968 179.741125 
L 629.69472 177.547607 
L 642.96 177.547607 
L 642.96 177.547607 
" clip-path="url(#pf7b084562c)" style="fill: none; stroke-dasharray: 4.995,2.16; stroke-dashoffset: 0; stroke: #c38a19; stroke-width: 1.35"/>
   </g>
   <g id="line2d_30">
    <path d="M 74.448 348.192 
L 100.97856 348.192 
L 102.8736 346.560923 
L 127.50912 346.560923 
L 129.40416 344.929846 
L 148.35456 344.929846 
L 150.2496 342.736329 
L 159.7248 342.736329 
L 161.61984 341.105252 
L 169.2 341.105252 
L 171.09504 339.474175 
L 172.99008 337.280658 
L 184.36032 337.280658 
L 186.25536 335.649581 
L 188.1504 332.387427 
L 193.83552 332.387427 
L 195.73056 330.75635 
L 197.6256 330.75635 
L 199.52064 329.125273 
L 203.31072 329.125273 
L 205.20576 326.931756 
L 207.1008 323.107162 
L 210.89088 319.845008 
L 218.47104 319.845008 
L 220.36608 318.213931 
L 243.10656 318.213931 
L 245.0016 316.582854 
L 260.16192 316.582854 
L 262.05696 314.951777 
L 269.63712 314.951777 
L 271.53216 313.3207 
L 279.11232 313.3207 
L 282.9024 310.058546 
L 290.48256 310.058546 
L 292.3776 308.427469 
L 294.27264 303.534239 
L 298.06272 303.534239 
L 299.95776 300.272085 
L 303.74784 300.272085 
L 305.64288 296.447491 
L 307.53792 294.816414 
L 313.22304 294.816414 
L 315.11808 293.185337 
L 317.01312 293.185337 
L 318.90816 291.55426 
L 320.8032 291.55426 
L 322.69824 289.923183 
L 324.59328 289.923183 
L 326.48832 288.292106 
L 328.38336 288.292106 
L 330.2784 286.661029 
L 332.17344 286.661029 
L 334.06848 282.273995 
L 335.96352 280.642918 
L 337.85856 278.449401 
L 343.54368 278.449401 
L 345.43872 274.624806 
L 349.2288 274.624806 
L 351.12384 272.993729 
L 356.80896 272.993729 
L 358.704 270.800212 
L 362.49408 270.800212 
L 364.38912 265.906981 
L 366.28416 262.082387 
L 368.1792 260.45131 
L 375.75936 260.45131 
L 377.6544 258.820233 
L 383.33952 258.820233 
L 387.1296 255.55808 
L 396.6048 255.55808 
L 398.49984 253.364562 
L 406.08 253.364562 
L 407.97504 251.733485 
L 421.24032 251.733485 
L 423.13536 249.539968 
L 428.82048 249.539968 
L 430.71552 245.152934 
L 432.61056 245.152934 
L 434.5056 243.521857 
L 440.19072 243.521857 
L 442.08576 241.32834 
L 451.56096 241.32834 
L 453.456 239.134822 
L 455.35104 237.503745 
L 464.82624 237.503745 
L 466.72128 235.310228 
L 472.4064 235.310228 
L 474.30144 233.679151 
L 476.19648 231.485634 
L 479.98656 231.485634 
L 481.8816 229.854557 
L 489.46176 229.854557 
L 491.3568 226.029963 
L 500.832 226.029963 
L 502.72704 224.398886 
L 514.09728 224.398886 
L 515.99232 221.136732 
L 517.88736 219.505655 
L 525.46752 219.505655 
L 527.36256 217.312138 
L 534.94272 217.312138 
L 536.83776 214.049984 
L 538.7328 212.418907 
L 542.52288 212.418907 
L 544.41792 210.78783 
L 550.10304 210.78783 
L 551.99808 209.156753 
L 557.6832 209.156753 
L 561.47328 205.894599 
L 567.1584 205.894599 
L 570.94848 202.632446 
L 586.1088 202.632446 
L 589.89888 199.370292 
L 595.584 199.370292 
L 597.47904 197.739215 
L 601.26912 197.739215 
L 603.16416 196.108138 
L 610.74432 196.108138 
L 612.63936 194.477061 
L 614.5344 194.477061 
L 616.42944 192.283544 
L 618.32448 190.652467 
L 627.79968 190.652467 
L 629.69472 188.45895 
L 639.16992 188.45895 
L 641.06496 186.827873 
L 642.96 186.827873 
L 642.96 186.827873 
" clip-path="url(#pf7b084562c)" style="fill: none; stroke-dasharray: 1.35,2.2275; stroke-dashoffset: 0; stroke: #7d8a92; stroke-width: 1.35"/>
   </g>
   <g id="line2d_31">
    <path d="M 74.448 348.192 
L 186.25536 348.192 
L 188.1504 346.560923 
L 203.31072 346.560923 
L 205.20576 344.367406 
L 214.68096 344.367406 
L 216.576 342.736329 
L 231.73632 342.736329 
L 233.63136 341.105252 
L 237.42144 341.105252 
L 239.31648 338.911735 
L 267.74208 338.911735 
L 269.63712 336.718218 
L 284.79744 336.718218 
L 286.69248 333.456064 
L 288.58752 331.824987 
L 339.7536 331.824987 
L 341.64864 328.562833 
L 351.12384 328.562833 
L 353.01888 326.931756 
L 354.91392 323.669602 
L 358.704 323.669602 
L 360.59904 321.476085 
L 379.54944 321.476085 
L 381.44448 319.845008 
L 383.33952 319.845008 
L 385.23456 318.213931 
L 392.81472 318.213931 
L 396.6048 314.951777 
L 404.18496 314.951777 
L 407.97504 311.689623 
L 411.76512 311.689623 
L 413.66016 309.496106 
L 415.5552 309.496106 
L 417.45024 307.865029 
L 421.24032 307.865029 
L 423.13536 306.233952 
L 438.29568 306.233952 
L 440.19072 304.602875 
L 443.9808 304.602875 
L 445.87584 302.971798 
L 453.456 302.971798 
L 455.35104 301.340721 
L 474.30144 301.340721 
L 476.19648 298.078568 
L 489.46176 298.078568 
L 491.3568 296.447491 
L 495.14688 296.447491 
L 497.04192 294.816414 
L 506.51712 294.816414 
L 508.41216 290.99182 
L 510.3072 290.99182 
L 512.20224 288.798302 
L 514.09728 287.167225 
L 515.99232 287.167225 
L 517.88736 283.905072 
L 519.7824 283.905072 
L 521.67744 282.273995 
L 531.15264 282.273995 
L 533.04768 280.642918 
L 538.7328 280.642918 
L 540.62784 278.449401 
L 542.52288 276.818324 
L 546.31296 276.818324 
L 548.208 275.187247 
L 550.10304 272.993729 
L 555.78816 272.993729 
L 557.6832 270.800212 
L 561.47328 270.800212 
L 563.36832 267.538058 
L 565.26336 267.538058 
L 567.1584 263.151024 
L 570.94848 263.151024 
L 572.84352 260.957507 
L 574.73856 257.695353 
L 578.52864 254.433199 
L 586.1088 254.433199 
L 588.00384 252.802122 
L 591.79392 252.802122 
L 597.47904 247.908891 
L 616.42944 247.908891 
L 618.32448 245.715374 
L 629.69472 245.715374 
L 631.58976 243.521857 
L 639.16992 243.521857 
L 641.06496 241.89078 
L 642.96 239.697263 
L 642.96 239.697263 
" clip-path="url(#pf7b084562c)" style="fill: none; stroke-dasharray: 8.64,2.16,1.35,2.16; stroke-dashoffset: 0; stroke: #d0526a; stroke-width: 1.35"/>
   </g>
   <g id="line2d_32">
    <path d="M 74.448 348.192 
L 129.40416 348.192 
L 131.2992 345.998483 
L 144.56448 345.998483 
L 146.45952 343.804966 
L 176.78016 343.804966 
L 178.6752 339.417931 
L 180.57024 339.417931 
L 182.46528 335.030897 
L 186.25536 335.030897 
L 188.1504 332.837379 
L 193.83552 332.837379 
L 195.73056 330.643862 
L 205.20576 330.643862 
L 207.1008 328.450345 
L 214.68096 328.450345 
L 216.576 326.256828 
L 239.31648 326.256828 
L 241.21152 324.06331 
L 243.10656 324.06331 
L 245.0016 321.869793 
L 260.16192 321.869793 
L 262.05696 319.676276 
L 263.952 319.676276 
L 265.84704 317.482759 
L 284.79744 317.482759 
L 286.69248 315.289241 
L 301.8528 315.289241 
L 303.74784 313.095724 
L 305.64288 313.095724 
L 307.53792 310.902207 
L 309.43296 310.902207 
L 311.328 308.70869 
L 315.11808 308.70869 
L 317.01312 306.515172 
L 322.69824 306.515172 
L 326.48832 302.128138 
L 356.80896 302.128138 
L 358.704 300.497061 
L 379.54944 300.497061 
L 383.33952 296.110027 
L 387.1296 296.110027 
L 389.02464 293.916509 
L 402.28992 293.916509 
L 404.18496 291.722992 
L 406.08 291.722992 
L 407.97504 290.091915 
L 411.76512 290.091915 
L 413.66016 287.898398 
L 423.13536 287.898398 
L 425.0304 283.511363 
L 432.61056 283.511363 
L 434.5056 281.880286 
L 438.29568 281.880286 
L 440.19072 280.24921 
L 453.456 280.24921 
L 455.35104 278.618133 
L 459.14112 278.618133 
L 461.03616 276.424615 
L 464.82624 276.424615 
L 466.72128 270.406504 
L 470.51136 267.14435 
L 472.4064 267.14435 
L 474.30144 265.513273 
L 476.19648 265.513273 
L 478.09152 263.319756 
L 479.98656 263.319756 
L 481.8816 261.126239 
L 483.77664 259.495162 
L 485.67168 259.495162 
L 487.56672 257.301645 
L 489.46176 257.301645 
L 491.3568 255.670568 
L 502.72704 255.670568 
L 504.62208 251.845973 
L 506.51712 251.845973 
L 508.41216 250.214897 
L 512.20224 250.214897 
L 514.09728 246.390302 
L 515.99232 244.759225 
L 517.88736 244.759225 
L 519.7824 242.565708 
L 521.67744 240.934631 
L 529.2576 240.934631 
L 531.15264 238.741114 
L 540.62784 238.741114 
L 542.52288 236.547597 
L 550.10304 236.547597 
L 551.99808 234.91652 
L 559.57824 234.91652 
L 561.47328 231.091926 
L 565.26336 231.091926 
L 567.1584 228.898408 
L 574.73856 228.898408 
L 576.6336 227.267332 
L 578.52864 225.073814 
L 584.21376 225.073814 
L 586.1088 222.880297 
L 588.00384 222.880297 
L 589.89888 218.493263 
L 591.79392 216.862186 
L 593.68896 216.862186 
L 595.584 215.231109 
L 601.26912 215.231109 
L 603.16416 213.600032 
L 605.0592 209.775438 
L 606.95424 209.775438 
L 608.84928 207.58192 
L 610.74432 205.950844 
L 614.5344 205.950844 
L 616.42944 204.319767 
L 620.21952 204.319767 
L 622.11456 202.68869 
L 624.0096 199.426536 
L 625.90464 197.795459 
L 629.69472 197.795459 
L 631.58976 195.601942 
L 639.16992 195.601942 
L 642.96 191.214907 
L 642.96 191.214907 
" clip-path="url(#pf7b084562c)" style="fill: none; stroke-dasharray: 6.75,2.7,1.35,2.7; stroke-dashoffset: 0; stroke: #2f8f84; stroke-width: 1.35"/>
   </g>
   <g id="patch_4">
    <path d="M 74.448 348.192 
L 74.448 93.744 
" style="fill: none; stroke: #000000; stroke-width: 0.8; stroke-linejoin: miter; stroke-linecap: square"/>
   </g>
   <g id="patch_5">
    <path d="M 74.448 348.192 
L 642.96 348.192 
" style="fill: none; stroke: #000000; stroke-width: 0.8; stroke-linejoin: miter; stroke-linecap: square"/>
   </g>
  </g>
  <g id="text_16">
   <text style="font: 18px 'DejaVu Sans', 'Bitstream Vera Sans', 'Computer Modern Sans Serif', 'Lucida Grande', 'Verdana', 'Geneva', 'Lucid', 'Arial', 'Helvetica', 'Avant Garde', sans-serif; text-anchor: start" x="74.448" y="38.229188" transform="rotate(-0 74.448 38.229188)">D55 Direct</text>
  </g>
  <g id="text_17">
   <text style="fill: #66747c; font: 10px 'DejaVu Sans', 'Bitstream Vera Sans', 'Computer Modern Sans Serif', 'Lucida Grande', 'Verdana', 'Geneva', 'Lucid', 'Arial', 'Helvetica', 'Avant Garde', sans-serif; text-anchor: start" x="74.448" y="64.728" transform="rotate(-0 74.448 64.728)">smartphone OLED</text>
  </g>
  <g id="legend_1">
   <g id="line2d_33">
    <path d="M 185.17875 404.151391 
L 194.27875 404.151391 
L 203.37875 404.151391 
" style="fill: none; stroke: #252525; stroke-width: 2.5; stroke-linecap: square"/>
   </g>
   <g id="text_18">
    <text style="font: 9.1px 'DejaVu Sans', 'Bitstream Vera Sans', 'Computer Modern Sans Serif', 'Lucida Grande', 'Verdana', 'Geneva', 'Lucid', 'Arial', 'Helvetica', 'Avant Garde', sans-serif; text-anchor: start" x="210.65875" y="407.336391" transform="rotate(-0 210.65875 407.336391)">Potera CMF</text>
   </g>
   <g id="line2d_34">
    <path d="M 185.17875 417.508484 
L 194.27875 417.508484 
L 203.37875 417.508484 
" style="fill: none; stroke: #3b83b4; stroke-width: 1.35; stroke-linecap: square"/>
   </g>
   <g id="text_19">
    <text style="font: 9.1px 'DejaVu Sans', 'Bitstream Vera Sans', 'Computer Modern Sans Serif', 'Lucida Grande', 'Verdana', 'Geneva', 'Lucid', 'Arial', 'Helvetica', 'Avant Garde', sans-serif; text-anchor: start" x="210.65875" y="420.693484" transform="rotate(-0 210.65875 420.693484)">CIE 2015 2°</text>
   </g>
   <g id="line2d_35">
    <path d="M 282.931234 404.151391 
L 292.031234 404.151391 
L 301.131234 404.151391 
" style="fill: none; stroke-dasharray: 4.995,2.16; stroke-dashoffset: 0; stroke: #c38a19; stroke-width: 1.35"/>
   </g>
   <g id="text_20">
    <text style="font: 9.1px 'DejaVu Sans', 'Bitstream Vera Sans', 'Computer Modern Sans Serif', 'Lucida Grande', 'Verdana', 'Geneva', 'Lucid', 'Arial', 'Helvetica', 'Avant Garde', sans-serif; text-anchor: start" x="308.411234" y="407.336391" transform="rotate(-0 308.411234 407.336391)">CIE 2015 10°</text>
   </g>
   <g id="line2d_36">
    <path d="M 282.931234 417.508484 
L 292.031234 417.508484 
L 301.131234 417.508484 
" style="fill: none; stroke-dasharray: 1.35,2.2275; stroke-dashoffset: 0; stroke: #7d8a92; stroke-width: 1.35"/>
   </g>
   <g id="text_21">
    <text style="font: 9.1px 'DejaVu Sans', 'Bitstream Vera Sans', 'Computer Modern Sans Serif', 'Lucida Grande', 'Verdana', 'Geneva', 'Lucid', 'Arial', 'Helvetica', 'Avant Garde', sans-serif; text-anchor: start" x="308.411234" y="420.693484" transform="rotate(-0 308.411234 420.693484)">CIE 1964 10°</text>
   </g>
   <g id="line2d_37">
    <path d="M 386.473594 404.151391 
L 395.573594 404.151391 
L 404.673594 404.151391 
" style="fill: none; stroke-dasharray: 8.64,2.16,1.35,2.16; stroke-dashoffset: 0; stroke: #d0526a; stroke-width: 1.35"/>
   </g>
   <g id="text_22">
    <text style="font: 9.1px 'DejaVu Sans', 'Bitstream Vera Sans', 'Computer Modern Sans Serif', 'Lucida Grande', 'Verdana', 'Geneva', 'Lucid', 'Arial', 'Helvetica', 'Avant Garde', sans-serif; text-anchor: start" x="411.953594" y="407.336391" transform="rotate(-0 411.953594 407.336391)">CIE 1931 2°</text>
   </g>
   <g id="line2d_38">
    <path d="M 386.473594 417.508484 
L 395.573594 417.508484 
L 404.673594 417.508484 
" style="fill: none; stroke-dasharray: 6.75,2.7,1.35,2.7; stroke-dashoffset: 0; stroke: #2f8f84; stroke-width: 1.35"/>
   </g>
   <g id="text_23">
    <text style="font: 9.1px 'DejaVu Sans', 'Bitstream Vera Sans', 'Computer Modern Sans Serif', 'Lucida Grande', 'Verdana', 'Geneva', 'Lucid', 'Arial', 'Helvetica', 'Avant Garde', sans-serif; text-anchor: start" x="411.953594" y="420.693484" transform="rotate(-0 411.953594 420.693484)">Judd–Vos 1978 2°</text>
   </g>
  </g>
 </g>
 <defs>
  <clipPath id="pf7b084562c">
   <rect x="74.448" y="93.744" width="568.512" height="254.448"/>
  </clipPath>
 </defs>
</svg>
