<?xml version="1.0" encoding="utf-8" standalone="no"?>
<!DOCTYPE svg PUBLIC "-//W3C//DTD SVG 1.1//EN"
  "http://www.w3.org/Graphics/SVG/1.1/DTD/svg11.dtd">
<svg xmlns:xlink="http://www.w3.org/1999/xlink" width="676.8pt" height="446.4pt" viewBox="0 0 676.8 446.4" xmlns="http://www.w3.org/2000/svg" version="1.1">
 <metadata>
  <rdf:RDF xmlns:dc="http://purl.org/dc/elements/1.1/" xmlns:cc="http://creativecommons.org/ns#" xmlns:rdf="http://www.w3.org/1999/02/22-rdf-syntax-ns#">
   <cc:Work>
    <dc:type rdf:resource="http://purl.org/dc/dcmitype/StillImage"/>
    <dc:date>2026-07-20T06:41:55.596020</dc:date>
    <dc:format>image/svg+xml</dc:format>
    <dc:creator>
     <cc:Agent>
      <dc:title>Matplotlib v3.9.4, https://matplotlib.org/</dc:title>
     </cc:Agent>
    </dc:creator>
   </cc:Work>
  </rdf:RDF>
 </metadata>
 <defs>
  <style type="text/css">*{stroke-linejoin: round; stroke-linecap: butt}</style>
 </defs>
 <g id="figure_1">
  <g id="patch_1">
   <path d="M 0 446.4 
L 676.8 446.4 
L 676.8 0 
L 0 0 
z
" style="fill: #ffffff"/>
  </g>
  <g id="axes_1">
   <g id="patch_2">
    <path d="M 74.448 348.192 
L 642.96 348.192 
L 642.96 93.744 
L 74.448 93.744 
z
" style="fill: #ffffff"/>
   </g>
   <g id="patch_3">
    <path d="M 169.2 348.192 
L 358.704 348.192 
L 358.704 93.744 
L 169.2 93.744 
z
" clip-path="url(#pb178ff07e6)" style="fill: #e7f0ea; opacity: 0.58; stroke: #e7f0ea; stroke-linejoin: miter"/>
   </g>
   <g id="matplotlib.axis_1">
    <g id="xtick_1">
     <g id="line2d_1">
      <path d="M 74.448 348.192 
L 74.448 93.744 
" clip-path="url(#pb178ff07e6)" style="fill: none; stroke: #dfe5e8; stroke-width: 0.65; stroke-linecap: square"/>
     </g>
     <g id="line2d_2">
      <defs>
       <path id="ma8e904b94d" d="M 0 0 
L 0 3.5 
" style="stroke: #000000; stroke-width: 0.8"/>
      </defs>
      <g>
       <use xlink:href="#ma8e904b94d" x="74.448" y="348.192" style="stroke: #000000; stroke-width: 0.8"/>
      </g>
     </g>
     <g id="text_1">
      <text style="font: 10px 'DejaVu Sans', 'Bitstream Vera Sans', 'Computer Modern Sans Serif', 'Lucida Grande', 'Verdana', 'Geneva', 'Lucid', 'Arial', 'Helvetica', 'Avant Garde', sans-serif; text-anchor: middle" x="74.448" y="362.790438" transform="rotate(-0 74.448 362.790438)">0</text>
     </g>
    </g>
    <g id="xtick_2">
     <g id="line2d_3">
      <path d="M 169.2 348.192 
L 169.2 93.744 
" clip-path="url(#pb178ff07e6)" style="fill: none; stroke: #dfe5e8; stroke-width: 0.65; stroke-linecap: square"/>
     </g>
     <g id="line2d_4">
      <g>
       <use xlink:href="#ma8e904b94d" x="169.2" y="348.192" style="stroke: #000000; stroke-width: 0.8"/>
      </g>
     </g>
     <g id="text_2">
      <text style="font: 10px 'DejaVu Sans', 'Bitstream Vera Sans', 'Computer Modern Sans Serif', 'Lucida Grande', 'Verdana', 'Geneva', 'Lucid', 'Arial', 'Helvetica', 'Avant Garde', sans-serif; text-anchor: middle" x="169.2" y="362.790438" transform="rotate(-0 169.2 362.790438)">1</text>
     </g>
    </g>
    <g id="xtick_3">
     <g id="line2d_5">
      <path d="M 263.952 348.192 
L 263.952 93.744 
" clip-path="url(#pb178ff07e6)" style="fill: none; stroke: #dfe5e8; stroke-width: 0.65; stroke-linecap: square"/>
     </g>
     <g id="line2d_6">
      <g>
       <use xlink:href="#ma8e904b94d" x="263.952" y="348.192" style="stroke: #000000; stroke-width: 0.8"/>
      </g>
     </g>
     <g id="text_3">
      <text style="font: 10px 'DejaVu Sans', 'Bitstream Vera Sans', 'Computer Modern Sans Serif', 'Lucida Grande', 'Verdana', 'Geneva', 'Lucid', 'Arial', 'Helvetica', 'Avant Garde', sans-serif; text-anchor: middle" x="263.952" y="362.790438" transform="rotate(-0 263.952 362.790438)">2</text>
     </g>
    </g>
    <g id="xtick_4">
     <g id="line2d_7">
      <path d="M 358.704 348.192 
L 358.704 93.744 
" clip-path="url(#pb178ff07e6)" style="fill: none; stroke: #dfe5e8; stroke-width: 0.65; stroke-linecap: square"/>
     </g>
     <g id="line2d_8">
      <g>
       <use xlink:href="#ma8e904b94d" x="358.704" y="348.192" style="stroke: #000000; stroke-width: 0.8"/>
      </g>
     </g>
     <g id="text_4">
      <text style="font: 10px 'DejaVu Sans', 'Bitstream Vera Sans', 'Computer Modern Sans Serif', 'Lucida Grande', 'Verdana', 'Geneva', 'Lucid', 'Arial', 'Helvetica', 'Avant Garde', sans-serif; text-anchor: middle" x="358.704" y="362.790438" transform="rotate(-0 358.704 362.790438)">3</text>
     </g>
    </g>
    <g id="xtick_5">
     <g id="line2d_9">
      <path d="M 453.456 348.192 
L 453.456 93.744 
" clip-path="url(#pb178ff07e6)" style="fill: none; stroke: #dfe5e8; stroke-width: 0.65; stroke-linecap: square"/>
     </g>
     <g id="line2d_10">
      <g>
       <use xlink:href="#ma8e904b94d" x="453.456" y="348.192" style="stroke: #000000; stroke-width: 0.8"/>
      </g>
     </g>
     <g id="text_5">
      <text style="font: 10px 'DejaVu Sans', 'Bitstream Vera Sans', 'Computer Modern Sans Serif', 'Lucida Grande', 'Verdana', 'Geneva', 'Lucid', 'Arial', 'Helvetica', 'Avant Garde', sans-serif; text-anchor: middle" x="453.456" y="362.790438" transform="rotate(-0 453.456 362.790438)">4</text>
     </g>
    </g>
    <g id="xtick_6">
     <g id="line2d_11">
      <path d="M 548.208 348.192 
L 548.208 93.744 
" clip-path="url(#pb178ff07e6)" style="fill: none; stroke: #dfe5e8; stroke-width: 0.65; stroke-linecap: square"/>
     </g>
     <g id="line2d_12">
      <g>
       <use xlink:href="#ma8e904b94d" x="548.208" y="348.192" style="stroke: #000000; stroke-width: 0.8"/>
      </g>
     </g>
     <g id="text_6">
      <text style="font: 10px 'DejaVu Sans', 'Bitstream Vera Sans', 'Computer Modern Sans Serif', 'Lucida Grande', 'Verdana', 'Geneva', 'Lucid', 'Arial', 'Helvetica', 'Avant Garde', sans-serif; text-anchor: middle" x="548.208" y="362.790438" transform="rotate(-0 548.208 362.790438)">5</text>
     </g>
    </g>
    <g id="xtick_7">
     <g id="line2d_13">
      <path d="M 642.96 348.192 
L 642.96 93.744 
" clip-path="url(#pb178ff07e6)" style="fill: none; stroke: #dfe5e8; stroke-width: 0.65; stroke-linecap: square"/>
     </g>
     <g id="line2d_14">
      <g>
       <use xlink:href="#ma8e904b94d" x="642.96" y="348.192" style="stroke: #000000; stroke-width: 0.8"/>
      </g>
     </g>
     <g id="text_7">
      <text style="font: 10px 'DejaVu Sans', 'Bitstream Vera Sans', 'Computer Modern Sans Serif', 'Lucida Grande', 'Verdana', 'Geneva', 'Lucid', 'Arial', 'Helvetica', 'Avant Garde', sans-serif; text-anchor: middle" x="642.96" y="362.790438" transform="rotate(-0 642.96 362.790438)">6</text>
     </g>
    </g>
    <g id="text_8">
     <text style="font: 10px 'DejaVu Sans', 'Bitstream Vera Sans', 'Computer Modern Sans Serif', 'Lucida Grande', 'Verdana', 'Geneva', 'Lucid', 'Arial', 'Helvetica', 'Avant Garde', sans-serif; text-anchor: middle" x="358.704" y="376.468563" transform="rotate(-0 358.704 376.468563)">sUCS dE threshold</text>
    </g>
   </g>
   <g id="matplotlib.axis_2">
    <g id="ytick_1">
     <g id="line2d_15">
      <path d="M 74.448 348.192 
L 642.96 348.192 
" clip-path="url(#pb178ff07e6)" style="fill: none; stroke: #dfe5e8; stroke-width: 0.65; stroke-linecap: square"/>
     </g>
     <g id="line2d_16">
      <defs>
       <path id="m3579c14507" d="M 0 0 
L -3.5 0 
" style="stroke: #000000; stroke-width: 0.8"/>
      </defs>
      <g>
       <use xlink:href="#m3579c14507" x="74.448" y="348.192" style="stroke: #000000; stroke-width: 0.8"/>
      </g>
     </g>
     <g id="text_9">
      <text style="font: 10px 'DejaVu Sans', 'Bitstream Vera Sans', 'Computer Modern Sans Serif', 'Lucida Grande', 'Verdana', 'Geneva', 'Lucid', 'Arial', 'Helvetica', 'Avant Garde', sans-serif; text-anchor: end" x="67.448" y="351.991219" transform="rotate(-0 67.448 351.991219)">0</text>
     </g>
    </g>
    <g id="ytick_2">
     <g id="line2d_17">
      <path d="M 74.448 297.3024 
L 642.96 297.3024 
" clip-path="url(#pb178ff07e6)" style="fill: none; stroke: #dfe5e8; stroke-width: 0.65; stroke-linecap: square"/>
     </g>
     <g id="line2d_18">
      <g>
       <use xlink:href="#m3579c14507" x="74.448" y="297.3024" style="stroke: #000000; stroke-width: 0.8"/>
      </g>
     </g>
     <g id="text_10">
      <text style="font: 10px 'DejaVu Sans', 'Bitstream Vera Sans', 'Computer Modern Sans Serif', 'Lucida Grande', 'Verdana', 'Geneva', 'Lucid', 'Arial', 'Helvetica', 'Avant Garde', sans-serif; text-anchor: end" x="67.448" y="301.101619" transform="rotate(-0 67.448 301.101619)">20</text>
     </g>
    </g>
    <g id="ytick_3">
     <g id="line2d_19">
      <path d="M 74.448 246.4128 
L 642.96 246.4128 
" clip-path="url(#pb178ff07e6)" style="fill: none; stroke: #dfe5e8; stroke-width: 0.65; stroke-linecap: square"/>
     </g>
     <g id="line2d_20">
      <g>
       <use xlink:href="#m3579c14507" x="74.448" y="246.4128" style="stroke: #000000; stroke-width: 0.8"/>
      </g>
     </g>
     <g id="text_11">
      <text style="font: 10px 'DejaVu Sans', 'Bitstream Vera Sans', 'Computer Modern Sans Serif', 'Lucida Grande', 'Verdana', 'Geneva', 'Lucid', 'Arial', 'Helvetica', 'Avant Garde', sans-serif; text-anchor: end" x="67.448" y="250.212019" transform="rotate(-0 67.448 250.212019)">40</text>
     </g>
    </g>
    <g id="ytick_4">
     <g id="line2d_21">
      <path d="M 74.448 195.5232 
L 642.96 195.5232 
" clip-path="url(#pb178ff07e6)" style="fill: none; stroke: #dfe5e8; stroke-width: 0.65; stroke-linecap: square"/>
     </g>
     <g id="line2d_22">
      <g>
       <use xlink:href="#m3579c14507" x="74.448" y="195.5232" style="stroke: #000000; stroke-width: 0.8"/>
      </g>
     </g>
     <g id="text_12">
      <text style="font: 10px 'DejaVu Sans', 'Bitstream Vera Sans', 'Computer Modern Sans Serif', 'Lucida Grande', 'Verdana', 'Geneva', 'Lucid', 'Arial', 'Helvetica', 'Avant Garde', sans-serif; text-anchor: end" x="67.448" y="199.322419" transform="rotate(-0 67.448 199.322419)">60</text>
     </g>
    </g>
    <g id="ytick_5">
     <g id="line2d_23">
      <path d="M 74.448 144.6336 
L 642.96 144.6336 
" clip-path="url(#pb178ff07e6)" style="fill: none; stroke: #dfe5e8; stroke-width: 0.65; stroke-linecap: square"/>
     </g>
     <g id="line2d_24">
      <g>
       <use xlink:href="#m3579c14507" x="74.448" y="144.6336" style="stroke: #000000; stroke-width: 0.8"/>
      </g>
     </g>
     <g id="text_13">
      <text style="font: 10px 'DejaVu Sans', 'Bitstream Vera Sans', 'Computer Modern Sans Serif', 'Lucida Grande', 'Verdana', 'Geneva', 'Lucid', 'Arial', 'Helvetica', 'Avant Garde', sans-serif; text-anchor: end" x="67.448" y="148.432819" transform="rotate(-0 67.448 148.432819)">80</text>
     </g>
    </g>
    <g id="ytick_6">
     <g id="line2d_25">
      <path d="M 74.448 93.744 
L 642.96 93.744 
" clip-path="url(#pb178ff07e6)" style="fill: none; stroke: #dfe5e8; stroke-width: 0.65; stroke-linecap: square"/>
     </g>
     <g id="line2d_26">
      <g>
       <use xlink:href="#m3579c14507" x="74.448" y="93.744" style="stroke: #000000; stroke-width: 0.8"/>
      </g>
     </g>
     <g id="text_14">
      <text style="font: 10px 'DejaVu Sans', 'Bitstream Vera Sans', 'Computer Modern Sans Serif', 'Lucida Grande', 'Verdana', 'Geneva', 'Lucid', 'Arial', 'Helvetica', 'Avant Garde', sans-serif; text-anchor: end" x="67.448" y="97.543219" transform="rotate(-0 67.448 97.543219)">100</text>
     </g>
    </g>
    <g id="text_15">
     <text style="font: 10px 'DejaVu Sans', 'Bitstream Vera Sans', 'Computer Modern Sans Serif', 'Lucida Grande', 'Verdana', 'Geneva', 'Lucid', 'Arial', 'Helvetica', 'Avant Garde', sans-serif; text-anchor: middle" x="42.280812" y="220.968" transform="rotate(-90 42.280812 220.968)">observers%</text>
    </g>
   </g>
   <g id="line2d_27">
    <path d="M 74.448 348.192 
L 97.18848 348.192 
L 99.08352 346.560923 
L 100.97856 346.560923 
L 102.8736 344.929846 
L 114.24384 344.929846 
L 116.13888 343.298769 
L 125.61408 343.298769 
L 127.50912 341.667692 
L 135.08928 341.667692 
L 136.98432 339.474175 
L 140.7744 336.212021 
L 142.66944 334.018504 
L 144.56448 334.018504 
L 146.45952 331.824987 
L 148.35456 330.19391 
L 152.14464 330.19391 
L 154.03968 328.000393 
L 155.93472 328.000393 
L 157.82976 326.369316 
L 161.61984 326.369316 
L 165.40992 321.982281 
L 167.30496 321.982281 
L 169.2 320.351204 
L 172.99008 320.351204 
L 174.88512 318.720127 
L 176.78016 318.720127 
L 184.36032 312.19582 
L 197.6256 312.19582 
L 199.52064 310.564743 
L 203.31072 310.564743 
L 205.20576 308.933666 
L 208.99584 308.933666 
L 216.576 302.409358 
L 218.47104 300.215841 
L 220.36608 298.584764 
L 222.26112 298.584764 
L 224.15616 294.76017 
L 227.94624 291.498016 
L 229.84128 289.304499 
L 231.73632 287.673422 
L 233.63136 287.673422 
L 235.5264 283.848828 
L 237.42144 283.848828 
L 246.89664 275.693443 
L 250.68672 275.693443 
L 254.4768 272.431289 
L 263.952 272.431289 
L 265.84704 270.800212 
L 267.74208 270.800212 
L 269.63712 267.538058 
L 271.53216 265.906981 
L 277.21728 265.906981 
L 279.11232 260.45131 
L 281.00736 258.820233 
L 284.79744 258.820233 
L 286.69248 257.189156 
L 288.58752 257.189156 
L 290.48256 254.995639 
L 292.3776 254.995639 
L 294.27264 252.802122 
L 296.16768 251.171045 
L 299.95776 244.646737 
L 305.64288 244.646737 
L 307.53792 243.01566 
L 309.43296 243.01566 
L 311.328 239.753507 
L 313.22304 237.559989 
L 317.01312 237.559989 
L 318.90816 232.104318 
L 320.8032 230.473241 
L 322.69824 230.473241 
L 326.48832 227.211088 
L 334.06848 227.211088 
L 335.96352 225.580011 
L 339.7536 225.580011 
L 343.54368 222.317857 
L 345.43872 222.317857 
L 347.33376 220.12434 
L 349.2288 220.12434 
L 351.12384 214.668668 
L 353.01888 214.668668 
L 354.91392 213.037592 
L 356.80896 213.037592 
L 358.704 211.406515 
L 360.59904 209.212997 
L 362.49408 207.58192 
L 364.38912 207.58192 
L 366.28416 205.950844 
L 370.07424 205.950844 
L 371.96928 204.319767 
L 381.44448 204.319767 
L 383.33952 202.68869 
L 385.23456 198.301655 
L 387.1296 198.301655 
L 389.02464 196.670578 
L 390.91968 196.670578 
L 392.81472 194.477061 
L 404.18496 194.477061 
L 406.08 192.283544 
L 407.97504 192.283544 
L 411.76512 187.896509 
L 419.34528 187.896509 
L 421.24032 185.702992 
L 430.71552 185.702992 
L 432.61056 181.878398 
L 434.5056 180.247321 
L 442.08576 180.247321 
L 445.87584 176.985167 
L 457.24608 176.985167 
L 459.14112 174.79165 
L 479.98656 174.79165 
L 481.8816 172.598133 
L 483.77664 172.598133 
L 485.67168 170.967056 
L 491.3568 170.967056 
L 493.25184 168.773538 
L 497.04192 168.773538 
L 498.93696 165.511385 
L 506.51712 165.511385 
L 508.41216 163.317867 
L 515.99232 163.317867 
L 517.88736 160.055714 
L 536.83776 160.055714 
L 538.7328 157.862196 
L 569.05344 157.862196 
L 570.94848 156.231119 
L 572.84352 156.231119 
L 578.52864 149.650568 
L 597.47904 149.650568 
L 599.37408 147.45705 
L 605.0592 147.45705 
L 606.95424 145.263533 
L 622.11456 145.263533 
L 624.0096 143.070016 
L 641.06496 143.070016 
L 642.96 140.876499 
L 642.96 140.876499 
" clip-path="url(#pb178ff07e6)" style="fill: none; stroke: #252525; stroke-width: 2.5; stroke-linecap: square"/>
   </g>
   <g id="line2d_28">
    <path d="M 74.448 348.192 
L 121.824 348.192 
L 123.71904 345.998483 
L 129.40416 345.998483 
L 131.2992 343.804966 
L 140.7744 343.804966 
L 142.66944 339.417931 
L 152.14464 339.417931 
L 154.03968 337.224414 
L 157.82976 337.224414 
L 159.7248 335.593337 
L 167.30496 335.593337 
L 169.2 333.39982 
L 184.36032 333.39982 
L 186.25536 331.206302 
L 188.1504 331.206302 
L 190.04544 327.381708 
L 191.94048 322.994674 
L 193.83552 320.801156 
L 195.73056 320.801156 
L 197.6256 319.17008 
L 201.41568 319.17008 
L 203.31072 315.345485 
L 205.20576 315.345485 
L 207.1008 313.714408 
L 208.99584 309.889814 
L 220.36608 309.889814 
L 222.26112 307.696297 
L 224.15616 307.696297 
L 226.0512 305.50278 
L 227.94624 303.871703 
L 231.73632 303.871703 
L 233.63136 302.240626 
L 235.5264 302.240626 
L 241.21152 297.347395 
L 245.0016 297.347395 
L 248.79168 292.960361 
L 250.68672 292.960361 
L 252.58176 291.329284 
L 254.4768 291.329284 
L 258.26688 288.06713 
L 260.16192 285.873613 
L 269.63712 285.873613 
L 271.53216 282.049019 
L 273.4272 282.049019 
L 275.32224 280.417942 
L 277.21728 280.417942 
L 279.11232 276.030907 
L 284.79744 276.030907 
L 290.48256 271.137676 
L 296.16768 271.137676 
L 298.06272 267.875523 
L 303.74784 267.875523 
L 307.53792 264.613369 
L 315.11808 264.613369 
L 317.01312 262.982292 
L 324.59328 262.982292 
L 326.48832 259.157698 
L 328.38336 256.96418 
L 334.06848 256.96418 
L 335.96352 254.770663 
L 339.7536 254.770663 
L 341.64864 251.508509 
L 343.54368 251.508509 
L 345.43872 246.615279 
L 353.01888 246.615279 
L 354.91392 244.984202 
L 356.80896 244.984202 
L 364.38912 238.459894 
L 368.1792 238.459894 
L 370.07424 229.742069 
L 371.96928 225.917475 
L 377.6544 225.917475 
L 379.54944 224.286398 
L 381.44448 224.286398 
L 383.33952 219.393167 
L 385.23456 216.131013 
L 389.02464 212.868859 
L 398.49984 212.868859 
L 400.39488 209.606706 
L 409.87008 209.606706 
L 411.76512 206.344552 
L 415.5552 206.344552 
L 417.45024 203.082398 
L 419.34528 200.888881 
L 421.24032 200.888881 
L 423.13536 199.257804 
L 428.82048 199.257804 
L 430.71552 197.626727 
L 432.61056 195.43321 
L 443.9808 195.43321 
L 445.87584 193.802133 
L 449.66592 189.415098 
L 451.56096 187.784021 
L 453.456 185.590504 
L 455.35104 185.590504 
L 459.14112 182.32835 
L 461.03616 180.134833 
L 462.9312 178.503756 
L 466.72128 178.503756 
L 468.61632 174.679162 
L 470.51136 173.048085 
L 472.4064 173.048085 
L 474.30144 171.417008 
L 476.19648 169.223491 
L 479.98656 169.223491 
L 481.8816 167.592414 
L 489.46176 167.592414 
L 491.3568 165.398897 
L 495.14688 165.398897 
L 497.04192 163.76782 
L 502.72704 163.76782 
L 504.62208 162.136743 
L 514.09728 162.136743 
L 515.99232 157.749708 
L 521.67744 157.749708 
L 523.57248 153.925114 
L 525.46752 153.925114 
L 527.36256 152.294037 
L 533.04768 152.294037 
L 534.94272 148.469443 
L 536.83776 146.275926 
L 538.7328 146.275926 
L 540.62784 141.888891 
L 555.78816 141.888891 
L 557.6832 139.695374 
L 559.57824 139.695374 
L 561.47328 138.064297 
L 576.6336 138.064297 
L 578.52864 135.87078 
L 582.31872 135.87078 
L 584.21376 132.608626 
L 608.84928 132.608626 
L 610.74432 130.977549 
L 618.32448 130.977549 
L 620.21952 128.784032 
L 627.79968 128.784032 
L 629.69472 127.152955 
L 637.27488 127.152955 
L 639.16992 124.959438 
L 642.96 124.959438 
L 642.96 124.959438 
" clip-path="url(#pb178ff07e6)" style="fill: none; stroke: #3b83b4; stroke-width: 1.35; stroke-linecap: square"/>
   </g>
   <g id="line2d_29">
    <path d="M 74.448 348.192 
L 89.60832 348.192 
L 91.50336 346.560923 
L 110.45376 346.560923 
L 112.3488 344.929846 
L 119.92896 344.929846 
L 123.71904 341.667692 
L 125.61408 341.667692 
L 127.50912 340.036615 
L 129.40416 337.843098 
L 150.2496 337.843098 
L 154.03968 334.580944 
L 157.82976 334.580944 
L 159.7248 332.949867 
L 163.51488 332.949867 
L 165.40992 331.31879 
L 167.30496 331.31879 
L 169.2 329.687714 
L 191.94048 329.687714 
L 193.83552 328.056637 
L 195.73056 328.056637 
L 197.6256 324.794483 
L 199.52064 324.794483 
L 201.41568 323.163406 
L 203.31072 318.270175 
L 205.20576 318.270175 
L 207.1008 316.639098 
L 210.89088 316.639098 
L 212.78592 314.445581 
L 214.68096 314.445581 
L 216.576 312.814504 
L 227.94624 312.814504 
L 229.84128 311.183427 
L 235.5264 311.183427 
L 239.31648 307.921273 
L 243.10656 307.921273 
L 245.0016 306.290196 
L 246.89664 306.290196 
L 248.79168 304.659119 
L 252.58176 304.659119 
L 254.4768 301.396966 
L 269.63712 301.396966 
L 271.53216 299.765889 
L 273.4272 299.765889 
L 275.32224 296.503735 
L 284.79744 296.503735 
L 286.69248 294.310218 
L 290.48256 294.310218 
L 292.3776 292.679141 
L 294.27264 292.679141 
L 296.16768 291.048064 
L 298.06272 285.592393 
L 299.95776 283.961316 
L 301.8528 280.136721 
L 303.74784 278.505645 
L 305.64288 278.505645 
L 307.53792 276.874568 
L 311.328 276.874568 
L 313.22304 275.243491 
L 315.11808 273.049973 
L 318.90816 269.78782 
L 320.8032 267.594302 
L 322.69824 267.594302 
L 324.59328 265.963225 
L 328.38336 265.963225 
L 332.17344 262.701072 
L 335.96352 258.314037 
L 339.7536 258.314037 
L 341.64864 254.489443 
L 343.54368 252.858366 
L 358.704 252.858366 
L 360.59904 250.664849 
L 364.38912 247.402695 
L 370.07424 247.402695 
L 371.96928 244.140541 
L 389.02464 244.140541 
L 390.91968 242.509464 
L 404.18496 242.509464 
L 406.08 240.878387 
L 407.97504 240.878387 
L 409.87008 238.68487 
L 411.76512 237.053793 
L 413.66016 237.053793 
L 415.5552 233.229199 
L 417.45024 231.598122 
L 421.24032 231.598122 
L 423.13536 229.404605 
L 425.0304 229.404605 
L 428.82048 226.142451 
L 430.71552 222.880297 
L 440.19072 222.880297 
L 442.08576 220.68678 
L 443.9808 219.055703 
L 445.87584 216.862186 
L 447.77088 216.862186 
L 449.66592 214.668668 
L 453.456 214.668668 
L 455.35104 213.037592 
L 457.24608 213.037592 
L 459.14112 209.775438 
L 466.72128 209.775438 
L 468.61632 207.58192 
L 479.98656 207.58192 
L 481.8816 205.950844 
L 483.77664 201.057613 
L 485.67168 198.864095 
L 489.46176 198.864095 
L 491.3568 196.670578 
L 493.25184 195.039501 
L 495.14688 195.039501 
L 497.04192 193.408424 
L 500.832 193.408424 
L 502.72704 191.214907 
L 514.09728 191.214907 
L 515.99232 189.58383 
L 523.57248 189.58383 
L 525.46752 187.952753 
L 529.2576 187.952753 
L 531.15264 186.321676 
L 538.7328 186.321676 
L 540.62784 184.690599 
L 555.78816 184.690599 
L 559.57824 180.303565 
L 576.6336 180.303565 
L 578.52864 178.110048 
L 584.21376 178.110048 
L 586.1088 174.285454 
L 605.0592 174.285454 
L 606.95424 172.654377 
L 608.84928 168.829782 
L 637.27488 168.829782 
L 639.16992 166.636265 
L 641.06496 166.636265 
L 642.96 164.442748 
L 642.96 164.442748 
" clip-path="url(#pb178ff07e6)" style="fill: none; stroke-dasharray: 4.995,2.16; stroke-dashoffset: 0; stroke: #c38a19; stroke-width: 1.35"/>
   </g>
   <g id="line2d_30">
    <path d="M 74.448 348.192 
L 121.824 348.192 
L 123.71904 345.998483 
L 131.2992 345.998483 
L 133.19424 344.367406 
L 138.87936 344.367406 
L 140.7744 342.736329 
L 142.66944 342.736329 
L 144.56448 341.105252 
L 148.35456 341.105252 
L 150.2496 339.474175 
L 152.14464 339.474175 
L 154.03968 337.843098 
L 172.99008 337.843098 
L 174.88512 336.212021 
L 176.78016 332.949867 
L 180.57024 332.949867 
L 186.25536 328.056637 
L 193.83552 328.056637 
L 195.73056 325.863119 
L 197.6256 325.863119 
L 199.52064 324.232042 
L 205.20576 324.232042 
L 207.1008 322.600966 
L 208.99584 322.600966 
L 210.89088 320.969889 
L 214.68096 320.969889 
L 216.576 319.338812 
L 227.94624 319.338812 
L 229.84128 317.707735 
L 237.42144 317.707735 
L 239.31648 315.514218 
L 243.10656 315.514218 
L 245.0016 313.883141 
L 246.89664 313.883141 
L 248.79168 312.252064 
L 250.68672 308.427469 
L 254.4768 305.165316 
L 260.16192 305.165316 
L 262.05696 303.534239 
L 263.952 303.534239 
L 265.84704 300.272085 
L 267.74208 298.641008 
L 275.32224 298.641008 
L 282.9024 292.1167 
L 288.58752 292.1167 
L 290.48256 289.923183 
L 292.3776 288.292106 
L 296.16768 288.292106 
L 298.06272 286.098589 
L 299.95776 286.098589 
L 301.8528 283.905072 
L 305.64288 283.905072 
L 307.53792 282.273995 
L 309.43296 282.273995 
L 313.22304 279.011841 
L 315.11808 276.818324 
L 317.01312 276.818324 
L 318.90816 272.993729 
L 322.69824 272.993729 
L 324.59328 270.800212 
L 326.48832 270.800212 
L 328.38336 269.169135 
L 334.06848 269.169135 
L 337.85856 265.906981 
L 339.7536 265.906981 
L 341.64864 264.275905 
L 345.43872 264.275905 
L 347.33376 262.082387 
L 351.12384 262.082387 
L 353.01888 258.820233 
L 354.91392 258.820233 
L 360.59904 253.927003 
L 366.28416 253.927003 
L 368.1792 252.295926 
L 370.07424 252.295926 
L 371.96928 250.664849 
L 387.1296 250.664849 
L 389.02464 248.471332 
L 394.70976 248.471332 
L 396.6048 246.840255 
L 398.49984 246.840255 
L 400.39488 244.646737 
L 402.28992 244.646737 
L 404.18496 243.01566 
L 406.08 240.822143 
L 407.97504 240.822143 
L 409.87008 239.191066 
L 411.76512 239.191066 
L 413.66016 236.997549 
L 415.5552 236.997549 
L 417.45024 234.804032 
L 419.34528 234.804032 
L 421.24032 232.610515 
L 423.13536 230.979438 
L 425.0304 230.979438 
L 426.92544 229.348361 
L 434.5056 229.348361 
L 436.40064 226.086207 
L 443.9808 226.086207 
L 445.87584 222.824053 
L 447.77088 220.630536 
L 451.56096 217.368382 
L 453.456 217.368382 
L 455.35104 215.174865 
L 457.24608 215.174865 
L 461.03616 211.912711 
L 462.9312 211.912711 
L 464.82624 210.281634 
L 474.30144 210.281634 
L 476.19648 208.088117 
L 478.09152 208.088117 
L 479.98656 206.45704 
L 485.67168 206.45704 
L 487.56672 204.825963 
L 489.46176 204.825963 
L 491.3568 203.194886 
L 495.14688 203.194886 
L 497.04192 201.563809 
L 500.832 201.563809 
L 502.72704 199.932732 
L 504.62208 197.739215 
L 512.20224 197.739215 
L 514.09728 194.477061 
L 527.36256 194.477061 
L 529.2576 192.845984 
L 538.7328 192.845984 
L 540.62784 190.652467 
L 544.41792 190.652467 
L 546.31296 186.827873 
L 548.208 185.196796 
L 551.99808 185.196796 
L 553.89312 183.565719 
L 555.78816 181.372202 
L 559.57824 181.372202 
L 561.47328 179.741125 
L 576.6336 179.741125 
L 578.52864 178.110048 
L 582.31872 178.110048 
L 584.21376 175.916531 
L 586.1088 175.916531 
L 588.00384 174.285454 
L 612.63936 174.285454 
L 614.5344 172.091936 
L 631.58976 172.091936 
L 633.4848 170.460859 
L 635.37984 170.460859 
L 637.27488 168.267342 
L 642.96 168.267342 
L 642.96 168.267342 
" clip-path="url(#pb178ff07e6)" style="fill: none; stroke-dasharray: 1.35,2.2275; stroke-dashoffset: 0; stroke: #7d8a92; stroke-width: 1.35"/>
   </g>
   <g id="line2d_31">
    <path d="M 74.448 348.192 
L 174.88512 348.192 
L 176.78016 345.998483 
L 184.36032 345.998483 
L 186.25536 344.367406 
L 190.04544 344.367406 
L 191.94048 342.736329 
L 203.31072 342.736329 
L 205.20576 341.105252 
L 235.5264 341.105252 
L 237.42144 338.911735 
L 239.31648 338.911735 
L 241.21152 337.280658 
L 246.89664 337.280658 
L 248.79168 335.649581 
L 305.64288 335.649581 
L 307.53792 331.824987 
L 309.43296 331.824987 
L 311.328 330.19391 
L 332.17344 330.19391 
L 334.06848 328.562833 
L 349.2288 328.562833 
L 351.12384 326.931756 
L 353.01888 323.107162 
L 354.91392 323.107162 
L 356.80896 321.476085 
L 358.704 321.476085 
L 360.59904 319.845008 
L 366.28416 319.845008 
L 371.96928 314.951777 
L 375.75936 314.951777 
L 377.6544 313.3207 
L 406.08 313.3207 
L 409.87008 310.058546 
L 411.76512 310.058546 
L 413.66016 306.796393 
L 419.34528 306.796393 
L 421.24032 304.602875 
L 430.71552 304.602875 
L 432.61056 302.971798 
L 459.14112 302.971798 
L 461.03616 299.709645 
L 464.82624 299.709645 
L 466.72128 298.078568 
L 474.30144 298.078568 
L 476.19648 296.447491 
L 481.8816 296.447491 
L 485.67168 293.185337 
L 495.14688 293.185337 
L 497.04192 290.99182 
L 500.832 290.99182 
L 506.51712 286.098589 
L 510.3072 286.098589 
L 512.20224 284.467512 
L 514.09728 284.467512 
L 515.99232 282.273995 
L 519.7824 282.273995 
L 521.67744 280.642918 
L 529.2576 280.642918 
L 531.15264 279.011841 
L 538.7328 279.011841 
L 540.62784 275.187247 
L 542.52288 275.187247 
L 546.31296 267.538058 
L 548.208 267.538058 
L 550.10304 265.344541 
L 557.6832 265.344541 
L 559.57824 263.713464 
L 561.47328 260.45131 
L 567.1584 260.45131 
L 569.05344 253.364562 
L 574.73856 253.364562 
L 576.6336 251.733485 
L 578.52864 249.539968 
L 580.42368 247.908891 
L 589.89888 247.908891 
L 591.79392 246.277814 
L 593.68896 246.277814 
L 595.584 244.646737 
L 597.47904 242.45322 
L 603.16416 242.45322 
L 605.0592 240.822143 
L 608.84928 240.822143 
L 610.74432 238.628626 
L 616.42944 238.628626 
L 618.32448 236.997549 
L 620.21952 236.997549 
L 622.11456 235.366472 
L 624.0096 229.910801 
L 627.79968 229.910801 
L 629.69472 227.717284 
L 637.27488 227.717284 
L 639.16992 225.523767 
L 642.96 225.523767 
L 642.96 225.523767 
" clip-path="url(#pb178ff07e6)" style="fill: none; stroke-dasharray: 8.64,2.16,1.35,2.16; stroke-dashoffset: 0; stroke: #d0526a; stroke-width: 1.35"/>
   </g>
   <g id="line2d_32">
    <path d="M 74.448 348.192 
L 102.8736 348.192 
L 104.76864 345.998483 
L 135.08928 345.998483 
L 136.98432 343.804966 
L 140.7744 343.804966 
L 142.66944 341.611448 
L 148.35456 341.611448 
L 150.2496 339.417931 
L 163.51488 339.417931 
L 165.40992 337.224414 
L 167.30496 332.837379 
L 182.46528 332.837379 
L 184.36032 330.643862 
L 188.1504 330.643862 
L 190.04544 328.450345 
L 199.52064 328.450345 
L 201.41568 326.256828 
L 205.20576 326.256828 
L 207.1008 324.06331 
L 208.99584 324.06331 
L 212.78592 319.676276 
L 218.47104 319.676276 
L 222.26112 315.289241 
L 224.15616 315.289241 
L 226.0512 313.095724 
L 246.89664 313.095724 
L 248.79168 310.902207 
L 256.37184 310.902207 
L 258.26688 308.70869 
L 269.63712 308.70869 
L 271.53216 306.515172 
L 282.9024 306.515172 
L 284.79744 304.884095 
L 294.27264 304.884095 
L 296.16768 302.690578 
L 303.74784 302.690578 
L 305.64288 300.497061 
L 307.53792 298.865984 
L 313.22304 298.865984 
L 315.11808 295.04139 
L 322.69824 295.04139 
L 324.59328 292.847873 
L 326.48832 292.847873 
L 328.38336 289.023279 
L 345.43872 289.023279 
L 349.2288 284.636244 
L 356.80896 284.636244 
L 358.704 276.987056 
L 360.59904 275.355979 
L 364.38912 275.355979 
L 366.28416 273.724902 
L 370.07424 269.337867 
L 371.96928 269.337867 
L 373.86432 266.075714 
L 375.75936 266.075714 
L 379.54944 261.688679 
L 383.33952 261.688679 
L 385.23456 260.057602 
L 387.1296 260.057602 
L 389.02464 257.864085 
L 402.28992 257.864085 
L 404.18496 254.039491 
L 407.97504 254.039491 
L 409.87008 252.408414 
L 415.5552 252.408414 
L 419.34528 248.021379 
L 423.13536 248.021379 
L 426.92544 244.759225 
L 434.5056 244.759225 
L 436.40064 243.128149 
L 449.66592 243.128149 
L 451.56096 239.303554 
L 453.456 239.303554 
L 455.35104 237.110037 
L 457.24608 235.47896 
L 464.82624 235.47896 
L 468.61632 232.216806 
L 470.51136 230.023289 
L 472.4064 228.392212 
L 474.30144 224.567618 
L 476.19648 224.567618 
L 478.09152 220.743024 
L 479.98656 212.531395 
L 481.8816 210.337878 
L 485.67168 210.337878 
L 487.56672 208.144361 
L 489.46176 204.882207 
L 493.25184 204.882207 
L 495.14688 203.25113 
L 497.04192 203.25113 
L 498.93696 201.057613 
L 500.832 199.426536 
L 502.72704 199.426536 
L 504.62208 197.233019 
L 508.41216 197.233019 
L 512.20224 192.845984 
L 514.09728 191.214907 
L 519.7824 191.214907 
L 523.57248 187.952753 
L 529.2576 187.952753 
L 534.94272 183.059523 
L 536.83776 179.797369 
L 538.7328 177.603851 
L 540.62784 175.972775 
L 546.31296 175.972775 
L 550.10304 172.710621 
L 555.78816 172.710621 
L 559.57824 169.448467 
L 565.26336 169.448467 
L 567.1584 166.186313 
L 569.05344 164.555236 
L 570.94848 161.293082 
L 574.73856 161.293082 
L 576.6336 159.099565 
L 589.89888 159.099565 
L 593.68896 155.837411 
L 595.584 155.837411 
L 597.47904 152.012817 
L 599.37408 150.38174 
L 606.95424 150.38174 
L 610.74432 147.119586 
L 614.5344 147.119586 
L 618.32448 143.857432 
L 633.4848 143.857432 
L 635.37984 142.226355 
L 637.27488 138.964202 
L 641.06496 138.964202 
L 642.96 137.333125 
L 642.96 137.333125 
" clip-path="url(#pb178ff07e6)" style="fill: none; stroke-dasharray: 6.75,2.7,1.35,2.7; stroke-dashoffset: 0; stroke: #2f8f84; stroke-width: 1.35"/>
   </g>
   <g id="patch_4">
    <path d="M 74.448 348.192 
L 74.448 93.744 
" style="fill: none; stroke: #000000; stroke-width: 0.8; stroke-linejoin: miter; stroke-linecap: square"/>
   </g>
   <g id="patch_5">
    <path d="M 74.448 348.192 
L 642.96 348.192 
" style="fill: none; stroke: #000000; stroke-width: 0.8; stroke-linejoin: miter; stroke-linecap: square"/>
   </g>
  </g>
  <g id="text_16">
   <text style="font: 18px 'DejaVu Sans', 'Bitstream Vera Sans', 'Computer Modern Sans Serif', 'Lucida Grande', 'Verdana', 'Geneva', 'Lucid', 'Arial', 'Helvetica', 'Avant Garde', sans-serif; text-anchor: start" x="74.448" y="38.229188" transform="rotate(-0 74.448 38.229188)">D55 Direct</text>
  </g>
  <g id="text_17">
   <text style="fill: #66747c; font: 10px 'DejaVu Sans', 'Bitstream Vera Sans', 'Computer Modern Sans Serif', 'Lucida Grande', 'Verdana', 'Geneva', 'Lucid', 'Arial', 'Helvetica', 'Avant Garde', sans-serif; text-anchor: start" x="74.448" y="64.728" transform="rotate(-0 74.448 64.728)">WLED LCD</text>
  </g>
  <g id="legend_1">
   <g id="line2d_33">
    <path d="M 185.17875 404.151391 
L 194.27875 404.151391 
L 203.37875 404.151391 
" style="fill: none; stroke: #252525; stroke-width: 2.5; stroke-linecap: square"/>
   </g>
   <g id="text_18">
    <text style="font: 9.1px 'DejaVu Sans', 'Bitstream Vera Sans', 'Computer Modern Sans Serif', 'Lucida Grande', 'Verdana', 'Geneva', 'Lucid', 'Arial', 'Helvetica', 'Avant Garde', sans-serif; text-anchor: start" x="210.65875" y="407.336391" transform="rotate(-0 210.65875 407.336391)">Potera CMF</text>
   </g>
   <g id="line2d_34">
    <path d="M 185.17875 417.508484 
L 194.27875 417.508484 
L 203.37875 417.508484 
" style="fill: none; stroke: #3b83b4; stroke-width: 1.35; stroke-linecap: square"/>
   </g>
   <g id="text_19">
    <text style="font: 9.1px 'DejaVu Sans', 'Bitstream Vera Sans', 'Computer Modern Sans Serif', 'Lucida Grande', 'Verdana', 'Geneva', 'Lucid', 'Arial', 'Helvetica', 'Avant Garde', sans-serif; text-anchor: start" x="210.65875" y="420.693484" transform="rotate(-0 210.65875 420.693484)">CIE 2015 2°</text>
   </g>
   <g id="line2d_35">
    <path d="M 282.931234 404.151391 
L 292.031234 404.151391 
L 301.131234 404.151391 
" style="fill: none; stroke-dasharray: 4.995,2.16; stroke-dashoffset: 0; stroke: #c38a19; stroke-width: 1.35"/>
   </g>
   <g id="text_20">
    <text style="font: 9.1px 'DejaVu Sans', 'Bitstream Vera Sans', 'Computer Modern Sans Serif', 'Lucida Grande', 'Verdana', 'Geneva', 'Lucid', 'Arial', 'Helvetica', 'Avant Garde', sans-serif; text-anchor: start" x="308.411234" y="407.336391" transform="rotate(-0 308.411234 407.336391)">CIE 2015 10°</text>
   </g>
   <g id="line2d_36">
    <path d="M 282.931234 417.508484 
L 292.031234 417.508484 
L 301.131234 417.508484 
" style="fill: none; stroke-dasharray: 1.35,2.2275; stroke-dashoffset: 0; stroke: #7d8a92; stroke-width: 1.35"/>
   </g>
   <g id="text_21">
    <text style="font: 9.1px 'DejaVu Sans', 'Bitstream Vera Sans', 'Computer Modern Sans Serif', 'Lucida Grande', 'Verdana', 'Geneva', 'Lucid', 'Arial', 'Helvetica', 'Avant Garde', sans-serif; text-anchor: start" x="308.411234" y="420.693484" transform="rotate(-0 308.411234 420.693484)">CIE 1964 10°</text>
   </g>
   <g id="line2d_37">
    <path d="M 386.473594 404.151391 
L 395.573594 404.151391 
L 404.673594 404.151391 
" style="fill: none; stroke-dasharray: 8.64,2.16,1.35,2.16; stroke-dashoffset: 0; stroke: #d0526a; stroke-width: 1.35"/>
   </g>
   <g id="text_22">
    <text style="font: 9.1px 'DejaVu Sans', 'Bitstream Vera Sans', 'Computer Modern Sans Serif', 'Lucida Grande', 'Verdana', 'Geneva', 'Lucid', 'Arial', 'Helvetica', 'Avant Garde', sans-serif; text-anchor: start" x="411.953594" y="407.336391" transform="rotate(-0 411.953594 407.336391)">CIE 1931 2°</text>
   </g>
   <g id="line2d_38">
    <path d="M 386.473594 417.508484 
L 395.573594 417.508484 
L 404.673594 417.508484 
" style="fill: none; stroke-dasharray: 6.75,2.7,1.35,2.7; stroke-dashoffset: 0; stroke: #2f8f84; stroke-width: 1.35"/>
   </g>
   <g id="text_23">
    <text style="font: 9.1px 'DejaVu Sans', 'Bitstream Vera Sans', 'Computer Modern Sans Serif', 'Lucida Grande', 'Verdana', 'Geneva', 'Lucid', 'Arial', 'Helvetica', 'Avant Garde', sans-serif; text-anchor: start" x="411.953594" y="420.693484" transform="rotate(-0 411.953594 420.693484)">Judd–Vos 1978 2°</text>
   </g>
  </g>
 </g>
 <defs>
  <clipPath id="pb178ff07e6">
   <rect x="74.448" y="93.744" width="568.512" height="254.448"/>
  </clipPath>
 </defs>
</svg>
