<?xml version="1.0" encoding="utf-8" standalone="no"?>
<!DOCTYPE svg PUBLIC "-//W3C//DTD SVG 1.1//EN"
  "http://www.w3.org/Graphics/SVG/1.1/DTD/svg11.dtd">
<svg xmlns:xlink="http://www.w3.org/1999/xlink" width="676.8pt" height="446.4pt" viewBox="0 0 676.8 446.4" xmlns="http://www.w3.org/2000/svg" version="1.1">
 <metadata>
  <rdf:RDF xmlns:dc="http://purl.org/dc/elements/1.1/" xmlns:cc="http://creativecommons.org/ns#" xmlns:rdf="http://www.w3.org/1999/02/22-rdf-syntax-ns#">
   <cc:Work>
    <dc:type rdf:resource="http://purl.org/dc/dcmitype/StillImage"/>
    <dc:date>2026-07-20T06:41:55.469586</dc:date>
    <dc:format>image/svg+xml</dc:format>
    <dc:creator>
     <cc:Agent>
      <dc:title>Matplotlib v3.9.4, https://matplotlib.org/</dc:title>
     </cc:Agent>
    </dc:creator>
   </cc:Work>
  </rdf:RDF>
 </metadata>
 <defs>
  <style type="text/css">*{stroke-linejoin: round; stroke-linecap: butt}</style>
 </defs>
 <g id="figure_1">
  <g id="patch_1">
   <path d="M 0 446.4 
L 676.8 446.4 
L 676.8 0 
L 0 0 
z
" style="fill: #ffffff"/>
  </g>
  <g id="axes_1">
   <g id="patch_2">
    <path d="M 74.448 348.192 
L 642.96 348.192 
L 642.96 93.744 
L 74.448 93.744 
z
" style="fill: #ffffff"/>
   </g>
   <g id="patch_3">
    <path d="M 169.2 348.192 
L 358.704 348.192 
L 358.704 93.744 
L 169.2 93.744 
z
" clip-path="url(#pa4c2656bde)" style="fill: #e7f0ea; opacity: 0.58; stroke: #e7f0ea; stroke-linejoin: miter"/>
   </g>
   <g id="matplotlib.axis_1">
    <g id="xtick_1">
     <g id="line2d_1">
      <path d="M 74.448 348.192 
L 74.448 93.744 
" clip-path="url(#pa4c2656bde)" style="fill: none; stroke: #dfe5e8; stroke-width: 0.65; stroke-linecap: square"/>
     </g>
     <g id="line2d_2">
      <defs>
       <path id="m8bab8b5f7e" d="M 0 0 
L 0 3.5 
" style="stroke: #000000; stroke-width: 0.8"/>
      </defs>
      <g>
       <use xlink:href="#m8bab8b5f7e" x="74.448" y="348.192" style="stroke: #000000; stroke-width: 0.8"/>
      </g>
     </g>
     <g id="text_1">
      <text style="font: 10px 'DejaVu Sans', 'Bitstream Vera Sans', 'Computer Modern Sans Serif', 'Lucida Grande', 'Verdana', 'Geneva', 'Lucid', 'Arial', 'Helvetica', 'Avant Garde', sans-serif; text-anchor: middle" x="74.448" y="362.790438" transform="rotate(-0 74.448 362.790438)">0</text>
     </g>
    </g>
    <g id="xtick_2">
     <g id="line2d_3">
      <path d="M 169.2 348.192 
L 169.2 93.744 
" clip-path="url(#pa4c2656bde)" style="fill: none; stroke: #dfe5e8; stroke-width: 0.65; stroke-linecap: square"/>
     </g>
     <g id="line2d_4">
      <g>
       <use xlink:href="#m8bab8b5f7e" x="169.2" y="348.192" style="stroke: #000000; stroke-width: 0.8"/>
      </g>
     </g>
     <g id="text_2">
      <text style="font: 10px 'DejaVu Sans', 'Bitstream Vera Sans', 'Computer Modern Sans Serif', 'Lucida Grande', 'Verdana', 'Geneva', 'Lucid', 'Arial', 'Helvetica', 'Avant Garde', sans-serif; text-anchor: middle" x="169.2" y="362.790438" transform="rotate(-0 169.2 362.790438)">1</text>
     </g>
    </g>
    <g id="xtick_3">
     <g id="line2d_5">
      <path d="M 263.952 348.192 
L 263.952 93.744 
" clip-path="url(#pa4c2656bde)" style="fill: none; stroke: #dfe5e8; stroke-width: 0.65; stroke-linecap: square"/>
     </g>
     <g id="line2d_6">
      <g>
       <use xlink:href="#m8bab8b5f7e" x="263.952" y="348.192" style="stroke: #000000; stroke-width: 0.8"/>
      </g>
     </g>
     <g id="text_3">
      <text style="font: 10px 'DejaVu Sans', 'Bitstream Vera Sans', 'Computer Modern Sans Serif', 'Lucida Grande', 'Verdana', 'Geneva', 'Lucid', 'Arial', 'Helvetica', 'Avant Garde', sans-serif; text-anchor: middle" x="263.952" y="362.790438" transform="rotate(-0 263.952 362.790438)">2</text>
     </g>
    </g>
    <g id="xtick_4">
     <g id="line2d_7">
      <path d="M 358.704 348.192 
L 358.704 93.744 
" clip-path="url(#pa4c2656bde)" style="fill: none; stroke: #dfe5e8; stroke-width: 0.65; stroke-linecap: square"/>
     </g>
     <g id="line2d_8">
      <g>
       <use xlink:href="#m8bab8b5f7e" x="358.704" y="348.192" style="stroke: #000000; stroke-width: 0.8"/>
      </g>
     </g>
     <g id="text_4">
      <text style="font: 10px 'DejaVu Sans', 'Bitstream Vera Sans', 'Computer Modern Sans Serif', 'Lucida Grande', 'Verdana', 'Geneva', 'Lucid', 'Arial', 'Helvetica', 'Avant Garde', sans-serif; text-anchor: middle" x="358.704" y="362.790438" transform="rotate(-0 358.704 362.790438)">3</text>
     </g>
    </g>
    <g id="xtick_5">
     <g id="line2d_9">
      <path d="M 453.456 348.192 
L 453.456 93.744 
" clip-path="url(#pa4c2656bde)" style="fill: none; stroke: #dfe5e8; stroke-width: 0.65; stroke-linecap: square"/>
     </g>
     <g id="line2d_10">
      <g>
       <use xlink:href="#m8bab8b5f7e" x="453.456" y="348.192" style="stroke: #000000; stroke-width: 0.8"/>
      </g>
     </g>
     <g id="text_5">
      <text style="font: 10px 'DejaVu Sans', 'Bitstream Vera Sans', 'Computer Modern Sans Serif', 'Lucida Grande', 'Verdana', 'Geneva', 'Lucid', 'Arial', 'Helvetica', 'Avant Garde', sans-serif; text-anchor: middle" x="453.456" y="362.790438" transform="rotate(-0 453.456 362.790438)">4</text>
     </g>
    </g>
    <g id="xtick_6">
     <g id="line2d_11">
      <path d="M 548.208 348.192 
L 548.208 93.744 
" clip-path="url(#pa4c2656bde)" style="fill: none; stroke: #dfe5e8; stroke-width: 0.65; stroke-linecap: square"/>
     </g>
     <g id="line2d_12">
      <g>
       <use xlink:href="#m8bab8b5f7e" x="548.208" y="348.192" style="stroke: #000000; stroke-width: 0.8"/>
      </g>
     </g>
     <g id="text_6">
      <text style="font: 10px 'DejaVu Sans', 'Bitstream Vera Sans', 'Computer Modern Sans Serif', 'Lucida Grande', 'Verdana', 'Geneva', 'Lucid', 'Arial', 'Helvetica', 'Avant Garde', sans-serif; text-anchor: middle" x="548.208" y="362.790438" transform="rotate(-0 548.208 362.790438)">5</text>
     </g>
    </g>
    <g id="xtick_7">
     <g id="line2d_13">
      <path d="M 642.96 348.192 
L 642.96 93.744 
" clip-path="url(#pa4c2656bde)" style="fill: none; stroke: #dfe5e8; stroke-width: 0.65; stroke-linecap: square"/>
     </g>
     <g id="line2d_14">
      <g>
       <use xlink:href="#m8bab8b5f7e" x="642.96" y="348.192" style="stroke: #000000; stroke-width: 0.8"/>
      </g>
     </g>
     <g id="text_7">
      <text style="font: 10px 'DejaVu Sans', 'Bitstream Vera Sans', 'Computer Modern Sans Serif', 'Lucida Grande', 'Verdana', 'Geneva', 'Lucid', 'Arial', 'Helvetica', 'Avant Garde', sans-serif; text-anchor: middle" x="642.96" y="362.790438" transform="rotate(-0 642.96 362.790438)">6</text>
     </g>
    </g>
    <g id="text_8">
     <text style="font: 10px 'DejaVu Sans', 'Bitstream Vera Sans', 'Computer Modern Sans Serif', 'Lucida Grande', 'Verdana', 'Geneva', 'Lucid', 'Arial', 'Helvetica', 'Avant Garde', sans-serif; text-anchor: middle" x="358.704" y="376.468563" transform="rotate(-0 358.704 376.468563)">sUCS dE threshold</text>
    </g>
   </g>
   <g id="matplotlib.axis_2">
    <g id="ytick_1">
     <g id="line2d_15">
      <path d="M 74.448 348.192 
L 642.96 348.192 
" clip-path="url(#pa4c2656bde)" style="fill: none; stroke: #dfe5e8; stroke-width: 0.65; stroke-linecap: square"/>
     </g>
     <g id="line2d_16">
      <defs>
       <path id="m56b78029b1" d="M 0 0 
L -3.5 0 
" style="stroke: #000000; stroke-width: 0.8"/>
      </defs>
      <g>
       <use xlink:href="#m56b78029b1" x="74.448" y="348.192" style="stroke: #000000; stroke-width: 0.8"/>
      </g>
     </g>
     <g id="text_9">
      <text style="font: 10px 'DejaVu Sans', 'Bitstream Vera Sans', 'Computer Modern Sans Serif', 'Lucida Grande', 'Verdana', 'Geneva', 'Lucid', 'Arial', 'Helvetica', 'Avant Garde', sans-serif; text-anchor: end" x="67.448" y="351.991219" transform="rotate(-0 67.448 351.991219)">0</text>
     </g>
    </g>
    <g id="ytick_2">
     <g id="line2d_17">
      <path d="M 74.448 297.3024 
L 642.96 297.3024 
" clip-path="url(#pa4c2656bde)" style="fill: none; stroke: #dfe5e8; stroke-width: 0.65; stroke-linecap: square"/>
     </g>
     <g id="line2d_18">
      <g>
       <use xlink:href="#m56b78029b1" x="74.448" y="297.3024" style="stroke: #000000; stroke-width: 0.8"/>
      </g>
     </g>
     <g id="text_10">
      <text style="font: 10px 'DejaVu Sans', 'Bitstream Vera Sans', 'Computer Modern Sans Serif', 'Lucida Grande', 'Verdana', 'Geneva', 'Lucid', 'Arial', 'Helvetica', 'Avant Garde', sans-serif; text-anchor: end" x="67.448" y="301.101619" transform="rotate(-0 67.448 301.101619)">20</text>
     </g>
    </g>
    <g id="ytick_3">
     <g id="line2d_19">
      <path d="M 74.448 246.4128 
L 642.96 246.4128 
" clip-path="url(#pa4c2656bde)" style="fill: none; stroke: #dfe5e8; stroke-width: 0.65; stroke-linecap: square"/>
     </g>
     <g id="line2d_20">
      <g>
       <use xlink:href="#m56b78029b1" x="74.448" y="246.4128" style="stroke: #000000; stroke-width: 0.8"/>
      </g>
     </g>
     <g id="text_11">
      <text style="font: 10px 'DejaVu Sans', 'Bitstream Vera Sans', 'Computer Modern Sans Serif', 'Lucida Grande', 'Verdana', 'Geneva', 'Lucid', 'Arial', 'Helvetica', 'Avant Garde', sans-serif; text-anchor: end" x="67.448" y="250.212019" transform="rotate(-0 67.448 250.212019)">40</text>
     </g>
    </g>
    <g id="ytick_4">
     <g id="line2d_21">
      <path d="M 74.448 195.5232 
L 642.96 195.5232 
" clip-path="url(#pa4c2656bde)" style="fill: none; stroke: #dfe5e8; stroke-width: 0.65; stroke-linecap: square"/>
     </g>
     <g id="line2d_22">
      <g>
       <use xlink:href="#m56b78029b1" x="74.448" y="195.5232" style="stroke: #000000; stroke-width: 0.8"/>
      </g>
     </g>
     <g id="text_12">
      <text style="font: 10px 'DejaVu Sans', 'Bitstream Vera Sans', 'Computer Modern Sans Serif', 'Lucida Grande', 'Verdana', 'Geneva', 'Lucid', 'Arial', 'Helvetica', 'Avant Garde', sans-serif; text-anchor: end" x="67.448" y="199.322419" transform="rotate(-0 67.448 199.322419)">60</text>
     </g>
    </g>
    <g id="ytick_5">
     <g id="line2d_23">
      <path d="M 74.448 144.6336 
L 642.96 144.6336 
" clip-path="url(#pa4c2656bde)" style="fill: none; stroke: #dfe5e8; stroke-width: 0.65; stroke-linecap: square"/>
     </g>
     <g id="line2d_24">
      <g>
       <use xlink:href="#m56b78029b1" x="74.448" y="144.6336" style="stroke: #000000; stroke-width: 0.8"/>
      </g>
     </g>
     <g id="text_13">
      <text style="font: 10px 'DejaVu Sans', 'Bitstream Vera Sans', 'Computer Modern Sans Serif', 'Lucida Grande', 'Verdana', 'Geneva', 'Lucid', 'Arial', 'Helvetica', 'Avant Garde', sans-serif; text-anchor: end" x="67.448" y="148.432819" transform="rotate(-0 67.448 148.432819)">80</text>
     </g>
    </g>
    <g id="ytick_6">
     <g id="line2d_25">
      <path d="M 74.448 93.744 
L 642.96 93.744 
" clip-path="url(#pa4c2656bde)" style="fill: none; stroke: #dfe5e8; stroke-width: 0.65; stroke-linecap: square"/>
     </g>
     <g id="line2d_26">
      <g>
       <use xlink:href="#m56b78029b1" x="74.448" y="93.744" style="stroke: #000000; stroke-width: 0.8"/>
      </g>
     </g>
     <g id="text_14">
      <text style="font: 10px 'DejaVu Sans', 'Bitstream Vera Sans', 'Computer Modern Sans Serif', 'Lucida Grande', 'Verdana', 'Geneva', 'Lucid', 'Arial', 'Helvetica', 'Avant Garde', sans-serif; text-anchor: end" x="67.448" y="97.543219" transform="rotate(-0 67.448 97.543219)">100</text>
     </g>
    </g>
    <g id="text_15">
     <text style="font: 10px 'DejaVu Sans', 'Bitstream Vera Sans', 'Computer Modern Sans Serif', 'Lucida Grande', 'Verdana', 'Geneva', 'Lucid', 'Arial', 'Helvetica', 'Avant Garde', sans-serif; text-anchor: middle" x="42.280812" y="220.968" transform="rotate(-90 42.280812 220.968)">observers%</text>
    </g>
   </g>
   <g id="line2d_27">
    <path d="M 74.448 348.192 
L 116.13888 348.192 
L 118.03392 345.998483 
L 123.71904 345.998483 
L 125.61408 342.736329 
L 136.98432 342.736329 
L 140.7744 338.349294 
L 142.66944 338.349294 
L 144.56448 336.718218 
L 148.35456 330.19391 
L 150.2496 328.562833 
L 155.93472 328.562833 
L 157.82976 324.738239 
L 159.7248 323.107162 
L 163.51488 323.107162 
L 165.40992 321.476085 
L 167.30496 314.951777 
L 171.09504 308.427469 
L 176.78016 308.427469 
L 178.6752 306.233952 
L 184.36032 306.233952 
L 186.25536 304.602875 
L 188.1504 299.147204 
L 190.04544 295.88505 
L 191.94048 295.88505 
L 193.83552 294.253973 
L 195.73056 292.060456 
L 197.6256 288.235862 
L 199.52064 288.235862 
L 203.31072 284.973708 
L 207.1008 284.973708 
L 208.99584 281.711554 
L 210.89088 281.711554 
L 212.78592 280.080477 
L 214.68096 280.080477 
L 216.576 276.818324 
L 218.47104 275.187247 
L 220.36608 271.925093 
L 222.26112 270.294016 
L 224.15616 270.294016 
L 226.0512 268.100499 
L 231.73632 268.100499 
L 233.63136 261.576191 
L 237.42144 261.576191 
L 239.31648 259.945114 
L 241.21152 256.68296 
L 254.4768 256.68296 
L 256.37184 254.489443 
L 260.16192 254.489443 
L 262.05696 252.858366 
L 263.952 249.596212 
L 269.63712 249.596212 
L 271.53216 245.209178 
L 273.4272 241.384584 
L 275.32224 239.753507 
L 277.21728 239.753507 
L 279.11232 238.12243 
L 281.00736 238.12243 
L 282.9024 236.491353 
L 284.79744 233.229199 
L 286.69248 229.404605 
L 292.3776 229.404605 
L 294.27264 227.773528 
L 296.16768 223.948934 
L 298.06272 222.317857 
L 309.43296 222.317857 
L 313.22304 219.055703 
L 315.11808 216.862186 
L 318.90816 216.862186 
L 320.8032 215.231109 
L 324.59328 215.231109 
L 326.48832 213.600032 
L 332.17344 213.600032 
L 334.06848 211.968955 
L 335.96352 211.968955 
L 337.85856 208.706801 
L 339.7536 208.706801 
L 341.64864 206.513284 
L 343.54368 206.513284 
L 345.43872 204.882207 
L 349.2288 200.495172 
L 366.28416 200.495172 
L 370.07424 197.233019 
L 383.33952 197.233019 
L 385.23456 195.601942 
L 387.1296 195.601942 
L 389.02464 191.777347 
L 394.70976 191.777347 
L 396.6048 189.58383 
L 398.49984 187.952753 
L 400.39488 187.952753 
L 402.28992 185.759236 
L 413.66016 185.759236 
L 415.5552 184.128159 
L 419.34528 184.128159 
L 421.24032 181.934642 
L 423.13536 181.934642 
L 428.82048 177.041411 
L 442.08576 177.041411 
L 443.9808 174.847894 
L 445.87584 174.847894 
L 447.77088 172.654377 
L 489.46176 172.654377 
L 491.3568 170.460859 
L 502.72704 170.460859 
L 504.62208 167.198706 
L 510.3072 167.198706 
L 512.20224 165.005188 
L 534.94272 165.005188 
L 536.83776 162.811671 
L 546.31296 162.811671 
L 548.208 160.618154 
L 563.36832 160.618154 
L 565.26336 158.424637 
L 569.05344 158.424637 
L 570.94848 156.231119 
L 584.21376 156.231119 
L 586.1088 154.037602 
L 599.37408 154.037602 
L 601.26912 151.844085 
L 631.58976 151.844085 
L 633.4848 149.650568 
L 637.27488 149.650568 
L 639.16992 147.45705 
L 641.06496 145.825973 
L 642.96 145.825973 
L 642.96 145.825973 
" clip-path="url(#pa4c2656bde)" style="fill: none; stroke: #252525; stroke-width: 2.5; stroke-linecap: square"/>
   </g>
   <g id="line2d_28">
    <path d="M 74.448 348.192 
L 87.71328 348.192 
L 89.60832 345.998483 
L 125.61408 345.998483 
L 127.50912 344.367406 
L 135.08928 344.367406 
L 136.98432 342.736329 
L 142.66944 342.736329 
L 144.56448 336.718218 
L 154.03968 336.718218 
L 155.93472 335.087141 
L 157.82976 335.087141 
L 159.7248 333.456064 
L 163.51488 333.456064 
L 167.30496 330.19391 
L 171.09504 330.19391 
L 172.99008 328.562833 
L 174.88512 328.562833 
L 176.78016 326.369316 
L 182.46528 326.369316 
L 184.36032 324.738239 
L 186.25536 324.738239 
L 188.1504 323.107162 
L 191.94048 323.107162 
L 193.83552 321.476085 
L 199.52064 321.476085 
L 201.41568 317.651491 
L 208.99584 317.651491 
L 210.89088 313.826897 
L 212.78592 310.564743 
L 214.68096 310.564743 
L 216.576 308.371225 
L 218.47104 308.371225 
L 220.36608 303.984191 
L 222.26112 302.353114 
L 224.15616 302.353114 
L 226.0512 300.159597 
L 227.94624 300.159597 
L 229.84128 298.52852 
L 231.73632 295.266366 
L 233.63136 293.072849 
L 237.42144 293.072849 
L 241.21152 285.42366 
L 243.10656 285.42366 
L 245.0016 283.792584 
L 246.89664 283.792584 
L 248.79168 281.599066 
L 252.58176 281.599066 
L 254.4768 278.336912 
L 256.37184 278.336912 
L 258.26688 276.143395 
L 262.05696 276.143395 
L 263.952 274.512318 
L 265.84704 271.250164 
L 273.4272 271.250164 
L 275.32224 269.619088 
L 277.21728 269.619088 
L 279.11232 267.42557 
L 290.48256 267.42557 
L 292.3776 263.600976 
L 294.27264 263.600976 
L 296.16768 261.407459 
L 298.06272 259.776382 
L 299.95776 259.776382 
L 301.8528 256.514228 
L 303.74784 256.514228 
L 305.64288 254.320711 
L 311.328 254.320711 
L 313.22304 252.689634 
L 315.11808 252.689634 
L 317.01312 251.058557 
L 322.69824 251.058557 
L 324.59328 245.040446 
L 326.48832 241.215851 
L 328.38336 239.022334 
L 332.17344 239.022334 
L 334.06848 237.391257 
L 337.85856 237.391257 
L 339.7536 235.76018 
L 345.43872 235.76018 
L 347.33376 234.129103 
L 349.2288 231.935586 
L 351.12384 231.935586 
L 353.01888 229.742069 
L 354.91392 229.742069 
L 356.80896 227.548552 
L 358.704 227.548552 
L 360.59904 225.917475 
L 362.49408 222.655321 
L 375.75936 222.655321 
L 377.6544 219.393167 
L 379.54944 217.76209 
L 381.44448 217.76209 
L 383.33952 214.499936 
L 385.23456 210.112902 
L 387.1296 208.481825 
L 389.02464 204.657231 
L 392.81472 204.657231 
L 394.70976 203.026154 
L 398.49984 203.026154 
L 400.39488 198.132923 
L 415.5552 198.132923 
L 417.45024 196.501846 
L 419.34528 194.308329 
L 423.13536 194.308329 
L 425.0304 192.677252 
L 428.82048 192.677252 
L 430.71552 190.483735 
L 432.61056 188.852658 
L 434.5056 186.659141 
L 436.40064 185.028064 
L 438.29568 185.028064 
L 440.19072 182.834546 
L 442.08576 182.834546 
L 443.9808 181.203469 
L 445.87584 181.203469 
L 447.77088 179.572393 
L 449.66592 179.572393 
L 451.56096 177.941316 
L 455.35104 177.941316 
L 457.24608 175.747798 
L 466.72128 175.747798 
L 468.61632 171.360764 
L 470.51136 171.360764 
L 472.4064 169.729687 
L 478.09152 169.729687 
L 479.98656 168.09861 
L 481.8816 165.905093 
L 493.25184 165.905093 
L 495.14688 163.711576 
L 498.93696 163.711576 
L 502.72704 160.449422 
L 504.62208 158.255905 
L 512.20224 158.255905 
L 514.09728 154.43131 
L 531.15264 154.43131 
L 533.04768 152.800233 
L 534.94272 150.606716 
L 546.31296 150.606716 
L 548.208 148.413199 
L 550.10304 146.782122 
L 551.99808 146.782122 
L 553.89312 145.151045 
L 555.78816 145.151045 
L 557.6832 143.519968 
L 574.73856 143.519968 
L 576.6336 140.257814 
L 586.1088 140.257814 
L 588.00384 138.064297 
L 597.47904 138.064297 
L 599.37408 136.43322 
L 606.95424 136.43322 
L 608.84928 134.802143 
L 624.0096 134.802143 
L 625.90464 133.171066 
L 639.16992 133.171066 
L 641.06496 130.977549 
L 642.96 130.977549 
L 642.96 130.977549 
" clip-path="url(#pa4c2656bde)" style="fill: none; stroke: #3b83b4; stroke-width: 1.35; stroke-linecap: square"/>
   </g>
   <g id="line2d_29">
    <path d="M 74.448 348.192 
L 100.97856 348.192 
L 102.8736 346.560923 
L 114.24384 346.560923 
L 118.03392 343.298769 
L 119.92896 340.036615 
L 121.824 338.405538 
L 125.61408 338.405538 
L 129.40416 335.143385 
L 140.7744 335.143385 
L 142.66944 332.949867 
L 155.93472 332.949867 
L 157.82976 331.31879 
L 161.61984 331.31879 
L 163.51488 329.687714 
L 165.40992 329.687714 
L 167.30496 324.794483 
L 171.09504 318.270175 
L 174.88512 318.270175 
L 176.78016 314.445581 
L 180.57024 314.445581 
L 182.46528 311.183427 
L 184.36032 309.55235 
L 195.73056 309.55235 
L 197.6256 307.921273 
L 199.52064 307.921273 
L 203.31072 304.659119 
L 207.1008 304.659119 
L 208.99584 300.834525 
L 214.68096 300.834525 
L 216.576 299.203448 
L 227.94624 299.203448 
L 229.84128 297.572371 
L 231.73632 297.572371 
L 233.63136 295.378854 
L 235.5264 295.378854 
L 237.42144 293.747777 
L 239.31648 293.747777 
L 241.21152 292.1167 
L 243.10656 287.223469 
L 248.79168 287.223469 
L 252.58176 282.836435 
L 254.4768 277.943204 
L 258.26688 277.943204 
L 260.16192 276.312127 
L 267.74208 276.312127 
L 269.63712 274.11861 
L 275.32224 274.11861 
L 277.21728 272.487533 
L 282.9024 272.487533 
L 284.79744 270.856456 
L 288.58752 270.856456 
L 292.3776 267.594302 
L 301.8528 267.594302 
L 305.64288 264.332149 
L 309.43296 264.332149 
L 311.328 262.138631 
L 315.11808 262.138631 
L 317.01312 260.507554 
L 318.90816 260.507554 
L 320.8032 257.245401 
L 324.59328 257.245401 
L 326.48832 255.614324 
L 330.2784 255.614324 
L 332.17344 253.983247 
L 335.96352 253.983247 
L 337.85856 249.596212 
L 341.64864 246.334058 
L 347.33376 246.334058 
L 349.2288 244.702981 
L 362.49408 244.702981 
L 364.38912 242.509464 
L 366.28416 242.509464 
L 368.1792 238.68487 
L 370.07424 237.053793 
L 371.96928 237.053793 
L 373.86432 234.860276 
L 375.75936 233.229199 
L 377.6544 231.035682 
L 379.54944 231.035682 
L 381.44448 229.404605 
L 387.1296 229.404605 
L 389.02464 227.773528 
L 396.6048 227.773528 
L 398.49984 223.948934 
L 400.39488 223.948934 
L 402.28992 220.68678 
L 407.97504 220.68678 
L 409.87008 219.055703 
L 411.76512 216.862186 
L 413.66016 216.862186 
L 415.5552 215.231109 
L 419.34528 215.231109 
L 421.24032 213.600032 
L 423.13536 213.600032 
L 425.0304 211.968955 
L 438.29568 211.968955 
L 443.9808 207.075724 
L 451.56096 207.075724 
L 453.456 205.444647 
L 455.35104 205.444647 
L 457.24608 203.81357 
L 459.14112 203.81357 
L 461.03616 199.988976 
L 462.9312 197.795459 
L 464.82624 197.795459 
L 466.72128 196.164382 
L 468.61632 196.164382 
L 470.51136 194.533305 
L 478.09152 194.533305 
L 479.98656 192.339788 
L 481.8816 190.708711 
L 483.77664 190.708711 
L 485.67168 189.077634 
L 491.3568 189.077634 
L 493.25184 187.446557 
L 497.04192 187.446557 
L 498.93696 185.81548 
L 521.67744 185.81548 
L 523.57248 184.184403 
L 527.36256 184.184403 
L 529.2576 181.990886 
L 567.1584 181.990886 
L 569.05344 179.797369 
L 576.6336 179.797369 
L 580.42368 175.410334 
L 582.31872 173.779257 
L 595.584 173.779257 
L 597.47904 169.954663 
L 622.11456 169.954663 
L 624.0096 167.761146 
L 627.79968 167.761146 
L 629.69472 165.567629 
L 642.96 165.567629 
L 642.96 165.567629 
" clip-path="url(#pa4c2656bde)" style="fill: none; stroke-dasharray: 4.995,2.16; stroke-dashoffset: 0; stroke: #c38a19; stroke-width: 1.35"/>
   </g>
   <g id="line2d_30">
    <path d="M 74.448 348.192 
L 104.76864 348.192 
L 106.66368 346.560923 
L 112.3488 346.560923 
L 116.13888 343.298769 
L 123.71904 343.298769 
L 125.61408 341.667692 
L 127.50912 338.405538 
L 129.40416 336.774462 
L 131.2992 333.512308 
L 135.08928 333.512308 
L 136.98432 330.250154 
L 140.7744 330.250154 
L 142.66944 328.619077 
L 150.2496 328.619077 
L 152.14464 326.988 
L 154.03968 323.163406 
L 155.93472 323.163406 
L 157.82976 321.532329 
L 163.51488 321.532329 
L 165.40992 318.270175 
L 167.30496 316.639098 
L 172.99008 316.639098 
L 174.88512 315.008021 
L 176.78016 315.008021 
L 180.57024 310.620987 
L 182.46528 308.98991 
L 186.25536 308.98991 
L 188.1504 307.358833 
L 197.6256 307.358833 
L 199.52064 303.534239 
L 201.41568 301.903162 
L 203.31072 297.516127 
L 205.20576 297.516127 
L 207.1008 295.88505 
L 208.99584 295.88505 
L 212.78592 292.622897 
L 214.68096 292.622897 
L 216.576 290.99182 
L 218.47104 288.798302 
L 220.36608 287.167225 
L 222.26112 287.167225 
L 224.15616 285.536149 
L 227.94624 285.536149 
L 229.84128 283.905072 
L 231.73632 283.905072 
L 235.5264 280.642918 
L 237.42144 280.642918 
L 239.31648 279.011841 
L 245.0016 279.011841 
L 246.89664 277.380764 
L 248.79168 277.380764 
L 250.68672 275.749687 
L 252.58176 275.749687 
L 258.26688 270.856456 
L 260.16192 270.856456 
L 262.05696 267.031862 
L 267.74208 267.031862 
L 269.63712 263.769708 
L 279.11232 263.769708 
L 282.9024 260.507554 
L 284.79744 260.507554 
L 286.69248 258.314037 
L 288.58752 258.314037 
L 290.48256 256.68296 
L 292.3776 256.68296 
L 294.27264 255.051883 
L 299.95776 255.051883 
L 301.8528 253.420806 
L 303.74784 253.420806 
L 307.53792 250.158653 
L 309.43296 250.158653 
L 311.328 247.965135 
L 317.01312 247.965135 
L 318.90816 245.771618 
L 320.8032 245.771618 
L 326.48832 239.191066 
L 330.2784 239.191066 
L 332.17344 235.928912 
L 337.85856 235.928912 
L 339.7536 234.297836 
L 347.33376 234.297836 
L 356.80896 226.142451 
L 358.704 226.142451 
L 360.59904 223.948934 
L 366.28416 223.948934 
L 368.1792 222.317857 
L 370.07424 219.055703 
L 371.96928 219.055703 
L 373.86432 215.793549 
L 392.81472 215.793549 
L 394.70976 214.162472 
L 396.6048 214.162472 
L 398.49984 212.531395 
L 406.08 212.531395 
L 407.97504 210.900318 
L 409.87008 208.706801 
L 411.76512 207.075724 
L 413.66016 204.882207 
L 415.5552 203.25113 
L 419.34528 203.25113 
L 421.24032 201.620053 
L 425.0304 201.620053 
L 426.92544 199.426536 
L 428.82048 199.426536 
L 430.71552 195.601942 
L 432.61056 195.601942 
L 434.5056 193.970865 
L 440.19072 193.970865 
L 443.9808 190.708711 
L 451.56096 190.708711 
L 453.456 189.077634 
L 457.24608 189.077634 
L 459.14112 187.446557 
L 474.30144 187.446557 
L 476.19648 185.25304 
L 478.09152 185.25304 
L 479.98656 183.621963 
L 504.62208 183.621963 
L 506.51712 181.990886 
L 515.99232 181.990886 
L 517.88736 179.797369 
L 525.46752 179.797369 
L 527.36256 177.603851 
L 533.04768 177.603851 
L 534.94272 173.779257 
L 544.41792 173.779257 
L 546.31296 171.58574 
L 557.6832 171.58574 
L 559.57824 169.954663 
L 570.94848 169.954663 
L 572.84352 167.761146 
L 576.6336 167.761146 
L 578.52864 165.567629 
L 625.90464 165.567629 
L 627.79968 163.374111 
L 641.06496 163.374111 
L 642.96 161.180594 
L 642.96 161.180594 
" clip-path="url(#pa4c2656bde)" style="fill: none; stroke-dasharray: 1.35,2.2275; stroke-dashoffset: 0; stroke: #7d8a92; stroke-width: 1.35"/>
   </g>
   <g id="line2d_31">
    <path d="M 74.448 348.192 
L 144.56448 348.192 
L 146.45952 345.998483 
L 169.2 345.998483 
L 171.09504 344.367406 
L 182.46528 344.367406 
L 184.36032 342.173889 
L 188.1504 342.173889 
L 190.04544 340.542812 
L 191.94048 340.542812 
L 193.83552 338.911735 
L 195.73056 335.649581 
L 201.41568 335.649581 
L 203.31072 334.018504 
L 207.1008 334.018504 
L 208.99584 330.19391 
L 210.89088 330.19391 
L 212.78592 326.931756 
L 214.68096 325.300679 
L 216.576 325.300679 
L 218.47104 323.669602 
L 220.36608 320.407448 
L 224.15616 320.407448 
L 227.94624 317.145294 
L 233.63136 317.145294 
L 235.5264 315.514218 
L 239.31648 315.514218 
L 241.21152 313.883141 
L 243.10656 310.620987 
L 245.0016 310.620987 
L 248.79168 300.834525 
L 250.68672 299.203448 
L 271.53216 299.203448 
L 273.4272 297.572371 
L 281.00736 297.572371 
L 282.9024 295.378854 
L 284.79744 293.747777 
L 286.69248 293.747777 
L 290.48256 290.485623 
L 292.3776 290.485623 
L 294.27264 286.661029 
L 296.16768 285.029952 
L 298.06272 281.767798 
L 305.64288 281.767798 
L 307.53792 279.574281 
L 309.43296 276.312127 
L 313.22304 276.312127 
L 315.11808 274.68105 
L 317.01312 270.856456 
L 318.90816 267.594302 
L 332.17344 267.594302 
L 334.06848 264.332149 
L 341.64864 264.332149 
L 343.54368 262.701072 
L 345.43872 262.701072 
L 347.33376 261.069995 
L 353.01888 261.069995 
L 356.80896 257.807841 
L 358.704 257.807841 
L 360.59904 255.614324 
L 364.38912 255.614324 
L 366.28416 253.983247 
L 371.96928 253.983247 
L 373.86432 250.721093 
L 375.75936 249.090016 
L 377.6544 249.090016 
L 379.54944 247.458939 
L 381.44448 247.458939 
L 383.33952 245.827862 
L 385.23456 242.003268 
L 389.02464 242.003268 
L 390.91968 240.372191 
L 398.49984 240.372191 
L 400.39488 238.178674 
L 406.08 238.178674 
L 407.97504 236.547597 
L 409.87008 234.35408 
L 419.34528 234.35408 
L 421.24032 230.529485 
L 423.13536 228.335968 
L 428.82048 228.335968 
L 430.71552 226.142451 
L 432.61056 226.142451 
L 434.5056 224.511374 
L 436.40064 224.511374 
L 438.29568 221.24922 
L 440.19072 219.055703 
L 442.08576 219.055703 
L 443.9808 215.793549 
L 445.87584 215.793549 
L 447.77088 214.162472 
L 451.56096 214.162472 
L 453.456 212.531395 
L 457.24608 212.531395 
L 459.14112 210.337878 
L 462.9312 210.337878 
L 466.72128 207.075724 
L 470.51136 207.075724 
L 472.4064 205.444647 
L 481.8816 205.444647 
L 483.77664 202.182493 
L 495.14688 202.182493 
L 497.04192 200.551416 
L 498.93696 200.551416 
L 500.832 196.726822 
L 504.62208 196.726822 
L 506.51712 192.902228 
L 510.3072 192.902228 
L 512.20224 189.640074 
L 514.09728 189.640074 
L 515.99232 187.446557 
L 519.7824 187.446557 
L 521.67744 185.81548 
L 536.83776 185.81548 
L 538.7328 184.184403 
L 555.78816 184.184403 
L 557.6832 181.990886 
L 599.37408 181.990886 
L 601.26912 179.797369 
L 605.0592 179.797369 
L 606.95424 178.166292 
L 608.84928 178.166292 
L 610.74432 175.972775 
L 612.63936 174.341698 
L 614.5344 172.14818 
L 629.69472 172.14818 
L 631.58976 169.954663 
L 642.96 169.954663 
L 642.96 169.954663 
" clip-path="url(#pa4c2656bde)" style="fill: none; stroke-dasharray: 8.64,2.16,1.35,2.16; stroke-dashoffset: 0; stroke: #d0526a; stroke-width: 1.35"/>
   </g>
   <g id="line2d_32">
    <path d="M 74.448 348.192 
L 102.8736 348.192 
L 104.76864 345.998483 
L 127.50912 345.998483 
L 129.40416 343.804966 
L 135.08928 343.804966 
L 138.87936 339.417931 
L 167.30496 339.417931 
L 169.2 337.224414 
L 171.09504 337.224414 
L 172.99008 335.030897 
L 193.83552 335.030897 
L 195.73056 332.837379 
L 197.6256 332.837379 
L 201.41568 328.450345 
L 210.89088 328.450345 
L 212.78592 326.256828 
L 218.47104 326.256828 
L 220.36608 324.06331 
L 224.15616 324.06331 
L 226.0512 321.869793 
L 231.73632 321.869793 
L 235.5264 317.482759 
L 239.31648 317.482759 
L 241.21152 315.289241 
L 248.79168 315.289241 
L 250.68672 313.095724 
L 258.26688 313.095724 
L 260.16192 310.902207 
L 277.21728 310.902207 
L 281.00736 306.515172 
L 282.9024 306.515172 
L 286.69248 302.128138 
L 299.95776 302.128138 
L 301.8528 299.934621 
L 307.53792 299.934621 
L 309.43296 297.741103 
L 315.11808 297.741103 
L 318.90816 293.354069 
L 320.8032 293.354069 
L 322.69824 291.160552 
L 332.17344 291.160552 
L 334.06848 288.967034 
L 337.85856 288.967034 
L 339.7536 286.773517 
L 354.91392 286.773517 
L 356.80896 285.14244 
L 377.6544 285.14244 
L 379.54944 278.561889 
L 396.6048 278.561889 
L 398.49984 276.368371 
L 402.28992 276.368371 
L 404.18496 274.174854 
L 415.5552 274.174854 
L 417.45024 272.543777 
L 426.92544 272.543777 
L 430.71552 268.156743 
L 442.08576 268.156743 
L 443.9808 265.963225 
L 455.35104 265.963225 
L 457.24608 263.769708 
L 472.4064 263.769708 
L 474.30144 262.138631 
L 483.77664 262.138631 
L 485.67168 259.945114 
L 498.93696 259.945114 
L 500.832 258.314037 
L 515.99232 258.314037 
L 517.88736 256.68296 
L 519.7824 254.489443 
L 533.04768 254.489443 
L 534.94272 252.858366 
L 536.83776 252.858366 
L 538.7328 249.596212 
L 542.52288 246.334058 
L 550.10304 246.334058 
L 551.99808 244.140541 
L 559.57824 244.140541 
L 561.47328 242.509464 
L 567.1584 242.509464 
L 569.05344 240.878387 
L 578.52864 240.878387 
L 580.42368 239.24731 
L 582.31872 239.24731 
L 584.21376 237.616233 
L 593.68896 237.616233 
L 595.584 235.985156 
L 597.47904 232.723003 
L 599.37408 232.723003 
L 603.16416 229.460849 
L 605.0592 227.267332 
L 620.21952 227.267332 
L 622.11456 225.636255 
L 625.90464 225.636255 
L 627.79968 224.005178 
L 631.58976 224.005178 
L 633.4848 221.81166 
L 635.37984 221.81166 
L 637.27488 220.180584 
L 642.96 220.180584 
L 642.96 220.180584 
" clip-path="url(#pa4c2656bde)" style="fill: none; stroke-dasharray: 6.75,2.7,1.35,2.7; stroke-dashoffset: 0; stroke: #2f8f84; stroke-width: 1.35"/>
   </g>
   <g id="patch_4">
    <path d="M 74.448 348.192 
L 74.448 93.744 
" style="fill: none; stroke: #000000; stroke-width: 0.8; stroke-linejoin: miter; stroke-linecap: square"/>
   </g>
   <g id="patch_5">
    <path d="M 74.448 348.192 
L 642.96 348.192 
" style="fill: none; stroke: #000000; stroke-width: 0.8; stroke-linejoin: miter; stroke-linecap: square"/>
   </g>
  </g>
  <g id="text_16">
   <text style="font: 18px 'DejaVu Sans', 'Bitstream Vera Sans', 'Computer Modern Sans Serif', 'Lucida Grande', 'Verdana', 'Geneva', 'Lucid', 'Arial', 'Helvetica', 'Avant Garde', sans-serif; text-anchor: start" x="74.448" y="38.229188" transform="rotate(-0 74.448 38.229188)">D55 Direct</text>
  </g>
  <g id="text_17">
   <text style="fill: #66747c; font: 10px 'DejaVu Sans', 'Bitstream Vera Sans', 'Computer Modern Sans Serif', 'Lucida Grande', 'Verdana', 'Geneva', 'Lucid', 'Arial', 'Helvetica', 'Avant Garde', sans-serif; text-anchor: start" x="74.448" y="64.728" transform="rotate(-0 74.448 64.728)">WOLED</text>
  </g>
  <g id="legend_1">
   <g id="line2d_33">
    <path d="M 185.17875 404.151391 
L 194.27875 404.151391 
L 203.37875 404.151391 
" style="fill: none; stroke: #252525; stroke-width: 2.5; stroke-linecap: square"/>
   </g>
   <g id="text_18">
    <text style="font: 9.1px 'DejaVu Sans', 'Bitstream Vera Sans', 'Computer Modern Sans Serif', 'Lucida Grande', 'Verdana', 'Geneva', 'Lucid', 'Arial', 'Helvetica', 'Avant Garde', sans-serif; text-anchor: start" x="210.65875" y="407.336391" transform="rotate(-0 210.65875 407.336391)">Potera CMF</text>
   </g>
   <g id="line2d_34">
    <path d="M 185.17875 417.508484 
L 194.27875 417.508484 
L 203.37875 417.508484 
" style="fill: none; stroke: #3b83b4; stroke-width: 1.35; stroke-linecap: square"/>
   </g>
   <g id="text_19">
    <text style="font: 9.1px 'DejaVu Sans', 'Bitstream Vera Sans', 'Computer Modern Sans Serif', 'Lucida Grande', 'Verdana', 'Geneva', 'Lucid', 'Arial', 'Helvetica', 'Avant Garde', sans-serif; text-anchor: start" x="210.65875" y="420.693484" transform="rotate(-0 210.65875 420.693484)">CIE 2015 2°</text>
   </g>
   <g id="line2d_35">
    <path d="M 282.931234 404.151391 
L 292.031234 404.151391 
L 301.131234 404.151391 
" style="fill: none; stroke-dasharray: 4.995,2.16; stroke-dashoffset: 0; stroke: #c38a19; stroke-width: 1.35"/>
   </g>
   <g id="text_20">
    <text style="font: 9.1px 'DejaVu Sans', 'Bitstream Vera Sans', 'Computer Modern Sans Serif', 'Lucida Grande', 'Verdana', 'Geneva', 'Lucid', 'Arial', 'Helvetica', 'Avant Garde', sans-serif; text-anchor: start" x="308.411234" y="407.336391" transform="rotate(-0 308.411234 407.336391)">CIE 2015 10°</text>
   </g>
   <g id="line2d_36">
    <path d="M 282.931234 417.508484 
L 292.031234 417.508484 
L 301.131234 417.508484 
" style="fill: none; stroke-dasharray: 1.35,2.2275; stroke-dashoffset: 0; stroke: #7d8a92; stroke-width: 1.35"/>
   </g>
   <g id="text_21">
    <text style="font: 9.1px 'DejaVu Sans', 'Bitstream Vera Sans', 'Computer Modern Sans Serif', 'Lucida Grande', 'Verdana', 'Geneva', 'Lucid', 'Arial', 'Helvetica', 'Avant Garde', sans-serif; text-anchor: start" x="308.411234" y="420.693484" transform="rotate(-0 308.411234 420.693484)">CIE 1964 10°</text>
   </g>
   <g id="line2d_37">
    <path d="M 386.473594 404.151391 
L 395.573594 404.151391 
L 404.673594 404.151391 
" style="fill: none; stroke-dasharray: 8.64,2.16,1.35,2.16; stroke-dashoffset: 0; stroke: #d0526a; stroke-width: 1.35"/>
   </g>
   <g id="text_22">
    <text style="font: 9.1px 'DejaVu Sans', 'Bitstream Vera Sans', 'Computer Modern Sans Serif', 'Lucida Grande', 'Verdana', 'Geneva', 'Lucid', 'Arial', 'Helvetica', 'Avant Garde', sans-serif; text-anchor: start" x="411.953594" y="407.336391" transform="rotate(-0 411.953594 407.336391)">CIE 1931 2°</text>
   </g>
   <g id="line2d_38">
    <path d="M 386.473594 417.508484 
L 395.573594 417.508484 
L 404.673594 417.508484 
" style="fill: none; stroke-dasharray: 6.75,2.7,1.35,2.7; stroke-dashoffset: 0; stroke: #2f8f84; stroke-width: 1.35"/>
   </g>
   <g id="text_23">
    <text style="font: 9.1px 'DejaVu Sans', 'Bitstream Vera Sans', 'Computer Modern Sans Serif', 'Lucida Grande', 'Verdana', 'Geneva', 'Lucid', 'Arial', 'Helvetica', 'Avant Garde', sans-serif; text-anchor: start" x="411.953594" y="420.693484" transform="rotate(-0 411.953594 420.693484)">Judd–Vos 1978 2°</text>
   </g>
  </g>
 </g>
 <defs>
  <clipPath id="pa4c2656bde">
   <rect x="74.448" y="93.744" width="568.512" height="254.448"/>
  </clipPath>
 </defs>
</svg>
