<?xml version="1.0" encoding="utf-8" standalone="no"?>
<!DOCTYPE svg PUBLIC "-//W3C//DTD SVG 1.1//EN"
  "http://www.w3.org/Graphics/SVG/1.1/DTD/svg11.dtd">
<svg xmlns:xlink="http://www.w3.org/1999/xlink" width="676.8pt" height="446.4pt" viewBox="0 0 676.8 446.4" xmlns="http://www.w3.org/2000/svg" version="1.1">
 <metadata>
  <rdf:RDF xmlns:dc="http://purl.org/dc/elements/1.1/" xmlns:cc="http://creativecommons.org/ns#" xmlns:rdf="http://www.w3.org/1999/02/22-rdf-syntax-ns#">
   <cc:Work>
    <dc:type rdf:resource="http://purl.org/dc/dcmitype/StillImage"/>
    <dc:date>2026-07-20T06:42:00.043157</dc:date>
    <dc:format>image/svg+xml</dc:format>
    <dc:creator>
     <cc:Agent>
      <dc:title>Matplotlib v3.9.4, https://matplotlib.org/</dc:title>
     </cc:Agent>
    </dc:creator>
   </cc:Work>
  </rdf:RDF>
 </metadata>
 <defs>
  <style type="text/css">*{stroke-linejoin: round; stroke-linecap: butt}</style>
 </defs>
 <g id="figure_1">
  <g id="patch_1">
   <path d="M 0 446.4 
L 676.8 446.4 
L 676.8 0 
L 0 0 
z
" style="fill: #ffffff"/>
  </g>
  <g id="axes_1">
   <g id="patch_2">
    <path d="M 74.448 348.192 
L 642.96 348.192 
L 642.96 93.744 
L 74.448 93.744 
z
" style="fill: #ffffff"/>
   </g>
   <g id="patch_3">
    <path d="M 169.2 348.192 
L 358.704 348.192 
L 358.704 93.744 
L 169.2 93.744 
z
" clip-path="url(#p316d7848ed)" style="fill: #e7f0ea; opacity: 0.58; stroke: #e7f0ea; stroke-linejoin: miter"/>
   </g>
   <g id="matplotlib.axis_1">
    <g id="xtick_1">
     <g id="line2d_1">
      <path d="M 74.448 348.192 
L 74.448 93.744 
" clip-path="url(#p316d7848ed)" style="fill: none; stroke: #dfe5e8; stroke-width: 0.65; stroke-linecap: square"/>
     </g>
     <g id="line2d_2">
      <defs>
       <path id="m9f5be1c272" d="M 0 0 
L 0 3.5 
" style="stroke: #000000; stroke-width: 0.8"/>
      </defs>
      <g>
       <use xlink:href="#m9f5be1c272" x="74.448" y="348.192" style="stroke: #000000; stroke-width: 0.8"/>
      </g>
     </g>
     <g id="text_1">
      <text style="font: 10px 'DejaVu Sans', 'Bitstream Vera Sans', 'Computer Modern Sans Serif', 'Lucida Grande', 'Verdana', 'Geneva', 'Lucid', 'Arial', 'Helvetica', 'Avant Garde', sans-serif; text-anchor: middle" x="74.448" y="362.790438" transform="rotate(-0 74.448 362.790438)">0</text>
     </g>
    </g>
    <g id="xtick_2">
     <g id="line2d_3">
      <path d="M 169.2 348.192 
L 169.2 93.744 
" clip-path="url(#p316d7848ed)" style="fill: none; stroke: #dfe5e8; stroke-width: 0.65; stroke-linecap: square"/>
     </g>
     <g id="line2d_4">
      <g>
       <use xlink:href="#m9f5be1c272" x="169.2" y="348.192" style="stroke: #000000; stroke-width: 0.8"/>
      </g>
     </g>
     <g id="text_2">
      <text style="font: 10px 'DejaVu Sans', 'Bitstream Vera Sans', 'Computer Modern Sans Serif', 'Lucida Grande', 'Verdana', 'Geneva', 'Lucid', 'Arial', 'Helvetica', 'Avant Garde', sans-serif; text-anchor: middle" x="169.2" y="362.790438" transform="rotate(-0 169.2 362.790438)">1</text>
     </g>
    </g>
    <g id="xtick_3">
     <g id="line2d_5">
      <path d="M 263.952 348.192 
L 263.952 93.744 
" clip-path="url(#p316d7848ed)" style="fill: none; stroke: #dfe5e8; stroke-width: 0.65; stroke-linecap: square"/>
     </g>
     <g id="line2d_6">
      <g>
       <use xlink:href="#m9f5be1c272" x="263.952" y="348.192" style="stroke: #000000; stroke-width: 0.8"/>
      </g>
     </g>
     <g id="text_3">
      <text style="font: 10px 'DejaVu Sans', 'Bitstream Vera Sans', 'Computer Modern Sans Serif', 'Lucida Grande', 'Verdana', 'Geneva', 'Lucid', 'Arial', 'Helvetica', 'Avant Garde', sans-serif; text-anchor: middle" x="263.952" y="362.790438" transform="rotate(-0 263.952 362.790438)">2</text>
     </g>
    </g>
    <g id="xtick_4">
     <g id="line2d_7">
      <path d="M 358.704 348.192 
L 358.704 93.744 
" clip-path="url(#p316d7848ed)" style="fill: none; stroke: #dfe5e8; stroke-width: 0.65; stroke-linecap: square"/>
     </g>
     <g id="line2d_8">
      <g>
       <use xlink:href="#m9f5be1c272" x="358.704" y="348.192" style="stroke: #000000; stroke-width: 0.8"/>
      </g>
     </g>
     <g id="text_4">
      <text style="font: 10px 'DejaVu Sans', 'Bitstream Vera Sans', 'Computer Modern Sans Serif', 'Lucida Grande', 'Verdana', 'Geneva', 'Lucid', 'Arial', 'Helvetica', 'Avant Garde', sans-serif; text-anchor: middle" x="358.704" y="362.790438" transform="rotate(-0 358.704 362.790438)">3</text>
     </g>
    </g>
    <g id="xtick_5">
     <g id="line2d_9">
      <path d="M 453.456 348.192 
L 453.456 93.744 
" clip-path="url(#p316d7848ed)" style="fill: none; stroke: #dfe5e8; stroke-width: 0.65; stroke-linecap: square"/>
     </g>
     <g id="line2d_10">
      <g>
       <use xlink:href="#m9f5be1c272" x="453.456" y="348.192" style="stroke: #000000; stroke-width: 0.8"/>
      </g>
     </g>
     <g id="text_5">
      <text style="font: 10px 'DejaVu Sans', 'Bitstream Vera Sans', 'Computer Modern Sans Serif', 'Lucida Grande', 'Verdana', 'Geneva', 'Lucid', 'Arial', 'Helvetica', 'Avant Garde', sans-serif; text-anchor: middle" x="453.456" y="362.790438" transform="rotate(-0 453.456 362.790438)">4</text>
     </g>
    </g>
    <g id="xtick_6">
     <g id="line2d_11">
      <path d="M 548.208 348.192 
L 548.208 93.744 
" clip-path="url(#p316d7848ed)" style="fill: none; stroke: #dfe5e8; stroke-width: 0.65; stroke-linecap: square"/>
     </g>
     <g id="line2d_12">
      <g>
       <use xlink:href="#m9f5be1c272" x="548.208" y="348.192" style="stroke: #000000; stroke-width: 0.8"/>
      </g>
     </g>
     <g id="text_6">
      <text style="font: 10px 'DejaVu Sans', 'Bitstream Vera Sans', 'Computer Modern Sans Serif', 'Lucida Grande', 'Verdana', 'Geneva', 'Lucid', 'Arial', 'Helvetica', 'Avant Garde', sans-serif; text-anchor: middle" x="548.208" y="362.790438" transform="rotate(-0 548.208 362.790438)">5</text>
     </g>
    </g>
    <g id="xtick_7">
     <g id="line2d_13">
      <path d="M 642.96 348.192 
L 642.96 93.744 
" clip-path="url(#p316d7848ed)" style="fill: none; stroke: #dfe5e8; stroke-width: 0.65; stroke-linecap: square"/>
     </g>
     <g id="line2d_14">
      <g>
       <use xlink:href="#m9f5be1c272" x="642.96" y="348.192" style="stroke: #000000; stroke-width: 0.8"/>
      </g>
     </g>
     <g id="text_7">
      <text style="font: 10px 'DejaVu Sans', 'Bitstream Vera Sans', 'Computer Modern Sans Serif', 'Lucida Grande', 'Verdana', 'Geneva', 'Lucid', 'Arial', 'Helvetica', 'Avant Garde', sans-serif; text-anchor: middle" x="642.96" y="362.790438" transform="rotate(-0 642.96 362.790438)">6</text>
     </g>
    </g>
    <g id="text_8">
     <text style="font: 10px 'DejaVu Sans', 'Bitstream Vera Sans', 'Computer Modern Sans Serif', 'Lucida Grande', 'Verdana', 'Geneva', 'Lucid', 'Arial', 'Helvetica', 'Avant Garde', sans-serif; text-anchor: middle" x="358.704" y="376.468563" transform="rotate(-0 358.704 376.468563)">sUCS dE threshold</text>
    </g>
   </g>
   <g id="matplotlib.axis_2">
    <g id="ytick_1">
     <g id="line2d_15">
      <path d="M 74.448 348.192 
L 642.96 348.192 
" clip-path="url(#p316d7848ed)" style="fill: none; stroke: #dfe5e8; stroke-width: 0.65; stroke-linecap: square"/>
     </g>
     <g id="line2d_16">
      <defs>
       <path id="m53f07bb6b6" d="M 0 0 
L -3.5 0 
" style="stroke: #000000; stroke-width: 0.8"/>
      </defs>
      <g>
       <use xlink:href="#m53f07bb6b6" x="74.448" y="348.192" style="stroke: #000000; stroke-width: 0.8"/>
      </g>
     </g>
     <g id="text_9">
      <text style="font: 10px 'DejaVu Sans', 'Bitstream Vera Sans', 'Computer Modern Sans Serif', 'Lucida Grande', 'Verdana', 'Geneva', 'Lucid', 'Arial', 'Helvetica', 'Avant Garde', sans-serif; text-anchor: end" x="67.448" y="351.991219" transform="rotate(-0 67.448 351.991219)">0</text>
     </g>
    </g>
    <g id="ytick_2">
     <g id="line2d_17">
      <path d="M 74.448 297.3024 
L 642.96 297.3024 
" clip-path="url(#p316d7848ed)" style="fill: none; stroke: #dfe5e8; stroke-width: 0.65; stroke-linecap: square"/>
     </g>
     <g id="line2d_18">
      <g>
       <use xlink:href="#m53f07bb6b6" x="74.448" y="297.3024" style="stroke: #000000; stroke-width: 0.8"/>
      </g>
     </g>
     <g id="text_10">
      <text style="font: 10px 'DejaVu Sans', 'Bitstream Vera Sans', 'Computer Modern Sans Serif', 'Lucida Grande', 'Verdana', 'Geneva', 'Lucid', 'Arial', 'Helvetica', 'Avant Garde', sans-serif; text-anchor: end" x="67.448" y="301.101619" transform="rotate(-0 67.448 301.101619)">20</text>
     </g>
    </g>
    <g id="ytick_3">
     <g id="line2d_19">
      <path d="M 74.448 246.4128 
L 642.96 246.4128 
" clip-path="url(#p316d7848ed)" style="fill: none; stroke: #dfe5e8; stroke-width: 0.65; stroke-linecap: square"/>
     </g>
     <g id="line2d_20">
      <g>
       <use xlink:href="#m53f07bb6b6" x="74.448" y="246.4128" style="stroke: #000000; stroke-width: 0.8"/>
      </g>
     </g>
     <g id="text_11">
      <text style="font: 10px 'DejaVu Sans', 'Bitstream Vera Sans', 'Computer Modern Sans Serif', 'Lucida Grande', 'Verdana', 'Geneva', 'Lucid', 'Arial', 'Helvetica', 'Avant Garde', sans-serif; text-anchor: end" x="67.448" y="250.212019" transform="rotate(-0 67.448 250.212019)">40</text>
     </g>
    </g>
    <g id="ytick_4">
     <g id="line2d_21">
      <path d="M 74.448 195.5232 
L 642.96 195.5232 
" clip-path="url(#p316d7848ed)" style="fill: none; stroke: #dfe5e8; stroke-width: 0.65; stroke-linecap: square"/>
     </g>
     <g id="line2d_22">
      <g>
       <use xlink:href="#m53f07bb6b6" x="74.448" y="195.5232" style="stroke: #000000; stroke-width: 0.8"/>
      </g>
     </g>
     <g id="text_12">
      <text style="font: 10px 'DejaVu Sans', 'Bitstream Vera Sans', 'Computer Modern Sans Serif', 'Lucida Grande', 'Verdana', 'Geneva', 'Lucid', 'Arial', 'Helvetica', 'Avant Garde', sans-serif; text-anchor: end" x="67.448" y="199.322419" transform="rotate(-0 67.448 199.322419)">60</text>
     </g>
    </g>
    <g id="ytick_5">
     <g id="line2d_23">
      <path d="M 74.448 144.6336 
L 642.96 144.6336 
" clip-path="url(#p316d7848ed)" style="fill: none; stroke: #dfe5e8; stroke-width: 0.65; stroke-linecap: square"/>
     </g>
     <g id="line2d_24">
      <g>
       <use xlink:href="#m53f07bb6b6" x="74.448" y="144.6336" style="stroke: #000000; stroke-width: 0.8"/>
      </g>
     </g>
     <g id="text_13">
      <text style="font: 10px 'DejaVu Sans', 'Bitstream Vera Sans', 'Computer Modern Sans Serif', 'Lucida Grande', 'Verdana', 'Geneva', 'Lucid', 'Arial', 'Helvetica', 'Avant Garde', sans-serif; text-anchor: end" x="67.448" y="148.432819" transform="rotate(-0 67.448 148.432819)">80</text>
     </g>
    </g>
    <g id="ytick_6">
     <g id="line2d_25">
      <path d="M 74.448 93.744 
L 642.96 93.744 
" clip-path="url(#p316d7848ed)" style="fill: none; stroke: #dfe5e8; stroke-width: 0.65; stroke-linecap: square"/>
     </g>
     <g id="line2d_26">
      <g>
       <use xlink:href="#m53f07bb6b6" x="74.448" y="93.744" style="stroke: #000000; stroke-width: 0.8"/>
      </g>
     </g>
     <g id="text_14">
      <text style="font: 10px 'DejaVu Sans', 'Bitstream Vera Sans', 'Computer Modern Sans Serif', 'Lucida Grande', 'Verdana', 'Geneva', 'Lucid', 'Arial', 'Helvetica', 'Avant Garde', sans-serif; text-anchor: end" x="67.448" y="97.543219" transform="rotate(-0 67.448 97.543219)">100</text>
     </g>
    </g>
    <g id="text_15">
     <text style="font: 10px 'DejaVu Sans', 'Bitstream Vera Sans', 'Computer Modern Sans Serif', 'Lucida Grande', 'Verdana', 'Geneva', 'Lucid', 'Arial', 'Helvetica', 'Avant Garde', sans-serif; text-anchor: middle" x="42.280812" y="220.968" transform="rotate(-90 42.280812 220.968)">observers%</text>
    </g>
   </g>
   <g id="line2d_27">
    <path d="M 74.448 348.192 
L 82.02816 348.192 
L 83.9232 344.367406 
L 87.71328 344.367406 
L 89.60832 342.736329 
L 91.50336 338.911735 
L 93.3984 337.280658 
L 95.29344 337.280658 
L 97.18848 335.649581 
L 99.08352 333.456064 
L 100.97856 333.456064 
L 102.8736 325.806875 
L 104.76864 321.982281 
L 106.66368 321.982281 
L 108.55872 320.351204 
L 114.24384 320.351204 
L 118.03392 315.96417 
L 119.92896 314.333093 
L 123.71904 314.333093 
L 125.61408 308.314981 
L 127.50912 306.121464 
L 129.40416 304.490387 
L 131.2992 300.665793 
L 133.19424 296.278759 
L 135.08928 296.278759 
L 136.98432 294.085241 
L 140.7744 290.823088 
L 142.66944 288.62957 
L 144.56448 283.173899 
L 146.45952 280.980382 
L 148.35456 280.980382 
L 152.14464 277.718228 
L 154.03968 273.893634 
L 155.93472 272.262557 
L 157.82976 266.806886 
L 159.7248 266.806886 
L 161.61984 265.175809 
L 163.51488 258.089061 
L 169.2 246.615279 
L 171.09504 244.984202 
L 172.99008 237.335013 
L 174.88512 235.141496 
L 176.78016 233.510419 
L 178.6752 224.230154 
L 180.57024 222.599077 
L 182.46528 219.336923 
L 184.36032 217.143406 
L 186.25536 217.143406 
L 190.04544 212.756371 
L 191.94048 212.756371 
L 193.83552 207.863141 
L 195.73056 207.863141 
L 197.6256 205.669623 
L 199.52064 204.038546 
L 201.41568 196.951798 
L 203.31072 196.951798 
L 205.20576 194.758281 
L 207.1008 193.127204 
L 210.89088 188.74017 
L 212.78592 183.846939 
L 214.68096 179.459905 
L 218.47104 179.459905 
L 220.36608 176.197751 
L 222.26112 172.373156 
L 224.15616 172.373156 
L 226.0512 169.111003 
L 227.94624 169.111003 
L 231.73632 158.19966 
L 233.63136 158.19966 
L 235.5264 154.937507 
L 237.42144 151.112912 
L 239.31648 151.112912 
L 241.21152 147.288318 
L 246.89664 147.288318 
L 250.68672 144.026164 
L 252.58176 141.832647 
L 254.4768 141.832647 
L 256.37184 133.621019 
L 258.26688 131.989942 
L 260.16192 131.989942 
L 262.05696 130.358865 
L 269.63712 130.358865 
L 271.53216 126.534271 
L 273.4272 121.078599 
L 281.00736 121.078599 
L 282.9024 118.885082 
L 284.79744 118.885082 
L 286.69248 115.060488 
L 294.27264 115.060488 
L 296.16768 112.866971 
L 298.06272 109.604817 
L 299.95776 107.4113 
L 305.64288 107.4113 
L 307.53792 103.024265 
L 309.43296 103.024265 
L 311.328 101.393188 
L 317.01312 101.393188 
L 318.90816 99.199671 
L 324.59328 99.199671 
L 326.48832 97.568594 
L 354.91392 97.568594 
L 356.80896 95.937517 
L 373.86432 95.937517 
L 375.75936 93.744 
L 642.96 93.744 
L 642.96 93.744 
" clip-path="url(#p316d7848ed)" style="fill: none; stroke: #252525; stroke-width: 2.5; stroke-linecap: square"/>
   </g>
   <g id="line2d_28">
    <path d="M 74.448 348.192 
L 82.02816 348.192 
L 83.9232 345.998483 
L 91.50336 345.998483 
L 93.3984 343.804966 
L 95.29344 343.804966 
L 99.08352 339.417931 
L 116.13888 339.417931 
L 118.03392 335.030897 
L 123.71904 328.450345 
L 125.61408 328.450345 
L 127.50912 324.06331 
L 129.40416 321.869793 
L 133.19424 321.869793 
L 135.08928 317.482759 
L 136.98432 313.658164 
L 138.87936 311.464647 
L 142.66944 311.464647 
L 144.56448 309.27113 
L 146.45952 309.27113 
L 148.35456 302.690578 
L 154.03968 302.690578 
L 155.93472 300.497061 
L 157.82976 296.110027 
L 159.7248 296.110027 
L 161.61984 289.529475 
L 165.40992 285.14244 
L 169.2 285.14244 
L 171.09504 278.561889 
L 172.99008 278.561889 
L 178.6752 271.981337 
L 182.46528 271.981337 
L 184.36032 265.400785 
L 186.25536 263.207268 
L 188.1504 263.207268 
L 190.04544 261.576191 
L 193.83552 261.576191 
L 197.6256 257.189156 
L 199.52064 255.55808 
L 201.41568 255.55808 
L 203.31072 253.364562 
L 205.20576 253.364562 
L 207.1008 250.102408 
L 208.99584 250.102408 
L 214.68096 238.628626 
L 216.576 238.628626 
L 220.36608 234.241592 
L 222.26112 229.854557 
L 224.15616 226.029963 
L 229.84128 226.029963 
L 231.73632 223.836446 
L 233.63136 220.011851 
L 239.31648 220.011851 
L 241.21152 217.818334 
L 243.10656 210.731586 
L 254.4768 210.731586 
L 256.37184 209.100509 
L 258.26688 206.906992 
L 260.16192 203.644838 
L 262.05696 201.451321 
L 263.952 201.451321 
L 265.84704 198.189167 
L 269.63712 194.927013 
L 277.21728 194.927013 
L 279.11232 193.295936 
L 281.00736 193.295936 
L 282.9024 191.664859 
L 284.79744 191.664859 
L 286.69248 188.402706 
L 288.58752 186.771629 
L 290.48256 184.578111 
L 294.27264 178.053804 
L 299.95776 178.053804 
L 301.8528 176.422727 
L 303.74784 171.529496 
L 307.53792 168.267342 
L 309.43296 165.005188 
L 311.328 165.005188 
L 313.22304 161.743034 
L 318.90816 156.849804 
L 326.48832 156.849804 
L 328.38336 153.02521 
L 330.2784 153.02521 
L 332.17344 149.763056 
L 334.06848 149.763056 
L 337.85856 146.500902 
L 339.7536 143.238748 
L 341.64864 143.238748 
L 343.54368 139.976594 
L 345.43872 139.976594 
L 347.33376 138.345517 
L 349.2288 138.345517 
L 351.12384 136.71444 
L 353.01888 133.452286 
L 354.91392 131.82121 
L 356.80896 131.82121 
L 360.59904 128.559056 
L 362.49408 123.665825 
L 366.28416 123.665825 
L 368.1792 122.034748 
L 370.07424 118.772594 
L 375.75936 118.772594 
L 377.6544 117.141517 
L 385.23456 117.141517 
L 387.1296 112.248286 
L 392.81472 112.248286 
L 394.70976 110.61721 
L 396.6048 108.423692 
L 398.49984 106.792615 
L 402.28992 106.792615 
L 404.18496 105.161538 
L 409.87008 105.161538 
L 411.76512 103.530462 
L 425.0304 103.530462 
L 426.92544 101.899385 
L 428.82048 101.899385 
L 430.71552 100.268308 
L 436.40064 100.268308 
L 438.29568 98.637231 
L 445.87584 98.637231 
L 447.77088 97.006154 
L 462.9312 97.006154 
L 464.82624 95.375077 
L 493.25184 95.375077 
L 495.14688 93.744 
L 642.96 93.744 
L 642.96 93.744 
" clip-path="url(#p316d7848ed)" style="fill: none; stroke: #3b83b4; stroke-width: 1.35; stroke-linecap: square"/>
   </g>
   <g id="line2d_29">
    <path d="M 74.448 348.192 
L 85.81824 348.192 
L 87.71328 346.560923 
L 91.50336 340.036615 
L 93.3984 338.405538 
L 95.29344 335.143385 
L 97.18848 335.143385 
L 100.97856 331.881231 
L 102.8736 331.881231 
L 108.55872 326.988 
L 110.45376 326.988 
L 112.3488 325.356923 
L 114.24384 325.356923 
L 116.13888 315.008021 
L 118.03392 313.376944 
L 119.92896 313.376944 
L 121.824 310.11479 
L 127.50912 310.11479 
L 131.2992 306.852637 
L 133.19424 303.028042 
L 136.98432 289.923183 
L 138.87936 279.574281 
L 140.7744 273.55617 
L 144.56448 270.294016 
L 146.45952 267.031862 
L 148.35456 267.031862 
L 150.2496 265.400785 
L 152.14464 265.400785 
L 154.03968 259.382674 
L 155.93472 257.751597 
L 157.82976 250.664849 
L 159.7248 247.402695 
L 161.61984 245.771618 
L 165.40992 239.24731 
L 167.30496 237.616233 
L 169.2 235.422716 
L 171.09504 231.598122 
L 172.99008 229.967045 
L 174.88512 226.142451 
L 176.78016 222.880297 
L 180.57024 222.880297 
L 182.46528 221.24922 
L 184.36032 221.24922 
L 186.25536 217.424626 
L 188.1504 215.231109 
L 190.04544 211.968955 
L 191.94048 208.144361 
L 195.73056 204.882207 
L 197.6256 204.882207 
L 199.52064 199.426536 
L 201.41568 195.039501 
L 205.20576 195.039501 
L 208.99584 187.390313 
L 210.89088 185.196796 
L 212.78592 185.196796 
L 214.68096 183.003279 
L 216.576 183.003279 
L 218.47104 179.178684 
L 222.26112 179.178684 
L 226.0512 174.79165 
L 227.94624 173.160573 
L 229.84128 168.773538 
L 231.73632 166.580021 
L 233.63136 161.12435 
L 235.5264 158.930833 
L 243.10656 158.930833 
L 245.0016 156.737316 
L 248.79168 149.088127 
L 254.4768 149.088127 
L 256.37184 147.45705 
L 258.26688 147.45705 
L 260.16192 145.263533 
L 262.05696 145.263533 
L 263.952 143.070016 
L 265.84704 143.070016 
L 267.74208 140.876499 
L 269.63712 139.245422 
L 271.53216 139.245422 
L 277.21728 132.66487 
L 281.00736 132.66487 
L 282.9024 130.471353 
L 290.48256 130.471353 
L 292.3776 128.277836 
L 296.16768 128.277836 
L 298.06272 126.646759 
L 301.8528 126.646759 
L 303.74784 124.453241 
L 305.64288 124.453241 
L 307.53792 122.259724 
L 309.43296 122.259724 
L 311.328 120.066207 
L 313.22304 120.066207 
L 317.01312 115.679172 
L 318.90816 115.679172 
L 320.8032 113.485655 
L 330.2784 113.485655 
L 332.17344 111.292138 
L 341.64864 111.292138 
L 343.54368 109.098621 
L 345.43872 104.711586 
L 347.33376 102.518069 
L 356.80896 102.518069 
L 358.704 100.324552 
L 368.1792 100.324552 
L 370.07424 98.131034 
L 373.86432 98.131034 
L 375.75936 95.937517 
L 423.13536 95.937517 
L 425.0304 93.744 
L 642.96 93.744 
L 642.96 93.744 
" clip-path="url(#p316d7848ed)" style="fill: none; stroke-dasharray: 4.995,2.16; stroke-dashoffset: 0; stroke: #c38a19; stroke-width: 1.35"/>
   </g>
   <g id="line2d_30">
    <path d="M 74.448 348.192 
L 95.29344 348.192 
L 100.97856 341.611448 
L 102.8736 341.611448 
L 104.76864 339.980371 
L 106.66368 337.786854 
L 112.3488 337.786854 
L 114.24384 333.96226 
L 118.03392 330.700106 
L 119.92896 330.700106 
L 121.824 325.244435 
L 125.61408 325.244435 
L 127.50912 321.419841 
L 131.2992 321.419841 
L 133.19424 319.788764 
L 135.08928 317.595247 
L 136.98432 315.96417 
L 138.87936 308.877422 
L 140.7744 305.052828 
L 142.66944 299.597156 
L 144.56448 297.96608 
L 146.45952 297.96608 
L 148.35456 291.947968 
L 154.03968 291.947968 
L 155.93472 290.316891 
L 157.82976 282.667703 
L 159.7248 280.474186 
L 163.51488 271.700117 
L 165.40992 269.506599 
L 167.30496 267.875523 
L 169.2 262.419851 
L 171.09504 256.40174 
L 172.99008 252.014706 
L 174.88512 248.190111 
L 176.78016 246.559034 
L 178.6752 241.103363 
L 184.36032 236.210133 
L 186.25536 232.947979 
L 188.1504 231.316902 
L 190.04544 229.123385 
L 191.94048 227.492308 
L 193.83552 227.492308 
L 195.73056 224.230154 
L 197.6256 220.40556 
L 203.31072 220.40556 
L 205.20576 218.774483 
L 207.1008 212.756371 
L 208.99584 210.562854 
L 210.89088 207.3007 
L 212.78592 202.407469 
L 214.68096 196.389358 
L 216.576 193.127204 
L 218.47104 188.74017 
L 220.36608 187.109093 
L 222.26112 184.915576 
L 224.15616 176.197751 
L 226.0512 171.810716 
L 229.84128 168.548562 
L 231.73632 166.355045 
L 239.31648 159.830737 
L 241.21152 159.830737 
L 243.10656 156.006143 
L 245.0016 154.375066 
L 246.89664 152.181549 
L 248.79168 152.181549 
L 250.68672 146.725878 
L 252.58176 144.532361 
L 256.37184 144.532361 
L 258.26688 141.270207 
L 263.952 141.270207 
L 265.84704 135.252095 
L 267.74208 131.427501 
L 269.63712 131.427501 
L 271.53216 127.602907 
L 273.4272 125.97183 
L 275.32224 119.953719 
L 279.11232 115.566684 
L 284.79744 115.566684 
L 286.69248 111.74209 
L 299.95776 111.74209 
L 301.8528 108.479936 
L 305.64288 104.092902 
L 307.53792 104.092902 
L 309.43296 102.461825 
L 320.8032 102.461825 
L 322.69824 99.199671 
L 341.64864 99.199671 
L 343.54368 97.568594 
L 347.33376 97.568594 
L 349.2288 95.375077 
L 371.96928 95.375077 
L 373.86432 93.744 
L 642.96 93.744 
L 642.96 93.744 
" clip-path="url(#p316d7848ed)" style="fill: none; stroke-dasharray: 1.35,2.2275; stroke-dashoffset: 0; stroke: #7d8a92; stroke-width: 1.35"/>
   </g>
   <g id="line2d_31">
    <path d="M 74.448 348.192 
L 100.97856 348.192 
L 102.8736 345.998483 
L 116.13888 345.998483 
L 118.03392 341.611448 
L 157.82976 341.611448 
L 161.61984 337.224414 
L 165.40992 337.224414 
L 167.30496 335.030897 
L 169.2 329.012785 
L 172.99008 324.625751 
L 174.88512 324.625751 
L 176.78016 322.432233 
L 186.25536 322.432233 
L 188.1504 320.238716 
L 190.04544 313.658164 
L 191.94048 313.658164 
L 195.73056 309.27113 
L 199.52064 309.27113 
L 201.41568 302.690578 
L 205.20576 302.690578 
L 208.99584 298.303544 
L 212.78592 298.303544 
L 214.68096 296.110027 
L 216.576 296.110027 
L 218.47104 293.916509 
L 220.36608 293.916509 
L 226.0512 287.335958 
L 233.63136 287.335958 
L 235.5264 281.317846 
L 237.42144 279.124329 
L 246.89664 279.124329 
L 248.79168 276.930812 
L 250.68672 276.930812 
L 252.58176 274.737294 
L 258.26688 274.737294 
L 260.16192 272.543777 
L 263.952 272.543777 
L 265.84704 270.35026 
L 267.74208 265.963225 
L 269.63712 264.332149 
L 271.53216 262.138631 
L 273.4272 262.138631 
L 275.32224 259.945114 
L 282.9024 259.945114 
L 284.79744 258.314037 
L 286.69248 256.12052 
L 288.58752 250.102408 
L 290.48256 246.277814 
L 292.3776 246.277814 
L 296.16768 241.89078 
L 298.06272 241.89078 
L 299.95776 240.259703 
L 301.8528 238.066186 
L 303.74784 234.804032 
L 307.53792 234.804032 
L 309.43296 230.979438 
L 313.22304 226.592403 
L 315.11808 222.767809 
L 317.01312 221.136732 
L 318.90816 221.136732 
L 320.8032 217.312138 
L 322.69824 215.118621 
L 324.59328 215.118621 
L 326.48832 213.487544 
L 330.2784 213.487544 
L 332.17344 209.66295 
L 334.06848 209.66295 
L 335.96352 204.769719 
L 337.85856 204.769719 
L 339.7536 203.138642 
L 343.54368 203.138642 
L 345.43872 200.945125 
L 347.33376 200.945125 
L 349.2288 199.314048 
L 351.12384 195.489454 
L 353.01888 193.295936 
L 360.59904 193.295936 
L 362.49408 185.140552 
L 364.38912 185.140552 
L 366.28416 183.509475 
L 368.1792 180.247321 
L 370.07424 178.616244 
L 371.96928 178.616244 
L 379.54944 172.091936 
L 381.44448 172.091936 
L 383.33952 170.460859 
L 385.23456 167.198706 
L 387.1296 165.567629 
L 389.02464 160.674398 
L 390.91968 160.674398 
L 392.81472 156.849804 
L 398.49984 156.849804 
L 400.39488 151.956573 
L 404.18496 151.956573 
L 406.08 143.801188 
L 407.97504 142.170111 
L 409.87008 142.170111 
L 411.76512 138.907958 
L 413.66016 138.907958 
L 415.5552 136.71444 
L 417.45024 136.71444 
L 419.34528 135.083363 
L 423.13536 135.083363 
L 425.0304 131.82121 
L 426.92544 131.82121 
L 428.82048 128.559056 
L 430.71552 126.927979 
L 432.61056 126.927979 
L 438.29568 122.034748 
L 442.08576 122.034748 
L 443.9808 118.772594 
L 445.87584 117.141517 
L 453.456 117.141517 
L 455.35104 115.51044 
L 459.14112 115.51044 
L 461.03616 113.879363 
L 462.9312 110.61721 
L 466.72128 110.61721 
L 468.61632 108.986133 
L 470.51136 108.986133 
L 472.4064 106.792615 
L 476.19648 106.792615 
L 478.09152 105.161538 
L 485.67168 105.161538 
L 487.56672 103.530462 
L 493.25184 103.530462 
L 495.14688 101.899385 
L 500.832 101.899385 
L 502.72704 100.268308 
L 512.20224 100.268308 
L 514.09728 98.637231 
L 515.99232 98.637231 
L 517.88736 97.006154 
L 534.94272 97.006154 
L 536.83776 95.375077 
L 563.36832 95.375077 
L 565.26336 93.744 
L 642.96 93.744 
L 642.96 93.744 
" clip-path="url(#p316d7848ed)" style="fill: none; stroke-dasharray: 8.64,2.16,1.35,2.16; stroke-dashoffset: 0; stroke: #d0526a; stroke-width: 1.35"/>
   </g>
   <g id="line2d_32">
    <path d="M 74.448 348.192 
L 104.76864 348.192 
L 106.66368 345.998483 
L 108.55872 345.998483 
L 110.45376 343.804966 
L 118.03392 343.804966 
L 119.92896 341.611448 
L 152.14464 341.611448 
L 157.82976 335.030897 
L 159.7248 335.030897 
L 161.61984 330.643862 
L 167.30496 330.643862 
L 169.2 328.450345 
L 176.78016 328.450345 
L 178.6752 326.819268 
L 180.57024 324.625751 
L 182.46528 324.625751 
L 184.36032 322.432233 
L 186.25536 322.432233 
L 188.1504 320.238716 
L 190.04544 315.851682 
L 191.94048 315.851682 
L 193.83552 311.464647 
L 195.73056 309.27113 
L 197.6256 309.27113 
L 201.41568 304.884095 
L 205.20576 304.884095 
L 208.99584 300.497061 
L 214.68096 300.497061 
L 216.576 298.303544 
L 224.15616 298.303544 
L 226.0512 296.110027 
L 227.94624 291.722992 
L 229.84128 291.722992 
L 231.73632 287.335958 
L 237.42144 287.335958 
L 239.31648 285.14244 
L 241.21152 285.14244 
L 245.0016 280.755406 
L 246.89664 279.124329 
L 248.79168 279.124329 
L 250.68672 276.930812 
L 262.05696 276.930812 
L 263.952 274.737294 
L 265.84704 270.35026 
L 271.53216 270.35026 
L 273.4272 265.963225 
L 275.32224 265.963225 
L 277.21728 263.769708 
L 279.11232 263.769708 
L 281.00736 259.945114 
L 284.79744 259.945114 
L 288.58752 255.55808 
L 292.3776 255.55808 
L 294.27264 253.927003 
L 296.16768 253.927003 
L 298.06272 250.102408 
L 299.95776 241.89078 
L 301.8528 239.697263 
L 305.64288 239.697263 
L 307.53792 238.066186 
L 311.328 238.066186 
L 317.01312 233.172955 
L 322.69824 226.592403 
L 324.59328 222.767809 
L 326.48832 220.574292 
L 328.38336 215.118621 
L 334.06848 215.118621 
L 335.96352 213.487544 
L 337.85856 213.487544 
L 339.7536 211.294027 
L 341.64864 211.294027 
L 345.43872 204.769719 
L 349.2288 204.769719 
L 351.12384 200.945125 
L 356.80896 200.945125 
L 358.704 197.120531 
L 360.59904 194.927013 
L 362.49408 193.295936 
L 370.07424 193.295936 
L 371.96928 190.033782 
L 373.86432 185.140552 
L 375.75936 183.509475 
L 377.6544 183.509475 
L 379.54944 180.247321 
L 381.44448 178.616244 
L 383.33952 178.616244 
L 385.23456 175.35409 
L 387.1296 173.723013 
L 389.02464 173.723013 
L 390.91968 172.091936 
L 392.81472 168.829782 
L 394.70976 167.198706 
L 396.6048 163.936552 
L 398.49984 161.743034 
L 400.39488 161.743034 
L 402.28992 156.849804 
L 406.08 156.849804 
L 409.87008 153.58765 
L 411.76512 153.58765 
L 413.66016 151.956573 
L 419.34528 142.170111 
L 421.24032 142.170111 
L 423.13536 140.539034 
L 425.0304 136.71444 
L 426.92544 136.71444 
L 428.82048 135.083363 
L 434.5056 135.083363 
L 436.40064 131.82121 
L 438.29568 130.190133 
L 440.19072 130.190133 
L 442.08576 126.927979 
L 443.9808 126.927979 
L 445.87584 125.296902 
L 447.77088 122.034748 
L 451.56096 122.034748 
L 457.24608 117.141517 
L 462.9312 117.141517 
L 464.82624 115.51044 
L 468.61632 115.51044 
L 470.51136 113.879363 
L 472.4064 113.879363 
L 474.30144 110.61721 
L 478.09152 110.61721 
L 479.98656 108.986133 
L 481.8816 106.792615 
L 485.67168 106.792615 
L 487.56672 105.161538 
L 498.93696 105.161538 
L 500.832 103.530462 
L 502.72704 103.530462 
L 504.62208 101.899385 
L 512.20224 101.899385 
L 514.09728 100.268308 
L 523.57248 100.268308 
L 527.36256 97.006154 
L 546.31296 97.006154 
L 548.208 95.375077 
L 574.73856 95.375077 
L 576.6336 93.744 
L 642.96 93.744 
L 642.96 93.744 
" clip-path="url(#p316d7848ed)" style="fill: none; stroke-dasharray: 6.75,2.7,1.35,2.7; stroke-dashoffset: 0; stroke: #2f8f84; stroke-width: 1.35"/>
   </g>
   <g id="patch_4">
    <path d="M 74.448 348.192 
L 74.448 93.744 
" style="fill: none; stroke: #000000; stroke-width: 0.8; stroke-linejoin: miter; stroke-linecap: square"/>
   </g>
   <g id="patch_5">
    <path d="M 74.448 348.192 
L 642.96 348.192 
" style="fill: none; stroke: #000000; stroke-width: 0.8; stroke-linejoin: miter; stroke-linecap: square"/>
   </g>
  </g>
  <g id="text_16">
   <text style="font: 18px 'DejaVu Sans', 'Bitstream Vera Sans', 'Computer Modern Sans Serif', 'Lucida Grande', 'Verdana', 'Geneva', 'Lucid', 'Arial', 'Helvetica', 'Avant Garde', sans-serif; text-anchor: start" x="74.448" y="38.229188" transform="rotate(-0 74.448 38.229188)">WLED LCD → WOLED</text>
  </g>
  <g id="text_17">
   <text style="fill: #66747c; font: 10px 'DejaVu Sans', 'Bitstream Vera Sans', 'Computer Modern Sans Serif', 'Lucida Grande', 'Verdana', 'Geneva', 'Lucid', 'Arial', 'Helvetica', 'Avant Garde', sans-serif; text-anchor: start" x="74.448" y="64.728" transform="rotate(-0 74.448 64.728)">D65</text>
  </g>
  <g id="legend_1">
   <g id="line2d_33">
    <path d="M 185.17875 404.151391 
L 194.27875 404.151391 
L 203.37875 404.151391 
" style="fill: none; stroke: #252525; stroke-width: 2.5; stroke-linecap: square"/>
   </g>
   <g id="text_18">
    <text style="font: 9.1px 'DejaVu Sans', 'Bitstream Vera Sans', 'Computer Modern Sans Serif', 'Lucida Grande', 'Verdana', 'Geneva', 'Lucid', 'Arial', 'Helvetica', 'Avant Garde', sans-serif; text-anchor: start" x="210.65875" y="407.336391" transform="rotate(-0 210.65875 407.336391)">Potera CMF</text>
   </g>
   <g id="line2d_34">
    <path d="M 185.17875 417.508484 
L 194.27875 417.508484 
L 203.37875 417.508484 
" style="fill: none; stroke: #3b83b4; stroke-width: 1.35; stroke-linecap: square"/>
   </g>
   <g id="text_19">
    <text style="font: 9.1px 'DejaVu Sans', 'Bitstream Vera Sans', 'Computer Modern Sans Serif', 'Lucida Grande', 'Verdana', 'Geneva', 'Lucid', 'Arial', 'Helvetica', 'Avant Garde', sans-serif; text-anchor: start" x="210.65875" y="420.693484" transform="rotate(-0 210.65875 420.693484)">CIE 2015 2°</text>
   </g>
   <g id="line2d_35">
    <path d="M 282.931234 404.151391 
L 292.031234 404.151391 
L 301.131234 404.151391 
" style="fill: none; stroke-dasharray: 4.995,2.16; stroke-dashoffset: 0; stroke: #c38a19; stroke-width: 1.35"/>
   </g>
   <g id="text_20">
    <text style="font: 9.1px 'DejaVu Sans', 'Bitstream Vera Sans', 'Computer Modern Sans Serif', 'Lucida Grande', 'Verdana', 'Geneva', 'Lucid', 'Arial', 'Helvetica', 'Avant Garde', sans-serif; text-anchor: start" x="308.411234" y="407.336391" transform="rotate(-0 308.411234 407.336391)">CIE 2015 10°</text>
   </g>
   <g id="line2d_36">
    <path d="M 282.931234 417.508484 
L 292.031234 417.508484 
L 301.131234 417.508484 
" style="fill: none; stroke-dasharray: 1.35,2.2275; stroke-dashoffset: 0; stroke: #7d8a92; stroke-width: 1.35"/>
   </g>
   <g id="text_21">
    <text style="font: 9.1px 'DejaVu Sans', 'Bitstream Vera Sans', 'Computer Modern Sans Serif', 'Lucida Grande', 'Verdana', 'Geneva', 'Lucid', 'Arial', 'Helvetica', 'Avant Garde', sans-serif; text-anchor: start" x="308.411234" y="420.693484" transform="rotate(-0 308.411234 420.693484)">CIE 1964 10°</text>
   </g>
   <g id="line2d_37">
    <path d="M 386.473594 404.151391 
L 395.573594 404.151391 
L 404.673594 404.151391 
" style="fill: none; stroke-dasharray: 8.64,2.16,1.35,2.16; stroke-dashoffset: 0; stroke: #d0526a; stroke-width: 1.35"/>
   </g>
   <g id="text_22">
    <text style="font: 9.1px 'DejaVu Sans', 'Bitstream Vera Sans', 'Computer Modern Sans Serif', 'Lucida Grande', 'Verdana', 'Geneva', 'Lucid', 'Arial', 'Helvetica', 'Avant Garde', sans-serif; text-anchor: start" x="411.953594" y="407.336391" transform="rotate(-0 411.953594 407.336391)">CIE 1931 2°</text>
   </g>
   <g id="line2d_38">
    <path d="M 386.473594 417.508484 
L 395.573594 417.508484 
L 404.673594 417.508484 
" style="fill: none; stroke-dasharray: 6.75,2.7,1.35,2.7; stroke-dashoffset: 0; stroke: #2f8f84; stroke-width: 1.35"/>
   </g>
   <g id="text_23">
    <text style="font: 9.1px 'DejaVu Sans', 'Bitstream Vera Sans', 'Computer Modern Sans Serif', 'Lucida Grande', 'Verdana', 'Geneva', 'Lucid', 'Arial', 'Helvetica', 'Avant Garde', sans-serif; text-anchor: start" x="411.953594" y="420.693484" transform="rotate(-0 411.953594 420.693484)">Judd–Vos 1978 2°</text>
   </g>
  </g>
 </g>
 <defs>
  <clipPath id="p316d7848ed">
   <rect x="74.448" y="93.744" width="568.512" height="254.448"/>
  </clipPath>
 </defs>
</svg>
