<?xml version="1.0" encoding="utf-8" standalone="no"?>
<!DOCTYPE svg PUBLIC "-//W3C//DTD SVG 1.1//EN"
  "http://www.w3.org/Graphics/SVG/1.1/DTD/svg11.dtd">
<svg xmlns:xlink="http://www.w3.org/1999/xlink" width="676.8pt" height="446.4pt" viewBox="0 0 676.8 446.4" xmlns="http://www.w3.org/2000/svg" version="1.1">
 <metadata>
  <rdf:RDF xmlns:dc="http://purl.org/dc/elements/1.1/" xmlns:cc="http://creativecommons.org/ns#" xmlns:rdf="http://www.w3.org/1999/02/22-rdf-syntax-ns#">
   <cc:Work>
    <dc:type rdf:resource="http://purl.org/dc/dcmitype/StillImage"/>
    <dc:date>2026-07-20T06:42:00.240349</dc:date>
    <dc:format>image/svg+xml</dc:format>
    <dc:creator>
     <cc:Agent>
      <dc:title>Matplotlib v3.9.4, https://matplotlib.org/</dc:title>
     </cc:Agent>
    </dc:creator>
   </cc:Work>
  </rdf:RDF>
 </metadata>
 <defs>
  <style type="text/css">*{stroke-linejoin: round; stroke-linecap: butt}</style>
 </defs>
 <g id="figure_1">
  <g id="patch_1">
   <path d="M 0 446.4 
L 676.8 446.4 
L 676.8 0 
L 0 0 
z
" style="fill: #ffffff"/>
  </g>
  <g id="axes_1">
   <g id="patch_2">
    <path d="M 74.448 348.192 
L 642.96 348.192 
L 642.96 93.744 
L 74.448 93.744 
z
" style="fill: #ffffff"/>
   </g>
   <g id="patch_3">
    <path d="M 169.2 348.192 
L 358.704 348.192 
L 358.704 93.744 
L 169.2 93.744 
z
" clip-path="url(#p9f3391d683)" style="fill: #e7f0ea; opacity: 0.58; stroke: #e7f0ea; stroke-linejoin: miter"/>
   </g>
   <g id="matplotlib.axis_1">
    <g id="xtick_1">
     <g id="line2d_1">
      <path d="M 74.448 348.192 
L 74.448 93.744 
" clip-path="url(#p9f3391d683)" style="fill: none; stroke: #dfe5e8; stroke-width: 0.65; stroke-linecap: square"/>
     </g>
     <g id="line2d_2">
      <defs>
       <path id="mffcebc6a46" d="M 0 0 
L 0 3.5 
" style="stroke: #000000; stroke-width: 0.8"/>
      </defs>
      <g>
       <use xlink:href="#mffcebc6a46" x="74.448" y="348.192" style="stroke: #000000; stroke-width: 0.8"/>
      </g>
     </g>
     <g id="text_1">
      <text style="font: 10px 'DejaVu Sans', 'Bitstream Vera Sans', 'Computer Modern Sans Serif', 'Lucida Grande', 'Verdana', 'Geneva', 'Lucid', 'Arial', 'Helvetica', 'Avant Garde', sans-serif; text-anchor: middle" x="74.448" y="362.790438" transform="rotate(-0 74.448 362.790438)">0</text>
     </g>
    </g>
    <g id="xtick_2">
     <g id="line2d_3">
      <path d="M 169.2 348.192 
L 169.2 93.744 
" clip-path="url(#p9f3391d683)" style="fill: none; stroke: #dfe5e8; stroke-width: 0.65; stroke-linecap: square"/>
     </g>
     <g id="line2d_4">
      <g>
       <use xlink:href="#mffcebc6a46" x="169.2" y="348.192" style="stroke: #000000; stroke-width: 0.8"/>
      </g>
     </g>
     <g id="text_2">
      <text style="font: 10px 'DejaVu Sans', 'Bitstream Vera Sans', 'Computer Modern Sans Serif', 'Lucida Grande', 'Verdana', 'Geneva', 'Lucid', 'Arial', 'Helvetica', 'Avant Garde', sans-serif; text-anchor: middle" x="169.2" y="362.790438" transform="rotate(-0 169.2 362.790438)">1</text>
     </g>
    </g>
    <g id="xtick_3">
     <g id="line2d_5">
      <path d="M 263.952 348.192 
L 263.952 93.744 
" clip-path="url(#p9f3391d683)" style="fill: none; stroke: #dfe5e8; stroke-width: 0.65; stroke-linecap: square"/>
     </g>
     <g id="line2d_6">
      <g>
       <use xlink:href="#mffcebc6a46" x="263.952" y="348.192" style="stroke: #000000; stroke-width: 0.8"/>
      </g>
     </g>
     <g id="text_3">
      <text style="font: 10px 'DejaVu Sans', 'Bitstream Vera Sans', 'Computer Modern Sans Serif', 'Lucida Grande', 'Verdana', 'Geneva', 'Lucid', 'Arial', 'Helvetica', 'Avant Garde', sans-serif; text-anchor: middle" x="263.952" y="362.790438" transform="rotate(-0 263.952 362.790438)">2</text>
     </g>
    </g>
    <g id="xtick_4">
     <g id="line2d_7">
      <path d="M 358.704 348.192 
L 358.704 93.744 
" clip-path="url(#p9f3391d683)" style="fill: none; stroke: #dfe5e8; stroke-width: 0.65; stroke-linecap: square"/>
     </g>
     <g id="line2d_8">
      <g>
       <use xlink:href="#mffcebc6a46" x="358.704" y="348.192" style="stroke: #000000; stroke-width: 0.8"/>
      </g>
     </g>
     <g id="text_4">
      <text style="font: 10px 'DejaVu Sans', 'Bitstream Vera Sans', 'Computer Modern Sans Serif', 'Lucida Grande', 'Verdana', 'Geneva', 'Lucid', 'Arial', 'Helvetica', 'Avant Garde', sans-serif; text-anchor: middle" x="358.704" y="362.790438" transform="rotate(-0 358.704 362.790438)">3</text>
     </g>
    </g>
    <g id="xtick_5">
     <g id="line2d_9">
      <path d="M 453.456 348.192 
L 453.456 93.744 
" clip-path="url(#p9f3391d683)" style="fill: none; stroke: #dfe5e8; stroke-width: 0.65; stroke-linecap: square"/>
     </g>
     <g id="line2d_10">
      <g>
       <use xlink:href="#mffcebc6a46" x="453.456" y="348.192" style="stroke: #000000; stroke-width: 0.8"/>
      </g>
     </g>
     <g id="text_5">
      <text style="font: 10px 'DejaVu Sans', 'Bitstream Vera Sans', 'Computer Modern Sans Serif', 'Lucida Grande', 'Verdana', 'Geneva', 'Lucid', 'Arial', 'Helvetica', 'Avant Garde', sans-serif; text-anchor: middle" x="453.456" y="362.790438" transform="rotate(-0 453.456 362.790438)">4</text>
     </g>
    </g>
    <g id="xtick_6">
     <g id="line2d_11">
      <path d="M 548.208 348.192 
L 548.208 93.744 
" clip-path="url(#p9f3391d683)" style="fill: none; stroke: #dfe5e8; stroke-width: 0.65; stroke-linecap: square"/>
     </g>
     <g id="line2d_12">
      <g>
       <use xlink:href="#mffcebc6a46" x="548.208" y="348.192" style="stroke: #000000; stroke-width: 0.8"/>
      </g>
     </g>
     <g id="text_6">
      <text style="font: 10px 'DejaVu Sans', 'Bitstream Vera Sans', 'Computer Modern Sans Serif', 'Lucida Grande', 'Verdana', 'Geneva', 'Lucid', 'Arial', 'Helvetica', 'Avant Garde', sans-serif; text-anchor: middle" x="548.208" y="362.790438" transform="rotate(-0 548.208 362.790438)">5</text>
     </g>
    </g>
    <g id="xtick_7">
     <g id="line2d_13">
      <path d="M 642.96 348.192 
L 642.96 93.744 
" clip-path="url(#p9f3391d683)" style="fill: none; stroke: #dfe5e8; stroke-width: 0.65; stroke-linecap: square"/>
     </g>
     <g id="line2d_14">
      <g>
       <use xlink:href="#mffcebc6a46" x="642.96" y="348.192" style="stroke: #000000; stroke-width: 0.8"/>
      </g>
     </g>
     <g id="text_7">
      <text style="font: 10px 'DejaVu Sans', 'Bitstream Vera Sans', 'Computer Modern Sans Serif', 'Lucida Grande', 'Verdana', 'Geneva', 'Lucid', 'Arial', 'Helvetica', 'Avant Garde', sans-serif; text-anchor: middle" x="642.96" y="362.790438" transform="rotate(-0 642.96 362.790438)">6</text>
     </g>
    </g>
    <g id="text_8">
     <text style="font: 10px 'DejaVu Sans', 'Bitstream Vera Sans', 'Computer Modern Sans Serif', 'Lucida Grande', 'Verdana', 'Geneva', 'Lucid', 'Arial', 'Helvetica', 'Avant Garde', sans-serif; text-anchor: middle" x="358.704" y="376.468563" transform="rotate(-0 358.704 376.468563)">sUCS dE threshold</text>
    </g>
   </g>
   <g id="matplotlib.axis_2">
    <g id="ytick_1">
     <g id="line2d_15">
      <path d="M 74.448 348.192 
L 642.96 348.192 
" clip-path="url(#p9f3391d683)" style="fill: none; stroke: #dfe5e8; stroke-width: 0.65; stroke-linecap: square"/>
     </g>
     <g id="line2d_16">
      <defs>
       <path id="m19c7be3786" d="M 0 0 
L -3.5 0 
" style="stroke: #000000; stroke-width: 0.8"/>
      </defs>
      <g>
       <use xlink:href="#m19c7be3786" x="74.448" y="348.192" style="stroke: #000000; stroke-width: 0.8"/>
      </g>
     </g>
     <g id="text_9">
      <text style="font: 10px 'DejaVu Sans', 'Bitstream Vera Sans', 'Computer Modern Sans Serif', 'Lucida Grande', 'Verdana', 'Geneva', 'Lucid', 'Arial', 'Helvetica', 'Avant Garde', sans-serif; text-anchor: end" x="67.448" y="351.991219" transform="rotate(-0 67.448 351.991219)">0</text>
     </g>
    </g>
    <g id="ytick_2">
     <g id="line2d_17">
      <path d="M 74.448 297.3024 
L 642.96 297.3024 
" clip-path="url(#p9f3391d683)" style="fill: none; stroke: #dfe5e8; stroke-width: 0.65; stroke-linecap: square"/>
     </g>
     <g id="line2d_18">
      <g>
       <use xlink:href="#m19c7be3786" x="74.448" y="297.3024" style="stroke: #000000; stroke-width: 0.8"/>
      </g>
     </g>
     <g id="text_10">
      <text style="font: 10px 'DejaVu Sans', 'Bitstream Vera Sans', 'Computer Modern Sans Serif', 'Lucida Grande', 'Verdana', 'Geneva', 'Lucid', 'Arial', 'Helvetica', 'Avant Garde', sans-serif; text-anchor: end" x="67.448" y="301.101619" transform="rotate(-0 67.448 301.101619)">20</text>
     </g>
    </g>
    <g id="ytick_3">
     <g id="line2d_19">
      <path d="M 74.448 246.4128 
L 642.96 246.4128 
" clip-path="url(#p9f3391d683)" style="fill: none; stroke: #dfe5e8; stroke-width: 0.65; stroke-linecap: square"/>
     </g>
     <g id="line2d_20">
      <g>
       <use xlink:href="#m19c7be3786" x="74.448" y="246.4128" style="stroke: #000000; stroke-width: 0.8"/>
      </g>
     </g>
     <g id="text_11">
      <text style="font: 10px 'DejaVu Sans', 'Bitstream Vera Sans', 'Computer Modern Sans Serif', 'Lucida Grande', 'Verdana', 'Geneva', 'Lucid', 'Arial', 'Helvetica', 'Avant Garde', sans-serif; text-anchor: end" x="67.448" y="250.212019" transform="rotate(-0 67.448 250.212019)">40</text>
     </g>
    </g>
    <g id="ytick_4">
     <g id="line2d_21">
      <path d="M 74.448 195.5232 
L 642.96 195.5232 
" clip-path="url(#p9f3391d683)" style="fill: none; stroke: #dfe5e8; stroke-width: 0.65; stroke-linecap: square"/>
     </g>
     <g id="line2d_22">
      <g>
       <use xlink:href="#m19c7be3786" x="74.448" y="195.5232" style="stroke: #000000; stroke-width: 0.8"/>
      </g>
     </g>
     <g id="text_12">
      <text style="font: 10px 'DejaVu Sans', 'Bitstream Vera Sans', 'Computer Modern Sans Serif', 'Lucida Grande', 'Verdana', 'Geneva', 'Lucid', 'Arial', 'Helvetica', 'Avant Garde', sans-serif; text-anchor: end" x="67.448" y="199.322419" transform="rotate(-0 67.448 199.322419)">60</text>
     </g>
    </g>
    <g id="ytick_5">
     <g id="line2d_23">
      <path d="M 74.448 144.6336 
L 642.96 144.6336 
" clip-path="url(#p9f3391d683)" style="fill: none; stroke: #dfe5e8; stroke-width: 0.65; stroke-linecap: square"/>
     </g>
     <g id="line2d_24">
      <g>
       <use xlink:href="#m19c7be3786" x="74.448" y="144.6336" style="stroke: #000000; stroke-width: 0.8"/>
      </g>
     </g>
     <g id="text_13">
      <text style="font: 10px 'DejaVu Sans', 'Bitstream Vera Sans', 'Computer Modern Sans Serif', 'Lucida Grande', 'Verdana', 'Geneva', 'Lucid', 'Arial', 'Helvetica', 'Avant Garde', sans-serif; text-anchor: end" x="67.448" y="148.432819" transform="rotate(-0 67.448 148.432819)">80</text>
     </g>
    </g>
    <g id="ytick_6">
     <g id="line2d_25">
      <path d="M 74.448 93.744 
L 642.96 93.744 
" clip-path="url(#p9f3391d683)" style="fill: none; stroke: #dfe5e8; stroke-width: 0.65; stroke-linecap: square"/>
     </g>
     <g id="line2d_26">
      <g>
       <use xlink:href="#m19c7be3786" x="74.448" y="93.744" style="stroke: #000000; stroke-width: 0.8"/>
      </g>
     </g>
     <g id="text_14">
      <text style="font: 10px 'DejaVu Sans', 'Bitstream Vera Sans', 'Computer Modern Sans Serif', 'Lucida Grande', 'Verdana', 'Geneva', 'Lucid', 'Arial', 'Helvetica', 'Avant Garde', sans-serif; text-anchor: end" x="67.448" y="97.543219" transform="rotate(-0 67.448 97.543219)">100</text>
     </g>
    </g>
    <g id="text_15">
     <text style="font: 10px 'DejaVu Sans', 'Bitstream Vera Sans', 'Computer Modern Sans Serif', 'Lucida Grande', 'Verdana', 'Geneva', 'Lucid', 'Arial', 'Helvetica', 'Avant Garde', sans-serif; text-anchor: middle" x="42.280812" y="220.968" transform="rotate(-90 42.280812 220.968)">observers%</text>
    </g>
   </g>
   <g id="line2d_27">
    <path d="M 74.448 348.192 
L 83.9232 348.192 
L 85.81824 346.560923 
L 87.71328 343.298769 
L 91.50336 338.911735 
L 97.18848 338.911735 
L 100.97856 334.5247 
L 102.8736 332.893623 
L 104.76864 332.893623 
L 106.66368 331.262546 
L 108.55872 329.069029 
L 110.45376 327.437952 
L 112.3488 327.437952 
L 116.13888 324.175798 
L 118.03392 318.157687 
L 119.92896 310.508499 
L 121.824 310.508499 
L 123.71904 306.683905 
L 125.61408 304.490387 
L 127.50912 298.472276 
L 129.40416 298.472276 
L 133.19424 290.823088 
L 135.08928 283.173899 
L 136.98432 280.980382 
L 138.87936 280.980382 
L 142.66944 273.331194 
L 144.56448 271.137676 
L 146.45952 265.119565 
L 148.35456 260.226334 
L 150.2496 260.226334 
L 152.14464 256.40174 
L 154.03968 254.208223 
L 155.93472 252.577146 
L 157.82976 245.490398 
L 159.7248 236.210133 
L 161.61984 236.210133 
L 163.51488 234.579056 
L 165.40992 229.123385 
L 167.30496 225.861231 
L 169.2 225.861231 
L 171.09504 224.230154 
L 172.99008 220.968 
L 174.88512 217.143406 
L 176.78016 209.494218 
L 178.6752 200.213952 
L 180.57024 188.74017 
L 182.46528 187.109093 
L 184.36032 183.846939 
L 191.94048 183.846939 
L 193.83552 181.653422 
L 195.73056 181.653422 
L 197.6256 177.828828 
L 199.52064 174.566674 
L 201.41568 172.935597 
L 203.31072 172.935597 
L 205.20576 165.286408 
L 207.1008 163.092891 
L 208.99584 161.461814 
L 210.89088 161.461814 
L 212.78592 153.812626 
L 214.68096 152.181549 
L 216.576 152.181549 
L 218.47104 148.356955 
L 220.36608 146.725878 
L 222.26112 139.63913 
L 224.15616 139.63913 
L 226.0512 137.445613 
L 229.84128 137.445613 
L 231.73632 135.252095 
L 233.63136 133.621019 
L 235.5264 129.233984 
L 237.42144 127.040467 
L 241.21152 119.391279 
L 250.68672 119.391279 
L 252.58176 117.760202 
L 256.37184 117.760202 
L 258.26688 114.498048 
L 260.16192 114.498048 
L 262.05696 111.235894 
L 263.952 109.604817 
L 275.32224 109.604817 
L 277.21728 107.97374 
L 279.11232 103.586706 
L 282.9024 103.586706 
L 284.79744 101.393188 
L 286.69248 99.762111 
L 294.27264 99.762111 
L 296.16768 97.568594 
L 315.11808 97.568594 
L 317.01312 95.375077 
L 320.8032 95.375077 
L 322.69824 93.744 
L 642.96 93.744 
L 642.96 93.744 
" clip-path="url(#p9f3391d683)" style="fill: none; stroke: #252525; stroke-width: 2.5; stroke-linecap: square"/>
   </g>
   <g id="line2d_28">
    <path d="M 74.448 348.192 
L 85.81824 348.192 
L 91.50336 341.611448 
L 106.66368 341.611448 
L 108.55872 339.980371 
L 114.24384 333.39982 
L 116.13888 329.012785 
L 118.03392 322.432233 
L 119.92896 322.432233 
L 123.71904 318.045199 
L 127.50912 318.045199 
L 133.19424 304.884095 
L 142.66944 304.884095 
L 144.56448 298.303544 
L 148.35456 298.303544 
L 152.14464 289.529475 
L 154.03968 287.335958 
L 155.93472 285.704881 
L 157.82976 285.704881 
L 159.7248 284.073804 
L 161.61984 284.073804 
L 163.51488 279.686769 
L 165.40992 277.493252 
L 169.2 277.493252 
L 171.09504 275.299735 
L 172.99008 273.668658 
L 174.88512 267.088106 
L 176.78016 263.263512 
L 178.6752 258.876477 
L 180.57024 251.227289 
L 182.46528 246.840255 
L 184.36032 246.840255 
L 186.25536 244.646737 
L 188.1504 240.259703 
L 190.04544 240.259703 
L 191.94048 238.066186 
L 199.52064 238.066186 
L 201.41568 235.872668 
L 205.20576 235.872668 
L 208.99584 232.610515 
L 210.89088 226.592403 
L 212.78592 222.767809 
L 214.68096 222.767809 
L 216.576 220.574292 
L 218.47104 220.574292 
L 220.36608 218.943215 
L 224.15616 212.418907 
L 226.0512 208.594313 
L 227.94624 206.963236 
L 229.84128 201.507565 
L 233.63136 201.507565 
L 235.5264 199.876488 
L 237.42144 197.682971 
L 239.31648 197.682971 
L 241.21152 196.051894 
L 246.89664 196.051894 
L 248.79168 192.2273 
L 250.68672 187.334069 
L 252.58176 181.878398 
L 254.4768 178.053804 
L 256.37184 174.79165 
L 258.26688 174.79165 
L 260.16192 171.529496 
L 262.05696 169.898419 
L 263.952 169.898419 
L 265.84704 168.267342 
L 267.74208 168.267342 
L 269.63712 166.636265 
L 271.53216 161.743034 
L 273.4272 160.111958 
L 275.32224 160.111958 
L 277.21728 151.956573 
L 279.11232 147.063342 
L 281.00736 147.063342 
L 282.9024 143.801188 
L 284.79744 139.976594 
L 286.69248 138.345517 
L 288.58752 135.083363 
L 296.16768 135.083363 
L 298.06272 133.452286 
L 301.8528 133.452286 
L 305.64288 130.190133 
L 307.53792 126.927979 
L 309.43296 126.927979 
L 311.328 125.296902 
L 313.22304 119.841231 
L 317.01312 119.841231 
L 318.90816 114.948 
L 320.8032 113.316923 
L 326.48832 113.316923 
L 330.2784 110.054769 
L 332.17344 110.054769 
L 334.06848 108.423692 
L 337.85856 108.423692 
L 339.7536 106.792615 
L 343.54368 106.792615 
L 345.43872 105.161538 
L 349.2288 105.161538 
L 351.12384 103.530462 
L 362.49408 103.530462 
L 364.38912 101.899385 
L 366.28416 101.899385 
L 368.1792 100.268308 
L 370.07424 100.268308 
L 371.96928 98.637231 
L 379.54944 98.637231 
L 383.33952 95.375077 
L 425.0304 95.375077 
L 426.92544 93.744 
L 642.96 93.744 
L 642.96 93.744 
" clip-path="url(#p9f3391d683)" style="fill: none; stroke: #3b83b4; stroke-width: 1.35; stroke-linecap: square"/>
   </g>
   <g id="line2d_29">
    <path d="M 74.448 348.192 
L 83.9232 348.192 
L 85.81824 346.560923 
L 87.71328 346.560923 
L 89.60832 344.929846 
L 91.50336 341.667692 
L 93.3984 340.036615 
L 95.29344 335.143385 
L 97.18848 335.143385 
L 99.08352 331.881231 
L 100.97856 330.250154 
L 102.8736 326.988 
L 106.66368 326.988 
L 108.55872 323.163406 
L 112.3488 313.376944 
L 114.24384 310.11479 
L 116.13888 305.22156 
L 119.92896 298.697252 
L 127.50912 292.172944 
L 129.40416 287.78591 
L 131.2992 286.154833 
L 135.08928 274.11861 
L 136.98432 270.294016 
L 140.7744 260.507554 
L 142.66944 253.983247 
L 146.45952 250.721093 
L 148.35456 247.458939 
L 150.2496 242.565708 
L 152.14464 238.178674 
L 154.03968 238.178674 
L 155.93472 230.529485 
L 157.82976 228.335968 
L 159.7248 228.335968 
L 161.61984 226.704891 
L 163.51488 226.704891 
L 165.40992 224.511374 
L 167.30496 222.880297 
L 169.2 222.880297 
L 171.09504 220.68678 
L 172.99008 217.424626 
L 174.88512 215.793549 
L 176.78016 215.793549 
L 178.6752 211.968955 
L 180.57024 202.68869 
L 182.46528 198.301655 
L 184.36032 198.301655 
L 186.25536 194.477061 
L 188.1504 192.283544 
L 190.04544 192.283544 
L 191.94048 190.652467 
L 193.83552 190.652467 
L 195.73056 189.02139 
L 197.6256 185.196796 
L 199.52064 179.178684 
L 201.41568 175.916531 
L 205.20576 175.916531 
L 207.1008 174.285454 
L 210.89088 169.898419 
L 212.78592 169.898419 
L 214.68096 166.073825 
L 216.576 161.68679 
L 220.36608 154.037602 
L 224.15616 154.037602 
L 226.0512 151.844085 
L 227.94624 151.844085 
L 229.84128 148.019491 
L 233.63136 143.632456 
L 235.5264 143.632456 
L 241.21152 137.051905 
L 243.10656 137.051905 
L 245.0016 132.66487 
L 254.4768 132.66487 
L 258.26688 128.277836 
L 260.16192 128.277836 
L 262.05696 126.646759 
L 271.53216 126.646759 
L 277.21728 120.066207 
L 279.11232 120.066207 
L 282.9024 115.679172 
L 286.69248 115.679172 
L 288.58752 113.485655 
L 290.48256 113.485655 
L 292.3776 111.292138 
L 294.27264 106.905103 
L 296.16768 104.711586 
L 318.90816 104.711586 
L 320.8032 102.518069 
L 324.59328 102.518069 
L 326.48832 100.324552 
L 339.7536 100.324552 
L 343.54368 95.937517 
L 371.96928 95.937517 
L 373.86432 93.744 
L 642.96 93.744 
L 642.96 93.744 
" clip-path="url(#p9f3391d683)" style="fill: none; stroke-dasharray: 4.995,2.16; stroke-dashoffset: 0; stroke: #c38a19; stroke-width: 1.35"/>
   </g>
   <g id="line2d_30">
    <path d="M 74.448 348.192 
L 89.60832 348.192 
L 93.3984 343.804966 
L 95.29344 343.804966 
L 97.18848 341.611448 
L 99.08352 337.786854 
L 100.97856 336.155777 
L 102.8736 333.96226 
L 112.3488 333.96226 
L 114.24384 330.700106 
L 116.13888 326.313072 
L 118.03392 324.681995 
L 119.92896 316.470366 
L 123.71904 316.470366 
L 125.61408 312.645772 
L 127.50912 303.365507 
L 129.40416 303.365507 
L 131.2992 297.909836 
L 133.19424 293.016605 
L 135.08928 288.62957 
L 136.98432 288.62957 
L 140.7744 285.367416 
L 142.66944 281.542822 
L 144.56448 279.349305 
L 146.45952 277.718228 
L 148.35456 277.718228 
L 152.14464 268.944159 
L 154.03968 268.944159 
L 155.93472 261.857411 
L 157.82976 256.40174 
L 159.7248 252.577146 
L 161.61984 247.683915 
L 165.40992 236.772573 
L 167.30496 232.385538 
L 169.2 226.929867 
L 172.99008 222.542833 
L 174.88512 218.718239 
L 176.78016 218.718239 
L 178.6752 211.06905 
L 180.57024 209.437973 
L 182.46528 202.351225 
L 184.36032 195.826918 
L 186.25536 195.826918 
L 188.1504 194.195841 
L 190.04544 190.371247 
L 193.83552 187.109093 
L 195.73056 182.722058 
L 199.52064 179.459905 
L 201.41568 174.566674 
L 203.31072 170.74208 
L 205.20576 170.74208 
L 207.1008 169.111003 
L 208.99584 164.723968 
L 210.89088 161.461814 
L 212.78592 157.07478 
L 214.68096 154.881263 
L 216.576 151.619109 
L 218.47104 149.425592 
L 220.36608 149.425592 
L 222.26112 145.600997 
L 224.15616 140.145326 
L 231.73632 131.371257 
L 233.63136 128.109103 
L 235.5264 126.478027 
L 239.31648 126.478027 
L 241.21152 124.84695 
L 243.10656 124.84695 
L 245.0016 121.584796 
L 246.89664 121.584796 
L 248.79168 119.953719 
L 254.4768 119.953719 
L 256.37184 118.322642 
L 258.26688 118.322642 
L 260.16192 114.498048 
L 262.05696 112.304531 
L 265.84704 112.304531 
L 267.74208 110.111013 
L 269.63712 108.479936 
L 273.4272 108.479936 
L 275.32224 102.461825 
L 279.11232 102.461825 
L 281.00736 100.830748 
L 282.9024 100.830748 
L 284.79744 99.199671 
L 288.58752 99.199671 
L 290.48256 97.568594 
L 303.74784 97.568594 
L 305.64288 95.375077 
L 330.2784 95.375077 
L 332.17344 93.744 
L 642.96 93.744 
L 642.96 93.744 
" clip-path="url(#p9f3391d683)" style="fill: none; stroke-dasharray: 1.35,2.2275; stroke-dashoffset: 0; stroke: #7d8a92; stroke-width: 1.35"/>
   </g>
   <g id="line2d_31">
    <path d="M 74.448 348.192 
L 97.18848 348.192 
L 99.08352 345.998483 
L 100.97856 345.998483 
L 104.76864 341.611448 
L 106.66368 341.611448 
L 108.55872 339.417931 
L 112.3488 339.417931 
L 114.24384 337.224414 
L 125.61408 337.224414 
L 127.50912 335.030897 
L 131.2992 335.030897 
L 133.19424 332.837379 
L 135.08928 331.206302 
L 136.98432 331.206302 
L 138.87936 329.012785 
L 140.7744 329.012785 
L 142.66944 324.625751 
L 144.56448 324.625751 
L 150.2496 318.045199 
L 152.14464 313.658164 
L 154.03968 313.658164 
L 155.93472 311.464647 
L 167.30496 311.464647 
L 169.2 307.077613 
L 171.09504 304.884095 
L 172.99008 300.497061 
L 178.6752 300.497061 
L 180.57024 293.916509 
L 184.36032 285.14244 
L 188.1504 280.755406 
L 191.94048 280.755406 
L 193.83552 279.124329 
L 201.41568 279.124329 
L 205.20576 274.737294 
L 207.1008 274.737294 
L 208.99584 272.543777 
L 210.89088 272.543777 
L 212.78592 263.769708 
L 214.68096 262.138631 
L 218.47104 262.138631 
L 220.36608 259.945114 
L 222.26112 259.945114 
L 224.15616 257.751597 
L 229.84128 257.751597 
L 231.73632 253.927003 
L 233.63136 251.733485 
L 235.5264 244.084297 
L 237.42144 241.89078 
L 239.31648 238.628626 
L 241.21152 232.048074 
L 245.0016 232.048074 
L 246.89664 229.854557 
L 254.4768 229.854557 
L 256.37184 228.22348 
L 258.26688 228.22348 
L 260.16192 226.592403 
L 262.05696 226.592403 
L 263.952 224.961326 
L 265.84704 224.961326 
L 267.74208 221.136732 
L 273.4272 216.243501 
L 275.32224 209.156753 
L 277.21728 207.525676 
L 279.11232 207.525676 
L 281.00736 203.701082 
L 282.9024 203.701082 
L 284.79744 199.876488 
L 292.3776 199.876488 
L 294.27264 194.420817 
L 296.16768 194.420817 
L 298.06272 191.158663 
L 299.95776 191.158663 
L 301.8528 189.527586 
L 303.74784 186.265432 
L 305.64288 186.265432 
L 307.53792 179.178684 
L 309.43296 179.178684 
L 311.328 172.091936 
L 313.22304 166.636265 
L 318.90816 166.636265 
L 320.8032 158.480881 
L 322.69824 155.218727 
L 326.48832 151.956573 
L 328.38336 148.694419 
L 330.2784 148.694419 
L 332.17344 147.063342 
L 334.06848 143.801188 
L 335.96352 142.170111 
L 339.7536 135.645804 
L 341.64864 135.645804 
L 343.54368 130.190133 
L 345.43872 128.559056 
L 351.12384 128.559056 
L 356.80896 123.665825 
L 358.704 120.403671 
L 360.59904 120.403671 
L 362.49408 118.772594 
L 364.38912 118.772594 
L 366.28416 114.948 
L 375.75936 114.948 
L 377.6544 113.316923 
L 379.54944 110.054769 
L 383.33952 110.054769 
L 385.23456 108.423692 
L 389.02464 108.423692 
L 392.81472 105.161538 
L 400.39488 105.161538 
L 402.28992 103.530462 
L 409.87008 103.530462 
L 411.76512 101.899385 
L 417.45024 101.899385 
L 419.34528 98.637231 
L 423.13536 98.637231 
L 425.0304 97.006154 
L 432.61056 97.006154 
L 434.5056 95.375077 
L 472.4064 95.375077 
L 474.30144 93.744 
L 642.96 93.744 
L 642.96 93.744 
" clip-path="url(#p9f3391d683)" style="fill: none; stroke-dasharray: 8.64,2.16,1.35,2.16; stroke-dashoffset: 0; stroke: #d0526a; stroke-width: 1.35"/>
   </g>
   <g id="line2d_32">
    <path d="M 74.448 348.192 
L 93.3984 348.192 
L 95.29344 345.998483 
L 112.3488 345.998483 
L 114.24384 343.804966 
L 129.40416 343.804966 
L 131.2992 341.611448 
L 138.87936 341.611448 
L 140.7744 339.417931 
L 142.66944 339.417931 
L 144.56448 337.224414 
L 150.2496 337.224414 
L 152.14464 335.030897 
L 155.93472 335.030897 
L 157.82976 332.837379 
L 159.7248 332.837379 
L 161.61984 326.256828 
L 169.2 326.256828 
L 171.09504 324.625751 
L 172.99008 322.432233 
L 174.88512 322.432233 
L 176.78016 320.238716 
L 178.6752 315.851682 
L 186.25536 307.077613 
L 190.04544 307.077613 
L 191.94048 302.690578 
L 199.52064 302.690578 
L 201.41568 300.497061 
L 203.31072 300.497061 
L 205.20576 296.110027 
L 207.1008 296.110027 
L 208.99584 293.916509 
L 216.576 293.916509 
L 218.47104 287.335958 
L 222.26112 282.948923 
L 224.15616 281.317846 
L 226.0512 279.124329 
L 239.31648 279.124329 
L 241.21152 274.737294 
L 245.0016 270.35026 
L 248.79168 270.35026 
L 250.68672 265.963225 
L 252.58176 259.945114 
L 260.16192 259.945114 
L 262.05696 257.751597 
L 263.952 257.751597 
L 265.84704 256.12052 
L 267.74208 252.295926 
L 269.63712 247.908891 
L 271.53216 241.89078 
L 273.4272 241.89078 
L 275.32224 236.435109 
L 277.21728 236.435109 
L 281.00736 232.048074 
L 282.9024 228.22348 
L 290.48256 228.22348 
L 292.3776 226.592403 
L 298.06272 226.592403 
L 299.95776 223.330249 
L 301.8528 219.505655 
L 303.74784 216.243501 
L 305.64288 216.243501 
L 307.53792 214.612424 
L 309.43296 211.350271 
L 311.328 209.719194 
L 313.22304 207.525676 
L 315.11808 207.525676 
L 317.01312 205.894599 
L 318.90816 205.894599 
L 320.8032 199.876488 
L 322.69824 199.876488 
L 324.59328 198.245411 
L 326.48832 198.245411 
L 330.2784 194.983257 
L 332.17344 191.158663 
L 335.96352 187.896509 
L 339.7536 181.372202 
L 341.64864 179.741125 
L 343.54368 174.285454 
L 345.43872 172.654377 
L 347.33376 169.392223 
L 349.2288 167.198706 
L 351.12384 165.567629 
L 353.01888 158.480881 
L 354.91392 151.956573 
L 358.704 148.694419 
L 360.59904 148.694419 
L 364.38912 145.432265 
L 366.28416 145.432265 
L 368.1792 143.801188 
L 370.07424 140.539034 
L 371.96928 140.539034 
L 377.6544 130.752573 
L 379.54944 128.559056 
L 381.44448 128.559056 
L 383.33952 126.927979 
L 385.23456 123.665825 
L 387.1296 123.665825 
L 389.02464 118.772594 
L 394.70976 118.772594 
L 396.6048 117.141517 
L 400.39488 117.141517 
L 402.28992 114.948 
L 411.76512 114.948 
L 413.66016 111.685846 
L 415.5552 111.685846 
L 417.45024 108.423692 
L 419.34528 106.792615 
L 425.0304 106.792615 
L 426.92544 105.161538 
L 436.40064 105.161538 
L 438.29568 103.530462 
L 440.19072 103.530462 
L 442.08576 101.899385 
L 443.9808 101.899385 
L 445.87584 100.268308 
L 449.66592 100.268308 
L 451.56096 98.637231 
L 457.24608 98.637231 
L 459.14112 97.006154 
L 464.82624 97.006154 
L 466.72128 95.375077 
L 504.62208 95.375077 
L 506.51712 93.744 
L 642.96 93.744 
L 642.96 93.744 
" clip-path="url(#p9f3391d683)" style="fill: none; stroke-dasharray: 6.75,2.7,1.35,2.7; stroke-dashoffset: 0; stroke: #2f8f84; stroke-width: 1.35"/>
   </g>
   <g id="patch_4">
    <path d="M 74.448 348.192 
L 74.448 93.744 
" style="fill: none; stroke: #000000; stroke-width: 0.8; stroke-linejoin: miter; stroke-linecap: square"/>
   </g>
   <g id="patch_5">
    <path d="M 74.448 348.192 
L 642.96 348.192 
" style="fill: none; stroke: #000000; stroke-width: 0.8; stroke-linejoin: miter; stroke-linecap: square"/>
   </g>
  </g>
  <g id="text_16">
   <text style="font: 18px 'DejaVu Sans', 'Bitstream Vera Sans', 'Computer Modern Sans Serif', 'Lucida Grande', 'Verdana', 'Geneva', 'Lucid', 'Arial', 'Helvetica', 'Avant Garde', sans-serif; text-anchor: start" x="74.448" y="38.229188" transform="rotate(-0 74.448 38.229188)">WLED LCD → WOLED</text>
  </g>
  <g id="text_17">
   <text style="fill: #66747c; font: 10px 'DejaVu Sans', 'Bitstream Vera Sans', 'Computer Modern Sans Serif', 'Lucida Grande', 'Verdana', 'Geneva', 'Lucid', 'Arial', 'Helvetica', 'Avant Garde', sans-serif; text-anchor: start" x="74.448" y="64.728" transform="rotate(-0 74.448 64.728)">LED-RGB1</text>
  </g>
  <g id="legend_1">
   <g id="line2d_33">
    <path d="M 185.17875 404.151391 
L 194.27875 404.151391 
L 203.37875 404.151391 
" style="fill: none; stroke: #252525; stroke-width: 2.5; stroke-linecap: square"/>
   </g>
   <g id="text_18">
    <text style="font: 9.1px 'DejaVu Sans', 'Bitstream Vera Sans', 'Computer Modern Sans Serif', 'Lucida Grande', 'Verdana', 'Geneva', 'Lucid', 'Arial', 'Helvetica', 'Avant Garde', sans-serif; text-anchor: start" x="210.65875" y="407.336391" transform="rotate(-0 210.65875 407.336391)">Potera CMF</text>
   </g>
   <g id="line2d_34">
    <path d="M 185.17875 417.508484 
L 194.27875 417.508484 
L 203.37875 417.508484 
" style="fill: none; stroke: #3b83b4; stroke-width: 1.35; stroke-linecap: square"/>
   </g>
   <g id="text_19">
    <text style="font: 9.1px 'DejaVu Sans', 'Bitstream Vera Sans', 'Computer Modern Sans Serif', 'Lucida Grande', 'Verdana', 'Geneva', 'Lucid', 'Arial', 'Helvetica', 'Avant Garde', sans-serif; text-anchor: start" x="210.65875" y="420.693484" transform="rotate(-0 210.65875 420.693484)">CIE 2015 2°</text>
   </g>
   <g id="line2d_35">
    <path d="M 282.931234 404.151391 
L 292.031234 404.151391 
L 301.131234 404.151391 
" style="fill: none; stroke-dasharray: 4.995,2.16; stroke-dashoffset: 0; stroke: #c38a19; stroke-width: 1.35"/>
   </g>
   <g id="text_20">
    <text style="font: 9.1px 'DejaVu Sans', 'Bitstream Vera Sans', 'Computer Modern Sans Serif', 'Lucida Grande', 'Verdana', 'Geneva', 'Lucid', 'Arial', 'Helvetica', 'Avant Garde', sans-serif; text-anchor: start" x="308.411234" y="407.336391" transform="rotate(-0 308.411234 407.336391)">CIE 2015 10°</text>
   </g>
   <g id="line2d_36">
    <path d="M 282.931234 417.508484 
L 292.031234 417.508484 
L 301.131234 417.508484 
" style="fill: none; stroke-dasharray: 1.35,2.2275; stroke-dashoffset: 0; stroke: #7d8a92; stroke-width: 1.35"/>
   </g>
   <g id="text_21">
    <text style="font: 9.1px 'DejaVu Sans', 'Bitstream Vera Sans', 'Computer Modern Sans Serif', 'Lucida Grande', 'Verdana', 'Geneva', 'Lucid', 'Arial', 'Helvetica', 'Avant Garde', sans-serif; text-anchor: start" x="308.411234" y="420.693484" transform="rotate(-0 308.411234 420.693484)">CIE 1964 10°</text>
   </g>
   <g id="line2d_37">
    <path d="M 386.473594 404.151391 
L 395.573594 404.151391 
L 404.673594 404.151391 
" style="fill: none; stroke-dasharray: 8.64,2.16,1.35,2.16; stroke-dashoffset: 0; stroke: #d0526a; stroke-width: 1.35"/>
   </g>
   <g id="text_22">
    <text style="font: 9.1px 'DejaVu Sans', 'Bitstream Vera Sans', 'Computer Modern Sans Serif', 'Lucida Grande', 'Verdana', 'Geneva', 'Lucid', 'Arial', 'Helvetica', 'Avant Garde', sans-serif; text-anchor: start" x="411.953594" y="407.336391" transform="rotate(-0 411.953594 407.336391)">CIE 1931 2°</text>
   </g>
   <g id="line2d_38">
    <path d="M 386.473594 417.508484 
L 395.573594 417.508484 
L 404.673594 417.508484 
" style="fill: none; stroke-dasharray: 6.75,2.7,1.35,2.7; stroke-dashoffset: 0; stroke: #2f8f84; stroke-width: 1.35"/>
   </g>
   <g id="text_23">
    <text style="font: 9.1px 'DejaVu Sans', 'Bitstream Vera Sans', 'Computer Modern Sans Serif', 'Lucida Grande', 'Verdana', 'Geneva', 'Lucid', 'Arial', 'Helvetica', 'Avant Garde', sans-serif; text-anchor: start" x="411.953594" y="420.693484" transform="rotate(-0 411.953594 420.693484)">Judd–Vos 1978 2°</text>
   </g>
  </g>
 </g>
 <defs>
  <clipPath id="p9f3391d683">
   <rect x="74.448" y="93.744" width="568.512" height="254.448"/>
  </clipPath>
 </defs>
</svg>
