<?xml version="1.0" encoding="utf-8" standalone="no"?>
<!DOCTYPE svg PUBLIC "-//W3C//DTD SVG 1.1//EN"
  "http://www.w3.org/Graphics/SVG/1.1/DTD/svg11.dtd">
<svg xmlns:xlink="http://www.w3.org/1999/xlink" width="676.8pt" height="446.4pt" viewBox="0 0 676.8 446.4" xmlns="http://www.w3.org/2000/svg" version="1.1">
 <metadata>
  <rdf:RDF xmlns:dc="http://purl.org/dc/elements/1.1/" xmlns:cc="http://creativecommons.org/ns#" xmlns:rdf="http://www.w3.org/1999/02/22-rdf-syntax-ns#">
   <cc:Work>
    <dc:type rdf:resource="http://purl.org/dc/dcmitype/StillImage"/>
    <dc:date>2026-07-20T06:42:01.054556</dc:date>
    <dc:format>image/svg+xml</dc:format>
    <dc:creator>
     <cc:Agent>
      <dc:title>Matplotlib v3.9.4, https://matplotlib.org/</dc:title>
     </cc:Agent>
    </dc:creator>
   </cc:Work>
  </rdf:RDF>
 </metadata>
 <defs>
  <style type="text/css">*{stroke-linejoin: round; stroke-linecap: butt}</style>
 </defs>
 <g id="figure_1">
  <g id="patch_1">
   <path d="M 0 446.4 
L 676.8 446.4 
L 676.8 0 
L 0 0 
z
" style="fill: #ffffff"/>
  </g>
  <g id="axes_1">
   <g id="patch_2">
    <path d="M 74.448 348.192 
L 642.96 348.192 
L 642.96 93.744 
L 74.448 93.744 
z
" style="fill: #ffffff"/>
   </g>
   <g id="patch_3">
    <path d="M 169.2 348.192 
L 358.704 348.192 
L 358.704 93.744 
L 169.2 93.744 
z
" clip-path="url(#pf23c31091f)" style="fill: #e7f0ea; opacity: 0.58; stroke: #e7f0ea; stroke-linejoin: miter"/>
   </g>
   <g id="matplotlib.axis_1">
    <g id="xtick_1">
     <g id="line2d_1">
      <path d="M 74.448 348.192 
L 74.448 93.744 
" clip-path="url(#pf23c31091f)" style="fill: none; stroke: #dfe5e8; stroke-width: 0.65; stroke-linecap: square"/>
     </g>
     <g id="line2d_2">
      <defs>
       <path id="me0f336a7d9" d="M 0 0 
L 0 3.5 
" style="stroke: #000000; stroke-width: 0.8"/>
      </defs>
      <g>
       <use xlink:href="#me0f336a7d9" x="74.448" y="348.192" style="stroke: #000000; stroke-width: 0.8"/>
      </g>
     </g>
     <g id="text_1">
      <text style="font: 10px 'DejaVu Sans', 'Bitstream Vera Sans', 'Computer Modern Sans Serif', 'Lucida Grande', 'Verdana', 'Geneva', 'Lucid', 'Arial', 'Helvetica', 'Avant Garde', sans-serif; text-anchor: middle" x="74.448" y="362.790438" transform="rotate(-0 74.448 362.790438)">0</text>
     </g>
    </g>
    <g id="xtick_2">
     <g id="line2d_3">
      <path d="M 169.2 348.192 
L 169.2 93.744 
" clip-path="url(#pf23c31091f)" style="fill: none; stroke: #dfe5e8; stroke-width: 0.65; stroke-linecap: square"/>
     </g>
     <g id="line2d_4">
      <g>
       <use xlink:href="#me0f336a7d9" x="169.2" y="348.192" style="stroke: #000000; stroke-width: 0.8"/>
      </g>
     </g>
     <g id="text_2">
      <text style="font: 10px 'DejaVu Sans', 'Bitstream Vera Sans', 'Computer Modern Sans Serif', 'Lucida Grande', 'Verdana', 'Geneva', 'Lucid', 'Arial', 'Helvetica', 'Avant Garde', sans-serif; text-anchor: middle" x="169.2" y="362.790438" transform="rotate(-0 169.2 362.790438)">1</text>
     </g>
    </g>
    <g id="xtick_3">
     <g id="line2d_5">
      <path d="M 263.952 348.192 
L 263.952 93.744 
" clip-path="url(#pf23c31091f)" style="fill: none; stroke: #dfe5e8; stroke-width: 0.65; stroke-linecap: square"/>
     </g>
     <g id="line2d_6">
      <g>
       <use xlink:href="#me0f336a7d9" x="263.952" y="348.192" style="stroke: #000000; stroke-width: 0.8"/>
      </g>
     </g>
     <g id="text_3">
      <text style="font: 10px 'DejaVu Sans', 'Bitstream Vera Sans', 'Computer Modern Sans Serif', 'Lucida Grande', 'Verdana', 'Geneva', 'Lucid', 'Arial', 'Helvetica', 'Avant Garde', sans-serif; text-anchor: middle" x="263.952" y="362.790438" transform="rotate(-0 263.952 362.790438)">2</text>
     </g>
    </g>
    <g id="xtick_4">
     <g id="line2d_7">
      <path d="M 358.704 348.192 
L 358.704 93.744 
" clip-path="url(#pf23c31091f)" style="fill: none; stroke: #dfe5e8; stroke-width: 0.65; stroke-linecap: square"/>
     </g>
     <g id="line2d_8">
      <g>
       <use xlink:href="#me0f336a7d9" x="358.704" y="348.192" style="stroke: #000000; stroke-width: 0.8"/>
      </g>
     </g>
     <g id="text_4">
      <text style="font: 10px 'DejaVu Sans', 'Bitstream Vera Sans', 'Computer Modern Sans Serif', 'Lucida Grande', 'Verdana', 'Geneva', 'Lucid', 'Arial', 'Helvetica', 'Avant Garde', sans-serif; text-anchor: middle" x="358.704" y="362.790438" transform="rotate(-0 358.704 362.790438)">3</text>
     </g>
    </g>
    <g id="xtick_5">
     <g id="line2d_9">
      <path d="M 453.456 348.192 
L 453.456 93.744 
" clip-path="url(#pf23c31091f)" style="fill: none; stroke: #dfe5e8; stroke-width: 0.65; stroke-linecap: square"/>
     </g>
     <g id="line2d_10">
      <g>
       <use xlink:href="#me0f336a7d9" x="453.456" y="348.192" style="stroke: #000000; stroke-width: 0.8"/>
      </g>
     </g>
     <g id="text_5">
      <text style="font: 10px 'DejaVu Sans', 'Bitstream Vera Sans', 'Computer Modern Sans Serif', 'Lucida Grande', 'Verdana', 'Geneva', 'Lucid', 'Arial', 'Helvetica', 'Avant Garde', sans-serif; text-anchor: middle" x="453.456" y="362.790438" transform="rotate(-0 453.456 362.790438)">4</text>
     </g>
    </g>
    <g id="xtick_6">
     <g id="line2d_11">
      <path d="M 548.208 348.192 
L 548.208 93.744 
" clip-path="url(#pf23c31091f)" style="fill: none; stroke: #dfe5e8; stroke-width: 0.65; stroke-linecap: square"/>
     </g>
     <g id="line2d_12">
      <g>
       <use xlink:href="#me0f336a7d9" x="548.208" y="348.192" style="stroke: #000000; stroke-width: 0.8"/>
      </g>
     </g>
     <g id="text_6">
      <text style="font: 10px 'DejaVu Sans', 'Bitstream Vera Sans', 'Computer Modern Sans Serif', 'Lucida Grande', 'Verdana', 'Geneva', 'Lucid', 'Arial', 'Helvetica', 'Avant Garde', sans-serif; text-anchor: middle" x="548.208" y="362.790438" transform="rotate(-0 548.208 362.790438)">5</text>
     </g>
    </g>
    <g id="xtick_7">
     <g id="line2d_13">
      <path d="M 642.96 348.192 
L 642.96 93.744 
" clip-path="url(#pf23c31091f)" style="fill: none; stroke: #dfe5e8; stroke-width: 0.65; stroke-linecap: square"/>
     </g>
     <g id="line2d_14">
      <g>
       <use xlink:href="#me0f336a7d9" x="642.96" y="348.192" style="stroke: #000000; stroke-width: 0.8"/>
      </g>
     </g>
     <g id="text_7">
      <text style="font: 10px 'DejaVu Sans', 'Bitstream Vera Sans', 'Computer Modern Sans Serif', 'Lucida Grande', 'Verdana', 'Geneva', 'Lucid', 'Arial', 'Helvetica', 'Avant Garde', sans-serif; text-anchor: middle" x="642.96" y="362.790438" transform="rotate(-0 642.96 362.790438)">6</text>
     </g>
    </g>
    <g id="text_8">
     <text style="font: 10px 'DejaVu Sans', 'Bitstream Vera Sans', 'Computer Modern Sans Serif', 'Lucida Grande', 'Verdana', 'Geneva', 'Lucid', 'Arial', 'Helvetica', 'Avant Garde', sans-serif; text-anchor: middle" x="358.704" y="376.468563" transform="rotate(-0 358.704 376.468563)">sUCS dE threshold</text>
    </g>
   </g>
   <g id="matplotlib.axis_2">
    <g id="ytick_1">
     <g id="line2d_15">
      <path d="M 74.448 348.192 
L 642.96 348.192 
" clip-path="url(#pf23c31091f)" style="fill: none; stroke: #dfe5e8; stroke-width: 0.65; stroke-linecap: square"/>
     </g>
     <g id="line2d_16">
      <defs>
       <path id="m6c17f4dee0" d="M 0 0 
L -3.5 0 
" style="stroke: #000000; stroke-width: 0.8"/>
      </defs>
      <g>
       <use xlink:href="#m6c17f4dee0" x="74.448" y="348.192" style="stroke: #000000; stroke-width: 0.8"/>
      </g>
     </g>
     <g id="text_9">
      <text style="font: 10px 'DejaVu Sans', 'Bitstream Vera Sans', 'Computer Modern Sans Serif', 'Lucida Grande', 'Verdana', 'Geneva', 'Lucid', 'Arial', 'Helvetica', 'Avant Garde', sans-serif; text-anchor: end" x="67.448" y="351.991219" transform="rotate(-0 67.448 351.991219)">0</text>
     </g>
    </g>
    <g id="ytick_2">
     <g id="line2d_17">
      <path d="M 74.448 297.3024 
L 642.96 297.3024 
" clip-path="url(#pf23c31091f)" style="fill: none; stroke: #dfe5e8; stroke-width: 0.65; stroke-linecap: square"/>
     </g>
     <g id="line2d_18">
      <g>
       <use xlink:href="#m6c17f4dee0" x="74.448" y="297.3024" style="stroke: #000000; stroke-width: 0.8"/>
      </g>
     </g>
     <g id="text_10">
      <text style="font: 10px 'DejaVu Sans', 'Bitstream Vera Sans', 'Computer Modern Sans Serif', 'Lucida Grande', 'Verdana', 'Geneva', 'Lucid', 'Arial', 'Helvetica', 'Avant Garde', sans-serif; text-anchor: end" x="67.448" y="301.101619" transform="rotate(-0 67.448 301.101619)">20</text>
     </g>
    </g>
    <g id="ytick_3">
     <g id="line2d_19">
      <path d="M 74.448 246.4128 
L 642.96 246.4128 
" clip-path="url(#pf23c31091f)" style="fill: none; stroke: #dfe5e8; stroke-width: 0.65; stroke-linecap: square"/>
     </g>
     <g id="line2d_20">
      <g>
       <use xlink:href="#m6c17f4dee0" x="74.448" y="246.4128" style="stroke: #000000; stroke-width: 0.8"/>
      </g>
     </g>
     <g id="text_11">
      <text style="font: 10px 'DejaVu Sans', 'Bitstream Vera Sans', 'Computer Modern Sans Serif', 'Lucida Grande', 'Verdana', 'Geneva', 'Lucid', 'Arial', 'Helvetica', 'Avant Garde', sans-serif; text-anchor: end" x="67.448" y="250.212019" transform="rotate(-0 67.448 250.212019)">40</text>
     </g>
    </g>
    <g id="ytick_4">
     <g id="line2d_21">
      <path d="M 74.448 195.5232 
L 642.96 195.5232 
" clip-path="url(#pf23c31091f)" style="fill: none; stroke: #dfe5e8; stroke-width: 0.65; stroke-linecap: square"/>
     </g>
     <g id="line2d_22">
      <g>
       <use xlink:href="#m6c17f4dee0" x="74.448" y="195.5232" style="stroke: #000000; stroke-width: 0.8"/>
      </g>
     </g>
     <g id="text_12">
      <text style="font: 10px 'DejaVu Sans', 'Bitstream Vera Sans', 'Computer Modern Sans Serif', 'Lucida Grande', 'Verdana', 'Geneva', 'Lucid', 'Arial', 'Helvetica', 'Avant Garde', sans-serif; text-anchor: end" x="67.448" y="199.322419" transform="rotate(-0 67.448 199.322419)">60</text>
     </g>
    </g>
    <g id="ytick_5">
     <g id="line2d_23">
      <path d="M 74.448 144.6336 
L 642.96 144.6336 
" clip-path="url(#pf23c31091f)" style="fill: none; stroke: #dfe5e8; stroke-width: 0.65; stroke-linecap: square"/>
     </g>
     <g id="line2d_24">
      <g>
       <use xlink:href="#m6c17f4dee0" x="74.448" y="144.6336" style="stroke: #000000; stroke-width: 0.8"/>
      </g>
     </g>
     <g id="text_13">
      <text style="font: 10px 'DejaVu Sans', 'Bitstream Vera Sans', 'Computer Modern Sans Serif', 'Lucida Grande', 'Verdana', 'Geneva', 'Lucid', 'Arial', 'Helvetica', 'Avant Garde', sans-serif; text-anchor: end" x="67.448" y="148.432819" transform="rotate(-0 67.448 148.432819)">80</text>
     </g>
    </g>
    <g id="ytick_6">
     <g id="line2d_25">
      <path d="M 74.448 93.744 
L 642.96 93.744 
" clip-path="url(#pf23c31091f)" style="fill: none; stroke: #dfe5e8; stroke-width: 0.65; stroke-linecap: square"/>
     </g>
     <g id="line2d_26">
      <g>
       <use xlink:href="#m6c17f4dee0" x="74.448" y="93.744" style="stroke: #000000; stroke-width: 0.8"/>
      </g>
     </g>
     <g id="text_14">
      <text style="font: 10px 'DejaVu Sans', 'Bitstream Vera Sans', 'Computer Modern Sans Serif', 'Lucida Grande', 'Verdana', 'Geneva', 'Lucid', 'Arial', 'Helvetica', 'Avant Garde', sans-serif; text-anchor: end" x="67.448" y="97.543219" transform="rotate(-0 67.448 97.543219)">100</text>
     </g>
    </g>
    <g id="text_15">
     <text style="font: 10px 'DejaVu Sans', 'Bitstream Vera Sans', 'Computer Modern Sans Serif', 'Lucida Grande', 'Verdana', 'Geneva', 'Lucid', 'Arial', 'Helvetica', 'Avant Garde', sans-serif; text-anchor: middle" x="42.280812" y="220.968" transform="rotate(-90 42.280812 220.968)">observers%</text>
    </g>
   </g>
   <g id="line2d_27">
    <path d="M 74.448 348.192 
L 83.9232 348.192 
L 85.81824 346.560923 
L 95.29344 346.560923 
L 97.18848 344.367406 
L 99.08352 344.367406 
L 100.97856 342.736329 
L 102.8736 340.542812 
L 104.76864 336.155777 
L 106.66368 334.5247 
L 108.55872 334.5247 
L 110.45376 332.893623 
L 116.13888 332.893623 
L 118.03392 329.069029 
L 123.71904 329.069029 
L 125.61408 323.050918 
L 127.50912 323.050918 
L 129.40416 319.226324 
L 136.98432 319.226324 
L 138.87936 315.96417 
L 140.7744 315.96417 
L 144.56448 309.439862 
L 146.45952 305.615268 
L 148.35456 303.984191 
L 152.14464 303.984191 
L 154.03968 299.09096 
L 155.93472 294.703926 
L 157.82976 292.510408 
L 159.7248 285.986101 
L 161.61984 285.986101 
L 163.51488 282.161507 
L 165.40992 279.967989 
L 167.30496 279.967989 
L 171.09504 275.580955 
L 172.99008 270.125284 
L 174.88512 268.494207 
L 176.78016 263.600976 
L 178.6752 261.969899 
L 180.57024 261.969899 
L 182.46528 255.445592 
L 184.36032 249.98992 
L 186.25536 249.98992 
L 188.1504 246.727767 
L 190.04544 246.727767 
L 191.94048 235.816424 
L 193.83552 231.99183 
L 195.73056 230.360753 
L 197.6256 230.360753 
L 199.52064 227.098599 
L 201.41568 224.905082 
L 203.31072 224.905082 
L 207.1008 221.642928 
L 210.89088 217.255894 
L 212.78592 217.255894 
L 214.68096 215.062377 
L 216.576 215.062377 
L 218.47104 209.606706 
L 220.36608 206.344552 
L 222.26112 206.344552 
L 224.15616 204.151034 
L 226.0512 202.519958 
L 227.94624 200.32644 
L 233.63136 200.32644 
L 235.5264 195.43321 
L 237.42144 195.43321 
L 239.31648 190.539979 
L 246.89664 190.539979 
L 248.79168 188.346462 
L 250.68672 185.084308 
L 252.58176 183.453231 
L 258.26688 183.453231 
L 260.16192 181.822154 
L 262.05696 179.628637 
L 263.952 179.628637 
L 265.84704 177.435119 
L 267.74208 175.804042 
L 269.63712 171.417008 
L 273.4272 167.029973 
L 275.32224 165.398897 
L 277.21728 165.398897 
L 279.11232 161.574302 
L 281.00736 159.943225 
L 284.79744 159.943225 
L 286.69248 157.749708 
L 288.58752 153.925114 
L 290.48256 153.925114 
L 292.3776 152.294037 
L 296.16768 147.907003 
L 298.06272 143.519968 
L 299.95776 143.519968 
L 301.8528 141.326451 
L 305.64288 141.326451 
L 307.53792 139.695374 
L 309.43296 135.30834 
L 317.01312 135.30834 
L 318.90816 133.677263 
L 320.8032 131.483745 
L 322.69824 129.852668 
L 330.2784 129.852668 
L 332.17344 126.028074 
L 335.96352 126.028074 
L 339.7536 121.64104 
L 343.54368 121.64104 
L 345.43872 117.816446 
L 349.2288 117.816446 
L 351.12384 113.991851 
L 354.91392 113.991851 
L 356.80896 111.798334 
L 364.38912 111.798334 
L 366.28416 107.97374 
L 375.75936 107.97374 
L 379.54944 104.711586 
L 383.33952 104.711586 
L 385.23456 102.518069 
L 394.70976 102.518069 
L 396.6048 100.324552 
L 406.08 100.324552 
L 407.97504 98.131034 
L 432.61056 98.131034 
L 434.5056 95.937517 
L 485.67168 95.937517 
L 487.56672 93.744 
L 642.96 93.744 
L 642.96 93.744 
" clip-path="url(#pf23c31091f)" style="fill: none; stroke: #252525; stroke-width: 2.5; stroke-linecap: square"/>
   </g>
   <g id="line2d_28">
    <path d="M 74.448 348.192 
L 110.45376 348.192 
L 112.3488 343.804966 
L 114.24384 341.611448 
L 118.03392 341.611448 
L 121.824 337.224414 
L 127.50912 337.224414 
L 129.40416 332.837379 
L 136.98432 332.837379 
L 140.7744 328.450345 
L 142.66944 324.06331 
L 144.56448 324.06331 
L 146.45952 322.432233 
L 148.35456 318.045199 
L 150.2496 318.045199 
L 152.14464 315.851682 
L 155.93472 315.851682 
L 157.82976 313.658164 
L 163.51488 313.658164 
L 165.40992 312.027088 
L 169.2 307.640053 
L 171.09504 301.059501 
L 172.99008 298.865984 
L 176.78016 298.865984 
L 178.6752 296.672467 
L 182.46528 296.672467 
L 184.36032 294.47895 
L 186.25536 294.47895 
L 188.1504 292.285432 
L 190.04544 292.285432 
L 191.94048 290.654355 
L 193.83552 290.654355 
L 195.73056 288.460838 
L 197.6256 280.81165 
L 199.52064 276.424615 
L 201.41568 274.231098 
L 203.31072 269.844064 
L 207.1008 269.844064 
L 208.99584 267.650546 
L 210.89088 267.650546 
L 212.78592 261.069995 
L 214.68096 258.876477 
L 216.576 257.245401 
L 220.36608 257.245401 
L 222.26112 255.051883 
L 224.15616 255.051883 
L 226.0512 253.420806 
L 227.94624 251.227289 
L 229.84128 245.209178 
L 231.73632 243.578101 
L 233.63136 237.559989 
L 235.5264 235.366472 
L 239.31648 232.104318 
L 241.21152 229.910801 
L 243.10656 226.648647 
L 245.0016 226.648647 
L 246.89664 222.261613 
L 252.58176 222.261613 
L 254.4768 215.681061 
L 256.37184 214.049984 
L 262.05696 214.049984 
L 263.952 212.418907 
L 265.84704 210.22539 
L 269.63712 210.22539 
L 271.53216 208.031873 
L 273.4272 206.400796 
L 275.32224 206.400796 
L 277.21728 204.207279 
L 279.11232 204.207279 
L 281.00736 202.013761 
L 282.9024 200.382684 
L 284.79744 200.382684 
L 286.69248 198.751607 
L 290.48256 198.751607 
L 292.3776 196.55809 
L 298.06272 196.55809 
L 301.8528 193.295936 
L 303.74784 193.295936 
L 305.64288 191.664859 
L 307.53792 191.664859 
L 313.22304 186.771629 
L 315.11808 183.509475 
L 317.01312 179.684881 
L 318.90816 178.053804 
L 320.8032 173.160573 
L 322.69824 173.160573 
L 324.59328 171.529496 
L 330.2784 171.529496 
L 334.06848 168.267342 
L 335.96352 168.267342 
L 337.85856 166.636265 
L 339.7536 166.636265 
L 341.64864 162.811671 
L 347.33376 162.811671 
L 349.2288 161.180594 
L 351.12384 161.180594 
L 353.01888 159.549517 
L 356.80896 153.02521 
L 360.59904 149.763056 
L 362.49408 149.763056 
L 366.28416 146.500902 
L 368.1792 143.238748 
L 370.07424 141.607671 
L 371.96928 141.607671 
L 373.86432 139.976594 
L 383.33952 139.976594 
L 387.1296 136.71444 
L 389.02464 136.71444 
L 390.91968 132.889846 
L 394.70976 132.889846 
L 396.6048 131.258769 
L 398.49984 131.258769 
L 402.28992 127.996615 
L 406.08 127.996615 
L 407.97504 124.734462 
L 415.5552 124.734462 
L 417.45024 123.103385 
L 419.34528 123.103385 
L 421.24032 119.841231 
L 425.0304 119.841231 
L 426.92544 118.210154 
L 436.40064 118.210154 
L 438.29568 116.579077 
L 445.87584 116.579077 
L 447.77088 113.316923 
L 449.66592 111.685846 
L 453.456 111.685846 
L 455.35104 110.054769 
L 461.03616 110.054769 
L 462.9312 108.423692 
L 466.72128 108.423692 
L 468.61632 106.792615 
L 472.4064 106.792615 
L 474.30144 105.161538 
L 478.09152 105.161538 
L 479.98656 103.530462 
L 500.832 103.530462 
L 502.72704 101.899385 
L 504.62208 101.899385 
L 508.41216 98.637231 
L 533.04768 98.637231 
L 534.94272 97.006154 
L 540.62784 97.006154 
L 542.52288 95.375077 
L 550.10304 95.375077 
L 551.99808 93.744 
L 642.96 93.744 
L 642.96 93.744 
" clip-path="url(#pf23c31091f)" style="fill: none; stroke: #3b83b4; stroke-width: 1.35; stroke-linecap: square"/>
   </g>
   <g id="line2d_29">
    <path d="M 74.448 348.192 
L 95.29344 348.192 
L 97.18848 346.560923 
L 99.08352 346.560923 
L 100.97856 344.929846 
L 106.66368 344.929846 
L 108.55872 341.667692 
L 112.3488 338.405538 
L 116.13888 331.881231 
L 119.92896 328.619077 
L 121.824 325.356923 
L 123.71904 325.356923 
L 125.61408 323.163406 
L 129.40416 319.901252 
L 131.2992 319.901252 
L 133.19424 316.639098 
L 135.08928 314.445581 
L 136.98432 312.814504 
L 138.87936 312.814504 
L 140.7744 311.183427 
L 142.66944 307.921273 
L 144.56448 307.921273 
L 146.45952 306.290196 
L 148.35456 303.028042 
L 150.2496 303.028042 
L 157.82976 296.503735 
L 161.61984 287.729666 
L 163.51488 285.536149 
L 165.40992 282.273995 
L 167.30496 276.818324 
L 169.2 276.818324 
L 171.09504 275.187247 
L 172.99008 270.800212 
L 174.88512 270.800212 
L 176.78016 264.275905 
L 180.57024 261.013751 
L 182.46528 256.12052 
L 184.36032 252.295926 
L 186.25536 244.140541 
L 190.04544 244.140541 
L 191.94048 241.947024 
L 193.83552 240.315947 
L 195.73056 235.422716 
L 197.6256 233.791639 
L 199.52064 233.791639 
L 201.41568 228.335968 
L 203.31072 228.335968 
L 207.1008 225.073814 
L 208.99584 221.81166 
L 210.89088 219.618143 
L 212.78592 219.618143 
L 214.68096 215.793549 
L 216.576 214.162472 
L 218.47104 214.162472 
L 220.36608 210.337878 
L 226.0512 210.337878 
L 227.94624 206.513284 
L 231.73632 202.126249 
L 237.42144 202.126249 
L 239.31648 200.495172 
L 241.21152 198.301655 
L 245.0016 198.301655 
L 246.89664 195.039501 
L 250.68672 195.039501 
L 252.58176 193.408424 
L 254.4768 191.214907 
L 256.37184 191.214907 
L 258.26688 189.58383 
L 260.16192 189.58383 
L 262.05696 187.952753 
L 263.952 187.952753 
L 265.84704 183.565719 
L 269.63712 183.565719 
L 271.53216 178.110048 
L 277.21728 178.110048 
L 279.11232 176.478971 
L 282.9024 172.091936 
L 290.48256 172.091936 
L 292.3776 168.829782 
L 294.27264 168.829782 
L 296.16768 165.005188 
L 299.95776 165.005188 
L 301.8528 162.811671 
L 303.74784 161.180594 
L 311.328 161.180594 
L 313.22304 159.549517 
L 317.01312 155.162483 
L 328.38336 155.162483 
L 330.2784 152.968966 
L 335.96352 152.968966 
L 337.85856 150.775448 
L 341.64864 150.775448 
L 343.54368 144.194897 
L 345.43872 144.194897 
L 347.33376 142.001379 
L 349.2288 142.001379 
L 353.01888 137.614345 
L 358.704 137.614345 
L 360.59904 135.420828 
L 366.28416 135.420828 
L 370.07424 126.646759 
L 373.86432 122.259724 
L 385.23456 122.259724 
L 387.1296 120.066207 
L 404.18496 120.066207 
L 406.08 117.87269 
L 407.97504 117.87269 
L 411.76512 113.485655 
L 417.45024 113.485655 
L 419.34528 111.292138 
L 423.13536 111.292138 
L 426.92544 106.905103 
L 436.40064 106.905103 
L 438.29568 104.711586 
L 455.35104 104.711586 
L 457.24608 102.518069 
L 468.61632 102.518069 
L 470.51136 100.324552 
L 479.98656 100.324552 
L 481.8816 98.131034 
L 504.62208 98.131034 
L 506.51712 95.937517 
L 557.6832 95.937517 
L 559.57824 93.744 
L 642.96 93.744 
L 642.96 93.744 
" clip-path="url(#pf23c31091f)" style="fill: none; stroke-dasharray: 4.995,2.16; stroke-dashoffset: 0; stroke: #c38a19; stroke-width: 1.35"/>
   </g>
   <g id="line2d_30">
    <path d="M 74.448 348.192 
L 104.76864 348.192 
L 106.66368 345.998483 
L 108.55872 345.998483 
L 110.45376 344.367406 
L 112.3488 344.367406 
L 114.24384 342.173889 
L 119.92896 342.173889 
L 121.824 340.542812 
L 127.50912 340.542812 
L 129.40416 338.911735 
L 133.19424 338.911735 
L 135.08928 337.280658 
L 136.98432 337.280658 
L 138.87936 335.087141 
L 140.7744 335.087141 
L 144.56448 330.700106 
L 146.45952 330.700106 
L 150.2496 326.313072 
L 152.14464 326.313072 
L 154.03968 323.050918 
L 155.93472 323.050918 
L 157.82976 320.857401 
L 159.7248 317.032806 
L 161.61984 311.014695 
L 163.51488 309.383618 
L 167.30496 309.383618 
L 169.2 304.490387 
L 172.99008 304.490387 
L 174.88512 302.29687 
L 176.78016 298.472276 
L 182.46528 298.472276 
L 186.25536 295.210122 
L 188.1504 290.316891 
L 190.04544 286.492297 
L 191.94048 286.492297 
L 195.73056 276.705836 
L 197.6256 276.705836 
L 199.52064 274.512318 
L 201.41568 272.881241 
L 203.31072 267.42557 
L 205.20576 265.794493 
L 207.1008 260.338822 
L 208.99584 257.076668 
L 210.89088 257.076668 
L 212.78592 253.814515 
L 214.68096 252.183438 
L 216.576 252.183438 
L 218.47104 249.98992 
L 224.15616 240.203459 
L 226.0512 240.203459 
L 227.94624 236.378865 
L 229.84128 234.185347 
L 231.73632 230.360753 
L 233.63136 223.836446 
L 235.5264 223.836446 
L 239.31648 216.187257 
L 241.21152 205.275915 
L 243.10656 201.451321 
L 246.89664 201.451321 
L 250.68672 198.189167 
L 252.58176 198.189167 
L 254.4768 194.364573 
L 256.37184 192.733496 
L 258.26688 192.733496 
L 260.16192 191.102419 
L 265.84704 191.102419 
L 267.74208 187.277825 
L 269.63712 185.646748 
L 271.53216 182.384594 
L 273.4272 182.384594 
L 275.32224 174.735406 
L 277.21728 174.735406 
L 279.11232 172.541889 
L 282.9024 172.541889 
L 284.79744 170.348371 
L 286.69248 167.086218 
L 288.58752 163.261623 
L 290.48256 161.630546 
L 292.3776 159.437029 
L 298.06272 159.437029 
L 301.8528 155.049995 
L 303.74784 155.049995 
L 305.64288 153.418918 
L 307.53792 153.418918 
L 311.328 149.031883 
L 313.22304 147.400806 
L 315.11808 143.013772 
L 317.01312 143.013772 
L 318.90816 140.820255 
L 320.8032 140.820255 
L 322.69824 139.189178 
L 324.59328 135.364584 
L 326.48832 135.364584 
L 328.38336 131.539989 
L 330.2784 131.539989 
L 332.17344 129.346472 
L 335.96352 129.346472 
L 337.85856 127.152955 
L 351.12384 127.152955 
L 353.01888 124.959438 
L 354.91392 123.328361 
L 356.80896 123.328361 
L 358.704 119.503767 
L 362.49408 119.503767 
L 364.38912 117.310249 
L 368.1792 117.310249 
L 370.07424 112.923215 
L 379.54944 112.923215 
L 383.33952 108.53618 
L 385.23456 106.905103 
L 387.1296 104.711586 
L 404.18496 104.711586 
L 406.08 102.518069 
L 419.34528 102.518069 
L 421.24032 100.324552 
L 430.71552 100.324552 
L 432.61056 98.131034 
L 451.56096 98.131034 
L 453.456 95.937517 
L 498.93696 95.937517 
L 500.832 93.744 
L 642.96 93.744 
L 642.96 93.744 
" clip-path="url(#pf23c31091f)" style="fill: none; stroke-dasharray: 1.35,2.2275; stroke-dashoffset: 0; stroke: #7d8a92; stroke-width: 1.35"/>
   </g>
   <g id="line2d_31">
    <path d="M 74.448 348.192 
L 142.66944 348.192 
L 144.56448 345.998483 
L 163.51488 345.998483 
L 165.40992 343.804966 
L 171.09504 343.804966 
L 172.99008 341.611448 
L 186.25536 341.611448 
L 188.1504 337.224414 
L 197.6256 337.224414 
L 203.31072 330.643862 
L 205.20576 330.643862 
L 207.1008 326.256828 
L 208.99584 324.625751 
L 212.78592 324.625751 
L 216.576 320.238716 
L 218.47104 315.851682 
L 229.84128 315.851682 
L 235.5264 309.27113 
L 239.31648 309.27113 
L 241.21152 307.077613 
L 245.0016 307.077613 
L 246.89664 302.690578 
L 250.68672 298.303544 
L 252.58176 298.303544 
L 256.37184 293.916509 
L 263.952 293.916509 
L 265.84704 291.722992 
L 267.74208 291.722992 
L 269.63712 289.529475 
L 271.53216 282.948923 
L 273.4272 282.948923 
L 277.21728 278.561889 
L 282.9024 278.561889 
L 284.79744 276.930812 
L 288.58752 272.543777 
L 292.3776 272.543777 
L 294.27264 270.35026 
L 299.95776 270.35026 
L 301.8528 268.156743 
L 303.74784 266.525666 
L 305.64288 264.332149 
L 307.53792 260.507554 
L 311.328 256.12052 
L 320.8032 256.12052 
L 322.69824 253.927003 
L 324.59328 250.664849 
L 326.48832 246.277814 
L 330.2784 241.89078 
L 332.17344 241.89078 
L 334.06848 240.259703 
L 335.96352 238.066186 
L 337.85856 236.435109 
L 339.7536 234.241592 
L 345.43872 234.241592 
L 347.33376 228.22348 
L 349.2288 226.029963 
L 351.12384 226.029963 
L 353.01888 224.398886 
L 358.704 224.398886 
L 362.49408 221.136732 
L 366.28416 221.136732 
L 368.1792 219.505655 
L 370.07424 217.312138 
L 371.96928 215.681061 
L 375.75936 215.681061 
L 377.6544 211.856467 
L 379.54944 209.66295 
L 381.44448 208.031873 
L 385.23456 203.644838 
L 389.02464 203.644838 
L 390.91968 202.013761 
L 396.6048 202.013761 
L 398.49984 200.382684 
L 402.28992 200.382684 
L 406.08 195.99565 
L 409.87008 195.99565 
L 411.76512 192.733496 
L 417.45024 192.733496 
L 421.24032 189.471342 
L 423.13536 189.471342 
L 425.0304 187.840265 
L 426.92544 187.840265 
L 432.61056 182.947034 
L 434.5056 182.947034 
L 436.40064 179.684881 
L 438.29568 174.79165 
L 440.19072 170.967056 
L 443.9808 167.704902 
L 449.66592 167.704902 
L 451.56096 166.073825 
L 455.35104 166.073825 
L 459.14112 162.811671 
L 461.03616 159.549517 
L 462.9312 159.549517 
L 464.82624 156.287363 
L 466.72128 151.394133 
L 468.61632 148.131979 
L 470.51136 148.131979 
L 472.4064 146.500902 
L 479.98656 146.500902 
L 481.8816 143.238748 
L 483.77664 143.238748 
L 485.67168 141.607671 
L 487.56672 141.607671 
L 489.46176 139.976594 
L 497.04192 139.976594 
L 498.93696 138.345517 
L 500.832 138.345517 
L 502.72704 135.083363 
L 504.62208 132.889846 
L 508.41216 129.627692 
L 514.09728 129.627692 
L 519.7824 124.734462 
L 521.67744 124.734462 
L 523.57248 123.103385 
L 525.46752 123.103385 
L 527.36256 121.472308 
L 529.2576 121.472308 
L 531.15264 118.210154 
L 544.41792 118.210154 
L 546.31296 116.579077 
L 548.208 116.579077 
L 551.99808 113.316923 
L 553.89312 113.316923 
L 555.78816 110.054769 
L 559.57824 110.054769 
L 561.47328 106.792615 
L 567.1584 106.792615 
L 569.05344 105.161538 
L 589.89888 105.161538 
L 591.79392 103.530462 
L 595.584 103.530462 
L 597.47904 101.899385 
L 601.26912 101.899385 
L 603.16416 100.268308 
L 606.95424 100.268308 
L 608.84928 98.637231 
L 633.4848 98.637231 
L 637.27488 95.375077 
L 642.96 95.375077 
L 642.96 95.375077 
" clip-path="url(#pf23c31091f)" style="fill: none; stroke-dasharray: 8.64,2.16,1.35,2.16; stroke-dashoffset: 0; stroke: #d0526a; stroke-width: 1.35"/>
   </g>
   <g id="line2d_32">
    <path d="M 74.448 348.192 
L 95.29344 348.192 
L 97.18848 345.998483 
L 121.824 345.998483 
L 123.71904 343.804966 
L 129.40416 343.804966 
L 131.2992 341.611448 
L 136.98432 341.611448 
L 138.87936 339.417931 
L 142.66944 339.417931 
L 144.56448 337.224414 
L 155.93472 337.224414 
L 157.82976 332.837379 
L 161.61984 328.450345 
L 163.51488 324.06331 
L 165.40992 321.869793 
L 178.6752 321.869793 
L 180.57024 320.238716 
L 186.25536 320.238716 
L 188.1504 318.045199 
L 190.04544 318.045199 
L 193.83552 313.658164 
L 197.6256 313.658164 
L 199.52064 311.464647 
L 201.41568 311.464647 
L 205.20576 307.077613 
L 207.1008 307.077613 
L 210.89088 302.690578 
L 212.78592 302.690578 
L 216.576 298.303544 
L 220.36608 298.303544 
L 227.94624 280.755406 
L 231.73632 280.755406 
L 233.63136 278.561889 
L 237.42144 278.561889 
L 239.31648 276.930812 
L 246.89664 276.930812 
L 248.79168 272.543777 
L 252.58176 272.543777 
L 256.37184 268.156743 
L 260.16192 264.894589 
L 262.05696 264.894589 
L 263.952 260.507554 
L 273.4272 260.507554 
L 277.21728 256.12052 
L 279.11232 254.489443 
L 281.00736 250.102408 
L 282.9024 250.102408 
L 284.79744 245.715374 
L 288.58752 241.32834 
L 294.27264 241.32834 
L 296.16768 238.066186 
L 303.74784 238.066186 
L 305.64288 234.241592 
L 307.53792 232.610515 
L 309.43296 232.610515 
L 311.328 228.78592 
L 313.22304 224.398886 
L 317.01312 221.136732 
L 320.8032 221.136732 
L 322.69824 217.874578 
L 330.2784 217.874578 
L 332.17344 213.487544 
L 335.96352 213.487544 
L 337.85856 209.66295 
L 339.7536 209.66295 
L 341.64864 207.469432 
L 343.54368 207.469432 
L 347.33376 204.207279 
L 349.2288 202.013761 
L 356.80896 202.013761 
L 358.704 200.382684 
L 360.59904 195.99565 
L 368.1792 195.99565 
L 370.07424 194.364573 
L 375.75936 194.364573 
L 377.6544 192.733496 
L 379.54944 192.733496 
L 381.44448 189.471342 
L 383.33952 189.471342 
L 387.1296 186.209188 
L 390.91968 186.209188 
L 392.81472 182.947034 
L 394.70976 181.315958 
L 396.6048 178.053804 
L 398.49984 178.053804 
L 400.39488 173.160573 
L 402.28992 169.898419 
L 409.87008 169.898419 
L 411.76512 167.704902 
L 413.66016 167.704902 
L 415.5552 166.073825 
L 417.45024 162.811671 
L 425.0304 162.811671 
L 426.92544 159.549517 
L 428.82048 157.91844 
L 430.71552 157.91844 
L 432.61056 153.02521 
L 434.5056 149.763056 
L 436.40064 148.131979 
L 438.29568 148.131979 
L 440.19072 146.500902 
L 443.9808 146.500902 
L 451.56096 139.976594 
L 464.82624 139.976594 
L 466.72128 136.71444 
L 468.61632 132.889846 
L 472.4064 129.627692 
L 479.98656 129.627692 
L 481.8816 127.996615 
L 483.77664 124.734462 
L 487.56672 124.734462 
L 489.46176 123.103385 
L 493.25184 123.103385 
L 497.04192 119.841231 
L 498.93696 119.841231 
L 500.832 118.210154 
L 512.20224 118.210154 
L 514.09728 116.579077 
L 519.7824 116.579077 
L 521.67744 113.316923 
L 523.57248 113.316923 
L 525.46752 110.054769 
L 531.15264 110.054769 
L 533.04768 108.423692 
L 534.94272 108.423692 
L 538.7328 105.161538 
L 555.78816 105.161538 
L 557.6832 103.530462 
L 570.94848 103.530462 
L 572.84352 101.899385 
L 574.73856 101.899385 
L 576.6336 98.637231 
L 605.0592 98.637231 
L 606.95424 97.006154 
L 608.84928 97.006154 
L 610.74432 95.375077 
L 627.79968 95.375077 
L 629.69472 93.744 
L 642.96 93.744 
L 642.96 93.744 
" clip-path="url(#pf23c31091f)" style="fill: none; stroke-dasharray: 6.75,2.7,1.35,2.7; stroke-dashoffset: 0; stroke: #2f8f84; stroke-width: 1.35"/>
   </g>
   <g id="patch_4">
    <path d="M 74.448 348.192 
L 74.448 93.744 
" style="fill: none; stroke: #000000; stroke-width: 0.8; stroke-linejoin: miter; stroke-linecap: square"/>
   </g>
   <g id="patch_5">
    <path d="M 74.448 348.192 
L 642.96 348.192 
" style="fill: none; stroke: #000000; stroke-width: 0.8; stroke-linejoin: miter; stroke-linecap: square"/>
   </g>
  </g>
  <g id="text_16">
   <text style="font: 18px 'DejaVu Sans', 'Bitstream Vera Sans', 'Computer Modern Sans Serif', 'Lucida Grande', 'Verdana', 'Geneva', 'Lucid', 'Arial', 'Helvetica', 'Avant Garde', sans-serif; text-anchor: start" x="74.448" y="38.229188" transform="rotate(-0 74.448 38.229188)">QD-OLED → QDEF LCD</text>
  </g>
  <g id="text_17">
   <text style="fill: #66747c; font: 10px 'DejaVu Sans', 'Bitstream Vera Sans', 'Computer Modern Sans Serif', 'Lucida Grande', 'Verdana', 'Geneva', 'Lucid', 'Arial', 'Helvetica', 'Avant Garde', sans-serif; text-anchor: start" x="74.448" y="64.728" transform="rotate(-0 74.448 64.728)">All illuminants</text>
  </g>
  <g id="legend_1">
   <g id="line2d_33">
    <path d="M 185.17875 404.151391 
L 194.27875 404.151391 
L 203.37875 404.151391 
" style="fill: none; stroke: #252525; stroke-width: 2.5; stroke-linecap: square"/>
   </g>
   <g id="text_18">
    <text style="font: 9.1px 'DejaVu Sans', 'Bitstream Vera Sans', 'Computer Modern Sans Serif', 'Lucida Grande', 'Verdana', 'Geneva', 'Lucid', 'Arial', 'Helvetica', 'Avant Garde', sans-serif; text-anchor: start" x="210.65875" y="407.336391" transform="rotate(-0 210.65875 407.336391)">Potera CMF</text>
   </g>
   <g id="line2d_34">
    <path d="M 185.17875 417.508484 
L 194.27875 417.508484 
L 203.37875 417.508484 
" style="fill: none; stroke: #3b83b4; stroke-width: 1.35; stroke-linecap: square"/>
   </g>
   <g id="text_19">
    <text style="font: 9.1px 'DejaVu Sans', 'Bitstream Vera Sans', 'Computer Modern Sans Serif', 'Lucida Grande', 'Verdana', 'Geneva', 'Lucid', 'Arial', 'Helvetica', 'Avant Garde', sans-serif; text-anchor: start" x="210.65875" y="420.693484" transform="rotate(-0 210.65875 420.693484)">CIE 2015 2°</text>
   </g>
   <g id="line2d_35">
    <path d="M 282.931234 404.151391 
L 292.031234 404.151391 
L 301.131234 404.151391 
" style="fill: none; stroke-dasharray: 4.995,2.16; stroke-dashoffset: 0; stroke: #c38a19; stroke-width: 1.35"/>
   </g>
   <g id="text_20">
    <text style="font: 9.1px 'DejaVu Sans', 'Bitstream Vera Sans', 'Computer Modern Sans Serif', 'Lucida Grande', 'Verdana', 'Geneva', 'Lucid', 'Arial', 'Helvetica', 'Avant Garde', sans-serif; text-anchor: start" x="308.411234" y="407.336391" transform="rotate(-0 308.411234 407.336391)">CIE 2015 10°</text>
   </g>
   <g id="line2d_36">
    <path d="M 282.931234 417.508484 
L 292.031234 417.508484 
L 301.131234 417.508484 
" style="fill: none; stroke-dasharray: 1.35,2.2275; stroke-dashoffset: 0; stroke: #7d8a92; stroke-width: 1.35"/>
   </g>
   <g id="text_21">
    <text style="font: 9.1px 'DejaVu Sans', 'Bitstream Vera Sans', 'Computer Modern Sans Serif', 'Lucida Grande', 'Verdana', 'Geneva', 'Lucid', 'Arial', 'Helvetica', 'Avant Garde', sans-serif; text-anchor: start" x="308.411234" y="420.693484" transform="rotate(-0 308.411234 420.693484)">CIE 1964 10°</text>
   </g>
   <g id="line2d_37">
    <path d="M 386.473594 404.151391 
L 395.573594 404.151391 
L 404.673594 404.151391 
" style="fill: none; stroke-dasharray: 8.64,2.16,1.35,2.16; stroke-dashoffset: 0; stroke: #d0526a; stroke-width: 1.35"/>
   </g>
   <g id="text_22">
    <text style="font: 9.1px 'DejaVu Sans', 'Bitstream Vera Sans', 'Computer Modern Sans Serif', 'Lucida Grande', 'Verdana', 'Geneva', 'Lucid', 'Arial', 'Helvetica', 'Avant Garde', sans-serif; text-anchor: start" x="411.953594" y="407.336391" transform="rotate(-0 411.953594 407.336391)">CIE 1931 2°</text>
   </g>
   <g id="line2d_38">
    <path d="M 386.473594 417.508484 
L 395.573594 417.508484 
L 404.673594 417.508484 
" style="fill: none; stroke-dasharray: 6.75,2.7,1.35,2.7; stroke-dashoffset: 0; stroke: #2f8f84; stroke-width: 1.35"/>
   </g>
   <g id="text_23">
    <text style="font: 9.1px 'DejaVu Sans', 'Bitstream Vera Sans', 'Computer Modern Sans Serif', 'Lucida Grande', 'Verdana', 'Geneva', 'Lucid', 'Arial', 'Helvetica', 'Avant Garde', sans-serif; text-anchor: start" x="411.953594" y="420.693484" transform="rotate(-0 411.953594 420.693484)">Judd–Vos 1978 2°</text>
   </g>
  </g>
 </g>
 <defs>
  <clipPath id="pf23c31091f">
   <rect x="74.448" y="93.744" width="568.512" height="254.448"/>
  </clipPath>
 </defs>
</svg>
