<?xml version="1.0" encoding="utf-8" standalone="no"?>
<!DOCTYPE svg PUBLIC "-//W3C//DTD SVG 1.1//EN"
  "http://www.w3.org/Graphics/SVG/1.1/DTD/svg11.dtd">
<svg xmlns:xlink="http://www.w3.org/1999/xlink" width="676.8pt" height="446.4pt" viewBox="0 0 676.8 446.4" xmlns="http://www.w3.org/2000/svg" version="1.1">
 <metadata>
  <rdf:RDF xmlns:dc="http://purl.org/dc/elements/1.1/" xmlns:cc="http://creativecommons.org/ns#" xmlns:rdf="http://www.w3.org/1999/02/22-rdf-syntax-ns#">
   <cc:Work>
    <dc:type rdf:resource="http://purl.org/dc/dcmitype/StillImage"/>
    <dc:date>2026-07-20T06:42:01.154170</dc:date>
    <dc:format>image/svg+xml</dc:format>
    <dc:creator>
     <cc:Agent>
      <dc:title>Matplotlib v3.9.4, https://matplotlib.org/</dc:title>
     </cc:Agent>
    </dc:creator>
   </cc:Work>
  </rdf:RDF>
 </metadata>
 <defs>
  <style type="text/css">*{stroke-linejoin: round; stroke-linecap: butt}</style>
 </defs>
 <g id="figure_1">
  <g id="patch_1">
   <path d="M 0 446.4 
L 676.8 446.4 
L 676.8 0 
L 0 0 
z
" style="fill: #ffffff"/>
  </g>
  <g id="axes_1">
   <g id="patch_2">
    <path d="M 74.448 348.192 
L 642.96 348.192 
L 642.96 93.744 
L 74.448 93.744 
z
" style="fill: #ffffff"/>
   </g>
   <g id="patch_3">
    <path d="M 169.2 348.192 
L 358.704 348.192 
L 358.704 93.744 
L 169.2 93.744 
z
" clip-path="url(#p699c8e51ab)" style="fill: #e7f0ea; opacity: 0.58; stroke: #e7f0ea; stroke-linejoin: miter"/>
   </g>
   <g id="matplotlib.axis_1">
    <g id="xtick_1">
     <g id="line2d_1">
      <path d="M 74.448 348.192 
L 74.448 93.744 
" clip-path="url(#p699c8e51ab)" style="fill: none; stroke: #dfe5e8; stroke-width: 0.65; stroke-linecap: square"/>
     </g>
     <g id="line2d_2">
      <defs>
       <path id="m920d7c2dfe" d="M 0 0 
L 0 3.5 
" style="stroke: #000000; stroke-width: 0.8"/>
      </defs>
      <g>
       <use xlink:href="#m920d7c2dfe" x="74.448" y="348.192" style="stroke: #000000; stroke-width: 0.8"/>
      </g>
     </g>
     <g id="text_1">
      <text style="font: 10px 'DejaVu Sans', 'Bitstream Vera Sans', 'Computer Modern Sans Serif', 'Lucida Grande', 'Verdana', 'Geneva', 'Lucid', 'Arial', 'Helvetica', 'Avant Garde', sans-serif; text-anchor: middle" x="74.448" y="362.790438" transform="rotate(-0 74.448 362.790438)">0</text>
     </g>
    </g>
    <g id="xtick_2">
     <g id="line2d_3">
      <path d="M 169.2 348.192 
L 169.2 93.744 
" clip-path="url(#p699c8e51ab)" style="fill: none; stroke: #dfe5e8; stroke-width: 0.65; stroke-linecap: square"/>
     </g>
     <g id="line2d_4">
      <g>
       <use xlink:href="#m920d7c2dfe" x="169.2" y="348.192" style="stroke: #000000; stroke-width: 0.8"/>
      </g>
     </g>
     <g id="text_2">
      <text style="font: 10px 'DejaVu Sans', 'Bitstream Vera Sans', 'Computer Modern Sans Serif', 'Lucida Grande', 'Verdana', 'Geneva', 'Lucid', 'Arial', 'Helvetica', 'Avant Garde', sans-serif; text-anchor: middle" x="169.2" y="362.790438" transform="rotate(-0 169.2 362.790438)">1</text>
     </g>
    </g>
    <g id="xtick_3">
     <g id="line2d_5">
      <path d="M 263.952 348.192 
L 263.952 93.744 
" clip-path="url(#p699c8e51ab)" style="fill: none; stroke: #dfe5e8; stroke-width: 0.65; stroke-linecap: square"/>
     </g>
     <g id="line2d_6">
      <g>
       <use xlink:href="#m920d7c2dfe" x="263.952" y="348.192" style="stroke: #000000; stroke-width: 0.8"/>
      </g>
     </g>
     <g id="text_3">
      <text style="font: 10px 'DejaVu Sans', 'Bitstream Vera Sans', 'Computer Modern Sans Serif', 'Lucida Grande', 'Verdana', 'Geneva', 'Lucid', 'Arial', 'Helvetica', 'Avant Garde', sans-serif; text-anchor: middle" x="263.952" y="362.790438" transform="rotate(-0 263.952 362.790438)">2</text>
     </g>
    </g>
    <g id="xtick_4">
     <g id="line2d_7">
      <path d="M 358.704 348.192 
L 358.704 93.744 
" clip-path="url(#p699c8e51ab)" style="fill: none; stroke: #dfe5e8; stroke-width: 0.65; stroke-linecap: square"/>
     </g>
     <g id="line2d_8">
      <g>
       <use xlink:href="#m920d7c2dfe" x="358.704" y="348.192" style="stroke: #000000; stroke-width: 0.8"/>
      </g>
     </g>
     <g id="text_4">
      <text style="font: 10px 'DejaVu Sans', 'Bitstream Vera Sans', 'Computer Modern Sans Serif', 'Lucida Grande', 'Verdana', 'Geneva', 'Lucid', 'Arial', 'Helvetica', 'Avant Garde', sans-serif; text-anchor: middle" x="358.704" y="362.790438" transform="rotate(-0 358.704 362.790438)">3</text>
     </g>
    </g>
    <g id="xtick_5">
     <g id="line2d_9">
      <path d="M 453.456 348.192 
L 453.456 93.744 
" clip-path="url(#p699c8e51ab)" style="fill: none; stroke: #dfe5e8; stroke-width: 0.65; stroke-linecap: square"/>
     </g>
     <g id="line2d_10">
      <g>
       <use xlink:href="#m920d7c2dfe" x="453.456" y="348.192" style="stroke: #000000; stroke-width: 0.8"/>
      </g>
     </g>
     <g id="text_5">
      <text style="font: 10px 'DejaVu Sans', 'Bitstream Vera Sans', 'Computer Modern Sans Serif', 'Lucida Grande', 'Verdana', 'Geneva', 'Lucid', 'Arial', 'Helvetica', 'Avant Garde', sans-serif; text-anchor: middle" x="453.456" y="362.790438" transform="rotate(-0 453.456 362.790438)">4</text>
     </g>
    </g>
    <g id="xtick_6">
     <g id="line2d_11">
      <path d="M 548.208 348.192 
L 548.208 93.744 
" clip-path="url(#p699c8e51ab)" style="fill: none; stroke: #dfe5e8; stroke-width: 0.65; stroke-linecap: square"/>
     </g>
     <g id="line2d_12">
      <g>
       <use xlink:href="#m920d7c2dfe" x="548.208" y="348.192" style="stroke: #000000; stroke-width: 0.8"/>
      </g>
     </g>
     <g id="text_6">
      <text style="font: 10px 'DejaVu Sans', 'Bitstream Vera Sans', 'Computer Modern Sans Serif', 'Lucida Grande', 'Verdana', 'Geneva', 'Lucid', 'Arial', 'Helvetica', 'Avant Garde', sans-serif; text-anchor: middle" x="548.208" y="362.790438" transform="rotate(-0 548.208 362.790438)">5</text>
     </g>
    </g>
    <g id="xtick_7">
     <g id="line2d_13">
      <path d="M 642.96 348.192 
L 642.96 93.744 
" clip-path="url(#p699c8e51ab)" style="fill: none; stroke: #dfe5e8; stroke-width: 0.65; stroke-linecap: square"/>
     </g>
     <g id="line2d_14">
      <g>
       <use xlink:href="#m920d7c2dfe" x="642.96" y="348.192" style="stroke: #000000; stroke-width: 0.8"/>
      </g>
     </g>
     <g id="text_7">
      <text style="font: 10px 'DejaVu Sans', 'Bitstream Vera Sans', 'Computer Modern Sans Serif', 'Lucida Grande', 'Verdana', 'Geneva', 'Lucid', 'Arial', 'Helvetica', 'Avant Garde', sans-serif; text-anchor: middle" x="642.96" y="362.790438" transform="rotate(-0 642.96 362.790438)">6</text>
     </g>
    </g>
    <g id="text_8">
     <text style="font: 10px 'DejaVu Sans', 'Bitstream Vera Sans', 'Computer Modern Sans Serif', 'Lucida Grande', 'Verdana', 'Geneva', 'Lucid', 'Arial', 'Helvetica', 'Avant Garde', sans-serif; text-anchor: middle" x="358.704" y="376.468563" transform="rotate(-0 358.704 376.468563)">sUCS dE threshold</text>
    </g>
   </g>
   <g id="matplotlib.axis_2">
    <g id="ytick_1">
     <g id="line2d_15">
      <path d="M 74.448 348.192 
L 642.96 348.192 
" clip-path="url(#p699c8e51ab)" style="fill: none; stroke: #dfe5e8; stroke-width: 0.65; stroke-linecap: square"/>
     </g>
     <g id="line2d_16">
      <defs>
       <path id="m7512e66f18" d="M 0 0 
L -3.5 0 
" style="stroke: #000000; stroke-width: 0.8"/>
      </defs>
      <g>
       <use xlink:href="#m7512e66f18" x="74.448" y="348.192" style="stroke: #000000; stroke-width: 0.8"/>
      </g>
     </g>
     <g id="text_9">
      <text style="font: 10px 'DejaVu Sans', 'Bitstream Vera Sans', 'Computer Modern Sans Serif', 'Lucida Grande', 'Verdana', 'Geneva', 'Lucid', 'Arial', 'Helvetica', 'Avant Garde', sans-serif; text-anchor: end" x="67.448" y="351.991219" transform="rotate(-0 67.448 351.991219)">0</text>
     </g>
    </g>
    <g id="ytick_2">
     <g id="line2d_17">
      <path d="M 74.448 297.3024 
L 642.96 297.3024 
" clip-path="url(#p699c8e51ab)" style="fill: none; stroke: #dfe5e8; stroke-width: 0.65; stroke-linecap: square"/>
     </g>
     <g id="line2d_18">
      <g>
       <use xlink:href="#m7512e66f18" x="74.448" y="297.3024" style="stroke: #000000; stroke-width: 0.8"/>
      </g>
     </g>
     <g id="text_10">
      <text style="font: 10px 'DejaVu Sans', 'Bitstream Vera Sans', 'Computer Modern Sans Serif', 'Lucida Grande', 'Verdana', 'Geneva', 'Lucid', 'Arial', 'Helvetica', 'Avant Garde', sans-serif; text-anchor: end" x="67.448" y="301.101619" transform="rotate(-0 67.448 301.101619)">20</text>
     </g>
    </g>
    <g id="ytick_3">
     <g id="line2d_19">
      <path d="M 74.448 246.4128 
L 642.96 246.4128 
" clip-path="url(#p699c8e51ab)" style="fill: none; stroke: #dfe5e8; stroke-width: 0.65; stroke-linecap: square"/>
     </g>
     <g id="line2d_20">
      <g>
       <use xlink:href="#m7512e66f18" x="74.448" y="246.4128" style="stroke: #000000; stroke-width: 0.8"/>
      </g>
     </g>
     <g id="text_11">
      <text style="font: 10px 'DejaVu Sans', 'Bitstream Vera Sans', 'Computer Modern Sans Serif', 'Lucida Grande', 'Verdana', 'Geneva', 'Lucid', 'Arial', 'Helvetica', 'Avant Garde', sans-serif; text-anchor: end" x="67.448" y="250.212019" transform="rotate(-0 67.448 250.212019)">40</text>
     </g>
    </g>
    <g id="ytick_4">
     <g id="line2d_21">
      <path d="M 74.448 195.5232 
L 642.96 195.5232 
" clip-path="url(#p699c8e51ab)" style="fill: none; stroke: #dfe5e8; stroke-width: 0.65; stroke-linecap: square"/>
     </g>
     <g id="line2d_22">
      <g>
       <use xlink:href="#m7512e66f18" x="74.448" y="195.5232" style="stroke: #000000; stroke-width: 0.8"/>
      </g>
     </g>
     <g id="text_12">
      <text style="font: 10px 'DejaVu Sans', 'Bitstream Vera Sans', 'Computer Modern Sans Serif', 'Lucida Grande', 'Verdana', 'Geneva', 'Lucid', 'Arial', 'Helvetica', 'Avant Garde', sans-serif; text-anchor: end" x="67.448" y="199.322419" transform="rotate(-0 67.448 199.322419)">60</text>
     </g>
    </g>
    <g id="ytick_5">
     <g id="line2d_23">
      <path d="M 74.448 144.6336 
L 642.96 144.6336 
" clip-path="url(#p699c8e51ab)" style="fill: none; stroke: #dfe5e8; stroke-width: 0.65; stroke-linecap: square"/>
     </g>
     <g id="line2d_24">
      <g>
       <use xlink:href="#m7512e66f18" x="74.448" y="144.6336" style="stroke: #000000; stroke-width: 0.8"/>
      </g>
     </g>
     <g id="text_13">
      <text style="font: 10px 'DejaVu Sans', 'Bitstream Vera Sans', 'Computer Modern Sans Serif', 'Lucida Grande', 'Verdana', 'Geneva', 'Lucid', 'Arial', 'Helvetica', 'Avant Garde', sans-serif; text-anchor: end" x="67.448" y="148.432819" transform="rotate(-0 67.448 148.432819)">80</text>
     </g>
    </g>
    <g id="ytick_6">
     <g id="line2d_25">
      <path d="M 74.448 93.744 
L 642.96 93.744 
" clip-path="url(#p699c8e51ab)" style="fill: none; stroke: #dfe5e8; stroke-width: 0.65; stroke-linecap: square"/>
     </g>
     <g id="line2d_26">
      <g>
       <use xlink:href="#m7512e66f18" x="74.448" y="93.744" style="stroke: #000000; stroke-width: 0.8"/>
      </g>
     </g>
     <g id="text_14">
      <text style="font: 10px 'DejaVu Sans', 'Bitstream Vera Sans', 'Computer Modern Sans Serif', 'Lucida Grande', 'Verdana', 'Geneva', 'Lucid', 'Arial', 'Helvetica', 'Avant Garde', sans-serif; text-anchor: end" x="67.448" y="97.543219" transform="rotate(-0 67.448 97.543219)">100</text>
     </g>
    </g>
    <g id="text_15">
     <text style="font: 10px 'DejaVu Sans', 'Bitstream Vera Sans', 'Computer Modern Sans Serif', 'Lucida Grande', 'Verdana', 'Geneva', 'Lucid', 'Arial', 'Helvetica', 'Avant Garde', sans-serif; text-anchor: middle" x="42.280812" y="220.968" transform="rotate(-90 42.280812 220.968)">observers%</text>
    </g>
   </g>
   <g id="line2d_27">
    <path d="M 74.448 348.192 
L 83.9232 348.192 
L 85.81824 346.560923 
L 95.29344 346.560923 
L 97.18848 342.736329 
L 99.08352 340.542812 
L 100.97856 338.911735 
L 108.55872 338.911735 
L 110.45376 335.087141 
L 112.3488 335.087141 
L 116.13888 331.824987 
L 118.03392 329.631469 
L 119.92896 328.000393 
L 123.71904 328.000393 
L 125.61408 323.613358 
L 135.08928 323.613358 
L 136.98432 319.788764 
L 138.87936 319.788764 
L 140.7744 312.702016 
L 142.66944 311.070939 
L 144.56448 311.070939 
L 146.45952 309.439862 
L 148.35456 309.439862 
L 150.2496 306.177708 
L 152.14464 306.177708 
L 154.03968 303.984191 
L 155.93472 303.984191 
L 157.82976 300.159597 
L 159.7248 298.52852 
L 161.61984 294.703926 
L 163.51488 292.510408 
L 165.40992 287.054737 
L 167.30496 287.054737 
L 172.99008 282.161507 
L 174.88512 276.705836 
L 176.78016 275.074759 
L 178.6752 275.074759 
L 180.57024 272.881241 
L 182.46528 269.619088 
L 184.36032 265.794493 
L 186.25536 262.53234 
L 188.1504 257.076668 
L 190.04544 252.689634 
L 191.94048 252.689634 
L 199.52064 239.641019 
L 201.41568 234.185347 
L 203.31072 230.923194 
L 207.1008 227.66104 
L 208.99584 223.274005 
L 210.89088 223.274005 
L 212.78592 221.080488 
L 214.68096 219.449411 
L 218.47104 219.449411 
L 220.36608 217.818334 
L 222.26112 217.818334 
L 224.15616 216.187257 
L 226.0512 208.538069 
L 227.94624 208.538069 
L 229.84128 206.906992 
L 231.73632 204.713475 
L 233.63136 204.713475 
L 237.42144 200.32644 
L 239.31648 200.32644 
L 241.21152 198.695363 
L 243.10656 198.695363 
L 246.89664 195.43321 
L 250.68672 195.43321 
L 252.58176 193.239692 
L 254.4768 191.608615 
L 256.37184 191.608615 
L 258.26688 189.977538 
L 262.05696 189.977538 
L 263.952 186.715385 
L 265.84704 184.521867 
L 267.74208 184.521867 
L 269.63712 180.697273 
L 273.4272 177.435119 
L 275.32224 177.435119 
L 277.21728 173.610525 
L 279.11232 171.417008 
L 286.69248 171.417008 
L 290.48256 167.029973 
L 292.3776 165.398897 
L 294.27264 165.398897 
L 296.16768 163.76782 
L 298.06272 163.76782 
L 301.8528 159.380785 
L 305.64288 156.118631 
L 307.53792 156.118631 
L 311.328 151.731597 
L 313.22304 147.907003 
L 315.11808 145.713485 
L 320.8032 145.713485 
L 322.69824 144.082408 
L 324.59328 141.888891 
L 326.48832 140.257814 
L 330.2784 140.257814 
L 332.17344 136.43322 
L 337.85856 136.43322 
L 339.7536 134.239703 
L 343.54368 134.239703 
L 345.43872 132.046186 
L 351.12384 132.046186 
L 353.01888 128.784032 
L 354.91392 126.590515 
L 356.80896 122.20348 
L 358.704 122.20348 
L 360.59904 120.009963 
L 364.38912 120.009963 
L 366.28416 117.816446 
L 370.07424 117.816446 
L 371.96928 114.554292 
L 383.33952 114.554292 
L 385.23456 112.923215 
L 387.1296 112.923215 
L 389.02464 110.729698 
L 390.91968 110.729698 
L 392.81472 108.53618 
L 400.39488 108.53618 
L 402.28992 104.149146 
L 404.18496 101.955629 
L 406.08 101.955629 
L 407.97504 100.324552 
L 419.34528 100.324552 
L 421.24032 98.131034 
L 481.8816 98.131034 
L 483.77664 95.937517 
L 514.09728 95.937517 
L 515.99232 93.744 
L 642.96 93.744 
L 642.96 93.744 
" clip-path="url(#p699c8e51ab)" style="fill: none; stroke: #252525; stroke-width: 2.5; stroke-linecap: square"/>
   </g>
   <g id="line2d_28">
    <path d="M 74.448 348.192 
L 99.08352 348.192 
L 100.97856 345.998483 
L 114.24384 345.998483 
L 116.13888 343.804966 
L 119.92896 343.804966 
L 121.824 339.417931 
L 123.71904 339.417931 
L 125.61408 335.030897 
L 135.08928 335.030897 
L 136.98432 330.643862 
L 138.87936 330.643862 
L 142.66944 326.256828 
L 144.56448 326.256828 
L 146.45952 321.869793 
L 157.82976 321.869793 
L 159.7248 318.045199 
L 163.51488 313.658164 
L 165.40992 307.077613 
L 174.88512 307.077613 
L 176.78016 304.884095 
L 178.6752 304.884095 
L 180.57024 302.690578 
L 182.46528 302.690578 
L 184.36032 298.303544 
L 186.25536 298.303544 
L 188.1504 296.110027 
L 190.04544 294.47895 
L 191.94048 294.47895 
L 193.83552 290.091915 
L 199.52064 283.511363 
L 201.41568 283.511363 
L 203.31072 279.124329 
L 205.20576 276.930812 
L 207.1008 275.299735 
L 208.99584 270.9127 
L 212.78592 270.9127 
L 214.68096 265.457029 
L 216.576 265.457029 
L 220.36608 256.68296 
L 226.0512 256.68296 
L 227.94624 254.489443 
L 229.84128 254.489443 
L 231.73632 252.295926 
L 233.63136 248.471332 
L 235.5264 248.471332 
L 237.42144 244.646737 
L 239.31648 244.646737 
L 241.21152 242.45322 
L 243.10656 240.822143 
L 245.0016 240.822143 
L 246.89664 238.628626 
L 248.79168 238.628626 
L 250.68672 236.997549 
L 254.4768 236.997549 
L 256.37184 234.804032 
L 258.26688 233.172955 
L 260.16192 229.348361 
L 262.05696 229.348361 
L 263.952 227.154844 
L 279.11232 227.154844 
L 281.00736 225.523767 
L 282.9024 218.437019 
L 286.69248 218.437019 
L 288.58752 216.243501 
L 290.48256 208.031873 
L 298.06272 208.031873 
L 299.95776 205.838355 
L 311.328 205.838355 
L 313.22304 204.207279 
L 315.11808 202.013761 
L 317.01312 202.013761 
L 318.90816 199.820244 
L 326.48832 199.820244 
L 328.38336 195.99565 
L 334.06848 195.99565 
L 335.96352 191.102419 
L 337.85856 189.471342 
L 339.7536 189.471342 
L 341.64864 187.840265 
L 343.54368 187.840265 
L 345.43872 184.578111 
L 351.12384 184.578111 
L 353.01888 182.384594 
L 354.91392 182.384594 
L 356.80896 179.12244 
L 358.704 177.491363 
L 362.49408 177.491363 
L 364.38912 175.860286 
L 370.07424 175.860286 
L 371.96928 174.22921 
L 373.86432 174.22921 
L 375.75936 172.598133 
L 377.6544 169.335979 
L 379.54944 169.335979 
L 381.44448 166.073825 
L 383.33952 161.180594 
L 385.23456 161.180594 
L 389.02464 157.91844 
L 390.91968 151.394133 
L 392.81472 151.394133 
L 396.6048 148.131979 
L 398.49984 148.131979 
L 400.39488 144.869825 
L 402.28992 144.869825 
L 406.08 141.607671 
L 407.97504 141.607671 
L 409.87008 139.976594 
L 415.5552 139.976594 
L 417.45024 138.345517 
L 421.24032 138.345517 
L 425.0304 135.083363 
L 432.61056 135.083363 
L 434.5056 133.452286 
L 440.19072 133.452286 
L 443.9808 130.190133 
L 451.56096 130.190133 
L 453.456 126.927979 
L 455.35104 125.296902 
L 462.9312 125.296902 
L 464.82624 122.034748 
L 466.72128 122.034748 
L 468.61632 118.210154 
L 470.51136 116.579077 
L 472.4064 116.579077 
L 474.30144 114.948 
L 485.67168 114.948 
L 487.56672 111.685846 
L 495.14688 111.685846 
L 497.04192 110.054769 
L 500.832 110.054769 
L 504.62208 106.792615 
L 506.51712 106.792615 
L 508.41216 105.161538 
L 519.7824 105.161538 
L 521.67744 103.530462 
L 534.94272 103.530462 
L 536.83776 101.899385 
L 550.10304 101.899385 
L 551.99808 100.268308 
L 563.36832 100.268308 
L 567.1584 97.006154 
L 572.84352 97.006154 
L 574.73856 95.375077 
L 605.0592 95.375077 
L 606.95424 93.744 
L 642.96 93.744 
L 642.96 93.744 
" clip-path="url(#p699c8e51ab)" style="fill: none; stroke: #3b83b4; stroke-width: 1.35; stroke-linecap: square"/>
   </g>
   <g id="line2d_29">
    <path d="M 74.448 348.192 
L 93.3984 348.192 
L 95.29344 346.560923 
L 97.18848 346.560923 
L 99.08352 344.929846 
L 108.55872 344.929846 
L 110.45376 343.298769 
L 112.3488 336.212021 
L 114.24384 334.580944 
L 116.13888 331.31879 
L 118.03392 329.687714 
L 119.92896 326.42556 
L 121.824 324.794483 
L 123.71904 321.532329 
L 125.61408 317.707735 
L 131.2992 317.707735 
L 136.98432 312.814504 
L 140.7744 312.814504 
L 144.56448 306.290196 
L 146.45952 306.290196 
L 148.35456 303.028042 
L 150.2496 303.028042 
L 154.03968 296.503735 
L 159.7248 296.503735 
L 163.51488 288.854546 
L 165.40992 288.854546 
L 167.30496 283.398875 
L 171.09504 275.749687 
L 172.99008 275.749687 
L 174.88512 269.225379 
L 176.78016 267.594302 
L 178.6752 263.769708 
L 182.46528 260.507554 
L 184.36032 260.507554 
L 188.1504 257.245401 
L 190.04544 252.35217 
L 191.94048 248.527576 
L 193.83552 246.896499 
L 195.73056 242.509464 
L 197.6256 238.68487 
L 201.41568 238.68487 
L 203.31072 236.491353 
L 205.20576 233.229199 
L 214.68096 233.229199 
L 218.47104 226.704891 
L 220.36608 225.073814 
L 222.26112 225.073814 
L 224.15616 223.442737 
L 233.63136 223.442737 
L 235.5264 221.81166 
L 237.42144 216.91843 
L 239.31648 205.444647 
L 245.0016 205.444647 
L 246.89664 202.182493 
L 248.79168 199.988976 
L 250.68672 199.988976 
L 252.58176 198.357899 
L 254.4768 196.164382 
L 256.37184 196.164382 
L 258.26688 194.533305 
L 260.16192 194.533305 
L 265.84704 187.952753 
L 267.74208 187.952753 
L 269.63712 186.321676 
L 271.53216 186.321676 
L 273.4272 182.497082 
L 281.00736 182.497082 
L 282.9024 176.478971 
L 286.69248 176.478971 
L 288.58752 174.285454 
L 294.27264 174.285454 
L 298.06272 166.636265 
L 301.8528 166.636265 
L 303.74784 164.442748 
L 305.64288 164.442748 
L 307.53792 162.811671 
L 311.328 162.811671 
L 313.22304 160.618154 
L 317.01312 160.618154 
L 318.90816 158.987077 
L 328.38336 158.987077 
L 332.17344 154.600042 
L 337.85856 154.600042 
L 339.7536 152.968966 
L 351.12384 152.968966 
L 354.91392 148.581931 
L 358.704 148.581931 
L 360.59904 146.388414 
L 364.38912 146.388414 
L 366.28416 144.194897 
L 370.07424 144.194897 
L 371.96928 142.001379 
L 373.86432 142.001379 
L 375.75936 139.807862 
L 379.54944 139.807862 
L 383.33952 135.420828 
L 387.1296 135.420828 
L 389.02464 128.840276 
L 404.18496 128.840276 
L 406.08 126.646759 
L 407.97504 126.646759 
L 409.87008 124.453241 
L 411.76512 124.453241 
L 413.66016 122.259724 
L 421.24032 122.259724 
L 423.13536 120.066207 
L 425.0304 115.679172 
L 430.71552 115.679172 
L 432.61056 113.485655 
L 443.9808 113.485655 
L 445.87584 111.292138 
L 459.14112 111.292138 
L 461.03616 109.098621 
L 464.82624 109.098621 
L 466.72128 106.905103 
L 470.51136 106.905103 
L 472.4064 104.711586 
L 474.30144 104.711586 
L 476.19648 102.518069 
L 479.98656 102.518069 
L 481.8816 100.324552 
L 495.14688 100.324552 
L 497.04192 98.131034 
L 557.6832 98.131034 
L 559.57824 95.937517 
L 588.00384 95.937517 
L 589.89888 93.744 
L 642.96 93.744 
L 642.96 93.744 
" clip-path="url(#p699c8e51ab)" style="fill: none; stroke-dasharray: 4.995,2.16; stroke-dashoffset: 0; stroke: #c38a19; stroke-width: 1.35"/>
   </g>
   <g id="line2d_30">
    <path d="M 74.448 348.192 
L 110.45376 348.192 
L 114.24384 343.804966 
L 119.92896 343.804966 
L 121.824 340.542812 
L 136.98432 340.542812 
L 138.87936 335.087141 
L 140.7744 335.087141 
L 142.66944 332.893623 
L 144.56448 331.262546 
L 152.14464 331.262546 
L 154.03968 326.875512 
L 155.93472 326.875512 
L 159.7248 322.488477 
L 161.61984 322.488477 
L 163.51488 319.226324 
L 165.40992 319.226324 
L 167.30496 317.595247 
L 169.2 312.139576 
L 171.09504 310.508499 
L 176.78016 310.508499 
L 178.6752 308.877422 
L 180.57024 308.877422 
L 182.46528 305.052828 
L 186.25536 305.052828 
L 188.1504 299.597156 
L 190.04544 295.772562 
L 191.94048 294.141485 
L 193.83552 288.685814 
L 195.73056 288.685814 
L 197.6256 283.792584 
L 201.41568 277.268276 
L 203.31072 275.074759 
L 205.20576 275.074759 
L 207.1008 271.812605 
L 208.99584 271.812605 
L 212.78592 268.550451 
L 214.68096 263.65722 
L 218.47104 263.65722 
L 220.36608 259.832626 
L 222.26112 259.832626 
L 224.15616 254.376955 
L 226.0512 254.376955 
L 227.94624 248.358844 
L 229.84128 246.727767 
L 231.73632 240.709655 
L 233.63136 240.709655 
L 235.5264 235.253984 
L 239.31648 231.99183 
L 241.21152 228.167236 
L 243.10656 224.905082 
L 245.0016 219.449411 
L 248.79168 219.449411 
L 254.4768 214.55618 
L 256.37184 210.731586 
L 258.26688 206.344552 
L 262.05696 203.082398 
L 263.952 199.820244 
L 265.84704 199.820244 
L 267.74208 194.927013 
L 269.63712 192.733496 
L 271.53216 192.733496 
L 273.4272 191.102419 
L 275.32224 191.102419 
L 277.21728 188.908902 
L 279.11232 187.277825 
L 284.79744 187.277825 
L 288.58752 179.628637 
L 292.3776 176.366483 
L 294.27264 174.172966 
L 296.16768 174.172966 
L 299.95776 169.785931 
L 301.8528 168.154854 
L 303.74784 164.8927 
L 305.64288 163.261623 
L 309.43296 163.261623 
L 311.328 161.630546 
L 315.11808 161.630546 
L 317.01312 159.437029 
L 318.90816 159.437029 
L 320.8032 155.049995 
L 322.69824 153.418918 
L 326.48832 149.031883 
L 328.38336 147.400806 
L 330.2784 147.400806 
L 332.17344 141.382695 
L 335.96352 136.99566 
L 343.54368 136.99566 
L 347.33376 132.608626 
L 349.2288 132.608626 
L 351.12384 130.415109 
L 356.80896 130.415109 
L 358.704 128.221592 
L 362.49408 128.221592 
L 364.38912 126.590515 
L 366.28416 122.76592 
L 371.96928 122.76592 
L 373.86432 117.310249 
L 379.54944 117.310249 
L 381.44448 115.116732 
L 394.70976 115.116732 
L 396.6048 112.923215 
L 402.28992 112.923215 
L 404.18496 108.53618 
L 406.08 106.342663 
L 413.66016 106.342663 
L 415.5552 104.149146 
L 419.34528 104.149146 
L 421.24032 102.518069 
L 423.13536 102.518069 
L 425.0304 100.324552 
L 440.19072 100.324552 
L 442.08576 98.131034 
L 497.04192 98.131034 
L 498.93696 95.937517 
L 521.67744 95.937517 
L 523.57248 93.744 
L 642.96 93.744 
L 642.96 93.744 
" clip-path="url(#p699c8e51ab)" style="fill: none; stroke-dasharray: 1.35,2.2275; stroke-dashoffset: 0; stroke: #7d8a92; stroke-width: 1.35"/>
   </g>
   <g id="line2d_31">
    <path d="M 74.448 348.192 
L 152.14464 348.192 
L 154.03968 345.998483 
L 165.40992 345.998483 
L 167.30496 343.804966 
L 180.57024 343.804966 
L 182.46528 341.611448 
L 184.36032 341.611448 
L 186.25536 339.417931 
L 191.94048 339.417931 
L 195.73056 335.030897 
L 207.1008 335.030897 
L 210.89088 330.643862 
L 216.576 330.643862 
L 218.47104 328.450345 
L 220.36608 328.450345 
L 222.26112 326.256828 
L 224.15616 326.256828 
L 226.0512 320.238716 
L 233.63136 320.238716 
L 237.42144 315.851682 
L 245.0016 315.851682 
L 250.68672 309.27113 
L 256.37184 309.27113 
L 258.26688 307.077613 
L 260.16192 302.690578 
L 262.05696 302.690578 
L 263.952 300.497061 
L 265.84704 300.497061 
L 267.74208 298.303544 
L 279.11232 298.303544 
L 281.00736 296.110027 
L 284.79744 296.110027 
L 286.69248 291.722992 
L 288.58752 291.722992 
L 292.3776 287.335958 
L 294.27264 287.335958 
L 296.16768 282.948923 
L 298.06272 280.755406 
L 301.8528 280.755406 
L 305.64288 276.368371 
L 309.43296 276.368371 
L 311.328 274.174854 
L 318.90816 274.174854 
L 322.69824 269.78782 
L 326.48832 269.78782 
L 328.38336 265.963225 
L 330.2784 265.963225 
L 332.17344 263.769708 
L 334.06848 262.138631 
L 335.96352 257.751597 
L 341.64864 257.751597 
L 343.54368 256.12052 
L 347.33376 256.12052 
L 349.2288 253.927003 
L 351.12384 253.927003 
L 353.01888 250.102408 
L 354.91392 248.471332 
L 356.80896 248.471332 
L 358.704 246.277814 
L 360.59904 246.277814 
L 362.49408 244.646737 
L 364.38912 242.45322 
L 371.96928 242.45322 
L 373.86432 240.822143 
L 375.75936 238.628626 
L 379.54944 238.628626 
L 381.44448 236.435109 
L 383.33952 236.435109 
L 385.23456 234.241592 
L 389.02464 234.241592 
L 390.91968 229.854557 
L 394.70976 229.854557 
L 396.6048 226.029963 
L 400.39488 222.767809 
L 409.87008 222.767809 
L 411.76512 221.136732 
L 413.66016 221.136732 
L 415.5552 218.943215 
L 417.45024 217.312138 
L 421.24032 217.312138 
L 425.0304 214.049984 
L 428.82048 214.049984 
L 432.61056 209.66295 
L 434.5056 208.031873 
L 436.40064 205.838355 
L 440.19072 205.838355 
L 442.08576 201.451321 
L 447.77088 201.451321 
L 449.66592 199.820244 
L 453.456 199.820244 
L 455.35104 198.189167 
L 457.24608 198.189167 
L 459.14112 196.55809 
L 461.03616 196.55809 
L 462.9312 192.733496 
L 464.82624 189.471342 
L 466.72128 189.471342 
L 470.51136 186.209188 
L 472.4064 186.209188 
L 474.30144 184.015671 
L 478.09152 184.015671 
L 479.98656 182.384594 
L 487.56672 182.384594 
L 489.46176 180.753517 
L 491.3568 180.753517 
L 493.25184 179.12244 
L 495.14688 179.12244 
L 498.93696 172.598133 
L 500.832 170.967056 
L 504.62208 170.967056 
L 506.51712 167.704902 
L 508.41216 166.073825 
L 510.3072 159.549517 
L 512.20224 159.549517 
L 514.09728 156.287363 
L 519.7824 156.287363 
L 521.67744 154.656286 
L 523.57248 154.656286 
L 525.46752 149.763056 
L 527.36256 149.763056 
L 529.2576 146.500902 
L 531.15264 146.500902 
L 533.04768 141.607671 
L 534.94272 139.976594 
L 536.83776 139.976594 
L 538.7328 138.345517 
L 542.52288 138.345517 
L 544.41792 136.71444 
L 557.6832 136.71444 
L 559.57824 133.452286 
L 561.47328 133.452286 
L 563.36832 131.82121 
L 565.26336 131.82121 
L 569.05344 128.559056 
L 572.84352 128.559056 
L 574.73856 125.296902 
L 578.52864 125.296902 
L 580.42368 123.665825 
L 582.31872 123.665825 
L 584.21376 122.034748 
L 589.89888 122.034748 
L 591.79392 118.772594 
L 593.68896 118.772594 
L 595.584 116.579077 
L 597.47904 114.948 
L 599.37408 114.948 
L 601.26912 113.316923 
L 603.16416 113.316923 
L 605.0592 110.054769 
L 606.95424 110.054769 
L 608.84928 108.423692 
L 612.63936 108.423692 
L 614.5344 106.792615 
L 627.79968 106.792615 
L 629.69472 105.161538 
L 637.27488 105.161538 
L 641.06496 101.899385 
L 642.96 101.899385 
L 642.96 101.899385 
" clip-path="url(#p699c8e51ab)" style="fill: none; stroke-dasharray: 8.64,2.16,1.35,2.16; stroke-dashoffset: 0; stroke: #d0526a; stroke-width: 1.35"/>
   </g>
   <g id="line2d_32">
    <path d="M 74.448 348.192 
L 97.18848 348.192 
L 99.08352 345.998483 
L 112.3488 345.998483 
L 114.24384 343.804966 
L 138.87936 343.804966 
L 142.66944 339.417931 
L 159.7248 339.417931 
L 163.51488 335.030897 
L 165.40992 335.030897 
L 167.30496 332.837379 
L 169.2 332.837379 
L 171.09504 330.643862 
L 176.78016 330.643862 
L 178.6752 328.450345 
L 180.57024 324.06331 
L 184.36032 319.676276 
L 186.25536 319.676276 
L 190.04544 315.289241 
L 197.6256 315.289241 
L 199.52064 313.095724 
L 201.41568 311.464647 
L 203.31072 309.27113 
L 216.576 309.27113 
L 220.36608 304.884095 
L 222.26112 304.884095 
L 226.0512 300.497061 
L 227.94624 300.497061 
L 229.84128 298.303544 
L 231.73632 298.303544 
L 233.63136 296.110027 
L 237.42144 296.110027 
L 239.31648 293.916509 
L 241.21152 293.916509 
L 243.10656 291.722992 
L 245.0016 287.335958 
L 246.89664 287.335958 
L 250.68672 282.948923 
L 256.37184 282.948923 
L 258.26688 280.755406 
L 263.952 280.755406 
L 265.84704 276.368371 
L 267.74208 276.368371 
L 269.63712 274.174854 
L 271.53216 269.78782 
L 279.11232 269.78782 
L 281.00736 267.594302 
L 282.9024 267.594302 
L 284.79744 263.207268 
L 286.69248 261.576191 
L 288.58752 259.382674 
L 303.74784 259.382674 
L 307.53792 256.12052 
L 309.43296 256.12052 
L 311.328 253.927003 
L 315.11808 250.664849 
L 317.01312 246.840255 
L 318.90816 244.646737 
L 322.69824 244.646737 
L 324.59328 242.45322 
L 326.48832 242.45322 
L 328.38336 240.259703 
L 332.17344 240.259703 
L 334.06848 238.628626 
L 335.96352 238.628626 
L 337.85856 236.435109 
L 343.54368 236.435109 
L 345.43872 234.241592 
L 347.33376 234.241592 
L 349.2288 232.048074 
L 351.12384 232.048074 
L 353.01888 229.854557 
L 354.91392 226.029963 
L 358.704 222.767809 
L 375.75936 222.767809 
L 377.6544 220.574292 
L 379.54944 217.312138 
L 381.44448 217.312138 
L 383.33952 211.856467 
L 385.23456 211.856467 
L 387.1296 210.22539 
L 389.02464 208.031873 
L 390.91968 208.031873 
L 392.81472 205.838355 
L 398.49984 205.838355 
L 400.39488 203.644838 
L 406.08 203.644838 
L 407.97504 201.451321 
L 413.66016 201.451321 
L 415.5552 199.820244 
L 421.24032 199.820244 
L 423.13536 198.189167 
L 426.92544 198.189167 
L 428.82048 193.295936 
L 430.71552 187.840265 
L 432.61056 186.209188 
L 434.5056 186.209188 
L 436.40064 184.015671 
L 440.19072 184.015671 
L 442.08576 182.384594 
L 451.56096 182.384594 
L 455.35104 179.12244 
L 457.24608 179.12244 
L 459.14112 177.491363 
L 464.82624 177.491363 
L 466.72128 174.22921 
L 468.61632 172.598133 
L 470.51136 169.335979 
L 474.30144 166.073825 
L 476.19648 162.811671 
L 481.8816 157.91844 
L 483.77664 154.656286 
L 485.67168 153.02521 
L 487.56672 149.763056 
L 489.46176 149.763056 
L 491.3568 148.131979 
L 493.25184 148.131979 
L 495.14688 146.500902 
L 497.04192 141.607671 
L 498.93696 141.607671 
L 500.832 139.976594 
L 504.62208 139.976594 
L 506.51712 138.345517 
L 512.20224 138.345517 
L 514.09728 136.71444 
L 521.67744 136.71444 
L 523.57248 135.083363 
L 525.46752 135.083363 
L 527.36256 133.452286 
L 534.94272 133.452286 
L 544.41792 125.296902 
L 550.10304 125.296902 
L 551.99808 123.665825 
L 553.89312 120.403671 
L 561.47328 120.403671 
L 563.36832 118.210154 
L 567.1584 114.948 
L 569.05344 114.948 
L 570.94848 113.316923 
L 572.84352 113.316923 
L 574.73856 110.054769 
L 584.21376 110.054769 
L 588.00384 106.792615 
L 595.584 106.792615 
L 597.47904 105.161538 
L 608.84928 105.161538 
L 610.74432 103.530462 
L 614.5344 103.530462 
L 616.42944 101.899385 
L 642.96 101.899385 
L 642.96 101.899385 
" clip-path="url(#p699c8e51ab)" style="fill: none; stroke-dasharray: 6.75,2.7,1.35,2.7; stroke-dashoffset: 0; stroke: #2f8f84; stroke-width: 1.35"/>
   </g>
   <g id="patch_4">
    <path d="M 74.448 348.192 
L 74.448 93.744 
" style="fill: none; stroke: #000000; stroke-width: 0.8; stroke-linejoin: miter; stroke-linecap: square"/>
   </g>
   <g id="patch_5">
    <path d="M 74.448 348.192 
L 642.96 348.192 
" style="fill: none; stroke: #000000; stroke-width: 0.8; stroke-linejoin: miter; stroke-linecap: square"/>
   </g>
  </g>
  <g id="text_16">
   <text style="font: 18px 'DejaVu Sans', 'Bitstream Vera Sans', 'Computer Modern Sans Serif', 'Lucida Grande', 'Verdana', 'Geneva', 'Lucid', 'Arial', 'Helvetica', 'Avant Garde', sans-serif; text-anchor: start" x="74.448" y="38.229188" transform="rotate(-0 74.448 38.229188)">QD-OLED → QDEF LCD</text>
  </g>
  <g id="text_17">
   <text style="fill: #66747c; font: 10px 'DejaVu Sans', 'Bitstream Vera Sans', 'Computer Modern Sans Serif', 'Lucida Grande', 'Verdana', 'Geneva', 'Lucid', 'Arial', 'Helvetica', 'Avant Garde', sans-serif; text-anchor: start" x="74.448" y="64.728" transform="rotate(-0 74.448 64.728)">D50</text>
  </g>
  <g id="legend_1">
   <g id="line2d_33">
    <path d="M 185.17875 404.151391 
L 194.27875 404.151391 
L 203.37875 404.151391 
" style="fill: none; stroke: #252525; stroke-width: 2.5; stroke-linecap: square"/>
   </g>
   <g id="text_18">
    <text style="font: 9.1px 'DejaVu Sans', 'Bitstream Vera Sans', 'Computer Modern Sans Serif', 'Lucida Grande', 'Verdana', 'Geneva', 'Lucid', 'Arial', 'Helvetica', 'Avant Garde', sans-serif; text-anchor: start" x="210.65875" y="407.336391" transform="rotate(-0 210.65875 407.336391)">Potera CMF</text>
   </g>
   <g id="line2d_34">
    <path d="M 185.17875 417.508484 
L 194.27875 417.508484 
L 203.37875 417.508484 
" style="fill: none; stroke: #3b83b4; stroke-width: 1.35; stroke-linecap: square"/>
   </g>
   <g id="text_19">
    <text style="font: 9.1px 'DejaVu Sans', 'Bitstream Vera Sans', 'Computer Modern Sans Serif', 'Lucida Grande', 'Verdana', 'Geneva', 'Lucid', 'Arial', 'Helvetica', 'Avant Garde', sans-serif; text-anchor: start" x="210.65875" y="420.693484" transform="rotate(-0 210.65875 420.693484)">CIE 2015 2°</text>
   </g>
   <g id="line2d_35">
    <path d="M 282.931234 404.151391 
L 292.031234 404.151391 
L 301.131234 404.151391 
" style="fill: none; stroke-dasharray: 4.995,2.16; stroke-dashoffset: 0; stroke: #c38a19; stroke-width: 1.35"/>
   </g>
   <g id="text_20">
    <text style="font: 9.1px 'DejaVu Sans', 'Bitstream Vera Sans', 'Computer Modern Sans Serif', 'Lucida Grande', 'Verdana', 'Geneva', 'Lucid', 'Arial', 'Helvetica', 'Avant Garde', sans-serif; text-anchor: start" x="308.411234" y="407.336391" transform="rotate(-0 308.411234 407.336391)">CIE 2015 10°</text>
   </g>
   <g id="line2d_36">
    <path d="M 282.931234 417.508484 
L 292.031234 417.508484 
L 301.131234 417.508484 
" style="fill: none; stroke-dasharray: 1.35,2.2275; stroke-dashoffset: 0; stroke: #7d8a92; stroke-width: 1.35"/>
   </g>
   <g id="text_21">
    <text style="font: 9.1px 'DejaVu Sans', 'Bitstream Vera Sans', 'Computer Modern Sans Serif', 'Lucida Grande', 'Verdana', 'Geneva', 'Lucid', 'Arial', 'Helvetica', 'Avant Garde', sans-serif; text-anchor: start" x="308.411234" y="420.693484" transform="rotate(-0 308.411234 420.693484)">CIE 1964 10°</text>
   </g>
   <g id="line2d_37">
    <path d="M 386.473594 404.151391 
L 395.573594 404.151391 
L 404.673594 404.151391 
" style="fill: none; stroke-dasharray: 8.64,2.16,1.35,2.16; stroke-dashoffset: 0; stroke: #d0526a; stroke-width: 1.35"/>
   </g>
   <g id="text_22">
    <text style="font: 9.1px 'DejaVu Sans', 'Bitstream Vera Sans', 'Computer Modern Sans Serif', 'Lucida Grande', 'Verdana', 'Geneva', 'Lucid', 'Arial', 'Helvetica', 'Avant Garde', sans-serif; text-anchor: start" x="411.953594" y="407.336391" transform="rotate(-0 411.953594 407.336391)">CIE 1931 2°</text>
   </g>
   <g id="line2d_38">
    <path d="M 386.473594 417.508484 
L 395.573594 417.508484 
L 404.673594 417.508484 
" style="fill: none; stroke-dasharray: 6.75,2.7,1.35,2.7; stroke-dashoffset: 0; stroke: #2f8f84; stroke-width: 1.35"/>
   </g>
   <g id="text_23">
    <text style="font: 9.1px 'DejaVu Sans', 'Bitstream Vera Sans', 'Computer Modern Sans Serif', 'Lucida Grande', 'Verdana', 'Geneva', 'Lucid', 'Arial', 'Helvetica', 'Avant Garde', sans-serif; text-anchor: start" x="411.953594" y="420.693484" transform="rotate(-0 411.953594 420.693484)">Judd–Vos 1978 2°</text>
   </g>
  </g>
 </g>
 <defs>
  <clipPath id="p699c8e51ab">
   <rect x="74.448" y="93.744" width="568.512" height="254.448"/>
  </clipPath>
 </defs>
</svg>
