<?xml version="1.0" encoding="utf-8" standalone="no"?>
<!DOCTYPE svg PUBLIC "-//W3C//DTD SVG 1.1//EN"
  "http://www.w3.org/Graphics/SVG/1.1/DTD/svg11.dtd">
<svg xmlns:xlink="http://www.w3.org/1999/xlink" width="676.8pt" height="446.4pt" viewBox="0 0 676.8 446.4" xmlns="http://www.w3.org/2000/svg" version="1.1">
 <metadata>
  <rdf:RDF xmlns:dc="http://purl.org/dc/elements/1.1/" xmlns:cc="http://creativecommons.org/ns#" xmlns:rdf="http://www.w3.org/1999/02/22-rdf-syntax-ns#">
   <cc:Work>
    <dc:type rdf:resource="http://purl.org/dc/dcmitype/StillImage"/>
    <dc:date>2026-07-20T06:42:01.220310</dc:date>
    <dc:format>image/svg+xml</dc:format>
    <dc:creator>
     <cc:Agent>
      <dc:title>Matplotlib v3.9.4, https://matplotlib.org/</dc:title>
     </cc:Agent>
    </dc:creator>
   </cc:Work>
  </rdf:RDF>
 </metadata>
 <defs>
  <style type="text/css">*{stroke-linejoin: round; stroke-linecap: butt}</style>
 </defs>
 <g id="figure_1">
  <g id="patch_1">
   <path d="M 0 446.4 
L 676.8 446.4 
L 676.8 0 
L 0 0 
z
" style="fill: #ffffff"/>
  </g>
  <g id="axes_1">
   <g id="patch_2">
    <path d="M 74.448 348.192 
L 642.96 348.192 
L 642.96 93.744 
L 74.448 93.744 
z
" style="fill: #ffffff"/>
   </g>
   <g id="patch_3">
    <path d="M 169.2 348.192 
L 358.704 348.192 
L 358.704 93.744 
L 169.2 93.744 
z
" clip-path="url(#pb7983aacef)" style="fill: #e7f0ea; opacity: 0.58; stroke: #e7f0ea; stroke-linejoin: miter"/>
   </g>
   <g id="matplotlib.axis_1">
    <g id="xtick_1">
     <g id="line2d_1">
      <path d="M 74.448 348.192 
L 74.448 93.744 
" clip-path="url(#pb7983aacef)" style="fill: none; stroke: #dfe5e8; stroke-width: 0.65; stroke-linecap: square"/>
     </g>
     <g id="line2d_2">
      <defs>
       <path id="macd0c1863b" d="M 0 0 
L 0 3.5 
" style="stroke: #000000; stroke-width: 0.8"/>
      </defs>
      <g>
       <use xlink:href="#macd0c1863b" x="74.448" y="348.192" style="stroke: #000000; stroke-width: 0.8"/>
      </g>
     </g>
     <g id="text_1">
      <text style="font: 10px 'DejaVu Sans', 'Bitstream Vera Sans', 'Computer Modern Sans Serif', 'Lucida Grande', 'Verdana', 'Geneva', 'Lucid', 'Arial', 'Helvetica', 'Avant Garde', sans-serif; text-anchor: middle" x="74.448" y="362.790438" transform="rotate(-0 74.448 362.790438)">0</text>
     </g>
    </g>
    <g id="xtick_2">
     <g id="line2d_3">
      <path d="M 169.2 348.192 
L 169.2 93.744 
" clip-path="url(#pb7983aacef)" style="fill: none; stroke: #dfe5e8; stroke-width: 0.65; stroke-linecap: square"/>
     </g>
     <g id="line2d_4">
      <g>
       <use xlink:href="#macd0c1863b" x="169.2" y="348.192" style="stroke: #000000; stroke-width: 0.8"/>
      </g>
     </g>
     <g id="text_2">
      <text style="font: 10px 'DejaVu Sans', 'Bitstream Vera Sans', 'Computer Modern Sans Serif', 'Lucida Grande', 'Verdana', 'Geneva', 'Lucid', 'Arial', 'Helvetica', 'Avant Garde', sans-serif; text-anchor: middle" x="169.2" y="362.790438" transform="rotate(-0 169.2 362.790438)">1</text>
     </g>
    </g>
    <g id="xtick_3">
     <g id="line2d_5">
      <path d="M 263.952 348.192 
L 263.952 93.744 
" clip-path="url(#pb7983aacef)" style="fill: none; stroke: #dfe5e8; stroke-width: 0.65; stroke-linecap: square"/>
     </g>
     <g id="line2d_6">
      <g>
       <use xlink:href="#macd0c1863b" x="263.952" y="348.192" style="stroke: #000000; stroke-width: 0.8"/>
      </g>
     </g>
     <g id="text_3">
      <text style="font: 10px 'DejaVu Sans', 'Bitstream Vera Sans', 'Computer Modern Sans Serif', 'Lucida Grande', 'Verdana', 'Geneva', 'Lucid', 'Arial', 'Helvetica', 'Avant Garde', sans-serif; text-anchor: middle" x="263.952" y="362.790438" transform="rotate(-0 263.952 362.790438)">2</text>
     </g>
    </g>
    <g id="xtick_4">
     <g id="line2d_7">
      <path d="M 358.704 348.192 
L 358.704 93.744 
" clip-path="url(#pb7983aacef)" style="fill: none; stroke: #dfe5e8; stroke-width: 0.65; stroke-linecap: square"/>
     </g>
     <g id="line2d_8">
      <g>
       <use xlink:href="#macd0c1863b" x="358.704" y="348.192" style="stroke: #000000; stroke-width: 0.8"/>
      </g>
     </g>
     <g id="text_4">
      <text style="font: 10px 'DejaVu Sans', 'Bitstream Vera Sans', 'Computer Modern Sans Serif', 'Lucida Grande', 'Verdana', 'Geneva', 'Lucid', 'Arial', 'Helvetica', 'Avant Garde', sans-serif; text-anchor: middle" x="358.704" y="362.790438" transform="rotate(-0 358.704 362.790438)">3</text>
     </g>
    </g>
    <g id="xtick_5">
     <g id="line2d_9">
      <path d="M 453.456 348.192 
L 453.456 93.744 
" clip-path="url(#pb7983aacef)" style="fill: none; stroke: #dfe5e8; stroke-width: 0.65; stroke-linecap: square"/>
     </g>
     <g id="line2d_10">
      <g>
       <use xlink:href="#macd0c1863b" x="453.456" y="348.192" style="stroke: #000000; stroke-width: 0.8"/>
      </g>
     </g>
     <g id="text_5">
      <text style="font: 10px 'DejaVu Sans', 'Bitstream Vera Sans', 'Computer Modern Sans Serif', 'Lucida Grande', 'Verdana', 'Geneva', 'Lucid', 'Arial', 'Helvetica', 'Avant Garde', sans-serif; text-anchor: middle" x="453.456" y="362.790438" transform="rotate(-0 453.456 362.790438)">4</text>
     </g>
    </g>
    <g id="xtick_6">
     <g id="line2d_11">
      <path d="M 548.208 348.192 
L 548.208 93.744 
" clip-path="url(#pb7983aacef)" style="fill: none; stroke: #dfe5e8; stroke-width: 0.65; stroke-linecap: square"/>
     </g>
     <g id="line2d_12">
      <g>
       <use xlink:href="#macd0c1863b" x="548.208" y="348.192" style="stroke: #000000; stroke-width: 0.8"/>
      </g>
     </g>
     <g id="text_6">
      <text style="font: 10px 'DejaVu Sans', 'Bitstream Vera Sans', 'Computer Modern Sans Serif', 'Lucida Grande', 'Verdana', 'Geneva', 'Lucid', 'Arial', 'Helvetica', 'Avant Garde', sans-serif; text-anchor: middle" x="548.208" y="362.790438" transform="rotate(-0 548.208 362.790438)">5</text>
     </g>
    </g>
    <g id="xtick_7">
     <g id="line2d_13">
      <path d="M 642.96 348.192 
L 642.96 93.744 
" clip-path="url(#pb7983aacef)" style="fill: none; stroke: #dfe5e8; stroke-width: 0.65; stroke-linecap: square"/>
     </g>
     <g id="line2d_14">
      <g>
       <use xlink:href="#macd0c1863b" x="642.96" y="348.192" style="stroke: #000000; stroke-width: 0.8"/>
      </g>
     </g>
     <g id="text_7">
      <text style="font: 10px 'DejaVu Sans', 'Bitstream Vera Sans', 'Computer Modern Sans Serif', 'Lucida Grande', 'Verdana', 'Geneva', 'Lucid', 'Arial', 'Helvetica', 'Avant Garde', sans-serif; text-anchor: middle" x="642.96" y="362.790438" transform="rotate(-0 642.96 362.790438)">6</text>
     </g>
    </g>
    <g id="text_8">
     <text style="font: 10px 'DejaVu Sans', 'Bitstream Vera Sans', 'Computer Modern Sans Serif', 'Lucida Grande', 'Verdana', 'Geneva', 'Lucid', 'Arial', 'Helvetica', 'Avant Garde', sans-serif; text-anchor: middle" x="358.704" y="376.468563" transform="rotate(-0 358.704 376.468563)">sUCS dE threshold</text>
    </g>
   </g>
   <g id="matplotlib.axis_2">
    <g id="ytick_1">
     <g id="line2d_15">
      <path d="M 74.448 348.192 
L 642.96 348.192 
" clip-path="url(#pb7983aacef)" style="fill: none; stroke: #dfe5e8; stroke-width: 0.65; stroke-linecap: square"/>
     </g>
     <g id="line2d_16">
      <defs>
       <path id="mdce079ee2c" d="M 0 0 
L -3.5 0 
" style="stroke: #000000; stroke-width: 0.8"/>
      </defs>
      <g>
       <use xlink:href="#mdce079ee2c" x="74.448" y="348.192" style="stroke: #000000; stroke-width: 0.8"/>
      </g>
     </g>
     <g id="text_9">
      <text style="font: 10px 'DejaVu Sans', 'Bitstream Vera Sans', 'Computer Modern Sans Serif', 'Lucida Grande', 'Verdana', 'Geneva', 'Lucid', 'Arial', 'Helvetica', 'Avant Garde', sans-serif; text-anchor: end" x="67.448" y="351.991219" transform="rotate(-0 67.448 351.991219)">0</text>
     </g>
    </g>
    <g id="ytick_2">
     <g id="line2d_17">
      <path d="M 74.448 297.3024 
L 642.96 297.3024 
" clip-path="url(#pb7983aacef)" style="fill: none; stroke: #dfe5e8; stroke-width: 0.65; stroke-linecap: square"/>
     </g>
     <g id="line2d_18">
      <g>
       <use xlink:href="#mdce079ee2c" x="74.448" y="297.3024" style="stroke: #000000; stroke-width: 0.8"/>
      </g>
     </g>
     <g id="text_10">
      <text style="font: 10px 'DejaVu Sans', 'Bitstream Vera Sans', 'Computer Modern Sans Serif', 'Lucida Grande', 'Verdana', 'Geneva', 'Lucid', 'Arial', 'Helvetica', 'Avant Garde', sans-serif; text-anchor: end" x="67.448" y="301.101619" transform="rotate(-0 67.448 301.101619)">20</text>
     </g>
    </g>
    <g id="ytick_3">
     <g id="line2d_19">
      <path d="M 74.448 246.4128 
L 642.96 246.4128 
" clip-path="url(#pb7983aacef)" style="fill: none; stroke: #dfe5e8; stroke-width: 0.65; stroke-linecap: square"/>
     </g>
     <g id="line2d_20">
      <g>
       <use xlink:href="#mdce079ee2c" x="74.448" y="246.4128" style="stroke: #000000; stroke-width: 0.8"/>
      </g>
     </g>
     <g id="text_11">
      <text style="font: 10px 'DejaVu Sans', 'Bitstream Vera Sans', 'Computer Modern Sans Serif', 'Lucida Grande', 'Verdana', 'Geneva', 'Lucid', 'Arial', 'Helvetica', 'Avant Garde', sans-serif; text-anchor: end" x="67.448" y="250.212019" transform="rotate(-0 67.448 250.212019)">40</text>
     </g>
    </g>
    <g id="ytick_4">
     <g id="line2d_21">
      <path d="M 74.448 195.5232 
L 642.96 195.5232 
" clip-path="url(#pb7983aacef)" style="fill: none; stroke: #dfe5e8; stroke-width: 0.65; stroke-linecap: square"/>
     </g>
     <g id="line2d_22">
      <g>
       <use xlink:href="#mdce079ee2c" x="74.448" y="195.5232" style="stroke: #000000; stroke-width: 0.8"/>
      </g>
     </g>
     <g id="text_12">
      <text style="font: 10px 'DejaVu Sans', 'Bitstream Vera Sans', 'Computer Modern Sans Serif', 'Lucida Grande', 'Verdana', 'Geneva', 'Lucid', 'Arial', 'Helvetica', 'Avant Garde', sans-serif; text-anchor: end" x="67.448" y="199.322419" transform="rotate(-0 67.448 199.322419)">60</text>
     </g>
    </g>
    <g id="ytick_5">
     <g id="line2d_23">
      <path d="M 74.448 144.6336 
L 642.96 144.6336 
" clip-path="url(#pb7983aacef)" style="fill: none; stroke: #dfe5e8; stroke-width: 0.65; stroke-linecap: square"/>
     </g>
     <g id="line2d_24">
      <g>
       <use xlink:href="#mdce079ee2c" x="74.448" y="144.6336" style="stroke: #000000; stroke-width: 0.8"/>
      </g>
     </g>
     <g id="text_13">
      <text style="font: 10px 'DejaVu Sans', 'Bitstream Vera Sans', 'Computer Modern Sans Serif', 'Lucida Grande', 'Verdana', 'Geneva', 'Lucid', 'Arial', 'Helvetica', 'Avant Garde', sans-serif; text-anchor: end" x="67.448" y="148.432819" transform="rotate(-0 67.448 148.432819)">80</text>
     </g>
    </g>
    <g id="ytick_6">
     <g id="line2d_25">
      <path d="M 74.448 93.744 
L 642.96 93.744 
" clip-path="url(#pb7983aacef)" style="fill: none; stroke: #dfe5e8; stroke-width: 0.65; stroke-linecap: square"/>
     </g>
     <g id="line2d_26">
      <g>
       <use xlink:href="#mdce079ee2c" x="74.448" y="93.744" style="stroke: #000000; stroke-width: 0.8"/>
      </g>
     </g>
     <g id="text_14">
      <text style="font: 10px 'DejaVu Sans', 'Bitstream Vera Sans', 'Computer Modern Sans Serif', 'Lucida Grande', 'Verdana', 'Geneva', 'Lucid', 'Arial', 'Helvetica', 'Avant Garde', sans-serif; text-anchor: end" x="67.448" y="97.543219" transform="rotate(-0 67.448 97.543219)">100</text>
     </g>
    </g>
    <g id="text_15">
     <text style="font: 10px 'DejaVu Sans', 'Bitstream Vera Sans', 'Computer Modern Sans Serif', 'Lucida Grande', 'Verdana', 'Geneva', 'Lucid', 'Arial', 'Helvetica', 'Avant Garde', sans-serif; text-anchor: middle" x="42.280812" y="220.968" transform="rotate(-90 42.280812 220.968)">observers%</text>
    </g>
   </g>
   <g id="line2d_27">
    <path d="M 74.448 348.192 
L 83.9232 348.192 
L 85.81824 346.560923 
L 95.29344 346.560923 
L 97.18848 344.929846 
L 99.08352 340.542812 
L 100.97856 338.911735 
L 106.66368 338.911735 
L 108.55872 337.280658 
L 110.45376 337.280658 
L 112.3488 335.087141 
L 114.24384 335.087141 
L 116.13888 331.824987 
L 118.03392 330.19391 
L 123.71904 330.19391 
L 129.40416 323.613358 
L 135.08928 323.613358 
L 136.98432 321.982281 
L 138.87936 321.982281 
L 140.7744 318.720127 
L 142.66944 316.52661 
L 144.56448 316.52661 
L 146.45952 314.333093 
L 148.35456 311.070939 
L 152.14464 311.070939 
L 154.03968 305.615268 
L 155.93472 303.984191 
L 159.7248 303.984191 
L 161.61984 302.353114 
L 163.51488 296.335003 
L 165.40992 294.703926 
L 167.30496 294.703926 
L 169.2 288.685814 
L 171.09504 287.054737 
L 172.99008 283.792584 
L 176.78016 283.792584 
L 178.6752 279.967989 
L 180.57024 274.512318 
L 184.36032 274.512318 
L 188.1504 267.988011 
L 190.04544 267.988011 
L 191.94048 264.163416 
L 193.83552 257.076668 
L 197.6256 253.814515 
L 199.52064 249.98992 
L 201.41568 247.796403 
L 203.31072 243.971809 
L 205.20576 242.340732 
L 207.1008 239.078578 
L 210.89088 235.816424 
L 212.78592 232.554271 
L 214.68096 227.66104 
L 216.576 226.029963 
L 218.47104 226.029963 
L 220.36608 223.836446 
L 222.26112 219.449411 
L 224.15616 219.449411 
L 226.0512 217.818334 
L 229.84128 217.818334 
L 233.63136 214.55618 
L 235.5264 214.55618 
L 237.42144 210.169146 
L 239.31648 206.906992 
L 241.21152 205.275915 
L 243.10656 200.888881 
L 246.89664 200.888881 
L 248.79168 198.695363 
L 250.68672 198.695363 
L 252.58176 196.501846 
L 254.4768 196.501846 
L 256.37184 194.870769 
L 258.26688 191.046175 
L 265.84704 191.046175 
L 267.74208 189.415098 
L 271.53216 189.415098 
L 273.4272 187.784021 
L 275.32224 184.521867 
L 279.11232 184.521867 
L 281.00736 180.697273 
L 282.9024 179.066196 
L 284.79744 176.872679 
L 288.58752 173.610525 
L 292.3776 169.223491 
L 301.8528 169.223491 
L 303.74784 167.592414 
L 305.64288 164.33026 
L 307.53792 164.33026 
L 313.22304 157.749708 
L 317.01312 157.749708 
L 318.90816 156.118631 
L 322.69824 156.118631 
L 324.59328 153.925114 
L 326.48832 153.925114 
L 330.2784 146.275926 
L 332.17344 144.644849 
L 335.96352 144.644849 
L 339.7536 140.257814 
L 343.54368 140.257814 
L 345.43872 138.626737 
L 347.33376 138.626737 
L 349.2288 136.43322 
L 351.12384 136.43322 
L 353.01888 134.239703 
L 358.704 134.239703 
L 360.59904 132.608626 
L 362.49408 132.608626 
L 364.38912 130.415109 
L 368.1792 130.415109 
L 370.07424 128.221592 
L 373.86432 128.221592 
L 375.75936 124.396997 
L 377.6544 124.396997 
L 379.54944 120.009963 
L 381.44448 118.378886 
L 390.91968 118.378886 
L 392.81472 114.554292 
L 394.70976 114.554292 
L 396.6048 112.923215 
L 402.28992 112.923215 
L 404.18496 110.729698 
L 411.76512 110.729698 
L 415.5552 106.342663 
L 421.24032 106.342663 
L 423.13536 104.149146 
L 425.0304 104.149146 
L 426.92544 100.324552 
L 432.61056 100.324552 
L 434.5056 98.131034 
L 510.3072 98.131034 
L 512.20224 95.937517 
L 534.94272 95.937517 
L 536.83776 93.744 
L 642.96 93.744 
L 642.96 93.744 
" clip-path="url(#pb7983aacef)" style="fill: none; stroke: #252525; stroke-width: 2.5; stroke-linecap: square"/>
   </g>
   <g id="line2d_28">
    <path d="M 74.448 348.192 
L 102.8736 348.192 
L 104.76864 345.998483 
L 110.45376 345.998483 
L 112.3488 343.804966 
L 121.824 343.804966 
L 123.71904 341.611448 
L 125.61408 341.611448 
L 131.2992 335.030897 
L 136.98432 335.030897 
L 138.87936 332.837379 
L 140.7744 332.837379 
L 142.66944 330.643862 
L 144.56448 324.06331 
L 154.03968 324.06331 
L 155.93472 321.869793 
L 163.51488 321.869793 
L 165.40992 317.482759 
L 167.30496 313.658164 
L 171.09504 309.27113 
L 172.99008 309.27113 
L 174.88512 307.077613 
L 176.78016 307.077613 
L 178.6752 302.690578 
L 182.46528 302.690578 
L 188.1504 296.110027 
L 191.94048 296.110027 
L 193.83552 293.916509 
L 195.73056 293.916509 
L 197.6256 289.529475 
L 201.41568 285.14244 
L 203.31072 283.511363 
L 205.20576 281.317846 
L 207.1008 281.317846 
L 208.99584 279.124329 
L 210.89088 279.124329 
L 212.78592 275.299735 
L 216.576 270.9127 
L 218.47104 270.9127 
L 224.15616 264.332149 
L 226.0512 264.332149 
L 227.94624 259.945114 
L 231.73632 259.945114 
L 233.63136 255.051883 
L 235.5264 252.858366 
L 237.42144 252.858366 
L 239.31648 250.664849 
L 246.89664 250.664849 
L 248.79168 246.840255 
L 250.68672 242.45322 
L 252.58176 240.822143 
L 254.4768 240.822143 
L 256.37184 238.628626 
L 258.26688 238.628626 
L 260.16192 236.997549 
L 269.63712 236.997549 
L 271.53216 234.804032 
L 273.4272 233.172955 
L 275.32224 230.979438 
L 277.21728 227.154844 
L 294.27264 227.154844 
L 296.16768 225.523767 
L 298.06272 221.136732 
L 299.95776 221.136732 
L 301.8528 217.874578 
L 305.64288 210.22539 
L 309.43296 210.22539 
L 311.328 208.031873 
L 318.90816 208.031873 
L 320.8032 205.838355 
L 322.69824 205.838355 
L 324.59328 203.644838 
L 334.06848 203.644838 
L 335.96352 199.820244 
L 347.33376 199.820244 
L 349.2288 194.927013 
L 351.12384 194.927013 
L 353.01888 192.733496 
L 356.80896 189.471342 
L 358.704 189.471342 
L 362.49408 186.209188 
L 364.38912 184.015671 
L 366.28416 184.015671 
L 368.1792 182.384594 
L 375.75936 182.384594 
L 377.6544 180.753517 
L 379.54944 180.753517 
L 381.44448 179.12244 
L 383.33952 179.12244 
L 385.23456 177.491363 
L 389.02464 177.491363 
L 392.81472 174.22921 
L 396.6048 174.22921 
L 400.39488 167.704902 
L 402.28992 166.073825 
L 404.18496 161.180594 
L 407.97504 161.180594 
L 409.87008 159.549517 
L 411.76512 159.549517 
L 413.66016 157.91844 
L 419.34528 148.131979 
L 421.24032 148.131979 
L 423.13536 146.500902 
L 425.0304 146.500902 
L 434.5056 138.345517 
L 442.08576 138.345517 
L 443.9808 136.71444 
L 445.87584 136.71444 
L 447.77088 135.083363 
L 451.56096 135.083363 
L 453.456 133.452286 
L 466.72128 133.452286 
L 468.61632 131.82121 
L 470.51136 131.82121 
L 472.4064 130.190133 
L 476.19648 130.190133 
L 478.09152 128.559056 
L 479.98656 125.296902 
L 483.77664 125.296902 
L 487.56672 122.034748 
L 489.46176 122.034748 
L 491.3568 120.403671 
L 497.04192 120.403671 
L 500.832 117.141517 
L 504.62208 117.141517 
L 506.51712 114.948 
L 510.3072 114.948 
L 515.99232 110.054769 
L 517.88736 110.054769 
L 519.7824 108.423692 
L 531.15264 108.423692 
L 533.04768 105.161538 
L 553.89312 105.161538 
L 555.78816 103.530462 
L 557.6832 103.530462 
L 559.57824 101.899385 
L 586.1088 101.899385 
L 589.89888 98.637231 
L 597.47904 98.637231 
L 601.26912 95.375077 
L 637.27488 95.375077 
L 639.16992 93.744 
L 642.96 93.744 
L 642.96 93.744 
" clip-path="url(#pb7983aacef)" style="fill: none; stroke: #3b83b4; stroke-width: 1.35; stroke-linecap: square"/>
   </g>
   <g id="line2d_29">
    <path d="M 74.448 348.192 
L 99.08352 348.192 
L 102.8736 344.929846 
L 104.76864 344.929846 
L 106.66368 342.736329 
L 112.3488 337.843098 
L 114.24384 337.843098 
L 116.13888 332.949867 
L 119.92896 329.687714 
L 121.824 324.794483 
L 123.71904 323.163406 
L 125.61408 320.969889 
L 127.50912 320.969889 
L 131.2992 317.707735 
L 133.19424 317.707735 
L 135.08928 314.445581 
L 136.98432 314.445581 
L 138.87936 312.814504 
L 140.7744 312.814504 
L 142.66944 311.183427 
L 144.56448 311.183427 
L 152.14464 304.659119 
L 154.03968 304.659119 
L 155.93472 299.765889 
L 157.82976 296.503735 
L 161.61984 296.503735 
L 163.51488 294.872658 
L 165.40992 292.679141 
L 167.30496 287.223469 
L 169.2 283.398875 
L 171.09504 283.398875 
L 172.99008 276.312127 
L 174.88512 272.487533 
L 176.78016 269.225379 
L 178.6752 267.594302 
L 180.57024 267.594302 
L 182.46528 265.963225 
L 188.1504 265.963225 
L 190.04544 260.507554 
L 191.94048 258.876477 
L 193.83552 255.051883 
L 195.73056 247.965135 
L 199.52064 247.965135 
L 201.41568 246.334058 
L 203.31072 238.68487 
L 210.89088 238.68487 
L 214.68096 235.422716 
L 222.26112 235.422716 
L 224.15616 233.229199 
L 226.0512 228.335968 
L 227.94624 228.335968 
L 229.84128 226.704891 
L 231.73632 226.704891 
L 233.63136 225.073814 
L 235.5264 221.81166 
L 239.31648 218.549507 
L 241.21152 218.549507 
L 243.10656 216.355989 
L 245.0016 214.724912 
L 246.89664 214.724912 
L 248.79168 211.462759 
L 250.68672 204.376011 
L 252.58176 204.376011 
L 254.4768 202.744934 
L 256.37184 202.744934 
L 260.16192 198.357899 
L 263.952 198.357899 
L 265.84704 196.726822 
L 267.74208 192.902228 
L 271.53216 188.515194 
L 273.4272 188.515194 
L 275.32224 186.321676 
L 277.21728 186.321676 
L 279.11232 184.690599 
L 281.00736 182.497082 
L 292.3776 182.497082 
L 294.27264 180.303565 
L 296.16768 180.303565 
L 298.06272 178.110048 
L 301.8528 178.110048 
L 303.74784 172.654377 
L 309.43296 172.654377 
L 311.328 168.267342 
L 315.11808 168.267342 
L 317.01312 162.811671 
L 320.8032 162.811671 
L 324.59328 158.424637 
L 328.38336 158.424637 
L 330.2784 154.600042 
L 353.01888 154.600042 
L 354.91392 152.968966 
L 356.80896 152.968966 
L 358.704 150.775448 
L 364.38912 150.775448 
L 366.28416 148.581931 
L 370.07424 148.581931 
L 371.96928 146.388414 
L 377.6544 146.388414 
L 379.54944 144.194897 
L 390.91968 144.194897 
L 392.81472 139.807862 
L 398.49984 139.807862 
L 400.39488 137.614345 
L 404.18496 137.614345 
L 406.08 131.033793 
L 411.76512 131.033793 
L 413.66016 128.840276 
L 417.45024 128.840276 
L 419.34528 126.646759 
L 432.61056 126.646759 
L 434.5056 122.259724 
L 442.08576 122.259724 
L 443.9808 120.066207 
L 445.87584 120.066207 
L 449.66592 115.679172 
L 451.56096 115.679172 
L 453.456 113.485655 
L 459.14112 113.485655 
L 461.03616 111.292138 
L 478.09152 111.292138 
L 479.98656 109.098621 
L 487.56672 109.098621 
L 489.46176 106.905103 
L 493.25184 106.905103 
L 495.14688 104.711586 
L 497.04192 104.711586 
L 500.832 100.324552 
L 512.20224 100.324552 
L 514.09728 98.131034 
L 588.00384 98.131034 
L 589.89888 95.937517 
L 610.74432 95.937517 
L 612.63936 93.744 
L 642.96 93.744 
L 642.96 93.744 
" clip-path="url(#pb7983aacef)" style="fill: none; stroke-dasharray: 4.995,2.16; stroke-dashoffset: 0; stroke: #c38a19; stroke-width: 1.35"/>
   </g>
   <g id="line2d_30">
    <path d="M 74.448 348.192 
L 114.24384 348.192 
L 116.13888 345.998483 
L 119.92896 345.998483 
L 121.824 343.804966 
L 125.61408 340.542812 
L 138.87936 340.542812 
L 142.66944 332.893623 
L 150.2496 332.893623 
L 152.14464 329.069029 
L 157.82976 329.069029 
L 159.7248 324.681995 
L 163.51488 324.681995 
L 165.40992 320.857401 
L 167.30496 319.226324 
L 169.2 315.96417 
L 172.99008 312.702016 
L 182.46528 312.702016 
L 184.36032 311.070939 
L 186.25536 311.070939 
L 188.1504 303.984191 
L 190.04544 303.984191 
L 191.94048 300.722037 
L 193.83552 298.52852 
L 195.73056 296.897443 
L 197.6256 293.635289 
L 199.52064 289.810695 
L 203.31072 286.548541 
L 205.20576 281.09287 
L 207.1008 278.899353 
L 208.99584 273.443682 
L 210.89088 273.443682 
L 214.68096 270.181528 
L 216.576 270.181528 
L 220.36608 266.919374 
L 222.26112 266.919374 
L 224.15616 262.026143 
L 226.0512 262.026143 
L 229.84128 257.639109 
L 231.73632 254.376955 
L 233.63136 254.376955 
L 235.5264 248.921284 
L 237.42144 248.921284 
L 239.31648 244.534249 
L 243.10656 236.885061 
L 245.0016 236.885061 
L 246.89664 232.498027 
L 248.79168 224.342642 
L 250.68672 224.342642 
L 252.58176 222.711565 
L 254.4768 217.818334 
L 256.37184 216.187257 
L 262.05696 216.187257 
L 263.952 210.169146 
L 265.84704 206.906992 
L 267.74208 204.713475 
L 269.63712 200.888881 
L 273.4272 200.888881 
L 275.32224 199.257804 
L 277.21728 194.364573 
L 279.11232 194.364573 
L 281.00736 192.733496 
L 282.9024 192.733496 
L 284.79744 191.102419 
L 286.69248 188.908902 
L 290.48256 188.908902 
L 292.3776 187.277825 
L 294.27264 187.277825 
L 296.16768 185.646748 
L 298.06272 181.822154 
L 299.95776 179.628637 
L 301.8528 177.99756 
L 303.74784 174.735406 
L 307.53792 174.735406 
L 309.43296 172.541889 
L 311.328 168.154854 
L 313.22304 168.154854 
L 315.11808 166.523777 
L 317.01312 166.523777 
L 318.90816 163.261623 
L 320.8032 163.261623 
L 324.59328 158.874589 
L 326.48832 158.874589 
L 328.38336 157.243512 
L 330.2784 157.243512 
L 334.06848 152.856477 
L 337.85856 152.856477 
L 339.7536 149.594324 
L 343.54368 149.594324 
L 345.43872 147.400806 
L 347.33376 143.576212 
L 349.2288 141.382695 
L 356.80896 141.382695 
L 358.704 134.802143 
L 362.49408 134.802143 
L 364.38912 132.608626 
L 366.28416 132.608626 
L 368.1792 130.415109 
L 370.07424 130.415109 
L 371.96928 128.221592 
L 373.86432 128.221592 
L 375.75936 126.590515 
L 381.44448 126.590515 
L 383.33952 124.396997 
L 385.23456 122.76592 
L 387.1296 120.572403 
L 389.02464 118.941326 
L 390.91968 116.747809 
L 392.81472 116.747809 
L 394.70976 115.116732 
L 413.66016 115.116732 
L 415.5552 112.923215 
L 417.45024 112.923215 
L 419.34528 110.729698 
L 421.24032 110.729698 
L 423.13536 108.53618 
L 426.92544 108.53618 
L 428.82048 106.342663 
L 434.5056 106.342663 
L 436.40064 101.955629 
L 438.29568 101.955629 
L 440.19072 100.324552 
L 453.456 100.324552 
L 455.35104 98.131034 
L 523.57248 98.131034 
L 525.46752 95.937517 
L 540.62784 95.937517 
L 542.52288 93.744 
L 642.96 93.744 
L 642.96 93.744 
" clip-path="url(#pb7983aacef)" style="fill: none; stroke-dasharray: 1.35,2.2275; stroke-dashoffset: 0; stroke: #7d8a92; stroke-width: 1.35"/>
   </g>
   <g id="line2d_31">
    <path d="M 74.448 348.192 
L 155.93472 348.192 
L 157.82976 345.998483 
L 167.30496 345.998483 
L 169.2 343.804966 
L 176.78016 343.804966 
L 178.6752 341.611448 
L 186.25536 341.611448 
L 188.1504 339.417931 
L 190.04544 339.417931 
L 191.94048 337.224414 
L 199.52064 337.224414 
L 201.41568 335.030897 
L 212.78592 335.030897 
L 214.68096 332.837379 
L 218.47104 332.837379 
L 220.36608 330.643862 
L 222.26112 330.643862 
L 224.15616 328.450345 
L 227.94624 328.450345 
L 229.84128 326.256828 
L 233.63136 326.256828 
L 235.5264 321.869793 
L 237.42144 321.869793 
L 239.31648 320.238716 
L 243.10656 320.238716 
L 246.89664 315.851682 
L 252.58176 315.851682 
L 254.4768 313.658164 
L 256.37184 313.658164 
L 258.26688 311.464647 
L 262.05696 311.464647 
L 263.952 309.27113 
L 265.84704 304.884095 
L 267.74208 302.690578 
L 275.32224 302.690578 
L 277.21728 298.303544 
L 290.48256 298.303544 
L 292.3776 293.916509 
L 294.27264 291.722992 
L 296.16768 291.722992 
L 301.8528 285.14244 
L 305.64288 285.14244 
L 307.53792 282.948923 
L 309.43296 282.948923 
L 311.328 280.755406 
L 313.22304 280.755406 
L 317.01312 276.368371 
L 324.59328 276.368371 
L 328.38336 271.981337 
L 334.06848 271.981337 
L 335.96352 269.78782 
L 337.85856 268.156743 
L 341.64864 268.156743 
L 343.54368 265.963225 
L 345.43872 265.963225 
L 347.33376 259.945114 
L 349.2288 259.945114 
L 351.12384 257.751597 
L 354.91392 257.751597 
L 356.80896 256.12052 
L 362.49408 256.12052 
L 364.38912 251.733485 
L 366.28416 251.733485 
L 368.1792 250.102408 
L 377.6544 250.102408 
L 379.54944 248.471332 
L 383.33952 244.084297 
L 387.1296 244.084297 
L 390.91968 240.822143 
L 396.6048 240.822143 
L 398.49984 238.628626 
L 400.39488 238.628626 
L 402.28992 236.435109 
L 406.08 236.435109 
L 411.76512 229.854557 
L 415.5552 229.854557 
L 417.45024 228.22348 
L 419.34528 222.767809 
L 426.92544 222.767809 
L 428.82048 221.136732 
L 432.61056 221.136732 
L 434.5056 218.943215 
L 436.40064 218.943215 
L 438.29568 217.312138 
L 447.77088 217.312138 
L 449.66592 215.681061 
L 451.56096 211.856467 
L 453.456 209.66295 
L 459.14112 209.66295 
L 461.03616 208.031873 
L 462.9312 208.031873 
L 464.82624 205.838355 
L 466.72128 205.838355 
L 470.51136 201.451321 
L 472.4064 198.189167 
L 478.09152 198.189167 
L 479.98656 195.99565 
L 483.77664 192.733496 
L 487.56672 192.733496 
L 489.46176 191.102419 
L 491.3568 191.102419 
L 495.14688 187.840265 
L 497.04192 187.840265 
L 498.93696 186.209188 
L 502.72704 186.209188 
L 504.62208 184.015671 
L 506.51712 184.015671 
L 508.41216 182.384594 
L 514.09728 182.384594 
L 515.99232 179.12244 
L 517.88736 179.12244 
L 521.67744 175.860286 
L 523.57248 175.860286 
L 525.46752 170.967056 
L 527.36256 167.704902 
L 529.2576 167.704902 
L 531.15264 166.073825 
L 533.04768 166.073825 
L 534.94272 162.811671 
L 536.83776 162.811671 
L 538.7328 161.180594 
L 540.62784 161.180594 
L 542.52288 159.549517 
L 546.31296 159.549517 
L 548.208 154.656286 
L 557.6832 154.656286 
L 559.57824 148.131979 
L 561.47328 146.500902 
L 565.26336 139.976594 
L 567.1584 139.976594 
L 570.94848 136.71444 
L 574.73856 136.71444 
L 578.52864 133.452286 
L 591.79392 133.452286 
L 597.47904 128.559056 
L 603.16416 128.559056 
L 608.84928 123.665825 
L 612.63936 123.665825 
L 614.5344 120.403671 
L 622.11456 120.403671 
L 625.90464 117.141517 
L 627.79968 117.141517 
L 631.58976 113.879363 
L 633.4848 113.879363 
L 635.37984 112.248286 
L 637.27488 112.248286 
L 639.16992 110.054769 
L 641.06496 110.054769 
L 642.96 108.423692 
L 642.96 108.423692 
" clip-path="url(#pb7983aacef)" style="fill: none; stroke-dasharray: 8.64,2.16,1.35,2.16; stroke-dashoffset: 0; stroke: #d0526a; stroke-width: 1.35"/>
   </g>
   <g id="line2d_32">
    <path d="M 74.448 348.192 
L 99.08352 348.192 
L 100.97856 345.998483 
L 110.45376 345.998483 
L 112.3488 343.804966 
L 144.56448 343.804966 
L 148.35456 339.417931 
L 163.51488 339.417931 
L 165.40992 337.224414 
L 169.2 337.224414 
L 172.99008 332.837379 
L 176.78016 332.837379 
L 180.57024 324.06331 
L 186.25536 324.06331 
L 188.1504 319.676276 
L 190.04544 319.676276 
L 191.94048 317.482759 
L 199.52064 317.482759 
L 201.41568 315.289241 
L 203.31072 315.289241 
L 205.20576 313.095724 
L 210.89088 313.095724 
L 212.78592 310.902207 
L 214.68096 309.27113 
L 220.36608 309.27113 
L 222.26112 307.077613 
L 227.94624 307.077613 
L 229.84128 304.884095 
L 231.73632 304.884095 
L 233.63136 302.690578 
L 237.42144 302.690578 
L 243.10656 296.110027 
L 248.79168 296.110027 
L 250.68672 291.722992 
L 252.58176 291.722992 
L 254.4768 287.335958 
L 256.37184 287.335958 
L 258.26688 285.14244 
L 260.16192 285.14244 
L 262.05696 282.948923 
L 267.74208 282.948923 
L 275.32224 274.174854 
L 281.00736 274.174854 
L 282.9024 271.981337 
L 284.79744 271.981337 
L 286.69248 267.594302 
L 294.27264 267.594302 
L 299.95776 261.013751 
L 307.53792 261.013751 
L 311.328 257.751597 
L 322.69824 257.751597 
L 324.59328 256.12052 
L 330.2784 256.12052 
L 332.17344 252.295926 
L 334.06848 252.295926 
L 335.96352 247.908891 
L 337.85856 245.715374 
L 339.7536 244.084297 
L 341.64864 244.084297 
L 343.54368 242.45322 
L 351.12384 242.45322 
L 353.01888 240.822143 
L 354.91392 240.822143 
L 356.80896 238.628626 
L 360.59904 238.628626 
L 362.49408 236.435109 
L 366.28416 236.435109 
L 370.07424 232.048074 
L 371.96928 232.048074 
L 373.86432 230.416997 
L 375.75936 226.029963 
L 377.6544 226.029963 
L 381.44448 222.767809 
L 396.6048 222.767809 
L 398.49984 218.943215 
L 400.39488 217.312138 
L 407.97504 217.312138 
L 409.87008 215.118621 
L 411.76512 213.487544 
L 413.66016 208.031873 
L 415.5552 205.838355 
L 426.92544 205.838355 
L 428.82048 203.644838 
L 434.5056 203.644838 
L 436.40064 201.451321 
L 443.9808 201.451321 
L 445.87584 199.820244 
L 449.66592 193.295936 
L 451.56096 193.295936 
L 453.456 191.102419 
L 455.35104 191.102419 
L 459.14112 187.840265 
L 461.03616 187.840265 
L 462.9312 186.209188 
L 464.82624 184.015671 
L 470.51136 184.015671 
L 472.4064 182.384594 
L 479.98656 182.384594 
L 481.8816 180.753517 
L 485.67168 180.753517 
L 489.46176 177.491363 
L 491.3568 174.22921 
L 493.25184 174.22921 
L 497.04192 167.704902 
L 500.832 164.442748 
L 504.62208 164.442748 
L 506.51712 161.180594 
L 508.41216 161.180594 
L 510.3072 159.549517 
L 512.20224 156.287363 
L 521.67744 156.287363 
L 525.46752 146.500902 
L 527.36256 146.500902 
L 529.2576 141.607671 
L 531.15264 138.345517 
L 538.7328 138.345517 
L 540.62784 136.71444 
L 546.31296 136.71444 
L 548.208 135.083363 
L 555.78816 135.083363 
L 557.6832 131.82121 
L 565.26336 131.82121 
L 567.1584 130.190133 
L 569.05344 130.190133 
L 570.94848 128.559056 
L 572.84352 128.559056 
L 576.6336 125.296902 
L 578.52864 125.296902 
L 580.42368 123.665825 
L 586.1088 123.665825 
L 588.00384 122.034748 
L 591.79392 122.034748 
L 597.47904 117.141517 
L 601.26912 117.141517 
L 605.0592 113.879363 
L 606.95424 108.423692 
L 622.11456 108.423692 
L 624.0096 106.792615 
L 631.58976 106.792615 
L 633.4848 105.161538 
L 641.06496 105.161538 
L 642.96 103.530462 
L 642.96 103.530462 
" clip-path="url(#pb7983aacef)" style="fill: none; stroke-dasharray: 6.75,2.7,1.35,2.7; stroke-dashoffset: 0; stroke: #2f8f84; stroke-width: 1.35"/>
   </g>
   <g id="patch_4">
    <path d="M 74.448 348.192 
L 74.448 93.744 
" style="fill: none; stroke: #000000; stroke-width: 0.8; stroke-linejoin: miter; stroke-linecap: square"/>
   </g>
   <g id="patch_5">
    <path d="M 74.448 348.192 
L 642.96 348.192 
" style="fill: none; stroke: #000000; stroke-width: 0.8; stroke-linejoin: miter; stroke-linecap: square"/>
   </g>
  </g>
  <g id="text_16">
   <text style="font: 18px 'DejaVu Sans', 'Bitstream Vera Sans', 'Computer Modern Sans Serif', 'Lucida Grande', 'Verdana', 'Geneva', 'Lucid', 'Arial', 'Helvetica', 'Avant Garde', sans-serif; text-anchor: start" x="74.448" y="38.229188" transform="rotate(-0 74.448 38.229188)">QD-OLED → QDEF LCD</text>
  </g>
  <g id="text_17">
   <text style="fill: #66747c; font: 10px 'DejaVu Sans', 'Bitstream Vera Sans', 'Computer Modern Sans Serif', 'Lucida Grande', 'Verdana', 'Geneva', 'Lucid', 'Arial', 'Helvetica', 'Avant Garde', sans-serif; text-anchor: start" x="74.448" y="64.728" transform="rotate(-0 74.448 64.728)">D55</text>
  </g>
  <g id="legend_1">
   <g id="line2d_33">
    <path d="M 185.17875 404.151391 
L 194.27875 404.151391 
L 203.37875 404.151391 
" style="fill: none; stroke: #252525; stroke-width: 2.5; stroke-linecap: square"/>
   </g>
   <g id="text_18">
    <text style="font: 9.1px 'DejaVu Sans', 'Bitstream Vera Sans', 'Computer Modern Sans Serif', 'Lucida Grande', 'Verdana', 'Geneva', 'Lucid', 'Arial', 'Helvetica', 'Avant Garde', sans-serif; text-anchor: start" x="210.65875" y="407.336391" transform="rotate(-0 210.65875 407.336391)">Potera CMF</text>
   </g>
   <g id="line2d_34">
    <path d="M 185.17875 417.508484 
L 194.27875 417.508484 
L 203.37875 417.508484 
" style="fill: none; stroke: #3b83b4; stroke-width: 1.35; stroke-linecap: square"/>
   </g>
   <g id="text_19">
    <text style="font: 9.1px 'DejaVu Sans', 'Bitstream Vera Sans', 'Computer Modern Sans Serif', 'Lucida Grande', 'Verdana', 'Geneva', 'Lucid', 'Arial', 'Helvetica', 'Avant Garde', sans-serif; text-anchor: start" x="210.65875" y="420.693484" transform="rotate(-0 210.65875 420.693484)">CIE 2015 2°</text>
   </g>
   <g id="line2d_35">
    <path d="M 282.931234 404.151391 
L 292.031234 404.151391 
L 301.131234 404.151391 
" style="fill: none; stroke-dasharray: 4.995,2.16; stroke-dashoffset: 0; stroke: #c38a19; stroke-width: 1.35"/>
   </g>
   <g id="text_20">
    <text style="font: 9.1px 'DejaVu Sans', 'Bitstream Vera Sans', 'Computer Modern Sans Serif', 'Lucida Grande', 'Verdana', 'Geneva', 'Lucid', 'Arial', 'Helvetica', 'Avant Garde', sans-serif; text-anchor: start" x="308.411234" y="407.336391" transform="rotate(-0 308.411234 407.336391)">CIE 2015 10°</text>
   </g>
   <g id="line2d_36">
    <path d="M 282.931234 417.508484 
L 292.031234 417.508484 
L 301.131234 417.508484 
" style="fill: none; stroke-dasharray: 1.35,2.2275; stroke-dashoffset: 0; stroke: #7d8a92; stroke-width: 1.35"/>
   </g>
   <g id="text_21">
    <text style="font: 9.1px 'DejaVu Sans', 'Bitstream Vera Sans', 'Computer Modern Sans Serif', 'Lucida Grande', 'Verdana', 'Geneva', 'Lucid', 'Arial', 'Helvetica', 'Avant Garde', sans-serif; text-anchor: start" x="308.411234" y="420.693484" transform="rotate(-0 308.411234 420.693484)">CIE 1964 10°</text>
   </g>
   <g id="line2d_37">
    <path d="M 386.473594 404.151391 
L 395.573594 404.151391 
L 404.673594 404.151391 
" style="fill: none; stroke-dasharray: 8.64,2.16,1.35,2.16; stroke-dashoffset: 0; stroke: #d0526a; stroke-width: 1.35"/>
   </g>
   <g id="text_22">
    <text style="font: 9.1px 'DejaVu Sans', 'Bitstream Vera Sans', 'Computer Modern Sans Serif', 'Lucida Grande', 'Verdana', 'Geneva', 'Lucid', 'Arial', 'Helvetica', 'Avant Garde', sans-serif; text-anchor: start" x="411.953594" y="407.336391" transform="rotate(-0 411.953594 407.336391)">CIE 1931 2°</text>
   </g>
   <g id="line2d_38">
    <path d="M 386.473594 417.508484 
L 395.573594 417.508484 
L 404.673594 417.508484 
" style="fill: none; stroke-dasharray: 6.75,2.7,1.35,2.7; stroke-dashoffset: 0; stroke: #2f8f84; stroke-width: 1.35"/>
   </g>
   <g id="text_23">
    <text style="font: 9.1px 'DejaVu Sans', 'Bitstream Vera Sans', 'Computer Modern Sans Serif', 'Lucida Grande', 'Verdana', 'Geneva', 'Lucid', 'Arial', 'Helvetica', 'Avant Garde', sans-serif; text-anchor: start" x="411.953594" y="420.693484" transform="rotate(-0 411.953594 420.693484)">Judd–Vos 1978 2°</text>
   </g>
  </g>
 </g>
 <defs>
  <clipPath id="pb7983aacef">
   <rect x="74.448" y="93.744" width="568.512" height="254.448"/>
  </clipPath>
 </defs>
</svg>
