<?xml version="1.0" encoding="utf-8" standalone="no"?>
<!DOCTYPE svg PUBLIC "-//W3C//DTD SVG 1.1//EN"
  "http://www.w3.org/Graphics/SVG/1.1/DTD/svg11.dtd">
<svg xmlns:xlink="http://www.w3.org/1999/xlink" width="676.8pt" height="446.4pt" viewBox="0 0 676.8 446.4" xmlns="http://www.w3.org/2000/svg" version="1.1">
 <metadata>
  <rdf:RDF xmlns:dc="http://purl.org/dc/elements/1.1/" xmlns:cc="http://creativecommons.org/ns#" xmlns:rdf="http://www.w3.org/1999/02/22-rdf-syntax-ns#">
   <cc:Work>
    <dc:type rdf:resource="http://purl.org/dc/dcmitype/StillImage"/>
    <dc:date>2026-07-20T06:42:01.087218</dc:date>
    <dc:format>image/svg+xml</dc:format>
    <dc:creator>
     <cc:Agent>
      <dc:title>Matplotlib v3.9.4, https://matplotlib.org/</dc:title>
     </cc:Agent>
    </dc:creator>
   </cc:Work>
  </rdf:RDF>
 </metadata>
 <defs>
  <style type="text/css">*{stroke-linejoin: round; stroke-linecap: butt}</style>
 </defs>
 <g id="figure_1">
  <g id="patch_1">
   <path d="M 0 446.4 
L 676.8 446.4 
L 676.8 0 
L 0 0 
z
" style="fill: #ffffff"/>
  </g>
  <g id="axes_1">
   <g id="patch_2">
    <path d="M 74.448 348.192 
L 642.96 348.192 
L 642.96 93.744 
L 74.448 93.744 
z
" style="fill: #ffffff"/>
   </g>
   <g id="patch_3">
    <path d="M 169.2 348.192 
L 358.704 348.192 
L 358.704 93.744 
L 169.2 93.744 
z
" clip-path="url(#pc6ff2a8c23)" style="fill: #e7f0ea; opacity: 0.58; stroke: #e7f0ea; stroke-linejoin: miter"/>
   </g>
   <g id="matplotlib.axis_1">
    <g id="xtick_1">
     <g id="line2d_1">
      <path d="M 74.448 348.192 
L 74.448 93.744 
" clip-path="url(#pc6ff2a8c23)" style="fill: none; stroke: #dfe5e8; stroke-width: 0.65; stroke-linecap: square"/>
     </g>
     <g id="line2d_2">
      <defs>
       <path id="me4ff55e6ee" d="M 0 0 
L 0 3.5 
" style="stroke: #000000; stroke-width: 0.8"/>
      </defs>
      <g>
       <use xlink:href="#me4ff55e6ee" x="74.448" y="348.192" style="stroke: #000000; stroke-width: 0.8"/>
      </g>
     </g>
     <g id="text_1">
      <text style="font: 10px 'DejaVu Sans', 'Bitstream Vera Sans', 'Computer Modern Sans Serif', 'Lucida Grande', 'Verdana', 'Geneva', 'Lucid', 'Arial', 'Helvetica', 'Avant Garde', sans-serif; text-anchor: middle" x="74.448" y="362.790438" transform="rotate(-0 74.448 362.790438)">0</text>
     </g>
    </g>
    <g id="xtick_2">
     <g id="line2d_3">
      <path d="M 169.2 348.192 
L 169.2 93.744 
" clip-path="url(#pc6ff2a8c23)" style="fill: none; stroke: #dfe5e8; stroke-width: 0.65; stroke-linecap: square"/>
     </g>
     <g id="line2d_4">
      <g>
       <use xlink:href="#me4ff55e6ee" x="169.2" y="348.192" style="stroke: #000000; stroke-width: 0.8"/>
      </g>
     </g>
     <g id="text_2">
      <text style="font: 10px 'DejaVu Sans', 'Bitstream Vera Sans', 'Computer Modern Sans Serif', 'Lucida Grande', 'Verdana', 'Geneva', 'Lucid', 'Arial', 'Helvetica', 'Avant Garde', sans-serif; text-anchor: middle" x="169.2" y="362.790438" transform="rotate(-0 169.2 362.790438)">1</text>
     </g>
    </g>
    <g id="xtick_3">
     <g id="line2d_5">
      <path d="M 263.952 348.192 
L 263.952 93.744 
" clip-path="url(#pc6ff2a8c23)" style="fill: none; stroke: #dfe5e8; stroke-width: 0.65; stroke-linecap: square"/>
     </g>
     <g id="line2d_6">
      <g>
       <use xlink:href="#me4ff55e6ee" x="263.952" y="348.192" style="stroke: #000000; stroke-width: 0.8"/>
      </g>
     </g>
     <g id="text_3">
      <text style="font: 10px 'DejaVu Sans', 'Bitstream Vera Sans', 'Computer Modern Sans Serif', 'Lucida Grande', 'Verdana', 'Geneva', 'Lucid', 'Arial', 'Helvetica', 'Avant Garde', sans-serif; text-anchor: middle" x="263.952" y="362.790438" transform="rotate(-0 263.952 362.790438)">2</text>
     </g>
    </g>
    <g id="xtick_4">
     <g id="line2d_7">
      <path d="M 358.704 348.192 
L 358.704 93.744 
" clip-path="url(#pc6ff2a8c23)" style="fill: none; stroke: #dfe5e8; stroke-width: 0.65; stroke-linecap: square"/>
     </g>
     <g id="line2d_8">
      <g>
       <use xlink:href="#me4ff55e6ee" x="358.704" y="348.192" style="stroke: #000000; stroke-width: 0.8"/>
      </g>
     </g>
     <g id="text_4">
      <text style="font: 10px 'DejaVu Sans', 'Bitstream Vera Sans', 'Computer Modern Sans Serif', 'Lucida Grande', 'Verdana', 'Geneva', 'Lucid', 'Arial', 'Helvetica', 'Avant Garde', sans-serif; text-anchor: middle" x="358.704" y="362.790438" transform="rotate(-0 358.704 362.790438)">3</text>
     </g>
    </g>
    <g id="xtick_5">
     <g id="line2d_9">
      <path d="M 453.456 348.192 
L 453.456 93.744 
" clip-path="url(#pc6ff2a8c23)" style="fill: none; stroke: #dfe5e8; stroke-width: 0.65; stroke-linecap: square"/>
     </g>
     <g id="line2d_10">
      <g>
       <use xlink:href="#me4ff55e6ee" x="453.456" y="348.192" style="stroke: #000000; stroke-width: 0.8"/>
      </g>
     </g>
     <g id="text_5">
      <text style="font: 10px 'DejaVu Sans', 'Bitstream Vera Sans', 'Computer Modern Sans Serif', 'Lucida Grande', 'Verdana', 'Geneva', 'Lucid', 'Arial', 'Helvetica', 'Avant Garde', sans-serif; text-anchor: middle" x="453.456" y="362.790438" transform="rotate(-0 453.456 362.790438)">4</text>
     </g>
    </g>
    <g id="xtick_6">
     <g id="line2d_11">
      <path d="M 548.208 348.192 
L 548.208 93.744 
" clip-path="url(#pc6ff2a8c23)" style="fill: none; stroke: #dfe5e8; stroke-width: 0.65; stroke-linecap: square"/>
     </g>
     <g id="line2d_12">
      <g>
       <use xlink:href="#me4ff55e6ee" x="548.208" y="348.192" style="stroke: #000000; stroke-width: 0.8"/>
      </g>
     </g>
     <g id="text_6">
      <text style="font: 10px 'DejaVu Sans', 'Bitstream Vera Sans', 'Computer Modern Sans Serif', 'Lucida Grande', 'Verdana', 'Geneva', 'Lucid', 'Arial', 'Helvetica', 'Avant Garde', sans-serif; text-anchor: middle" x="548.208" y="362.790438" transform="rotate(-0 548.208 362.790438)">5</text>
     </g>
    </g>
    <g id="xtick_7">
     <g id="line2d_13">
      <path d="M 642.96 348.192 
L 642.96 93.744 
" clip-path="url(#pc6ff2a8c23)" style="fill: none; stroke: #dfe5e8; stroke-width: 0.65; stroke-linecap: square"/>
     </g>
     <g id="line2d_14">
      <g>
       <use xlink:href="#me4ff55e6ee" x="642.96" y="348.192" style="stroke: #000000; stroke-width: 0.8"/>
      </g>
     </g>
     <g id="text_7">
      <text style="font: 10px 'DejaVu Sans', 'Bitstream Vera Sans', 'Computer Modern Sans Serif', 'Lucida Grande', 'Verdana', 'Geneva', 'Lucid', 'Arial', 'Helvetica', 'Avant Garde', sans-serif; text-anchor: middle" x="642.96" y="362.790438" transform="rotate(-0 642.96 362.790438)">6</text>
     </g>
    </g>
    <g id="text_8">
     <text style="font: 10px 'DejaVu Sans', 'Bitstream Vera Sans', 'Computer Modern Sans Serif', 'Lucida Grande', 'Verdana', 'Geneva', 'Lucid', 'Arial', 'Helvetica', 'Avant Garde', sans-serif; text-anchor: middle" x="358.704" y="376.468563" transform="rotate(-0 358.704 376.468563)">sUCS dE threshold</text>
    </g>
   </g>
   <g id="matplotlib.axis_2">
    <g id="ytick_1">
     <g id="line2d_15">
      <path d="M 74.448 348.192 
L 642.96 348.192 
" clip-path="url(#pc6ff2a8c23)" style="fill: none; stroke: #dfe5e8; stroke-width: 0.65; stroke-linecap: square"/>
     </g>
     <g id="line2d_16">
      <defs>
       <path id="m7e1847fac1" d="M 0 0 
L -3.5 0 
" style="stroke: #000000; stroke-width: 0.8"/>
      </defs>
      <g>
       <use xlink:href="#m7e1847fac1" x="74.448" y="348.192" style="stroke: #000000; stroke-width: 0.8"/>
      </g>
     </g>
     <g id="text_9">
      <text style="font: 10px 'DejaVu Sans', 'Bitstream Vera Sans', 'Computer Modern Sans Serif', 'Lucida Grande', 'Verdana', 'Geneva', 'Lucid', 'Arial', 'Helvetica', 'Avant Garde', sans-serif; text-anchor: end" x="67.448" y="351.991219" transform="rotate(-0 67.448 351.991219)">0</text>
     </g>
    </g>
    <g id="ytick_2">
     <g id="line2d_17">
      <path d="M 74.448 297.3024 
L 642.96 297.3024 
" clip-path="url(#pc6ff2a8c23)" style="fill: none; stroke: #dfe5e8; stroke-width: 0.65; stroke-linecap: square"/>
     </g>
     <g id="line2d_18">
      <g>
       <use xlink:href="#m7e1847fac1" x="74.448" y="297.3024" style="stroke: #000000; stroke-width: 0.8"/>
      </g>
     </g>
     <g id="text_10">
      <text style="font: 10px 'DejaVu Sans', 'Bitstream Vera Sans', 'Computer Modern Sans Serif', 'Lucida Grande', 'Verdana', 'Geneva', 'Lucid', 'Arial', 'Helvetica', 'Avant Garde', sans-serif; text-anchor: end" x="67.448" y="301.101619" transform="rotate(-0 67.448 301.101619)">20</text>
     </g>
    </g>
    <g id="ytick_3">
     <g id="line2d_19">
      <path d="M 74.448 246.4128 
L 642.96 246.4128 
" clip-path="url(#pc6ff2a8c23)" style="fill: none; stroke: #dfe5e8; stroke-width: 0.65; stroke-linecap: square"/>
     </g>
     <g id="line2d_20">
      <g>
       <use xlink:href="#m7e1847fac1" x="74.448" y="246.4128" style="stroke: #000000; stroke-width: 0.8"/>
      </g>
     </g>
     <g id="text_11">
      <text style="font: 10px 'DejaVu Sans', 'Bitstream Vera Sans', 'Computer Modern Sans Serif', 'Lucida Grande', 'Verdana', 'Geneva', 'Lucid', 'Arial', 'Helvetica', 'Avant Garde', sans-serif; text-anchor: end" x="67.448" y="250.212019" transform="rotate(-0 67.448 250.212019)">40</text>
     </g>
    </g>
    <g id="ytick_4">
     <g id="line2d_21">
      <path d="M 74.448 195.5232 
L 642.96 195.5232 
" clip-path="url(#pc6ff2a8c23)" style="fill: none; stroke: #dfe5e8; stroke-width: 0.65; stroke-linecap: square"/>
     </g>
     <g id="line2d_22">
      <g>
       <use xlink:href="#m7e1847fac1" x="74.448" y="195.5232" style="stroke: #000000; stroke-width: 0.8"/>
      </g>
     </g>
     <g id="text_12">
      <text style="font: 10px 'DejaVu Sans', 'Bitstream Vera Sans', 'Computer Modern Sans Serif', 'Lucida Grande', 'Verdana', 'Geneva', 'Lucid', 'Arial', 'Helvetica', 'Avant Garde', sans-serif; text-anchor: end" x="67.448" y="199.322419" transform="rotate(-0 67.448 199.322419)">60</text>
     </g>
    </g>
    <g id="ytick_5">
     <g id="line2d_23">
      <path d="M 74.448 144.6336 
L 642.96 144.6336 
" clip-path="url(#pc6ff2a8c23)" style="fill: none; stroke: #dfe5e8; stroke-width: 0.65; stroke-linecap: square"/>
     </g>
     <g id="line2d_24">
      <g>
       <use xlink:href="#m7e1847fac1" x="74.448" y="144.6336" style="stroke: #000000; stroke-width: 0.8"/>
      </g>
     </g>
     <g id="text_13">
      <text style="font: 10px 'DejaVu Sans', 'Bitstream Vera Sans', 'Computer Modern Sans Serif', 'Lucida Grande', 'Verdana', 'Geneva', 'Lucid', 'Arial', 'Helvetica', 'Avant Garde', sans-serif; text-anchor: end" x="67.448" y="148.432819" transform="rotate(-0 67.448 148.432819)">80</text>
     </g>
    </g>
    <g id="ytick_6">
     <g id="line2d_25">
      <path d="M 74.448 93.744 
L 642.96 93.744 
" clip-path="url(#pc6ff2a8c23)" style="fill: none; stroke: #dfe5e8; stroke-width: 0.65; stroke-linecap: square"/>
     </g>
     <g id="line2d_26">
      <g>
       <use xlink:href="#m7e1847fac1" x="74.448" y="93.744" style="stroke: #000000; stroke-width: 0.8"/>
      </g>
     </g>
     <g id="text_14">
      <text style="font: 10px 'DejaVu Sans', 'Bitstream Vera Sans', 'Computer Modern Sans Serif', 'Lucida Grande', 'Verdana', 'Geneva', 'Lucid', 'Arial', 'Helvetica', 'Avant Garde', sans-serif; text-anchor: end" x="67.448" y="97.543219" transform="rotate(-0 67.448 97.543219)">100</text>
     </g>
    </g>
    <g id="text_15">
     <text style="font: 10px 'DejaVu Sans', 'Bitstream Vera Sans', 'Computer Modern Sans Serif', 'Lucida Grande', 'Verdana', 'Geneva', 'Lucid', 'Arial', 'Helvetica', 'Avant Garde', sans-serif; text-anchor: middle" x="42.280812" y="220.968" transform="rotate(-90 42.280812 220.968)">observers%</text>
    </g>
   </g>
   <g id="line2d_27">
    <path d="M 74.448 348.192 
L 83.9232 348.192 
L 85.81824 346.560923 
L 93.3984 346.560923 
L 97.18848 343.298769 
L 99.08352 341.105252 
L 100.97856 341.105252 
L 102.8736 338.911735 
L 110.45376 338.911735 
L 112.3488 337.280658 
L 114.24384 337.280658 
L 116.13888 333.456064 
L 118.03392 331.824987 
L 119.92896 331.824987 
L 121.824 330.19391 
L 129.40416 330.19391 
L 131.2992 328.562833 
L 133.19424 328.562833 
L 138.87936 321.982281 
L 140.7744 320.351204 
L 146.45952 320.351204 
L 148.35456 318.720127 
L 150.2496 318.720127 
L 152.14464 314.895533 
L 154.03968 313.264456 
L 155.93472 308.877422 
L 157.82976 307.246345 
L 161.61984 307.246345 
L 165.40992 299.597156 
L 167.30496 299.597156 
L 169.2 297.96608 
L 172.99008 297.96608 
L 174.88512 292.510408 
L 176.78016 289.248255 
L 178.6752 284.86122 
L 180.57024 284.86122 
L 182.46528 282.667703 
L 184.36032 281.036626 
L 186.25536 277.212032 
L 188.1504 277.212032 
L 190.04544 275.580955 
L 191.94048 269.056647 
L 193.83552 269.056647 
L 195.73056 263.600976 
L 197.6256 263.600976 
L 199.52064 260.338822 
L 201.41568 260.338822 
L 203.31072 257.076668 
L 205.20576 255.445592 
L 210.89088 255.445592 
L 212.78592 252.183438 
L 214.68096 250.552361 
L 218.47104 250.552361 
L 220.36608 248.921284 
L 222.26112 248.921284 
L 224.15616 242.903172 
L 226.0512 239.641019 
L 227.94624 239.641019 
L 229.84128 235.816424 
L 231.73632 230.923194 
L 233.63136 230.923194 
L 237.42144 227.66104 
L 239.31648 224.398886 
L 241.21152 224.398886 
L 243.10656 218.943215 
L 250.68672 210.169146 
L 252.58176 210.169146 
L 254.4768 208.538069 
L 256.37184 206.344552 
L 258.26688 201.957517 
L 260.16192 201.957517 
L 262.05696 200.32644 
L 263.952 196.501846 
L 269.63712 196.501846 
L 271.53216 194.870769 
L 281.00736 194.870769 
L 282.9024 191.046175 
L 284.79744 191.046175 
L 286.69248 189.415098 
L 288.58752 187.221581 
L 292.3776 183.959427 
L 296.16768 183.959427 
L 298.06272 181.76591 
L 299.95776 180.134833 
L 301.8528 177.941316 
L 303.74784 173.048085 
L 305.64288 173.048085 
L 307.53792 171.417008 
L 317.01312 171.417008 
L 318.90816 169.785931 
L 320.8032 169.785931 
L 322.69824 168.154854 
L 324.59328 168.154854 
L 326.48832 166.523777 
L 328.38336 164.33026 
L 330.2784 164.33026 
L 332.17344 162.699183 
L 334.06848 160.505666 
L 337.85856 160.505666 
L 339.7536 156.118631 
L 341.64864 156.118631 
L 345.43872 152.856477 
L 347.33376 150.66296 
L 351.12384 150.66296 
L 353.01888 148.469443 
L 354.91392 146.838366 
L 356.80896 146.838366 
L 358.704 144.644849 
L 362.49408 144.644849 
L 364.38912 142.451332 
L 366.28416 142.451332 
L 368.1792 140.257814 
L 375.75936 140.257814 
L 377.6544 136.43322 
L 379.54944 134.802143 
L 389.02464 134.802143 
L 390.91968 132.608626 
L 394.70976 132.608626 
L 396.6048 130.415109 
L 398.49984 128.784032 
L 402.28992 128.784032 
L 406.08 124.396997 
L 407.97504 124.396997 
L 409.87008 122.20348 
L 413.66016 122.20348 
L 417.45024 118.941326 
L 423.13536 118.941326 
L 425.0304 114.554292 
L 426.92544 114.554292 
L 428.82048 112.923215 
L 436.40064 112.923215 
L 438.29568 110.729698 
L 443.9808 110.729698 
L 445.87584 108.53618 
L 455.35104 108.53618 
L 457.24608 106.905103 
L 462.9312 100.324552 
L 466.72128 100.324552 
L 468.61632 98.131034 
L 557.6832 98.131034 
L 559.57824 95.937517 
L 572.84352 95.937517 
L 574.73856 93.744 
L 642.96 93.744 
L 642.96 93.744 
" clip-path="url(#pc6ff2a8c23)" style="fill: none; stroke: #252525; stroke-width: 2.5; stroke-linecap: square"/>
   </g>
   <g id="line2d_28">
    <path d="M 74.448 348.192 
L 108.55872 348.192 
L 110.45376 345.998483 
L 112.3488 345.998483 
L 114.24384 343.804966 
L 123.71904 343.804966 
L 125.61408 341.611448 
L 131.2992 341.611448 
L 133.19424 339.417931 
L 138.87936 339.417931 
L 140.7744 335.030897 
L 142.66944 335.030897 
L 144.56448 330.643862 
L 146.45952 328.450345 
L 148.35456 328.450345 
L 152.14464 324.06331 
L 165.40992 324.06331 
L 167.30496 319.676276 
L 169.2 319.676276 
L 172.99008 315.289241 
L 174.88512 315.289241 
L 176.78016 310.902207 
L 178.6752 310.902207 
L 180.57024 309.27113 
L 182.46528 304.884095 
L 184.36032 304.884095 
L 186.25536 302.690578 
L 188.1504 298.303544 
L 190.04544 296.110027 
L 193.83552 296.110027 
L 195.73056 291.722992 
L 197.6256 289.529475 
L 207.1008 289.529475 
L 208.99584 285.14244 
L 210.89088 285.14244 
L 212.78592 282.948923 
L 218.47104 282.948923 
L 220.36608 278.561889 
L 222.26112 278.561889 
L 224.15616 276.368371 
L 226.0512 274.737294 
L 227.94624 274.737294 
L 229.84128 270.9127 
L 231.73632 268.719183 
L 233.63136 268.719183 
L 235.5264 264.894589 
L 237.42144 260.507554 
L 243.10656 260.507554 
L 245.0016 258.314037 
L 254.4768 258.314037 
L 256.37184 256.12052 
L 258.26688 256.12052 
L 260.16192 251.733485 
L 263.952 251.733485 
L 267.74208 248.471332 
L 269.63712 245.209178 
L 275.32224 245.209178 
L 277.21728 243.01566 
L 279.11232 241.384584 
L 282.9024 236.997549 
L 296.16768 236.997549 
L 298.06272 232.610515 
L 299.95776 230.416997 
L 301.8528 228.78592 
L 303.74784 228.78592 
L 305.64288 227.154844 
L 311.328 227.154844 
L 313.22304 224.961326 
L 317.01312 224.961326 
L 318.90816 223.330249 
L 320.8032 221.136732 
L 322.69824 219.505655 
L 324.59328 219.505655 
L 326.48832 217.312138 
L 330.2784 217.312138 
L 332.17344 213.487544 
L 334.06848 213.487544 
L 335.96352 211.294027 
L 337.85856 209.66295 
L 343.54368 209.66295 
L 345.43872 208.031873 
L 347.33376 208.031873 
L 349.2288 205.838355 
L 356.80896 205.838355 
L 358.704 203.644838 
L 366.28416 203.644838 
L 368.1792 202.013761 
L 371.96928 202.013761 
L 373.86432 198.189167 
L 377.6544 194.927013 
L 381.44448 194.927013 
L 383.33952 191.102419 
L 385.23456 191.102419 
L 387.1296 189.471342 
L 390.91968 189.471342 
L 392.81472 187.840265 
L 394.70976 187.840265 
L 396.6048 185.646748 
L 404.18496 185.646748 
L 406.08 184.015671 
L 409.87008 184.015671 
L 411.76512 182.384594 
L 413.66016 182.384594 
L 415.5552 180.753517 
L 417.45024 177.491363 
L 419.34528 177.491363 
L 425.0304 172.598133 
L 430.71552 172.598133 
L 432.61056 170.967056 
L 434.5056 166.073825 
L 436.40064 166.073825 
L 438.29568 164.442748 
L 443.9808 164.442748 
L 445.87584 162.811671 
L 449.66592 162.811671 
L 461.03616 153.02521 
L 462.9312 153.02521 
L 472.4064 144.869825 
L 476.19648 138.345517 
L 478.09152 136.71444 
L 479.98656 136.71444 
L 481.8816 135.083363 
L 497.04192 135.083363 
L 500.832 131.82121 
L 508.41216 131.82121 
L 510.3072 130.190133 
L 519.7824 130.190133 
L 521.67744 126.927979 
L 523.57248 125.296902 
L 527.36256 125.296902 
L 529.2576 123.665825 
L 536.83776 123.665825 
L 538.7328 120.403671 
L 542.52288 117.141517 
L 546.31296 117.141517 
L 548.208 115.51044 
L 555.78816 115.51044 
L 557.6832 112.248286 
L 559.57824 110.61721 
L 570.94848 110.61721 
L 572.84352 108.423692 
L 580.42368 108.423692 
L 584.21376 105.161538 
L 597.47904 105.161538 
L 599.37408 103.530462 
L 610.74432 103.530462 
L 612.63936 101.899385 
L 627.79968 101.899385 
L 629.69472 100.268308 
L 642.96 100.268308 
L 642.96 100.268308 
" clip-path="url(#pc6ff2a8c23)" style="fill: none; stroke: #3b83b4; stroke-width: 1.35; stroke-linecap: square"/>
   </g>
   <g id="line2d_29">
    <path d="M 74.448 348.192 
L 99.08352 348.192 
L 100.97856 345.998483 
L 102.8736 345.998483 
L 104.76864 344.367406 
L 106.66368 344.367406 
L 108.55872 341.105252 
L 110.45376 339.474175 
L 112.3488 339.474175 
L 114.24384 337.843098 
L 116.13888 334.580944 
L 118.03392 332.949867 
L 119.92896 332.949867 
L 121.824 329.687714 
L 123.71904 329.687714 
L 125.61408 325.863119 
L 129.40416 319.338812 
L 133.19424 319.338812 
L 135.08928 317.707735 
L 136.98432 317.707735 
L 138.87936 316.076658 
L 140.7744 316.076658 
L 142.66944 314.445581 
L 144.56448 314.445581 
L 152.14464 307.921273 
L 155.93472 307.921273 
L 159.7248 304.659119 
L 161.61984 301.396966 
L 163.51488 301.396966 
L 165.40992 299.765889 
L 167.30496 296.503735 
L 169.2 294.872658 
L 171.09504 291.048064 
L 174.88512 287.78591 
L 176.78016 279.574281 
L 178.6752 277.943204 
L 180.57024 274.68105 
L 182.46528 273.049973 
L 184.36032 269.225379 
L 186.25536 267.594302 
L 190.04544 267.594302 
L 193.83552 259.945114 
L 201.41568 259.945114 
L 205.20576 256.68296 
L 207.1008 251.227289 
L 208.99584 247.965135 
L 212.78592 247.965135 
L 214.68096 246.334058 
L 216.576 244.140541 
L 220.36608 240.878387 
L 222.26112 238.68487 
L 224.15616 238.68487 
L 231.73632 232.160562 
L 237.42144 232.160562 
L 239.31648 230.529485 
L 241.21152 227.267332 
L 243.10656 225.636255 
L 246.89664 225.636255 
L 248.79168 219.618143 
L 250.68672 219.618143 
L 252.58176 217.987066 
L 256.37184 217.987066 
L 258.26688 212.531395 
L 260.16192 209.269241 
L 262.05696 203.81357 
L 267.74208 203.81357 
L 269.63712 200.551416 
L 271.53216 198.357899 
L 273.4272 196.726822 
L 275.32224 196.726822 
L 277.21728 194.533305 
L 288.58752 194.533305 
L 290.48256 192.902228 
L 292.3776 192.902228 
L 294.27264 191.271151 
L 296.16768 189.077634 
L 298.06272 189.077634 
L 299.95776 186.884117 
L 305.64288 186.884117 
L 307.53792 184.690599 
L 309.43296 184.690599 
L 311.328 182.497082 
L 313.22304 182.497082 
L 315.11808 178.672488 
L 324.59328 178.672488 
L 326.48832 176.478971 
L 328.38336 176.478971 
L 330.2784 174.285454 
L 332.17344 168.267342 
L 335.96352 163.880308 
L 337.85856 162.249231 
L 341.64864 162.249231 
L 343.54368 157.862196 
L 345.43872 157.862196 
L 349.2288 154.600042 
L 368.1792 154.600042 
L 370.07424 152.406525 
L 379.54944 152.406525 
L 381.44448 150.775448 
L 383.33952 150.775448 
L 385.23456 148.581931 
L 387.1296 148.581931 
L 389.02464 146.388414 
L 411.76512 146.388414 
L 415.5552 142.001379 
L 421.24032 142.001379 
L 423.13536 139.807862 
L 432.61056 139.807862 
L 434.5056 137.614345 
L 436.40064 137.614345 
L 438.29568 135.420828 
L 440.19072 135.420828 
L 442.08576 133.22731 
L 443.9808 133.22731 
L 445.87584 128.840276 
L 453.456 128.840276 
L 455.35104 126.646759 
L 457.24608 126.646759 
L 459.14112 124.453241 
L 478.09152 124.453241 
L 479.98656 120.066207 
L 481.8816 117.87269 
L 489.46176 117.87269 
L 491.3568 115.679172 
L 500.832 115.679172 
L 504.62208 111.292138 
L 506.51712 111.292138 
L 508.41216 109.098621 
L 521.67744 109.098621 
L 523.57248 106.905103 
L 536.83776 106.905103 
L 538.7328 104.711586 
L 542.52288 104.711586 
L 544.41792 100.324552 
L 546.31296 98.131034 
L 641.06496 98.131034 
L 642.96 95.937517 
L 642.96 95.937517 
" clip-path="url(#pc6ff2a8c23)" style="fill: none; stroke-dasharray: 4.995,2.16; stroke-dashoffset: 0; stroke: #c38a19; stroke-width: 1.35"/>
   </g>
   <g id="line2d_30">
    <path d="M 74.448 348.192 
L 116.13888 348.192 
L 118.03392 345.998483 
L 123.71904 345.998483 
L 125.61408 344.367406 
L 133.19424 344.367406 
L 135.08928 342.736329 
L 136.98432 338.911735 
L 142.66944 338.911735 
L 146.45952 334.5247 
L 148.35456 332.893623 
L 150.2496 330.700106 
L 159.7248 330.700106 
L 161.61984 328.506589 
L 165.40992 328.506589 
L 167.30496 326.313072 
L 169.2 326.313072 
L 171.09504 319.226324 
L 172.99008 319.226324 
L 174.88512 314.333093 
L 176.78016 314.333093 
L 178.6752 312.702016 
L 184.36032 312.702016 
L 188.1504 309.439862 
L 190.04544 306.177708 
L 193.83552 306.177708 
L 195.73056 304.546631 
L 197.6256 301.284477 
L 201.41568 298.022324 
L 203.31072 295.828806 
L 207.1008 292.566653 
L 210.89088 292.566653 
L 216.576 287.673422 
L 218.47104 282.217751 
L 220.36608 278.393156 
L 224.15616 278.393156 
L 226.0512 276.199639 
L 227.94624 276.199639 
L 229.84128 272.375045 
L 231.73632 270.181528 
L 233.63136 264.725857 
L 237.42144 261.463703 
L 239.31648 256.008032 
L 241.21152 256.008032 
L 245.0016 251.620997 
L 246.89664 246.727767 
L 252.58176 246.727767 
L 254.4768 241.272095 
L 256.37184 235.253984 
L 260.16192 231.99183 
L 262.05696 228.729676 
L 263.952 226.536159 
L 265.84704 222.711565 
L 267.74208 222.711565 
L 269.63712 221.080488 
L 271.53216 215.624817 
L 273.4272 215.624817 
L 275.32224 213.4313 
L 277.21728 211.800223 
L 279.11232 211.800223 
L 281.00736 208.538069 
L 282.9024 206.906992 
L 286.69248 206.906992 
L 288.58752 203.082398 
L 290.48256 200.888881 
L 292.3776 200.888881 
L 296.16768 197.626727 
L 298.06272 192.171056 
L 299.95776 189.977538 
L 301.8528 188.346462 
L 303.74784 184.521867 
L 307.53792 181.259714 
L 313.22304 181.259714 
L 317.01312 177.99756 
L 320.8032 177.99756 
L 322.69824 176.366483 
L 324.59328 176.366483 
L 326.48832 174.735406 
L 328.38336 174.735406 
L 330.2784 170.348371 
L 334.06848 170.348371 
L 335.96352 168.154854 
L 337.85856 166.523777 
L 339.7536 164.33026 
L 341.64864 164.33026 
L 343.54368 162.699183 
L 347.33376 162.699183 
L 349.2288 161.068106 
L 353.01888 156.681072 
L 354.91392 155.049995 
L 356.80896 155.049995 
L 358.704 151.225401 
L 364.38912 151.225401 
L 366.28416 149.594324 
L 373.86432 149.594324 
L 377.6544 145.207289 
L 379.54944 141.382695 
L 381.44448 141.382695 
L 383.33952 136.99566 
L 389.02464 136.99566 
L 390.91968 134.802143 
L 392.81472 133.171066 
L 396.6048 133.171066 
L 400.39488 128.784032 
L 404.18496 128.784032 
L 406.08 124.959438 
L 409.87008 124.959438 
L 411.76512 122.76592 
L 417.45024 122.76592 
L 419.34528 120.572403 
L 426.92544 120.572403 
L 428.82048 116.747809 
L 430.71552 115.116732 
L 432.61056 115.116732 
L 434.5056 112.923215 
L 443.9808 112.923215 
L 445.87584 110.729698 
L 455.35104 110.729698 
L 457.24608 108.53618 
L 464.82624 108.53618 
L 466.72128 106.342663 
L 468.61632 106.342663 
L 470.51136 104.149146 
L 472.4064 102.518069 
L 474.30144 102.518069 
L 476.19648 100.324552 
L 478.09152 100.324552 
L 479.98656 98.131034 
L 570.94848 98.131034 
L 572.84352 95.937517 
L 578.52864 95.937517 
L 580.42368 93.744 
L 642.96 93.744 
L 642.96 93.744 
" clip-path="url(#pc6ff2a8c23)" style="fill: none; stroke-dasharray: 1.35,2.2275; stroke-dashoffset: 0; stroke: #7d8a92; stroke-width: 1.35"/>
   </g>
   <g id="line2d_31">
    <path d="M 74.448 348.192 
L 161.61984 348.192 
L 163.51488 345.998483 
L 165.40992 345.998483 
L 167.30496 343.804966 
L 171.09504 343.804966 
L 172.99008 341.611448 
L 176.78016 341.611448 
L 178.6752 339.417931 
L 205.20576 339.417931 
L 207.1008 337.224414 
L 210.89088 337.224414 
L 212.78592 335.030897 
L 216.576 335.030897 
L 218.47104 332.837379 
L 229.84128 332.837379 
L 231.73632 330.643862 
L 235.5264 330.643862 
L 237.42144 328.450345 
L 239.31648 328.450345 
L 241.21152 326.256828 
L 250.68672 326.256828 
L 254.4768 321.869793 
L 256.37184 321.869793 
L 258.26688 320.238716 
L 260.16192 315.851682 
L 263.952 315.851682 
L 265.84704 313.658164 
L 273.4272 313.658164 
L 277.21728 309.27113 
L 279.11232 304.884095 
L 281.00736 304.884095 
L 282.9024 302.690578 
L 290.48256 302.690578 
L 294.27264 298.303544 
L 298.06272 298.303544 
L 301.8528 293.916509 
L 307.53792 293.916509 
L 309.43296 291.722992 
L 313.22304 291.722992 
L 317.01312 287.335958 
L 322.69824 287.335958 
L 324.59328 285.14244 
L 326.48832 285.14244 
L 328.38336 280.755406 
L 330.2784 280.755406 
L 335.96352 274.174854 
L 345.43872 274.174854 
L 347.33376 272.543777 
L 353.01888 272.543777 
L 354.91392 270.35026 
L 362.49408 270.35026 
L 364.38912 265.963225 
L 366.28416 263.769708 
L 368.1792 263.769708 
L 370.07424 261.576191 
L 377.6544 261.576191 
L 379.54944 258.314037 
L 381.44448 253.927003 
L 389.02464 253.927003 
L 390.91968 251.733485 
L 392.81472 250.102408 
L 407.97504 250.102408 
L 409.87008 247.908891 
L 419.34528 247.908891 
L 421.24032 244.646737 
L 423.13536 244.646737 
L 426.92544 240.259703 
L 432.61056 240.259703 
L 434.5056 238.628626 
L 442.08576 238.628626 
L 443.9808 236.435109 
L 445.87584 232.048074 
L 447.77088 228.22348 
L 455.35104 228.22348 
L 457.24608 222.767809 
L 459.14112 221.136732 
L 464.82624 221.136732 
L 466.72128 218.943215 
L 470.51136 218.943215 
L 472.4064 217.312138 
L 476.19648 217.312138 
L 478.09152 215.118621 
L 489.46176 215.118621 
L 491.3568 212.925103 
L 493.25184 212.925103 
L 495.14688 211.294027 
L 497.04192 211.294027 
L 498.93696 208.031873 
L 502.72704 208.031873 
L 504.62208 206.400796 
L 506.51712 206.400796 
L 508.41216 204.207279 
L 512.20224 200.945125 
L 514.09728 198.751607 
L 515.99232 194.927013 
L 517.88736 194.927013 
L 519.7824 192.733496 
L 533.04768 192.733496 
L 534.94272 191.102419 
L 536.83776 191.102419 
L 538.7328 189.471342 
L 540.62784 189.471342 
L 544.41792 186.209188 
L 548.208 186.209188 
L 550.10304 182.947034 
L 553.89312 182.947034 
L 555.78816 181.315958 
L 557.6832 177.491363 
L 561.47328 174.22921 
L 565.26336 174.22921 
L 567.1584 172.598133 
L 569.05344 172.598133 
L 570.94848 170.967056 
L 572.84352 170.967056 
L 576.6336 164.442748 
L 580.42368 164.442748 
L 582.31872 162.811671 
L 588.00384 162.811671 
L 591.79392 159.549517 
L 595.584 159.549517 
L 597.47904 157.91844 
L 599.37408 154.656286 
L 601.26912 154.656286 
L 603.16416 153.02521 
L 605.0592 153.02521 
L 610.74432 148.131979 
L 612.63936 144.869825 
L 616.42944 141.607671 
L 618.32448 141.607671 
L 620.21952 138.345517 
L 624.0096 138.345517 
L 625.90464 136.71444 
L 627.79968 136.71444 
L 629.69472 135.083363 
L 635.37984 135.083363 
L 637.27488 133.452286 
L 642.96 133.452286 
L 642.96 133.452286 
" clip-path="url(#pc6ff2a8c23)" style="fill: none; stroke-dasharray: 8.64,2.16,1.35,2.16; stroke-dashoffset: 0; stroke: #d0526a; stroke-width: 1.35"/>
   </g>
   <g id="line2d_32">
    <path d="M 74.448 348.192 
L 102.8736 348.192 
L 104.76864 345.998483 
L 112.3488 345.998483 
L 114.24384 343.804966 
L 154.03968 343.804966 
L 155.93472 341.611448 
L 159.7248 341.611448 
L 161.61984 339.417931 
L 169.2 339.417931 
L 171.09504 335.030897 
L 172.99008 335.030897 
L 174.88512 332.837379 
L 180.57024 332.837379 
L 182.46528 328.450345 
L 184.36032 328.450345 
L 186.25536 326.256828 
L 191.94048 326.256828 
L 193.83552 324.06331 
L 199.52064 324.06331 
L 205.20576 317.482759 
L 208.99584 317.482759 
L 210.89088 315.289241 
L 216.576 315.289241 
L 218.47104 313.095724 
L 226.0512 313.095724 
L 227.94624 310.902207 
L 235.5264 310.902207 
L 237.42144 308.70869 
L 239.31648 307.077613 
L 245.0016 307.077613 
L 246.89664 304.884095 
L 248.79168 304.884095 
L 250.68672 302.690578 
L 252.58176 302.690578 
L 256.37184 298.303544 
L 260.16192 298.303544 
L 262.05696 296.110027 
L 263.952 296.110027 
L 265.84704 293.916509 
L 267.74208 293.916509 
L 271.53216 289.529475 
L 273.4272 285.14244 
L 275.32224 282.948923 
L 277.21728 282.948923 
L 281.00736 278.561889 
L 288.58752 278.561889 
L 292.3776 274.174854 
L 296.16768 274.174854 
L 298.06272 271.981337 
L 309.43296 271.981337 
L 313.22304 267.594302 
L 315.11808 263.207268 
L 320.8032 263.207268 
L 322.69824 261.576191 
L 330.2784 261.576191 
L 332.17344 259.382674 
L 343.54368 259.382674 
L 345.43872 257.751597 
L 347.33376 257.751597 
L 349.2288 256.12052 
L 354.91392 256.12052 
L 356.80896 253.927003 
L 358.704 252.295926 
L 360.59904 250.102408 
L 362.49408 250.102408 
L 364.38912 247.908891 
L 381.44448 247.908891 
L 383.33952 245.715374 
L 387.1296 242.45322 
L 389.02464 242.45322 
L 390.91968 240.822143 
L 398.49984 240.822143 
L 402.28992 236.435109 
L 404.18496 236.435109 
L 406.08 232.610515 
L 407.97504 232.610515 
L 413.66016 226.029963 
L 419.34528 226.029963 
L 423.13536 222.767809 
L 428.82048 222.767809 
L 430.71552 221.136732 
L 432.61056 218.943215 
L 434.5056 218.943215 
L 436.40064 215.118621 
L 451.56096 215.118621 
L 453.456 212.925103 
L 457.24608 212.925103 
L 459.14112 209.66295 
L 462.9312 209.66295 
L 464.82624 208.031873 
L 472.4064 208.031873 
L 474.30144 205.838355 
L 476.19648 204.207279 
L 478.09152 202.013761 
L 479.98656 202.013761 
L 481.8816 200.382684 
L 483.77664 195.99565 
L 485.67168 194.364573 
L 487.56672 194.364573 
L 489.46176 192.733496 
L 498.93696 192.733496 
L 504.62208 187.840265 
L 517.88736 187.840265 
L 519.7824 184.015671 
L 521.67744 182.384594 
L 523.57248 179.12244 
L 529.2576 179.12244 
L 531.15264 174.22921 
L 538.7328 174.22921 
L 542.52288 170.967056 
L 544.41792 167.704902 
L 548.208 167.704902 
L 555.78816 161.180594 
L 561.47328 161.180594 
L 563.36832 159.549517 
L 569.05344 159.549517 
L 576.6336 153.02521 
L 578.52864 149.763056 
L 582.31872 149.763056 
L 584.21376 143.238748 
L 591.79392 136.71444 
L 595.584 136.71444 
L 599.37408 133.452286 
L 616.42944 133.452286 
L 620.21952 130.190133 
L 622.11456 130.190133 
L 624.0096 128.559056 
L 629.69472 128.559056 
L 635.37984 123.665825 
L 637.27488 120.403671 
L 642.96 120.403671 
L 642.96 120.403671 
" clip-path="url(#pc6ff2a8c23)" style="fill: none; stroke-dasharray: 6.75,2.7,1.35,2.7; stroke-dashoffset: 0; stroke: #2f8f84; stroke-width: 1.35"/>
   </g>
   <g id="patch_4">
    <path d="M 74.448 348.192 
L 74.448 93.744 
" style="fill: none; stroke: #000000; stroke-width: 0.8; stroke-linejoin: miter; stroke-linecap: square"/>
   </g>
   <g id="patch_5">
    <path d="M 74.448 348.192 
L 642.96 348.192 
" style="fill: none; stroke: #000000; stroke-width: 0.8; stroke-linejoin: miter; stroke-linecap: square"/>
   </g>
  </g>
  <g id="text_16">
   <text style="font: 18px 'DejaVu Sans', 'Bitstream Vera Sans', 'Computer Modern Sans Serif', 'Lucida Grande', 'Verdana', 'Geneva', 'Lucid', 'Arial', 'Helvetica', 'Avant Garde', sans-serif; text-anchor: start" x="74.448" y="38.229188" transform="rotate(-0 74.448 38.229188)">QD-OLED → QDEF LCD</text>
  </g>
  <g id="text_17">
   <text style="fill: #66747c; font: 10px 'DejaVu Sans', 'Bitstream Vera Sans', 'Computer Modern Sans Serif', 'Lucida Grande', 'Verdana', 'Geneva', 'Lucid', 'Arial', 'Helvetica', 'Avant Garde', sans-serif; text-anchor: start" x="74.448" y="64.728" transform="rotate(-0 74.448 64.728)">D65</text>
  </g>
  <g id="legend_1">
   <g id="line2d_33">
    <path d="M 185.17875 404.151391 
L 194.27875 404.151391 
L 203.37875 404.151391 
" style="fill: none; stroke: #252525; stroke-width: 2.5; stroke-linecap: square"/>
   </g>
   <g id="text_18">
    <text style="font: 9.1px 'DejaVu Sans', 'Bitstream Vera Sans', 'Computer Modern Sans Serif', 'Lucida Grande', 'Verdana', 'Geneva', 'Lucid', 'Arial', 'Helvetica', 'Avant Garde', sans-serif; text-anchor: start" x="210.65875" y="407.336391" transform="rotate(-0 210.65875 407.336391)">Potera CMF</text>
   </g>
   <g id="line2d_34">
    <path d="M 185.17875 417.508484 
L 194.27875 417.508484 
L 203.37875 417.508484 
" style="fill: none; stroke: #3b83b4; stroke-width: 1.35; stroke-linecap: square"/>
   </g>
   <g id="text_19">
    <text style="font: 9.1px 'DejaVu Sans', 'Bitstream Vera Sans', 'Computer Modern Sans Serif', 'Lucida Grande', 'Verdana', 'Geneva', 'Lucid', 'Arial', 'Helvetica', 'Avant Garde', sans-serif; text-anchor: start" x="210.65875" y="420.693484" transform="rotate(-0 210.65875 420.693484)">CIE 2015 2°</text>
   </g>
   <g id="line2d_35">
    <path d="M 282.931234 404.151391 
L 292.031234 404.151391 
L 301.131234 404.151391 
" style="fill: none; stroke-dasharray: 4.995,2.16; stroke-dashoffset: 0; stroke: #c38a19; stroke-width: 1.35"/>
   </g>
   <g id="text_20">
    <text style="font: 9.1px 'DejaVu Sans', 'Bitstream Vera Sans', 'Computer Modern Sans Serif', 'Lucida Grande', 'Verdana', 'Geneva', 'Lucid', 'Arial', 'Helvetica', 'Avant Garde', sans-serif; text-anchor: start" x="308.411234" y="407.336391" transform="rotate(-0 308.411234 407.336391)">CIE 2015 10°</text>
   </g>
   <g id="line2d_36">
    <path d="M 282.931234 417.508484 
L 292.031234 417.508484 
L 301.131234 417.508484 
" style="fill: none; stroke-dasharray: 1.35,2.2275; stroke-dashoffset: 0; stroke: #7d8a92; stroke-width: 1.35"/>
   </g>
   <g id="text_21">
    <text style="font: 9.1px 'DejaVu Sans', 'Bitstream Vera Sans', 'Computer Modern Sans Serif', 'Lucida Grande', 'Verdana', 'Geneva', 'Lucid', 'Arial', 'Helvetica', 'Avant Garde', sans-serif; text-anchor: start" x="308.411234" y="420.693484" transform="rotate(-0 308.411234 420.693484)">CIE 1964 10°</text>
   </g>
   <g id="line2d_37">
    <path d="M 386.473594 404.151391 
L 395.573594 404.151391 
L 404.673594 404.151391 
" style="fill: none; stroke-dasharray: 8.64,2.16,1.35,2.16; stroke-dashoffset: 0; stroke: #d0526a; stroke-width: 1.35"/>
   </g>
   <g id="text_22">
    <text style="font: 9.1px 'DejaVu Sans', 'Bitstream Vera Sans', 'Computer Modern Sans Serif', 'Lucida Grande', 'Verdana', 'Geneva', 'Lucid', 'Arial', 'Helvetica', 'Avant Garde', sans-serif; text-anchor: start" x="411.953594" y="407.336391" transform="rotate(-0 411.953594 407.336391)">CIE 1931 2°</text>
   </g>
   <g id="line2d_38">
    <path d="M 386.473594 417.508484 
L 395.573594 417.508484 
L 404.673594 417.508484 
" style="fill: none; stroke-dasharray: 6.75,2.7,1.35,2.7; stroke-dashoffset: 0; stroke: #2f8f84; stroke-width: 1.35"/>
   </g>
   <g id="text_23">
    <text style="font: 9.1px 'DejaVu Sans', 'Bitstream Vera Sans', 'Computer Modern Sans Serif', 'Lucida Grande', 'Verdana', 'Geneva', 'Lucid', 'Arial', 'Helvetica', 'Avant Garde', sans-serif; text-anchor: start" x="411.953594" y="420.693484" transform="rotate(-0 411.953594 420.693484)">Judd–Vos 1978 2°</text>
   </g>
  </g>
 </g>
 <defs>
  <clipPath id="pc6ff2a8c23">
   <rect x="74.448" y="93.744" width="568.512" height="254.448"/>
  </clipPath>
 </defs>
</svg>
