<?xml version="1.0" encoding="utf-8" standalone="no"?>
<!DOCTYPE svg PUBLIC "-//W3C//DTD SVG 1.1//EN"
  "http://www.w3.org/Graphics/SVG/1.1/DTD/svg11.dtd">
<svg xmlns:xlink="http://www.w3.org/1999/xlink" width="676.8pt" height="446.4pt" viewBox="0 0 676.8 446.4" xmlns="http://www.w3.org/2000/svg" version="1.1">
 <metadata>
  <rdf:RDF xmlns:dc="http://purl.org/dc/elements/1.1/" xmlns:cc="http://creativecommons.org/ns#" xmlns:rdf="http://www.w3.org/1999/02/22-rdf-syntax-ns#">
   <cc:Work>
    <dc:type rdf:resource="http://purl.org/dc/dcmitype/StillImage"/>
    <dc:date>2026-07-20T06:42:01.507482</dc:date>
    <dc:format>image/svg+xml</dc:format>
    <dc:creator>
     <cc:Agent>
      <dc:title>Matplotlib v3.9.4, https://matplotlib.org/</dc:title>
     </cc:Agent>
    </dc:creator>
   </cc:Work>
  </rdf:RDF>
 </metadata>
 <defs>
  <style type="text/css">*{stroke-linejoin: round; stroke-linecap: butt}</style>
 </defs>
 <g id="figure_1">
  <g id="patch_1">
   <path d="M 0 446.4 
L 676.8 446.4 
L 676.8 0 
L 0 0 
z
" style="fill: #ffffff"/>
  </g>
  <g id="axes_1">
   <g id="patch_2">
    <path d="M 74.448 348.192 
L 642.96 348.192 
L 642.96 93.744 
L 74.448 93.744 
z
" style="fill: #ffffff"/>
   </g>
   <g id="patch_3">
    <path d="M 169.2 348.192 
L 358.704 348.192 
L 358.704 93.744 
L 169.2 93.744 
z
" clip-path="url(#p90d639faa4)" style="fill: #e7f0ea; opacity: 0.58; stroke: #e7f0ea; stroke-linejoin: miter"/>
   </g>
   <g id="matplotlib.axis_1">
    <g id="xtick_1">
     <g id="line2d_1">
      <path d="M 74.448 348.192 
L 74.448 93.744 
" clip-path="url(#p90d639faa4)" style="fill: none; stroke: #dfe5e8; stroke-width: 0.65; stroke-linecap: square"/>
     </g>
     <g id="line2d_2">
      <defs>
       <path id="m469c483c93" d="M 0 0 
L 0 3.5 
" style="stroke: #000000; stroke-width: 0.8"/>
      </defs>
      <g>
       <use xlink:href="#m469c483c93" x="74.448" y="348.192" style="stroke: #000000; stroke-width: 0.8"/>
      </g>
     </g>
     <g id="text_1">
      <text style="font: 10px 'DejaVu Sans', 'Bitstream Vera Sans', 'Computer Modern Sans Serif', 'Lucida Grande', 'Verdana', 'Geneva', 'Lucid', 'Arial', 'Helvetica', 'Avant Garde', sans-serif; text-anchor: middle" x="74.448" y="362.790438" transform="rotate(-0 74.448 362.790438)">0</text>
     </g>
    </g>
    <g id="xtick_2">
     <g id="line2d_3">
      <path d="M 169.2 348.192 
L 169.2 93.744 
" clip-path="url(#p90d639faa4)" style="fill: none; stroke: #dfe5e8; stroke-width: 0.65; stroke-linecap: square"/>
     </g>
     <g id="line2d_4">
      <g>
       <use xlink:href="#m469c483c93" x="169.2" y="348.192" style="stroke: #000000; stroke-width: 0.8"/>
      </g>
     </g>
     <g id="text_2">
      <text style="font: 10px 'DejaVu Sans', 'Bitstream Vera Sans', 'Computer Modern Sans Serif', 'Lucida Grande', 'Verdana', 'Geneva', 'Lucid', 'Arial', 'Helvetica', 'Avant Garde', sans-serif; text-anchor: middle" x="169.2" y="362.790438" transform="rotate(-0 169.2 362.790438)">1</text>
     </g>
    </g>
    <g id="xtick_3">
     <g id="line2d_5">
      <path d="M 263.952 348.192 
L 263.952 93.744 
" clip-path="url(#p90d639faa4)" style="fill: none; stroke: #dfe5e8; stroke-width: 0.65; stroke-linecap: square"/>
     </g>
     <g id="line2d_6">
      <g>
       <use xlink:href="#m469c483c93" x="263.952" y="348.192" style="stroke: #000000; stroke-width: 0.8"/>
      </g>
     </g>
     <g id="text_3">
      <text style="font: 10px 'DejaVu Sans', 'Bitstream Vera Sans', 'Computer Modern Sans Serif', 'Lucida Grande', 'Verdana', 'Geneva', 'Lucid', 'Arial', 'Helvetica', 'Avant Garde', sans-serif; text-anchor: middle" x="263.952" y="362.790438" transform="rotate(-0 263.952 362.790438)">2</text>
     </g>
    </g>
    <g id="xtick_4">
     <g id="line2d_7">
      <path d="M 358.704 348.192 
L 358.704 93.744 
" clip-path="url(#p90d639faa4)" style="fill: none; stroke: #dfe5e8; stroke-width: 0.65; stroke-linecap: square"/>
     </g>
     <g id="line2d_8">
      <g>
       <use xlink:href="#m469c483c93" x="358.704" y="348.192" style="stroke: #000000; stroke-width: 0.8"/>
      </g>
     </g>
     <g id="text_4">
      <text style="font: 10px 'DejaVu Sans', 'Bitstream Vera Sans', 'Computer Modern Sans Serif', 'Lucida Grande', 'Verdana', 'Geneva', 'Lucid', 'Arial', 'Helvetica', 'Avant Garde', sans-serif; text-anchor: middle" x="358.704" y="362.790438" transform="rotate(-0 358.704 362.790438)">3</text>
     </g>
    </g>
    <g id="xtick_5">
     <g id="line2d_9">
      <path d="M 453.456 348.192 
L 453.456 93.744 
" clip-path="url(#p90d639faa4)" style="fill: none; stroke: #dfe5e8; stroke-width: 0.65; stroke-linecap: square"/>
     </g>
     <g id="line2d_10">
      <g>
       <use xlink:href="#m469c483c93" x="453.456" y="348.192" style="stroke: #000000; stroke-width: 0.8"/>
      </g>
     </g>
     <g id="text_5">
      <text style="font: 10px 'DejaVu Sans', 'Bitstream Vera Sans', 'Computer Modern Sans Serif', 'Lucida Grande', 'Verdana', 'Geneva', 'Lucid', 'Arial', 'Helvetica', 'Avant Garde', sans-serif; text-anchor: middle" x="453.456" y="362.790438" transform="rotate(-0 453.456 362.790438)">4</text>
     </g>
    </g>
    <g id="xtick_6">
     <g id="line2d_11">
      <path d="M 548.208 348.192 
L 548.208 93.744 
" clip-path="url(#p90d639faa4)" style="fill: none; stroke: #dfe5e8; stroke-width: 0.65; stroke-linecap: square"/>
     </g>
     <g id="line2d_12">
      <g>
       <use xlink:href="#m469c483c93" x="548.208" y="348.192" style="stroke: #000000; stroke-width: 0.8"/>
      </g>
     </g>
     <g id="text_6">
      <text style="font: 10px 'DejaVu Sans', 'Bitstream Vera Sans', 'Computer Modern Sans Serif', 'Lucida Grande', 'Verdana', 'Geneva', 'Lucid', 'Arial', 'Helvetica', 'Avant Garde', sans-serif; text-anchor: middle" x="548.208" y="362.790438" transform="rotate(-0 548.208 362.790438)">5</text>
     </g>
    </g>
    <g id="xtick_7">
     <g id="line2d_13">
      <path d="M 642.96 348.192 
L 642.96 93.744 
" clip-path="url(#p90d639faa4)" style="fill: none; stroke: #dfe5e8; stroke-width: 0.65; stroke-linecap: square"/>
     </g>
     <g id="line2d_14">
      <g>
       <use xlink:href="#m469c483c93" x="642.96" y="348.192" style="stroke: #000000; stroke-width: 0.8"/>
      </g>
     </g>
     <g id="text_7">
      <text style="font: 10px 'DejaVu Sans', 'Bitstream Vera Sans', 'Computer Modern Sans Serif', 'Lucida Grande', 'Verdana', 'Geneva', 'Lucid', 'Arial', 'Helvetica', 'Avant Garde', sans-serif; text-anchor: middle" x="642.96" y="362.790438" transform="rotate(-0 642.96 362.790438)">6</text>
     </g>
    </g>
    <g id="text_8">
     <text style="font: 10px 'DejaVu Sans', 'Bitstream Vera Sans', 'Computer Modern Sans Serif', 'Lucida Grande', 'Verdana', 'Geneva', 'Lucid', 'Arial', 'Helvetica', 'Avant Garde', sans-serif; text-anchor: middle" x="358.704" y="376.468563" transform="rotate(-0 358.704 376.468563)">sUCS dE threshold</text>
    </g>
   </g>
   <g id="matplotlib.axis_2">
    <g id="ytick_1">
     <g id="line2d_15">
      <path d="M 74.448 348.192 
L 642.96 348.192 
" clip-path="url(#p90d639faa4)" style="fill: none; stroke: #dfe5e8; stroke-width: 0.65; stroke-linecap: square"/>
     </g>
     <g id="line2d_16">
      <defs>
       <path id="m0a09037cf4" d="M 0 0 
L -3.5 0 
" style="stroke: #000000; stroke-width: 0.8"/>
      </defs>
      <g>
       <use xlink:href="#m0a09037cf4" x="74.448" y="348.192" style="stroke: #000000; stroke-width: 0.8"/>
      </g>
     </g>
     <g id="text_9">
      <text style="font: 10px 'DejaVu Sans', 'Bitstream Vera Sans', 'Computer Modern Sans Serif', 'Lucida Grande', 'Verdana', 'Geneva', 'Lucid', 'Arial', 'Helvetica', 'Avant Garde', sans-serif; text-anchor: end" x="67.448" y="351.991219" transform="rotate(-0 67.448 351.991219)">0</text>
     </g>
    </g>
    <g id="ytick_2">
     <g id="line2d_17">
      <path d="M 74.448 297.3024 
L 642.96 297.3024 
" clip-path="url(#p90d639faa4)" style="fill: none; stroke: #dfe5e8; stroke-width: 0.65; stroke-linecap: square"/>
     </g>
     <g id="line2d_18">
      <g>
       <use xlink:href="#m0a09037cf4" x="74.448" y="297.3024" style="stroke: #000000; stroke-width: 0.8"/>
      </g>
     </g>
     <g id="text_10">
      <text style="font: 10px 'DejaVu Sans', 'Bitstream Vera Sans', 'Computer Modern Sans Serif', 'Lucida Grande', 'Verdana', 'Geneva', 'Lucid', 'Arial', 'Helvetica', 'Avant Garde', sans-serif; text-anchor: end" x="67.448" y="301.101619" transform="rotate(-0 67.448 301.101619)">20</text>
     </g>
    </g>
    <g id="ytick_3">
     <g id="line2d_19">
      <path d="M 74.448 246.4128 
L 642.96 246.4128 
" clip-path="url(#p90d639faa4)" style="fill: none; stroke: #dfe5e8; stroke-width: 0.65; stroke-linecap: square"/>
     </g>
     <g id="line2d_20">
      <g>
       <use xlink:href="#m0a09037cf4" x="74.448" y="246.4128" style="stroke: #000000; stroke-width: 0.8"/>
      </g>
     </g>
     <g id="text_11">
      <text style="font: 10px 'DejaVu Sans', 'Bitstream Vera Sans', 'Computer Modern Sans Serif', 'Lucida Grande', 'Verdana', 'Geneva', 'Lucid', 'Arial', 'Helvetica', 'Avant Garde', sans-serif; text-anchor: end" x="67.448" y="250.212019" transform="rotate(-0 67.448 250.212019)">40</text>
     </g>
    </g>
    <g id="ytick_4">
     <g id="line2d_21">
      <path d="M 74.448 195.5232 
L 642.96 195.5232 
" clip-path="url(#p90d639faa4)" style="fill: none; stroke: #dfe5e8; stroke-width: 0.65; stroke-linecap: square"/>
     </g>
     <g id="line2d_22">
      <g>
       <use xlink:href="#m0a09037cf4" x="74.448" y="195.5232" style="stroke: #000000; stroke-width: 0.8"/>
      </g>
     </g>
     <g id="text_12">
      <text style="font: 10px 'DejaVu Sans', 'Bitstream Vera Sans', 'Computer Modern Sans Serif', 'Lucida Grande', 'Verdana', 'Geneva', 'Lucid', 'Arial', 'Helvetica', 'Avant Garde', sans-serif; text-anchor: end" x="67.448" y="199.322419" transform="rotate(-0 67.448 199.322419)">60</text>
     </g>
    </g>
    <g id="ytick_5">
     <g id="line2d_23">
      <path d="M 74.448 144.6336 
L 642.96 144.6336 
" clip-path="url(#p90d639faa4)" style="fill: none; stroke: #dfe5e8; stroke-width: 0.65; stroke-linecap: square"/>
     </g>
     <g id="line2d_24">
      <g>
       <use xlink:href="#m0a09037cf4" x="74.448" y="144.6336" style="stroke: #000000; stroke-width: 0.8"/>
      </g>
     </g>
     <g id="text_13">
      <text style="font: 10px 'DejaVu Sans', 'Bitstream Vera Sans', 'Computer Modern Sans Serif', 'Lucida Grande', 'Verdana', 'Geneva', 'Lucid', 'Arial', 'Helvetica', 'Avant Garde', sans-serif; text-anchor: end" x="67.448" y="148.432819" transform="rotate(-0 67.448 148.432819)">80</text>
     </g>
    </g>
    <g id="ytick_6">
     <g id="line2d_25">
      <path d="M 74.448 93.744 
L 642.96 93.744 
" clip-path="url(#p90d639faa4)" style="fill: none; stroke: #dfe5e8; stroke-width: 0.65; stroke-linecap: square"/>
     </g>
     <g id="line2d_26">
      <g>
       <use xlink:href="#m0a09037cf4" x="74.448" y="93.744" style="stroke: #000000; stroke-width: 0.8"/>
      </g>
     </g>
     <g id="text_14">
      <text style="font: 10px 'DejaVu Sans', 'Bitstream Vera Sans', 'Computer Modern Sans Serif', 'Lucida Grande', 'Verdana', 'Geneva', 'Lucid', 'Arial', 'Helvetica', 'Avant Garde', sans-serif; text-anchor: end" x="67.448" y="97.543219" transform="rotate(-0 67.448 97.543219)">100</text>
     </g>
    </g>
    <g id="text_15">
     <text style="font: 10px 'DejaVu Sans', 'Bitstream Vera Sans', 'Computer Modern Sans Serif', 'Lucida Grande', 'Verdana', 'Geneva', 'Lucid', 'Arial', 'Helvetica', 'Avant Garde', sans-serif; text-anchor: middle" x="42.280812" y="220.968" transform="rotate(-90 42.280812 220.968)">observers%</text>
    </g>
   </g>
   <g id="line2d_27">
    <path d="M 74.448 348.192 
L 78.23808 348.192 
L 80.13312 345.998483 
L 83.9232 345.998483 
L 85.81824 344.367406 
L 91.50336 344.367406 
L 95.29344 339.980371 
L 100.97856 339.980371 
L 102.8736 336.718218 
L 104.76864 336.718218 
L 106.66368 330.700106 
L 110.45376 326.313072 
L 112.3488 322.488477 
L 116.13888 322.488477 
L 118.03392 317.595247 
L 119.92896 315.401729 
L 121.824 315.401729 
L 123.71904 311.014695 
L 127.50912 311.014695 
L 129.40416 304.996584 
L 136.98432 298.472276 
L 138.87936 293.579045 
L 140.7744 291.947968 
L 142.66944 291.947968 
L 144.56448 285.929857 
L 146.45952 282.667703 
L 148.35456 282.667703 
L 150.2496 278.843109 
L 152.14464 275.580955 
L 154.03968 269.056647 
L 159.7248 264.163416 
L 161.61984 260.338822 
L 163.51488 260.338822 
L 165.40992 258.145305 
L 167.30496 252.689634 
L 169.2 249.42748 
L 172.99008 246.165326 
L 174.88512 236.322621 
L 176.78016 233.060467 
L 178.6752 231.42939 
L 180.57024 229.235873 
L 184.36032 222.711565 
L 186.25536 222.711565 
L 188.1504 220.518048 
L 190.04544 218.886971 
L 193.83552 218.886971 
L 195.73056 216.693454 
L 197.6256 212.868859 
L 199.52064 210.675342 
L 201.41568 210.675342 
L 203.31072 208.481825 
L 205.20576 203.588594 
L 207.1008 203.588594 
L 208.99584 201.957517 
L 212.78592 197.570483 
L 216.576 189.921294 
L 220.36608 186.659141 
L 222.26112 186.659141 
L 224.15616 184.465623 
L 226.0512 184.465623 
L 227.94624 179.009952 
L 229.84128 179.009952 
L 231.73632 177.378875 
L 235.5264 177.378875 
L 237.42144 174.116721 
L 241.21152 170.854568 
L 243.10656 168.66105 
L 246.89664 168.66105 
L 248.79168 165.398897 
L 250.68672 165.398897 
L 252.58176 163.76782 
L 254.4768 159.943225 
L 256.37184 158.312149 
L 265.84704 158.312149 
L 267.74208 150.10052 
L 269.63712 145.713485 
L 271.53216 145.713485 
L 273.4272 142.451332 
L 275.32224 142.451332 
L 277.21728 140.257814 
L 286.69248 140.257814 
L 288.58752 138.064297 
L 290.48256 138.064297 
L 292.3776 135.87078 
L 294.27264 135.87078 
L 298.06272 131.483745 
L 303.74784 131.483745 
L 307.53792 127.096711 
L 309.43296 123.272117 
L 322.69824 123.272117 
L 324.59328 121.078599 
L 326.48832 121.078599 
L 328.38336 118.885082 
L 330.2784 118.885082 
L 332.17344 117.254005 
L 334.06848 117.254005 
L 337.85856 113.991851 
L 339.7536 111.798334 
L 349.2288 111.798334 
L 351.12384 110.167257 
L 354.91392 110.167257 
L 356.80896 107.97374 
L 358.704 106.342663 
L 360.59904 106.342663 
L 362.49408 104.149146 
L 368.1792 104.149146 
L 370.07424 101.955629 
L 371.96928 100.324552 
L 379.54944 100.324552 
L 383.33952 95.937517 
L 440.19072 95.937517 
L 442.08576 93.744 
L 642.96 93.744 
L 642.96 93.744 
" clip-path="url(#p90d639faa4)" style="fill: none; stroke: #252525; stroke-width: 2.5; stroke-linecap: square"/>
   </g>
   <g id="line2d_28">
    <path d="M 74.448 348.192 
L 89.60832 348.192 
L 91.50336 345.998483 
L 93.3984 345.998483 
L 95.29344 343.804966 
L 100.97856 343.804966 
L 102.8736 341.611448 
L 104.76864 341.611448 
L 106.66368 339.417931 
L 114.24384 339.417931 
L 116.13888 335.030897 
L 118.03392 332.837379 
L 119.92896 332.837379 
L 123.71904 328.450345 
L 125.61408 325.188191 
L 135.08928 325.188191 
L 136.98432 320.801156 
L 140.7744 316.414122 
L 144.56448 316.414122 
L 146.45952 312.589528 
L 148.35456 308.202493 
L 150.2496 308.202493 
L 152.14464 306.008976 
L 154.03968 306.008976 
L 155.93472 303.815459 
L 157.82976 303.815459 
L 159.7248 299.990865 
L 167.30496 299.990865 
L 171.09504 295.60383 
L 174.88512 287.954642 
L 176.78016 281.936531 
L 178.6752 279.743013 
L 180.57024 279.743013 
L 182.46528 271.531385 
L 184.36032 268.269231 
L 186.25536 266.638154 
L 188.1504 262.251119 
L 190.04544 260.620042 
L 197.6256 251.845973 
L 199.52064 251.845973 
L 201.41568 248.58382 
L 203.31072 246.390302 
L 205.20576 239.809751 
L 207.1008 237.616233 
L 208.99584 237.616233 
L 210.89088 233.229199 
L 212.78592 233.229199 
L 214.68096 229.967045 
L 220.36608 225.073814 
L 222.26112 222.880297 
L 224.15616 221.24922 
L 226.0512 215.793549 
L 227.94624 211.968955 
L 229.84128 209.775438 
L 233.63136 209.775438 
L 235.5264 208.144361 
L 237.42144 205.950844 
L 239.31648 201.563809 
L 241.21152 201.563809 
L 245.0016 193.914621 
L 246.89664 193.914621 
L 254.4768 187.390313 
L 256.37184 183.003279 
L 258.26688 179.178684 
L 262.05696 179.178684 
L 265.84704 175.916531 
L 271.53216 175.916531 
L 273.4272 174.285454 
L 277.21728 169.898419 
L 281.00736 169.898419 
L 282.9024 168.267342 
L 284.79744 168.267342 
L 288.58752 161.743034 
L 294.27264 161.743034 
L 296.16768 160.111958 
L 298.06272 160.111958 
L 301.8528 156.849804 
L 303.74784 151.956573 
L 307.53792 148.694419 
L 309.43296 143.801188 
L 311.328 141.607671 
L 317.01312 141.607671 
L 318.90816 139.976594 
L 320.8032 139.976594 
L 322.69824 137.783077 
L 326.48832 137.783077 
L 328.38336 136.152 
L 330.2784 136.152 
L 332.17344 134.520923 
L 335.96352 134.520923 
L 339.7536 131.258769 
L 345.43872 131.258769 
L 347.33376 129.627692 
L 349.2288 129.627692 
L 351.12384 126.365538 
L 356.80896 126.365538 
L 358.704 123.103385 
L 362.49408 123.103385 
L 366.28416 119.841231 
L 370.07424 119.841231 
L 371.96928 116.579077 
L 375.75936 116.579077 
L 379.54944 113.316923 
L 383.33952 113.316923 
L 387.1296 110.054769 
L 394.70976 110.054769 
L 396.6048 108.423692 
L 398.49984 108.423692 
L 400.39488 106.792615 
L 404.18496 106.792615 
L 406.08 105.161538 
L 430.71552 105.161538 
L 432.61056 103.530462 
L 459.14112 103.530462 
L 461.03616 100.268308 
L 466.72128 100.268308 
L 468.61632 98.637231 
L 479.98656 98.637231 
L 481.8816 97.006154 
L 483.77664 97.006154 
L 485.67168 95.375077 
L 493.25184 95.375077 
L 495.14688 93.744 
L 642.96 93.744 
L 642.96 93.744 
" clip-path="url(#p90d639faa4)" style="fill: none; stroke: #3b83b4; stroke-width: 1.35; stroke-linecap: square"/>
   </g>
   <g id="line2d_29">
    <path d="M 74.448 348.192 
L 89.60832 348.192 
L 95.29344 343.298769 
L 97.18848 343.298769 
L 99.08352 341.667692 
L 102.8736 341.667692 
L 106.66368 335.143385 
L 108.55872 333.512308 
L 110.45376 328.056637 
L 112.3488 326.42556 
L 114.24384 323.163406 
L 116.13888 321.532329 
L 119.92896 321.532329 
L 121.824 319.338812 
L 123.71904 319.338812 
L 125.61408 316.076658 
L 127.50912 316.076658 
L 129.40416 310.620987 
L 131.2992 308.427469 
L 136.98432 303.534239 
L 138.87936 300.272085 
L 140.7744 298.641008 
L 142.66944 294.816414 
L 144.56448 293.185337 
L 146.45952 288.798302 
L 148.35456 283.342631 
L 150.2496 281.711554 
L 152.14464 277.88696 
L 154.03968 276.255883 
L 155.93472 276.255883 
L 157.82976 271.868849 
L 161.61984 265.344541 
L 163.51488 258.257793 
L 167.30496 258.257793 
L 169.2 252.802122 
L 171.09504 251.171045 
L 172.99008 247.346451 
L 174.88512 247.346451 
L 176.78016 242.45322 
L 178.6752 242.45322 
L 180.57024 236.997549 
L 182.46528 235.366472 
L 184.36032 235.366472 
L 186.25536 231.541878 
L 190.04544 228.279724 
L 191.94048 226.086207 
L 193.83552 219.561899 
L 195.73056 219.561899 
L 197.6256 216.299745 
L 201.41568 216.299745 
L 205.20576 213.037592 
L 207.1008 213.037592 
L 208.99584 211.406515 
L 210.89088 211.406515 
L 212.78592 205.950844 
L 216.576 205.950844 
L 218.47104 202.68869 
L 226.0512 202.68869 
L 227.94624 198.301655 
L 229.84128 196.670578 
L 231.73632 194.477061 
L 233.63136 190.090027 
L 239.31648 190.090027 
L 241.21152 186.265432 
L 245.0016 186.265432 
L 250.68672 179.684881 
L 254.4768 179.684881 
L 256.37184 178.053804 
L 260.16192 178.053804 
L 262.05696 172.598133 
L 263.952 170.404615 
L 269.63712 170.404615 
L 271.53216 168.773538 
L 273.4272 164.948944 
L 279.11232 164.948944 
L 281.00736 161.12435 
L 282.9024 155.106239 
L 286.69248 155.106239 
L 288.58752 152.912721 
L 292.3776 149.650568 
L 303.74784 149.650568 
L 305.64288 148.019491 
L 309.43296 148.019491 
L 311.328 145.825973 
L 317.01312 145.825973 
L 318.90816 144.194897 
L 320.8032 142.001379 
L 330.2784 142.001379 
L 332.17344 135.420828 
L 334.06848 135.420828 
L 337.85856 131.033793 
L 345.43872 131.033793 
L 347.33376 128.840276 
L 351.12384 128.840276 
L 353.01888 126.646759 
L 356.80896 126.646759 
L 360.59904 122.259724 
L 364.38912 122.259724 
L 366.28416 120.066207 
L 371.96928 120.066207 
L 373.86432 117.87269 
L 375.75936 113.485655 
L 390.91968 113.485655 
L 394.70976 109.098621 
L 406.08 109.098621 
L 407.97504 106.905103 
L 423.13536 106.905103 
L 426.92544 102.518069 
L 434.5056 102.518069 
L 436.40064 100.324552 
L 447.77088 100.324552 
L 451.56096 95.937517 
L 506.51712 95.937517 
L 508.41216 93.744 
L 642.96 93.744 
L 642.96 93.744 
" clip-path="url(#p90d639faa4)" style="fill: none; stroke-dasharray: 4.995,2.16; stroke-dashoffset: 0; stroke: #c38a19; stroke-width: 1.35"/>
   </g>
   <g id="line2d_30">
    <path d="M 74.448 348.192 
L 87.71328 348.192 
L 89.60832 345.998483 
L 91.50336 345.998483 
L 93.3984 343.804966 
L 95.29344 342.173889 
L 104.76864 342.173889 
L 106.66368 340.542812 
L 110.45376 340.542812 
L 114.24384 336.155777 
L 118.03392 336.155777 
L 119.92896 332.331183 
L 125.61408 332.331183 
L 127.50912 330.700106 
L 133.19424 330.700106 
L 138.87936 324.119554 
L 140.7744 322.488477 
L 144.56448 318.101443 
L 146.45952 318.101443 
L 148.35456 314.839289 
L 154.03968 314.839289 
L 155.93472 307.752541 
L 159.7248 303.365507 
L 161.61984 303.365507 
L 163.51488 299.540912 
L 165.40992 297.909836 
L 167.30496 293.016605 
L 169.2 293.016605 
L 171.09504 289.192011 
L 172.99008 276.649592 
L 174.88512 274.456074 
L 176.78016 274.456074 
L 178.6752 272.262557 
L 180.57024 269.000403 
L 182.46528 269.000403 
L 184.36032 265.175809 
L 186.25536 261.913655 
L 188.1504 257.020424 
L 190.04544 257.020424 
L 191.94048 251.564753 
L 195.73056 248.302599 
L 197.6256 248.302599 
L 199.52064 246.671523 
L 205.20576 236.885061 
L 208.99584 233.622907 
L 210.89088 233.622907 
L 212.78592 225.467523 
L 214.68096 218.380775 
L 216.576 216.187257 
L 218.47104 214.55618 
L 220.36608 206.906992 
L 222.26112 205.275915 
L 224.15616 199.257804 
L 227.94624 195.99565 
L 229.84128 192.171056 
L 231.73632 190.539979 
L 233.63136 185.084308 
L 235.5264 185.084308 
L 237.42144 182.89079 
L 239.31648 181.259714 
L 241.21152 174.172966 
L 245.0016 174.172966 
L 250.68672 167.592414 
L 256.37184 162.699183 
L 262.05696 162.699183 
L 263.952 161.068106 
L 269.63712 161.068106 
L 271.53216 158.874589 
L 279.11232 158.874589 
L 281.00736 155.049995 
L 282.9024 155.049995 
L 284.79744 152.856477 
L 288.58752 152.856477 
L 290.48256 150.66296 
L 292.3776 149.031883 
L 294.27264 149.031883 
L 296.16768 147.400806 
L 301.8528 140.820255 
L 305.64288 140.820255 
L 307.53792 139.189178 
L 311.328 139.189178 
L 313.22304 135.364584 
L 317.01312 135.364584 
L 318.90816 133.171066 
L 328.38336 133.171066 
L 330.2784 130.977549 
L 332.17344 126.590515 
L 334.06848 122.76592 
L 335.96352 119.503767 
L 337.85856 119.503767 
L 339.7536 117.310249 
L 341.64864 117.310249 
L 343.54368 113.485655 
L 354.91392 113.485655 
L 356.80896 111.292138 
L 366.28416 111.292138 
L 368.1792 109.098621 
L 371.96928 109.098621 
L 373.86432 106.905103 
L 379.54944 106.905103 
L 381.44448 104.711586 
L 394.70976 104.711586 
L 396.6048 102.518069 
L 407.97504 102.518069 
L 409.87008 98.131034 
L 411.76512 98.131034 
L 413.66016 95.937517 
L 461.03616 95.937517 
L 462.9312 93.744 
L 642.96 93.744 
L 642.96 93.744 
" clip-path="url(#p90d639faa4)" style="fill: none; stroke-dasharray: 1.35,2.2275; stroke-dashoffset: 0; stroke: #7d8a92; stroke-width: 1.35"/>
   </g>
   <g id="line2d_31">
    <path d="M 74.448 348.192 
L 131.2992 348.192 
L 133.19424 345.998483 
L 136.98432 345.998483 
L 138.87936 343.804966 
L 155.93472 343.804966 
L 157.82976 341.611448 
L 161.61984 341.611448 
L 163.51488 337.224414 
L 165.40992 335.030897 
L 172.99008 335.030897 
L 176.78016 330.643862 
L 178.6752 329.012785 
L 180.57024 326.819268 
L 190.04544 326.819268 
L 191.94048 322.432233 
L 193.83552 320.238716 
L 197.6256 320.238716 
L 199.52064 315.851682 
L 201.41568 313.658164 
L 210.89088 313.658164 
L 214.68096 309.27113 
L 216.576 309.27113 
L 218.47104 304.884095 
L 220.36608 302.690578 
L 222.26112 301.059501 
L 224.15616 297.234907 
L 226.0512 297.234907 
L 227.94624 293.410313 
L 229.84128 286.829761 
L 233.63136 286.829761 
L 235.5264 280.24921 
L 239.31648 275.862175 
L 241.21152 275.862175 
L 243.10656 273.668658 
L 246.89664 273.668658 
L 248.79168 269.281623 
L 250.68672 269.281623 
L 252.58176 267.088106 
L 254.4768 262.701072 
L 262.05696 262.701072 
L 263.952 260.507554 
L 265.84704 260.507554 
L 267.74208 258.314037 
L 271.53216 258.314037 
L 273.4272 256.68296 
L 277.21728 252.295926 
L 279.11232 248.471332 
L 281.00736 246.277814 
L 282.9024 240.822143 
L 284.79744 237.559989 
L 286.69248 233.735395 
L 288.58752 233.735395 
L 290.48256 231.541878 
L 294.27264 228.279724 
L 296.16768 226.086207 
L 298.06272 226.086207 
L 299.95776 223.89269 
L 301.8528 222.261613 
L 303.74784 220.068095 
L 305.64288 220.068095 
L 307.53792 216.243501 
L 309.43296 211.856467 
L 311.328 209.66295 
L 313.22304 208.031873 
L 315.11808 204.207279 
L 317.01312 200.945125 
L 318.90816 198.751607 
L 320.8032 198.751607 
L 322.69824 197.120531 
L 326.48832 197.120531 
L 328.38336 193.858377 
L 330.2784 190.033782 
L 332.17344 190.033782 
L 335.96352 186.771629 
L 337.85856 186.771629 
L 339.7536 185.140552 
L 341.64864 185.140552 
L 343.54368 183.509475 
L 345.43872 183.509475 
L 347.33376 181.878398 
L 349.2288 181.878398 
L 351.12384 178.616244 
L 354.91392 178.616244 
L 356.80896 176.985167 
L 358.704 173.160573 
L 360.59904 171.529496 
L 368.1792 171.529496 
L 370.07424 169.898419 
L 371.96928 169.898419 
L 373.86432 167.704902 
L 375.75936 167.704902 
L 381.44448 162.811671 
L 387.1296 162.811671 
L 389.02464 161.180594 
L 390.91968 156.287363 
L 392.81472 156.287363 
L 394.70976 154.656286 
L 396.6048 149.763056 
L 398.49984 149.763056 
L 400.39488 148.131979 
L 402.28992 144.869825 
L 404.18496 139.414154 
L 411.76512 139.414154 
L 413.66016 137.783077 
L 415.5552 137.783077 
L 417.45024 134.520923 
L 426.92544 134.520923 
L 430.71552 131.258769 
L 438.29568 131.258769 
L 440.19072 126.365538 
L 443.9808 126.365538 
L 445.87584 124.734462 
L 447.77088 124.734462 
L 449.66592 123.103385 
L 453.456 123.103385 
L 455.35104 121.472308 
L 457.24608 121.472308 
L 459.14112 119.841231 
L 461.03616 119.841231 
L 468.61632 113.316923 
L 470.51136 113.316923 
L 474.30144 110.054769 
L 481.8816 110.054769 
L 485.67168 106.792615 
L 493.25184 106.792615 
L 495.14688 105.161538 
L 510.3072 105.161538 
L 512.20224 103.530462 
L 534.94272 103.530462 
L 536.83776 101.899385 
L 542.52288 101.899385 
L 544.41792 100.268308 
L 559.57824 100.268308 
L 561.47328 98.637231 
L 565.26336 98.637231 
L 569.05344 95.375077 
L 570.94848 95.375077 
L 572.84352 93.744 
L 642.96 93.744 
L 642.96 93.744 
" clip-path="url(#p90d639faa4)" style="fill: none; stroke-dasharray: 8.64,2.16,1.35,2.16; stroke-dashoffset: 0; stroke: #d0526a; stroke-width: 1.35"/>
   </g>
   <g id="line2d_32">
    <path d="M 74.448 348.192 
L 89.60832 348.192 
L 91.50336 345.998483 
L 110.45376 345.998483 
L 112.3488 343.804966 
L 114.24384 343.804966 
L 116.13888 341.611448 
L 121.824 341.611448 
L 123.71904 339.417931 
L 125.61408 339.417931 
L 127.50912 337.224414 
L 129.40416 337.224414 
L 131.2992 335.030897 
L 133.19424 335.030897 
L 135.08928 332.837379 
L 138.87936 332.837379 
L 140.7744 326.256828 
L 144.56448 326.256828 
L 146.45952 324.06331 
L 148.35456 322.432233 
L 152.14464 318.045199 
L 161.61984 318.045199 
L 165.40992 313.658164 
L 171.09504 313.658164 
L 172.99008 307.640053 
L 174.88512 306.008976 
L 176.78016 306.008976 
L 178.6752 304.377899 
L 180.57024 302.184382 
L 182.46528 295.60383 
L 184.36032 293.410313 
L 186.25536 293.410313 
L 190.04544 289.023279 
L 193.83552 289.023279 
L 197.6256 284.636244 
L 199.52064 280.24921 
L 201.41568 278.055692 
L 203.31072 278.055692 
L 205.20576 275.862175 
L 210.89088 275.862175 
L 212.78592 273.668658 
L 214.68096 269.281623 
L 216.576 269.281623 
L 218.47104 264.894589 
L 220.36608 264.894589 
L 222.26112 261.069995 
L 224.15616 258.876477 
L 227.94624 258.876477 
L 229.84128 256.68296 
L 231.73632 252.858366 
L 233.63136 252.858366 
L 235.5264 249.596212 
L 237.42144 245.771618 
L 239.31648 243.578101 
L 241.21152 238.12243 
L 243.10656 238.12243 
L 245.0016 236.491353 
L 246.89664 236.491353 
L 248.79168 234.297836 
L 252.58176 234.297836 
L 254.4768 232.666759 
L 256.37184 232.666759 
L 258.26688 228.842164 
L 260.16192 224.45513 
L 262.05696 218.999459 
L 263.952 216.805942 
L 265.84704 210.78783 
L 267.74208 206.963236 
L 271.53216 206.963236 
L 275.32224 203.701082 
L 277.21728 203.701082 
L 279.11232 202.070005 
L 281.00736 199.876488 
L 282.9024 196.614334 
L 284.79744 194.420817 
L 288.58752 194.420817 
L 290.48256 192.2273 
L 292.3776 188.402706 
L 296.16768 188.402706 
L 298.06272 185.140552 
L 301.8528 185.140552 
L 303.74784 183.509475 
L 305.64288 180.247321 
L 307.53792 180.247321 
L 309.43296 176.985167 
L 313.22304 176.985167 
L 315.11808 173.160573 
L 318.90816 173.160573 
L 320.8032 171.529496 
L 326.48832 171.529496 
L 328.38336 169.898419 
L 330.2784 169.898419 
L 332.17344 167.704902 
L 335.96352 167.704902 
L 341.64864 162.811671 
L 343.54368 162.811671 
L 345.43872 159.549517 
L 349.2288 159.549517 
L 353.01888 156.287363 
L 354.91392 156.287363 
L 358.704 149.763056 
L 360.59904 148.131979 
L 364.38912 141.607671 
L 370.07424 141.607671 
L 371.96928 139.414154 
L 373.86432 137.783077 
L 379.54944 137.783077 
L 383.33952 134.520923 
L 390.91968 134.520923 
L 394.70976 131.258769 
L 400.39488 131.258769 
L 402.28992 129.627692 
L 404.18496 126.365538 
L 409.87008 126.365538 
L 413.66016 123.103385 
L 419.34528 123.103385 
L 421.24032 119.841231 
L 425.0304 119.841231 
L 430.71552 114.948 
L 432.61056 114.948 
L 434.5056 113.316923 
L 436.40064 113.316923 
L 440.19072 110.054769 
L 449.66592 110.054769 
L 451.56096 106.792615 
L 457.24608 106.792615 
L 459.14112 105.161538 
L 481.8816 105.161538 
L 483.77664 103.530462 
L 508.41216 103.530462 
L 512.20224 100.268308 
L 521.67744 100.268308 
L 523.57248 98.637231 
L 533.04768 98.637231 
L 536.83776 95.375077 
L 542.52288 95.375077 
L 544.41792 93.744 
L 642.96 93.744 
L 642.96 93.744 
" clip-path="url(#p90d639faa4)" style="fill: none; stroke-dasharray: 6.75,2.7,1.35,2.7; stroke-dashoffset: 0; stroke: #2f8f84; stroke-width: 1.35"/>
   </g>
   <g id="patch_4">
    <path d="M 74.448 348.192 
L 74.448 93.744 
" style="fill: none; stroke: #000000; stroke-width: 0.8; stroke-linejoin: miter; stroke-linecap: square"/>
   </g>
   <g id="patch_5">
    <path d="M 74.448 348.192 
L 642.96 348.192 
" style="fill: none; stroke: #000000; stroke-width: 0.8; stroke-linejoin: miter; stroke-linecap: square"/>
   </g>
  </g>
  <g id="text_16">
   <text style="font: 18px 'DejaVu Sans', 'Bitstream Vera Sans', 'Computer Modern Sans Serif', 'Lucida Grande', 'Verdana', 'Geneva', 'Lucid', 'Arial', 'Helvetica', 'Avant Garde', sans-serif; text-anchor: start" x="74.448" y="38.229188" transform="rotate(-0 74.448 38.229188)">QD-OLED → QDEF LCD</text>
  </g>
  <g id="text_17">
   <text style="fill: #66747c; font: 10px 'DejaVu Sans', 'Bitstream Vera Sans', 'Computer Modern Sans Serif', 'Lucida Grande', 'Verdana', 'Geneva', 'Lucid', 'Arial', 'Helvetica', 'Avant Garde', sans-serif; text-anchor: start" x="74.448" y="64.728" transform="rotate(-0 74.448 64.728)">LED-BH1</text>
  </g>
  <g id="legend_1">
   <g id="line2d_33">
    <path d="M 185.17875 404.151391 
L 194.27875 404.151391 
L 203.37875 404.151391 
" style="fill: none; stroke: #252525; stroke-width: 2.5; stroke-linecap: square"/>
   </g>
   <g id="text_18">
    <text style="font: 9.1px 'DejaVu Sans', 'Bitstream Vera Sans', 'Computer Modern Sans Serif', 'Lucida Grande', 'Verdana', 'Geneva', 'Lucid', 'Arial', 'Helvetica', 'Avant Garde', sans-serif; text-anchor: start" x="210.65875" y="407.336391" transform="rotate(-0 210.65875 407.336391)">Potera CMF</text>
   </g>
   <g id="line2d_34">
    <path d="M 185.17875 417.508484 
L 194.27875 417.508484 
L 203.37875 417.508484 
" style="fill: none; stroke: #3b83b4; stroke-width: 1.35; stroke-linecap: square"/>
   </g>
   <g id="text_19">
    <text style="font: 9.1px 'DejaVu Sans', 'Bitstream Vera Sans', 'Computer Modern Sans Serif', 'Lucida Grande', 'Verdana', 'Geneva', 'Lucid', 'Arial', 'Helvetica', 'Avant Garde', sans-serif; text-anchor: start" x="210.65875" y="420.693484" transform="rotate(-0 210.65875 420.693484)">CIE 2015 2°</text>
   </g>
   <g id="line2d_35">
    <path d="M 282.931234 404.151391 
L 292.031234 404.151391 
L 301.131234 404.151391 
" style="fill: none; stroke-dasharray: 4.995,2.16; stroke-dashoffset: 0; stroke: #c38a19; stroke-width: 1.35"/>
   </g>
   <g id="text_20">
    <text style="font: 9.1px 'DejaVu Sans', 'Bitstream Vera Sans', 'Computer Modern Sans Serif', 'Lucida Grande', 'Verdana', 'Geneva', 'Lucid', 'Arial', 'Helvetica', 'Avant Garde', sans-serif; text-anchor: start" x="308.411234" y="407.336391" transform="rotate(-0 308.411234 407.336391)">CIE 2015 10°</text>
   </g>
   <g id="line2d_36">
    <path d="M 282.931234 417.508484 
L 292.031234 417.508484 
L 301.131234 417.508484 
" style="fill: none; stroke-dasharray: 1.35,2.2275; stroke-dashoffset: 0; stroke: #7d8a92; stroke-width: 1.35"/>
   </g>
   <g id="text_21">
    <text style="font: 9.1px 'DejaVu Sans', 'Bitstream Vera Sans', 'Computer Modern Sans Serif', 'Lucida Grande', 'Verdana', 'Geneva', 'Lucid', 'Arial', 'Helvetica', 'Avant Garde', sans-serif; text-anchor: start" x="308.411234" y="420.693484" transform="rotate(-0 308.411234 420.693484)">CIE 1964 10°</text>
   </g>
   <g id="line2d_37">
    <path d="M 386.473594 404.151391 
L 395.573594 404.151391 
L 404.673594 404.151391 
" style="fill: none; stroke-dasharray: 8.64,2.16,1.35,2.16; stroke-dashoffset: 0; stroke: #d0526a; stroke-width: 1.35"/>
   </g>
   <g id="text_22">
    <text style="font: 9.1px 'DejaVu Sans', 'Bitstream Vera Sans', 'Computer Modern Sans Serif', 'Lucida Grande', 'Verdana', 'Geneva', 'Lucid', 'Arial', 'Helvetica', 'Avant Garde', sans-serif; text-anchor: start" x="411.953594" y="407.336391" transform="rotate(-0 411.953594 407.336391)">CIE 1931 2°</text>
   </g>
   <g id="line2d_38">
    <path d="M 386.473594 417.508484 
L 395.573594 417.508484 
L 404.673594 417.508484 
" style="fill: none; stroke-dasharray: 6.75,2.7,1.35,2.7; stroke-dashoffset: 0; stroke: #2f8f84; stroke-width: 1.35"/>
   </g>
   <g id="text_23">
    <text style="font: 9.1px 'DejaVu Sans', 'Bitstream Vera Sans', 'Computer Modern Sans Serif', 'Lucida Grande', 'Verdana', 'Geneva', 'Lucid', 'Arial', 'Helvetica', 'Avant Garde', sans-serif; text-anchor: start" x="411.953594" y="420.693484" transform="rotate(-0 411.953594 420.693484)">Judd–Vos 1978 2°</text>
   </g>
  </g>
 </g>
 <defs>
  <clipPath id="p90d639faa4">
   <rect x="74.448" y="93.744" width="568.512" height="254.448"/>
  </clipPath>
 </defs>
</svg>
