<?xml version="1.0" encoding="utf-8" standalone="no"?>
<!DOCTYPE svg PUBLIC "-//W3C//DTD SVG 1.1//EN"
  "http://www.w3.org/Graphics/SVG/1.1/DTD/svg11.dtd">
<svg xmlns:xlink="http://www.w3.org/1999/xlink" width="676.8pt" height="446.4pt" viewBox="0 0 676.8 446.4" xmlns="http://www.w3.org/2000/svg" version="1.1">
 <metadata>
  <rdf:RDF xmlns:dc="http://purl.org/dc/elements/1.1/" xmlns:cc="http://creativecommons.org/ns#" xmlns:rdf="http://www.w3.org/1999/02/22-rdf-syntax-ns#">
   <cc:Work>
    <dc:type rdf:resource="http://purl.org/dc/dcmitype/StillImage"/>
    <dc:date>2026-07-20T06:42:01.354578</dc:date>
    <dc:format>image/svg+xml</dc:format>
    <dc:creator>
     <cc:Agent>
      <dc:title>Matplotlib v3.9.4, https://matplotlib.org/</dc:title>
     </cc:Agent>
    </dc:creator>
   </cc:Work>
  </rdf:RDF>
 </metadata>
 <defs>
  <style type="text/css">*{stroke-linejoin: round; stroke-linecap: butt}</style>
 </defs>
 <g id="figure_1">
  <g id="patch_1">
   <path d="M 0 446.4 
L 676.8 446.4 
L 676.8 0 
L 0 0 
z
" style="fill: #ffffff"/>
  </g>
  <g id="axes_1">
   <g id="patch_2">
    <path d="M 74.448 348.192 
L 642.96 348.192 
L 642.96 93.744 
L 74.448 93.744 
z
" style="fill: #ffffff"/>
   </g>
   <g id="patch_3">
    <path d="M 169.2 348.192 
L 358.704 348.192 
L 358.704 93.744 
L 169.2 93.744 
z
" clip-path="url(#p395ca91a68)" style="fill: #e7f0ea; opacity: 0.58; stroke: #e7f0ea; stroke-linejoin: miter"/>
   </g>
   <g id="matplotlib.axis_1">
    <g id="xtick_1">
     <g id="line2d_1">
      <path d="M 74.448 348.192 
L 74.448 93.744 
" clip-path="url(#p395ca91a68)" style="fill: none; stroke: #dfe5e8; stroke-width: 0.65; stroke-linecap: square"/>
     </g>
     <g id="line2d_2">
      <defs>
       <path id="m4a7840dc30" d="M 0 0 
L 0 3.5 
" style="stroke: #000000; stroke-width: 0.8"/>
      </defs>
      <g>
       <use xlink:href="#m4a7840dc30" x="74.448" y="348.192" style="stroke: #000000; stroke-width: 0.8"/>
      </g>
     </g>
     <g id="text_1">
      <text style="font: 10px 'DejaVu Sans', 'Bitstream Vera Sans', 'Computer Modern Sans Serif', 'Lucida Grande', 'Verdana', 'Geneva', 'Lucid', 'Arial', 'Helvetica', 'Avant Garde', sans-serif; text-anchor: middle" x="74.448" y="362.790438" transform="rotate(-0 74.448 362.790438)">0</text>
     </g>
    </g>
    <g id="xtick_2">
     <g id="line2d_3">
      <path d="M 169.2 348.192 
L 169.2 93.744 
" clip-path="url(#p395ca91a68)" style="fill: none; stroke: #dfe5e8; stroke-width: 0.65; stroke-linecap: square"/>
     </g>
     <g id="line2d_4">
      <g>
       <use xlink:href="#m4a7840dc30" x="169.2" y="348.192" style="stroke: #000000; stroke-width: 0.8"/>
      </g>
     </g>
     <g id="text_2">
      <text style="font: 10px 'DejaVu Sans', 'Bitstream Vera Sans', 'Computer Modern Sans Serif', 'Lucida Grande', 'Verdana', 'Geneva', 'Lucid', 'Arial', 'Helvetica', 'Avant Garde', sans-serif; text-anchor: middle" x="169.2" y="362.790438" transform="rotate(-0 169.2 362.790438)">1</text>
     </g>
    </g>
    <g id="xtick_3">
     <g id="line2d_5">
      <path d="M 263.952 348.192 
L 263.952 93.744 
" clip-path="url(#p395ca91a68)" style="fill: none; stroke: #dfe5e8; stroke-width: 0.65; stroke-linecap: square"/>
     </g>
     <g id="line2d_6">
      <g>
       <use xlink:href="#m4a7840dc30" x="263.952" y="348.192" style="stroke: #000000; stroke-width: 0.8"/>
      </g>
     </g>
     <g id="text_3">
      <text style="font: 10px 'DejaVu Sans', 'Bitstream Vera Sans', 'Computer Modern Sans Serif', 'Lucida Grande', 'Verdana', 'Geneva', 'Lucid', 'Arial', 'Helvetica', 'Avant Garde', sans-serif; text-anchor: middle" x="263.952" y="362.790438" transform="rotate(-0 263.952 362.790438)">2</text>
     </g>
    </g>
    <g id="xtick_4">
     <g id="line2d_7">
      <path d="M 358.704 348.192 
L 358.704 93.744 
" clip-path="url(#p395ca91a68)" style="fill: none; stroke: #dfe5e8; stroke-width: 0.65; stroke-linecap: square"/>
     </g>
     <g id="line2d_8">
      <g>
       <use xlink:href="#m4a7840dc30" x="358.704" y="348.192" style="stroke: #000000; stroke-width: 0.8"/>
      </g>
     </g>
     <g id="text_4">
      <text style="font: 10px 'DejaVu Sans', 'Bitstream Vera Sans', 'Computer Modern Sans Serif', 'Lucida Grande', 'Verdana', 'Geneva', 'Lucid', 'Arial', 'Helvetica', 'Avant Garde', sans-serif; text-anchor: middle" x="358.704" y="362.790438" transform="rotate(-0 358.704 362.790438)">3</text>
     </g>
    </g>
    <g id="xtick_5">
     <g id="line2d_9">
      <path d="M 453.456 348.192 
L 453.456 93.744 
" clip-path="url(#p395ca91a68)" style="fill: none; stroke: #dfe5e8; stroke-width: 0.65; stroke-linecap: square"/>
     </g>
     <g id="line2d_10">
      <g>
       <use xlink:href="#m4a7840dc30" x="453.456" y="348.192" style="stroke: #000000; stroke-width: 0.8"/>
      </g>
     </g>
     <g id="text_5">
      <text style="font: 10px 'DejaVu Sans', 'Bitstream Vera Sans', 'Computer Modern Sans Serif', 'Lucida Grande', 'Verdana', 'Geneva', 'Lucid', 'Arial', 'Helvetica', 'Avant Garde', sans-serif; text-anchor: middle" x="453.456" y="362.790438" transform="rotate(-0 453.456 362.790438)">4</text>
     </g>
    </g>
    <g id="xtick_6">
     <g id="line2d_11">
      <path d="M 548.208 348.192 
L 548.208 93.744 
" clip-path="url(#p395ca91a68)" style="fill: none; stroke: #dfe5e8; stroke-width: 0.65; stroke-linecap: square"/>
     </g>
     <g id="line2d_12">
      <g>
       <use xlink:href="#m4a7840dc30" x="548.208" y="348.192" style="stroke: #000000; stroke-width: 0.8"/>
      </g>
     </g>
     <g id="text_6">
      <text style="font: 10px 'DejaVu Sans', 'Bitstream Vera Sans', 'Computer Modern Sans Serif', 'Lucida Grande', 'Verdana', 'Geneva', 'Lucid', 'Arial', 'Helvetica', 'Avant Garde', sans-serif; text-anchor: middle" x="548.208" y="362.790438" transform="rotate(-0 548.208 362.790438)">5</text>
     </g>
    </g>
    <g id="xtick_7">
     <g id="line2d_13">
      <path d="M 642.96 348.192 
L 642.96 93.744 
" clip-path="url(#p395ca91a68)" style="fill: none; stroke: #dfe5e8; stroke-width: 0.65; stroke-linecap: square"/>
     </g>
     <g id="line2d_14">
      <g>
       <use xlink:href="#m4a7840dc30" x="642.96" y="348.192" style="stroke: #000000; stroke-width: 0.8"/>
      </g>
     </g>
     <g id="text_7">
      <text style="font: 10px 'DejaVu Sans', 'Bitstream Vera Sans', 'Computer Modern Sans Serif', 'Lucida Grande', 'Verdana', 'Geneva', 'Lucid', 'Arial', 'Helvetica', 'Avant Garde', sans-serif; text-anchor: middle" x="642.96" y="362.790438" transform="rotate(-0 642.96 362.790438)">6</text>
     </g>
    </g>
    <g id="text_8">
     <text style="font: 10px 'DejaVu Sans', 'Bitstream Vera Sans', 'Computer Modern Sans Serif', 'Lucida Grande', 'Verdana', 'Geneva', 'Lucid', 'Arial', 'Helvetica', 'Avant Garde', sans-serif; text-anchor: middle" x="358.704" y="376.468563" transform="rotate(-0 358.704 376.468563)">sUCS dE threshold</text>
    </g>
   </g>
   <g id="matplotlib.axis_2">
    <g id="ytick_1">
     <g id="line2d_15">
      <path d="M 74.448 348.192 
L 642.96 348.192 
" clip-path="url(#p395ca91a68)" style="fill: none; stroke: #dfe5e8; stroke-width: 0.65; stroke-linecap: square"/>
     </g>
     <g id="line2d_16">
      <defs>
       <path id="m39d130f73f" d="M 0 0 
L -3.5 0 
" style="stroke: #000000; stroke-width: 0.8"/>
      </defs>
      <g>
       <use xlink:href="#m39d130f73f" x="74.448" y="348.192" style="stroke: #000000; stroke-width: 0.8"/>
      </g>
     </g>
     <g id="text_9">
      <text style="font: 10px 'DejaVu Sans', 'Bitstream Vera Sans', 'Computer Modern Sans Serif', 'Lucida Grande', 'Verdana', 'Geneva', 'Lucid', 'Arial', 'Helvetica', 'Avant Garde', sans-serif; text-anchor: end" x="67.448" y="351.991219" transform="rotate(-0 67.448 351.991219)">0</text>
     </g>
    </g>
    <g id="ytick_2">
     <g id="line2d_17">
      <path d="M 74.448 297.3024 
L 642.96 297.3024 
" clip-path="url(#p395ca91a68)" style="fill: none; stroke: #dfe5e8; stroke-width: 0.65; stroke-linecap: square"/>
     </g>
     <g id="line2d_18">
      <g>
       <use xlink:href="#m39d130f73f" x="74.448" y="297.3024" style="stroke: #000000; stroke-width: 0.8"/>
      </g>
     </g>
     <g id="text_10">
      <text style="font: 10px 'DejaVu Sans', 'Bitstream Vera Sans', 'Computer Modern Sans Serif', 'Lucida Grande', 'Verdana', 'Geneva', 'Lucid', 'Arial', 'Helvetica', 'Avant Garde', sans-serif; text-anchor: end" x="67.448" y="301.101619" transform="rotate(-0 67.448 301.101619)">20</text>
     </g>
    </g>
    <g id="ytick_3">
     <g id="line2d_19">
      <path d="M 74.448 246.4128 
L 642.96 246.4128 
" clip-path="url(#p395ca91a68)" style="fill: none; stroke: #dfe5e8; stroke-width: 0.65; stroke-linecap: square"/>
     </g>
     <g id="line2d_20">
      <g>
       <use xlink:href="#m39d130f73f" x="74.448" y="246.4128" style="stroke: #000000; stroke-width: 0.8"/>
      </g>
     </g>
     <g id="text_11">
      <text style="font: 10px 'DejaVu Sans', 'Bitstream Vera Sans', 'Computer Modern Sans Serif', 'Lucida Grande', 'Verdana', 'Geneva', 'Lucid', 'Arial', 'Helvetica', 'Avant Garde', sans-serif; text-anchor: end" x="67.448" y="250.212019" transform="rotate(-0 67.448 250.212019)">40</text>
     </g>
    </g>
    <g id="ytick_4">
     <g id="line2d_21">
      <path d="M 74.448 195.5232 
L 642.96 195.5232 
" clip-path="url(#p395ca91a68)" style="fill: none; stroke: #dfe5e8; stroke-width: 0.65; stroke-linecap: square"/>
     </g>
     <g id="line2d_22">
      <g>
       <use xlink:href="#m39d130f73f" x="74.448" y="195.5232" style="stroke: #000000; stroke-width: 0.8"/>
      </g>
     </g>
     <g id="text_12">
      <text style="font: 10px 'DejaVu Sans', 'Bitstream Vera Sans', 'Computer Modern Sans Serif', 'Lucida Grande', 'Verdana', 'Geneva', 'Lucid', 'Arial', 'Helvetica', 'Avant Garde', sans-serif; text-anchor: end" x="67.448" y="199.322419" transform="rotate(-0 67.448 199.322419)">60</text>
     </g>
    </g>
    <g id="ytick_5">
     <g id="line2d_23">
      <path d="M 74.448 144.6336 
L 642.96 144.6336 
" clip-path="url(#p395ca91a68)" style="fill: none; stroke: #dfe5e8; stroke-width: 0.65; stroke-linecap: square"/>
     </g>
     <g id="line2d_24">
      <g>
       <use xlink:href="#m39d130f73f" x="74.448" y="144.6336" style="stroke: #000000; stroke-width: 0.8"/>
      </g>
     </g>
     <g id="text_13">
      <text style="font: 10px 'DejaVu Sans', 'Bitstream Vera Sans', 'Computer Modern Sans Serif', 'Lucida Grande', 'Verdana', 'Geneva', 'Lucid', 'Arial', 'Helvetica', 'Avant Garde', sans-serif; text-anchor: end" x="67.448" y="148.432819" transform="rotate(-0 67.448 148.432819)">80</text>
     </g>
    </g>
    <g id="ytick_6">
     <g id="line2d_25">
      <path d="M 74.448 93.744 
L 642.96 93.744 
" clip-path="url(#p395ca91a68)" style="fill: none; stroke: #dfe5e8; stroke-width: 0.65; stroke-linecap: square"/>
     </g>
     <g id="line2d_26">
      <g>
       <use xlink:href="#m39d130f73f" x="74.448" y="93.744" style="stroke: #000000; stroke-width: 0.8"/>
      </g>
     </g>
     <g id="text_14">
      <text style="font: 10px 'DejaVu Sans', 'Bitstream Vera Sans', 'Computer Modern Sans Serif', 'Lucida Grande', 'Verdana', 'Geneva', 'Lucid', 'Arial', 'Helvetica', 'Avant Garde', sans-serif; text-anchor: end" x="67.448" y="97.543219" transform="rotate(-0 67.448 97.543219)">100</text>
     </g>
    </g>
    <g id="text_15">
     <text style="font: 10px 'DejaVu Sans', 'Bitstream Vera Sans', 'Computer Modern Sans Serif', 'Lucida Grande', 'Verdana', 'Geneva', 'Lucid', 'Arial', 'Helvetica', 'Avant Garde', sans-serif; text-anchor: middle" x="42.280812" y="220.968" transform="rotate(-90 42.280812 220.968)">observers%</text>
    </g>
   </g>
   <g id="line2d_27">
    <path d="M 74.448 348.192 
L 83.9232 348.192 
L 85.81824 346.560923 
L 93.3984 346.560923 
L 95.29344 344.367406 
L 97.18848 344.367406 
L 99.08352 342.736329 
L 104.76864 336.155777 
L 106.66368 334.5247 
L 108.55872 334.5247 
L 110.45376 332.893623 
L 114.24384 332.893623 
L 116.13888 331.262546 
L 118.03392 329.069029 
L 119.92896 329.069029 
L 121.824 325.244435 
L 125.61408 325.244435 
L 127.50912 321.419841 
L 129.40416 315.96417 
L 131.2992 314.333093 
L 136.98432 314.333093 
L 138.87936 310.508499 
L 140.7744 310.508499 
L 144.56448 303.984191 
L 146.45952 300.159597 
L 148.35456 298.52852 
L 150.2496 294.703926 
L 152.14464 293.072849 
L 154.03968 293.072849 
L 155.93472 288.685814 
L 159.7248 285.42366 
L 161.61984 281.599066 
L 163.51488 276.705836 
L 165.40992 272.881241 
L 167.30496 266.86313 
L 169.2 266.86313 
L 171.09504 265.232053 
L 172.99008 261.969899 
L 174.88512 260.338822 
L 176.78016 260.338822 
L 178.6752 258.707745 
L 180.57024 253.814515 
L 184.36032 250.552361 
L 186.25536 243.465613 
L 188.1504 241.272095 
L 190.04544 233.622907 
L 191.94048 233.622907 
L 193.83552 230.360753 
L 195.73056 230.360753 
L 201.41568 225.467523 
L 203.31072 221.642928 
L 205.20576 221.642928 
L 208.99584 217.255894 
L 210.89088 217.255894 
L 212.78592 213.4313 
L 214.68096 213.4313 
L 216.576 211.237782 
L 218.47104 206.344552 
L 220.36608 206.344552 
L 222.26112 204.713475 
L 224.15616 200.888881 
L 226.0512 198.695363 
L 229.84128 198.695363 
L 237.42144 192.171056 
L 239.31648 189.977538 
L 243.10656 189.977538 
L 245.0016 188.346462 
L 246.89664 188.346462 
L 248.79168 183.453231 
L 256.37184 183.453231 
L 258.26688 181.822154 
L 260.16192 181.822154 
L 262.05696 179.628637 
L 263.952 175.804042 
L 265.84704 173.610525 
L 269.63712 173.610525 
L 273.4272 169.223491 
L 275.32224 167.592414 
L 279.11232 159.943225 
L 281.00736 159.943225 
L 282.9024 157.749708 
L 286.69248 157.749708 
L 288.58752 156.118631 
L 290.48256 153.925114 
L 292.3776 145.713485 
L 294.27264 141.326451 
L 303.74784 141.326451 
L 305.64288 136.939416 
L 309.43296 136.939416 
L 311.328 135.30834 
L 313.22304 135.30834 
L 315.11808 132.046186 
L 322.69824 132.046186 
L 324.59328 129.852668 
L 326.48832 129.852668 
L 328.38336 127.659151 
L 332.17344 127.659151 
L 334.06848 126.028074 
L 335.96352 123.834557 
L 337.85856 123.834557 
L 339.7536 120.009963 
L 341.64864 120.009963 
L 343.54368 116.185369 
L 345.43872 116.185369 
L 347.33376 113.991851 
L 356.80896 113.991851 
L 358.704 111.798334 
L 360.59904 110.167257 
L 364.38912 110.167257 
L 366.28416 107.97374 
L 370.07424 107.97374 
L 371.96928 106.342663 
L 377.6544 106.342663 
L 379.54944 104.711586 
L 381.44448 102.518069 
L 389.02464 102.518069 
L 390.91968 100.324552 
L 402.28992 100.324552 
L 404.18496 98.131034 
L 434.5056 98.131034 
L 436.40064 95.937517 
L 483.77664 95.937517 
L 485.67168 93.744 
L 642.96 93.744 
L 642.96 93.744 
" clip-path="url(#p395ca91a68)" style="fill: none; stroke: #252525; stroke-width: 2.5; stroke-linecap: square"/>
   </g>
   <g id="line2d_28">
    <path d="M 74.448 348.192 
L 99.08352 348.192 
L 102.8736 343.804966 
L 112.3488 343.804966 
L 114.24384 341.611448 
L 118.03392 341.611448 
L 121.824 337.224414 
L 125.61408 337.224414 
L 127.50912 335.030897 
L 129.40416 335.030897 
L 133.19424 330.643862 
L 135.08928 330.643862 
L 136.98432 326.256828 
L 140.7744 321.869793 
L 146.45952 321.869793 
L 148.35456 320.238716 
L 152.14464 315.851682 
L 154.03968 315.851682 
L 155.93472 313.658164 
L 157.82976 313.658164 
L 159.7248 311.464647 
L 161.61984 309.83357 
L 163.51488 309.83357 
L 167.30496 305.446536 
L 171.09504 305.446536 
L 172.99008 301.059501 
L 174.88512 298.865984 
L 178.6752 298.865984 
L 180.57024 296.672467 
L 182.46528 289.023279 
L 184.36032 289.023279 
L 186.25536 284.636244 
L 193.83552 284.636244 
L 195.73056 278.618133 
L 199.52064 274.231098 
L 201.41568 274.231098 
L 203.31072 269.844064 
L 205.20576 267.650546 
L 207.1008 263.263512 
L 208.99584 263.263512 
L 210.89088 258.876477 
L 212.78592 256.68296 
L 214.68096 256.68296 
L 216.576 250.664849 
L 224.15616 250.664849 
L 226.0512 248.471332 
L 227.94624 246.840255 
L 229.84128 242.45322 
L 231.73632 237.559989 
L 233.63136 237.559989 
L 235.5264 235.366472 
L 239.31648 232.104318 
L 241.21152 232.104318 
L 243.10656 225.523767 
L 245.0016 222.261613 
L 254.4768 222.261613 
L 256.37184 220.068095 
L 258.26688 214.049984 
L 262.05696 214.049984 
L 263.952 211.856467 
L 265.84704 211.856467 
L 267.74208 209.66295 
L 271.53216 206.400796 
L 273.4272 206.400796 
L 277.21728 202.013761 
L 281.00736 202.013761 
L 282.9024 199.820244 
L 284.79744 198.189167 
L 290.48256 198.189167 
L 292.3776 196.55809 
L 299.95776 196.55809 
L 303.74784 193.295936 
L 305.64288 193.295936 
L 307.53792 191.664859 
L 309.43296 191.664859 
L 311.328 190.033782 
L 313.22304 186.209188 
L 315.11808 184.578111 
L 317.01312 184.578111 
L 318.90816 179.684881 
L 320.8032 178.053804 
L 322.69824 174.79165 
L 324.59328 174.79165 
L 326.48832 171.529496 
L 328.38336 169.898419 
L 335.96352 169.898419 
L 337.85856 168.267342 
L 339.7536 166.073825 
L 341.64864 162.811671 
L 349.2288 162.811671 
L 351.12384 161.180594 
L 353.01888 157.91844 
L 354.91392 156.287363 
L 358.704 149.763056 
L 360.59904 148.131979 
L 364.38912 148.131979 
L 366.28416 146.500902 
L 368.1792 143.238748 
L 370.07424 141.607671 
L 373.86432 141.607671 
L 375.75936 139.976594 
L 389.02464 139.976594 
L 390.91968 136.71444 
L 392.81472 135.083363 
L 394.70976 131.82121 
L 396.6048 131.82121 
L 398.49984 129.627692 
L 404.18496 129.627692 
L 406.08 127.996615 
L 407.97504 124.734462 
L 415.5552 124.734462 
L 417.45024 121.472308 
L 419.34528 121.472308 
L 421.24032 119.841231 
L 425.0304 119.841231 
L 426.92544 118.210154 
L 434.5056 118.210154 
L 436.40064 116.579077 
L 443.9808 116.579077 
L 447.77088 113.316923 
L 449.66592 113.316923 
L 451.56096 111.685846 
L 453.456 111.685846 
L 455.35104 110.054769 
L 461.03616 110.054769 
L 464.82624 106.792615 
L 466.72128 106.792615 
L 468.61632 105.161538 
L 483.77664 105.161538 
L 485.67168 103.530462 
L 497.04192 103.530462 
L 498.93696 101.899385 
L 502.72704 101.899385 
L 504.62208 98.637231 
L 529.2576 98.637231 
L 531.15264 97.006154 
L 534.94272 97.006154 
L 536.83776 95.375077 
L 551.99808 95.375077 
L 553.89312 93.744 
L 642.96 93.744 
L 642.96 93.744 
" clip-path="url(#p395ca91a68)" style="fill: none; stroke: #3b83b4; stroke-width: 1.35; stroke-linecap: square"/>
   </g>
   <g id="line2d_29">
    <path d="M 74.448 348.192 
L 87.71328 348.192 
L 89.60832 346.560923 
L 91.50336 346.560923 
L 93.3984 344.929846 
L 106.66368 344.929846 
L 108.55872 336.774462 
L 110.45376 336.774462 
L 112.3488 335.143385 
L 114.24384 335.143385 
L 116.13888 331.881231 
L 118.03392 326.988 
L 119.92896 326.988 
L 121.824 325.356923 
L 123.71904 321.532329 
L 125.61408 319.901252 
L 129.40416 319.901252 
L 131.2992 314.445581 
L 135.08928 311.183427 
L 136.98432 311.183427 
L 138.87936 307.921273 
L 140.7744 307.921273 
L 144.56448 304.659119 
L 146.45952 304.659119 
L 152.14464 299.765889 
L 154.03968 296.503735 
L 155.93472 294.310218 
L 157.82976 294.310218 
L 159.7248 286.661029 
L 161.61984 280.642918 
L 163.51488 276.818324 
L 167.30496 273.55617 
L 169.2 273.55617 
L 171.09504 265.906981 
L 172.99008 264.275905 
L 176.78016 257.751597 
L 180.57024 254.489443 
L 182.46528 249.596212 
L 184.36032 247.402695 
L 186.25536 245.771618 
L 190.04544 239.24731 
L 191.94048 237.616233 
L 193.83552 237.616233 
L 195.73056 232.160562 
L 197.6256 232.160562 
L 199.52064 230.529485 
L 201.41568 230.529485 
L 203.31072 228.335968 
L 205.20576 225.073814 
L 207.1008 220.68678 
L 208.99584 219.055703 
L 212.78592 219.055703 
L 214.68096 215.793549 
L 216.576 214.162472 
L 218.47104 214.162472 
L 220.36608 211.968955 
L 224.15616 208.706801 
L 226.0512 208.706801 
L 229.84128 204.319767 
L 231.73632 204.319767 
L 233.63136 202.126249 
L 235.5264 202.126249 
L 237.42144 199.932732 
L 241.21152 199.932732 
L 245.0016 193.408424 
L 250.68672 193.408424 
L 254.4768 190.146271 
L 256.37184 187.952753 
L 258.26688 187.952753 
L 260.16192 185.759236 
L 262.05696 185.759236 
L 263.952 183.565719 
L 265.84704 180.303565 
L 269.63712 180.303565 
L 271.53216 176.478971 
L 275.32224 176.478971 
L 277.21728 174.285454 
L 279.11232 174.285454 
L 281.00736 172.091936 
L 282.9024 172.091936 
L 284.79744 170.460859 
L 286.69248 170.460859 
L 288.58752 166.636265 
L 296.16768 166.636265 
L 298.06272 165.005188 
L 299.95776 161.180594 
L 305.64288 161.180594 
L 307.53792 158.987077 
L 311.328 158.987077 
L 313.22304 157.356 
L 320.8032 157.356 
L 322.69824 155.162483 
L 328.38336 155.162483 
L 330.2784 152.968966 
L 335.96352 152.968966 
L 343.54368 144.194897 
L 347.33376 144.194897 
L 349.2288 139.807862 
L 353.01888 139.807862 
L 356.80896 135.420828 
L 358.704 135.420828 
L 362.49408 131.033793 
L 364.38912 126.646759 
L 366.28416 124.453241 
L 371.96928 124.453241 
L 373.86432 122.259724 
L 387.1296 122.259724 
L 389.02464 120.066207 
L 398.49984 120.066207 
L 400.39488 117.87269 
L 406.08 117.87269 
L 407.97504 115.679172 
L 409.87008 115.679172 
L 413.66016 111.292138 
L 419.34528 111.292138 
L 421.24032 109.098621 
L 425.0304 109.098621 
L 426.92544 106.905103 
L 434.5056 106.905103 
L 436.40064 104.711586 
L 449.66592 104.711586 
L 451.56096 102.518069 
L 462.9312 102.518069 
L 464.82624 100.324552 
L 474.30144 100.324552 
L 476.19648 98.131034 
L 506.51712 98.131034 
L 508.41216 95.937517 
L 553.89312 95.937517 
L 555.78816 93.744 
L 642.96 93.744 
L 642.96 93.744 
" clip-path="url(#p395ca91a68)" style="fill: none; stroke-dasharray: 4.995,2.16; stroke-dashoffset: 0; stroke: #c38a19; stroke-width: 1.35"/>
   </g>
   <g id="line2d_30">
    <path d="M 74.448 348.192 
L 93.3984 348.192 
L 95.29344 345.998483 
L 110.45376 345.998483 
L 112.3488 342.173889 
L 114.24384 340.542812 
L 119.92896 340.542812 
L 121.824 338.911735 
L 131.2992 338.911735 
L 133.19424 337.280658 
L 136.98432 332.893623 
L 138.87936 332.893623 
L 140.7744 330.700106 
L 144.56448 330.700106 
L 148.35456 326.313072 
L 150.2496 324.681995 
L 152.14464 322.488477 
L 154.03968 322.488477 
L 155.93472 320.857401 
L 157.82976 316.470366 
L 159.7248 312.645772 
L 161.61984 312.645772 
L 163.51488 309.383618 
L 165.40992 309.383618 
L 172.99008 302.85931 
L 174.88512 300.665793 
L 176.78016 300.665793 
L 178.6752 298.472276 
L 180.57024 296.841199 
L 182.46528 296.841199 
L 186.25536 290.316891 
L 188.1504 290.316891 
L 190.04544 287.054737 
L 191.94048 283.230143 
L 193.83552 281.599066 
L 197.6256 275.074759 
L 199.52064 271.250164 
L 201.41568 267.988011 
L 203.31072 263.09478 
L 207.1008 258.707745 
L 212.78592 253.814515 
L 214.68096 253.814515 
L 216.576 250.552361 
L 218.47104 248.358844 
L 220.36608 243.465613 
L 222.26112 241.272095 
L 224.15616 236.378865 
L 226.0512 232.554271 
L 227.94624 227.098599 
L 229.84128 225.467523 
L 231.73632 225.467523 
L 233.63136 223.836446 
L 235.5264 220.011851 
L 237.42144 220.011851 
L 239.31648 215.118621 
L 241.21152 209.100509 
L 243.10656 203.644838 
L 245.0016 201.451321 
L 248.79168 201.451321 
L 250.68672 198.189167 
L 252.58176 194.364573 
L 254.4768 194.364573 
L 256.37184 192.733496 
L 260.16192 192.733496 
L 262.05696 191.102419 
L 263.952 191.102419 
L 265.84704 186.715385 
L 267.74208 183.453231 
L 269.63712 181.822154 
L 271.53216 181.822154 
L 273.4272 175.804042 
L 275.32224 175.804042 
L 277.21728 174.172966 
L 279.11232 170.910812 
L 282.9024 170.910812 
L 284.79744 169.279735 
L 286.69248 167.086218 
L 288.58752 167.086218 
L 290.48256 163.261623 
L 292.3776 157.243512 
L 294.27264 155.612435 
L 298.06272 155.612435 
L 299.95776 153.418918 
L 305.64288 153.418918 
L 307.53792 149.031883 
L 313.22304 142.451332 
L 315.11808 142.451332 
L 317.01312 140.820255 
L 318.90816 140.820255 
L 320.8032 137.558101 
L 326.48832 130.977549 
L 332.17344 130.977549 
L 334.06848 127.152955 
L 351.12384 127.152955 
L 353.01888 125.521878 
L 354.91392 118.941326 
L 356.80896 117.310249 
L 362.49408 117.310249 
L 364.38912 112.923215 
L 373.86432 112.923215 
L 375.75936 110.729698 
L 379.54944 110.729698 
L 383.33952 106.342663 
L 387.1296 106.342663 
L 389.02464 104.711586 
L 396.6048 104.711586 
L 398.49984 102.518069 
L 413.66016 102.518069 
L 415.5552 100.324552 
L 425.0304 100.324552 
L 426.92544 98.131034 
L 451.56096 98.131034 
L 453.456 95.937517 
L 495.14688 95.937517 
L 497.04192 93.744 
L 642.96 93.744 
L 642.96 93.744 
" clip-path="url(#p395ca91a68)" style="fill: none; stroke-dasharray: 1.35,2.2275; stroke-dashoffset: 0; stroke: #7d8a92; stroke-width: 1.35"/>
   </g>
   <g id="line2d_31">
    <path d="M 74.448 348.192 
L 144.56448 348.192 
L 146.45952 345.998483 
L 165.40992 345.998483 
L 167.30496 341.611448 
L 182.46528 341.611448 
L 184.36032 339.417931 
L 188.1504 339.417931 
L 190.04544 337.224414 
L 201.41568 337.224414 
L 203.31072 335.030897 
L 205.20576 330.643862 
L 207.1008 326.819268 
L 210.89088 326.819268 
L 212.78592 320.238716 
L 220.36608 320.238716 
L 222.26112 315.851682 
L 224.15616 315.851682 
L 226.0512 313.658164 
L 227.94624 313.658164 
L 229.84128 311.464647 
L 237.42144 311.464647 
L 239.31648 307.077613 
L 245.0016 307.077613 
L 246.89664 304.884095 
L 248.79168 304.884095 
L 250.68672 300.497061 
L 252.58176 300.497061 
L 254.4768 298.303544 
L 256.37184 293.916509 
L 269.63712 293.916509 
L 271.53216 287.335958 
L 273.4272 285.14244 
L 277.21728 285.14244 
L 281.00736 280.755406 
L 284.79744 280.755406 
L 286.69248 278.561889 
L 288.58752 278.561889 
L 290.48256 274.737294 
L 294.27264 274.737294 
L 296.16768 270.35026 
L 298.06272 268.156743 
L 299.95776 268.156743 
L 301.8528 265.963225 
L 307.53792 265.963225 
L 309.43296 264.332149 
L 311.328 262.138631 
L 313.22304 258.314037 
L 315.11808 256.12052 
L 320.8032 256.12052 
L 322.69824 252.295926 
L 324.59328 250.102408 
L 326.48832 246.277814 
L 328.38336 246.277814 
L 330.2784 244.646737 
L 332.17344 244.646737 
L 334.06848 242.45322 
L 337.85856 242.45322 
L 339.7536 240.259703 
L 341.64864 236.435109 
L 347.33376 236.435109 
L 353.01888 229.854557 
L 354.91392 226.029963 
L 356.80896 226.029963 
L 358.704 224.398886 
L 364.38912 224.398886 
L 366.28416 222.767809 
L 368.1792 222.767809 
L 370.07424 221.136732 
L 373.86432 221.136732 
L 375.75936 217.312138 
L 377.6544 215.118621 
L 379.54944 215.118621 
L 381.44448 213.487544 
L 383.33952 210.22539 
L 385.23456 210.22539 
L 389.02464 205.838355 
L 390.91968 205.838355 
L 392.81472 203.644838 
L 400.39488 203.644838 
L 404.18496 200.382684 
L 406.08 200.382684 
L 407.97504 198.189167 
L 411.76512 198.189167 
L 413.66016 196.55809 
L 415.5552 194.364573 
L 419.34528 194.364573 
L 421.24032 192.733496 
L 423.13536 192.733496 
L 425.0304 191.102419 
L 426.92544 191.102419 
L 428.82048 189.471342 
L 430.71552 184.578111 
L 436.40064 184.578111 
L 438.29568 182.947034 
L 440.19072 179.12244 
L 442.08576 177.491363 
L 443.9808 177.491363 
L 445.87584 175.860286 
L 447.77088 172.598133 
L 449.66592 172.598133 
L 451.56096 170.967056 
L 453.456 167.704902 
L 455.35104 167.704902 
L 457.24608 166.073825 
L 459.14112 166.073825 
L 464.82624 161.180594 
L 468.61632 154.656286 
L 472.4064 151.394133 
L 474.30144 146.500902 
L 478.09152 146.500902 
L 479.98656 144.869825 
L 483.77664 144.869825 
L 485.67168 143.238748 
L 487.56672 143.238748 
L 489.46176 141.607671 
L 495.14688 141.607671 
L 498.93696 138.345517 
L 500.832 138.345517 
L 502.72704 135.083363 
L 512.20224 135.083363 
L 514.09728 133.452286 
L 515.99232 131.258769 
L 517.88736 131.258769 
L 521.67744 124.734462 
L 527.36256 124.734462 
L 531.15264 121.472308 
L 533.04768 118.210154 
L 546.31296 118.210154 
L 553.89312 111.685846 
L 555.78816 111.685846 
L 559.57824 108.423692 
L 565.26336 108.423692 
L 567.1584 106.792615 
L 572.84352 106.792615 
L 574.73856 105.161538 
L 588.00384 105.161538 
L 589.89888 103.530462 
L 597.47904 103.530462 
L 599.37408 100.268308 
L 612.63936 100.268308 
L 614.5344 98.637231 
L 633.4848 98.637231 
L 635.37984 95.375077 
L 642.96 95.375077 
L 642.96 95.375077 
" clip-path="url(#p395ca91a68)" style="fill: none; stroke-dasharray: 8.64,2.16,1.35,2.16; stroke-dashoffset: 0; stroke: #d0526a; stroke-width: 1.35"/>
   </g>
   <g id="line2d_32">
    <path d="M 74.448 348.192 
L 91.50336 348.192 
L 93.3984 345.998483 
L 118.03392 345.998483 
L 119.92896 343.804966 
L 127.50912 343.804966 
L 131.2992 339.417931 
L 142.66944 339.417931 
L 144.56448 337.224414 
L 154.03968 337.224414 
L 155.93472 335.030897 
L 157.82976 330.643862 
L 161.61984 330.643862 
L 163.51488 326.256828 
L 165.40992 326.256828 
L 169.2 321.869793 
L 174.88512 321.869793 
L 176.78016 319.676276 
L 178.6752 319.676276 
L 180.57024 318.045199 
L 182.46528 315.851682 
L 195.73056 315.851682 
L 197.6256 313.658164 
L 199.52064 313.658164 
L 201.41568 311.464647 
L 205.20576 302.690578 
L 210.89088 302.690578 
L 212.78592 300.497061 
L 214.68096 300.497061 
L 220.36608 293.916509 
L 222.26112 289.529475 
L 226.0512 289.529475 
L 227.94624 282.948923 
L 231.73632 282.948923 
L 233.63136 280.755406 
L 239.31648 280.755406 
L 241.21152 278.561889 
L 243.10656 278.561889 
L 245.0016 276.368371 
L 246.89664 274.737294 
L 248.79168 274.737294 
L 250.68672 270.35026 
L 258.26688 270.35026 
L 260.16192 268.156743 
L 262.05696 264.332149 
L 263.952 262.701072 
L 267.74208 262.701072 
L 271.53216 258.314037 
L 273.4272 258.314037 
L 277.21728 253.927003 
L 281.00736 253.927003 
L 282.9024 252.295926 
L 288.58752 245.715374 
L 290.48256 245.715374 
L 292.3776 243.521857 
L 294.27264 241.89078 
L 296.16768 239.697263 
L 298.06272 239.697263 
L 301.8528 236.435109 
L 307.53792 236.435109 
L 311.328 232.048074 
L 313.22304 230.416997 
L 315.11808 228.22348 
L 317.01312 224.398886 
L 318.90816 222.767809 
L 324.59328 222.767809 
L 326.48832 218.943215 
L 328.38336 218.943215 
L 330.2784 217.312138 
L 332.17344 217.312138 
L 334.06848 215.681061 
L 335.96352 215.681061 
L 337.85856 213.487544 
L 339.7536 213.487544 
L 341.64864 211.856467 
L 345.43872 207.469432 
L 347.33376 207.469432 
L 349.2288 205.838355 
L 353.01888 205.838355 
L 354.91392 203.644838 
L 356.80896 202.013761 
L 362.49408 202.013761 
L 364.38912 199.820244 
L 366.28416 198.189167 
L 368.1792 198.189167 
L 370.07424 195.99565 
L 375.75936 195.99565 
L 377.6544 194.364573 
L 381.44448 194.364573 
L 383.33952 192.733496 
L 385.23456 192.733496 
L 387.1296 189.471342 
L 389.02464 189.471342 
L 390.91968 187.840265 
L 392.81472 187.840265 
L 394.70976 186.209188 
L 396.6048 186.209188 
L 398.49984 184.578111 
L 400.39488 184.578111 
L 402.28992 178.053804 
L 404.18496 174.79165 
L 406.08 173.160573 
L 407.97504 173.160573 
L 409.87008 169.335979 
L 411.76512 167.704902 
L 417.45024 167.704902 
L 419.34528 166.073825 
L 421.24032 166.073825 
L 423.13536 164.442748 
L 425.0304 164.442748 
L 426.92544 162.811671 
L 428.82048 159.549517 
L 430.71552 159.549517 
L 432.61056 157.91844 
L 434.5056 153.02521 
L 436.40064 149.763056 
L 438.29568 148.131979 
L 440.19072 148.131979 
L 442.08576 146.500902 
L 445.87584 146.500902 
L 451.56096 141.607671 
L 457.24608 141.607671 
L 459.14112 139.976594 
L 464.82624 139.976594 
L 470.51136 135.083363 
L 472.4064 135.083363 
L 474.30144 133.452286 
L 478.09152 133.452286 
L 479.98656 129.627692 
L 483.77664 129.627692 
L 487.56672 126.365538 
L 489.46176 126.365538 
L 495.14688 121.472308 
L 497.04192 121.472308 
L 498.93696 119.841231 
L 500.832 119.841231 
L 502.72704 118.210154 
L 512.20224 118.210154 
L 514.09728 116.579077 
L 519.7824 116.579077 
L 521.67744 113.316923 
L 525.46752 113.316923 
L 531.15264 108.423692 
L 533.04768 108.423692 
L 534.94272 106.792615 
L 540.62784 106.792615 
L 542.52288 105.161538 
L 563.36832 105.161538 
L 565.26336 101.899385 
L 572.84352 101.899385 
L 574.73856 100.268308 
L 580.42368 100.268308 
L 582.31872 98.637231 
L 603.16416 98.637231 
L 605.0592 97.006154 
L 606.95424 97.006154 
L 608.84928 95.375077 
L 631.58976 95.375077 
L 633.4848 93.744 
L 642.96 93.744 
L 642.96 93.744 
" clip-path="url(#p395ca91a68)" style="fill: none; stroke-dasharray: 6.75,2.7,1.35,2.7; stroke-dashoffset: 0; stroke: #2f8f84; stroke-width: 1.35"/>
   </g>
   <g id="patch_4">
    <path d="M 74.448 348.192 
L 74.448 93.744 
" style="fill: none; stroke: #000000; stroke-width: 0.8; stroke-linejoin: miter; stroke-linecap: square"/>
   </g>
   <g id="patch_5">
    <path d="M 74.448 348.192 
L 642.96 348.192 
" style="fill: none; stroke: #000000; stroke-width: 0.8; stroke-linejoin: miter; stroke-linecap: square"/>
   </g>
  </g>
  <g id="text_16">
   <text style="font: 18px 'DejaVu Sans', 'Bitstream Vera Sans', 'Computer Modern Sans Serif', 'Lucida Grande', 'Verdana', 'Geneva', 'Lucid', 'Arial', 'Helvetica', 'Avant Garde', sans-serif; text-anchor: start" x="74.448" y="38.229188" transform="rotate(-0 74.448 38.229188)">QD-OLED → QDEF LCD</text>
  </g>
  <g id="text_17">
   <text style="fill: #66747c; font: 10px 'DejaVu Sans', 'Bitstream Vera Sans', 'Computer Modern Sans Serif', 'Lucida Grande', 'Verdana', 'Geneva', 'Lucid', 'Arial', 'Helvetica', 'Avant Garde', sans-serif; text-anchor: start" x="74.448" y="64.728" transform="rotate(-0 74.448 64.728)">LED-V2</text>
  </g>
  <g id="legend_1">
   <g id="line2d_33">
    <path d="M 185.17875 404.151391 
L 194.27875 404.151391 
L 203.37875 404.151391 
" style="fill: none; stroke: #252525; stroke-width: 2.5; stroke-linecap: square"/>
   </g>
   <g id="text_18">
    <text style="font: 9.1px 'DejaVu Sans', 'Bitstream Vera Sans', 'Computer Modern Sans Serif', 'Lucida Grande', 'Verdana', 'Geneva', 'Lucid', 'Arial', 'Helvetica', 'Avant Garde', sans-serif; text-anchor: start" x="210.65875" y="407.336391" transform="rotate(-0 210.65875 407.336391)">Potera CMF</text>
   </g>
   <g id="line2d_34">
    <path d="M 185.17875 417.508484 
L 194.27875 417.508484 
L 203.37875 417.508484 
" style="fill: none; stroke: #3b83b4; stroke-width: 1.35; stroke-linecap: square"/>
   </g>
   <g id="text_19">
    <text style="font: 9.1px 'DejaVu Sans', 'Bitstream Vera Sans', 'Computer Modern Sans Serif', 'Lucida Grande', 'Verdana', 'Geneva', 'Lucid', 'Arial', 'Helvetica', 'Avant Garde', sans-serif; text-anchor: start" x="210.65875" y="420.693484" transform="rotate(-0 210.65875 420.693484)">CIE 2015 2°</text>
   </g>
   <g id="line2d_35">
    <path d="M 282.931234 404.151391 
L 292.031234 404.151391 
L 301.131234 404.151391 
" style="fill: none; stroke-dasharray: 4.995,2.16; stroke-dashoffset: 0; stroke: #c38a19; stroke-width: 1.35"/>
   </g>
   <g id="text_20">
    <text style="font: 9.1px 'DejaVu Sans', 'Bitstream Vera Sans', 'Computer Modern Sans Serif', 'Lucida Grande', 'Verdana', 'Geneva', 'Lucid', 'Arial', 'Helvetica', 'Avant Garde', sans-serif; text-anchor: start" x="308.411234" y="407.336391" transform="rotate(-0 308.411234 407.336391)">CIE 2015 10°</text>
   </g>
   <g id="line2d_36">
    <path d="M 282.931234 417.508484 
L 292.031234 417.508484 
L 301.131234 417.508484 
" style="fill: none; stroke-dasharray: 1.35,2.2275; stroke-dashoffset: 0; stroke: #7d8a92; stroke-width: 1.35"/>
   </g>
   <g id="text_21">
    <text style="font: 9.1px 'DejaVu Sans', 'Bitstream Vera Sans', 'Computer Modern Sans Serif', 'Lucida Grande', 'Verdana', 'Geneva', 'Lucid', 'Arial', 'Helvetica', 'Avant Garde', sans-serif; text-anchor: start" x="308.411234" y="420.693484" transform="rotate(-0 308.411234 420.693484)">CIE 1964 10°</text>
   </g>
   <g id="line2d_37">
    <path d="M 386.473594 404.151391 
L 395.573594 404.151391 
L 404.673594 404.151391 
" style="fill: none; stroke-dasharray: 8.64,2.16,1.35,2.16; stroke-dashoffset: 0; stroke: #d0526a; stroke-width: 1.35"/>
   </g>
   <g id="text_22">
    <text style="font: 9.1px 'DejaVu Sans', 'Bitstream Vera Sans', 'Computer Modern Sans Serif', 'Lucida Grande', 'Verdana', 'Geneva', 'Lucid', 'Arial', 'Helvetica', 'Avant Garde', sans-serif; text-anchor: start" x="411.953594" y="407.336391" transform="rotate(-0 411.953594 407.336391)">CIE 1931 2°</text>
   </g>
   <g id="line2d_38">
    <path d="M 386.473594 417.508484 
L 395.573594 417.508484 
L 404.673594 417.508484 
" style="fill: none; stroke-dasharray: 6.75,2.7,1.35,2.7; stroke-dashoffset: 0; stroke: #2f8f84; stroke-width: 1.35"/>
   </g>
   <g id="text_23">
    <text style="font: 9.1px 'DejaVu Sans', 'Bitstream Vera Sans', 'Computer Modern Sans Serif', 'Lucida Grande', 'Verdana', 'Geneva', 'Lucid', 'Arial', 'Helvetica', 'Avant Garde', sans-serif; text-anchor: start" x="411.953594" y="420.693484" transform="rotate(-0 411.953594 420.693484)">Judd–Vos 1978 2°</text>
   </g>
  </g>
 </g>
 <defs>
  <clipPath id="p395ca91a68">
   <rect x="74.448" y="93.744" width="568.512" height="254.448"/>
  </clipPath>
 </defs>
</svg>
