<?xml version="1.0" encoding="utf-8" standalone="no"?>
<!DOCTYPE svg PUBLIC "-//W3C//DTD SVG 1.1//EN"
  "http://www.w3.org/Graphics/SVG/1.1/DTD/svg11.dtd">
<svg xmlns:xlink="http://www.w3.org/1999/xlink" width="676.8pt" height="446.4pt" viewBox="0 0 676.8 446.4" xmlns="http://www.w3.org/2000/svg" version="1.1">
 <metadata>
  <rdf:RDF xmlns:dc="http://purl.org/dc/elements/1.1/" xmlns:cc="http://creativecommons.org/ns#" xmlns:rdf="http://www.w3.org/1999/02/22-rdf-syntax-ns#">
   <cc:Work>
    <dc:type rdf:resource="http://purl.org/dc/dcmitype/StillImage"/>
    <dc:date>2026-07-20T06:42:01.288647</dc:date>
    <dc:format>image/svg+xml</dc:format>
    <dc:creator>
     <cc:Agent>
      <dc:title>Matplotlib v3.9.4, https://matplotlib.org/</dc:title>
     </cc:Agent>
    </dc:creator>
   </cc:Work>
  </rdf:RDF>
 </metadata>
 <defs>
  <style type="text/css">*{stroke-linejoin: round; stroke-linecap: butt}</style>
 </defs>
 <g id="figure_1">
  <g id="patch_1">
   <path d="M 0 446.4 
L 676.8 446.4 
L 676.8 0 
L 0 0 
z
" style="fill: #ffffff"/>
  </g>
  <g id="axes_1">
   <g id="patch_2">
    <path d="M 74.448 348.192 
L 642.96 348.192 
L 642.96 93.744 
L 74.448 93.744 
z
" style="fill: #ffffff"/>
   </g>
   <g id="patch_3">
    <path d="M 169.2 348.192 
L 358.704 348.192 
L 358.704 93.744 
L 169.2 93.744 
z
" clip-path="url(#p1fbf099940)" style="fill: #e7f0ea; opacity: 0.58; stroke: #e7f0ea; stroke-linejoin: miter"/>
   </g>
   <g id="matplotlib.axis_1">
    <g id="xtick_1">
     <g id="line2d_1">
      <path d="M 74.448 348.192 
L 74.448 93.744 
" clip-path="url(#p1fbf099940)" style="fill: none; stroke: #dfe5e8; stroke-width: 0.65; stroke-linecap: square"/>
     </g>
     <g id="line2d_2">
      <defs>
       <path id="md2074748d6" d="M 0 0 
L 0 3.5 
" style="stroke: #000000; stroke-width: 0.8"/>
      </defs>
      <g>
       <use xlink:href="#md2074748d6" x="74.448" y="348.192" style="stroke: #000000; stroke-width: 0.8"/>
      </g>
     </g>
     <g id="text_1">
      <text style="font: 10px 'DejaVu Sans', 'Bitstream Vera Sans', 'Computer Modern Sans Serif', 'Lucida Grande', 'Verdana', 'Geneva', 'Lucid', 'Arial', 'Helvetica', 'Avant Garde', sans-serif; text-anchor: middle" x="74.448" y="362.790438" transform="rotate(-0 74.448 362.790438)">0</text>
     </g>
    </g>
    <g id="xtick_2">
     <g id="line2d_3">
      <path d="M 169.2 348.192 
L 169.2 93.744 
" clip-path="url(#p1fbf099940)" style="fill: none; stroke: #dfe5e8; stroke-width: 0.65; stroke-linecap: square"/>
     </g>
     <g id="line2d_4">
      <g>
       <use xlink:href="#md2074748d6" x="169.2" y="348.192" style="stroke: #000000; stroke-width: 0.8"/>
      </g>
     </g>
     <g id="text_2">
      <text style="font: 10px 'DejaVu Sans', 'Bitstream Vera Sans', 'Computer Modern Sans Serif', 'Lucida Grande', 'Verdana', 'Geneva', 'Lucid', 'Arial', 'Helvetica', 'Avant Garde', sans-serif; text-anchor: middle" x="169.2" y="362.790438" transform="rotate(-0 169.2 362.790438)">1</text>
     </g>
    </g>
    <g id="xtick_3">
     <g id="line2d_5">
      <path d="M 263.952 348.192 
L 263.952 93.744 
" clip-path="url(#p1fbf099940)" style="fill: none; stroke: #dfe5e8; stroke-width: 0.65; stroke-linecap: square"/>
     </g>
     <g id="line2d_6">
      <g>
       <use xlink:href="#md2074748d6" x="263.952" y="348.192" style="stroke: #000000; stroke-width: 0.8"/>
      </g>
     </g>
     <g id="text_3">
      <text style="font: 10px 'DejaVu Sans', 'Bitstream Vera Sans', 'Computer Modern Sans Serif', 'Lucida Grande', 'Verdana', 'Geneva', 'Lucid', 'Arial', 'Helvetica', 'Avant Garde', sans-serif; text-anchor: middle" x="263.952" y="362.790438" transform="rotate(-0 263.952 362.790438)">2</text>
     </g>
    </g>
    <g id="xtick_4">
     <g id="line2d_7">
      <path d="M 358.704 348.192 
L 358.704 93.744 
" clip-path="url(#p1fbf099940)" style="fill: none; stroke: #dfe5e8; stroke-width: 0.65; stroke-linecap: square"/>
     </g>
     <g id="line2d_8">
      <g>
       <use xlink:href="#md2074748d6" x="358.704" y="348.192" style="stroke: #000000; stroke-width: 0.8"/>
      </g>
     </g>
     <g id="text_4">
      <text style="font: 10px 'DejaVu Sans', 'Bitstream Vera Sans', 'Computer Modern Sans Serif', 'Lucida Grande', 'Verdana', 'Geneva', 'Lucid', 'Arial', 'Helvetica', 'Avant Garde', sans-serif; text-anchor: middle" x="358.704" y="362.790438" transform="rotate(-0 358.704 362.790438)">3</text>
     </g>
    </g>
    <g id="xtick_5">
     <g id="line2d_9">
      <path d="M 453.456 348.192 
L 453.456 93.744 
" clip-path="url(#p1fbf099940)" style="fill: none; stroke: #dfe5e8; stroke-width: 0.65; stroke-linecap: square"/>
     </g>
     <g id="line2d_10">
      <g>
       <use xlink:href="#md2074748d6" x="453.456" y="348.192" style="stroke: #000000; stroke-width: 0.8"/>
      </g>
     </g>
     <g id="text_5">
      <text style="font: 10px 'DejaVu Sans', 'Bitstream Vera Sans', 'Computer Modern Sans Serif', 'Lucida Grande', 'Verdana', 'Geneva', 'Lucid', 'Arial', 'Helvetica', 'Avant Garde', sans-serif; text-anchor: middle" x="453.456" y="362.790438" transform="rotate(-0 453.456 362.790438)">4</text>
     </g>
    </g>
    <g id="xtick_6">
     <g id="line2d_11">
      <path d="M 548.208 348.192 
L 548.208 93.744 
" clip-path="url(#p1fbf099940)" style="fill: none; stroke: #dfe5e8; stroke-width: 0.65; stroke-linecap: square"/>
     </g>
     <g id="line2d_12">
      <g>
       <use xlink:href="#md2074748d6" x="548.208" y="348.192" style="stroke: #000000; stroke-width: 0.8"/>
      </g>
     </g>
     <g id="text_6">
      <text style="font: 10px 'DejaVu Sans', 'Bitstream Vera Sans', 'Computer Modern Sans Serif', 'Lucida Grande', 'Verdana', 'Geneva', 'Lucid', 'Arial', 'Helvetica', 'Avant Garde', sans-serif; text-anchor: middle" x="548.208" y="362.790438" transform="rotate(-0 548.208 362.790438)">5</text>
     </g>
    </g>
    <g id="xtick_7">
     <g id="line2d_13">
      <path d="M 642.96 348.192 
L 642.96 93.744 
" clip-path="url(#p1fbf099940)" style="fill: none; stroke: #dfe5e8; stroke-width: 0.65; stroke-linecap: square"/>
     </g>
     <g id="line2d_14">
      <g>
       <use xlink:href="#md2074748d6" x="642.96" y="348.192" style="stroke: #000000; stroke-width: 0.8"/>
      </g>
     </g>
     <g id="text_7">
      <text style="font: 10px 'DejaVu Sans', 'Bitstream Vera Sans', 'Computer Modern Sans Serif', 'Lucida Grande', 'Verdana', 'Geneva', 'Lucid', 'Arial', 'Helvetica', 'Avant Garde', sans-serif; text-anchor: middle" x="642.96" y="362.790438" transform="rotate(-0 642.96 362.790438)">6</text>
     </g>
    </g>
    <g id="text_8">
     <text style="font: 10px 'DejaVu Sans', 'Bitstream Vera Sans', 'Computer Modern Sans Serif', 'Lucida Grande', 'Verdana', 'Geneva', 'Lucid', 'Arial', 'Helvetica', 'Avant Garde', sans-serif; text-anchor: middle" x="358.704" y="376.468563" transform="rotate(-0 358.704 376.468563)">sUCS dE threshold</text>
    </g>
   </g>
   <g id="matplotlib.axis_2">
    <g id="ytick_1">
     <g id="line2d_15">
      <path d="M 74.448 348.192 
L 642.96 348.192 
" clip-path="url(#p1fbf099940)" style="fill: none; stroke: #dfe5e8; stroke-width: 0.65; stroke-linecap: square"/>
     </g>
     <g id="line2d_16">
      <defs>
       <path id="mb39c36e0ad" d="M 0 0 
L -3.5 0 
" style="stroke: #000000; stroke-width: 0.8"/>
      </defs>
      <g>
       <use xlink:href="#mb39c36e0ad" x="74.448" y="348.192" style="stroke: #000000; stroke-width: 0.8"/>
      </g>
     </g>
     <g id="text_9">
      <text style="font: 10px 'DejaVu Sans', 'Bitstream Vera Sans', 'Computer Modern Sans Serif', 'Lucida Grande', 'Verdana', 'Geneva', 'Lucid', 'Arial', 'Helvetica', 'Avant Garde', sans-serif; text-anchor: end" x="67.448" y="351.991219" transform="rotate(-0 67.448 351.991219)">0</text>
     </g>
    </g>
    <g id="ytick_2">
     <g id="line2d_17">
      <path d="M 74.448 297.3024 
L 642.96 297.3024 
" clip-path="url(#p1fbf099940)" style="fill: none; stroke: #dfe5e8; stroke-width: 0.65; stroke-linecap: square"/>
     </g>
     <g id="line2d_18">
      <g>
       <use xlink:href="#mb39c36e0ad" x="74.448" y="297.3024" style="stroke: #000000; stroke-width: 0.8"/>
      </g>
     </g>
     <g id="text_10">
      <text style="font: 10px 'DejaVu Sans', 'Bitstream Vera Sans', 'Computer Modern Sans Serif', 'Lucida Grande', 'Verdana', 'Geneva', 'Lucid', 'Arial', 'Helvetica', 'Avant Garde', sans-serif; text-anchor: end" x="67.448" y="301.101619" transform="rotate(-0 67.448 301.101619)">20</text>
     </g>
    </g>
    <g id="ytick_3">
     <g id="line2d_19">
      <path d="M 74.448 246.4128 
L 642.96 246.4128 
" clip-path="url(#p1fbf099940)" style="fill: none; stroke: #dfe5e8; stroke-width: 0.65; stroke-linecap: square"/>
     </g>
     <g id="line2d_20">
      <g>
       <use xlink:href="#mb39c36e0ad" x="74.448" y="246.4128" style="stroke: #000000; stroke-width: 0.8"/>
      </g>
     </g>
     <g id="text_11">
      <text style="font: 10px 'DejaVu Sans', 'Bitstream Vera Sans', 'Computer Modern Sans Serif', 'Lucida Grande', 'Verdana', 'Geneva', 'Lucid', 'Arial', 'Helvetica', 'Avant Garde', sans-serif; text-anchor: end" x="67.448" y="250.212019" transform="rotate(-0 67.448 250.212019)">40</text>
     </g>
    </g>
    <g id="ytick_4">
     <g id="line2d_21">
      <path d="M 74.448 195.5232 
L 642.96 195.5232 
" clip-path="url(#p1fbf099940)" style="fill: none; stroke: #dfe5e8; stroke-width: 0.65; stroke-linecap: square"/>
     </g>
     <g id="line2d_22">
      <g>
       <use xlink:href="#mb39c36e0ad" x="74.448" y="195.5232" style="stroke: #000000; stroke-width: 0.8"/>
      </g>
     </g>
     <g id="text_12">
      <text style="font: 10px 'DejaVu Sans', 'Bitstream Vera Sans', 'Computer Modern Sans Serif', 'Lucida Grande', 'Verdana', 'Geneva', 'Lucid', 'Arial', 'Helvetica', 'Avant Garde', sans-serif; text-anchor: end" x="67.448" y="199.322419" transform="rotate(-0 67.448 199.322419)">60</text>
     </g>
    </g>
    <g id="ytick_5">
     <g id="line2d_23">
      <path d="M 74.448 144.6336 
L 642.96 144.6336 
" clip-path="url(#p1fbf099940)" style="fill: none; stroke: #dfe5e8; stroke-width: 0.65; stroke-linecap: square"/>
     </g>
     <g id="line2d_24">
      <g>
       <use xlink:href="#mb39c36e0ad" x="74.448" y="144.6336" style="stroke: #000000; stroke-width: 0.8"/>
      </g>
     </g>
     <g id="text_13">
      <text style="font: 10px 'DejaVu Sans', 'Bitstream Vera Sans', 'Computer Modern Sans Serif', 'Lucida Grande', 'Verdana', 'Geneva', 'Lucid', 'Arial', 'Helvetica', 'Avant Garde', sans-serif; text-anchor: end" x="67.448" y="148.432819" transform="rotate(-0 67.448 148.432819)">80</text>
     </g>
    </g>
    <g id="ytick_6">
     <g id="line2d_25">
      <path d="M 74.448 93.744 
L 642.96 93.744 
" clip-path="url(#p1fbf099940)" style="fill: none; stroke: #dfe5e8; stroke-width: 0.65; stroke-linecap: square"/>
     </g>
     <g id="line2d_26">
      <g>
       <use xlink:href="#mb39c36e0ad" x="74.448" y="93.744" style="stroke: #000000; stroke-width: 0.8"/>
      </g>
     </g>
     <g id="text_14">
      <text style="font: 10px 'DejaVu Sans', 'Bitstream Vera Sans', 'Computer Modern Sans Serif', 'Lucida Grande', 'Verdana', 'Geneva', 'Lucid', 'Arial', 'Helvetica', 'Avant Garde', sans-serif; text-anchor: end" x="67.448" y="97.543219" transform="rotate(-0 67.448 97.543219)">100</text>
     </g>
    </g>
    <g id="text_15">
     <text style="font: 10px 'DejaVu Sans', 'Bitstream Vera Sans', 'Computer Modern Sans Serif', 'Lucida Grande', 'Verdana', 'Geneva', 'Lucid', 'Arial', 'Helvetica', 'Avant Garde', sans-serif; text-anchor: middle" x="42.280812" y="220.968" transform="rotate(-90 42.280812 220.968)">observers%</text>
    </g>
   </g>
   <g id="line2d_27">
    <path d="M 74.448 348.192 
L 80.13312 348.192 
L 82.02816 345.998483 
L 83.9232 345.998483 
L 85.81824 344.367406 
L 89.60832 344.367406 
L 91.50336 339.980371 
L 93.3984 339.980371 
L 95.29344 338.349294 
L 97.18848 338.349294 
L 99.08352 333.96226 
L 100.97856 332.331183 
L 102.8736 332.331183 
L 104.76864 330.137666 
L 106.66368 324.119554 
L 110.45376 324.119554 
L 112.3488 322.488477 
L 114.24384 319.226324 
L 116.13888 317.032806 
L 118.03392 313.208212 
L 121.824 313.208212 
L 123.71904 309.383618 
L 125.61408 303.927947 
L 129.40416 296.278759 
L 131.2992 293.016605 
L 133.19424 289.192011 
L 135.08928 287.560934 
L 138.87936 287.560934 
L 140.7744 285.929857 
L 142.66944 281.036626 
L 144.56448 279.405549 
L 146.45952 276.143395 
L 148.35456 273.949878 
L 150.2496 269.056647 
L 152.14464 261.969899 
L 154.03968 259.776382 
L 157.82976 259.776382 
L 159.7248 254.320711 
L 163.51488 254.320711 
L 165.40992 251.058557 
L 167.30496 247.233963 
L 169.2 242.340732 
L 171.09504 233.622907 
L 172.99008 225.973719 
L 174.88512 221.586684 
L 176.78016 217.76209 
L 178.6752 217.76209 
L 180.57024 216.131013 
L 184.36032 216.131013 
L 186.25536 212.306419 
L 188.1504 212.306419 
L 190.04544 210.112902 
L 193.83552 206.850748 
L 195.73056 203.026154 
L 197.6256 203.026154 
L 199.52064 199.20156 
L 201.41568 193.183448 
L 203.31072 189.358854 
L 205.20576 189.358854 
L 207.1008 187.727777 
L 210.89088 187.727777 
L 212.78592 185.53426 
L 214.68096 185.53426 
L 216.576 180.641029 
L 218.47104 177.378875 
L 220.36608 177.378875 
L 224.15616 174.116721 
L 226.0512 174.116721 
L 227.94624 170.292127 
L 233.63136 170.292127 
L 235.5264 167.029973 
L 237.42144 165.398897 
L 239.31648 165.398897 
L 241.21152 163.76782 
L 243.10656 159.380785 
L 245.0016 155.556191 
L 248.79168 155.556191 
L 250.68672 153.362674 
L 252.58176 151.731597 
L 254.4768 149.53808 
L 256.37184 147.907003 
L 260.16192 147.907003 
L 262.05696 146.275926 
L 265.84704 141.888891 
L 267.74208 141.888891 
L 269.63712 139.695374 
L 271.53216 138.064297 
L 284.79744 138.064297 
L 286.69248 131.483745 
L 288.58752 131.483745 
L 290.48256 129.290228 
L 292.3776 129.290228 
L 296.16768 124.903194 
L 299.95776 124.903194 
L 301.8528 123.272117 
L 307.53792 123.272117 
L 309.43296 121.078599 
L 313.22304 121.078599 
L 315.11808 117.254005 
L 318.90816 117.254005 
L 320.8032 115.622928 
L 324.59328 115.622928 
L 326.48832 113.429411 
L 330.2784 113.429411 
L 332.17344 111.235894 
L 334.06848 111.235894 
L 337.85856 107.97374 
L 341.64864 107.97374 
L 343.54368 106.342663 
L 349.2288 106.342663 
L 351.12384 104.149146 
L 358.704 104.149146 
L 362.49408 99.762111 
L 364.38912 95.937517 
L 413.66016 95.937517 
L 415.5552 93.744 
L 642.96 93.744 
L 642.96 93.744 
" clip-path="url(#p1fbf099940)" style="fill: none; stroke: #252525; stroke-width: 2.5; stroke-linecap: square"/>
   </g>
   <g id="line2d_28">
    <path d="M 74.448 348.192 
L 89.60832 348.192 
L 91.50336 345.998483 
L 93.3984 345.998483 
L 95.29344 343.804966 
L 99.08352 343.804966 
L 100.97856 341.611448 
L 102.8736 341.611448 
L 104.76864 339.417931 
L 108.55872 339.417931 
L 110.45376 337.224414 
L 112.3488 337.224414 
L 114.24384 332.837379 
L 116.13888 329.012785 
L 118.03392 329.012785 
L 119.92896 327.381708 
L 121.824 327.381708 
L 123.71904 325.188191 
L 127.50912 325.188191 
L 129.40416 320.801156 
L 131.2992 320.801156 
L 136.98432 314.220605 
L 140.7744 314.220605 
L 142.66944 312.027088 
L 144.56448 306.008976 
L 146.45952 306.008976 
L 148.35456 303.815459 
L 150.2496 302.184382 
L 154.03968 302.184382 
L 155.93472 298.359788 
L 157.82976 298.359788 
L 159.7248 296.166271 
L 161.61984 292.904117 
L 163.51488 292.904117 
L 165.40992 290.710599 
L 167.30496 285.254928 
L 169.2 281.430334 
L 171.09504 271.587629 
L 176.78016 265.007077 
L 178.6752 265.007077 
L 180.57024 262.81356 
L 182.46528 258.988966 
L 184.36032 254.601931 
L 186.25536 252.970854 
L 188.1504 246.390302 
L 190.04544 244.759225 
L 191.94048 239.865995 
L 195.73056 235.47896 
L 197.6256 231.091926 
L 199.52064 228.898408 
L 201.41568 225.636255 
L 203.31072 224.005178 
L 205.20576 220.743024 
L 207.1008 220.743024 
L 208.99584 219.111947 
L 210.89088 219.111947 
L 212.78592 216.91843 
L 214.68096 216.91843 
L 216.576 214.724912 
L 218.47104 214.724912 
L 220.36608 210.900318 
L 222.26112 210.900318 
L 224.15616 205.444647 
L 227.94624 205.444647 
L 229.84128 201.620053 
L 233.63136 198.357899 
L 239.31648 191.777347 
L 241.21152 183.565719 
L 243.10656 181.372202 
L 248.79168 176.478971 
L 252.58176 172.091936 
L 254.4768 170.460859 
L 258.26688 170.460859 
L 260.16192 167.198706 
L 262.05696 167.198706 
L 263.952 165.567629 
L 265.84704 165.567629 
L 269.63712 162.305475 
L 273.4272 162.305475 
L 275.32224 159.043321 
L 277.21728 159.043321 
L 279.11232 155.218727 
L 281.00736 155.218727 
L 282.9024 151.956573 
L 286.69248 148.694419 
L 288.58752 145.432265 
L 292.3776 145.432265 
L 296.16768 142.170111 
L 298.06272 139.976594 
L 305.64288 139.976594 
L 307.53792 137.783077 
L 309.43296 137.783077 
L 311.328 134.520923 
L 313.22304 132.889846 
L 315.11808 132.889846 
L 317.01312 131.258769 
L 318.90816 131.258769 
L 320.8032 129.627692 
L 322.69824 129.627692 
L 324.59328 127.996615 
L 330.2784 127.996615 
L 332.17344 124.734462 
L 339.7536 118.210154 
L 341.64864 118.210154 
L 343.54368 116.579077 
L 349.2288 116.579077 
L 351.12384 113.316923 
L 354.91392 113.316923 
L 358.704 110.054769 
L 370.07424 110.054769 
L 371.96928 108.423692 
L 375.75936 108.423692 
L 377.6544 106.792615 
L 383.33952 106.792615 
L 385.23456 105.161538 
L 411.76512 105.161538 
L 413.66016 103.530462 
L 430.71552 103.530462 
L 432.61056 101.899385 
L 434.5056 101.899385 
L 436.40064 100.268308 
L 443.9808 100.268308 
L 445.87584 98.637231 
L 451.56096 98.637231 
L 455.35104 95.375077 
L 472.4064 95.375077 
L 474.30144 93.744 
L 642.96 93.744 
L 642.96 93.744 
" clip-path="url(#p1fbf099940)" style="fill: none; stroke: #3b83b4; stroke-width: 1.35; stroke-linecap: square"/>
   </g>
   <g id="line2d_29">
    <path d="M 74.448 348.192 
L 85.81824 348.192 
L 87.71328 346.560923 
L 89.60832 346.560923 
L 95.29344 341.667692 
L 99.08352 341.667692 
L 100.97856 338.405538 
L 102.8736 338.405538 
L 104.76864 336.774462 
L 106.66368 331.31879 
L 108.55872 324.232042 
L 110.45376 320.407448 
L 118.03392 313.883141 
L 119.92896 311.689623 
L 123.71904 311.689623 
L 125.61408 310.058546 
L 127.50912 310.058546 
L 129.40416 308.427469 
L 131.2992 301.903162 
L 133.19424 301.903162 
L 135.08928 298.078568 
L 138.87936 294.816414 
L 140.7744 290.99182 
L 142.66944 287.729666 
L 144.56448 285.536149 
L 146.45952 279.518037 
L 148.35456 277.88696 
L 150.2496 274.062366 
L 154.03968 263.151024 
L 155.93472 256.064276 
L 159.7248 252.802122 
L 161.61984 250.608605 
L 163.51488 247.346451 
L 165.40992 245.715374 
L 167.30496 245.715374 
L 169.2 243.521857 
L 171.09504 238.066186 
L 172.99008 234.804032 
L 178.6752 229.910801 
L 180.57024 229.910801 
L 182.46528 227.717284 
L 184.36032 227.717284 
L 186.25536 226.086207 
L 190.04544 226.086207 
L 191.94048 224.45513 
L 193.83552 217.930822 
L 195.73056 215.737305 
L 197.6256 214.106228 
L 199.52064 210.844074 
L 201.41568 208.650557 
L 205.20576 208.650557 
L 207.1008 205.388403 
L 208.99584 205.388403 
L 210.89088 203.757326 
L 212.78592 201.563809 
L 214.68096 201.563809 
L 216.576 199.932732 
L 218.47104 197.739215 
L 220.36608 196.108138 
L 222.26112 193.914621 
L 224.15616 193.914621 
L 226.0512 191.721103 
L 227.94624 190.090027 
L 229.84128 187.896509 
L 231.73632 187.896509 
L 235.5264 183.509475 
L 237.42144 179.684881 
L 239.31648 177.491363 
L 245.0016 177.491363 
L 246.89664 175.297846 
L 248.79168 172.035692 
L 250.68672 172.035692 
L 252.58176 170.404615 
L 254.4768 168.211098 
L 256.37184 166.580021 
L 258.26688 166.580021 
L 260.16192 164.386504 
L 262.05696 159.999469 
L 267.74208 159.999469 
L 269.63712 157.805952 
L 271.53216 157.805952 
L 273.4272 154.543798 
L 277.21728 154.543798 
L 279.11232 151.281645 
L 290.48256 151.281645 
L 292.3776 147.45705 
L 299.95776 147.45705 
L 301.8528 145.825973 
L 303.74784 145.825973 
L 305.64288 141.438939 
L 307.53792 139.245422 
L 309.43296 139.245422 
L 311.328 137.051905 
L 313.22304 137.051905 
L 315.11808 135.420828 
L 317.01312 135.420828 
L 318.90816 133.22731 
L 322.69824 133.22731 
L 324.59328 131.033793 
L 328.38336 131.033793 
L 332.17344 126.646759 
L 347.33376 126.646759 
L 349.2288 124.453241 
L 351.12384 120.066207 
L 353.01888 120.066207 
L 354.91392 117.87269 
L 356.80896 117.87269 
L 358.704 113.485655 
L 371.96928 113.485655 
L 373.86432 111.292138 
L 375.75936 111.292138 
L 377.6544 109.098621 
L 389.02464 109.098621 
L 390.91968 106.905103 
L 394.70976 106.905103 
L 396.6048 104.711586 
L 413.66016 104.711586 
L 415.5552 102.518069 
L 425.0304 102.518069 
L 426.92544 95.937517 
L 478.09152 95.937517 
L 479.98656 93.744 
L 642.96 93.744 
L 642.96 93.744 
" clip-path="url(#p1fbf099940)" style="fill: none; stroke-dasharray: 4.995,2.16; stroke-dashoffset: 0; stroke: #c38a19; stroke-width: 1.35"/>
   </g>
   <g id="line2d_30">
    <path d="M 74.448 348.192 
L 91.50336 348.192 
L 93.3984 344.367406 
L 104.76864 344.367406 
L 106.66368 342.173889 
L 108.55872 342.173889 
L 110.45376 339.980371 
L 112.3488 336.155777 
L 118.03392 336.155777 
L 119.92896 334.5247 
L 121.824 334.5247 
L 123.71904 332.331183 
L 125.61408 332.331183 
L 127.50912 330.137666 
L 129.40416 328.506589 
L 133.19424 328.506589 
L 136.98432 316.470366 
L 138.87936 316.470366 
L 140.7744 312.083332 
L 142.66944 310.452255 
L 148.35456 310.452255 
L 150.2496 308.258737 
L 152.14464 301.73443 
L 155.93472 294.085241 
L 161.61984 294.085241 
L 163.51488 289.698207 
L 165.40992 284.804976 
L 167.30496 278.280668 
L 169.2 272.262557 
L 171.09504 270.63148 
L 172.99008 263.544732 
L 174.88512 263.544732 
L 176.78016 261.913655 
L 178.6752 261.913655 
L 180.57024 258.651501 
L 182.46528 253.19583 
L 190.04544 246.671523 
L 191.94048 241.778292 
L 193.83552 238.516138 
L 195.73056 238.516138 
L 197.6256 236.885061 
L 199.52064 233.060467 
L 201.41568 227.604796 
L 203.31072 219.955607 
L 205.20576 216.693454 
L 207.1008 210.169146 
L 208.99584 210.169146 
L 210.89088 206.906992 
L 212.78592 206.906992 
L 214.68096 199.820244 
L 216.576 193.802133 
L 218.47104 190.539979 
L 220.36608 190.539979 
L 222.26112 186.715385 
L 224.15616 181.822154 
L 227.94624 174.172966 
L 233.63136 174.172966 
L 235.5264 169.785931 
L 237.42144 169.785931 
L 239.31648 167.592414 
L 241.21152 167.592414 
L 243.10656 165.961337 
L 245.0016 165.961337 
L 246.89664 164.33026 
L 248.79168 164.33026 
L 250.68672 162.699183 
L 254.4768 162.699183 
L 256.37184 158.874589 
L 258.26688 158.874589 
L 262.05696 154.487554 
L 271.53216 154.487554 
L 273.4272 152.294037 
L 275.32224 150.66296 
L 277.21728 150.66296 
L 279.11232 148.469443 
L 282.9024 148.469443 
L 284.79744 144.082408 
L 288.58752 144.082408 
L 290.48256 140.820255 
L 301.8528 140.820255 
L 303.74784 136.99566 
L 305.64288 136.99566 
L 309.43296 129.346472 
L 311.328 129.346472 
L 313.22304 127.152955 
L 317.01312 127.152955 
L 318.90816 125.521878 
L 320.8032 123.328361 
L 322.69824 121.697284 
L 324.59328 121.697284 
L 326.48832 119.503767 
L 328.38336 119.503767 
L 330.2784 117.310249 
L 335.96352 117.310249 
L 337.85856 113.485655 
L 339.7536 111.292138 
L 353.01888 111.292138 
L 356.80896 106.905103 
L 358.704 106.905103 
L 360.59904 104.711586 
L 377.6544 104.711586 
L 379.54944 102.518069 
L 389.02464 102.518069 
L 392.81472 98.131034 
L 404.18496 98.131034 
L 406.08 95.937517 
L 434.5056 95.937517 
L 436.40064 93.744 
L 642.96 93.744 
L 642.96 93.744 
" clip-path="url(#p1fbf099940)" style="fill: none; stroke-dasharray: 1.35,2.2275; stroke-dashoffset: 0; stroke: #7d8a92; stroke-width: 1.35"/>
   </g>
   <g id="line2d_31">
    <path d="M 74.448 348.192 
L 129.40416 348.192 
L 131.2992 343.804966 
L 146.45952 343.804966 
L 148.35456 339.417931 
L 150.2496 339.417931 
L 152.14464 337.224414 
L 154.03968 337.224414 
L 155.93472 335.030897 
L 165.40992 335.030897 
L 167.30496 331.206302 
L 169.2 329.012785 
L 172.99008 329.012785 
L 176.78016 324.625751 
L 178.6752 324.625751 
L 182.46528 320.238716 
L 190.04544 320.238716 
L 191.94048 315.851682 
L 193.83552 315.851682 
L 199.52064 309.27113 
L 203.31072 306.008976 
L 205.20576 303.815459 
L 207.1008 295.60383 
L 208.99584 293.410313 
L 210.89088 293.410313 
L 212.78592 291.216796 
L 214.68096 291.216796 
L 220.36608 284.636244 
L 224.15616 275.862175 
L 226.0512 273.668658 
L 227.94624 273.668658 
L 229.84128 271.475141 
L 233.63136 271.475141 
L 235.5264 264.894589 
L 237.42144 264.894589 
L 239.31648 262.701072 
L 243.10656 262.701072 
L 245.0016 261.069995 
L 246.89664 261.069995 
L 248.79168 259.438918 
L 250.68672 257.245401 
L 252.58176 253.420806 
L 254.4768 251.227289 
L 256.37184 251.227289 
L 260.16192 243.578101 
L 262.05696 236.491353 
L 263.952 234.297836 
L 267.74208 234.297836 
L 269.63712 232.104318 
L 271.53216 230.473241 
L 273.4272 226.648647 
L 275.32224 226.648647 
L 281.00736 215.174865 
L 282.9024 209.719194 
L 284.79744 205.332159 
L 286.69248 203.701082 
L 290.48256 203.701082 
L 292.3776 202.070005 
L 294.27264 198.807851 
L 301.8528 198.807851 
L 303.74784 194.983257 
L 305.64288 194.983257 
L 309.43296 190.596223 
L 313.22304 187.334069 
L 315.11808 187.334069 
L 317.01312 185.702992 
L 318.90816 182.440838 
L 320.8032 180.247321 
L 322.69824 176.985167 
L 326.48832 176.985167 
L 328.38336 173.723013 
L 330.2784 171.529496 
L 332.17344 171.529496 
L 334.06848 169.898419 
L 335.96352 167.704902 
L 343.54368 167.704902 
L 347.33376 164.442748 
L 349.2288 161.180594 
L 351.12384 161.180594 
L 353.01888 159.549517 
L 358.704 159.549517 
L 360.59904 156.287363 
L 362.49408 156.287363 
L 364.38912 154.656286 
L 366.28416 151.394133 
L 368.1792 149.763056 
L 370.07424 146.500902 
L 375.75936 141.607671 
L 377.6544 141.607671 
L 379.54944 139.976594 
L 381.44448 139.976594 
L 383.33952 137.783077 
L 389.02464 137.783077 
L 394.70976 132.889846 
L 398.49984 132.889846 
L 400.39488 131.258769 
L 404.18496 131.258769 
L 406.08 127.996615 
L 411.76512 127.996615 
L 413.66016 124.734462 
L 415.5552 124.734462 
L 421.24032 119.841231 
L 423.13536 116.579077 
L 426.92544 116.579077 
L 428.82048 114.948 
L 430.71552 114.948 
L 432.61056 113.316923 
L 434.5056 113.316923 
L 438.29568 110.054769 
L 451.56096 110.054769 
L 453.456 108.423692 
L 455.35104 108.423692 
L 457.24608 106.792615 
L 459.14112 106.792615 
L 461.03616 105.161538 
L 483.77664 105.161538 
L 485.67168 103.530462 
L 512.20224 103.530462 
L 517.88736 98.637231 
L 529.2576 98.637231 
L 533.04768 95.375077 
L 544.41792 95.375077 
L 546.31296 93.744 
L 642.96 93.744 
L 642.96 93.744 
" clip-path="url(#p1fbf099940)" style="fill: none; stroke-dasharray: 8.64,2.16,1.35,2.16; stroke-dashoffset: 0; stroke: #d0526a; stroke-width: 1.35"/>
   </g>
   <g id="line2d_32">
    <path d="M 74.448 348.192 
L 91.50336 348.192 
L 93.3984 345.998483 
L 108.55872 345.998483 
L 112.3488 341.611448 
L 114.24384 337.224414 
L 127.50912 337.224414 
L 129.40416 330.643862 
L 133.19424 330.643862 
L 135.08928 324.625751 
L 136.98432 322.432233 
L 140.7744 322.432233 
L 146.45952 315.851682 
L 148.35456 315.851682 
L 150.2496 314.220605 
L 154.03968 314.220605 
L 155.93472 308.764934 
L 159.7248 308.764934 
L 161.61984 302.184382 
L 167.30496 302.184382 
L 169.2 299.990865 
L 171.09504 293.410313 
L 172.99008 289.023279 
L 176.78016 284.636244 
L 182.46528 284.636244 
L 184.36032 280.24921 
L 190.04544 280.24921 
L 191.94048 278.055692 
L 193.83552 276.424615 
L 195.73056 276.424615 
L 197.6256 274.793538 
L 199.52064 270.406504 
L 201.41568 270.406504 
L 203.31072 268.212987 
L 205.20576 268.212987 
L 207.1008 258.370281 
L 208.99584 256.739204 
L 210.89088 256.739204 
L 212.78592 254.545687 
L 214.68096 248.527576 
L 216.576 243.071905 
L 218.47104 238.68487 
L 220.36608 238.68487 
L 222.26112 232.666759 
L 224.15616 231.035682 
L 226.0512 228.842164 
L 227.94624 227.211088 
L 229.84128 227.211088 
L 231.73632 223.948934 
L 235.5264 216.299745 
L 239.31648 216.299745 
L 241.21152 214.106228 
L 243.10656 212.475151 
L 245.0016 208.650557 
L 246.89664 208.650557 
L 250.68672 205.388403 
L 252.58176 205.388403 
L 254.4768 203.757326 
L 258.26688 199.370292 
L 263.952 199.370292 
L 265.84704 197.739215 
L 267.74208 197.739215 
L 269.63712 192.283544 
L 271.53216 192.283544 
L 273.4272 188.45895 
L 275.32224 186.265432 
L 277.21728 183.003279 
L 279.11232 180.809761 
L 281.00736 180.809761 
L 282.9024 178.616244 
L 286.69248 178.616244 
L 288.58752 174.79165 
L 290.48256 169.335979 
L 292.3776 167.704902 
L 299.95776 167.704902 
L 301.8528 166.073825 
L 303.74784 166.073825 
L 305.64288 162.811671 
L 307.53792 162.811671 
L 309.43296 161.180594 
L 311.328 161.180594 
L 315.11808 157.91844 
L 317.01312 157.91844 
L 322.69824 153.02521 
L 326.48832 153.02521 
L 328.38336 149.763056 
L 332.17344 146.500902 
L 334.06848 143.238748 
L 337.85856 143.238748 
L 339.7536 139.976594 
L 349.2288 139.976594 
L 351.12384 137.783077 
L 353.01888 137.783077 
L 354.91392 136.152 
L 356.80896 132.889846 
L 360.59904 132.889846 
L 362.49408 131.258769 
L 364.38912 131.258769 
L 368.1792 127.996615 
L 375.75936 127.996615 
L 377.6544 124.734462 
L 385.23456 118.210154 
L 387.1296 118.210154 
L 389.02464 116.579077 
L 392.81472 116.579077 
L 396.6048 113.316923 
L 400.39488 113.316923 
L 404.18496 110.054769 
L 415.5552 110.054769 
L 417.45024 108.423692 
L 421.24032 108.423692 
L 423.13536 106.792615 
L 426.92544 106.792615 
L 428.82048 105.161538 
L 453.456 105.161538 
L 455.35104 103.530462 
L 476.19648 103.530462 
L 479.98656 100.268308 
L 485.67168 100.268308 
L 487.56672 98.637231 
L 497.04192 98.637231 
L 498.93696 95.375077 
L 515.99232 95.375077 
L 517.88736 93.744 
L 642.96 93.744 
L 642.96 93.744 
" clip-path="url(#p1fbf099940)" style="fill: none; stroke-dasharray: 6.75,2.7,1.35,2.7; stroke-dashoffset: 0; stroke: #2f8f84; stroke-width: 1.35"/>
   </g>
   <g id="patch_4">
    <path d="M 74.448 348.192 
L 74.448 93.744 
" style="fill: none; stroke: #000000; stroke-width: 0.8; stroke-linejoin: miter; stroke-linecap: square"/>
   </g>
   <g id="patch_5">
    <path d="M 74.448 348.192 
L 642.96 348.192 
" style="fill: none; stroke: #000000; stroke-width: 0.8; stroke-linejoin: miter; stroke-linecap: square"/>
   </g>
  </g>
  <g id="text_16">
   <text style="font: 18px 'DejaVu Sans', 'Bitstream Vera Sans', 'Computer Modern Sans Serif', 'Lucida Grande', 'Verdana', 'Geneva', 'Lucid', 'Arial', 'Helvetica', 'Avant Garde', sans-serif; text-anchor: start" x="74.448" y="38.229188" transform="rotate(-0 74.448 38.229188)">QD-OLED → QDEF LCD</text>
  </g>
  <g id="text_17">
   <text style="fill: #66747c; font: 10px 'DejaVu Sans', 'Bitstream Vera Sans', 'Computer Modern Sans Serif', 'Lucida Grande', 'Verdana', 'Geneva', 'Lucid', 'Arial', 'Helvetica', 'Avant Garde', sans-serif; text-anchor: start" x="74.448" y="64.728" transform="rotate(-0 74.448 64.728)">LED-RGB1</text>
  </g>
  <g id="legend_1">
   <g id="line2d_33">
    <path d="M 185.17875 404.151391 
L 194.27875 404.151391 
L 203.37875 404.151391 
" style="fill: none; stroke: #252525; stroke-width: 2.5; stroke-linecap: square"/>
   </g>
   <g id="text_18">
    <text style="font: 9.1px 'DejaVu Sans', 'Bitstream Vera Sans', 'Computer Modern Sans Serif', 'Lucida Grande', 'Verdana', 'Geneva', 'Lucid', 'Arial', 'Helvetica', 'Avant Garde', sans-serif; text-anchor: start" x="210.65875" y="407.336391" transform="rotate(-0 210.65875 407.336391)">Potera CMF</text>
   </g>
   <g id="line2d_34">
    <path d="M 185.17875 417.508484 
L 194.27875 417.508484 
L 203.37875 417.508484 
" style="fill: none; stroke: #3b83b4; stroke-width: 1.35; stroke-linecap: square"/>
   </g>
   <g id="text_19">
    <text style="font: 9.1px 'DejaVu Sans', 'Bitstream Vera Sans', 'Computer Modern Sans Serif', 'Lucida Grande', 'Verdana', 'Geneva', 'Lucid', 'Arial', 'Helvetica', 'Avant Garde', sans-serif; text-anchor: start" x="210.65875" y="420.693484" transform="rotate(-0 210.65875 420.693484)">CIE 2015 2°</text>
   </g>
   <g id="line2d_35">
    <path d="M 282.931234 404.151391 
L 292.031234 404.151391 
L 301.131234 404.151391 
" style="fill: none; stroke-dasharray: 4.995,2.16; stroke-dashoffset: 0; stroke: #c38a19; stroke-width: 1.35"/>
   </g>
   <g id="text_20">
    <text style="font: 9.1px 'DejaVu Sans', 'Bitstream Vera Sans', 'Computer Modern Sans Serif', 'Lucida Grande', 'Verdana', 'Geneva', 'Lucid', 'Arial', 'Helvetica', 'Avant Garde', sans-serif; text-anchor: start" x="308.411234" y="407.336391" transform="rotate(-0 308.411234 407.336391)">CIE 2015 10°</text>
   </g>
   <g id="line2d_36">
    <path d="M 282.931234 417.508484 
L 292.031234 417.508484 
L 301.131234 417.508484 
" style="fill: none; stroke-dasharray: 1.35,2.2275; stroke-dashoffset: 0; stroke: #7d8a92; stroke-width: 1.35"/>
   </g>
   <g id="text_21">
    <text style="font: 9.1px 'DejaVu Sans', 'Bitstream Vera Sans', 'Computer Modern Sans Serif', 'Lucida Grande', 'Verdana', 'Geneva', 'Lucid', 'Arial', 'Helvetica', 'Avant Garde', sans-serif; text-anchor: start" x="308.411234" y="420.693484" transform="rotate(-0 308.411234 420.693484)">CIE 1964 10°</text>
   </g>
   <g id="line2d_37">
    <path d="M 386.473594 404.151391 
L 395.573594 404.151391 
L 404.673594 404.151391 
" style="fill: none; stroke-dasharray: 8.64,2.16,1.35,2.16; stroke-dashoffset: 0; stroke: #d0526a; stroke-width: 1.35"/>
   </g>
   <g id="text_22">
    <text style="font: 9.1px 'DejaVu Sans', 'Bitstream Vera Sans', 'Computer Modern Sans Serif', 'Lucida Grande', 'Verdana', 'Geneva', 'Lucid', 'Arial', 'Helvetica', 'Avant Garde', sans-serif; text-anchor: start" x="411.953594" y="407.336391" transform="rotate(-0 411.953594 407.336391)">CIE 1931 2°</text>
   </g>
   <g id="line2d_38">
    <path d="M 386.473594 417.508484 
L 395.573594 417.508484 
L 404.673594 417.508484 
" style="fill: none; stroke-dasharray: 6.75,2.7,1.35,2.7; stroke-dashoffset: 0; stroke: #2f8f84; stroke-width: 1.35"/>
   </g>
   <g id="text_23">
    <text style="font: 9.1px 'DejaVu Sans', 'Bitstream Vera Sans', 'Computer Modern Sans Serif', 'Lucida Grande', 'Verdana', 'Geneva', 'Lucid', 'Arial', 'Helvetica', 'Avant Garde', sans-serif; text-anchor: start" x="411.953594" y="420.693484" transform="rotate(-0 411.953594 420.693484)">Judd–Vos 1978 2°</text>
   </g>
  </g>
 </g>
 <defs>
  <clipPath id="p1fbf099940">
   <rect x="74.448" y="93.744" width="568.512" height="254.448"/>
  </clipPath>
 </defs>
</svg>
