<?xml version="1.0" encoding="utf-8" standalone="no"?>
<!DOCTYPE svg PUBLIC "-//W3C//DTD SVG 1.1//EN"
  "http://www.w3.org/Graphics/SVG/1.1/DTD/svg11.dtd">
<svg xmlns:xlink="http://www.w3.org/1999/xlink" width="676.8pt" height="446.4pt" viewBox="0 0 676.8 446.4" xmlns="http://www.w3.org/2000/svg" version="1.1">
 <metadata>
  <rdf:RDF xmlns:dc="http://purl.org/dc/elements/1.1/" xmlns:cc="http://creativecommons.org/ns#" xmlns:rdf="http://www.w3.org/1999/02/22-rdf-syntax-ns#">
   <cc:Work>
    <dc:type rdf:resource="http://purl.org/dc/dcmitype/StillImage"/>
    <dc:date>2026-07-20T06:42:01.440917</dc:date>
    <dc:format>image/svg+xml</dc:format>
    <dc:creator>
     <cc:Agent>
      <dc:title>Matplotlib v3.9.4, https://matplotlib.org/</dc:title>
     </cc:Agent>
    </dc:creator>
   </cc:Work>
  </rdf:RDF>
 </metadata>
 <defs>
  <style type="text/css">*{stroke-linejoin: round; stroke-linecap: butt}</style>
 </defs>
 <g id="figure_1">
  <g id="patch_1">
   <path d="M 0 446.4 
L 676.8 446.4 
L 676.8 0 
L 0 0 
z
" style="fill: #ffffff"/>
  </g>
  <g id="axes_1">
   <g id="patch_2">
    <path d="M 74.448 348.192 
L 642.96 348.192 
L 642.96 93.744 
L 74.448 93.744 
z
" style="fill: #ffffff"/>
   </g>
   <g id="patch_3">
    <path d="M 169.2 348.192 
L 358.704 348.192 
L 358.704 93.744 
L 169.2 93.744 
z
" clip-path="url(#p757b4b2e23)" style="fill: #e7f0ea; opacity: 0.58; stroke: #e7f0ea; stroke-linejoin: miter"/>
   </g>
   <g id="matplotlib.axis_1">
    <g id="xtick_1">
     <g id="line2d_1">
      <path d="M 74.448 348.192 
L 74.448 93.744 
" clip-path="url(#p757b4b2e23)" style="fill: none; stroke: #dfe5e8; stroke-width: 0.65; stroke-linecap: square"/>
     </g>
     <g id="line2d_2">
      <defs>
       <path id="m808ed59165" d="M 0 0 
L 0 3.5 
" style="stroke: #000000; stroke-width: 0.8"/>
      </defs>
      <g>
       <use xlink:href="#m808ed59165" x="74.448" y="348.192" style="stroke: #000000; stroke-width: 0.8"/>
      </g>
     </g>
     <g id="text_1">
      <text style="font: 10px 'DejaVu Sans', 'Bitstream Vera Sans', 'Computer Modern Sans Serif', 'Lucida Grande', 'Verdana', 'Geneva', 'Lucid', 'Arial', 'Helvetica', 'Avant Garde', sans-serif; text-anchor: middle" x="74.448" y="362.790438" transform="rotate(-0 74.448 362.790438)">0</text>
     </g>
    </g>
    <g id="xtick_2">
     <g id="line2d_3">
      <path d="M 169.2 348.192 
L 169.2 93.744 
" clip-path="url(#p757b4b2e23)" style="fill: none; stroke: #dfe5e8; stroke-width: 0.65; stroke-linecap: square"/>
     </g>
     <g id="line2d_4">
      <g>
       <use xlink:href="#m808ed59165" x="169.2" y="348.192" style="stroke: #000000; stroke-width: 0.8"/>
      </g>
     </g>
     <g id="text_2">
      <text style="font: 10px 'DejaVu Sans', 'Bitstream Vera Sans', 'Computer Modern Sans Serif', 'Lucida Grande', 'Verdana', 'Geneva', 'Lucid', 'Arial', 'Helvetica', 'Avant Garde', sans-serif; text-anchor: middle" x="169.2" y="362.790438" transform="rotate(-0 169.2 362.790438)">1</text>
     </g>
    </g>
    <g id="xtick_3">
     <g id="line2d_5">
      <path d="M 263.952 348.192 
L 263.952 93.744 
" clip-path="url(#p757b4b2e23)" style="fill: none; stroke: #dfe5e8; stroke-width: 0.65; stroke-linecap: square"/>
     </g>
     <g id="line2d_6">
      <g>
       <use xlink:href="#m808ed59165" x="263.952" y="348.192" style="stroke: #000000; stroke-width: 0.8"/>
      </g>
     </g>
     <g id="text_3">
      <text style="font: 10px 'DejaVu Sans', 'Bitstream Vera Sans', 'Computer Modern Sans Serif', 'Lucida Grande', 'Verdana', 'Geneva', 'Lucid', 'Arial', 'Helvetica', 'Avant Garde', sans-serif; text-anchor: middle" x="263.952" y="362.790438" transform="rotate(-0 263.952 362.790438)">2</text>
     </g>
    </g>
    <g id="xtick_4">
     <g id="line2d_7">
      <path d="M 358.704 348.192 
L 358.704 93.744 
" clip-path="url(#p757b4b2e23)" style="fill: none; stroke: #dfe5e8; stroke-width: 0.65; stroke-linecap: square"/>
     </g>
     <g id="line2d_8">
      <g>
       <use xlink:href="#m808ed59165" x="358.704" y="348.192" style="stroke: #000000; stroke-width: 0.8"/>
      </g>
     </g>
     <g id="text_4">
      <text style="font: 10px 'DejaVu Sans', 'Bitstream Vera Sans', 'Computer Modern Sans Serif', 'Lucida Grande', 'Verdana', 'Geneva', 'Lucid', 'Arial', 'Helvetica', 'Avant Garde', sans-serif; text-anchor: middle" x="358.704" y="362.790438" transform="rotate(-0 358.704 362.790438)">3</text>
     </g>
    </g>
    <g id="xtick_5">
     <g id="line2d_9">
      <path d="M 453.456 348.192 
L 453.456 93.744 
" clip-path="url(#p757b4b2e23)" style="fill: none; stroke: #dfe5e8; stroke-width: 0.65; stroke-linecap: square"/>
     </g>
     <g id="line2d_10">
      <g>
       <use xlink:href="#m808ed59165" x="453.456" y="348.192" style="stroke: #000000; stroke-width: 0.8"/>
      </g>
     </g>
     <g id="text_5">
      <text style="font: 10px 'DejaVu Sans', 'Bitstream Vera Sans', 'Computer Modern Sans Serif', 'Lucida Grande', 'Verdana', 'Geneva', 'Lucid', 'Arial', 'Helvetica', 'Avant Garde', sans-serif; text-anchor: middle" x="453.456" y="362.790438" transform="rotate(-0 453.456 362.790438)">4</text>
     </g>
    </g>
    <g id="xtick_6">
     <g id="line2d_11">
      <path d="M 548.208 348.192 
L 548.208 93.744 
" clip-path="url(#p757b4b2e23)" style="fill: none; stroke: #dfe5e8; stroke-width: 0.65; stroke-linecap: square"/>
     </g>
     <g id="line2d_12">
      <g>
       <use xlink:href="#m808ed59165" x="548.208" y="348.192" style="stroke: #000000; stroke-width: 0.8"/>
      </g>
     </g>
     <g id="text_6">
      <text style="font: 10px 'DejaVu Sans', 'Bitstream Vera Sans', 'Computer Modern Sans Serif', 'Lucida Grande', 'Verdana', 'Geneva', 'Lucid', 'Arial', 'Helvetica', 'Avant Garde', sans-serif; text-anchor: middle" x="548.208" y="362.790438" transform="rotate(-0 548.208 362.790438)">5</text>
     </g>
    </g>
    <g id="xtick_7">
     <g id="line2d_13">
      <path d="M 642.96 348.192 
L 642.96 93.744 
" clip-path="url(#p757b4b2e23)" style="fill: none; stroke: #dfe5e8; stroke-width: 0.65; stroke-linecap: square"/>
     </g>
     <g id="line2d_14">
      <g>
       <use xlink:href="#m808ed59165" x="642.96" y="348.192" style="stroke: #000000; stroke-width: 0.8"/>
      </g>
     </g>
     <g id="text_7">
      <text style="font: 10px 'DejaVu Sans', 'Bitstream Vera Sans', 'Computer Modern Sans Serif', 'Lucida Grande', 'Verdana', 'Geneva', 'Lucid', 'Arial', 'Helvetica', 'Avant Garde', sans-serif; text-anchor: middle" x="642.96" y="362.790438" transform="rotate(-0 642.96 362.790438)">6</text>
     </g>
    </g>
    <g id="text_8">
     <text style="font: 10px 'DejaVu Sans', 'Bitstream Vera Sans', 'Computer Modern Sans Serif', 'Lucida Grande', 'Verdana', 'Geneva', 'Lucid', 'Arial', 'Helvetica', 'Avant Garde', sans-serif; text-anchor: middle" x="358.704" y="376.468563" transform="rotate(-0 358.704 376.468563)">sUCS dE threshold</text>
    </g>
   </g>
   <g id="matplotlib.axis_2">
    <g id="ytick_1">
     <g id="line2d_15">
      <path d="M 74.448 348.192 
L 642.96 348.192 
" clip-path="url(#p757b4b2e23)" style="fill: none; stroke: #dfe5e8; stroke-width: 0.65; stroke-linecap: square"/>
     </g>
     <g id="line2d_16">
      <defs>
       <path id="m1bbf4ff3c2" d="M 0 0 
L -3.5 0 
" style="stroke: #000000; stroke-width: 0.8"/>
      </defs>
      <g>
       <use xlink:href="#m1bbf4ff3c2" x="74.448" y="348.192" style="stroke: #000000; stroke-width: 0.8"/>
      </g>
     </g>
     <g id="text_9">
      <text style="font: 10px 'DejaVu Sans', 'Bitstream Vera Sans', 'Computer Modern Sans Serif', 'Lucida Grande', 'Verdana', 'Geneva', 'Lucid', 'Arial', 'Helvetica', 'Avant Garde', sans-serif; text-anchor: end" x="67.448" y="351.991219" transform="rotate(-0 67.448 351.991219)">0</text>
     </g>
    </g>
    <g id="ytick_2">
     <g id="line2d_17">
      <path d="M 74.448 297.3024 
L 642.96 297.3024 
" clip-path="url(#p757b4b2e23)" style="fill: none; stroke: #dfe5e8; stroke-width: 0.65; stroke-linecap: square"/>
     </g>
     <g id="line2d_18">
      <g>
       <use xlink:href="#m1bbf4ff3c2" x="74.448" y="297.3024" style="stroke: #000000; stroke-width: 0.8"/>
      </g>
     </g>
     <g id="text_10">
      <text style="font: 10px 'DejaVu Sans', 'Bitstream Vera Sans', 'Computer Modern Sans Serif', 'Lucida Grande', 'Verdana', 'Geneva', 'Lucid', 'Arial', 'Helvetica', 'Avant Garde', sans-serif; text-anchor: end" x="67.448" y="301.101619" transform="rotate(-0 67.448 301.101619)">20</text>
     </g>
    </g>
    <g id="ytick_3">
     <g id="line2d_19">
      <path d="M 74.448 246.4128 
L 642.96 246.4128 
" clip-path="url(#p757b4b2e23)" style="fill: none; stroke: #dfe5e8; stroke-width: 0.65; stroke-linecap: square"/>
     </g>
     <g id="line2d_20">
      <g>
       <use xlink:href="#m1bbf4ff3c2" x="74.448" y="246.4128" style="stroke: #000000; stroke-width: 0.8"/>
      </g>
     </g>
     <g id="text_11">
      <text style="font: 10px 'DejaVu Sans', 'Bitstream Vera Sans', 'Computer Modern Sans Serif', 'Lucida Grande', 'Verdana', 'Geneva', 'Lucid', 'Arial', 'Helvetica', 'Avant Garde', sans-serif; text-anchor: end" x="67.448" y="250.212019" transform="rotate(-0 67.448 250.212019)">40</text>
     </g>
    </g>
    <g id="ytick_4">
     <g id="line2d_21">
      <path d="M 74.448 195.5232 
L 642.96 195.5232 
" clip-path="url(#p757b4b2e23)" style="fill: none; stroke: #dfe5e8; stroke-width: 0.65; stroke-linecap: square"/>
     </g>
     <g id="line2d_22">
      <g>
       <use xlink:href="#m1bbf4ff3c2" x="74.448" y="195.5232" style="stroke: #000000; stroke-width: 0.8"/>
      </g>
     </g>
     <g id="text_12">
      <text style="font: 10px 'DejaVu Sans', 'Bitstream Vera Sans', 'Computer Modern Sans Serif', 'Lucida Grande', 'Verdana', 'Geneva', 'Lucid', 'Arial', 'Helvetica', 'Avant Garde', sans-serif; text-anchor: end" x="67.448" y="199.322419" transform="rotate(-0 67.448 199.322419)">60</text>
     </g>
    </g>
    <g id="ytick_5">
     <g id="line2d_23">
      <path d="M 74.448 144.6336 
L 642.96 144.6336 
" clip-path="url(#p757b4b2e23)" style="fill: none; stroke: #dfe5e8; stroke-width: 0.65; stroke-linecap: square"/>
     </g>
     <g id="line2d_24">
      <g>
       <use xlink:href="#m1bbf4ff3c2" x="74.448" y="144.6336" style="stroke: #000000; stroke-width: 0.8"/>
      </g>
     </g>
     <g id="text_13">
      <text style="font: 10px 'DejaVu Sans', 'Bitstream Vera Sans', 'Computer Modern Sans Serif', 'Lucida Grande', 'Verdana', 'Geneva', 'Lucid', 'Arial', 'Helvetica', 'Avant Garde', sans-serif; text-anchor: end" x="67.448" y="148.432819" transform="rotate(-0 67.448 148.432819)">80</text>
     </g>
    </g>
    <g id="ytick_6">
     <g id="line2d_25">
      <path d="M 74.448 93.744 
L 642.96 93.744 
" clip-path="url(#p757b4b2e23)" style="fill: none; stroke: #dfe5e8; stroke-width: 0.65; stroke-linecap: square"/>
     </g>
     <g id="line2d_26">
      <g>
       <use xlink:href="#m1bbf4ff3c2" x="74.448" y="93.744" style="stroke: #000000; stroke-width: 0.8"/>
      </g>
     </g>
     <g id="text_14">
      <text style="font: 10px 'DejaVu Sans', 'Bitstream Vera Sans', 'Computer Modern Sans Serif', 'Lucida Grande', 'Verdana', 'Geneva', 'Lucid', 'Arial', 'Helvetica', 'Avant Garde', sans-serif; text-anchor: end" x="67.448" y="97.543219" transform="rotate(-0 67.448 97.543219)">100</text>
     </g>
    </g>
    <g id="text_15">
     <text style="font: 10px 'DejaVu Sans', 'Bitstream Vera Sans', 'Computer Modern Sans Serif', 'Lucida Grande', 'Verdana', 'Geneva', 'Lucid', 'Arial', 'Helvetica', 'Avant Garde', sans-serif; text-anchor: middle" x="42.280812" y="220.968" transform="rotate(-90 42.280812 220.968)">observers%</text>
    </g>
   </g>
   <g id="line2d_27">
    <path d="M 74.448 348.192 
L 80.13312 348.192 
L 82.02816 345.998483 
L 83.9232 345.998483 
L 85.81824 344.367406 
L 91.50336 344.367406 
L 95.29344 339.980371 
L 100.97856 339.980371 
L 102.8736 336.718218 
L 104.76864 334.5247 
L 106.66368 334.5247 
L 108.55872 326.313072 
L 112.3488 326.313072 
L 114.24384 322.488477 
L 119.92896 317.595247 
L 125.61408 311.014695 
L 127.50912 311.014695 
L 129.40416 308.821178 
L 131.2992 303.365507 
L 136.98432 298.472276 
L 138.87936 295.210122 
L 140.7744 289.754451 
L 142.66944 289.754451 
L 144.56448 285.929857 
L 146.45952 285.929857 
L 150.2496 282.667703 
L 152.14464 278.843109 
L 154.03968 275.580955 
L 157.82976 265.794493 
L 159.7248 264.163416 
L 161.61984 264.163416 
L 163.51488 260.338822 
L 167.30496 255.951788 
L 171.09504 252.689634 
L 174.88512 246.165326 
L 176.78016 239.078578 
L 178.6752 233.060467 
L 180.57024 229.235873 
L 182.46528 227.604796 
L 184.36032 224.342642 
L 186.25536 224.342642 
L 188.1504 222.711565 
L 191.94048 218.324531 
L 193.83552 216.693454 
L 195.73056 216.693454 
L 197.6256 214.499936 
L 199.52064 212.868859 
L 201.41568 210.675342 
L 203.31072 210.675342 
L 205.20576 209.044265 
L 208.99584 201.395077 
L 210.89088 199.764 
L 212.78592 199.764 
L 214.68096 195.376966 
L 216.576 193.183448 
L 218.47104 191.552371 
L 220.36608 188.290218 
L 222.26112 186.0967 
L 224.15616 184.465623 
L 226.0512 182.272106 
L 227.94624 182.272106 
L 229.84128 180.641029 
L 231.73632 177.378875 
L 235.5264 177.378875 
L 243.10656 170.854568 
L 245.0016 170.854568 
L 246.89664 168.66105 
L 248.79168 167.029973 
L 250.68672 167.029973 
L 252.58176 165.398897 
L 254.4768 165.398897 
L 256.37184 163.205379 
L 258.26688 159.943225 
L 260.16192 158.312149 
L 263.952 158.312149 
L 265.84704 156.118631 
L 269.63712 156.118631 
L 271.53216 149.53808 
L 273.4272 146.275926 
L 277.21728 146.275926 
L 279.11232 142.451332 
L 281.00736 142.451332 
L 282.9024 140.257814 
L 286.69248 140.257814 
L 288.58752 138.064297 
L 298.06272 138.064297 
L 299.95776 135.87078 
L 301.8528 135.87078 
L 305.64288 131.483745 
L 309.43296 131.483745 
L 311.328 125.465634 
L 313.22304 123.272117 
L 326.48832 123.272117 
L 328.38336 121.078599 
L 332.17344 121.078599 
L 334.06848 118.885082 
L 337.85856 115.622928 
L 341.64864 115.622928 
L 343.54368 113.991851 
L 345.43872 111.798334 
L 353.01888 111.798334 
L 354.91392 110.167257 
L 356.80896 107.97374 
L 362.49408 107.97374 
L 364.38912 106.342663 
L 371.96928 106.342663 
L 375.75936 101.955629 
L 377.6544 101.955629 
L 379.54944 100.324552 
L 385.23456 100.324552 
L 389.02464 95.937517 
L 445.87584 95.937517 
L 447.77088 93.744 
L 642.96 93.744 
L 642.96 93.744 
" clip-path="url(#p757b4b2e23)" style="fill: none; stroke: #252525; stroke-width: 2.5; stroke-linecap: square"/>
   </g>
   <g id="line2d_28">
    <path d="M 74.448 348.192 
L 93.3984 348.192 
L 95.29344 343.804966 
L 100.97856 343.804966 
L 104.76864 339.417931 
L 112.3488 339.417931 
L 114.24384 337.224414 
L 116.13888 337.224414 
L 121.824 330.643862 
L 123.71904 330.643862 
L 125.61408 326.819268 
L 127.50912 325.188191 
L 135.08928 325.188191 
L 142.66944 316.414122 
L 146.45952 316.414122 
L 148.35456 312.589528 
L 150.2496 306.008976 
L 154.03968 306.008976 
L 155.93472 303.815459 
L 157.82976 303.815459 
L 159.7248 301.621942 
L 161.61984 301.621942 
L 163.51488 299.990865 
L 167.30496 299.990865 
L 169.2 297.797347 
L 171.09504 296.166271 
L 172.99008 290.148159 
L 174.88512 287.954642 
L 176.78016 286.323565 
L 178.6752 281.936531 
L 180.57024 279.743013 
L 182.46528 275.918419 
L 184.36032 272.656265 
L 186.25536 266.638154 
L 188.1504 262.251119 
L 190.04544 260.620042 
L 191.94048 260.620042 
L 193.83552 256.233008 
L 197.6256 256.233008 
L 199.52064 254.601931 
L 201.41568 250.214897 
L 203.31072 246.390302 
L 207.1008 237.616233 
L 208.99584 235.422716 
L 210.89088 233.791639 
L 212.78592 233.791639 
L 214.68096 229.967045 
L 216.576 228.335968 
L 218.47104 225.073814 
L 220.36608 225.073814 
L 224.15616 221.81166 
L 226.0512 216.355989 
L 227.94624 214.162472 
L 229.84128 214.162472 
L 231.73632 211.968955 
L 233.63136 211.968955 
L 235.5264 208.144361 
L 241.21152 208.144361 
L 243.10656 201.563809 
L 245.0016 199.932732 
L 246.89664 196.108138 
L 248.79168 194.477061 
L 250.68672 190.652467 
L 252.58176 189.02139 
L 256.37184 189.02139 
L 258.26688 187.390313 
L 260.16192 183.565719 
L 262.05696 181.372202 
L 263.952 177.547607 
L 265.84704 177.547607 
L 267.74208 175.916531 
L 271.53216 175.916531 
L 273.4272 172.091936 
L 281.00736 172.091936 
L 282.9024 169.898419 
L 284.79744 168.267342 
L 288.58752 161.743034 
L 296.16768 161.743034 
L 298.06272 160.111958 
L 299.95776 160.111958 
L 303.74784 153.58765 
L 311.328 147.063342 
L 313.22304 143.801188 
L 315.11808 141.607671 
L 318.90816 141.607671 
L 320.8032 139.976594 
L 324.59328 139.976594 
L 326.48832 137.783077 
L 328.38336 137.783077 
L 330.2784 136.152 
L 334.06848 136.152 
L 335.96352 134.520923 
L 337.85856 134.520923 
L 341.64864 131.258769 
L 349.2288 131.258769 
L 354.91392 126.365538 
L 358.704 126.365538 
L 360.59904 124.734462 
L 362.49408 124.734462 
L 368.1792 119.841231 
L 370.07424 119.841231 
L 373.86432 116.579077 
L 377.6544 116.579077 
L 379.54944 114.948 
L 381.44448 114.948 
L 383.33952 113.316923 
L 387.1296 113.316923 
L 390.91968 110.054769 
L 400.39488 110.054769 
L 402.28992 108.423692 
L 404.18496 108.423692 
L 407.97504 105.161538 
L 436.40064 105.161538 
L 438.29568 103.530462 
L 464.82624 103.530462 
L 466.72128 100.268308 
L 470.51136 100.268308 
L 472.4064 98.637231 
L 485.67168 98.637231 
L 487.56672 97.006154 
L 489.46176 97.006154 
L 491.3568 95.375077 
L 500.832 95.375077 
L 502.72704 93.744 
L 642.96 93.744 
L 642.96 93.744 
" clip-path="url(#p757b4b2e23)" style="fill: none; stroke: #3b83b4; stroke-width: 1.35; stroke-linecap: square"/>
   </g>
   <g id="line2d_29">
    <path d="M 74.448 348.192 
L 89.60832 348.192 
L 91.50336 346.560923 
L 93.3984 346.560923 
L 95.29344 343.298769 
L 97.18848 343.298769 
L 99.08352 341.667692 
L 102.8736 341.667692 
L 104.76864 340.036615 
L 108.55872 333.512308 
L 110.45376 328.056637 
L 112.3488 328.056637 
L 114.24384 321.532329 
L 116.13888 321.532329 
L 118.03392 319.338812 
L 121.824 319.338812 
L 123.71904 317.707735 
L 125.61408 317.707735 
L 127.50912 311.689623 
L 129.40416 311.689623 
L 131.2992 308.427469 
L 133.19424 308.427469 
L 135.08928 305.165316 
L 138.87936 301.903162 
L 140.7744 301.903162 
L 142.66944 294.816414 
L 144.56448 294.816414 
L 146.45952 293.185337 
L 148.35456 290.99182 
L 152.14464 280.080477 
L 154.03968 277.88696 
L 155.93472 277.88696 
L 157.82976 276.255883 
L 159.7248 270.800212 
L 161.61984 268.606695 
L 163.51488 265.344541 
L 165.40992 258.257793 
L 167.30496 256.064276 
L 169.2 252.802122 
L 172.99008 249.539968 
L 174.88512 245.715374 
L 176.78016 245.715374 
L 178.6752 240.822143 
L 180.57024 240.822143 
L 182.46528 236.997549 
L 184.36032 235.366472 
L 186.25536 235.366472 
L 188.1504 231.541878 
L 190.04544 229.910801 
L 191.94048 227.717284 
L 195.73056 224.45513 
L 197.6256 221.192976 
L 199.52064 219.561899 
L 201.41568 219.561899 
L 203.31072 216.299745 
L 205.20576 216.299745 
L 207.1008 213.037592 
L 208.99584 213.037592 
L 210.89088 211.406515 
L 212.78592 209.212997 
L 216.576 205.950844 
L 220.36608 205.950844 
L 224.15616 202.68869 
L 227.94624 202.68869 
L 229.84128 200.495172 
L 231.73632 196.108138 
L 233.63136 193.914621 
L 235.5264 193.914621 
L 237.42144 192.283544 
L 239.31648 190.090027 
L 241.21152 190.090027 
L 243.10656 188.45895 
L 245.0016 184.071915 
L 248.79168 184.071915 
L 250.68672 181.878398 
L 252.58176 181.878398 
L 254.4768 179.684881 
L 258.26688 179.684881 
L 260.16192 177.491363 
L 265.84704 172.598133 
L 267.74208 172.598133 
L 271.53216 168.211098 
L 273.4272 166.580021 
L 275.32224 166.580021 
L 277.21728 164.948944 
L 281.00736 164.948944 
L 282.9024 162.755427 
L 284.79744 158.368393 
L 286.69248 152.912721 
L 294.27264 152.912721 
L 296.16768 151.281645 
L 298.06272 151.281645 
L 299.95776 149.650568 
L 311.328 149.650568 
L 313.22304 148.019491 
L 315.11808 145.825973 
L 322.69824 145.825973 
L 324.59328 143.632456 
L 326.48832 142.001379 
L 332.17344 142.001379 
L 337.85856 135.420828 
L 339.7536 135.420828 
L 341.64864 133.22731 
L 343.54368 133.22731 
L 345.43872 131.033793 
L 349.2288 131.033793 
L 353.01888 126.646759 
L 364.38912 126.646759 
L 366.28416 124.453241 
L 368.1792 124.453241 
L 370.07424 122.259724 
L 371.96928 122.259724 
L 373.86432 120.066207 
L 377.6544 120.066207 
L 379.54944 117.87269 
L 381.44448 113.485655 
L 396.6048 113.485655 
L 400.39488 109.098621 
L 411.76512 109.098621 
L 413.66016 106.905103 
L 425.0304 106.905103 
L 426.92544 104.711586 
L 436.40064 104.711586 
L 438.29568 102.518069 
L 442.08576 102.518069 
L 443.9808 100.324552 
L 455.35104 100.324552 
L 457.24608 95.937517 
L 514.09728 95.937517 
L 515.99232 93.744 
L 642.96 93.744 
L 642.96 93.744 
" clip-path="url(#p757b4b2e23)" style="fill: none; stroke-dasharray: 4.995,2.16; stroke-dashoffset: 0; stroke: #c38a19; stroke-width: 1.35"/>
   </g>
   <g id="line2d_30">
    <path d="M 74.448 348.192 
L 89.60832 348.192 
L 91.50336 345.998483 
L 93.3984 345.998483 
L 95.29344 342.173889 
L 106.66368 342.173889 
L 108.55872 340.542812 
L 110.45376 340.542812 
L 114.24384 336.155777 
L 118.03392 336.155777 
L 119.92896 332.331183 
L 125.61408 332.331183 
L 127.50912 330.700106 
L 135.08928 330.700106 
L 136.98432 326.313072 
L 138.87936 326.313072 
L 140.7744 322.488477 
L 142.66944 322.488477 
L 144.56448 320.29496 
L 146.45952 316.470366 
L 148.35456 314.839289 
L 154.03968 314.839289 
L 155.93472 311.014695 
L 157.82976 307.752541 
L 159.7248 303.365507 
L 161.61984 303.365507 
L 163.51488 299.540912 
L 165.40992 299.540912 
L 167.30496 294.647682 
L 169.2 290.823088 
L 171.09504 290.823088 
L 174.88512 276.649592 
L 178.6752 272.262557 
L 180.57024 269.000403 
L 182.46528 266.806886 
L 184.36032 265.175809 
L 186.25536 261.913655 
L 188.1504 260.282578 
L 190.04544 257.020424 
L 191.94048 255.389347 
L 193.83552 251.564753 
L 199.52064 246.671523 
L 203.31072 240.147215 
L 210.89088 233.622907 
L 214.68096 227.098599 
L 216.576 220.011851 
L 218.47104 213.99374 
L 220.36608 210.169146 
L 222.26112 206.906992 
L 224.15616 205.275915 
L 226.0512 201.451321 
L 227.94624 199.257804 
L 229.84128 199.257804 
L 231.73632 191.102419 
L 233.63136 187.277825 
L 235.5264 187.277825 
L 237.42144 181.259714 
L 239.31648 181.259714 
L 241.21152 175.804042 
L 243.10656 174.172966 
L 248.79168 174.172966 
L 250.68672 171.979448 
L 252.58176 167.592414 
L 256.37184 167.592414 
L 258.26688 164.33026 
L 260.16192 164.33026 
L 262.05696 161.068106 
L 273.4272 161.068106 
L 275.32224 158.874589 
L 281.00736 158.874589 
L 282.9024 157.243512 
L 284.79744 152.856477 
L 296.16768 152.856477 
L 298.06272 150.66296 
L 299.95776 149.031883 
L 301.8528 145.207289 
L 303.74784 140.820255 
L 311.328 140.820255 
L 315.11808 137.558101 
L 320.8032 137.558101 
L 324.59328 133.171066 
L 332.17344 133.171066 
L 334.06848 129.346472 
L 335.96352 127.152955 
L 337.85856 127.152955 
L 339.7536 121.697284 
L 341.64864 119.503767 
L 345.43872 119.503767 
L 347.33376 117.310249 
L 349.2288 115.679172 
L 351.12384 113.485655 
L 360.59904 113.485655 
L 362.49408 111.292138 
L 373.86432 111.292138 
L 375.75936 109.098621 
L 379.54944 109.098621 
L 383.33952 104.711586 
L 402.28992 104.711586 
L 404.18496 102.518069 
L 417.45024 102.518069 
L 419.34528 95.937517 
L 468.61632 95.937517 
L 470.51136 93.744 
L 642.96 93.744 
L 642.96 93.744 
" clip-path="url(#p757b4b2e23)" style="fill: none; stroke-dasharray: 1.35,2.2275; stroke-dashoffset: 0; stroke: #7d8a92; stroke-width: 1.35"/>
   </g>
   <g id="line2d_31">
    <path d="M 74.448 348.192 
L 129.40416 348.192 
L 131.2992 345.998483 
L 135.08928 345.998483 
L 136.98432 343.804966 
L 154.03968 343.804966 
L 155.93472 341.611448 
L 159.7248 341.611448 
L 165.40992 335.030897 
L 174.88512 335.030897 
L 176.78016 332.837379 
L 178.6752 328.450345 
L 180.57024 326.819268 
L 188.1504 326.819268 
L 190.04544 324.625751 
L 191.94048 320.238716 
L 199.52064 320.238716 
L 201.41568 315.851682 
L 203.31072 313.658164 
L 210.89088 313.658164 
L 214.68096 309.27113 
L 216.576 309.27113 
L 218.47104 304.884095 
L 220.36608 301.059501 
L 222.26112 299.428424 
L 224.15616 297.234907 
L 226.0512 295.60383 
L 227.94624 291.216796 
L 229.84128 291.216796 
L 231.73632 289.023279 
L 233.63136 284.636244 
L 235.5264 284.636244 
L 237.42144 278.055692 
L 239.31648 275.862175 
L 241.21152 275.862175 
L 243.10656 273.668658 
L 246.89664 273.668658 
L 248.79168 271.475141 
L 252.58176 262.701072 
L 262.05696 262.701072 
L 265.84704 258.314037 
L 269.63712 258.314037 
L 271.53216 256.68296 
L 273.4272 256.68296 
L 275.32224 254.489443 
L 277.21728 252.858366 
L 279.11232 250.664849 
L 281.00736 244.646737 
L 282.9024 240.822143 
L 284.79744 237.559989 
L 286.69248 233.735395 
L 288.58752 233.735395 
L 290.48256 231.541878 
L 292.3776 229.910801 
L 294.27264 229.910801 
L 296.16768 226.086207 
L 298.06272 224.45513 
L 299.95776 224.45513 
L 301.8528 220.068095 
L 303.74784 220.068095 
L 305.64288 215.681061 
L 307.53792 211.856467 
L 309.43296 210.22539 
L 311.328 210.22539 
L 313.22304 206.963236 
L 315.11808 204.769719 
L 318.90816 201.507565 
L 322.69824 197.120531 
L 324.59328 195.489454 
L 326.48832 195.489454 
L 328.38336 192.2273 
L 334.06848 192.2273 
L 335.96352 190.033782 
L 337.85856 188.402706 
L 339.7536 185.140552 
L 341.64864 185.140552 
L 343.54368 183.509475 
L 345.43872 183.509475 
L 347.33376 181.878398 
L 349.2288 181.878398 
L 351.12384 178.616244 
L 354.91392 178.616244 
L 356.80896 175.35409 
L 360.59904 175.35409 
L 362.49408 171.529496 
L 368.1792 171.529496 
L 370.07424 169.898419 
L 371.96928 167.704902 
L 377.6544 167.704902 
L 379.54944 166.073825 
L 381.44448 162.811671 
L 387.1296 162.811671 
L 389.02464 159.549517 
L 390.91968 157.91844 
L 392.81472 157.91844 
L 398.49984 153.02521 
L 400.39488 149.763056 
L 402.28992 148.131979 
L 404.18496 141.607671 
L 406.08 141.607671 
L 407.97504 139.414154 
L 415.5552 139.414154 
L 417.45024 137.783077 
L 419.34528 137.783077 
L 421.24032 134.520923 
L 428.82048 134.520923 
L 432.61056 131.258769 
L 440.19072 131.258769 
L 442.08576 129.627692 
L 443.9808 126.365538 
L 445.87584 126.365538 
L 447.77088 124.734462 
L 451.56096 124.734462 
L 453.456 123.103385 
L 455.35104 123.103385 
L 457.24608 121.472308 
L 459.14112 121.472308 
L 466.72128 114.948 
L 472.4064 114.948 
L 478.09152 110.054769 
L 489.46176 110.054769 
L 495.14688 105.161538 
L 515.99232 105.161538 
L 517.88736 103.530462 
L 542.52288 103.530462 
L 544.41792 101.899385 
L 548.208 101.899385 
L 550.10304 100.268308 
L 563.36832 100.268308 
L 565.26336 98.637231 
L 570.94848 98.637231 
L 574.73856 95.375077 
L 580.42368 95.375077 
L 582.31872 93.744 
L 642.96 93.744 
L 642.96 93.744 
" clip-path="url(#p757b4b2e23)" style="fill: none; stroke-dasharray: 8.64,2.16,1.35,2.16; stroke-dashoffset: 0; stroke: #d0526a; stroke-width: 1.35"/>
   </g>
   <g id="line2d_32">
    <path d="M 74.448 348.192 
L 91.50336 348.192 
L 93.3984 345.998483 
L 110.45376 345.998483 
L 112.3488 343.804966 
L 114.24384 343.804966 
L 116.13888 341.611448 
L 121.824 341.611448 
L 125.61408 337.224414 
L 131.2992 337.224414 
L 133.19424 335.030897 
L 136.98432 335.030897 
L 138.87936 332.837379 
L 140.7744 326.256828 
L 142.66944 326.256828 
L 144.56448 324.06331 
L 148.35456 324.06331 
L 150.2496 322.432233 
L 154.03968 318.045199 
L 161.61984 318.045199 
L 163.51488 315.851682 
L 165.40992 315.851682 
L 167.30496 313.658164 
L 169.2 313.658164 
L 171.09504 312.027088 
L 172.99008 306.008976 
L 174.88512 306.008976 
L 176.78016 304.377899 
L 178.6752 304.377899 
L 180.57024 302.184382 
L 182.46528 295.60383 
L 184.36032 293.410313 
L 186.25536 293.410313 
L 190.04544 289.023279 
L 193.83552 289.023279 
L 195.73056 286.829761 
L 197.6256 282.442727 
L 201.41568 278.055692 
L 207.1008 278.055692 
L 208.99584 275.862175 
L 210.89088 275.862175 
L 216.576 269.281623 
L 218.47104 269.281623 
L 220.36608 267.650546 
L 222.26112 265.457029 
L 224.15616 261.069995 
L 226.0512 258.876477 
L 227.94624 258.876477 
L 229.84128 257.245401 
L 231.73632 250.664849 
L 233.63136 247.402695 
L 237.42144 247.402695 
L 239.31648 243.578101 
L 241.21152 236.491353 
L 246.89664 236.491353 
L 248.79168 234.297836 
L 250.68672 232.666759 
L 254.4768 232.666759 
L 256.37184 230.473241 
L 260.16192 222.824053 
L 262.05696 220.630536 
L 263.952 215.174865 
L 265.84704 211.350271 
L 267.74208 211.350271 
L 269.63712 209.719194 
L 273.4272 205.332159 
L 275.32224 202.070005 
L 277.21728 202.070005 
L 279.11232 200.438928 
L 281.00736 200.438928 
L 282.9024 198.807851 
L 284.79744 198.807851 
L 288.58752 194.420817 
L 290.48256 194.420817 
L 292.3776 192.78974 
L 294.27264 190.596223 
L 296.16768 190.596223 
L 298.06272 188.402706 
L 299.95776 185.140552 
L 303.74784 185.140552 
L 307.53792 181.878398 
L 309.43296 176.985167 
L 315.11808 176.985167 
L 317.01312 173.160573 
L 320.8032 173.160573 
L 322.69824 171.529496 
L 326.48832 171.529496 
L 328.38336 169.898419 
L 330.2784 167.704902 
L 339.7536 167.704902 
L 341.64864 162.811671 
L 345.43872 159.549517 
L 349.2288 159.549517 
L 351.12384 157.91844 
L 354.91392 157.91844 
L 358.704 151.394133 
L 364.38912 146.500902 
L 366.28416 141.607671 
L 375.75936 141.607671 
L 377.6544 137.783077 
L 383.33952 137.783077 
L 385.23456 136.152 
L 387.1296 136.152 
L 389.02464 134.520923 
L 392.81472 134.520923 
L 396.6048 131.258769 
L 404.18496 131.258769 
L 406.08 127.996615 
L 407.97504 127.996615 
L 409.87008 126.365538 
L 411.76512 126.365538 
L 413.66016 124.734462 
L 415.5552 124.734462 
L 417.45024 123.103385 
L 419.34528 123.103385 
L 423.13536 119.841231 
L 425.0304 119.841231 
L 426.92544 116.579077 
L 428.82048 116.579077 
L 430.71552 114.948 
L 436.40064 114.948 
L 438.29568 113.316923 
L 440.19072 113.316923 
L 443.9808 110.054769 
L 455.35104 110.054769 
L 457.24608 108.423692 
L 459.14112 105.161538 
L 485.67168 105.161538 
L 487.56672 103.530462 
L 514.09728 103.530462 
L 517.88736 100.268308 
L 525.46752 100.268308 
L 527.36256 98.637231 
L 538.7328 98.637231 
L 542.52288 95.375077 
L 551.99808 95.375077 
L 553.89312 93.744 
L 642.96 93.744 
L 642.96 93.744 
" clip-path="url(#p757b4b2e23)" style="fill: none; stroke-dasharray: 6.75,2.7,1.35,2.7; stroke-dashoffset: 0; stroke: #2f8f84; stroke-width: 1.35"/>
   </g>
   <g id="patch_4">
    <path d="M 74.448 348.192 
L 74.448 93.744 
" style="fill: none; stroke: #000000; stroke-width: 0.8; stroke-linejoin: miter; stroke-linecap: square"/>
   </g>
   <g id="patch_5">
    <path d="M 74.448 348.192 
L 642.96 348.192 
" style="fill: none; stroke: #000000; stroke-width: 0.8; stroke-linejoin: miter; stroke-linecap: square"/>
   </g>
  </g>
  <g id="text_16">
   <text style="font: 18px 'DejaVu Sans', 'Bitstream Vera Sans', 'Computer Modern Sans Serif', 'Lucida Grande', 'Verdana', 'Geneva', 'Lucid', 'Arial', 'Helvetica', 'Avant Garde', sans-serif; text-anchor: start" x="74.448" y="38.229188" transform="rotate(-0 74.448 38.229188)">QD-OLED → QDEF LCD</text>
  </g>
  <g id="text_17">
   <text style="fill: #66747c; font: 10px 'DejaVu Sans', 'Bitstream Vera Sans', 'Computer Modern Sans Serif', 'Lucida Grande', 'Verdana', 'Geneva', 'Lucid', 'Arial', 'Helvetica', 'Avant Garde', sans-serif; text-anchor: start" x="74.448" y="64.728" transform="rotate(-0 74.448 64.728)">LED-V1</text>
  </g>
  <g id="legend_1">
   <g id="line2d_33">
    <path d="M 185.17875 404.151391 
L 194.27875 404.151391 
L 203.37875 404.151391 
" style="fill: none; stroke: #252525; stroke-width: 2.5; stroke-linecap: square"/>
   </g>
   <g id="text_18">
    <text style="font: 9.1px 'DejaVu Sans', 'Bitstream Vera Sans', 'Computer Modern Sans Serif', 'Lucida Grande', 'Verdana', 'Geneva', 'Lucid', 'Arial', 'Helvetica', 'Avant Garde', sans-serif; text-anchor: start" x="210.65875" y="407.336391" transform="rotate(-0 210.65875 407.336391)">Potera CMF</text>
   </g>
   <g id="line2d_34">
    <path d="M 185.17875 417.508484 
L 194.27875 417.508484 
L 203.37875 417.508484 
" style="fill: none; stroke: #3b83b4; stroke-width: 1.35; stroke-linecap: square"/>
   </g>
   <g id="text_19">
    <text style="font: 9.1px 'DejaVu Sans', 'Bitstream Vera Sans', 'Computer Modern Sans Serif', 'Lucida Grande', 'Verdana', 'Geneva', 'Lucid', 'Arial', 'Helvetica', 'Avant Garde', sans-serif; text-anchor: start" x="210.65875" y="420.693484" transform="rotate(-0 210.65875 420.693484)">CIE 2015 2°</text>
   </g>
   <g id="line2d_35">
    <path d="M 282.931234 404.151391 
L 292.031234 404.151391 
L 301.131234 404.151391 
" style="fill: none; stroke-dasharray: 4.995,2.16; stroke-dashoffset: 0; stroke: #c38a19; stroke-width: 1.35"/>
   </g>
   <g id="text_20">
    <text style="font: 9.1px 'DejaVu Sans', 'Bitstream Vera Sans', 'Computer Modern Sans Serif', 'Lucida Grande', 'Verdana', 'Geneva', 'Lucid', 'Arial', 'Helvetica', 'Avant Garde', sans-serif; text-anchor: start" x="308.411234" y="407.336391" transform="rotate(-0 308.411234 407.336391)">CIE 2015 10°</text>
   </g>
   <g id="line2d_36">
    <path d="M 282.931234 417.508484 
L 292.031234 417.508484 
L 301.131234 417.508484 
" style="fill: none; stroke-dasharray: 1.35,2.2275; stroke-dashoffset: 0; stroke: #7d8a92; stroke-width: 1.35"/>
   </g>
   <g id="text_21">
    <text style="font: 9.1px 'DejaVu Sans', 'Bitstream Vera Sans', 'Computer Modern Sans Serif', 'Lucida Grande', 'Verdana', 'Geneva', 'Lucid', 'Arial', 'Helvetica', 'Avant Garde', sans-serif; text-anchor: start" x="308.411234" y="420.693484" transform="rotate(-0 308.411234 420.693484)">CIE 1964 10°</text>
   </g>
   <g id="line2d_37">
    <path d="M 386.473594 404.151391 
L 395.573594 404.151391 
L 404.673594 404.151391 
" style="fill: none; stroke-dasharray: 8.64,2.16,1.35,2.16; stroke-dashoffset: 0; stroke: #d0526a; stroke-width: 1.35"/>
   </g>
   <g id="text_22">
    <text style="font: 9.1px 'DejaVu Sans', 'Bitstream Vera Sans', 'Computer Modern Sans Serif', 'Lucida Grande', 'Verdana', 'Geneva', 'Lucid', 'Arial', 'Helvetica', 'Avant Garde', sans-serif; text-anchor: start" x="411.953594" y="407.336391" transform="rotate(-0 411.953594 407.336391)">CIE 1931 2°</text>
   </g>
   <g id="line2d_38">
    <path d="M 386.473594 417.508484 
L 395.573594 417.508484 
L 404.673594 417.508484 
" style="fill: none; stroke-dasharray: 6.75,2.7,1.35,2.7; stroke-dashoffset: 0; stroke: #2f8f84; stroke-width: 1.35"/>
   </g>
   <g id="text_23">
    <text style="font: 9.1px 'DejaVu Sans', 'Bitstream Vera Sans', 'Computer Modern Sans Serif', 'Lucida Grande', 'Verdana', 'Geneva', 'Lucid', 'Arial', 'Helvetica', 'Avant Garde', sans-serif; text-anchor: start" x="411.953594" y="420.693484" transform="rotate(-0 411.953594 420.693484)">Judd–Vos 1978 2°</text>
   </g>
  </g>
 </g>
 <defs>
  <clipPath id="p757b4b2e23">
   <rect x="74.448" y="93.744" width="568.512" height="254.448"/>
  </clipPath>
 </defs>
</svg>
