<?xml version="1.0" encoding="utf-8" standalone="no"?>
<!DOCTYPE svg PUBLIC "-//W3C//DTD SVG 1.1//EN"
  "http://www.w3.org/Graphics/SVG/1.1/DTD/svg11.dtd">
<svg xmlns:xlink="http://www.w3.org/1999/xlink" width="676.8pt" height="446.4pt" viewBox="0 0 676.8 446.4" xmlns="http://www.w3.org/2000/svg" version="1.1">
 <metadata>
  <rdf:RDF xmlns:dc="http://purl.org/dc/elements/1.1/" xmlns:cc="http://creativecommons.org/ns#" xmlns:rdf="http://www.w3.org/1999/02/22-rdf-syntax-ns#">
   <cc:Work>
    <dc:type rdf:resource="http://purl.org/dc/dcmitype/StillImage"/>
    <dc:date>2026-07-20T06:41:56.176879</dc:date>
    <dc:format>image/svg+xml</dc:format>
    <dc:creator>
     <cc:Agent>
      <dc:title>Matplotlib v3.9.4, https://matplotlib.org/</dc:title>
     </cc:Agent>
    </dc:creator>
   </cc:Work>
  </rdf:RDF>
 </metadata>
 <defs>
  <style type="text/css">*{stroke-linejoin: round; stroke-linecap: butt}</style>
 </defs>
 <g id="figure_1">
  <g id="patch_1">
   <path d="M 0 446.4 
L 676.8 446.4 
L 676.8 0 
L 0 0 
z
" style="fill: #ffffff"/>
  </g>
  <g id="axes_1">
   <g id="patch_2">
    <path d="M 74.448 348.192 
L 642.96 348.192 
L 642.96 93.744 
L 74.448 93.744 
z
" style="fill: #ffffff"/>
   </g>
   <g id="patch_3">
    <path d="M 169.2 348.192 
L 358.704 348.192 
L 358.704 93.744 
L 169.2 93.744 
z
" clip-path="url(#pbe95475f68)" style="fill: #e7f0ea; opacity: 0.58; stroke: #e7f0ea; stroke-linejoin: miter"/>
   </g>
   <g id="matplotlib.axis_1">
    <g id="xtick_1">
     <g id="line2d_1">
      <path d="M 74.448 348.192 
L 74.448 93.744 
" clip-path="url(#pbe95475f68)" style="fill: none; stroke: #dfe5e8; stroke-width: 0.65; stroke-linecap: square"/>
     </g>
     <g id="line2d_2">
      <defs>
       <path id="m022d7cba7f" d="M 0 0 
L 0 3.5 
" style="stroke: #000000; stroke-width: 0.8"/>
      </defs>
      <g>
       <use xlink:href="#m022d7cba7f" x="74.448" y="348.192" style="stroke: #000000; stroke-width: 0.8"/>
      </g>
     </g>
     <g id="text_1">
      <text style="font: 10px 'DejaVu Sans', 'Bitstream Vera Sans', 'Computer Modern Sans Serif', 'Lucida Grande', 'Verdana', 'Geneva', 'Lucid', 'Arial', 'Helvetica', 'Avant Garde', sans-serif; text-anchor: middle" x="74.448" y="362.790438" transform="rotate(-0 74.448 362.790438)">0</text>
     </g>
    </g>
    <g id="xtick_2">
     <g id="line2d_3">
      <path d="M 169.2 348.192 
L 169.2 93.744 
" clip-path="url(#pbe95475f68)" style="fill: none; stroke: #dfe5e8; stroke-width: 0.65; stroke-linecap: square"/>
     </g>
     <g id="line2d_4">
      <g>
       <use xlink:href="#m022d7cba7f" x="169.2" y="348.192" style="stroke: #000000; stroke-width: 0.8"/>
      </g>
     </g>
     <g id="text_2">
      <text style="font: 10px 'DejaVu Sans', 'Bitstream Vera Sans', 'Computer Modern Sans Serif', 'Lucida Grande', 'Verdana', 'Geneva', 'Lucid', 'Arial', 'Helvetica', 'Avant Garde', sans-serif; text-anchor: middle" x="169.2" y="362.790438" transform="rotate(-0 169.2 362.790438)">1</text>
     </g>
    </g>
    <g id="xtick_3">
     <g id="line2d_5">
      <path d="M 263.952 348.192 
L 263.952 93.744 
" clip-path="url(#pbe95475f68)" style="fill: none; stroke: #dfe5e8; stroke-width: 0.65; stroke-linecap: square"/>
     </g>
     <g id="line2d_6">
      <g>
       <use xlink:href="#m022d7cba7f" x="263.952" y="348.192" style="stroke: #000000; stroke-width: 0.8"/>
      </g>
     </g>
     <g id="text_3">
      <text style="font: 10px 'DejaVu Sans', 'Bitstream Vera Sans', 'Computer Modern Sans Serif', 'Lucida Grande', 'Verdana', 'Geneva', 'Lucid', 'Arial', 'Helvetica', 'Avant Garde', sans-serif; text-anchor: middle" x="263.952" y="362.790438" transform="rotate(-0 263.952 362.790438)">2</text>
     </g>
    </g>
    <g id="xtick_4">
     <g id="line2d_7">
      <path d="M 358.704 348.192 
L 358.704 93.744 
" clip-path="url(#pbe95475f68)" style="fill: none; stroke: #dfe5e8; stroke-width: 0.65; stroke-linecap: square"/>
     </g>
     <g id="line2d_8">
      <g>
       <use xlink:href="#m022d7cba7f" x="358.704" y="348.192" style="stroke: #000000; stroke-width: 0.8"/>
      </g>
     </g>
     <g id="text_4">
      <text style="font: 10px 'DejaVu Sans', 'Bitstream Vera Sans', 'Computer Modern Sans Serif', 'Lucida Grande', 'Verdana', 'Geneva', 'Lucid', 'Arial', 'Helvetica', 'Avant Garde', sans-serif; text-anchor: middle" x="358.704" y="362.790438" transform="rotate(-0 358.704 362.790438)">3</text>
     </g>
    </g>
    <g id="xtick_5">
     <g id="line2d_9">
      <path d="M 453.456 348.192 
L 453.456 93.744 
" clip-path="url(#pbe95475f68)" style="fill: none; stroke: #dfe5e8; stroke-width: 0.65; stroke-linecap: square"/>
     </g>
     <g id="line2d_10">
      <g>
       <use xlink:href="#m022d7cba7f" x="453.456" y="348.192" style="stroke: #000000; stroke-width: 0.8"/>
      </g>
     </g>
     <g id="text_5">
      <text style="font: 10px 'DejaVu Sans', 'Bitstream Vera Sans', 'Computer Modern Sans Serif', 'Lucida Grande', 'Verdana', 'Geneva', 'Lucid', 'Arial', 'Helvetica', 'Avant Garde', sans-serif; text-anchor: middle" x="453.456" y="362.790438" transform="rotate(-0 453.456 362.790438)">4</text>
     </g>
    </g>
    <g id="xtick_6">
     <g id="line2d_11">
      <path d="M 548.208 348.192 
L 548.208 93.744 
" clip-path="url(#pbe95475f68)" style="fill: none; stroke: #dfe5e8; stroke-width: 0.65; stroke-linecap: square"/>
     </g>
     <g id="line2d_12">
      <g>
       <use xlink:href="#m022d7cba7f" x="548.208" y="348.192" style="stroke: #000000; stroke-width: 0.8"/>
      </g>
     </g>
     <g id="text_6">
      <text style="font: 10px 'DejaVu Sans', 'Bitstream Vera Sans', 'Computer Modern Sans Serif', 'Lucida Grande', 'Verdana', 'Geneva', 'Lucid', 'Arial', 'Helvetica', 'Avant Garde', sans-serif; text-anchor: middle" x="548.208" y="362.790438" transform="rotate(-0 548.208 362.790438)">5</text>
     </g>
    </g>
    <g id="xtick_7">
     <g id="line2d_13">
      <path d="M 642.96 348.192 
L 642.96 93.744 
" clip-path="url(#pbe95475f68)" style="fill: none; stroke: #dfe5e8; stroke-width: 0.65; stroke-linecap: square"/>
     </g>
     <g id="line2d_14">
      <g>
       <use xlink:href="#m022d7cba7f" x="642.96" y="348.192" style="stroke: #000000; stroke-width: 0.8"/>
      </g>
     </g>
     <g id="text_7">
      <text style="font: 10px 'DejaVu Sans', 'Bitstream Vera Sans', 'Computer Modern Sans Serif', 'Lucida Grande', 'Verdana', 'Geneva', 'Lucid', 'Arial', 'Helvetica', 'Avant Garde', sans-serif; text-anchor: middle" x="642.96" y="362.790438" transform="rotate(-0 642.96 362.790438)">6</text>
     </g>
    </g>
    <g id="text_8">
     <text style="font: 10px 'DejaVu Sans', 'Bitstream Vera Sans', 'Computer Modern Sans Serif', 'Lucida Grande', 'Verdana', 'Geneva', 'Lucid', 'Arial', 'Helvetica', 'Avant Garde', sans-serif; text-anchor: middle" x="358.704" y="376.468563" transform="rotate(-0 358.704 376.468563)">sUCS dE threshold</text>
    </g>
   </g>
   <g id="matplotlib.axis_2">
    <g id="ytick_1">
     <g id="line2d_15">
      <path d="M 74.448 348.192 
L 642.96 348.192 
" clip-path="url(#pbe95475f68)" style="fill: none; stroke: #dfe5e8; stroke-width: 0.65; stroke-linecap: square"/>
     </g>
     <g id="line2d_16">
      <defs>
       <path id="m25393a6b30" d="M 0 0 
L -3.5 0 
" style="stroke: #000000; stroke-width: 0.8"/>
      </defs>
      <g>
       <use xlink:href="#m25393a6b30" x="74.448" y="348.192" style="stroke: #000000; stroke-width: 0.8"/>
      </g>
     </g>
     <g id="text_9">
      <text style="font: 10px 'DejaVu Sans', 'Bitstream Vera Sans', 'Computer Modern Sans Serif', 'Lucida Grande', 'Verdana', 'Geneva', 'Lucid', 'Arial', 'Helvetica', 'Avant Garde', sans-serif; text-anchor: end" x="67.448" y="351.991219" transform="rotate(-0 67.448 351.991219)">0</text>
     </g>
    </g>
    <g id="ytick_2">
     <g id="line2d_17">
      <path d="M 74.448 297.3024 
L 642.96 297.3024 
" clip-path="url(#pbe95475f68)" style="fill: none; stroke: #dfe5e8; stroke-width: 0.65; stroke-linecap: square"/>
     </g>
     <g id="line2d_18">
      <g>
       <use xlink:href="#m25393a6b30" x="74.448" y="297.3024" style="stroke: #000000; stroke-width: 0.8"/>
      </g>
     </g>
     <g id="text_10">
      <text style="font: 10px 'DejaVu Sans', 'Bitstream Vera Sans', 'Computer Modern Sans Serif', 'Lucida Grande', 'Verdana', 'Geneva', 'Lucid', 'Arial', 'Helvetica', 'Avant Garde', sans-serif; text-anchor: end" x="67.448" y="301.101619" transform="rotate(-0 67.448 301.101619)">20</text>
     </g>
    </g>
    <g id="ytick_3">
     <g id="line2d_19">
      <path d="M 74.448 246.4128 
L 642.96 246.4128 
" clip-path="url(#pbe95475f68)" style="fill: none; stroke: #dfe5e8; stroke-width: 0.65; stroke-linecap: square"/>
     </g>
     <g id="line2d_20">
      <g>
       <use xlink:href="#m25393a6b30" x="74.448" y="246.4128" style="stroke: #000000; stroke-width: 0.8"/>
      </g>
     </g>
     <g id="text_11">
      <text style="font: 10px 'DejaVu Sans', 'Bitstream Vera Sans', 'Computer Modern Sans Serif', 'Lucida Grande', 'Verdana', 'Geneva', 'Lucid', 'Arial', 'Helvetica', 'Avant Garde', sans-serif; text-anchor: end" x="67.448" y="250.212019" transform="rotate(-0 67.448 250.212019)">40</text>
     </g>
    </g>
    <g id="ytick_4">
     <g id="line2d_21">
      <path d="M 74.448 195.5232 
L 642.96 195.5232 
" clip-path="url(#pbe95475f68)" style="fill: none; stroke: #dfe5e8; stroke-width: 0.65; stroke-linecap: square"/>
     </g>
     <g id="line2d_22">
      <g>
       <use xlink:href="#m25393a6b30" x="74.448" y="195.5232" style="stroke: #000000; stroke-width: 0.8"/>
      </g>
     </g>
     <g id="text_12">
      <text style="font: 10px 'DejaVu Sans', 'Bitstream Vera Sans', 'Computer Modern Sans Serif', 'Lucida Grande', 'Verdana', 'Geneva', 'Lucid', 'Arial', 'Helvetica', 'Avant Garde', sans-serif; text-anchor: end" x="67.448" y="199.322419" transform="rotate(-0 67.448 199.322419)">60</text>
     </g>
    </g>
    <g id="ytick_5">
     <g id="line2d_23">
      <path d="M 74.448 144.6336 
L 642.96 144.6336 
" clip-path="url(#pbe95475f68)" style="fill: none; stroke: #dfe5e8; stroke-width: 0.65; stroke-linecap: square"/>
     </g>
     <g id="line2d_24">
      <g>
       <use xlink:href="#m25393a6b30" x="74.448" y="144.6336" style="stroke: #000000; stroke-width: 0.8"/>
      </g>
     </g>
     <g id="text_13">
      <text style="font: 10px 'DejaVu Sans', 'Bitstream Vera Sans', 'Computer Modern Sans Serif', 'Lucida Grande', 'Verdana', 'Geneva', 'Lucid', 'Arial', 'Helvetica', 'Avant Garde', sans-serif; text-anchor: end" x="67.448" y="148.432819" transform="rotate(-0 67.448 148.432819)">80</text>
     </g>
    </g>
    <g id="ytick_6">
     <g id="line2d_25">
      <path d="M 74.448 93.744 
L 642.96 93.744 
" clip-path="url(#pbe95475f68)" style="fill: none; stroke: #dfe5e8; stroke-width: 0.65; stroke-linecap: square"/>
     </g>
     <g id="line2d_26">
      <g>
       <use xlink:href="#m25393a6b30" x="74.448" y="93.744" style="stroke: #000000; stroke-width: 0.8"/>
      </g>
     </g>
     <g id="text_14">
      <text style="font: 10px 'DejaVu Sans', 'Bitstream Vera Sans', 'Computer Modern Sans Serif', 'Lucida Grande', 'Verdana', 'Geneva', 'Lucid', 'Arial', 'Helvetica', 'Avant Garde', sans-serif; text-anchor: end" x="67.448" y="97.543219" transform="rotate(-0 67.448 97.543219)">100</text>
     </g>
    </g>
    <g id="text_15">
     <text style="font: 10px 'DejaVu Sans', 'Bitstream Vera Sans', 'Computer Modern Sans Serif', 'Lucida Grande', 'Verdana', 'Geneva', 'Lucid', 'Arial', 'Helvetica', 'Avant Garde', sans-serif; text-anchor: middle" x="42.280812" y="220.968" transform="rotate(-90 42.280812 220.968)">observers%</text>
    </g>
   </g>
   <g id="line2d_27">
    <path d="M 74.448 348.192 
L 154.03968 348.192 
L 155.93472 345.998483 
L 165.40992 345.998483 
L 167.30496 343.804966 
L 188.1504 343.804966 
L 190.04544 341.611448 
L 193.83552 341.611448 
L 195.73056 339.980371 
L 197.6256 339.980371 
L 199.52064 337.786854 
L 203.31072 337.786854 
L 205.20576 336.155777 
L 208.99584 336.155777 
L 210.89088 334.5247 
L 216.576 334.5247 
L 218.47104 331.262546 
L 220.36608 329.631469 
L 222.26112 326.369316 
L 226.0512 323.107162 
L 227.94624 323.107162 
L 229.84128 321.476085 
L 231.73632 321.476085 
L 233.63136 319.845008 
L 237.42144 319.845008 
L 239.31648 318.213931 
L 243.10656 318.213931 
L 246.89664 314.951777 
L 248.79168 311.127183 
L 250.68672 306.233952 
L 254.4768 306.233952 
L 256.37184 304.602875 
L 258.26688 302.409358 
L 260.16192 300.778281 
L 263.952 300.778281 
L 265.84704 295.88505 
L 267.74208 294.253973 
L 273.4272 294.253973 
L 275.32224 292.622897 
L 290.48256 292.622897 
L 292.3776 290.99182 
L 294.27264 288.798302 
L 303.74784 288.798302 
L 307.53792 285.536149 
L 309.43296 285.536149 
L 311.328 283.905072 
L 317.01312 283.905072 
L 318.90816 282.273995 
L 322.69824 282.273995 
L 324.59328 280.642918 
L 326.48832 275.749687 
L 328.38336 271.925093 
L 337.85856 271.925093 
L 341.64864 268.662939 
L 356.80896 268.662939 
L 358.704 264.838345 
L 360.59904 264.838345 
L 362.49408 263.207268 
L 371.96928 263.207268 
L 373.86432 259.382674 
L 375.75936 257.189156 
L 377.6544 257.189156 
L 381.44448 253.927003 
L 383.33952 250.664849 
L 385.23456 249.033772 
L 387.1296 249.033772 
L 389.02464 247.402695 
L 400.39488 247.402695 
L 402.28992 243.01566 
L 406.08 243.01566 
L 407.97504 241.384584 
L 417.45024 241.384584 
L 421.24032 238.12243 
L 425.0304 238.12243 
L 426.92544 236.491353 
L 430.71552 236.491353 
L 436.40064 231.598122 
L 438.29568 231.598122 
L 440.19072 229.967045 
L 442.08576 227.773528 
L 445.87584 227.773528 
L 447.77088 225.580011 
L 451.56096 225.580011 
L 453.456 223.948934 
L 455.35104 223.948934 
L 457.24608 221.755416 
L 462.9312 221.755416 
L 464.82624 217.930822 
L 470.51136 217.930822 
L 472.4064 216.299745 
L 483.77664 216.299745 
L 485.67168 212.475151 
L 487.56672 212.475151 
L 489.46176 210.844074 
L 491.3568 210.844074 
L 493.25184 208.650557 
L 495.14688 208.650557 
L 497.04192 207.01948 
L 504.62208 207.01948 
L 506.51712 204.825963 
L 510.3072 204.825963 
L 512.20224 203.194886 
L 529.2576 203.194886 
L 531.15264 201.001369 
L 533.04768 199.370292 
L 542.52288 199.370292 
L 544.41792 197.739215 
L 546.31296 197.739215 
L 548.208 194.477061 
L 561.47328 194.477061 
L 565.26336 190.090027 
L 576.6336 190.090027 
L 578.52864 186.265432 
L 580.42368 186.265432 
L 582.31872 184.071915 
L 591.79392 184.071915 
L 593.68896 182.440838 
L 595.584 182.440838 
L 597.47904 180.809761 
L 599.37408 180.809761 
L 601.26912 179.178684 
L 625.90464 179.178684 
L 627.79968 176.985167 
L 639.16992 176.985167 
L 641.06496 175.35409 
L 642.96 175.35409 
L 642.96 175.35409 
" clip-path="url(#pbe95475f68)" style="fill: none; stroke: #252525; stroke-width: 2.5; stroke-linecap: square"/>
   </g>
   <g id="line2d_28">
    <path d="M 74.448 348.192 
L 123.71904 348.192 
L 125.61408 345.998483 
L 169.2 345.998483 
L 171.09504 343.804966 
L 195.73056 343.804966 
L 197.6256 341.611448 
L 222.26112 341.611448 
L 224.15616 339.417931 
L 229.84128 339.417931 
L 233.63136 336.155777 
L 254.4768 336.155777 
L 256.37184 333.96226 
L 258.26688 330.700106 
L 260.16192 328.506589 
L 262.05696 328.506589 
L 263.952 326.313072 
L 265.84704 324.681995 
L 269.63712 324.681995 
L 271.53216 323.050918 
L 282.9024 323.050918 
L 284.79744 319.788764 
L 286.69248 317.595247 
L 288.58752 317.595247 
L 290.48256 315.401729 
L 296.16768 315.401729 
L 298.06272 313.770653 
L 301.8528 313.770653 
L 303.74784 312.139576 
L 311.328 312.139576 
L 315.11808 307.752541 
L 318.90816 307.752541 
L 322.69824 303.365507 
L 324.59328 303.365507 
L 326.48832 301.73443 
L 335.96352 301.73443 
L 339.7536 297.347395 
L 341.64864 297.347395 
L 343.54368 295.716318 
L 345.43872 295.716318 
L 347.33376 292.454164 
L 349.2288 290.823088 
L 360.59904 290.823088 
L 362.49408 288.62957 
L 366.28416 288.62957 
L 368.1792 286.998493 
L 373.86432 286.998493 
L 375.75936 283.173899 
L 377.6544 283.173899 
L 379.54944 280.980382 
L 385.23456 280.980382 
L 387.1296 279.349305 
L 389.02464 279.349305 
L 390.91968 277.718228 
L 396.6048 277.718228 
L 400.39488 274.456074 
L 409.87008 274.456074 
L 411.76512 272.824997 
L 413.66016 272.824997 
L 415.5552 270.63148 
L 419.34528 270.63148 
L 421.24032 268.437963 
L 425.0304 268.437963 
L 426.92544 265.175809 
L 428.82048 263.544732 
L 440.19072 263.544732 
L 442.08576 261.913655 
L 447.77088 261.913655 
L 449.66592 259.720138 
L 451.56096 258.089061 
L 453.456 255.895544 
L 455.35104 254.264467 
L 457.24608 254.264467 
L 459.14112 251.002313 
L 461.03616 249.371236 
L 462.9312 249.371236 
L 464.82624 247.740159 
L 468.61632 247.740159 
L 470.51136 245.546642 
L 472.4064 243.915565 
L 474.30144 241.722048 
L 483.77664 241.722048 
L 485.67168 240.090971 
L 491.3568 240.090971 
L 493.25184 238.459894 
L 495.14688 234.6353 
L 498.93696 234.6353 
L 500.832 230.810706 
L 502.72704 229.179629 
L 504.62208 229.179629 
L 506.51712 227.548552 
L 512.20224 227.548552 
L 514.09728 225.917475 
L 523.57248 225.917475 
L 525.46752 222.655321 
L 529.2576 222.655321 
L 531.15264 217.76209 
L 533.04768 216.131013 
L 536.83776 216.131013 
L 538.7328 213.937496 
L 540.62784 212.306419 
L 542.52288 212.306419 
L 544.41792 210.675342 
L 561.47328 210.675342 
L 563.36832 209.044265 
L 576.6336 209.044265 
L 584.21376 202.519958 
L 586.1088 202.519958 
L 588.00384 200.32644 
L 589.89888 198.695363 
L 591.79392 196.501846 
L 599.37408 196.501846 
L 601.26912 194.870769 
L 605.0592 194.870769 
L 608.84928 191.608615 
L 610.74432 191.608615 
L 612.63936 187.784021 
L 620.21952 187.784021 
L 622.11456 186.152944 
L 624.0096 186.152944 
L 625.90464 182.32835 
L 635.37984 182.32835 
L 637.27488 180.697273 
L 639.16992 180.697273 
L 642.96 176.310239 
L 642.96 176.310239 
" clip-path="url(#pbe95475f68)" style="fill: none; stroke: #3b83b4; stroke-width: 1.35; stroke-linecap: square"/>
   </g>
   <g id="line2d_29">
    <path d="M 74.448 348.192 
L 144.56448 348.192 
L 148.35456 344.929846 
L 152.14464 344.929846 
L 154.03968 343.298769 
L 157.82976 343.298769 
L 159.7248 341.667692 
L 163.51488 341.667692 
L 165.40992 340.036615 
L 169.2 340.036615 
L 171.09504 338.405538 
L 174.88512 338.405538 
L 176.78016 336.774462 
L 180.57024 336.774462 
L 182.46528 334.580944 
L 195.73056 334.580944 
L 197.6256 332.949867 
L 212.78592 332.949867 
L 214.68096 331.31879 
L 216.576 331.31879 
L 218.47104 329.687714 
L 220.36608 324.794483 
L 222.26112 324.794483 
L 224.15616 323.163406 
L 243.10656 323.163406 
L 245.0016 321.532329 
L 248.79168 321.532329 
L 250.68672 319.901252 
L 252.58176 319.901252 
L 256.37184 316.639098 
L 260.16192 316.639098 
L 262.05696 315.008021 
L 265.84704 315.008021 
L 267.74208 313.376944 
L 286.69248 313.376944 
L 288.58752 311.183427 
L 301.8528 311.183427 
L 303.74784 309.55235 
L 309.43296 309.55235 
L 311.328 305.727756 
L 315.11808 302.465602 
L 318.90816 302.465602 
L 320.8032 300.834525 
L 322.69824 300.834525 
L 324.59328 299.203448 
L 326.48832 294.816414 
L 328.38336 293.185337 
L 334.06848 293.185337 
L 335.96352 291.55426 
L 339.7536 291.55426 
L 341.64864 287.729666 
L 343.54368 284.467512 
L 345.43872 284.467512 
L 347.33376 282.836435 
L 354.91392 282.836435 
L 356.80896 281.205358 
L 358.704 279.011841 
L 360.59904 277.380764 
L 373.86432 277.380764 
L 379.54944 272.487533 
L 381.44448 272.487533 
L 383.33952 270.856456 
L 387.1296 270.856456 
L 390.91968 267.594302 
L 402.28992 267.594302 
L 404.18496 263.769708 
L 411.76512 263.769708 
L 415.5552 260.507554 
L 423.13536 260.507554 
L 425.0304 258.876477 
L 442.08576 258.876477 
L 443.9808 257.245401 
L 445.87584 257.245401 
L 447.77088 255.614324 
L 451.56096 255.614324 
L 453.456 253.420806 
L 470.51136 253.420806 
L 472.4064 251.227289 
L 481.8816 251.227289 
L 483.77664 246.334058 
L 491.3568 246.334058 
L 493.25184 244.140541 
L 495.14688 242.509464 
L 531.15264 242.509464 
L 533.04768 240.878387 
L 536.83776 240.878387 
L 540.62784 234.35408 
L 550.10304 234.35408 
L 551.99808 232.723003 
L 553.89312 229.460849 
L 555.78816 227.829772 
L 561.47328 227.829772 
L 563.36832 226.198695 
L 570.94848 226.198695 
L 572.84352 224.567618 
L 574.73856 224.567618 
L 576.6336 222.936541 
L 584.21376 222.936541 
L 588.00384 218.549507 
L 595.584 218.549507 
L 597.47904 216.355989 
L 599.37408 216.355989 
L 601.26912 214.724912 
L 608.84928 214.724912 
L 612.63936 210.337878 
L 616.42944 210.337878 
L 618.32448 208.144361 
L 620.21952 208.144361 
L 622.11456 205.950844 
L 635.37984 205.950844 
L 637.27488 204.319767 
L 639.16992 204.319767 
L 641.06496 202.68869 
L 642.96 199.426536 
L 642.96 199.426536 
" clip-path="url(#pbe95475f68)" style="fill: none; stroke-dasharray: 4.995,2.16; stroke-dashoffset: 0; stroke: #c38a19; stroke-width: 1.35"/>
   </g>
   <g id="line2d_30">
    <path d="M 74.448 348.192 
L 154.03968 348.192 
L 155.93472 346.560923 
L 176.78016 346.560923 
L 178.6752 344.929846 
L 180.57024 344.929846 
L 184.36032 341.667692 
L 186.25536 341.667692 
L 188.1504 340.036615 
L 190.04544 340.036615 
L 191.94048 338.405538 
L 193.83552 338.405538 
L 195.73056 336.774462 
L 205.20576 336.774462 
L 208.99584 333.512308 
L 210.89088 333.512308 
L 212.78592 331.881231 
L 214.68096 331.881231 
L 216.576 329.687714 
L 224.15616 329.687714 
L 226.0512 328.056637 
L 237.42144 328.056637 
L 239.31648 324.232042 
L 245.0016 319.338812 
L 246.89664 317.145294 
L 248.79168 317.145294 
L 250.68672 313.883141 
L 256.37184 313.883141 
L 258.26688 312.252064 
L 260.16192 312.252064 
L 262.05696 310.058546 
L 265.84704 310.058546 
L 267.74208 307.865029 
L 290.48256 307.865029 
L 292.3776 304.602875 
L 299.95776 304.602875 
L 301.8528 302.971798 
L 303.74784 299.147204 
L 313.22304 299.147204 
L 315.11808 295.88505 
L 326.48832 295.88505 
L 328.38336 290.429379 
L 330.2784 287.167225 
L 332.17344 287.167225 
L 334.06848 283.905072 
L 335.96352 282.273995 
L 343.54368 282.273995 
L 345.43872 279.011841 
L 347.33376 274.11861 
L 349.2288 274.11861 
L 351.12384 272.487533 
L 353.01888 270.294016 
L 360.59904 270.294016 
L 362.49408 268.662939 
L 371.96928 268.662939 
L 373.86432 267.031862 
L 377.6544 267.031862 
L 379.54944 263.207268 
L 381.44448 261.576191 
L 385.23456 261.576191 
L 387.1296 259.945114 
L 398.49984 259.945114 
L 400.39488 258.314037 
L 402.28992 258.314037 
L 404.18496 256.12052 
L 407.97504 256.12052 
L 409.87008 254.489443 
L 411.76512 250.664849 
L 447.77088 250.664849 
L 449.66592 247.402695 
L 451.56096 247.402695 
L 453.456 245.771618 
L 464.82624 245.771618 
L 468.61632 242.509464 
L 474.30144 242.509464 
L 476.19648 240.878387 
L 485.67168 240.878387 
L 487.56672 239.24731 
L 489.46176 239.24731 
L 491.3568 237.616233 
L 500.832 237.616233 
L 502.72704 235.985156 
L 506.51712 235.985156 
L 508.41216 234.35408 
L 514.09728 234.35408 
L 515.99232 231.091926 
L 517.88736 228.898408 
L 521.67744 228.898408 
L 523.57248 224.511374 
L 531.15264 224.511374 
L 533.04768 222.880297 
L 534.94272 222.880297 
L 536.83776 221.24922 
L 544.41792 221.24922 
L 546.31296 219.618143 
L 548.208 219.618143 
L 550.10304 213.600032 
L 551.99808 210.337878 
L 572.84352 210.337878 
L 574.73856 208.706801 
L 578.52864 208.706801 
L 582.31872 201.057613 
L 584.21376 201.057613 
L 586.1088 199.426536 
L 588.00384 199.426536 
L 589.89888 197.233019 
L 593.68896 197.233019 
L 595.584 195.601942 
L 625.90464 195.601942 
L 627.79968 193.408424 
L 637.27488 193.408424 
L 639.16992 191.214907 
L 642.96 191.214907 
L 642.96 191.214907 
" clip-path="url(#pbe95475f68)" style="fill: none; stroke-dasharray: 1.35,2.2275; stroke-dashoffset: 0; stroke: #7d8a92; stroke-width: 1.35"/>
   </g>
   <g id="line2d_31">
    <path d="M 74.448 348.192 
L 157.82976 348.192 
L 159.7248 345.998483 
L 260.16192 345.998483 
L 262.05696 344.367406 
L 288.58752 344.367406 
L 290.48256 342.736329 
L 296.16768 342.736329 
L 298.06272 340.542812 
L 311.328 340.542812 
L 313.22304 338.911735 
L 335.96352 338.911735 
L 337.85856 336.718218 
L 347.33376 336.718218 
L 349.2288 335.087141 
L 351.12384 335.087141 
L 354.91392 331.824987 
L 364.38912 331.824987 
L 366.28416 326.931756 
L 381.44448 326.931756 
L 385.23456 323.669602 
L 389.02464 323.669602 
L 392.81472 320.407448 
L 400.39488 320.407448 
L 402.28992 317.145294 
L 406.08 317.145294 
L 407.97504 315.514218 
L 411.76512 315.514218 
L 415.5552 312.252064 
L 432.61056 312.252064 
L 434.5056 310.620987 
L 440.19072 310.620987 
L 442.08576 308.98991 
L 443.9808 308.98991 
L 447.77088 305.727756 
L 451.56096 305.727756 
L 453.456 304.096679 
L 472.4064 304.096679 
L 474.30144 302.465602 
L 487.56672 302.465602 
L 489.46176 300.834525 
L 491.3568 300.834525 
L 495.14688 297.572371 
L 497.04192 297.572371 
L 498.93696 295.941294 
L 500.832 293.747777 
L 502.72704 292.1167 
L 506.51712 292.1167 
L 508.41216 288.292106 
L 519.7824 288.292106 
L 521.67744 286.098589 
L 527.36256 286.098589 
L 529.2576 284.467512 
L 531.15264 280.642918 
L 534.94272 280.642918 
L 536.83776 279.011841 
L 555.78816 279.011841 
L 559.57824 275.749687 
L 561.47328 275.749687 
L 563.36832 274.11861 
L 567.1584 274.11861 
L 569.05344 272.487533 
L 570.94848 272.487533 
L 572.84352 270.856456 
L 574.73856 268.662939 
L 576.6336 267.031862 
L 580.42368 267.031862 
L 582.31872 265.400785 
L 586.1088 265.400785 
L 588.00384 263.769708 
L 589.89888 261.576191 
L 591.79392 261.576191 
L 597.47904 256.68296 
L 612.63936 256.68296 
L 614.5344 254.489443 
L 616.42944 254.489443 
L 618.32448 252.858366 
L 624.0096 252.858366 
L 625.90464 251.227289 
L 629.69472 251.227289 
L 631.58976 249.596212 
L 637.27488 249.596212 
L 639.16992 245.771618 
L 642.96 245.771618 
L 642.96 245.771618 
" clip-path="url(#pbe95475f68)" style="fill: none; stroke-dasharray: 8.64,2.16,1.35,2.16; stroke-dashoffset: 0; stroke: #d0526a; stroke-width: 1.35"/>
   </g>
   <g id="line2d_32">
    <path d="M 74.448 348.192 
L 201.41568 348.192 
L 203.31072 345.998483 
L 207.1008 345.998483 
L 208.99584 343.804966 
L 218.47104 343.804966 
L 220.36608 341.611448 
L 227.94624 341.611448 
L 229.84128 339.417931 
L 233.63136 339.417931 
L 237.42144 335.030897 
L 248.79168 335.030897 
L 250.68672 332.837379 
L 258.26688 332.837379 
L 260.16192 330.643862 
L 263.952 330.643862 
L 265.84704 328.450345 
L 273.4272 328.450345 
L 277.21728 324.06331 
L 343.54368 324.06331 
L 347.33376 319.676276 
L 349.2288 319.676276 
L 351.12384 317.482759 
L 360.59904 317.482759 
L 362.49408 315.289241 
L 364.38912 315.289241 
L 368.1792 310.902207 
L 381.44448 310.902207 
L 383.33952 308.70869 
L 385.23456 308.70869 
L 387.1296 306.515172 
L 411.76512 306.515172 
L 413.66016 304.321655 
L 415.5552 304.321655 
L 417.45024 302.128138 
L 440.19072 302.128138 
L 442.08576 299.934621 
L 466.72128 299.934621 
L 468.61632 297.741103 
L 472.4064 297.741103 
L 474.30144 296.110027 
L 476.19648 293.916509 
L 497.04192 293.916509 
L 498.93696 291.722992 
L 502.72704 291.722992 
L 504.62208 289.529475 
L 521.67744 289.529475 
L 525.46752 285.14244 
L 565.26336 285.14244 
L 567.1584 280.755406 
L 570.94848 280.755406 
L 572.84352 278.561889 
L 574.73856 278.561889 
L 576.6336 276.368371 
L 582.31872 276.368371 
L 584.21376 274.174854 
L 599.37408 274.174854 
L 601.26912 268.719183 
L 614.5344 268.719183 
L 616.42944 266.525666 
L 620.21952 266.525666 
L 622.11456 264.332149 
L 624.0096 264.332149 
L 625.90464 262.701072 
L 631.58976 262.701072 
L 633.4848 261.069995 
L 635.37984 258.876477 
L 637.27488 255.614324 
L 639.16992 253.983247 
L 642.96 253.983247 
L 642.96 253.983247 
" clip-path="url(#pbe95475f68)" style="fill: none; stroke-dasharray: 6.75,2.7,1.35,2.7; stroke-dashoffset: 0; stroke: #2f8f84; stroke-width: 1.35"/>
   </g>
   <g id="patch_4">
    <path d="M 74.448 348.192 
L 74.448 93.744 
" style="fill: none; stroke: #000000; stroke-width: 0.8; stroke-linejoin: miter; stroke-linecap: square"/>
   </g>
   <g id="patch_5">
    <path d="M 74.448 348.192 
L 642.96 348.192 
" style="fill: none; stroke: #000000; stroke-width: 0.8; stroke-linejoin: miter; stroke-linecap: square"/>
   </g>
  </g>
  <g id="text_16">
   <text style="font: 18px 'DejaVu Sans', 'Bitstream Vera Sans', 'Computer Modern Sans Serif', 'Lucida Grande', 'Verdana', 'Geneva', 'Lucid', 'Arial', 'Helvetica', 'Avant Garde', sans-serif; text-anchor: start" x="74.448" y="38.229188" transform="rotate(-0 74.448 38.229188)">LED-V2 Direct</text>
  </g>
  <g id="text_17">
   <text style="fill: #66747c; font: 10px 'DejaVu Sans', 'Bitstream Vera Sans', 'Computer Modern Sans Serif', 'Lucida Grande', 'Verdana', 'Geneva', 'Lucid', 'Arial', 'Helvetica', 'Avant Garde', sans-serif; text-anchor: start" x="74.448" y="64.728" transform="rotate(-0 74.448 64.728)">All devices</text>
  </g>
  <g id="legend_1">
   <g id="line2d_33">
    <path d="M 185.17875 404.151391 
L 194.27875 404.151391 
L 203.37875 404.151391 
" style="fill: none; stroke: #252525; stroke-width: 2.5; stroke-linecap: square"/>
   </g>
   <g id="text_18">
    <text style="font: 9.1px 'DejaVu Sans', 'Bitstream Vera Sans', 'Computer Modern Sans Serif', 'Lucida Grande', 'Verdana', 'Geneva', 'Lucid', 'Arial', 'Helvetica', 'Avant Garde', sans-serif; text-anchor: start" x="210.65875" y="407.336391" transform="rotate(-0 210.65875 407.336391)">Potera CMF</text>
   </g>
   <g id="line2d_34">
    <path d="M 185.17875 417.508484 
L 194.27875 417.508484 
L 203.37875 417.508484 
" style="fill: none; stroke: #3b83b4; stroke-width: 1.35; stroke-linecap: square"/>
   </g>
   <g id="text_19">
    <text style="font: 9.1px 'DejaVu Sans', 'Bitstream Vera Sans', 'Computer Modern Sans Serif', 'Lucida Grande', 'Verdana', 'Geneva', 'Lucid', 'Arial', 'Helvetica', 'Avant Garde', sans-serif; text-anchor: start" x="210.65875" y="420.693484" transform="rotate(-0 210.65875 420.693484)">CIE 2015 2°</text>
   </g>
   <g id="line2d_35">
    <path d="M 282.931234 404.151391 
L 292.031234 404.151391 
L 301.131234 404.151391 
" style="fill: none; stroke-dasharray: 4.995,2.16; stroke-dashoffset: 0; stroke: #c38a19; stroke-width: 1.35"/>
   </g>
   <g id="text_20">
    <text style="font: 9.1px 'DejaVu Sans', 'Bitstream Vera Sans', 'Computer Modern Sans Serif', 'Lucida Grande', 'Verdana', 'Geneva', 'Lucid', 'Arial', 'Helvetica', 'Avant Garde', sans-serif; text-anchor: start" x="308.411234" y="407.336391" transform="rotate(-0 308.411234 407.336391)">CIE 2015 10°</text>
   </g>
   <g id="line2d_36">
    <path d="M 282.931234 417.508484 
L 292.031234 417.508484 
L 301.131234 417.508484 
" style="fill: none; stroke-dasharray: 1.35,2.2275; stroke-dashoffset: 0; stroke: #7d8a92; stroke-width: 1.35"/>
   </g>
   <g id="text_21">
    <text style="font: 9.1px 'DejaVu Sans', 'Bitstream Vera Sans', 'Computer Modern Sans Serif', 'Lucida Grande', 'Verdana', 'Geneva', 'Lucid', 'Arial', 'Helvetica', 'Avant Garde', sans-serif; text-anchor: start" x="308.411234" y="420.693484" transform="rotate(-0 308.411234 420.693484)">CIE 1964 10°</text>
   </g>
   <g id="line2d_37">
    <path d="M 386.473594 404.151391 
L 395.573594 404.151391 
L 404.673594 404.151391 
" style="fill: none; stroke-dasharray: 8.64,2.16,1.35,2.16; stroke-dashoffset: 0; stroke: #d0526a; stroke-width: 1.35"/>
   </g>
   <g id="text_22">
    <text style="font: 9.1px 'DejaVu Sans', 'Bitstream Vera Sans', 'Computer Modern Sans Serif', 'Lucida Grande', 'Verdana', 'Geneva', 'Lucid', 'Arial', 'Helvetica', 'Avant Garde', sans-serif; text-anchor: start" x="411.953594" y="407.336391" transform="rotate(-0 411.953594 407.336391)">CIE 1931 2°</text>
   </g>
   <g id="line2d_38">
    <path d="M 386.473594 417.508484 
L 395.573594 417.508484 
L 404.673594 417.508484 
" style="fill: none; stroke-dasharray: 6.75,2.7,1.35,2.7; stroke-dashoffset: 0; stroke: #2f8f84; stroke-width: 1.35"/>
   </g>
   <g id="text_23">
    <text style="font: 9.1px 'DejaVu Sans', 'Bitstream Vera Sans', 'Computer Modern Sans Serif', 'Lucida Grande', 'Verdana', 'Geneva', 'Lucid', 'Arial', 'Helvetica', 'Avant Garde', sans-serif; text-anchor: start" x="411.953594" y="420.693484" transform="rotate(-0 411.953594 420.693484)">Judd–Vos 1978 2°</text>
   </g>
  </g>
 </g>
 <defs>
  <clipPath id="pbe95475f68">
   <rect x="74.448" y="93.744" width="568.512" height="254.448"/>
  </clipPath>
 </defs>
</svg>
