<?xml version="1.0" encoding="utf-8" standalone="no"?>
<!DOCTYPE svg PUBLIC "-//W3C//DTD SVG 1.1//EN"
  "http://www.w3.org/Graphics/SVG/1.1/DTD/svg11.dtd">
<svg xmlns:xlink="http://www.w3.org/1999/xlink" width="676.8pt" height="446.4pt" viewBox="0 0 676.8 446.4" xmlns="http://www.w3.org/2000/svg" version="1.1">
 <metadata>
  <rdf:RDF xmlns:dc="http://purl.org/dc/elements/1.1/" xmlns:cc="http://creativecommons.org/ns#" xmlns:rdf="http://www.w3.org/1999/02/22-rdf-syntax-ns#">
   <cc:Work>
    <dc:type rdf:resource="http://purl.org/dc/dcmitype/StillImage"/>
    <dc:date>2026-07-20T06:41:56.269421</dc:date>
    <dc:format>image/svg+xml</dc:format>
    <dc:creator>
     <cc:Agent>
      <dc:title>Matplotlib v3.9.4, https://matplotlib.org/</dc:title>
     </cc:Agent>
    </dc:creator>
   </cc:Work>
  </rdf:RDF>
 </metadata>
 <defs>
  <style type="text/css">*{stroke-linejoin: round; stroke-linecap: butt}</style>
 </defs>
 <g id="figure_1">
  <g id="patch_1">
   <path d="M 0 446.4 
L 676.8 446.4 
L 676.8 0 
L 0 0 
z
" style="fill: #ffffff"/>
  </g>
  <g id="axes_1">
   <g id="patch_2">
    <path d="M 74.448 348.192 
L 642.96 348.192 
L 642.96 93.744 
L 74.448 93.744 
z
" style="fill: #ffffff"/>
   </g>
   <g id="patch_3">
    <path d="M 169.2 348.192 
L 358.704 348.192 
L 358.704 93.744 
L 169.2 93.744 
z
" clip-path="url(#pc46f058657)" style="fill: #e7f0ea; opacity: 0.58; stroke: #e7f0ea; stroke-linejoin: miter"/>
   </g>
   <g id="matplotlib.axis_1">
    <g id="xtick_1">
     <g id="line2d_1">
      <path d="M 74.448 348.192 
L 74.448 93.744 
" clip-path="url(#pc46f058657)" style="fill: none; stroke: #dfe5e8; stroke-width: 0.65; stroke-linecap: square"/>
     </g>
     <g id="line2d_2">
      <defs>
       <path id="m7823105429" d="M 0 0 
L 0 3.5 
" style="stroke: #000000; stroke-width: 0.8"/>
      </defs>
      <g>
       <use xlink:href="#m7823105429" x="74.448" y="348.192" style="stroke: #000000; stroke-width: 0.8"/>
      </g>
     </g>
     <g id="text_1">
      <text style="font: 10px 'DejaVu Sans', 'Bitstream Vera Sans', 'Computer Modern Sans Serif', 'Lucida Grande', 'Verdana', 'Geneva', 'Lucid', 'Arial', 'Helvetica', 'Avant Garde', sans-serif; text-anchor: middle" x="74.448" y="362.790438" transform="rotate(-0 74.448 362.790438)">0</text>
     </g>
    </g>
    <g id="xtick_2">
     <g id="line2d_3">
      <path d="M 169.2 348.192 
L 169.2 93.744 
" clip-path="url(#pc46f058657)" style="fill: none; stroke: #dfe5e8; stroke-width: 0.65; stroke-linecap: square"/>
     </g>
     <g id="line2d_4">
      <g>
       <use xlink:href="#m7823105429" x="169.2" y="348.192" style="stroke: #000000; stroke-width: 0.8"/>
      </g>
     </g>
     <g id="text_2">
      <text style="font: 10px 'DejaVu Sans', 'Bitstream Vera Sans', 'Computer Modern Sans Serif', 'Lucida Grande', 'Verdana', 'Geneva', 'Lucid', 'Arial', 'Helvetica', 'Avant Garde', sans-serif; text-anchor: middle" x="169.2" y="362.790438" transform="rotate(-0 169.2 362.790438)">1</text>
     </g>
    </g>
    <g id="xtick_3">
     <g id="line2d_5">
      <path d="M 263.952 348.192 
L 263.952 93.744 
" clip-path="url(#pc46f058657)" style="fill: none; stroke: #dfe5e8; stroke-width: 0.65; stroke-linecap: square"/>
     </g>
     <g id="line2d_6">
      <g>
       <use xlink:href="#m7823105429" x="263.952" y="348.192" style="stroke: #000000; stroke-width: 0.8"/>
      </g>
     </g>
     <g id="text_3">
      <text style="font: 10px 'DejaVu Sans', 'Bitstream Vera Sans', 'Computer Modern Sans Serif', 'Lucida Grande', 'Verdana', 'Geneva', 'Lucid', 'Arial', 'Helvetica', 'Avant Garde', sans-serif; text-anchor: middle" x="263.952" y="362.790438" transform="rotate(-0 263.952 362.790438)">2</text>
     </g>
    </g>
    <g id="xtick_4">
     <g id="line2d_7">
      <path d="M 358.704 348.192 
L 358.704 93.744 
" clip-path="url(#pc46f058657)" style="fill: none; stroke: #dfe5e8; stroke-width: 0.65; stroke-linecap: square"/>
     </g>
     <g id="line2d_8">
      <g>
       <use xlink:href="#m7823105429" x="358.704" y="348.192" style="stroke: #000000; stroke-width: 0.8"/>
      </g>
     </g>
     <g id="text_4">
      <text style="font: 10px 'DejaVu Sans', 'Bitstream Vera Sans', 'Computer Modern Sans Serif', 'Lucida Grande', 'Verdana', 'Geneva', 'Lucid', 'Arial', 'Helvetica', 'Avant Garde', sans-serif; text-anchor: middle" x="358.704" y="362.790438" transform="rotate(-0 358.704 362.790438)">3</text>
     </g>
    </g>
    <g id="xtick_5">
     <g id="line2d_9">
      <path d="M 453.456 348.192 
L 453.456 93.744 
" clip-path="url(#pc46f058657)" style="fill: none; stroke: #dfe5e8; stroke-width: 0.65; stroke-linecap: square"/>
     </g>
     <g id="line2d_10">
      <g>
       <use xlink:href="#m7823105429" x="453.456" y="348.192" style="stroke: #000000; stroke-width: 0.8"/>
      </g>
     </g>
     <g id="text_5">
      <text style="font: 10px 'DejaVu Sans', 'Bitstream Vera Sans', 'Computer Modern Sans Serif', 'Lucida Grande', 'Verdana', 'Geneva', 'Lucid', 'Arial', 'Helvetica', 'Avant Garde', sans-serif; text-anchor: middle" x="453.456" y="362.790438" transform="rotate(-0 453.456 362.790438)">4</text>
     </g>
    </g>
    <g id="xtick_6">
     <g id="line2d_11">
      <path d="M 548.208 348.192 
L 548.208 93.744 
" clip-path="url(#pc46f058657)" style="fill: none; stroke: #dfe5e8; stroke-width: 0.65; stroke-linecap: square"/>
     </g>
     <g id="line2d_12">
      <g>
       <use xlink:href="#m7823105429" x="548.208" y="348.192" style="stroke: #000000; stroke-width: 0.8"/>
      </g>
     </g>
     <g id="text_6">
      <text style="font: 10px 'DejaVu Sans', 'Bitstream Vera Sans', 'Computer Modern Sans Serif', 'Lucida Grande', 'Verdana', 'Geneva', 'Lucid', 'Arial', 'Helvetica', 'Avant Garde', sans-serif; text-anchor: middle" x="548.208" y="362.790438" transform="rotate(-0 548.208 362.790438)">5</text>
     </g>
    </g>
    <g id="xtick_7">
     <g id="line2d_13">
      <path d="M 642.96 348.192 
L 642.96 93.744 
" clip-path="url(#pc46f058657)" style="fill: none; stroke: #dfe5e8; stroke-width: 0.65; stroke-linecap: square"/>
     </g>
     <g id="line2d_14">
      <g>
       <use xlink:href="#m7823105429" x="642.96" y="348.192" style="stroke: #000000; stroke-width: 0.8"/>
      </g>
     </g>
     <g id="text_7">
      <text style="font: 10px 'DejaVu Sans', 'Bitstream Vera Sans', 'Computer Modern Sans Serif', 'Lucida Grande', 'Verdana', 'Geneva', 'Lucid', 'Arial', 'Helvetica', 'Avant Garde', sans-serif; text-anchor: middle" x="642.96" y="362.790438" transform="rotate(-0 642.96 362.790438)">6</text>
     </g>
    </g>
    <g id="text_8">
     <text style="font: 10px 'DejaVu Sans', 'Bitstream Vera Sans', 'Computer Modern Sans Serif', 'Lucida Grande', 'Verdana', 'Geneva', 'Lucid', 'Arial', 'Helvetica', 'Avant Garde', sans-serif; text-anchor: middle" x="358.704" y="376.468563" transform="rotate(-0 358.704 376.468563)">sUCS dE threshold</text>
    </g>
   </g>
   <g id="matplotlib.axis_2">
    <g id="ytick_1">
     <g id="line2d_15">
      <path d="M 74.448 348.192 
L 642.96 348.192 
" clip-path="url(#pc46f058657)" style="fill: none; stroke: #dfe5e8; stroke-width: 0.65; stroke-linecap: square"/>
     </g>
     <g id="line2d_16">
      <defs>
       <path id="m2680b75953" d="M 0 0 
L -3.5 0 
" style="stroke: #000000; stroke-width: 0.8"/>
      </defs>
      <g>
       <use xlink:href="#m2680b75953" x="74.448" y="348.192" style="stroke: #000000; stroke-width: 0.8"/>
      </g>
     </g>
     <g id="text_9">
      <text style="font: 10px 'DejaVu Sans', 'Bitstream Vera Sans', 'Computer Modern Sans Serif', 'Lucida Grande', 'Verdana', 'Geneva', 'Lucid', 'Arial', 'Helvetica', 'Avant Garde', sans-serif; text-anchor: end" x="67.448" y="351.991219" transform="rotate(-0 67.448 351.991219)">0</text>
     </g>
    </g>
    <g id="ytick_2">
     <g id="line2d_17">
      <path d="M 74.448 297.3024 
L 642.96 297.3024 
" clip-path="url(#pc46f058657)" style="fill: none; stroke: #dfe5e8; stroke-width: 0.65; stroke-linecap: square"/>
     </g>
     <g id="line2d_18">
      <g>
       <use xlink:href="#m2680b75953" x="74.448" y="297.3024" style="stroke: #000000; stroke-width: 0.8"/>
      </g>
     </g>
     <g id="text_10">
      <text style="font: 10px 'DejaVu Sans', 'Bitstream Vera Sans', 'Computer Modern Sans Serif', 'Lucida Grande', 'Verdana', 'Geneva', 'Lucid', 'Arial', 'Helvetica', 'Avant Garde', sans-serif; text-anchor: end" x="67.448" y="301.101619" transform="rotate(-0 67.448 301.101619)">20</text>
     </g>
    </g>
    <g id="ytick_3">
     <g id="line2d_19">
      <path d="M 74.448 246.4128 
L 642.96 246.4128 
" clip-path="url(#pc46f058657)" style="fill: none; stroke: #dfe5e8; stroke-width: 0.65; stroke-linecap: square"/>
     </g>
     <g id="line2d_20">
      <g>
       <use xlink:href="#m2680b75953" x="74.448" y="246.4128" style="stroke: #000000; stroke-width: 0.8"/>
      </g>
     </g>
     <g id="text_11">
      <text style="font: 10px 'DejaVu Sans', 'Bitstream Vera Sans', 'Computer Modern Sans Serif', 'Lucida Grande', 'Verdana', 'Geneva', 'Lucid', 'Arial', 'Helvetica', 'Avant Garde', sans-serif; text-anchor: end" x="67.448" y="250.212019" transform="rotate(-0 67.448 250.212019)">40</text>
     </g>
    </g>
    <g id="ytick_4">
     <g id="line2d_21">
      <path d="M 74.448 195.5232 
L 642.96 195.5232 
" clip-path="url(#pc46f058657)" style="fill: none; stroke: #dfe5e8; stroke-width: 0.65; stroke-linecap: square"/>
     </g>
     <g id="line2d_22">
      <g>
       <use xlink:href="#m2680b75953" x="74.448" y="195.5232" style="stroke: #000000; stroke-width: 0.8"/>
      </g>
     </g>
     <g id="text_12">
      <text style="font: 10px 'DejaVu Sans', 'Bitstream Vera Sans', 'Computer Modern Sans Serif', 'Lucida Grande', 'Verdana', 'Geneva', 'Lucid', 'Arial', 'Helvetica', 'Avant Garde', sans-serif; text-anchor: end" x="67.448" y="199.322419" transform="rotate(-0 67.448 199.322419)">60</text>
     </g>
    </g>
    <g id="ytick_5">
     <g id="line2d_23">
      <path d="M 74.448 144.6336 
L 642.96 144.6336 
" clip-path="url(#pc46f058657)" style="fill: none; stroke: #dfe5e8; stroke-width: 0.65; stroke-linecap: square"/>
     </g>
     <g id="line2d_24">
      <g>
       <use xlink:href="#m2680b75953" x="74.448" y="144.6336" style="stroke: #000000; stroke-width: 0.8"/>
      </g>
     </g>
     <g id="text_13">
      <text style="font: 10px 'DejaVu Sans', 'Bitstream Vera Sans', 'Computer Modern Sans Serif', 'Lucida Grande', 'Verdana', 'Geneva', 'Lucid', 'Arial', 'Helvetica', 'Avant Garde', sans-serif; text-anchor: end" x="67.448" y="148.432819" transform="rotate(-0 67.448 148.432819)">80</text>
     </g>
    </g>
    <g id="ytick_6">
     <g id="line2d_25">
      <path d="M 74.448 93.744 
L 642.96 93.744 
" clip-path="url(#pc46f058657)" style="fill: none; stroke: #dfe5e8; stroke-width: 0.65; stroke-linecap: square"/>
     </g>
     <g id="line2d_26">
      <g>
       <use xlink:href="#m2680b75953" x="74.448" y="93.744" style="stroke: #000000; stroke-width: 0.8"/>
      </g>
     </g>
     <g id="text_14">
      <text style="font: 10px 'DejaVu Sans', 'Bitstream Vera Sans', 'Computer Modern Sans Serif', 'Lucida Grande', 'Verdana', 'Geneva', 'Lucid', 'Arial', 'Helvetica', 'Avant Garde', sans-serif; text-anchor: end" x="67.448" y="97.543219" transform="rotate(-0 67.448 97.543219)">100</text>
     </g>
    </g>
    <g id="text_15">
     <text style="font: 10px 'DejaVu Sans', 'Bitstream Vera Sans', 'Computer Modern Sans Serif', 'Lucida Grande', 'Verdana', 'Geneva', 'Lucid', 'Arial', 'Helvetica', 'Avant Garde', sans-serif; text-anchor: middle" x="42.280812" y="220.968" transform="rotate(-90 42.280812 220.968)">observers%</text>
    </g>
   </g>
   <g id="line2d_27">
    <path d="M 74.448 348.192 
L 110.45376 348.192 
L 112.3488 346.560923 
L 135.08928 346.560923 
L 136.98432 344.929846 
L 142.66944 344.929846 
L 144.56448 342.736329 
L 148.35456 342.736329 
L 150.2496 339.474175 
L 152.14464 337.843098 
L 157.82976 337.843098 
L 159.7248 335.649581 
L 163.51488 335.649581 
L 165.40992 334.018504 
L 171.09504 334.018504 
L 172.99008 332.387427 
L 178.6752 332.387427 
L 180.57024 328.562833 
L 184.36032 328.562833 
L 186.25536 326.931756 
L 188.1504 326.931756 
L 190.04544 325.300679 
L 195.73056 325.300679 
L 197.6256 322.038525 
L 199.52064 322.038525 
L 201.41568 319.845008 
L 207.1008 319.845008 
L 208.99584 318.213931 
L 210.89088 318.213931 
L 212.78592 314.951777 
L 226.0512 314.951777 
L 229.84128 311.689623 
L 231.73632 308.427469 
L 233.63136 308.427469 
L 235.5264 305.165316 
L 237.42144 305.165316 
L 239.31648 301.903162 
L 246.89664 301.903162 
L 248.79168 298.078568 
L 250.68672 298.078568 
L 252.58176 295.88505 
L 254.4768 295.88505 
L 262.05696 289.360743 
L 263.952 289.360743 
L 265.84704 287.729666 
L 279.11232 287.729666 
L 281.00736 286.098589 
L 282.9024 282.836435 
L 288.58752 282.836435 
L 290.48256 280.642918 
L 292.3776 280.642918 
L 294.27264 275.749687 
L 296.16768 274.11861 
L 305.64288 274.11861 
L 307.53792 272.487533 
L 311.328 272.487533 
L 313.22304 270.856456 
L 318.90816 270.856456 
L 322.69824 267.594302 
L 332.17344 267.594302 
L 334.06848 263.769708 
L 335.96352 260.507554 
L 337.85856 260.507554 
L 339.7536 258.314037 
L 343.54368 258.314037 
L 345.43872 252.858366 
L 347.33376 246.840255 
L 353.01888 246.840255 
L 354.91392 244.646737 
L 356.80896 244.646737 
L 358.704 240.822143 
L 364.38912 240.822143 
L 366.28416 238.628626 
L 373.86432 238.628626 
L 375.75936 236.997549 
L 377.6544 236.997549 
L 379.54944 234.804032 
L 383.33952 234.804032 
L 387.1296 231.541878 
L 402.28992 231.541878 
L 404.18496 229.910801 
L 406.08 229.910801 
L 407.97504 228.279724 
L 413.66016 228.279724 
L 415.5552 226.648647 
L 423.13536 226.648647 
L 425.0304 221.755416 
L 426.92544 221.755416 
L 428.82048 220.12434 
L 432.61056 220.12434 
L 436.40064 215.737305 
L 443.9808 215.737305 
L 445.87584 214.106228 
L 453.456 214.106228 
L 457.24608 209.719194 
L 464.82624 209.719194 
L 466.72128 208.088117 
L 470.51136 208.088117 
L 474.30144 204.825963 
L 476.19648 204.825963 
L 478.09152 203.194886 
L 481.8816 203.194886 
L 483.77664 201.001369 
L 485.67168 201.001369 
L 489.46176 197.739215 
L 495.14688 197.739215 
L 497.04192 195.545698 
L 508.41216 195.545698 
L 510.3072 192.283544 
L 515.99232 192.283544 
L 519.7824 189.02139 
L 523.57248 189.02139 
L 525.46752 186.827873 
L 533.04768 186.827873 
L 534.94272 184.634355 
L 548.208 184.634355 
L 550.10304 183.003279 
L 551.99808 183.003279 
L 553.89312 181.372202 
L 586.1088 181.372202 
L 588.00384 179.178684 
L 589.89888 179.178684 
L 591.79392 176.985167 
L 595.584 176.985167 
L 597.47904 174.79165 
L 599.37408 174.79165 
L 601.26912 171.529496 
L 605.0592 171.529496 
L 606.95424 169.335979 
L 610.74432 169.335979 
L 612.63936 167.142462 
L 642.96 167.142462 
L 642.96 167.142462 
" clip-path="url(#pc46f058657)" style="fill: none; stroke: #252525; stroke-width: 2.5; stroke-linecap: square"/>
   </g>
   <g id="line2d_28">
    <path d="M 74.448 348.192 
L 104.76864 348.192 
L 106.66368 345.998483 
L 118.03392 345.998483 
L 119.92896 343.804966 
L 131.2992 343.804966 
L 133.19424 341.611448 
L 135.08928 341.611448 
L 136.98432 339.980371 
L 152.14464 339.980371 
L 154.03968 337.786854 
L 155.93472 336.155777 
L 172.99008 336.155777 
L 174.88512 333.96226 
L 176.78016 333.96226 
L 178.6752 332.331183 
L 190.04544 332.331183 
L 191.94048 330.700106 
L 193.83552 330.700106 
L 195.73056 326.875512 
L 199.52064 326.875512 
L 201.41568 325.244435 
L 207.1008 325.244435 
L 208.99584 323.613358 
L 212.78592 323.613358 
L 214.68096 321.982281 
L 220.36608 321.982281 
L 222.26112 319.788764 
L 224.15616 315.96417 
L 226.0512 313.770653 
L 227.94624 313.770653 
L 229.84128 307.752541 
L 250.68672 307.752541 
L 252.58176 306.121464 
L 258.26688 306.121464 
L 260.16192 302.29687 
L 263.952 302.29687 
L 265.84704 300.103353 
L 267.74208 298.472276 
L 284.79744 298.472276 
L 286.69248 296.841199 
L 288.58752 296.841199 
L 290.48256 293.016605 
L 292.3776 290.823088 
L 294.27264 290.823088 
L 296.16768 289.192011 
L 298.06272 289.192011 
L 299.95776 286.998493 
L 303.74784 286.998493 
L 307.53792 283.73634 
L 309.43296 283.73634 
L 311.328 281.542822 
L 313.22304 281.542822 
L 315.11808 279.349305 
L 317.01312 279.349305 
L 318.90816 277.155788 
L 330.2784 277.155788 
L 332.17344 273.893634 
L 335.96352 273.893634 
L 339.7536 270.63148 
L 341.64864 270.63148 
L 343.54368 269.000403 
L 347.33376 269.000403 
L 351.12384 265.738249 
L 353.01888 265.738249 
L 354.91392 263.544732 
L 358.704 263.544732 
L 360.59904 259.720138 
L 362.49408 259.720138 
L 364.38912 257.526621 
L 366.28416 257.526621 
L 368.1792 255.895544 
L 371.96928 249.371236 
L 375.75936 249.371236 
L 377.6544 247.177719 
L 379.54944 247.177719 
L 381.44448 240.653411 
L 383.33952 238.459894 
L 387.1296 235.19774 
L 390.91968 235.19774 
L 392.81472 233.566663 
L 409.87008 233.566663 
L 419.34528 225.411279 
L 425.0304 225.411279 
L 426.92544 223.780202 
L 440.19072 223.780202 
L 442.08576 220.518048 
L 455.35104 220.518048 
L 457.24608 218.324531 
L 461.03616 218.324531 
L 462.9312 215.062377 
L 464.82624 213.4313 
L 478.09152 213.4313 
L 479.98656 211.800223 
L 485.67168 211.800223 
L 487.56672 209.606706 
L 489.46176 209.606706 
L 491.3568 207.975629 
L 498.93696 207.975629 
L 500.832 206.344552 
L 504.62208 206.344552 
L 508.41216 203.082398 
L 510.3072 203.082398 
L 514.09728 199.820244 
L 517.88736 199.820244 
L 519.7824 197.626727 
L 521.67744 197.626727 
L 523.57248 195.99565 
L 525.46752 195.99565 
L 527.36256 192.733496 
L 529.2576 187.277825 
L 553.89312 187.277825 
L 555.78816 185.646748 
L 557.6832 183.453231 
L 559.57824 183.453231 
L 561.47328 181.822154 
L 569.05344 181.822154 
L 570.94848 177.99756 
L 591.79392 177.99756 
L 593.68896 175.804042 
L 595.584 175.804042 
L 597.47904 173.610525 
L 601.26912 173.610525 
L 605.0592 169.223491 
L 624.0096 169.223491 
L 625.90464 167.029973 
L 633.4848 167.029973 
L 637.27488 163.76782 
L 641.06496 163.76782 
L 642.96 161.574302 
L 642.96 161.574302 
" clip-path="url(#pc46f058657)" style="fill: none; stroke: #3b83b4; stroke-width: 1.35; stroke-linecap: square"/>
   </g>
   <g id="line2d_29">
    <path d="M 74.448 348.192 
L 78.23808 348.192 
L 80.13312 346.560923 
L 99.08352 346.560923 
L 100.97856 344.929846 
L 104.76864 344.929846 
L 106.66368 343.298769 
L 123.71904 343.298769 
L 125.61408 341.667692 
L 144.56448 341.667692 
L 148.35456 338.405538 
L 155.93472 338.405538 
L 157.82976 336.774462 
L 167.30496 336.774462 
L 169.2 334.580944 
L 174.88512 334.580944 
L 176.78016 332.949867 
L 197.6256 332.949867 
L 201.41568 329.687714 
L 210.89088 329.687714 
L 212.78592 328.056637 
L 218.47104 328.056637 
L 222.26112 324.794483 
L 227.94624 324.794483 
L 229.84128 323.163406 
L 237.42144 323.163406 
L 239.31648 321.532329 
L 241.21152 321.532329 
L 243.10656 319.901252 
L 250.68672 319.901252 
L 252.58176 318.270175 
L 254.4768 315.008021 
L 256.37184 315.008021 
L 258.26688 312.814504 
L 260.16192 309.55235 
L 271.53216 309.55235 
L 273.4272 307.921273 
L 275.32224 307.921273 
L 277.21728 306.290196 
L 288.58752 306.290196 
L 290.48256 304.659119 
L 292.3776 304.659119 
L 294.27264 303.028042 
L 296.16768 303.028042 
L 298.06272 300.834525 
L 299.95776 300.834525 
L 301.8528 299.203448 
L 305.64288 299.203448 
L 307.53792 295.941294 
L 309.43296 295.941294 
L 311.328 294.310218 
L 313.22304 294.310218 
L 315.11808 292.679141 
L 332.17344 292.679141 
L 334.06848 288.854546 
L 337.85856 285.592393 
L 339.7536 285.592393 
L 341.64864 281.767798 
L 345.43872 281.767798 
L 347.33376 278.505645 
L 356.80896 278.505645 
L 358.704 276.874568 
L 360.59904 276.874568 
L 364.38912 273.612414 
L 368.1792 273.612414 
L 370.07424 271.981337 
L 379.54944 271.981337 
L 381.44448 269.78782 
L 390.91968 269.78782 
L 392.81472 268.156743 
L 394.70976 265.963225 
L 407.97504 265.963225 
L 409.87008 263.769708 
L 411.76512 263.769708 
L 413.66016 262.138631 
L 417.45024 262.138631 
L 419.34528 260.507554 
L 425.0304 260.507554 
L 426.92544 258.876477 
L 440.19072 258.876477 
L 443.9808 255.614324 
L 445.87584 255.614324 
L 447.77088 253.983247 
L 449.66592 250.158653 
L 459.14112 250.158653 
L 461.03616 248.527576 
L 462.9312 248.527576 
L 464.82624 246.334058 
L 466.72128 246.334058 
L 468.61632 244.140541 
L 472.4064 244.140541 
L 474.30144 242.509464 
L 481.8816 242.509464 
L 483.77664 240.315947 
L 485.67168 240.315947 
L 487.56672 238.68487 
L 498.93696 238.68487 
L 500.832 235.422716 
L 508.41216 235.422716 
L 510.3072 233.791639 
L 521.67744 233.791639 
L 527.36256 228.898408 
L 531.15264 228.898408 
L 533.04768 227.267332 
L 538.7328 220.68678 
L 540.62784 220.68678 
L 542.52288 219.055703 
L 546.31296 219.055703 
L 548.208 216.862186 
L 550.10304 216.862186 
L 551.99808 214.668668 
L 553.89312 213.037592 
L 557.6832 213.037592 
L 559.57824 210.844074 
L 570.94848 210.844074 
L 572.84352 209.212997 
L 576.6336 209.212997 
L 578.52864 207.01948 
L 580.42368 205.388403 
L 589.89888 205.388403 
L 591.79392 203.757326 
L 595.584 203.757326 
L 597.47904 202.126249 
L 616.42944 202.126249 
L 618.32448 198.864095 
L 631.58976 198.864095 
L 633.4848 197.233019 
L 635.37984 197.233019 
L 637.27488 195.601942 
L 639.16992 189.58383 
L 642.96 189.58383 
L 642.96 189.58383 
" clip-path="url(#pc46f058657)" style="fill: none; stroke-dasharray: 4.995,2.16; stroke-dashoffset: 0; stroke: #c38a19; stroke-width: 1.35"/>
   </g>
   <g id="line2d_30">
    <path d="M 74.448 348.192 
L 125.61408 348.192 
L 129.40416 344.929846 
L 135.08928 344.929846 
L 136.98432 343.298769 
L 142.66944 343.298769 
L 144.56448 340.036615 
L 148.35456 340.036615 
L 150.2496 338.405538 
L 152.14464 338.405538 
L 155.93472 335.143385 
L 167.30496 335.143385 
L 169.2 332.949867 
L 171.09504 331.31879 
L 176.78016 331.31879 
L 178.6752 329.687714 
L 182.46528 329.687714 
L 184.36032 328.056637 
L 186.25536 328.056637 
L 188.1504 326.42556 
L 195.73056 326.42556 
L 197.6256 324.794483 
L 210.89088 324.794483 
L 212.78592 323.163406 
L 218.47104 323.163406 
L 220.36608 319.338812 
L 229.84128 319.338812 
L 231.73632 317.707735 
L 235.5264 317.707735 
L 237.42144 315.514218 
L 239.31648 315.514218 
L 241.21152 313.883141 
L 248.79168 313.883141 
L 250.68672 312.252064 
L 256.37184 312.252064 
L 258.26688 310.620987 
L 260.16192 307.358833 
L 262.05696 307.358833 
L 263.952 305.727756 
L 265.84704 305.727756 
L 267.74208 304.096679 
L 273.4272 304.096679 
L 275.32224 298.641008 
L 288.58752 298.641008 
L 290.48256 294.816414 
L 296.16768 294.816414 
L 301.8528 289.923183 
L 317.01312 289.923183 
L 318.90816 288.292106 
L 320.8032 286.098589 
L 322.69824 286.098589 
L 326.48832 282.836435 
L 328.38336 282.836435 
L 330.2784 279.574281 
L 335.96352 279.574281 
L 337.85856 276.312127 
L 339.7536 274.11861 
L 341.64864 274.11861 
L 343.54368 272.487533 
L 345.43872 272.487533 
L 347.33376 270.856456 
L 351.12384 270.856456 
L 354.91392 267.594302 
L 364.38912 267.594302 
L 366.28416 265.963225 
L 381.44448 265.963225 
L 383.33952 264.332149 
L 392.81472 264.332149 
L 394.70976 262.138631 
L 404.18496 262.138631 
L 406.08 260.507554 
L 407.97504 260.507554 
L 409.87008 258.876477 
L 411.76512 258.876477 
L 413.66016 257.245401 
L 415.5552 257.245401 
L 417.45024 255.051883 
L 419.34528 253.420806 
L 421.24032 251.227289 
L 425.0304 251.227289 
L 428.82048 247.965135 
L 438.29568 247.965135 
L 440.19072 245.771618 
L 451.56096 245.771618 
L 453.456 244.140541 
L 461.03616 244.140541 
L 462.9312 241.947024 
L 474.30144 241.947024 
L 476.19648 240.315947 
L 478.09152 233.735395 
L 479.98656 233.735395 
L 481.8816 232.104318 
L 483.77664 232.104318 
L 485.67168 230.473241 
L 487.56672 230.473241 
L 489.46176 228.842164 
L 491.3568 228.842164 
L 493.25184 226.648647 
L 497.04192 226.648647 
L 498.93696 221.192976 
L 500.832 221.192976 
L 502.72704 219.561899 
L 510.3072 219.561899 
L 512.20224 215.737305 
L 515.99232 215.737305 
L 517.88736 214.106228 
L 525.46752 214.106228 
L 527.36256 211.912711 
L 529.2576 208.650557 
L 548.208 208.650557 
L 550.10304 207.01948 
L 557.6832 207.01948 
L 559.57824 205.388403 
L 563.36832 205.388403 
L 565.26336 203.757326 
L 572.84352 203.757326 
L 574.73856 202.126249 
L 580.42368 202.126249 
L 582.31872 199.932732 
L 584.21376 199.932732 
L 586.1088 197.739215 
L 591.79392 197.739215 
L 593.68896 196.108138 
L 597.47904 196.108138 
L 599.37408 194.477061 
L 608.84928 194.477061 
L 610.74432 192.845984 
L 612.63936 192.845984 
L 614.5344 190.652467 
L 618.32448 190.652467 
L 622.11456 187.390313 
L 627.79968 187.390313 
L 629.69472 185.759236 
L 642.96 185.759236 
L 642.96 185.759236 
" clip-path="url(#pc46f058657)" style="fill: none; stroke-dasharray: 1.35,2.2275; stroke-dashoffset: 0; stroke: #7d8a92; stroke-width: 1.35"/>
   </g>
   <g id="line2d_31">
    <path d="M 74.448 348.192 
L 125.61408 348.192 
L 127.50912 345.998483 
L 184.36032 345.998483 
L 186.25536 344.367406 
L 188.1504 344.367406 
L 190.04544 342.736329 
L 201.41568 342.736329 
L 203.31072 341.105252 
L 224.15616 341.105252 
L 226.0512 339.474175 
L 233.63136 339.474175 
L 235.5264 337.843098 
L 269.63712 337.843098 
L 271.53216 336.212021 
L 284.79744 336.212021 
L 286.69248 332.949867 
L 307.53792 332.949867 
L 309.43296 331.31879 
L 322.69824 331.31879 
L 324.59328 329.125273 
L 332.17344 329.125273 
L 334.06848 327.494196 
L 341.64864 327.494196 
L 343.54368 325.300679 
L 371.96928 325.300679 
L 373.86432 323.107162 
L 383.33952 323.107162 
L 385.23456 321.476085 
L 387.1296 321.476085 
L 389.02464 318.213931 
L 390.91968 318.213931 
L 392.81472 316.582854 
L 396.6048 316.582854 
L 398.49984 314.951777 
L 411.76512 314.951777 
L 413.66016 311.689623 
L 415.5552 311.689623 
L 417.45024 310.058546 
L 436.40064 310.058546 
L 438.29568 308.427469 
L 478.09152 308.427469 
L 479.98656 306.796393 
L 491.3568 306.796393 
L 493.25184 305.165316 
L 498.93696 305.165316 
L 500.832 303.534239 
L 510.3072 303.534239 
L 512.20224 301.903162 
L 534.94272 301.903162 
L 536.83776 300.272085 
L 538.7328 300.272085 
L 540.62784 298.641008 
L 563.36832 298.641008 
L 565.26336 295.378854 
L 572.84352 295.378854 
L 574.73856 293.185337 
L 578.52864 293.185337 
L 580.42368 291.55426 
L 582.31872 289.360743 
L 586.1088 289.360743 
L 591.79392 284.467512 
L 599.37408 284.467512 
L 601.26912 282.836435 
L 603.16416 282.836435 
L 605.0592 280.642918 
L 606.95424 279.011841 
L 610.74432 279.011841 
L 614.5344 275.749687 
L 620.21952 275.749687 
L 622.11456 274.11861 
L 637.27488 274.11861 
L 639.16992 271.925093 
L 641.06496 270.294016 
L 642.96 270.294016 
L 642.96 270.294016 
" clip-path="url(#pc46f058657)" style="fill: none; stroke-dasharray: 8.64,2.16,1.35,2.16; stroke-dashoffset: 0; stroke: #d0526a; stroke-width: 1.35"/>
   </g>
   <g id="line2d_32">
    <path d="M 74.448 348.192 
L 146.45952 348.192 
L 148.35456 343.804966 
L 184.36032 343.804966 
L 186.25536 341.611448 
L 190.04544 341.611448 
L 191.94048 339.417931 
L 199.52064 339.417931 
L 201.41568 337.224414 
L 212.78592 337.224414 
L 214.68096 335.030897 
L 218.47104 335.030897 
L 220.36608 332.837379 
L 233.63136 332.837379 
L 235.5264 330.643862 
L 237.42144 330.643862 
L 239.31648 328.450345 
L 241.21152 328.450345 
L 245.0016 324.06331 
L 248.79168 324.06331 
L 250.68672 321.869793 
L 271.53216 321.869793 
L 273.4272 317.482759 
L 298.06272 317.482759 
L 299.95776 315.851682 
L 301.8528 311.464647 
L 322.69824 311.464647 
L 324.59328 309.27113 
L 335.96352 309.27113 
L 337.85856 307.077613 
L 351.12384 307.077613 
L 353.01888 305.446536 
L 364.38912 305.446536 
L 366.28416 303.253019 
L 377.6544 303.253019 
L 379.54944 301.059501 
L 392.81472 301.059501 
L 394.70976 298.865984 
L 400.39488 298.865984 
L 402.28992 297.234907 
L 404.18496 297.234907 
L 406.08 295.60383 
L 409.87008 295.60383 
L 411.76512 293.410313 
L 413.66016 289.585719 
L 425.0304 289.585719 
L 426.92544 287.392202 
L 432.61056 287.392202 
L 434.5056 285.198684 
L 438.29568 285.198684 
L 440.19072 283.005167 
L 453.456 283.005167 
L 455.35104 280.81165 
L 457.24608 280.81165 
L 459.14112 278.618133 
L 462.9312 278.618133 
L 464.82624 276.987056 
L 483.77664 276.987056 
L 485.67168 275.355979 
L 489.46176 275.355979 
L 491.3568 271.531385 
L 493.25184 269.337867 
L 495.14688 263.882196 
L 497.04192 263.882196 
L 498.93696 261.688679 
L 504.62208 261.688679 
L 506.51712 256.233008 
L 508.41216 254.039491 
L 510.3072 254.039491 
L 512.20224 250.214897 
L 514.09728 246.952743 
L 521.67744 246.952743 
L 523.57248 244.759225 
L 533.04768 244.759225 
L 534.94272 243.128149 
L 544.41792 243.128149 
L 546.31296 241.497072 
L 548.208 241.497072 
L 550.10304 239.865995 
L 574.73856 239.865995 
L 576.6336 238.234918 
L 578.52864 238.234918 
L 580.42368 236.603841 
L 584.21376 236.603841 
L 588.00384 233.341687 
L 591.79392 233.341687 
L 593.68896 225.692499 
L 595.584 223.498981 
L 599.37408 223.498981 
L 601.26912 221.305464 
L 612.63936 221.305464 
L 614.5344 219.674387 
L 616.42944 219.674387 
L 618.32448 218.04331 
L 622.11456 218.04331 
L 624.0096 216.412233 
L 627.79968 216.412233 
L 629.69472 214.218716 
L 631.58976 214.218716 
L 635.37984 209.831682 
L 641.06496 209.831682 
L 642.96 207.638164 
L 642.96 207.638164 
" clip-path="url(#pc46f058657)" style="fill: none; stroke-dasharray: 6.75,2.7,1.35,2.7; stroke-dashoffset: 0; stroke: #2f8f84; stroke-width: 1.35"/>
   </g>
   <g id="patch_4">
    <path d="M 74.448 348.192 
L 74.448 93.744 
" style="fill: none; stroke: #000000; stroke-width: 0.8; stroke-linejoin: miter; stroke-linecap: square"/>
   </g>
   <g id="patch_5">
    <path d="M 74.448 348.192 
L 642.96 348.192 
" style="fill: none; stroke: #000000; stroke-width: 0.8; stroke-linejoin: miter; stroke-linecap: square"/>
   </g>
  </g>
  <g id="text_16">
   <text style="font: 18px 'DejaVu Sans', 'Bitstream Vera Sans', 'Computer Modern Sans Serif', 'Lucida Grande', 'Verdana', 'Geneva', 'Lucid', 'Arial', 'Helvetica', 'Avant Garde', sans-serif; text-anchor: start" x="74.448" y="38.229188" transform="rotate(-0 74.448 38.229188)">LED-V2 Direct</text>
  </g>
  <g id="text_17">
   <text style="fill: #66747c; font: 10px 'DejaVu Sans', 'Bitstream Vera Sans', 'Computer Modern Sans Serif', 'Lucida Grande', 'Verdana', 'Geneva', 'Lucid', 'Arial', 'Helvetica', 'Avant Garde', sans-serif; text-anchor: start" x="74.448" y="64.728" transform="rotate(-0 74.448 64.728)">KSF LCD</text>
  </g>
  <g id="legend_1">
   <g id="line2d_33">
    <path d="M 185.17875 404.151391 
L 194.27875 404.151391 
L 203.37875 404.151391 
" style="fill: none; stroke: #252525; stroke-width: 2.5; stroke-linecap: square"/>
   </g>
   <g id="text_18">
    <text style="font: 9.1px 'DejaVu Sans', 'Bitstream Vera Sans', 'Computer Modern Sans Serif', 'Lucida Grande', 'Verdana', 'Geneva', 'Lucid', 'Arial', 'Helvetica', 'Avant Garde', sans-serif; text-anchor: start" x="210.65875" y="407.336391" transform="rotate(-0 210.65875 407.336391)">Potera CMF</text>
   </g>
   <g id="line2d_34">
    <path d="M 185.17875 417.508484 
L 194.27875 417.508484 
L 203.37875 417.508484 
" style="fill: none; stroke: #3b83b4; stroke-width: 1.35; stroke-linecap: square"/>
   </g>
   <g id="text_19">
    <text style="font: 9.1px 'DejaVu Sans', 'Bitstream Vera Sans', 'Computer Modern Sans Serif', 'Lucida Grande', 'Verdana', 'Geneva', 'Lucid', 'Arial', 'Helvetica', 'Avant Garde', sans-serif; text-anchor: start" x="210.65875" y="420.693484" transform="rotate(-0 210.65875 420.693484)">CIE 2015 2°</text>
   </g>
   <g id="line2d_35">
    <path d="M 282.931234 404.151391 
L 292.031234 404.151391 
L 301.131234 404.151391 
" style="fill: none; stroke-dasharray: 4.995,2.16; stroke-dashoffset: 0; stroke: #c38a19; stroke-width: 1.35"/>
   </g>
   <g id="text_20">
    <text style="font: 9.1px 'DejaVu Sans', 'Bitstream Vera Sans', 'Computer Modern Sans Serif', 'Lucida Grande', 'Verdana', 'Geneva', 'Lucid', 'Arial', 'Helvetica', 'Avant Garde', sans-serif; text-anchor: start" x="308.411234" y="407.336391" transform="rotate(-0 308.411234 407.336391)">CIE 2015 10°</text>
   </g>
   <g id="line2d_36">
    <path d="M 282.931234 417.508484 
L 292.031234 417.508484 
L 301.131234 417.508484 
" style="fill: none; stroke-dasharray: 1.35,2.2275; stroke-dashoffset: 0; stroke: #7d8a92; stroke-width: 1.35"/>
   </g>
   <g id="text_21">
    <text style="font: 9.1px 'DejaVu Sans', 'Bitstream Vera Sans', 'Computer Modern Sans Serif', 'Lucida Grande', 'Verdana', 'Geneva', 'Lucid', 'Arial', 'Helvetica', 'Avant Garde', sans-serif; text-anchor: start" x="308.411234" y="420.693484" transform="rotate(-0 308.411234 420.693484)">CIE 1964 10°</text>
   </g>
   <g id="line2d_37">
    <path d="M 386.473594 404.151391 
L 395.573594 404.151391 
L 404.673594 404.151391 
" style="fill: none; stroke-dasharray: 8.64,2.16,1.35,2.16; stroke-dashoffset: 0; stroke: #d0526a; stroke-width: 1.35"/>
   </g>
   <g id="text_22">
    <text style="font: 9.1px 'DejaVu Sans', 'Bitstream Vera Sans', 'Computer Modern Sans Serif', 'Lucida Grande', 'Verdana', 'Geneva', 'Lucid', 'Arial', 'Helvetica', 'Avant Garde', sans-serif; text-anchor: start" x="411.953594" y="407.336391" transform="rotate(-0 411.953594 407.336391)">CIE 1931 2°</text>
   </g>
   <g id="line2d_38">
    <path d="M 386.473594 417.508484 
L 395.573594 417.508484 
L 404.673594 417.508484 
" style="fill: none; stroke-dasharray: 6.75,2.7,1.35,2.7; stroke-dashoffset: 0; stroke: #2f8f84; stroke-width: 1.35"/>
   </g>
   <g id="text_23">
    <text style="font: 9.1px 'DejaVu Sans', 'Bitstream Vera Sans', 'Computer Modern Sans Serif', 'Lucida Grande', 'Verdana', 'Geneva', 'Lucid', 'Arial', 'Helvetica', 'Avant Garde', sans-serif; text-anchor: start" x="411.953594" y="420.693484" transform="rotate(-0 411.953594 420.693484)">Judd–Vos 1978 2°</text>
   </g>
  </g>
 </g>
 <defs>
  <clipPath id="pc46f058657">
   <rect x="74.448" y="93.744" width="568.512" height="254.448"/>
  </clipPath>
 </defs>
</svg>
