<?xml version="1.0" encoding="utf-8" standalone="no"?>
<!DOCTYPE svg PUBLIC "-//W3C//DTD SVG 1.1//EN"
  "http://www.w3.org/Graphics/SVG/1.1/DTD/svg11.dtd">
<svg xmlns:xlink="http://www.w3.org/1999/xlink" width="676.8pt" height="446.4pt" viewBox="0 0 676.8 446.4" xmlns="http://www.w3.org/2000/svg" version="1.1">
 <metadata>
  <rdf:RDF xmlns:dc="http://purl.org/dc/elements/1.1/" xmlns:cc="http://creativecommons.org/ns#" xmlns:rdf="http://www.w3.org/1999/02/22-rdf-syntax-ns#">
   <cc:Work>
    <dc:type rdf:resource="http://purl.org/dc/dcmitype/StillImage"/>
    <dc:date>2026-07-20T06:41:56.594875</dc:date>
    <dc:format>image/svg+xml</dc:format>
    <dc:creator>
     <cc:Agent>
      <dc:title>Matplotlib v3.9.4, https://matplotlib.org/</dc:title>
     </cc:Agent>
    </dc:creator>
   </cc:Work>
  </rdf:RDF>
 </metadata>
 <defs>
  <style type="text/css">*{stroke-linejoin: round; stroke-linecap: butt}</style>
 </defs>
 <g id="figure_1">
  <g id="patch_1">
   <path d="M 0 446.4 
L 676.8 446.4 
L 676.8 0 
L 0 0 
z
" style="fill: #ffffff"/>
  </g>
  <g id="axes_1">
   <g id="patch_2">
    <path d="M 74.448 348.192 
L 642.96 348.192 
L 642.96 93.744 
L 74.448 93.744 
z
" style="fill: #ffffff"/>
   </g>
   <g id="patch_3">
    <path d="M 169.2 348.192 
L 358.704 348.192 
L 358.704 93.744 
L 169.2 93.744 
z
" clip-path="url(#p0f8eb6c272)" style="fill: #e7f0ea; opacity: 0.58; stroke: #e7f0ea; stroke-linejoin: miter"/>
   </g>
   <g id="matplotlib.axis_1">
    <g id="xtick_1">
     <g id="line2d_1">
      <path d="M 74.448 348.192 
L 74.448 93.744 
" clip-path="url(#p0f8eb6c272)" style="fill: none; stroke: #dfe5e8; stroke-width: 0.65; stroke-linecap: square"/>
     </g>
     <g id="line2d_2">
      <defs>
       <path id="mb2fdea0699" d="M 0 0 
L 0 3.5 
" style="stroke: #000000; stroke-width: 0.8"/>
      </defs>
      <g>
       <use xlink:href="#mb2fdea0699" x="74.448" y="348.192" style="stroke: #000000; stroke-width: 0.8"/>
      </g>
     </g>
     <g id="text_1">
      <text style="font: 10px 'DejaVu Sans', 'Bitstream Vera Sans', 'Computer Modern Sans Serif', 'Lucida Grande', 'Verdana', 'Geneva', 'Lucid', 'Arial', 'Helvetica', 'Avant Garde', sans-serif; text-anchor: middle" x="74.448" y="362.790438" transform="rotate(-0 74.448 362.790438)">0</text>
     </g>
    </g>
    <g id="xtick_2">
     <g id="line2d_3">
      <path d="M 169.2 348.192 
L 169.2 93.744 
" clip-path="url(#p0f8eb6c272)" style="fill: none; stroke: #dfe5e8; stroke-width: 0.65; stroke-linecap: square"/>
     </g>
     <g id="line2d_4">
      <g>
       <use xlink:href="#mb2fdea0699" x="169.2" y="348.192" style="stroke: #000000; stroke-width: 0.8"/>
      </g>
     </g>
     <g id="text_2">
      <text style="font: 10px 'DejaVu Sans', 'Bitstream Vera Sans', 'Computer Modern Sans Serif', 'Lucida Grande', 'Verdana', 'Geneva', 'Lucid', 'Arial', 'Helvetica', 'Avant Garde', sans-serif; text-anchor: middle" x="169.2" y="362.790438" transform="rotate(-0 169.2 362.790438)">1</text>
     </g>
    </g>
    <g id="xtick_3">
     <g id="line2d_5">
      <path d="M 263.952 348.192 
L 263.952 93.744 
" clip-path="url(#p0f8eb6c272)" style="fill: none; stroke: #dfe5e8; stroke-width: 0.65; stroke-linecap: square"/>
     </g>
     <g id="line2d_6">
      <g>
       <use xlink:href="#mb2fdea0699" x="263.952" y="348.192" style="stroke: #000000; stroke-width: 0.8"/>
      </g>
     </g>
     <g id="text_3">
      <text style="font: 10px 'DejaVu Sans', 'Bitstream Vera Sans', 'Computer Modern Sans Serif', 'Lucida Grande', 'Verdana', 'Geneva', 'Lucid', 'Arial', 'Helvetica', 'Avant Garde', sans-serif; text-anchor: middle" x="263.952" y="362.790438" transform="rotate(-0 263.952 362.790438)">2</text>
     </g>
    </g>
    <g id="xtick_4">
     <g id="line2d_7">
      <path d="M 358.704 348.192 
L 358.704 93.744 
" clip-path="url(#p0f8eb6c272)" style="fill: none; stroke: #dfe5e8; stroke-width: 0.65; stroke-linecap: square"/>
     </g>
     <g id="line2d_8">
      <g>
       <use xlink:href="#mb2fdea0699" x="358.704" y="348.192" style="stroke: #000000; stroke-width: 0.8"/>
      </g>
     </g>
     <g id="text_4">
      <text style="font: 10px 'DejaVu Sans', 'Bitstream Vera Sans', 'Computer Modern Sans Serif', 'Lucida Grande', 'Verdana', 'Geneva', 'Lucid', 'Arial', 'Helvetica', 'Avant Garde', sans-serif; text-anchor: middle" x="358.704" y="362.790438" transform="rotate(-0 358.704 362.790438)">3</text>
     </g>
    </g>
    <g id="xtick_5">
     <g id="line2d_9">
      <path d="M 453.456 348.192 
L 453.456 93.744 
" clip-path="url(#p0f8eb6c272)" style="fill: none; stroke: #dfe5e8; stroke-width: 0.65; stroke-linecap: square"/>
     </g>
     <g id="line2d_10">
      <g>
       <use xlink:href="#mb2fdea0699" x="453.456" y="348.192" style="stroke: #000000; stroke-width: 0.8"/>
      </g>
     </g>
     <g id="text_5">
      <text style="font: 10px 'DejaVu Sans', 'Bitstream Vera Sans', 'Computer Modern Sans Serif', 'Lucida Grande', 'Verdana', 'Geneva', 'Lucid', 'Arial', 'Helvetica', 'Avant Garde', sans-serif; text-anchor: middle" x="453.456" y="362.790438" transform="rotate(-0 453.456 362.790438)">4</text>
     </g>
    </g>
    <g id="xtick_6">
     <g id="line2d_11">
      <path d="M 548.208 348.192 
L 548.208 93.744 
" clip-path="url(#p0f8eb6c272)" style="fill: none; stroke: #dfe5e8; stroke-width: 0.65; stroke-linecap: square"/>
     </g>
     <g id="line2d_12">
      <g>
       <use xlink:href="#mb2fdea0699" x="548.208" y="348.192" style="stroke: #000000; stroke-width: 0.8"/>
      </g>
     </g>
     <g id="text_6">
      <text style="font: 10px 'DejaVu Sans', 'Bitstream Vera Sans', 'Computer Modern Sans Serif', 'Lucida Grande', 'Verdana', 'Geneva', 'Lucid', 'Arial', 'Helvetica', 'Avant Garde', sans-serif; text-anchor: middle" x="548.208" y="362.790438" transform="rotate(-0 548.208 362.790438)">5</text>
     </g>
    </g>
    <g id="xtick_7">
     <g id="line2d_13">
      <path d="M 642.96 348.192 
L 642.96 93.744 
" clip-path="url(#p0f8eb6c272)" style="fill: none; stroke: #dfe5e8; stroke-width: 0.65; stroke-linecap: square"/>
     </g>
     <g id="line2d_14">
      <g>
       <use xlink:href="#mb2fdea0699" x="642.96" y="348.192" style="stroke: #000000; stroke-width: 0.8"/>
      </g>
     </g>
     <g id="text_7">
      <text style="font: 10px 'DejaVu Sans', 'Bitstream Vera Sans', 'Computer Modern Sans Serif', 'Lucida Grande', 'Verdana', 'Geneva', 'Lucid', 'Arial', 'Helvetica', 'Avant Garde', sans-serif; text-anchor: middle" x="642.96" y="362.790438" transform="rotate(-0 642.96 362.790438)">6</text>
     </g>
    </g>
    <g id="text_8">
     <text style="font: 10px 'DejaVu Sans', 'Bitstream Vera Sans', 'Computer Modern Sans Serif', 'Lucida Grande', 'Verdana', 'Geneva', 'Lucid', 'Arial', 'Helvetica', 'Avant Garde', sans-serif; text-anchor: middle" x="358.704" y="376.468563" transform="rotate(-0 358.704 376.468563)">sUCS dE threshold</text>
    </g>
   </g>
   <g id="matplotlib.axis_2">
    <g id="ytick_1">
     <g id="line2d_15">
      <path d="M 74.448 348.192 
L 642.96 348.192 
" clip-path="url(#p0f8eb6c272)" style="fill: none; stroke: #dfe5e8; stroke-width: 0.65; stroke-linecap: square"/>
     </g>
     <g id="line2d_16">
      <defs>
       <path id="ma2833e1fea" d="M 0 0 
L -3.5 0 
" style="stroke: #000000; stroke-width: 0.8"/>
      </defs>
      <g>
       <use xlink:href="#ma2833e1fea" x="74.448" y="348.192" style="stroke: #000000; stroke-width: 0.8"/>
      </g>
     </g>
     <g id="text_9">
      <text style="font: 10px 'DejaVu Sans', 'Bitstream Vera Sans', 'Computer Modern Sans Serif', 'Lucida Grande', 'Verdana', 'Geneva', 'Lucid', 'Arial', 'Helvetica', 'Avant Garde', sans-serif; text-anchor: end" x="67.448" y="351.991219" transform="rotate(-0 67.448 351.991219)">0</text>
     </g>
    </g>
    <g id="ytick_2">
     <g id="line2d_17">
      <path d="M 74.448 297.3024 
L 642.96 297.3024 
" clip-path="url(#p0f8eb6c272)" style="fill: none; stroke: #dfe5e8; stroke-width: 0.65; stroke-linecap: square"/>
     </g>
     <g id="line2d_18">
      <g>
       <use xlink:href="#ma2833e1fea" x="74.448" y="297.3024" style="stroke: #000000; stroke-width: 0.8"/>
      </g>
     </g>
     <g id="text_10">
      <text style="font: 10px 'DejaVu Sans', 'Bitstream Vera Sans', 'Computer Modern Sans Serif', 'Lucida Grande', 'Verdana', 'Geneva', 'Lucid', 'Arial', 'Helvetica', 'Avant Garde', sans-serif; text-anchor: end" x="67.448" y="301.101619" transform="rotate(-0 67.448 301.101619)">20</text>
     </g>
    </g>
    <g id="ytick_3">
     <g id="line2d_19">
      <path d="M 74.448 246.4128 
L 642.96 246.4128 
" clip-path="url(#p0f8eb6c272)" style="fill: none; stroke: #dfe5e8; stroke-width: 0.65; stroke-linecap: square"/>
     </g>
     <g id="line2d_20">
      <g>
       <use xlink:href="#ma2833e1fea" x="74.448" y="246.4128" style="stroke: #000000; stroke-width: 0.8"/>
      </g>
     </g>
     <g id="text_11">
      <text style="font: 10px 'DejaVu Sans', 'Bitstream Vera Sans', 'Computer Modern Sans Serif', 'Lucida Grande', 'Verdana', 'Geneva', 'Lucid', 'Arial', 'Helvetica', 'Avant Garde', sans-serif; text-anchor: end" x="67.448" y="250.212019" transform="rotate(-0 67.448 250.212019)">40</text>
     </g>
    </g>
    <g id="ytick_4">
     <g id="line2d_21">
      <path d="M 74.448 195.5232 
L 642.96 195.5232 
" clip-path="url(#p0f8eb6c272)" style="fill: none; stroke: #dfe5e8; stroke-width: 0.65; stroke-linecap: square"/>
     </g>
     <g id="line2d_22">
      <g>
       <use xlink:href="#ma2833e1fea" x="74.448" y="195.5232" style="stroke: #000000; stroke-width: 0.8"/>
      </g>
     </g>
     <g id="text_12">
      <text style="font: 10px 'DejaVu Sans', 'Bitstream Vera Sans', 'Computer Modern Sans Serif', 'Lucida Grande', 'Verdana', 'Geneva', 'Lucid', 'Arial', 'Helvetica', 'Avant Garde', sans-serif; text-anchor: end" x="67.448" y="199.322419" transform="rotate(-0 67.448 199.322419)">60</text>
     </g>
    </g>
    <g id="ytick_5">
     <g id="line2d_23">
      <path d="M 74.448 144.6336 
L 642.96 144.6336 
" clip-path="url(#p0f8eb6c272)" style="fill: none; stroke: #dfe5e8; stroke-width: 0.65; stroke-linecap: square"/>
     </g>
     <g id="line2d_24">
      <g>
       <use xlink:href="#ma2833e1fea" x="74.448" y="144.6336" style="stroke: #000000; stroke-width: 0.8"/>
      </g>
     </g>
     <g id="text_13">
      <text style="font: 10px 'DejaVu Sans', 'Bitstream Vera Sans', 'Computer Modern Sans Serif', 'Lucida Grande', 'Verdana', 'Geneva', 'Lucid', 'Arial', 'Helvetica', 'Avant Garde', sans-serif; text-anchor: end" x="67.448" y="148.432819" transform="rotate(-0 67.448 148.432819)">80</text>
     </g>
    </g>
    <g id="ytick_6">
     <g id="line2d_25">
      <path d="M 74.448 93.744 
L 642.96 93.744 
" clip-path="url(#p0f8eb6c272)" style="fill: none; stroke: #dfe5e8; stroke-width: 0.65; stroke-linecap: square"/>
     </g>
     <g id="line2d_26">
      <g>
       <use xlink:href="#ma2833e1fea" x="74.448" y="93.744" style="stroke: #000000; stroke-width: 0.8"/>
      </g>
     </g>
     <g id="text_14">
      <text style="font: 10px 'DejaVu Sans', 'Bitstream Vera Sans', 'Computer Modern Sans Serif', 'Lucida Grande', 'Verdana', 'Geneva', 'Lucid', 'Arial', 'Helvetica', 'Avant Garde', sans-serif; text-anchor: end" x="67.448" y="97.543219" transform="rotate(-0 67.448 97.543219)">100</text>
     </g>
    </g>
    <g id="text_15">
     <text style="font: 10px 'DejaVu Sans', 'Bitstream Vera Sans', 'Computer Modern Sans Serif', 'Lucida Grande', 'Verdana', 'Geneva', 'Lucid', 'Arial', 'Helvetica', 'Avant Garde', sans-serif; text-anchor: middle" x="42.280812" y="220.968" transform="rotate(-90 42.280812 220.968)">observers%</text>
    </g>
   </g>
   <g id="line2d_27">
    <path d="M 74.448 348.192 
L 155.93472 348.192 
L 157.82976 346.560923 
L 171.09504 346.560923 
L 172.99008 342.736329 
L 174.88512 342.736329 
L 176.78016 341.105252 
L 191.94048 341.105252 
L 193.83552 339.474175 
L 195.73056 339.474175 
L 197.6256 337.280658 
L 207.1008 337.280658 
L 208.99584 335.649581 
L 212.78592 335.649581 
L 214.68096 334.018504 
L 220.36608 334.018504 
L 222.26112 332.387427 
L 224.15616 332.387427 
L 226.0512 330.75635 
L 229.84128 330.75635 
L 231.73632 329.125273 
L 245.0016 329.125273 
L 246.89664 326.931756 
L 254.4768 326.931756 
L 256.37184 325.300679 
L 258.26688 325.300679 
L 262.05696 322.038525 
L 267.74208 322.038525 
L 269.63712 319.845008 
L 271.53216 319.845008 
L 273.4272 316.582854 
L 277.21728 316.582854 
L 279.11232 314.389337 
L 281.00736 312.75826 
L 282.9024 312.75826 
L 284.79744 311.127183 
L 294.27264 311.127183 
L 296.16768 309.496106 
L 299.95776 309.496106 
L 301.8528 307.865029 
L 303.74784 307.865029 
L 305.64288 304.040435 
L 320.8032 304.040435 
L 322.69824 302.409358 
L 328.38336 302.409358 
L 330.2784 300.778281 
L 341.64864 300.778281 
L 343.54368 296.953687 
L 347.33376 296.953687 
L 349.2288 293.691533 
L 351.12384 293.691533 
L 353.01888 291.498016 
L 366.28416 291.498016 
L 368.1792 289.866939 
L 370.07424 286.604785 
L 371.96928 284.973708 
L 373.86432 284.973708 
L 375.75936 283.342631 
L 377.6544 283.342631 
L 379.54944 281.711554 
L 383.33952 281.711554 
L 385.23456 280.080477 
L 389.02464 280.080477 
L 390.91968 278.449401 
L 394.70976 278.449401 
L 396.6048 276.818324 
L 398.49984 276.818324 
L 400.39488 275.187247 
L 406.08 275.187247 
L 407.97504 271.925093 
L 409.87008 271.925093 
L 411.76512 268.100499 
L 413.66016 265.906981 
L 415.5552 265.906981 
L 417.45024 264.275905 
L 423.13536 264.275905 
L 425.0304 262.644828 
L 436.40064 262.644828 
L 438.29568 261.013751 
L 440.19072 261.013751 
L 442.08576 259.382674 
L 447.77088 259.382674 
L 449.66592 257.751597 
L 451.56096 257.751597 
L 457.24608 252.858366 
L 466.72128 252.858366 
L 468.61632 250.664849 
L 472.4064 250.664849 
L 474.30144 249.033772 
L 478.09152 249.033772 
L 479.98656 245.209178 
L 483.77664 245.209178 
L 487.56672 241.947024 
L 489.46176 241.947024 
L 491.3568 240.315947 
L 493.25184 238.12243 
L 502.72704 238.12243 
L 504.62208 234.297836 
L 508.41216 231.035682 
L 517.88736 231.035682 
L 519.7824 229.404605 
L 523.57248 229.404605 
L 525.46752 227.773528 
L 527.36256 225.580011 
L 529.2576 223.948934 
L 542.52288 223.948934 
L 544.41792 221.755416 
L 589.89888 221.755416 
L 591.79392 218.493263 
L 599.37408 218.493263 
L 601.26912 216.299745 
L 606.95424 211.406515 
L 612.63936 211.406515 
L 614.5344 207.58192 
L 620.21952 207.58192 
L 622.11456 205.950844 
L 624.0096 205.950844 
L 625.90464 203.757326 
L 633.4848 203.757326 
L 635.37984 201.563809 
L 637.27488 201.563809 
L 639.16992 199.932732 
L 642.96 199.932732 
L 642.96 199.932732 
" clip-path="url(#p0f8eb6c272)" style="fill: none; stroke: #252525; stroke-width: 2.5; stroke-linecap: square"/>
   </g>
   <g id="line2d_28">
    <path d="M 74.448 348.192 
L 136.98432 348.192 
L 138.87936 345.998483 
L 159.7248 345.998483 
L 161.61984 343.804966 
L 180.57024 343.804966 
L 182.46528 342.173889 
L 208.99584 342.173889 
L 210.89088 340.542812 
L 214.68096 340.542812 
L 216.576 336.718218 
L 218.47104 335.087141 
L 248.79168 335.087141 
L 250.68672 332.893623 
L 254.4768 332.893623 
L 256.37184 331.262546 
L 269.63712 331.262546 
L 271.53216 329.069029 
L 273.4272 329.069029 
L 275.32224 327.437952 
L 286.69248 327.437952 
L 288.58752 325.806875 
L 294.27264 325.806875 
L 296.16768 324.175798 
L 298.06272 324.175798 
L 299.95776 321.982281 
L 301.8528 320.351204 
L 328.38336 320.351204 
L 330.2784 318.720127 
L 341.64864 318.720127 
L 343.54368 317.08905 
L 345.43872 317.08905 
L 347.33376 313.264456 
L 349.2288 313.264456 
L 351.12384 311.070939 
L 356.80896 311.070939 
L 358.704 308.877422 
L 362.49408 308.877422 
L 364.38912 304.490387 
L 371.96928 304.490387 
L 373.86432 302.29687 
L 381.44448 302.29687 
L 383.33952 300.103353 
L 385.23456 298.472276 
L 394.70976 298.472276 
L 396.6048 296.278759 
L 404.18496 296.278759 
L 407.97504 293.016605 
L 409.87008 290.823088 
L 419.34528 290.823088 
L 421.24032 289.192011 
L 428.82048 289.192011 
L 430.71552 287.560934 
L 436.40064 287.560934 
L 438.29568 285.929857 
L 447.77088 285.929857 
L 449.66592 283.73634 
L 451.56096 283.73634 
L 453.456 282.105263 
L 455.35104 282.105263 
L 457.24608 279.911745 
L 461.03616 279.911745 
L 462.9312 278.280668 
L 472.4064 278.280668 
L 474.30144 276.649592 
L 476.19648 272.824997 
L 481.8816 272.824997 
L 483.77664 270.63148 
L 497.04192 270.63148 
L 498.93696 268.437963 
L 523.57248 268.437963 
L 525.46752 266.806886 
L 527.36256 266.806886 
L 529.2576 265.175809 
L 538.7328 265.175809 
L 540.62784 263.544732 
L 542.52288 259.720138 
L 544.41792 258.089061 
L 553.89312 258.089061 
L 555.78816 255.895544 
L 559.57824 255.895544 
L 561.47328 254.264467 
L 563.36832 254.264467 
L 565.26336 252.63339 
L 567.1584 252.63339 
L 569.05344 250.439873 
L 570.94848 250.439873 
L 572.84352 248.808796 
L 576.6336 248.808796 
L 578.52864 247.177719 
L 580.42368 247.177719 
L 582.31872 244.984202 
L 588.00384 244.984202 
L 589.89888 241.722048 
L 595.584 241.722048 
L 597.47904 238.459894 
L 601.26912 238.459894 
L 603.16416 236.828817 
L 605.0592 233.566663 
L 606.95424 227.548552 
L 608.84928 225.355034 
L 612.63936 225.355034 
L 614.5344 223.723958 
L 620.21952 223.723958 
L 622.11456 218.830727 
L 633.4848 218.830727 
L 635.37984 217.19965 
L 639.16992 217.19965 
L 642.96 213.937496 
L 642.96 213.937496 
" clip-path="url(#p0f8eb6c272)" style="fill: none; stroke: #3b83b4; stroke-width: 1.35; stroke-linecap: square"/>
   </g>
   <g id="line2d_29">
    <path d="M 74.448 348.192 
L 135.08928 348.192 
L 136.98432 346.560923 
L 155.93472 346.560923 
L 157.82976 344.929846 
L 159.7248 344.929846 
L 161.61984 343.298769 
L 165.40992 343.298769 
L 167.30496 341.105252 
L 169.2 337.843098 
L 186.25536 337.843098 
L 188.1504 336.212021 
L 191.94048 336.212021 
L 193.83552 334.580944 
L 197.6256 334.580944 
L 199.52064 332.949867 
L 201.41568 329.125273 
L 203.31072 329.125273 
L 205.20576 327.494196 
L 224.15616 327.494196 
L 226.0512 325.863119 
L 254.4768 325.863119 
L 256.37184 324.232042 
L 267.74208 324.232042 
L 269.63712 322.600966 
L 275.32224 322.600966 
L 279.11232 319.338812 
L 282.9024 319.338812 
L 284.79744 317.707735 
L 298.06272 317.707735 
L 299.95776 316.076658 
L 303.74784 316.076658 
L 307.53792 312.814504 
L 341.64864 312.814504 
L 343.54368 310.620987 
L 349.2288 310.620987 
L 354.91392 305.727756 
L 364.38912 305.727756 
L 368.1792 302.465602 
L 375.75936 302.465602 
L 377.6544 300.834525 
L 379.54944 300.834525 
L 381.44448 299.203448 
L 383.33952 295.378854 
L 387.1296 295.378854 
L 389.02464 293.747777 
L 400.39488 293.747777 
L 402.28992 290.485623 
L 404.18496 290.485623 
L 406.08 288.854546 
L 407.97504 288.854546 
L 409.87008 286.661029 
L 411.76512 285.029952 
L 417.45024 285.029952 
L 419.34528 283.398875 
L 426.92544 283.398875 
L 428.82048 281.767798 
L 434.5056 281.767798 
L 440.19072 276.874568 
L 445.87584 276.874568 
L 447.77088 275.243491 
L 451.56096 275.243491 
L 453.456 273.049973 
L 466.72128 273.049973 
L 468.61632 271.418897 
L 470.51136 271.418897 
L 472.4064 269.225379 
L 481.8816 269.225379 
L 485.67168 265.963225 
L 487.56672 263.769708 
L 489.46176 262.138631 
L 491.3568 259.945114 
L 508.41216 259.945114 
L 510.3072 257.751597 
L 512.20224 257.751597 
L 514.09728 256.12052 
L 523.57248 256.12052 
L 525.46752 252.858366 
L 531.15264 252.858366 
L 533.04768 249.596212 
L 534.94272 249.596212 
L 536.83776 247.965135 
L 551.99808 247.965135 
L 553.89312 246.334058 
L 557.6832 246.334058 
L 559.57824 243.071905 
L 565.26336 243.071905 
L 567.1584 241.440828 
L 578.52864 241.440828 
L 580.42368 239.809751 
L 586.1088 239.809751 
L 588.00384 238.178674 
L 589.89888 238.178674 
L 591.79392 236.547597 
L 616.42944 236.547597 
L 618.32448 234.91652 
L 620.21952 234.91652 
L 622.11456 233.285443 
L 633.4848 233.285443 
L 635.37984 231.654366 
L 637.27488 227.829772 
L 642.96 227.829772 
L 642.96 227.829772 
" clip-path="url(#p0f8eb6c272)" style="fill: none; stroke-dasharray: 4.995,2.16; stroke-dashoffset: 0; stroke: #c38a19; stroke-width: 1.35"/>
   </g>
   <g id="line2d_30">
    <path d="M 74.448 348.192 
L 110.45376 348.192 
L 112.3488 346.560923 
L 142.66944 346.560923 
L 144.56448 344.929846 
L 167.30496 344.929846 
L 171.09504 341.667692 
L 172.99008 341.667692 
L 174.88512 340.036615 
L 178.6752 340.036615 
L 180.57024 338.405538 
L 193.83552 338.405538 
L 195.73056 336.774462 
L 197.6256 336.774462 
L 199.52064 335.143385 
L 205.20576 335.143385 
L 207.1008 333.512308 
L 208.99584 333.512308 
L 210.89088 331.31879 
L 216.576 331.31879 
L 218.47104 329.687714 
L 222.26112 329.687714 
L 224.15616 327.494196 
L 235.5264 327.494196 
L 237.42144 325.863119 
L 239.31648 325.863119 
L 241.21152 322.600966 
L 250.68672 322.600966 
L 252.58176 320.407448 
L 254.4768 320.407448 
L 256.37184 318.776371 
L 265.84704 318.776371 
L 267.74208 317.145294 
L 277.21728 317.145294 
L 279.11232 315.514218 
L 284.79744 315.514218 
L 286.69248 311.689623 
L 299.95776 311.689623 
L 301.8528 310.058546 
L 307.53792 310.058546 
L 309.43296 306.796393 
L 318.90816 306.796393 
L 320.8032 304.602875 
L 332.17344 304.602875 
L 335.96352 301.340721 
L 354.91392 301.340721 
L 358.704 298.078568 
L 360.59904 295.88505 
L 362.49408 294.253973 
L 375.75936 294.253973 
L 377.6544 292.622897 
L 385.23456 292.622897 
L 387.1296 290.99182 
L 390.91968 290.99182 
L 394.70976 287.729666 
L 398.49984 287.729666 
L 400.39488 284.467512 
L 402.28992 282.273995 
L 407.97504 277.380764 
L 415.5552 277.380764 
L 417.45024 275.187247 
L 421.24032 271.925093 
L 423.13536 271.925093 
L 425.0304 269.731576 
L 434.5056 269.731576 
L 436.40064 267.538058 
L 449.66592 267.538058 
L 451.56096 265.906981 
L 457.24608 265.906981 
L 459.14112 264.275905 
L 464.82624 264.275905 
L 466.72128 262.644828 
L 468.61632 259.382674 
L 470.51136 259.382674 
L 472.4064 257.751597 
L 483.77664 257.751597 
L 485.67168 254.489443 
L 493.25184 254.489443 
L 495.14688 251.227289 
L 498.93696 247.965135 
L 500.832 247.965135 
L 502.72704 244.702981 
L 504.62208 244.702981 
L 506.51712 243.071905 
L 510.3072 243.071905 
L 512.20224 241.440828 
L 546.31296 241.440828 
L 548.208 239.24731 
L 550.10304 239.24731 
L 551.99808 237.616233 
L 553.89312 237.616233 
L 555.78816 235.985156 
L 565.26336 235.985156 
L 567.1584 234.35408 
L 569.05344 232.160562 
L 570.94848 230.529485 
L 572.84352 230.529485 
L 574.73856 228.898408 
L 578.52864 228.898408 
L 580.42368 225.636255 
L 586.1088 225.636255 
L 588.00384 222.374101 
L 591.79392 222.374101 
L 593.68896 220.743024 
L 595.584 220.743024 
L 597.47904 218.549507 
L 614.5344 218.549507 
L 616.42944 216.355989 
L 635.37984 216.355989 
L 637.27488 214.724912 
L 639.16992 214.724912 
L 641.06496 213.093836 
L 642.96 213.093836 
L 642.96 213.093836 
" clip-path="url(#p0f8eb6c272)" style="fill: none; stroke-dasharray: 1.35,2.2275; stroke-dashoffset: 0; stroke: #7d8a92; stroke-width: 1.35"/>
   </g>
   <g id="line2d_31">
    <path d="M 74.448 348.192 
L 216.576 348.192 
L 218.47104 345.998483 
L 248.79168 345.998483 
L 250.68672 343.804966 
L 277.21728 343.804966 
L 282.9024 338.911735 
L 290.48256 338.911735 
L 292.3776 335.649581 
L 294.27264 334.018504 
L 311.328 334.018504 
L 313.22304 330.75635 
L 315.11808 330.75635 
L 317.01312 329.125273 
L 326.48832 329.125273 
L 328.38336 327.494196 
L 332.17344 327.494196 
L 335.96352 324.232042 
L 337.85856 324.232042 
L 341.64864 320.969889 
L 351.12384 320.969889 
L 353.01888 319.338812 
L 354.91392 317.145294 
L 356.80896 315.514218 
L 360.59904 315.514218 
L 362.49408 313.883141 
L 370.07424 313.883141 
L 371.96928 312.252064 
L 379.54944 312.252064 
L 381.44448 310.620987 
L 383.33952 310.620987 
L 387.1296 307.358833 
L 389.02464 305.165316 
L 400.39488 305.165316 
L 402.28992 303.534239 
L 404.18496 303.534239 
L 406.08 301.340721 
L 411.76512 301.340721 
L 413.66016 299.709645 
L 421.24032 299.709645 
L 423.13536 298.078568 
L 443.9808 298.078568 
L 445.87584 296.447491 
L 447.77088 292.622897 
L 459.14112 292.622897 
L 461.03616 288.798302 
L 476.19648 288.798302 
L 481.8816 283.905072 
L 483.77664 283.905072 
L 485.67168 282.273995 
L 489.46176 282.273995 
L 491.3568 280.642918 
L 500.832 280.642918 
L 502.72704 279.011841 
L 504.62208 279.011841 
L 506.51712 275.749687 
L 508.41216 273.55617 
L 510.3072 273.55617 
L 514.09728 270.294016 
L 536.83776 270.294016 
L 538.7328 268.662939 
L 540.62784 268.662939 
L 542.52288 267.031862 
L 548.208 267.031862 
L 551.99808 263.769708 
L 553.89312 263.769708 
L 555.78816 259.945114 
L 557.6832 258.314037 
L 582.31872 258.314037 
L 586.1088 255.051883 
L 593.68896 255.051883 
L 595.584 253.420806 
L 597.47904 253.420806 
L 599.37408 251.789729 
L 601.26912 251.789729 
L 603.16416 250.158653 
L 605.0592 250.158653 
L 606.95424 247.965135 
L 610.74432 247.965135 
L 612.63936 246.334058 
L 616.42944 246.334058 
L 618.32448 242.509464 
L 620.21952 242.509464 
L 622.11456 240.878387 
L 633.4848 240.878387 
L 635.37984 239.24731 
L 642.96 239.24731 
L 642.96 239.24731 
" clip-path="url(#p0f8eb6c272)" style="fill: none; stroke-dasharray: 8.64,2.16,1.35,2.16; stroke-dashoffset: 0; stroke: #d0526a; stroke-width: 1.35"/>
   </g>
   <g id="line2d_32">
    <path d="M 74.448 348.192 
L 140.7744 348.192 
L 142.66944 345.998483 
L 190.04544 345.998483 
L 191.94048 343.804966 
L 199.52064 343.804966 
L 201.41568 341.611448 
L 237.42144 341.611448 
L 241.21152 337.224414 
L 262.05696 337.224414 
L 265.84704 332.837379 
L 273.4272 332.837379 
L 275.32224 330.643862 
L 294.27264 330.643862 
L 296.16768 328.450345 
L 334.06848 328.450345 
L 335.96352 326.256828 
L 370.07424 326.256828 
L 371.96928 324.06331 
L 383.33952 324.06331 
L 385.23456 321.869793 
L 389.02464 321.869793 
L 390.91968 319.676276 
L 404.18496 319.676276 
L 407.97504 315.289241 
L 409.87008 315.289241 
L 411.76512 313.095724 
L 426.92544 313.095724 
L 428.82048 310.902207 
L 470.51136 310.902207 
L 474.30144 306.515172 
L 485.67168 306.515172 
L 487.56672 304.884095 
L 493.25184 304.884095 
L 495.14688 302.690578 
L 534.94272 302.690578 
L 536.83776 300.497061 
L 561.47328 300.497061 
L 563.36832 298.303544 
L 572.84352 298.303544 
L 576.6336 293.916509 
L 589.89888 293.916509 
L 591.79392 291.722992 
L 595.584 291.722992 
L 597.47904 287.335958 
L 601.26912 287.335958 
L 603.16416 285.14244 
L 610.74432 285.14244 
L 612.63936 283.511363 
L 618.32448 283.511363 
L 620.21952 281.317846 
L 622.11456 281.317846 
L 624.0096 279.124329 
L 642.96 279.124329 
L 642.96 279.124329 
" clip-path="url(#p0f8eb6c272)" style="fill: none; stroke-dasharray: 6.75,2.7,1.35,2.7; stroke-dashoffset: 0; stroke: #2f8f84; stroke-width: 1.35"/>
   </g>
   <g id="patch_4">
    <path d="M 74.448 348.192 
L 74.448 93.744 
" style="fill: none; stroke: #000000; stroke-width: 0.8; stroke-linejoin: miter; stroke-linecap: square"/>
   </g>
   <g id="patch_5">
    <path d="M 74.448 348.192 
L 642.96 348.192 
" style="fill: none; stroke: #000000; stroke-width: 0.8; stroke-linejoin: miter; stroke-linecap: square"/>
   </g>
  </g>
  <g id="text_16">
   <text style="font: 18px 'DejaVu Sans', 'Bitstream Vera Sans', 'Computer Modern Sans Serif', 'Lucida Grande', 'Verdana', 'Geneva', 'Lucid', 'Arial', 'Helvetica', 'Avant Garde', sans-serif; text-anchor: start" x="74.448" y="38.229188" transform="rotate(-0 74.448 38.229188)">LED-V2 Direct</text>
  </g>
  <g id="text_17">
   <text style="fill: #66747c; font: 10px 'DejaVu Sans', 'Bitstream Vera Sans', 'Computer Modern Sans Serif', 'Lucida Grande', 'Verdana', 'Geneva', 'Lucid', 'Arial', 'Helvetica', 'Avant Garde', sans-serif; text-anchor: start" x="74.448" y="64.728" transform="rotate(-0 74.448 64.728)">QD-OLED</text>
  </g>
  <g id="legend_1">
   <g id="line2d_33">
    <path d="M 185.17875 404.151391 
L 194.27875 404.151391 
L 203.37875 404.151391 
" style="fill: none; stroke: #252525; stroke-width: 2.5; stroke-linecap: square"/>
   </g>
   <g id="text_18">
    <text style="font: 9.1px 'DejaVu Sans', 'Bitstream Vera Sans', 'Computer Modern Sans Serif', 'Lucida Grande', 'Verdana', 'Geneva', 'Lucid', 'Arial', 'Helvetica', 'Avant Garde', sans-serif; text-anchor: start" x="210.65875" y="407.336391" transform="rotate(-0 210.65875 407.336391)">Potera CMF</text>
   </g>
   <g id="line2d_34">
    <path d="M 185.17875 417.508484 
L 194.27875 417.508484 
L 203.37875 417.508484 
" style="fill: none; stroke: #3b83b4; stroke-width: 1.35; stroke-linecap: square"/>
   </g>
   <g id="text_19">
    <text style="font: 9.1px 'DejaVu Sans', 'Bitstream Vera Sans', 'Computer Modern Sans Serif', 'Lucida Grande', 'Verdana', 'Geneva', 'Lucid', 'Arial', 'Helvetica', 'Avant Garde', sans-serif; text-anchor: start" x="210.65875" y="420.693484" transform="rotate(-0 210.65875 420.693484)">CIE 2015 2°</text>
   </g>
   <g id="line2d_35">
    <path d="M 282.931234 404.151391 
L 292.031234 404.151391 
L 301.131234 404.151391 
" style="fill: none; stroke-dasharray: 4.995,2.16; stroke-dashoffset: 0; stroke: #c38a19; stroke-width: 1.35"/>
   </g>
   <g id="text_20">
    <text style="font: 9.1px 'DejaVu Sans', 'Bitstream Vera Sans', 'Computer Modern Sans Serif', 'Lucida Grande', 'Verdana', 'Geneva', 'Lucid', 'Arial', 'Helvetica', 'Avant Garde', sans-serif; text-anchor: start" x="308.411234" y="407.336391" transform="rotate(-0 308.411234 407.336391)">CIE 2015 10°</text>
   </g>
   <g id="line2d_36">
    <path d="M 282.931234 417.508484 
L 292.031234 417.508484 
L 301.131234 417.508484 
" style="fill: none; stroke-dasharray: 1.35,2.2275; stroke-dashoffset: 0; stroke: #7d8a92; stroke-width: 1.35"/>
   </g>
   <g id="text_21">
    <text style="font: 9.1px 'DejaVu Sans', 'Bitstream Vera Sans', 'Computer Modern Sans Serif', 'Lucida Grande', 'Verdana', 'Geneva', 'Lucid', 'Arial', 'Helvetica', 'Avant Garde', sans-serif; text-anchor: start" x="308.411234" y="420.693484" transform="rotate(-0 308.411234 420.693484)">CIE 1964 10°</text>
   </g>
   <g id="line2d_37">
    <path d="M 386.473594 404.151391 
L 395.573594 404.151391 
L 404.673594 404.151391 
" style="fill: none; stroke-dasharray: 8.64,2.16,1.35,2.16; stroke-dashoffset: 0; stroke: #d0526a; stroke-width: 1.35"/>
   </g>
   <g id="text_22">
    <text style="font: 9.1px 'DejaVu Sans', 'Bitstream Vera Sans', 'Computer Modern Sans Serif', 'Lucida Grande', 'Verdana', 'Geneva', 'Lucid', 'Arial', 'Helvetica', 'Avant Garde', sans-serif; text-anchor: start" x="411.953594" y="407.336391" transform="rotate(-0 411.953594 407.336391)">CIE 1931 2°</text>
   </g>
   <g id="line2d_38">
    <path d="M 386.473594 417.508484 
L 395.573594 417.508484 
L 404.673594 417.508484 
" style="fill: none; stroke-dasharray: 6.75,2.7,1.35,2.7; stroke-dashoffset: 0; stroke: #2f8f84; stroke-width: 1.35"/>
   </g>
   <g id="text_23">
    <text style="font: 9.1px 'DejaVu Sans', 'Bitstream Vera Sans', 'Computer Modern Sans Serif', 'Lucida Grande', 'Verdana', 'Geneva', 'Lucid', 'Arial', 'Helvetica', 'Avant Garde', sans-serif; text-anchor: start" x="411.953594" y="420.693484" transform="rotate(-0 411.953594 420.693484)">Judd–Vos 1978 2°</text>
   </g>
  </g>
 </g>
 <defs>
  <clipPath id="p0f8eb6c272">
   <rect x="74.448" y="93.744" width="568.512" height="254.448"/>
  </clipPath>
 </defs>
</svg>
