<?xml version="1.0" encoding="utf-8" standalone="no"?>
<!DOCTYPE svg PUBLIC "-//W3C//DTD SVG 1.1//EN"
  "http://www.w3.org/Graphics/SVG/1.1/DTD/svg11.dtd">
<svg xmlns:xlink="http://www.w3.org/1999/xlink" width="676.8pt" height="446.4pt" viewBox="0 0 676.8 446.4" xmlns="http://www.w3.org/2000/svg" version="1.1">
 <metadata>
  <rdf:RDF xmlns:dc="http://purl.org/dc/elements/1.1/" xmlns:cc="http://creativecommons.org/ns#" xmlns:rdf="http://www.w3.org/1999/02/22-rdf-syntax-ns#">
   <cc:Work>
    <dc:type rdf:resource="http://purl.org/dc/dcmitype/StillImage"/>
    <dc:date>2026-07-20T06:41:56.207162</dc:date>
    <dc:format>image/svg+xml</dc:format>
    <dc:creator>
     <cc:Agent>
      <dc:title>Matplotlib v3.9.4, https://matplotlib.org/</dc:title>
     </cc:Agent>
    </dc:creator>
   </cc:Work>
  </rdf:RDF>
 </metadata>
 <defs>
  <style type="text/css">*{stroke-linejoin: round; stroke-linecap: butt}</style>
 </defs>
 <g id="figure_1">
  <g id="patch_1">
   <path d="M 0 446.4 
L 676.8 446.4 
L 676.8 0 
L 0 0 
z
" style="fill: #ffffff"/>
  </g>
  <g id="axes_1">
   <g id="patch_2">
    <path d="M 74.448 348.192 
L 642.96 348.192 
L 642.96 93.744 
L 74.448 93.744 
z
" style="fill: #ffffff"/>
   </g>
   <g id="patch_3">
    <path d="M 169.2 348.192 
L 358.704 348.192 
L 358.704 93.744 
L 169.2 93.744 
z
" clip-path="url(#p527cf42083)" style="fill: #e7f0ea; opacity: 0.58; stroke: #e7f0ea; stroke-linejoin: miter"/>
   </g>
   <g id="matplotlib.axis_1">
    <g id="xtick_1">
     <g id="line2d_1">
      <path d="M 74.448 348.192 
L 74.448 93.744 
" clip-path="url(#p527cf42083)" style="fill: none; stroke: #dfe5e8; stroke-width: 0.65; stroke-linecap: square"/>
     </g>
     <g id="line2d_2">
      <defs>
       <path id="m84055692cd" d="M 0 0 
L 0 3.5 
" style="stroke: #000000; stroke-width: 0.8"/>
      </defs>
      <g>
       <use xlink:href="#m84055692cd" x="74.448" y="348.192" style="stroke: #000000; stroke-width: 0.8"/>
      </g>
     </g>
     <g id="text_1">
      <text style="font: 10px 'DejaVu Sans', 'Bitstream Vera Sans', 'Computer Modern Sans Serif', 'Lucida Grande', 'Verdana', 'Geneva', 'Lucid', 'Arial', 'Helvetica', 'Avant Garde', sans-serif; text-anchor: middle" x="74.448" y="362.790438" transform="rotate(-0 74.448 362.790438)">0</text>
     </g>
    </g>
    <g id="xtick_2">
     <g id="line2d_3">
      <path d="M 169.2 348.192 
L 169.2 93.744 
" clip-path="url(#p527cf42083)" style="fill: none; stroke: #dfe5e8; stroke-width: 0.65; stroke-linecap: square"/>
     </g>
     <g id="line2d_4">
      <g>
       <use xlink:href="#m84055692cd" x="169.2" y="348.192" style="stroke: #000000; stroke-width: 0.8"/>
      </g>
     </g>
     <g id="text_2">
      <text style="font: 10px 'DejaVu Sans', 'Bitstream Vera Sans', 'Computer Modern Sans Serif', 'Lucida Grande', 'Verdana', 'Geneva', 'Lucid', 'Arial', 'Helvetica', 'Avant Garde', sans-serif; text-anchor: middle" x="169.2" y="362.790438" transform="rotate(-0 169.2 362.790438)">1</text>
     </g>
    </g>
    <g id="xtick_3">
     <g id="line2d_5">
      <path d="M 263.952 348.192 
L 263.952 93.744 
" clip-path="url(#p527cf42083)" style="fill: none; stroke: #dfe5e8; stroke-width: 0.65; stroke-linecap: square"/>
     </g>
     <g id="line2d_6">
      <g>
       <use xlink:href="#m84055692cd" x="263.952" y="348.192" style="stroke: #000000; stroke-width: 0.8"/>
      </g>
     </g>
     <g id="text_3">
      <text style="font: 10px 'DejaVu Sans', 'Bitstream Vera Sans', 'Computer Modern Sans Serif', 'Lucida Grande', 'Verdana', 'Geneva', 'Lucid', 'Arial', 'Helvetica', 'Avant Garde', sans-serif; text-anchor: middle" x="263.952" y="362.790438" transform="rotate(-0 263.952 362.790438)">2</text>
     </g>
    </g>
    <g id="xtick_4">
     <g id="line2d_7">
      <path d="M 358.704 348.192 
L 358.704 93.744 
" clip-path="url(#p527cf42083)" style="fill: none; stroke: #dfe5e8; stroke-width: 0.65; stroke-linecap: square"/>
     </g>
     <g id="line2d_8">
      <g>
       <use xlink:href="#m84055692cd" x="358.704" y="348.192" style="stroke: #000000; stroke-width: 0.8"/>
      </g>
     </g>
     <g id="text_4">
      <text style="font: 10px 'DejaVu Sans', 'Bitstream Vera Sans', 'Computer Modern Sans Serif', 'Lucida Grande', 'Verdana', 'Geneva', 'Lucid', 'Arial', 'Helvetica', 'Avant Garde', sans-serif; text-anchor: middle" x="358.704" y="362.790438" transform="rotate(-0 358.704 362.790438)">3</text>
     </g>
    </g>
    <g id="xtick_5">
     <g id="line2d_9">
      <path d="M 453.456 348.192 
L 453.456 93.744 
" clip-path="url(#p527cf42083)" style="fill: none; stroke: #dfe5e8; stroke-width: 0.65; stroke-linecap: square"/>
     </g>
     <g id="line2d_10">
      <g>
       <use xlink:href="#m84055692cd" x="453.456" y="348.192" style="stroke: #000000; stroke-width: 0.8"/>
      </g>
     </g>
     <g id="text_5">
      <text style="font: 10px 'DejaVu Sans', 'Bitstream Vera Sans', 'Computer Modern Sans Serif', 'Lucida Grande', 'Verdana', 'Geneva', 'Lucid', 'Arial', 'Helvetica', 'Avant Garde', sans-serif; text-anchor: middle" x="453.456" y="362.790438" transform="rotate(-0 453.456 362.790438)">4</text>
     </g>
    </g>
    <g id="xtick_6">
     <g id="line2d_11">
      <path d="M 548.208 348.192 
L 548.208 93.744 
" clip-path="url(#p527cf42083)" style="fill: none; stroke: #dfe5e8; stroke-width: 0.65; stroke-linecap: square"/>
     </g>
     <g id="line2d_12">
      <g>
       <use xlink:href="#m84055692cd" x="548.208" y="348.192" style="stroke: #000000; stroke-width: 0.8"/>
      </g>
     </g>
     <g id="text_6">
      <text style="font: 10px 'DejaVu Sans', 'Bitstream Vera Sans', 'Computer Modern Sans Serif', 'Lucida Grande', 'Verdana', 'Geneva', 'Lucid', 'Arial', 'Helvetica', 'Avant Garde', sans-serif; text-anchor: middle" x="548.208" y="362.790438" transform="rotate(-0 548.208 362.790438)">5</text>
     </g>
    </g>
    <g id="xtick_7">
     <g id="line2d_13">
      <path d="M 642.96 348.192 
L 642.96 93.744 
" clip-path="url(#p527cf42083)" style="fill: none; stroke: #dfe5e8; stroke-width: 0.65; stroke-linecap: square"/>
     </g>
     <g id="line2d_14">
      <g>
       <use xlink:href="#m84055692cd" x="642.96" y="348.192" style="stroke: #000000; stroke-width: 0.8"/>
      </g>
     </g>
     <g id="text_7">
      <text style="font: 10px 'DejaVu Sans', 'Bitstream Vera Sans', 'Computer Modern Sans Serif', 'Lucida Grande', 'Verdana', 'Geneva', 'Lucid', 'Arial', 'Helvetica', 'Avant Garde', sans-serif; text-anchor: middle" x="642.96" y="362.790438" transform="rotate(-0 642.96 362.790438)">6</text>
     </g>
    </g>
    <g id="text_8">
     <text style="font: 10px 'DejaVu Sans', 'Bitstream Vera Sans', 'Computer Modern Sans Serif', 'Lucida Grande', 'Verdana', 'Geneva', 'Lucid', 'Arial', 'Helvetica', 'Avant Garde', sans-serif; text-anchor: middle" x="358.704" y="376.468563" transform="rotate(-0 358.704 376.468563)">sUCS dE threshold</text>
    </g>
   </g>
   <g id="matplotlib.axis_2">
    <g id="ytick_1">
     <g id="line2d_15">
      <path d="M 74.448 348.192 
L 642.96 348.192 
" clip-path="url(#p527cf42083)" style="fill: none; stroke: #dfe5e8; stroke-width: 0.65; stroke-linecap: square"/>
     </g>
     <g id="line2d_16">
      <defs>
       <path id="m9529a6a5de" d="M 0 0 
L -3.5 0 
" style="stroke: #000000; stroke-width: 0.8"/>
      </defs>
      <g>
       <use xlink:href="#m9529a6a5de" x="74.448" y="348.192" style="stroke: #000000; stroke-width: 0.8"/>
      </g>
     </g>
     <g id="text_9">
      <text style="font: 10px 'DejaVu Sans', 'Bitstream Vera Sans', 'Computer Modern Sans Serif', 'Lucida Grande', 'Verdana', 'Geneva', 'Lucid', 'Arial', 'Helvetica', 'Avant Garde', sans-serif; text-anchor: end" x="67.448" y="351.991219" transform="rotate(-0 67.448 351.991219)">0</text>
     </g>
    </g>
    <g id="ytick_2">
     <g id="line2d_17">
      <path d="M 74.448 297.3024 
L 642.96 297.3024 
" clip-path="url(#p527cf42083)" style="fill: none; stroke: #dfe5e8; stroke-width: 0.65; stroke-linecap: square"/>
     </g>
     <g id="line2d_18">
      <g>
       <use xlink:href="#m9529a6a5de" x="74.448" y="297.3024" style="stroke: #000000; stroke-width: 0.8"/>
      </g>
     </g>
     <g id="text_10">
      <text style="font: 10px 'DejaVu Sans', 'Bitstream Vera Sans', 'Computer Modern Sans Serif', 'Lucida Grande', 'Verdana', 'Geneva', 'Lucid', 'Arial', 'Helvetica', 'Avant Garde', sans-serif; text-anchor: end" x="67.448" y="301.101619" transform="rotate(-0 67.448 301.101619)">20</text>
     </g>
    </g>
    <g id="ytick_3">
     <g id="line2d_19">
      <path d="M 74.448 246.4128 
L 642.96 246.4128 
" clip-path="url(#p527cf42083)" style="fill: none; stroke: #dfe5e8; stroke-width: 0.65; stroke-linecap: square"/>
     </g>
     <g id="line2d_20">
      <g>
       <use xlink:href="#m9529a6a5de" x="74.448" y="246.4128" style="stroke: #000000; stroke-width: 0.8"/>
      </g>
     </g>
     <g id="text_11">
      <text style="font: 10px 'DejaVu Sans', 'Bitstream Vera Sans', 'Computer Modern Sans Serif', 'Lucida Grande', 'Verdana', 'Geneva', 'Lucid', 'Arial', 'Helvetica', 'Avant Garde', sans-serif; text-anchor: end" x="67.448" y="250.212019" transform="rotate(-0 67.448 250.212019)">40</text>
     </g>
    </g>
    <g id="ytick_4">
     <g id="line2d_21">
      <path d="M 74.448 195.5232 
L 642.96 195.5232 
" clip-path="url(#p527cf42083)" style="fill: none; stroke: #dfe5e8; stroke-width: 0.65; stroke-linecap: square"/>
     </g>
     <g id="line2d_22">
      <g>
       <use xlink:href="#m9529a6a5de" x="74.448" y="195.5232" style="stroke: #000000; stroke-width: 0.8"/>
      </g>
     </g>
     <g id="text_12">
      <text style="font: 10px 'DejaVu Sans', 'Bitstream Vera Sans', 'Computer Modern Sans Serif', 'Lucida Grande', 'Verdana', 'Geneva', 'Lucid', 'Arial', 'Helvetica', 'Avant Garde', sans-serif; text-anchor: end" x="67.448" y="199.322419" transform="rotate(-0 67.448 199.322419)">60</text>
     </g>
    </g>
    <g id="ytick_5">
     <g id="line2d_23">
      <path d="M 74.448 144.6336 
L 642.96 144.6336 
" clip-path="url(#p527cf42083)" style="fill: none; stroke: #dfe5e8; stroke-width: 0.65; stroke-linecap: square"/>
     </g>
     <g id="line2d_24">
      <g>
       <use xlink:href="#m9529a6a5de" x="74.448" y="144.6336" style="stroke: #000000; stroke-width: 0.8"/>
      </g>
     </g>
     <g id="text_13">
      <text style="font: 10px 'DejaVu Sans', 'Bitstream Vera Sans', 'Computer Modern Sans Serif', 'Lucida Grande', 'Verdana', 'Geneva', 'Lucid', 'Arial', 'Helvetica', 'Avant Garde', sans-serif; text-anchor: end" x="67.448" y="148.432819" transform="rotate(-0 67.448 148.432819)">80</text>
     </g>
    </g>
    <g id="ytick_6">
     <g id="line2d_25">
      <path d="M 74.448 93.744 
L 642.96 93.744 
" clip-path="url(#p527cf42083)" style="fill: none; stroke: #dfe5e8; stroke-width: 0.65; stroke-linecap: square"/>
     </g>
     <g id="line2d_26">
      <g>
       <use xlink:href="#m9529a6a5de" x="74.448" y="93.744" style="stroke: #000000; stroke-width: 0.8"/>
      </g>
     </g>
     <g id="text_14">
      <text style="font: 10px 'DejaVu Sans', 'Bitstream Vera Sans', 'Computer Modern Sans Serif', 'Lucida Grande', 'Verdana', 'Geneva', 'Lucid', 'Arial', 'Helvetica', 'Avant Garde', sans-serif; text-anchor: end" x="67.448" y="97.543219" transform="rotate(-0 67.448 97.543219)">100</text>
     </g>
    </g>
    <g id="text_15">
     <text style="font: 10px 'DejaVu Sans', 'Bitstream Vera Sans', 'Computer Modern Sans Serif', 'Lucida Grande', 'Verdana', 'Geneva', 'Lucid', 'Arial', 'Helvetica', 'Avant Garde', sans-serif; text-anchor: middle" x="42.280812" y="220.968" transform="rotate(-90 42.280812 220.968)">observers%</text>
    </g>
   </g>
   <g id="line2d_27">
    <path d="M 74.448 348.192 
L 116.13888 348.192 
L 118.03392 346.560923 
L 140.7744 346.560923 
L 142.66944 342.736329 
L 152.14464 342.736329 
L 154.03968 340.542812 
L 155.93472 338.911735 
L 161.61984 338.911735 
L 163.51488 336.718218 
L 176.78016 336.718218 
L 178.6752 335.087141 
L 180.57024 331.262546 
L 197.6256 331.262546 
L 199.52064 327.437952 
L 201.41568 327.437952 
L 203.31072 325.806875 
L 205.20576 325.806875 
L 208.99584 322.544721 
L 210.89088 322.544721 
L 216.576 317.651491 
L 218.47104 317.651491 
L 220.36608 316.020414 
L 226.0512 316.020414 
L 227.94624 313.826897 
L 237.42144 313.826897 
L 239.31648 312.19582 
L 246.89664 312.19582 
L 248.79168 310.564743 
L 250.68672 310.564743 
L 252.58176 308.933666 
L 254.4768 308.933666 
L 256.37184 307.302589 
L 262.05696 307.302589 
L 263.952 305.671512 
L 265.84704 305.671512 
L 267.74208 304.040435 
L 273.4272 304.040435 
L 275.32224 301.846918 
L 279.11232 301.846918 
L 281.00736 300.215841 
L 282.9024 300.215841 
L 284.79744 298.022324 
L 286.69248 294.197729 
L 290.48256 294.197729 
L 294.27264 290.935576 
L 296.16768 287.110981 
L 303.74784 287.110981 
L 305.64288 285.479905 
L 309.43296 285.479905 
L 311.328 283.848828 
L 315.11808 283.848828 
L 317.01312 282.217751 
L 320.8032 282.217751 
L 324.59328 274.568562 
L 330.2784 274.568562 
L 332.17344 271.306408 
L 335.96352 271.306408 
L 337.85856 267.481814 
L 345.43872 267.481814 
L 347.33376 265.850737 
L 349.2288 265.850737 
L 351.12384 263.65722 
L 358.704 263.65722 
L 360.59904 260.395066 
L 366.28416 260.395066 
L 368.1792 258.763989 
L 370.07424 258.763989 
L 371.96928 255.501836 
L 373.86432 251.677241 
L 375.75936 250.046164 
L 379.54944 250.046164 
L 381.44448 248.415088 
L 387.1296 248.415088 
L 389.02464 246.22157 
L 392.81472 246.22157 
L 394.70976 242.959416 
L 396.6048 242.959416 
L 398.49984 241.32834 
L 409.87008 241.32834 
L 411.76512 239.697263 
L 413.66016 239.697263 
L 415.5552 237.503745 
L 417.45024 237.503745 
L 419.34528 235.872668 
L 428.82048 235.872668 
L 430.71552 232.610515 
L 432.61056 232.610515 
L 434.5056 230.979438 
L 436.40064 228.78592 
L 443.9808 228.78592 
L 445.87584 227.154844 
L 447.77088 227.154844 
L 449.66592 224.961326 
L 457.24608 224.961326 
L 459.14112 223.330249 
L 461.03616 223.330249 
L 462.9312 221.699172 
L 464.82624 221.699172 
L 466.72128 219.505655 
L 468.61632 219.505655 
L 474.30144 214.612424 
L 478.09152 214.612424 
L 479.98656 212.981347 
L 481.8816 212.981347 
L 483.77664 211.350271 
L 489.46176 211.350271 
L 491.3568 209.719194 
L 502.72704 209.719194 
L 504.62208 205.894599 
L 515.99232 205.894599 
L 517.88736 204.263523 
L 523.57248 204.263523 
L 525.46752 202.070005 
L 529.2576 202.070005 
L 531.15264 198.245411 
L 538.7328 198.245411 
L 540.62784 196.614334 
L 548.208 196.614334 
L 550.10304 194.983257 
L 557.6832 194.983257 
L 559.57824 193.35218 
L 567.1584 193.35218 
L 569.05344 191.721103 
L 572.84352 191.721103 
L 574.73856 190.090027 
L 580.42368 190.090027 
L 582.31872 187.896509 
L 603.16416 187.896509 
L 605.0592 186.265432 
L 610.74432 186.265432 
L 612.63936 184.071915 
L 622.11456 184.071915 
L 625.90464 180.809761 
L 633.4848 180.809761 
L 635.37984 176.422727 
L 642.96 176.422727 
L 642.96 176.422727 
" clip-path="url(#p527cf42083)" style="fill: none; stroke: #252525; stroke-width: 2.5; stroke-linecap: square"/>
   </g>
   <g id="line2d_28">
    <path d="M 74.448 348.192 
L 148.35456 348.192 
L 150.2496 344.367406 
L 165.40992 344.367406 
L 171.09504 337.786854 
L 184.36032 337.786854 
L 186.25536 335.593337 
L 218.47104 335.593337 
L 220.36608 333.39982 
L 237.42144 333.39982 
L 239.31648 331.206302 
L 241.21152 331.206302 
L 243.10656 329.575225 
L 245.0016 327.381708 
L 246.89664 327.381708 
L 248.79168 325.188191 
L 250.68672 323.557114 
L 254.4768 323.557114 
L 256.37184 321.363597 
L 269.63712 321.363597 
L 271.53216 319.17008 
L 275.32224 319.17008 
L 277.21728 317.539003 
L 279.11232 317.539003 
L 281.00736 313.714408 
L 298.06272 313.714408 
L 299.95776 309.889814 
L 301.8528 307.696297 
L 305.64288 304.434143 
L 317.01312 304.434143 
L 318.90816 302.240626 
L 320.8032 300.609549 
L 330.2784 300.609549 
L 332.17344 296.222515 
L 337.85856 296.222515 
L 339.7536 294.591438 
L 341.64864 294.591438 
L 347.33376 289.698207 
L 364.38912 289.698207 
L 366.28416 288.06713 
L 371.96928 288.06713 
L 375.75936 283.680095 
L 385.23456 283.680095 
L 387.1296 282.049019 
L 389.02464 282.049019 
L 390.91968 279.855501 
L 396.6048 274.962271 
L 402.28992 274.962271 
L 404.18496 272.768753 
L 413.66016 272.768753 
L 415.5552 271.137676 
L 421.24032 271.137676 
L 423.13536 268.944159 
L 428.82048 268.944159 
L 430.71552 267.313082 
L 432.61056 261.857411 
L 436.40064 261.857411 
L 438.29568 260.226334 
L 443.9808 260.226334 
L 445.87584 258.032817 
L 447.77088 254.770663 
L 449.66592 253.139586 
L 455.35104 253.139586 
L 457.24608 251.508509 
L 464.82624 251.508509 
L 466.72128 248.246355 
L 468.61632 246.615279 
L 474.30144 246.615279 
L 476.19648 244.984202 
L 478.09152 241.722048 
L 485.67168 241.722048 
L 487.56672 240.090971 
L 489.46176 240.090971 
L 491.3568 237.897454 
L 500.832 237.897454 
L 502.72704 236.266377 
L 519.7824 236.266377 
L 521.67744 233.004223 
L 523.57248 233.004223 
L 525.46752 229.179629 
L 527.36256 229.179629 
L 529.2576 227.548552 
L 534.94272 227.548552 
L 538.7328 224.286398 
L 542.52288 224.286398 
L 544.41792 220.461804 
L 553.89312 220.461804 
L 555.78816 218.830727 
L 580.42368 218.830727 
L 582.31872 217.19965 
L 584.21376 217.19965 
L 588.00384 210.675342 
L 591.79392 210.675342 
L 595.584 207.413188 
L 606.95424 207.413188 
L 608.84928 205.782111 
L 610.74432 202.519958 
L 614.5344 202.519958 
L 616.42944 200.888881 
L 618.32448 200.888881 
L 620.21952 199.257804 
L 624.0096 199.257804 
L 625.90464 197.064286 
L 629.69472 197.064286 
L 631.58976 195.43321 
L 635.37984 195.43321 
L 637.27488 193.802133 
L 641.06496 189.415098 
L 642.96 189.415098 
L 642.96 189.415098 
" clip-path="url(#p527cf42083)" style="fill: none; stroke: #3b83b4; stroke-width: 1.35; stroke-linecap: square"/>
   </g>
   <g id="line2d_29">
    <path d="M 74.448 348.192 
L 125.61408 348.192 
L 127.50912 346.560923 
L 131.2992 346.560923 
L 133.19424 344.929846 
L 138.87936 344.929846 
L 140.7744 343.298769 
L 167.30496 343.298769 
L 169.2 337.843098 
L 171.09504 337.843098 
L 172.99008 335.649581 
L 180.57024 335.649581 
L 182.46528 332.387427 
L 188.1504 332.387427 
L 190.04544 330.75635 
L 193.83552 330.75635 
L 195.73056 329.125273 
L 218.47104 329.125273 
L 220.36608 325.863119 
L 227.94624 325.863119 
L 229.84128 322.600966 
L 231.73632 322.600966 
L 233.63136 319.338812 
L 235.5264 319.338812 
L 239.31648 316.076658 
L 245.0016 316.076658 
L 246.89664 314.445581 
L 260.16192 314.445581 
L 262.05696 312.814504 
L 269.63712 312.814504 
L 271.53216 310.620987 
L 273.4272 310.620987 
L 275.32224 305.727756 
L 279.11232 305.727756 
L 282.9024 302.465602 
L 290.48256 302.465602 
L 292.3776 299.203448 
L 294.27264 299.203448 
L 296.16768 297.572371 
L 301.8528 297.572371 
L 303.74784 295.941294 
L 309.43296 295.941294 
L 311.328 294.310218 
L 313.22304 294.310218 
L 315.11808 292.679141 
L 317.01312 292.679141 
L 318.90816 290.485623 
L 324.59328 290.485623 
L 326.48832 288.292106 
L 328.38336 286.661029 
L 345.43872 286.661029 
L 347.33376 284.467512 
L 354.91392 284.467512 
L 356.80896 281.205358 
L 360.59904 281.205358 
L 362.49408 279.574281 
L 366.28416 279.574281 
L 368.1792 277.943204 
L 370.07424 277.943204 
L 371.96928 272.487533 
L 375.75936 272.487533 
L 377.6544 270.856456 
L 387.1296 270.856456 
L 389.02464 269.225379 
L 390.91968 265.400785 
L 394.70976 265.400785 
L 396.6048 263.769708 
L 423.13536 263.769708 
L 425.0304 261.576191 
L 451.56096 261.576191 
L 455.35104 258.314037 
L 459.14112 258.314037 
L 461.03616 254.489443 
L 464.82624 254.489443 
L 466.72128 252.295926 
L 468.61632 250.664849 
L 489.46176 250.664849 
L 491.3568 246.840255 
L 495.14688 246.840255 
L 497.04192 244.646737 
L 504.62208 244.646737 
L 506.51712 243.01566 
L 510.3072 243.01566 
L 512.20224 239.191066 
L 515.99232 239.191066 
L 517.88736 236.997549 
L 519.7824 235.366472 
L 523.57248 235.366472 
L 525.46752 232.104318 
L 536.83776 232.104318 
L 538.7328 230.473241 
L 548.208 230.473241 
L 550.10304 228.842164 
L 551.99808 228.842164 
L 553.89312 227.211088 
L 555.78816 225.01757 
L 559.57824 225.01757 
L 561.47328 223.386493 
L 565.26336 223.386493 
L 567.1584 219.561899 
L 576.6336 219.561899 
L 578.52864 217.368382 
L 584.21376 217.368382 
L 586.1088 215.737305 
L 593.68896 215.737305 
L 595.584 213.543788 
L 601.26912 213.543788 
L 603.16416 211.912711 
L 616.42944 211.912711 
L 620.21952 208.650557 
L 633.4848 208.650557 
L 635.37984 206.45704 
L 641.06496 206.45704 
L 642.96 203.194886 
L 642.96 203.194886 
" clip-path="url(#p527cf42083)" style="fill: none; stroke-dasharray: 4.995,2.16; stroke-dashoffset: 0; stroke: #c38a19; stroke-width: 1.35"/>
   </g>
   <g id="line2d_30">
    <path d="M 74.448 348.192 
L 93.3984 348.192 
L 95.29344 346.560923 
L 140.7744 346.560923 
L 142.66944 344.929846 
L 155.93472 344.929846 
L 157.82976 343.298769 
L 159.7248 343.298769 
L 161.61984 341.667692 
L 169.2 341.667692 
L 171.09504 337.843098 
L 184.36032 337.843098 
L 186.25536 335.649581 
L 199.52064 335.649581 
L 201.41568 334.018504 
L 208.99584 334.018504 
L 212.78592 330.75635 
L 214.68096 327.494196 
L 218.47104 327.494196 
L 220.36608 325.863119 
L 226.0512 325.863119 
L 227.94624 324.232042 
L 239.31648 324.232042 
L 241.21152 322.600966 
L 243.10656 322.600966 
L 245.0016 318.776371 
L 248.79168 315.514218 
L 250.68672 315.514218 
L 258.26688 308.98991 
L 265.84704 308.98991 
L 269.63712 305.727756 
L 273.4272 305.727756 
L 275.32224 304.096679 
L 288.58752 304.096679 
L 290.48256 301.903162 
L 292.3776 300.272085 
L 298.06272 300.272085 
L 299.95776 297.009931 
L 305.64288 297.009931 
L 307.53792 293.185337 
L 309.43296 291.55426 
L 317.01312 291.55426 
L 318.90816 287.729666 
L 330.2784 287.729666 
L 332.17344 286.098589 
L 335.96352 286.098589 
L 339.7536 282.836435 
L 345.43872 282.836435 
L 347.33376 280.642918 
L 358.704 280.642918 
L 360.59904 279.011841 
L 364.38912 279.011841 
L 366.28416 277.380764 
L 373.86432 277.380764 
L 375.75936 275.749687 
L 381.44448 275.749687 
L 383.33952 274.11861 
L 387.1296 274.11861 
L 389.02464 272.487533 
L 390.91968 272.487533 
L 392.81472 269.225379 
L 394.70976 267.594302 
L 396.6048 267.594302 
L 398.49984 265.400785 
L 407.97504 265.400785 
L 409.87008 263.207268 
L 423.13536 263.207268 
L 425.0304 261.576191 
L 428.82048 261.576191 
L 430.71552 259.382674 
L 434.5056 259.382674 
L 436.40064 257.189156 
L 438.29568 253.927003 
L 453.456 253.927003 
L 455.35104 249.539968 
L 457.24608 247.908891 
L 478.09152 247.908891 
L 479.98656 246.277814 
L 481.8816 246.277814 
L 483.77664 244.084297 
L 487.56672 244.084297 
L 489.46176 241.89078 
L 506.51712 241.89078 
L 508.41216 240.259703 
L 510.3072 240.259703 
L 512.20224 236.997549 
L 523.57248 236.997549 
L 525.46752 235.366472 
L 531.15264 235.366472 
L 533.04768 233.735395 
L 540.62784 233.735395 
L 542.52288 229.910801 
L 544.41792 229.910801 
L 546.31296 228.279724 
L 548.208 225.01757 
L 550.10304 222.824053 
L 557.6832 222.824053 
L 559.57824 218.999459 
L 578.52864 218.999459 
L 580.42368 216.805942 
L 582.31872 216.805942 
L 584.21376 215.174865 
L 589.89888 215.174865 
L 591.79392 213.543788 
L 597.47904 213.543788 
L 599.37408 211.912711 
L 601.26912 211.912711 
L 603.16416 210.281634 
L 605.0592 208.088117 
L 622.11456 208.088117 
L 624.0096 206.45704 
L 637.27488 206.45704 
L 639.16992 204.825963 
L 642.96 204.825963 
L 642.96 204.825963 
" clip-path="url(#p527cf42083)" style="fill: none; stroke-dasharray: 1.35,2.2275; stroke-dashoffset: 0; stroke: #7d8a92; stroke-width: 1.35"/>
   </g>
   <g id="line2d_31">
    <path d="M 74.448 348.192 
L 174.88512 348.192 
L 176.78016 346.560923 
L 203.31072 346.560923 
L 205.20576 344.929846 
L 207.1008 344.929846 
L 208.99584 342.736329 
L 237.42144 342.736329 
L 241.21152 339.474175 
L 243.10656 339.474175 
L 245.0016 337.843098 
L 254.4768 337.843098 
L 256.37184 336.212021 
L 282.9024 336.212021 
L 284.79744 334.580944 
L 307.53792 334.580944 
L 309.43296 332.949867 
L 324.59328 332.949867 
L 326.48832 331.31879 
L 328.38336 331.31879 
L 330.2784 329.687714 
L 343.54368 329.687714 
L 345.43872 327.494196 
L 351.12384 327.494196 
L 353.01888 325.300679 
L 354.91392 323.669602 
L 356.80896 323.669602 
L 358.704 322.038525 
L 389.02464 322.038525 
L 390.91968 320.407448 
L 392.81472 320.407448 
L 394.70976 318.776371 
L 396.6048 318.776371 
L 398.49984 317.145294 
L 400.39488 317.145294 
L 402.28992 314.951777 
L 409.87008 314.951777 
L 411.76512 313.3207 
L 428.82048 313.3207 
L 430.71552 311.689623 
L 445.87584 311.689623 
L 447.77088 310.058546 
L 453.456 310.058546 
L 455.35104 308.427469 
L 459.14112 308.427469 
L 461.03616 306.796393 
L 478.09152 306.796393 
L 481.8816 303.534239 
L 529.2576 303.534239 
L 531.15264 301.903162 
L 533.04768 298.641008 
L 540.62784 298.641008 
L 546.31296 293.747777 
L 550.10304 293.747777 
L 551.99808 292.1167 
L 559.57824 292.1167 
L 561.47328 289.923183 
L 563.36832 289.923183 
L 565.26336 288.292106 
L 570.94848 288.292106 
L 572.84352 284.467512 
L 574.73856 284.467512 
L 576.6336 282.836435 
L 586.1088 282.836435 
L 588.00384 281.205358 
L 599.37408 281.205358 
L 601.26912 279.574281 
L 606.95424 279.574281 
L 608.84928 277.380764 
L 629.69472 277.380764 
L 631.58976 275.187247 
L 633.4848 273.55617 
L 639.16992 273.55617 
L 641.06496 271.362653 
L 642.96 271.362653 
L 642.96 271.362653 
" clip-path="url(#p527cf42083)" style="fill: none; stroke-dasharray: 8.64,2.16,1.35,2.16; stroke-dashoffset: 0; stroke: #d0526a; stroke-width: 1.35"/>
   </g>
   <g id="line2d_32">
    <path d="M 74.448 348.192 
L 125.61408 348.192 
L 127.50912 345.998483 
L 129.40416 345.998483 
L 131.2992 343.804966 
L 188.1504 343.804966 
L 190.04544 341.611448 
L 191.94048 341.611448 
L 193.83552 339.417931 
L 199.52064 339.417931 
L 201.41568 337.224414 
L 207.1008 337.224414 
L 210.89088 332.837379 
L 214.68096 332.837379 
L 216.576 330.643862 
L 256.37184 330.643862 
L 258.26688 328.450345 
L 262.05696 328.450345 
L 263.952 326.256828 
L 265.84704 326.256828 
L 267.74208 324.06331 
L 299.95776 324.06331 
L 301.8528 321.869793 
L 307.53792 321.869793 
L 309.43296 319.676276 
L 341.64864 319.676276 
L 343.54368 317.482759 
L 354.91392 317.482759 
L 356.80896 313.095724 
L 373.86432 313.095724 
L 375.75936 310.902207 
L 379.54944 310.902207 
L 381.44448 306.515172 
L 398.49984 306.515172 
L 400.39488 304.321655 
L 426.92544 304.321655 
L 428.82048 302.128138 
L 438.29568 302.128138 
L 440.19072 299.934621 
L 455.35104 299.934621 
L 457.24608 298.303544 
L 459.14112 298.303544 
L 461.03616 296.110027 
L 468.61632 296.110027 
L 470.51136 293.916509 
L 485.67168 293.916509 
L 487.56672 289.529475 
L 504.62208 289.529475 
L 506.51712 287.898398 
L 523.57248 287.898398 
L 525.46752 285.704881 
L 529.2576 285.704881 
L 531.15264 283.511363 
L 538.7328 283.511363 
L 540.62784 281.880286 
L 550.10304 281.880286 
L 551.99808 279.686769 
L 557.6832 279.686769 
L 559.57824 275.862175 
L 567.1584 275.862175 
L 569.05344 274.231098 
L 570.94848 270.968944 
L 582.31872 270.968944 
L 584.21376 268.775427 
L 586.1088 268.775427 
L 588.00384 266.58191 
L 605.0592 266.58191 
L 606.95424 264.388393 
L 608.84928 264.388393 
L 610.74432 262.757316 
L 614.5344 262.757316 
L 616.42944 260.563798 
L 618.32448 260.563798 
L 622.11456 256.176764 
L 631.58976 256.176764 
L 633.4848 252.35217 
L 637.27488 252.35217 
L 639.16992 250.721093 
L 641.06496 247.458939 
L 642.96 247.458939 
L 642.96 247.458939 
" clip-path="url(#p527cf42083)" style="fill: none; stroke-dasharray: 6.75,2.7,1.35,2.7; stroke-dashoffset: 0; stroke: #2f8f84; stroke-width: 1.35"/>
   </g>
   <g id="patch_4">
    <path d="M 74.448 348.192 
L 74.448 93.744 
" style="fill: none; stroke: #000000; stroke-width: 0.8; stroke-linejoin: miter; stroke-linecap: square"/>
   </g>
   <g id="patch_5">
    <path d="M 74.448 348.192 
L 642.96 348.192 
" style="fill: none; stroke: #000000; stroke-width: 0.8; stroke-linejoin: miter; stroke-linecap: square"/>
   </g>
  </g>
  <g id="text_16">
   <text style="font: 18px 'DejaVu Sans', 'Bitstream Vera Sans', 'Computer Modern Sans Serif', 'Lucida Grande', 'Verdana', 'Geneva', 'Lucid', 'Arial', 'Helvetica', 'Avant Garde', sans-serif; text-anchor: start" x="74.448" y="38.229188" transform="rotate(-0 74.448 38.229188)">LED-V2 Direct</text>
  </g>
  <g id="text_17">
   <text style="fill: #66747c; font: 10px 'DejaVu Sans', 'Bitstream Vera Sans', 'Computer Modern Sans Serif', 'Lucida Grande', 'Verdana', 'Geneva', 'Lucid', 'Arial', 'Helvetica', 'Avant Garde', sans-serif; text-anchor: start" x="74.448" y="64.728" transform="rotate(-0 74.448 64.728)">smartphone OLED</text>
  </g>
  <g id="legend_1">
   <g id="line2d_33">
    <path d="M 185.17875 404.151391 
L 194.27875 404.151391 
L 203.37875 404.151391 
" style="fill: none; stroke: #252525; stroke-width: 2.5; stroke-linecap: square"/>
   </g>
   <g id="text_18">
    <text style="font: 9.1px 'DejaVu Sans', 'Bitstream Vera Sans', 'Computer Modern Sans Serif', 'Lucida Grande', 'Verdana', 'Geneva', 'Lucid', 'Arial', 'Helvetica', 'Avant Garde', sans-serif; text-anchor: start" x="210.65875" y="407.336391" transform="rotate(-0 210.65875 407.336391)">Potera CMF</text>
   </g>
   <g id="line2d_34">
    <path d="M 185.17875 417.508484 
L 194.27875 417.508484 
L 203.37875 417.508484 
" style="fill: none; stroke: #3b83b4; stroke-width: 1.35; stroke-linecap: square"/>
   </g>
   <g id="text_19">
    <text style="font: 9.1px 'DejaVu Sans', 'Bitstream Vera Sans', 'Computer Modern Sans Serif', 'Lucida Grande', 'Verdana', 'Geneva', 'Lucid', 'Arial', 'Helvetica', 'Avant Garde', sans-serif; text-anchor: start" x="210.65875" y="420.693484" transform="rotate(-0 210.65875 420.693484)">CIE 2015 2°</text>
   </g>
   <g id="line2d_35">
    <path d="M 282.931234 404.151391 
L 292.031234 404.151391 
L 301.131234 404.151391 
" style="fill: none; stroke-dasharray: 4.995,2.16; stroke-dashoffset: 0; stroke: #c38a19; stroke-width: 1.35"/>
   </g>
   <g id="text_20">
    <text style="font: 9.1px 'DejaVu Sans', 'Bitstream Vera Sans', 'Computer Modern Sans Serif', 'Lucida Grande', 'Verdana', 'Geneva', 'Lucid', 'Arial', 'Helvetica', 'Avant Garde', sans-serif; text-anchor: start" x="308.411234" y="407.336391" transform="rotate(-0 308.411234 407.336391)">CIE 2015 10°</text>
   </g>
   <g id="line2d_36">
    <path d="M 282.931234 417.508484 
L 292.031234 417.508484 
L 301.131234 417.508484 
" style="fill: none; stroke-dasharray: 1.35,2.2275; stroke-dashoffset: 0; stroke: #7d8a92; stroke-width: 1.35"/>
   </g>
   <g id="text_21">
    <text style="font: 9.1px 'DejaVu Sans', 'Bitstream Vera Sans', 'Computer Modern Sans Serif', 'Lucida Grande', 'Verdana', 'Geneva', 'Lucid', 'Arial', 'Helvetica', 'Avant Garde', sans-serif; text-anchor: start" x="308.411234" y="420.693484" transform="rotate(-0 308.411234 420.693484)">CIE 1964 10°</text>
   </g>
   <g id="line2d_37">
    <path d="M 386.473594 404.151391 
L 395.573594 404.151391 
L 404.673594 404.151391 
" style="fill: none; stroke-dasharray: 8.64,2.16,1.35,2.16; stroke-dashoffset: 0; stroke: #d0526a; stroke-width: 1.35"/>
   </g>
   <g id="text_22">
    <text style="font: 9.1px 'DejaVu Sans', 'Bitstream Vera Sans', 'Computer Modern Sans Serif', 'Lucida Grande', 'Verdana', 'Geneva', 'Lucid', 'Arial', 'Helvetica', 'Avant Garde', sans-serif; text-anchor: start" x="411.953594" y="407.336391" transform="rotate(-0 411.953594 407.336391)">CIE 1931 2°</text>
   </g>
   <g id="line2d_38">
    <path d="M 386.473594 417.508484 
L 395.573594 417.508484 
L 404.673594 417.508484 
" style="fill: none; stroke-dasharray: 6.75,2.7,1.35,2.7; stroke-dashoffset: 0; stroke: #2f8f84; stroke-width: 1.35"/>
   </g>
   <g id="text_23">
    <text style="font: 9.1px 'DejaVu Sans', 'Bitstream Vera Sans', 'Computer Modern Sans Serif', 'Lucida Grande', 'Verdana', 'Geneva', 'Lucid', 'Arial', 'Helvetica', 'Avant Garde', sans-serif; text-anchor: start" x="411.953594" y="420.693484" transform="rotate(-0 411.953594 420.693484)">Judd–Vos 1978 2°</text>
   </g>
  </g>
 </g>
 <defs>
  <clipPath id="p527cf42083">
   <rect x="74.448" y="93.744" width="568.512" height="254.448"/>
  </clipPath>
 </defs>
</svg>
