<?xml version="1.0" encoding="utf-8" standalone="no"?>
<!DOCTYPE svg PUBLIC "-//W3C//DTD SVG 1.1//EN"
  "http://www.w3.org/Graphics/SVG/1.1/DTD/svg11.dtd">
<svg xmlns:xlink="http://www.w3.org/1999/xlink" width="676.8pt" height="446.4pt" viewBox="0 0 676.8 446.4" xmlns="http://www.w3.org/2000/svg" version="1.1">
 <metadata>
  <rdf:RDF xmlns:dc="http://purl.org/dc/elements/1.1/" xmlns:cc="http://creativecommons.org/ns#" xmlns:rdf="http://www.w3.org/1999/02/22-rdf-syntax-ns#">
   <cc:Work>
    <dc:type rdf:resource="http://purl.org/dc/dcmitype/StillImage"/>
    <dc:date>2026-07-20T06:41:56.493533</dc:date>
    <dc:format>image/svg+xml</dc:format>
    <dc:creator>
     <cc:Agent>
      <dc:title>Matplotlib v3.9.4, https://matplotlib.org/</dc:title>
     </cc:Agent>
    </dc:creator>
   </cc:Work>
  </rdf:RDF>
 </metadata>
 <defs>
  <style type="text/css">*{stroke-linejoin: round; stroke-linecap: butt}</style>
 </defs>
 <g id="figure_1">
  <g id="patch_1">
   <path d="M 0 446.4 
L 676.8 446.4 
L 676.8 0 
L 0 0 
z
" style="fill: #ffffff"/>
  </g>
  <g id="axes_1">
   <g id="patch_2">
    <path d="M 74.448 348.192 
L 642.96 348.192 
L 642.96 93.744 
L 74.448 93.744 
z
" style="fill: #ffffff"/>
   </g>
   <g id="patch_3">
    <path d="M 169.2 348.192 
L 358.704 348.192 
L 358.704 93.744 
L 169.2 93.744 
z
" clip-path="url(#pa1375787c5)" style="fill: #e7f0ea; opacity: 0.58; stroke: #e7f0ea; stroke-linejoin: miter"/>
   </g>
   <g id="matplotlib.axis_1">
    <g id="xtick_1">
     <g id="line2d_1">
      <path d="M 74.448 348.192 
L 74.448 93.744 
" clip-path="url(#pa1375787c5)" style="fill: none; stroke: #dfe5e8; stroke-width: 0.65; stroke-linecap: square"/>
     </g>
     <g id="line2d_2">
      <defs>
       <path id="m931e79f186" d="M 0 0 
L 0 3.5 
" style="stroke: #000000; stroke-width: 0.8"/>
      </defs>
      <g>
       <use xlink:href="#m931e79f186" x="74.448" y="348.192" style="stroke: #000000; stroke-width: 0.8"/>
      </g>
     </g>
     <g id="text_1">
      <text style="font: 10px 'DejaVu Sans', 'Bitstream Vera Sans', 'Computer Modern Sans Serif', 'Lucida Grande', 'Verdana', 'Geneva', 'Lucid', 'Arial', 'Helvetica', 'Avant Garde', sans-serif; text-anchor: middle" x="74.448" y="362.790438" transform="rotate(-0 74.448 362.790438)">0</text>
     </g>
    </g>
    <g id="xtick_2">
     <g id="line2d_3">
      <path d="M 169.2 348.192 
L 169.2 93.744 
" clip-path="url(#pa1375787c5)" style="fill: none; stroke: #dfe5e8; stroke-width: 0.65; stroke-linecap: square"/>
     </g>
     <g id="line2d_4">
      <g>
       <use xlink:href="#m931e79f186" x="169.2" y="348.192" style="stroke: #000000; stroke-width: 0.8"/>
      </g>
     </g>
     <g id="text_2">
      <text style="font: 10px 'DejaVu Sans', 'Bitstream Vera Sans', 'Computer Modern Sans Serif', 'Lucida Grande', 'Verdana', 'Geneva', 'Lucid', 'Arial', 'Helvetica', 'Avant Garde', sans-serif; text-anchor: middle" x="169.2" y="362.790438" transform="rotate(-0 169.2 362.790438)">1</text>
     </g>
    </g>
    <g id="xtick_3">
     <g id="line2d_5">
      <path d="M 263.952 348.192 
L 263.952 93.744 
" clip-path="url(#pa1375787c5)" style="fill: none; stroke: #dfe5e8; stroke-width: 0.65; stroke-linecap: square"/>
     </g>
     <g id="line2d_6">
      <g>
       <use xlink:href="#m931e79f186" x="263.952" y="348.192" style="stroke: #000000; stroke-width: 0.8"/>
      </g>
     </g>
     <g id="text_3">
      <text style="font: 10px 'DejaVu Sans', 'Bitstream Vera Sans', 'Computer Modern Sans Serif', 'Lucida Grande', 'Verdana', 'Geneva', 'Lucid', 'Arial', 'Helvetica', 'Avant Garde', sans-serif; text-anchor: middle" x="263.952" y="362.790438" transform="rotate(-0 263.952 362.790438)">2</text>
     </g>
    </g>
    <g id="xtick_4">
     <g id="line2d_7">
      <path d="M 358.704 348.192 
L 358.704 93.744 
" clip-path="url(#pa1375787c5)" style="fill: none; stroke: #dfe5e8; stroke-width: 0.65; stroke-linecap: square"/>
     </g>
     <g id="line2d_8">
      <g>
       <use xlink:href="#m931e79f186" x="358.704" y="348.192" style="stroke: #000000; stroke-width: 0.8"/>
      </g>
     </g>
     <g id="text_4">
      <text style="font: 10px 'DejaVu Sans', 'Bitstream Vera Sans', 'Computer Modern Sans Serif', 'Lucida Grande', 'Verdana', 'Geneva', 'Lucid', 'Arial', 'Helvetica', 'Avant Garde', sans-serif; text-anchor: middle" x="358.704" y="362.790438" transform="rotate(-0 358.704 362.790438)">3</text>
     </g>
    </g>
    <g id="xtick_5">
     <g id="line2d_9">
      <path d="M 453.456 348.192 
L 453.456 93.744 
" clip-path="url(#pa1375787c5)" style="fill: none; stroke: #dfe5e8; stroke-width: 0.65; stroke-linecap: square"/>
     </g>
     <g id="line2d_10">
      <g>
       <use xlink:href="#m931e79f186" x="453.456" y="348.192" style="stroke: #000000; stroke-width: 0.8"/>
      </g>
     </g>
     <g id="text_5">
      <text style="font: 10px 'DejaVu Sans', 'Bitstream Vera Sans', 'Computer Modern Sans Serif', 'Lucida Grande', 'Verdana', 'Geneva', 'Lucid', 'Arial', 'Helvetica', 'Avant Garde', sans-serif; text-anchor: middle" x="453.456" y="362.790438" transform="rotate(-0 453.456 362.790438)">4</text>
     </g>
    </g>
    <g id="xtick_6">
     <g id="line2d_11">
      <path d="M 548.208 348.192 
L 548.208 93.744 
" clip-path="url(#pa1375787c5)" style="fill: none; stroke: #dfe5e8; stroke-width: 0.65; stroke-linecap: square"/>
     </g>
     <g id="line2d_12">
      <g>
       <use xlink:href="#m931e79f186" x="548.208" y="348.192" style="stroke: #000000; stroke-width: 0.8"/>
      </g>
     </g>
     <g id="text_6">
      <text style="font: 10px 'DejaVu Sans', 'Bitstream Vera Sans', 'Computer Modern Sans Serif', 'Lucida Grande', 'Verdana', 'Geneva', 'Lucid', 'Arial', 'Helvetica', 'Avant Garde', sans-serif; text-anchor: middle" x="548.208" y="362.790438" transform="rotate(-0 548.208 362.790438)">5</text>
     </g>
    </g>
    <g id="xtick_7">
     <g id="line2d_13">
      <path d="M 642.96 348.192 
L 642.96 93.744 
" clip-path="url(#pa1375787c5)" style="fill: none; stroke: #dfe5e8; stroke-width: 0.65; stroke-linecap: square"/>
     </g>
     <g id="line2d_14">
      <g>
       <use xlink:href="#m931e79f186" x="642.96" y="348.192" style="stroke: #000000; stroke-width: 0.8"/>
      </g>
     </g>
     <g id="text_7">
      <text style="font: 10px 'DejaVu Sans', 'Bitstream Vera Sans', 'Computer Modern Sans Serif', 'Lucida Grande', 'Verdana', 'Geneva', 'Lucid', 'Arial', 'Helvetica', 'Avant Garde', sans-serif; text-anchor: middle" x="642.96" y="362.790438" transform="rotate(-0 642.96 362.790438)">6</text>
     </g>
    </g>
    <g id="text_8">
     <text style="font: 10px 'DejaVu Sans', 'Bitstream Vera Sans', 'Computer Modern Sans Serif', 'Lucida Grande', 'Verdana', 'Geneva', 'Lucid', 'Arial', 'Helvetica', 'Avant Garde', sans-serif; text-anchor: middle" x="358.704" y="376.468563" transform="rotate(-0 358.704 376.468563)">sUCS dE threshold</text>
    </g>
   </g>
   <g id="matplotlib.axis_2">
    <g id="ytick_1">
     <g id="line2d_15">
      <path d="M 74.448 348.192 
L 642.96 348.192 
" clip-path="url(#pa1375787c5)" style="fill: none; stroke: #dfe5e8; stroke-width: 0.65; stroke-linecap: square"/>
     </g>
     <g id="line2d_16">
      <defs>
       <path id="m97ba583024" d="M 0 0 
L -3.5 0 
" style="stroke: #000000; stroke-width: 0.8"/>
      </defs>
      <g>
       <use xlink:href="#m97ba583024" x="74.448" y="348.192" style="stroke: #000000; stroke-width: 0.8"/>
      </g>
     </g>
     <g id="text_9">
      <text style="font: 10px 'DejaVu Sans', 'Bitstream Vera Sans', 'Computer Modern Sans Serif', 'Lucida Grande', 'Verdana', 'Geneva', 'Lucid', 'Arial', 'Helvetica', 'Avant Garde', sans-serif; text-anchor: end" x="67.448" y="351.991219" transform="rotate(-0 67.448 351.991219)">0</text>
     </g>
    </g>
    <g id="ytick_2">
     <g id="line2d_17">
      <path d="M 74.448 297.3024 
L 642.96 297.3024 
" clip-path="url(#pa1375787c5)" style="fill: none; stroke: #dfe5e8; stroke-width: 0.65; stroke-linecap: square"/>
     </g>
     <g id="line2d_18">
      <g>
       <use xlink:href="#m97ba583024" x="74.448" y="297.3024" style="stroke: #000000; stroke-width: 0.8"/>
      </g>
     </g>
     <g id="text_10">
      <text style="font: 10px 'DejaVu Sans', 'Bitstream Vera Sans', 'Computer Modern Sans Serif', 'Lucida Grande', 'Verdana', 'Geneva', 'Lucid', 'Arial', 'Helvetica', 'Avant Garde', sans-serif; text-anchor: end" x="67.448" y="301.101619" transform="rotate(-0 67.448 301.101619)">20</text>
     </g>
    </g>
    <g id="ytick_3">
     <g id="line2d_19">
      <path d="M 74.448 246.4128 
L 642.96 246.4128 
" clip-path="url(#pa1375787c5)" style="fill: none; stroke: #dfe5e8; stroke-width: 0.65; stroke-linecap: square"/>
     </g>
     <g id="line2d_20">
      <g>
       <use xlink:href="#m97ba583024" x="74.448" y="246.4128" style="stroke: #000000; stroke-width: 0.8"/>
      </g>
     </g>
     <g id="text_11">
      <text style="font: 10px 'DejaVu Sans', 'Bitstream Vera Sans', 'Computer Modern Sans Serif', 'Lucida Grande', 'Verdana', 'Geneva', 'Lucid', 'Arial', 'Helvetica', 'Avant Garde', sans-serif; text-anchor: end" x="67.448" y="250.212019" transform="rotate(-0 67.448 250.212019)">40</text>
     </g>
    </g>
    <g id="ytick_4">
     <g id="line2d_21">
      <path d="M 74.448 195.5232 
L 642.96 195.5232 
" clip-path="url(#pa1375787c5)" style="fill: none; stroke: #dfe5e8; stroke-width: 0.65; stroke-linecap: square"/>
     </g>
     <g id="line2d_22">
      <g>
       <use xlink:href="#m97ba583024" x="74.448" y="195.5232" style="stroke: #000000; stroke-width: 0.8"/>
      </g>
     </g>
     <g id="text_12">
      <text style="font: 10px 'DejaVu Sans', 'Bitstream Vera Sans', 'Computer Modern Sans Serif', 'Lucida Grande', 'Verdana', 'Geneva', 'Lucid', 'Arial', 'Helvetica', 'Avant Garde', sans-serif; text-anchor: end" x="67.448" y="199.322419" transform="rotate(-0 67.448 199.322419)">60</text>
     </g>
    </g>
    <g id="ytick_5">
     <g id="line2d_23">
      <path d="M 74.448 144.6336 
L 642.96 144.6336 
" clip-path="url(#pa1375787c5)" style="fill: none; stroke: #dfe5e8; stroke-width: 0.65; stroke-linecap: square"/>
     </g>
     <g id="line2d_24">
      <g>
       <use xlink:href="#m97ba583024" x="74.448" y="144.6336" style="stroke: #000000; stroke-width: 0.8"/>
      </g>
     </g>
     <g id="text_13">
      <text style="font: 10px 'DejaVu Sans', 'Bitstream Vera Sans', 'Computer Modern Sans Serif', 'Lucida Grande', 'Verdana', 'Geneva', 'Lucid', 'Arial', 'Helvetica', 'Avant Garde', sans-serif; text-anchor: end" x="67.448" y="148.432819" transform="rotate(-0 67.448 148.432819)">80</text>
     </g>
    </g>
    <g id="ytick_6">
     <g id="line2d_25">
      <path d="M 74.448 93.744 
L 642.96 93.744 
" clip-path="url(#pa1375787c5)" style="fill: none; stroke: #dfe5e8; stroke-width: 0.65; stroke-linecap: square"/>
     </g>
     <g id="line2d_26">
      <g>
       <use xlink:href="#m97ba583024" x="74.448" y="93.744" style="stroke: #000000; stroke-width: 0.8"/>
      </g>
     </g>
     <g id="text_14">
      <text style="font: 10px 'DejaVu Sans', 'Bitstream Vera Sans', 'Computer Modern Sans Serif', 'Lucida Grande', 'Verdana', 'Geneva', 'Lucid', 'Arial', 'Helvetica', 'Avant Garde', sans-serif; text-anchor: end" x="67.448" y="97.543219" transform="rotate(-0 67.448 97.543219)">100</text>
     </g>
    </g>
    <g id="text_15">
     <text style="font: 10px 'DejaVu Sans', 'Bitstream Vera Sans', 'Computer Modern Sans Serif', 'Lucida Grande', 'Verdana', 'Geneva', 'Lucid', 'Arial', 'Helvetica', 'Avant Garde', sans-serif; text-anchor: middle" x="42.280812" y="220.968" transform="rotate(-90 42.280812 220.968)">observers%</text>
    </g>
   </g>
   <g id="line2d_27">
    <path d="M 74.448 348.192 
L 102.8736 348.192 
L 104.76864 346.560923 
L 119.92896 346.560923 
L 121.824 344.367406 
L 125.61408 344.367406 
L 129.40416 339.980371 
L 131.2992 339.980371 
L 133.19424 338.349294 
L 136.98432 338.349294 
L 138.87936 336.718218 
L 140.7744 336.718218 
L 142.66944 335.087141 
L 157.82976 335.087141 
L 159.7248 331.262546 
L 169.2 331.262546 
L 171.09504 329.631469 
L 190.04544 329.631469 
L 191.94048 328.000393 
L 193.83552 328.000393 
L 195.73056 326.369316 
L 197.6256 326.369316 
L 199.52064 324.738239 
L 201.41568 321.476085 
L 203.31072 321.476085 
L 205.20576 319.845008 
L 210.89088 319.845008 
L 212.78592 316.020414 
L 216.576 316.020414 
L 218.47104 314.389337 
L 224.15616 314.389337 
L 226.0512 312.75826 
L 229.84128 306.233952 
L 231.73632 304.040435 
L 237.42144 299.147204 
L 239.31648 296.953687 
L 243.10656 296.953687 
L 245.0016 295.32261 
L 252.58176 295.32261 
L 256.37184 292.060456 
L 258.26688 292.060456 
L 263.952 287.167225 
L 273.4272 287.167225 
L 275.32224 285.536149 
L 279.11232 285.536149 
L 281.00736 283.905072 
L 282.9024 283.905072 
L 284.79744 282.273995 
L 290.48256 282.273995 
L 292.3776 280.642918 
L 296.16768 280.642918 
L 298.06272 276.818324 
L 299.95776 276.818324 
L 301.8528 275.187247 
L 305.64288 275.187247 
L 311.328 270.294016 
L 313.22304 270.294016 
L 315.11808 268.662939 
L 317.01312 268.662939 
L 318.90816 266.469422 
L 320.8032 266.469422 
L 322.69824 264.838345 
L 326.48832 264.838345 
L 328.38336 263.207268 
L 332.17344 258.820233 
L 334.06848 254.995639 
L 335.96352 252.802122 
L 354.91392 252.802122 
L 364.38912 244.646737 
L 370.07424 244.646737 
L 375.75936 239.753507 
L 377.6544 239.753507 
L 379.54944 238.12243 
L 390.91968 238.12243 
L 392.81472 235.928912 
L 394.70976 235.928912 
L 396.6048 233.735395 
L 398.49984 232.104318 
L 400.39488 229.910801 
L 402.28992 228.279724 
L 406.08 223.89269 
L 409.87008 223.89269 
L 411.76512 221.699172 
L 415.5552 221.699172 
L 417.45024 220.068095 
L 419.34528 216.805942 
L 421.24032 215.174865 
L 425.0304 215.174865 
L 426.92544 213.543788 
L 436.40064 213.543788 
L 438.29568 211.912711 
L 442.08576 211.912711 
L 443.9808 209.719194 
L 457.24608 209.719194 
L 459.14112 207.525676 
L 472.4064 207.525676 
L 476.19648 204.263523 
L 478.09152 204.263523 
L 479.98656 202.632446 
L 481.8816 199.370292 
L 491.3568 199.370292 
L 493.25184 194.983257 
L 504.62208 194.983257 
L 506.51712 191.721103 
L 508.41216 190.090027 
L 514.09728 190.090027 
L 515.99232 188.45895 
L 519.7824 188.45895 
L 521.67744 186.827873 
L 527.36256 186.827873 
L 529.2576 184.634355 
L 555.78816 184.634355 
L 557.6832 182.440838 
L 561.47328 182.440838 
L 563.36832 180.809761 
L 565.26336 180.809761 
L 567.1584 179.178684 
L 574.73856 179.178684 
L 576.6336 177.547607 
L 580.42368 177.547607 
L 582.31872 175.916531 
L 586.1088 175.916531 
L 588.00384 173.723013 
L 589.89888 173.723013 
L 591.79392 171.529496 
L 605.0592 171.529496 
L 606.95424 169.335979 
L 637.27488 169.335979 
L 639.16992 167.142462 
L 641.06496 167.142462 
L 642.96 165.511385 
L 642.96 165.511385 
" clip-path="url(#pa1375787c5)" style="fill: none; stroke: #252525; stroke-width: 2.5; stroke-linecap: square"/>
   </g>
   <g id="line2d_28">
    <path d="M 74.448 348.192 
L 135.08928 348.192 
L 136.98432 345.998483 
L 138.87936 345.998483 
L 140.7744 343.804966 
L 159.7248 343.804966 
L 161.61984 342.173889 
L 165.40992 342.173889 
L 167.30496 339.980371 
L 171.09504 339.980371 
L 172.99008 337.786854 
L 176.78016 337.786854 
L 180.57024 334.5247 
L 182.46528 334.5247 
L 184.36032 332.331183 
L 188.1504 332.331183 
L 193.83552 325.750631 
L 210.89088 325.750631 
L 212.78592 324.119554 
L 214.68096 324.119554 
L 216.576 320.29496 
L 218.47104 318.663883 
L 222.26112 318.663883 
L 224.15616 317.032806 
L 226.0512 314.839289 
L 227.94624 313.208212 
L 252.58176 313.208212 
L 254.4768 311.577135 
L 256.37184 309.383618 
L 260.16192 309.383618 
L 262.05696 307.752541 
L 263.952 307.752541 
L 265.84704 303.927947 
L 267.74208 302.29687 
L 271.53216 302.29687 
L 273.4272 297.909836 
L 275.32224 297.909836 
L 277.21728 295.716318 
L 282.9024 295.716318 
L 284.79744 293.522801 
L 290.48256 293.522801 
L 292.3776 291.891724 
L 294.27264 288.06713 
L 296.16768 288.06713 
L 298.06272 284.242536 
L 299.95776 284.242536 
L 301.8528 280.417942 
L 307.53792 280.417942 
L 309.43296 278.786865 
L 320.8032 278.786865 
L 322.69824 277.155788 
L 328.38336 277.155788 
L 330.2784 274.962271 
L 334.06848 274.962271 
L 335.96352 271.700117 
L 337.85856 269.506599 
L 349.2288 269.506599 
L 351.12384 267.875523 
L 354.91392 267.875523 
L 356.80896 266.244446 
L 358.704 262.982292 
L 360.59904 262.982292 
L 362.49408 261.351215 
L 364.38912 261.351215 
L 368.1792 258.089061 
L 370.07424 255.895544 
L 371.96928 254.264467 
L 373.86432 251.002313 
L 375.75936 251.002313 
L 377.6544 246.109082 
L 379.54944 244.478005 
L 389.02464 244.478005 
L 390.91968 240.653411 
L 392.81472 240.653411 
L 394.70976 236.828817 
L 396.6048 236.828817 
L 398.49984 235.19774 
L 406.08 235.19774 
L 407.97504 231.935586 
L 409.87008 231.935586 
L 411.76512 230.304509 
L 413.66016 230.304509 
L 415.5552 228.673432 
L 417.45024 224.848838 
L 430.71552 224.848838 
L 434.5056 221.586684 
L 438.29568 221.586684 
L 440.19072 219.955607 
L 453.456 219.955607 
L 455.35104 218.324531 
L 457.24608 218.324531 
L 459.14112 216.693454 
L 461.03616 216.693454 
L 462.9312 214.499936 
L 474.30144 214.499936 
L 476.19648 212.868859 
L 479.98656 212.868859 
L 481.8816 211.237782 
L 493.25184 211.237782 
L 495.14688 209.606706 
L 502.72704 209.606706 
L 504.62208 207.975629 
L 506.51712 204.713475 
L 508.41216 204.713475 
L 510.3072 201.451321 
L 512.20224 201.451321 
L 514.09728 198.189167 
L 515.99232 198.189167 
L 517.88736 195.99565 
L 519.7824 195.99565 
L 521.67744 194.364573 
L 523.57248 194.364573 
L 527.36256 191.102419 
L 534.94272 191.102419 
L 538.7328 187.840265 
L 548.208 187.840265 
L 550.10304 185.646748 
L 557.6832 185.646748 
L 559.57824 183.453231 
L 565.26336 183.453231 
L 567.1584 181.259714 
L 576.6336 181.259714 
L 578.52864 179.628637 
L 580.42368 179.628637 
L 582.31872 177.435119 
L 584.21376 177.435119 
L 586.1088 175.804042 
L 588.00384 175.804042 
L 589.89888 173.610525 
L 603.16416 173.610525 
L 605.0592 171.417008 
L 614.5344 171.417008 
L 616.42944 169.223491 
L 620.21952 169.223491 
L 622.11456 167.592414 
L 625.90464 167.592414 
L 627.79968 165.961337 
L 631.58976 165.961337 
L 633.4848 163.76782 
L 635.37984 163.76782 
L 637.27488 161.574302 
L 642.96 161.574302 
L 642.96 161.574302 
" clip-path="url(#pa1375787c5)" style="fill: none; stroke: #3b83b4; stroke-width: 1.35; stroke-linecap: square"/>
   </g>
   <g id="line2d_29">
    <path d="M 74.448 348.192 
L 99.08352 348.192 
L 100.97856 346.560923 
L 102.8736 346.560923 
L 104.76864 344.929846 
L 106.66368 344.929846 
L 108.55872 343.298769 
L 127.50912 343.298769 
L 129.40416 341.667692 
L 133.19424 341.667692 
L 135.08928 339.474175 
L 142.66944 339.474175 
L 144.56448 337.843098 
L 155.93472 337.843098 
L 159.7248 334.580944 
L 161.61984 334.580944 
L 163.51488 332.949867 
L 190.04544 332.949867 
L 191.94048 331.31879 
L 195.73056 331.31879 
L 197.6256 329.687714 
L 201.41568 329.687714 
L 203.31072 328.056637 
L 205.20576 328.056637 
L 207.1008 326.42556 
L 212.78592 326.42556 
L 214.68096 324.794483 
L 224.15616 324.794483 
L 226.0512 323.163406 
L 231.73632 323.163406 
L 233.63136 321.532329 
L 237.42144 321.532329 
L 243.10656 316.639098 
L 260.16192 316.639098 
L 262.05696 313.376944 
L 265.84704 313.376944 
L 267.74208 307.921273 
L 286.69248 307.921273 
L 288.58752 306.290196 
L 296.16768 306.290196 
L 298.06272 304.659119 
L 301.8528 304.659119 
L 303.74784 303.028042 
L 305.64288 298.134812 
L 309.43296 294.872658 
L 315.11808 294.872658 
L 317.01312 292.679141 
L 320.8032 292.679141 
L 322.69824 291.048064 
L 326.48832 291.048064 
L 328.38336 288.854546 
L 332.17344 288.854546 
L 334.06848 285.592393 
L 335.96352 285.592393 
L 337.85856 283.398875 
L 339.7536 277.943204 
L 341.64864 277.943204 
L 343.54368 276.312127 
L 349.2288 276.312127 
L 351.12384 274.68105 
L 356.80896 274.68105 
L 358.704 273.049973 
L 362.49408 273.049973 
L 364.38912 269.78782 
L 371.96928 269.78782 
L 373.86432 267.594302 
L 385.23456 267.594302 
L 387.1296 265.963225 
L 400.39488 265.963225 
L 402.28992 264.332149 
L 407.97504 264.332149 
L 409.87008 262.138631 
L 423.13536 262.138631 
L 425.0304 260.507554 
L 426.92544 258.314037 
L 432.61056 258.314037 
L 434.5056 256.68296 
L 436.40064 256.68296 
L 440.19072 253.420806 
L 443.9808 253.420806 
L 445.87584 251.227289 
L 449.66592 251.227289 
L 451.56096 249.596212 
L 453.456 245.209178 
L 464.82624 245.209178 
L 468.61632 241.947024 
L 472.4064 241.947024 
L 474.30144 240.315947 
L 476.19648 240.315947 
L 478.09152 238.68487 
L 483.77664 238.68487 
L 485.67168 237.053793 
L 489.46176 237.053793 
L 491.3568 234.860276 
L 493.25184 233.229199 
L 504.62208 233.229199 
L 506.51712 231.035682 
L 510.3072 231.035682 
L 514.09728 227.773528 
L 525.46752 227.773528 
L 527.36256 226.142451 
L 531.15264 226.142451 
L 533.04768 223.948934 
L 534.94272 220.68678 
L 536.83776 218.493263 
L 538.7328 218.493263 
L 540.62784 216.862186 
L 548.208 216.862186 
L 550.10304 214.668668 
L 555.78816 214.668668 
L 557.6832 213.037592 
L 572.84352 213.037592 
L 574.73856 210.844074 
L 576.6336 210.844074 
L 578.52864 207.58192 
L 593.68896 207.58192 
L 595.584 205.950844 
L 597.47904 205.950844 
L 599.37408 203.757326 
L 601.26912 202.126249 
L 606.95424 202.126249 
L 608.84928 200.495172 
L 616.42944 200.495172 
L 618.32448 198.301655 
L 622.11456 198.301655 
L 624.0096 194.477061 
L 637.27488 194.477061 
L 639.16992 191.214907 
L 641.06496 189.58383 
L 642.96 189.58383 
L 642.96 189.58383 
" clip-path="url(#pa1375787c5)" style="fill: none; stroke-dasharray: 4.995,2.16; stroke-dashoffset: 0; stroke: #c38a19; stroke-width: 1.35"/>
   </g>
   <g id="line2d_30">
    <path d="M 74.448 348.192 
L 114.24384 348.192 
L 116.13888 346.560923 
L 118.03392 346.560923 
L 119.92896 344.929846 
L 121.824 344.929846 
L 123.71904 343.298769 
L 138.87936 343.298769 
L 140.7744 341.667692 
L 159.7248 341.667692 
L 161.61984 337.843098 
L 163.51488 337.843098 
L 165.40992 334.580944 
L 182.46528 334.580944 
L 184.36032 332.949867 
L 190.04544 332.949867 
L 193.83552 329.687714 
L 203.31072 329.687714 
L 205.20576 328.056637 
L 214.68096 328.056637 
L 216.576 324.794483 
L 218.47104 324.794483 
L 220.36608 323.163406 
L 222.26112 320.969889 
L 229.84128 320.969889 
L 231.73632 319.338812 
L 243.10656 319.338812 
L 246.89664 316.076658 
L 248.79168 316.076658 
L 254.4768 311.183427 
L 260.16192 311.183427 
L 262.05696 309.55235 
L 263.952 309.55235 
L 265.84704 307.921273 
L 267.74208 307.921273 
L 269.63712 305.727756 
L 273.4272 305.727756 
L 275.32224 304.096679 
L 279.11232 304.096679 
L 281.00736 301.903162 
L 282.9024 300.272085 
L 284.79744 298.078568 
L 292.3776 298.078568 
L 294.27264 296.447491 
L 296.16768 294.253973 
L 298.06272 290.99182 
L 301.8528 290.99182 
L 305.64288 287.729666 
L 324.59328 287.729666 
L 326.48832 286.098589 
L 328.38336 282.273995 
L 330.2784 279.011841 
L 334.06848 275.749687 
L 335.96352 275.749687 
L 337.85856 274.11861 
L 345.43872 274.11861 
L 347.33376 272.487533 
L 351.12384 272.487533 
L 353.01888 270.856456 
L 358.704 270.856456 
L 362.49408 267.594302 
L 364.38912 267.594302 
L 366.28416 265.963225 
L 381.44448 265.963225 
L 383.33952 263.769708 
L 390.91968 263.769708 
L 392.81472 261.576191 
L 402.28992 261.576191 
L 404.18496 259.382674 
L 406.08 257.751597 
L 407.97504 257.751597 
L 409.87008 256.12052 
L 417.45024 256.12052 
L 419.34528 253.927003 
L 421.24032 253.927003 
L 423.13536 252.295926 
L 430.71552 252.295926 
L 432.61056 250.102408 
L 434.5056 250.102408 
L 436.40064 248.471332 
L 438.29568 245.209178 
L 440.19072 245.209178 
L 442.08576 243.578101 
L 445.87584 243.578101 
L 447.77088 241.384584 
L 459.14112 241.384584 
L 461.03616 239.191066 
L 462.9312 239.191066 
L 464.82624 237.559989 
L 476.19648 237.559989 
L 478.09152 235.928912 
L 479.98656 233.735395 
L 485.67168 233.735395 
L 487.56672 232.104318 
L 489.46176 232.104318 
L 493.25184 228.842164 
L 495.14688 228.842164 
L 497.04192 226.648647 
L 502.72704 226.648647 
L 504.62208 225.01757 
L 508.41216 225.01757 
L 510.3072 221.192976 
L 514.09728 221.192976 
L 515.99232 218.999459 
L 517.88736 218.999459 
L 519.7824 215.737305 
L 521.67744 214.106228 
L 525.46752 214.106228 
L 527.36256 212.475151 
L 531.15264 212.475151 
L 533.04768 210.844074 
L 540.62784 210.844074 
L 542.52288 209.212997 
L 544.41792 209.212997 
L 546.31296 207.01948 
L 561.47328 207.01948 
L 563.36832 205.388403 
L 569.05344 205.388403 
L 570.94848 203.194886 
L 572.84352 203.194886 
L 574.73856 201.001369 
L 578.52864 201.001369 
L 580.42368 199.370292 
L 584.21376 199.370292 
L 586.1088 197.739215 
L 593.68896 197.739215 
L 595.584 196.108138 
L 610.74432 196.108138 
L 612.63936 193.914621 
L 614.5344 192.283544 
L 616.42944 192.283544 
L 618.32448 190.652467 
L 627.79968 190.652467 
L 629.69472 189.02139 
L 637.27488 189.02139 
L 639.16992 186.827873 
L 641.06496 185.196796 
L 642.96 185.196796 
L 642.96 185.196796 
" clip-path="url(#pa1375787c5)" style="fill: none; stroke-dasharray: 1.35,2.2275; stroke-dashoffset: 0; stroke: #7d8a92; stroke-width: 1.35"/>
   </g>
   <g id="line2d_31">
    <path d="M 74.448 348.192 
L 123.71904 348.192 
L 125.61408 345.998483 
L 174.88512 345.998483 
L 176.78016 344.367406 
L 201.41568 344.367406 
L 203.31072 341.105252 
L 210.89088 341.105252 
L 212.78592 339.474175 
L 246.89664 339.474175 
L 248.79168 337.843098 
L 288.58752 337.843098 
L 290.48256 335.649581 
L 298.06272 335.649581 
L 299.95776 334.018504 
L 320.8032 334.018504 
L 322.69824 332.387427 
L 326.48832 332.387427 
L 330.2784 329.125273 
L 345.43872 329.125273 
L 347.33376 327.494196 
L 373.86432 327.494196 
L 375.75936 325.300679 
L 385.23456 325.300679 
L 387.1296 323.669602 
L 404.18496 323.669602 
L 406.08 321.476085 
L 409.87008 321.476085 
L 411.76512 319.845008 
L 415.5552 319.845008 
L 417.45024 318.213931 
L 423.13536 318.213931 
L 430.71552 311.689623 
L 457.24608 311.689623 
L 459.14112 310.058546 
L 468.61632 310.058546 
L 470.51136 308.427469 
L 506.51712 308.427469 
L 508.41216 306.796393 
L 510.3072 306.796393 
L 512.20224 305.165316 
L 519.7824 305.165316 
L 521.67744 303.534239 
L 542.52288 303.534239 
L 544.41792 301.903162 
L 557.6832 301.903162 
L 559.57824 300.272085 
L 563.36832 300.272085 
L 565.26336 298.641008 
L 572.84352 298.641008 
L 574.73856 297.009931 
L 578.52864 297.009931 
L 580.42368 295.378854 
L 584.21376 295.378854 
L 586.1088 293.185337 
L 591.79392 293.185337 
L 593.68896 290.99182 
L 595.584 289.360743 
L 608.84928 289.360743 
L 610.74432 287.729666 
L 616.42944 287.729666 
L 618.32448 286.098589 
L 625.90464 286.098589 
L 627.79968 284.467512 
L 629.69472 282.273995 
L 631.58976 280.642918 
L 635.37984 280.642918 
L 637.27488 277.380764 
L 639.16992 275.749687 
L 642.96 275.749687 
L 642.96 275.749687 
" clip-path="url(#pa1375787c5)" style="fill: none; stroke-dasharray: 8.64,2.16,1.35,2.16; stroke-dashoffset: 0; stroke: #d0526a; stroke-width: 1.35"/>
   </g>
   <g id="line2d_32">
    <path d="M 74.448 348.192 
L 135.08928 348.192 
L 136.98432 345.998483 
L 150.2496 345.998483 
L 152.14464 343.804966 
L 165.40992 343.804966 
L 167.30496 341.611448 
L 184.36032 341.611448 
L 186.25536 339.417931 
L 188.1504 339.417931 
L 190.04544 337.224414 
L 193.83552 337.224414 
L 195.73056 335.030897 
L 214.68096 335.030897 
L 216.576 332.837379 
L 218.47104 332.837379 
L 220.36608 330.643862 
L 222.26112 330.643862 
L 224.15616 328.450345 
L 231.73632 328.450345 
L 235.5264 324.06331 
L 246.89664 324.06331 
L 248.79168 321.869793 
L 252.58176 321.869793 
L 254.4768 319.676276 
L 262.05696 319.676276 
L 263.952 317.482759 
L 275.32224 317.482759 
L 277.21728 315.289241 
L 292.3776 315.289241 
L 294.27264 313.095724 
L 315.11808 313.095724 
L 317.01312 311.464647 
L 320.8032 311.464647 
L 322.69824 309.27113 
L 335.96352 309.27113 
L 337.85856 307.077613 
L 341.64864 307.077613 
L 345.43872 302.690578 
L 354.91392 302.690578 
L 356.80896 301.059501 
L 371.96928 301.059501 
L 373.86432 298.865984 
L 396.6048 298.865984 
L 398.49984 296.672467 
L 400.39488 296.672467 
L 402.28992 294.47895 
L 407.97504 294.47895 
L 409.87008 292.847873 
L 411.76512 290.654355 
L 413.66016 290.654355 
L 415.5552 289.023279 
L 430.71552 289.023279 
L 432.61056 287.392202 
L 440.19072 287.392202 
L 443.9808 283.005167 
L 451.56096 283.005167 
L 453.456 281.37409 
L 455.35104 281.37409 
L 457.24608 279.180573 
L 468.61632 279.180573 
L 470.51136 276.987056 
L 476.19648 276.987056 
L 478.09152 272.600021 
L 479.98656 272.600021 
L 481.8816 270.406504 
L 485.67168 270.406504 
L 487.56672 268.212987 
L 489.46176 266.58191 
L 495.14688 266.58191 
L 497.04192 264.950833 
L 498.93696 264.950833 
L 500.832 262.757316 
L 504.62208 262.757316 
L 506.51712 259.495162 
L 508.41216 257.864085 
L 510.3072 252.408414 
L 519.7824 252.408414 
L 521.67744 250.214897 
L 523.57248 248.58382 
L 533.04768 248.58382 
L 534.94272 246.952743 
L 544.41792 246.952743 
L 546.31296 244.759225 
L 555.78816 244.759225 
L 557.6832 241.497072 
L 563.36832 241.497072 
L 565.26336 239.865995 
L 569.05344 239.865995 
L 570.94848 238.234918 
L 572.84352 236.041401 
L 574.73856 236.041401 
L 576.6336 234.410324 
L 580.42368 234.410324 
L 582.31872 232.216806 
L 584.21376 230.585729 
L 591.79392 230.585729 
L 593.68896 228.954653 
L 599.37408 228.954653 
L 601.26912 227.323576 
L 603.16416 225.130058 
L 605.0592 225.130058 
L 606.95424 223.498981 
L 616.42944 223.498981 
L 618.32448 219.674387 
L 620.21952 219.674387 
L 622.11456 217.48087 
L 625.90464 217.48087 
L 629.69472 214.218716 
L 635.37984 214.218716 
L 637.27488 212.025199 
L 642.96 212.025199 
L 642.96 212.025199 
" clip-path="url(#pa1375787c5)" style="fill: none; stroke-dasharray: 6.75,2.7,1.35,2.7; stroke-dashoffset: 0; stroke: #2f8f84; stroke-width: 1.35"/>
   </g>
   <g id="patch_4">
    <path d="M 74.448 348.192 
L 74.448 93.744 
" style="fill: none; stroke: #000000; stroke-width: 0.8; stroke-linejoin: miter; stroke-linecap: square"/>
   </g>
   <g id="patch_5">
    <path d="M 74.448 348.192 
L 642.96 348.192 
" style="fill: none; stroke: #000000; stroke-width: 0.8; stroke-linejoin: miter; stroke-linecap: square"/>
   </g>
  </g>
  <g id="text_16">
   <text style="font: 18px 'DejaVu Sans', 'Bitstream Vera Sans', 'Computer Modern Sans Serif', 'Lucida Grande', 'Verdana', 'Geneva', 'Lucid', 'Arial', 'Helvetica', 'Avant Garde', sans-serif; text-anchor: start" x="74.448" y="38.229188" transform="rotate(-0 74.448 38.229188)">LED-V2 Direct</text>
  </g>
  <g id="text_17">
   <text style="fill: #66747c; font: 10px 'DejaVu Sans', 'Bitstream Vera Sans', 'Computer Modern Sans Serif', 'Lucida Grande', 'Verdana', 'Geneva', 'Lucid', 'Arial', 'Helvetica', 'Avant Garde', sans-serif; text-anchor: start" x="74.448" y="64.728" transform="rotate(-0 74.448 64.728)">WLED LCD</text>
  </g>
  <g id="legend_1">
   <g id="line2d_33">
    <path d="M 185.17875 404.151391 
L 194.27875 404.151391 
L 203.37875 404.151391 
" style="fill: none; stroke: #252525; stroke-width: 2.5; stroke-linecap: square"/>
   </g>
   <g id="text_18">
    <text style="font: 9.1px 'DejaVu Sans', 'Bitstream Vera Sans', 'Computer Modern Sans Serif', 'Lucida Grande', 'Verdana', 'Geneva', 'Lucid', 'Arial', 'Helvetica', 'Avant Garde', sans-serif; text-anchor: start" x="210.65875" y="407.336391" transform="rotate(-0 210.65875 407.336391)">Potera CMF</text>
   </g>
   <g id="line2d_34">
    <path d="M 185.17875 417.508484 
L 194.27875 417.508484 
L 203.37875 417.508484 
" style="fill: none; stroke: #3b83b4; stroke-width: 1.35; stroke-linecap: square"/>
   </g>
   <g id="text_19">
    <text style="font: 9.1px 'DejaVu Sans', 'Bitstream Vera Sans', 'Computer Modern Sans Serif', 'Lucida Grande', 'Verdana', 'Geneva', 'Lucid', 'Arial', 'Helvetica', 'Avant Garde', sans-serif; text-anchor: start" x="210.65875" y="420.693484" transform="rotate(-0 210.65875 420.693484)">CIE 2015 2°</text>
   </g>
   <g id="line2d_35">
    <path d="M 282.931234 404.151391 
L 292.031234 404.151391 
L 301.131234 404.151391 
" style="fill: none; stroke-dasharray: 4.995,2.16; stroke-dashoffset: 0; stroke: #c38a19; stroke-width: 1.35"/>
   </g>
   <g id="text_20">
    <text style="font: 9.1px 'DejaVu Sans', 'Bitstream Vera Sans', 'Computer Modern Sans Serif', 'Lucida Grande', 'Verdana', 'Geneva', 'Lucid', 'Arial', 'Helvetica', 'Avant Garde', sans-serif; text-anchor: start" x="308.411234" y="407.336391" transform="rotate(-0 308.411234 407.336391)">CIE 2015 10°</text>
   </g>
   <g id="line2d_36">
    <path d="M 282.931234 417.508484 
L 292.031234 417.508484 
L 301.131234 417.508484 
" style="fill: none; stroke-dasharray: 1.35,2.2275; stroke-dashoffset: 0; stroke: #7d8a92; stroke-width: 1.35"/>
   </g>
   <g id="text_21">
    <text style="font: 9.1px 'DejaVu Sans', 'Bitstream Vera Sans', 'Computer Modern Sans Serif', 'Lucida Grande', 'Verdana', 'Geneva', 'Lucid', 'Arial', 'Helvetica', 'Avant Garde', sans-serif; text-anchor: start" x="308.411234" y="420.693484" transform="rotate(-0 308.411234 420.693484)">CIE 1964 10°</text>
   </g>
   <g id="line2d_37">
    <path d="M 386.473594 404.151391 
L 395.573594 404.151391 
L 404.673594 404.151391 
" style="fill: none; stroke-dasharray: 8.64,2.16,1.35,2.16; stroke-dashoffset: 0; stroke: #d0526a; stroke-width: 1.35"/>
   </g>
   <g id="text_22">
    <text style="font: 9.1px 'DejaVu Sans', 'Bitstream Vera Sans', 'Computer Modern Sans Serif', 'Lucida Grande', 'Verdana', 'Geneva', 'Lucid', 'Arial', 'Helvetica', 'Avant Garde', sans-serif; text-anchor: start" x="411.953594" y="407.336391" transform="rotate(-0 411.953594 407.336391)">CIE 1931 2°</text>
   </g>
   <g id="line2d_38">
    <path d="M 386.473594 417.508484 
L 395.573594 417.508484 
L 404.673594 417.508484 
" style="fill: none; stroke-dasharray: 6.75,2.7,1.35,2.7; stroke-dashoffset: 0; stroke: #2f8f84; stroke-width: 1.35"/>
   </g>
   <g id="text_23">
    <text style="font: 9.1px 'DejaVu Sans', 'Bitstream Vera Sans', 'Computer Modern Sans Serif', 'Lucida Grande', 'Verdana', 'Geneva', 'Lucid', 'Arial', 'Helvetica', 'Avant Garde', sans-serif; text-anchor: start" x="411.953594" y="420.693484" transform="rotate(-0 411.953594 420.693484)">Judd–Vos 1978 2°</text>
   </g>
  </g>
 </g>
 <defs>
  <clipPath id="pa1375787c5">
   <rect x="74.448" y="93.744" width="568.512" height="254.448"/>
  </clipPath>
 </defs>
</svg>
