<?xml version="1.0" encoding="utf-8" standalone="no"?>
<!DOCTYPE svg PUBLIC "-//W3C//DTD SVG 1.1//EN"
  "http://www.w3.org/Graphics/SVG/1.1/DTD/svg11.dtd">
<svg xmlns:xlink="http://www.w3.org/1999/xlink" width="676.8pt" height="446.4pt" viewBox="0 0 676.8 446.4" xmlns="http://www.w3.org/2000/svg" version="1.1">
 <metadata>
  <rdf:RDF xmlns:dc="http://purl.org/dc/elements/1.1/" xmlns:cc="http://creativecommons.org/ns#" xmlns:rdf="http://www.w3.org/1999/02/22-rdf-syntax-ns#">
   <cc:Work>
    <dc:type rdf:resource="http://purl.org/dc/dcmitype/StillImage"/>
    <dc:date>2026-07-20T06:41:56.334639</dc:date>
    <dc:format>image/svg+xml</dc:format>
    <dc:creator>
     <cc:Agent>
      <dc:title>Matplotlib v3.9.4, https://matplotlib.org/</dc:title>
     </cc:Agent>
    </dc:creator>
   </cc:Work>
  </rdf:RDF>
 </metadata>
 <defs>
  <style type="text/css">*{stroke-linejoin: round; stroke-linecap: butt}</style>
 </defs>
 <g id="figure_1">
  <g id="patch_1">
   <path d="M 0 446.4 
L 676.8 446.4 
L 676.8 0 
L 0 0 
z
" style="fill: #ffffff"/>
  </g>
  <g id="axes_1">
   <g id="patch_2">
    <path d="M 74.448 348.192 
L 642.96 348.192 
L 642.96 93.744 
L 74.448 93.744 
z
" style="fill: #ffffff"/>
   </g>
   <g id="patch_3">
    <path d="M 169.2 348.192 
L 358.704 348.192 
L 358.704 93.744 
L 169.2 93.744 
z
" clip-path="url(#p1f91b04764)" style="fill: #e7f0ea; opacity: 0.58; stroke: #e7f0ea; stroke-linejoin: miter"/>
   </g>
   <g id="matplotlib.axis_1">
    <g id="xtick_1">
     <g id="line2d_1">
      <path d="M 74.448 348.192 
L 74.448 93.744 
" clip-path="url(#p1f91b04764)" style="fill: none; stroke: #dfe5e8; stroke-width: 0.65; stroke-linecap: square"/>
     </g>
     <g id="line2d_2">
      <defs>
       <path id="mf8922a8f57" d="M 0 0 
L 0 3.5 
" style="stroke: #000000; stroke-width: 0.8"/>
      </defs>
      <g>
       <use xlink:href="#mf8922a8f57" x="74.448" y="348.192" style="stroke: #000000; stroke-width: 0.8"/>
      </g>
     </g>
     <g id="text_1">
      <text style="font: 10px 'DejaVu Sans', 'Bitstream Vera Sans', 'Computer Modern Sans Serif', 'Lucida Grande', 'Verdana', 'Geneva', 'Lucid', 'Arial', 'Helvetica', 'Avant Garde', sans-serif; text-anchor: middle" x="74.448" y="362.790438" transform="rotate(-0 74.448 362.790438)">0</text>
     </g>
    </g>
    <g id="xtick_2">
     <g id="line2d_3">
      <path d="M 169.2 348.192 
L 169.2 93.744 
" clip-path="url(#p1f91b04764)" style="fill: none; stroke: #dfe5e8; stroke-width: 0.65; stroke-linecap: square"/>
     </g>
     <g id="line2d_4">
      <g>
       <use xlink:href="#mf8922a8f57" x="169.2" y="348.192" style="stroke: #000000; stroke-width: 0.8"/>
      </g>
     </g>
     <g id="text_2">
      <text style="font: 10px 'DejaVu Sans', 'Bitstream Vera Sans', 'Computer Modern Sans Serif', 'Lucida Grande', 'Verdana', 'Geneva', 'Lucid', 'Arial', 'Helvetica', 'Avant Garde', sans-serif; text-anchor: middle" x="169.2" y="362.790438" transform="rotate(-0 169.2 362.790438)">1</text>
     </g>
    </g>
    <g id="xtick_3">
     <g id="line2d_5">
      <path d="M 263.952 348.192 
L 263.952 93.744 
" clip-path="url(#p1f91b04764)" style="fill: none; stroke: #dfe5e8; stroke-width: 0.65; stroke-linecap: square"/>
     </g>
     <g id="line2d_6">
      <g>
       <use xlink:href="#mf8922a8f57" x="263.952" y="348.192" style="stroke: #000000; stroke-width: 0.8"/>
      </g>
     </g>
     <g id="text_3">
      <text style="font: 10px 'DejaVu Sans', 'Bitstream Vera Sans', 'Computer Modern Sans Serif', 'Lucida Grande', 'Verdana', 'Geneva', 'Lucid', 'Arial', 'Helvetica', 'Avant Garde', sans-serif; text-anchor: middle" x="263.952" y="362.790438" transform="rotate(-0 263.952 362.790438)">2</text>
     </g>
    </g>
    <g id="xtick_4">
     <g id="line2d_7">
      <path d="M 358.704 348.192 
L 358.704 93.744 
" clip-path="url(#p1f91b04764)" style="fill: none; stroke: #dfe5e8; stroke-width: 0.65; stroke-linecap: square"/>
     </g>
     <g id="line2d_8">
      <g>
       <use xlink:href="#mf8922a8f57" x="358.704" y="348.192" style="stroke: #000000; stroke-width: 0.8"/>
      </g>
     </g>
     <g id="text_4">
      <text style="font: 10px 'DejaVu Sans', 'Bitstream Vera Sans', 'Computer Modern Sans Serif', 'Lucida Grande', 'Verdana', 'Geneva', 'Lucid', 'Arial', 'Helvetica', 'Avant Garde', sans-serif; text-anchor: middle" x="358.704" y="362.790438" transform="rotate(-0 358.704 362.790438)">3</text>
     </g>
    </g>
    <g id="xtick_5">
     <g id="line2d_9">
      <path d="M 453.456 348.192 
L 453.456 93.744 
" clip-path="url(#p1f91b04764)" style="fill: none; stroke: #dfe5e8; stroke-width: 0.65; stroke-linecap: square"/>
     </g>
     <g id="line2d_10">
      <g>
       <use xlink:href="#mf8922a8f57" x="453.456" y="348.192" style="stroke: #000000; stroke-width: 0.8"/>
      </g>
     </g>
     <g id="text_5">
      <text style="font: 10px 'DejaVu Sans', 'Bitstream Vera Sans', 'Computer Modern Sans Serif', 'Lucida Grande', 'Verdana', 'Geneva', 'Lucid', 'Arial', 'Helvetica', 'Avant Garde', sans-serif; text-anchor: middle" x="453.456" y="362.790438" transform="rotate(-0 453.456 362.790438)">4</text>
     </g>
    </g>
    <g id="xtick_6">
     <g id="line2d_11">
      <path d="M 548.208 348.192 
L 548.208 93.744 
" clip-path="url(#p1f91b04764)" style="fill: none; stroke: #dfe5e8; stroke-width: 0.65; stroke-linecap: square"/>
     </g>
     <g id="line2d_12">
      <g>
       <use xlink:href="#mf8922a8f57" x="548.208" y="348.192" style="stroke: #000000; stroke-width: 0.8"/>
      </g>
     </g>
     <g id="text_6">
      <text style="font: 10px 'DejaVu Sans', 'Bitstream Vera Sans', 'Computer Modern Sans Serif', 'Lucida Grande', 'Verdana', 'Geneva', 'Lucid', 'Arial', 'Helvetica', 'Avant Garde', sans-serif; text-anchor: middle" x="548.208" y="362.790438" transform="rotate(-0 548.208 362.790438)">5</text>
     </g>
    </g>
    <g id="xtick_7">
     <g id="line2d_13">
      <path d="M 642.96 348.192 
L 642.96 93.744 
" clip-path="url(#p1f91b04764)" style="fill: none; stroke: #dfe5e8; stroke-width: 0.65; stroke-linecap: square"/>
     </g>
     <g id="line2d_14">
      <g>
       <use xlink:href="#mf8922a8f57" x="642.96" y="348.192" style="stroke: #000000; stroke-width: 0.8"/>
      </g>
     </g>
     <g id="text_7">
      <text style="font: 10px 'DejaVu Sans', 'Bitstream Vera Sans', 'Computer Modern Sans Serif', 'Lucida Grande', 'Verdana', 'Geneva', 'Lucid', 'Arial', 'Helvetica', 'Avant Garde', sans-serif; text-anchor: middle" x="642.96" y="362.790438" transform="rotate(-0 642.96 362.790438)">6</text>
     </g>
    </g>
    <g id="text_8">
     <text style="font: 10px 'DejaVu Sans', 'Bitstream Vera Sans', 'Computer Modern Sans Serif', 'Lucida Grande', 'Verdana', 'Geneva', 'Lucid', 'Arial', 'Helvetica', 'Avant Garde', sans-serif; text-anchor: middle" x="358.704" y="376.468563" transform="rotate(-0 358.704 376.468563)">sUCS dE threshold</text>
    </g>
   </g>
   <g id="matplotlib.axis_2">
    <g id="ytick_1">
     <g id="line2d_15">
      <path d="M 74.448 348.192 
L 642.96 348.192 
" clip-path="url(#p1f91b04764)" style="fill: none; stroke: #dfe5e8; stroke-width: 0.65; stroke-linecap: square"/>
     </g>
     <g id="line2d_16">
      <defs>
       <path id="m7707c06797" d="M 0 0 
L -3.5 0 
" style="stroke: #000000; stroke-width: 0.8"/>
      </defs>
      <g>
       <use xlink:href="#m7707c06797" x="74.448" y="348.192" style="stroke: #000000; stroke-width: 0.8"/>
      </g>
     </g>
     <g id="text_9">
      <text style="font: 10px 'DejaVu Sans', 'Bitstream Vera Sans', 'Computer Modern Sans Serif', 'Lucida Grande', 'Verdana', 'Geneva', 'Lucid', 'Arial', 'Helvetica', 'Avant Garde', sans-serif; text-anchor: end" x="67.448" y="351.991219" transform="rotate(-0 67.448 351.991219)">0</text>
     </g>
    </g>
    <g id="ytick_2">
     <g id="line2d_17">
      <path d="M 74.448 297.3024 
L 642.96 297.3024 
" clip-path="url(#p1f91b04764)" style="fill: none; stroke: #dfe5e8; stroke-width: 0.65; stroke-linecap: square"/>
     </g>
     <g id="line2d_18">
      <g>
       <use xlink:href="#m7707c06797" x="74.448" y="297.3024" style="stroke: #000000; stroke-width: 0.8"/>
      </g>
     </g>
     <g id="text_10">
      <text style="font: 10px 'DejaVu Sans', 'Bitstream Vera Sans', 'Computer Modern Sans Serif', 'Lucida Grande', 'Verdana', 'Geneva', 'Lucid', 'Arial', 'Helvetica', 'Avant Garde', sans-serif; text-anchor: end" x="67.448" y="301.101619" transform="rotate(-0 67.448 301.101619)">20</text>
     </g>
    </g>
    <g id="ytick_3">
     <g id="line2d_19">
      <path d="M 74.448 246.4128 
L 642.96 246.4128 
" clip-path="url(#p1f91b04764)" style="fill: none; stroke: #dfe5e8; stroke-width: 0.65; stroke-linecap: square"/>
     </g>
     <g id="line2d_20">
      <g>
       <use xlink:href="#m7707c06797" x="74.448" y="246.4128" style="stroke: #000000; stroke-width: 0.8"/>
      </g>
     </g>
     <g id="text_11">
      <text style="font: 10px 'DejaVu Sans', 'Bitstream Vera Sans', 'Computer Modern Sans Serif', 'Lucida Grande', 'Verdana', 'Geneva', 'Lucid', 'Arial', 'Helvetica', 'Avant Garde', sans-serif; text-anchor: end" x="67.448" y="250.212019" transform="rotate(-0 67.448 250.212019)">40</text>
     </g>
    </g>
    <g id="ytick_4">
     <g id="line2d_21">
      <path d="M 74.448 195.5232 
L 642.96 195.5232 
" clip-path="url(#p1f91b04764)" style="fill: none; stroke: #dfe5e8; stroke-width: 0.65; stroke-linecap: square"/>
     </g>
     <g id="line2d_22">
      <g>
       <use xlink:href="#m7707c06797" x="74.448" y="195.5232" style="stroke: #000000; stroke-width: 0.8"/>
      </g>
     </g>
     <g id="text_12">
      <text style="font: 10px 'DejaVu Sans', 'Bitstream Vera Sans', 'Computer Modern Sans Serif', 'Lucida Grande', 'Verdana', 'Geneva', 'Lucid', 'Arial', 'Helvetica', 'Avant Garde', sans-serif; text-anchor: end" x="67.448" y="199.322419" transform="rotate(-0 67.448 199.322419)">60</text>
     </g>
    </g>
    <g id="ytick_5">
     <g id="line2d_23">
      <path d="M 74.448 144.6336 
L 642.96 144.6336 
" clip-path="url(#p1f91b04764)" style="fill: none; stroke: #dfe5e8; stroke-width: 0.65; stroke-linecap: square"/>
     </g>
     <g id="line2d_24">
      <g>
       <use xlink:href="#m7707c06797" x="74.448" y="144.6336" style="stroke: #000000; stroke-width: 0.8"/>
      </g>
     </g>
     <g id="text_13">
      <text style="font: 10px 'DejaVu Sans', 'Bitstream Vera Sans', 'Computer Modern Sans Serif', 'Lucida Grande', 'Verdana', 'Geneva', 'Lucid', 'Arial', 'Helvetica', 'Avant Garde', sans-serif; text-anchor: end" x="67.448" y="148.432819" transform="rotate(-0 67.448 148.432819)">80</text>
     </g>
    </g>
    <g id="ytick_6">
     <g id="line2d_25">
      <path d="M 74.448 93.744 
L 642.96 93.744 
" clip-path="url(#p1f91b04764)" style="fill: none; stroke: #dfe5e8; stroke-width: 0.65; stroke-linecap: square"/>
     </g>
     <g id="line2d_26">
      <g>
       <use xlink:href="#m7707c06797" x="74.448" y="93.744" style="stroke: #000000; stroke-width: 0.8"/>
      </g>
     </g>
     <g id="text_14">
      <text style="font: 10px 'DejaVu Sans', 'Bitstream Vera Sans', 'Computer Modern Sans Serif', 'Lucida Grande', 'Verdana', 'Geneva', 'Lucid', 'Arial', 'Helvetica', 'Avant Garde', sans-serif; text-anchor: end" x="67.448" y="97.543219" transform="rotate(-0 67.448 97.543219)">100</text>
     </g>
    </g>
    <g id="text_15">
     <text style="font: 10px 'DejaVu Sans', 'Bitstream Vera Sans', 'Computer Modern Sans Serif', 'Lucida Grande', 'Verdana', 'Geneva', 'Lucid', 'Arial', 'Helvetica', 'Avant Garde', sans-serif; text-anchor: middle" x="42.280812" y="220.968" transform="rotate(-90 42.280812 220.968)">observers%</text>
    </g>
   </g>
   <g id="line2d_27">
    <path d="M 74.448 348.192 
L 114.24384 348.192 
L 116.13888 345.998483 
L 129.40416 345.998483 
L 131.2992 344.367406 
L 133.19424 341.105252 
L 136.98432 341.105252 
L 138.87936 339.474175 
L 148.35456 339.474175 
L 150.2496 337.280658 
L 152.14464 335.649581 
L 154.03968 335.649581 
L 155.93472 333.456064 
L 157.82976 331.824987 
L 159.7248 331.824987 
L 161.61984 330.19391 
L 167.30496 330.19391 
L 169.2 328.562833 
L 171.09504 325.300679 
L 176.78016 320.407448 
L 182.46528 320.407448 
L 184.36032 318.213931 
L 191.94048 318.213931 
L 193.83552 316.582854 
L 201.41568 316.582854 
L 203.31072 314.951777 
L 207.1008 314.951777 
L 208.99584 312.75826 
L 212.78592 312.75826 
L 214.68096 309.496106 
L 218.47104 306.233952 
L 220.36608 302.971798 
L 222.26112 299.147204 
L 224.15616 295.88505 
L 226.0512 293.691533 
L 227.94624 293.691533 
L 229.84128 292.060456 
L 233.63136 292.060456 
L 235.5264 290.429379 
L 243.10656 290.429379 
L 245.0016 288.798302 
L 246.89664 288.798302 
L 248.79168 285.536149 
L 250.68672 283.905072 
L 254.4768 283.905072 
L 256.37184 280.642918 
L 258.26688 280.642918 
L 260.16192 279.011841 
L 267.74208 279.011841 
L 269.63712 277.380764 
L 271.53216 273.55617 
L 277.21728 273.55617 
L 279.11232 271.925093 
L 284.79744 271.925093 
L 286.69248 270.294016 
L 288.58752 270.294016 
L 290.48256 268.662939 
L 294.27264 268.662939 
L 298.06272 265.400785 
L 299.95776 265.400785 
L 301.8528 259.945114 
L 303.74784 258.314037 
L 305.64288 256.12052 
L 307.53792 254.489443 
L 313.22304 254.489443 
L 315.11808 252.858366 
L 317.01312 250.664849 
L 318.90816 250.664849 
L 320.8032 249.033772 
L 322.69824 249.033772 
L 324.59328 247.402695 
L 339.7536 247.402695 
L 341.64864 245.771618 
L 345.43872 245.771618 
L 347.33376 244.140541 
L 349.2288 244.140541 
L 351.12384 242.509464 
L 353.01888 240.315947 
L 360.59904 240.315947 
L 362.49408 238.68487 
L 366.28416 238.68487 
L 368.1792 236.491353 
L 370.07424 236.491353 
L 371.96928 234.860276 
L 377.6544 234.860276 
L 379.54944 232.666759 
L 381.44448 231.035682 
L 383.33952 231.035682 
L 385.23456 228.842164 
L 387.1296 228.842164 
L 389.02464 225.01757 
L 390.91968 225.01757 
L 392.81472 221.192976 
L 396.6048 221.192976 
L 398.49984 219.561899 
L 400.39488 219.561899 
L 402.28992 217.930822 
L 404.18496 217.930822 
L 406.08 214.668668 
L 409.87008 214.668668 
L 411.76512 213.037592 
L 415.5552 213.037592 
L 417.45024 208.650557 
L 453.456 208.650557 
L 455.35104 207.01948 
L 462.9312 207.01948 
L 464.82624 205.388403 
L 470.51136 205.388403 
L 472.4064 201.563809 
L 478.09152 201.563809 
L 479.98656 199.932732 
L 485.67168 199.932732 
L 487.56672 198.301655 
L 489.46176 196.108138 
L 493.25184 196.108138 
L 495.14688 194.477061 
L 500.832 194.477061 
L 502.72704 192.283544 
L 508.41216 192.283544 
L 510.3072 190.652467 
L 512.20224 190.652467 
L 514.09728 189.02139 
L 523.57248 189.02139 
L 525.46752 186.827873 
L 529.2576 186.827873 
L 531.15264 182.440838 
L 533.04768 180.809761 
L 555.78816 180.809761 
L 557.6832 179.178684 
L 559.57824 179.178684 
L 561.47328 177.547607 
L 563.36832 177.547607 
L 565.26336 175.916531 
L 588.00384 175.916531 
L 589.89888 173.723013 
L 599.37408 173.723013 
L 601.26912 172.091936 
L 616.42944 172.091936 
L 618.32448 170.460859 
L 642.96 170.460859 
L 642.96 170.460859 
" clip-path="url(#p1f91b04764)" style="fill: none; stroke: #252525; stroke-width: 2.5; stroke-linecap: square"/>
   </g>
   <g id="line2d_28">
    <path d="M 74.448 348.192 
L 91.50336 348.192 
L 93.3984 345.998483 
L 129.40416 345.998483 
L 133.19424 342.736329 
L 135.08928 340.542812 
L 138.87936 340.542812 
L 140.7744 338.911735 
L 144.56448 338.911735 
L 146.45952 336.718218 
L 152.14464 336.718218 
L 154.03968 335.087141 
L 167.30496 335.087141 
L 169.2 333.456064 
L 171.09504 333.456064 
L 172.99008 329.631469 
L 174.88512 328.000393 
L 182.46528 328.000393 
L 184.36032 326.369316 
L 193.83552 326.369316 
L 195.73056 324.738239 
L 197.6256 320.913645 
L 207.1008 320.913645 
L 208.99584 319.282568 
L 214.68096 319.282568 
L 216.576 317.651491 
L 220.36608 313.264456 
L 222.26112 311.633379 
L 239.31648 311.633379 
L 241.21152 309.439862 
L 243.10656 309.439862 
L 245.0016 307.246345 
L 246.89664 305.615268 
L 250.68672 305.615268 
L 254.4768 302.353114 
L 256.37184 300.159597 
L 258.26688 300.159597 
L 260.16192 297.96608 
L 262.05696 297.96608 
L 263.952 296.335003 
L 265.84704 296.335003 
L 267.74208 292.510408 
L 271.53216 289.248255 
L 273.4272 289.248255 
L 275.32224 287.054737 
L 279.11232 287.054737 
L 281.00736 285.42366 
L 284.79744 285.42366 
L 286.69248 283.230143 
L 292.3776 283.230143 
L 294.27264 281.599066 
L 303.74784 281.599066 
L 305.64288 279.405549 
L 317.01312 279.405549 
L 318.90816 277.774472 
L 320.8032 277.774472 
L 322.69824 276.143395 
L 324.59328 272.318801 
L 326.48832 270.687724 
L 335.96352 270.687724 
L 337.85856 269.056647 
L 339.7536 269.056647 
L 341.64864 265.232053 
L 343.54368 263.038536 
L 347.33376 263.038536 
L 349.2288 261.407459 
L 353.01888 261.407459 
L 354.91392 259.776382 
L 358.704 259.776382 
L 360.59904 258.145305 
L 362.49408 258.145305 
L 364.38912 253.758271 
L 377.6544 253.758271 
L 379.54944 252.127194 
L 381.44448 252.127194 
L 383.33952 248.302599 
L 387.1296 248.302599 
L 390.91968 245.040446 
L 392.81472 245.040446 
L 394.70976 243.409369 
L 402.28992 243.409369 
L 404.18496 241.778292 
L 406.08 241.778292 
L 409.87008 238.516138 
L 419.34528 238.516138 
L 421.24032 236.322621 
L 423.13536 236.322621 
L 425.0304 232.498027 
L 430.71552 232.498027 
L 432.61056 230.304509 
L 436.40064 230.304509 
L 438.29568 228.673432 
L 440.19072 228.673432 
L 442.08576 227.042355 
L 445.87584 227.042355 
L 447.77088 224.848838 
L 457.24608 224.848838 
L 459.14112 223.217761 
L 466.72128 223.217761 
L 468.61632 221.586684 
L 476.19648 221.586684 
L 478.09152 217.76209 
L 479.98656 216.131013 
L 489.46176 216.131013 
L 491.3568 212.306419 
L 506.51712 212.306419 
L 508.41216 210.112902 
L 510.3072 208.481825 
L 514.09728 208.481825 
L 515.99232 205.219671 
L 521.67744 205.219671 
L 523.57248 203.588594 
L 529.2576 203.588594 
L 531.15264 201.395077 
L 534.94272 201.395077 
L 536.83776 199.20156 
L 548.208 199.20156 
L 551.99808 195.939406 
L 553.89312 190.483735 
L 555.78816 188.852658 
L 557.6832 186.659141 
L 569.05344 186.659141 
L 570.94848 185.028064 
L 572.84352 181.203469 
L 582.31872 181.203469 
L 584.21376 179.009952 
L 586.1088 177.378875 
L 591.79392 177.378875 
L 593.68896 175.747798 
L 624.0096 175.747798 
L 625.90464 174.116721 
L 629.69472 174.116721 
L 631.58976 171.923204 
L 635.37984 171.923204 
L 637.27488 170.292127 
L 642.96 170.292127 
L 642.96 170.292127 
" clip-path="url(#p1f91b04764)" style="fill: none; stroke: #3b83b4; stroke-width: 1.35; stroke-linecap: square"/>
   </g>
   <g id="line2d_29">
    <path d="M 74.448 348.192 
L 116.13888 348.192 
L 119.92896 344.929846 
L 129.40416 344.929846 
L 133.19424 341.667692 
L 135.08928 341.667692 
L 136.98432 340.036615 
L 138.87936 340.036615 
L 140.7744 338.405538 
L 142.66944 338.405538 
L 144.56448 336.774462 
L 154.03968 336.774462 
L 155.93472 334.580944 
L 157.82976 334.580944 
L 161.61984 331.31879 
L 163.51488 328.056637 
L 171.09504 328.056637 
L 172.99008 325.863119 
L 180.57024 325.863119 
L 184.36032 322.600966 
L 186.25536 322.600966 
L 188.1504 319.338812 
L 195.73056 319.338812 
L 197.6256 317.707735 
L 201.41568 317.707735 
L 203.31072 316.076658 
L 205.20576 316.076658 
L 207.1008 314.445581 
L 214.68096 314.445581 
L 216.576 312.814504 
L 222.26112 312.814504 
L 224.15616 310.620987 
L 226.0512 308.98991 
L 239.31648 308.98991 
L 241.21152 307.358833 
L 252.58176 307.358833 
L 256.37184 304.096679 
L 258.26688 300.272085 
L 260.16192 298.078568 
L 267.74208 298.078568 
L 269.63712 294.253973 
L 288.58752 294.253973 
L 290.48256 292.622897 
L 294.27264 292.622897 
L 298.06272 289.360743 
L 307.53792 289.360743 
L 309.43296 287.729666 
L 311.328 284.467512 
L 315.11808 281.205358 
L 317.01312 281.205358 
L 318.90816 279.011841 
L 320.8032 279.011841 
L 322.69824 277.380764 
L 330.2784 277.380764 
L 332.17344 274.11861 
L 334.06848 274.11861 
L 335.96352 272.487533 
L 341.64864 272.487533 
L 343.54368 270.856456 
L 345.43872 270.856456 
L 349.2288 267.594302 
L 364.38912 267.594302 
L 370.07424 262.701072 
L 371.96928 260.507554 
L 379.54944 260.507554 
L 381.44448 258.876477 
L 389.02464 258.876477 
L 390.91968 254.489443 
L 392.81472 252.858366 
L 394.70976 252.858366 
L 396.6048 251.227289 
L 411.76512 251.227289 
L 413.66016 249.596212 
L 434.5056 249.596212 
L 436.40064 247.965135 
L 438.29568 245.771618 
L 443.9808 245.771618 
L 447.77088 242.509464 
L 451.56096 242.509464 
L 453.456 240.315947 
L 455.35104 240.315947 
L 457.24608 238.68487 
L 468.61632 238.68487 
L 470.51136 235.422716 
L 472.4064 233.229199 
L 474.30144 233.229199 
L 476.19648 231.598122 
L 489.46176 231.598122 
L 491.3568 229.404605 
L 493.25184 227.773528 
L 495.14688 227.773528 
L 497.04192 224.511374 
L 500.832 224.511374 
L 502.72704 222.317857 
L 506.51712 222.317857 
L 508.41216 220.12434 
L 510.3072 218.493263 
L 519.7824 218.493263 
L 523.57248 215.231109 
L 531.15264 215.231109 
L 533.04768 213.600032 
L 538.7328 213.600032 
L 540.62784 210.337878 
L 559.57824 210.337878 
L 561.47328 208.706801 
L 565.26336 208.706801 
L 567.1584 207.075724 
L 570.94848 207.075724 
L 572.84352 205.444647 
L 584.21376 205.444647 
L 586.1088 203.81357 
L 595.584 203.81357 
L 597.47904 202.182493 
L 599.37408 199.988976 
L 612.63936 199.988976 
L 614.5344 193.970865 
L 616.42944 193.970865 
L 618.32448 192.339788 
L 620.21952 190.146271 
L 622.11456 190.146271 
L 624.0096 188.515194 
L 637.27488 188.515194 
L 639.16992 186.884117 
L 642.96 186.884117 
L 642.96 186.884117 
" clip-path="url(#p1f91b04764)" style="fill: none; stroke-dasharray: 4.995,2.16; stroke-dashoffset: 0; stroke: #c38a19; stroke-width: 1.35"/>
   </g>
   <g id="line2d_30">
    <path d="M 74.448 348.192 
L 95.29344 348.192 
L 97.18848 346.560923 
L 123.71904 346.560923 
L 125.61408 343.298769 
L 129.40416 340.036615 
L 133.19424 340.036615 
L 135.08928 336.774462 
L 136.98432 336.774462 
L 138.87936 335.143385 
L 146.45952 335.143385 
L 148.35456 333.512308 
L 150.2496 333.512308 
L 154.03968 330.250154 
L 159.7248 330.250154 
L 161.61984 328.619077 
L 163.51488 328.619077 
L 165.40992 326.988 
L 167.30496 326.988 
L 169.2 323.163406 
L 182.46528 323.163406 
L 184.36032 320.969889 
L 188.1504 320.969889 
L 190.04544 319.338812 
L 191.94048 319.338812 
L 193.83552 317.707735 
L 195.73056 315.514218 
L 197.6256 313.883141 
L 212.78592 313.883141 
L 214.68096 311.689623 
L 218.47104 311.689623 
L 222.26112 308.427469 
L 226.0512 308.427469 
L 227.94624 306.796393 
L 229.84128 302.971798 
L 231.73632 301.340721 
L 237.42144 301.340721 
L 239.31648 297.516127 
L 245.0016 292.622897 
L 246.89664 292.622897 
L 248.79168 290.99182 
L 260.16192 290.99182 
L 263.952 287.729666 
L 265.84704 287.729666 
L 267.74208 286.098589 
L 269.63712 286.098589 
L 271.53216 281.205358 
L 275.32224 281.205358 
L 277.21728 279.574281 
L 286.69248 279.574281 
L 288.58752 277.943204 
L 290.48256 277.943204 
L 292.3776 275.749687 
L 296.16768 275.749687 
L 298.06272 274.11861 
L 299.95776 274.11861 
L 303.74784 269.731576 
L 305.64288 269.731576 
L 307.53792 268.100499 
L 328.38336 268.100499 
L 330.2784 266.469422 
L 334.06848 266.469422 
L 335.96352 263.207268 
L 345.43872 263.207268 
L 347.33376 261.576191 
L 349.2288 257.751597 
L 351.12384 255.55808 
L 358.704 255.55808 
L 362.49408 252.295926 
L 370.07424 252.295926 
L 371.96928 250.664849 
L 373.86432 250.664849 
L 375.75936 249.033772 
L 377.6544 245.209178 
L 385.23456 245.209178 
L 387.1296 243.578101 
L 392.81472 243.578101 
L 394.70976 241.384584 
L 400.39488 241.384584 
L 402.28992 239.753507 
L 404.18496 235.928912 
L 417.45024 235.928912 
L 419.34528 232.666759 
L 421.24032 231.035682 
L 423.13536 228.842164 
L 426.92544 228.842164 
L 428.82048 227.211088 
L 434.5056 227.211088 
L 436.40064 223.948934 
L 445.87584 223.948934 
L 447.77088 222.317857 
L 455.35104 222.317857 
L 457.24608 220.68678 
L 464.82624 220.68678 
L 468.61632 217.424626 
L 470.51136 217.424626 
L 472.4064 215.793549 
L 474.30144 215.793549 
L 476.19648 214.162472 
L 483.77664 214.162472 
L 485.67168 212.531395 
L 510.3072 212.531395 
L 512.20224 210.337878 
L 515.99232 207.075724 
L 521.67744 207.075724 
L 525.46752 202.68869 
L 527.36256 201.057613 
L 529.2576 201.057613 
L 531.15264 199.426536 
L 533.04768 199.426536 
L 534.94272 195.601942 
L 550.10304 195.601942 
L 551.99808 193.970865 
L 561.47328 193.970865 
L 563.36832 192.339788 
L 570.94848 192.339788 
L 572.84352 190.146271 
L 584.21376 190.146271 
L 588.00384 186.884117 
L 605.0592 186.884117 
L 606.95424 184.690599 
L 614.5344 184.690599 
L 616.42944 183.059523 
L 618.32448 183.059523 
L 620.21952 180.866005 
L 635.37984 180.866005 
L 637.27488 178.672488 
L 642.96 178.672488 
L 642.96 178.672488 
" clip-path="url(#p1f91b04764)" style="fill: none; stroke-dasharray: 1.35,2.2275; stroke-dashoffset: 0; stroke: #7d8a92; stroke-width: 1.35"/>
   </g>
   <g id="line2d_31">
    <path d="M 74.448 348.192 
L 142.66944 348.192 
L 144.56448 345.998483 
L 172.99008 345.998483 
L 174.88512 343.804966 
L 197.6256 343.804966 
L 199.52064 341.611448 
L 208.99584 341.611448 
L 212.78592 338.349294 
L 220.36608 338.349294 
L 224.15616 335.087141 
L 227.94624 335.087141 
L 229.84128 333.456064 
L 239.31648 333.456064 
L 241.21152 331.824987 
L 245.0016 331.824987 
L 246.89664 328.562833 
L 248.79168 328.562833 
L 250.68672 326.931756 
L 254.4768 326.931756 
L 256.37184 325.300679 
L 260.16192 325.300679 
L 265.84704 320.407448 
L 273.4272 320.407448 
L 275.32224 318.776371 
L 292.3776 318.776371 
L 294.27264 317.145294 
L 296.16768 317.145294 
L 298.06272 315.514218 
L 305.64288 315.514218 
L 307.53792 313.883141 
L 309.43296 313.883141 
L 311.328 312.252064 
L 313.22304 312.252064 
L 315.11808 310.620987 
L 318.90816 310.620987 
L 320.8032 308.98991 
L 324.59328 308.98991 
L 326.48832 307.358833 
L 328.38336 307.358833 
L 330.2784 305.727756 
L 347.33376 305.727756 
L 349.2288 304.096679 
L 356.80896 304.096679 
L 358.704 302.465602 
L 364.38912 302.465602 
L 366.28416 300.834525 
L 368.1792 300.834525 
L 371.96928 297.572371 
L 377.6544 297.572371 
L 379.54944 295.941294 
L 383.33952 295.941294 
L 385.23456 294.310218 
L 387.1296 294.310218 
L 389.02464 291.048064 
L 404.18496 291.048064 
L 406.08 286.661029 
L 409.87008 286.661029 
L 411.76512 285.029952 
L 417.45024 285.029952 
L 419.34528 282.836435 
L 434.5056 282.836435 
L 436.40064 281.205358 
L 438.29568 281.205358 
L 440.19072 279.574281 
L 443.9808 279.574281 
L 445.87584 276.312127 
L 447.77088 274.68105 
L 449.66592 274.68105 
L 451.56096 273.049973 
L 453.456 273.049973 
L 455.35104 271.418897 
L 457.24608 271.418897 
L 459.14112 269.78782 
L 461.03616 269.78782 
L 462.9312 267.594302 
L 464.82624 267.594302 
L 466.72128 264.332149 
L 468.61632 262.701072 
L 478.09152 262.701072 
L 481.8816 259.438918 
L 483.77664 255.614324 
L 487.56672 255.614324 
L 489.46176 253.983247 
L 491.3568 251.789729 
L 508.41216 251.789729 
L 510.3072 250.158653 
L 521.67744 250.158653 
L 523.57248 247.965135 
L 529.2576 247.965135 
L 531.15264 246.334058 
L 533.04768 246.334058 
L 534.94272 244.702981 
L 536.83776 244.702981 
L 538.7328 242.509464 
L 540.62784 242.509464 
L 542.52288 240.878387 
L 553.89312 240.878387 
L 555.78816 239.24731 
L 557.6832 239.24731 
L 559.57824 237.616233 
L 584.21376 237.616233 
L 586.1088 235.422716 
L 591.79392 235.422716 
L 597.47904 230.529485 
L 599.37408 228.335968 
L 618.32448 228.335968 
L 620.21952 226.704891 
L 622.11456 226.704891 
L 624.0096 224.511374 
L 635.37984 224.511374 
L 637.27488 222.880297 
L 639.16992 222.880297 
L 641.06496 220.68678 
L 642.96 220.68678 
L 642.96 220.68678 
" clip-path="url(#p1f91b04764)" style="fill: none; stroke-dasharray: 8.64,2.16,1.35,2.16; stroke-dashoffset: 0; stroke: #d0526a; stroke-width: 1.35"/>
   </g>
   <g id="line2d_32">
    <path d="M 74.448 348.192 
L 129.40416 348.192 
L 131.2992 343.804966 
L 142.66944 343.804966 
L 144.56448 339.417931 
L 154.03968 339.417931 
L 155.93472 337.224414 
L 171.09504 337.224414 
L 172.99008 335.030897 
L 180.57024 335.030897 
L 182.46528 332.837379 
L 195.73056 332.837379 
L 197.6256 330.643862 
L 220.36608 330.643862 
L 222.26112 328.450345 
L 250.68672 328.450345 
L 252.58176 326.256828 
L 267.74208 326.256828 
L 271.53216 321.869793 
L 273.4272 321.869793 
L 275.32224 319.676276 
L 286.69248 319.676276 
L 288.58752 317.482759 
L 290.48256 317.482759 
L 292.3776 313.095724 
L 322.69824 313.095724 
L 324.59328 310.902207 
L 334.06848 310.902207 
L 335.96352 308.70869 
L 364.38912 308.70869 
L 366.28416 306.515172 
L 368.1792 302.690578 
L 370.07424 300.497061 
L 375.75936 300.497061 
L 377.6544 298.303544 
L 381.44448 298.303544 
L 383.33952 296.110027 
L 387.1296 296.110027 
L 389.02464 293.916509 
L 436.40064 293.916509 
L 438.29568 291.722992 
L 447.77088 291.722992 
L 449.66592 290.091915 
L 462.9312 290.091915 
L 464.82624 287.898398 
L 491.3568 287.898398 
L 493.25184 284.073804 
L 498.93696 284.073804 
L 504.62208 277.493252 
L 512.20224 277.493252 
L 514.09728 275.299735 
L 515.99232 275.299735 
L 517.88736 273.106218 
L 544.41792 273.106218 
L 546.31296 270.9127 
L 548.208 264.894589 
L 559.57824 264.894589 
L 561.47328 260.507554 
L 578.52864 260.507554 
L 580.42368 258.876477 
L 599.37408 258.876477 
L 601.26912 257.245401 
L 605.0592 257.245401 
L 606.95424 255.614324 
L 616.42944 255.614324 
L 618.32448 253.983247 
L 622.11456 253.983247 
L 624.0096 250.158653 
L 627.79968 250.158653 
L 629.69472 248.527576 
L 635.37984 248.527576 
L 637.27488 246.334058 
L 642.96 246.334058 
L 642.96 246.334058 
" clip-path="url(#p1f91b04764)" style="fill: none; stroke-dasharray: 6.75,2.7,1.35,2.7; stroke-dashoffset: 0; stroke: #2f8f84; stroke-width: 1.35"/>
   </g>
   <g id="patch_4">
    <path d="M 74.448 348.192 
L 74.448 93.744 
" style="fill: none; stroke: #000000; stroke-width: 0.8; stroke-linejoin: miter; stroke-linecap: square"/>
   </g>
   <g id="patch_5">
    <path d="M 74.448 348.192 
L 642.96 348.192 
" style="fill: none; stroke: #000000; stroke-width: 0.8; stroke-linejoin: miter; stroke-linecap: square"/>
   </g>
  </g>
  <g id="text_16">
   <text style="font: 18px 'DejaVu Sans', 'Bitstream Vera Sans', 'Computer Modern Sans Serif', 'Lucida Grande', 'Verdana', 'Geneva', 'Lucid', 'Arial', 'Helvetica', 'Avant Garde', sans-serif; text-anchor: start" x="74.448" y="38.229188" transform="rotate(-0 74.448 38.229188)">LED-V2 Direct</text>
  </g>
  <g id="text_17">
   <text style="fill: #66747c; font: 10px 'DejaVu Sans', 'Bitstream Vera Sans', 'Computer Modern Sans Serif', 'Lucida Grande', 'Verdana', 'Geneva', 'Lucid', 'Arial', 'Helvetica', 'Avant Garde', sans-serif; text-anchor: start" x="74.448" y="64.728" transform="rotate(-0 74.448 64.728)">WOLED</text>
  </g>
  <g id="legend_1">
   <g id="line2d_33">
    <path d="M 185.17875 404.151391 
L 194.27875 404.151391 
L 203.37875 404.151391 
" style="fill: none; stroke: #252525; stroke-width: 2.5; stroke-linecap: square"/>
   </g>
   <g id="text_18">
    <text style="font: 9.1px 'DejaVu Sans', 'Bitstream Vera Sans', 'Computer Modern Sans Serif', 'Lucida Grande', 'Verdana', 'Geneva', 'Lucid', 'Arial', 'Helvetica', 'Avant Garde', sans-serif; text-anchor: start" x="210.65875" y="407.336391" transform="rotate(-0 210.65875 407.336391)">Potera CMF</text>
   </g>
   <g id="line2d_34">
    <path d="M 185.17875 417.508484 
L 194.27875 417.508484 
L 203.37875 417.508484 
" style="fill: none; stroke: #3b83b4; stroke-width: 1.35; stroke-linecap: square"/>
   </g>
   <g id="text_19">
    <text style="font: 9.1px 'DejaVu Sans', 'Bitstream Vera Sans', 'Computer Modern Sans Serif', 'Lucida Grande', 'Verdana', 'Geneva', 'Lucid', 'Arial', 'Helvetica', 'Avant Garde', sans-serif; text-anchor: start" x="210.65875" y="420.693484" transform="rotate(-0 210.65875 420.693484)">CIE 2015 2°</text>
   </g>
   <g id="line2d_35">
    <path d="M 282.931234 404.151391 
L 292.031234 404.151391 
L 301.131234 404.151391 
" style="fill: none; stroke-dasharray: 4.995,2.16; stroke-dashoffset: 0; stroke: #c38a19; stroke-width: 1.35"/>
   </g>
   <g id="text_20">
    <text style="font: 9.1px 'DejaVu Sans', 'Bitstream Vera Sans', 'Computer Modern Sans Serif', 'Lucida Grande', 'Verdana', 'Geneva', 'Lucid', 'Arial', 'Helvetica', 'Avant Garde', sans-serif; text-anchor: start" x="308.411234" y="407.336391" transform="rotate(-0 308.411234 407.336391)">CIE 2015 10°</text>
   </g>
   <g id="line2d_36">
    <path d="M 282.931234 417.508484 
L 292.031234 417.508484 
L 301.131234 417.508484 
" style="fill: none; stroke-dasharray: 1.35,2.2275; stroke-dashoffset: 0; stroke: #7d8a92; stroke-width: 1.35"/>
   </g>
   <g id="text_21">
    <text style="font: 9.1px 'DejaVu Sans', 'Bitstream Vera Sans', 'Computer Modern Sans Serif', 'Lucida Grande', 'Verdana', 'Geneva', 'Lucid', 'Arial', 'Helvetica', 'Avant Garde', sans-serif; text-anchor: start" x="308.411234" y="420.693484" transform="rotate(-0 308.411234 420.693484)">CIE 1964 10°</text>
   </g>
   <g id="line2d_37">
    <path d="M 386.473594 404.151391 
L 395.573594 404.151391 
L 404.673594 404.151391 
" style="fill: none; stroke-dasharray: 8.64,2.16,1.35,2.16; stroke-dashoffset: 0; stroke: #d0526a; stroke-width: 1.35"/>
   </g>
   <g id="text_22">
    <text style="font: 9.1px 'DejaVu Sans', 'Bitstream Vera Sans', 'Computer Modern Sans Serif', 'Lucida Grande', 'Verdana', 'Geneva', 'Lucid', 'Arial', 'Helvetica', 'Avant Garde', sans-serif; text-anchor: start" x="411.953594" y="407.336391" transform="rotate(-0 411.953594 407.336391)">CIE 1931 2°</text>
   </g>
   <g id="line2d_38">
    <path d="M 386.473594 417.508484 
L 395.573594 417.508484 
L 404.673594 417.508484 
" style="fill: none; stroke-dasharray: 6.75,2.7,1.35,2.7; stroke-dashoffset: 0; stroke: #2f8f84; stroke-width: 1.35"/>
   </g>
   <g id="text_23">
    <text style="font: 9.1px 'DejaVu Sans', 'Bitstream Vera Sans', 'Computer Modern Sans Serif', 'Lucida Grande', 'Verdana', 'Geneva', 'Lucid', 'Arial', 'Helvetica', 'Avant Garde', sans-serif; text-anchor: start" x="411.953594" y="420.693484" transform="rotate(-0 411.953594 420.693484)">Judd–Vos 1978 2°</text>
   </g>
  </g>
 </g>
 <defs>
  <clipPath id="p1f91b04764">
   <rect x="74.448" y="93.744" width="568.512" height="254.448"/>
  </clipPath>
 </defs>
</svg>
