<?xml version="1.0" encoding="utf-8" standalone="no"?>
<!DOCTYPE svg PUBLIC "-//W3C//DTD SVG 1.1//EN"
  "http://www.w3.org/Graphics/SVG/1.1/DTD/svg11.dtd">
<svg xmlns:xlink="http://www.w3.org/1999/xlink" width="676.8pt" height="446.4pt" viewBox="0 0 676.8 446.4" xmlns="http://www.w3.org/2000/svg" version="1.1">
 <metadata>
  <rdf:RDF xmlns:dc="http://purl.org/dc/elements/1.1/" xmlns:cc="http://creativecommons.org/ns#" xmlns:rdf="http://www.w3.org/1999/02/22-rdf-syntax-ns#">
   <cc:Work>
    <dc:type rdf:resource="http://purl.org/dc/dcmitype/StillImage"/>
    <dc:date>2026-07-20T06:41:54.541325</dc:date>
    <dc:format>image/svg+xml</dc:format>
    <dc:creator>
     <cc:Agent>
      <dc:title>Matplotlib v3.9.4, https://matplotlib.org/</dc:title>
     </cc:Agent>
    </dc:creator>
   </cc:Work>
  </rdf:RDF>
 </metadata>
 <defs>
  <style type="text/css">*{stroke-linejoin: round; stroke-linecap: butt}</style>
 </defs>
 <g id="figure_1">
  <g id="patch_1">
   <path d="M 0 446.4 
L 676.8 446.4 
L 676.8 0 
L 0 0 
z
" style="fill: #ffffff"/>
  </g>
  <g id="axes_1">
   <g id="patch_2">
    <path d="M 74.448 348.192 
L 642.96 348.192 
L 642.96 93.744 
L 74.448 93.744 
z
" style="fill: #ffffff"/>
   </g>
   <g id="patch_3">
    <path d="M 169.2 348.192 
L 358.704 348.192 
L 358.704 93.744 
L 169.2 93.744 
z
" clip-path="url(#p430bf40f98)" style="fill: #e7f0ea; opacity: 0.58; stroke: #e7f0ea; stroke-linejoin: miter"/>
   </g>
   <g id="matplotlib.axis_1">
    <g id="xtick_1">
     <g id="line2d_1">
      <path d="M 74.448 348.192 
L 74.448 93.744 
" clip-path="url(#p430bf40f98)" style="fill: none; stroke: #dfe5e8; stroke-width: 0.65; stroke-linecap: square"/>
     </g>
     <g id="line2d_2">
      <defs>
       <path id="m54f987c198" d="M 0 0 
L 0 3.5 
" style="stroke: #000000; stroke-width: 0.8"/>
      </defs>
      <g>
       <use xlink:href="#m54f987c198" x="74.448" y="348.192" style="stroke: #000000; stroke-width: 0.8"/>
      </g>
     </g>
     <g id="text_1">
      <text style="font: 10px 'DejaVu Sans', 'Bitstream Vera Sans', 'Computer Modern Sans Serif', 'Lucida Grande', 'Verdana', 'Geneva', 'Lucid', 'Arial', 'Helvetica', 'Avant Garde', sans-serif; text-anchor: middle" x="74.448" y="362.790438" transform="rotate(-0 74.448 362.790438)">0</text>
     </g>
    </g>
    <g id="xtick_2">
     <g id="line2d_3">
      <path d="M 169.2 348.192 
L 169.2 93.744 
" clip-path="url(#p430bf40f98)" style="fill: none; stroke: #dfe5e8; stroke-width: 0.65; stroke-linecap: square"/>
     </g>
     <g id="line2d_4">
      <g>
       <use xlink:href="#m54f987c198" x="169.2" y="348.192" style="stroke: #000000; stroke-width: 0.8"/>
      </g>
     </g>
     <g id="text_2">
      <text style="font: 10px 'DejaVu Sans', 'Bitstream Vera Sans', 'Computer Modern Sans Serif', 'Lucida Grande', 'Verdana', 'Geneva', 'Lucid', 'Arial', 'Helvetica', 'Avant Garde', sans-serif; text-anchor: middle" x="169.2" y="362.790438" transform="rotate(-0 169.2 362.790438)">1</text>
     </g>
    </g>
    <g id="xtick_3">
     <g id="line2d_5">
      <path d="M 263.952 348.192 
L 263.952 93.744 
" clip-path="url(#p430bf40f98)" style="fill: none; stroke: #dfe5e8; stroke-width: 0.65; stroke-linecap: square"/>
     </g>
     <g id="line2d_6">
      <g>
       <use xlink:href="#m54f987c198" x="263.952" y="348.192" style="stroke: #000000; stroke-width: 0.8"/>
      </g>
     </g>
     <g id="text_3">
      <text style="font: 10px 'DejaVu Sans', 'Bitstream Vera Sans', 'Computer Modern Sans Serif', 'Lucida Grande', 'Verdana', 'Geneva', 'Lucid', 'Arial', 'Helvetica', 'Avant Garde', sans-serif; text-anchor: middle" x="263.952" y="362.790438" transform="rotate(-0 263.952 362.790438)">2</text>
     </g>
    </g>
    <g id="xtick_4">
     <g id="line2d_7">
      <path d="M 358.704 348.192 
L 358.704 93.744 
" clip-path="url(#p430bf40f98)" style="fill: none; stroke: #dfe5e8; stroke-width: 0.65; stroke-linecap: square"/>
     </g>
     <g id="line2d_8">
      <g>
       <use xlink:href="#m54f987c198" x="358.704" y="348.192" style="stroke: #000000; stroke-width: 0.8"/>
      </g>
     </g>
     <g id="text_4">
      <text style="font: 10px 'DejaVu Sans', 'Bitstream Vera Sans', 'Computer Modern Sans Serif', 'Lucida Grande', 'Verdana', 'Geneva', 'Lucid', 'Arial', 'Helvetica', 'Avant Garde', sans-serif; text-anchor: middle" x="358.704" y="362.790438" transform="rotate(-0 358.704 362.790438)">3</text>
     </g>
    </g>
    <g id="xtick_5">
     <g id="line2d_9">
      <path d="M 453.456 348.192 
L 453.456 93.744 
" clip-path="url(#p430bf40f98)" style="fill: none; stroke: #dfe5e8; stroke-width: 0.65; stroke-linecap: square"/>
     </g>
     <g id="line2d_10">
      <g>
       <use xlink:href="#m54f987c198" x="453.456" y="348.192" style="stroke: #000000; stroke-width: 0.8"/>
      </g>
     </g>
     <g id="text_5">
      <text style="font: 10px 'DejaVu Sans', 'Bitstream Vera Sans', 'Computer Modern Sans Serif', 'Lucida Grande', 'Verdana', 'Geneva', 'Lucid', 'Arial', 'Helvetica', 'Avant Garde', sans-serif; text-anchor: middle" x="453.456" y="362.790438" transform="rotate(-0 453.456 362.790438)">4</text>
     </g>
    </g>
    <g id="xtick_6">
     <g id="line2d_11">
      <path d="M 548.208 348.192 
L 548.208 93.744 
" clip-path="url(#p430bf40f98)" style="fill: none; stroke: #dfe5e8; stroke-width: 0.65; stroke-linecap: square"/>
     </g>
     <g id="line2d_12">
      <g>
       <use xlink:href="#m54f987c198" x="548.208" y="348.192" style="stroke: #000000; stroke-width: 0.8"/>
      </g>
     </g>
     <g id="text_6">
      <text style="font: 10px 'DejaVu Sans', 'Bitstream Vera Sans', 'Computer Modern Sans Serif', 'Lucida Grande', 'Verdana', 'Geneva', 'Lucid', 'Arial', 'Helvetica', 'Avant Garde', sans-serif; text-anchor: middle" x="548.208" y="362.790438" transform="rotate(-0 548.208 362.790438)">5</text>
     </g>
    </g>
    <g id="xtick_7">
     <g id="line2d_13">
      <path d="M 642.96 348.192 
L 642.96 93.744 
" clip-path="url(#p430bf40f98)" style="fill: none; stroke: #dfe5e8; stroke-width: 0.65; stroke-linecap: square"/>
     </g>
     <g id="line2d_14">
      <g>
       <use xlink:href="#m54f987c198" x="642.96" y="348.192" style="stroke: #000000; stroke-width: 0.8"/>
      </g>
     </g>
     <g id="text_7">
      <text style="font: 10px 'DejaVu Sans', 'Bitstream Vera Sans', 'Computer Modern Sans Serif', 'Lucida Grande', 'Verdana', 'Geneva', 'Lucid', 'Arial', 'Helvetica', 'Avant Garde', sans-serif; text-anchor: middle" x="642.96" y="362.790438" transform="rotate(-0 642.96 362.790438)">6</text>
     </g>
    </g>
    <g id="text_8">
     <text style="font: 10px 'DejaVu Sans', 'Bitstream Vera Sans', 'Computer Modern Sans Serif', 'Lucida Grande', 'Verdana', 'Geneva', 'Lucid', 'Arial', 'Helvetica', 'Avant Garde', sans-serif; text-anchor: middle" x="358.704" y="376.468563" transform="rotate(-0 358.704 376.468563)">sUCS dE threshold</text>
    </g>
   </g>
   <g id="matplotlib.axis_2">
    <g id="ytick_1">
     <g id="line2d_15">
      <path d="M 74.448 348.192 
L 642.96 348.192 
" clip-path="url(#p430bf40f98)" style="fill: none; stroke: #dfe5e8; stroke-width: 0.65; stroke-linecap: square"/>
     </g>
     <g id="line2d_16">
      <defs>
       <path id="m9d22fdd906" d="M 0 0 
L -3.5 0 
" style="stroke: #000000; stroke-width: 0.8"/>
      </defs>
      <g>
       <use xlink:href="#m9d22fdd906" x="74.448" y="348.192" style="stroke: #000000; stroke-width: 0.8"/>
      </g>
     </g>
     <g id="text_9">
      <text style="font: 10px 'DejaVu Sans', 'Bitstream Vera Sans', 'Computer Modern Sans Serif', 'Lucida Grande', 'Verdana', 'Geneva', 'Lucid', 'Arial', 'Helvetica', 'Avant Garde', sans-serif; text-anchor: end" x="67.448" y="351.991219" transform="rotate(-0 67.448 351.991219)">0</text>
     </g>
    </g>
    <g id="ytick_2">
     <g id="line2d_17">
      <path d="M 74.448 297.3024 
L 642.96 297.3024 
" clip-path="url(#p430bf40f98)" style="fill: none; stroke: #dfe5e8; stroke-width: 0.65; stroke-linecap: square"/>
     </g>
     <g id="line2d_18">
      <g>
       <use xlink:href="#m9d22fdd906" x="74.448" y="297.3024" style="stroke: #000000; stroke-width: 0.8"/>
      </g>
     </g>
     <g id="text_10">
      <text style="font: 10px 'DejaVu Sans', 'Bitstream Vera Sans', 'Computer Modern Sans Serif', 'Lucida Grande', 'Verdana', 'Geneva', 'Lucid', 'Arial', 'Helvetica', 'Avant Garde', sans-serif; text-anchor: end" x="67.448" y="301.101619" transform="rotate(-0 67.448 301.101619)">20</text>
     </g>
    </g>
    <g id="ytick_3">
     <g id="line2d_19">
      <path d="M 74.448 246.4128 
L 642.96 246.4128 
" clip-path="url(#p430bf40f98)" style="fill: none; stroke: #dfe5e8; stroke-width: 0.65; stroke-linecap: square"/>
     </g>
     <g id="line2d_20">
      <g>
       <use xlink:href="#m9d22fdd906" x="74.448" y="246.4128" style="stroke: #000000; stroke-width: 0.8"/>
      </g>
     </g>
     <g id="text_11">
      <text style="font: 10px 'DejaVu Sans', 'Bitstream Vera Sans', 'Computer Modern Sans Serif', 'Lucida Grande', 'Verdana', 'Geneva', 'Lucid', 'Arial', 'Helvetica', 'Avant Garde', sans-serif; text-anchor: end" x="67.448" y="250.212019" transform="rotate(-0 67.448 250.212019)">40</text>
     </g>
    </g>
    <g id="ytick_4">
     <g id="line2d_21">
      <path d="M 74.448 195.5232 
L 642.96 195.5232 
" clip-path="url(#p430bf40f98)" style="fill: none; stroke: #dfe5e8; stroke-width: 0.65; stroke-linecap: square"/>
     </g>
     <g id="line2d_22">
      <g>
       <use xlink:href="#m9d22fdd906" x="74.448" y="195.5232" style="stroke: #000000; stroke-width: 0.8"/>
      </g>
     </g>
     <g id="text_12">
      <text style="font: 10px 'DejaVu Sans', 'Bitstream Vera Sans', 'Computer Modern Sans Serif', 'Lucida Grande', 'Verdana', 'Geneva', 'Lucid', 'Arial', 'Helvetica', 'Avant Garde', sans-serif; text-anchor: end" x="67.448" y="199.322419" transform="rotate(-0 67.448 199.322419)">60</text>
     </g>
    </g>
    <g id="ytick_5">
     <g id="line2d_23">
      <path d="M 74.448 144.6336 
L 642.96 144.6336 
" clip-path="url(#p430bf40f98)" style="fill: none; stroke: #dfe5e8; stroke-width: 0.65; stroke-linecap: square"/>
     </g>
     <g id="line2d_24">
      <g>
       <use xlink:href="#m9d22fdd906" x="74.448" y="144.6336" style="stroke: #000000; stroke-width: 0.8"/>
      </g>
     </g>
     <g id="text_13">
      <text style="font: 10px 'DejaVu Sans', 'Bitstream Vera Sans', 'Computer Modern Sans Serif', 'Lucida Grande', 'Verdana', 'Geneva', 'Lucid', 'Arial', 'Helvetica', 'Avant Garde', sans-serif; text-anchor: end" x="67.448" y="148.432819" transform="rotate(-0 67.448 148.432819)">80</text>
     </g>
    </g>
    <g id="ytick_6">
     <g id="line2d_25">
      <path d="M 74.448 93.744 
L 642.96 93.744 
" clip-path="url(#p430bf40f98)" style="fill: none; stroke: #dfe5e8; stroke-width: 0.65; stroke-linecap: square"/>
     </g>
     <g id="line2d_26">
      <g>
       <use xlink:href="#m9d22fdd906" x="74.448" y="93.744" style="stroke: #000000; stroke-width: 0.8"/>
      </g>
     </g>
     <g id="text_14">
      <text style="font: 10px 'DejaVu Sans', 'Bitstream Vera Sans', 'Computer Modern Sans Serif', 'Lucida Grande', 'Verdana', 'Geneva', 'Lucid', 'Arial', 'Helvetica', 'Avant Garde', sans-serif; text-anchor: end" x="67.448" y="97.543219" transform="rotate(-0 67.448 97.543219)">100</text>
     </g>
    </g>
    <g id="text_15">
     <text style="font: 10px 'DejaVu Sans', 'Bitstream Vera Sans', 'Computer Modern Sans Serif', 'Lucida Grande', 'Verdana', 'Geneva', 'Lucid', 'Arial', 'Helvetica', 'Avant Garde', sans-serif; text-anchor: middle" x="42.280812" y="220.968" transform="rotate(-90 42.280812 220.968)">observers%</text>
    </g>
   </g>
   <g id="line2d_27">
    <path d="M 74.448 348.192 
L 121.824 348.192 
L 123.71904 346.560923 
L 131.2992 346.560923 
L 133.19424 344.929846 
L 135.08928 344.929846 
L 136.98432 341.667692 
L 138.87936 341.667692 
L 140.7744 340.036615 
L 144.56448 340.036615 
L 146.45952 338.405538 
L 161.61984 338.405538 
L 163.51488 334.580944 
L 165.40992 332.949867 
L 174.88512 332.949867 
L 176.78016 331.31879 
L 178.6752 331.31879 
L 180.57024 327.494196 
L 184.36032 327.494196 
L 186.25536 325.300679 
L 188.1504 325.300679 
L 190.04544 323.107162 
L 193.83552 323.107162 
L 197.6256 319.845008 
L 199.52064 317.651491 
L 201.41568 314.389337 
L 207.1008 314.389337 
L 208.99584 312.75826 
L 210.89088 308.933666 
L 214.68096 308.933666 
L 216.576 307.302589 
L 218.47104 307.302589 
L 224.15616 302.409358 
L 229.84128 302.409358 
L 235.5264 297.516127 
L 239.31648 297.516127 
L 243.10656 294.253973 
L 248.79168 294.253973 
L 250.68672 289.360743 
L 252.58176 289.360743 
L 254.4768 287.729666 
L 263.952 287.729666 
L 265.84704 286.098589 
L 271.53216 279.518037 
L 273.4272 279.518037 
L 277.21728 276.255883 
L 279.11232 276.255883 
L 281.00736 272.431289 
L 284.79744 272.431289 
L 286.69248 270.800212 
L 288.58752 270.800212 
L 290.48256 269.169135 
L 296.16768 269.169135 
L 298.06272 264.275905 
L 299.95776 262.644828 
L 305.64288 262.644828 
L 307.53792 261.013751 
L 309.43296 261.013751 
L 311.328 258.820233 
L 313.22304 257.189156 
L 317.01312 257.189156 
L 318.90816 255.55808 
L 320.8032 250.102408 
L 326.48832 250.102408 
L 328.38336 248.471332 
L 330.2784 240.315947 
L 332.17344 240.315947 
L 334.06848 238.12243 
L 335.96352 236.491353 
L 337.85856 236.491353 
L 339.7536 234.297836 
L 343.54368 234.297836 
L 345.43872 232.104318 
L 349.2288 232.104318 
L 351.12384 228.842164 
L 358.704 228.842164 
L 360.59904 225.580011 
L 368.1792 225.580011 
L 370.07424 223.386493 
L 371.96928 221.755416 
L 379.54944 221.755416 
L 381.44448 220.12434 
L 383.33952 220.12434 
L 385.23456 216.862186 
L 387.1296 216.862186 
L 389.02464 215.231109 
L 390.91968 215.231109 
L 392.81472 213.037592 
L 394.70976 209.212997 
L 398.49984 205.950844 
L 419.34528 205.950844 
L 421.24032 203.757326 
L 426.92544 203.757326 
L 428.82048 200.495172 
L 432.61056 196.108138 
L 451.56096 196.108138 
L 453.456 193.914621 
L 455.35104 193.914621 
L 457.24608 191.721103 
L 459.14112 190.090027 
L 466.72128 190.090027 
L 468.61632 188.45895 
L 470.51136 186.265432 
L 478.09152 186.265432 
L 479.98656 184.634355 
L 489.46176 184.634355 
L 491.3568 183.003279 
L 495.14688 178.616244 
L 497.04192 178.616244 
L 498.93696 176.422727 
L 500.832 174.79165 
L 508.41216 174.79165 
L 510.3072 172.598133 
L 521.67744 172.598133 
L 523.57248 170.967056 
L 534.94272 170.967056 
L 536.83776 168.773538 
L 551.99808 168.773538 
L 553.89312 167.142462 
L 555.78816 167.142462 
L 557.6832 165.511385 
L 559.57824 163.317867 
L 567.1584 163.317867 
L 569.05344 161.68679 
L 570.94848 159.493273 
L 578.52864 159.493273 
L 580.42368 157.862196 
L 624.0096 157.862196 
L 625.90464 155.668679 
L 635.37984 155.668679 
L 637.27488 154.037602 
L 642.96 154.037602 
L 642.96 154.037602 
" clip-path="url(#p430bf40f98)" style="fill: none; stroke: #252525; stroke-width: 2.5; stroke-linecap: square"/>
   </g>
   <g id="line2d_28">
    <path d="M 74.448 348.192 
L 112.3488 348.192 
L 114.24384 345.998483 
L 125.61408 345.998483 
L 129.40416 341.611448 
L 133.19424 341.611448 
L 135.08928 339.417931 
L 146.45952 339.417931 
L 148.35456 337.224414 
L 152.14464 337.224414 
L 154.03968 335.030897 
L 155.93472 333.39982 
L 159.7248 333.39982 
L 161.61984 331.206302 
L 169.2 331.206302 
L 171.09504 329.012785 
L 174.88512 329.012785 
L 176.78016 324.625751 
L 180.57024 324.625751 
L 182.46528 322.432233 
L 199.52064 322.432233 
L 203.31072 319.17008 
L 205.20576 316.976562 
L 214.68096 316.976562 
L 216.576 315.345485 
L 218.47104 315.345485 
L 220.36608 313.714408 
L 222.26112 313.714408 
L 224.15616 311.520891 
L 235.5264 311.520891 
L 237.42144 309.327374 
L 239.31648 309.327374 
L 241.21152 307.133857 
L 245.0016 307.133857 
L 246.89664 305.50278 
L 250.68672 305.50278 
L 254.4768 302.240626 
L 258.26688 302.240626 
L 260.16192 300.047109 
L 263.952 300.047109 
L 265.84704 297.853592 
L 267.74208 296.222515 
L 282.9024 296.222515 
L 284.79744 294.028997 
L 292.3776 294.028997 
L 294.27264 292.39792 
L 296.16768 292.39792 
L 298.06272 290.766844 
L 299.95776 290.766844 
L 301.8528 288.573326 
L 303.74784 288.573326 
L 305.64288 286.942249 
L 307.53792 286.942249 
L 309.43296 285.311172 
L 311.328 279.855501 
L 317.01312 279.855501 
L 322.69824 274.962271 
L 324.59328 274.962271 
L 326.48832 273.331194 
L 332.17344 273.331194 
L 334.06848 269.506599 
L 345.43872 269.506599 
L 347.33376 266.244446 
L 349.2288 266.244446 
L 351.12384 264.050928 
L 353.01888 264.050928 
L 354.91392 260.788775 
L 360.59904 260.788775 
L 362.49408 255.333103 
L 370.07424 255.333103 
L 371.96928 253.139586 
L 377.6544 253.139586 
L 379.54944 251.508509 
L 387.1296 251.508509 
L 389.02464 249.877432 
L 390.91968 246.052838 
L 394.70976 246.052838 
L 398.49984 242.790684 
L 400.39488 239.528531 
L 402.28992 239.528531 
L 404.18496 237.897454 
L 407.97504 231.373146 
L 409.87008 231.373146 
L 411.76512 229.742069 
L 413.66016 226.479915 
L 415.5552 226.479915 
L 417.45024 223.217761 
L 426.92544 223.217761 
L 428.82048 221.024244 
L 430.71552 221.024244 
L 436.40064 216.131013 
L 440.19072 216.131013 
L 445.87584 211.237782 
L 447.77088 207.975629 
L 459.14112 207.975629 
L 461.03616 206.344552 
L 462.9312 206.344552 
L 464.82624 204.713475 
L 466.72128 204.713475 
L 468.61632 202.519958 
L 470.51136 200.888881 
L 472.4064 200.888881 
L 474.30144 197.064286 
L 481.8816 197.064286 
L 483.77664 194.870769 
L 487.56672 194.870769 
L 491.3568 191.608615 
L 497.04192 191.608615 
L 498.93696 189.977538 
L 500.832 189.977538 
L 502.72704 186.715385 
L 504.62208 186.715385 
L 506.51712 184.521867 
L 508.41216 184.521867 
L 510.3072 182.89079 
L 512.20224 182.89079 
L 514.09728 180.697273 
L 515.99232 179.066196 
L 517.88736 179.066196 
L 519.7824 176.872679 
L 523.57248 176.872679 
L 525.46752 172.485645 
L 527.36256 170.854568 
L 531.15264 170.854568 
L 533.04768 168.66105 
L 550.10304 168.66105 
L 553.89312 165.398897 
L 557.6832 161.011862 
L 559.57824 159.380785 
L 563.36832 159.380785 
L 565.26336 157.187268 
L 569.05344 153.925114 
L 582.31872 153.925114 
L 584.21376 147.907003 
L 599.37408 147.907003 
L 603.16416 143.519968 
L 620.21952 143.519968 
L 622.11456 141.888891 
L 631.58976 141.888891 
L 633.4848 139.695374 
L 642.96 139.695374 
L 642.96 139.695374 
" clip-path="url(#p430bf40f98)" style="fill: none; stroke: #3b83b4; stroke-width: 1.35; stroke-linecap: square"/>
   </g>
   <g id="line2d_29">
    <path d="M 74.448 348.192 
L 102.8736 348.192 
L 104.76864 346.560923 
L 114.24384 346.560923 
L 116.13888 344.929846 
L 118.03392 344.929846 
L 119.92896 343.298769 
L 127.50912 343.298769 
L 129.40416 341.667692 
L 131.2992 341.667692 
L 133.19424 340.036615 
L 140.7744 340.036615 
L 144.56448 336.774462 
L 171.09504 336.774462 
L 172.99008 335.143385 
L 174.88512 335.143385 
L 176.78016 333.512308 
L 184.36032 333.512308 
L 186.25536 331.881231 
L 188.1504 329.687714 
L 190.04544 329.687714 
L 191.94048 328.056637 
L 207.1008 328.056637 
L 210.89088 324.794483 
L 224.15616 324.794483 
L 226.0512 323.163406 
L 231.73632 323.163406 
L 235.5264 319.901252 
L 239.31648 319.901252 
L 243.10656 316.639098 
L 246.89664 316.639098 
L 256.37184 308.483714 
L 258.26688 308.483714 
L 260.16192 306.290196 
L 265.84704 306.290196 
L 267.74208 304.659119 
L 288.58752 304.659119 
L 290.48256 303.028042 
L 299.95776 303.028042 
L 301.8528 301.396966 
L 303.74784 299.203448 
L 309.43296 299.203448 
L 311.328 297.572371 
L 313.22304 297.572371 
L 315.11808 295.941294 
L 317.01312 295.941294 
L 318.90816 292.679141 
L 326.48832 292.679141 
L 330.2784 289.416987 
L 335.96352 289.416987 
L 337.85856 287.223469 
L 341.64864 287.223469 
L 345.43872 280.699162 
L 349.2288 280.699162 
L 351.12384 278.505645 
L 354.91392 278.505645 
L 356.80896 276.874568 
L 358.704 273.049973 
L 360.59904 270.856456 
L 364.38912 270.856456 
L 366.28416 265.400785 
L 371.96928 265.400785 
L 377.6544 260.507554 
L 379.54944 260.507554 
L 381.44448 255.614324 
L 389.02464 255.614324 
L 390.91968 251.227289 
L 392.81472 251.227289 
L 394.70976 249.596212 
L 396.6048 247.402695 
L 398.49984 247.402695 
L 400.39488 245.771618 
L 402.28992 245.771618 
L 404.18496 244.140541 
L 406.08 240.878387 
L 459.14112 240.878387 
L 461.03616 239.24731 
L 462.9312 235.422716 
L 464.82624 235.422716 
L 466.72128 233.791639 
L 468.61632 231.598122 
L 472.4064 231.598122 
L 474.30144 229.967045 
L 478.09152 229.967045 
L 479.98656 227.773528 
L 481.8816 227.773528 
L 483.77664 225.580011 
L 485.67168 225.580011 
L 487.56672 223.948934 
L 493.25184 223.948934 
L 495.14688 220.68678 
L 497.04192 220.68678 
L 498.93696 219.055703 
L 500.832 219.055703 
L 504.62208 214.668668 
L 517.88736 214.668668 
L 519.7824 210.844074 
L 521.67744 209.212997 
L 525.46752 209.212997 
L 527.36256 207.01948 
L 533.04768 207.01948 
L 534.94272 205.388403 
L 536.83776 205.388403 
L 538.7328 202.126249 
L 540.62784 199.932732 
L 542.52288 198.301655 
L 544.41792 198.301655 
L 546.31296 196.670578 
L 553.89312 196.670578 
L 557.6832 193.408424 
L 559.57824 191.214907 
L 574.73856 191.214907 
L 576.6336 189.58383 
L 597.47904 189.58383 
L 599.37408 187.952753 
L 606.95424 187.952753 
L 608.84928 186.321676 
L 612.63936 186.321676 
L 614.5344 184.128159 
L 618.32448 184.128159 
L 620.21952 182.497082 
L 635.37984 182.497082 
L 637.27488 180.303565 
L 639.16992 180.303565 
L 641.06496 178.672488 
L 642.96 178.672488 
L 642.96 178.672488 
" clip-path="url(#p430bf40f98)" style="fill: none; stroke-dasharray: 4.995,2.16; stroke-dashoffset: 0; stroke: #c38a19; stroke-width: 1.35"/>
   </g>
   <g id="line2d_30">
    <path d="M 74.448 348.192 
L 99.08352 348.192 
L 100.97856 346.560923 
L 125.61408 346.560923 
L 127.50912 344.367406 
L 129.40416 344.367406 
L 131.2992 342.736329 
L 161.61984 342.736329 
L 163.51488 341.105252 
L 169.2 341.105252 
L 171.09504 339.474175 
L 172.99008 339.474175 
L 174.88512 337.843098 
L 176.78016 337.843098 
L 178.6752 336.212021 
L 180.57024 336.212021 
L 184.36032 332.949867 
L 186.25536 332.949867 
L 188.1504 331.31879 
L 190.04544 331.31879 
L 191.94048 329.687714 
L 195.73056 329.687714 
L 199.52064 326.42556 
L 214.68096 326.42556 
L 216.576 323.163406 
L 222.26112 323.163406 
L 224.15616 319.338812 
L 237.42144 319.338812 
L 239.31648 317.707735 
L 248.79168 317.707735 
L 250.68672 315.514218 
L 254.4768 315.514218 
L 256.37184 313.883141 
L 258.26688 313.883141 
L 260.16192 312.252064 
L 263.952 312.252064 
L 265.84704 308.98991 
L 267.74208 307.358833 
L 281.00736 307.358833 
L 286.69248 302.465602 
L 294.27264 302.465602 
L 296.16768 296.447491 
L 303.74784 296.447491 
L 307.53792 293.185337 
L 309.43296 293.185337 
L 311.328 291.55426 
L 322.69824 291.55426 
L 324.59328 289.923183 
L 330.2784 289.923183 
L 332.17344 287.729666 
L 335.96352 287.729666 
L 337.85856 286.098589 
L 339.7536 286.098589 
L 341.64864 284.467512 
L 347.33376 284.467512 
L 349.2288 282.273995 
L 351.12384 282.273995 
L 353.01888 280.642918 
L 354.91392 280.642918 
L 356.80896 279.011841 
L 358.704 274.624806 
L 362.49408 274.624806 
L 366.28416 271.362653 
L 371.96928 271.362653 
L 373.86432 269.169135 
L 375.75936 267.538058 
L 377.6544 267.538058 
L 381.44448 264.275905 
L 383.33952 264.275905 
L 385.23456 262.644828 
L 387.1296 262.644828 
L 389.02464 260.45131 
L 396.6048 260.45131 
L 398.49984 258.820233 
L 404.18496 258.820233 
L 406.08 257.189156 
L 407.97504 252.295926 
L 413.66016 252.295926 
L 415.5552 250.664849 
L 419.34528 250.664849 
L 421.24032 249.033772 
L 434.5056 249.033772 
L 436.40064 245.771618 
L 440.19072 245.771618 
L 442.08576 244.140541 
L 445.87584 244.140541 
L 447.77088 241.947024 
L 449.66592 238.12243 
L 451.56096 238.12243 
L 453.456 235.928912 
L 457.24608 235.928912 
L 461.03616 231.541878 
L 462.9312 231.541878 
L 464.82624 229.910801 
L 476.19648 229.910801 
L 478.09152 227.717284 
L 479.98656 226.086207 
L 483.77664 226.086207 
L 485.67168 223.89269 
L 487.56672 223.89269 
L 489.46176 222.261613 
L 491.3568 222.261613 
L 495.14688 218.999459 
L 497.04192 216.805942 
L 498.93696 215.174865 
L 502.72704 215.174865 
L 504.62208 213.543788 
L 510.3072 213.543788 
L 512.20224 211.912711 
L 525.46752 211.912711 
L 527.36256 209.719194 
L 533.04768 209.719194 
L 534.94272 206.45704 
L 538.7328 206.45704 
L 540.62784 204.825963 
L 557.6832 204.825963 
L 559.57824 203.194886 
L 561.47328 203.194886 
L 563.36832 201.563809 
L 567.1584 201.563809 
L 570.94848 198.301655 
L 572.84352 198.301655 
L 574.73856 196.670578 
L 576.6336 196.670578 
L 578.52864 192.845984 
L 588.00384 192.845984 
L 589.89888 190.652467 
L 608.84928 190.652467 
L 610.74432 189.02139 
L 612.63936 186.827873 
L 620.21952 186.827873 
L 622.11456 185.196796 
L 624.0096 185.196796 
L 625.90464 183.565719 
L 633.4848 183.565719 
L 635.37984 181.934642 
L 637.27488 179.741125 
L 642.96 179.741125 
L 642.96 179.741125 
" clip-path="url(#p430bf40f98)" style="fill: none; stroke-dasharray: 1.35,2.2275; stroke-dashoffset: 0; stroke: #7d8a92; stroke-width: 1.35"/>
   </g>
   <g id="line2d_31">
    <path d="M 74.448 348.192 
L 165.40992 348.192 
L 167.30496 345.998483 
L 210.89088 345.998483 
L 212.78592 344.367406 
L 235.5264 344.367406 
L 239.31648 341.105252 
L 271.53216 341.105252 
L 273.4272 338.911735 
L 275.32224 338.911735 
L 277.21728 337.280658 
L 298.06272 337.280658 
L 299.95776 335.649581 
L 322.69824 335.649581 
L 324.59328 333.456064 
L 356.80896 333.456064 
L 358.704 331.824987 
L 368.1792 331.824987 
L 370.07424 330.19391 
L 377.6544 330.19391 
L 379.54944 328.562833 
L 383.33952 328.562833 
L 385.23456 326.931756 
L 389.02464 326.931756 
L 390.91968 324.738239 
L 392.81472 323.107162 
L 400.39488 323.107162 
L 402.28992 321.476085 
L 413.66016 321.476085 
L 415.5552 319.845008 
L 428.82048 319.845008 
L 430.71552 318.213931 
L 432.61056 318.213931 
L 434.5056 316.582854 
L 453.456 316.582854 
L 455.35104 314.951777 
L 459.14112 314.951777 
L 461.03616 313.3207 
L 476.19648 313.3207 
L 479.98656 310.058546 
L 485.67168 310.058546 
L 487.56672 306.796393 
L 489.46176 304.602875 
L 500.832 304.602875 
L 502.72704 302.971798 
L 542.52288 302.971798 
L 544.41792 301.340721 
L 546.31296 301.340721 
L 548.208 299.709645 
L 563.36832 299.709645 
L 565.26336 294.816414 
L 574.73856 294.816414 
L 576.6336 293.185337 
L 578.52864 290.99182 
L 580.42368 289.360743 
L 601.26912 289.360743 
L 603.16416 285.536149 
L 612.63936 285.536149 
L 614.5344 283.905072 
L 616.42944 283.905072 
L 620.21952 280.642918 
L 622.11456 278.449401 
L 631.58976 278.449401 
L 633.4848 275.187247 
L 635.37984 272.993729 
L 637.27488 271.362653 
L 641.06496 271.362653 
L 642.96 267.538058 
L 642.96 267.538058 
" clip-path="url(#p430bf40f98)" style="fill: none; stroke-dasharray: 8.64,2.16,1.35,2.16; stroke-dashoffset: 0; stroke: #d0526a; stroke-width: 1.35"/>
   </g>
   <g id="line2d_32">
    <path d="M 74.448 348.192 
L 144.56448 348.192 
L 146.45952 345.998483 
L 159.7248 345.998483 
L 161.61984 343.804966 
L 167.30496 343.804966 
L 169.2 341.611448 
L 171.09504 341.611448 
L 172.99008 339.417931 
L 178.6752 339.417931 
L 180.57024 337.224414 
L 184.36032 337.224414 
L 186.25536 335.030897 
L 195.73056 335.030897 
L 197.6256 332.837379 
L 214.68096 332.837379 
L 216.576 330.643862 
L 220.36608 330.643862 
L 224.15616 326.256828 
L 226.0512 326.256828 
L 227.94624 321.869793 
L 229.84128 319.676276 
L 237.42144 319.676276 
L 239.31648 317.482759 
L 246.89664 317.482759 
L 248.79168 315.289241 
L 252.58176 315.289241 
L 254.4768 313.095724 
L 265.84704 313.095724 
L 267.74208 310.902207 
L 296.16768 310.902207 
L 298.06272 309.27113 
L 313.22304 309.27113 
L 315.11808 307.077613 
L 317.01312 307.077613 
L 318.90816 305.446536 
L 320.8032 305.446536 
L 322.69824 303.253019 
L 324.59328 301.621942 
L 326.48832 301.621942 
L 328.38336 299.428424 
L 335.96352 299.428424 
L 337.85856 297.234907 
L 349.2288 297.234907 
L 351.12384 295.04139 
L 353.01888 295.04139 
L 354.91392 293.410313 
L 364.38912 293.410313 
L 366.28416 289.023279 
L 368.1792 289.023279 
L 370.07424 285.198684 
L 373.86432 280.81165 
L 375.75936 279.180573 
L 377.6544 276.987056 
L 379.54944 276.987056 
L 381.44448 274.793538 
L 383.33952 271.531385 
L 385.23456 269.900308 
L 387.1296 269.900308 
L 389.02464 266.638154 
L 390.91968 266.638154 
L 392.81472 264.444637 
L 407.97504 264.444637 
L 409.87008 262.251119 
L 413.66016 262.251119 
L 415.5552 257.864085 
L 417.45024 255.670568 
L 421.24032 255.670568 
L 423.13536 253.47705 
L 425.0304 253.47705 
L 426.92544 251.845973 
L 449.66592 251.845973 
L 453.456 248.58382 
L 459.14112 248.58382 
L 461.03616 246.390302 
L 462.9312 242.565708 
L 470.51136 242.565708 
L 472.4064 240.372191 
L 474.30144 240.372191 
L 476.19648 238.178674 
L 479.98656 234.91652 
L 481.8816 234.91652 
L 483.77664 232.723003 
L 485.67168 232.723003 
L 487.56672 231.091926 
L 489.46176 228.898408 
L 491.3568 228.898408 
L 495.14688 225.636255 
L 497.04192 222.374101 
L 498.93696 218.549507 
L 500.832 218.549507 
L 502.72704 216.355989 
L 508.41216 216.355989 
L 510.3072 214.162472 
L 512.20224 212.531395 
L 514.09728 212.531395 
L 515.99232 210.337878 
L 517.88736 210.337878 
L 523.57248 205.444647 
L 525.46752 205.444647 
L 527.36256 203.81357 
L 529.2576 201.620053 
L 531.15264 201.620053 
L 533.04768 199.988976 
L 538.7328 199.988976 
L 540.62784 197.795459 
L 546.31296 197.795459 
L 548.208 195.601942 
L 550.10304 195.601942 
L 551.99808 193.408424 
L 555.78816 190.146271 
L 557.6832 187.952753 
L 559.57824 186.321676 
L 565.26336 186.321676 
L 567.1584 183.059523 
L 572.84352 183.059523 
L 574.73856 179.234928 
L 576.6336 175.972775 
L 582.31872 175.972775 
L 584.21376 173.779257 
L 588.00384 173.779257 
L 589.89888 172.14818 
L 593.68896 172.14818 
L 595.584 170.517103 
L 601.26912 170.517103 
L 603.16416 168.886027 
L 606.95424 168.886027 
L 608.84928 167.25495 
L 614.5344 167.25495 
L 616.42944 165.623873 
L 618.32448 162.361719 
L 620.21952 162.361719 
L 622.11456 160.730642 
L 625.90464 160.730642 
L 629.69472 157.468488 
L 633.4848 157.468488 
L 635.37984 155.837411 
L 641.06496 155.837411 
L 642.96 153.643894 
L 642.96 153.643894 
" clip-path="url(#p430bf40f98)" style="fill: none; stroke-dasharray: 6.75,2.7,1.35,2.7; stroke-dashoffset: 0; stroke: #2f8f84; stroke-width: 1.35"/>
   </g>
   <g id="patch_4">
    <path d="M 74.448 348.192 
L 74.448 93.744 
" style="fill: none; stroke: #000000; stroke-width: 0.8; stroke-linejoin: miter; stroke-linecap: square"/>
   </g>
   <g id="patch_5">
    <path d="M 74.448 348.192 
L 642.96 348.192 
" style="fill: none; stroke: #000000; stroke-width: 0.8; stroke-linejoin: miter; stroke-linecap: square"/>
   </g>
  </g>
  <g id="text_16">
   <text style="font: 18px 'DejaVu Sans', 'Bitstream Vera Sans', 'Computer Modern Sans Serif', 'Lucida Grande', 'Verdana', 'Geneva', 'Lucid', 'Arial', 'Helvetica', 'Avant Garde', sans-serif; text-anchor: start" x="74.448" y="38.229188" transform="rotate(-0 74.448 38.229188)">D65 Direct</text>
  </g>
  <g id="text_17">
   <text style="fill: #66747c; font: 10px 'DejaVu Sans', 'Bitstream Vera Sans', 'Computer Modern Sans Serif', 'Lucida Grande', 'Verdana', 'Geneva', 'Lucid', 'Arial', 'Helvetica', 'Avant Garde', sans-serif; text-anchor: start" x="74.448" y="64.728" transform="rotate(-0 74.448 64.728)">KSF LCD</text>
  </g>
  <g id="legend_1">
   <g id="line2d_33">
    <path d="M 185.17875 404.151391 
L 194.27875 404.151391 
L 203.37875 404.151391 
" style="fill: none; stroke: #252525; stroke-width: 2.5; stroke-linecap: square"/>
   </g>
   <g id="text_18">
    <text style="font: 9.1px 'DejaVu Sans', 'Bitstream Vera Sans', 'Computer Modern Sans Serif', 'Lucida Grande', 'Verdana', 'Geneva', 'Lucid', 'Arial', 'Helvetica', 'Avant Garde', sans-serif; text-anchor: start" x="210.65875" y="407.336391" transform="rotate(-0 210.65875 407.336391)">Potera CMF</text>
   </g>
   <g id="line2d_34">
    <path d="M 185.17875 417.508484 
L 194.27875 417.508484 
L 203.37875 417.508484 
" style="fill: none; stroke: #3b83b4; stroke-width: 1.35; stroke-linecap: square"/>
   </g>
   <g id="text_19">
    <text style="font: 9.1px 'DejaVu Sans', 'Bitstream Vera Sans', 'Computer Modern Sans Serif', 'Lucida Grande', 'Verdana', 'Geneva', 'Lucid', 'Arial', 'Helvetica', 'Avant Garde', sans-serif; text-anchor: start" x="210.65875" y="420.693484" transform="rotate(-0 210.65875 420.693484)">CIE 2015 2°</text>
   </g>
   <g id="line2d_35">
    <path d="M 282.931234 404.151391 
L 292.031234 404.151391 
L 301.131234 404.151391 
" style="fill: none; stroke-dasharray: 4.995,2.16; stroke-dashoffset: 0; stroke: #c38a19; stroke-width: 1.35"/>
   </g>
   <g id="text_20">
    <text style="font: 9.1px 'DejaVu Sans', 'Bitstream Vera Sans', 'Computer Modern Sans Serif', 'Lucida Grande', 'Verdana', 'Geneva', 'Lucid', 'Arial', 'Helvetica', 'Avant Garde', sans-serif; text-anchor: start" x="308.411234" y="407.336391" transform="rotate(-0 308.411234 407.336391)">CIE 2015 10°</text>
   </g>
   <g id="line2d_36">
    <path d="M 282.931234 417.508484 
L 292.031234 417.508484 
L 301.131234 417.508484 
" style="fill: none; stroke-dasharray: 1.35,2.2275; stroke-dashoffset: 0; stroke: #7d8a92; stroke-width: 1.35"/>
   </g>
   <g id="text_21">
    <text style="font: 9.1px 'DejaVu Sans', 'Bitstream Vera Sans', 'Computer Modern Sans Serif', 'Lucida Grande', 'Verdana', 'Geneva', 'Lucid', 'Arial', 'Helvetica', 'Avant Garde', sans-serif; text-anchor: start" x="308.411234" y="420.693484" transform="rotate(-0 308.411234 420.693484)">CIE 1964 10°</text>
   </g>
   <g id="line2d_37">
    <path d="M 386.473594 404.151391 
L 395.573594 404.151391 
L 404.673594 404.151391 
" style="fill: none; stroke-dasharray: 8.64,2.16,1.35,2.16; stroke-dashoffset: 0; stroke: #d0526a; stroke-width: 1.35"/>
   </g>
   <g id="text_22">
    <text style="font: 9.1px 'DejaVu Sans', 'Bitstream Vera Sans', 'Computer Modern Sans Serif', 'Lucida Grande', 'Verdana', 'Geneva', 'Lucid', 'Arial', 'Helvetica', 'Avant Garde', sans-serif; text-anchor: start" x="411.953594" y="407.336391" transform="rotate(-0 411.953594 407.336391)">CIE 1931 2°</text>
   </g>
   <g id="line2d_38">
    <path d="M 386.473594 417.508484 
L 395.573594 417.508484 
L 404.673594 417.508484 
" style="fill: none; stroke-dasharray: 6.75,2.7,1.35,2.7; stroke-dashoffset: 0; stroke: #2f8f84; stroke-width: 1.35"/>
   </g>
   <g id="text_23">
    <text style="font: 9.1px 'DejaVu Sans', 'Bitstream Vera Sans', 'Computer Modern Sans Serif', 'Lucida Grande', 'Verdana', 'Geneva', 'Lucid', 'Arial', 'Helvetica', 'Avant Garde', sans-serif; text-anchor: start" x="411.953594" y="420.693484" transform="rotate(-0 411.953594 420.693484)">Judd–Vos 1978 2°</text>
   </g>
  </g>
 </g>
 <defs>
  <clipPath id="p430bf40f98">
   <rect x="74.448" y="93.744" width="568.512" height="254.448"/>
  </clipPath>
 </defs>
</svg>
