<?xml version="1.0" encoding="utf-8" standalone="no"?>
<!DOCTYPE svg PUBLIC "-//W3C//DTD SVG 1.1//EN"
  "http://www.w3.org/Graphics/SVG/1.1/DTD/svg11.dtd">
<svg xmlns:xlink="http://www.w3.org/1999/xlink" width="676.8pt" height="446.4pt" viewBox="0 0 676.8 446.4" xmlns="http://www.w3.org/2000/svg" version="1.1">
 <metadata>
  <rdf:RDF xmlns:dc="http://purl.org/dc/elements/1.1/" xmlns:cc="http://creativecommons.org/ns#" xmlns:rdf="http://www.w3.org/1999/02/22-rdf-syntax-ns#">
   <cc:Work>
    <dc:type rdf:resource="http://purl.org/dc/dcmitype/StillImage"/>
    <dc:date>2026-07-20T06:41:54.674771</dc:date>
    <dc:format>image/svg+xml</dc:format>
    <dc:creator>
     <cc:Agent>
      <dc:title>Matplotlib v3.9.4, https://matplotlib.org/</dc:title>
     </cc:Agent>
    </dc:creator>
   </cc:Work>
  </rdf:RDF>
 </metadata>
 <defs>
  <style type="text/css">*{stroke-linejoin: round; stroke-linecap: butt}</style>
 </defs>
 <g id="figure_1">
  <g id="patch_1">
   <path d="M 0 446.4 
L 676.8 446.4 
L 676.8 0 
L 0 0 
z
" style="fill: #ffffff"/>
  </g>
  <g id="axes_1">
   <g id="patch_2">
    <path d="M 74.448 348.192 
L 642.96 348.192 
L 642.96 93.744 
L 74.448 93.744 
z
" style="fill: #ffffff"/>
   </g>
   <g id="patch_3">
    <path d="M 169.2 348.192 
L 358.704 348.192 
L 358.704 93.744 
L 169.2 93.744 
z
" clip-path="url(#pebf723e66f)" style="fill: #e7f0ea; opacity: 0.58; stroke: #e7f0ea; stroke-linejoin: miter"/>
   </g>
   <g id="matplotlib.axis_1">
    <g id="xtick_1">
     <g id="line2d_1">
      <path d="M 74.448 348.192 
L 74.448 93.744 
" clip-path="url(#pebf723e66f)" style="fill: none; stroke: #dfe5e8; stroke-width: 0.65; stroke-linecap: square"/>
     </g>
     <g id="line2d_2">
      <defs>
       <path id="m5f9c69f074" d="M 0 0 
L 0 3.5 
" style="stroke: #000000; stroke-width: 0.8"/>
      </defs>
      <g>
       <use xlink:href="#m5f9c69f074" x="74.448" y="348.192" style="stroke: #000000; stroke-width: 0.8"/>
      </g>
     </g>
     <g id="text_1">
      <text style="font: 10px 'DejaVu Sans', 'Bitstream Vera Sans', 'Computer Modern Sans Serif', 'Lucida Grande', 'Verdana', 'Geneva', 'Lucid', 'Arial', 'Helvetica', 'Avant Garde', sans-serif; text-anchor: middle" x="74.448" y="362.790438" transform="rotate(-0 74.448 362.790438)">0</text>
     </g>
    </g>
    <g id="xtick_2">
     <g id="line2d_3">
      <path d="M 169.2 348.192 
L 169.2 93.744 
" clip-path="url(#pebf723e66f)" style="fill: none; stroke: #dfe5e8; stroke-width: 0.65; stroke-linecap: square"/>
     </g>
     <g id="line2d_4">
      <g>
       <use xlink:href="#m5f9c69f074" x="169.2" y="348.192" style="stroke: #000000; stroke-width: 0.8"/>
      </g>
     </g>
     <g id="text_2">
      <text style="font: 10px 'DejaVu Sans', 'Bitstream Vera Sans', 'Computer Modern Sans Serif', 'Lucida Grande', 'Verdana', 'Geneva', 'Lucid', 'Arial', 'Helvetica', 'Avant Garde', sans-serif; text-anchor: middle" x="169.2" y="362.790438" transform="rotate(-0 169.2 362.790438)">1</text>
     </g>
    </g>
    <g id="xtick_3">
     <g id="line2d_5">
      <path d="M 263.952 348.192 
L 263.952 93.744 
" clip-path="url(#pebf723e66f)" style="fill: none; stroke: #dfe5e8; stroke-width: 0.65; stroke-linecap: square"/>
     </g>
     <g id="line2d_6">
      <g>
       <use xlink:href="#m5f9c69f074" x="263.952" y="348.192" style="stroke: #000000; stroke-width: 0.8"/>
      </g>
     </g>
     <g id="text_3">
      <text style="font: 10px 'DejaVu Sans', 'Bitstream Vera Sans', 'Computer Modern Sans Serif', 'Lucida Grande', 'Verdana', 'Geneva', 'Lucid', 'Arial', 'Helvetica', 'Avant Garde', sans-serif; text-anchor: middle" x="263.952" y="362.790438" transform="rotate(-0 263.952 362.790438)">2</text>
     </g>
    </g>
    <g id="xtick_4">
     <g id="line2d_7">
      <path d="M 358.704 348.192 
L 358.704 93.744 
" clip-path="url(#pebf723e66f)" style="fill: none; stroke: #dfe5e8; stroke-width: 0.65; stroke-linecap: square"/>
     </g>
     <g id="line2d_8">
      <g>
       <use xlink:href="#m5f9c69f074" x="358.704" y="348.192" style="stroke: #000000; stroke-width: 0.8"/>
      </g>
     </g>
     <g id="text_4">
      <text style="font: 10px 'DejaVu Sans', 'Bitstream Vera Sans', 'Computer Modern Sans Serif', 'Lucida Grande', 'Verdana', 'Geneva', 'Lucid', 'Arial', 'Helvetica', 'Avant Garde', sans-serif; text-anchor: middle" x="358.704" y="362.790438" transform="rotate(-0 358.704 362.790438)">3</text>
     </g>
    </g>
    <g id="xtick_5">
     <g id="line2d_9">
      <path d="M 453.456 348.192 
L 453.456 93.744 
" clip-path="url(#pebf723e66f)" style="fill: none; stroke: #dfe5e8; stroke-width: 0.65; stroke-linecap: square"/>
     </g>
     <g id="line2d_10">
      <g>
       <use xlink:href="#m5f9c69f074" x="453.456" y="348.192" style="stroke: #000000; stroke-width: 0.8"/>
      </g>
     </g>
     <g id="text_5">
      <text style="font: 10px 'DejaVu Sans', 'Bitstream Vera Sans', 'Computer Modern Sans Serif', 'Lucida Grande', 'Verdana', 'Geneva', 'Lucid', 'Arial', 'Helvetica', 'Avant Garde', sans-serif; text-anchor: middle" x="453.456" y="362.790438" transform="rotate(-0 453.456 362.790438)">4</text>
     </g>
    </g>
    <g id="xtick_6">
     <g id="line2d_11">
      <path d="M 548.208 348.192 
L 548.208 93.744 
" clip-path="url(#pebf723e66f)" style="fill: none; stroke: #dfe5e8; stroke-width: 0.65; stroke-linecap: square"/>
     </g>
     <g id="line2d_12">
      <g>
       <use xlink:href="#m5f9c69f074" x="548.208" y="348.192" style="stroke: #000000; stroke-width: 0.8"/>
      </g>
     </g>
     <g id="text_6">
      <text style="font: 10px 'DejaVu Sans', 'Bitstream Vera Sans', 'Computer Modern Sans Serif', 'Lucida Grande', 'Verdana', 'Geneva', 'Lucid', 'Arial', 'Helvetica', 'Avant Garde', sans-serif; text-anchor: middle" x="548.208" y="362.790438" transform="rotate(-0 548.208 362.790438)">5</text>
     </g>
    </g>
    <g id="xtick_7">
     <g id="line2d_13">
      <path d="M 642.96 348.192 
L 642.96 93.744 
" clip-path="url(#pebf723e66f)" style="fill: none; stroke: #dfe5e8; stroke-width: 0.65; stroke-linecap: square"/>
     </g>
     <g id="line2d_14">
      <g>
       <use xlink:href="#m5f9c69f074" x="642.96" y="348.192" style="stroke: #000000; stroke-width: 0.8"/>
      </g>
     </g>
     <g id="text_7">
      <text style="font: 10px 'DejaVu Sans', 'Bitstream Vera Sans', 'Computer Modern Sans Serif', 'Lucida Grande', 'Verdana', 'Geneva', 'Lucid', 'Arial', 'Helvetica', 'Avant Garde', sans-serif; text-anchor: middle" x="642.96" y="362.790438" transform="rotate(-0 642.96 362.790438)">6</text>
     </g>
    </g>
    <g id="text_8">
     <text style="font: 10px 'DejaVu Sans', 'Bitstream Vera Sans', 'Computer Modern Sans Serif', 'Lucida Grande', 'Verdana', 'Geneva', 'Lucid', 'Arial', 'Helvetica', 'Avant Garde', sans-serif; text-anchor: middle" x="358.704" y="376.468563" transform="rotate(-0 358.704 376.468563)">sUCS dE threshold</text>
    </g>
   </g>
   <g id="matplotlib.axis_2">
    <g id="ytick_1">
     <g id="line2d_15">
      <path d="M 74.448 348.192 
L 642.96 348.192 
" clip-path="url(#pebf723e66f)" style="fill: none; stroke: #dfe5e8; stroke-width: 0.65; stroke-linecap: square"/>
     </g>
     <g id="line2d_16">
      <defs>
       <path id="m3887a6918d" d="M 0 0 
L -3.5 0 
" style="stroke: #000000; stroke-width: 0.8"/>
      </defs>
      <g>
       <use xlink:href="#m3887a6918d" x="74.448" y="348.192" style="stroke: #000000; stroke-width: 0.8"/>
      </g>
     </g>
     <g id="text_9">
      <text style="font: 10px 'DejaVu Sans', 'Bitstream Vera Sans', 'Computer Modern Sans Serif', 'Lucida Grande', 'Verdana', 'Geneva', 'Lucid', 'Arial', 'Helvetica', 'Avant Garde', sans-serif; text-anchor: end" x="67.448" y="351.991219" transform="rotate(-0 67.448 351.991219)">0</text>
     </g>
    </g>
    <g id="ytick_2">
     <g id="line2d_17">
      <path d="M 74.448 297.3024 
L 642.96 297.3024 
" clip-path="url(#pebf723e66f)" style="fill: none; stroke: #dfe5e8; stroke-width: 0.65; stroke-linecap: square"/>
     </g>
     <g id="line2d_18">
      <g>
       <use xlink:href="#m3887a6918d" x="74.448" y="297.3024" style="stroke: #000000; stroke-width: 0.8"/>
      </g>
     </g>
     <g id="text_10">
      <text style="font: 10px 'DejaVu Sans', 'Bitstream Vera Sans', 'Computer Modern Sans Serif', 'Lucida Grande', 'Verdana', 'Geneva', 'Lucid', 'Arial', 'Helvetica', 'Avant Garde', sans-serif; text-anchor: end" x="67.448" y="301.101619" transform="rotate(-0 67.448 301.101619)">20</text>
     </g>
    </g>
    <g id="ytick_3">
     <g id="line2d_19">
      <path d="M 74.448 246.4128 
L 642.96 246.4128 
" clip-path="url(#pebf723e66f)" style="fill: none; stroke: #dfe5e8; stroke-width: 0.65; stroke-linecap: square"/>
     </g>
     <g id="line2d_20">
      <g>
       <use xlink:href="#m3887a6918d" x="74.448" y="246.4128" style="stroke: #000000; stroke-width: 0.8"/>
      </g>
     </g>
     <g id="text_11">
      <text style="font: 10px 'DejaVu Sans', 'Bitstream Vera Sans', 'Computer Modern Sans Serif', 'Lucida Grande', 'Verdana', 'Geneva', 'Lucid', 'Arial', 'Helvetica', 'Avant Garde', sans-serif; text-anchor: end" x="67.448" y="250.212019" transform="rotate(-0 67.448 250.212019)">40</text>
     </g>
    </g>
    <g id="ytick_4">
     <g id="line2d_21">
      <path d="M 74.448 195.5232 
L 642.96 195.5232 
" clip-path="url(#pebf723e66f)" style="fill: none; stroke: #dfe5e8; stroke-width: 0.65; stroke-linecap: square"/>
     </g>
     <g id="line2d_22">
      <g>
       <use xlink:href="#m3887a6918d" x="74.448" y="195.5232" style="stroke: #000000; stroke-width: 0.8"/>
      </g>
     </g>
     <g id="text_12">
      <text style="font: 10px 'DejaVu Sans', 'Bitstream Vera Sans', 'Computer Modern Sans Serif', 'Lucida Grande', 'Verdana', 'Geneva', 'Lucid', 'Arial', 'Helvetica', 'Avant Garde', sans-serif; text-anchor: end" x="67.448" y="199.322419" transform="rotate(-0 67.448 199.322419)">60</text>
     </g>
    </g>
    <g id="ytick_5">
     <g id="line2d_23">
      <path d="M 74.448 144.6336 
L 642.96 144.6336 
" clip-path="url(#pebf723e66f)" style="fill: none; stroke: #dfe5e8; stroke-width: 0.65; stroke-linecap: square"/>
     </g>
     <g id="line2d_24">
      <g>
       <use xlink:href="#m3887a6918d" x="74.448" y="144.6336" style="stroke: #000000; stroke-width: 0.8"/>
      </g>
     </g>
     <g id="text_13">
      <text style="font: 10px 'DejaVu Sans', 'Bitstream Vera Sans', 'Computer Modern Sans Serif', 'Lucida Grande', 'Verdana', 'Geneva', 'Lucid', 'Arial', 'Helvetica', 'Avant Garde', sans-serif; text-anchor: end" x="67.448" y="148.432819" transform="rotate(-0 67.448 148.432819)">80</text>
     </g>
    </g>
    <g id="ytick_6">
     <g id="line2d_25">
      <path d="M 74.448 93.744 
L 642.96 93.744 
" clip-path="url(#pebf723e66f)" style="fill: none; stroke: #dfe5e8; stroke-width: 0.65; stroke-linecap: square"/>
     </g>
     <g id="line2d_26">
      <g>
       <use xlink:href="#m3887a6918d" x="74.448" y="93.744" style="stroke: #000000; stroke-width: 0.8"/>
      </g>
     </g>
     <g id="text_14">
      <text style="font: 10px 'DejaVu Sans', 'Bitstream Vera Sans', 'Computer Modern Sans Serif', 'Lucida Grande', 'Verdana', 'Geneva', 'Lucid', 'Arial', 'Helvetica', 'Avant Garde', sans-serif; text-anchor: end" x="67.448" y="97.543219" transform="rotate(-0 67.448 97.543219)">100</text>
     </g>
    </g>
    <g id="text_15">
     <text style="font: 10px 'DejaVu Sans', 'Bitstream Vera Sans', 'Computer Modern Sans Serif', 'Lucida Grande', 'Verdana', 'Geneva', 'Lucid', 'Arial', 'Helvetica', 'Avant Garde', sans-serif; text-anchor: middle" x="42.280812" y="220.968" transform="rotate(-90 42.280812 220.968)">observers%</text>
    </g>
   </g>
   <g id="line2d_27">
    <path d="M 74.448 348.192 
L 114.24384 348.192 
L 116.13888 346.560923 
L 146.45952 346.560923 
L 150.2496 343.298769 
L 155.93472 343.298769 
L 157.82976 341.667692 
L 174.88512 341.667692 
L 176.78016 340.036615 
L 178.6752 340.036615 
L 180.57024 338.405538 
L 182.46528 336.212021 
L 184.36032 336.212021 
L 186.25536 334.580944 
L 188.1504 332.387427 
L 203.31072 332.387427 
L 205.20576 330.75635 
L 210.89088 330.75635 
L 216.576 325.863119 
L 226.0512 325.863119 
L 229.84128 322.600966 
L 233.63136 322.600966 
L 235.5264 320.969889 
L 239.31648 316.582854 
L 248.79168 316.582854 
L 250.68672 314.951777 
L 254.4768 314.951777 
L 262.05696 308.427469 
L 263.952 306.233952 
L 286.69248 306.233952 
L 288.58752 304.040435 
L 290.48256 300.778281 
L 292.3776 294.76017 
L 294.27264 294.76017 
L 296.16768 293.129093 
L 298.06272 293.129093 
L 299.95776 289.866939 
L 301.8528 289.866939 
L 305.64288 286.604785 
L 317.01312 286.604785 
L 318.90816 283.342631 
L 324.59328 283.342631 
L 326.48832 281.711554 
L 328.38336 279.518037 
L 330.2784 279.518037 
L 332.17344 277.88696 
L 337.85856 277.88696 
L 341.64864 274.624806 
L 343.54368 274.624806 
L 345.43872 271.362653 
L 347.33376 269.731576 
L 351.12384 269.731576 
L 353.01888 268.100499 
L 354.91392 268.100499 
L 356.80896 262.644828 
L 360.59904 262.644828 
L 362.49408 261.013751 
L 364.38912 261.013751 
L 366.28416 257.751597 
L 392.81472 257.751597 
L 398.49984 252.858366 
L 400.39488 252.858366 
L 402.28992 251.227289 
L 409.87008 251.227289 
L 411.76512 247.402695 
L 413.66016 247.402695 
L 415.5552 245.209178 
L 417.45024 245.209178 
L 419.34528 241.947024 
L 423.13536 241.947024 
L 426.92544 238.68487 
L 428.82048 238.68487 
L 430.71552 237.053793 
L 442.08576 237.053793 
L 443.9808 235.422716 
L 447.77088 235.422716 
L 451.56096 232.160562 
L 457.24608 232.160562 
L 459.14112 230.529485 
L 461.03616 230.529485 
L 462.9312 228.898408 
L 466.72128 228.898408 
L 468.61632 227.267332 
L 476.19648 227.267332 
L 479.98656 224.005178 
L 487.56672 224.005178 
L 489.46176 222.374101 
L 491.3568 222.374101 
L 495.14688 219.111947 
L 497.04192 216.91843 
L 504.62208 216.91843 
L 506.51712 212.531395 
L 512.20224 212.531395 
L 514.09728 210.337878 
L 515.99232 210.337878 
L 517.88736 206.513284 
L 519.7824 204.319767 
L 521.67744 204.319767 
L 523.57248 202.68869 
L 525.46752 202.68869 
L 527.36256 201.057613 
L 529.2576 201.057613 
L 531.15264 199.426536 
L 540.62784 199.426536 
L 542.52288 196.164382 
L 550.10304 196.164382 
L 553.89312 192.902228 
L 563.36832 192.902228 
L 565.26336 191.271151 
L 576.6336 191.271151 
L 578.52864 189.077634 
L 589.89888 189.077634 
L 591.79392 186.884117 
L 622.11456 186.884117 
L 624.0096 183.059523 
L 625.90464 180.866005 
L 627.79968 180.866005 
L 629.69472 178.672488 
L 633.4848 178.672488 
L 635.37984 176.478971 
L 642.96 176.478971 
L 642.96 176.478971 
" clip-path="url(#pebf723e66f)" style="fill: none; stroke: #252525; stroke-width: 2.5; stroke-linecap: square"/>
   </g>
   <g id="line2d_28">
    <path d="M 74.448 348.192 
L 100.97856 348.192 
L 102.8736 345.998483 
L 148.35456 345.998483 
L 150.2496 343.804966 
L 174.88512 343.804966 
L 176.78016 342.173889 
L 186.25536 342.173889 
L 188.1504 339.980371 
L 216.576 339.980371 
L 218.47104 337.786854 
L 241.21152 337.786854 
L 243.10656 335.593337 
L 267.74208 335.593337 
L 269.63712 333.96226 
L 282.9024 333.96226 
L 284.79744 332.331183 
L 286.69248 330.137666 
L 292.3776 330.137666 
L 294.27264 326.313072 
L 296.16768 326.313072 
L 298.06272 322.488477 
L 299.95776 320.857401 
L 315.11808 320.857401 
L 317.01312 318.663883 
L 328.38336 318.663883 
L 330.2784 316.470366 
L 332.17344 314.839289 
L 347.33376 314.839289 
L 349.2288 313.208212 
L 356.80896 313.208212 
L 358.704 311.014695 
L 362.49408 311.014695 
L 364.38912 309.383618 
L 366.28416 309.383618 
L 368.1792 307.190101 
L 385.23456 307.190101 
L 387.1296 304.996584 
L 390.91968 304.996584 
L 392.81472 301.73443 
L 398.49984 301.73443 
L 400.39488 299.540912 
L 402.28992 297.909836 
L 406.08 297.909836 
L 407.97504 296.278759 
L 417.45024 296.278759 
L 419.34528 294.647682 
L 423.13536 294.647682 
L 425.0304 293.016605 
L 426.92544 293.016605 
L 428.82048 291.385528 
L 430.71552 291.385528 
L 432.61056 289.754451 
L 442.08576 289.754451 
L 443.9808 287.560934 
L 447.77088 287.560934 
L 449.66592 285.367416 
L 453.456 285.367416 
L 455.35104 283.173899 
L 459.14112 283.173899 
L 461.03616 278.786865 
L 462.9312 277.155788 
L 481.8816 277.155788 
L 483.77664 275.524711 
L 485.67168 273.331194 
L 489.46176 273.331194 
L 491.3568 271.700117 
L 495.14688 271.700117 
L 498.93696 268.437963 
L 502.72704 268.437963 
L 504.62208 264.613369 
L 510.3072 264.613369 
L 512.20224 260.788775 
L 519.7824 260.788775 
L 521.67744 258.595257 
L 523.57248 258.595257 
L 527.36256 254.208223 
L 531.15264 254.208223 
L 534.94272 250.946069 
L 536.83776 248.752552 
L 538.7328 248.752552 
L 540.62784 246.559034 
L 542.52288 246.559034 
L 546.31296 238.909846 
L 548.208 237.278769 
L 557.6832 237.278769 
L 559.57824 235.647692 
L 567.1584 235.647692 
L 569.05344 233.454175 
L 570.94848 233.454175 
L 572.84352 231.823098 
L 580.42368 231.823098 
L 582.31872 228.560944 
L 584.21376 228.560944 
L 586.1088 226.929867 
L 589.89888 226.929867 
L 593.68896 223.667714 
L 595.584 223.667714 
L 597.47904 222.036637 
L 601.26912 222.036637 
L 605.0592 218.774483 
L 612.63936 218.774483 
L 614.5344 216.580966 
L 635.37984 216.580966 
L 637.27488 214.387448 
L 639.16992 210.562854 
L 641.06496 208.931777 
L 642.96 208.931777 
L 642.96 208.931777 
" clip-path="url(#pebf723e66f)" style="fill: none; stroke: #3b83b4; stroke-width: 1.35; stroke-linecap: square"/>
   </g>
   <g id="line2d_29">
    <path d="M 74.448 348.192 
L 108.55872 348.192 
L 110.45376 346.560923 
L 121.824 346.560923 
L 123.71904 344.929846 
L 167.30496 344.929846 
L 169.2 343.298769 
L 176.78016 343.298769 
L 178.6752 340.036615 
L 186.25536 340.036615 
L 188.1504 336.774462 
L 195.73056 330.250154 
L 199.52064 330.250154 
L 201.41568 328.619077 
L 212.78592 328.619077 
L 214.68096 326.988 
L 216.576 326.988 
L 218.47104 325.356923 
L 226.0512 325.356923 
L 227.94624 323.725846 
L 231.73632 323.725846 
L 233.63136 322.094769 
L 260.16192 322.094769 
L 262.05696 318.832615 
L 263.952 318.832615 
L 265.84704 317.201538 
L 267.74208 317.201538 
L 269.63712 313.939385 
L 273.4272 313.939385 
L 275.32224 312.308308 
L 279.11232 312.308308 
L 281.00736 310.11479 
L 286.69248 310.11479 
L 288.58752 308.483714 
L 290.48256 308.483714 
L 292.3776 306.852637 
L 299.95776 306.852637 
L 301.8528 305.22156 
L 303.74784 303.028042 
L 305.64288 297.572371 
L 307.53792 297.572371 
L 309.43296 295.941294 
L 313.22304 295.941294 
L 317.01312 292.679141 
L 318.90816 292.679141 
L 320.8032 291.048064 
L 328.38336 291.048064 
L 332.17344 286.661029 
L 339.7536 286.661029 
L 341.64864 281.767798 
L 343.54368 281.767798 
L 345.43872 280.136721 
L 351.12384 280.136721 
L 354.91392 276.874568 
L 358.704 276.874568 
L 360.59904 275.243491 
L 373.86432 275.243491 
L 375.75936 273.612414 
L 377.6544 270.35026 
L 381.44448 270.35026 
L 383.33952 268.156743 
L 387.1296 264.894589 
L 394.70976 264.894589 
L 396.6048 262.701072 
L 407.97504 262.701072 
L 409.87008 261.069995 
L 411.76512 261.069995 
L 413.66016 258.876477 
L 421.24032 258.876477 
L 423.13536 257.245401 
L 425.0304 257.245401 
L 426.92544 255.614324 
L 428.82048 255.614324 
L 430.71552 253.983247 
L 438.29568 253.983247 
L 440.19072 251.789729 
L 445.87584 251.789729 
L 447.77088 250.158653 
L 449.66592 250.158653 
L 451.56096 248.527576 
L 453.456 248.527576 
L 455.35104 246.896499 
L 457.24608 246.896499 
L 461.03616 243.634345 
L 464.82624 243.634345 
L 466.72128 242.003268 
L 468.61632 242.003268 
L 470.51136 240.372191 
L 478.09152 240.372191 
L 479.98656 238.741114 
L 489.46176 238.741114 
L 491.3568 237.110037 
L 506.51712 237.110037 
L 508.41216 233.847883 
L 521.67744 233.847883 
L 523.57248 232.216806 
L 540.62784 232.216806 
L 542.52288 230.585729 
L 544.41792 225.130058 
L 548.208 221.867905 
L 563.36832 221.867905 
L 565.26336 220.236828 
L 569.05344 220.236828 
L 570.94848 218.605751 
L 580.42368 218.605751 
L 582.31872 216.974674 
L 584.21376 214.781156 
L 586.1088 213.15008 
L 591.79392 213.15008 
L 595.584 208.763045 
L 603.16416 208.763045 
L 605.0592 206.569528 
L 608.84928 206.569528 
L 610.74432 204.938451 
L 612.63936 202.744934 
L 629.69472 202.744934 
L 631.58976 201.113857 
L 633.4848 198.92034 
L 637.27488 198.92034 
L 639.16992 197.289263 
L 642.96 197.289263 
L 642.96 197.289263 
" clip-path="url(#pebf723e66f)" style="fill: none; stroke-dasharray: 4.995,2.16; stroke-dashoffset: 0; stroke: #c38a19; stroke-width: 1.35"/>
   </g>
   <g id="line2d_30">
    <path d="M 74.448 348.192 
L 121.824 348.192 
L 123.71904 346.560923 
L 150.2496 346.560923 
L 152.14464 344.929846 
L 176.78016 344.929846 
L 178.6752 342.736329 
L 182.46528 342.736329 
L 184.36032 341.105252 
L 190.04544 341.105252 
L 191.94048 339.474175 
L 197.6256 339.474175 
L 199.52064 337.843098 
L 205.20576 337.843098 
L 207.1008 336.212021 
L 210.89088 336.212021 
L 212.78592 332.949867 
L 216.576 332.949867 
L 218.47104 331.31879 
L 220.36608 331.31879 
L 222.26112 329.125273 
L 224.15616 325.863119 
L 226.0512 324.232042 
L 227.94624 322.038525 
L 229.84128 320.407448 
L 235.5264 320.407448 
L 241.21152 315.514218 
L 245.0016 315.514218 
L 246.89664 311.689623 
L 248.79168 311.689623 
L 250.68672 310.058546 
L 252.58176 310.058546 
L 254.4768 307.865029 
L 258.26688 307.865029 
L 260.16192 304.602875 
L 262.05696 302.971798 
L 265.84704 302.971798 
L 267.74208 301.340721 
L 269.63712 301.340721 
L 271.53216 299.709645 
L 273.4272 297.516127 
L 279.11232 297.516127 
L 284.79744 292.622897 
L 292.3776 292.622897 
L 294.27264 290.99182 
L 296.16768 285.536149 
L 303.74784 285.536149 
L 305.64288 282.273995 
L 309.43296 282.273995 
L 313.22304 279.011841 
L 322.69824 279.011841 
L 324.59328 276.818324 
L 326.48832 276.818324 
L 328.38336 274.624806 
L 337.85856 274.624806 
L 341.64864 271.362653 
L 343.54368 271.362653 
L 345.43872 269.731576 
L 358.704 269.731576 
L 362.49408 266.469422 
L 371.96928 266.469422 
L 373.86432 264.838345 
L 375.75936 264.838345 
L 379.54944 261.576191 
L 385.23456 261.576191 
L 394.70976 253.420806 
L 396.6048 253.420806 
L 398.49984 251.789729 
L 400.39488 251.789729 
L 402.28992 248.527576 
L 409.87008 248.527576 
L 411.76512 246.334058 
L 417.45024 246.334058 
L 419.34528 244.702981 
L 426.92544 244.702981 
L 428.82048 243.071905 
L 430.71552 243.071905 
L 432.61056 241.440828 
L 443.9808 241.440828 
L 449.66592 236.547597 
L 453.456 236.547597 
L 455.35104 234.91652 
L 457.24608 234.91652 
L 459.14112 233.285443 
L 470.51136 233.285443 
L 472.4064 230.023289 
L 481.8816 230.023289 
L 483.77664 227.829772 
L 485.67168 226.198695 
L 487.56672 226.198695 
L 489.46176 224.567618 
L 491.3568 218.549507 
L 497.04192 218.549507 
L 498.93696 216.91843 
L 510.3072 216.91843 
L 514.09728 213.656276 
L 519.7824 213.656276 
L 521.67744 211.462759 
L 527.36256 211.462759 
L 531.15264 208.200605 
L 540.62784 208.200605 
L 542.52288 206.007088 
L 544.41792 206.007088 
L 546.31296 204.376011 
L 555.78816 204.376011 
L 557.6832 202.744934 
L 570.94848 202.744934 
L 572.84352 201.113857 
L 574.73856 201.113857 
L 576.6336 197.289263 
L 578.52864 195.095745 
L 586.1088 195.095745 
L 588.00384 192.902228 
L 589.89888 192.902228 
L 591.79392 190.708711 
L 595.584 190.708711 
L 597.47904 189.077634 
L 608.84928 189.077634 
L 610.74432 186.884117 
L 622.11456 186.884117 
L 624.0096 185.25304 
L 625.90464 185.25304 
L 629.69472 181.990886 
L 637.27488 181.990886 
L 639.16992 180.359809 
L 642.96 180.359809 
L 642.96 180.359809 
" clip-path="url(#pebf723e66f)" style="fill: none; stroke-dasharray: 1.35,2.2275; stroke-dashoffset: 0; stroke: #7d8a92; stroke-width: 1.35"/>
   </g>
   <g id="line2d_31">
    <path d="M 74.448 348.192 
L 207.1008 348.192 
L 208.99584 344.367406 
L 263.952 344.367406 
L 265.84704 342.736329 
L 269.63712 342.736329 
L 271.53216 341.105252 
L 296.16768 341.105252 
L 298.06272 339.474175 
L 305.64288 339.474175 
L 307.53792 336.212021 
L 322.69824 336.212021 
L 324.59328 334.580944 
L 330.2784 334.580944 
L 335.96352 329.687714 
L 337.85856 329.687714 
L 339.7536 328.056637 
L 353.01888 328.056637 
L 354.91392 324.232042 
L 362.49408 324.232042 
L 364.38912 322.600966 
L 366.28416 322.600966 
L 368.1792 320.969889 
L 370.07424 320.969889 
L 371.96928 319.338812 
L 375.75936 319.338812 
L 379.54944 316.076658 
L 383.33952 311.689623 
L 390.91968 311.689623 
L 394.70976 308.427469 
L 396.6048 308.427469 
L 398.49984 306.796393 
L 400.39488 302.971798 
L 404.18496 302.971798 
L 406.08 298.078568 
L 407.97504 298.078568 
L 409.87008 296.447491 
L 413.66016 296.447491 
L 415.5552 294.816414 
L 423.13536 294.816414 
L 425.0304 293.185337 
L 426.92544 290.99182 
L 436.40064 290.99182 
L 438.29568 289.360743 
L 440.19072 287.167225 
L 445.87584 287.167225 
L 447.77088 284.973708 
L 451.56096 284.973708 
L 453.456 282.780191 
L 455.35104 282.780191 
L 459.14112 279.518037 
L 474.30144 279.518037 
L 476.19648 277.88696 
L 478.09152 275.693443 
L 481.8816 275.693443 
L 483.77664 274.062366 
L 502.72704 274.062366 
L 504.62208 272.431289 
L 508.41216 272.431289 
L 512.20224 268.044255 
L 515.99232 268.044255 
L 517.88736 266.413178 
L 523.57248 266.413178 
L 525.46752 264.782101 
L 527.36256 264.782101 
L 529.2576 260.957507 
L 536.83776 260.957507 
L 538.7328 259.32643 
L 540.62784 257.132912 
L 544.41792 257.132912 
L 546.31296 255.501836 
L 553.89312 255.501836 
L 555.78816 253.308318 
L 557.6832 250.046164 
L 559.57824 247.852647 
L 563.36832 247.852647 
L 565.26336 244.028053 
L 570.94848 244.028053 
L 572.84352 242.396976 
L 576.6336 242.396976 
L 580.42368 239.134822 
L 582.31872 239.134822 
L 584.21376 237.503745 
L 586.1088 235.310228 
L 588.00384 233.679151 
L 593.68896 233.679151 
L 595.584 229.854557 
L 597.47904 228.22348 
L 599.37408 228.22348 
L 601.26912 226.592403 
L 606.95424 226.592403 
L 608.84928 224.961326 
L 610.74432 224.961326 
L 614.5344 221.699172 
L 616.42944 219.505655 
L 620.21952 219.505655 
L 622.11456 217.874578 
L 624.0096 215.681061 
L 625.90464 214.049984 
L 637.27488 214.049984 
L 639.16992 212.418907 
L 642.96 212.418907 
L 642.96 212.418907 
" clip-path="url(#pebf723e66f)" style="fill: none; stroke-dasharray: 8.64,2.16,1.35,2.16; stroke-dashoffset: 0; stroke: #d0526a; stroke-width: 1.35"/>
   </g>
   <g id="line2d_32">
    <path d="M 74.448 348.192 
L 241.21152 348.192 
L 243.10656 345.998483 
L 245.0016 345.998483 
L 248.79168 341.611448 
L 265.84704 341.611448 
L 267.74208 339.417931 
L 277.21728 339.417931 
L 279.11232 337.224414 
L 282.9024 337.224414 
L 284.79744 335.030897 
L 288.58752 335.030897 
L 290.48256 332.837379 
L 305.64288 332.837379 
L 307.53792 330.643862 
L 311.328 330.643862 
L 313.22304 328.450345 
L 315.11808 328.450345 
L 317.01312 326.256828 
L 326.48832 326.256828 
L 328.38336 324.06331 
L 330.2784 324.06331 
L 332.17344 321.869793 
L 341.64864 321.869793 
L 343.54368 317.482759 
L 358.704 317.482759 
L 360.59904 315.289241 
L 364.38912 315.289241 
L 366.28416 313.095724 
L 430.71552 313.095724 
L 434.5056 308.70869 
L 445.87584 308.70869 
L 447.77088 304.321655 
L 453.456 304.321655 
L 455.35104 302.128138 
L 466.72128 302.128138 
L 468.61632 299.934621 
L 470.51136 299.934621 
L 472.4064 297.741103 
L 481.8816 297.741103 
L 485.67168 293.354069 
L 500.832 293.354069 
L 502.72704 291.160552 
L 519.7824 291.160552 
L 521.67744 288.967034 
L 529.2576 288.967034 
L 531.15264 286.773517 
L 534.94272 286.773517 
L 536.83776 284.58 
L 567.1584 284.58 
L 569.05344 282.948923 
L 580.42368 282.948923 
L 582.31872 280.755406 
L 642.96 280.755406 
L 642.96 280.755406 
" clip-path="url(#pebf723e66f)" style="fill: none; stroke-dasharray: 6.75,2.7,1.35,2.7; stroke-dashoffset: 0; stroke: #2f8f84; stroke-width: 1.35"/>
   </g>
   <g id="patch_4">
    <path d="M 74.448 348.192 
L 74.448 93.744 
" style="fill: none; stroke: #000000; stroke-width: 0.8; stroke-linejoin: miter; stroke-linecap: square"/>
   </g>
   <g id="patch_5">
    <path d="M 74.448 348.192 
L 642.96 348.192 
" style="fill: none; stroke: #000000; stroke-width: 0.8; stroke-linejoin: miter; stroke-linecap: square"/>
   </g>
  </g>
  <g id="text_16">
   <text style="font: 18px 'DejaVu Sans', 'Bitstream Vera Sans', 'Computer Modern Sans Serif', 'Lucida Grande', 'Verdana', 'Geneva', 'Lucid', 'Arial', 'Helvetica', 'Avant Garde', sans-serif; text-anchor: start" x="74.448" y="38.229188" transform="rotate(-0 74.448 38.229188)">D65 Direct</text>
  </g>
  <g id="text_17">
   <text style="fill: #66747c; font: 10px 'DejaVu Sans', 'Bitstream Vera Sans', 'Computer Modern Sans Serif', 'Lucida Grande', 'Verdana', 'Geneva', 'Lucid', 'Arial', 'Helvetica', 'Avant Garde', sans-serif; text-anchor: start" x="74.448" y="64.728" transform="rotate(-0 74.448 64.728)">QDEF LCD</text>
  </g>
  <g id="legend_1">
   <g id="line2d_33">
    <path d="M 185.17875 404.151391 
L 194.27875 404.151391 
L 203.37875 404.151391 
" style="fill: none; stroke: #252525; stroke-width: 2.5; stroke-linecap: square"/>
   </g>
   <g id="text_18">
    <text style="font: 9.1px 'DejaVu Sans', 'Bitstream Vera Sans', 'Computer Modern Sans Serif', 'Lucida Grande', 'Verdana', 'Geneva', 'Lucid', 'Arial', 'Helvetica', 'Avant Garde', sans-serif; text-anchor: start" x="210.65875" y="407.336391" transform="rotate(-0 210.65875 407.336391)">Potera CMF</text>
   </g>
   <g id="line2d_34">
    <path d="M 185.17875 417.508484 
L 194.27875 417.508484 
L 203.37875 417.508484 
" style="fill: none; stroke: #3b83b4; stroke-width: 1.35; stroke-linecap: square"/>
   </g>
   <g id="text_19">
    <text style="font: 9.1px 'DejaVu Sans', 'Bitstream Vera Sans', 'Computer Modern Sans Serif', 'Lucida Grande', 'Verdana', 'Geneva', 'Lucid', 'Arial', 'Helvetica', 'Avant Garde', sans-serif; text-anchor: start" x="210.65875" y="420.693484" transform="rotate(-0 210.65875 420.693484)">CIE 2015 2°</text>
   </g>
   <g id="line2d_35">
    <path d="M 282.931234 404.151391 
L 292.031234 404.151391 
L 301.131234 404.151391 
" style="fill: none; stroke-dasharray: 4.995,2.16; stroke-dashoffset: 0; stroke: #c38a19; stroke-width: 1.35"/>
   </g>
   <g id="text_20">
    <text style="font: 9.1px 'DejaVu Sans', 'Bitstream Vera Sans', 'Computer Modern Sans Serif', 'Lucida Grande', 'Verdana', 'Geneva', 'Lucid', 'Arial', 'Helvetica', 'Avant Garde', sans-serif; text-anchor: start" x="308.411234" y="407.336391" transform="rotate(-0 308.411234 407.336391)">CIE 2015 10°</text>
   </g>
   <g id="line2d_36">
    <path d="M 282.931234 417.508484 
L 292.031234 417.508484 
L 301.131234 417.508484 
" style="fill: none; stroke-dasharray: 1.35,2.2275; stroke-dashoffset: 0; stroke: #7d8a92; stroke-width: 1.35"/>
   </g>
   <g id="text_21">
    <text style="font: 9.1px 'DejaVu Sans', 'Bitstream Vera Sans', 'Computer Modern Sans Serif', 'Lucida Grande', 'Verdana', 'Geneva', 'Lucid', 'Arial', 'Helvetica', 'Avant Garde', sans-serif; text-anchor: start" x="308.411234" y="420.693484" transform="rotate(-0 308.411234 420.693484)">CIE 1964 10°</text>
   </g>
   <g id="line2d_37">
    <path d="M 386.473594 404.151391 
L 395.573594 404.151391 
L 404.673594 404.151391 
" style="fill: none; stroke-dasharray: 8.64,2.16,1.35,2.16; stroke-dashoffset: 0; stroke: #d0526a; stroke-width: 1.35"/>
   </g>
   <g id="text_22">
    <text style="font: 9.1px 'DejaVu Sans', 'Bitstream Vera Sans', 'Computer Modern Sans Serif', 'Lucida Grande', 'Verdana', 'Geneva', 'Lucid', 'Arial', 'Helvetica', 'Avant Garde', sans-serif; text-anchor: start" x="411.953594" y="407.336391" transform="rotate(-0 411.953594 407.336391)">CIE 1931 2°</text>
   </g>
   <g id="line2d_38">
    <path d="M 386.473594 417.508484 
L 395.573594 417.508484 
L 404.673594 417.508484 
" style="fill: none; stroke-dasharray: 6.75,2.7,1.35,2.7; stroke-dashoffset: 0; stroke: #2f8f84; stroke-width: 1.35"/>
   </g>
   <g id="text_23">
    <text style="font: 9.1px 'DejaVu Sans', 'Bitstream Vera Sans', 'Computer Modern Sans Serif', 'Lucida Grande', 'Verdana', 'Geneva', 'Lucid', 'Arial', 'Helvetica', 'Avant Garde', sans-serif; text-anchor: start" x="411.953594" y="420.693484" transform="rotate(-0 411.953594 420.693484)">Judd–Vos 1978 2°</text>
   </g>
  </g>
 </g>
 <defs>
  <clipPath id="pebf723e66f">
   <rect x="74.448" y="93.744" width="568.512" height="254.448"/>
  </clipPath>
 </defs>
</svg>
