<?xml version="1.0" encoding="utf-8" standalone="no"?>
<!DOCTYPE svg PUBLIC "-//W3C//DTD SVG 1.1//EN"
  "http://www.w3.org/Graphics/SVG/1.1/DTD/svg11.dtd">
<svg xmlns:xlink="http://www.w3.org/1999/xlink" width="676.8pt" height="446.4pt" viewBox="0 0 676.8 446.4" xmlns="http://www.w3.org/2000/svg" version="1.1">
 <metadata>
  <rdf:RDF xmlns:dc="http://purl.org/dc/elements/1.1/" xmlns:cc="http://creativecommons.org/ns#" xmlns:rdf="http://www.w3.org/1999/02/22-rdf-syntax-ns#">
   <cc:Work>
    <dc:type rdf:resource="http://purl.org/dc/dcmitype/StillImage"/>
    <dc:date>2026-07-20T06:41:54.736616</dc:date>
    <dc:format>image/svg+xml</dc:format>
    <dc:creator>
     <cc:Agent>
      <dc:title>Matplotlib v3.9.4, https://matplotlib.org/</dc:title>
     </cc:Agent>
    </dc:creator>
   </cc:Work>
  </rdf:RDF>
 </metadata>
 <defs>
  <style type="text/css">*{stroke-linejoin: round; stroke-linecap: butt}</style>
 </defs>
 <g id="figure_1">
  <g id="patch_1">
   <path d="M 0 446.4 
L 676.8 446.4 
L 676.8 0 
L 0 0 
z
" style="fill: #ffffff"/>
  </g>
  <g id="axes_1">
   <g id="patch_2">
    <path d="M 74.448 348.192 
L 642.96 348.192 
L 642.96 93.744 
L 74.448 93.744 
z
" style="fill: #ffffff"/>
   </g>
   <g id="patch_3">
    <path d="M 169.2 348.192 
L 358.704 348.192 
L 358.704 93.744 
L 169.2 93.744 
z
" clip-path="url(#p1aac3c4ce2)" style="fill: #e7f0ea; opacity: 0.58; stroke: #e7f0ea; stroke-linejoin: miter"/>
   </g>
   <g id="matplotlib.axis_1">
    <g id="xtick_1">
     <g id="line2d_1">
      <path d="M 74.448 348.192 
L 74.448 93.744 
" clip-path="url(#p1aac3c4ce2)" style="fill: none; stroke: #dfe5e8; stroke-width: 0.65; stroke-linecap: square"/>
     </g>
     <g id="line2d_2">
      <defs>
       <path id="m9ed33b2f46" d="M 0 0 
L 0 3.5 
" style="stroke: #000000; stroke-width: 0.8"/>
      </defs>
      <g>
       <use xlink:href="#m9ed33b2f46" x="74.448" y="348.192" style="stroke: #000000; stroke-width: 0.8"/>
      </g>
     </g>
     <g id="text_1">
      <text style="font: 10px 'DejaVu Sans', 'Bitstream Vera Sans', 'Computer Modern Sans Serif', 'Lucida Grande', 'Verdana', 'Geneva', 'Lucid', 'Arial', 'Helvetica', 'Avant Garde', sans-serif; text-anchor: middle" x="74.448" y="362.790438" transform="rotate(-0 74.448 362.790438)">0</text>
     </g>
    </g>
    <g id="xtick_2">
     <g id="line2d_3">
      <path d="M 169.2 348.192 
L 169.2 93.744 
" clip-path="url(#p1aac3c4ce2)" style="fill: none; stroke: #dfe5e8; stroke-width: 0.65; stroke-linecap: square"/>
     </g>
     <g id="line2d_4">
      <g>
       <use xlink:href="#m9ed33b2f46" x="169.2" y="348.192" style="stroke: #000000; stroke-width: 0.8"/>
      </g>
     </g>
     <g id="text_2">
      <text style="font: 10px 'DejaVu Sans', 'Bitstream Vera Sans', 'Computer Modern Sans Serif', 'Lucida Grande', 'Verdana', 'Geneva', 'Lucid', 'Arial', 'Helvetica', 'Avant Garde', sans-serif; text-anchor: middle" x="169.2" y="362.790438" transform="rotate(-0 169.2 362.790438)">1</text>
     </g>
    </g>
    <g id="xtick_3">
     <g id="line2d_5">
      <path d="M 263.952 348.192 
L 263.952 93.744 
" clip-path="url(#p1aac3c4ce2)" style="fill: none; stroke: #dfe5e8; stroke-width: 0.65; stroke-linecap: square"/>
     </g>
     <g id="line2d_6">
      <g>
       <use xlink:href="#m9ed33b2f46" x="263.952" y="348.192" style="stroke: #000000; stroke-width: 0.8"/>
      </g>
     </g>
     <g id="text_3">
      <text style="font: 10px 'DejaVu Sans', 'Bitstream Vera Sans', 'Computer Modern Sans Serif', 'Lucida Grande', 'Verdana', 'Geneva', 'Lucid', 'Arial', 'Helvetica', 'Avant Garde', sans-serif; text-anchor: middle" x="263.952" y="362.790438" transform="rotate(-0 263.952 362.790438)">2</text>
     </g>
    </g>
    <g id="xtick_4">
     <g id="line2d_7">
      <path d="M 358.704 348.192 
L 358.704 93.744 
" clip-path="url(#p1aac3c4ce2)" style="fill: none; stroke: #dfe5e8; stroke-width: 0.65; stroke-linecap: square"/>
     </g>
     <g id="line2d_8">
      <g>
       <use xlink:href="#m9ed33b2f46" x="358.704" y="348.192" style="stroke: #000000; stroke-width: 0.8"/>
      </g>
     </g>
     <g id="text_4">
      <text style="font: 10px 'DejaVu Sans', 'Bitstream Vera Sans', 'Computer Modern Sans Serif', 'Lucida Grande', 'Verdana', 'Geneva', 'Lucid', 'Arial', 'Helvetica', 'Avant Garde', sans-serif; text-anchor: middle" x="358.704" y="362.790438" transform="rotate(-0 358.704 362.790438)">3</text>
     </g>
    </g>
    <g id="xtick_5">
     <g id="line2d_9">
      <path d="M 453.456 348.192 
L 453.456 93.744 
" clip-path="url(#p1aac3c4ce2)" style="fill: none; stroke: #dfe5e8; stroke-width: 0.65; stroke-linecap: square"/>
     </g>
     <g id="line2d_10">
      <g>
       <use xlink:href="#m9ed33b2f46" x="453.456" y="348.192" style="stroke: #000000; stroke-width: 0.8"/>
      </g>
     </g>
     <g id="text_5">
      <text style="font: 10px 'DejaVu Sans', 'Bitstream Vera Sans', 'Computer Modern Sans Serif', 'Lucida Grande', 'Verdana', 'Geneva', 'Lucid', 'Arial', 'Helvetica', 'Avant Garde', sans-serif; text-anchor: middle" x="453.456" y="362.790438" transform="rotate(-0 453.456 362.790438)">4</text>
     </g>
    </g>
    <g id="xtick_6">
     <g id="line2d_11">
      <path d="M 548.208 348.192 
L 548.208 93.744 
" clip-path="url(#p1aac3c4ce2)" style="fill: none; stroke: #dfe5e8; stroke-width: 0.65; stroke-linecap: square"/>
     </g>
     <g id="line2d_12">
      <g>
       <use xlink:href="#m9ed33b2f46" x="548.208" y="348.192" style="stroke: #000000; stroke-width: 0.8"/>
      </g>
     </g>
     <g id="text_6">
      <text style="font: 10px 'DejaVu Sans', 'Bitstream Vera Sans', 'Computer Modern Sans Serif', 'Lucida Grande', 'Verdana', 'Geneva', 'Lucid', 'Arial', 'Helvetica', 'Avant Garde', sans-serif; text-anchor: middle" x="548.208" y="362.790438" transform="rotate(-0 548.208 362.790438)">5</text>
     </g>
    </g>
    <g id="xtick_7">
     <g id="line2d_13">
      <path d="M 642.96 348.192 
L 642.96 93.744 
" clip-path="url(#p1aac3c4ce2)" style="fill: none; stroke: #dfe5e8; stroke-width: 0.65; stroke-linecap: square"/>
     </g>
     <g id="line2d_14">
      <g>
       <use xlink:href="#m9ed33b2f46" x="642.96" y="348.192" style="stroke: #000000; stroke-width: 0.8"/>
      </g>
     </g>
     <g id="text_7">
      <text style="font: 10px 'DejaVu Sans', 'Bitstream Vera Sans', 'Computer Modern Sans Serif', 'Lucida Grande', 'Verdana', 'Geneva', 'Lucid', 'Arial', 'Helvetica', 'Avant Garde', sans-serif; text-anchor: middle" x="642.96" y="362.790438" transform="rotate(-0 642.96 362.790438)">6</text>
     </g>
    </g>
    <g id="text_8">
     <text style="font: 10px 'DejaVu Sans', 'Bitstream Vera Sans', 'Computer Modern Sans Serif', 'Lucida Grande', 'Verdana', 'Geneva', 'Lucid', 'Arial', 'Helvetica', 'Avant Garde', sans-serif; text-anchor: middle" x="358.704" y="376.468563" transform="rotate(-0 358.704 376.468563)">sUCS dE threshold</text>
    </g>
   </g>
   <g id="matplotlib.axis_2">
    <g id="ytick_1">
     <g id="line2d_15">
      <path d="M 74.448 348.192 
L 642.96 348.192 
" clip-path="url(#p1aac3c4ce2)" style="fill: none; stroke: #dfe5e8; stroke-width: 0.65; stroke-linecap: square"/>
     </g>
     <g id="line2d_16">
      <defs>
       <path id="mb6efd75021" d="M 0 0 
L -3.5 0 
" style="stroke: #000000; stroke-width: 0.8"/>
      </defs>
      <g>
       <use xlink:href="#mb6efd75021" x="74.448" y="348.192" style="stroke: #000000; stroke-width: 0.8"/>
      </g>
     </g>
     <g id="text_9">
      <text style="font: 10px 'DejaVu Sans', 'Bitstream Vera Sans', 'Computer Modern Sans Serif', 'Lucida Grande', 'Verdana', 'Geneva', 'Lucid', 'Arial', 'Helvetica', 'Avant Garde', sans-serif; text-anchor: end" x="67.448" y="351.991219" transform="rotate(-0 67.448 351.991219)">0</text>
     </g>
    </g>
    <g id="ytick_2">
     <g id="line2d_17">
      <path d="M 74.448 297.3024 
L 642.96 297.3024 
" clip-path="url(#p1aac3c4ce2)" style="fill: none; stroke: #dfe5e8; stroke-width: 0.65; stroke-linecap: square"/>
     </g>
     <g id="line2d_18">
      <g>
       <use xlink:href="#mb6efd75021" x="74.448" y="297.3024" style="stroke: #000000; stroke-width: 0.8"/>
      </g>
     </g>
     <g id="text_10">
      <text style="font: 10px 'DejaVu Sans', 'Bitstream Vera Sans', 'Computer Modern Sans Serif', 'Lucida Grande', 'Verdana', 'Geneva', 'Lucid', 'Arial', 'Helvetica', 'Avant Garde', sans-serif; text-anchor: end" x="67.448" y="301.101619" transform="rotate(-0 67.448 301.101619)">20</text>
     </g>
    </g>
    <g id="ytick_3">
     <g id="line2d_19">
      <path d="M 74.448 246.4128 
L 642.96 246.4128 
" clip-path="url(#p1aac3c4ce2)" style="fill: none; stroke: #dfe5e8; stroke-width: 0.65; stroke-linecap: square"/>
     </g>
     <g id="line2d_20">
      <g>
       <use xlink:href="#mb6efd75021" x="74.448" y="246.4128" style="stroke: #000000; stroke-width: 0.8"/>
      </g>
     </g>
     <g id="text_11">
      <text style="font: 10px 'DejaVu Sans', 'Bitstream Vera Sans', 'Computer Modern Sans Serif', 'Lucida Grande', 'Verdana', 'Geneva', 'Lucid', 'Arial', 'Helvetica', 'Avant Garde', sans-serif; text-anchor: end" x="67.448" y="250.212019" transform="rotate(-0 67.448 250.212019)">40</text>
     </g>
    </g>
    <g id="ytick_4">
     <g id="line2d_21">
      <path d="M 74.448 195.5232 
L 642.96 195.5232 
" clip-path="url(#p1aac3c4ce2)" style="fill: none; stroke: #dfe5e8; stroke-width: 0.65; stroke-linecap: square"/>
     </g>
     <g id="line2d_22">
      <g>
       <use xlink:href="#mb6efd75021" x="74.448" y="195.5232" style="stroke: #000000; stroke-width: 0.8"/>
      </g>
     </g>
     <g id="text_12">
      <text style="font: 10px 'DejaVu Sans', 'Bitstream Vera Sans', 'Computer Modern Sans Serif', 'Lucida Grande', 'Verdana', 'Geneva', 'Lucid', 'Arial', 'Helvetica', 'Avant Garde', sans-serif; text-anchor: end" x="67.448" y="199.322419" transform="rotate(-0 67.448 199.322419)">60</text>
     </g>
    </g>
    <g id="ytick_5">
     <g id="line2d_23">
      <path d="M 74.448 144.6336 
L 642.96 144.6336 
" clip-path="url(#p1aac3c4ce2)" style="fill: none; stroke: #dfe5e8; stroke-width: 0.65; stroke-linecap: square"/>
     </g>
     <g id="line2d_24">
      <g>
       <use xlink:href="#mb6efd75021" x="74.448" y="144.6336" style="stroke: #000000; stroke-width: 0.8"/>
      </g>
     </g>
     <g id="text_13">
      <text style="font: 10px 'DejaVu Sans', 'Bitstream Vera Sans', 'Computer Modern Sans Serif', 'Lucida Grande', 'Verdana', 'Geneva', 'Lucid', 'Arial', 'Helvetica', 'Avant Garde', sans-serif; text-anchor: end" x="67.448" y="148.432819" transform="rotate(-0 67.448 148.432819)">80</text>
     </g>
    </g>
    <g id="ytick_6">
     <g id="line2d_25">
      <path d="M 74.448 93.744 
L 642.96 93.744 
" clip-path="url(#p1aac3c4ce2)" style="fill: none; stroke: #dfe5e8; stroke-width: 0.65; stroke-linecap: square"/>
     </g>
     <g id="line2d_26">
      <g>
       <use xlink:href="#mb6efd75021" x="74.448" y="93.744" style="stroke: #000000; stroke-width: 0.8"/>
      </g>
     </g>
     <g id="text_14">
      <text style="font: 10px 'DejaVu Sans', 'Bitstream Vera Sans', 'Computer Modern Sans Serif', 'Lucida Grande', 'Verdana', 'Geneva', 'Lucid', 'Arial', 'Helvetica', 'Avant Garde', sans-serif; text-anchor: end" x="67.448" y="97.543219" transform="rotate(-0 67.448 97.543219)">100</text>
     </g>
    </g>
    <g id="text_15">
     <text style="font: 10px 'DejaVu Sans', 'Bitstream Vera Sans', 'Computer Modern Sans Serif', 'Lucida Grande', 'Verdana', 'Geneva', 'Lucid', 'Arial', 'Helvetica', 'Avant Garde', sans-serif; text-anchor: middle" x="42.280812" y="220.968" transform="rotate(-90 42.280812 220.968)">observers%</text>
    </g>
   </g>
   <g id="line2d_27">
    <path d="M 74.448 348.192 
L 104.76864 348.192 
L 106.66368 346.560923 
L 110.45376 346.560923 
L 112.3488 344.929846 
L 119.92896 344.929846 
L 121.824 343.298769 
L 127.50912 343.298769 
L 129.40416 341.667692 
L 133.19424 341.667692 
L 135.08928 339.474175 
L 138.87936 339.474175 
L 140.7744 337.843098 
L 144.56448 337.843098 
L 146.45952 335.649581 
L 148.35456 334.018504 
L 150.2496 334.018504 
L 152.14464 331.824987 
L 154.03968 330.19391 
L 165.40992 330.19391 
L 167.30496 326.369316 
L 169.2 326.369316 
L 171.09504 322.544721 
L 172.99008 322.544721 
L 174.88512 320.913645 
L 178.6752 320.913645 
L 180.57024 319.282568 
L 184.36032 319.282568 
L 186.25536 315.457973 
L 191.94048 315.457973 
L 193.83552 313.826897 
L 199.52064 313.826897 
L 201.41568 312.19582 
L 212.78592 312.19582 
L 214.68096 310.564743 
L 216.576 308.371225 
L 220.36608 305.109072 
L 224.15616 305.109072 
L 227.94624 298.584764 
L 229.84128 296.953687 
L 231.73632 296.953687 
L 233.63136 293.691533 
L 237.42144 293.691533 
L 239.31648 292.060456 
L 243.10656 292.060456 
L 245.0016 290.429379 
L 246.89664 288.235862 
L 248.79168 286.604785 
L 250.68672 286.604785 
L 252.58176 284.973708 
L 256.37184 284.973708 
L 260.16192 280.586674 
L 262.05696 278.955597 
L 263.952 275.693443 
L 271.53216 275.693443 
L 273.4272 274.062366 
L 279.11232 274.062366 
L 281.00736 272.431289 
L 284.79744 272.431289 
L 286.69248 268.606695 
L 288.58752 266.975618 
L 292.3776 266.975618 
L 294.27264 262.082387 
L 296.16768 258.257793 
L 298.06272 256.626716 
L 301.8528 256.626716 
L 305.64288 253.364562 
L 307.53792 250.102408 
L 309.43296 250.102408 
L 311.328 248.471332 
L 313.22304 248.471332 
L 315.11808 246.277814 
L 320.8032 246.277814 
L 324.59328 243.01566 
L 326.48832 239.753507 
L 328.38336 239.753507 
L 330.2784 237.559989 
L 335.96352 237.559989 
L 337.85856 235.366472 
L 339.7536 235.366472 
L 341.64864 233.735395 
L 343.54368 231.541878 
L 347.33376 231.541878 
L 351.12384 228.279724 
L 353.01888 228.279724 
L 354.91392 226.648647 
L 356.80896 222.824053 
L 358.704 222.824053 
L 360.59904 221.192976 
L 366.28416 221.192976 
L 368.1792 219.561899 
L 371.96928 219.561899 
L 373.86432 215.737305 
L 375.75936 214.106228 
L 387.1296 214.106228 
L 389.02464 209.212997 
L 390.91968 209.212997 
L 392.81472 207.58192 
L 398.49984 207.58192 
L 400.39488 205.950844 
L 411.76512 205.950844 
L 415.5552 201.563809 
L 417.45024 199.932732 
L 419.34528 197.739215 
L 426.92544 197.739215 
L 430.71552 194.477061 
L 442.08576 194.477061 
L 443.9808 192.283544 
L 451.56096 192.283544 
L 453.456 189.02139 
L 455.35104 189.02139 
L 457.24608 185.196796 
L 459.14112 183.003279 
L 476.19648 183.003279 
L 478.09152 180.809761 
L 483.77664 180.809761 
L 485.67168 179.178684 
L 498.93696 179.178684 
L 500.832 172.598133 
L 506.51712 172.598133 
L 508.41216 170.967056 
L 523.57248 170.967056 
L 525.46752 169.335979 
L 531.15264 169.335979 
L 533.04768 167.142462 
L 544.41792 167.142462 
L 546.31296 165.511385 
L 550.10304 165.511385 
L 551.99808 163.880308 
L 563.36832 163.880308 
L 565.26336 162.249231 
L 572.84352 162.249231 
L 574.73856 160.055714 
L 582.31872 160.055714 
L 584.21376 157.862196 
L 597.47904 157.862196 
L 599.37408 156.231119 
L 642.96 156.231119 
L 642.96 156.231119 
" clip-path="url(#p1aac3c4ce2)" style="fill: none; stroke: #252525; stroke-width: 2.5; stroke-linecap: square"/>
   </g>
   <g id="line2d_28">
    <path d="M 74.448 348.192 
L 114.24384 348.192 
L 116.13888 345.998483 
L 133.19424 345.998483 
L 135.08928 343.804966 
L 159.7248 343.804966 
L 161.61984 341.611448 
L 163.51488 341.611448 
L 165.40992 335.593337 
L 169.2 335.593337 
L 171.09504 333.39982 
L 178.6752 333.39982 
L 180.57024 331.206302 
L 193.83552 331.206302 
L 195.73056 329.012785 
L 199.52064 329.012785 
L 201.41568 322.994674 
L 203.31072 322.994674 
L 205.20576 318.607639 
L 208.99584 318.607639 
L 210.89088 316.976562 
L 214.68096 316.976562 
L 216.576 314.783045 
L 218.47104 314.783045 
L 220.36608 310.958451 
L 224.15616 307.696297 
L 237.42144 307.696297 
L 239.31648 305.50278 
L 241.21152 305.50278 
L 243.10656 301.678186 
L 250.68672 301.678186 
L 252.58176 299.484668 
L 254.4768 299.484668 
L 256.37184 297.853592 
L 260.16192 297.853592 
L 262.05696 296.222515 
L 263.952 296.222515 
L 265.84704 294.028997 
L 269.63712 294.028997 
L 273.4272 290.766844 
L 275.32224 290.766844 
L 277.21728 289.135767 
L 282.9024 289.135767 
L 284.79744 287.50469 
L 286.69248 285.311172 
L 288.58752 283.680095 
L 290.48256 283.680095 
L 294.27264 280.417942 
L 301.8528 280.417942 
L 303.74784 278.786865 
L 305.64288 278.786865 
L 307.53792 276.593347 
L 311.328 276.593347 
L 313.22304 274.962271 
L 315.11808 274.962271 
L 317.01312 273.331194 
L 318.90816 271.137676 
L 320.8032 269.506599 
L 326.48832 269.506599 
L 328.38336 267.875523 
L 335.96352 267.875523 
L 337.85856 266.244446 
L 345.43872 266.244446 
L 347.33376 264.613369 
L 349.2288 261.351215 
L 351.12384 259.720138 
L 353.01888 257.526621 
L 354.91392 257.526621 
L 356.80896 255.895544 
L 358.704 255.895544 
L 360.59904 252.07095 
L 362.49408 250.439873 
L 368.1792 250.439873 
L 370.07424 248.808796 
L 371.96928 248.808796 
L 373.86432 246.615279 
L 377.6544 246.615279 
L 379.54944 244.984202 
L 381.44448 244.984202 
L 383.33952 241.722048 
L 389.02464 241.722048 
L 392.81472 238.459894 
L 394.70976 238.459894 
L 396.6048 233.566663 
L 402.28992 233.566663 
L 404.18496 227.042355 
L 406.08 225.411279 
L 409.87008 225.411279 
L 411.76512 221.586684 
L 413.66016 219.955607 
L 417.45024 219.955607 
L 419.34528 218.324531 
L 421.24032 215.062377 
L 423.13536 213.4313 
L 425.0304 208.538069 
L 430.71552 208.538069 
L 432.61056 204.713475 
L 440.19072 204.713475 
L 442.08576 202.519958 
L 445.87584 202.519958 
L 447.77088 200.888881 
L 449.66592 200.888881 
L 451.56096 199.257804 
L 453.456 197.064286 
L 462.9312 197.064286 
L 468.61632 192.171056 
L 474.30144 192.171056 
L 476.19648 190.539979 
L 497.04192 190.539979 
L 498.93696 188.908902 
L 500.832 188.908902 
L 502.72704 186.715385 
L 504.62208 186.715385 
L 506.51712 183.453231 
L 508.41216 183.453231 
L 510.3072 181.822154 
L 512.20224 179.628637 
L 514.09728 179.628637 
L 515.99232 177.435119 
L 517.88736 177.435119 
L 519.7824 175.241602 
L 521.67744 175.241602 
L 525.46752 171.979448 
L 527.36256 171.979448 
L 533.04768 165.398897 
L 534.94272 163.76782 
L 551.99808 163.76782 
L 553.89312 162.136743 
L 567.1584 162.136743 
L 569.05344 160.505666 
L 572.84352 160.505666 
L 574.73856 155.049995 
L 576.6336 155.049995 
L 578.52864 150.66296 
L 580.42368 150.66296 
L 582.31872 148.469443 
L 589.89888 148.469443 
L 591.79392 146.275926 
L 593.68896 144.644849 
L 599.37408 144.644849 
L 601.26912 143.013772 
L 605.0592 143.013772 
L 606.95424 140.820255 
L 608.84928 140.820255 
L 610.74432 138.626737 
L 639.16992 138.626737 
L 641.06496 136.43322 
L 642.96 134.802143 
L 642.96 134.802143 
" clip-path="url(#p1aac3c4ce2)" style="fill: none; stroke: #3b83b4; stroke-width: 1.35; stroke-linecap: square"/>
   </g>
   <g id="line2d_29">
    <path d="M 74.448 348.192 
L 83.9232 348.192 
L 85.81824 346.560923 
L 123.71904 346.560923 
L 125.61408 341.667692 
L 131.2992 341.667692 
L 133.19424 339.474175 
L 135.08928 337.843098 
L 155.93472 337.843098 
L 157.82976 336.212021 
L 161.61984 336.212021 
L 165.40992 332.949867 
L 171.09504 332.949867 
L 172.99008 331.31879 
L 193.83552 331.31879 
L 197.6256 328.056637 
L 203.31072 328.056637 
L 205.20576 324.794483 
L 208.99584 324.794483 
L 212.78592 321.532329 
L 214.68096 321.532329 
L 216.576 319.901252 
L 220.36608 319.901252 
L 222.26112 316.076658 
L 224.15616 314.445581 
L 237.42144 314.445581 
L 239.31648 311.183427 
L 245.0016 311.183427 
L 246.89664 309.55235 
L 254.4768 309.55235 
L 258.26688 306.290196 
L 262.05696 306.290196 
L 263.952 304.096679 
L 271.53216 304.096679 
L 273.4272 302.465602 
L 290.48256 302.465602 
L 292.3776 299.203448 
L 303.74784 299.203448 
L 305.64288 297.572371 
L 309.43296 297.572371 
L 311.328 294.310218 
L 322.69824 294.310218 
L 324.59328 292.679141 
L 328.38336 292.679141 
L 330.2784 288.854546 
L 332.17344 287.223469 
L 337.85856 287.223469 
L 339.7536 285.029952 
L 341.64864 285.029952 
L 343.54368 281.767798 
L 345.43872 280.136721 
L 347.33376 280.136721 
L 349.2288 278.505645 
L 351.12384 276.312127 
L 353.01888 272.487533 
L 354.91392 270.294016 
L 356.80896 270.294016 
L 358.704 267.031862 
L 360.59904 267.031862 
L 362.49408 265.400785 
L 364.38912 260.507554 
L 366.28416 260.507554 
L 368.1792 258.876477 
L 370.07424 256.68296 
L 373.86432 253.420806 
L 377.6544 253.420806 
L 379.54944 251.227289 
L 383.33952 251.227289 
L 387.1296 247.965135 
L 389.02464 247.965135 
L 390.91968 245.771618 
L 392.81472 244.140541 
L 407.97504 244.140541 
L 409.87008 242.509464 
L 411.76512 242.509464 
L 413.66016 240.878387 
L 442.08576 240.878387 
L 443.9808 238.68487 
L 451.56096 238.68487 
L 453.456 234.297836 
L 455.35104 232.666759 
L 462.9312 232.666759 
L 464.82624 231.035682 
L 466.72128 231.035682 
L 468.61632 228.842164 
L 470.51136 227.211088 
L 472.4064 227.211088 
L 474.30144 225.580011 
L 481.8816 225.580011 
L 485.67168 221.192976 
L 489.46176 221.192976 
L 493.25184 217.930822 
L 495.14688 217.930822 
L 497.04192 216.299745 
L 498.93696 214.106228 
L 500.832 214.106228 
L 502.72704 212.475151 
L 508.41216 212.475151 
L 510.3072 210.844074 
L 521.67744 210.844074 
L 523.57248 208.650557 
L 527.36256 208.650557 
L 529.2576 207.01948 
L 531.15264 207.01948 
L 533.04768 205.388403 
L 536.83776 205.388403 
L 538.7328 203.757326 
L 540.62784 203.757326 
L 544.41792 200.495172 
L 546.31296 198.301655 
L 551.99808 198.301655 
L 555.78816 195.039501 
L 559.57824 195.039501 
L 561.47328 191.214907 
L 569.05344 191.214907 
L 570.94848 189.58383 
L 574.73856 189.58383 
L 576.6336 187.952753 
L 605.0592 187.952753 
L 606.95424 186.321676 
L 612.63936 186.321676 
L 614.5344 184.128159 
L 616.42944 182.497082 
L 618.32448 180.303565 
L 625.90464 180.303565 
L 627.79968 178.672488 
L 633.4848 178.672488 
L 635.37984 176.478971 
L 642.96 176.478971 
L 642.96 176.478971 
" clip-path="url(#p1aac3c4ce2)" style="fill: none; stroke-dasharray: 4.995,2.16; stroke-dashoffset: 0; stroke: #c38a19; stroke-width: 1.35"/>
   </g>
   <g id="line2d_30">
    <path d="M 74.448 348.192 
L 116.13888 348.192 
L 118.03392 345.998483 
L 131.2992 345.998483 
L 133.19424 344.367406 
L 135.08928 344.367406 
L 136.98432 342.736329 
L 142.66944 342.736329 
L 144.56448 341.105252 
L 165.40992 341.105252 
L 167.30496 339.474175 
L 169.2 339.474175 
L 171.09504 337.843098 
L 176.78016 337.843098 
L 182.46528 332.949867 
L 190.04544 332.949867 
L 191.94048 331.31879 
L 201.41568 331.31879 
L 205.20576 328.056637 
L 208.99584 328.056637 
L 210.89088 325.863119 
L 212.78592 325.863119 
L 214.68096 323.669602 
L 216.576 322.038525 
L 218.47104 322.038525 
L 220.36608 320.407448 
L 224.15616 320.407448 
L 226.0512 318.776371 
L 231.73632 318.776371 
L 233.63136 317.145294 
L 241.21152 317.145294 
L 243.10656 315.514218 
L 248.79168 315.514218 
L 250.68672 313.883141 
L 252.58176 313.883141 
L 254.4768 312.252064 
L 265.84704 312.252064 
L 267.74208 310.620987 
L 269.63712 310.620987 
L 271.53216 308.98991 
L 275.32224 308.98991 
L 279.11232 305.727756 
L 286.69248 305.727756 
L 288.58752 304.096679 
L 290.48256 301.903162 
L 292.3776 300.272085 
L 296.16768 300.272085 
L 298.06272 298.641008 
L 307.53792 298.641008 
L 309.43296 297.009931 
L 311.328 297.009931 
L 313.22304 295.378854 
L 315.11808 293.185337 
L 318.90816 293.185337 
L 322.69824 289.923183 
L 326.48832 289.923183 
L 328.38336 285.536149 
L 335.96352 285.536149 
L 337.85856 283.905072 
L 347.33376 283.905072 
L 351.12384 280.642918 
L 353.01888 280.642918 
L 354.91392 278.449401 
L 356.80896 276.818324 
L 358.704 272.993729 
L 366.28416 272.993729 
L 368.1792 270.800212 
L 370.07424 269.169135 
L 383.33952 269.169135 
L 385.23456 267.538058 
L 394.70976 267.538058 
L 396.6048 265.906981 
L 398.49984 259.382674 
L 400.39488 259.382674 
L 402.28992 257.751597 
L 404.18496 257.751597 
L 406.08 255.55808 
L 407.97504 253.927003 
L 411.76512 253.927003 
L 413.66016 248.471332 
L 415.5552 246.840255 
L 417.45024 246.840255 
L 419.34528 244.646737 
L 421.24032 244.646737 
L 423.13536 243.01566 
L 425.0304 243.01566 
L 428.82048 239.753507 
L 449.66592 239.753507 
L 451.56096 238.12243 
L 453.456 233.735395 
L 455.35104 233.735395 
L 457.24608 232.104318 
L 468.61632 232.104318 
L 470.51136 227.717284 
L 472.4064 225.523767 
L 481.8816 225.523767 
L 483.77664 223.89269 
L 485.67168 223.89269 
L 487.56672 222.261613 
L 504.62208 222.261613 
L 506.51712 220.630536 
L 508.41216 217.368382 
L 510.3072 215.737305 
L 517.88736 215.737305 
L 519.7824 214.106228 
L 521.67744 209.719194 
L 529.2576 209.719194 
L 531.15264 208.088117 
L 540.62784 208.088117 
L 542.52288 206.45704 
L 555.78816 206.45704 
L 557.6832 204.825963 
L 565.26336 204.825963 
L 567.1584 203.194886 
L 574.73856 203.194886 
L 576.6336 198.301655 
L 578.52864 194.477061 
L 588.00384 194.477061 
L 589.89888 192.845984 
L 591.79392 192.845984 
L 593.68896 191.214907 
L 599.37408 191.214907 
L 601.26912 189.02139 
L 603.16416 189.02139 
L 605.0592 186.827873 
L 612.63936 186.827873 
L 614.5344 185.196796 
L 616.42944 185.196796 
L 618.32448 183.003279 
L 620.21952 181.372202 
L 635.37984 181.372202 
L 639.16992 178.110048 
L 642.96 178.110048 
L 642.96 178.110048 
" clip-path="url(#p1aac3c4ce2)" style="fill: none; stroke-dasharray: 1.35,2.2275; stroke-dashoffset: 0; stroke: #7d8a92; stroke-width: 1.35"/>
   </g>
   <g id="line2d_31">
    <path d="M 74.448 348.192 
L 182.46528 348.192 
L 184.36032 345.998483 
L 190.04544 345.998483 
L 191.94048 344.367406 
L 195.73056 344.367406 
L 197.6256 342.736329 
L 205.20576 342.736329 
L 207.1008 341.105252 
L 267.74208 341.105252 
L 269.63712 338.911735 
L 271.53216 337.280658 
L 273.4272 337.280658 
L 275.32224 335.649581 
L 341.64864 335.649581 
L 343.54368 333.456064 
L 353.01888 333.456064 
L 354.91392 331.824987 
L 360.59904 331.824987 
L 362.49408 330.19391 
L 366.28416 330.19391 
L 368.1792 328.562833 
L 379.54944 328.562833 
L 381.44448 326.931756 
L 389.02464 326.931756 
L 392.81472 323.669602 
L 394.70976 321.476085 
L 402.28992 321.476085 
L 404.18496 319.845008 
L 407.97504 319.845008 
L 409.87008 318.213931 
L 411.76512 318.213931 
L 413.66016 316.582854 
L 419.34528 316.582854 
L 421.24032 314.951777 
L 440.19072 314.951777 
L 442.08576 313.3207 
L 455.35104 313.3207 
L 457.24608 311.689623 
L 464.82624 311.689623 
L 466.72128 310.058546 
L 478.09152 310.058546 
L 481.8816 306.796393 
L 483.77664 306.796393 
L 485.67168 304.602875 
L 504.62208 304.602875 
L 506.51712 302.971798 
L 510.3072 302.971798 
L 512.20224 301.340721 
L 529.2576 301.340721 
L 531.15264 299.709645 
L 533.04768 299.709645 
L 534.94272 298.078568 
L 544.41792 298.078568 
L 546.31296 296.447491 
L 548.208 296.447491 
L 550.10304 294.816414 
L 559.57824 294.816414 
L 561.47328 291.55426 
L 570.94848 291.55426 
L 572.84352 289.923183 
L 574.73856 289.923183 
L 576.6336 287.729666 
L 584.21376 287.729666 
L 586.1088 286.098589 
L 591.79392 286.098589 
L 593.68896 284.467512 
L 599.37408 284.467512 
L 601.26912 280.642918 
L 612.63936 280.642918 
L 614.5344 279.011841 
L 620.21952 279.011841 
L 622.11456 276.818324 
L 625.90464 273.55617 
L 627.79968 273.55617 
L 629.69472 269.731576 
L 633.4848 269.731576 
L 635.37984 268.100499 
L 637.27488 265.906981 
L 639.16992 265.906981 
L 641.06496 263.713464 
L 642.96 263.713464 
L 642.96 263.713464 
" clip-path="url(#p1aac3c4ce2)" style="fill: none; stroke-dasharray: 8.64,2.16,1.35,2.16; stroke-dashoffset: 0; stroke: #d0526a; stroke-width: 1.35"/>
   </g>
   <g id="line2d_32">
    <path d="M 74.448 348.192 
L 106.66368 348.192 
L 110.45376 343.804966 
L 146.45952 343.804966 
L 148.35456 341.611448 
L 154.03968 341.611448 
L 155.93472 339.417931 
L 167.30496 339.417931 
L 169.2 337.224414 
L 182.46528 337.224414 
L 184.36032 335.030897 
L 186.25536 335.030897 
L 190.04544 330.643862 
L 195.73056 330.643862 
L 197.6256 328.450345 
L 208.99584 328.450345 
L 210.89088 326.256828 
L 214.68096 326.256828 
L 216.576 324.06331 
L 224.15616 324.06331 
L 226.0512 321.869793 
L 227.94624 321.869793 
L 231.73632 317.482759 
L 233.63136 317.482759 
L 235.5264 315.289241 
L 237.42144 315.289241 
L 239.31648 313.095724 
L 250.68672 313.095724 
L 252.58176 310.902207 
L 262.05696 310.902207 
L 263.952 308.70869 
L 299.95776 308.70869 
L 301.8528 306.515172 
L 313.22304 306.515172 
L 315.11808 304.884095 
L 317.01312 302.690578 
L 324.59328 302.690578 
L 326.48832 300.497061 
L 328.38336 300.497061 
L 330.2784 298.865984 
L 332.17344 296.672467 
L 334.06848 296.672467 
L 335.96352 294.47895 
L 349.2288 294.47895 
L 351.12384 292.847873 
L 353.01888 292.847873 
L 354.91392 291.216796 
L 356.80896 291.216796 
L 358.704 289.023279 
L 362.49408 289.023279 
L 366.28416 284.636244 
L 370.07424 284.636244 
L 371.96928 282.442727 
L 375.75936 282.442727 
L 377.6544 280.81165 
L 379.54944 278.618133 
L 389.02464 278.618133 
L 390.91968 274.793538 
L 392.81472 273.162462 
L 394.70976 270.968944 
L 402.28992 270.968944 
L 404.18496 269.337867 
L 406.08 269.337867 
L 407.97504 265.513273 
L 409.87008 263.882196 
L 417.45024 263.882196 
L 419.34528 262.251119 
L 425.0304 262.251119 
L 428.82048 257.864085 
L 438.29568 257.864085 
L 440.19072 255.670568 
L 442.08576 255.670568 
L 443.9808 254.039491 
L 445.87584 254.039491 
L 447.77088 252.408414 
L 451.56096 252.408414 
L 453.456 250.214897 
L 459.14112 250.214897 
L 461.03616 248.021379 
L 464.82624 248.021379 
L 466.72128 245.827862 
L 470.51136 242.565708 
L 474.30144 242.565708 
L 476.19648 240.934631 
L 485.67168 240.934631 
L 487.56672 236.547597 
L 495.14688 236.547597 
L 497.04192 234.91652 
L 500.832 234.91652 
L 502.72704 233.285443 
L 504.62208 233.285443 
L 506.51712 231.654366 
L 508.41216 229.460849 
L 510.3072 229.460849 
L 512.20224 227.267332 
L 514.09728 225.636255 
L 517.88736 225.636255 
L 519.7824 217.987066 
L 523.57248 217.987066 
L 525.46752 212.531395 
L 527.36256 210.337878 
L 529.2576 208.706801 
L 533.04768 208.706801 
L 534.94272 207.075724 
L 536.83776 207.075724 
L 538.7328 204.882207 
L 544.41792 204.882207 
L 546.31296 203.25113 
L 548.208 199.426536 
L 550.10304 195.039501 
L 551.99808 192.845984 
L 563.36832 192.845984 
L 565.26336 191.214907 
L 572.84352 191.214907 
L 574.73856 187.952753 
L 580.42368 183.059523 
L 582.31872 180.866005 
L 584.21376 180.866005 
L 586.1088 179.234928 
L 588.00384 179.234928 
L 589.89888 177.603851 
L 591.79392 177.603851 
L 593.68896 175.410334 
L 595.584 175.410334 
L 599.37408 172.14818 
L 601.26912 168.886027 
L 603.16416 168.886027 
L 605.0592 167.25495 
L 620.21952 167.25495 
L 622.11456 165.623873 
L 624.0096 165.623873 
L 627.79968 162.361719 
L 629.69472 162.361719 
L 631.58976 160.730642 
L 635.37984 160.730642 
L 637.27488 159.099565 
L 639.16992 159.099565 
L 641.06496 157.468488 
L 642.96 157.468488 
L 642.96 157.468488 
" clip-path="url(#p1aac3c4ce2)" style="fill: none; stroke-dasharray: 6.75,2.7,1.35,2.7; stroke-dashoffset: 0; stroke: #2f8f84; stroke-width: 1.35"/>
   </g>
   <g id="patch_4">
    <path d="M 74.448 348.192 
L 74.448 93.744 
" style="fill: none; stroke: #000000; stroke-width: 0.8; stroke-linejoin: miter; stroke-linecap: square"/>
   </g>
   <g id="patch_5">
    <path d="M 74.448 348.192 
L 642.96 348.192 
" style="fill: none; stroke: #000000; stroke-width: 0.8; stroke-linejoin: miter; stroke-linecap: square"/>
   </g>
  </g>
  <g id="text_16">
   <text style="font: 18px 'DejaVu Sans', 'Bitstream Vera Sans', 'Computer Modern Sans Serif', 'Lucida Grande', 'Verdana', 'Geneva', 'Lucid', 'Arial', 'Helvetica', 'Avant Garde', sans-serif; text-anchor: start" x="74.448" y="38.229188" transform="rotate(-0 74.448 38.229188)">D65 Direct</text>
  </g>
  <g id="text_17">
   <text style="fill: #66747c; font: 10px 'DejaVu Sans', 'Bitstream Vera Sans', 'Computer Modern Sans Serif', 'Lucida Grande', 'Verdana', 'Geneva', 'Lucid', 'Arial', 'Helvetica', 'Avant Garde', sans-serif; text-anchor: start" x="74.448" y="64.728" transform="rotate(-0 74.448 64.728)">WLED LCD</text>
  </g>
  <g id="legend_1">
   <g id="line2d_33">
    <path d="M 185.17875 404.151391 
L 194.27875 404.151391 
L 203.37875 404.151391 
" style="fill: none; stroke: #252525; stroke-width: 2.5; stroke-linecap: square"/>
   </g>
   <g id="text_18">
    <text style="font: 9.1px 'DejaVu Sans', 'Bitstream Vera Sans', 'Computer Modern Sans Serif', 'Lucida Grande', 'Verdana', 'Geneva', 'Lucid', 'Arial', 'Helvetica', 'Avant Garde', sans-serif; text-anchor: start" x="210.65875" y="407.336391" transform="rotate(-0 210.65875 407.336391)">Potera CMF</text>
   </g>
   <g id="line2d_34">
    <path d="M 185.17875 417.508484 
L 194.27875 417.508484 
L 203.37875 417.508484 
" style="fill: none; stroke: #3b83b4; stroke-width: 1.35; stroke-linecap: square"/>
   </g>
   <g id="text_19">
    <text style="font: 9.1px 'DejaVu Sans', 'Bitstream Vera Sans', 'Computer Modern Sans Serif', 'Lucida Grande', 'Verdana', 'Geneva', 'Lucid', 'Arial', 'Helvetica', 'Avant Garde', sans-serif; text-anchor: start" x="210.65875" y="420.693484" transform="rotate(-0 210.65875 420.693484)">CIE 2015 2°</text>
   </g>
   <g id="line2d_35">
    <path d="M 282.931234 404.151391 
L 292.031234 404.151391 
L 301.131234 404.151391 
" style="fill: none; stroke-dasharray: 4.995,2.16; stroke-dashoffset: 0; stroke: #c38a19; stroke-width: 1.35"/>
   </g>
   <g id="text_20">
    <text style="font: 9.1px 'DejaVu Sans', 'Bitstream Vera Sans', 'Computer Modern Sans Serif', 'Lucida Grande', 'Verdana', 'Geneva', 'Lucid', 'Arial', 'Helvetica', 'Avant Garde', sans-serif; text-anchor: start" x="308.411234" y="407.336391" transform="rotate(-0 308.411234 407.336391)">CIE 2015 10°</text>
   </g>
   <g id="line2d_36">
    <path d="M 282.931234 417.508484 
L 292.031234 417.508484 
L 301.131234 417.508484 
" style="fill: none; stroke-dasharray: 1.35,2.2275; stroke-dashoffset: 0; stroke: #7d8a92; stroke-width: 1.35"/>
   </g>
   <g id="text_21">
    <text style="font: 9.1px 'DejaVu Sans', 'Bitstream Vera Sans', 'Computer Modern Sans Serif', 'Lucida Grande', 'Verdana', 'Geneva', 'Lucid', 'Arial', 'Helvetica', 'Avant Garde', sans-serif; text-anchor: start" x="308.411234" y="420.693484" transform="rotate(-0 308.411234 420.693484)">CIE 1964 10°</text>
   </g>
   <g id="line2d_37">
    <path d="M 386.473594 404.151391 
L 395.573594 404.151391 
L 404.673594 404.151391 
" style="fill: none; stroke-dasharray: 8.64,2.16,1.35,2.16; stroke-dashoffset: 0; stroke: #d0526a; stroke-width: 1.35"/>
   </g>
   <g id="text_22">
    <text style="font: 9.1px 'DejaVu Sans', 'Bitstream Vera Sans', 'Computer Modern Sans Serif', 'Lucida Grande', 'Verdana', 'Geneva', 'Lucid', 'Arial', 'Helvetica', 'Avant Garde', sans-serif; text-anchor: start" x="411.953594" y="407.336391" transform="rotate(-0 411.953594 407.336391)">CIE 1931 2°</text>
   </g>
   <g id="line2d_38">
    <path d="M 386.473594 417.508484 
L 395.573594 417.508484 
L 404.673594 417.508484 
" style="fill: none; stroke-dasharray: 6.75,2.7,1.35,2.7; stroke-dashoffset: 0; stroke: #2f8f84; stroke-width: 1.35"/>
   </g>
   <g id="text_23">
    <text style="font: 9.1px 'DejaVu Sans', 'Bitstream Vera Sans', 'Computer Modern Sans Serif', 'Lucida Grande', 'Verdana', 'Geneva', 'Lucid', 'Arial', 'Helvetica', 'Avant Garde', sans-serif; text-anchor: start" x="411.953594" y="420.693484" transform="rotate(-0 411.953594 420.693484)">Judd–Vos 1978 2°</text>
   </g>
  </g>
 </g>
 <defs>
  <clipPath id="p1aac3c4ce2">
   <rect x="74.448" y="93.744" width="568.512" height="254.448"/>
  </clipPath>
 </defs>
</svg>
