<?xml version="1.0" encoding="utf-8" standalone="no"?>
<!DOCTYPE svg PUBLIC "-//W3C//DTD SVG 1.1//EN"
  "http://www.w3.org/Graphics/SVG/1.1/DTD/svg11.dtd">
<svg xmlns:xlink="http://www.w3.org/1999/xlink" width="676.8pt" height="446.4pt" viewBox="0 0 676.8 446.4" xmlns="http://www.w3.org/2000/svg" version="1.1">
 <metadata>
  <rdf:RDF xmlns:dc="http://purl.org/dc/elements/1.1/" xmlns:cc="http://creativecommons.org/ns#" xmlns:rdf="http://www.w3.org/1999/02/22-rdf-syntax-ns#">
   <cc:Work>
    <dc:type rdf:resource="http://purl.org/dc/dcmitype/StillImage"/>
    <dc:date>2026-07-20T06:41:54.613750</dc:date>
    <dc:format>image/svg+xml</dc:format>
    <dc:creator>
     <cc:Agent>
      <dc:title>Matplotlib v3.9.4, https://matplotlib.org/</dc:title>
     </cc:Agent>
    </dc:creator>
   </cc:Work>
  </rdf:RDF>
 </metadata>
 <defs>
  <style type="text/css">*{stroke-linejoin: round; stroke-linecap: butt}</style>
 </defs>
 <g id="figure_1">
  <g id="patch_1">
   <path d="M 0 446.4 
L 676.8 446.4 
L 676.8 0 
L 0 0 
z
" style="fill: #ffffff"/>
  </g>
  <g id="axes_1">
   <g id="patch_2">
    <path d="M 74.448 348.192 
L 642.96 348.192 
L 642.96 93.744 
L 74.448 93.744 
z
" style="fill: #ffffff"/>
   </g>
   <g id="patch_3">
    <path d="M 169.2 348.192 
L 358.704 348.192 
L 358.704 93.744 
L 169.2 93.744 
z
" clip-path="url(#pa83d255c2b)" style="fill: #e7f0ea; opacity: 0.58; stroke: #e7f0ea; stroke-linejoin: miter"/>
   </g>
   <g id="matplotlib.axis_1">
    <g id="xtick_1">
     <g id="line2d_1">
      <path d="M 74.448 348.192 
L 74.448 93.744 
" clip-path="url(#pa83d255c2b)" style="fill: none; stroke: #dfe5e8; stroke-width: 0.65; stroke-linecap: square"/>
     </g>
     <g id="line2d_2">
      <defs>
       <path id="m0b371818fa" d="M 0 0 
L 0 3.5 
" style="stroke: #000000; stroke-width: 0.8"/>
      </defs>
      <g>
       <use xlink:href="#m0b371818fa" x="74.448" y="348.192" style="stroke: #000000; stroke-width: 0.8"/>
      </g>
     </g>
     <g id="text_1">
      <text style="font: 10px 'DejaVu Sans', 'Bitstream Vera Sans', 'Computer Modern Sans Serif', 'Lucida Grande', 'Verdana', 'Geneva', 'Lucid', 'Arial', 'Helvetica', 'Avant Garde', sans-serif; text-anchor: middle" x="74.448" y="362.790438" transform="rotate(-0 74.448 362.790438)">0</text>
     </g>
    </g>
    <g id="xtick_2">
     <g id="line2d_3">
      <path d="M 169.2 348.192 
L 169.2 93.744 
" clip-path="url(#pa83d255c2b)" style="fill: none; stroke: #dfe5e8; stroke-width: 0.65; stroke-linecap: square"/>
     </g>
     <g id="line2d_4">
      <g>
       <use xlink:href="#m0b371818fa" x="169.2" y="348.192" style="stroke: #000000; stroke-width: 0.8"/>
      </g>
     </g>
     <g id="text_2">
      <text style="font: 10px 'DejaVu Sans', 'Bitstream Vera Sans', 'Computer Modern Sans Serif', 'Lucida Grande', 'Verdana', 'Geneva', 'Lucid', 'Arial', 'Helvetica', 'Avant Garde', sans-serif; text-anchor: middle" x="169.2" y="362.790438" transform="rotate(-0 169.2 362.790438)">1</text>
     </g>
    </g>
    <g id="xtick_3">
     <g id="line2d_5">
      <path d="M 263.952 348.192 
L 263.952 93.744 
" clip-path="url(#pa83d255c2b)" style="fill: none; stroke: #dfe5e8; stroke-width: 0.65; stroke-linecap: square"/>
     </g>
     <g id="line2d_6">
      <g>
       <use xlink:href="#m0b371818fa" x="263.952" y="348.192" style="stroke: #000000; stroke-width: 0.8"/>
      </g>
     </g>
     <g id="text_3">
      <text style="font: 10px 'DejaVu Sans', 'Bitstream Vera Sans', 'Computer Modern Sans Serif', 'Lucida Grande', 'Verdana', 'Geneva', 'Lucid', 'Arial', 'Helvetica', 'Avant Garde', sans-serif; text-anchor: middle" x="263.952" y="362.790438" transform="rotate(-0 263.952 362.790438)">2</text>
     </g>
    </g>
    <g id="xtick_4">
     <g id="line2d_7">
      <path d="M 358.704 348.192 
L 358.704 93.744 
" clip-path="url(#pa83d255c2b)" style="fill: none; stroke: #dfe5e8; stroke-width: 0.65; stroke-linecap: square"/>
     </g>
     <g id="line2d_8">
      <g>
       <use xlink:href="#m0b371818fa" x="358.704" y="348.192" style="stroke: #000000; stroke-width: 0.8"/>
      </g>
     </g>
     <g id="text_4">
      <text style="font: 10px 'DejaVu Sans', 'Bitstream Vera Sans', 'Computer Modern Sans Serif', 'Lucida Grande', 'Verdana', 'Geneva', 'Lucid', 'Arial', 'Helvetica', 'Avant Garde', sans-serif; text-anchor: middle" x="358.704" y="362.790438" transform="rotate(-0 358.704 362.790438)">3</text>
     </g>
    </g>
    <g id="xtick_5">
     <g id="line2d_9">
      <path d="M 453.456 348.192 
L 453.456 93.744 
" clip-path="url(#pa83d255c2b)" style="fill: none; stroke: #dfe5e8; stroke-width: 0.65; stroke-linecap: square"/>
     </g>
     <g id="line2d_10">
      <g>
       <use xlink:href="#m0b371818fa" x="453.456" y="348.192" style="stroke: #000000; stroke-width: 0.8"/>
      </g>
     </g>
     <g id="text_5">
      <text style="font: 10px 'DejaVu Sans', 'Bitstream Vera Sans', 'Computer Modern Sans Serif', 'Lucida Grande', 'Verdana', 'Geneva', 'Lucid', 'Arial', 'Helvetica', 'Avant Garde', sans-serif; text-anchor: middle" x="453.456" y="362.790438" transform="rotate(-0 453.456 362.790438)">4</text>
     </g>
    </g>
    <g id="xtick_6">
     <g id="line2d_11">
      <path d="M 548.208 348.192 
L 548.208 93.744 
" clip-path="url(#pa83d255c2b)" style="fill: none; stroke: #dfe5e8; stroke-width: 0.65; stroke-linecap: square"/>
     </g>
     <g id="line2d_12">
      <g>
       <use xlink:href="#m0b371818fa" x="548.208" y="348.192" style="stroke: #000000; stroke-width: 0.8"/>
      </g>
     </g>
     <g id="text_6">
      <text style="font: 10px 'DejaVu Sans', 'Bitstream Vera Sans', 'Computer Modern Sans Serif', 'Lucida Grande', 'Verdana', 'Geneva', 'Lucid', 'Arial', 'Helvetica', 'Avant Garde', sans-serif; text-anchor: middle" x="548.208" y="362.790438" transform="rotate(-0 548.208 362.790438)">5</text>
     </g>
    </g>
    <g id="xtick_7">
     <g id="line2d_13">
      <path d="M 642.96 348.192 
L 642.96 93.744 
" clip-path="url(#pa83d255c2b)" style="fill: none; stroke: #dfe5e8; stroke-width: 0.65; stroke-linecap: square"/>
     </g>
     <g id="line2d_14">
      <g>
       <use xlink:href="#m0b371818fa" x="642.96" y="348.192" style="stroke: #000000; stroke-width: 0.8"/>
      </g>
     </g>
     <g id="text_7">
      <text style="font: 10px 'DejaVu Sans', 'Bitstream Vera Sans', 'Computer Modern Sans Serif', 'Lucida Grande', 'Verdana', 'Geneva', 'Lucid', 'Arial', 'Helvetica', 'Avant Garde', sans-serif; text-anchor: middle" x="642.96" y="362.790438" transform="rotate(-0 642.96 362.790438)">6</text>
     </g>
    </g>
    <g id="text_8">
     <text style="font: 10px 'DejaVu Sans', 'Bitstream Vera Sans', 'Computer Modern Sans Serif', 'Lucida Grande', 'Verdana', 'Geneva', 'Lucid', 'Arial', 'Helvetica', 'Avant Garde', sans-serif; text-anchor: middle" x="358.704" y="376.468563" transform="rotate(-0 358.704 376.468563)">sUCS dE threshold</text>
    </g>
   </g>
   <g id="matplotlib.axis_2">
    <g id="ytick_1">
     <g id="line2d_15">
      <path d="M 74.448 348.192 
L 642.96 348.192 
" clip-path="url(#pa83d255c2b)" style="fill: none; stroke: #dfe5e8; stroke-width: 0.65; stroke-linecap: square"/>
     </g>
     <g id="line2d_16">
      <defs>
       <path id="m714de2e93d" d="M 0 0 
L -3.5 0 
" style="stroke: #000000; stroke-width: 0.8"/>
      </defs>
      <g>
       <use xlink:href="#m714de2e93d" x="74.448" y="348.192" style="stroke: #000000; stroke-width: 0.8"/>
      </g>
     </g>
     <g id="text_9">
      <text style="font: 10px 'DejaVu Sans', 'Bitstream Vera Sans', 'Computer Modern Sans Serif', 'Lucida Grande', 'Verdana', 'Geneva', 'Lucid', 'Arial', 'Helvetica', 'Avant Garde', sans-serif; text-anchor: end" x="67.448" y="351.991219" transform="rotate(-0 67.448 351.991219)">0</text>
     </g>
    </g>
    <g id="ytick_2">
     <g id="line2d_17">
      <path d="M 74.448 297.3024 
L 642.96 297.3024 
" clip-path="url(#pa83d255c2b)" style="fill: none; stroke: #dfe5e8; stroke-width: 0.65; stroke-linecap: square"/>
     </g>
     <g id="line2d_18">
      <g>
       <use xlink:href="#m714de2e93d" x="74.448" y="297.3024" style="stroke: #000000; stroke-width: 0.8"/>
      </g>
     </g>
     <g id="text_10">
      <text style="font: 10px 'DejaVu Sans', 'Bitstream Vera Sans', 'Computer Modern Sans Serif', 'Lucida Grande', 'Verdana', 'Geneva', 'Lucid', 'Arial', 'Helvetica', 'Avant Garde', sans-serif; text-anchor: end" x="67.448" y="301.101619" transform="rotate(-0 67.448 301.101619)">20</text>
     </g>
    </g>
    <g id="ytick_3">
     <g id="line2d_19">
      <path d="M 74.448 246.4128 
L 642.96 246.4128 
" clip-path="url(#pa83d255c2b)" style="fill: none; stroke: #dfe5e8; stroke-width: 0.65; stroke-linecap: square"/>
     </g>
     <g id="line2d_20">
      <g>
       <use xlink:href="#m714de2e93d" x="74.448" y="246.4128" style="stroke: #000000; stroke-width: 0.8"/>
      </g>
     </g>
     <g id="text_11">
      <text style="font: 10px 'DejaVu Sans', 'Bitstream Vera Sans', 'Computer Modern Sans Serif', 'Lucida Grande', 'Verdana', 'Geneva', 'Lucid', 'Arial', 'Helvetica', 'Avant Garde', sans-serif; text-anchor: end" x="67.448" y="250.212019" transform="rotate(-0 67.448 250.212019)">40</text>
     </g>
    </g>
    <g id="ytick_4">
     <g id="line2d_21">
      <path d="M 74.448 195.5232 
L 642.96 195.5232 
" clip-path="url(#pa83d255c2b)" style="fill: none; stroke: #dfe5e8; stroke-width: 0.65; stroke-linecap: square"/>
     </g>
     <g id="line2d_22">
      <g>
       <use xlink:href="#m714de2e93d" x="74.448" y="195.5232" style="stroke: #000000; stroke-width: 0.8"/>
      </g>
     </g>
     <g id="text_12">
      <text style="font: 10px 'DejaVu Sans', 'Bitstream Vera Sans', 'Computer Modern Sans Serif', 'Lucida Grande', 'Verdana', 'Geneva', 'Lucid', 'Arial', 'Helvetica', 'Avant Garde', sans-serif; text-anchor: end" x="67.448" y="199.322419" transform="rotate(-0 67.448 199.322419)">60</text>
     </g>
    </g>
    <g id="ytick_5">
     <g id="line2d_23">
      <path d="M 74.448 144.6336 
L 642.96 144.6336 
" clip-path="url(#pa83d255c2b)" style="fill: none; stroke: #dfe5e8; stroke-width: 0.65; stroke-linecap: square"/>
     </g>
     <g id="line2d_24">
      <g>
       <use xlink:href="#m714de2e93d" x="74.448" y="144.6336" style="stroke: #000000; stroke-width: 0.8"/>
      </g>
     </g>
     <g id="text_13">
      <text style="font: 10px 'DejaVu Sans', 'Bitstream Vera Sans', 'Computer Modern Sans Serif', 'Lucida Grande', 'Verdana', 'Geneva', 'Lucid', 'Arial', 'Helvetica', 'Avant Garde', sans-serif; text-anchor: end" x="67.448" y="148.432819" transform="rotate(-0 67.448 148.432819)">80</text>
     </g>
    </g>
    <g id="ytick_6">
     <g id="line2d_25">
      <path d="M 74.448 93.744 
L 642.96 93.744 
" clip-path="url(#pa83d255c2b)" style="fill: none; stroke: #dfe5e8; stroke-width: 0.65; stroke-linecap: square"/>
     </g>
     <g id="line2d_26">
      <g>
       <use xlink:href="#m714de2e93d" x="74.448" y="93.744" style="stroke: #000000; stroke-width: 0.8"/>
      </g>
     </g>
     <g id="text_14">
      <text style="font: 10px 'DejaVu Sans', 'Bitstream Vera Sans', 'Computer Modern Sans Serif', 'Lucida Grande', 'Verdana', 'Geneva', 'Lucid', 'Arial', 'Helvetica', 'Avant Garde', sans-serif; text-anchor: end" x="67.448" y="97.543219" transform="rotate(-0 67.448 97.543219)">100</text>
     </g>
    </g>
    <g id="text_15">
     <text style="font: 10px 'DejaVu Sans', 'Bitstream Vera Sans', 'Computer Modern Sans Serif', 'Lucida Grande', 'Verdana', 'Geneva', 'Lucid', 'Arial', 'Helvetica', 'Avant Garde', sans-serif; text-anchor: middle" x="42.280812" y="220.968" transform="rotate(-90 42.280812 220.968)">observers%</text>
    </g>
   </g>
   <g id="line2d_27">
    <path d="M 74.448 348.192 
L 123.71904 348.192 
L 125.61408 344.929846 
L 127.50912 342.736329 
L 129.40416 342.736329 
L 131.2992 341.105252 
L 135.08928 341.105252 
L 136.98432 339.474175 
L 140.7744 339.474175 
L 142.66944 337.280658 
L 144.56448 335.649581 
L 150.2496 335.649581 
L 152.14464 333.456064 
L 154.03968 331.824987 
L 155.93472 331.824987 
L 157.82976 328.000393 
L 159.7248 328.000393 
L 161.61984 326.369316 
L 167.30496 326.369316 
L 169.2 323.107162 
L 171.09504 318.213931 
L 172.99008 318.213931 
L 174.88512 311.689623 
L 178.6752 311.689623 
L 180.57024 309.496106 
L 182.46528 306.233952 
L 184.36032 306.233952 
L 186.25536 302.971798 
L 188.1504 301.340721 
L 190.04544 301.340721 
L 191.94048 297.516127 
L 193.83552 294.253973 
L 197.6256 290.99182 
L 212.78592 290.99182 
L 214.68096 288.798302 
L 220.36608 283.905072 
L 224.15616 283.905072 
L 226.0512 282.273995 
L 227.94624 282.273995 
L 229.84128 280.642918 
L 231.73632 277.380764 
L 235.5264 277.380764 
L 239.31648 269.731576 
L 241.21152 269.731576 
L 243.10656 268.100499 
L 245.0016 268.100499 
L 246.89664 266.469422 
L 248.79168 263.207268 
L 250.68672 261.576191 
L 252.58176 261.576191 
L 254.4768 259.945114 
L 258.26688 259.945114 
L 260.16192 257.751597 
L 262.05696 256.12052 
L 265.84704 256.12052 
L 267.74208 254.489443 
L 269.63712 252.295926 
L 271.53216 250.664849 
L 277.21728 250.664849 
L 279.11232 249.033772 
L 284.79744 249.033772 
L 286.69248 247.402695 
L 288.58752 245.209178 
L 290.48256 245.209178 
L 292.3776 243.01566 
L 296.16768 239.753507 
L 298.06272 239.753507 
L 303.74784 234.860276 
L 305.64288 234.860276 
L 307.53792 233.229199 
L 309.43296 233.229199 
L 311.328 228.842164 
L 313.22304 228.842164 
L 315.11808 227.211088 
L 322.69824 227.211088 
L 324.59328 225.580011 
L 326.48832 225.580011 
L 328.38336 223.948934 
L 330.2784 223.948934 
L 332.17344 220.12434 
L 335.96352 216.862186 
L 337.85856 214.668668 
L 341.64864 214.668668 
L 343.54368 213.037592 
L 345.43872 213.037592 
L 347.33376 209.775438 
L 351.12384 209.775438 
L 353.01888 208.144361 
L 368.1792 208.144361 
L 370.07424 206.513284 
L 375.75936 206.513284 
L 377.6544 204.319767 
L 383.33952 204.319767 
L 385.23456 200.495172 
L 404.18496 200.495172 
L 407.97504 197.233019 
L 409.87008 195.039501 
L 426.92544 195.039501 
L 428.82048 193.408424 
L 432.61056 193.408424 
L 434.5056 191.777347 
L 440.19072 191.777347 
L 442.08576 187.952753 
L 443.9808 186.321676 
L 445.87584 186.321676 
L 447.77088 184.690599 
L 451.56096 184.690599 
L 453.456 182.497082 
L 455.35104 182.497082 
L 457.24608 180.866005 
L 459.14112 178.672488 
L 476.19648 178.672488 
L 478.09152 177.041411 
L 493.25184 177.041411 
L 495.14688 174.847894 
L 506.51712 174.847894 
L 508.41216 172.654377 
L 529.2576 172.654377 
L 531.15264 170.460859 
L 536.83776 170.460859 
L 538.7328 168.267342 
L 570.94848 168.267342 
L 572.84352 166.636265 
L 574.73856 162.249231 
L 588.00384 162.249231 
L 589.89888 160.618154 
L 603.16416 160.618154 
L 605.0592 158.424637 
L 637.27488 158.424637 
L 639.16992 156.231119 
L 642.96 156.231119 
L 642.96 156.231119 
" clip-path="url(#pa83d255c2b)" style="fill: none; stroke: #252525; stroke-width: 2.5; stroke-linecap: square"/>
   </g>
   <g id="line2d_28">
    <path d="M 74.448 348.192 
L 89.60832 348.192 
L 91.50336 345.998483 
L 123.71904 345.998483 
L 125.61408 344.367406 
L 127.50912 344.367406 
L 129.40416 342.736329 
L 135.08928 342.736329 
L 136.98432 338.911735 
L 152.14464 338.911735 
L 154.03968 337.280658 
L 155.93472 337.280658 
L 157.82976 335.649581 
L 159.7248 333.456064 
L 161.61984 333.456064 
L 163.51488 331.824987 
L 165.40992 331.824987 
L 167.30496 330.19391 
L 172.99008 330.19391 
L 174.88512 328.562833 
L 178.6752 328.562833 
L 180.57024 326.931756 
L 186.25536 326.931756 
L 188.1504 319.282568 
L 197.6256 319.282568 
L 199.52064 317.651491 
L 201.41568 317.651491 
L 203.31072 315.457973 
L 205.20576 313.826897 
L 216.576 313.826897 
L 220.36608 310.564743 
L 224.15616 310.564743 
L 226.0512 306.740149 
L 229.84128 303.477995 
L 231.73632 303.477995 
L 233.63136 299.653401 
L 235.5264 295.266366 
L 239.31648 292.004212 
L 243.10656 292.004212 
L 245.0016 289.810695 
L 246.89664 285.986101 
L 260.16192 285.986101 
L 262.05696 280.53043 
L 263.952 278.336912 
L 267.74208 278.336912 
L 271.53216 275.074759 
L 273.4272 275.074759 
L 275.32224 273.443682 
L 279.11232 273.443682 
L 281.00736 271.250164 
L 282.9024 271.250164 
L 286.69248 267.988011 
L 288.58752 267.988011 
L 290.48256 266.356934 
L 296.16768 266.356934 
L 298.06272 261.969899 
L 299.95776 261.969899 
L 301.8528 259.776382 
L 311.328 259.776382 
L 313.22304 255.389347 
L 318.90816 250.496117 
L 328.38336 250.496117 
L 330.2784 247.233963 
L 332.17344 247.233963 
L 334.06848 245.040446 
L 337.85856 245.040446 
L 339.7536 243.409369 
L 341.64864 239.584775 
L 349.2288 239.584775 
L 351.12384 237.391257 
L 356.80896 237.391257 
L 358.704 233.566663 
L 362.49408 233.566663 
L 366.28416 230.304509 
L 371.96928 230.304509 
L 373.86432 228.673432 
L 375.75936 228.673432 
L 377.6544 225.411279 
L 385.23456 225.411279 
L 387.1296 223.217761 
L 389.02464 223.217761 
L 390.91968 219.955607 
L 400.39488 219.955607 
L 402.28992 218.324531 
L 406.08 218.324531 
L 407.97504 215.062377 
L 409.87008 215.062377 
L 411.76512 211.237782 
L 413.66016 211.237782 
L 417.45024 206.850748 
L 419.34528 203.588594 
L 421.24032 201.957517 
L 423.13536 201.957517 
L 425.0304 200.32644 
L 432.61056 200.32644 
L 434.5056 198.695363 
L 443.9808 198.695363 
L 445.87584 197.064286 
L 457.24608 197.064286 
L 459.14112 194.870769 
L 461.03616 191.046175 
L 462.9312 191.046175 
L 464.82624 189.415098 
L 468.61632 189.415098 
L 470.51136 187.784021 
L 478.09152 187.784021 
L 479.98656 186.152944 
L 481.8816 183.959427 
L 483.77664 183.959427 
L 487.56672 179.572393 
L 498.93696 179.572393 
L 500.832 175.747798 
L 502.72704 175.747798 
L 504.62208 173.554281 
L 510.3072 173.554281 
L 512.20224 171.923204 
L 515.99232 171.923204 
L 517.88736 169.729687 
L 519.7824 169.729687 
L 521.67744 168.09861 
L 529.2576 168.09861 
L 533.04768 164.836456 
L 540.62784 164.836456 
L 542.52288 163.205379 
L 544.41792 161.011862 
L 567.1584 161.011862 
L 570.94848 156.624828 
L 572.84352 156.624828 
L 574.73856 154.43131 
L 578.52864 154.43131 
L 580.42368 152.800233 
L 584.21376 152.800233 
L 586.1088 148.975639 
L 595.584 148.975639 
L 597.47904 146.782122 
L 603.16416 146.782122 
L 605.0592 145.151045 
L 606.95424 145.151045 
L 608.84928 143.519968 
L 622.11456 143.519968 
L 624.0096 141.888891 
L 627.79968 141.888891 
L 629.69472 139.695374 
L 642.96 139.695374 
L 642.96 139.695374 
" clip-path="url(#pa83d255c2b)" style="fill: none; stroke: #3b83b4; stroke-width: 1.35; stroke-linecap: square"/>
   </g>
   <g id="line2d_29">
    <path d="M 74.448 348.192 
L 87.71328 348.192 
L 89.60832 346.560923 
L 106.66368 346.560923 
L 108.55872 344.929846 
L 112.3488 344.929846 
L 116.13888 341.667692 
L 121.824 341.667692 
L 123.71904 340.036615 
L 131.2992 340.036615 
L 133.19424 338.405538 
L 135.08928 338.405538 
L 138.87936 335.143385 
L 140.7744 332.949867 
L 152.14464 332.949867 
L 154.03968 331.31879 
L 165.40992 331.31879 
L 169.2 328.056637 
L 176.78016 328.056637 
L 178.6752 326.42556 
L 180.57024 324.232042 
L 182.46528 324.232042 
L 184.36032 320.407448 
L 186.25536 320.407448 
L 188.1504 317.145294 
L 193.83552 317.145294 
L 195.73056 315.514218 
L 197.6256 312.252064 
L 199.52064 310.620987 
L 207.1008 310.620987 
L 210.89088 307.358833 
L 212.78592 307.358833 
L 214.68096 305.727756 
L 224.15616 305.727756 
L 226.0512 304.096679 
L 227.94624 304.096679 
L 231.73632 300.834525 
L 235.5264 300.834525 
L 239.31648 297.572371 
L 252.58176 297.572371 
L 254.4768 295.941294 
L 256.37184 295.941294 
L 260.16192 292.679141 
L 265.84704 292.679141 
L 267.74208 288.292106 
L 269.63712 285.029952 
L 271.53216 285.029952 
L 273.4272 282.836435 
L 277.21728 282.836435 
L 279.11232 281.205358 
L 282.9024 281.205358 
L 286.69248 277.943204 
L 292.3776 277.943204 
L 294.27264 276.312127 
L 296.16768 276.312127 
L 298.06272 274.68105 
L 303.74784 274.68105 
L 305.64288 272.487533 
L 317.01312 272.487533 
L 320.8032 269.225379 
L 326.48832 269.225379 
L 328.38336 267.594302 
L 337.85856 267.594302 
L 339.7536 264.332149 
L 341.64864 260.507554 
L 343.54368 260.507554 
L 345.43872 258.314037 
L 354.91392 258.314037 
L 356.80896 256.68296 
L 362.49408 256.68296 
L 364.38912 255.051883 
L 371.96928 255.051883 
L 375.75936 251.789729 
L 377.6544 247.965135 
L 379.54944 247.965135 
L 385.23456 243.071905 
L 387.1296 240.878387 
L 389.02464 240.878387 
L 390.91968 239.24731 
L 394.70976 239.24731 
L 396.6048 237.053793 
L 398.49984 237.053793 
L 400.39488 233.229199 
L 406.08 233.229199 
L 407.97504 231.598122 
L 413.66016 231.598122 
L 415.5552 229.404605 
L 426.92544 229.404605 
L 428.82048 227.211088 
L 436.40064 227.211088 
L 438.29568 225.580011 
L 442.08576 225.580011 
L 443.9808 223.948934 
L 449.66592 223.948934 
L 451.56096 220.68678 
L 459.14112 220.68678 
L 461.03616 218.493263 
L 462.9312 216.862186 
L 464.82624 216.862186 
L 466.72128 215.231109 
L 478.09152 215.231109 
L 479.98656 211.968955 
L 493.25184 211.968955 
L 495.14688 210.337878 
L 498.93696 210.337878 
L 500.832 208.706801 
L 504.62208 208.706801 
L 508.41216 205.444647 
L 512.20224 205.444647 
L 514.09728 203.81357 
L 515.99232 203.81357 
L 517.88736 201.620053 
L 521.67744 201.620053 
L 523.57248 199.426536 
L 525.46752 199.426536 
L 527.36256 197.233019 
L 531.15264 197.233019 
L 533.04768 195.601942 
L 536.83776 195.601942 
L 544.41792 189.077634 
L 551.99808 189.077634 
L 555.78816 185.81548 
L 559.57824 185.81548 
L 561.47328 184.184403 
L 593.68896 184.184403 
L 595.584 181.990886 
L 616.42944 181.990886 
L 618.32448 179.797369 
L 642.96 179.797369 
L 642.96 179.797369 
" clip-path="url(#pa83d255c2b)" style="fill: none; stroke-dasharray: 4.995,2.16; stroke-dashoffset: 0; stroke: #c38a19; stroke-width: 1.35"/>
   </g>
   <g id="line2d_30">
    <path d="M 74.448 348.192 
L 93.3984 348.192 
L 95.29344 346.560923 
L 116.13888 346.560923 
L 119.92896 343.298769 
L 123.71904 343.298769 
L 125.61408 341.667692 
L 129.40416 341.667692 
L 131.2992 340.036615 
L 136.98432 340.036615 
L 138.87936 336.774462 
L 142.66944 336.774462 
L 144.56448 333.512308 
L 148.35456 333.512308 
L 150.2496 331.881231 
L 152.14464 328.619077 
L 155.93472 325.356923 
L 157.82976 321.532329 
L 159.7248 319.901252 
L 161.61984 319.901252 
L 163.51488 318.270175 
L 165.40992 316.076658 
L 188.1504 316.076658 
L 191.94048 312.814504 
L 205.20576 312.814504 
L 207.1008 310.620987 
L 210.89088 307.358833 
L 212.78592 307.358833 
L 214.68096 301.903162 
L 216.576 299.709645 
L 220.36608 299.709645 
L 222.26112 294.253973 
L 235.5264 294.253973 
L 237.42144 290.99182 
L 245.0016 290.99182 
L 246.89664 289.360743 
L 250.68672 289.360743 
L 252.58176 287.167225 
L 254.4768 287.167225 
L 256.37184 283.905072 
L 258.26688 282.273995 
L 262.05696 282.273995 
L 263.952 280.642918 
L 265.84704 280.642918 
L 267.74208 279.011841 
L 271.53216 279.011841 
L 275.32224 275.749687 
L 279.11232 275.749687 
L 281.00736 274.11861 
L 282.9024 270.856456 
L 286.69248 270.856456 
L 292.3776 265.963225 
L 294.27264 263.769708 
L 296.16768 263.769708 
L 298.06272 262.138631 
L 303.74784 262.138631 
L 305.64288 259.945114 
L 320.8032 259.945114 
L 322.69824 258.314037 
L 324.59328 258.314037 
L 326.48832 256.68296 
L 328.38336 254.489443 
L 332.17344 251.227289 
L 339.7536 251.227289 
L 341.64864 249.596212 
L 343.54368 249.596212 
L 345.43872 247.402695 
L 349.2288 247.402695 
L 351.12384 245.209178 
L 353.01888 245.209178 
L 358.704 240.315947 
L 360.59904 238.12243 
L 362.49408 236.491353 
L 379.54944 236.491353 
L 381.44448 234.297836 
L 385.23456 234.297836 
L 387.1296 232.666759 
L 392.81472 232.666759 
L 394.70976 231.035682 
L 398.49984 231.035682 
L 404.18496 226.142451 
L 406.08 226.142451 
L 407.97504 222.317857 
L 413.66016 222.317857 
L 415.5552 220.12434 
L 417.45024 220.12434 
L 419.34528 218.493263 
L 421.24032 215.231109 
L 438.29568 215.231109 
L 440.19072 213.600032 
L 445.87584 213.600032 
L 447.77088 210.337878 
L 455.35104 210.337878 
L 459.14112 207.075724 
L 464.82624 207.075724 
L 466.72128 204.882207 
L 468.61632 204.882207 
L 470.51136 203.25113 
L 472.4064 203.25113 
L 474.30144 201.057613 
L 476.19648 201.057613 
L 478.09152 198.864095 
L 483.77664 198.864095 
L 485.67168 197.233019 
L 489.46176 197.233019 
L 491.3568 195.601942 
L 497.04192 195.601942 
L 502.72704 190.708711 
L 506.51712 190.708711 
L 508.41216 189.077634 
L 514.09728 189.077634 
L 517.88736 185.81548 
L 542.52288 185.81548 
L 544.41792 183.621963 
L 565.26336 183.621963 
L 567.1584 181.428446 
L 582.31872 181.428446 
L 584.21376 179.797369 
L 606.95424 179.797369 
L 608.84928 177.603851 
L 612.63936 177.603851 
L 616.42944 173.216817 
L 618.32448 171.58574 
L 622.11456 171.58574 
L 624.0096 169.954663 
L 642.96 169.954663 
L 642.96 169.954663 
" clip-path="url(#pa83d255c2b)" style="fill: none; stroke-dasharray: 1.35,2.2275; stroke-dashoffset: 0; stroke: #7d8a92; stroke-width: 1.35"/>
   </g>
   <g id="line2d_31">
    <path d="M 74.448 348.192 
L 171.09504 348.192 
L 172.99008 345.998483 
L 186.25536 345.998483 
L 188.1504 343.804966 
L 195.73056 343.804966 
L 197.6256 342.173889 
L 199.52064 338.911735 
L 208.99584 338.911735 
L 212.78592 335.649581 
L 214.68096 333.456064 
L 218.47104 333.456064 
L 220.36608 331.824987 
L 222.26112 331.824987 
L 224.15616 330.19391 
L 226.0512 326.931756 
L 227.94624 326.931756 
L 229.84128 325.300679 
L 231.73632 322.038525 
L 235.5264 322.038525 
L 237.42144 320.407448 
L 241.21152 320.407448 
L 243.10656 317.145294 
L 248.79168 317.145294 
L 250.68672 315.514218 
L 263.952 315.514218 
L 265.84704 313.883141 
L 269.63712 313.883141 
L 273.4272 310.620987 
L 284.79744 310.620987 
L 290.48256 305.727756 
L 292.3776 305.727756 
L 296.16768 302.465602 
L 298.06272 302.465602 
L 299.95776 297.572371 
L 309.43296 297.572371 
L 311.328 295.941294 
L 332.17344 295.941294 
L 334.06848 294.310218 
L 335.96352 294.310218 
L 339.7536 291.048064 
L 341.64864 291.048064 
L 343.54368 289.416987 
L 345.43872 287.223469 
L 347.33376 287.223469 
L 349.2288 283.398875 
L 351.12384 283.398875 
L 354.91392 280.136721 
L 358.704 280.136721 
L 360.59904 276.312127 
L 362.49408 276.312127 
L 364.38912 274.68105 
L 366.28416 271.418897 
L 377.6544 271.418897 
L 379.54944 269.78782 
L 381.44448 269.78782 
L 383.33952 265.963225 
L 385.23456 264.332149 
L 406.08 264.332149 
L 407.97504 261.069995 
L 409.87008 261.069995 
L 411.76512 257.245401 
L 417.45024 257.245401 
L 419.34528 253.983247 
L 421.24032 252.35217 
L 425.0304 252.35217 
L 426.92544 247.965135 
L 428.82048 246.334058 
L 436.40064 246.334058 
L 438.29568 244.702981 
L 453.456 244.702981 
L 455.35104 243.071905 
L 457.24608 243.071905 
L 459.14112 240.878387 
L 461.03616 239.24731 
L 468.61632 239.24731 
L 470.51136 237.616233 
L 479.98656 237.616233 
L 481.8816 233.229199 
L 483.77664 231.598122 
L 485.67168 231.598122 
L 487.56672 229.967045 
L 489.46176 229.967045 
L 491.3568 227.773528 
L 497.04192 227.773528 
L 498.93696 226.142451 
L 506.51712 226.142451 
L 508.41216 223.948934 
L 512.20224 223.948934 
L 514.09728 222.317857 
L 521.67744 222.317857 
L 523.57248 219.055703 
L 527.36256 219.055703 
L 529.2576 215.793549 
L 536.83776 215.793549 
L 538.7328 214.162472 
L 540.62784 211.968955 
L 544.41792 211.968955 
L 546.31296 210.337878 
L 559.57824 210.337878 
L 561.47328 208.706801 
L 563.36832 205.444647 
L 569.05344 205.444647 
L 570.94848 203.81357 
L 580.42368 203.81357 
L 582.31872 202.182493 
L 589.89888 202.182493 
L 591.79392 197.795459 
L 595.584 197.795459 
L 597.47904 196.164382 
L 599.37408 196.164382 
L 601.26912 194.533305 
L 605.0592 194.533305 
L 606.95424 192.339788 
L 608.84928 192.339788 
L 612.63936 189.077634 
L 614.5344 189.077634 
L 620.21952 184.184403 
L 642.96 184.184403 
L 642.96 184.184403 
" clip-path="url(#pa83d255c2b)" style="fill: none; stroke-dasharray: 8.64,2.16,1.35,2.16; stroke-dashoffset: 0; stroke: #d0526a; stroke-width: 1.35"/>
   </g>
   <g id="line2d_32">
    <path d="M 74.448 348.192 
L 93.3984 348.192 
L 95.29344 345.998483 
L 114.24384 345.998483 
L 116.13888 343.804966 
L 118.03392 343.804966 
L 119.92896 341.611448 
L 146.45952 341.611448 
L 148.35456 339.417931 
L 157.82976 339.417931 
L 159.7248 337.224414 
L 169.2 337.224414 
L 171.09504 335.030897 
L 176.78016 335.030897 
L 178.6752 332.837379 
L 186.25536 332.837379 
L 188.1504 330.643862 
L 199.52064 330.643862 
L 201.41568 328.450345 
L 229.84128 328.450345 
L 231.73632 326.256828 
L 243.10656 326.256828 
L 245.0016 321.869793 
L 248.79168 321.869793 
L 250.68672 317.482759 
L 254.4768 317.482759 
L 256.37184 315.289241 
L 260.16192 315.289241 
L 262.05696 313.095724 
L 267.74208 313.095724 
L 271.53216 308.70869 
L 296.16768 308.70869 
L 298.06272 306.515172 
L 301.8528 306.515172 
L 305.64288 302.128138 
L 318.90816 302.128138 
L 320.8032 299.934621 
L 322.69824 299.934621 
L 324.59328 297.741103 
L 332.17344 297.741103 
L 334.06848 295.547586 
L 339.7536 295.547586 
L 341.64864 293.354069 
L 343.54368 293.354069 
L 345.43872 291.160552 
L 358.704 291.160552 
L 360.59904 288.967034 
L 371.96928 288.967034 
L 373.86432 287.335958 
L 383.33952 287.335958 
L 385.23456 285.14244 
L 387.1296 285.14244 
L 389.02464 280.755406 
L 415.5552 280.755406 
L 417.45024 278.561889 
L 423.13536 278.561889 
L 425.0304 276.930812 
L 440.19072 276.930812 
L 445.87584 270.35026 
L 451.56096 270.35026 
L 453.456 268.156743 
L 455.35104 268.156743 
L 457.24608 265.963225 
L 481.8816 265.963225 
L 483.77664 263.769708 
L 500.832 263.769708 
L 502.72704 261.576191 
L 504.62208 259.945114 
L 536.83776 259.945114 
L 538.7328 258.314037 
L 542.52288 258.314037 
L 544.41792 256.68296 
L 548.208 256.68296 
L 550.10304 255.051883 
L 553.89312 255.051883 
L 555.78816 253.420806 
L 559.57824 253.420806 
L 561.47328 251.227289 
L 570.94848 251.227289 
L 574.73856 247.965135 
L 578.52864 247.965135 
L 580.42368 245.771618 
L 584.21376 245.771618 
L 586.1088 242.509464 
L 591.79392 242.509464 
L 593.68896 240.878387 
L 597.47904 240.878387 
L 599.37408 238.68487 
L 601.26912 238.68487 
L 603.16416 237.053793 
L 622.11456 237.053793 
L 624.0096 233.791639 
L 629.69472 233.791639 
L 631.58976 232.160562 
L 635.37984 232.160562 
L 637.27488 230.529485 
L 639.16992 227.267332 
L 642.96 227.267332 
L 642.96 227.267332 
" clip-path="url(#pa83d255c2b)" style="fill: none; stroke-dasharray: 6.75,2.7,1.35,2.7; stroke-dashoffset: 0; stroke: #2f8f84; stroke-width: 1.35"/>
   </g>
   <g id="patch_4">
    <path d="M 74.448 348.192 
L 74.448 93.744 
" style="fill: none; stroke: #000000; stroke-width: 0.8; stroke-linejoin: miter; stroke-linecap: square"/>
   </g>
   <g id="patch_5">
    <path d="M 74.448 348.192 
L 642.96 348.192 
" style="fill: none; stroke: #000000; stroke-width: 0.8; stroke-linejoin: miter; stroke-linecap: square"/>
   </g>
  </g>
  <g id="text_16">
   <text style="font: 18px 'DejaVu Sans', 'Bitstream Vera Sans', 'Computer Modern Sans Serif', 'Lucida Grande', 'Verdana', 'Geneva', 'Lucid', 'Arial', 'Helvetica', 'Avant Garde', sans-serif; text-anchor: start" x="74.448" y="38.229188" transform="rotate(-0 74.448 38.229188)">D65 Direct</text>
  </g>
  <g id="text_17">
   <text style="fill: #66747c; font: 10px 'DejaVu Sans', 'Bitstream Vera Sans', 'Computer Modern Sans Serif', 'Lucida Grande', 'Verdana', 'Geneva', 'Lucid', 'Arial', 'Helvetica', 'Avant Garde', sans-serif; text-anchor: start" x="74.448" y="64.728" transform="rotate(-0 74.448 64.728)">WOLED</text>
  </g>
  <g id="legend_1">
   <g id="line2d_33">
    <path d="M 185.17875 404.151391 
L 194.27875 404.151391 
L 203.37875 404.151391 
" style="fill: none; stroke: #252525; stroke-width: 2.5; stroke-linecap: square"/>
   </g>
   <g id="text_18">
    <text style="font: 9.1px 'DejaVu Sans', 'Bitstream Vera Sans', 'Computer Modern Sans Serif', 'Lucida Grande', 'Verdana', 'Geneva', 'Lucid', 'Arial', 'Helvetica', 'Avant Garde', sans-serif; text-anchor: start" x="210.65875" y="407.336391" transform="rotate(-0 210.65875 407.336391)">Potera CMF</text>
   </g>
   <g id="line2d_34">
    <path d="M 185.17875 417.508484 
L 194.27875 417.508484 
L 203.37875 417.508484 
" style="fill: none; stroke: #3b83b4; stroke-width: 1.35; stroke-linecap: square"/>
   </g>
   <g id="text_19">
    <text style="font: 9.1px 'DejaVu Sans', 'Bitstream Vera Sans', 'Computer Modern Sans Serif', 'Lucida Grande', 'Verdana', 'Geneva', 'Lucid', 'Arial', 'Helvetica', 'Avant Garde', sans-serif; text-anchor: start" x="210.65875" y="420.693484" transform="rotate(-0 210.65875 420.693484)">CIE 2015 2°</text>
   </g>
   <g id="line2d_35">
    <path d="M 282.931234 404.151391 
L 292.031234 404.151391 
L 301.131234 404.151391 
" style="fill: none; stroke-dasharray: 4.995,2.16; stroke-dashoffset: 0; stroke: #c38a19; stroke-width: 1.35"/>
   </g>
   <g id="text_20">
    <text style="font: 9.1px 'DejaVu Sans', 'Bitstream Vera Sans', 'Computer Modern Sans Serif', 'Lucida Grande', 'Verdana', 'Geneva', 'Lucid', 'Arial', 'Helvetica', 'Avant Garde', sans-serif; text-anchor: start" x="308.411234" y="407.336391" transform="rotate(-0 308.411234 407.336391)">CIE 2015 10°</text>
   </g>
   <g id="line2d_36">
    <path d="M 282.931234 417.508484 
L 292.031234 417.508484 
L 301.131234 417.508484 
" style="fill: none; stroke-dasharray: 1.35,2.2275; stroke-dashoffset: 0; stroke: #7d8a92; stroke-width: 1.35"/>
   </g>
   <g id="text_21">
    <text style="font: 9.1px 'DejaVu Sans', 'Bitstream Vera Sans', 'Computer Modern Sans Serif', 'Lucida Grande', 'Verdana', 'Geneva', 'Lucid', 'Arial', 'Helvetica', 'Avant Garde', sans-serif; text-anchor: start" x="308.411234" y="420.693484" transform="rotate(-0 308.411234 420.693484)">CIE 1964 10°</text>
   </g>
   <g id="line2d_37">
    <path d="M 386.473594 404.151391 
L 395.573594 404.151391 
L 404.673594 404.151391 
" style="fill: none; stroke-dasharray: 8.64,2.16,1.35,2.16; stroke-dashoffset: 0; stroke: #d0526a; stroke-width: 1.35"/>
   </g>
   <g id="text_22">
    <text style="font: 9.1px 'DejaVu Sans', 'Bitstream Vera Sans', 'Computer Modern Sans Serif', 'Lucida Grande', 'Verdana', 'Geneva', 'Lucid', 'Arial', 'Helvetica', 'Avant Garde', sans-serif; text-anchor: start" x="411.953594" y="407.336391" transform="rotate(-0 411.953594 407.336391)">CIE 1931 2°</text>
   </g>
   <g id="line2d_38">
    <path d="M 386.473594 417.508484 
L 395.573594 417.508484 
L 404.673594 417.508484 
" style="fill: none; stroke-dasharray: 6.75,2.7,1.35,2.7; stroke-dashoffset: 0; stroke: #2f8f84; stroke-width: 1.35"/>
   </g>
   <g id="text_23">
    <text style="font: 9.1px 'DejaVu Sans', 'Bitstream Vera Sans', 'Computer Modern Sans Serif', 'Lucida Grande', 'Verdana', 'Geneva', 'Lucid', 'Arial', 'Helvetica', 'Avant Garde', sans-serif; text-anchor: start" x="411.953594" y="420.693484" transform="rotate(-0 411.953594 420.693484)">Judd–Vos 1978 2°</text>
   </g>
  </g>
 </g>
 <defs>
  <clipPath id="pa83d255c2b">
   <rect x="74.448" y="93.744" width="568.512" height="254.448"/>
  </clipPath>
 </defs>
</svg>
