<?xml version="1.0" encoding="utf-8" standalone="no"?>
<!DOCTYPE svg PUBLIC "-//W3C//DTD SVG 1.1//EN"
  "http://www.w3.org/Graphics/SVG/1.1/DTD/svg11.dtd">
<svg xmlns:xlink="http://www.w3.org/1999/xlink" width="676.8pt" height="446.4pt" viewBox="0 0 676.8 446.4" xmlns="http://www.w3.org/2000/svg" version="1.1">
 <metadata>
  <rdf:RDF xmlns:dc="http://purl.org/dc/elements/1.1/" xmlns:cc="http://creativecommons.org/ns#" xmlns:rdf="http://www.w3.org/1999/02/22-rdf-syntax-ns#">
   <cc:Work>
    <dc:type rdf:resource="http://purl.org/dc/dcmitype/StillImage"/>
    <dc:date>2026-07-20T06:41:58.547305</dc:date>
    <dc:format>image/svg+xml</dc:format>
    <dc:creator>
     <cc:Agent>
      <dc:title>Matplotlib v3.9.4, https://matplotlib.org/</dc:title>
     </cc:Agent>
    </dc:creator>
   </cc:Work>
  </rdf:RDF>
 </metadata>
 <defs>
  <style type="text/css">*{stroke-linejoin: round; stroke-linecap: butt}</style>
 </defs>
 <g id="figure_1">
  <g id="patch_1">
   <path d="M 0 446.4 
L 676.8 446.4 
L 676.8 0 
L 0 0 
z
" style="fill: #ffffff"/>
  </g>
  <g id="axes_1">
   <g id="patch_2">
    <path d="M 74.448 348.192 
L 642.96 348.192 
L 642.96 93.744 
L 74.448 93.744 
z
" style="fill: #ffffff"/>
   </g>
   <g id="patch_3">
    <path d="M 169.2 348.192 
L 358.704 348.192 
L 358.704 93.744 
L 169.2 93.744 
z
" clip-path="url(#pb34bc83393)" style="fill: #e7f0ea; opacity: 0.58; stroke: #e7f0ea; stroke-linejoin: miter"/>
   </g>
   <g id="matplotlib.axis_1">
    <g id="xtick_1">
     <g id="line2d_1">
      <path d="M 74.448 348.192 
L 74.448 93.744 
" clip-path="url(#pb34bc83393)" style="fill: none; stroke: #dfe5e8; stroke-width: 0.65; stroke-linecap: square"/>
     </g>
     <g id="line2d_2">
      <defs>
       <path id="m4837046f6c" d="M 0 0 
L 0 3.5 
" style="stroke: #000000; stroke-width: 0.8"/>
      </defs>
      <g>
       <use xlink:href="#m4837046f6c" x="74.448" y="348.192" style="stroke: #000000; stroke-width: 0.8"/>
      </g>
     </g>
     <g id="text_1">
      <text style="font: 10px 'DejaVu Sans', 'Bitstream Vera Sans', 'Computer Modern Sans Serif', 'Lucida Grande', 'Verdana', 'Geneva', 'Lucid', 'Arial', 'Helvetica', 'Avant Garde', sans-serif; text-anchor: middle" x="74.448" y="362.790438" transform="rotate(-0 74.448 362.790438)">0</text>
     </g>
    </g>
    <g id="xtick_2">
     <g id="line2d_3">
      <path d="M 169.2 348.192 
L 169.2 93.744 
" clip-path="url(#pb34bc83393)" style="fill: none; stroke: #dfe5e8; stroke-width: 0.65; stroke-linecap: square"/>
     </g>
     <g id="line2d_4">
      <g>
       <use xlink:href="#m4837046f6c" x="169.2" y="348.192" style="stroke: #000000; stroke-width: 0.8"/>
      </g>
     </g>
     <g id="text_2">
      <text style="font: 10px 'DejaVu Sans', 'Bitstream Vera Sans', 'Computer Modern Sans Serif', 'Lucida Grande', 'Verdana', 'Geneva', 'Lucid', 'Arial', 'Helvetica', 'Avant Garde', sans-serif; text-anchor: middle" x="169.2" y="362.790438" transform="rotate(-0 169.2 362.790438)">1</text>
     </g>
    </g>
    <g id="xtick_3">
     <g id="line2d_5">
      <path d="M 263.952 348.192 
L 263.952 93.744 
" clip-path="url(#pb34bc83393)" style="fill: none; stroke: #dfe5e8; stroke-width: 0.65; stroke-linecap: square"/>
     </g>
     <g id="line2d_6">
      <g>
       <use xlink:href="#m4837046f6c" x="263.952" y="348.192" style="stroke: #000000; stroke-width: 0.8"/>
      </g>
     </g>
     <g id="text_3">
      <text style="font: 10px 'DejaVu Sans', 'Bitstream Vera Sans', 'Computer Modern Sans Serif', 'Lucida Grande', 'Verdana', 'Geneva', 'Lucid', 'Arial', 'Helvetica', 'Avant Garde', sans-serif; text-anchor: middle" x="263.952" y="362.790438" transform="rotate(-0 263.952 362.790438)">2</text>
     </g>
    </g>
    <g id="xtick_4">
     <g id="line2d_7">
      <path d="M 358.704 348.192 
L 358.704 93.744 
" clip-path="url(#pb34bc83393)" style="fill: none; stroke: #dfe5e8; stroke-width: 0.65; stroke-linecap: square"/>
     </g>
     <g id="line2d_8">
      <g>
       <use xlink:href="#m4837046f6c" x="358.704" y="348.192" style="stroke: #000000; stroke-width: 0.8"/>
      </g>
     </g>
     <g id="text_4">
      <text style="font: 10px 'DejaVu Sans', 'Bitstream Vera Sans', 'Computer Modern Sans Serif', 'Lucida Grande', 'Verdana', 'Geneva', 'Lucid', 'Arial', 'Helvetica', 'Avant Garde', sans-serif; text-anchor: middle" x="358.704" y="362.790438" transform="rotate(-0 358.704 362.790438)">3</text>
     </g>
    </g>
    <g id="xtick_5">
     <g id="line2d_9">
      <path d="M 453.456 348.192 
L 453.456 93.744 
" clip-path="url(#pb34bc83393)" style="fill: none; stroke: #dfe5e8; stroke-width: 0.65; stroke-linecap: square"/>
     </g>
     <g id="line2d_10">
      <g>
       <use xlink:href="#m4837046f6c" x="453.456" y="348.192" style="stroke: #000000; stroke-width: 0.8"/>
      </g>
     </g>
     <g id="text_5">
      <text style="font: 10px 'DejaVu Sans', 'Bitstream Vera Sans', 'Computer Modern Sans Serif', 'Lucida Grande', 'Verdana', 'Geneva', 'Lucid', 'Arial', 'Helvetica', 'Avant Garde', sans-serif; text-anchor: middle" x="453.456" y="362.790438" transform="rotate(-0 453.456 362.790438)">4</text>
     </g>
    </g>
    <g id="xtick_6">
     <g id="line2d_11">
      <path d="M 548.208 348.192 
L 548.208 93.744 
" clip-path="url(#pb34bc83393)" style="fill: none; stroke: #dfe5e8; stroke-width: 0.65; stroke-linecap: square"/>
     </g>
     <g id="line2d_12">
      <g>
       <use xlink:href="#m4837046f6c" x="548.208" y="348.192" style="stroke: #000000; stroke-width: 0.8"/>
      </g>
     </g>
     <g id="text_6">
      <text style="font: 10px 'DejaVu Sans', 'Bitstream Vera Sans', 'Computer Modern Sans Serif', 'Lucida Grande', 'Verdana', 'Geneva', 'Lucid', 'Arial', 'Helvetica', 'Avant Garde', sans-serif; text-anchor: middle" x="548.208" y="362.790438" transform="rotate(-0 548.208 362.790438)">5</text>
     </g>
    </g>
    <g id="xtick_7">
     <g id="line2d_13">
      <path d="M 642.96 348.192 
L 642.96 93.744 
" clip-path="url(#pb34bc83393)" style="fill: none; stroke: #dfe5e8; stroke-width: 0.65; stroke-linecap: square"/>
     </g>
     <g id="line2d_14">
      <g>
       <use xlink:href="#m4837046f6c" x="642.96" y="348.192" style="stroke: #000000; stroke-width: 0.8"/>
      </g>
     </g>
     <g id="text_7">
      <text style="font: 10px 'DejaVu Sans', 'Bitstream Vera Sans', 'Computer Modern Sans Serif', 'Lucida Grande', 'Verdana', 'Geneva', 'Lucid', 'Arial', 'Helvetica', 'Avant Garde', sans-serif; text-anchor: middle" x="642.96" y="362.790438" transform="rotate(-0 642.96 362.790438)">6</text>
     </g>
    </g>
    <g id="text_8">
     <text style="font: 10px 'DejaVu Sans', 'Bitstream Vera Sans', 'Computer Modern Sans Serif', 'Lucida Grande', 'Verdana', 'Geneva', 'Lucid', 'Arial', 'Helvetica', 'Avant Garde', sans-serif; text-anchor: middle" x="358.704" y="376.468563" transform="rotate(-0 358.704 376.468563)">sUCS dE threshold</text>
    </g>
   </g>
   <g id="matplotlib.axis_2">
    <g id="ytick_1">
     <g id="line2d_15">
      <path d="M 74.448 348.192 
L 642.96 348.192 
" clip-path="url(#pb34bc83393)" style="fill: none; stroke: #dfe5e8; stroke-width: 0.65; stroke-linecap: square"/>
     </g>
     <g id="line2d_16">
      <defs>
       <path id="m1e78985a91" d="M 0 0 
L -3.5 0 
" style="stroke: #000000; stroke-width: 0.8"/>
      </defs>
      <g>
       <use xlink:href="#m1e78985a91" x="74.448" y="348.192" style="stroke: #000000; stroke-width: 0.8"/>
      </g>
     </g>
     <g id="text_9">
      <text style="font: 10px 'DejaVu Sans', 'Bitstream Vera Sans', 'Computer Modern Sans Serif', 'Lucida Grande', 'Verdana', 'Geneva', 'Lucid', 'Arial', 'Helvetica', 'Avant Garde', sans-serif; text-anchor: end" x="67.448" y="351.991219" transform="rotate(-0 67.448 351.991219)">0</text>
     </g>
    </g>
    <g id="ytick_2">
     <g id="line2d_17">
      <path d="M 74.448 297.3024 
L 642.96 297.3024 
" clip-path="url(#pb34bc83393)" style="fill: none; stroke: #dfe5e8; stroke-width: 0.65; stroke-linecap: square"/>
     </g>
     <g id="line2d_18">
      <g>
       <use xlink:href="#m1e78985a91" x="74.448" y="297.3024" style="stroke: #000000; stroke-width: 0.8"/>
      </g>
     </g>
     <g id="text_10">
      <text style="font: 10px 'DejaVu Sans', 'Bitstream Vera Sans', 'Computer Modern Sans Serif', 'Lucida Grande', 'Verdana', 'Geneva', 'Lucid', 'Arial', 'Helvetica', 'Avant Garde', sans-serif; text-anchor: end" x="67.448" y="301.101619" transform="rotate(-0 67.448 301.101619)">20</text>
     </g>
    </g>
    <g id="ytick_3">
     <g id="line2d_19">
      <path d="M 74.448 246.4128 
L 642.96 246.4128 
" clip-path="url(#pb34bc83393)" style="fill: none; stroke: #dfe5e8; stroke-width: 0.65; stroke-linecap: square"/>
     </g>
     <g id="line2d_20">
      <g>
       <use xlink:href="#m1e78985a91" x="74.448" y="246.4128" style="stroke: #000000; stroke-width: 0.8"/>
      </g>
     </g>
     <g id="text_11">
      <text style="font: 10px 'DejaVu Sans', 'Bitstream Vera Sans', 'Computer Modern Sans Serif', 'Lucida Grande', 'Verdana', 'Geneva', 'Lucid', 'Arial', 'Helvetica', 'Avant Garde', sans-serif; text-anchor: end" x="67.448" y="250.212019" transform="rotate(-0 67.448 250.212019)">40</text>
     </g>
    </g>
    <g id="ytick_4">
     <g id="line2d_21">
      <path d="M 74.448 195.5232 
L 642.96 195.5232 
" clip-path="url(#pb34bc83393)" style="fill: none; stroke: #dfe5e8; stroke-width: 0.65; stroke-linecap: square"/>
     </g>
     <g id="line2d_22">
      <g>
       <use xlink:href="#m1e78985a91" x="74.448" y="195.5232" style="stroke: #000000; stroke-width: 0.8"/>
      </g>
     </g>
     <g id="text_12">
      <text style="font: 10px 'DejaVu Sans', 'Bitstream Vera Sans', 'Computer Modern Sans Serif', 'Lucida Grande', 'Verdana', 'Geneva', 'Lucid', 'Arial', 'Helvetica', 'Avant Garde', sans-serif; text-anchor: end" x="67.448" y="199.322419" transform="rotate(-0 67.448 199.322419)">60</text>
     </g>
    </g>
    <g id="ytick_5">
     <g id="line2d_23">
      <path d="M 74.448 144.6336 
L 642.96 144.6336 
" clip-path="url(#pb34bc83393)" style="fill: none; stroke: #dfe5e8; stroke-width: 0.65; stroke-linecap: square"/>
     </g>
     <g id="line2d_24">
      <g>
       <use xlink:href="#m1e78985a91" x="74.448" y="144.6336" style="stroke: #000000; stroke-width: 0.8"/>
      </g>
     </g>
     <g id="text_13">
      <text style="font: 10px 'DejaVu Sans', 'Bitstream Vera Sans', 'Computer Modern Sans Serif', 'Lucida Grande', 'Verdana', 'Geneva', 'Lucid', 'Arial', 'Helvetica', 'Avant Garde', sans-serif; text-anchor: end" x="67.448" y="148.432819" transform="rotate(-0 67.448 148.432819)">80</text>
     </g>
    </g>
    <g id="ytick_6">
     <g id="line2d_25">
      <path d="M 74.448 93.744 
L 642.96 93.744 
" clip-path="url(#pb34bc83393)" style="fill: none; stroke: #dfe5e8; stroke-width: 0.65; stroke-linecap: square"/>
     </g>
     <g id="line2d_26">
      <g>
       <use xlink:href="#m1e78985a91" x="74.448" y="93.744" style="stroke: #000000; stroke-width: 0.8"/>
      </g>
     </g>
     <g id="text_14">
      <text style="font: 10px 'DejaVu Sans', 'Bitstream Vera Sans', 'Computer Modern Sans Serif', 'Lucida Grande', 'Verdana', 'Geneva', 'Lucid', 'Arial', 'Helvetica', 'Avant Garde', sans-serif; text-anchor: end" x="67.448" y="97.543219" transform="rotate(-0 67.448 97.543219)">100</text>
     </g>
    </g>
    <g id="text_15">
     <text style="font: 10px 'DejaVu Sans', 'Bitstream Vera Sans', 'Computer Modern Sans Serif', 'Lucida Grande', 'Verdana', 'Geneva', 'Lucid', 'Arial', 'Helvetica', 'Avant Garde', sans-serif; text-anchor: middle" x="42.280812" y="220.968" transform="rotate(-90 42.280812 220.968)">observers%</text>
    </g>
   </g>
   <g id="line2d_27">
    <path d="M 74.448 348.192 
L 85.81824 348.192 
L 97.18848 338.405538 
L 99.08352 338.405538 
L 100.97856 336.774462 
L 112.3488 336.774462 
L 114.24384 334.580944 
L 116.13888 329.125273 
L 118.03392 326.931756 
L 119.92896 321.476085 
L 121.824 317.651491 
L 123.71904 316.020414 
L 125.61408 311.633379 
L 127.50912 305.052828 
L 131.2992 305.052828 
L 133.19424 303.421751 
L 136.98432 295.772562 
L 138.87936 295.772562 
L 140.7744 292.510408 
L 142.66944 288.123374 
L 144.56448 288.123374 
L 146.45952 284.86122 
L 148.35456 284.86122 
L 150.2496 278.843109 
L 154.03968 278.843109 
L 155.93472 275.580955 
L 157.82976 271.756361 
L 159.7248 266.86313 
L 161.61984 265.232053 
L 163.51488 265.232053 
L 165.40992 261.969899 
L 167.30496 258.145305 
L 169.2 252.127194 
L 171.09504 246.671523 
L 172.99008 246.671523 
L 174.88512 244.478005 
L 178.6752 244.478005 
L 180.57024 237.953698 
L 182.46528 234.129103 
L 184.36032 234.129103 
L 186.25536 227.548552 
L 188.1504 223.723958 
L 190.04544 222.092881 
L 191.94048 218.830727 
L 193.83552 213.375056 
L 197.6256 213.375056 
L 199.52064 211.181538 
L 201.41568 206.794504 
L 203.31072 206.794504 
L 205.20576 200.776393 
L 207.1008 200.776393 
L 208.99584 199.145316 
L 210.89088 195.883162 
L 212.78592 190.427491 
L 214.68096 188.796414 
L 216.576 180.078589 
L 218.47104 178.447512 
L 220.36608 172.991841 
L 224.15616 172.991841 
L 227.94624 169.729687 
L 231.73632 169.729687 
L 233.63136 168.09861 
L 235.5264 162.642939 
L 237.42144 161.011862 
L 239.31648 158.818345 
L 241.21152 155.556191 
L 243.10656 155.556191 
L 245.0016 150.10052 
L 252.58176 150.10052 
L 256.37184 146.838366 
L 258.26688 146.838366 
L 260.16192 142.451332 
L 265.84704 142.451332 
L 267.74208 140.820255 
L 269.63712 138.626737 
L 271.53216 134.239703 
L 273.4272 134.239703 
L 275.32224 130.415109 
L 277.21728 130.415109 
L 279.11232 128.784032 
L 294.27264 128.784032 
L 296.16768 126.590515 
L 298.06272 122.76592 
L 301.8528 122.76592 
L 303.74784 121.134844 
L 305.64288 117.310249 
L 311.328 117.310249 
L 313.22304 115.116732 
L 315.11808 115.116732 
L 317.01312 112.923215 
L 324.59328 112.923215 
L 326.48832 110.729698 
L 335.96352 110.729698 
L 337.85856 106.342663 
L 341.64864 101.955629 
L 343.54368 101.955629 
L 345.43872 99.762111 
L 351.12384 99.762111 
L 353.01888 98.131034 
L 356.80896 98.131034 
L 358.704 95.937517 
L 362.49408 95.937517 
L 364.38912 93.744 
L 642.96 93.744 
L 642.96 93.744 
" clip-path="url(#pb34bc83393)" style="fill: none; stroke: #252525; stroke-width: 2.5; stroke-linecap: square"/>
   </g>
   <g id="line2d_28">
    <path d="M 74.448 348.192 
L 95.29344 348.192 
L 97.18848 345.998483 
L 100.97856 345.998483 
L 102.8736 343.804966 
L 108.55872 343.804966 
L 110.45376 339.417931 
L 118.03392 339.417931 
L 119.92896 335.030897 
L 121.824 326.256828 
L 123.71904 326.256828 
L 125.61408 324.06331 
L 131.2992 324.06331 
L 133.19424 321.869793 
L 136.98432 321.869793 
L 138.87936 319.676276 
L 140.7744 319.676276 
L 142.66944 317.482759 
L 144.56448 317.482759 
L 146.45952 315.851682 
L 148.35456 315.851682 
L 150.2496 311.464647 
L 152.14464 311.464647 
L 154.03968 309.27113 
L 157.82976 309.27113 
L 163.51488 302.690578 
L 165.40992 298.303544 
L 167.30496 296.110027 
L 171.09504 296.110027 
L 174.88512 291.722992 
L 176.78016 285.14244 
L 178.6752 285.14244 
L 184.36032 278.561889 
L 186.25536 278.561889 
L 188.1504 274.174854 
L 190.04544 271.981337 
L 191.94048 267.594302 
L 193.83552 267.594302 
L 195.73056 265.400785 
L 197.6256 261.013751 
L 205.20576 252.239682 
L 207.1008 252.239682 
L 208.99584 250.046164 
L 210.89088 244.028053 
L 212.78592 240.203459 
L 214.68096 235.816424 
L 216.576 231.99183 
L 218.47104 227.604796 
L 220.36608 225.973719 
L 222.26112 222.711565 
L 226.0512 222.711565 
L 229.84128 219.449411 
L 231.73632 219.449411 
L 233.63136 217.818334 
L 235.5264 215.624817 
L 237.42144 215.624817 
L 239.31648 211.800223 
L 241.21152 210.169146 
L 245.0016 210.169146 
L 246.89664 207.975629 
L 263.952 207.975629 
L 267.74208 204.713475 
L 269.63712 204.713475 
L 271.53216 203.082398 
L 273.4272 199.820244 
L 275.32224 198.189167 
L 277.21728 198.189167 
L 279.11232 195.99565 
L 282.9024 195.99565 
L 284.79744 194.364573 
L 286.69248 191.102419 
L 288.58752 189.471342 
L 290.48256 189.471342 
L 292.3776 187.840265 
L 294.27264 187.840265 
L 299.95776 182.947034 
L 305.64288 182.947034 
L 307.53792 178.053804 
L 309.43296 176.422727 
L 313.22304 169.898419 
L 317.01312 169.898419 
L 318.90816 166.636265 
L 320.8032 166.636265 
L 322.69824 165.005188 
L 326.48832 165.005188 
L 328.38336 162.811671 
L 332.17344 162.811671 
L 334.06848 157.91844 
L 335.96352 156.287363 
L 339.7536 156.287363 
L 341.64864 153.02521 
L 343.54368 148.131979 
L 351.12384 148.131979 
L 353.01888 144.869825 
L 354.91392 144.869825 
L 360.59904 139.976594 
L 364.38912 133.452286 
L 366.28416 133.452286 
L 368.1792 128.559056 
L 370.07424 125.296902 
L 371.96928 123.665825 
L 373.86432 121.472308 
L 375.75936 121.472308 
L 379.54944 118.210154 
L 381.44448 114.948 
L 383.33952 113.316923 
L 389.02464 113.316923 
L 390.91968 111.685846 
L 392.81472 111.685846 
L 394.70976 106.792615 
L 406.08 106.792615 
L 407.97504 105.161538 
L 409.87008 105.161538 
L 411.76512 103.530462 
L 419.34528 103.530462 
L 421.24032 101.899385 
L 428.82048 101.899385 
L 430.71552 100.268308 
L 449.66592 100.268308 
L 451.56096 97.006154 
L 457.24608 97.006154 
L 459.14112 95.375077 
L 506.51712 95.375077 
L 508.41216 93.744 
L 642.96 93.744 
L 642.96 93.744 
" clip-path="url(#pb34bc83393)" style="fill: none; stroke: #3b83b4; stroke-width: 1.35; stroke-linecap: square"/>
   </g>
   <g id="line2d_29">
    <path d="M 74.448 348.192 
L 82.02816 348.192 
L 83.9232 346.560923 
L 89.60832 346.560923 
L 91.50336 343.298769 
L 93.3984 343.298769 
L 95.29344 338.405538 
L 100.97856 333.512308 
L 102.8736 333.512308 
L 104.76864 330.250154 
L 106.66368 330.250154 
L 108.55872 326.988 
L 112.3488 326.988 
L 116.13888 323.725846 
L 118.03392 320.463692 
L 119.92896 318.832615 
L 121.824 315.570462 
L 125.61408 312.308308 
L 127.50912 309.046154 
L 129.40416 307.415077 
L 131.2992 307.415077 
L 133.19424 305.784 
L 135.08928 305.784 
L 136.98432 299.259692 
L 140.7744 292.735385 
L 142.66944 291.104308 
L 144.56448 287.842154 
L 146.45952 286.211077 
L 148.35456 286.211077 
L 154.03968 281.317846 
L 159.7248 271.531385 
L 161.61984 267.70679 
L 163.51488 264.444637 
L 165.40992 260.620042 
L 167.30496 260.620042 
L 169.2 256.795448 
L 171.09504 248.640064 
L 172.99008 247.008987 
L 174.88512 247.008987 
L 176.78016 243.746833 
L 180.57024 240.484679 
L 182.46528 236.660085 
L 184.36032 230.641973 
L 186.25536 229.010897 
L 188.1504 229.010897 
L 190.04544 225.186302 
L 191.94048 222.992785 
L 193.83552 216.974674 
L 195.73056 216.974674 
L 197.6256 214.781156 
L 199.52064 210.956562 
L 201.41568 202.744934 
L 203.31072 202.744934 
L 205.20576 201.113857 
L 207.1008 201.113857 
L 208.99584 197.289263 
L 210.89088 195.658186 
L 212.78592 193.464668 
L 216.576 193.464668 
L 218.47104 189.077634 
L 222.26112 189.077634 
L 224.15616 186.884117 
L 226.0512 186.884117 
L 227.94624 183.621963 
L 235.5264 183.621963 
L 237.42144 175.410334 
L 239.31648 171.58574 
L 245.0016 171.58574 
L 246.89664 169.954663 
L 248.79168 169.954663 
L 252.58176 165.567629 
L 254.4768 161.180594 
L 258.26688 161.180594 
L 260.16192 158.987077 
L 262.05696 154.600042 
L 267.74208 154.600042 
L 269.63712 152.406525 
L 271.53216 152.406525 
L 273.4272 150.213008 
L 279.11232 150.213008 
L 281.00736 148.019491 
L 282.9024 148.019491 
L 284.79744 144.194897 
L 286.69248 144.194897 
L 288.58752 142.001379 
L 290.48256 142.001379 
L 292.3776 139.807862 
L 309.43296 139.807862 
L 311.328 137.614345 
L 317.01312 137.614345 
L 318.90816 135.420828 
L 322.69824 135.420828 
L 324.59328 133.22731 
L 335.96352 133.22731 
L 337.85856 131.033793 
L 341.64864 131.033793 
L 343.54368 126.646759 
L 345.43872 124.453241 
L 351.12384 124.453241 
L 353.01888 122.259724 
L 362.49408 122.259724 
L 366.28416 117.87269 
L 377.6544 117.87269 
L 379.54944 115.679172 
L 387.1296 115.679172 
L 389.02464 113.485655 
L 390.91968 113.485655 
L 392.81472 111.292138 
L 394.70976 106.905103 
L 396.6048 106.905103 
L 398.49984 104.711586 
L 406.08 104.711586 
L 409.87008 100.324552 
L 417.45024 100.324552 
L 419.34528 98.131034 
L 430.71552 98.131034 
L 432.61056 95.937517 
L 434.5056 95.937517 
L 436.40064 93.744 
L 642.96 93.744 
L 642.96 93.744 
" clip-path="url(#pb34bc83393)" style="fill: none; stroke-dasharray: 4.995,2.16; stroke-dashoffset: 0; stroke: #c38a19; stroke-width: 1.35"/>
   </g>
   <g id="line2d_30">
    <path d="M 74.448 348.192 
L 85.81824 348.192 
L 87.71328 346.560923 
L 106.66368 346.560923 
L 108.55872 344.929846 
L 110.45376 344.929846 
L 112.3488 341.667692 
L 114.24384 339.474175 
L 116.13888 339.474175 
L 118.03392 336.212021 
L 121.824 336.212021 
L 123.71904 334.580944 
L 127.50912 334.580944 
L 129.40416 332.387427 
L 131.2992 330.75635 
L 135.08928 324.232042 
L 136.98432 322.038525 
L 138.87936 317.651491 
L 140.7744 316.020414 
L 142.66944 313.826897 
L 144.56448 312.19582 
L 146.45952 308.933666 
L 148.35456 307.302589 
L 150.2496 301.284477 
L 152.14464 299.653401 
L 154.03968 294.197729 
L 155.93472 289.810695 
L 157.82976 280.53043 
L 159.7248 278.336912 
L 163.51488 275.074759 
L 165.40992 271.812605 
L 167.30496 270.181528 
L 171.09504 270.181528 
L 172.99008 268.550451 
L 174.88512 264.163416 
L 176.78016 260.901263 
L 180.57024 256.514228 
L 182.46528 253.252074 
L 186.25536 245.602886 
L 188.1504 243.971809 
L 190.04544 241.778292 
L 191.94048 240.147215 
L 193.83552 234.691544 
L 195.73056 231.42939 
L 197.6256 229.798313 
L 203.31072 218.324531 
L 205.20576 218.324531 
L 207.1008 215.062377 
L 208.99584 206.344552 
L 210.89088 204.151034 
L 212.78592 195.939406 
L 214.68096 195.939406 
L 216.576 194.308329 
L 218.47104 189.921294 
L 220.36608 188.290218 
L 222.26112 182.834546 
L 224.15616 182.834546 
L 226.0512 181.203469 
L 227.94624 174.116721 
L 229.84128 172.485645 
L 231.73632 172.485645 
L 233.63136 170.854568 
L 235.5264 163.205379 
L 237.42144 161.011862 
L 239.31648 157.749708 
L 241.21152 156.118631 
L 250.68672 156.118631 
L 252.58176 154.487554 
L 254.4768 150.10052 
L 258.26688 150.10052 
L 260.16192 148.469443 
L 262.05696 148.469443 
L 263.952 145.207289 
L 265.84704 145.207289 
L 267.74208 143.013772 
L 275.32224 143.013772 
L 277.21728 141.382695 
L 279.11232 135.364584 
L 282.9024 135.364584 
L 284.79744 133.171066 
L 286.69248 133.171066 
L 288.58752 130.977549 
L 292.3776 130.977549 
L 294.27264 127.152955 
L 298.06272 127.152955 
L 299.95776 122.76592 
L 305.64288 122.76592 
L 307.53792 121.134844 
L 309.43296 121.134844 
L 311.328 119.503767 
L 315.11808 119.503767 
L 317.01312 117.310249 
L 320.8032 117.310249 
L 324.59328 112.923215 
L 330.2784 112.923215 
L 332.17344 108.53618 
L 335.96352 108.53618 
L 341.64864 101.955629 
L 353.01888 101.955629 
L 354.91392 98.131034 
L 366.28416 98.131034 
L 368.1792 93.744 
L 642.96 93.744 
L 642.96 93.744 
" clip-path="url(#pb34bc83393)" style="fill: none; stroke-dasharray: 1.35,2.2275; stroke-dashoffset: 0; stroke: #7d8a92; stroke-width: 1.35"/>
   </g>
   <g id="line2d_31">
    <path d="M 74.448 348.192 
L 119.92896 348.192 
L 123.71904 343.804966 
L 125.61408 339.417931 
L 136.98432 339.417931 
L 138.87936 337.224414 
L 150.2496 337.224414 
L 152.14464 335.030897 
L 155.93472 335.030897 
L 157.82976 332.837379 
L 171.09504 332.837379 
L 178.6752 324.06331 
L 180.57024 315.851682 
L 182.46528 315.851682 
L 184.36032 313.658164 
L 188.1504 313.658164 
L 191.94048 309.27113 
L 197.6256 309.27113 
L 199.52064 302.690578 
L 201.41568 300.497061 
L 203.31072 300.497061 
L 205.20576 298.303544 
L 208.99584 298.303544 
L 210.89088 289.529475 
L 212.78592 287.335958 
L 216.576 287.335958 
L 218.47104 285.14244 
L 220.36608 285.14244 
L 222.26112 282.948923 
L 224.15616 282.948923 
L 226.0512 280.755406 
L 231.73632 280.755406 
L 233.63136 276.368371 
L 235.5264 276.368371 
L 237.42144 274.174854 
L 239.31648 274.174854 
L 241.21152 271.981337 
L 245.0016 271.981337 
L 246.89664 269.78782 
L 248.79168 269.78782 
L 250.68672 268.156743 
L 252.58176 268.156743 
L 254.4768 261.576191 
L 258.26688 261.576191 
L 262.05696 257.189156 
L 263.952 252.802122 
L 265.84704 252.802122 
L 267.74208 250.608605 
L 269.63712 250.608605 
L 271.53216 246.22157 
L 273.4272 246.22157 
L 275.32224 244.590493 
L 281.00736 244.590493 
L 282.9024 241.32834 
L 284.79744 236.941305 
L 288.58752 236.941305 
L 290.48256 235.310228 
L 294.27264 224.398886 
L 296.16768 224.398886 
L 299.95776 221.136732 
L 301.8528 221.136732 
L 303.74784 216.749698 
L 305.64288 214.55618 
L 309.43296 214.55618 
L 311.328 212.925103 
L 313.22304 210.731586 
L 315.11808 210.731586 
L 317.01312 208.538069 
L 318.90816 206.906992 
L 320.8032 204.713475 
L 328.38336 204.713475 
L 332.17344 201.451321 
L 334.06848 198.189167 
L 335.96352 196.55809 
L 337.85856 193.295936 
L 345.43872 193.295936 
L 347.33376 191.664859 
L 349.2288 191.664859 
L 356.80896 185.140552 
L 358.704 185.140552 
L 362.49408 181.878398 
L 364.38912 179.684881 
L 368.1792 169.898419 
L 370.07424 169.898419 
L 371.96928 168.267342 
L 377.6544 168.267342 
L 381.44448 165.005188 
L 383.33952 161.743034 
L 385.23456 161.743034 
L 387.1296 160.111958 
L 389.02464 155.218727 
L 392.81472 155.218727 
L 394.70976 150.325496 
L 396.6048 150.325496 
L 398.49984 144.869825 
L 404.18496 144.869825 
L 406.08 141.607671 
L 407.97504 141.607671 
L 409.87008 138.345517 
L 415.5552 133.452286 
L 417.45024 133.452286 
L 419.34528 131.82121 
L 421.24032 131.82121 
L 425.0304 128.559056 
L 430.71552 118.772594 
L 432.61056 117.141517 
L 434.5056 111.685846 
L 438.29568 111.685846 
L 440.19072 110.054769 
L 442.08576 110.054769 
L 443.9808 108.423692 
L 447.77088 108.423692 
L 449.66592 106.792615 
L 459.14112 106.792615 
L 462.9312 103.530462 
L 476.19648 103.530462 
L 478.09152 101.899385 
L 479.98656 101.899385 
L 481.8816 100.268308 
L 491.3568 100.268308 
L 493.25184 98.637231 
L 508.41216 98.637231 
L 510.3072 97.006154 
L 512.20224 97.006154 
L 514.09728 95.375077 
L 555.78816 95.375077 
L 557.6832 93.744 
L 642.96 93.744 
L 642.96 93.744 
" clip-path="url(#pb34bc83393)" style="fill: none; stroke-dasharray: 8.64,2.16,1.35,2.16; stroke-dashoffset: 0; stroke: #d0526a; stroke-width: 1.35"/>
   </g>
   <g id="line2d_32">
    <path d="M 74.448 348.192 
L 102.8736 348.192 
L 106.66368 343.804966 
L 131.2992 343.804966 
L 133.19424 341.611448 
L 138.87936 341.611448 
L 140.7744 339.417931 
L 154.03968 339.417931 
L 155.93472 335.030897 
L 159.7248 335.030897 
L 161.61984 332.837379 
L 184.36032 332.837379 
L 186.25536 328.450345 
L 188.1504 328.450345 
L 190.04544 326.256828 
L 191.94048 321.869793 
L 197.6256 315.289241 
L 199.52064 311.464647 
L 205.20576 311.464647 
L 207.1008 309.27113 
L 208.99584 309.27113 
L 210.89088 304.884095 
L 214.68096 300.497061 
L 218.47104 300.497061 
L 220.36608 298.303544 
L 222.26112 298.303544 
L 224.15616 296.110027 
L 226.0512 296.110027 
L 227.94624 293.916509 
L 229.84128 287.335958 
L 233.63136 282.948923 
L 239.31648 282.948923 
L 241.21152 280.755406 
L 250.68672 280.755406 
L 252.58176 276.368371 
L 256.37184 276.368371 
L 260.16192 271.981337 
L 263.952 271.981337 
L 265.84704 269.78782 
L 267.74208 268.156743 
L 269.63712 265.963225 
L 271.53216 265.963225 
L 273.4272 261.576191 
L 275.32224 261.576191 
L 277.21728 259.382674 
L 281.00736 259.382674 
L 282.9024 254.995639 
L 288.58752 248.415088 
L 290.48256 248.415088 
L 292.3776 246.22157 
L 294.27264 246.22157 
L 296.16768 242.396976 
L 298.06272 242.396976 
L 301.8528 239.134822 
L 303.74784 239.134822 
L 305.64288 236.941305 
L 309.43296 236.941305 
L 311.328 231.485634 
L 313.22304 229.854557 
L 315.11808 224.398886 
L 318.90816 221.136732 
L 320.8032 221.136732 
L 326.48832 214.55618 
L 328.38336 212.925103 
L 332.17344 212.925103 
L 334.06848 209.100509 
L 335.96352 209.100509 
L 337.85856 206.906992 
L 339.7536 206.906992 
L 341.64864 204.713475 
L 349.2288 204.713475 
L 351.12384 203.082398 
L 353.01888 198.189167 
L 354.91392 196.55809 
L 356.80896 193.295936 
L 364.38912 193.295936 
L 368.1792 190.033782 
L 371.96928 190.033782 
L 373.86432 186.771629 
L 379.54944 181.878398 
L 383.33952 181.878398 
L 385.23456 174.79165 
L 387.1296 171.529496 
L 390.91968 168.267342 
L 398.49984 168.267342 
L 400.39488 165.005188 
L 402.28992 160.111958 
L 406.08 160.111958 
L 407.97504 155.218727 
L 409.87008 155.218727 
L 411.76512 153.58765 
L 413.66016 150.325496 
L 415.5552 150.325496 
L 417.45024 147.063342 
L 419.34528 144.869825 
L 421.24032 144.869825 
L 428.82048 138.345517 
L 430.71552 135.083363 
L 432.61056 133.452286 
L 436.40064 133.452286 
L 440.19072 130.190133 
L 442.08576 130.190133 
L 443.9808 125.296902 
L 445.87584 125.296902 
L 449.66592 118.772594 
L 451.56096 118.772594 
L 453.456 115.51044 
L 455.35104 111.685846 
L 457.24608 110.054769 
L 461.03616 110.054769 
L 462.9312 108.423692 
L 468.61632 108.423692 
L 470.51136 106.792615 
L 478.09152 106.792615 
L 481.8816 103.530462 
L 495.14688 103.530462 
L 498.93696 100.268308 
L 508.41216 100.268308 
L 510.3072 98.637231 
L 527.36256 98.637231 
L 529.2576 97.006154 
L 531.15264 97.006154 
L 533.04768 95.375077 
L 574.73856 95.375077 
L 576.6336 93.744 
L 642.96 93.744 
L 642.96 93.744 
" clip-path="url(#pb34bc83393)" style="fill: none; stroke-dasharray: 6.75,2.7,1.35,2.7; stroke-dashoffset: 0; stroke: #2f8f84; stroke-width: 1.35"/>
   </g>
   <g id="patch_4">
    <path d="M 74.448 348.192 
L 74.448 93.744 
" style="fill: none; stroke: #000000; stroke-width: 0.8; stroke-linejoin: miter; stroke-linecap: square"/>
   </g>
   <g id="patch_5">
    <path d="M 74.448 348.192 
L 642.96 348.192 
" style="fill: none; stroke: #000000; stroke-width: 0.8; stroke-linejoin: miter; stroke-linecap: square"/>
   </g>
  </g>
  <g id="text_16">
   <text style="font: 18px 'DejaVu Sans', 'Bitstream Vera Sans', 'Computer Modern Sans Serif', 'Lucida Grande', 'Verdana', 'Geneva', 'Lucid', 'Arial', 'Helvetica', 'Avant Garde', sans-serif; text-anchor: start" x="74.448" y="38.229188" transform="rotate(-0 74.448 38.229188)">WOLED → KSF LCD</text>
  </g>
  <g id="text_17">
   <text style="fill: #66747c; font: 10px 'DejaVu Sans', 'Bitstream Vera Sans', 'Computer Modern Sans Serif', 'Lucida Grande', 'Verdana', 'Geneva', 'Lucid', 'Arial', 'Helvetica', 'Avant Garde', sans-serif; text-anchor: start" x="74.448" y="64.728" transform="rotate(-0 74.448 64.728)">D55</text>
  </g>
  <g id="legend_1">
   <g id="line2d_33">
    <path d="M 185.17875 404.151391 
L 194.27875 404.151391 
L 203.37875 404.151391 
" style="fill: none; stroke: #252525; stroke-width: 2.5; stroke-linecap: square"/>
   </g>
   <g id="text_18">
    <text style="font: 9.1px 'DejaVu Sans', 'Bitstream Vera Sans', 'Computer Modern Sans Serif', 'Lucida Grande', 'Verdana', 'Geneva', 'Lucid', 'Arial', 'Helvetica', 'Avant Garde', sans-serif; text-anchor: start" x="210.65875" y="407.336391" transform="rotate(-0 210.65875 407.336391)">Potera CMF</text>
   </g>
   <g id="line2d_34">
    <path d="M 185.17875 417.508484 
L 194.27875 417.508484 
L 203.37875 417.508484 
" style="fill: none; stroke: #3b83b4; stroke-width: 1.35; stroke-linecap: square"/>
   </g>
   <g id="text_19">
    <text style="font: 9.1px 'DejaVu Sans', 'Bitstream Vera Sans', 'Computer Modern Sans Serif', 'Lucida Grande', 'Verdana', 'Geneva', 'Lucid', 'Arial', 'Helvetica', 'Avant Garde', sans-serif; text-anchor: start" x="210.65875" y="420.693484" transform="rotate(-0 210.65875 420.693484)">CIE 2015 2°</text>
   </g>
   <g id="line2d_35">
    <path d="M 282.931234 404.151391 
L 292.031234 404.151391 
L 301.131234 404.151391 
" style="fill: none; stroke-dasharray: 4.995,2.16; stroke-dashoffset: 0; stroke: #c38a19; stroke-width: 1.35"/>
   </g>
   <g id="text_20">
    <text style="font: 9.1px 'DejaVu Sans', 'Bitstream Vera Sans', 'Computer Modern Sans Serif', 'Lucida Grande', 'Verdana', 'Geneva', 'Lucid', 'Arial', 'Helvetica', 'Avant Garde', sans-serif; text-anchor: start" x="308.411234" y="407.336391" transform="rotate(-0 308.411234 407.336391)">CIE 2015 10°</text>
   </g>
   <g id="line2d_36">
    <path d="M 282.931234 417.508484 
L 292.031234 417.508484 
L 301.131234 417.508484 
" style="fill: none; stroke-dasharray: 1.35,2.2275; stroke-dashoffset: 0; stroke: #7d8a92; stroke-width: 1.35"/>
   </g>
   <g id="text_21">
    <text style="font: 9.1px 'DejaVu Sans', 'Bitstream Vera Sans', 'Computer Modern Sans Serif', 'Lucida Grande', 'Verdana', 'Geneva', 'Lucid', 'Arial', 'Helvetica', 'Avant Garde', sans-serif; text-anchor: start" x="308.411234" y="420.693484" transform="rotate(-0 308.411234 420.693484)">CIE 1964 10°</text>
   </g>
   <g id="line2d_37">
    <path d="M 386.473594 404.151391 
L 395.573594 404.151391 
L 404.673594 404.151391 
" style="fill: none; stroke-dasharray: 8.64,2.16,1.35,2.16; stroke-dashoffset: 0; stroke: #d0526a; stroke-width: 1.35"/>
   </g>
   <g id="text_22">
    <text style="font: 9.1px 'DejaVu Sans', 'Bitstream Vera Sans', 'Computer Modern Sans Serif', 'Lucida Grande', 'Verdana', 'Geneva', 'Lucid', 'Arial', 'Helvetica', 'Avant Garde', sans-serif; text-anchor: start" x="411.953594" y="407.336391" transform="rotate(-0 411.953594 407.336391)">CIE 1931 2°</text>
   </g>
   <g id="line2d_38">
    <path d="M 386.473594 417.508484 
L 395.573594 417.508484 
L 404.673594 417.508484 
" style="fill: none; stroke-dasharray: 6.75,2.7,1.35,2.7; stroke-dashoffset: 0; stroke: #2f8f84; stroke-width: 1.35"/>
   </g>
   <g id="text_23">
    <text style="font: 9.1px 'DejaVu Sans', 'Bitstream Vera Sans', 'Computer Modern Sans Serif', 'Lucida Grande', 'Verdana', 'Geneva', 'Lucid', 'Arial', 'Helvetica', 'Avant Garde', sans-serif; text-anchor: start" x="411.953594" y="420.693484" transform="rotate(-0 411.953594 420.693484)">Judd–Vos 1978 2°</text>
   </g>
  </g>
 </g>
 <defs>
  <clipPath id="pb34bc83393">
   <rect x="74.448" y="93.744" width="568.512" height="254.448"/>
  </clipPath>
 </defs>
</svg>
