<?xml version="1.0" encoding="utf-8" standalone="no"?>
<!DOCTYPE svg PUBLIC "-//W3C//DTD SVG 1.1//EN"
  "http://www.w3.org/Graphics/SVG/1.1/DTD/svg11.dtd">
<svg xmlns:xlink="http://www.w3.org/1999/xlink" width="676.8pt" height="446.4pt" viewBox="0 0 676.8 446.4" xmlns="http://www.w3.org/2000/svg" version="1.1">
 <metadata>
  <rdf:RDF xmlns:dc="http://purl.org/dc/elements/1.1/" xmlns:cc="http://creativecommons.org/ns#" xmlns:rdf="http://www.w3.org/1999/02/22-rdf-syntax-ns#">
   <cc:Work>
    <dc:type rdf:resource="http://purl.org/dc/dcmitype/StillImage"/>
    <dc:date>2026-07-20T06:41:58.381161</dc:date>
    <dc:format>image/svg+xml</dc:format>
    <dc:creator>
     <cc:Agent>
      <dc:title>Matplotlib v3.9.4, https://matplotlib.org/</dc:title>
     </cc:Agent>
    </dc:creator>
   </cc:Work>
  </rdf:RDF>
 </metadata>
 <defs>
  <style type="text/css">*{stroke-linejoin: round; stroke-linecap: butt}</style>
 </defs>
 <g id="figure_1">
  <g id="patch_1">
   <path d="M 0 446.4 
L 676.8 446.4 
L 676.8 0 
L 0 0 
z
" style="fill: #ffffff"/>
  </g>
  <g id="axes_1">
   <g id="patch_2">
    <path d="M 74.448 348.192 
L 642.96 348.192 
L 642.96 93.744 
L 74.448 93.744 
z
" style="fill: #ffffff"/>
   </g>
   <g id="patch_3">
    <path d="M 169.2 348.192 
L 358.704 348.192 
L 358.704 93.744 
L 169.2 93.744 
z
" clip-path="url(#pc532dd354d)" style="fill: #e7f0ea; opacity: 0.58; stroke: #e7f0ea; stroke-linejoin: miter"/>
   </g>
   <g id="matplotlib.axis_1">
    <g id="xtick_1">
     <g id="line2d_1">
      <path d="M 74.448 348.192 
L 74.448 93.744 
" clip-path="url(#pc532dd354d)" style="fill: none; stroke: #dfe5e8; stroke-width: 0.65; stroke-linecap: square"/>
     </g>
     <g id="line2d_2">
      <defs>
       <path id="m677a0082c1" d="M 0 0 
L 0 3.5 
" style="stroke: #000000; stroke-width: 0.8"/>
      </defs>
      <g>
       <use xlink:href="#m677a0082c1" x="74.448" y="348.192" style="stroke: #000000; stroke-width: 0.8"/>
      </g>
     </g>
     <g id="text_1">
      <text style="font: 10px 'DejaVu Sans', 'Bitstream Vera Sans', 'Computer Modern Sans Serif', 'Lucida Grande', 'Verdana', 'Geneva', 'Lucid', 'Arial', 'Helvetica', 'Avant Garde', sans-serif; text-anchor: middle" x="74.448" y="362.790438" transform="rotate(-0 74.448 362.790438)">0</text>
     </g>
    </g>
    <g id="xtick_2">
     <g id="line2d_3">
      <path d="M 169.2 348.192 
L 169.2 93.744 
" clip-path="url(#pc532dd354d)" style="fill: none; stroke: #dfe5e8; stroke-width: 0.65; stroke-linecap: square"/>
     </g>
     <g id="line2d_4">
      <g>
       <use xlink:href="#m677a0082c1" x="169.2" y="348.192" style="stroke: #000000; stroke-width: 0.8"/>
      </g>
     </g>
     <g id="text_2">
      <text style="font: 10px 'DejaVu Sans', 'Bitstream Vera Sans', 'Computer Modern Sans Serif', 'Lucida Grande', 'Verdana', 'Geneva', 'Lucid', 'Arial', 'Helvetica', 'Avant Garde', sans-serif; text-anchor: middle" x="169.2" y="362.790438" transform="rotate(-0 169.2 362.790438)">1</text>
     </g>
    </g>
    <g id="xtick_3">
     <g id="line2d_5">
      <path d="M 263.952 348.192 
L 263.952 93.744 
" clip-path="url(#pc532dd354d)" style="fill: none; stroke: #dfe5e8; stroke-width: 0.65; stroke-linecap: square"/>
     </g>
     <g id="line2d_6">
      <g>
       <use xlink:href="#m677a0082c1" x="263.952" y="348.192" style="stroke: #000000; stroke-width: 0.8"/>
      </g>
     </g>
     <g id="text_3">
      <text style="font: 10px 'DejaVu Sans', 'Bitstream Vera Sans', 'Computer Modern Sans Serif', 'Lucida Grande', 'Verdana', 'Geneva', 'Lucid', 'Arial', 'Helvetica', 'Avant Garde', sans-serif; text-anchor: middle" x="263.952" y="362.790438" transform="rotate(-0 263.952 362.790438)">2</text>
     </g>
    </g>
    <g id="xtick_4">
     <g id="line2d_7">
      <path d="M 358.704 348.192 
L 358.704 93.744 
" clip-path="url(#pc532dd354d)" style="fill: none; stroke: #dfe5e8; stroke-width: 0.65; stroke-linecap: square"/>
     </g>
     <g id="line2d_8">
      <g>
       <use xlink:href="#m677a0082c1" x="358.704" y="348.192" style="stroke: #000000; stroke-width: 0.8"/>
      </g>
     </g>
     <g id="text_4">
      <text style="font: 10px 'DejaVu Sans', 'Bitstream Vera Sans', 'Computer Modern Sans Serif', 'Lucida Grande', 'Verdana', 'Geneva', 'Lucid', 'Arial', 'Helvetica', 'Avant Garde', sans-serif; text-anchor: middle" x="358.704" y="362.790438" transform="rotate(-0 358.704 362.790438)">3</text>
     </g>
    </g>
    <g id="xtick_5">
     <g id="line2d_9">
      <path d="M 453.456 348.192 
L 453.456 93.744 
" clip-path="url(#pc532dd354d)" style="fill: none; stroke: #dfe5e8; stroke-width: 0.65; stroke-linecap: square"/>
     </g>
     <g id="line2d_10">
      <g>
       <use xlink:href="#m677a0082c1" x="453.456" y="348.192" style="stroke: #000000; stroke-width: 0.8"/>
      </g>
     </g>
     <g id="text_5">
      <text style="font: 10px 'DejaVu Sans', 'Bitstream Vera Sans', 'Computer Modern Sans Serif', 'Lucida Grande', 'Verdana', 'Geneva', 'Lucid', 'Arial', 'Helvetica', 'Avant Garde', sans-serif; text-anchor: middle" x="453.456" y="362.790438" transform="rotate(-0 453.456 362.790438)">4</text>
     </g>
    </g>
    <g id="xtick_6">
     <g id="line2d_11">
      <path d="M 548.208 348.192 
L 548.208 93.744 
" clip-path="url(#pc532dd354d)" style="fill: none; stroke: #dfe5e8; stroke-width: 0.65; stroke-linecap: square"/>
     </g>
     <g id="line2d_12">
      <g>
       <use xlink:href="#m677a0082c1" x="548.208" y="348.192" style="stroke: #000000; stroke-width: 0.8"/>
      </g>
     </g>
     <g id="text_6">
      <text style="font: 10px 'DejaVu Sans', 'Bitstream Vera Sans', 'Computer Modern Sans Serif', 'Lucida Grande', 'Verdana', 'Geneva', 'Lucid', 'Arial', 'Helvetica', 'Avant Garde', sans-serif; text-anchor: middle" x="548.208" y="362.790438" transform="rotate(-0 548.208 362.790438)">5</text>
     </g>
    </g>
    <g id="xtick_7">
     <g id="line2d_13">
      <path d="M 642.96 348.192 
L 642.96 93.744 
" clip-path="url(#pc532dd354d)" style="fill: none; stroke: #dfe5e8; stroke-width: 0.65; stroke-linecap: square"/>
     </g>
     <g id="line2d_14">
      <g>
       <use xlink:href="#m677a0082c1" x="642.96" y="348.192" style="stroke: #000000; stroke-width: 0.8"/>
      </g>
     </g>
     <g id="text_7">
      <text style="font: 10px 'DejaVu Sans', 'Bitstream Vera Sans', 'Computer Modern Sans Serif', 'Lucida Grande', 'Verdana', 'Geneva', 'Lucid', 'Arial', 'Helvetica', 'Avant Garde', sans-serif; text-anchor: middle" x="642.96" y="362.790438" transform="rotate(-0 642.96 362.790438)">6</text>
     </g>
    </g>
    <g id="text_8">
     <text style="font: 10px 'DejaVu Sans', 'Bitstream Vera Sans', 'Computer Modern Sans Serif', 'Lucida Grande', 'Verdana', 'Geneva', 'Lucid', 'Arial', 'Helvetica', 'Avant Garde', sans-serif; text-anchor: middle" x="358.704" y="376.468563" transform="rotate(-0 358.704 376.468563)">sUCS dE threshold</text>
    </g>
   </g>
   <g id="matplotlib.axis_2">
    <g id="ytick_1">
     <g id="line2d_15">
      <path d="M 74.448 348.192 
L 642.96 348.192 
" clip-path="url(#pc532dd354d)" style="fill: none; stroke: #dfe5e8; stroke-width: 0.65; stroke-linecap: square"/>
     </g>
     <g id="line2d_16">
      <defs>
       <path id="me93f356983" d="M 0 0 
L -3.5 0 
" style="stroke: #000000; stroke-width: 0.8"/>
      </defs>
      <g>
       <use xlink:href="#me93f356983" x="74.448" y="348.192" style="stroke: #000000; stroke-width: 0.8"/>
      </g>
     </g>
     <g id="text_9">
      <text style="font: 10px 'DejaVu Sans', 'Bitstream Vera Sans', 'Computer Modern Sans Serif', 'Lucida Grande', 'Verdana', 'Geneva', 'Lucid', 'Arial', 'Helvetica', 'Avant Garde', sans-serif; text-anchor: end" x="67.448" y="351.991219" transform="rotate(-0 67.448 351.991219)">0</text>
     </g>
    </g>
    <g id="ytick_2">
     <g id="line2d_17">
      <path d="M 74.448 297.3024 
L 642.96 297.3024 
" clip-path="url(#pc532dd354d)" style="fill: none; stroke: #dfe5e8; stroke-width: 0.65; stroke-linecap: square"/>
     </g>
     <g id="line2d_18">
      <g>
       <use xlink:href="#me93f356983" x="74.448" y="297.3024" style="stroke: #000000; stroke-width: 0.8"/>
      </g>
     </g>
     <g id="text_10">
      <text style="font: 10px 'DejaVu Sans', 'Bitstream Vera Sans', 'Computer Modern Sans Serif', 'Lucida Grande', 'Verdana', 'Geneva', 'Lucid', 'Arial', 'Helvetica', 'Avant Garde', sans-serif; text-anchor: end" x="67.448" y="301.101619" transform="rotate(-0 67.448 301.101619)">20</text>
     </g>
    </g>
    <g id="ytick_3">
     <g id="line2d_19">
      <path d="M 74.448 246.4128 
L 642.96 246.4128 
" clip-path="url(#pc532dd354d)" style="fill: none; stroke: #dfe5e8; stroke-width: 0.65; stroke-linecap: square"/>
     </g>
     <g id="line2d_20">
      <g>
       <use xlink:href="#me93f356983" x="74.448" y="246.4128" style="stroke: #000000; stroke-width: 0.8"/>
      </g>
     </g>
     <g id="text_11">
      <text style="font: 10px 'DejaVu Sans', 'Bitstream Vera Sans', 'Computer Modern Sans Serif', 'Lucida Grande', 'Verdana', 'Geneva', 'Lucid', 'Arial', 'Helvetica', 'Avant Garde', sans-serif; text-anchor: end" x="67.448" y="250.212019" transform="rotate(-0 67.448 250.212019)">40</text>
     </g>
    </g>
    <g id="ytick_4">
     <g id="line2d_21">
      <path d="M 74.448 195.5232 
L 642.96 195.5232 
" clip-path="url(#pc532dd354d)" style="fill: none; stroke: #dfe5e8; stroke-width: 0.65; stroke-linecap: square"/>
     </g>
     <g id="line2d_22">
      <g>
       <use xlink:href="#me93f356983" x="74.448" y="195.5232" style="stroke: #000000; stroke-width: 0.8"/>
      </g>
     </g>
     <g id="text_12">
      <text style="font: 10px 'DejaVu Sans', 'Bitstream Vera Sans', 'Computer Modern Sans Serif', 'Lucida Grande', 'Verdana', 'Geneva', 'Lucid', 'Arial', 'Helvetica', 'Avant Garde', sans-serif; text-anchor: end" x="67.448" y="199.322419" transform="rotate(-0 67.448 199.322419)">60</text>
     </g>
    </g>
    <g id="ytick_5">
     <g id="line2d_23">
      <path d="M 74.448 144.6336 
L 642.96 144.6336 
" clip-path="url(#pc532dd354d)" style="fill: none; stroke: #dfe5e8; stroke-width: 0.65; stroke-linecap: square"/>
     </g>
     <g id="line2d_24">
      <g>
       <use xlink:href="#me93f356983" x="74.448" y="144.6336" style="stroke: #000000; stroke-width: 0.8"/>
      </g>
     </g>
     <g id="text_13">
      <text style="font: 10px 'DejaVu Sans', 'Bitstream Vera Sans', 'Computer Modern Sans Serif', 'Lucida Grande', 'Verdana', 'Geneva', 'Lucid', 'Arial', 'Helvetica', 'Avant Garde', sans-serif; text-anchor: end" x="67.448" y="148.432819" transform="rotate(-0 67.448 148.432819)">80</text>
     </g>
    </g>
    <g id="ytick_6">
     <g id="line2d_25">
      <path d="M 74.448 93.744 
L 642.96 93.744 
" clip-path="url(#pc532dd354d)" style="fill: none; stroke: #dfe5e8; stroke-width: 0.65; stroke-linecap: square"/>
     </g>
     <g id="line2d_26">
      <g>
       <use xlink:href="#me93f356983" x="74.448" y="93.744" style="stroke: #000000; stroke-width: 0.8"/>
      </g>
     </g>
     <g id="text_14">
      <text style="font: 10px 'DejaVu Sans', 'Bitstream Vera Sans', 'Computer Modern Sans Serif', 'Lucida Grande', 'Verdana', 'Geneva', 'Lucid', 'Arial', 'Helvetica', 'Avant Garde', sans-serif; text-anchor: end" x="67.448" y="97.543219" transform="rotate(-0 67.448 97.543219)">100</text>
     </g>
    </g>
    <g id="text_15">
     <text style="font: 10px 'DejaVu Sans', 'Bitstream Vera Sans', 'Computer Modern Sans Serif', 'Lucida Grande', 'Verdana', 'Geneva', 'Lucid', 'Arial', 'Helvetica', 'Avant Garde', sans-serif; text-anchor: middle" x="42.280812" y="220.968" transform="rotate(-90 42.280812 220.968)">observers%</text>
    </g>
   </g>
   <g id="line2d_27">
    <path d="M 74.448 348.192 
L 85.81824 348.192 
L 87.71328 346.560923 
L 89.60832 346.560923 
L 91.50336 344.929846 
L 93.3984 340.036615 
L 95.29344 340.036615 
L 97.18848 338.405538 
L 99.08352 338.405538 
L 100.97856 336.774462 
L 108.55872 336.774462 
L 110.45376 334.580944 
L 112.3488 334.580944 
L 114.24384 332.387427 
L 118.03392 324.738239 
L 119.92896 324.738239 
L 121.824 323.107162 
L 123.71904 323.107162 
L 125.61408 319.845008 
L 127.50912 317.651491 
L 129.40416 311.633379 
L 131.2992 309.439862 
L 133.19424 309.439862 
L 135.08928 307.246345 
L 136.98432 307.246345 
L 138.87936 305.052828 
L 140.7744 297.403639 
L 144.56448 297.403639 
L 146.45952 291.947968 
L 148.35456 288.123374 
L 150.2496 285.929857 
L 154.03968 282.667703 
L 155.93472 282.667703 
L 157.82976 280.474186 
L 161.61984 277.212032 
L 163.51488 272.318801 
L 165.40992 272.318801 
L 167.30496 269.056647 
L 169.2 267.42557 
L 171.09504 267.42557 
L 172.99008 261.407459 
L 174.88512 257.582865 
L 178.6752 254.320711 
L 180.57024 250.496117 
L 184.36032 250.496117 
L 186.25536 245.040446 
L 188.1504 245.040446 
L 190.04544 240.653411 
L 195.73056 229.179629 
L 197.6256 227.548552 
L 199.52064 222.092881 
L 203.31072 222.092881 
L 205.20576 220.461804 
L 207.1008 215.006133 
L 208.99584 212.812615 
L 210.89088 211.181538 
L 212.78592 208.988021 
L 214.68096 208.988021 
L 216.576 206.794504 
L 218.47104 206.794504 
L 220.36608 204.600987 
L 222.26112 199.145316 
L 224.15616 197.514239 
L 226.0512 195.320721 
L 227.94624 193.689645 
L 231.73632 183.903183 
L 233.63136 181.709666 
L 235.5264 178.447512 
L 237.42144 178.447512 
L 239.31648 175.185358 
L 241.21152 173.554281 
L 243.10656 171.360764 
L 246.89664 171.360764 
L 248.79168 169.729687 
L 250.68672 169.729687 
L 252.58176 165.905093 
L 254.4768 162.642939 
L 256.37184 160.449422 
L 258.26688 158.818345 
L 260.16192 155.556191 
L 262.05696 153.925114 
L 265.84704 153.925114 
L 267.74208 152.294037 
L 269.63712 152.294037 
L 271.53216 150.10052 
L 275.32224 150.10052 
L 277.21728 146.275926 
L 279.11232 146.275926 
L 281.00736 144.082408 
L 282.9024 142.451332 
L 284.79744 142.451332 
L 286.69248 140.820255 
L 288.58752 140.820255 
L 292.3776 136.43322 
L 294.27264 136.43322 
L 298.06272 132.046186 
L 299.95776 130.415109 
L 303.74784 130.415109 
L 305.64288 128.784032 
L 320.8032 128.784032 
L 322.69824 127.152955 
L 324.59328 124.959438 
L 326.48832 121.134844 
L 328.38336 118.941326 
L 332.17344 118.941326 
L 334.06848 117.310249 
L 335.96352 117.310249 
L 337.85856 115.116732 
L 339.7536 115.116732 
L 341.64864 112.923215 
L 356.80896 112.923215 
L 358.704 110.729698 
L 362.49408 110.729698 
L 364.38912 106.342663 
L 366.28416 106.342663 
L 368.1792 104.149146 
L 371.96928 104.149146 
L 373.86432 101.955629 
L 375.75936 101.955629 
L 377.6544 99.762111 
L 381.44448 99.762111 
L 383.33952 98.131034 
L 392.81472 98.131034 
L 394.70976 93.744 
L 642.96 93.744 
L 642.96 93.744 
" clip-path="url(#pc532dd354d)" style="fill: none; stroke: #252525; stroke-width: 2.5; stroke-linecap: square"/>
   </g>
   <g id="line2d_28">
    <path d="M 74.448 348.192 
L 100.97856 348.192 
L 104.76864 343.804966 
L 110.45376 343.804966 
L 112.3488 341.611448 
L 118.03392 341.611448 
L 119.92896 339.417931 
L 123.71904 330.643862 
L 125.61408 330.643862 
L 127.50912 326.256828 
L 131.2992 326.256828 
L 136.98432 319.676276 
L 152.14464 319.676276 
L 155.93472 315.289241 
L 157.82976 310.902207 
L 159.7248 309.27113 
L 161.61984 307.077613 
L 167.30496 307.077613 
L 171.09504 302.690578 
L 172.99008 302.690578 
L 178.6752 296.110027 
L 180.57024 291.722992 
L 182.46528 289.529475 
L 184.36032 285.14244 
L 191.94048 285.14244 
L 193.83552 280.755406 
L 195.73056 274.174854 
L 201.41568 274.174854 
L 203.31072 267.594302 
L 205.20576 267.594302 
L 216.576 254.433199 
L 218.47104 254.433199 
L 220.36608 250.046164 
L 222.26112 247.852647 
L 224.15616 247.852647 
L 226.0512 244.028053 
L 227.94624 244.028053 
L 229.84128 235.253984 
L 231.73632 235.253984 
L 235.5264 227.604796 
L 239.31648 227.604796 
L 241.21152 225.973719 
L 243.10656 225.973719 
L 245.0016 222.711565 
L 246.89664 222.711565 
L 248.79168 219.449411 
L 252.58176 219.449411 
L 254.4768 217.818334 
L 256.37184 217.818334 
L 258.26688 213.4313 
L 260.16192 209.606706 
L 267.74208 209.606706 
L 269.63712 207.975629 
L 282.9024 207.975629 
L 284.79744 206.344552 
L 290.48256 206.344552 
L 296.16768 201.451321 
L 298.06272 198.189167 
L 301.8528 198.189167 
L 303.74784 195.99565 
L 305.64288 195.99565 
L 307.53792 194.364573 
L 311.328 194.364573 
L 313.22304 192.733496 
L 315.11808 189.471342 
L 317.01312 189.471342 
L 322.69824 184.578111 
L 328.38336 184.578111 
L 330.2784 181.315958 
L 332.17344 181.315958 
L 334.06848 178.053804 
L 337.85856 174.79165 
L 339.7536 174.79165 
L 343.54368 171.529496 
L 345.43872 171.529496 
L 351.12384 166.636265 
L 353.01888 166.636265 
L 354.91392 165.005188 
L 358.704 165.005188 
L 360.59904 162.811671 
L 364.38912 162.811671 
L 366.28416 159.549517 
L 368.1792 159.549517 
L 370.07424 156.287363 
L 371.96928 154.656286 
L 373.86432 154.656286 
L 377.6544 151.394133 
L 379.54944 151.394133 
L 381.44448 149.763056 
L 383.33952 146.500902 
L 387.1296 146.500902 
L 389.02464 143.238748 
L 394.70976 143.238748 
L 396.6048 141.607671 
L 398.49984 138.345517 
L 400.39488 133.452286 
L 404.18496 130.190133 
L 406.08 130.190133 
L 407.97504 126.927979 
L 411.76512 126.927979 
L 413.66016 123.665825 
L 415.5552 122.034748 
L 417.45024 119.841231 
L 419.34528 119.841231 
L 421.24032 118.210154 
L 423.13536 114.948 
L 425.0304 114.948 
L 432.61056 108.423692 
L 438.29568 108.423692 
L 440.19072 106.792615 
L 447.77088 106.792615 
L 449.66592 105.161538 
L 451.56096 105.161538 
L 453.456 103.530462 
L 459.14112 103.530462 
L 461.03616 101.899385 
L 476.19648 101.899385 
L 478.09152 100.268308 
L 493.25184 100.268308 
L 497.04192 97.006154 
L 506.51712 97.006154 
L 508.41216 95.375077 
L 553.89312 95.375077 
L 555.78816 93.744 
L 642.96 93.744 
L 642.96 93.744 
" clip-path="url(#pc532dd354d)" style="fill: none; stroke: #3b83b4; stroke-width: 1.35; stroke-linecap: square"/>
   </g>
   <g id="line2d_29">
    <path d="M 74.448 348.192 
L 82.02816 348.192 
L 83.9232 346.560923 
L 89.60832 346.560923 
L 93.3984 343.298769 
L 95.29344 343.298769 
L 97.18848 341.667692 
L 99.08352 335.143385 
L 100.97856 335.143385 
L 102.8736 331.881231 
L 104.76864 331.881231 
L 106.66368 328.619077 
L 108.55872 328.619077 
L 110.45376 326.988 
L 116.13888 326.988 
L 119.92896 323.725846 
L 121.824 320.463692 
L 123.71904 320.463692 
L 127.50912 317.201538 
L 129.40416 310.677231 
L 131.2992 310.677231 
L 133.19424 309.046154 
L 135.08928 305.784 
L 138.87936 305.784 
L 144.56448 300.890769 
L 146.45952 300.890769 
L 148.35456 291.104308 
L 152.14464 287.842154 
L 155.93472 287.842154 
L 157.82976 282.948923 
L 161.61984 282.948923 
L 163.51488 277.493252 
L 165.40992 277.493252 
L 167.30496 274.231098 
L 169.2 272.600021 
L 171.09504 267.70679 
L 172.99008 266.075714 
L 174.88512 260.620042 
L 180.57024 250.833581 
L 182.46528 245.37791 
L 184.36032 245.37791 
L 186.25536 242.115756 
L 188.1504 238.291162 
L 190.04544 236.660085 
L 191.94048 232.835491 
L 193.83552 232.835491 
L 195.73056 230.641973 
L 197.6256 230.641973 
L 199.52064 226.254939 
L 201.41568 222.430345 
L 203.31072 220.236828 
L 207.1008 216.974674 
L 208.99584 208.763045 
L 210.89088 206.569528 
L 216.576 206.569528 
L 218.47104 202.744934 
L 220.36608 195.095745 
L 222.26112 192.902228 
L 226.0512 192.902228 
L 227.94624 191.271151 
L 229.84128 191.271151 
L 231.73632 189.077634 
L 237.42144 189.077634 
L 239.31648 185.25304 
L 243.10656 185.25304 
L 245.0016 183.621963 
L 246.89664 179.234928 
L 248.79168 177.041411 
L 254.4768 177.041411 
L 256.37184 175.410334 
L 258.26688 175.410334 
L 262.05696 172.14818 
L 267.74208 172.14818 
L 269.63712 165.567629 
L 271.53216 163.374111 
L 273.4272 163.374111 
L 275.32224 156.79356 
L 281.00736 156.79356 
L 282.9024 154.600042 
L 284.79744 154.600042 
L 286.69248 152.406525 
L 290.48256 152.406525 
L 292.3776 150.213008 
L 299.95776 150.213008 
L 301.8528 148.019491 
L 303.74784 148.019491 
L 305.64288 145.825973 
L 307.53792 144.194897 
L 309.43296 144.194897 
L 311.328 142.001379 
L 313.22304 142.001379 
L 315.11808 139.807862 
L 332.17344 139.807862 
L 334.06848 137.614345 
L 349.2288 137.614345 
L 351.12384 133.22731 
L 356.80896 133.22731 
L 358.704 131.033793 
L 366.28416 131.033793 
L 368.1792 128.840276 
L 370.07424 128.840276 
L 371.96928 126.646759 
L 373.86432 126.646759 
L 375.75936 124.453241 
L 377.6544 124.453241 
L 379.54944 122.259724 
L 394.70976 122.259724 
L 396.6048 120.066207 
L 400.39488 120.066207 
L 402.28992 117.87269 
L 406.08 117.87269 
L 407.97504 115.679172 
L 419.34528 115.679172 
L 423.13536 111.292138 
L 425.0304 111.292138 
L 426.92544 109.098621 
L 432.61056 109.098621 
L 438.29568 102.518069 
L 443.9808 102.518069 
L 445.87584 100.324552 
L 455.35104 100.324552 
L 457.24608 98.131034 
L 468.61632 98.131034 
L 470.51136 95.937517 
L 472.4064 95.937517 
L 474.30144 93.744 
L 642.96 93.744 
L 642.96 93.744 
" clip-path="url(#pc532dd354d)" style="fill: none; stroke-dasharray: 4.995,2.16; stroke-dashoffset: 0; stroke: #c38a19; stroke-width: 1.35"/>
   </g>
   <g id="line2d_30">
    <path d="M 74.448 348.192 
L 89.60832 348.192 
L 91.50336 346.560923 
L 110.45376 346.560923 
L 112.3488 344.929846 
L 114.24384 341.667692 
L 119.92896 341.667692 
L 121.824 338.405538 
L 123.71904 336.774462 
L 125.61408 334.580944 
L 133.19424 334.580944 
L 136.98432 328.056637 
L 138.87936 328.056637 
L 140.7744 325.863119 
L 144.56448 322.600966 
L 146.45952 318.213931 
L 148.35456 310.564743 
L 150.2496 308.933666 
L 152.14464 303.477995 
L 154.03968 301.284477 
L 155.93472 298.022324 
L 157.82976 294.197729 
L 159.7248 292.566653 
L 161.61984 290.373135 
L 163.51488 288.742058 
L 165.40992 284.355024 
L 169.2 284.355024 
L 171.09504 279.461793 
L 172.99008 272.375045 
L 174.88512 272.375045 
L 176.78016 270.181528 
L 178.6752 270.181528 
L 180.57024 267.988011 
L 182.46528 264.163416 
L 184.36032 264.163416 
L 186.25536 260.901263 
L 188.1504 258.707745 
L 193.83552 253.814515 
L 195.73056 249.98992 
L 197.6256 248.358844 
L 199.52064 246.165326 
L 203.31072 242.903172 
L 205.20576 235.253984 
L 207.1008 229.798313 
L 208.99584 228.167236 
L 210.89088 225.973719 
L 212.78592 219.955607 
L 214.68096 218.324531 
L 216.576 218.324531 
L 218.47104 214.499936 
L 220.36608 210.112902 
L 222.26112 201.395077 
L 224.15616 199.764 
L 226.0512 195.939406 
L 229.84128 195.939406 
L 231.73632 194.308329 
L 235.5264 194.308329 
L 237.42144 190.483735 
L 239.31648 182.834546 
L 241.21152 181.203469 
L 243.10656 179.009952 
L 245.0016 175.747798 
L 246.89664 170.854568 
L 248.79168 170.854568 
L 250.68672 165.398897 
L 252.58176 163.76782 
L 254.4768 159.380785 
L 258.26688 156.118631 
L 269.63712 156.118631 
L 271.53216 154.487554 
L 275.32224 154.487554 
L 277.21728 152.294037 
L 279.11232 149.031883 
L 281.00736 147.400806 
L 282.9024 145.207289 
L 284.79744 145.207289 
L 286.69248 143.013772 
L 292.3776 143.013772 
L 294.27264 141.382695 
L 299.95776 141.382695 
L 301.8528 139.189178 
L 303.74784 137.558101 
L 305.64288 137.558101 
L 307.53792 133.171066 
L 309.43296 130.977549 
L 313.22304 130.977549 
L 315.11808 129.346472 
L 320.8032 129.346472 
L 322.69824 127.152955 
L 324.59328 127.152955 
L 326.48832 124.959438 
L 328.38336 124.959438 
L 330.2784 123.328361 
L 332.17344 121.134844 
L 335.96352 121.134844 
L 337.85856 119.503767 
L 339.7536 119.503767 
L 341.64864 117.310249 
L 349.2288 117.310249 
L 351.12384 115.116732 
L 356.80896 115.116732 
L 360.59904 110.729698 
L 362.49408 110.729698 
L 366.28416 106.342663 
L 368.1792 106.342663 
L 370.07424 104.149146 
L 373.86432 104.149146 
L 375.75936 101.955629 
L 379.54944 101.955629 
L 381.44448 100.324552 
L 387.1296 100.324552 
L 389.02464 98.131034 
L 398.49984 98.131034 
L 400.39488 95.937517 
L 406.08 95.937517 
L 407.97504 93.744 
L 642.96 93.744 
L 642.96 93.744 
" clip-path="url(#pc532dd354d)" style="fill: none; stroke-dasharray: 1.35,2.2275; stroke-dashoffset: 0; stroke: #7d8a92; stroke-width: 1.35"/>
   </g>
   <g id="line2d_31">
    <path d="M 74.448 348.192 
L 123.71904 348.192 
L 125.61408 345.998483 
L 127.50912 345.998483 
L 129.40416 341.611448 
L 133.19424 341.611448 
L 135.08928 339.417931 
L 144.56448 339.417931 
L 146.45952 337.224414 
L 157.82976 337.224414 
L 161.61984 332.837379 
L 176.78016 332.837379 
L 178.6752 330.643862 
L 180.57024 330.643862 
L 182.46528 326.256828 
L 186.25536 326.256828 
L 188.1504 321.869793 
L 190.04544 321.869793 
L 191.94048 317.482759 
L 193.83552 315.289241 
L 195.73056 315.289241 
L 197.6256 313.658164 
L 199.52064 313.658164 
L 201.41568 309.27113 
L 203.31072 307.077613 
L 205.20576 307.077613 
L 207.1008 302.690578 
L 208.99584 302.690578 
L 210.89088 300.497061 
L 212.78592 300.497061 
L 214.68096 298.303544 
L 216.576 298.303544 
L 218.47104 296.110027 
L 220.36608 296.110027 
L 222.26112 289.529475 
L 224.15616 287.335958 
L 226.0512 287.335958 
L 227.94624 285.14244 
L 239.31648 285.14244 
L 241.21152 280.755406 
L 246.89664 280.755406 
L 248.79168 278.561889 
L 250.68672 278.561889 
L 252.58176 274.174854 
L 254.4768 271.981337 
L 263.952 271.981337 
L 265.84704 265.400785 
L 267.74208 265.400785 
L 271.53216 261.013751 
L 273.4272 259.382674 
L 277.21728 259.382674 
L 279.11232 254.995639 
L 282.9024 254.995639 
L 284.79744 250.608605 
L 286.69248 250.608605 
L 288.58752 248.415088 
L 294.27264 248.415088 
L 298.06272 244.028053 
L 299.95776 242.396976 
L 301.8528 242.396976 
L 303.74784 240.203459 
L 307.53792 240.203459 
L 309.43296 238.572382 
L 311.328 234.747788 
L 317.01312 229.854557 
L 318.90816 229.854557 
L 320.8032 226.029963 
L 322.69824 218.943215 
L 324.59328 214.55618 
L 337.85856 214.55618 
L 339.7536 209.100509 
L 341.64864 204.713475 
L 356.80896 204.713475 
L 360.59904 201.451321 
L 362.49408 198.189167 
L 366.28416 194.927013 
L 370.07424 194.927013 
L 371.96928 193.295936 
L 375.75936 193.295936 
L 377.6544 190.033782 
L 379.54944 190.033782 
L 383.33952 186.771629 
L 385.23456 186.771629 
L 387.1296 185.140552 
L 389.02464 185.140552 
L 390.91968 183.509475 
L 392.81472 183.509475 
L 394.70976 181.315958 
L 396.6048 178.053804 
L 398.49984 176.422727 
L 400.39488 171.529496 
L 404.18496 168.267342 
L 411.76512 168.267342 
L 413.66016 165.005188 
L 417.45024 161.743034 
L 421.24032 161.743034 
L 423.13536 160.111958 
L 425.0304 155.218727 
L 430.71552 155.218727 
L 432.61056 150.325496 
L 434.5056 148.131979 
L 436.40064 148.131979 
L 438.29568 144.869825 
L 443.9808 144.869825 
L 457.24608 133.452286 
L 459.14112 133.452286 
L 461.03616 131.82121 
L 462.9312 131.82121 
L 464.82624 128.559056 
L 466.72128 128.559056 
L 468.61632 125.296902 
L 470.51136 125.296902 
L 472.4064 122.034748 
L 474.30144 117.141517 
L 476.19648 113.879363 
L 479.98656 113.879363 
L 481.8816 111.685846 
L 483.77664 111.685846 
L 485.67168 108.423692 
L 491.3568 108.423692 
L 493.25184 106.792615 
L 500.832 106.792615 
L 502.72704 105.161538 
L 506.51712 105.161538 
L 508.41216 103.530462 
L 521.67744 103.530462 
L 523.57248 101.899385 
L 527.36256 101.899385 
L 529.2576 100.268308 
L 536.83776 100.268308 
L 538.7328 98.637231 
L 557.6832 98.637231 
L 559.57824 97.006154 
L 563.36832 97.006154 
L 565.26336 95.375077 
L 608.84928 95.375077 
L 610.74432 93.744 
L 642.96 93.744 
L 642.96 93.744 
" clip-path="url(#pc532dd354d)" style="fill: none; stroke-dasharray: 8.64,2.16,1.35,2.16; stroke-dashoffset: 0; stroke: #d0526a; stroke-width: 1.35"/>
   </g>
   <g id="line2d_32">
    <path d="M 74.448 348.192 
L 106.66368 348.192 
L 108.55872 345.998483 
L 112.3488 345.998483 
L 114.24384 343.804966 
L 135.08928 343.804966 
L 136.98432 341.611448 
L 146.45952 341.611448 
L 148.35456 339.417931 
L 155.93472 339.417931 
L 157.82976 337.224414 
L 161.61984 337.224414 
L 163.51488 335.030897 
L 165.40992 335.030897 
L 167.30496 332.837379 
L 191.94048 332.837379 
L 193.83552 328.450345 
L 195.73056 326.256828 
L 197.6256 326.256828 
L 199.52064 324.06331 
L 201.41568 319.676276 
L 203.31072 317.482759 
L 205.20576 317.482759 
L 207.1008 315.289241 
L 210.89088 315.289241 
L 212.78592 310.902207 
L 216.576 310.902207 
L 218.47104 309.27113 
L 220.36608 304.884095 
L 224.15616 300.497061 
L 229.84128 300.497061 
L 235.5264 293.916509 
L 237.42144 293.916509 
L 241.21152 289.529475 
L 243.10656 285.14244 
L 245.0016 282.948923 
L 258.26688 282.948923 
L 260.16192 280.755406 
L 267.74208 280.755406 
L 269.63712 278.561889 
L 271.53216 278.561889 
L 273.4272 274.174854 
L 275.32224 271.981337 
L 277.21728 271.981337 
L 279.11232 269.78782 
L 284.79744 269.78782 
L 286.69248 263.207268 
L 288.58752 263.207268 
L 290.48256 259.382674 
L 298.06272 259.382674 
L 299.95776 257.189156 
L 301.8528 252.802122 
L 303.74784 252.802122 
L 305.64288 250.608605 
L 307.53792 250.608605 
L 309.43296 246.22157 
L 315.11808 246.22157 
L 317.01312 244.028053 
L 318.90816 244.028053 
L 320.8032 242.396976 
L 322.69824 240.203459 
L 328.38336 240.203459 
L 330.2784 238.572382 
L 332.17344 233.116711 
L 334.06848 233.116711 
L 337.85856 229.854557 
L 339.7536 229.854557 
L 341.64864 226.029963 
L 343.54368 218.943215 
L 345.43872 214.55618 
L 354.91392 214.55618 
L 358.704 211.294027 
L 360.59904 209.100509 
L 362.49408 204.713475 
L 377.6544 204.713475 
L 381.44448 198.189167 
L 383.33952 196.55809 
L 385.23456 196.55809 
L 387.1296 194.927013 
L 390.91968 194.927013 
L 392.81472 193.295936 
L 394.70976 193.295936 
L 398.49984 190.033782 
L 400.39488 190.033782 
L 402.28992 186.771629 
L 406.08 186.771629 
L 407.97504 183.509475 
L 413.66016 183.509475 
L 415.5552 179.684881 
L 417.45024 176.422727 
L 419.34528 174.79165 
L 421.24032 171.529496 
L 425.0304 168.267342 
L 432.61056 168.267342 
L 434.5056 163.374111 
L 436.40064 161.743034 
L 440.19072 161.743034 
L 442.08576 160.111958 
L 443.9808 155.218727 
L 449.66592 155.218727 
L 451.56096 153.58765 
L 453.456 150.325496 
L 455.35104 148.131979 
L 457.24608 148.131979 
L 459.14112 144.869825 
L 462.9312 144.869825 
L 472.4064 136.71444 
L 474.30144 133.452286 
L 478.09152 133.452286 
L 479.98656 131.82121 
L 481.8816 131.82121 
L 487.56672 126.927979 
L 489.46176 123.665825 
L 491.3568 122.034748 
L 493.25184 118.772594 
L 495.14688 113.879363 
L 500.832 113.879363 
L 502.72704 110.054769 
L 504.62208 108.423692 
L 512.20224 108.423692 
L 514.09728 106.792615 
L 521.67744 106.792615 
L 523.57248 105.161538 
L 527.36256 105.161538 
L 529.2576 103.530462 
L 540.62784 103.530462 
L 542.52288 101.899385 
L 546.31296 101.899385 
L 548.208 100.268308 
L 553.89312 100.268308 
L 555.78816 98.637231 
L 576.6336 98.637231 
L 578.52864 97.006154 
L 584.21376 97.006154 
L 586.1088 95.375077 
L 627.79968 95.375077 
L 629.69472 93.744 
L 642.96 93.744 
L 642.96 93.744 
" clip-path="url(#pc532dd354d)" style="fill: none; stroke-dasharray: 6.75,2.7,1.35,2.7; stroke-dashoffset: 0; stroke: #2f8f84; stroke-width: 1.35"/>
   </g>
   <g id="patch_4">
    <path d="M 74.448 348.192 
L 74.448 93.744 
" style="fill: none; stroke: #000000; stroke-width: 0.8; stroke-linejoin: miter; stroke-linecap: square"/>
   </g>
   <g id="patch_5">
    <path d="M 74.448 348.192 
L 642.96 348.192 
" style="fill: none; stroke: #000000; stroke-width: 0.8; stroke-linejoin: miter; stroke-linecap: square"/>
   </g>
  </g>
  <g id="text_16">
   <text style="font: 18px 'DejaVu Sans', 'Bitstream Vera Sans', 'Computer Modern Sans Serif', 'Lucida Grande', 'Verdana', 'Geneva', 'Lucid', 'Arial', 'Helvetica', 'Avant Garde', sans-serif; text-anchor: start" x="74.448" y="38.229188" transform="rotate(-0 74.448 38.229188)">WOLED → KSF LCD</text>
  </g>
  <g id="text_17">
   <text style="fill: #66747c; font: 10px 'DejaVu Sans', 'Bitstream Vera Sans', 'Computer Modern Sans Serif', 'Lucida Grande', 'Verdana', 'Geneva', 'Lucid', 'Arial', 'Helvetica', 'Avant Garde', sans-serif; text-anchor: start" x="74.448" y="64.728" transform="rotate(-0 74.448 64.728)">D65</text>
  </g>
  <g id="legend_1">
   <g id="line2d_33">
    <path d="M 185.17875 404.151391 
L 194.27875 404.151391 
L 203.37875 404.151391 
" style="fill: none; stroke: #252525; stroke-width: 2.5; stroke-linecap: square"/>
   </g>
   <g id="text_18">
    <text style="font: 9.1px 'DejaVu Sans', 'Bitstream Vera Sans', 'Computer Modern Sans Serif', 'Lucida Grande', 'Verdana', 'Geneva', 'Lucid', 'Arial', 'Helvetica', 'Avant Garde', sans-serif; text-anchor: start" x="210.65875" y="407.336391" transform="rotate(-0 210.65875 407.336391)">Potera CMF</text>
   </g>
   <g id="line2d_34">
    <path d="M 185.17875 417.508484 
L 194.27875 417.508484 
L 203.37875 417.508484 
" style="fill: none; stroke: #3b83b4; stroke-width: 1.35; stroke-linecap: square"/>
   </g>
   <g id="text_19">
    <text style="font: 9.1px 'DejaVu Sans', 'Bitstream Vera Sans', 'Computer Modern Sans Serif', 'Lucida Grande', 'Verdana', 'Geneva', 'Lucid', 'Arial', 'Helvetica', 'Avant Garde', sans-serif; text-anchor: start" x="210.65875" y="420.693484" transform="rotate(-0 210.65875 420.693484)">CIE 2015 2°</text>
   </g>
   <g id="line2d_35">
    <path d="M 282.931234 404.151391 
L 292.031234 404.151391 
L 301.131234 404.151391 
" style="fill: none; stroke-dasharray: 4.995,2.16; stroke-dashoffset: 0; stroke: #c38a19; stroke-width: 1.35"/>
   </g>
   <g id="text_20">
    <text style="font: 9.1px 'DejaVu Sans', 'Bitstream Vera Sans', 'Computer Modern Sans Serif', 'Lucida Grande', 'Verdana', 'Geneva', 'Lucid', 'Arial', 'Helvetica', 'Avant Garde', sans-serif; text-anchor: start" x="308.411234" y="407.336391" transform="rotate(-0 308.411234 407.336391)">CIE 2015 10°</text>
   </g>
   <g id="line2d_36">
    <path d="M 282.931234 417.508484 
L 292.031234 417.508484 
L 301.131234 417.508484 
" style="fill: none; stroke-dasharray: 1.35,2.2275; stroke-dashoffset: 0; stroke: #7d8a92; stroke-width: 1.35"/>
   </g>
   <g id="text_21">
    <text style="font: 9.1px 'DejaVu Sans', 'Bitstream Vera Sans', 'Computer Modern Sans Serif', 'Lucida Grande', 'Verdana', 'Geneva', 'Lucid', 'Arial', 'Helvetica', 'Avant Garde', sans-serif; text-anchor: start" x="308.411234" y="420.693484" transform="rotate(-0 308.411234 420.693484)">CIE 1964 10°</text>
   </g>
   <g id="line2d_37">
    <path d="M 386.473594 404.151391 
L 395.573594 404.151391 
L 404.673594 404.151391 
" style="fill: none; stroke-dasharray: 8.64,2.16,1.35,2.16; stroke-dashoffset: 0; stroke: #d0526a; stroke-width: 1.35"/>
   </g>
   <g id="text_22">
    <text style="font: 9.1px 'DejaVu Sans', 'Bitstream Vera Sans', 'Computer Modern Sans Serif', 'Lucida Grande', 'Verdana', 'Geneva', 'Lucid', 'Arial', 'Helvetica', 'Avant Garde', sans-serif; text-anchor: start" x="411.953594" y="407.336391" transform="rotate(-0 411.953594 407.336391)">CIE 1931 2°</text>
   </g>
   <g id="line2d_38">
    <path d="M 386.473594 417.508484 
L 395.573594 417.508484 
L 404.673594 417.508484 
" style="fill: none; stroke-dasharray: 6.75,2.7,1.35,2.7; stroke-dashoffset: 0; stroke: #2f8f84; stroke-width: 1.35"/>
   </g>
   <g id="text_23">
    <text style="font: 9.1px 'DejaVu Sans', 'Bitstream Vera Sans', 'Computer Modern Sans Serif', 'Lucida Grande', 'Verdana', 'Geneva', 'Lucid', 'Arial', 'Helvetica', 'Avant Garde', sans-serif; text-anchor: start" x="411.953594" y="420.693484" transform="rotate(-0 411.953594 420.693484)">Judd–Vos 1978 2°</text>
   </g>
  </g>
 </g>
 <defs>
  <clipPath id="pc532dd354d">
   <rect x="74.448" y="93.744" width="568.512" height="254.448"/>
  </clipPath>
 </defs>
</svg>
