<?xml version="1.0" encoding="utf-8" standalone="no"?>
<!DOCTYPE svg PUBLIC "-//W3C//DTD SVG 1.1//EN"
  "http://www.w3.org/Graphics/SVG/1.1/DTD/svg11.dtd">
<svg xmlns:xlink="http://www.w3.org/1999/xlink" width="1152pt" height="648pt" viewBox="0 0 1152 648" xmlns="http://www.w3.org/2000/svg" version="1.1">
 <metadata>
  <rdf:RDF xmlns:dc="http://purl.org/dc/elements/1.1/" xmlns:cc="http://creativecommons.org/ns#" xmlns:rdf="http://www.w3.org/1999/02/22-rdf-syntax-ns#">
   <cc:Work>
    <dc:type rdf:resource="http://purl.org/dc/dcmitype/StillImage"/>
    <dc:format>image/svg+xml</dc:format>
    <dc:creator>
     <cc:Agent>
      <dc:title>Potera CMF v1</dc:title>
     </cc:Agent>
    </dc:creator>
   </cc:Work>
  </rdf:RDF>
 </metadata>
 <defs>
  <style type="text/css">*{stroke-linejoin: round; stroke-linecap: butt}</style>
 </defs>
 <g id="figure_1">
  <g id="patch_1">
   <path d="M 0 648 
L 1152 648 
L 1152 0 
L 0 0 
z
" style="fill: #ffffff"/>
  </g>
  <g id="axes_1">
   <g id="patch_2">
    <path d="M 74.88 579.96 
L 1134.72 579.96 
L 1134.72 38.88 
L 74.88 38.88 
z
" style="fill: #f5f5f5"/>
   </g>
   <g id="matplotlib.axis_1">
    <g id="xtick_1">
     <g id="line2d_1">
      <path d="M 74.88 579.96 
L 74.88 38.88 
" clip-path="url(#p4d88cab9a8)" style="fill: none; stroke-dasharray: 2.59,1.12; stroke-dashoffset: 0; stroke: #b8b8b8; stroke-opacity: 0.48; stroke-width: 0.7"/>
     </g>
     <g id="line2d_2">
      <defs>
       <path id="m58e823d47d" d="M 0 0 
L 0 7 
" style="stroke: #000000; stroke-width: 1.2"/>
      </defs>
      <g>
       <use xlink:href="#m58e823d47d" x="74.88" y="579.96" style="stroke: #000000; stroke-width: 1.2"/>
      </g>
     </g>
     <g id="text_1">
      <text style="font-size: 12px; font-family: 'DejaVu Sans'; text-anchor: middle" x="74.88" y="599.577188" transform="rotate(-0 74.88 599.577188)">390</text>
     </g>
    </g>
    <g id="xtick_2">
     <g id="line2d_3">
      <path d="M 256.566857 579.96 
L 256.566857 38.88 
" clip-path="url(#p4d88cab9a8)" style="fill: none; stroke-dasharray: 2.59,1.12; stroke-dashoffset: 0; stroke: #b8b8b8; stroke-opacity: 0.48; stroke-width: 0.7"/>
     </g>
     <g id="line2d_4">
      <g>
       <use xlink:href="#m58e823d47d" x="256.566857" y="579.96" style="stroke: #000000; stroke-width: 1.2"/>
      </g>
     </g>
     <g id="text_2">
      <text style="font-size: 12px; font-family: 'DejaVu Sans'; text-anchor: middle" x="256.566857" y="599.577188" transform="rotate(-0 256.566857 599.577188)">450</text>
     </g>
    </g>
    <g id="xtick_3">
     <g id="line2d_5">
      <path d="M 407.972571 579.96 
L 407.972571 38.88 
" clip-path="url(#p4d88cab9a8)" style="fill: none; stroke-dasharray: 2.59,1.12; stroke-dashoffset: 0; stroke: #b8b8b8; stroke-opacity: 0.48; stroke-width: 0.7"/>
     </g>
     <g id="line2d_6">
      <g>
       <use xlink:href="#m58e823d47d" x="407.972571" y="579.96" style="stroke: #000000; stroke-width: 1.2"/>
      </g>
     </g>
     <g id="text_3">
      <text style="font-size: 12px; font-family: 'DejaVu Sans'; text-anchor: middle" x="407.972571" y="599.577188" transform="rotate(-0 407.972571 599.577188)">500</text>
     </g>
    </g>
    <g id="xtick_4">
     <g id="line2d_7">
      <path d="M 559.378286 579.96 
L 559.378286 38.88 
" clip-path="url(#p4d88cab9a8)" style="fill: none; stroke-dasharray: 2.59,1.12; stroke-dashoffset: 0; stroke: #b8b8b8; stroke-opacity: 0.48; stroke-width: 0.7"/>
     </g>
     <g id="line2d_8">
      <g>
       <use xlink:href="#m58e823d47d" x="559.378286" y="579.96" style="stroke: #000000; stroke-width: 1.2"/>
      </g>
     </g>
     <g id="text_4">
      <text style="font-size: 12px; font-family: 'DejaVu Sans'; text-anchor: middle" x="559.378286" y="599.577188" transform="rotate(-0 559.378286 599.577188)">550</text>
     </g>
    </g>
    <g id="xtick_5">
     <g id="line2d_9">
      <path d="M 710.784 579.96 
L 710.784 38.88 
" clip-path="url(#p4d88cab9a8)" style="fill: none; stroke-dasharray: 2.59,1.12; stroke-dashoffset: 0; stroke: #b8b8b8; stroke-opacity: 0.48; stroke-width: 0.7"/>
     </g>
     <g id="line2d_10">
      <g>
       <use xlink:href="#m58e823d47d" x="710.784" y="579.96" style="stroke: #000000; stroke-width: 1.2"/>
      </g>
     </g>
     <g id="text_5">
      <text style="font-size: 12px; font-family: 'DejaVu Sans'; text-anchor: middle" x="710.784" y="599.577188" transform="rotate(-0 710.784 599.577188)">600</text>
     </g>
    </g>
    <g id="xtick_6">
     <g id="line2d_11">
      <path d="M 862.189714 579.96 
L 862.189714 38.88 
" clip-path="url(#p4d88cab9a8)" style="fill: none; stroke-dasharray: 2.59,1.12; stroke-dashoffset: 0; stroke: #b8b8b8; stroke-opacity: 0.48; stroke-width: 0.7"/>
     </g>
     <g id="line2d_12">
      <g>
       <use xlink:href="#m58e823d47d" x="862.189714" y="579.96" style="stroke: #000000; stroke-width: 1.2"/>
      </g>
     </g>
     <g id="text_6">
      <text style="font-size: 12px; font-family: 'DejaVu Sans'; text-anchor: middle" x="862.189714" y="599.577188" transform="rotate(-0 862.189714 599.577188)">650</text>
     </g>
    </g>
    <g id="xtick_7">
     <g id="line2d_13">
      <path d="M 1013.595429 579.96 
L 1013.595429 38.88 
" clip-path="url(#p4d88cab9a8)" style="fill: none; stroke-dasharray: 2.59,1.12; stroke-dashoffset: 0; stroke: #b8b8b8; stroke-opacity: 0.48; stroke-width: 0.7"/>
     </g>
     <g id="line2d_14">
      <g>
       <use xlink:href="#m58e823d47d" x="1013.595429" y="579.96" style="stroke: #000000; stroke-width: 1.2"/>
      </g>
     </g>
     <g id="text_7">
      <text style="font-size: 12px; font-family: 'DejaVu Sans'; text-anchor: middle" x="1013.595429" y="599.577188" transform="rotate(-0 1013.595429 599.577188)">700</text>
     </g>
    </g>
    <g id="xtick_8">
     <g id="line2d_15">
      <path d="M 1134.72 579.96 
L 1134.72 38.88 
" clip-path="url(#p4d88cab9a8)" style="fill: none; stroke-dasharray: 2.59,1.12; stroke-dashoffset: 0; stroke: #b8b8b8; stroke-opacity: 0.48; stroke-width: 0.7"/>
     </g>
     <g id="line2d_16">
      <g>
       <use xlink:href="#m58e823d47d" x="1134.72" y="579.96" style="stroke: #000000; stroke-width: 1.2"/>
      </g>
     </g>
     <g id="text_8">
      <text style="font-size: 12px; font-family: 'DejaVu Sans'; text-anchor: middle" x="1134.72" y="599.577188" transform="rotate(-0 1134.72 599.577188)">740</text>
     </g>
    </g>
    <g id="xtick_9">
     <g id="line2d_17">
      <defs>
       <path id="mfb8d0a0f9b" d="M 0 0 
L 0 3.5 
" style="stroke: #000000; stroke-width: 0.9"/>
      </defs>
      <g>
       <use xlink:href="#mfb8d0a0f9b" x="105.161143" y="579.96" style="stroke: #000000; stroke-width: 0.9"/>
      </g>
     </g>
    </g>
    <g id="xtick_10">
     <g id="line2d_18">
      <g>
       <use xlink:href="#mfb8d0a0f9b" x="135.442286" y="579.96" style="stroke: #000000; stroke-width: 0.9"/>
      </g>
     </g>
    </g>
    <g id="xtick_11">
     <g id="line2d_19">
      <g>
       <use xlink:href="#mfb8d0a0f9b" x="165.723429" y="579.96" style="stroke: #000000; stroke-width: 0.9"/>
      </g>
     </g>
    </g>
    <g id="xtick_12">
     <g id="line2d_20">
      <g>
       <use xlink:href="#mfb8d0a0f9b" x="196.004571" y="579.96" style="stroke: #000000; stroke-width: 0.9"/>
      </g>
     </g>
    </g>
    <g id="xtick_13">
     <g id="line2d_21">
      <g>
       <use xlink:href="#mfb8d0a0f9b" x="226.285714" y="579.96" style="stroke: #000000; stroke-width: 0.9"/>
      </g>
     </g>
    </g>
    <g id="xtick_14">
     <g id="line2d_22">
      <g>
       <use xlink:href="#mfb8d0a0f9b" x="286.848" y="579.96" style="stroke: #000000; stroke-width: 0.9"/>
      </g>
     </g>
    </g>
    <g id="xtick_15">
     <g id="line2d_23">
      <g>
       <use xlink:href="#mfb8d0a0f9b" x="317.129143" y="579.96" style="stroke: #000000; stroke-width: 0.9"/>
      </g>
     </g>
    </g>
    <g id="xtick_16">
     <g id="line2d_24">
      <g>
       <use xlink:href="#mfb8d0a0f9b" x="347.410286" y="579.96" style="stroke: #000000; stroke-width: 0.9"/>
      </g>
     </g>
    </g>
    <g id="xtick_17">
     <g id="line2d_25">
      <g>
       <use xlink:href="#mfb8d0a0f9b" x="377.691429" y="579.96" style="stroke: #000000; stroke-width: 0.9"/>
      </g>
     </g>
    </g>
    <g id="xtick_18">
     <g id="line2d_26">
      <g>
       <use xlink:href="#mfb8d0a0f9b" x="438.253714" y="579.96" style="stroke: #000000; stroke-width: 0.9"/>
      </g>
     </g>
    </g>
    <g id="xtick_19">
     <g id="line2d_27">
      <g>
       <use xlink:href="#mfb8d0a0f9b" x="468.534857" y="579.96" style="stroke: #000000; stroke-width: 0.9"/>
      </g>
     </g>
    </g>
    <g id="xtick_20">
     <g id="line2d_28">
      <g>
       <use xlink:href="#mfb8d0a0f9b" x="498.816" y="579.96" style="stroke: #000000; stroke-width: 0.9"/>
      </g>
     </g>
    </g>
    <g id="xtick_21">
     <g id="line2d_29">
      <g>
       <use xlink:href="#mfb8d0a0f9b" x="529.097143" y="579.96" style="stroke: #000000; stroke-width: 0.9"/>
      </g>
     </g>
    </g>
    <g id="xtick_22">
     <g id="line2d_30">
      <g>
       <use xlink:href="#mfb8d0a0f9b" x="589.659429" y="579.96" style="stroke: #000000; stroke-width: 0.9"/>
      </g>
     </g>
    </g>
    <g id="xtick_23">
     <g id="line2d_31">
      <g>
       <use xlink:href="#mfb8d0a0f9b" x="619.940571" y="579.96" style="stroke: #000000; stroke-width: 0.9"/>
      </g>
     </g>
    </g>
    <g id="xtick_24">
     <g id="line2d_32">
      <g>
       <use xlink:href="#mfb8d0a0f9b" x="650.221714" y="579.96" style="stroke: #000000; stroke-width: 0.9"/>
      </g>
     </g>
    </g>
    <g id="xtick_25">
     <g id="line2d_33">
      <g>
       <use xlink:href="#mfb8d0a0f9b" x="680.502857" y="579.96" style="stroke: #000000; stroke-width: 0.9"/>
      </g>
     </g>
    </g>
    <g id="xtick_26">
     <g id="line2d_34">
      <g>
       <use xlink:href="#mfb8d0a0f9b" x="741.065143" y="579.96" style="stroke: #000000; stroke-width: 0.9"/>
      </g>
     </g>
    </g>
    <g id="xtick_27">
     <g id="line2d_35">
      <g>
       <use xlink:href="#mfb8d0a0f9b" x="771.346286" y="579.96" style="stroke: #000000; stroke-width: 0.9"/>
      </g>
     </g>
    </g>
    <g id="xtick_28">
     <g id="line2d_36">
      <g>
       <use xlink:href="#mfb8d0a0f9b" x="801.627429" y="579.96" style="stroke: #000000; stroke-width: 0.9"/>
      </g>
     </g>
    </g>
    <g id="xtick_29">
     <g id="line2d_37">
      <g>
       <use xlink:href="#mfb8d0a0f9b" x="831.908571" y="579.96" style="stroke: #000000; stroke-width: 0.9"/>
      </g>
     </g>
    </g>
    <g id="xtick_30">
     <g id="line2d_38">
      <g>
       <use xlink:href="#mfb8d0a0f9b" x="892.470857" y="579.96" style="stroke: #000000; stroke-width: 0.9"/>
      </g>
     </g>
    </g>
    <g id="xtick_31">
     <g id="line2d_39">
      <g>
       <use xlink:href="#mfb8d0a0f9b" x="922.752" y="579.96" style="stroke: #000000; stroke-width: 0.9"/>
      </g>
     </g>
    </g>
    <g id="xtick_32">
     <g id="line2d_40">
      <g>
       <use xlink:href="#mfb8d0a0f9b" x="953.033143" y="579.96" style="stroke: #000000; stroke-width: 0.9"/>
      </g>
     </g>
    </g>
    <g id="xtick_33">
     <g id="line2d_41">
      <g>
       <use xlink:href="#mfb8d0a0f9b" x="983.314286" y="579.96" style="stroke: #000000; stroke-width: 0.9"/>
      </g>
     </g>
    </g>
    <g id="xtick_34">
     <g id="line2d_42">
      <g>
       <use xlink:href="#mfb8d0a0f9b" x="1043.876571" y="579.96" style="stroke: #000000; stroke-width: 0.9"/>
      </g>
     </g>
    </g>
    <g id="xtick_35">
     <g id="line2d_43">
      <g>
       <use xlink:href="#mfb8d0a0f9b" x="1074.157714" y="579.96" style="stroke: #000000; stroke-width: 0.9"/>
      </g>
     </g>
    </g>
    <g id="xtick_36">
     <g id="line2d_44">
      <g>
       <use xlink:href="#mfb8d0a0f9b" x="1104.438857" y="579.96" style="stroke: #000000; stroke-width: 0.9"/>
      </g>
     </g>
    </g>
    <g id="text_9">
     <!-- Wavelength $\lambda$ (nm) -->
     <g transform="translate(537.88 617.1)">
      <text>
       <tspan x="0" y="-0.359375" style="font-size: 14px; font-family: 'DejaVu Sans'">W</tspan>
       <tspan x="13.842773" y="-0.359375" style="font-size: 14px; font-family: 'DejaVu Sans'">a</tspan>
       <tspan x="22.421875" y="-0.359375" style="font-size: 14px; font-family: 'DejaVu Sans'">v</tspan>
       <tspan x="30.707031" y="-0.359375" style="font-size: 14px; font-family: 'DejaVu Sans'">e</tspan>
       <tspan x="39.320312" y="-0.359375" style="font-size: 14px; font-family: 'DejaVu Sans'">l</tspan>
       <tspan x="43.209961" y="-0.359375" style="font-size: 14px; font-family: 'DejaVu Sans'">e</tspan>
       <tspan x="51.823242" y="-0.359375" style="font-size: 14px; font-family: 'DejaVu Sans'">n</tspan>
       <tspan x="60.696289" y="-0.359375" style="font-size: 14px; font-family: 'DejaVu Sans'">g</tspan>
       <tspan x="69.583008" y="-0.359375" style="font-size: 14px; font-family: 'DejaVu Sans'">t</tspan>
       <tspan x="75.072266" y="-0.359375" style="font-size: 14px; font-family: 'DejaVu Sans'">h</tspan>
       <tspan x="83.945312" y="-0.359375" style="font-size: 14px; font-family: 'DejaVu Sans'"> </tspan>
       <tspan x="96.680664" y="-0.359375" style="font-size: 14px; font-family: 'DejaVu Sans'"> </tspan>
       <tspan x="101.130859" y="-0.359375" style="font-size: 14px; font-family: 'DejaVu Sans'">(</tspan>
       <tspan x="106.592773" y="-0.359375" style="font-size: 14px; font-family: 'DejaVu Sans'">n</tspan>
       <tspan x="115.46582" y="-0.359375" style="font-size: 14px; font-family: 'DejaVu Sans'">m</tspan>
       <tspan x="129.103516" y="-0.359375" style="font-size: 14px; font-family: 'DejaVu Sans'">)</tspan>
       <tspan x="88.395508" y="-0.359375" style="font-style: oblique; font-size: 14px; font-family: 'DejaVu Sans'">λ</tspan>
      </text>
     </g>
    </g>
   </g>
   <g id="matplotlib.axis_2">
    <g id="ytick_1">
     <g id="line2d_45">
      <path d="M 74.88 579.96 
L 1134.72 579.96 
" clip-path="url(#p4d88cab9a8)" style="fill: none; stroke-dasharray: 2.59,1.12; stroke-dashoffset: 0; stroke: #b8b8b8; stroke-opacity: 0.48; stroke-width: 0.7"/>
     </g>
     <g id="line2d_46">
      <defs>
       <path id="mcd8f76608c" d="M 0 0 
L -7 0 
" style="stroke: #000000; stroke-width: 1.2"/>
      </defs>
      <g>
       <use xlink:href="#mcd8f76608c" x="74.88" y="579.96" style="stroke: #000000; stroke-width: 1.2"/>
      </g>
     </g>
     <g id="text_10">
      <text style="font-size: 12px; font-family: 'DejaVu Sans'; text-anchor: end" x="64.38" y="584.518594" transform="rotate(-0 64.38 584.518594)">0.0</text>
     </g>
    </g>
    <g id="ytick_2">
     <g id="line2d_47">
      <path d="M 74.88 476.897143 
L 1134.72 476.897143 
" clip-path="url(#p4d88cab9a8)" style="fill: none; stroke-dasharray: 2.59,1.12; stroke-dashoffset: 0; stroke: #b8b8b8; stroke-opacity: 0.48; stroke-width: 0.7"/>
     </g>
     <g id="line2d_48">
      <g>
       <use xlink:href="#mcd8f76608c" x="74.88" y="476.897143" style="stroke: #000000; stroke-width: 1.2"/>
      </g>
     </g>
     <g id="text_11">
      <text style="font-size: 12px; font-family: 'DejaVu Sans'; text-anchor: end" x="64.38" y="481.455737" transform="rotate(-0 64.38 481.455737)">0.2</text>
     </g>
    </g>
    <g id="ytick_3">
     <g id="line2d_49">
      <path d="M 74.88 373.834286 
L 1134.72 373.834286 
" clip-path="url(#p4d88cab9a8)" style="fill: none; stroke-dasharray: 2.59,1.12; stroke-dashoffset: 0; stroke: #b8b8b8; stroke-opacity: 0.48; stroke-width: 0.7"/>
     </g>
     <g id="line2d_50">
      <g>
       <use xlink:href="#mcd8f76608c" x="74.88" y="373.834286" style="stroke: #000000; stroke-width: 1.2"/>
      </g>
     </g>
     <g id="text_12">
      <text style="font-size: 12px; font-family: 'DejaVu Sans'; text-anchor: end" x="64.38" y="378.392879" transform="rotate(-0 64.38 378.392879)">0.4</text>
     </g>
    </g>
    <g id="ytick_4">
     <g id="line2d_51">
      <path d="M 74.88 270.771429 
L 1134.72 270.771429 
" clip-path="url(#p4d88cab9a8)" style="fill: none; stroke-dasharray: 2.59,1.12; stroke-dashoffset: 0; stroke: #b8b8b8; stroke-opacity: 0.48; stroke-width: 0.7"/>
     </g>
     <g id="line2d_52">
      <g>
       <use xlink:href="#mcd8f76608c" x="74.88" y="270.771429" style="stroke: #000000; stroke-width: 1.2"/>
      </g>
     </g>
     <g id="text_13">
      <text style="font-size: 12px; font-family: 'DejaVu Sans'; text-anchor: end" x="64.38" y="275.330022" transform="rotate(-0 64.38 275.330022)">0.6</text>
     </g>
    </g>
    <g id="ytick_5">
     <g id="line2d_53">
      <path d="M 74.88 167.708571 
L 1134.72 167.708571 
" clip-path="url(#p4d88cab9a8)" style="fill: none; stroke-dasharray: 2.59,1.12; stroke-dashoffset: 0; stroke: #b8b8b8; stroke-opacity: 0.48; stroke-width: 0.7"/>
     </g>
     <g id="line2d_54">
      <g>
       <use xlink:href="#mcd8f76608c" x="74.88" y="167.708571" style="stroke: #000000; stroke-width: 1.2"/>
      </g>
     </g>
     <g id="text_14">
      <text style="font-size: 12px; font-family: 'DejaVu Sans'; text-anchor: end" x="64.38" y="172.267165" transform="rotate(-0 64.38 172.267165)">0.8</text>
     </g>
    </g>
    <g id="ytick_6">
     <g id="line2d_55">
      <path d="M 74.88 64.645714 
L 1134.72 64.645714 
" clip-path="url(#p4d88cab9a8)" style="fill: none; stroke-dasharray: 2.59,1.12; stroke-dashoffset: 0; stroke: #b8b8b8; stroke-opacity: 0.48; stroke-width: 0.7"/>
     </g>
     <g id="line2d_56">
      <g>
       <use xlink:href="#mcd8f76608c" x="74.88" y="64.645714" style="stroke: #000000; stroke-width: 1.2"/>
      </g>
     </g>
     <g id="text_15">
      <text style="font-size: 12px; font-family: 'DejaVu Sans'; text-anchor: end" x="64.38" y="69.204308" transform="rotate(-0 64.38 69.204308)">1.0</text>
     </g>
    </g>
    <g id="ytick_7">
     <g id="line2d_57">
      <defs>
       <path id="ma919382136" d="M 0 0 
L -3.5 0 
" style="stroke: #000000; stroke-width: 0.9"/>
      </defs>
      <g>
       <use xlink:href="#ma919382136" x="74.88" y="554.194286" style="stroke: #000000; stroke-width: 0.9"/>
      </g>
     </g>
    </g>
    <g id="ytick_8">
     <g id="line2d_58">
      <g>
       <use xlink:href="#ma919382136" x="74.88" y="528.428571" style="stroke: #000000; stroke-width: 0.9"/>
      </g>
     </g>
    </g>
    <g id="ytick_9">
     <g id="line2d_59">
      <g>
       <use xlink:href="#ma919382136" x="74.88" y="502.662857" style="stroke: #000000; stroke-width: 0.9"/>
      </g>
     </g>
    </g>
    <g id="ytick_10">
     <g id="line2d_60">
      <g>
       <use xlink:href="#ma919382136" x="74.88" y="451.131429" style="stroke: #000000; stroke-width: 0.9"/>
      </g>
     </g>
    </g>
    <g id="ytick_11">
     <g id="line2d_61">
      <g>
       <use xlink:href="#ma919382136" x="74.88" y="425.365714" style="stroke: #000000; stroke-width: 0.9"/>
      </g>
     </g>
    </g>
    <g id="ytick_12">
     <g id="line2d_62">
      <g>
       <use xlink:href="#ma919382136" x="74.88" y="399.6" style="stroke: #000000; stroke-width: 0.9"/>
      </g>
     </g>
    </g>
    <g id="ytick_13">
     <g id="line2d_63">
      <g>
       <use xlink:href="#ma919382136" x="74.88" y="348.068571" style="stroke: #000000; stroke-width: 0.9"/>
      </g>
     </g>
    </g>
    <g id="ytick_14">
     <g id="line2d_64">
      <g>
       <use xlink:href="#ma919382136" x="74.88" y="322.302857" style="stroke: #000000; stroke-width: 0.9"/>
      </g>
     </g>
    </g>
    <g id="ytick_15">
     <g id="line2d_65">
      <g>
       <use xlink:href="#ma919382136" x="74.88" y="296.537143" style="stroke: #000000; stroke-width: 0.9"/>
      </g>
     </g>
    </g>
    <g id="ytick_16">
     <g id="line2d_66">
      <g>
       <use xlink:href="#ma919382136" x="74.88" y="245.005714" style="stroke: #000000; stroke-width: 0.9"/>
      </g>
     </g>
    </g>
    <g id="ytick_17">
     <g id="line2d_67">
      <g>
       <use xlink:href="#ma919382136" x="74.88" y="219.24" style="stroke: #000000; stroke-width: 0.9"/>
      </g>
     </g>
    </g>
    <g id="ytick_18">
     <g id="line2d_68">
      <g>
       <use xlink:href="#ma919382136" x="74.88" y="193.474286" style="stroke: #000000; stroke-width: 0.9"/>
      </g>
     </g>
    </g>
    <g id="ytick_19">
     <g id="line2d_69">
      <g>
       <use xlink:href="#ma919382136" x="74.88" y="141.942857" style="stroke: #000000; stroke-width: 0.9"/>
      </g>
     </g>
    </g>
    <g id="ytick_20">
     <g id="line2d_70">
      <g>
       <use xlink:href="#ma919382136" x="74.88" y="116.177143" style="stroke: #000000; stroke-width: 0.9"/>
      </g>
     </g>
    </g>
    <g id="ytick_21">
     <g id="line2d_71">
      <g>
       <use xlink:href="#ma919382136" x="74.88" y="90.411429" style="stroke: #000000; stroke-width: 0.9"/>
      </g>
     </g>
    </g>
    <g id="ytick_22">
     <g id="line2d_72">
      <g>
       <use xlink:href="#ma919382136" x="74.88" y="38.88" style="stroke: #000000; stroke-width: 0.9"/>
      </g>
     </g>
    </g>
    <g id="text_16">
     <text style="font-size: 14px; font-family: 'DejaVu Sans'; text-anchor: middle" x="37.932969" y="309.42" transform="rotate(-90 37.932969 309.42)">Channel-normalized Values</text>
    </g>
   </g>
   <g id="patch_3">
    <path d="M 74.88 579.96 
L 74.88 38.88 
" style="fill: none; stroke: #000000; stroke-width: 1.25; stroke-linejoin: miter; stroke-linecap: square"/>
   </g>
   <g id="patch_4">
    <path d="M 1134.72 579.96 
L 1134.72 38.88 
" style="fill: none; stroke: #000000; stroke-width: 1.25; stroke-linejoin: miter; stroke-linecap: square"/>
   </g>
   <g id="patch_5">
    <path d="M 74.88 579.96 
L 1134.72 579.96 
" style="fill: none; stroke: #000000; stroke-width: 1.25; stroke-linejoin: miter; stroke-linecap: square"/>
   </g>
   <g id="patch_6">
    <path d="M 74.88 38.88 
L 1134.72 38.88 
" style="fill: none; stroke: #000000; stroke-width: 1.25; stroke-linejoin: miter; stroke-linecap: square"/>
   </g>
   <g id="line2d_73">
    <path d="M 74.88 579.746143 
L 89.414949 579.436889 
L 100.618971 578.97851 
L 110.611749 578.343757 
L 119.39328 577.564539 
L 127.266377 576.636559 
L 136.653531 575.281849 
L 151.491291 572.909636 
L 174.50496 569.103609 
L 185.708983 567.339306 
L 195.70176 565.492931 
L 210.236709 562.577215 
L 228.708206 558.78166 
L 236.581303 557.535454 
L 248.996571 555.563542 
L 268.376503 552.155998 
L 273.524297 551.010084 
L 278.066469 549.777356 
L 282.305829 548.394638 
L 286.242377 546.868914 
L 289.876114 545.221087 
L 293.812663 543.190841 
L 298.354834 540.592842 
L 305.016686 536.487402 
L 315.917897 529.484662 
L 331.966903 518.945912 
L 338.931566 514.066311 
L 345.593417 509.132825 
L 352.55808 503.693337 
L 360.431177 497.248832 
L 368.304274 490.532174 
L 372.543634 486.61321 
L 375.87456 483.238275 
L 378.902674 479.852657 
L 381.930789 476.117681 
L 384.958903 472.039526 
L 388.289829 467.172058 
L 391.923566 461.431454 
L 395.557303 455.274195 
L 399.19104 448.704795 
L 403.127589 441.108577 
L 407.064137 433.000236 
L 411.000686 424.369249 
L 414.937234 415.216186 
L 419.176594 404.787442 
L 423.718766 392.982695 
L 428.260937 380.564649 
L 433.10592 366.6926 
L 438.556526 350.401848 
L 444.915566 330.65127 
L 453.394286 303.497087 
L 463.387063 271.547868 
L 467.929234 257.816713 
L 471.562971 247.510868 
L 475.49952 237.019068 
L 480.041691 225.59491 
L 486.09792 211.04989 
L 491.548526 198.450012 
L 496.090697 188.496445 
L 500.027246 180.4196 
L 504.266606 172.293241 
L 520.921234 141.032272 
L 526.069029 131.298408 
L 529.399954 125.452349 
L 532.428069 120.612184 
L 535.153371 116.665768 
L 537.878674 113.111209 
L 540.603977 109.950811 
L 543.026469 107.473387 
L 545.44896 105.306576 
L 548.174263 103.186253 
L 551.808 100.684175 
L 558.16704 96.378694 
L 560.892343 94.241768 
L 564.223269 91.328958 
L 573.0048 83.481753 
L 575.730103 81.432603 
L 578.455406 79.683731 
L 581.48352 78.014935 
L 585.420069 76.123122 
L 603.891566 67.819303 
L 607.222491 66.687993 
L 610.553417 65.799195 
L 613.884343 65.158944 
L 616.912457 64.797193 
L 619.940571 64.649239 
L 622.968686 64.729759 
L 625.391177 64.997576 
L 627.813669 65.484603 
L 629.933349 66.11814 
L 632.053029 66.969499 
L 634.172709 68.061406 
L 636.292389 69.412962 
L 638.71488 71.230058 
L 642.651429 74.51806 
L 647.1936 78.268463 
L 649.616091 80.009873 
L 651.735771 81.282914 
L 654.158263 82.481404 
L 657.792 83.996267 
L 662.334171 85.911953 
L 664.756663 87.168023 
L 666.876343 88.503708 
L 669.298834 90.317687 
L 671.721326 92.412067 
L 674.446629 95.068669 
L 677.474743 98.347038 
L 680.805669 102.288079 
L 684.439406 106.926637 
L 688.073143 111.910886 
L 692.009691 117.701591 
L 695.94624 123.898389 
L 700.1856 131.004992 
L 705.030583 139.574535 
L 711.086811 150.765927 
L 717.14304 162.381471 
L 721.988023 172.156927 
L 726.227383 181.201667 
L 730.769554 191.462661 
L 735.917349 203.667146 
L 742.5792 220.065183 
L 750.755109 240.77899 
L 759.53664 263.658498 
L 770.437851 292.053775 
L 778.008137 311.019291 
L 784.9728 328.680397 
L 790.120594 342.349631 
L 804.958354 382.161617 
L 810.106149 395.12856 
L 815.253943 407.490753 
L 820.098926 418.546677 
L 824.641097 428.378752 
L 829.183269 437.677813 
L 833.422629 445.869819 
L 838.267611 454.737641 
L 844.626651 465.885909 
L 853.408183 480.817853 
L 858.858789 489.680812 
L 863.703771 497.146815 
L 868.245943 503.736954 
L 872.485303 509.515864 
L 876.724663 514.931096 
L 880.964023 519.985575 
L 885.203383 524.696378 
L 889.442743 529.084181 
L 893.682103 533.168437 
L 898.224274 537.227406 
L 902.766446 540.97688 
L 907.308617 544.435196 
L 911.850789 547.620554 
L 916.695771 550.738728 
L 921.540754 553.589826 
L 926.688549 556.349263 
L 931.836343 558.853016 
L 937.286949 561.248787 
L 942.737554 563.404013 
L 948.490971 565.437982 
L 954.5472 567.33329 
L 960.90624 569.082778 
L 967.870903 570.760645 
L 975.138377 572.277169 
L 982.10304 573.499167 
L 989.370514 574.542444 
L 997.849234 575.531139 
L 1007.842011 576.471337 
L 1019.046034 577.293469 
L 1032.066926 578.017955 
L 1046.904686 578.620793 
L 1063.862126 579.081329 
L 1086.270171 579.45108 
L 1116.551314 579.712909 
L 1134.72 579.799805 
L 1134.72 579.799805 
" clip-path="url(#p4d88cab9a8)" style="fill: none; stroke-dasharray: 10.2,3.4,2.04,3.4; stroke-dashoffset: 0; stroke: #e31a1c; stroke-opacity: 0.84; stroke-width: 1.7"/>
   </g>
   <g id="line2d_74">
    <path d="M 74.88 579.770184 
L 89.71776 579.475004 
L 100.618971 579.044327 
L 110.308937 578.441252 
L 118.787657 577.697189 
L 126.357943 576.807527 
L 133.625417 575.730073 
L 141.801326 574.283112 
L 149.977234 572.607099 
L 158.153143 570.703293 
L 170.2656 567.621308 
L 180.258377 564.898129 
L 186.920229 562.843789 
L 193.279269 560.644874 
L 199.335497 558.321861 
L 206.30016 555.400003 
L 216.89856 550.664985 
L 225.680091 546.829147 
L 231.73632 544.433775 
L 259.897783 533.905001 
L 268.073691 530.89926 
L 272.01024 529.221299 
L 275.643977 527.422775 
L 278.974903 525.534998 
L 282.305829 523.398548 
L 285.636754 520.990975 
L 288.96768 518.289205 
L 292.601417 515.020953 
L 296.537966 511.16798 
L 301.68576 505.798591 
L 321.671314 484.669805 
L 346.19904 459.767777 
L 354.072137 451.213789 
L 369.51552 434.015115 
L 373.149257 429.628387 
L 376.177371 425.640943 
L 378.902674 421.693316 
L 381.627977 417.361718 
L 384.656091 412.119004 
L 387.987017 405.865726 
L 391.620754 398.519453 
L 395.557303 390.023222 
L 399.493851 380.9846 
L 403.4304 371.372842 
L 407.366949 361.154849 
L 411.303497 350.302928 
L 415.542857 337.930494 
L 420.085029 323.954193 
L 425.232823 307.340344 
L 430.98624 287.995593 
L 438.859337 260.649677 
L 463.084251 176.00434 
L 466.717989 164.52612 
L 469.746103 155.722693 
L 472.471406 148.460591 
L 475.49952 141.04837 
L 478.527634 134.22306 
L 481.85856 127.250142 
L 486.09792 118.934213 
L 490.034469 111.70397 
L 493.365394 106.028206 
L 496.393509 101.276108 
L 499.118811 97.371865 
L 501.844114 93.832304 
L 504.872229 90.252197 
L 508.505966 86.302726 
L 516.984686 77.570277 
L 521.526857 73.053417 
L 524.554971 70.351808 
L 526.977463 68.478496 
L 529.097143 67.110694 
L 530.914011 66.173296 
L 532.73088 65.459311 
L 534.547749 64.968615 
L 536.364617 64.700789 
L 538.181486 64.65512 
L 539.998354 64.830608 
L 541.815223 65.22597 
L 543.632091 65.839639 
L 545.44896 66.667918 
L 547.56864 67.870399 
L 550.293943 69.693507 
L 554.533303 72.85581 
L 559.075474 76.191898 
L 562.4064 78.332061 
L 569.068251 82.51261 
L 571.490743 84.318795 
L 573.610423 86.147562 
L 575.730103 88.271001 
L 578.152594 91.052393 
L 580.877897 94.538124 
L 584.511634 99.582305 
L 597.835337 118.833127 
L 601.469074 124.433713 
L 604.8 129.985055 
L 607.828114 135.467781 
L 611.15904 141.944793 
L 615.095589 150.106993 
L 619.63776 160.06636 
L 624.482743 171.21601 
L 628.419291 180.79959 
L 632.053029 190.188572 
L 635.686766 200.189936 
L 639.926126 212.578791 
L 652.644206 250.244465 
L 658.397623 266.139303 
L 685.34784 339.595316 
L 696.551863 370.501921 
L 703.516526 389.021225 
L 710.178377 406.103608 
L 716.234606 421.040284 
L 721.685211 433.901216 
L 726.833006 445.464666 
L 731.677989 455.788244 
L 736.22016 464.955559 
L 740.762331 473.620035 
L 745.304503 481.782843 
L 749.846674 489.462886 
L 754.388846 496.682396 
L 758.931017 503.461692 
L 763.170377 509.404492 
L 767.409737 514.985464 
L 771.649097 520.21511 
L 775.888457 525.102639 
L 780.127817 529.651808 
L 784.367177 533.868834 
L 788.606537 537.763773 
L 792.845897 541.357049 
L 797.388069 544.902597 
L 801.93024 548.161666 
L 806.472411 551.156897 
L 811.014583 553.900802 
L 815.859566 556.564338 
L 820.704549 558.974548 
L 826.155154 561.426081 
L 831.908571 563.764584 
L 837.661989 565.870444 
L 842.809783 567.529573 
L 847.957577 568.959915 
L 853.710994 570.313058 
L 860.978469 571.774489 
L 869.76 573.308021 
L 878.23872 574.563795 
L 887.020251 575.635903 
L 896.407406 576.557408 
L 906.702994 577.339262 
L 918.209829 577.983223 
L 933.047589 578.581463 
L 950.913463 579.07092 
L 973.62432 579.457581 
L 1001.785783 579.710069 
L 1048.721554 579.880217 
L 1134.72 579.949237 
L 1134.72 579.949237 
" clip-path="url(#p4d88cab9a8)" style="fill: none; stroke-dasharray: 10.2,3.4,2.04,3.4; stroke-dashoffset: 0; stroke: #16a33a; stroke-opacity: 0.84; stroke-width: 1.7"/>
   </g>
   <g id="line2d_75">
    <path d="M 74.88 575.040146 
L 78.210926 573.93451 
L 81.23904 572.717585 
L 84.267154 571.261351 
L 86.992457 569.711973 
L 89.71776 567.901507 
L 92.140251 566.043153 
L 94.562743 563.921212 
L 96.985234 561.505855 
L 99.407726 558.765816 
L 101.830217 555.668819 
L 104.252709 552.182159 
L 106.6752 548.273309 
L 109.097691 543.908802 
L 111.520183 539.054562 
L 113.942674 533.677648 
L 116.365166 527.747157 
L 118.787657 521.235233 
L 121.210149 514.118213 
L 123.935451 505.367974 
L 126.660754 495.822557 
L 129.386057 485.490175 
L 132.414171 473.121456 
L 135.745097 458.520373 
L 139.378834 441.54303 
L 143.315383 422.040016 
L 147.554743 399.893107 
L 152.399726 373.344639 
L 164.512183 306.068626 
L 167.540297 290.797825 
L 170.871223 275.207959 
L 174.50496 259.290342 
L 185.708983 211.037218 
L 193.279269 177.587059 
L 196.307383 165.198428 
L 199.032686 154.919575 
L 202.363611 143.275567 
L 207.208594 127.329526 
L 212.053577 111.236182 
L 219.321051 86.555723 
L 221.440731 80.217569 
L 223.2576 75.43791 
L 224.771657 72.03928 
L 225.982903 69.771178 
L 227.194149 67.950458 
L 228.405394 66.568261 
L 229.61664 65.588173 
L 230.525074 65.094207 
L 231.73632 64.72588 
L 232.947566 64.653008 
L 234.158811 64.835446 
L 235.370057 65.232685 
L 236.884114 65.969302 
L 239.003794 67.306275 
L 245.362834 71.830111 
L 247.482514 73.602245 
L 249.299383 75.428806 
L 250.81344 77.246094 
L 252.327497 79.39345 
L 253.841554 81.92708 
L 255.355611 84.901152 
L 256.869669 88.367143 
L 258.686537 93.183636 
L 260.806217 99.540323 
L 263.53152 108.52625 
L 273.524297 142.404125 
L 276.2496 150.402848 
L 278.974903 157.671722 
L 281.397394 163.519938 
L 283.819886 168.789881 
L 285.939566 172.924817 
L 288.059246 176.618103 
L 290.784549 180.876331 
L 297.4464 190.987114 
L 299.56608 194.690289 
L 301.68576 198.875143 
L 303.502629 202.9377 
L 305.622309 208.252496 
L 307.741989 214.166942 
L 310.16448 221.629636 
L 312.586971 229.803245 
L 315.312274 239.791073 
L 318.340389 251.786489 
L 321.974126 267.203068 
L 326.819109 288.872966 
L 340.142811 349.083906 
L 344.382171 366.852044 
L 348.015909 381.128143 
L 351.649646 394.475678 
L 355.586194 408.05624 
L 359.825554 421.85573 
L 364.367726 435.869747 
L 368.304274 447.311082 
L 371.6352 456.312858 
L 374.663314 463.869916 
L 377.388617 470.120739 
L 380.11392 475.838831 
L 382.839223 481.080188 
L 385.867337 486.428405 
L 389.198263 491.82633 
L 392.529189 496.804293 
L 396.162926 501.850216 
L 400.705097 507.753039 
L 406.458514 514.837521 
L 414.634423 524.536763 
L 421.599086 532.474614 
L 427.049691 538.38605 
L 430.98624 542.342559 
L 434.317166 545.399673 
L 437.648091 548.152083 
L 440.979017 550.589743 
L 444.612754 552.956773 
L 448.852114 555.445638 
L 454.30272 558.370292 
L 460.056137 561.221004 
L 465.506743 563.667913 
L 470.654537 565.73122 
L 476.105143 567.662635 
L 481.85856 569.451064 
L 487.914789 571.088426 
L 493.971017 572.494966 
L 500.330057 573.743884 
L 507.29472 574.881194 
L 515.167817 575.937674 
L 523.646537 576.854806 
L 533.033691 577.64012 
L 543.632091 578.295561 
L 556.350171 578.847803 
L 571.793554 579.283305 
L 591.476297 579.600135 
L 619.63776 579.813387 
L 668.3904 579.927543 
L 816.162377 579.96 
L 1134.72 579.96 
L 1134.72 579.96 
" clip-path="url(#p4d88cab9a8)" style="fill: none; stroke-dasharray: 10.2,3.4,2.04,3.4; stroke-dashoffset: 0; stroke: #1647d8; stroke-opacity: 0.84; stroke-width: 1.7"/>
   </g>
   <g id="line2d_76">
    <path d="M 74.88 579.749948 
L 88.809326 579.448408 
L 99.407726 579.003657 
L 108.492069 578.404283 
L 116.667977 577.64379 
L 123.63264 576.778601 
L 130.597303 575.685526 
L 139.378834 574.060738 
L 148.765989 572.117155 
L 156.336274 570.324825 
L 179.349943 564.436839 
L 186.314606 562.479987 
L 194.793326 559.848209 
L 210.53952 554.700166 
L 232.039131 547.521098 
L 242.33472 544.273151 
L 248.390949 542.077597 
L 272.313051 532.919724 
L 276.552411 530.922549 
L 280.791771 528.670557 
L 285.031131 526.155396 
L 289.270491 523.370372 
L 293.812663 520.117972 
L 299.868891 515.48682 
L 315.312274 503.283677 
L 322.88256 497.043248 
L 328.635977 492.031944 
L 333.48096 487.537644 
L 338.325943 482.727899 
L 343.170926 477.585824 
L 348.015909 472.100847 
L 353.163703 465.92128 
L 362.248046 454.577635 
L 372.543634 441.553464 
L 376.177371 436.502551 
L 379.205486 431.902179 
L 382.536411 426.391544 
L 386.47296 419.390941 
L 391.923566 409.166883 
L 404.944457 384.188442 
L 409.78944 374.362072 
L 414.634423 364.010826 
L 420.085029 351.820108 
L 426.74688 336.335531 
L 434.922789 316.737124 
L 445.824 289.99507 
L 453.091474 271.621355 
L 468.837669 231.238881 
L 472.471406 222.886869 
L 476.105143 215.071565 
L 480.041691 207.10964 
L 484.886674 197.844407 
L 490.034469 188.459171 
L 495.485074 178.991742 
L 500.93568 169.966954 
L 512.139703 151.607038 
L 516.076251 144.606808 
L 529.097143 120.881283 
L 531.822446 116.598409 
L 534.547749 112.727374 
L 536.97024 109.640537 
L 539.392731 106.893495 
L 541.815223 104.491548 
L 543.934903 102.676343 
L 546.054583 101.123357 
L 548.779886 99.424393 
L 553.019246 97.109288 
L 556.955794 94.867438 
L 559.378286 93.231655 
L 561.800777 91.300036 
L 564.828891 88.571681 
L 573.307611 80.708817 
L 575.730103 78.853839 
L 578.152594 77.286833 
L 580.877897 75.801375 
L 584.208823 74.268215 
L 591.779109 71.168515 
L 600.56064 67.590801 
L 604.194377 66.377297 
L 607.222491 65.593804 
L 610.250606 65.041724 
L 613.27872 64.72572 
L 616.306834 64.64997 
L 619.334949 64.818211 
L 622.060251 65.185377 
L 624.482743 65.716614 
L 626.905234 66.482632 
L 629.024914 67.376597 
L 631.144594 68.506433 
L 633.264274 69.897227 
L 635.383954 71.573105 
L 637.806446 73.826537 
L 641.137371 77.295915 
L 647.1936 83.664305 
L 649.616091 85.873037 
L 651.735771 87.510926 
L 654.158263 89.082614 
L 657.489189 90.942614 
L 662.334171 93.631047 
L 664.756663 95.230733 
L 666.876343 96.888482 
L 669.298834 99.095547 
L 671.721326 101.605076 
L 674.446629 104.749217 
L 677.474743 108.587287 
L 681.10848 113.587362 
L 685.045029 119.405234 
L 688.981577 125.617582 
L 693.220937 132.734087 
L 697.460297 140.275788 
L 702.30528 149.354113 
L 708.361509 161.215947 
L 715.628983 175.952092 
L 721.079589 187.48514 
L 725.924571 198.277065 
L 730.769554 209.663156 
L 736.522971 223.781921 
L 745.001691 245.247906 
L 755.600091 272.667612 
L 769.529417 308.76701 
L 775.585646 323.712873 
L 785.881234 349.043872 
L 791.937463 364.683271 
L 801.627429 389.722481 
L 806.775223 402.38064 
L 811.620206 413.742073 
L 816.465189 424.546331 
L 821.00736 434.156129 
L 825.549531 443.248207 
L 829.788891 451.258622 
L 834.028251 458.811407 
L 838.873234 466.981787 
L 845.232274 477.249543 
L 853.408183 490.036204 
L 858.858789 498.17073 
L 863.703771 505.00793 
L 868.245943 511.031606 
L 872.485303 516.304941 
L 876.724663 521.238917 
L 880.964023 525.837685 
L 885.203383 530.118183 
L 889.442743 534.100425 
L 893.984914 538.057327 
L 898.527086 541.713794 
L 903.069257 545.087896 
L 907.611429 548.196868 
L 912.456411 551.240283 
L 917.301394 554.023026 
L 922.449189 556.716646 
L 927.596983 559.161176 
L 933.047589 561.501068 
L 938.801006 563.718232 
L 944.554423 565.698451 
L 950.610651 567.547573 
L 956.969691 569.253073 
L 963.934354 570.882351 
L 971.50464 572.416484 
L 978.772114 573.667857 
L 986.039589 574.697706 
L 994.518309 575.662999 
L 1004.813897 576.597547 
L 1016.01792 577.389779 
L 1029.341623 578.098374 
L 1044.785006 578.694137 
L 1062.348069 579.142877 
L 1085.664549 579.497211 
L 1117.459749 579.743341 
L 1134.72 579.816458 
L 1134.72 579.816458 
" clip-path="url(#p4d88cab9a8)" style="fill: none; stroke-dasharray: 15.3,4.25; stroke-dashoffset: 0; stroke: #e31a1c; stroke-opacity: 0.84; stroke-width: 1.7"/>
   </g>
   <g id="line2d_77">
    <path d="M 74.88 579.7754 
L 89.112137 579.490581 
L 99.710537 579.063042 
L 108.79488 578.473084 
L 116.667977 577.743409 
L 123.63264 576.874387 
L 129.99168 575.858686 
L 136.35072 574.623459 
L 143.012571 573.10316 
L 149.0688 571.502557 
L 154.822217 569.75903 
L 160.878446 567.687928 
L 167.843109 565.061525 
L 174.807771 562.216175 
L 180.864 559.505723 
L 186.011794 556.962384 
L 191.159589 554.1794 
L 196.610194 550.970531 
L 202.363611 547.305237 
L 209.025463 542.778888 
L 222.349166 533.364052 
L 232.039131 526.674603 
L 239.912229 521.183456 
L 244.757211 517.521602 
L 252.024686 511.685947 
L 258.383726 506.690895 
L 271.101806 496.993632 
L 274.432731 494.017866 
L 277.763657 490.736411 
L 281.397394 486.830169 
L 285.333943 482.249142 
L 289.573303 476.966444 
L 294.721097 470.180649 
L 318.340389 438.502967 
L 330.150034 422.936939 
L 335.297829 415.733614 
L 340.142811 408.554058 
L 344.987794 400.955312 
L 349.832777 392.912081 
L 356.79744 380.823068 
L 363.459291 369.382047 
L 374.966126 350.04762 
L 377.99424 344.307452 
L 381.022354 338.019625 
L 384.35328 330.575338 
L 389.198263 319.143254 
L 396.768549 301.295265 
L 409.183817 272.482012 
L 414.0288 260.382596 
L 420.085029 244.595635 
L 438.556526 195.997483 
L 445.521189 178.651726 
L 454.30272 156.725319 
L 464.295497 131.332336 
L 467.323611 124.344175 
L 469.746103 119.252458 
L 472.168594 114.652712 
L 474.591086 110.505702 
L 477.013577 106.76487 
L 479.73888 102.979513 
L 482.464183 99.569127 
L 485.492297 96.125951 
L 488.823223 92.690964 
L 492.154149 89.590681 
L 495.485074 86.788763 
L 499.118811 84.027958 
L 503.358171 81.112748 
L 517.89312 71.405463 
L 522.13248 68.528788 
L 524.857783 66.941484 
L 526.977463 65.937969 
L 528.794331 65.284484 
L 530.6112 64.854923 
L 532.428069 64.658985 
L 534.244937 64.697322 
L 536.061806 64.970163 
L 537.878674 65.477344 
L 539.695543 66.218309 
L 541.512411 67.19211 
L 543.32928 68.397416 
L 545.44896 70.091522 
L 547.871451 72.347678 
L 551.202377 75.80254 
L 558.16704 83.143296 
L 560.892343 85.634616 
L 564.52608 88.587462 
L 569.371063 92.530596 
L 571.793554 94.776678 
L 573.913234 97.015913 
L 576.032914 99.58141 
L 578.455406 102.8892 
L 581.48352 107.451776 
L 585.72288 114.321822 
L 602.377509 142.085043 
L 605.708434 148.35727 
L 609.03936 155.121069 
L 612.975909 163.654193 
L 617.51808 174.065957 
L 622.968686 187.130472 
L 627.510857 198.550714 
L 631.447406 209.01083 
L 635.383954 220.112077 
L 639.926126 233.677801 
L 650.524526 265.604289 
L 655.066697 278.389455 
L 661.122926 294.709676 
L 695.340617 385.151222 
L 701.699657 401.220316 
L 708.058697 416.677591 
L 714.114926 430.806824 
L 719.565531 442.962896 
L 724.713326 453.88344 
L 729.558309 463.622781 
L 734.10048 472.261843 
L 738.642651 480.419589 
L 742.882011 487.599485 
L 747.121371 494.370998 
L 751.663543 501.194694 
L 756.205714 507.593859 
L 760.747886 513.587828 
L 764.987246 518.828305 
L 769.226606 523.737856 
L 773.465966 528.327686 
L 777.705326 532.604895 
L 781.944686 536.574372 
L 786.184046 540.24418 
L 790.423406 543.627116 
L 794.965577 546.959956 
L 799.507749 550.019291 
L 804.352731 553.008916 
L 809.197714 555.734594 
L 814.042697 558.209582 
L 819.190491 560.58149 
L 824.641097 562.838316 
L 830.697326 565.092217 
L 836.753554 567.114206 
L 842.20416 568.71387 
L 847.654766 570.084951 
L 853.710994 571.361849 
L 861.28128 572.716072 
L 870.668434 574.162671 
L 879.752777 575.331617 
L 889.139931 576.310542 
L 899.43552 577.15502 
L 910.639543 577.842922 
L 924.266057 578.439732 
L 941.223497 578.955126 
L 962.420297 579.365013 
L 989.976137 579.663939 
L 1031.158491 579.850432 
L 1106.558537 579.941813 
L 1134.72 579.950417 
L 1134.72 579.950417 
" clip-path="url(#p4d88cab9a8)" style="fill: none; stroke-dasharray: 15.3,4.25; stroke-dashoffset: 0; stroke: #16a33a; stroke-opacity: 0.84; stroke-width: 1.7"/>
   </g>
   <g id="line2d_78">
    <path d="M 74.88 576.794606 
L 78.816549 575.897287 
L 82.450286 574.846858 
L 85.781211 573.652973 
L 88.809326 572.336854 
L 91.534629 570.931357 
L 94.259931 569.283745 
L 96.985234 567.359287 
L 99.407726 565.385933 
L 101.830217 563.136175 
L 104.252709 560.580821 
L 106.6752 557.689918 
L 109.097691 554.432416 
L 111.520183 550.776521 
L 113.942674 546.690782 
L 116.365166 542.144884 
L 118.787657 537.110569 
L 121.210149 531.562694 
L 123.63264 525.480609 
L 126.357943 517.98178 
L 129.083246 509.778937 
L 131.808549 500.87694 
L 134.836663 490.193326 
L 138.167589 477.538092 
L 141.498514 463.967201 
L 144.82944 449.485704 
L 148.463177 432.642657 
L 152.096914 414.685481 
L 156.336274 392.475429 
L 170.871223 314.98373 
L 176.927451 285.201436 
L 182.98368 255.134485 
L 194.490514 196.932007 
L 197.215817 184.546257 
L 199.94112 173.12287 
L 202.969234 161.335316 
L 207.208594 145.828445 
L 213.870446 121.551163 
L 219.01824 102.792846 
L 221.440731 94.732571 
L 223.560411 88.4174 
L 225.37728 83.723774 
L 226.891337 80.423541 
L 228.405394 77.702561 
L 229.919451 75.499308 
L 231.433509 73.744064 
L 232.947566 72.364764 
L 234.461623 71.2876 
L 236.278491 70.288093 
L 239.003794 69.114533 
L 242.031909 67.784636 
L 247.482514 65.141312 
L 248.996571 64.744456 
L 250.207817 64.645714 
L 251.419063 64.789544 
L 252.630309 65.21992 
L 253.538743 65.756831 
L 254.447177 66.497238 
L 255.658423 67.831302 
L 256.869669 69.598479 
L 258.080914 71.80943 
L 259.594971 75.128839 
L 261.41184 79.79689 
L 263.53152 85.974539 
L 266.256823 94.67669 
L 274.12992 120.269106 
L 277.763657 130.939492 
L 282.003017 142.651573 
L 288.059246 158.650797 
L 292.904229 171.608848 
L 295.932343 180.298217 
L 298.657646 188.756628 
L 301.382949 197.982895 
L 304.108251 208.090904 
L 307.136366 220.279545 
L 310.467291 234.63461 
L 314.706651 253.968216 
L 320.76288 282.781541 
L 330.755657 330.333139 
L 335.60064 352.264973 
L 339.537189 369.131224 
L 343.170926 383.758776 
L 346.501851 396.283011 
L 349.832777 407.925881 
L 353.466514 419.767538 
L 357.403063 431.831616 
L 361.945234 445.037063 
L 366.790217 458.447658 
L 370.423954 467.867691 
L 373.75488 475.878388 
L 376.782994 482.577802 
L 379.508297 488.108013 
L 382.536411 493.753679 
L 385.867337 499.472048 
L 389.501074 505.247267 
L 393.437623 511.086608 
L 397.979794 517.410704 
L 402.521966 523.362385 
L 407.366949 529.35327 
L 412.211931 535.006724 
L 417.056914 540.324239 
L 421.599086 544.996109 
L 426.141257 549.347784 
L 429.774994 552.5366 
L 433.10592 555.183083 
L 436.436846 557.545219 
L 439.767771 559.619246 
L 443.401509 561.591934 
L 447.338057 563.468432 
L 451.880229 565.38596 
L 457.330834 567.433362 
L 462.78144 569.234298 
L 468.232046 570.795145 
L 473.985463 572.202536 
L 480.344503 573.518813 
L 487.309166 574.725964 
L 494.57664 575.759126 
L 502.449737 576.647295 
L 511.53408 577.439776 
L 522.435291 578.159774 
L 534.547749 578.730443 
L 549.082697 579.184522 
L 567.857006 579.535579 
L 593.293166 579.772422 
L 634.778331 579.909693 
L 736.22016 579.957398 
L 1134.72 579.96 
L 1134.72 579.96 
" clip-path="url(#p4d88cab9a8)" style="fill: none; stroke-dasharray: 15.3,4.25; stroke-dashoffset: 0; stroke: #1647d8; stroke-opacity: 0.84; stroke-width: 1.7"/>
   </g>
   <g id="text_17">
    <text style="font-size: 18px; font-family: 'DejaVu Sans'; text-anchor: middle" x="604.8" y="28.88" transform="rotate(-0 604.8 28.88)">LMS Comparison</text>
   </g>
   <g id="legend_1">
    <g id="patch_7">
     <path d="M 1082.665312 106.883125 
L 1127.72 106.883125 
Q 1129.72 106.883125 1129.72 104.883125 
L 1129.72 45.88 
Q 1129.72 43.88 1127.72 43.88 
L 1082.665312 43.88 
Q 1080.665312 43.88 1080.665312 45.88 
L 1080.665312 104.883125 
Q 1080.665312 106.883125 1082.665312 106.883125 
z
" style="fill: #ffffff; opacity: 0.94; stroke: #aaaaaa; stroke-linejoin: miter"/>
    </g>
    <g id="text_18">
     <text style="font-size: 10px; font-family: 'DejaVu Sans'; text-anchor: start" x="1084.665312" y="55.478437" transform="rotate(-0 1084.665312 55.478437)">Channel</text>
    </g>
    <g id="line2d_79">
     <path d="M 1086.878594 66.979219 
L 1096.878594 66.979219 
L 1106.878594 66.979219 
" style="fill: none; stroke: #e31a1c; stroke-width: 2.3; stroke-linecap: square"/>
    </g>
    <g id="text_19">
     <text style="font-size: 10px; font-family: 'DejaVu Sans'; text-anchor: start" x="1114.878594" y="70.479219" transform="rotate(-0 1114.878594 70.479219)">L</text>
    </g>
    <g id="line2d_80">
     <path d="M 1086.878594 81.98 
L 1096.878594 81.98 
L 1106.878594 81.98 
" style="fill: none; stroke: #16a33a; stroke-width: 2.3; stroke-linecap: square"/>
    </g>
    <g id="text_20">
     <text style="font-size: 10px; font-family: 'DejaVu Sans'; text-anchor: start" x="1114.878594" y="85.48" transform="rotate(-0 1114.878594 85.48)">M</text>
    </g>
    <g id="line2d_81">
     <path d="M 1086.878594 96.980781 
L 1096.878594 96.980781 
L 1106.878594 96.980781 
" style="fill: none; stroke: #1647d8; stroke-width: 2.3; stroke-linecap: square"/>
    </g>
    <g id="text_21">
     <text style="font-size: 10px; font-family: 'DejaVu Sans'; text-anchor: start" x="1114.878594" y="100.480781" transform="rotate(-0 1114.878594 100.480781)">S</text>
    </g>
   </g>
   <g id="legend_2">
    <g id="patch_8">
     <path d="M 1035.176328 212.199008 
L 1128.07 212.199008 
Q 1129.97 212.199008 1129.97 210.299008 
L 1129.97 153.746 
Q 1129.97 151.846 1128.07 151.846 
L 1035.176328 151.846 
Q 1033.276328 151.846 1033.276328 153.746 
L 1033.276328 210.299008 
Q 1033.276328 212.199008 1035.176328 212.199008 
z
" style="fill: #ffffff; opacity: 0.94; stroke: #aaaaaa; stroke-linejoin: miter"/>
    </g>
    <g id="text_22">
     <text style="font-size: 10px; font-family: 'DejaVu Sans'; text-anchor: start" x="1058.684883" y="163.244438" transform="rotate(-0 1058.684883 163.244438)">Observer</text>
    </g>
    <g id="line2d_82">
     <path d="M 1037.076328 174.290297 
L 1046.576328 174.290297 
L 1056.076328 174.290297 
" style="fill: none; stroke-dasharray: 10.2,3.4,2.04,3.4; stroke-dashoffset: 0; stroke: #333333; stroke-width: 1.7"/>
    </g>
    <g id="text_23">
     <text style="font-size: 9.5px; font-family: 'DejaVu Sans'; text-anchor: start" x="1063.676328" y="177.615297" transform="rotate(-0 1063.676328 177.615297)">CIE 2015 2°</text>
    </g>
    <g id="line2d_83">
     <path d="M 1037.076328 188.541039 
L 1046.576328 188.541039 
L 1056.076328 188.541039 
" style="fill: none; stroke-dasharray: 15.3,4.25; stroke-dashoffset: 0; stroke: #333333; stroke-width: 1.7"/>
    </g>
    <g id="text_24">
     <text style="font-size: 9.5px; font-family: 'DejaVu Sans'; text-anchor: start" x="1063.676328" y="191.866039" transform="rotate(-0 1063.676328 191.866039)">CIE 2015 10°</text>
    </g>
    <g id="line2d_84">
     <path d="M 1037.076328 202.791781 
L 1046.576328 202.791781 
L 1056.076328 202.791781 
" style="fill: none; stroke: #333333; stroke-width: 2.55; stroke-linecap: square"/>
    </g>
    <g id="text_25">
     <text style="font-size: 9.5px; font-family: 'DejaVu Sans'; text-anchor: start" x="1063.676328" y="206.116781" transform="rotate(-0 1063.676328 206.116781)">Potera</text>
    </g>
   </g>
   <g id="line2d_85">
    <path d="M 74.88 579.618153 
L 90.020571 579.276232 
L 102.133029 578.76765 
L 111.217371 578.186349 
L 120.301714 577.386521 
L 129.386057 576.329651 
L 138.4704 575.021142 
L 147.554743 573.503659 
L 159.6672 571.207467 
L 177.835886 567.468741 
L 189.948343 564.800478 
L 202.0608 561.905491 
L 214.173257 558.758962 
L 226.285714 555.368985 
L 238.398171 551.785933 
L 247.482514 548.872022 
L 256.566857 545.681563 
L 262.623086 543.377739 
L 268.679314 540.877074 
L 274.735543 538.110215 
L 280.791771 535.016652 
L 286.848 531.55286 
L 292.904229 527.688934 
L 298.960457 523.439183 
L 305.016686 518.851092 
L 311.072914 513.969152 
L 317.129143 508.819435 
L 323.185371 503.425483 
L 329.2416 497.794233 
L 335.297829 491.914146 
L 341.354057 485.767009 
L 347.410286 479.330019 
L 353.466514 472.569141 
L 359.522743 465.458796 
L 365.578971 457.975937 
L 371.6352 450.027593 
L 377.691429 441.431772 
L 380.719543 436.830911 
L 386.775771 426.997484 
L 392.832 416.365278 
L 398.888229 405.000747 
L 404.944457 392.893057 
L 411.000686 380.019418 
L 417.056914 366.409386 
L 423.113143 352.157155 
L 429.169371 337.387872 
L 438.253714 314.571273 
L 462.478629 253.206915 
L 468.534857 238.57784 
L 474.591086 224.62323 
L 480.647314 211.32584 
L 486.703543 198.592811 
L 492.759771 186.399447 
L 498.816 174.808793 
L 504.872229 163.85919 
L 510.928457 153.449362 
L 516.984686 143.42241 
L 523.040914 133.789696 
L 529.097143 124.762954 
L 532.125257 120.54644 
L 535.153371 116.542136 
L 538.181486 112.751347 
L 541.2096 109.176559 
L 544.237714 105.821462 
L 547.265829 102.684251 
L 550.293943 99.737719 
L 556.350171 94.286889 
L 562.4064 89.243417 
L 568.462629 84.502718 
L 571.490743 82.320065 
L 574.518857 80.315423 
L 577.546971 78.518958 
L 580.575086 76.919995 
L 583.6032 75.497036 
L 586.631314 74.228066 
L 592.687543 72.067903 
L 595.715657 71.165842 
L 598.743771 70.396416 
L 601.771886 69.771646 
L 604.8 69.303647 
L 607.828114 69.002765 
L 610.856229 68.872018 
L 613.884343 68.912609 
L 616.912457 69.125763 
L 619.940571 69.512794 
L 622.968686 70.077613 
L 625.9968 70.83429 
L 629.024914 71.799392 
L 632.053029 72.989343 
L 635.081143 74.420269 
L 638.109257 76.096833 
L 641.137371 77.979517 
L 647.1936 82.167543 
L 656.277943 88.938697 
L 659.306057 91.373831 
L 662.334171 93.979545 
L 665.362286 96.805199 
L 668.3904 99.88939 
L 671.418514 103.231392 
L 674.446629 106.820531 
L 677.474743 110.645884 
L 680.502857 114.696352 
L 683.530971 118.962596 
L 686.559086 123.442638 
L 689.5872 128.135798 
L 695.643429 138.155836 
L 701.699657 148.996344 
L 707.755886 160.588739 
L 713.812114 172.851218 
L 719.868343 185.753499 
L 725.924571 199.30933 
L 731.9808 213.495785 
L 738.037029 228.196954 
L 747.121371 250.927405 
L 759.233829 282.01885 
L 774.3744 320.954123 
L 789.514971 359.024262 
L 798.599314 381.436597 
L 804.655543 395.888548 
L 810.711771 409.817587 
L 816.768 423.173038 
L 822.824229 435.913055 
L 828.880457 447.999563 
L 834.936686 459.405178 
L 840.992914 470.154076 
L 847.049143 480.303503 
L 853.105371 489.878495 
L 859.1616 498.837928 
L 865.217829 507.145304 
L 871.274057 514.791742 
L 877.330286 521.789519 
L 883.386514 528.162824 
L 889.442743 533.948461 
L 895.498971 539.184205 
L 901.5552 543.934891 
L 907.611429 548.200801 
L 913.667657 552.019453 
L 919.723886 555.428116 
L 925.780114 558.462662 
L 931.836343 561.157207 
L 937.892571 563.543936 
L 943.9488 565.652753 
L 950.005029 567.510822 
L 956.061257 569.143584 
L 962.117486 570.576278 
L 968.173714 571.832864 
L 977.258057 573.428494 
L 986.3424 574.71647 
L 995.426743 575.749266 
L 1004.511086 576.581726 
L 1016.623543 577.445443 
L 1028.736 578.09099 
L 1043.876571 578.673917 
L 1062.045257 579.138261 
L 1086.270171 579.504959 
L 1119.579429 579.755322 
L 1134.72 579.816964 
L 1134.72 579.816964 
" clip-path="url(#p4d88cab9a8)" style="fill: none; stroke: #e31a1c; stroke-width: 2.55; stroke-linecap: square"/>
   </g>
   <g id="line2d_86">
    <path d="M 74.88 579.69056 
L 93.048686 579.35867 
L 105.161143 578.919445 
L 114.245486 578.410024 
L 123.329829 577.685911 
L 132.414171 576.682693 
L 138.4704 575.833387 
L 144.526629 574.825242 
L 150.582857 573.645053 
L 156.639086 572.281401 
L 162.695314 570.729139 
L 168.751543 568.987667 
L 174.807771 567.054046 
L 180.864 564.917277 
L 186.920229 562.560269 
L 192.976457 559.96543 
L 199.032686 557.11571 
L 205.088914 554.010296 
L 211.145143 550.673214 
L 217.201371 547.139763 
L 226.285714 541.530018 
L 235.370057 535.618435 
L 244.4544 529.387019 
L 253.538743 522.790536 
L 262.623086 515.85444 
L 268.679314 510.941505 
L 274.735543 505.639415 
L 280.791771 499.845226 
L 286.848 493.518114 
L 292.904229 486.646148 
L 298.960457 479.274243 
L 305.016686 471.498585 
L 311.072914 463.41799 
L 320.157257 450.893689 
L 329.2416 438.040034 
L 338.325943 424.833573 
L 347.410286 411.166257 
L 353.466514 401.718734 
L 359.522743 391.970245 
L 365.578971 381.909618 
L 371.6352 371.4057 
L 377.691429 360.181076 
L 380.719543 354.21056 
L 386.775771 341.542926 
L 392.832 328.02316 
L 398.888229 313.805813 
L 404.944457 298.895374 
L 411.000686 283.266595 
L 417.056914 266.993484 
L 426.141257 241.811923 
L 438.253714 208.04443 
L 444.309943 191.616579 
L 450.366171 175.704187 
L 456.4224 160.387951 
L 462.478629 145.868373 
L 465.506743 139.017543 
L 468.534857 132.500944 
L 471.562971 126.355145 
L 474.591086 120.573907 
L 477.6192 115.137621 
L 480.647314 110.024214 
L 483.675429 105.209835 
L 486.703543 100.674439 
L 489.731657 96.417504 
L 492.759771 92.443933 
L 495.787886 88.759038 
L 498.816 85.368338 
L 501.844114 82.273916 
L 504.872229 79.464239 
L 507.900343 76.923179 
L 510.928457 74.632997 
L 513.956571 72.57423 
L 516.984686 70.73405 
L 520.0128 69.131967 
L 523.040914 67.795496 
L 526.069029 66.752223 
L 529.097143 66.030107 
L 532.125257 65.652649 
L 535.153371 65.623199 
L 538.181486 65.940912 
L 541.2096 66.606094 
L 544.237714 67.620142 
L 547.265829 68.978213 
L 550.293943 70.648204 
L 553.322057 72.592969 
L 556.350171 74.778842 
L 559.378286 77.178602 
L 562.4064 79.770412 
L 565.434514 82.546875 
L 568.462629 85.552767 
L 571.490743 88.833448 
L 574.518857 92.432615 
L 577.546971 96.378698 
L 580.575086 100.645874 
L 583.6032 105.195275 
L 589.659429 114.988913 
L 595.715657 125.541728 
L 601.771886 136.943175 
L 604.8 143.007997 
L 610.856229 155.898991 
L 616.912457 169.693383 
L 622.968686 184.245074 
L 629.024914 199.508376 
L 635.081143 215.518942 
L 641.137371 232.224042 
L 665.362286 300.68554 
L 683.530971 351.734833 
L 692.615314 376.630615 
L 698.671543 392.710529 
L 704.727771 408.258021 
L 710.784 423.204001 
L 716.840229 437.482746 
L 722.896457 451.023033 
L 728.952686 463.76734 
L 735.008914 475.678787 
L 741.065143 486.739153 
L 747.121371 496.946288 
L 753.1776 506.31627 
L 756.205714 510.695075 
L 759.233829 514.874623 
L 762.261943 518.858755 
L 765.290057 522.651643 
L 768.318171 526.257858 
L 771.346286 529.682317 
L 774.3744 532.930014 
L 777.402514 536.005516 
L 780.430629 538.913554 
L 783.458743 541.65926 
L 786.486857 544.248011 
L 789.514971 546.685696 
L 795.5712 551.135807 
L 801.627429 555.064609 
L 807.683657 558.522427 
L 813.739886 561.552287 
L 819.796114 564.195181 
L 825.852343 566.495254 
L 831.908571 568.496243 
L 837.9648 570.231898 
L 844.021029 571.719487 
L 850.077257 572.978231 
L 856.133486 574.041422 
L 865.217829 575.350883 
L 874.302171 576.388158 
L 883.386514 577.200269 
L 895.498971 578.006971 
L 907.611429 578.576739 
L 922.752 579.051833 
L 943.9488 579.449267 
L 971.201829 579.710857 
L 1013.595429 579.873082 
L 1107.466971 579.949931 
L 1134.72 579.954429 
L 1134.72 579.954429 
" clip-path="url(#p4d88cab9a8)" style="fill: none; stroke: #16a33a; stroke-width: 2.55; stroke-linecap: square"/>
   </g>
   <g id="line2d_87">
    <path d="M 74.88 574.835465 
L 77.908114 573.927004 
L 80.936229 572.846067 
L 83.964343 571.562788 
L 86.992457 570.043396 
L 90.020571 568.250083 
L 93.048686 566.14099 
L 96.0768 563.670317 
L 99.104914 560.788621 
L 102.133029 557.443328 
L 105.161143 553.579506 
L 108.189257 549.140749 
L 111.217371 544.069818 
L 114.245486 538.310331 
L 117.2736 531.808722 
L 120.301714 524.516342 
L 123.329829 516.391967 
L 126.357943 507.404956 
L 129.386057 497.537757 
L 132.414171 486.78847 
L 135.442286 475.17322 
L 138.4704 462.725132 
L 141.498514 449.484139 
L 144.526629 435.501011 
L 147.554743 420.838333 
L 153.610971 389.777074 
L 159.6672 357.125811 
L 168.751543 307.682517 
L 174.807771 275.77184 
L 180.864 244.929031 
L 186.920229 215.084071 
L 192.976457 186.807142 
L 196.004571 173.520002 
L 199.032686 160.933984 
L 202.0608 149.052278 
L 205.088914 137.847907 
L 208.117029 127.288233 
L 211.145143 117.335257 
L 214.173257 107.978947 
L 217.201371 99.344525 
L 220.229486 91.598997 
L 223.2576 84.915508 
L 226.285714 79.468726 
L 229.313829 75.38631 
L 232.341943 72.613597 
L 235.370057 71.035115 
L 238.398171 70.519387 
L 241.426286 70.921745 
L 244.4544 72.128312 
L 247.482514 74.182717 
L 250.510629 77.161689 
L 253.538743 81.13378 
L 256.566857 86.158716 
L 259.594971 92.243888 
L 262.623086 99.222329 
L 265.6512 106.891279 
L 268.679314 115.061017 
L 274.735543 132.247719 
L 280.791771 150.080075 
L 286.848 168.467928 
L 292.904229 187.496502 
L 298.960457 207.629859 
L 301.988571 218.264956 
L 308.0448 240.804024 
L 314.101029 264.776382 
L 320.157257 289.751712 
L 335.297829 352.854229 
L 341.354057 376.83479 
L 347.410286 399.350835 
L 350.4384 409.959119 
L 353.466514 420.123901 
L 356.494629 429.851904 
L 359.522743 439.150772 
L 362.550857 448.02919 
L 365.578971 456.490651 
L 368.607086 464.517845 
L 371.6352 472.09614 
L 374.663314 479.219257 
L 377.691429 485.887818 
L 380.719543 492.112438 
L 383.747657 497.923846 
L 386.775771 503.355018 
L 389.803886 508.436303 
L 392.832 513.195598 
L 395.860114 517.658481 
L 398.888229 521.848244 
L 401.916343 525.786171 
L 404.944457 529.491629 
L 407.972571 532.98213 
L 411.000686 536.272812 
L 414.0288 539.375086 
L 417.056914 542.298872 
L 420.085029 545.053287 
L 423.113143 547.646703 
L 426.141257 550.084882 
L 429.169371 552.366514 
L 432.197486 554.491001 
L 435.2256 556.46021 
L 438.253714 558.277914 
L 441.281829 559.951272 
L 447.338057 562.92435 
L 453.394286 565.485864 
L 459.450514 567.708338 
L 465.506743 569.625508 
L 471.562971 571.265807 
L 477.6192 572.662275 
L 483.675429 573.848687 
L 489.731657 574.854097 
L 498.816 576.073592 
L 507.900343 577.010185 
L 516.984686 577.729604 
L 529.097143 578.432894 
L 541.2096 578.918303 
L 556.350171 579.316883 
L 577.546971 579.634804 
L 607.828114 579.837005 
L 662.334171 579.93755 
L 868.245943 579.959914 
L 1134.72 579.96 
L 1134.72 579.96 
" clip-path="url(#p4d88cab9a8)" style="fill: none; stroke: #1647d8; stroke-width: 2.55; stroke-linecap: square"/>
   </g>
   <g id="patch_9">
    <path d="M 74.88 579.96 
L 1134.72 579.96 
L 1134.72 38.88 
L 74.88 38.88 
L 74.88 579.96 
z
" style="fill: none; stroke: #000000; stroke-width: 1.25; stroke-linejoin: miter"/>
   </g>
  </g>
 </g>
 <defs>
  <clipPath id="p4d88cab9a8">
   <rect x="74.88" y="38.88" width="1059.84" height="541.08"/>
  </clipPath>
 </defs>
</svg>
