<?xml version="1.0" encoding="utf-8" standalone="no"?>
<!DOCTYPE svg PUBLIC "-//W3C//DTD SVG 1.1//EN"
  "http://www.w3.org/Graphics/SVG/1.1/DTD/svg11.dtd">
<svg xmlns:xlink="http://www.w3.org/1999/xlink" width="864pt" height="504pt" viewBox="0 0 864 504" xmlns="http://www.w3.org/2000/svg" version="1.1">
 <metadata>
  <rdf:RDF xmlns:dc="http://purl.org/dc/elements/1.1/" xmlns:cc="http://creativecommons.org/ns#" xmlns:rdf="http://www.w3.org/1999/02/22-rdf-syntax-ns#">
   <cc:Work>
    <dc:type rdf:resource="http://purl.org/dc/dcmitype/StillImage"/>
    <dc:format>image/svg+xml</dc:format>
    <dc:creator>
     <cc:Agent>
      <dc:title>Potera CMF v1</dc:title>
     </cc:Agent>
    </dc:creator>
   </cc:Work>
  </rdf:RDF>
 </metadata>
 <defs>
  <style type="text/css">*{stroke-linejoin: round; stroke-linecap: butt}</style>
 </defs>
 <g id="figure_1">
  <g id="patch_1">
   <path d="M 0 504 
L 864 504 
L 864 0 
L 0 0 
z
" style="fill: #ffffff"/>
  </g>
  <g id="axes_1">
   <g id="patch_2">
    <path d="M 73.44 443.52 
L 842.4 443.52 
L 842.4 45.36 
L 73.44 45.36 
z
" style="fill: #f5f5f5"/>
   </g>
   <g id="matplotlib.axis_1">
    <g id="xtick_1">
     <g id="line2d_1">
      <path d="M 73.44 443.52 
L 73.44 45.36 
" clip-path="url(#pd4d02f2856)" style="fill: none; stroke-dasharray: 2.59,1.12; stroke-dashoffset: 0; stroke: #b8b8b8; stroke-opacity: 0.48; stroke-width: 0.7"/>
     </g>
     <g id="line2d_2">
      <defs>
       <path id="m58e823d47d" d="M 0 0 
L 0 7 
" style="stroke: #000000; stroke-width: 1.2"/>
      </defs>
      <g>
       <use xlink:href="#m58e823d47d" x="73.44" y="443.52" style="stroke: #000000; stroke-width: 1.2"/>
      </g>
     </g>
     <g id="text_1">
      <text style="font-size: 12px; font-family: 'DejaVu Sans'; text-anchor: middle" x="73.44" y="463.137187" transform="rotate(-0 73.44 463.137187)">390</text>
     </g>
    </g>
    <g id="xtick_2">
     <g id="line2d_3">
      <path d="M 205.261714 443.52 
L 205.261714 45.36 
" clip-path="url(#pd4d02f2856)" style="fill: none; stroke-dasharray: 2.59,1.12; stroke-dashoffset: 0; stroke: #b8b8b8; stroke-opacity: 0.48; stroke-width: 0.7"/>
     </g>
     <g id="line2d_4">
      <g>
       <use xlink:href="#m58e823d47d" x="205.261714" y="443.52" style="stroke: #000000; stroke-width: 1.2"/>
      </g>
     </g>
     <g id="text_2">
      <text style="font-size: 12px; font-family: 'DejaVu Sans'; text-anchor: middle" x="205.261714" y="463.137187" transform="rotate(-0 205.261714 463.137187)">450</text>
     </g>
    </g>
    <g id="xtick_3">
     <g id="line2d_5">
      <path d="M 315.113143 443.52 
L 315.113143 45.36 
" clip-path="url(#pd4d02f2856)" style="fill: none; stroke-dasharray: 2.59,1.12; stroke-dashoffset: 0; stroke: #b8b8b8; stroke-opacity: 0.48; stroke-width: 0.7"/>
     </g>
     <g id="line2d_6">
      <g>
       <use xlink:href="#m58e823d47d" x="315.113143" y="443.52" style="stroke: #000000; stroke-width: 1.2"/>
      </g>
     </g>
     <g id="text_3">
      <text style="font-size: 12px; font-family: 'DejaVu Sans'; text-anchor: middle" x="315.113143" y="463.137187" transform="rotate(-0 315.113143 463.137187)">500</text>
     </g>
    </g>
    <g id="xtick_4">
     <g id="line2d_7">
      <path d="M 424.964571 443.52 
L 424.964571 45.36 
" clip-path="url(#pd4d02f2856)" style="fill: none; stroke-dasharray: 2.59,1.12; stroke-dashoffset: 0; stroke: #b8b8b8; stroke-opacity: 0.48; stroke-width: 0.7"/>
     </g>
     <g id="line2d_8">
      <g>
       <use xlink:href="#m58e823d47d" x="424.964571" y="443.52" style="stroke: #000000; stroke-width: 1.2"/>
      </g>
     </g>
     <g id="text_4">
      <text style="font-size: 12px; font-family: 'DejaVu Sans'; text-anchor: middle" x="424.964571" y="463.137187" transform="rotate(-0 424.964571 463.137187)">550</text>
     </g>
    </g>
    <g id="xtick_5">
     <g id="line2d_9">
      <path d="M 534.816 443.52 
L 534.816 45.36 
" clip-path="url(#pd4d02f2856)" style="fill: none; stroke-dasharray: 2.59,1.12; stroke-dashoffset: 0; stroke: #b8b8b8; stroke-opacity: 0.48; stroke-width: 0.7"/>
     </g>
     <g id="line2d_10">
      <g>
       <use xlink:href="#m58e823d47d" x="534.816" y="443.52" style="stroke: #000000; stroke-width: 1.2"/>
      </g>
     </g>
     <g id="text_5">
      <text style="font-size: 12px; font-family: 'DejaVu Sans'; text-anchor: middle" x="534.816" y="463.137187" transform="rotate(-0 534.816 463.137187)">600</text>
     </g>
    </g>
    <g id="xtick_6">
     <g id="line2d_11">
      <path d="M 644.667429 443.52 
L 644.667429 45.36 
" clip-path="url(#pd4d02f2856)" style="fill: none; stroke-dasharray: 2.59,1.12; stroke-dashoffset: 0; stroke: #b8b8b8; stroke-opacity: 0.48; stroke-width: 0.7"/>
     </g>
     <g id="line2d_12">
      <g>
       <use xlink:href="#m58e823d47d" x="644.667429" y="443.52" style="stroke: #000000; stroke-width: 1.2"/>
      </g>
     </g>
     <g id="text_6">
      <text style="font-size: 12px; font-family: 'DejaVu Sans'; text-anchor: middle" x="644.667429" y="463.137187" transform="rotate(-0 644.667429 463.137187)">650</text>
     </g>
    </g>
    <g id="xtick_7">
     <g id="line2d_13">
      <path d="M 754.518857 443.52 
L 754.518857 45.36 
" clip-path="url(#pd4d02f2856)" style="fill: none; stroke-dasharray: 2.59,1.12; stroke-dashoffset: 0; stroke: #b8b8b8; stroke-opacity: 0.48; stroke-width: 0.7"/>
     </g>
     <g id="line2d_14">
      <g>
       <use xlink:href="#m58e823d47d" x="754.518857" y="443.52" style="stroke: #000000; stroke-width: 1.2"/>
      </g>
     </g>
     <g id="text_7">
      <text style="font-size: 12px; font-family: 'DejaVu Sans'; text-anchor: middle" x="754.518857" y="463.137187" transform="rotate(-0 754.518857 463.137187)">700</text>
     </g>
    </g>
    <g id="xtick_8">
     <g id="line2d_15">
      <path d="M 842.4 443.52 
L 842.4 45.36 
" clip-path="url(#pd4d02f2856)" style="fill: none; stroke-dasharray: 2.59,1.12; stroke-dashoffset: 0; stroke: #b8b8b8; stroke-opacity: 0.48; stroke-width: 0.7"/>
     </g>
     <g id="line2d_16">
      <g>
       <use xlink:href="#m58e823d47d" x="842.4" y="443.52" style="stroke: #000000; stroke-width: 1.2"/>
      </g>
     </g>
     <g id="text_8">
      <text style="font-size: 12px; font-family: 'DejaVu Sans'; text-anchor: middle" x="842.4" y="463.137187" transform="rotate(-0 842.4 463.137187)">740</text>
     </g>
    </g>
    <g id="xtick_9">
     <g id="line2d_17">
      <defs>
       <path id="mfb8d0a0f9b" d="M 0 0 
L 0 3.5 
" style="stroke: #000000; stroke-width: 0.9"/>
      </defs>
      <g>
       <use xlink:href="#mfb8d0a0f9b" x="95.410286" y="443.52" style="stroke: #000000; stroke-width: 0.9"/>
      </g>
     </g>
    </g>
    <g id="xtick_10">
     <g id="line2d_18">
      <g>
       <use xlink:href="#mfb8d0a0f9b" x="117.380571" y="443.52" style="stroke: #000000; stroke-width: 0.9"/>
      </g>
     </g>
    </g>
    <g id="xtick_11">
     <g id="line2d_19">
      <g>
       <use xlink:href="#mfb8d0a0f9b" x="139.350857" y="443.52" style="stroke: #000000; stroke-width: 0.9"/>
      </g>
     </g>
    </g>
    <g id="xtick_12">
     <g id="line2d_20">
      <g>
       <use xlink:href="#mfb8d0a0f9b" x="161.321143" y="443.52" style="stroke: #000000; stroke-width: 0.9"/>
      </g>
     </g>
    </g>
    <g id="xtick_13">
     <g id="line2d_21">
      <g>
       <use xlink:href="#mfb8d0a0f9b" x="183.291429" y="443.52" style="stroke: #000000; stroke-width: 0.9"/>
      </g>
     </g>
    </g>
    <g id="xtick_14">
     <g id="line2d_22">
      <g>
       <use xlink:href="#mfb8d0a0f9b" x="227.232" y="443.52" style="stroke: #000000; stroke-width: 0.9"/>
      </g>
     </g>
    </g>
    <g id="xtick_15">
     <g id="line2d_23">
      <g>
       <use xlink:href="#mfb8d0a0f9b" x="249.202286" y="443.52" style="stroke: #000000; stroke-width: 0.9"/>
      </g>
     </g>
    </g>
    <g id="xtick_16">
     <g id="line2d_24">
      <g>
       <use xlink:href="#mfb8d0a0f9b" x="271.172571" y="443.52" style="stroke: #000000; stroke-width: 0.9"/>
      </g>
     </g>
    </g>
    <g id="xtick_17">
     <g id="line2d_25">
      <g>
       <use xlink:href="#mfb8d0a0f9b" x="293.142857" y="443.52" style="stroke: #000000; stroke-width: 0.9"/>
      </g>
     </g>
    </g>
    <g id="xtick_18">
     <g id="line2d_26">
      <g>
       <use xlink:href="#mfb8d0a0f9b" x="337.083429" y="443.52" style="stroke: #000000; stroke-width: 0.9"/>
      </g>
     </g>
    </g>
    <g id="xtick_19">
     <g id="line2d_27">
      <g>
       <use xlink:href="#mfb8d0a0f9b" x="359.053714" y="443.52" style="stroke: #000000; stroke-width: 0.9"/>
      </g>
     </g>
    </g>
    <g id="xtick_20">
     <g id="line2d_28">
      <g>
       <use xlink:href="#mfb8d0a0f9b" x="381.024" y="443.52" style="stroke: #000000; stroke-width: 0.9"/>
      </g>
     </g>
    </g>
    <g id="xtick_21">
     <g id="line2d_29">
      <g>
       <use xlink:href="#mfb8d0a0f9b" x="402.994286" y="443.52" style="stroke: #000000; stroke-width: 0.9"/>
      </g>
     </g>
    </g>
    <g id="xtick_22">
     <g id="line2d_30">
      <g>
       <use xlink:href="#mfb8d0a0f9b" x="446.934857" y="443.52" style="stroke: #000000; stroke-width: 0.9"/>
      </g>
     </g>
    </g>
    <g id="xtick_23">
     <g id="line2d_31">
      <g>
       <use xlink:href="#mfb8d0a0f9b" x="468.905143" y="443.52" style="stroke: #000000; stroke-width: 0.9"/>
      </g>
     </g>
    </g>
    <g id="xtick_24">
     <g id="line2d_32">
      <g>
       <use xlink:href="#mfb8d0a0f9b" x="490.875429" y="443.52" style="stroke: #000000; stroke-width: 0.9"/>
      </g>
     </g>
    </g>
    <g id="xtick_25">
     <g id="line2d_33">
      <g>
       <use xlink:href="#mfb8d0a0f9b" x="512.845714" y="443.52" style="stroke: #000000; stroke-width: 0.9"/>
      </g>
     </g>
    </g>
    <g id="xtick_26">
     <g id="line2d_34">
      <g>
       <use xlink:href="#mfb8d0a0f9b" x="556.786286" y="443.52" style="stroke: #000000; stroke-width: 0.9"/>
      </g>
     </g>
    </g>
    <g id="xtick_27">
     <g id="line2d_35">
      <g>
       <use xlink:href="#mfb8d0a0f9b" x="578.756571" y="443.52" style="stroke: #000000; stroke-width: 0.9"/>
      </g>
     </g>
    </g>
    <g id="xtick_28">
     <g id="line2d_36">
      <g>
       <use xlink:href="#mfb8d0a0f9b" x="600.726857" y="443.52" style="stroke: #000000; stroke-width: 0.9"/>
      </g>
     </g>
    </g>
    <g id="xtick_29">
     <g id="line2d_37">
      <g>
       <use xlink:href="#mfb8d0a0f9b" x="622.697143" y="443.52" style="stroke: #000000; stroke-width: 0.9"/>
      </g>
     </g>
    </g>
    <g id="xtick_30">
     <g id="line2d_38">
      <g>
       <use xlink:href="#mfb8d0a0f9b" x="666.637714" y="443.52" style="stroke: #000000; stroke-width: 0.9"/>
      </g>
     </g>
    </g>
    <g id="xtick_31">
     <g id="line2d_39">
      <g>
       <use xlink:href="#mfb8d0a0f9b" x="688.608" y="443.52" style="stroke: #000000; stroke-width: 0.9"/>
      </g>
     </g>
    </g>
    <g id="xtick_32">
     <g id="line2d_40">
      <g>
       <use xlink:href="#mfb8d0a0f9b" x="710.578286" y="443.52" style="stroke: #000000; stroke-width: 0.9"/>
      </g>
     </g>
    </g>
    <g id="xtick_33">
     <g id="line2d_41">
      <g>
       <use xlink:href="#mfb8d0a0f9b" x="732.548571" y="443.52" style="stroke: #000000; stroke-width: 0.9"/>
      </g>
     </g>
    </g>
    <g id="xtick_34">
     <g id="line2d_42">
      <g>
       <use xlink:href="#mfb8d0a0f9b" x="776.489143" y="443.52" style="stroke: #000000; stroke-width: 0.9"/>
      </g>
     </g>
    </g>
    <g id="xtick_35">
     <g id="line2d_43">
      <g>
       <use xlink:href="#mfb8d0a0f9b" x="798.459429" y="443.52" style="stroke: #000000; stroke-width: 0.9"/>
      </g>
     </g>
    </g>
    <g id="xtick_36">
     <g id="line2d_44">
      <g>
       <use xlink:href="#mfb8d0a0f9b" x="820.429714" y="443.52" style="stroke: #000000; stroke-width: 0.9"/>
      </g>
     </g>
    </g>
    <g id="text_9">
     <!-- Wavelength $\lambda$ (nm) -->
     <g transform="translate(391 480.66)">
      <text>
       <tspan x="0" y="-0.359375" style="font-size: 14px; font-family: 'DejaVu Sans'">W</tspan>
       <tspan x="13.842773" y="-0.359375" style="font-size: 14px; font-family: 'DejaVu Sans'">a</tspan>
       <tspan x="22.421875" y="-0.359375" style="font-size: 14px; font-family: 'DejaVu Sans'">v</tspan>
       <tspan x="30.707031" y="-0.359375" style="font-size: 14px; font-family: 'DejaVu Sans'">e</tspan>
       <tspan x="39.320312" y="-0.359375" style="font-size: 14px; font-family: 'DejaVu Sans'">l</tspan>
       <tspan x="43.209961" y="-0.359375" style="font-size: 14px; font-family: 'DejaVu Sans'">e</tspan>
       <tspan x="51.823242" y="-0.359375" style="font-size: 14px; font-family: 'DejaVu Sans'">n</tspan>
       <tspan x="60.696289" y="-0.359375" style="font-size: 14px; font-family: 'DejaVu Sans'">g</tspan>
       <tspan x="69.583008" y="-0.359375" style="font-size: 14px; font-family: 'DejaVu Sans'">t</tspan>
       <tspan x="75.072266" y="-0.359375" style="font-size: 14px; font-family: 'DejaVu Sans'">h</tspan>
       <tspan x="83.945312" y="-0.359375" style="font-size: 14px; font-family: 'DejaVu Sans'"> </tspan>
       <tspan x="96.680664" y="-0.359375" style="font-size: 14px; font-family: 'DejaVu Sans'"> </tspan>
       <tspan x="101.130859" y="-0.359375" style="font-size: 14px; font-family: 'DejaVu Sans'">(</tspan>
       <tspan x="106.592773" y="-0.359375" style="font-size: 14px; font-family: 'DejaVu Sans'">n</tspan>
       <tspan x="115.46582" y="-0.359375" style="font-size: 14px; font-family: 'DejaVu Sans'">m</tspan>
       <tspan x="129.103516" y="-0.359375" style="font-size: 14px; font-family: 'DejaVu Sans'">)</tspan>
       <tspan x="88.395508" y="-0.359375" style="font-style: oblique; font-size: 14px; font-family: 'DejaVu Sans'">λ</tspan>
      </text>
     </g>
    </g>
   </g>
   <g id="matplotlib.axis_2">
    <g id="ytick_1">
     <g id="line2d_45">
      <path d="M 73.44 443.52 
L 842.4 443.52 
" clip-path="url(#pd4d02f2856)" style="fill: none; stroke-dasharray: 2.59,1.12; stroke-dashoffset: 0; stroke: #b8b8b8; stroke-opacity: 0.48; stroke-width: 0.7"/>
     </g>
     <g id="line2d_46">
      <defs>
       <path id="mcd8f76608c" d="M 0 0 
L -7 0 
" style="stroke: #000000; stroke-width: 1.2"/>
      </defs>
      <g>
       <use xlink:href="#mcd8f76608c" x="73.44" y="443.52" style="stroke: #000000; stroke-width: 1.2"/>
      </g>
     </g>
     <g id="text_10">
      <text style="font-size: 12px; font-family: 'DejaVu Sans'; text-anchor: end" x="62.94" y="448.078594" transform="rotate(-0 62.94 448.078594)">0.00</text>
     </g>
    </g>
    <g id="ytick_2">
     <g id="line2d_47">
      <path d="M 73.44 398.118291 
L 842.4 398.118291 
" clip-path="url(#pd4d02f2856)" style="fill: none; stroke-dasharray: 2.59,1.12; stroke-dashoffset: 0; stroke: #b8b8b8; stroke-opacity: 0.48; stroke-width: 0.7"/>
     </g>
     <g id="line2d_48">
      <g>
       <use xlink:href="#mcd8f76608c" x="73.44" y="398.118291" style="stroke: #000000; stroke-width: 1.2"/>
      </g>
     </g>
     <g id="text_11">
      <text style="font-size: 12px; font-family: 'DejaVu Sans'; text-anchor: end" x="62.94" y="402.676885" transform="rotate(-0 62.94 402.676885)">0.25</text>
     </g>
    </g>
    <g id="ytick_3">
     <g id="line2d_49">
      <path d="M 73.44 352.716582 
L 842.4 352.716582 
" clip-path="url(#pd4d02f2856)" style="fill: none; stroke-dasharray: 2.59,1.12; stroke-dashoffset: 0; stroke: #b8b8b8; stroke-opacity: 0.48; stroke-width: 0.7"/>
     </g>
     <g id="line2d_50">
      <g>
       <use xlink:href="#mcd8f76608c" x="73.44" y="352.716582" style="stroke: #000000; stroke-width: 1.2"/>
      </g>
     </g>
     <g id="text_12">
      <text style="font-size: 12px; font-family: 'DejaVu Sans'; text-anchor: end" x="62.94" y="357.275175" transform="rotate(-0 62.94 357.275175)">0.50</text>
     </g>
    </g>
    <g id="ytick_4">
     <g id="line2d_51">
      <path d="M 73.44 307.314873 
L 842.4 307.314873 
" clip-path="url(#pd4d02f2856)" style="fill: none; stroke-dasharray: 2.59,1.12; stroke-dashoffset: 0; stroke: #b8b8b8; stroke-opacity: 0.48; stroke-width: 0.7"/>
     </g>
     <g id="line2d_52">
      <g>
       <use xlink:href="#mcd8f76608c" x="73.44" y="307.314873" style="stroke: #000000; stroke-width: 1.2"/>
      </g>
     </g>
     <g id="text_13">
      <text style="font-size: 12px; font-family: 'DejaVu Sans'; text-anchor: end" x="62.94" y="311.873466" transform="rotate(-0 62.94 311.873466)">0.75</text>
     </g>
    </g>
    <g id="ytick_5">
     <g id="line2d_53">
      <path d="M 73.44 261.913163 
L 842.4 261.913163 
" clip-path="url(#pd4d02f2856)" style="fill: none; stroke-dasharray: 2.59,1.12; stroke-dashoffset: 0; stroke: #b8b8b8; stroke-opacity: 0.48; stroke-width: 0.7"/>
     </g>
     <g id="line2d_54">
      <g>
       <use xlink:href="#mcd8f76608c" x="73.44" y="261.913163" style="stroke: #000000; stroke-width: 1.2"/>
      </g>
     </g>
     <g id="text_14">
      <text style="font-size: 12px; font-family: 'DejaVu Sans'; text-anchor: end" x="62.94" y="266.471757" transform="rotate(-0 62.94 266.471757)">1.00</text>
     </g>
    </g>
    <g id="ytick_6">
     <g id="line2d_55">
      <path d="M 73.44 216.511454 
L 842.4 216.511454 
" clip-path="url(#pd4d02f2856)" style="fill: none; stroke-dasharray: 2.59,1.12; stroke-dashoffset: 0; stroke: #b8b8b8; stroke-opacity: 0.48; stroke-width: 0.7"/>
     </g>
     <g id="line2d_56">
      <g>
       <use xlink:href="#mcd8f76608c" x="73.44" y="216.511454" style="stroke: #000000; stroke-width: 1.2"/>
      </g>
     </g>
     <g id="text_15">
      <text style="font-size: 12px; font-family: 'DejaVu Sans'; text-anchor: end" x="62.94" y="221.070048" transform="rotate(-0 62.94 221.070048)">1.25</text>
     </g>
    </g>
    <g id="ytick_7">
     <g id="line2d_57">
      <path d="M 73.44 171.109745 
L 842.4 171.109745 
" clip-path="url(#pd4d02f2856)" style="fill: none; stroke-dasharray: 2.59,1.12; stroke-dashoffset: 0; stroke: #b8b8b8; stroke-opacity: 0.48; stroke-width: 0.7"/>
     </g>
     <g id="line2d_58">
      <g>
       <use xlink:href="#mcd8f76608c" x="73.44" y="171.109745" style="stroke: #000000; stroke-width: 1.2"/>
      </g>
     </g>
     <g id="text_16">
      <text style="font-size: 12px; font-family: 'DejaVu Sans'; text-anchor: end" x="62.94" y="175.668339" transform="rotate(-0 62.94 175.668339)">1.50</text>
     </g>
    </g>
    <g id="ytick_8">
     <g id="line2d_59">
      <path d="M 73.44 125.708036 
L 842.4 125.708036 
" clip-path="url(#pd4d02f2856)" style="fill: none; stroke-dasharray: 2.59,1.12; stroke-dashoffset: 0; stroke: #b8b8b8; stroke-opacity: 0.48; stroke-width: 0.7"/>
     </g>
     <g id="line2d_60">
      <g>
       <use xlink:href="#mcd8f76608c" x="73.44" y="125.708036" style="stroke: #000000; stroke-width: 1.2"/>
      </g>
     </g>
     <g id="text_17">
      <text style="font-size: 12px; font-family: 'DejaVu Sans'; text-anchor: end" x="62.94" y="130.26663" transform="rotate(-0 62.94 130.26663)">1.75</text>
     </g>
    </g>
    <g id="ytick_9">
     <g id="line2d_61">
      <path d="M 73.44 80.306327 
L 842.4 80.306327 
" clip-path="url(#pd4d02f2856)" style="fill: none; stroke-dasharray: 2.59,1.12; stroke-dashoffset: 0; stroke: #b8b8b8; stroke-opacity: 0.48; stroke-width: 0.7"/>
     </g>
     <g id="line2d_62">
      <g>
       <use xlink:href="#mcd8f76608c" x="73.44" y="80.306327" style="stroke: #000000; stroke-width: 1.2"/>
      </g>
     </g>
     <g id="text_18">
      <text style="font-size: 12px; font-family: 'DejaVu Sans'; text-anchor: end" x="62.94" y="84.864921" transform="rotate(-0 62.94 84.864921)">2.00</text>
     </g>
    </g>
    <g id="ytick_10">
     <g id="line2d_63">
      <defs>
       <path id="ma919382136" d="M 0 0 
L -3.5 0 
" style="stroke: #000000; stroke-width: 0.9"/>
      </defs>
      <g>
       <use xlink:href="#ma919382136" x="73.44" y="425.359316" style="stroke: #000000; stroke-width: 0.9"/>
      </g>
     </g>
    </g>
    <g id="ytick_11">
     <g id="line2d_64">
      <g>
       <use xlink:href="#ma919382136" x="73.44" y="407.198633" style="stroke: #000000; stroke-width: 0.9"/>
      </g>
     </g>
    </g>
    <g id="ytick_12">
     <g id="line2d_65">
      <g>
       <use xlink:href="#ma919382136" x="73.44" y="389.037949" style="stroke: #000000; stroke-width: 0.9"/>
      </g>
     </g>
    </g>
    <g id="ytick_13">
     <g id="line2d_66">
      <g>
       <use xlink:href="#ma919382136" x="73.44" y="370.877265" style="stroke: #000000; stroke-width: 0.9"/>
      </g>
     </g>
    </g>
    <g id="ytick_14">
     <g id="line2d_67">
      <g>
       <use xlink:href="#ma919382136" x="73.44" y="334.555898" style="stroke: #000000; stroke-width: 0.9"/>
      </g>
     </g>
    </g>
    <g id="ytick_15">
     <g id="line2d_68">
      <g>
       <use xlink:href="#ma919382136" x="73.44" y="316.395214" style="stroke: #000000; stroke-width: 0.9"/>
      </g>
     </g>
    </g>
    <g id="ytick_16">
     <g id="line2d_69">
      <g>
       <use xlink:href="#ma919382136" x="73.44" y="298.234531" style="stroke: #000000; stroke-width: 0.9"/>
      </g>
     </g>
    </g>
    <g id="ytick_17">
     <g id="line2d_70">
      <g>
       <use xlink:href="#ma919382136" x="73.44" y="280.073847" style="stroke: #000000; stroke-width: 0.9"/>
      </g>
     </g>
    </g>
    <g id="ytick_18">
     <g id="line2d_71">
      <g>
       <use xlink:href="#ma919382136" x="73.44" y="243.75248" style="stroke: #000000; stroke-width: 0.9"/>
      </g>
     </g>
    </g>
    <g id="ytick_19">
     <g id="line2d_72">
      <g>
       <use xlink:href="#ma919382136" x="73.44" y="225.591796" style="stroke: #000000; stroke-width: 0.9"/>
      </g>
     </g>
    </g>
    <g id="ytick_20">
     <g id="line2d_73">
      <g>
       <use xlink:href="#ma919382136" x="73.44" y="207.431112" style="stroke: #000000; stroke-width: 0.9"/>
      </g>
     </g>
    </g>
    <g id="ytick_21">
     <g id="line2d_74">
      <g>
       <use xlink:href="#ma919382136" x="73.44" y="189.270429" style="stroke: #000000; stroke-width: 0.9"/>
      </g>
     </g>
    </g>
    <g id="ytick_22">
     <g id="line2d_75">
      <g>
       <use xlink:href="#ma919382136" x="73.44" y="152.949061" style="stroke: #000000; stroke-width: 0.9"/>
      </g>
     </g>
    </g>
    <g id="ytick_23">
     <g id="line2d_76">
      <g>
       <use xlink:href="#ma919382136" x="73.44" y="134.788378" style="stroke: #000000; stroke-width: 0.9"/>
      </g>
     </g>
    </g>
    <g id="ytick_24">
     <g id="line2d_77">
      <g>
       <use xlink:href="#ma919382136" x="73.44" y="116.627694" style="stroke: #000000; stroke-width: 0.9"/>
      </g>
     </g>
    </g>
    <g id="ytick_25">
     <g id="line2d_78">
      <g>
       <use xlink:href="#ma919382136" x="73.44" y="98.46701" style="stroke: #000000; stroke-width: 0.9"/>
      </g>
     </g>
    </g>
    <g id="ytick_26">
     <g id="line2d_79">
      <g>
       <use xlink:href="#ma919382136" x="73.44" y="62.145643" style="stroke: #000000; stroke-width: 0.9"/>
      </g>
     </g>
    </g>
    <g id="text_19">
     <text style="font-size: 14px; font-family: 'DejaVu Sans'; text-anchor: middle" x="28.857969" y="244.44" transform="rotate(-90 28.857969 244.44)">Tristimulus Values</text>
    </g>
   </g>
   <g id="line2d_80">
    <path d="M 73.44 442.647735 
L 80.031086 442.100218 
L 84.425143 441.549112 
L 88.8192 440.791056 
L 93.213257 439.765879 
L 97.607314 438.406712 
L 102.001371 436.643927 
L 104.1984 435.590142 
L 106.395429 434.411507 
L 108.592457 433.102096 
L 110.789486 431.658038 
L 115.183543 428.362766 
L 119.5776 424.548402 
L 123.971657 420.27329 
L 128.365714 415.617075 
L 134.9568 408.173709 
L 141.547886 400.718307 
L 145.941943 396.003653 
L 150.336 391.526657 
L 154.730057 387.272065 
L 159.124114 383.328932 
L 163.518171 379.829346 
L 167.912229 376.829249 
L 172.306286 374.28216 
L 176.700343 372.162822 
L 178.897371 371.306733 
L 181.0944 370.620034 
L 183.291429 370.128454 
L 185.488457 369.850469 
L 187.685486 369.776364 
L 189.882514 369.887142 
L 192.079543 370.161511 
L 194.276571 370.576358 
L 196.4736 371.11326 
L 198.670629 371.777155 
L 200.867657 372.577817 
L 203.064686 373.523778 
L 205.261714 374.622253 
L 207.458743 375.873125 
L 211.8528 378.731572 
L 218.443886 383.524696 
L 227.232 390.313344 
L 233.823086 395.647658 
L 238.217143 399.408519 
L 244.808229 405.419779 
L 260.187429 419.87916 
L 264.581486 423.717375 
L 268.975543 427.276949 
L 273.3696 430.503035 
L 277.763657 433.374801 
L 282.157714 435.890674 
L 286.551771 438.046839 
L 290.945829 439.835608 
L 295.339886 441.26096 
L 299.733943 442.334527 
L 304.128 443.063034 
L 308.522057 443.449665 
L 312.916114 443.511704 
L 317.310171 443.267819 
L 321.704229 442.718681 
L 326.098286 441.847001 
L 330.492343 440.632873 
L 334.8864 439.055365 
L 339.280457 437.102146 
L 343.674514 434.79321 
L 348.068571 432.178456 
L 352.462629 429.301543 
L 356.856686 426.162193 
L 361.250743 422.750412 
L 365.6448 419.07689 
L 370.038857 415.169637 
L 376.629943 408.926396 
L 383.221029 402.308754 
L 389.812114 395.34613 
L 396.4032 387.941606 
L 402.994286 380.126925 
L 411.7824 369.316615 
L 420.570514 358.17276 
L 427.1616 349.511918 
L 433.752686 340.471819 
L 442.5408 327.99674 
L 455.722971 308.884374 
L 471.102171 286.406245 
L 477.693257 277.270833 
L 482.087314 271.526322 
L 488.6784 263.416101 
L 495.269486 255.684031 
L 499.663543 250.90925 
L 501.860571 248.730287 
L 504.0576 246.727258 
L 506.254629 244.902359 
L 508.451657 243.251896 
L 510.648686 241.772307 
L 512.845714 240.460222 
L 515.042743 239.314501 
L 517.239771 238.342112 
L 519.4368 237.55127 
L 521.633829 236.94938 
L 523.830857 236.542784 
L 526.027886 236.335839 
L 528.224914 236.327585 
L 530.421943 236.515535 
L 532.618971 236.89666 
L 534.816 237.467387 
L 537.013029 238.225782 
L 539.210057 239.177185 
L 541.407086 240.327724 
L 543.604114 241.682104 
L 545.801143 243.243687 
L 547.998171 245.012629 
L 550.1952 246.980854 
L 552.392229 249.138009 
L 554.589257 251.473245 
L 558.983314 256.634366 
L 563.377371 262.389746 
L 567.771429 268.676404 
L 572.165486 275.41885 
L 578.756571 286.143387 
L 585.347657 297.365307 
L 591.938743 309.136364 
L 609.514971 341.163326 
L 616.106057 352.487552 
L 620.500114 359.683122 
L 624.894171 366.549723 
L 629.288229 373.09215 
L 633.682286 379.341466 
L 638.076343 385.302809 
L 642.4704 390.929434 
L 646.864457 396.180192 
L 651.258514 401.038838 
L 655.652571 405.50721 
L 660.046629 409.595508 
L 664.440686 413.322593 
L 668.834743 416.708628 
L 673.2288 419.792525 
L 677.622857 422.571153 
L 682.016914 425.066239 
L 686.410971 427.299361 
L 690.805029 429.291777 
L 695.199086 431.064317 
L 699.593143 432.637052 
L 703.9872 434.028783 
L 710.578286 435.814267 
L 717.169371 437.285789 
L 723.760457 438.495943 
L 730.351543 439.483653 
L 736.942629 440.278401 
L 745.730743 441.101343 
L 754.518857 441.719233 
L 765.504 442.277211 
L 778.686171 442.7269 
L 796.2624 443.083078 
L 820.429714 443.325276 
L 842.4 443.425335 
L 842.4 443.425335 
" clip-path="url(#pd4d02f2856)" style="fill: none; stroke: #e31a1c; stroke-width: 2.25; stroke-linecap: square"/>
   </g>
   <g id="line2d_81">
    <path d="M 73.44 443.403723 
L 91.016229 443.16977 
L 102.001371 442.839664 
L 112.986514 442.279319 
L 123.971657 441.445828 
L 134.9568 440.352292 
L 148.138971 438.760919 
L 159.124114 437.192937 
L 167.912229 435.736779 
L 178.897371 433.672844 
L 192.079543 430.930234 
L 200.867657 428.911206 
L 209.655771 426.6897 
L 216.246857 424.824836 
L 222.837943 422.674189 
L 227.232 421.048612 
L 231.626057 419.25839 
L 238.217143 416.288285 
L 244.808229 413.047606 
L 253.596343 408.408447 
L 262.384457 403.46199 
L 268.975543 399.524799 
L 275.566629 395.350188 
L 282.157714 390.901591 
L 288.7488 386.122369 
L 293.142857 382.645136 
L 297.536914 378.85005 
L 301.930971 374.73931 
L 306.325029 370.349136 
L 310.719086 365.697756 
L 315.113143 360.77491 
L 319.5072 355.580284 
L 326.098286 347.360284 
L 334.8864 335.906217 
L 348.068571 318.680955 
L 354.659657 310.418231 
L 359.053714 305.213779 
L 363.447771 300.351776 
L 367.841829 295.820205 
L 372.235886 291.574516 
L 376.629943 287.598699 
L 381.024 283.91245 
L 385.418057 280.527116 
L 389.812114 277.405907 
L 394.206171 274.493355 
L 398.600229 271.795704 
L 402.994286 269.390682 
L 407.388343 267.349749 
L 411.7824 265.68874 
L 416.176457 264.411947 
L 420.570514 263.472975 
L 424.964571 262.778846 
L 429.358629 262.259621 
L 433.752686 261.95122 
L 438.146743 261.969423 
L 442.5408 262.3344 
L 446.934857 262.969935 
L 451.328914 263.816479 
L 455.722971 264.897048 
L 460.117029 266.251703 
L 464.511086 267.891803 
L 468.905143 269.801997 
L 473.2992 271.975575 
L 477.693257 274.441855 
L 482.087314 277.231782 
L 488.6784 281.875119 
L 497.466514 288.366724 
L 501.860571 291.808373 
L 506.254629 295.490141 
L 510.648686 299.404597 
L 517.239771 305.649377 
L 523.830857 312.273426 
L 530.421943 319.205908 
L 539.210057 328.776775 
L 550.1952 341.098095 
L 565.5744 358.443451 
L 574.362514 368.05103 
L 580.9536 374.963122 
L 587.544686 381.593152 
L 596.3328 390.080879 
L 602.923886 396.080435 
L 609.514971 401.672428 
L 613.909029 405.161325 
L 618.303086 408.453794 
L 622.697143 411.546985 
L 627.0912 414.442904 
L 633.682286 418.4491 
L 640.273371 422.07832 
L 644.667429 424.281956 
L 649.061486 426.3097 
L 653.455543 428.164452 
L 657.8496 429.85223 
L 664.440686 432.091469 
L 671.031771 434.015457 
L 677.622857 435.658807 
L 684.213943 437.046374 
L 690.805029 438.211382 
L 697.396114 439.184327 
L 706.184229 440.229642 
L 714.972343 441.037843 
L 725.957486 441.790059 
L 736.942629 442.32051 
L 752.321829 442.802627 
L 772.095086 443.152244 
L 798.459429 443.369411 
L 842.4 443.484677 
L 842.4 443.484677 
" clip-path="url(#pd4d02f2856)" style="fill: none; stroke: #16a33a; stroke-width: 2.25; stroke-linecap: square"/>
   </g>
   <g id="line2d_82">
    <path d="M 73.44 439.741559 
L 75.637029 439.071729 
L 77.834057 438.274729 
L 80.031086 437.328537 
L 82.228114 436.208252 
L 84.425143 434.886001 
L 86.622171 433.330917 
L 88.8192 431.509231 
L 91.016229 429.384487 
L 93.213257 426.917924 
L 95.410286 424.069036 
L 97.607314 420.796236 
L 99.804343 417.057318 
L 102.001371 412.810712 
L 104.1984 408.016921 
L 106.395429 402.640076 
L 108.592457 396.649783 
L 110.789486 390.023446 
L 112.986514 382.748126 
L 115.183543 374.822422 
L 117.380571 366.258223 
L 119.5776 357.079953 
L 121.774629 347.317055 
L 126.168686 326.195822 
L 130.562743 303.29362 
L 137.153829 267.000241 
L 143.744914 230.898207 
L 150.336 196.493724 
L 154.730057 174.488327 
L 159.124114 153.639077 
L 161.321143 143.842154 
L 163.518171 134.562185 
L 165.7152 125.801521 
L 167.912229 117.540273 
L 170.109257 109.754374 
L 172.306286 102.41581 
L 174.503314 95.51718 
L 176.700343 89.150817 
L 178.897371 83.439855 
L 181.0944 78.51196 
L 183.291429 74.495918 
L 185.488457 71.485856 
L 187.685486 69.441469 
L 189.882514 68.277617 
L 192.079543 67.897358 
L 194.276571 68.194027 
L 196.4736 69.083657 
L 198.670629 70.598418 
L 200.867657 72.794885 
L 203.064686 75.723602 
L 205.261714 79.428606 
L 207.458743 83.915348 
L 209.655771 89.060718 
L 211.8528 94.715217 
L 216.246857 107.004117 
L 222.837943 126.55934 
L 229.429029 147.055355 
L 233.823086 161.443939 
L 238.217143 176.833669 
L 242.6112 193.452258 
L 247.005257 211.127646 
L 253.596343 238.903856 
L 262.384457 276.069531 
L 266.778514 293.750967 
L 271.172571 310.352581 
L 275.566629 325.669055 
L 279.960686 339.698018 
L 284.354743 352.483122 
L 286.551771 358.401763 
L 288.7488 363.989419 
L 290.945829 369.241462 
L 293.142857 374.15835 
L 295.339886 378.74791 
L 297.536914 383.032799 
L 299.733943 387.037331 
L 301.930971 390.783882 
L 304.128 394.293024 
L 306.325029 397.583613 
L 310.719086 403.576352 
L 315.113143 408.882103 
L 319.5072 413.595781 
L 323.901257 417.782453 
L 328.295314 421.492367 
L 332.689371 424.741103 
L 337.083429 427.533284 
L 341.477486 429.905478 
L 345.871543 431.937421 
L 350.2656 433.696593 
L 354.659657 435.220217 
L 359.053714 436.528967 
L 363.447771 437.645237 
L 370.038857 439.013984 
L 376.629943 440.081396 
L 383.221029 440.905241 
L 392.009143 441.71394 
L 400.797257 442.281616 
L 411.7824 442.751932 
L 424.964571 443.089686 
L 444.737829 443.340991 
L 475.496229 443.473707 
L 556.786286 443.51823 
L 842.4 443.52 
L 842.4 443.52 
" clip-path="url(#pd4d02f2856)" style="fill: none; stroke: #1647d8; stroke-width: 2.25; stroke-linecap: square"/>
   </g>
   <g id="patch_3">
    <path d="M 73.44 443.52 
L 73.44 45.36 
" style="fill: none; stroke: #000000; stroke-width: 1.25; stroke-linejoin: miter; stroke-linecap: square"/>
   </g>
   <g id="patch_4">
    <path d="M 842.4 443.52 
L 842.4 45.36 
" style="fill: none; stroke: #000000; stroke-width: 1.25; stroke-linejoin: miter; stroke-linecap: square"/>
   </g>
   <g id="patch_5">
    <path d="M 73.44 443.52 
L 842.4 443.52 
" style="fill: none; stroke: #000000; stroke-width: 1.25; stroke-linejoin: miter; stroke-linecap: square"/>
   </g>
   <g id="patch_6">
    <path d="M 73.44 45.36 
L 842.4 45.36 
" style="fill: none; stroke: #000000; stroke-width: 1.25; stroke-linejoin: miter; stroke-linecap: square"/>
   </g>
   <g id="text_20">
    <text style="font-size: 18px; font-family: 'DejaVu Sans'; text-anchor: middle" x="457.92" y="35.36" transform="rotate(-0 457.92 35.36)">Potera XYZ</text>
   </g>
   <g id="legend_1">
    <g id="patch_7">
     <path d="M 777.83 103.667734 
L 834.7 103.667734 
Q 836.9 103.667734 836.9 101.467734 
L 836.9 53.06 
Q 836.9 50.86 834.7 50.86 
L 777.83 50.86 
Q 775.63 50.86 775.63 53.06 
L 775.63 101.467734 
Q 775.63 103.667734 777.83 103.667734 
z
" style="fill: #ffffff; opacity: 0.94; stroke: #aaaaaa; stroke-linejoin: miter"/>
    </g>
    <g id="line2d_83">
     <path d="M 780.03 59.77 
L 791.03 59.77 
L 802.03 59.77 
" style="fill: none; stroke: #e31a1c; stroke-width: 2.25; stroke-linecap: square"/>
    </g>
    <g id="text_21">
     <!-- $\bar{x}(\lambda)$ -->
     <g transform="translate(810.83 63.62)">
      <text>
       <tspan x="6.509766" y="-0.640625" style="font-size: 11px; font-family: 'DejaVu Sans'">(</tspan>
       <tspan x="6.971191" y="-0.625" style="font-size: 11px; font-family: 'DejaVu Sans'">̄</tspan>
       <tspan x="17.311035" y="-0.640625" style="font-size: 11px; font-family: 'DejaVu Sans'">)</tspan>
       <tspan x="0" y="-0.640625" style="font-style: oblique; font-size: 11px; font-family: 'DejaVu Sans'">x</tspan>
       <tspan x="10.80127" y="-0.640625" style="font-style: oblique; font-size: 11px; font-family: 'DejaVu Sans'">λ</tspan>
      </text>
     </g>
    </g>
    <g id="line2d_84">
     <path d="M 780.03 76.272578 
L 791.03 76.272578 
L 802.03 76.272578 
" style="fill: none; stroke: #16a33a; stroke-width: 2.25; stroke-linecap: square"/>
    </g>
    <g id="text_22">
     <!-- $\bar{y}(\lambda)$ -->
     <g transform="translate(810.83 80.122578)">
      <text>
       <tspan x="6.509766" y="-0.640625" style="font-size: 11px; font-family: 'DejaVu Sans'">(</tspan>
       <tspan x="6.971191" y="-0.625" style="font-size: 11px; font-family: 'DejaVu Sans'">̄</tspan>
       <tspan x="17.311035" y="-0.640625" style="font-size: 11px; font-family: 'DejaVu Sans'">)</tspan>
       <tspan x="0" y="-0.640625" style="font-style: oblique; font-size: 11px; font-family: 'DejaVu Sans'">y</tspan>
       <tspan x="10.80127" y="-0.640625" style="font-style: oblique; font-size: 11px; font-family: 'DejaVu Sans'">λ</tspan>
      </text>
     </g>
    </g>
    <g id="line2d_85">
     <path d="M 780.03 92.775156 
L 791.03 92.775156 
L 802.03 92.775156 
" style="fill: none; stroke: #1647d8; stroke-width: 2.25; stroke-linecap: square"/>
    </g>
    <g id="text_23">
     <!-- $\bar{z}(\lambda)$ -->
     <g transform="translate(810.83 96.625156)">
      <text>
       <tspan x="5.773926" y="-0.640625" style="font-size: 11px; font-family: 'DejaVu Sans'">(</tspan>
       <tspan x="6.787231" y="-0.625" style="font-size: 11px; font-family: 'DejaVu Sans'">̄</tspan>
       <tspan x="16.575195" y="-0.640625" style="font-size: 11px; font-family: 'DejaVu Sans'">)</tspan>
       <tspan x="0" y="-0.640625" style="font-style: oblique; font-size: 11px; font-family: 'DejaVu Sans'">z</tspan>
       <tspan x="10.06543" y="-0.640625" style="font-style: oblique; font-size: 11px; font-family: 'DejaVu Sans'">λ</tspan>
      </text>
     </g>
    </g>
   </g>
   <g id="patch_8">
    <path d="M 73.44 443.52 
L 842.4 443.52 
L 842.4 45.36 
L 73.44 45.36 
L 73.44 443.52 
z
" style="fill: none; stroke: #000000; stroke-width: 1.25; stroke-linejoin: miter"/>
   </g>
  </g>
 </g>
 <defs>
  <clipPath id="pd4d02f2856">
   <rect x="73.44" y="45.36" width="768.96" height="398.16"/>
  </clipPath>
 </defs>
</svg>
