<?xml version="1.0" encoding="utf-8" standalone="no"?>
<!DOCTYPE svg PUBLIC "-//W3C//DTD SVG 1.1//EN"
  "http://www.w3.org/Graphics/SVG/1.1/DTD/svg11.dtd">
<svg xmlns:xlink="http://www.w3.org/1999/xlink" width="1152pt" height="648pt" viewBox="0 0 1152 648" xmlns="http://www.w3.org/2000/svg" version="1.1">
 <metadata>
  <rdf:RDF xmlns:dc="http://purl.org/dc/elements/1.1/" xmlns:cc="http://creativecommons.org/ns#" xmlns:rdf="http://www.w3.org/1999/02/22-rdf-syntax-ns#">
   <cc:Work>
    <dc:type rdf:resource="http://purl.org/dc/dcmitype/StillImage"/>
    <dc:format>image/svg+xml</dc:format>
    <dc:creator>
     <cc:Agent>
      <dc:title>Potera CMF v1</dc:title>
     </cc:Agent>
    </dc:creator>
   </cc:Work>
  </rdf:RDF>
 </metadata>
 <defs>
  <style type="text/css">*{stroke-linejoin: round; stroke-linecap: butt}</style>
 </defs>
 <g id="figure_1">
  <g id="patch_1">
   <path d="M 0 648 
L 1152 648 
L 1152 0 
L 0 0 
z
" style="fill: #ffffff"/>
  </g>
  <g id="axes_1">
   <g id="patch_2">
    <path d="M 74.88 579.96 
L 1134.72 579.96 
L 1134.72 38.88 
L 74.88 38.88 
z
" style="fill: #f5f5f5"/>
   </g>
   <g id="matplotlib.axis_1">
    <g id="xtick_1">
     <g id="line2d_1">
      <path d="M 74.88 579.96 
L 74.88 38.88 
" clip-path="url(#p4d88cab9a8)" style="fill: none; stroke-dasharray: 2.59,1.12; stroke-dashoffset: 0; stroke: #b8b8b8; stroke-opacity: 0.48; stroke-width: 0.7"/>
     </g>
     <g id="line2d_2">
      <defs>
       <path id="m58e823d47d" d="M 0 0 
L 0 7 
" style="stroke: #000000; stroke-width: 1.2"/>
      </defs>
      <g>
       <use xlink:href="#m58e823d47d" x="74.88" y="579.96" style="stroke: #000000; stroke-width: 1.2"/>
      </g>
     </g>
     <g id="text_1">
      <text style="font-size: 12px; font-family: 'DejaVu Sans'; text-anchor: middle" x="74.88" y="599.577188" transform="rotate(-0 74.88 599.577188)">390</text>
     </g>
    </g>
    <g id="xtick_2">
     <g id="line2d_3">
      <path d="M 256.566857 579.96 
L 256.566857 38.88 
" clip-path="url(#p4d88cab9a8)" style="fill: none; stroke-dasharray: 2.59,1.12; stroke-dashoffset: 0; stroke: #b8b8b8; stroke-opacity: 0.48; stroke-width: 0.7"/>
     </g>
     <g id="line2d_4">
      <g>
       <use xlink:href="#m58e823d47d" x="256.566857" y="579.96" style="stroke: #000000; stroke-width: 1.2"/>
      </g>
     </g>
     <g id="text_2">
      <text style="font-size: 12px; font-family: 'DejaVu Sans'; text-anchor: middle" x="256.566857" y="599.577188" transform="rotate(-0 256.566857 599.577188)">450</text>
     </g>
    </g>
    <g id="xtick_3">
     <g id="line2d_5">
      <path d="M 407.972571 579.96 
L 407.972571 38.88 
" clip-path="url(#p4d88cab9a8)" style="fill: none; stroke-dasharray: 2.59,1.12; stroke-dashoffset: 0; stroke: #b8b8b8; stroke-opacity: 0.48; stroke-width: 0.7"/>
     </g>
     <g id="line2d_6">
      <g>
       <use xlink:href="#m58e823d47d" x="407.972571" y="579.96" style="stroke: #000000; stroke-width: 1.2"/>
      </g>
     </g>
     <g id="text_3">
      <text style="font-size: 12px; font-family: 'DejaVu Sans'; text-anchor: middle" x="407.972571" y="599.577188" transform="rotate(-0 407.972571 599.577188)">500</text>
     </g>
    </g>
    <g id="xtick_4">
     <g id="line2d_7">
      <path d="M 559.378286 579.96 
L 559.378286 38.88 
" clip-path="url(#p4d88cab9a8)" style="fill: none; stroke-dasharray: 2.59,1.12; stroke-dashoffset: 0; stroke: #b8b8b8; stroke-opacity: 0.48; stroke-width: 0.7"/>
     </g>
     <g id="line2d_8">
      <g>
       <use xlink:href="#m58e823d47d" x="559.378286" y="579.96" style="stroke: #000000; stroke-width: 1.2"/>
      </g>
     </g>
     <g id="text_4">
      <text style="font-size: 12px; font-family: 'DejaVu Sans'; text-anchor: middle" x="559.378286" y="599.577188" transform="rotate(-0 559.378286 599.577188)">550</text>
     </g>
    </g>
    <g id="xtick_5">
     <g id="line2d_9">
      <path d="M 710.784 579.96 
L 710.784 38.88 
" clip-path="url(#p4d88cab9a8)" style="fill: none; stroke-dasharray: 2.59,1.12; stroke-dashoffset: 0; stroke: #b8b8b8; stroke-opacity: 0.48; stroke-width: 0.7"/>
     </g>
     <g id="line2d_10">
      <g>
       <use xlink:href="#m58e823d47d" x="710.784" y="579.96" style="stroke: #000000; stroke-width: 1.2"/>
      </g>
     </g>
     <g id="text_5">
      <text style="font-size: 12px; font-family: 'DejaVu Sans'; text-anchor: middle" x="710.784" y="599.577188" transform="rotate(-0 710.784 599.577188)">600</text>
     </g>
    </g>
    <g id="xtick_6">
     <g id="line2d_11">
      <path d="M 862.189714 579.96 
L 862.189714 38.88 
" clip-path="url(#p4d88cab9a8)" style="fill: none; stroke-dasharray: 2.59,1.12; stroke-dashoffset: 0; stroke: #b8b8b8; stroke-opacity: 0.48; stroke-width: 0.7"/>
     </g>
     <g id="line2d_12">
      <g>
       <use xlink:href="#m58e823d47d" x="862.189714" y="579.96" style="stroke: #000000; stroke-width: 1.2"/>
      </g>
     </g>
     <g id="text_6">
      <text style="font-size: 12px; font-family: 'DejaVu Sans'; text-anchor: middle" x="862.189714" y="599.577188" transform="rotate(-0 862.189714 599.577188)">650</text>
     </g>
    </g>
    <g id="xtick_7">
     <g id="line2d_13">
      <path d="M 1013.595429 579.96 
L 1013.595429 38.88 
" clip-path="url(#p4d88cab9a8)" style="fill: none; stroke-dasharray: 2.59,1.12; stroke-dashoffset: 0; stroke: #b8b8b8; stroke-opacity: 0.48; stroke-width: 0.7"/>
     </g>
     <g id="line2d_14">
      <g>
       <use xlink:href="#m58e823d47d" x="1013.595429" y="579.96" style="stroke: #000000; stroke-width: 1.2"/>
      </g>
     </g>
     <g id="text_7">
      <text style="font-size: 12px; font-family: 'DejaVu Sans'; text-anchor: middle" x="1013.595429" y="599.577188" transform="rotate(-0 1013.595429 599.577188)">700</text>
     </g>
    </g>
    <g id="xtick_8">
     <g id="line2d_15">
      <path d="M 1134.72 579.96 
L 1134.72 38.88 
" clip-path="url(#p4d88cab9a8)" style="fill: none; stroke-dasharray: 2.59,1.12; stroke-dashoffset: 0; stroke: #b8b8b8; stroke-opacity: 0.48; stroke-width: 0.7"/>
     </g>
     <g id="line2d_16">
      <g>
       <use xlink:href="#m58e823d47d" x="1134.72" y="579.96" style="stroke: #000000; stroke-width: 1.2"/>
      </g>
     </g>
     <g id="text_8">
      <text style="font-size: 12px; font-family: 'DejaVu Sans'; text-anchor: middle" x="1134.72" y="599.577188" transform="rotate(-0 1134.72 599.577188)">740</text>
     </g>
    </g>
    <g id="xtick_9">
     <g id="line2d_17">
      <defs>
       <path id="mfb8d0a0f9b" d="M 0 0 
L 0 3.5 
" style="stroke: #000000; stroke-width: 0.9"/>
      </defs>
      <g>
       <use xlink:href="#mfb8d0a0f9b" x="105.161143" y="579.96" style="stroke: #000000; stroke-width: 0.9"/>
      </g>
     </g>
    </g>
    <g id="xtick_10">
     <g id="line2d_18">
      <g>
       <use xlink:href="#mfb8d0a0f9b" x="135.442286" y="579.96" style="stroke: #000000; stroke-width: 0.9"/>
      </g>
     </g>
    </g>
    <g id="xtick_11">
     <g id="line2d_19">
      <g>
       <use xlink:href="#mfb8d0a0f9b" x="165.723429" y="579.96" style="stroke: #000000; stroke-width: 0.9"/>
      </g>
     </g>
    </g>
    <g id="xtick_12">
     <g id="line2d_20">
      <g>
       <use xlink:href="#mfb8d0a0f9b" x="196.004571" y="579.96" style="stroke: #000000; stroke-width: 0.9"/>
      </g>
     </g>
    </g>
    <g id="xtick_13">
     <g id="line2d_21">
      <g>
       <use xlink:href="#mfb8d0a0f9b" x="226.285714" y="579.96" style="stroke: #000000; stroke-width: 0.9"/>
      </g>
     </g>
    </g>
    <g id="xtick_14">
     <g id="line2d_22">
      <g>
       <use xlink:href="#mfb8d0a0f9b" x="286.848" y="579.96" style="stroke: #000000; stroke-width: 0.9"/>
      </g>
     </g>
    </g>
    <g id="xtick_15">
     <g id="line2d_23">
      <g>
       <use xlink:href="#mfb8d0a0f9b" x="317.129143" y="579.96" style="stroke: #000000; stroke-width: 0.9"/>
      </g>
     </g>
    </g>
    <g id="xtick_16">
     <g id="line2d_24">
      <g>
       <use xlink:href="#mfb8d0a0f9b" x="347.410286" y="579.96" style="stroke: #000000; stroke-width: 0.9"/>
      </g>
     </g>
    </g>
    <g id="xtick_17">
     <g id="line2d_25">
      <g>
       <use xlink:href="#mfb8d0a0f9b" x="377.691429" y="579.96" style="stroke: #000000; stroke-width: 0.9"/>
      </g>
     </g>
    </g>
    <g id="xtick_18">
     <g id="line2d_26">
      <g>
       <use xlink:href="#mfb8d0a0f9b" x="438.253714" y="579.96" style="stroke: #000000; stroke-width: 0.9"/>
      </g>
     </g>
    </g>
    <g id="xtick_19">
     <g id="line2d_27">
      <g>
       <use xlink:href="#mfb8d0a0f9b" x="468.534857" y="579.96" style="stroke: #000000; stroke-width: 0.9"/>
      </g>
     </g>
    </g>
    <g id="xtick_20">
     <g id="line2d_28">
      <g>
       <use xlink:href="#mfb8d0a0f9b" x="498.816" y="579.96" style="stroke: #000000; stroke-width: 0.9"/>
      </g>
     </g>
    </g>
    <g id="xtick_21">
     <g id="line2d_29">
      <g>
       <use xlink:href="#mfb8d0a0f9b" x="529.097143" y="579.96" style="stroke: #000000; stroke-width: 0.9"/>
      </g>
     </g>
    </g>
    <g id="xtick_22">
     <g id="line2d_30">
      <g>
       <use xlink:href="#mfb8d0a0f9b" x="589.659429" y="579.96" style="stroke: #000000; stroke-width: 0.9"/>
      </g>
     </g>
    </g>
    <g id="xtick_23">
     <g id="line2d_31">
      <g>
       <use xlink:href="#mfb8d0a0f9b" x="619.940571" y="579.96" style="stroke: #000000; stroke-width: 0.9"/>
      </g>
     </g>
    </g>
    <g id="xtick_24">
     <g id="line2d_32">
      <g>
       <use xlink:href="#mfb8d0a0f9b" x="650.221714" y="579.96" style="stroke: #000000; stroke-width: 0.9"/>
      </g>
     </g>
    </g>
    <g id="xtick_25">
     <g id="line2d_33">
      <g>
       <use xlink:href="#mfb8d0a0f9b" x="680.502857" y="579.96" style="stroke: #000000; stroke-width: 0.9"/>
      </g>
     </g>
    </g>
    <g id="xtick_26">
     <g id="line2d_34">
      <g>
       <use xlink:href="#mfb8d0a0f9b" x="741.065143" y="579.96" style="stroke: #000000; stroke-width: 0.9"/>
      </g>
     </g>
    </g>
    <g id="xtick_27">
     <g id="line2d_35">
      <g>
       <use xlink:href="#mfb8d0a0f9b" x="771.346286" y="579.96" style="stroke: #000000; stroke-width: 0.9"/>
      </g>
     </g>
    </g>
    <g id="xtick_28">
     <g id="line2d_36">
      <g>
       <use xlink:href="#mfb8d0a0f9b" x="801.627429" y="579.96" style="stroke: #000000; stroke-width: 0.9"/>
      </g>
     </g>
    </g>
    <g id="xtick_29">
     <g id="line2d_37">
      <g>
       <use xlink:href="#mfb8d0a0f9b" x="831.908571" y="579.96" style="stroke: #000000; stroke-width: 0.9"/>
      </g>
     </g>
    </g>
    <g id="xtick_30">
     <g id="line2d_38">
      <g>
       <use xlink:href="#mfb8d0a0f9b" x="892.470857" y="579.96" style="stroke: #000000; stroke-width: 0.9"/>
      </g>
     </g>
    </g>
    <g id="xtick_31">
     <g id="line2d_39">
      <g>
       <use xlink:href="#mfb8d0a0f9b" x="922.752" y="579.96" style="stroke: #000000; stroke-width: 0.9"/>
      </g>
     </g>
    </g>
    <g id="xtick_32">
     <g id="line2d_40">
      <g>
       <use xlink:href="#mfb8d0a0f9b" x="953.033143" y="579.96" style="stroke: #000000; stroke-width: 0.9"/>
      </g>
     </g>
    </g>
    <g id="xtick_33">
     <g id="line2d_41">
      <g>
       <use xlink:href="#mfb8d0a0f9b" x="983.314286" y="579.96" style="stroke: #000000; stroke-width: 0.9"/>
      </g>
     </g>
    </g>
    <g id="xtick_34">
     <g id="line2d_42">
      <g>
       <use xlink:href="#mfb8d0a0f9b" x="1043.876571" y="579.96" style="stroke: #000000; stroke-width: 0.9"/>
      </g>
     </g>
    </g>
    <g id="xtick_35">
     <g id="line2d_43">
      <g>
       <use xlink:href="#mfb8d0a0f9b" x="1074.157714" y="579.96" style="stroke: #000000; stroke-width: 0.9"/>
      </g>
     </g>
    </g>
    <g id="xtick_36">
     <g id="line2d_44">
      <g>
       <use xlink:href="#mfb8d0a0f9b" x="1104.438857" y="579.96" style="stroke: #000000; stroke-width: 0.9"/>
      </g>
     </g>
    </g>
    <g id="text_9">
     <!-- Wavelength $\lambda$ (nm) -->
     <g transform="translate(537.88 617.1)">
      <text>
       <tspan x="0" y="-0.359375" style="font-size: 14px; font-family: 'DejaVu Sans'">W</tspan>
       <tspan x="13.842773" y="-0.359375" style="font-size: 14px; font-family: 'DejaVu Sans'">a</tspan>
       <tspan x="22.421875" y="-0.359375" style="font-size: 14px; font-family: 'DejaVu Sans'">v</tspan>
       <tspan x="30.707031" y="-0.359375" style="font-size: 14px; font-family: 'DejaVu Sans'">e</tspan>
       <tspan x="39.320312" y="-0.359375" style="font-size: 14px; font-family: 'DejaVu Sans'">l</tspan>
       <tspan x="43.209961" y="-0.359375" style="font-size: 14px; font-family: 'DejaVu Sans'">e</tspan>
       <tspan x="51.823242" y="-0.359375" style="font-size: 14px; font-family: 'DejaVu Sans'">n</tspan>
       <tspan x="60.696289" y="-0.359375" style="font-size: 14px; font-family: 'DejaVu Sans'">g</tspan>
       <tspan x="69.583008" y="-0.359375" style="font-size: 14px; font-family: 'DejaVu Sans'">t</tspan>
       <tspan x="75.072266" y="-0.359375" style="font-size: 14px; font-family: 'DejaVu Sans'">h</tspan>
       <tspan x="83.945312" y="-0.359375" style="font-size: 14px; font-family: 'DejaVu Sans'"> </tspan>
       <tspan x="96.680664" y="-0.359375" style="font-size: 14px; font-family: 'DejaVu Sans'"> </tspan>
       <tspan x="101.130859" y="-0.359375" style="font-size: 14px; font-family: 'DejaVu Sans'">(</tspan>
       <tspan x="106.592773" y="-0.359375" style="font-size: 14px; font-family: 'DejaVu Sans'">n</tspan>
       <tspan x="115.46582" y="-0.359375" style="font-size: 14px; font-family: 'DejaVu Sans'">m</tspan>
       <tspan x="129.103516" y="-0.359375" style="font-size: 14px; font-family: 'DejaVu Sans'">)</tspan>
       <tspan x="88.395508" y="-0.359375" style="font-style: oblique; font-size: 14px; font-family: 'DejaVu Sans'">λ</tspan>
      </text>
     </g>
    </g>
   </g>
   <g id="matplotlib.axis_2">
    <g id="ytick_1">
     <g id="line2d_45">
      <path d="M 74.88 579.96 
L 1134.72 579.96 
" clip-path="url(#p4d88cab9a8)" style="fill: none; stroke-dasharray: 2.59,1.12; stroke-dashoffset: 0; stroke: #b8b8b8; stroke-opacity: 0.48; stroke-width: 0.7"/>
     </g>
     <g id="line2d_46">
      <defs>
       <path id="mcd8f76608c" d="M 0 0 
L -7 0 
" style="stroke: #000000; stroke-width: 1.2"/>
      </defs>
      <g>
       <use xlink:href="#mcd8f76608c" x="74.88" y="579.96" style="stroke: #000000; stroke-width: 1.2"/>
      </g>
     </g>
     <g id="text_10">
      <text style="font-size: 12px; font-family: 'DejaVu Sans'; text-anchor: end" x="64.38" y="584.518594" transform="rotate(-0 64.38 584.518594)">0.0</text>
     </g>
    </g>
    <g id="ytick_2">
     <g id="line2d_47">
      <path d="M 74.88 476.897143 
L 1134.72 476.897143 
" clip-path="url(#p4d88cab9a8)" style="fill: none; stroke-dasharray: 2.59,1.12; stroke-dashoffset: 0; stroke: #b8b8b8; stroke-opacity: 0.48; stroke-width: 0.7"/>
     </g>
     <g id="line2d_48">
      <g>
       <use xlink:href="#mcd8f76608c" x="74.88" y="476.897143" style="stroke: #000000; stroke-width: 1.2"/>
      </g>
     </g>
     <g id="text_11">
      <text style="font-size: 12px; font-family: 'DejaVu Sans'; text-anchor: end" x="64.38" y="481.455737" transform="rotate(-0 64.38 481.455737)">0.2</text>
     </g>
    </g>
    <g id="ytick_3">
     <g id="line2d_49">
      <path d="M 74.88 373.834286 
L 1134.72 373.834286 
" clip-path="url(#p4d88cab9a8)" style="fill: none; stroke-dasharray: 2.59,1.12; stroke-dashoffset: 0; stroke: #b8b8b8; stroke-opacity: 0.48; stroke-width: 0.7"/>
     </g>
     <g id="line2d_50">
      <g>
       <use xlink:href="#mcd8f76608c" x="74.88" y="373.834286" style="stroke: #000000; stroke-width: 1.2"/>
      </g>
     </g>
     <g id="text_12">
      <text style="font-size: 12px; font-family: 'DejaVu Sans'; text-anchor: end" x="64.38" y="378.392879" transform="rotate(-0 64.38 378.392879)">0.4</text>
     </g>
    </g>
    <g id="ytick_4">
     <g id="line2d_51">
      <path d="M 74.88 270.771429 
L 1134.72 270.771429 
" clip-path="url(#p4d88cab9a8)" style="fill: none; stroke-dasharray: 2.59,1.12; stroke-dashoffset: 0; stroke: #b8b8b8; stroke-opacity: 0.48; stroke-width: 0.7"/>
     </g>
     <g id="line2d_52">
      <g>
       <use xlink:href="#mcd8f76608c" x="74.88" y="270.771429" style="stroke: #000000; stroke-width: 1.2"/>
      </g>
     </g>
     <g id="text_13">
      <text style="font-size: 12px; font-family: 'DejaVu Sans'; text-anchor: end" x="64.38" y="275.330022" transform="rotate(-0 64.38 275.330022)">0.6</text>
     </g>
    </g>
    <g id="ytick_5">
     <g id="line2d_53">
      <path d="M 74.88 167.708571 
L 1134.72 167.708571 
" clip-path="url(#p4d88cab9a8)" style="fill: none; stroke-dasharray: 2.59,1.12; stroke-dashoffset: 0; stroke: #b8b8b8; stroke-opacity: 0.48; stroke-width: 0.7"/>
     </g>
     <g id="line2d_54">
      <g>
       <use xlink:href="#mcd8f76608c" x="74.88" y="167.708571" style="stroke: #000000; stroke-width: 1.2"/>
      </g>
     </g>
     <g id="text_14">
      <text style="font-size: 12px; font-family: 'DejaVu Sans'; text-anchor: end" x="64.38" y="172.267165" transform="rotate(-0 64.38 172.267165)">0.8</text>
     </g>
    </g>
    <g id="ytick_6">
     <g id="line2d_55">
      <path d="M 74.88 64.645714 
L 1134.72 64.645714 
" clip-path="url(#p4d88cab9a8)" style="fill: none; stroke-dasharray: 2.59,1.12; stroke-dashoffset: 0; stroke: #b8b8b8; stroke-opacity: 0.48; stroke-width: 0.7"/>
     </g>
     <g id="line2d_56">
      <g>
       <use xlink:href="#mcd8f76608c" x="74.88" y="64.645714" style="stroke: #000000; stroke-width: 1.2"/>
      </g>
     </g>
     <g id="text_15">
      <text style="font-size: 12px; font-family: 'DejaVu Sans'; text-anchor: end" x="64.38" y="69.204308" transform="rotate(-0 64.38 69.204308)">1.0</text>
     </g>
    </g>
    <g id="ytick_7">
     <g id="line2d_57">
      <defs>
       <path id="ma919382136" d="M 0 0 
L -3.5 0 
" style="stroke: #000000; stroke-width: 0.9"/>
      </defs>
      <g>
       <use xlink:href="#ma919382136" x="74.88" y="554.194286" style="stroke: #000000; stroke-width: 0.9"/>
      </g>
     </g>
    </g>
    <g id="ytick_8">
     <g id="line2d_58">
      <g>
       <use xlink:href="#ma919382136" x="74.88" y="528.428571" style="stroke: #000000; stroke-width: 0.9"/>
      </g>
     </g>
    </g>
    <g id="ytick_9">
     <g id="line2d_59">
      <g>
       <use xlink:href="#ma919382136" x="74.88" y="502.662857" style="stroke: #000000; stroke-width: 0.9"/>
      </g>
     </g>
    </g>
    <g id="ytick_10">
     <g id="line2d_60">
      <g>
       <use xlink:href="#ma919382136" x="74.88" y="451.131429" style="stroke: #000000; stroke-width: 0.9"/>
      </g>
     </g>
    </g>
    <g id="ytick_11">
     <g id="line2d_61">
      <g>
       <use xlink:href="#ma919382136" x="74.88" y="425.365714" style="stroke: #000000; stroke-width: 0.9"/>
      </g>
     </g>
    </g>
    <g id="ytick_12">
     <g id="line2d_62">
      <g>
       <use xlink:href="#ma919382136" x="74.88" y="399.6" style="stroke: #000000; stroke-width: 0.9"/>
      </g>
     </g>
    </g>
    <g id="ytick_13">
     <g id="line2d_63">
      <g>
       <use xlink:href="#ma919382136" x="74.88" y="348.068571" style="stroke: #000000; stroke-width: 0.9"/>
      </g>
     </g>
    </g>
    <g id="ytick_14">
     <g id="line2d_64">
      <g>
       <use xlink:href="#ma919382136" x="74.88" y="322.302857" style="stroke: #000000; stroke-width: 0.9"/>
      </g>
     </g>
    </g>
    <g id="ytick_15">
     <g id="line2d_65">
      <g>
       <use xlink:href="#ma919382136" x="74.88" y="296.537143" style="stroke: #000000; stroke-width: 0.9"/>
      </g>
     </g>
    </g>
    <g id="ytick_16">
     <g id="line2d_66">
      <g>
       <use xlink:href="#ma919382136" x="74.88" y="245.005714" style="stroke: #000000; stroke-width: 0.9"/>
      </g>
     </g>
    </g>
    <g id="ytick_17">
     <g id="line2d_67">
      <g>
       <use xlink:href="#ma919382136" x="74.88" y="219.24" style="stroke: #000000; stroke-width: 0.9"/>
      </g>
     </g>
    </g>
    <g id="ytick_18">
     <g id="line2d_68">
      <g>
       <use xlink:href="#ma919382136" x="74.88" y="193.474286" style="stroke: #000000; stroke-width: 0.9"/>
      </g>
     </g>
    </g>
    <g id="ytick_19">
     <g id="line2d_69">
      <g>
       <use xlink:href="#ma919382136" x="74.88" y="141.942857" style="stroke: #000000; stroke-width: 0.9"/>
      </g>
     </g>
    </g>
    <g id="ytick_20">
     <g id="line2d_70">
      <g>
       <use xlink:href="#ma919382136" x="74.88" y="116.177143" style="stroke: #000000; stroke-width: 0.9"/>
      </g>
     </g>
    </g>
    <g id="ytick_21">
     <g id="line2d_71">
      <g>
       <use xlink:href="#ma919382136" x="74.88" y="90.411429" style="stroke: #000000; stroke-width: 0.9"/>
      </g>
     </g>
    </g>
    <g id="ytick_22">
     <g id="line2d_72">
      <g>
       <use xlink:href="#ma919382136" x="74.88" y="38.88" style="stroke: #000000; stroke-width: 0.9"/>
      </g>
     </g>
    </g>
    <g id="text_16">
     <text style="font-size: 14px; font-family: 'DejaVu Sans'; text-anchor: middle" x="37.932969" y="309.42" transform="rotate(-90 37.932969 309.42)">Channel-normalized Values</text>
    </g>
   </g>
   <g id="patch_3">
    <path d="M 74.88 579.96 
L 74.88 38.88 
" style="fill: none; stroke: #000000; stroke-width: 1.25; stroke-linejoin: miter; stroke-linecap: square"/>
   </g>
   <g id="patch_4">
    <path d="M 1134.72 579.96 
L 1134.72 38.88 
" style="fill: none; stroke: #000000; stroke-width: 1.25; stroke-linejoin: miter; stroke-linecap: square"/>
   </g>
   <g id="patch_5">
    <path d="M 74.88 579.96 
L 1134.72 579.96 
" style="fill: none; stroke: #000000; stroke-width: 1.25; stroke-linejoin: miter; stroke-linecap: square"/>
   </g>
   <g id="patch_6">
    <path d="M 74.88 38.88 
L 1134.72 38.88 
" style="fill: none; stroke: #000000; stroke-width: 1.25; stroke-linejoin: miter; stroke-linecap: square"/>
   </g>
   <g id="line2d_73">
    <path d="M 74.88 578.075879 
L 83.964343 577.30513 
L 90.020571 576.562988 
L 96.0768 575.506637 
L 111.217371 572.345613 
L 114.245486 571.620127 
L 117.2736 570.746766 
L 120.301714 569.662391 
L 123.329829 568.322521 
L 126.357943 566.734975 
L 129.386057 564.915047 
L 132.414171 562.87803 
L 135.442286 560.639217 
L 138.4704 558.203315 
L 141.498514 555.527002 
L 144.526629 552.553529 
L 147.554743 549.226145 
L 150.582857 545.488099 
L 153.610971 541.345916 
L 156.639086 536.808303 
L 159.6672 531.821765 
L 162.695314 526.332859 
L 165.723429 520.288043 
L 168.751543 513.636915 
L 174.807771 499.149703 
L 180.864 484.590554 
L 183.892114 477.744664 
L 186.920229 471.220225 
L 189.948343 465.048942 
L 192.976457 459.262654 
L 196.004571 453.893111 
L 199.032686 448.989069 
L 202.0608 444.569534 
L 205.088914 440.62154 
L 208.117029 437.13212 
L 211.145143 434.088309 
L 214.173257 431.490016 
L 217.201371 429.332447 
L 220.229486 427.595664 
L 223.2576 426.259817 
L 226.285714 425.304923 
L 229.313829 424.718817 
L 232.341943 424.475697 
L 235.370057 424.535378 
L 238.398171 424.857761 
L 241.426286 425.402615 
L 244.4544 426.151601 
L 247.482514 427.088954 
L 253.538743 429.383958 
L 259.594971 432.002277 
L 265.6512 434.916158 
L 268.679314 436.580872 
L 271.707429 438.440036 
L 274.735543 440.515944 
L 277.763657 442.798869 
L 280.791771 445.282729 
L 283.819886 447.961484 
L 286.848 450.829139 
L 289.876114 453.861982 
L 292.904229 457.080796 
L 295.932343 460.546014 
L 298.960457 464.318296 
L 301.988571 468.458077 
L 305.016686 473.010739 
L 311.072914 482.975441 
L 317.129143 493.209639 
L 323.185371 502.993344 
L 329.2416 512.338014 
L 335.297829 521.265583 
L 341.354057 529.659711 
L 347.410286 537.490689 
L 353.466514 544.742959 
L 356.494629 548.113452 
L 359.522743 551.282562 
L 362.550857 554.227075 
L 365.578971 556.93043 
L 368.607086 559.408513 
L 371.6352 561.686793 
L 374.663314 563.790742 
L 377.691429 565.745836 
L 380.719543 567.56326 
L 383.747657 569.238586 
L 386.775771 570.773858 
L 389.803886 572.171118 
L 392.832 573.432408 
L 395.860114 574.55951 
L 398.888229 575.555004 
L 401.916343 576.422116 
L 404.944457 577.164083 
L 407.972571 577.784136 
L 411.000686 578.282732 
L 414.0288 578.652119 
L 417.056914 578.883223 
L 420.085029 578.966965 
L 423.113143 578.894271 
L 426.141257 578.660912 
L 429.169371 578.256361 
L 432.197486 577.662092 
L 435.2256 576.85958 
L 438.253714 575.830299 
L 441.281829 574.564972 
L 444.309943 573.061233 
L 447.338057 571.310932 
L 450.366171 569.305918 
L 453.394286 567.038033 
L 456.4224 564.500332 
L 459.450514 561.700434 
L 462.478629 558.652058 
L 465.506743 555.368915 
L 468.534857 551.864713 
L 471.562971 548.150198 
L 474.591086 544.230432 
L 477.6192 540.110625 
L 483.675429 531.291697 
L 489.731657 521.738101 
L 495.787886 511.640449 
L 504.872229 495.971654 
L 510.928457 485.214094 
L 516.984686 474.132686 
L 523.040914 462.733246 
L 529.097143 451.00676 
L 535.153371 438.940663 
L 544.237714 420.233828 
L 553.322057 400.838266 
L 559.378286 387.484901 
L 568.462629 366.78573 
L 577.546971 345.368169 
L 589.659429 315.969983 
L 625.9968 227.014628 
L 635.081143 205.844627 
L 641.137371 192.26475 
L 647.1936 179.282169 
L 653.249829 167.078947 
L 659.306057 155.765299 
L 662.334171 150.463163 
L 665.362286 145.408897 
L 668.3904 140.61951 
L 671.418514 136.106502 
L 674.446629 131.870051 
L 677.474743 127.910333 
L 680.502857 124.227528 
L 683.530971 120.815996 
L 686.559086 117.706153 
L 689.5872 114.952131 
L 692.615314 112.608104 
L 695.643429 110.728291 
L 698.671543 109.354211 
L 701.699657 108.463972 
L 704.727771 108.016543 
L 707.755886 107.970894 
L 710.784 108.285995 
L 713.812114 108.936445 
L 716.840229 109.954039 
L 719.868343 111.383537 
L 722.896457 113.2697 
L 725.924571 115.657289 
L 728.952686 118.571659 
L 731.9808 121.980261 
L 735.008914 125.841131 
L 738.037029 130.112263 
L 741.065143 134.751605 
L 744.093257 139.73944 
L 747.121371 145.084116 
L 750.149486 150.785679 
L 753.1776 156.844217 
L 756.205714 163.259862 
L 759.233829 170.012145 
L 762.261943 177.094804 
L 765.290057 184.529154 
L 768.318171 192.336509 
L 771.346286 200.538228 
L 774.3744 209.13773 
L 780.430629 227.298645 
L 786.486857 246.297933 
L 801.627429 294.699803 
L 807.683657 313.0331 
L 813.739886 330.669187 
L 822.824229 356.35828 
L 828.880457 372.944801 
L 834.936686 389.078433 
L 840.992914 404.71681 
L 847.049143 419.745369 
L 853.105371 434.080848 
L 859.1616 447.631463 
L 865.217829 460.267592 
L 871.274057 471.970721 
L 877.330286 482.845422 
L 883.386514 492.959548 
L 889.442743 502.325043 
L 895.498971 510.968818 
L 901.5552 518.907035 
L 904.583314 522.61191 
L 907.611429 526.140673 
L 910.639543 529.497853 
L 913.667657 532.683806 
L 916.695771 535.692076 
L 919.723886 538.516183 
L 922.752 541.149693 
L 925.780114 543.591563 
L 928.808229 545.854763 
L 931.836343 547.953877 
L 934.864457 549.903487 
L 937.892571 551.718175 
L 943.9488 554.96769 
L 950.005029 557.837854 
L 959.089371 561.809139 
L 965.1456 564.238446 
L 971.201829 566.387854 
L 977.258057 568.261472 
L 983.314286 569.879977 
L 989.370514 571.256598 
L 995.426743 572.416782 
L 1001.482971 573.392159 
L 1010.567314 574.573982 
L 1022.679771 575.83544 
L 1034.792229 576.812215 
L 1046.904686 577.557746 
L 1062.045257 578.257536 
L 1080.213943 578.839643 
L 1101.410743 579.273289 
L 1128.663771 579.604424 
L 1134.72 579.653568 
L 1134.72 579.653568 
" clip-path="url(#p4d88cab9a8)" style="fill: none; stroke-dasharray: 3,3; stroke-dashoffset: 0; stroke: #e31a1c; stroke-opacity: 0.82; stroke-width: 1.5"/>
   </g>
   <g id="line2d_74">
    <path d="M 74.88 579.898168 
L 114.245486 579.693158 
L 129.386057 579.475055 
L 144.526629 579.073558 
L 156.639086 578.535814 
L 165.723429 577.898949 
L 174.807771 576.956389 
L 186.920229 575.369668 
L 196.004571 573.982952 
L 205.088914 572.421871 
L 214.173257 570.681478 
L 226.285714 568.108957 
L 238.398171 565.351657 
L 247.482514 563.016264 
L 256.566857 560.380015 
L 265.6512 557.40901 
L 271.707429 555.227388 
L 277.763657 552.87107 
L 286.848 549.044234 
L 292.904229 546.324925 
L 298.960457 543.422156 
L 305.016686 540.276523 
L 311.072914 536.849614 
L 317.129143 533.081394 
L 323.185371 528.925367 
L 329.2416 524.371083 
L 335.297829 519.400137 
L 341.354057 514.010077 
L 347.410286 508.328171 
L 353.466514 502.428773 
L 359.522743 496.117629 
L 362.550857 492.726015 
L 365.578971 489.148494 
L 368.607086 485.379347 
L 371.6352 481.403889 
L 374.663314 477.207331 
L 377.691429 472.775041 
L 380.719543 468.086201 
L 383.747657 463.132156 
L 386.775771 457.916357 
L 389.803886 452.442154 
L 392.832 446.71305 
L 395.860114 440.743783 
L 398.888229 434.504466 
L 401.916343 427.931465 
L 404.944457 420.961248 
L 407.972571 413.530129 
L 411.000686 405.594 
L 414.0288 397.203616 
L 420.085029 379.374649 
L 426.141257 360.648763 
L 432.197486 341.190123 
L 438.253714 320.782832 
L 444.309943 299.393244 
L 462.478629 234.282993 
L 465.506743 223.994639 
L 468.534857 214.123441 
L 471.562971 204.753284 
L 474.591086 195.850368 
L 480.647314 179.169664 
L 486.703543 163.570805 
L 489.731657 156.158338 
L 492.759771 149.04225 
L 495.787886 142.248614 
L 498.816 135.803501 
L 501.844114 129.717836 
L 504.872229 123.971832 
L 507.900343 118.545497 
L 510.928457 113.418838 
L 513.956571 108.571813 
L 516.984686 103.993858 
L 520.0128 99.687498 
L 523.040914 95.652887 
L 526.069029 91.89013 
L 529.097143 88.399327 
L 532.125257 85.175792 
L 535.153371 82.212361 
L 538.181486 79.505583 
L 541.2096 77.051953 
L 544.237714 74.847917 
L 547.265829 72.893834 
L 550.293943 71.180174 
L 553.322057 69.688694 
L 556.350171 68.401155 
L 559.378286 67.299266 
L 562.4064 66.392043 
L 565.434514 65.677116 
L 568.462629 65.154794 
L 571.490743 64.826984 
L 574.518857 64.697241 
L 577.546971 64.771078 
L 580.575086 65.055554 
L 583.6032 65.560048 
L 586.631314 66.295225 
L 589.659429 67.273554 
L 592.687543 68.509927 
L 595.715657 69.982497 
L 598.743771 71.681936 
L 601.771886 73.598868 
L 604.8 75.723864 
L 607.828114 78.050945 
L 610.856229 80.582173 
L 613.884343 83.320486 
L 616.912457 86.268768 
L 619.940571 89.429853 
L 622.968686 92.804618 
L 625.9968 96.386312 
L 629.024914 100.166486 
L 635.081143 108.28847 
L 641.137371 117.111211 
L 647.1936 126.641305 
L 653.249829 136.905494 
L 659.306057 147.849314 
L 665.362286 159.351009 
L 671.418514 171.31438 
L 680.502857 189.906091 
L 689.5872 208.968958 
L 701.699657 235.006216 
L 744.093257 327.239693 
L 756.205714 352.626071 
L 777.402514 396.100232 
L 786.486857 414.560654 
L 792.543086 426.488781 
L 798.599314 437.94096 
L 804.655543 448.690011 
L 810.711771 458.700948 
L 816.768 468.147981 
L 822.824229 477.139935 
L 828.880457 485.680106 
L 834.936686 493.795958 
L 840.992914 501.497024 
L 847.049143 508.750687 
L 853.105371 515.539377 
L 859.1616 521.854282 
L 865.217829 527.673093 
L 871.274057 533.007732 
L 877.330286 537.914559 
L 883.386514 542.435722 
L 889.442743 546.586555 
L 895.498971 550.38587 
L 901.5552 553.849699 
L 907.611429 556.989586 
L 913.667657 559.820976 
L 919.723886 562.337766 
L 925.780114 564.521383 
L 931.836343 566.393461 
L 937.892571 568.005904 
L 943.9488 569.396536 
L 953.033143 571.200533 
L 962.117486 572.843871 
L 971.201829 574.256912 
L 980.286171 575.401905 
L 989.370514 576.309145 
L 998.454857 577.011151 
L 1010.567314 577.70311 
L 1025.707886 578.345119 
L 1043.876571 578.882586 
L 1068.101486 579.339576 
L 1098.382629 579.651102 
L 1134.72 579.831597 
L 1134.72 579.831597 
" clip-path="url(#p4d88cab9a8)" style="fill: none; stroke-dasharray: 3,3; stroke-dashoffset: 0; stroke: #16a33a; stroke-opacity: 0.82; stroke-width: 1.5"/>
   </g>
   <g id="line2d_75">
    <path d="M 74.88 575.147301 
L 80.936229 573.910433 
L 83.964343 573.171884 
L 86.992457 572.303602 
L 90.020571 571.268342 
L 93.048686 570.01351 
L 96.0768 568.557456 
L 108.189257 562.080695 
L 111.217371 560.430398 
L 114.245486 558.560028 
L 117.2736 556.30686 
L 120.301714 553.50817 
L 123.329829 550.048477 
L 126.357943 545.946668 
L 129.386057 541.241554 
L 132.414171 535.972 
L 135.442286 530.176793 
L 138.4704 523.865775 
L 141.498514 516.924138 
L 144.526629 509.203852 
L 147.554743 500.556864 
L 150.582857 490.835097 
L 153.610971 480.055352 
L 156.639086 468.232416 
L 159.6672 455.215188 
L 162.695314 440.852588 
L 165.723429 424.993564 
L 168.751543 407.49892 
L 174.807771 369.246478 
L 180.864 330.551867 
L 183.892114 312.233087 
L 186.920229 294.679394 
L 189.948343 277.966686 
L 192.976457 262.170887 
L 196.004571 247.367848 
L 199.032686 233.677418 
L 202.0608 221.155213 
L 205.088914 209.780735 
L 208.117029 199.533555 
L 211.145143 190.3932 
L 214.173257 182.365285 
L 217.201371 175.430417 
L 220.229486 169.530699 
L 223.2576 164.608163 
L 226.285714 160.604887 
L 229.313829 157.488132 
L 232.341943 155.188911 
L 235.370057 153.594984 
L 238.398171 152.594111 
L 241.426286 152.074052 
L 244.4544 151.985671 
L 247.482514 152.290131 
L 250.510629 152.890602 
L 256.566857 154.592016 
L 262.623086 156.529337 
L 265.6512 157.752362 
L 268.679314 159.307187 
L 271.707429 161.31539 
L 274.735543 163.845476 
L 277.763657 166.894254 
L 280.791771 170.47586 
L 283.819886 174.604386 
L 286.848 179.293993 
L 289.876114 184.495858 
L 292.904229 190.284536 
L 295.932343 196.859184 
L 298.960457 204.41891 
L 301.988571 213.162896 
L 305.016686 223.241619 
L 308.0448 234.424814 
L 314.101029 258.616789 
L 320.157257 282.935646 
L 329.2416 318.286596 
L 335.297829 341.318026 
L 341.354057 363.579929 
L 347.410286 384.823725 
L 353.466514 404.867899 
L 356.494629 414.35676 
L 359.522743 423.432162 
L 362.550857 432.050586 
L 365.578971 440.180899 
L 368.607086 447.840984 
L 371.6352 455.060893 
L 374.663314 461.870751 
L 377.691429 468.300634 
L 380.719543 474.362808 
L 383.747657 480.061473 
L 386.775771 485.414584 
L 389.803886 490.440024 
L 392.832 495.155722 
L 395.860114 499.582491 
L 398.888229 503.736461 
L 401.916343 507.628528 
L 404.944457 511.269591 
L 407.972571 514.670548 
L 411.000686 517.834902 
L 417.056914 523.606609 
L 429.169371 534.324689 
L 435.2256 539.49955 
L 441.281829 544.40166 
L 447.338057 548.996909 
L 453.394286 553.148118 
L 456.4224 555.019237 
L 459.450514 556.756445 
L 462.478629 558.36102 
L 465.506743 559.834212 
L 468.534857 561.177283 
L 471.562971 562.387298 
L 477.6192 564.461475 
L 483.675429 566.218008 
L 489.731657 567.779043 
L 498.816 569.840135 
L 507.900343 571.688796 
L 516.984686 573.308203 
L 526.069029 574.681816 
L 535.153371 575.821714 
L 544.237714 576.743534 
L 553.322057 577.468939 
L 565.434514 578.188159 
L 577.546971 578.686952 
L 592.687543 579.090306 
L 613.884343 579.405664 
L 641.137371 579.542868 
L 731.9808 579.841999 
L 771.346286 579.914393 
L 895.498971 579.96 
L 1134.72 579.96 
L 1134.72 579.96 
" clip-path="url(#p4d88cab9a8)" style="fill: none; stroke-dasharray: 3,3; stroke-dashoffset: 0; stroke: #1647d8; stroke-opacity: 0.82; stroke-width: 1.5"/>
   </g>
   <g id="line2d_76">
    <path d="M 74.88 575.172655 
L 80.936229 573.702461 
L 86.992457 571.843552 
L 90.020571 570.727232 
L 93.048686 569.475548 
L 96.0768 568.078406 
L 99.104914 566.541523 
L 105.161143 563.094391 
L 108.189257 561.173227 
L 111.217371 559.097921 
L 114.245486 556.865012 
L 117.2736 554.473977 
L 120.301714 551.914891 
L 123.329829 549.178619 
L 126.357943 546.271624 
L 129.386057 543.110389 
L 132.414171 539.571737 
L 135.442286 535.580814 
L 138.4704 531.167806 
L 141.498514 526.362361 
L 144.526629 521.170028 
L 147.554743 515.601635 
L 150.582857 509.692918 
L 153.610971 503.477581 
L 162.695314 483.994419 
L 165.723429 478.058521 
L 168.751543 472.565434 
L 171.779657 467.551021 
L 174.807771 463.008623 
L 177.835886 458.886087 
L 180.864 455.145342 
L 183.892114 451.821155 
L 186.920229 448.949633 
L 189.948343 446.430192 
L 196.004571 441.881454 
L 202.0608 437.758851 
L 205.088914 435.911189 
L 208.117029 434.335181 
L 211.145143 433.102509 
L 214.173257 432.194003 
L 217.201371 431.599994 
L 220.229486 431.342862 
L 223.2576 431.449037 
L 226.285714 431.930207 
L 229.313829 432.777838 
L 232.341943 433.985729 
L 235.370057 435.515221 
L 238.398171 437.308836 
L 241.426286 439.319263 
L 244.4544 441.532868 
L 250.510629 446.472828 
L 271.707429 464.643654 
L 280.791771 472.115638 
L 283.819886 474.436932 
L 286.848 476.602025 
L 289.876114 478.625539 
L 295.932343 482.340671 
L 298.960457 484.37021 
L 301.988571 486.713131 
L 305.016686 489.352989 
L 308.0448 492.301176 
L 311.072914 495.509116 
L 317.129143 502.357148 
L 323.185371 509.630061 
L 341.354057 532.073524 
L 347.410286 539.131912 
L 353.466514 545.779239 
L 356.494629 548.908741 
L 359.522743 551.873566 
L 362.550857 554.655591 
L 365.578971 557.250492 
L 368.607086 559.650513 
L 371.6352 561.870447 
L 374.663314 563.937517 
L 377.691429 565.869727 
L 380.719543 567.662959 
L 383.747657 569.316956 
L 386.775771 570.83479 
L 389.803886 572.218804 
L 392.832 573.471041 
L 395.860114 574.592292 
L 398.888229 575.581572 
L 401.916343 576.443424 
L 404.944457 577.184352 
L 407.972571 577.806738 
L 411.000686 578.305979 
L 414.0288 578.677791 
L 417.056914 578.913461 
L 420.085029 579.001006 
L 423.113143 578.929129 
L 426.141257 578.691919 
L 429.169371 578.284111 
L 432.197486 577.687089 
L 435.2256 576.876673 
L 438.253714 575.834784 
L 441.281829 574.557507 
L 444.309943 573.041097 
L 447.338057 571.275564 
L 450.366171 569.250213 
L 453.394286 566.958991 
L 456.4224 564.402187 
L 459.450514 561.580009 
L 462.478629 558.501664 
L 465.506743 555.181881 
L 468.534857 551.633361 
L 471.562971 547.861972 
L 474.591086 543.875825 
L 480.647314 535.308487 
L 486.703543 526.034027 
L 492.759771 516.140897 
L 498.816 505.83853 
L 507.900343 489.867686 
L 513.956571 478.857818 
L 523.040914 461.771542 
L 529.097143 449.989877 
L 535.153371 437.878177 
L 544.237714 419.101491 
L 553.322057 399.612216 
L 562.4064 379.358941 
L 571.490743 358.360671 
L 580.575086 336.729657 
L 592.687543 307.229923 
L 619.940571 240.591841 
L 629.024914 219.077489 
L 635.081143 205.205189 
L 641.137371 191.843133 
L 647.1936 179.120585 
L 653.249829 167.194798 
L 656.277943 161.56455 
L 659.306057 156.169047 
L 662.334171 151.013724 
L 665.362286 146.106062 
L 668.3904 141.461514 
L 671.418514 137.097325 
L 674.446629 133.015518 
L 677.474743 129.212434 
L 680.502857 125.692906 
L 683.530971 122.469523 
L 686.559086 119.545624 
L 689.5872 116.970715 
L 692.615314 114.815597 
L 695.643429 113.126182 
L 698.671543 111.905474 
L 701.699657 111.168992 
L 704.727771 110.886616 
L 707.755886 111.002432 
L 710.784 111.483183 
L 713.812114 112.3387 
L 716.840229 113.563763 
L 719.868343 115.189931 
L 722.896457 117.269318 
L 725.924571 119.831395 
L 728.952686 122.867011 
L 731.9808 126.38023 
L 735.008914 130.328693 
L 738.037029 134.644797 
L 741.065143 139.285395 
L 744.093257 144.253988 
L 747.121371 149.541092 
L 750.149486 155.169975 
L 753.1776 161.183729 
L 756.205714 167.60715 
L 759.233829 174.41819 
L 762.261943 181.593702 
L 765.290057 189.143499 
L 768.318171 197.085697 
L 771.346286 205.418335 
L 774.3744 214.114125 
L 780.430629 232.458977 
L 792.543086 270.594322 
L 801.627429 298.922756 
L 807.683657 317.022469 
L 816.768 343.052828 
L 822.824229 359.8859 
L 828.880457 376.270088 
L 834.936686 392.219863 
L 840.992914 407.694728 
L 847.049143 422.529587 
L 853.105371 436.625796 
L 859.1616 449.920804 
L 865.217829 462.32921 
L 871.274057 473.836109 
L 877.330286 484.555029 
L 883.386514 494.542969 
L 889.442743 503.816257 
L 895.498971 512.408269 
L 901.5552 520.326644 
L 904.583314 524.002825 
L 907.611429 527.472834 
L 910.639543 530.742443 
L 913.667657 533.816701 
L 916.695771 536.696443 
L 919.723886 539.382986 
L 922.752 541.88105 
L 925.780114 544.196586 
L 928.808229 546.333279 
L 934.864457 550.179946 
L 940.920686 553.631645 
L 946.976914 556.754291 
L 953.033143 559.607236 
L 959.089371 562.238328 
L 965.1456 564.638221 
L 971.201829 566.738052 
L 977.258057 568.553168 
L 983.314286 570.107777 
L 989.370514 571.422689 
L 995.426743 572.531781 
L 1004.511086 573.916797 
L 1013.595429 575.03189 
L 1022.679771 575.934756 
L 1034.792229 576.884572 
L 1046.904686 577.615333 
L 1062.045257 578.301536 
L 1080.213943 578.868472 
L 1101.410743 579.292384 
L 1128.663771 579.615458 
L 1134.72 579.663163 
L 1134.72 579.663163 
" clip-path="url(#p4d88cab9a8)" style="fill: none; stroke-dasharray: 1.5,2.25; stroke-dashoffset: 0; stroke: #e31a1c; stroke-opacity: 0.82; stroke-width: 1.5"/>
   </g>
   <g id="line2d_77">
    <path d="M 74.88 579.54779 
L 90.020571 579.163558 
L 102.133029 578.668588 
L 114.245486 577.985823 
L 126.357943 577.072639 
L 135.442286 576.147056 
L 144.526629 574.900793 
L 153.610971 573.334349 
L 174.807771 569.29123 
L 186.920229 567.321504 
L 199.032686 565.378073 
L 217.201371 562.047363 
L 226.285714 560.431541 
L 238.398171 558.561693 
L 259.594971 555.356996 
L 268.679314 553.723951 
L 274.735543 552.434677 
L 280.791771 550.923483 
L 286.848 549.044234 
L 292.904229 546.714615 
L 298.960457 543.929599 
L 305.016686 540.713051 
L 311.072914 537.064435 
L 317.129143 533.081394 
L 323.185371 528.814089 
L 329.2416 524.239858 
L 335.297829 519.302777 
L 341.354057 513.98635 
L 347.410286 508.328171 
L 353.466514 502.309391 
L 359.522743 495.854097 
L 365.578971 488.866095 
L 368.607086 485.145947 
L 371.6352 481.245499 
L 374.663314 477.130742 
L 377.691429 472.775041 
L 380.719543 468.167034 
L 383.747657 463.292631 
L 386.775771 458.141595 
L 389.803886 452.707246 
L 392.832 446.980987 
L 395.860114 440.952776 
L 398.888229 434.617706 
L 401.916343 427.953405 
L 404.944457 420.930234 
L 407.972571 413.530129 
L 411.000686 405.758326 
L 414.0288 397.620752 
L 417.056914 389.121505 
L 423.113143 371.072477 
L 429.169371 351.727238 
L 435.2256 331.301637 
L 441.281829 310.106019 
L 465.506743 224.077254 
L 468.534857 214.123441 
L 471.562971 204.553371 
L 474.591086 195.391092 
L 477.6192 186.636613 
L 480.647314 178.269364 
L 483.675429 170.27458 
L 486.703543 162.667669 
L 489.731657 155.462556 
L 492.759771 148.620436 
L 498.816 135.803501 
L 501.844114 129.790682 
L 504.872229 124.03424 
L 507.900343 118.546354 
L 510.928457 113.352951 
L 513.956571 108.468812 
L 516.984686 103.883336 
L 520.0128 99.590414 
L 523.040914 95.584226 
L 526.069029 91.856361 
L 529.097143 88.399327 
L 532.125257 85.209472 
L 535.153371 82.282779 
L 538.181486 79.609926 
L 541.2096 77.179452 
L 544.237714 74.981885 
L 547.265829 73.013408 
L 550.293943 71.270913 
L 553.322057 69.744829 
L 556.350171 68.42353 
L 559.378286 67.299317 
L 562.4064 66.370806 
L 565.434514 65.635753 
L 568.462629 65.09823 
L 571.490743 64.766236 
L 574.518857 64.645714 
L 577.546971 64.735354 
L 580.575086 65.033761 
L 583.6032 65.549155 
L 586.631314 66.293327 
L 589.659429 67.273554 
L 592.687543 68.48889 
L 595.715657 69.939854 
L 598.743771 71.621655 
L 601.771886 73.525967 
L 604.8 75.646574 
L 607.828114 77.983171 
L 610.856229 80.534588 
L 613.884343 83.296314 
L 616.912457 86.262867 
L 619.940571 89.429853 
L 622.968686 92.79456 
L 625.9968 96.353484 
L 629.024914 100.106188 
L 632.053029 104.053785 
L 635.081143 108.195723 
L 641.137371 117.040938 
L 647.1936 126.618683 
L 653.249829 136.918513 
L 659.306057 147.882736 
L 665.362286 159.387078 
L 671.418514 171.336466 
L 680.502857 189.906091 
L 689.5872 208.993815 
L 701.699657 235.022457 
L 716.840229 268.117512 
L 735.008914 307.811409 
L 744.093257 327.181934 
L 759.233829 358.620036 
L 786.486857 414.80798 
L 792.543086 426.665092 
L 798.599314 437.991358 
L 804.655543 448.671395 
L 810.711771 458.674368 
L 816.768 468.137676 
L 822.824229 477.131493 
L 828.880457 485.674022 
L 834.936686 493.802698 
L 840.992914 501.527587 
L 847.049143 508.791908 
L 853.105371 515.57139 
L 859.1616 521.865296 
L 865.217829 527.666127 
L 871.274057 532.986643 
L 877.330286 537.887765 
L 883.386514 542.406788 
L 889.442743 546.569126 
L 895.498971 550.410856 
L 901.5552 553.944134 
L 907.611429 557.119948 
L 913.667657 559.924571 
L 919.723886 562.374617 
L 925.780114 564.486939 
L 931.836343 566.289525 
L 937.892571 567.875027 
L 946.976914 569.963895 
L 956.061257 571.780293 
L 965.1456 573.374239 
L 974.229943 574.684947 
L 983.314286 575.729693 
L 992.398629 576.54346 
L 1004.511086 577.367835 
L 1019.651657 578.113164 
L 1037.820343 578.726466 
L 1059.017143 579.196278 
L 1086.270171 579.551159 
L 1125.635657 579.799602 
L 1134.72 579.831597 
L 1134.72 579.831597 
" clip-path="url(#p4d88cab9a8)" style="fill: none; stroke-dasharray: 1.5,2.25; stroke-dashoffset: 0; stroke: #16a33a; stroke-opacity: 0.82; stroke-width: 1.5"/>
   </g>
   <g id="line2d_78">
    <path d="M 74.88 568.138288 
L 77.908114 566.419374 
L 80.936229 564.498084 
L 83.964343 562.338124 
L 86.992457 559.891809 
L 90.020571 557.124294 
L 93.048686 554.019876 
L 96.0768 550.552913 
L 99.104914 546.73727 
L 102.133029 542.606442 
L 105.161143 538.17235 
L 108.189257 533.394535 
L 111.217371 528.229606 
L 114.245486 522.667726 
L 117.2736 516.706131 
L 120.301714 510.318718 
L 123.329829 503.481272 
L 126.357943 496.207956 
L 129.386057 488.290492 
L 132.414171 479.422491 
L 135.442286 469.416796 
L 138.4704 458.346086 
L 141.498514 446.282058 
L 144.526629 433.234272 
L 147.554743 419.224197 
L 150.582857 404.336174 
L 153.610971 388.652706 
L 162.695314 339.29279 
L 165.723429 324.130962 
L 168.751543 310.016542 
L 171.779657 297.034952 
L 174.807771 285.178472 
L 177.835886 274.332327 
L 180.864 264.410316 
L 183.892114 255.496892 
L 186.920229 247.68441 
L 189.948343 240.7089 
L 196.004571 227.781013 
L 202.0608 215.624808 
L 205.088914 209.982417 
L 208.117029 204.977173 
L 211.145143 200.801106 
L 214.173257 197.404557 
L 217.201371 194.764405 
L 220.229486 192.934995 
L 223.2576 191.977967 
L 226.285714 191.919821 
L 229.313829 192.740932 
L 232.341943 194.426475 
L 235.370057 196.879553 
L 238.398171 199.956146 
L 241.426286 203.537503 
L 244.4544 207.588905 
L 247.482514 212.072793 
L 253.538743 221.774306 
L 262.623086 236.385855 
L 268.679314 245.659646 
L 274.735543 254.539165 
L 277.763657 258.860213 
L 280.791771 262.980784 
L 283.819886 266.694064 
L 286.848 269.907111 
L 289.876114 272.671659 
L 295.932343 277.154164 
L 298.960457 279.832376 
L 301.988571 283.373061 
L 305.016686 287.742208 
L 308.0448 292.979252 
L 311.072914 298.993048 
L 314.101029 305.583043 
L 317.129143 312.609294 
L 320.157257 320.103355 
L 323.185371 328.064252 
L 329.2416 345.014469 
L 335.297829 362.718284 
L 347.410286 398.503329 
L 353.466514 415.520641 
L 359.522743 431.569737 
L 365.578971 446.548048 
L 368.607086 453.585048 
L 371.6352 460.301843 
L 374.663314 466.68833 
L 377.691429 472.738877 
L 380.719543 478.451531 
L 383.747657 483.825882 
L 386.775771 488.874189 
L 389.803886 493.616174 
L 392.832 498.069744 
L 395.860114 502.243933 
L 398.888229 506.150028 
L 401.916343 509.810558 
L 404.944457 513.252945 
L 407.972571 516.502013 
L 411.000686 519.57099 
L 417.056914 525.235572 
L 423.113143 530.527243 
L 432.197486 538.08637 
L 438.253714 542.886633 
L 444.309943 547.487548 
L 450.366171 551.791968 
L 453.394286 553.753006 
L 456.4224 555.581422 
L 459.450514 557.277711 
L 462.478629 558.840749 
L 465.506743 560.272511 
L 468.534857 561.576939 
L 471.562971 562.755269 
L 477.6192 564.755811 
L 483.675429 566.463566 
L 492.759771 568.704994 
L 501.844114 570.653298 
L 510.928457 572.389522 
L 520.0128 573.88486 
L 529.097143 575.149224 
L 538.181486 576.18822 
L 547.265829 577.02041 
L 559.378286 577.851943 
L 571.490743 578.438621 
L 586.631314 578.916895 
L 604.8 579.25869 
L 629.024914 579.464545 
L 762.261943 579.889461 
L 971.201829 579.959574 
L 1134.72 579.95999 
L 1134.72 579.95999 
" clip-path="url(#p4d88cab9a8)" style="fill: none; stroke-dasharray: 1.5,2.25; stroke-dashoffset: 0; stroke: #1647d8; stroke-opacity: 0.82; stroke-width: 1.5"/>
   </g>
   <g id="line2d_79">
    <path d="M 74.88 578.286074 
L 80.936229 577.541437 
L 86.992457 576.478751 
L 90.020571 575.793457 
L 93.048686 574.983897 
L 96.0768 574.032036 
L 99.104914 572.918682 
L 102.133029 571.623839 
L 105.161143 570.127307 
L 108.189257 568.408894 
L 111.217371 566.447281 
L 114.245486 564.221288 
L 117.2736 561.710985 
L 120.301714 558.898588 
L 123.329829 555.770637 
L 126.357943 552.323811 
L 129.386057 548.565179 
L 132.414171 544.513343 
L 135.442286 540.200293 
L 141.498514 530.935611 
L 147.554743 520.956744 
L 153.610971 510.400385 
L 159.6672 499.660498 
L 162.695314 494.470041 
L 165.723429 489.562669 
L 168.751543 485.042112 
L 171.779657 480.876132 
L 177.835886 473.214249 
L 183.892114 465.576345 
L 189.948343 457.68835 
L 192.976457 453.896619 
L 196.004571 450.374161 
L 199.032686 447.223422 
L 202.0608 444.390669 
L 220.229486 428.739591 
L 223.2576 426.686464 
L 226.285714 425.315847 
L 229.313829 424.800789 
L 232.341943 425.02628 
L 235.370057 425.79578 
L 238.398171 426.907736 
L 247.482514 430.761191 
L 250.510629 432.344243 
L 253.538743 434.303364 
L 256.566857 436.768751 
L 259.594971 439.806612 
L 262.623086 443.271298 
L 274.735543 457.935688 
L 277.763657 461.206145 
L 280.791771 464.246359 
L 283.819886 467.04825 
L 286.848 469.601338 
L 292.904229 474.123582 
L 295.932343 476.351001 
L 298.960457 478.732639 
L 301.988571 481.389769 
L 305.016686 484.411378 
L 308.0448 487.791338 
L 311.072914 491.496346 
L 314.101029 495.488079 
L 317.129143 499.723687 
L 323.185371 508.712847 
L 335.297829 527.123852 
L 341.354057 535.770318 
L 344.382171 539.809316 
L 347.410286 543.623539 
L 350.4384 547.20296 
L 353.466514 550.565957 
L 356.494629 553.732492 
L 359.522743 556.717147 
L 362.550857 559.529682 
L 365.578971 562.170519 
L 368.607086 564.620724 
L 371.6352 566.864448 
L 374.663314 568.893556 
L 377.691429 570.706002 
L 380.719543 572.306328 
L 383.747657 573.708059 
L 386.775771 574.922138 
L 389.803886 575.954786 
L 392.832 576.808225 
L 395.860114 577.486112 
L 398.888229 578.008576 
L 404.944457 578.677733 
L 411.000686 578.980263 
L 417.056914 578.922206 
L 420.085029 578.708243 
L 423.113143 578.339568 
L 426.141257 577.787973 
L 429.169371 577.016205 
L 432.197486 575.98887 
L 435.2256 574.674764 
L 438.253714 573.04613 
L 441.281829 571.089278 
L 444.309943 568.837792 
L 447.338057 566.338515 
L 453.394286 560.798317 
L 459.450514 554.788567 
L 462.478629 551.577627 
L 465.506743 548.190824 
L 468.534857 544.60036 
L 471.562971 540.787909 
L 474.591086 536.766979 
L 480.647314 528.174795 
L 486.703543 518.944336 
L 492.759771 509.218846 
L 504.872229 489.147212 
L 510.928457 478.686858 
L 513.956571 473.164382 
L 516.984686 467.372765 
L 523.040914 455.120875 
L 541.2096 417.177006 
L 550.293943 398.920487 
L 556.350171 386.707629 
L 562.4064 373.847252 
L 568.462629 360.056538 
L 574.518857 345.489218 
L 583.6032 322.846734 
L 598.743771 284.44811 
L 604.8 268.377445 
L 610.856229 251.604599 
L 622.968686 217.854952 
L 629.024914 201.82625 
L 632.053029 194.172139 
L 635.081143 186.822426 
L 641.137371 172.972297 
L 647.1936 159.240109 
L 650.221714 151.963665 
L 656.277943 136.21907 
L 662.334171 120.457511 
L 665.362286 113.254514 
L 668.3904 106.810848 
L 671.418514 101.082997 
L 674.446629 95.966165 
L 677.474743 91.358662 
L 680.502857 87.163685 
L 683.530971 83.313294 
L 686.559086 79.837241 
L 689.5872 76.785703 
L 692.615314 74.203974 
L 695.643429 72.13113 
L 698.671543 70.588043 
L 701.699657 69.536079 
L 704.727771 68.925949 
L 707.755886 68.709251 
L 710.784 68.839359 
L 713.812114 69.297178 
L 716.840229 70.159087 
L 719.868343 71.519224 
L 722.896457 73.462404 
L 725.924571 76.066779 
L 728.952686 79.378977 
L 731.9808 83.355923 
L 735.008914 87.933675 
L 738.037029 93.048287 
L 741.065143 98.637593 
L 744.093257 104.650526 
L 747.121371 111.068436 
L 750.149486 117.881111 
L 753.1776 125.077892 
L 756.205714 132.645013 
L 762.261943 148.729843 
L 774.3744 182.407553 
L 780.430629 199.77854 
L 783.458743 208.986974 
L 786.486857 218.6971 
L 789.514971 228.954744 
L 795.5712 250.526347 
L 804.655543 283.260976 
L 810.711771 304.271384 
L 816.768 324.3888 
L 822.824229 343.483027 
L 828.880457 361.393584 
L 834.936686 378.030195 
L 840.992914 393.762845 
L 856.133486 432.254144 
L 862.189714 446.860452 
L 868.245943 460.462754 
L 871.274057 466.856064 
L 874.302171 472.973261 
L 877.330286 478.813768 
L 880.3584 484.380472 
L 883.386514 489.683407 
L 886.414629 494.733809 
L 889.442743 499.542424 
L 892.470857 504.11942 
L 895.498971 508.474345 
L 898.527086 512.615814 
L 901.5552 516.551951 
L 904.583314 520.29084 
L 907.611429 523.840119 
L 910.639543 527.207335 
L 913.667657 530.399682 
L 916.695771 533.424266 
L 919.723886 536.288036 
L 925.780114 541.560416 
L 931.836343 546.271792 
L 937.892571 550.475002 
L 943.9488 554.216382 
L 950.005029 557.532616 
L 956.061257 560.45977 
L 962.117486 563.045691 
L 968.173714 565.341134 
L 974.229943 567.374865 
L 980.286171 569.136343 
L 986.3424 570.626277 
L 992.398629 571.883873 
L 1001.482971 573.450819 
L 1010.567314 574.722855 
L 1019.651657 575.748452 
L 1031.764114 576.824362 
L 1043.876571 577.644433 
L 1055.989029 578.251286 
L 1071.1296 578.781623 
L 1089.298286 579.203387 
L 1113.5232 579.535596 
L 1134.72 579.7043 
L 1134.72 579.7043 
" clip-path="url(#p4d88cab9a8)" style="fill: none; stroke-dasharray: 11.2,3.2,1.92,3.2; stroke-dashoffset: 0; stroke: #e31a1c; stroke-opacity: 0.82; stroke-width: 1.6"/>
   </g>
   <g id="line2d_80">
    <path d="M 74.88 579.746364 
L 90.020571 579.414004 
L 102.133029 578.88023 
L 111.217371 578.260089 
L 120.301714 577.398259 
L 129.386057 576.224184 
L 138.4704 574.778476 
L 150.582857 572.594953 
L 177.835886 567.123532 
L 186.920229 565.146232 
L 196.004571 562.858233 
L 205.088914 560.33071 
L 217.201371 556.684654 
L 226.285714 554.02344 
L 232.341943 552.485066 
L 250.510629 548.123748 
L 268.679314 543.565549 
L 271.707429 542.663535 
L 274.735543 541.645267 
L 277.763657 540.494052 
L 280.791771 539.195317 
L 283.819886 537.732439 
L 286.848 536.086324 
L 289.876114 534.242503 
L 292.904229 532.215711 
L 298.960457 527.725444 
L 308.0448 520.441432 
L 323.185371 508.167976 
L 335.297829 498.360722 
L 341.354057 493.202066 
L 347.410286 487.828545 
L 356.494629 479.375505 
L 365.578971 470.630208 
L 371.6352 464.459421 
L 374.663314 461.07332 
L 377.691429 457.370745 
L 380.719543 453.272036 
L 383.747657 448.772916 
L 386.775771 443.891472 
L 389.803886 438.649703 
L 392.832 433.075076 
L 395.860114 427.192991 
L 398.888229 421.000923 
L 401.916343 414.488878 
L 404.944457 407.647116 
L 407.972571 400.466363 
L 411.000686 392.940177 
L 414.0288 385.073455 
L 420.085029 368.363123 
L 426.141257 350.462328 
L 432.197486 331.53245 
L 438.253714 311.767176 
L 447.338057 281.057516 
L 462.478629 229.162209 
L 465.506743 219.325328 
L 468.534857 209.95548 
L 471.562971 201.15979 
L 474.591086 192.903838 
L 477.6192 185.106779 
L 483.675429 170.509128 
L 489.731657 156.732599 
L 492.759771 150.194739 
L 495.787886 143.959544 
L 498.816 138.081014 
L 501.844114 132.58785 
L 507.900343 122.411462 
L 513.956571 112.547271 
L 523.040914 97.327234 
L 526.069029 92.54812 
L 529.097143 88.158442 
L 532.125257 84.285779 
L 535.153371 80.959449 
L 538.181486 78.182234 
L 541.2096 75.954753 
L 544.237714 74.275666 
L 547.265829 73.113079 
L 550.293943 72.318956 
L 556.350171 71.11963 
L 559.378286 70.353383 
L 562.4064 69.292818 
L 568.462629 66.800955 
L 571.490743 65.717203 
L 574.518857 64.97507 
L 577.546971 64.700847 
L 580.575086 64.823119 
L 583.6032 65.220799 
L 598.743771 68.018933 
L 601.771886 68.759778 
L 604.8 69.718528 
L 607.828114 70.952737 
L 610.856229 72.461014 
L 613.884343 74.227747 
L 616.912457 76.237323 
L 619.940571 78.4748 
L 622.968686 80.940178 
L 625.9968 83.691423 
L 629.024914 86.798818 
L 632.053029 90.329502 
L 635.081143 94.347057 
L 638.109257 98.864469 
L 650.221714 118.098403 
L 653.249829 122.248535 
L 659.306057 129.803524 
L 662.334171 133.548969 
L 665.362286 137.493409 
L 668.3904 141.765349 
L 671.418514 146.363966 
L 674.446629 151.255768 
L 677.474743 156.406077 
L 683.530971 167.344075 
L 689.5872 178.97979 
L 695.643429 191.205326 
L 701.699657 203.909439 
L 713.812114 230.044596 
L 722.896457 250.0472 
L 728.952686 263.838671 
L 741.065143 292.250363 
L 759.233829 334.723678 
L 765.290057 348.599086 
L 771.346286 362.00916 
L 780.430629 381.207696 
L 789.514971 400.501195 
L 798.599314 420.037691 
L 804.655543 432.53508 
L 810.711771 444.345263 
L 816.768 455.426041 
L 822.824229 465.758296 
L 828.880457 475.333733 
L 834.936686 484.160957 
L 840.992914 492.383159 
L 847.049143 500.228395 
L 853.105371 507.814506 
L 859.1616 515.041375 
L 865.217829 521.796109 
L 871.274057 528.018834 
L 877.330286 533.691496 
L 883.386514 538.821375 
L 889.442743 543.448167 
L 895.498971 547.615102 
L 901.5552 551.359295 
L 907.611429 554.713676 
L 913.667657 557.711547 
L 919.723886 560.388383 
L 925.780114 562.776729 
L 931.836343 564.905156 
L 937.892571 566.79904 
L 943.9488 568.480672 
L 950.005029 569.968102 
L 956.061257 571.278765 
L 965.1456 572.962412 
L 974.229943 574.366266 
L 983.314286 575.497163 
L 992.398629 576.373778 
L 1004.511086 577.272033 
L 1016.623543 577.949415 
L 1031.764114 578.568003 
L 1049.9328 579.076852 
L 1071.1296 579.436007 
L 1101.410743 579.707776 
L 1134.72 579.845743 
L 1134.72 579.845743 
" clip-path="url(#p4d88cab9a8)" style="fill: none; stroke-dasharray: 11.2,3.2,1.92,3.2; stroke-dashoffset: 0; stroke: #16a33a; stroke-opacity: 0.82; stroke-width: 1.6"/>
   </g>
   <g id="line2d_81">
    <path d="M 74.88 575.525934 
L 77.908114 574.628586 
L 80.936229 573.551507 
L 83.964343 572.262237 
L 86.992457 570.723866 
L 90.020571 568.894916 
L 93.048686 566.729397 
L 96.0768 564.177098 
L 99.104914 561.18421 
L 102.133029 557.694345 
L 105.161143 553.650031 
L 108.189257 548.993669 
L 111.217371 543.665617 
L 114.245486 537.607284 
L 117.2736 530.76447 
L 120.301714 523.089863 
L 123.329829 514.547578 
L 126.357943 505.121485 
L 129.386057 494.818137 
L 132.414171 483.670708 
L 135.442286 471.743477 
L 138.4704 459.12257 
L 141.498514 445.867923 
L 144.526629 432.032968 
L 150.582857 402.842629 
L 162.695314 341.814514 
L 165.723429 327.486408 
L 168.751543 314.119352 
L 171.779657 301.633225 
L 177.835886 278.276163 
L 183.892114 254.771 
L 192.976457 218.477266 
L 196.004571 207.227797 
L 199.032686 196.88806 
L 202.0608 187.318835 
L 214.173257 150.896921 
L 217.201371 141.510363 
L 220.229486 132.749334 
L 223.2576 125.254489 
L 226.285714 119.698405 
L 229.313829 116.565951 
L 232.341943 115.536202 
L 235.370057 116.056837 
L 238.398171 117.558255 
L 244.4544 121.39041 
L 247.482514 123.60017 
L 250.510629 126.534354 
L 253.538743 130.615905 
L 256.566857 136.24496 
L 259.594971 143.626749 
L 262.623086 152.307606 
L 271.707429 180.436798 
L 274.735543 188.893703 
L 277.763657 196.538089 
L 280.791771 203.370438 
L 283.819886 209.38883 
L 286.848 214.589423 
L 289.876114 219.041107 
L 295.932343 227.206129 
L 298.960457 231.739426 
L 301.988571 237.08476 
L 305.016686 243.530413 
L 308.0448 251.089827 
L 311.072914 259.700834 
L 314.101029 269.289022 
L 317.129143 279.770139 
L 320.157257 291.03113 
L 326.213486 315.133499 
L 338.325943 364.739513 
L 341.354057 376.555008 
L 344.382171 387.894369 
L 347.410286 398.676658 
L 350.4384 408.866134 
L 353.466514 418.531877 
L 356.494629 427.75454 
L 362.550857 445.124967 
L 365.578971 453.343565 
L 368.607086 461.171386 
L 371.6352 468.521802 
L 374.663314 475.332668 
L 377.691429 481.562242 
L 380.719543 487.204307 
L 383.747657 492.33373 
L 386.775771 497.032506 
L 389.803886 501.370342 
L 392.832 505.40667 
L 395.860114 509.195307 
L 401.916343 516.252377 
L 407.972571 522.909668 
L 417.056914 532.532998 
L 423.113143 538.673591 
L 429.169371 544.448899 
L 432.197486 547.088969 
L 435.2256 549.516897 
L 438.253714 551.712806 
L 441.281829 553.676915 
L 444.309943 555.45382 
L 450.366171 558.620731 
L 456.4224 561.474967 
L 462.478629 564.080655 
L 468.534857 566.39706 
L 474.591086 568.41537 
L 480.647314 570.167221 
L 486.703543 571.686372 
L 492.759771 572.994429 
L 498.816 574.107559 
L 504.872229 575.047893 
L 513.956571 576.200638 
L 523.040914 577.108634 
L 532.125257 577.809124 
L 544.237714 578.488246 
L 559.378286 579.050198 
L 577.546971 579.453219 
L 601.771886 579.726719 
L 638.109257 579.886036 
L 716.840229 579.952805 
L 1134.72 579.96 
L 1134.72 579.96 
" clip-path="url(#p4d88cab9a8)" style="fill: none; stroke-dasharray: 11.2,3.2,1.92,3.2; stroke-dashoffset: 0; stroke: #1647d8; stroke-opacity: 0.82; stroke-width: 1.6"/>
   </g>
   <g id="line2d_82">
    <path d="M 74.88 578.648967 
L 80.936229 578.036294 
L 86.992457 577.147406 
L 93.048686 575.874971 
L 96.0768 575.053787 
L 99.104914 574.084004 
L 102.133029 572.944877 
L 105.161143 571.614727 
L 108.189257 570.071147 
L 111.217371 568.290362 
L 114.245486 566.24823 
L 117.2736 563.921263 
L 120.301714 561.287598 
L 123.329829 558.329 
L 126.357943 555.035843 
L 129.386057 551.407932 
L 132.414171 547.456066 
L 135.442286 543.204193 
L 138.4704 538.683742 
L 141.498514 533.905532 
L 144.526629 528.870716 
L 147.554743 523.575329 
L 150.582857 518.008848 
L 156.639086 506.111446 
L 165.723429 487.701284 
L 168.751543 481.916861 
L 174.807771 471.057479 
L 183.892114 455.150804 
L 189.948343 444.260117 
L 192.976457 439.054385 
L 196.004571 434.230495 
L 199.032686 429.928501 
L 202.0608 426.091032 
L 205.088914 422.589401 
L 214.173257 412.546945 
L 217.201371 409.139143 
L 220.229486 405.953456 
L 223.2576 403.21804 
L 226.285714 401.175525 
L 229.313829 400.001092 
L 232.341943 399.563921 
L 235.370057 399.644827 
L 247.482514 401.212249 
L 250.510629 401.953241 
L 253.538743 403.25645 
L 256.566857 405.351852 
L 259.594971 408.372795 
L 262.623086 412.129268 
L 265.6512 416.362744 
L 274.735543 429.699724 
L 280.791771 438.085815 
L 289.876114 450.129576 
L 295.932343 458.313089 
L 298.960457 462.714152 
L 301.988571 467.42694 
L 305.016686 472.492972 
L 311.072914 483.439699 
L 329.2416 517.63975 
L 335.297829 528.133409 
L 338.325943 533.06254 
L 341.354057 537.736833 
L 344.382171 542.134578 
L 347.410286 546.242458 
L 350.4384 550.061148 
L 353.466514 553.618645 
L 356.494629 556.939777 
L 359.522743 560.039216 
L 362.550857 562.922675 
L 365.578971 565.584662 
L 368.607086 568.005648 
L 371.6352 570.172742 
L 374.663314 572.082702 
L 377.691429 573.739938 
L 380.719543 575.154045 
L 383.747657 576.332526 
L 386.775771 577.275862 
L 389.803886 577.978348 
L 392.832 578.429431 
L 395.860114 578.623614 
L 398.888229 578.587543 
L 401.916343 578.356423 
L 404.944457 577.965561 
L 411.000686 576.835938 
L 414.0288 576.110217 
L 417.056914 575.249677 
L 420.085029 574.229627 
L 423.113143 573.024074 
L 426.141257 571.604505 
L 429.169371 569.938046 
L 432.197486 567.995164 
L 435.2256 565.750676 
L 438.253714 563.182824 
L 441.281829 560.285594 
L 444.309943 557.106697 
L 450.366171 550.145247 
L 456.4224 542.762954 
L 462.478629 535.024414 
L 465.506743 530.92038 
L 468.534857 526.606441 
L 471.562971 522.057153 
L 477.6192 512.333085 
L 483.675429 501.947198 
L 489.731657 491.077248 
L 498.816 474.263903 
L 504.872229 462.872856 
L 510.928457 450.971591 
L 513.956571 444.65719 
L 516.984686 438.018851 
L 523.040914 423.951003 
L 535.153371 394.937457 
L 541.2096 380.97667 
L 547.265829 367.638313 
L 556.350171 348.105495 
L 559.378286 341.317909 
L 562.4064 334.210961 
L 568.462629 319.118636 
L 577.546971 295.277118 
L 589.659429 263.622739 
L 601.771886 232.08781 
L 610.856229 207.539003 
L 616.912457 191.206303 
L 622.968686 175.570279 
L 625.9968 168.164259 
L 629.024914 161.106112 
L 632.053029 154.456761 
L 635.081143 148.281748 
L 638.109257 142.600834 
L 647.1936 126.508633 
L 650.221714 120.663108 
L 653.249829 114.257187 
L 662.334171 94.288085 
L 665.362286 88.443004 
L 668.3904 83.46072 
L 671.418514 79.292387 
L 674.446629 75.818109 
L 677.474743 72.922434 
L 680.502857 70.495236 
L 683.530971 68.455696 
L 686.559086 66.819358 
L 689.5872 65.619524 
L 692.615314 64.886836 
L 695.643429 64.645714 
L 698.671543 64.906374 
L 701.699657 65.630626 
L 704.727771 66.770512 
L 707.755886 68.279851 
L 710.784 70.113793 
L 713.812114 72.253245 
L 716.840229 74.76659 
L 719.868343 77.738198 
L 722.896457 81.244447 
L 725.924571 85.35239 
L 728.952686 90.101102 
L 731.9808 95.443513 
L 735.008914 101.313461 
L 738.037029 107.644781 
L 741.065143 114.376194 
L 744.093257 121.453968 
L 747.121371 128.85901 
L 753.1776 144.59952 
L 759.233829 161.478363 
L 777.402514 214.293107 
L 783.458743 232.589325 
L 786.486857 242.32374 
L 792.543086 263.062298 
L 804.655543 305.591423 
L 810.711771 325.801335 
L 816.768 345.012038 
L 822.824229 363.128236 
L 828.880457 380.025373 
L 834.936686 395.64257 
L 840.992914 410.338266 
L 853.105371 438.982848 
L 859.1616 452.797008 
L 865.217829 465.76569 
L 868.245943 471.872807 
L 871.274057 477.721529 
L 874.302171 483.310479 
L 877.330286 488.640014 
L 880.3584 493.713596 
L 883.386514 498.541393 
L 886.414629 503.134376 
L 889.442743 507.503022 
L 892.470857 511.657279 
L 895.498971 515.606383 
L 898.527086 519.358683 
L 901.5552 522.922037 
L 904.583314 526.304085 
L 907.611429 529.512285 
L 910.639543 532.553743 
L 916.695771 538.163902 
L 922.752 543.187856 
L 928.808229 547.677001 
L 934.864457 551.681869 
L 940.920686 555.248772 
L 946.976914 558.415448 
L 953.033143 561.214386 
L 959.089371 563.682185 
L 965.1456 565.866761 
L 971.201829 567.807503 
L 977.258057 569.509832 
L 983.314286 570.96529 
L 989.370514 572.189368 
L 995.426743 573.231247 
L 1004.511086 574.540283 
L 1013.595429 575.601066 
L 1022.679771 576.456154 
L 1034.792229 577.357384 
L 1046.904686 578.040022 
L 1062.045257 578.643636 
L 1080.213943 579.115359 
L 1104.438857 579.488639 
L 1134.72 579.731174 
L 1134.72 579.731174 
" clip-path="url(#p4d88cab9a8)" style="fill: none; stroke-dasharray: 19.2,4.8; stroke-dashoffset: 0; stroke: #e31a1c; stroke-opacity: 0.82; stroke-width: 1.6"/>
   </g>
   <g id="line2d_83">
    <path d="M 74.88 579.749939 
L 86.992457 579.499902 
L 96.0768 579.159715 
L 105.161143 578.625585 
L 114.245486 577.841537 
L 120.301714 577.139345 
L 126.357943 576.256256 
L 132.414171 575.188452 
L 141.498514 573.313708 
L 147.554743 571.900878 
L 153.610971 570.318068 
L 162.695314 567.629839 
L 177.835886 562.814245 
L 183.892114 560.675235 
L 189.948343 558.308669 
L 199.032686 554.419754 
L 208.117029 550.245214 
L 235.370057 537.355375 
L 241.426286 534.511058 
L 247.482514 531.365358 
L 259.594971 524.845486 
L 268.679314 520.110118 
L 271.707429 518.366057 
L 274.735543 516.45371 
L 277.763657 514.364629 
L 280.791771 512.10175 
L 283.819886 509.668988 
L 286.848 507.071651 
L 292.904229 501.433852 
L 298.960457 495.384771 
L 326.213486 467.476027 
L 332.269714 460.8093 
L 338.325943 453.62798 
L 344.382171 445.863949 
L 350.4384 437.489589 
L 359.522743 424.179631 
L 374.663314 401.876122 
L 377.691429 396.834688 
L 380.719543 391.327817 
L 383.747657 385.40415 
L 389.803886 372.724049 
L 407.972571 333.639565 
L 414.0288 319.534659 
L 420.085029 304.654489 
L 429.169371 281.498375 
L 453.394286 218.642707 
L 465.506743 186.16889 
L 468.534857 178.663109 
L 471.562971 171.69619 
L 474.591086 165.250253 
L 477.6192 159.260993 
L 480.647314 153.656325 
L 483.675429 148.357466 
L 489.731657 138.438143 
L 495.787886 129.309078 
L 501.844114 120.846763 
L 510.928457 108.512506 
L 513.956571 104.173685 
L 526.069029 85.944255 
L 529.097143 81.941797 
L 532.125257 78.480313 
L 535.153371 75.599428 
L 538.181486 73.308982 
L 541.2096 71.616189 
L 544.237714 70.525532 
L 547.265829 70.001562 
L 550.293943 69.857649 
L 556.350171 69.812202 
L 559.378286 69.463421 
L 562.4064 68.673729 
L 571.490743 65.436694 
L 574.518857 64.811887 
L 577.546971 64.726095 
L 580.575086 65.099146 
L 583.6032 65.789958 
L 598.743771 70.16289 
L 601.771886 71.226238 
L 604.8 72.522691 
L 607.828114 74.113513 
L 610.856229 75.996232 
L 613.884343 78.152812 
L 616.912457 80.565891 
L 619.940571 83.218618 
L 622.968686 86.111097 
L 625.9968 89.307272 
L 629.024914 92.883762 
L 632.053029 96.912859 
L 635.081143 101.461496 
L 638.109257 106.538998 
L 647.1936 122.798218 
L 650.221714 127.798379 
L 653.249829 132.303837 
L 659.306057 140.428861 
L 662.334171 144.432349 
L 665.362286 148.641891 
L 668.3904 153.198308 
L 671.418514 158.09789 
L 674.446629 163.300395 
L 680.502857 174.450785 
L 686.559086 186.350984 
L 692.615314 198.828793 
L 698.671543 211.759518 
L 710.784 238.390513 
L 722.896457 265.415736 
L 731.9808 286.412539 
L 750.149486 328.940111 
L 762.261943 356.614771 
L 768.318171 369.948689 
L 774.3744 382.671351 
L 801.627429 438.169633 
L 807.683657 449.684571 
L 813.739886 460.475513 
L 819.796114 470.527155 
L 825.852343 479.835223 
L 831.908571 488.403888 
L 837.9648 496.2905 
L 844.021029 503.705337 
L 850.077257 510.831627 
L 856.133486 517.670555 
L 862.189714 524.105723 
L 868.245943 530.058925 
L 874.302171 535.501491 
L 880.3584 540.430546 
L 886.414629 544.872172 
L 892.470857 548.869169 
L 898.527086 552.460468 
L 904.583314 555.678732 
L 910.639543 558.554929 
L 916.695771 561.121525 
L 922.752 563.410523 
L 928.808229 565.450196 
L 934.864457 567.265312 
L 940.920686 568.878022 
L 946.976914 570.306686 
L 953.033143 571.567189 
L 962.117486 573.182192 
L 971.201829 574.528152 
L 980.286171 575.630267 
L 989.370514 576.490024 
L 1001.482971 577.359142 
L 1013.595429 578.014296 
L 1028.736 578.610335 
L 1046.904686 579.102608 
L 1068.101486 579.452525 
L 1098.382629 579.716157 
L 1134.72 579.857208 
L 1134.72 579.857208 
" clip-path="url(#p4d88cab9a8)" style="fill: none; stroke-dasharray: 19.2,4.8; stroke-dashoffset: 0; stroke: #16a33a; stroke-opacity: 0.82; stroke-width: 1.6"/>
   </g>
   <g id="line2d_84">
    <path d="M 74.88 576.794537 
L 77.908114 576.124535 
L 80.936229 575.313508 
L 83.964343 574.334166 
L 86.992457 573.154964 
L 90.020571 571.739799 
L 93.048686 570.047844 
L 96.0768 568.033535 
L 99.104914 565.646814 
L 102.133029 562.833698 
L 105.161143 559.537234 
L 108.189257 555.698415 
L 111.217371 551.255732 
L 114.245486 546.147577 
L 117.2736 540.314804 
L 120.301714 533.703743 
L 123.329829 526.269459 
L 126.357943 517.980411 
L 129.386057 508.822533 
L 132.414171 498.803818 
L 135.442286 487.958952 
L 138.4704 476.339782 
L 141.498514 463.964647 
L 144.526629 450.837026 
L 147.554743 436.953536 
L 150.582857 422.300687 
L 153.610971 406.883927 
L 159.6672 374.408857 
L 165.723429 341.522824 
L 171.779657 310.4413 
L 183.892114 250.481579 
L 192.976457 204.196158 
L 196.004571 189.917931 
L 199.032686 176.824515 
L 202.0608 164.779571 
L 208.117029 142.561955 
L 214.173257 120.412508 
L 217.201371 109.23865 
L 220.229486 98.657678 
L 223.2576 89.257918 
L 226.285714 81.660818 
L 229.313829 76.311643 
L 232.341943 72.864744 
L 235.370057 70.743797 
L 247.482514 65.129864 
L 250.510629 64.645714 
L 253.538743 65.745554 
L 256.566857 69.10268 
L 259.594971 75.11771 
L 262.623086 83.234966 
L 265.6512 92.682253 
L 271.707429 112.696111 
L 274.735543 122.088671 
L 277.763657 130.929631 
L 283.819886 147.49971 
L 292.904229 171.599919 
L 295.932343 180.289417 
L 298.960457 189.732624 
L 301.988571 200.142931 
L 305.016686 211.641316 
L 308.0448 224.097919 
L 311.072914 237.325274 
L 317.129143 265.376215 
L 332.269714 337.296388 
L 338.325943 364.042668 
L 341.354057 376.561273 
L 344.382171 388.410036 
L 347.410286 399.540543 
L 350.4384 409.951907 
L 353.466514 419.763999 
L 356.494629 429.103007 
L 362.550857 446.749858 
L 365.578971 455.169701 
L 368.607086 463.236573 
L 371.6352 470.852276 
L 374.663314 477.946311 
L 377.691429 484.471439 
L 380.719543 490.421805 
L 383.747657 495.884996 
L 386.775771 500.954794 
L 389.803886 505.708706 
L 392.832 510.210318 
L 398.888229 518.627688 
L 404.944457 526.400206 
L 411.000686 533.623524 
L 417.056914 540.323374 
L 423.113143 546.483721 
L 426.141257 549.347096 
L 429.169371 552.025452 
L 432.197486 554.488448 
L 435.2256 556.719197 
L 438.253714 558.71119 
L 441.281829 560.473348 
L 444.309943 562.04589 
L 450.366171 564.770999 
L 456.4224 567.108991 
L 462.478629 569.140407 
L 468.534857 570.874886 
L 474.591086 572.337766 
L 480.647314 573.575913 
L 486.703543 574.629603 
L 492.759771 575.521167 
L 501.844114 576.586432 
L 510.928457 577.393032 
L 523.040914 578.193553 
L 535.153371 578.753704 
L 550.293943 579.213897 
L 568.462629 579.543778 
L 595.715657 579.786419 
L 641.137371 579.918735 
L 765.290057 579.96 
L 1134.72 579.96 
L 1134.72 579.96 
" clip-path="url(#p4d88cab9a8)" style="fill: none; stroke-dasharray: 19.2,4.8; stroke-dashoffset: 0; stroke: #1647d8; stroke-opacity: 0.82; stroke-width: 1.6"/>
   </g>
   <g id="text_17">
    <text style="font-size: 18px; font-family: 'DejaVu Sans'; text-anchor: middle" x="604.8" y="28.88" transform="rotate(-0 604.8 28.88)">CMF Comparison</text>
   </g>
   <g id="legend_1">
    <g id="patch_7">
     <path d="M 1076.02 106.887812 
L 1127.72 106.887812 
Q 1129.72 106.887812 1129.72 104.887812 
L 1129.72 45.88 
Q 1129.72 43.88 1127.72 43.88 
L 1076.02 43.88 
Q 1074.02 43.88 1074.02 45.88 
L 1074.02 104.887812 
Q 1074.02 106.887812 1076.02 106.887812 
z
" style="fill: #ffffff; opacity: 0.94; stroke: #aaaaaa; stroke-linejoin: miter"/>
    </g>
    <g id="text_18">
     <text style="font-size: 10px; font-family: 'DejaVu Sans'; text-anchor: start" x="1081.342656" y="55.478438" transform="rotate(-0 1081.342656 55.478438)">Channel</text>
    </g>
    <g id="line2d_85">
     <path d="M 1078.02 66.980781 
L 1088.02 66.980781 
L 1098.02 66.980781 
" style="fill: none; stroke: #e31a1c; stroke-width: 2.3; stroke-linecap: square"/>
    </g>
    <g id="text_19">
     <!-- $\bar{x}(\lambda)$ -->
     <g transform="translate(1106.02 70.480781)">
      <text>
       <tspan x="5.917969" y="-0.40625" style="font-size: 10px; font-family: 'DejaVu Sans'">(</tspan>
       <tspan x="6.416992" y="-0.390625" style="font-size: 10px; font-family: 'DejaVu Sans'">̄</tspan>
       <tspan x="15.737305" y="-0.40625" style="font-size: 10px; font-family: 'DejaVu Sans'">)</tspan>
       <tspan x="0" y="-0.40625" style="font-style: oblique; font-size: 10px; font-family: 'DejaVu Sans'">x</tspan>
       <tspan x="9.819336" y="-0.40625" style="font-style: oblique; font-size: 10px; font-family: 'DejaVu Sans'">λ</tspan>
      </text>
     </g>
    </g>
    <g id="line2d_86">
     <path d="M 1078.02 81.983125 
L 1088.02 81.983125 
L 1098.02 81.983125 
" style="fill: none; stroke: #16a33a; stroke-width: 2.3; stroke-linecap: square"/>
    </g>
    <g id="text_20">
     <!-- $\bar{y}(\lambda)$ -->
     <g transform="translate(1106.02 85.483125)">
      <text>
       <tspan x="5.917969" y="-0.40625" style="font-size: 10px; font-family: 'DejaVu Sans'">(</tspan>
       <tspan x="6.416992" y="-0.390625" style="font-size: 10px; font-family: 'DejaVu Sans'">̄</tspan>
       <tspan x="15.737305" y="-0.40625" style="font-size: 10px; font-family: 'DejaVu Sans'">)</tspan>
       <tspan x="0" y="-0.40625" style="font-style: oblique; font-size: 10px; font-family: 'DejaVu Sans'">y</tspan>
       <tspan x="9.819336" y="-0.40625" style="font-style: oblique; font-size: 10px; font-family: 'DejaVu Sans'">λ</tspan>
      </text>
     </g>
    </g>
    <g id="line2d_87">
     <path d="M 1078.02 96.985469 
L 1088.02 96.985469 
L 1098.02 96.985469 
" style="fill: none; stroke: #1647d8; stroke-width: 2.3; stroke-linecap: square"/>
    </g>
    <g id="text_21">
     <!-- $\bar{z}(\lambda)$ -->
     <g transform="translate(1106.02 100.485469)">
      <text>
       <tspan x="5.249023" y="-0.40625" style="font-size: 10px; font-family: 'DejaVu Sans'">(</tspan>
       <tspan x="6.249756" y="-0.390625" style="font-size: 10px; font-family: 'DejaVu Sans'">̄</tspan>
       <tspan x="15.068359" y="-0.40625" style="font-size: 10px; font-family: 'DejaVu Sans'">)</tspan>
       <tspan x="0" y="-0.40625" style="font-style: oblique; font-size: 10px; font-family: 'DejaVu Sans'">z</tspan>
       <tspan x="9.150391" y="-0.40625" style="font-style: oblique; font-size: 10px; font-family: 'DejaVu Sans'">λ</tspan>
      </text>
     </g>
    </g>
   </g>
   <g id="legend_2">
    <g id="patch_8">
     <path d="M 1014.501953 240.700492 
L 1128.07 240.700492 
Q 1129.97 240.700492 1129.97 238.800492 
L 1129.97 153.746 
Q 1129.97 151.846 1128.07 151.846 
L 1014.501953 151.846 
Q 1012.601953 151.846 1012.601953 153.746 
L 1012.601953 238.800492 
Q 1012.601953 240.700492 1014.501953 240.700492 
z
" style="fill: #ffffff; opacity: 0.94; stroke: #aaaaaa; stroke-linejoin: miter"/>
    </g>
    <g id="text_22">
     <text style="font-size: 10px; font-family: 'DejaVu Sans'; text-anchor: start" x="1048.347695" y="163.244438" transform="rotate(-0 1048.347695 163.244438)">Observer</text>
    </g>
    <g id="line2d_88">
     <path d="M 1016.401953 174.290297 
L 1025.901953 174.290297 
L 1035.401953 174.290297 
" style="fill: none; stroke-dasharray: 3,3; stroke-dashoffset: 0; stroke: #333333; stroke-width: 1.5"/>
    </g>
    <g id="text_23">
     <text style="font-size: 9.5px; font-family: 'DejaVu Sans'; text-anchor: start" x="1043.001953" y="177.615297" transform="rotate(-0 1043.001953 177.615297)">CIE 1931 2°</text>
    </g>
    <g id="line2d_89">
     <path d="M 1016.401953 188.541039 
L 1025.901953 188.541039 
L 1035.401953 188.541039 
" style="fill: none; stroke-dasharray: 1.5,2.25; stroke-dashoffset: 0; stroke: #333333; stroke-width: 1.5"/>
    </g>
    <g id="text_24">
     <text style="font-size: 9.5px; font-family: 'DejaVu Sans'; text-anchor: start" x="1043.001953" y="191.866039" transform="rotate(-0 1043.001953 191.866039)">Judd–Vos 1978 2°</text>
    </g>
    <g id="line2d_90">
     <path d="M 1016.401953 202.791781 
L 1025.901953 202.791781 
L 1035.401953 202.791781 
" style="fill: none; stroke-dasharray: 11.2,3.2,1.92,3.2; stroke-dashoffset: 0; stroke: #333333; stroke-width: 1.6"/>
    </g>
    <g id="text_25">
     <text style="font-size: 9.5px; font-family: 'DejaVu Sans'; text-anchor: start" x="1043.001953" y="206.116781" transform="rotate(-0 1043.001953 206.116781)">CIE 2015 2°</text>
    </g>
    <g id="line2d_91">
     <path d="M 1016.401953 217.042523 
L 1025.901953 217.042523 
L 1035.401953 217.042523 
" style="fill: none; stroke-dasharray: 19.2,4.8; stroke-dashoffset: 0; stroke: #333333; stroke-width: 1.6"/>
    </g>
    <g id="text_26">
     <text style="font-size: 9.5px; font-family: 'DejaVu Sans'; text-anchor: start" x="1043.001953" y="220.367523" transform="rotate(-0 1043.001953 220.367523)">CIE 2015 10°</text>
    </g>
    <g id="line2d_92">
     <path d="M 1016.401953 231.293266 
L 1025.901953 231.293266 
L 1035.401953 231.293266 
" style="fill: none; stroke: #333333; stroke-width: 2.55; stroke-linecap: square"/>
    </g>
    <g id="text_27">
     <text style="font-size: 9.5px; font-family: 'DejaVu Sans'; text-anchor: start" x="1043.001953" y="234.618266" transform="rotate(-0 1043.001953 234.618266)">Potera</text>
    </g>
   </g>
   <g id="line2d_93">
    <path d="M 74.88 577.82719 
L 80.936229 577.012359 
L 86.992457 575.869568 
L 90.020571 575.140905 
L 93.048686 574.286097 
L 96.0768 573.287354 
L 99.104914 572.125592 
L 102.133029 570.780656 
L 105.161143 569.231655 
L 108.189257 567.457303 
L 111.217371 565.436103 
L 114.245486 563.14705 
L 117.2736 560.570398 
L 120.301714 557.688474 
L 123.329829 554.486784 
L 126.357943 550.955861 
L 129.386057 547.092058 
L 132.414171 542.898463 
L 135.442286 538.385844 
L 138.4704 533.571816 
L 141.498514 528.475273 
L 144.526629 523.118577 
L 150.582857 511.733487 
L 156.639086 499.683629 
L 168.751543 475.303935 
L 174.807771 463.775954 
L 180.864 452.82908 
L 186.920229 442.426013 
L 189.948343 437.490519 
L 192.976457 432.784507 
L 196.004571 428.351179 
L 199.032686 424.227534 
L 202.0608 420.412399 
L 205.088914 416.891881 
L 208.117029 413.64902 
L 211.145143 410.663896 
L 214.173257 407.926941 
L 217.201371 405.481821 
L 220.229486 403.388566 
L 223.2576 401.709493 
L 226.285714 400.507511 
L 229.313829 399.827799 
L 232.341943 399.646601 
L 235.370057 399.91747 
L 238.398171 400.58834 
L 241.426286 401.602699 
L 244.4544 402.915498 
L 247.482514 404.538813 
L 250.510629 406.496542 
L 253.538743 408.809549 
L 256.566857 411.495471 
L 259.594971 414.554025 
L 262.623086 417.926495 
L 265.6512 421.543324 
L 271.707429 429.261859 
L 277.763657 437.330232 
L 286.848 449.862361 
L 292.904229 458.476998 
L 298.960457 467.441536 
L 305.016686 476.892326 
L 311.072914 486.799686 
L 332.269714 522.154873 
L 338.325943 531.53984 
L 344.382171 540.243491 
L 347.410286 544.295158 
L 350.4384 548.131719 
L 353.466514 551.751275 
L 356.494629 555.153584 
L 359.522743 558.338357 
L 362.550857 561.305243 
L 365.578971 564.052883 
L 368.607086 566.577363 
L 371.6352 568.876645 
L 374.663314 570.951152 
L 377.691429 572.80316 
L 380.719543 574.436335 
L 383.747657 575.854799 
L 386.775771 577.061355 
L 389.803886 578.057314 
L 392.832 578.842656 
L 395.860114 579.417728 
L 398.888229 579.788022 
L 401.916343 579.96 
L 404.944457 579.939714 
L 407.972571 579.732906 
L 411.000686 579.343382 
L 414.0288 578.767772 
L 417.056914 578.000663 
L 420.085029 577.036421 
L 423.113143 575.869286 
L 426.141257 574.493084 
L 429.169371 572.900574 
L 432.197486 571.085568 
L 435.2256 569.043349 
L 438.253714 566.77051 
L 441.281829 564.267459 
L 444.309943 561.546138 
L 447.338057 558.621791 
L 450.366171 555.510329 
L 456.4224 548.789585 
L 462.478629 541.437778 
L 468.534857 533.430602 
L 474.591086 524.759954 
L 480.647314 515.483792 
L 486.703543 505.667399 
L 492.759771 495.373849 
L 498.816 484.674336 
L 504.872229 473.620883 
L 510.928457 462.16822 
L 516.984686 450.226537 
L 523.040914 437.786648 
L 532.125257 418.432903 
L 541.2096 398.522452 
L 550.293943 378.170036 
L 559.378286 357.249236 
L 565.434514 342.831144 
L 574.518857 320.447966 
L 586.631314 289.763224 
L 601.771886 250.757256 
L 622.968686 195.795121 
L 629.024914 180.756873 
L 635.081143 166.337069 
L 641.137371 152.663082 
L 647.1936 139.581035 
L 653.249829 126.865036 
L 659.306057 114.694011 
L 662.334171 109.000054 
L 665.362286 103.672186 
L 668.3904 98.774503 
L 671.418514 94.312372 
L 674.446629 90.276762 
L 677.474743 86.658962 
L 680.502857 83.450732 
L 683.530971 80.649286 
L 686.559086 78.271662 
L 689.5872 76.337943 
L 692.615314 74.866239 
L 695.643429 73.872055 
L 698.671543 73.366046 
L 701.699657 73.345863 
L 704.727771 73.805427 
L 707.755886 74.73733 
L 710.784 76.132838 
L 713.812114 77.987219 
L 716.840229 80.31353 
L 719.868343 83.126758 
L 722.896457 86.438405 
L 725.924571 90.256692 
L 728.952686 94.581998 
L 731.9808 99.394581 
L 735.008914 104.669124 
L 738.037029 110.3791 
L 741.065143 116.497606 
L 744.093257 122.998754 
L 747.121371 129.862948 
L 750.149486 137.071456 
L 753.1776 144.604938 
L 759.233829 160.56308 
L 765.290057 177.506016 
L 771.346286 195.152395 
L 777.402514 213.307334 
L 783.458743 232.028546 
L 789.514971 251.373408 
L 810.711771 320.166191 
L 816.768 339.067204 
L 822.824229 357.373064 
L 828.880457 374.967228 
L 834.936686 391.757018 
L 840.992914 407.754157 
L 847.049143 423.034599 
L 853.105371 437.61091 
L 859.1616 451.368787 
L 865.217829 464.207617 
L 871.274057 476.087679 
L 874.302171 481.668812 
L 877.330286 487.013465 
L 880.3584 492.125287 
L 883.386514 497.009921 
L 886.414629 501.673682 
L 889.442743 506.123161 
L 892.470857 510.365127 
L 898.527086 518.269381 
L 901.5552 521.943038 
L 904.583314 525.430086 
L 907.611429 528.73717 
L 910.639543 531.870937 
L 913.667657 534.838 
L 916.695771 537.644939 
L 922.752 542.804524 
L 928.808229 547.401153 
L 934.864457 551.485015 
L 940.920686 555.1038 
L 946.976914 558.3014 
L 953.033143 561.118417 
L 959.089371 563.594135 
L 965.1456 565.768069 
L 971.201829 567.675485 
L 977.258057 569.341721 
L 983.314286 570.786759 
L 989.370514 572.033842 
L 995.426743 573.111784 
L 1004.511086 574.465568 
L 1013.595429 575.556875 
L 1022.679771 576.433957 
L 1034.792229 577.342873 
L 1046.904686 578.02076 
L 1062.045257 578.625329 
L 1080.213943 579.104333 
L 1104.438857 579.483872 
L 1134.72 579.728531 
L 1134.72 579.728531 
" clip-path="url(#p4d88cab9a8)" style="fill: none; stroke: #e31a1c; stroke-width: 2.55; stroke-linecap: square"/>
   </g>
   <g id="line2d_94">
    <path d="M 74.88 579.630095 
L 90.020571 579.305369 
L 102.133029 578.820407 
L 111.217371 578.261913 
L 120.301714 577.484764 
L 129.386057 576.439887 
L 138.4704 575.111142 
L 147.554743 573.51261 
L 156.639086 571.648725 
L 165.723429 569.549835 
L 174.807771 567.263027 
L 183.892114 564.767189 
L 192.976457 562.008585 
L 202.0608 558.959304 
L 211.145143 555.618899 
L 220.229486 552.021223 
L 232.341943 546.916263 
L 241.426286 542.85961 
L 250.510629 538.511298 
L 259.594971 533.844909 
L 265.6512 530.516249 
L 271.707429 526.917274 
L 277.763657 522.953065 
L 283.819886 518.5669 
L 289.876114 513.721523 
L 295.932343 508.415367 
L 301.988571 502.697001 
L 308.0448 496.640866 
L 314.101029 490.297844 
L 323.185371 480.339986 
L 332.269714 469.900733 
L 338.325943 462.648474 
L 344.382171 455.134915 
L 350.4384 447.321669 
L 356.494629 439.172758 
L 362.550857 430.668777 
L 368.607086 421.76485 
L 374.663314 412.278751 
L 377.691429 407.243206 
L 380.719543 401.975817 
L 386.775771 390.750692 
L 392.832 378.676157 
L 398.888229 365.852401 
L 404.944457 352.273566 
L 411.000686 337.915087 
L 417.056914 322.823383 
L 423.113143 307.131502 
L 432.197486 282.840515 
L 450.366171 233.781834 
L 459.450514 209.996116 
L 465.506743 194.8241 
L 471.562971 180.530155 
L 477.6192 167.21866 
L 483.675429 154.782886 
L 489.731657 143.114757 
L 495.787886 132.237273 
L 501.844114 122.209334 
L 507.900343 112.997631 
L 513.956571 104.456562 
L 520.0128 96.474199 
L 523.040914 92.736412 
L 526.069029 89.205898 
L 529.097143 85.91278 
L 532.125257 82.883177 
L 535.153371 80.122155 
L 538.181486 77.630313 
L 541.2096 75.409468 
L 544.237714 73.462645 
L 547.265829 71.786898 
L 550.293943 70.352206 
L 553.322057 69.122806 
L 556.350171 68.065621 
L 559.378286 67.153393 
L 565.434514 65.680224 
L 568.462629 65.14678 
L 571.490743 64.805218 
L 574.518857 64.698327 
L 577.546971 64.856862 
L 580.575086 65.264378 
L 583.6032 65.89239 
L 586.631314 66.7123 
L 589.659429 67.695558 
L 592.687543 68.821114 
L 595.715657 70.097411 
L 598.743771 71.539827 
L 601.771886 73.163246 
L 604.8 74.982024 
L 607.828114 77.006732 
L 610.856229 79.234719 
L 613.884343 81.660094 
L 616.912457 84.277017 
L 619.940571 87.07978 
L 622.968686 90.066104 
L 625.9968 93.246748 
L 629.024914 96.635193 
L 632.053029 100.244186 
L 635.081143 104.085597 
L 638.109257 108.159887 
L 644.165486 116.833016 
L 653.249829 130.451168 
L 659.306057 139.752424 
L 665.362286 149.517219 
L 671.418514 159.963292 
L 677.474743 171.069556 
L 683.530971 182.752662 
L 689.5872 194.941896 
L 695.643429 207.581553 
L 704.727771 227.250689 
L 713.812114 247.541464 
L 725.924571 275.267579 
L 756.205714 345.479106 
L 765.290057 365.836179 
L 771.346286 379.007443 
L 777.402514 391.796322 
L 786.486857 410.387434 
L 795.5712 428.340219 
L 801.627429 439.810961 
L 807.683657 450.784095 
L 813.739886 461.228262 
L 819.796114 471.127112 
L 825.852343 480.468646 
L 831.908571 489.24478 
L 837.9648 497.461208 
L 844.021029 505.159642 
L 850.077257 512.379584 
L 856.133486 519.124741 
L 862.189714 525.376991 
L 868.245943 531.130194 
L 874.302171 536.392577 
L 880.3584 541.181212 
L 886.414629 545.522115 
L 892.470857 549.446754 
L 898.527086 552.993301 
L 904.583314 556.187082 
L 910.639543 559.04404 
L 916.695771 561.592748 
L 922.752 563.86099 
L 928.808229 565.874854 
L 934.864457 567.65864 
L 940.920686 569.234969 
L 946.976914 570.624455 
L 953.033143 571.845972 
L 962.117486 573.402697 
L 971.201829 574.680071 
L 980.286171 575.720736 
L 989.370514 576.556755 
L 1001.482971 577.421171 
L 1013.595429 578.069515 
L 1028.736 578.654742 
L 1046.904686 579.126362 
L 1071.1296 579.500011 
L 1104.438857 579.754434 
L 1134.72 579.85978 
L 1134.72 579.85978 
" clip-path="url(#p4d88cab9a8)" style="fill: none; stroke: #16a33a; stroke-width: 2.55; stroke-linecap: square"/>
   </g>
   <g id="line2d_95">
    <path d="M 74.88 574.965931 
L 77.908114 574.080598 
L 80.936229 573.027181 
L 83.964343 571.776573 
L 86.992457 570.295862 
L 90.020571 568.548206 
L 93.048686 566.492808 
L 96.0768 564.085036 
L 99.104914 561.276704 
L 102.133029 558.016579 
L 105.161143 554.251126 
L 108.189257 549.925376 
L 111.217371 544.983545 
L 114.245486 539.370689 
L 117.2736 533.034604 
L 120.301714 525.92788 
L 123.329829 518.010344 
L 126.357943 509.252133 
L 129.386057 499.636143 
L 132.414171 489.160521 
L 135.442286 477.840983 
L 138.4704 465.709812 
L 141.498514 452.805921 
L 144.526629 439.178788 
L 147.554743 424.889407 
L 153.610971 394.618936 
L 159.6672 362.798941 
L 168.751543 314.614422 
L 174.807771 283.516158 
L 180.864 253.458576 
L 186.920229 224.373438 
L 192.976457 196.81641 
L 196.004571 183.867547 
L 199.032686 171.601957 
L 202.0608 160.022747 
L 205.088914 149.103627 
L 208.117029 138.812791 
L 211.145143 129.113209 
L 214.173257 119.9951 
L 217.201371 111.580502 
L 220.229486 104.032167 
L 223.2576 97.518833 
L 226.285714 92.21072 
L 229.313829 88.232239 
L 232.341943 85.530116 
L 235.370057 83.99182 
L 238.398171 83.489222 
L 241.426286 83.881337 
L 244.4544 85.057186 
L 247.482514 87.059287 
L 250.510629 89.962418 
L 253.538743 93.833384 
L 256.566857 98.73039 
L 259.594971 104.660639 
L 262.623086 111.461416 
L 265.6512 118.935123 
L 268.679314 126.896868 
L 274.735543 143.646014 
L 280.791771 161.024377 
L 286.848 178.944094 
L 292.904229 197.48822 
L 298.960457 217.109003 
L 301.988571 227.473341 
L 308.0448 249.438587 
L 314.101029 272.800634 
L 320.157257 297.140117 
L 335.297829 358.636109 
L 341.354057 382.006149 
L 347.410286 403.948959 
L 350.4384 414.287167 
L 353.466514 424.193164 
L 356.494629 433.673502 
L 359.522743 442.73563 
L 362.550857 451.388013 
L 365.578971 459.634054 
L 368.607086 467.456884 
L 371.6352 474.842243 
L 374.663314 481.784013 
L 377.691429 488.282799 
L 380.719543 494.348947 
L 383.747657 500.012402 
L 386.775771 505.305303 
L 389.803886 510.257223 
L 392.832 514.895351 
L 395.860114 519.244613 
L 398.888229 523.32771 
L 401.916343 527.165381 
L 404.944457 530.776502 
L 407.972571 534.178139 
L 411.000686 537.385043 
L 414.0288 540.408337 
L 417.056914 543.257685 
L 420.085029 545.941976 
L 423.113143 548.469366 
L 426.141257 550.845472 
L 429.169371 553.069016 
L 432.197486 555.139416 
L 435.2256 557.05849 
L 438.253714 558.829918 
L 444.309943 561.965312 
L 450.366171 564.650986 
L 456.4224 566.976133 
L 462.478629 568.989949 
L 468.534857 570.719759 
L 474.591086 572.195164 
L 480.647314 573.449859 
L 486.703543 574.514721 
L 495.787886 575.810404 
L 504.872229 576.807433 
L 513.956571 577.572881 
L 526.069029 578.323193 
L 538.181486 578.842649 
L 553.322057 579.269519 
L 574.518857 579.610627 
L 604.8 579.82795 
L 656.277943 579.933706 
L 834.936686 579.959824 
L 1134.72 579.96 
L 1134.72 579.96 
" clip-path="url(#p4d88cab9a8)" style="fill: none; stroke: #1647d8; stroke-width: 2.55; stroke-linecap: square"/>
   </g>
   <g id="patch_9">
    <path d="M 74.88 579.96 
L 1134.72 579.96 
L 1134.72 38.88 
L 74.88 38.88 
L 74.88 579.96 
z
" style="fill: none; stroke: #000000; stroke-width: 1.25; stroke-linejoin: miter"/>
   </g>
  </g>
 </g>
 <defs>
  <clipPath id="p4d88cab9a8">
   <rect x="74.88" y="38.88" width="1059.84" height="541.08"/>
  </clipPath>
 </defs>
</svg>
