<?xml version="1.0" encoding="utf-8" standalone="no"?>
<!DOCTYPE svg PUBLIC "-//W3C//DTD SVG 1.1//EN"
  "http://www.w3.org/Graphics/SVG/1.1/DTD/svg11.dtd">
<svg xmlns:xlink="http://www.w3.org/1999/xlink" width="676.8pt" height="446.4pt" viewBox="0 0 676.8 446.4" xmlns="http://www.w3.org/2000/svg" version="1.1">
 <metadata>
  <rdf:RDF xmlns:dc="http://purl.org/dc/elements/1.1/" xmlns:cc="http://creativecommons.org/ns#" xmlns:rdf="http://www.w3.org/1999/02/22-rdf-syntax-ns#">
   <cc:Work>
    <dc:type rdf:resource="http://purl.org/dc/dcmitype/StillImage"/>
    <dc:date>2026-07-20T06:41:57.755719</dc:date>
    <dc:format>image/svg+xml</dc:format>
    <dc:creator>
     <cc:Agent>
      <dc:title>Matplotlib v3.9.4, https://matplotlib.org/</dc:title>
     </cc:Agent>
    </dc:creator>
   </cc:Work>
  </rdf:RDF>
 </metadata>
 <defs>
  <style type="text/css">*{stroke-linejoin: round; stroke-linecap: butt}</style>
 </defs>
 <g id="figure_1">
  <g id="patch_1">
   <path d="M 0 446.4 
L 676.8 446.4 
L 676.8 0 
L 0 0 
z
" style="fill: #ffffff"/>
  </g>
  <g id="axes_1">
   <g id="patch_2">
    <path d="M 74.448 348.192 
L 642.96 348.192 
L 642.96 93.744 
L 74.448 93.744 
z
" style="fill: #ffffff"/>
   </g>
   <g id="patch_3">
    <path d="M 169.2 348.192 
L 358.704 348.192 
L 358.704 93.744 
L 169.2 93.744 
z
" clip-path="url(#pa76880ed39)" style="fill: #e7f0ea; opacity: 0.58; stroke: #e7f0ea; stroke-linejoin: miter"/>
   </g>
   <g id="matplotlib.axis_1">
    <g id="xtick_1">
     <g id="line2d_1">
      <path d="M 74.448 348.192 
L 74.448 93.744 
" clip-path="url(#pa76880ed39)" style="fill: none; stroke: #dfe5e8; stroke-width: 0.65; stroke-linecap: square"/>
     </g>
     <g id="line2d_2">
      <defs>
       <path id="mdaa5da9f96" d="M 0 0 
L 0 3.5 
" style="stroke: #000000; stroke-width: 0.8"/>
      </defs>
      <g>
       <use xlink:href="#mdaa5da9f96" x="74.448" y="348.192" style="stroke: #000000; stroke-width: 0.8"/>
      </g>
     </g>
     <g id="text_1">
      <text style="font: 10px 'DejaVu Sans', 'Bitstream Vera Sans', 'Computer Modern Sans Serif', 'Lucida Grande', 'Verdana', 'Geneva', 'Lucid', 'Arial', 'Helvetica', 'Avant Garde', sans-serif; text-anchor: middle" x="74.448" y="362.790438" transform="rotate(-0 74.448 362.790438)">0</text>
     </g>
    </g>
    <g id="xtick_2">
     <g id="line2d_3">
      <path d="M 169.2 348.192 
L 169.2 93.744 
" clip-path="url(#pa76880ed39)" style="fill: none; stroke: #dfe5e8; stroke-width: 0.65; stroke-linecap: square"/>
     </g>
     <g id="line2d_4">
      <g>
       <use xlink:href="#mdaa5da9f96" x="169.2" y="348.192" style="stroke: #000000; stroke-width: 0.8"/>
      </g>
     </g>
     <g id="text_2">
      <text style="font: 10px 'DejaVu Sans', 'Bitstream Vera Sans', 'Computer Modern Sans Serif', 'Lucida Grande', 'Verdana', 'Geneva', 'Lucid', 'Arial', 'Helvetica', 'Avant Garde', sans-serif; text-anchor: middle" x="169.2" y="362.790438" transform="rotate(-0 169.2 362.790438)">1</text>
     </g>
    </g>
    <g id="xtick_3">
     <g id="line2d_5">
      <path d="M 263.952 348.192 
L 263.952 93.744 
" clip-path="url(#pa76880ed39)" style="fill: none; stroke: #dfe5e8; stroke-width: 0.65; stroke-linecap: square"/>
     </g>
     <g id="line2d_6">
      <g>
       <use xlink:href="#mdaa5da9f96" x="263.952" y="348.192" style="stroke: #000000; stroke-width: 0.8"/>
      </g>
     </g>
     <g id="text_3">
      <text style="font: 10px 'DejaVu Sans', 'Bitstream Vera Sans', 'Computer Modern Sans Serif', 'Lucida Grande', 'Verdana', 'Geneva', 'Lucid', 'Arial', 'Helvetica', 'Avant Garde', sans-serif; text-anchor: middle" x="263.952" y="362.790438" transform="rotate(-0 263.952 362.790438)">2</text>
     </g>
    </g>
    <g id="xtick_4">
     <g id="line2d_7">
      <path d="M 358.704 348.192 
L 358.704 93.744 
" clip-path="url(#pa76880ed39)" style="fill: none; stroke: #dfe5e8; stroke-width: 0.65; stroke-linecap: square"/>
     </g>
     <g id="line2d_8">
      <g>
       <use xlink:href="#mdaa5da9f96" x="358.704" y="348.192" style="stroke: #000000; stroke-width: 0.8"/>
      </g>
     </g>
     <g id="text_4">
      <text style="font: 10px 'DejaVu Sans', 'Bitstream Vera Sans', 'Computer Modern Sans Serif', 'Lucida Grande', 'Verdana', 'Geneva', 'Lucid', 'Arial', 'Helvetica', 'Avant Garde', sans-serif; text-anchor: middle" x="358.704" y="362.790438" transform="rotate(-0 358.704 362.790438)">3</text>
     </g>
    </g>
    <g id="xtick_5">
     <g id="line2d_9">
      <path d="M 453.456 348.192 
L 453.456 93.744 
" clip-path="url(#pa76880ed39)" style="fill: none; stroke: #dfe5e8; stroke-width: 0.65; stroke-linecap: square"/>
     </g>
     <g id="line2d_10">
      <g>
       <use xlink:href="#mdaa5da9f96" x="453.456" y="348.192" style="stroke: #000000; stroke-width: 0.8"/>
      </g>
     </g>
     <g id="text_5">
      <text style="font: 10px 'DejaVu Sans', 'Bitstream Vera Sans', 'Computer Modern Sans Serif', 'Lucida Grande', 'Verdana', 'Geneva', 'Lucid', 'Arial', 'Helvetica', 'Avant Garde', sans-serif; text-anchor: middle" x="453.456" y="362.790438" transform="rotate(-0 453.456 362.790438)">4</text>
     </g>
    </g>
    <g id="xtick_6">
     <g id="line2d_11">
      <path d="M 548.208 348.192 
L 548.208 93.744 
" clip-path="url(#pa76880ed39)" style="fill: none; stroke: #dfe5e8; stroke-width: 0.65; stroke-linecap: square"/>
     </g>
     <g id="line2d_12">
      <g>
       <use xlink:href="#mdaa5da9f96" x="548.208" y="348.192" style="stroke: #000000; stroke-width: 0.8"/>
      </g>
     </g>
     <g id="text_6">
      <text style="font: 10px 'DejaVu Sans', 'Bitstream Vera Sans', 'Computer Modern Sans Serif', 'Lucida Grande', 'Verdana', 'Geneva', 'Lucid', 'Arial', 'Helvetica', 'Avant Garde', sans-serif; text-anchor: middle" x="548.208" y="362.790438" transform="rotate(-0 548.208 362.790438)">5</text>
     </g>
    </g>
    <g id="xtick_7">
     <g id="line2d_13">
      <path d="M 642.96 348.192 
L 642.96 93.744 
" clip-path="url(#pa76880ed39)" style="fill: none; stroke: #dfe5e8; stroke-width: 0.65; stroke-linecap: square"/>
     </g>
     <g id="line2d_14">
      <g>
       <use xlink:href="#mdaa5da9f96" x="642.96" y="348.192" style="stroke: #000000; stroke-width: 0.8"/>
      </g>
     </g>
     <g id="text_7">
      <text style="font: 10px 'DejaVu Sans', 'Bitstream Vera Sans', 'Computer Modern Sans Serif', 'Lucida Grande', 'Verdana', 'Geneva', 'Lucid', 'Arial', 'Helvetica', 'Avant Garde', sans-serif; text-anchor: middle" x="642.96" y="362.790438" transform="rotate(-0 642.96 362.790438)">6</text>
     </g>
    </g>
    <g id="text_8">
     <text style="font: 10px 'DejaVu Sans', 'Bitstream Vera Sans', 'Computer Modern Sans Serif', 'Lucida Grande', 'Verdana', 'Geneva', 'Lucid', 'Arial', 'Helvetica', 'Avant Garde', sans-serif; text-anchor: middle" x="358.704" y="376.468563" transform="rotate(-0 358.704 376.468563)">sUCS dE threshold</text>
    </g>
   </g>
   <g id="matplotlib.axis_2">
    <g id="ytick_1">
     <g id="line2d_15">
      <path d="M 74.448 348.192 
L 642.96 348.192 
" clip-path="url(#pa76880ed39)" style="fill: none; stroke: #dfe5e8; stroke-width: 0.65; stroke-linecap: square"/>
     </g>
     <g id="line2d_16">
      <defs>
       <path id="m235bcf97e6" d="M 0 0 
L -3.5 0 
" style="stroke: #000000; stroke-width: 0.8"/>
      </defs>
      <g>
       <use xlink:href="#m235bcf97e6" x="74.448" y="348.192" style="stroke: #000000; stroke-width: 0.8"/>
      </g>
     </g>
     <g id="text_9">
      <text style="font: 10px 'DejaVu Sans', 'Bitstream Vera Sans', 'Computer Modern Sans Serif', 'Lucida Grande', 'Verdana', 'Geneva', 'Lucid', 'Arial', 'Helvetica', 'Avant Garde', sans-serif; text-anchor: end" x="67.448" y="351.991219" transform="rotate(-0 67.448 351.991219)">0</text>
     </g>
    </g>
    <g id="ytick_2">
     <g id="line2d_17">
      <path d="M 74.448 297.3024 
L 642.96 297.3024 
" clip-path="url(#pa76880ed39)" style="fill: none; stroke: #dfe5e8; stroke-width: 0.65; stroke-linecap: square"/>
     </g>
     <g id="line2d_18">
      <g>
       <use xlink:href="#m235bcf97e6" x="74.448" y="297.3024" style="stroke: #000000; stroke-width: 0.8"/>
      </g>
     </g>
     <g id="text_10">
      <text style="font: 10px 'DejaVu Sans', 'Bitstream Vera Sans', 'Computer Modern Sans Serif', 'Lucida Grande', 'Verdana', 'Geneva', 'Lucid', 'Arial', 'Helvetica', 'Avant Garde', sans-serif; text-anchor: end" x="67.448" y="301.101619" transform="rotate(-0 67.448 301.101619)">20</text>
     </g>
    </g>
    <g id="ytick_3">
     <g id="line2d_19">
      <path d="M 74.448 246.4128 
L 642.96 246.4128 
" clip-path="url(#pa76880ed39)" style="fill: none; stroke: #dfe5e8; stroke-width: 0.65; stroke-linecap: square"/>
     </g>
     <g id="line2d_20">
      <g>
       <use xlink:href="#m235bcf97e6" x="74.448" y="246.4128" style="stroke: #000000; stroke-width: 0.8"/>
      </g>
     </g>
     <g id="text_11">
      <text style="font: 10px 'DejaVu Sans', 'Bitstream Vera Sans', 'Computer Modern Sans Serif', 'Lucida Grande', 'Verdana', 'Geneva', 'Lucid', 'Arial', 'Helvetica', 'Avant Garde', sans-serif; text-anchor: end" x="67.448" y="250.212019" transform="rotate(-0 67.448 250.212019)">40</text>
     </g>
    </g>
    <g id="ytick_4">
     <g id="line2d_21">
      <path d="M 74.448 195.5232 
L 642.96 195.5232 
" clip-path="url(#pa76880ed39)" style="fill: none; stroke: #dfe5e8; stroke-width: 0.65; stroke-linecap: square"/>
     </g>
     <g id="line2d_22">
      <g>
       <use xlink:href="#m235bcf97e6" x="74.448" y="195.5232" style="stroke: #000000; stroke-width: 0.8"/>
      </g>
     </g>
     <g id="text_12">
      <text style="font: 10px 'DejaVu Sans', 'Bitstream Vera Sans', 'Computer Modern Sans Serif', 'Lucida Grande', 'Verdana', 'Geneva', 'Lucid', 'Arial', 'Helvetica', 'Avant Garde', sans-serif; text-anchor: end" x="67.448" y="199.322419" transform="rotate(-0 67.448 199.322419)">60</text>
     </g>
    </g>
    <g id="ytick_5">
     <g id="line2d_23">
      <path d="M 74.448 144.6336 
L 642.96 144.6336 
" clip-path="url(#pa76880ed39)" style="fill: none; stroke: #dfe5e8; stroke-width: 0.65; stroke-linecap: square"/>
     </g>
     <g id="line2d_24">
      <g>
       <use xlink:href="#m235bcf97e6" x="74.448" y="144.6336" style="stroke: #000000; stroke-width: 0.8"/>
      </g>
     </g>
     <g id="text_13">
      <text style="font: 10px 'DejaVu Sans', 'Bitstream Vera Sans', 'Computer Modern Sans Serif', 'Lucida Grande', 'Verdana', 'Geneva', 'Lucid', 'Arial', 'Helvetica', 'Avant Garde', sans-serif; text-anchor: end" x="67.448" y="148.432819" transform="rotate(-0 67.448 148.432819)">80</text>
     </g>
    </g>
    <g id="ytick_6">
     <g id="line2d_25">
      <path d="M 74.448 93.744 
L 642.96 93.744 
" clip-path="url(#pa76880ed39)" style="fill: none; stroke: #dfe5e8; stroke-width: 0.65; stroke-linecap: square"/>
     </g>
     <g id="line2d_26">
      <g>
       <use xlink:href="#m235bcf97e6" x="74.448" y="93.744" style="stroke: #000000; stroke-width: 0.8"/>
      </g>
     </g>
     <g id="text_14">
      <text style="font: 10px 'DejaVu Sans', 'Bitstream Vera Sans', 'Computer Modern Sans Serif', 'Lucida Grande', 'Verdana', 'Geneva', 'Lucid', 'Arial', 'Helvetica', 'Avant Garde', sans-serif; text-anchor: end" x="67.448" y="97.543219" transform="rotate(-0 67.448 97.543219)">100</text>
     </g>
    </g>
    <g id="text_15">
     <text style="font: 10px 'DejaVu Sans', 'Bitstream Vera Sans', 'Computer Modern Sans Serif', 'Lucida Grande', 'Verdana', 'Geneva', 'Lucid', 'Arial', 'Helvetica', 'Avant Garde', sans-serif; text-anchor: middle" x="42.280812" y="220.968" transform="rotate(-90 42.280812 220.968)">observers%</text>
    </g>
   </g>
   <g id="line2d_27">
    <path d="M 74.448 348.192 
L 85.81824 348.192 
L 91.50336 343.298769 
L 95.29344 343.298769 
L 99.08352 340.036615 
L 102.8736 340.036615 
L 104.76864 337.843098 
L 106.66368 334.580944 
L 112.3488 334.580944 
L 114.24384 330.75635 
L 116.13888 329.125273 
L 118.03392 322.038525 
L 119.92896 319.845008 
L 121.824 318.213931 
L 123.71904 311.127183 
L 125.61408 308.933666 
L 127.50912 302.353114 
L 129.40416 302.353114 
L 131.2992 298.52852 
L 133.19424 288.685814 
L 135.08928 281.036626 
L 136.98432 278.843109 
L 138.87936 278.843109 
L 140.7744 273.387438 
L 142.66944 270.125284 
L 144.56448 268.494207 
L 146.45952 265.232053 
L 148.35456 265.232053 
L 150.2496 263.600976 
L 152.14464 260.338822 
L 154.03968 256.514228 
L 157.82976 253.252074 
L 161.61984 242.340732 
L 163.51488 242.340732 
L 165.40992 232.498027 
L 167.30496 226.479915 
L 169.2 226.479915 
L 172.99008 223.217761 
L 174.88512 219.955607 
L 176.78016 215.568573 
L 178.6752 209.550462 
L 180.57024 206.288308 
L 184.36032 192.114812 
L 186.25536 186.0967 
L 190.04544 182.834546 
L 191.94048 176.816435 
L 193.83552 176.816435 
L 197.6256 173.554281 
L 199.52064 167.53617 
L 203.31072 167.53617 
L 205.20576 165.905093 
L 207.1008 162.080499 
L 208.99584 155.556191 
L 212.78592 152.294037 
L 214.68096 148.469443 
L 216.576 146.838366 
L 222.26112 146.838366 
L 226.0512 142.451332 
L 229.84128 139.189178 
L 233.63136 139.189178 
L 235.5264 136.99566 
L 237.42144 136.99566 
L 239.31648 133.171066 
L 241.21152 130.977549 
L 243.10656 126.590515 
L 248.79168 126.590515 
L 250.68672 123.328361 
L 252.58176 121.134844 
L 263.952 121.134844 
L 265.84704 119.503767 
L 267.74208 119.503767 
L 273.4272 112.923215 
L 277.21728 112.923215 
L 279.11232 110.729698 
L 281.00736 110.729698 
L 282.9024 108.53618 
L 284.79744 104.149146 
L 290.48256 104.149146 
L 292.3776 101.955629 
L 294.27264 101.955629 
L 298.06272 97.568594 
L 299.95776 97.568594 
L 301.8528 95.937517 
L 315.11808 95.937517 
L 317.01312 93.744 
L 642.96 93.744 
L 642.96 93.744 
" clip-path="url(#pa76880ed39)" style="fill: none; stroke: #252525; stroke-width: 2.5; stroke-linecap: square"/>
   </g>
   <g id="line2d_28">
    <path d="M 74.448 348.192 
L 95.29344 348.192 
L 97.18848 345.998483 
L 100.97856 345.998483 
L 102.8736 343.804966 
L 106.66368 343.804966 
L 110.45376 339.417931 
L 112.3488 339.417931 
L 119.92896 330.643862 
L 123.71904 330.643862 
L 125.61408 324.06331 
L 127.50912 322.432233 
L 131.2992 322.432233 
L 135.08928 318.045199 
L 136.98432 318.045199 
L 138.87936 315.851682 
L 140.7744 315.851682 
L 144.56448 311.464647 
L 146.45952 302.690578 
L 148.35456 302.690578 
L 150.2496 298.303544 
L 152.14464 298.303544 
L 154.03968 293.916509 
L 157.82976 293.916509 
L 159.7248 291.722992 
L 163.51488 282.948923 
L 171.09504 274.174854 
L 172.99008 274.174854 
L 176.78016 266.525666 
L 180.57024 257.751597 
L 184.36032 250.102408 
L 186.25536 247.908891 
L 188.1504 244.084297 
L 190.04544 238.628626 
L 191.94048 236.997549 
L 193.83552 234.804032 
L 195.73056 228.78592 
L 197.6256 222.205369 
L 199.52064 218.380775 
L 201.41568 216.187257 
L 203.31072 212.362663 
L 205.20576 212.362663 
L 207.1008 210.169146 
L 216.576 210.169146 
L 218.47104 208.538069 
L 222.26112 208.538069 
L 224.15616 206.344552 
L 227.94624 203.082398 
L 229.84128 203.082398 
L 231.73632 201.451321 
L 233.63136 198.189167 
L 235.5264 196.55809 
L 237.42144 196.55809 
L 239.31648 193.295936 
L 241.21152 193.295936 
L 243.10656 191.664859 
L 245.0016 186.209188 
L 246.89664 186.209188 
L 248.79168 184.578111 
L 254.4768 184.578111 
L 256.37184 182.947034 
L 258.26688 178.053804 
L 260.16192 174.79165 
L 262.05696 174.79165 
L 263.952 173.160573 
L 265.84704 173.160573 
L 267.74208 168.267342 
L 271.53216 161.743034 
L 273.4272 156.287363 
L 275.32224 156.287363 
L 277.21728 153.02521 
L 279.11232 153.02521 
L 281.00736 151.394133 
L 284.79744 151.394133 
L 286.69248 149.763056 
L 288.58752 149.763056 
L 290.48256 148.131979 
L 292.3776 144.869825 
L 294.27264 139.414154 
L 296.16768 137.783077 
L 298.06272 132.889846 
L 299.95776 126.365538 
L 301.8528 123.103385 
L 303.74784 121.472308 
L 305.64288 121.472308 
L 309.43296 114.948 
L 311.328 114.948 
L 313.22304 113.316923 
L 317.01312 113.316923 
L 318.90816 111.685846 
L 320.8032 111.685846 
L 322.69824 110.054769 
L 324.59328 106.792615 
L 330.2784 106.792615 
L 332.17344 105.161538 
L 337.85856 105.161538 
L 339.7536 103.530462 
L 343.54368 103.530462 
L 347.33376 100.268308 
L 366.28416 100.268308 
L 368.1792 97.006154 
L 375.75936 97.006154 
L 377.6544 95.375077 
L 415.5552 95.375077 
L 417.45024 93.744 
L 642.96 93.744 
L 642.96 93.744 
" clip-path="url(#pa76880ed39)" style="fill: none; stroke: #3b83b4; stroke-width: 1.35; stroke-linecap: square"/>
   </g>
   <g id="line2d_29">
    <path d="M 74.448 348.192 
L 85.81824 348.192 
L 87.71328 344.929846 
L 89.60832 343.298769 
L 91.50336 343.298769 
L 93.3984 341.667692 
L 97.18848 341.667692 
L 99.08352 336.774462 
L 100.97856 335.143385 
L 104.76864 335.143385 
L 106.66368 330.250154 
L 108.55872 328.619077 
L 110.45376 322.094769 
L 112.3488 318.832615 
L 114.24384 318.832615 
L 116.13888 317.201538 
L 118.03392 309.046154 
L 119.92896 305.784 
L 121.824 304.152923 
L 123.71904 304.152923 
L 125.61408 302.521846 
L 131.2992 292.735385 
L 133.19424 287.842154 
L 135.08928 286.211077 
L 140.7744 286.211077 
L 142.66944 281.317846 
L 146.45952 274.793538 
L 148.35456 269.900308 
L 150.2496 264.444637 
L 152.14464 256.795448 
L 154.03968 256.795448 
L 155.93472 253.533294 
L 157.82976 251.339777 
L 159.7248 248.077623 
L 161.61984 244.253029 
L 163.51488 244.253029 
L 165.40992 240.428435 
L 169.2 237.166281 
L 171.09504 232.27305 
L 172.99008 230.641973 
L 174.88512 227.37982 
L 176.78016 225.186302 
L 178.6752 218.099554 
L 180.57024 216.468477 
L 182.46528 212.643883 
L 186.25536 208.256849 
L 190.04544 199.48278 
L 193.83552 195.095745 
L 195.73056 190.708711 
L 197.6256 189.077634 
L 199.52064 185.25304 
L 203.31072 185.25304 
L 205.20576 181.990886 
L 210.89088 181.990886 
L 212.78592 180.359809 
L 216.576 180.359809 
L 218.47104 178.166292 
L 220.36608 173.779257 
L 222.26112 169.954663 
L 224.15616 167.761146 
L 226.0512 163.374111 
L 227.94624 161.180594 
L 239.31648 161.180594 
L 241.21152 159.549517 
L 243.10656 157.356 
L 245.0016 152.968966 
L 246.89664 152.968966 
L 248.79168 148.581931 
L 254.4768 142.001379 
L 256.37184 142.001379 
L 258.26688 139.807862 
L 262.05696 139.807862 
L 263.952 137.614345 
L 277.21728 137.614345 
L 281.00736 133.22731 
L 288.58752 133.22731 
L 290.48256 131.033793 
L 301.8528 131.033793 
L 303.74784 126.646759 
L 307.53792 122.259724 
L 309.43296 117.87269 
L 324.59328 117.87269 
L 326.48832 115.679172 
L 330.2784 115.679172 
L 334.06848 111.292138 
L 335.96352 111.292138 
L 337.85856 109.098621 
L 339.7536 109.098621 
L 341.64864 106.905103 
L 343.54368 106.905103 
L 347.33376 102.518069 
L 356.80896 102.518069 
L 358.704 98.131034 
L 360.59904 98.131034 
L 362.49408 95.937517 
L 377.6544 95.937517 
L 379.54944 93.744 
L 642.96 93.744 
L 642.96 93.744 
" clip-path="url(#pa76880ed39)" style="fill: none; stroke-dasharray: 4.995,2.16; stroke-dashoffset: 0; stroke: #c38a19; stroke-width: 1.35"/>
   </g>
   <g id="line2d_30">
    <path d="M 74.448 348.192 
L 85.81824 348.192 
L 87.71328 346.560923 
L 100.97856 346.560923 
L 102.8736 344.929846 
L 108.55872 344.929846 
L 110.45376 339.474175 
L 112.3488 339.474175 
L 118.03392 334.580944 
L 119.92896 330.75635 
L 121.824 330.75635 
L 123.71904 328.562833 
L 125.61408 322.544721 
L 127.50912 320.913645 
L 129.40416 315.457973 
L 131.2992 313.264456 
L 135.08928 310.002302 
L 136.98432 305.615268 
L 138.87936 300.159597 
L 140.7744 298.52852 
L 142.66944 295.266366 
L 144.56448 295.266366 
L 146.45952 292.004212 
L 148.35456 280.53043 
L 150.2496 280.53043 
L 152.14464 276.705836 
L 154.03968 273.443682 
L 155.93472 265.794493 
L 157.82976 265.794493 
L 159.7248 262.53234 
L 161.61984 262.53234 
L 163.51488 248.86504 
L 165.40992 248.86504 
L 167.30496 242.340732 
L 169.2 242.340732 
L 171.09504 239.078578 
L 172.99008 237.447501 
L 174.88512 235.253984 
L 176.78016 233.622907 
L 178.6752 230.360753 
L 180.57024 226.536159 
L 182.46528 224.905082 
L 184.36032 220.011851 
L 186.25536 210.731586 
L 188.1504 209.100509 
L 190.04544 199.820244 
L 191.94048 192.733496 
L 193.83552 184.521867 
L 195.73056 184.521867 
L 197.6256 180.697273 
L 199.52064 174.679162 
L 201.41568 172.485645 
L 203.31072 172.485645 
L 205.20576 166.467533 
L 207.1008 162.642939 
L 210.89088 162.642939 
L 212.78592 157.749708 
L 214.68096 156.118631 
L 216.576 153.925114 
L 220.36608 153.925114 
L 224.15616 150.66296 
L 229.84128 150.66296 
L 231.73632 144.644849 
L 233.63136 144.644849 
L 235.5264 141.382695 
L 237.42144 141.382695 
L 239.31648 137.558101 
L 241.21152 137.558101 
L 248.79168 128.784032 
L 258.26688 128.784032 
L 260.16192 123.328361 
L 262.05696 119.503767 
L 265.84704 119.503767 
L 271.53216 112.923215 
L 277.21728 112.923215 
L 279.11232 110.729698 
L 282.9024 110.729698 
L 284.79744 108.53618 
L 286.69248 108.53618 
L 288.58752 106.342663 
L 292.3776 106.342663 
L 294.27264 101.955629 
L 298.06272 101.955629 
L 301.8528 97.568594 
L 303.74784 97.568594 
L 305.64288 95.937517 
L 317.01312 95.937517 
L 318.90816 93.744 
L 642.96 93.744 
L 642.96 93.744 
" clip-path="url(#pa76880ed39)" style="fill: none; stroke-dasharray: 1.35,2.2275; stroke-dashoffset: 0; stroke: #7d8a92; stroke-width: 1.35"/>
   </g>
   <g id="line2d_31">
    <path d="M 74.448 348.192 
L 108.55872 348.192 
L 110.45376 345.998483 
L 114.24384 345.998483 
L 118.03392 341.611448 
L 123.71904 341.611448 
L 125.61408 337.224414 
L 136.98432 337.224414 
L 138.87936 335.030897 
L 146.45952 335.030897 
L 148.35456 333.39982 
L 155.93472 333.39982 
L 157.82976 329.012785 
L 163.51488 322.432233 
L 165.40992 318.045199 
L 167.30496 318.045199 
L 169.2 313.658164 
L 171.09504 313.658164 
L 174.88512 309.27113 
L 178.6752 309.27113 
L 180.57024 307.077613 
L 184.36032 307.077613 
L 186.25536 304.884095 
L 188.1504 304.884095 
L 190.04544 300.497061 
L 191.94048 298.303544 
L 193.83552 291.722992 
L 195.73056 282.948923 
L 197.6256 282.948923 
L 199.52064 280.755406 
L 201.41568 280.755406 
L 203.31072 278.561889 
L 205.20576 278.561889 
L 207.1008 274.174854 
L 208.99584 272.543777 
L 214.68096 272.543777 
L 218.47104 268.156743 
L 220.36608 268.156743 
L 222.26112 265.963225 
L 224.15616 265.963225 
L 226.0512 259.382674 
L 227.94624 257.751597 
L 231.73632 245.715374 
L 241.21152 245.715374 
L 243.10656 239.697263 
L 245.0016 236.435109 
L 246.89664 232.610515 
L 250.68672 232.610515 
L 252.58176 229.348361 
L 254.4768 225.523767 
L 256.37184 225.523767 
L 258.26688 223.330249 
L 260.16192 221.699172 
L 262.05696 219.505655 
L 263.952 219.505655 
L 265.84704 215.118621 
L 271.53216 208.538069 
L 277.21728 203.644838 
L 279.11232 203.644838 
L 281.00736 196.55809 
L 288.58752 190.033782 
L 298.06272 190.033782 
L 299.95776 188.402706 
L 301.8528 183.509475 
L 305.64288 176.985167 
L 307.53792 175.35409 
L 309.43296 175.35409 
L 311.328 170.460859 
L 313.22304 168.829782 
L 315.11808 166.636265 
L 317.01312 165.005188 
L 320.8032 158.480881 
L 322.69824 153.58765 
L 324.59328 147.063342 
L 326.48832 147.063342 
L 330.2784 143.801188 
L 332.17344 139.976594 
L 334.06848 139.976594 
L 335.96352 135.083363 
L 337.85856 133.452286 
L 339.7536 133.452286 
L 341.64864 131.82121 
L 343.54368 128.559056 
L 345.43872 122.034748 
L 347.33376 122.034748 
L 349.2288 118.210154 
L 354.91392 118.210154 
L 356.80896 114.948 
L 358.704 114.948 
L 366.28416 108.423692 
L 368.1792 108.423692 
L 370.07424 106.792615 
L 377.6544 106.792615 
L 379.54944 103.530462 
L 387.1296 103.530462 
L 389.02464 101.899385 
L 390.91968 101.899385 
L 392.81472 100.268308 
L 407.97504 100.268308 
L 409.87008 98.637231 
L 411.76512 98.637231 
L 413.66016 97.006154 
L 415.5552 97.006154 
L 417.45024 95.375077 
L 457.24608 95.375077 
L 459.14112 93.744 
L 642.96 93.744 
L 642.96 93.744 
" clip-path="url(#pa76880ed39)" style="fill: none; stroke-dasharray: 8.64,2.16,1.35,2.16; stroke-dashoffset: 0; stroke: #d0526a; stroke-width: 1.35"/>
   </g>
   <g id="line2d_32">
    <path d="M 74.448 348.192 
L 97.18848 348.192 
L 99.08352 345.998483 
L 104.76864 345.998483 
L 106.66368 343.804966 
L 125.61408 343.804966 
L 129.40416 339.417931 
L 138.87936 339.417931 
L 140.7744 337.224414 
L 150.2496 337.224414 
L 152.14464 335.030897 
L 155.93472 335.030897 
L 157.82976 332.837379 
L 167.30496 332.837379 
L 169.2 331.206302 
L 171.09504 331.206302 
L 172.99008 326.819268 
L 176.78016 322.432233 
L 178.6752 322.432233 
L 184.36032 315.851682 
L 186.25536 315.851682 
L 191.94048 309.27113 
L 195.73056 309.27113 
L 197.6256 307.077613 
L 199.52064 307.077613 
L 201.41568 300.497061 
L 203.31072 300.497061 
L 205.20576 298.303544 
L 207.1008 298.303544 
L 208.99584 296.110027 
L 210.89088 289.529475 
L 212.78592 289.529475 
L 214.68096 285.14244 
L 216.576 278.561889 
L 218.47104 278.561889 
L 220.36608 276.368371 
L 224.15616 276.368371 
L 226.0512 274.737294 
L 227.94624 272.543777 
L 233.63136 272.543777 
L 237.42144 268.156743 
L 243.10656 268.156743 
L 245.0016 265.963225 
L 246.89664 259.945114 
L 248.79168 253.364562 
L 250.68672 247.346451 
L 252.58176 247.346451 
L 254.4768 245.715374 
L 258.26688 245.715374 
L 260.16192 243.521857 
L 262.05696 243.521857 
L 263.952 241.89078 
L 265.84704 236.435109 
L 267.74208 234.241592 
L 271.53216 230.979438 
L 275.32224 223.330249 
L 277.21728 221.699172 
L 281.00736 221.699172 
L 282.9024 219.505655 
L 284.79744 219.505655 
L 286.69248 215.118621 
L 288.58752 215.118621 
L 290.48256 210.731586 
L 292.3776 209.100509 
L 294.27264 206.906992 
L 296.16768 202.013761 
L 298.06272 202.013761 
L 299.95776 200.382684 
L 301.8528 197.120531 
L 303.74784 194.927013 
L 309.43296 190.033782 
L 318.90816 190.033782 
L 320.8032 183.509475 
L 324.59328 180.247321 
L 326.48832 173.723013 
L 328.38336 173.723013 
L 330.2784 172.091936 
L 332.17344 172.091936 
L 334.06848 165.005188 
L 335.96352 163.374111 
L 337.85856 163.374111 
L 339.7536 160.111958 
L 341.64864 150.325496 
L 345.43872 147.063342 
L 347.33376 147.063342 
L 351.12384 140.539034 
L 353.01888 138.345517 
L 354.91392 135.083363 
L 356.80896 133.452286 
L 358.704 133.452286 
L 362.49408 126.927979 
L 364.38912 122.034748 
L 366.28416 122.034748 
L 368.1792 119.841231 
L 370.07424 118.210154 
L 371.96928 118.210154 
L 373.86432 116.579077 
L 375.75936 116.579077 
L 377.6544 113.316923 
L 379.54944 113.316923 
L 385.23456 108.423692 
L 389.02464 108.423692 
L 390.91968 106.792615 
L 396.6048 106.792615 
L 400.39488 103.530462 
L 406.08 103.530462 
L 407.97504 101.899385 
L 411.76512 101.899385 
L 413.66016 100.268308 
L 425.0304 100.268308 
L 426.92544 98.637231 
L 432.61056 98.637231 
L 436.40064 95.375077 
L 476.19648 95.375077 
L 478.09152 93.744 
L 642.96 93.744 
L 642.96 93.744 
" clip-path="url(#pa76880ed39)" style="fill: none; stroke-dasharray: 6.75,2.7,1.35,2.7; stroke-dashoffset: 0; stroke: #2f8f84; stroke-width: 1.35"/>
   </g>
   <g id="patch_4">
    <path d="M 74.448 348.192 
L 74.448 93.744 
" style="fill: none; stroke: #000000; stroke-width: 0.8; stroke-linejoin: miter; stroke-linecap: square"/>
   </g>
   <g id="patch_5">
    <path d="M 74.448 348.192 
L 642.96 348.192 
" style="fill: none; stroke: #000000; stroke-width: 0.8; stroke-linejoin: miter; stroke-linecap: square"/>
   </g>
  </g>
  <g id="text_16">
   <text style="font: 18px 'DejaVu Sans', 'Bitstream Vera Sans', 'Computer Modern Sans Serif', 'Lucida Grande', 'Verdana', 'Geneva', 'Lucid', 'Arial', 'Helvetica', 'Avant Garde', sans-serif; text-anchor: start" x="74.448" y="38.229188" transform="rotate(-0 74.448 38.229188)">KSF LCD → WOLED</text>
  </g>
  <g id="text_17">
   <text style="fill: #66747c; font: 10px 'DejaVu Sans', 'Bitstream Vera Sans', 'Computer Modern Sans Serif', 'Lucida Grande', 'Verdana', 'Geneva', 'Lucid', 'Arial', 'Helvetica', 'Avant Garde', sans-serif; text-anchor: start" x="74.448" y="64.728" transform="rotate(-0 74.448 64.728)">All illuminants</text>
  </g>
  <g id="legend_1">
   <g id="line2d_33">
    <path d="M 185.17875 404.151391 
L 194.27875 404.151391 
L 203.37875 404.151391 
" style="fill: none; stroke: #252525; stroke-width: 2.5; stroke-linecap: square"/>
   </g>
   <g id="text_18">
    <text style="font: 9.1px 'DejaVu Sans', 'Bitstream Vera Sans', 'Computer Modern Sans Serif', 'Lucida Grande', 'Verdana', 'Geneva', 'Lucid', 'Arial', 'Helvetica', 'Avant Garde', sans-serif; text-anchor: start" x="210.65875" y="407.336391" transform="rotate(-0 210.65875 407.336391)">Potera CMF</text>
   </g>
   <g id="line2d_34">
    <path d="M 185.17875 417.508484 
L 194.27875 417.508484 
L 203.37875 417.508484 
" style="fill: none; stroke: #3b83b4; stroke-width: 1.35; stroke-linecap: square"/>
   </g>
   <g id="text_19">
    <text style="font: 9.1px 'DejaVu Sans', 'Bitstream Vera Sans', 'Computer Modern Sans Serif', 'Lucida Grande', 'Verdana', 'Geneva', 'Lucid', 'Arial', 'Helvetica', 'Avant Garde', sans-serif; text-anchor: start" x="210.65875" y="420.693484" transform="rotate(-0 210.65875 420.693484)">CIE 2015 2°</text>
   </g>
   <g id="line2d_35">
    <path d="M 282.931234 404.151391 
L 292.031234 404.151391 
L 301.131234 404.151391 
" style="fill: none; stroke-dasharray: 4.995,2.16; stroke-dashoffset: 0; stroke: #c38a19; stroke-width: 1.35"/>
   </g>
   <g id="text_20">
    <text style="font: 9.1px 'DejaVu Sans', 'Bitstream Vera Sans', 'Computer Modern Sans Serif', 'Lucida Grande', 'Verdana', 'Geneva', 'Lucid', 'Arial', 'Helvetica', 'Avant Garde', sans-serif; text-anchor: start" x="308.411234" y="407.336391" transform="rotate(-0 308.411234 407.336391)">CIE 2015 10°</text>
   </g>
   <g id="line2d_36">
    <path d="M 282.931234 417.508484 
L 292.031234 417.508484 
L 301.131234 417.508484 
" style="fill: none; stroke-dasharray: 1.35,2.2275; stroke-dashoffset: 0; stroke: #7d8a92; stroke-width: 1.35"/>
   </g>
   <g id="text_21">
    <text style="font: 9.1px 'DejaVu Sans', 'Bitstream Vera Sans', 'Computer Modern Sans Serif', 'Lucida Grande', 'Verdana', 'Geneva', 'Lucid', 'Arial', 'Helvetica', 'Avant Garde', sans-serif; text-anchor: start" x="308.411234" y="420.693484" transform="rotate(-0 308.411234 420.693484)">CIE 1964 10°</text>
   </g>
   <g id="line2d_37">
    <path d="M 386.473594 404.151391 
L 395.573594 404.151391 
L 404.673594 404.151391 
" style="fill: none; stroke-dasharray: 8.64,2.16,1.35,2.16; stroke-dashoffset: 0; stroke: #d0526a; stroke-width: 1.35"/>
   </g>
   <g id="text_22">
    <text style="font: 9.1px 'DejaVu Sans', 'Bitstream Vera Sans', 'Computer Modern Sans Serif', 'Lucida Grande', 'Verdana', 'Geneva', 'Lucid', 'Arial', 'Helvetica', 'Avant Garde', sans-serif; text-anchor: start" x="411.953594" y="407.336391" transform="rotate(-0 411.953594 407.336391)">CIE 1931 2°</text>
   </g>
   <g id="line2d_38">
    <path d="M 386.473594 417.508484 
L 395.573594 417.508484 
L 404.673594 417.508484 
" style="fill: none; stroke-dasharray: 6.75,2.7,1.35,2.7; stroke-dashoffset: 0; stroke: #2f8f84; stroke-width: 1.35"/>
   </g>
   <g id="text_23">
    <text style="font: 9.1px 'DejaVu Sans', 'Bitstream Vera Sans', 'Computer Modern Sans Serif', 'Lucida Grande', 'Verdana', 'Geneva', 'Lucid', 'Arial', 'Helvetica', 'Avant Garde', sans-serif; text-anchor: start" x="411.953594" y="420.693484" transform="rotate(-0 411.953594 420.693484)">Judd–Vos 1978 2°</text>
   </g>
  </g>
 </g>
 <defs>
  <clipPath id="pa76880ed39">
   <rect x="74.448" y="93.744" width="568.512" height="254.448"/>
  </clipPath>
 </defs>
</svg>
