<?xml version="1.0" encoding="utf-8" standalone="no"?>
<!DOCTYPE svg PUBLIC "-//W3C//DTD SVG 1.1//EN"
  "http://www.w3.org/Graphics/SVG/1.1/DTD/svg11.dtd">
<svg xmlns:xlink="http://www.w3.org/1999/xlink" width="676.8pt" height="446.4pt" viewBox="0 0 676.8 446.4" xmlns="http://www.w3.org/2000/svg" version="1.1">
 <metadata>
  <rdf:RDF xmlns:dc="http://purl.org/dc/elements/1.1/" xmlns:cc="http://creativecommons.org/ns#" xmlns:rdf="http://www.w3.org/1999/02/22-rdf-syntax-ns#">
   <cc:Work>
    <dc:type rdf:resource="http://purl.org/dc/dcmitype/StillImage"/>
    <dc:date>2026-07-20T06:41:57.812579</dc:date>
    <dc:format>image/svg+xml</dc:format>
    <dc:creator>
     <cc:Agent>
      <dc:title>Matplotlib v3.9.4, https://matplotlib.org/</dc:title>
     </cc:Agent>
    </dc:creator>
   </cc:Work>
  </rdf:RDF>
 </metadata>
 <defs>
  <style type="text/css">*{stroke-linejoin: round; stroke-linecap: butt}</style>
 </defs>
 <g id="figure_1">
  <g id="patch_1">
   <path d="M 0 446.4 
L 676.8 446.4 
L 676.8 0 
L 0 0 
z
" style="fill: #ffffff"/>
  </g>
  <g id="axes_1">
   <g id="patch_2">
    <path d="M 74.448 348.192 
L 642.96 348.192 
L 642.96 93.744 
L 74.448 93.744 
z
" style="fill: #ffffff"/>
   </g>
   <g id="patch_3">
    <path d="M 169.2 348.192 
L 358.704 348.192 
L 358.704 93.744 
L 169.2 93.744 
z
" clip-path="url(#pa5444d460e)" style="fill: #e7f0ea; opacity: 0.58; stroke: #e7f0ea; stroke-linejoin: miter"/>
   </g>
   <g id="matplotlib.axis_1">
    <g id="xtick_1">
     <g id="line2d_1">
      <path d="M 74.448 348.192 
L 74.448 93.744 
" clip-path="url(#pa5444d460e)" style="fill: none; stroke: #dfe5e8; stroke-width: 0.65; stroke-linecap: square"/>
     </g>
     <g id="line2d_2">
      <defs>
       <path id="mf1854b390d" d="M 0 0 
L 0 3.5 
" style="stroke: #000000; stroke-width: 0.8"/>
      </defs>
      <g>
       <use xlink:href="#mf1854b390d" x="74.448" y="348.192" style="stroke: #000000; stroke-width: 0.8"/>
      </g>
     </g>
     <g id="text_1">
      <text style="font: 10px 'DejaVu Sans', 'Bitstream Vera Sans', 'Computer Modern Sans Serif', 'Lucida Grande', 'Verdana', 'Geneva', 'Lucid', 'Arial', 'Helvetica', 'Avant Garde', sans-serif; text-anchor: middle" x="74.448" y="362.790438" transform="rotate(-0 74.448 362.790438)">0</text>
     </g>
    </g>
    <g id="xtick_2">
     <g id="line2d_3">
      <path d="M 169.2 348.192 
L 169.2 93.744 
" clip-path="url(#pa5444d460e)" style="fill: none; stroke: #dfe5e8; stroke-width: 0.65; stroke-linecap: square"/>
     </g>
     <g id="line2d_4">
      <g>
       <use xlink:href="#mf1854b390d" x="169.2" y="348.192" style="stroke: #000000; stroke-width: 0.8"/>
      </g>
     </g>
     <g id="text_2">
      <text style="font: 10px 'DejaVu Sans', 'Bitstream Vera Sans', 'Computer Modern Sans Serif', 'Lucida Grande', 'Verdana', 'Geneva', 'Lucid', 'Arial', 'Helvetica', 'Avant Garde', sans-serif; text-anchor: middle" x="169.2" y="362.790438" transform="rotate(-0 169.2 362.790438)">1</text>
     </g>
    </g>
    <g id="xtick_3">
     <g id="line2d_5">
      <path d="M 263.952 348.192 
L 263.952 93.744 
" clip-path="url(#pa5444d460e)" style="fill: none; stroke: #dfe5e8; stroke-width: 0.65; stroke-linecap: square"/>
     </g>
     <g id="line2d_6">
      <g>
       <use xlink:href="#mf1854b390d" x="263.952" y="348.192" style="stroke: #000000; stroke-width: 0.8"/>
      </g>
     </g>
     <g id="text_3">
      <text style="font: 10px 'DejaVu Sans', 'Bitstream Vera Sans', 'Computer Modern Sans Serif', 'Lucida Grande', 'Verdana', 'Geneva', 'Lucid', 'Arial', 'Helvetica', 'Avant Garde', sans-serif; text-anchor: middle" x="263.952" y="362.790438" transform="rotate(-0 263.952 362.790438)">2</text>
     </g>
    </g>
    <g id="xtick_4">
     <g id="line2d_7">
      <path d="M 358.704 348.192 
L 358.704 93.744 
" clip-path="url(#pa5444d460e)" style="fill: none; stroke: #dfe5e8; stroke-width: 0.65; stroke-linecap: square"/>
     </g>
     <g id="line2d_8">
      <g>
       <use xlink:href="#mf1854b390d" x="358.704" y="348.192" style="stroke: #000000; stroke-width: 0.8"/>
      </g>
     </g>
     <g id="text_4">
      <text style="font: 10px 'DejaVu Sans', 'Bitstream Vera Sans', 'Computer Modern Sans Serif', 'Lucida Grande', 'Verdana', 'Geneva', 'Lucid', 'Arial', 'Helvetica', 'Avant Garde', sans-serif; text-anchor: middle" x="358.704" y="362.790438" transform="rotate(-0 358.704 362.790438)">3</text>
     </g>
    </g>
    <g id="xtick_5">
     <g id="line2d_9">
      <path d="M 453.456 348.192 
L 453.456 93.744 
" clip-path="url(#pa5444d460e)" style="fill: none; stroke: #dfe5e8; stroke-width: 0.65; stroke-linecap: square"/>
     </g>
     <g id="line2d_10">
      <g>
       <use xlink:href="#mf1854b390d" x="453.456" y="348.192" style="stroke: #000000; stroke-width: 0.8"/>
      </g>
     </g>
     <g id="text_5">
      <text style="font: 10px 'DejaVu Sans', 'Bitstream Vera Sans', 'Computer Modern Sans Serif', 'Lucida Grande', 'Verdana', 'Geneva', 'Lucid', 'Arial', 'Helvetica', 'Avant Garde', sans-serif; text-anchor: middle" x="453.456" y="362.790438" transform="rotate(-0 453.456 362.790438)">4</text>
     </g>
    </g>
    <g id="xtick_6">
     <g id="line2d_11">
      <path d="M 548.208 348.192 
L 548.208 93.744 
" clip-path="url(#pa5444d460e)" style="fill: none; stroke: #dfe5e8; stroke-width: 0.65; stroke-linecap: square"/>
     </g>
     <g id="line2d_12">
      <g>
       <use xlink:href="#mf1854b390d" x="548.208" y="348.192" style="stroke: #000000; stroke-width: 0.8"/>
      </g>
     </g>
     <g id="text_6">
      <text style="font: 10px 'DejaVu Sans', 'Bitstream Vera Sans', 'Computer Modern Sans Serif', 'Lucida Grande', 'Verdana', 'Geneva', 'Lucid', 'Arial', 'Helvetica', 'Avant Garde', sans-serif; text-anchor: middle" x="548.208" y="362.790438" transform="rotate(-0 548.208 362.790438)">5</text>
     </g>
    </g>
    <g id="xtick_7">
     <g id="line2d_13">
      <path d="M 642.96 348.192 
L 642.96 93.744 
" clip-path="url(#pa5444d460e)" style="fill: none; stroke: #dfe5e8; stroke-width: 0.65; stroke-linecap: square"/>
     </g>
     <g id="line2d_14">
      <g>
       <use xlink:href="#mf1854b390d" x="642.96" y="348.192" style="stroke: #000000; stroke-width: 0.8"/>
      </g>
     </g>
     <g id="text_7">
      <text style="font: 10px 'DejaVu Sans', 'Bitstream Vera Sans', 'Computer Modern Sans Serif', 'Lucida Grande', 'Verdana', 'Geneva', 'Lucid', 'Arial', 'Helvetica', 'Avant Garde', sans-serif; text-anchor: middle" x="642.96" y="362.790438" transform="rotate(-0 642.96 362.790438)">6</text>
     </g>
    </g>
    <g id="text_8">
     <text style="font: 10px 'DejaVu Sans', 'Bitstream Vera Sans', 'Computer Modern Sans Serif', 'Lucida Grande', 'Verdana', 'Geneva', 'Lucid', 'Arial', 'Helvetica', 'Avant Garde', sans-serif; text-anchor: middle" x="358.704" y="376.468563" transform="rotate(-0 358.704 376.468563)">sUCS dE threshold</text>
    </g>
   </g>
   <g id="matplotlib.axis_2">
    <g id="ytick_1">
     <g id="line2d_15">
      <path d="M 74.448 348.192 
L 642.96 348.192 
" clip-path="url(#pa5444d460e)" style="fill: none; stroke: #dfe5e8; stroke-width: 0.65; stroke-linecap: square"/>
     </g>
     <g id="line2d_16">
      <defs>
       <path id="m70a0ddedc1" d="M 0 0 
L -3.5 0 
" style="stroke: #000000; stroke-width: 0.8"/>
      </defs>
      <g>
       <use xlink:href="#m70a0ddedc1" x="74.448" y="348.192" style="stroke: #000000; stroke-width: 0.8"/>
      </g>
     </g>
     <g id="text_9">
      <text style="font: 10px 'DejaVu Sans', 'Bitstream Vera Sans', 'Computer Modern Sans Serif', 'Lucida Grande', 'Verdana', 'Geneva', 'Lucid', 'Arial', 'Helvetica', 'Avant Garde', sans-serif; text-anchor: end" x="67.448" y="351.991219" transform="rotate(-0 67.448 351.991219)">0</text>
     </g>
    </g>
    <g id="ytick_2">
     <g id="line2d_17">
      <path d="M 74.448 297.3024 
L 642.96 297.3024 
" clip-path="url(#pa5444d460e)" style="fill: none; stroke: #dfe5e8; stroke-width: 0.65; stroke-linecap: square"/>
     </g>
     <g id="line2d_18">
      <g>
       <use xlink:href="#m70a0ddedc1" x="74.448" y="297.3024" style="stroke: #000000; stroke-width: 0.8"/>
      </g>
     </g>
     <g id="text_10">
      <text style="font: 10px 'DejaVu Sans', 'Bitstream Vera Sans', 'Computer Modern Sans Serif', 'Lucida Grande', 'Verdana', 'Geneva', 'Lucid', 'Arial', 'Helvetica', 'Avant Garde', sans-serif; text-anchor: end" x="67.448" y="301.101619" transform="rotate(-0 67.448 301.101619)">20</text>
     </g>
    </g>
    <g id="ytick_3">
     <g id="line2d_19">
      <path d="M 74.448 246.4128 
L 642.96 246.4128 
" clip-path="url(#pa5444d460e)" style="fill: none; stroke: #dfe5e8; stroke-width: 0.65; stroke-linecap: square"/>
     </g>
     <g id="line2d_20">
      <g>
       <use xlink:href="#m70a0ddedc1" x="74.448" y="246.4128" style="stroke: #000000; stroke-width: 0.8"/>
      </g>
     </g>
     <g id="text_11">
      <text style="font: 10px 'DejaVu Sans', 'Bitstream Vera Sans', 'Computer Modern Sans Serif', 'Lucida Grande', 'Verdana', 'Geneva', 'Lucid', 'Arial', 'Helvetica', 'Avant Garde', sans-serif; text-anchor: end" x="67.448" y="250.212019" transform="rotate(-0 67.448 250.212019)">40</text>
     </g>
    </g>
    <g id="ytick_4">
     <g id="line2d_21">
      <path d="M 74.448 195.5232 
L 642.96 195.5232 
" clip-path="url(#pa5444d460e)" style="fill: none; stroke: #dfe5e8; stroke-width: 0.65; stroke-linecap: square"/>
     </g>
     <g id="line2d_22">
      <g>
       <use xlink:href="#m70a0ddedc1" x="74.448" y="195.5232" style="stroke: #000000; stroke-width: 0.8"/>
      </g>
     </g>
     <g id="text_12">
      <text style="font: 10px 'DejaVu Sans', 'Bitstream Vera Sans', 'Computer Modern Sans Serif', 'Lucida Grande', 'Verdana', 'Geneva', 'Lucid', 'Arial', 'Helvetica', 'Avant Garde', sans-serif; text-anchor: end" x="67.448" y="199.322419" transform="rotate(-0 67.448 199.322419)">60</text>
     </g>
    </g>
    <g id="ytick_5">
     <g id="line2d_23">
      <path d="M 74.448 144.6336 
L 642.96 144.6336 
" clip-path="url(#pa5444d460e)" style="fill: none; stroke: #dfe5e8; stroke-width: 0.65; stroke-linecap: square"/>
     </g>
     <g id="line2d_24">
      <g>
       <use xlink:href="#m70a0ddedc1" x="74.448" y="144.6336" style="stroke: #000000; stroke-width: 0.8"/>
      </g>
     </g>
     <g id="text_13">
      <text style="font: 10px 'DejaVu Sans', 'Bitstream Vera Sans', 'Computer Modern Sans Serif', 'Lucida Grande', 'Verdana', 'Geneva', 'Lucid', 'Arial', 'Helvetica', 'Avant Garde', sans-serif; text-anchor: end" x="67.448" y="148.432819" transform="rotate(-0 67.448 148.432819)">80</text>
     </g>
    </g>
    <g id="ytick_6">
     <g id="line2d_25">
      <path d="M 74.448 93.744 
L 642.96 93.744 
" clip-path="url(#pa5444d460e)" style="fill: none; stroke: #dfe5e8; stroke-width: 0.65; stroke-linecap: square"/>
     </g>
     <g id="line2d_26">
      <g>
       <use xlink:href="#m70a0ddedc1" x="74.448" y="93.744" style="stroke: #000000; stroke-width: 0.8"/>
      </g>
     </g>
     <g id="text_14">
      <text style="font: 10px 'DejaVu Sans', 'Bitstream Vera Sans', 'Computer Modern Sans Serif', 'Lucida Grande', 'Verdana', 'Geneva', 'Lucid', 'Arial', 'Helvetica', 'Avant Garde', sans-serif; text-anchor: end" x="67.448" y="97.543219" transform="rotate(-0 67.448 97.543219)">100</text>
     </g>
    </g>
    <g id="text_15">
     <text style="font: 10px 'DejaVu Sans', 'Bitstream Vera Sans', 'Computer Modern Sans Serif', 'Lucida Grande', 'Verdana', 'Geneva', 'Lucid', 'Arial', 'Helvetica', 'Avant Garde', sans-serif; text-anchor: middle" x="42.280812" y="220.968" transform="rotate(-90 42.280812 220.968)">observers%</text>
    </g>
   </g>
   <g id="line2d_27">
    <path d="M 74.448 348.192 
L 85.81824 348.192 
L 87.71328 346.560923 
L 89.60832 346.560923 
L 91.50336 344.929846 
L 93.3984 340.036615 
L 95.29344 340.036615 
L 97.18848 338.405538 
L 99.08352 338.405538 
L 100.97856 336.774462 
L 106.66368 336.774462 
L 108.55872 334.580944 
L 110.45376 334.580944 
L 112.3488 332.387427 
L 114.24384 332.387427 
L 118.03392 324.738239 
L 119.92896 324.738239 
L 125.61408 319.845008 
L 127.50912 313.826897 
L 129.40416 309.439862 
L 131.2992 309.439862 
L 135.08928 305.052828 
L 136.98432 305.052828 
L 140.7744 297.403639 
L 142.66944 297.403639 
L 144.56448 295.772562 
L 146.45952 289.754451 
L 148.35456 285.929857 
L 150.2496 284.29878 
L 152.14464 284.29878 
L 154.03968 282.667703 
L 155.93472 280.474186 
L 159.7248 277.212032 
L 161.61984 272.318801 
L 165.40992 269.056647 
L 167.30496 269.056647 
L 169.2 267.42557 
L 171.09504 261.969899 
L 172.99008 255.951788 
L 174.88512 255.951788 
L 176.78016 252.689634 
L 178.6752 250.496117 
L 182.46528 250.496117 
L 184.36032 245.040446 
L 186.25536 242.846928 
L 188.1504 236.828817 
L 190.04544 235.19774 
L 193.83552 227.548552 
L 195.73056 225.917475 
L 197.6256 222.092881 
L 199.52064 222.092881 
L 201.41568 220.461804 
L 203.31072 216.63721 
L 205.20576 211.181538 
L 207.1008 211.181538 
L 208.99584 208.988021 
L 212.78592 208.988021 
L 216.576 204.600987 
L 218.47104 199.145316 
L 220.36608 199.145316 
L 222.26112 195.883162 
L 224.15616 190.427491 
L 226.0512 188.796414 
L 227.94624 185.53426 
L 229.84128 180.078589 
L 231.73632 178.447512 
L 233.63136 178.447512 
L 235.5264 174.622918 
L 239.31648 171.360764 
L 241.21152 171.360764 
L 243.10656 169.729687 
L 245.0016 169.729687 
L 246.89664 168.09861 
L 248.79168 164.274016 
L 250.68672 164.274016 
L 252.58176 160.449422 
L 256.37184 153.925114 
L 263.952 153.925114 
L 265.84704 152.294037 
L 267.74208 150.10052 
L 269.63712 150.10052 
L 271.53216 148.469443 
L 273.4272 146.275926 
L 275.32224 146.275926 
L 277.21728 144.082408 
L 279.11232 144.082408 
L 281.00736 140.820255 
L 284.79744 140.820255 
L 292.3776 132.046186 
L 294.27264 132.046186 
L 298.06272 128.784032 
L 313.22304 128.784032 
L 315.11808 127.152955 
L 318.90816 127.152955 
L 320.8032 123.328361 
L 322.69824 121.134844 
L 324.59328 117.310249 
L 332.17344 117.310249 
L 334.06848 115.116732 
L 335.96352 115.116732 
L 337.85856 112.923215 
L 353.01888 112.923215 
L 354.91392 110.729698 
L 358.704 110.729698 
L 360.59904 106.342663 
L 362.49408 106.342663 
L 364.38912 104.149146 
L 370.07424 104.149146 
L 371.96928 98.131034 
L 387.1296 98.131034 
L 390.91968 93.744 
L 642.96 93.744 
L 642.96 93.744 
" clip-path="url(#pa5444d460e)" style="fill: none; stroke: #252525; stroke-width: 2.5; stroke-linecap: square"/>
   </g>
   <g id="line2d_28">
    <path d="M 74.448 348.192 
L 99.08352 348.192 
L 100.97856 345.998483 
L 102.8736 345.998483 
L 104.76864 343.804966 
L 110.45376 343.804966 
L 112.3488 341.611448 
L 118.03392 341.611448 
L 119.92896 339.417931 
L 123.71904 330.643862 
L 127.50912 326.256828 
L 131.2992 326.256828 
L 133.19424 321.869793 
L 135.08928 321.869793 
L 136.98432 319.676276 
L 150.2496 319.676276 
L 155.93472 313.095724 
L 157.82976 309.27113 
L 159.7248 309.27113 
L 161.61984 307.077613 
L 167.30496 307.077613 
L 172.99008 300.497061 
L 174.88512 300.497061 
L 176.78016 296.110027 
L 178.6752 293.916509 
L 180.57024 289.529475 
L 182.46528 289.529475 
L 184.36032 285.14244 
L 190.04544 285.14244 
L 191.94048 282.948923 
L 193.83552 274.174854 
L 197.6256 274.174854 
L 203.31072 267.594302 
L 205.20576 267.594302 
L 207.1008 263.207268 
L 210.89088 258.820233 
L 212.78592 258.820233 
L 214.68096 254.433199 
L 216.576 252.239682 
L 218.47104 252.239682 
L 220.36608 247.852647 
L 222.26112 247.852647 
L 224.15616 246.22157 
L 226.0512 241.834536 
L 227.94624 235.253984 
L 229.84128 233.060467 
L 231.73632 227.604796 
L 237.42144 227.604796 
L 239.31648 225.973719 
L 241.21152 222.711565 
L 243.10656 222.711565 
L 245.0016 219.449411 
L 248.79168 219.449411 
L 250.68672 217.818334 
L 252.58176 217.818334 
L 254.4768 213.4313 
L 256.37184 211.800223 
L 258.26688 209.606706 
L 265.84704 209.606706 
L 267.74208 207.975629 
L 279.11232 207.975629 
L 281.00736 206.344552 
L 286.69248 206.344552 
L 288.58752 203.082398 
L 290.48256 203.082398 
L 292.3776 201.451321 
L 294.27264 198.189167 
L 296.16768 198.189167 
L 298.06272 195.99565 
L 301.8528 195.99565 
L 303.74784 194.364573 
L 305.64288 194.364573 
L 309.43296 191.102419 
L 311.328 191.102419 
L 313.22304 187.840265 
L 317.01312 184.578111 
L 322.69824 184.578111 
L 324.59328 181.315958 
L 326.48832 181.315958 
L 328.38336 179.684881 
L 330.2784 176.422727 
L 334.06848 173.160573 
L 335.96352 173.160573 
L 337.85856 171.529496 
L 339.7536 171.529496 
L 341.64864 168.267342 
L 345.43872 168.267342 
L 347.33376 165.005188 
L 351.12384 165.005188 
L 353.01888 162.811671 
L 356.80896 162.811671 
L 358.704 159.549517 
L 360.59904 159.549517 
L 370.07424 151.394133 
L 371.96928 151.394133 
L 373.86432 148.131979 
L 375.75936 148.131979 
L 377.6544 146.500902 
L 379.54944 146.500902 
L 381.44448 143.238748 
L 385.23456 143.238748 
L 387.1296 141.607671 
L 389.02464 141.607671 
L 390.91968 136.71444 
L 392.81472 135.083363 
L 394.70976 130.190133 
L 396.6048 130.190133 
L 398.49984 126.927979 
L 404.18496 126.927979 
L 406.08 119.841231 
L 409.87008 119.841231 
L 413.66016 116.579077 
L 417.45024 116.579077 
L 419.34528 111.685846 
L 423.13536 108.423692 
L 432.61056 108.423692 
L 434.5056 106.792615 
L 440.19072 106.792615 
L 442.08576 105.161538 
L 445.87584 105.161538 
L 447.77088 103.530462 
L 449.66592 103.530462 
L 451.56096 101.899385 
L 464.82624 101.899385 
L 466.72128 100.268308 
L 483.77664 100.268308 
L 485.67168 97.006154 
L 493.25184 97.006154 
L 495.14688 95.375077 
L 540.62784 95.375077 
L 542.52288 93.744 
L 642.96 93.744 
L 642.96 93.744 
" clip-path="url(#pa5444d460e)" style="fill: none; stroke: #3b83b4; stroke-width: 1.35; stroke-linecap: square"/>
   </g>
   <g id="line2d_29">
    <path d="M 74.448 348.192 
L 82.02816 348.192 
L 83.9232 346.560923 
L 89.60832 346.560923 
L 93.3984 343.298769 
L 95.29344 343.298769 
L 97.18848 338.405538 
L 99.08352 335.143385 
L 100.97856 335.143385 
L 102.8736 331.881231 
L 106.66368 328.619077 
L 108.55872 328.619077 
L 110.45376 326.988 
L 114.24384 326.988 
L 125.61408 317.201538 
L 129.40416 310.677231 
L 131.2992 309.046154 
L 133.19424 305.784 
L 138.87936 305.784 
L 140.7744 302.521846 
L 142.66944 300.890769 
L 144.56448 300.890769 
L 146.45952 291.104308 
L 148.35456 287.842154 
L 152.14464 287.842154 
L 154.03968 286.211077 
L 155.93472 282.948923 
L 159.7248 282.948923 
L 161.61984 277.493252 
L 163.51488 275.862175 
L 165.40992 275.862175 
L 167.30496 269.337867 
L 169.2 266.075714 
L 171.09504 264.444637 
L 172.99008 262.251119 
L 174.88512 255.726812 
L 176.78016 254.095735 
L 178.6752 250.271141 
L 182.46528 243.746833 
L 184.36032 242.115756 
L 186.25536 239.922239 
L 188.1504 236.660085 
L 190.04544 232.835491 
L 191.94048 232.835491 
L 193.83552 230.641973 
L 195.73056 230.641973 
L 199.52064 221.867905 
L 201.41568 218.605751 
L 203.31072 216.974674 
L 205.20576 210.956562 
L 208.99584 206.569528 
L 212.78592 206.569528 
L 214.68096 204.938451 
L 216.576 195.095745 
L 218.47104 192.902228 
L 220.36608 192.902228 
L 222.26112 191.271151 
L 227.94624 191.271151 
L 229.84128 189.077634 
L 233.63136 189.077634 
L 235.5264 187.446557 
L 237.42144 185.25304 
L 239.31648 185.25304 
L 241.21152 181.428446 
L 245.0016 177.041411 
L 246.89664 177.041411 
L 248.79168 175.410334 
L 252.58176 175.410334 
L 256.37184 172.14818 
L 262.05696 172.14818 
L 263.952 169.954663 
L 265.84704 165.567629 
L 267.74208 163.374111 
L 269.63712 158.987077 
L 271.53216 156.79356 
L 275.32224 156.79356 
L 277.21728 154.600042 
L 279.11232 154.600042 
L 281.00736 152.406525 
L 284.79744 152.406525 
L 286.69248 150.213008 
L 296.16768 150.213008 
L 298.06272 146.388414 
L 299.95776 146.388414 
L 301.8528 144.194897 
L 305.64288 144.194897 
L 309.43296 139.807862 
L 326.48832 139.807862 
L 328.38336 137.614345 
L 341.64864 137.614345 
L 345.43872 133.22731 
L 353.01888 133.22731 
L 354.91392 131.033793 
L 362.49408 131.033793 
L 364.38912 128.840276 
L 366.28416 128.840276 
L 368.1792 124.453241 
L 371.96928 124.453241 
L 373.86432 122.259724 
L 389.02464 122.259724 
L 390.91968 120.066207 
L 394.70976 120.066207 
L 396.6048 117.87269 
L 400.39488 117.87269 
L 402.28992 115.679172 
L 413.66016 115.679172 
L 417.45024 111.292138 
L 419.34528 111.292138 
L 421.24032 109.098621 
L 426.92544 109.098621 
L 432.61056 102.518069 
L 438.29568 102.518069 
L 440.19072 100.324552 
L 449.66592 100.324552 
L 451.56096 98.131034 
L 464.82624 98.131034 
L 468.61632 93.744 
L 642.96 93.744 
L 642.96 93.744 
" clip-path="url(#pa5444d460e)" style="fill: none; stroke-dasharray: 4.995,2.16; stroke-dashoffset: 0; stroke: #c38a19; stroke-width: 1.35"/>
   </g>
   <g id="line2d_30">
    <path d="M 74.448 348.192 
L 89.60832 348.192 
L 91.50336 346.560923 
L 110.45376 346.560923 
L 112.3488 344.929846 
L 114.24384 341.667692 
L 118.03392 341.667692 
L 119.92896 340.036615 
L 121.824 336.774462 
L 123.71904 336.774462 
L 125.61408 334.580944 
L 131.2992 334.580944 
L 133.19424 332.949867 
L 135.08928 329.687714 
L 136.98432 328.056637 
L 138.87936 328.056637 
L 140.7744 324.232042 
L 142.66944 324.232042 
L 144.56448 318.213931 
L 148.35456 310.564743 
L 150.2496 307.302589 
L 152.14464 303.477995 
L 154.03968 298.022324 
L 155.93472 295.828806 
L 157.82976 292.566653 
L 159.7248 292.566653 
L 161.61984 290.373135 
L 163.51488 284.355024 
L 165.40992 284.355024 
L 167.30496 282.723947 
L 169.2 276.199639 
L 171.09504 272.375045 
L 172.99008 272.375045 
L 174.88512 270.181528 
L 176.78016 270.181528 
L 178.6752 266.356934 
L 180.57024 266.356934 
L 182.46528 264.163416 
L 184.36032 260.901263 
L 186.25536 260.901263 
L 188.1504 255.445592 
L 190.04544 253.814515 
L 191.94048 249.98992 
L 193.83552 248.358844 
L 195.73056 248.358844 
L 197.6256 246.165326 
L 201.41568 239.641019 
L 203.31072 231.42939 
L 205.20576 228.167236 
L 207.1008 228.167236 
L 208.99584 222.149125 
L 210.89088 219.955607 
L 212.78592 216.693454 
L 214.68096 214.499936 
L 216.576 212.868859 
L 218.47104 205.782111 
L 220.36608 199.764 
L 222.26112 198.132923 
L 224.15616 195.939406 
L 226.0512 194.308329 
L 231.73632 194.308329 
L 233.63136 191.046175 
L 235.5264 185.028064 
L 237.42144 182.834546 
L 239.31648 179.572393 
L 241.21152 170.854568 
L 245.0016 167.592414 
L 246.89664 163.76782 
L 248.79168 161.574302 
L 250.68672 157.749708 
L 252.58176 157.749708 
L 254.4768 156.118631 
L 267.74208 156.118631 
L 269.63712 154.487554 
L 271.53216 154.487554 
L 273.4272 147.400806 
L 277.21728 147.400806 
L 279.11232 145.207289 
L 282.9024 145.207289 
L 284.79744 143.013772 
L 286.69248 143.013772 
L 288.58752 141.382695 
L 294.27264 141.382695 
L 296.16768 139.751618 
L 298.06272 137.558101 
L 303.74784 137.558101 
L 305.64288 130.977549 
L 307.53792 129.346472 
L 317.01312 129.346472 
L 318.90816 127.152955 
L 320.8032 127.152955 
L 322.69824 123.328361 
L 326.48832 123.328361 
L 328.38336 119.503767 
L 335.96352 119.503767 
L 337.85856 117.310249 
L 347.33376 117.310249 
L 349.2288 115.116732 
L 353.01888 115.116732 
L 354.91392 112.923215 
L 356.80896 112.923215 
L 358.704 110.729698 
L 360.59904 110.729698 
L 362.49408 106.342663 
L 364.38912 106.342663 
L 366.28416 104.149146 
L 370.07424 104.149146 
L 371.96928 102.518069 
L 373.86432 100.324552 
L 383.33952 100.324552 
L 385.23456 98.131034 
L 396.6048 98.131034 
L 398.49984 95.937517 
L 402.28992 95.937517 
L 404.18496 93.744 
L 642.96 93.744 
L 642.96 93.744 
" clip-path="url(#pa5444d460e)" style="fill: none; stroke-dasharray: 1.35,2.2275; stroke-dashoffset: 0; stroke: #7d8a92; stroke-width: 1.35"/>
   </g>
   <g id="line2d_31">
    <path d="M 74.448 348.192 
L 123.71904 348.192 
L 125.61408 345.998483 
L 127.50912 345.998483 
L 129.40416 341.611448 
L 133.19424 341.611448 
L 135.08928 339.417931 
L 144.56448 339.417931 
L 146.45952 337.224414 
L 157.82976 337.224414 
L 161.61984 332.837379 
L 176.78016 332.837379 
L 178.6752 330.643862 
L 180.57024 330.643862 
L 182.46528 326.256828 
L 186.25536 326.256828 
L 188.1504 321.869793 
L 190.04544 321.869793 
L 191.94048 317.482759 
L 193.83552 315.289241 
L 195.73056 315.289241 
L 197.6256 313.658164 
L 203.31072 307.077613 
L 205.20576 307.077613 
L 207.1008 302.690578 
L 208.99584 302.690578 
L 210.89088 300.497061 
L 212.78592 300.497061 
L 214.68096 298.303544 
L 216.576 298.303544 
L 218.47104 296.110027 
L 222.26112 287.335958 
L 226.0512 287.335958 
L 227.94624 285.14244 
L 237.42144 285.14244 
L 241.21152 280.755406 
L 246.89664 280.755406 
L 248.79168 278.561889 
L 250.68672 274.174854 
L 252.58176 271.981337 
L 262.05696 271.981337 
L 263.952 265.400785 
L 265.84704 265.400785 
L 267.74208 263.207268 
L 269.63712 259.382674 
L 275.32224 259.382674 
L 277.21728 254.995639 
L 281.00736 254.995639 
L 282.9024 250.608605 
L 284.79744 250.608605 
L 286.69248 248.415088 
L 292.3776 248.415088 
L 294.27264 246.22157 
L 296.16768 242.396976 
L 299.95776 242.396976 
L 301.8528 240.203459 
L 303.74784 240.203459 
L 305.64288 238.572382 
L 307.53792 234.747788 
L 313.22304 229.854557 
L 315.11808 229.854557 
L 318.90816 218.943215 
L 320.8032 214.55618 
L 334.06848 214.55618 
L 335.96352 204.713475 
L 353.01888 204.713475 
L 356.80896 198.189167 
L 360.59904 194.927013 
L 364.38912 194.927013 
L 366.28416 193.295936 
L 370.07424 193.295936 
L 377.6544 186.771629 
L 381.44448 186.771629 
L 383.33952 185.140552 
L 385.23456 185.140552 
L 387.1296 183.509475 
L 389.02464 179.684881 
L 392.81472 176.422727 
L 394.70976 171.529496 
L 398.49984 168.267342 
L 406.08 168.267342 
L 409.87008 161.743034 
L 415.5552 161.743034 
L 417.45024 158.480881 
L 421.24032 155.218727 
L 423.13536 155.218727 
L 425.0304 151.956573 
L 426.92544 148.131979 
L 428.82048 148.131979 
L 432.61056 144.869825 
L 436.40064 144.869825 
L 440.19072 141.607671 
L 442.08576 138.345517 
L 443.9808 136.71444 
L 445.87584 136.71444 
L 447.77088 135.083363 
L 449.66592 135.083363 
L 462.9312 123.665825 
L 464.82624 118.772594 
L 466.72128 117.141517 
L 468.61632 113.879363 
L 470.51136 111.685846 
L 474.30144 111.685846 
L 478.09152 108.423692 
L 481.8816 108.423692 
L 483.77664 106.792615 
L 491.3568 106.792615 
L 493.25184 105.161538 
L 497.04192 105.161538 
L 498.93696 103.530462 
L 510.3072 103.530462 
L 512.20224 101.899385 
L 517.88736 101.899385 
L 519.7824 100.268308 
L 527.36256 100.268308 
L 529.2576 98.637231 
L 546.31296 98.637231 
L 548.208 97.006154 
L 551.99808 97.006154 
L 553.89312 95.375077 
L 595.584 95.375077 
L 597.47904 93.744 
L 642.96 93.744 
L 642.96 93.744 
" clip-path="url(#pa5444d460e)" style="fill: none; stroke-dasharray: 8.64,2.16,1.35,2.16; stroke-dashoffset: 0; stroke: #d0526a; stroke-width: 1.35"/>
   </g>
   <g id="line2d_32">
    <path d="M 74.448 348.192 
L 106.66368 348.192 
L 108.55872 345.998483 
L 112.3488 345.998483 
L 114.24384 343.804966 
L 135.08928 343.804966 
L 136.98432 341.611448 
L 146.45952 341.611448 
L 148.35456 339.417931 
L 155.93472 339.417931 
L 157.82976 337.224414 
L 161.61984 337.224414 
L 163.51488 335.030897 
L 165.40992 335.030897 
L 167.30496 332.837379 
L 190.04544 332.837379 
L 191.94048 330.643862 
L 193.83552 326.256828 
L 195.73056 326.256828 
L 203.31072 317.482759 
L 205.20576 317.482759 
L 207.1008 315.289241 
L 210.89088 315.289241 
L 212.78592 310.902207 
L 214.68096 310.902207 
L 216.576 309.27113 
L 218.47104 309.27113 
L 220.36608 302.690578 
L 222.26112 302.690578 
L 224.15616 300.497061 
L 227.94624 300.497061 
L 229.84128 298.303544 
L 231.73632 298.303544 
L 235.5264 293.916509 
L 237.42144 293.916509 
L 241.21152 285.14244 
L 243.10656 282.948923 
L 256.37184 282.948923 
L 258.26688 280.755406 
L 265.84704 280.755406 
L 267.74208 278.561889 
L 269.63712 278.561889 
L 271.53216 274.174854 
L 273.4272 271.981337 
L 277.21728 271.981337 
L 279.11232 269.78782 
L 282.9024 269.78782 
L 284.79744 263.207268 
L 286.69248 263.207268 
L 288.58752 259.382674 
L 296.16768 259.382674 
L 298.06272 254.995639 
L 299.95776 252.802122 
L 301.8528 252.802122 
L 303.74784 250.608605 
L 305.64288 250.608605 
L 307.53792 246.22157 
L 313.22304 246.22157 
L 315.11808 244.028053 
L 317.01312 242.396976 
L 318.90816 242.396976 
L 320.8032 240.203459 
L 324.59328 240.203459 
L 326.48832 238.572382 
L 328.38336 233.116711 
L 330.2784 233.116711 
L 334.06848 229.854557 
L 335.96352 229.854557 
L 339.7536 218.943215 
L 341.64864 214.55618 
L 353.01888 214.55618 
L 354.91392 211.294027 
L 356.80896 204.713475 
L 373.86432 204.713475 
L 377.6544 198.189167 
L 381.44448 194.927013 
L 385.23456 194.927013 
L 387.1296 193.295936 
L 389.02464 193.295936 
L 392.81472 190.033782 
L 394.70976 190.033782 
L 398.49984 186.771629 
L 400.39488 186.771629 
L 404.18496 183.509475 
L 407.97504 183.509475 
L 409.87008 179.684881 
L 411.76512 176.422727 
L 413.66016 174.79165 
L 415.5552 169.898419 
L 417.45024 168.267342 
L 425.0304 168.267342 
L 426.92544 166.636265 
L 428.82048 163.374111 
L 430.71552 161.743034 
L 434.5056 161.743034 
L 436.40064 160.111958 
L 438.29568 155.218727 
L 443.9808 155.218727 
L 445.87584 150.325496 
L 447.77088 148.131979 
L 449.66592 148.131979 
L 451.56096 144.869825 
L 455.35104 144.869825 
L 457.24608 143.238748 
L 459.14112 143.238748 
L 461.03616 139.976594 
L 466.72128 135.083363 
L 468.61632 135.083363 
L 472.4064 131.82121 
L 474.30144 131.82121 
L 476.19648 128.559056 
L 478.09152 128.559056 
L 479.98656 125.296902 
L 483.77664 122.034748 
L 485.67168 117.141517 
L 487.56672 113.879363 
L 489.46176 113.879363 
L 491.3568 111.685846 
L 493.25184 111.685846 
L 495.14688 108.423692 
L 502.72704 108.423692 
L 504.62208 106.792615 
L 512.20224 106.792615 
L 514.09728 105.161538 
L 517.88736 105.161538 
L 519.7824 103.530462 
L 531.15264 103.530462 
L 533.04768 101.899385 
L 536.83776 101.899385 
L 538.7328 100.268308 
L 544.41792 100.268308 
L 546.31296 98.637231 
L 565.26336 98.637231 
L 567.1584 97.006154 
L 570.94848 97.006154 
L 572.84352 95.375077 
L 614.5344 95.375077 
L 616.42944 93.744 
L 642.96 93.744 
L 642.96 93.744 
" clip-path="url(#pa5444d460e)" style="fill: none; stroke-dasharray: 6.75,2.7,1.35,2.7; stroke-dashoffset: 0; stroke: #2f8f84; stroke-width: 1.35"/>
   </g>
   <g id="patch_4">
    <path d="M 74.448 348.192 
L 74.448 93.744 
" style="fill: none; stroke: #000000; stroke-width: 0.8; stroke-linejoin: miter; stroke-linecap: square"/>
   </g>
   <g id="patch_5">
    <path d="M 74.448 348.192 
L 642.96 348.192 
" style="fill: none; stroke: #000000; stroke-width: 0.8; stroke-linejoin: miter; stroke-linecap: square"/>
   </g>
  </g>
  <g id="text_16">
   <text style="font: 18px 'DejaVu Sans', 'Bitstream Vera Sans', 'Computer Modern Sans Serif', 'Lucida Grande', 'Verdana', 'Geneva', 'Lucid', 'Arial', 'Helvetica', 'Avant Garde', sans-serif; text-anchor: start" x="74.448" y="38.229188" transform="rotate(-0 74.448 38.229188)">KSF LCD → WOLED</text>
  </g>
  <g id="text_17">
   <text style="fill: #66747c; font: 10px 'DejaVu Sans', 'Bitstream Vera Sans', 'Computer Modern Sans Serif', 'Lucida Grande', 'Verdana', 'Geneva', 'Lucid', 'Arial', 'Helvetica', 'Avant Garde', sans-serif; text-anchor: start" x="74.448" y="64.728" transform="rotate(-0 74.448 64.728)">D65</text>
  </g>
  <g id="legend_1">
   <g id="line2d_33">
    <path d="M 185.17875 404.151391 
L 194.27875 404.151391 
L 203.37875 404.151391 
" style="fill: none; stroke: #252525; stroke-width: 2.5; stroke-linecap: square"/>
   </g>
   <g id="text_18">
    <text style="font: 9.1px 'DejaVu Sans', 'Bitstream Vera Sans', 'Computer Modern Sans Serif', 'Lucida Grande', 'Verdana', 'Geneva', 'Lucid', 'Arial', 'Helvetica', 'Avant Garde', sans-serif; text-anchor: start" x="210.65875" y="407.336391" transform="rotate(-0 210.65875 407.336391)">Potera CMF</text>
   </g>
   <g id="line2d_34">
    <path d="M 185.17875 417.508484 
L 194.27875 417.508484 
L 203.37875 417.508484 
" style="fill: none; stroke: #3b83b4; stroke-width: 1.35; stroke-linecap: square"/>
   </g>
   <g id="text_19">
    <text style="font: 9.1px 'DejaVu Sans', 'Bitstream Vera Sans', 'Computer Modern Sans Serif', 'Lucida Grande', 'Verdana', 'Geneva', 'Lucid', 'Arial', 'Helvetica', 'Avant Garde', sans-serif; text-anchor: start" x="210.65875" y="420.693484" transform="rotate(-0 210.65875 420.693484)">CIE 2015 2°</text>
   </g>
   <g id="line2d_35">
    <path d="M 282.931234 404.151391 
L 292.031234 404.151391 
L 301.131234 404.151391 
" style="fill: none; stroke-dasharray: 4.995,2.16; stroke-dashoffset: 0; stroke: #c38a19; stroke-width: 1.35"/>
   </g>
   <g id="text_20">
    <text style="font: 9.1px 'DejaVu Sans', 'Bitstream Vera Sans', 'Computer Modern Sans Serif', 'Lucida Grande', 'Verdana', 'Geneva', 'Lucid', 'Arial', 'Helvetica', 'Avant Garde', sans-serif; text-anchor: start" x="308.411234" y="407.336391" transform="rotate(-0 308.411234 407.336391)">CIE 2015 10°</text>
   </g>
   <g id="line2d_36">
    <path d="M 282.931234 417.508484 
L 292.031234 417.508484 
L 301.131234 417.508484 
" style="fill: none; stroke-dasharray: 1.35,2.2275; stroke-dashoffset: 0; stroke: #7d8a92; stroke-width: 1.35"/>
   </g>
   <g id="text_21">
    <text style="font: 9.1px 'DejaVu Sans', 'Bitstream Vera Sans', 'Computer Modern Sans Serif', 'Lucida Grande', 'Verdana', 'Geneva', 'Lucid', 'Arial', 'Helvetica', 'Avant Garde', sans-serif; text-anchor: start" x="308.411234" y="420.693484" transform="rotate(-0 308.411234 420.693484)">CIE 1964 10°</text>
   </g>
   <g id="line2d_37">
    <path d="M 386.473594 404.151391 
L 395.573594 404.151391 
L 404.673594 404.151391 
" style="fill: none; stroke-dasharray: 8.64,2.16,1.35,2.16; stroke-dashoffset: 0; stroke: #d0526a; stroke-width: 1.35"/>
   </g>
   <g id="text_22">
    <text style="font: 9.1px 'DejaVu Sans', 'Bitstream Vera Sans', 'Computer Modern Sans Serif', 'Lucida Grande', 'Verdana', 'Geneva', 'Lucid', 'Arial', 'Helvetica', 'Avant Garde', sans-serif; text-anchor: start" x="411.953594" y="407.336391" transform="rotate(-0 411.953594 407.336391)">CIE 1931 2°</text>
   </g>
   <g id="line2d_38">
    <path d="M 386.473594 417.508484 
L 395.573594 417.508484 
L 404.673594 417.508484 
" style="fill: none; stroke-dasharray: 6.75,2.7,1.35,2.7; stroke-dashoffset: 0; stroke: #2f8f84; stroke-width: 1.35"/>
   </g>
   <g id="text_23">
    <text style="font: 9.1px 'DejaVu Sans', 'Bitstream Vera Sans', 'Computer Modern Sans Serif', 'Lucida Grande', 'Verdana', 'Geneva', 'Lucid', 'Arial', 'Helvetica', 'Avant Garde', sans-serif; text-anchor: start" x="411.953594" y="420.693484" transform="rotate(-0 411.953594 420.693484)">Judd–Vos 1978 2°</text>
   </g>
  </g>
 </g>
 <defs>
  <clipPath id="pa5444d460e">
   <rect x="74.448" y="93.744" width="568.512" height="254.448"/>
  </clipPath>
 </defs>
</svg>
