<?xml version="1.0" encoding="utf-8" standalone="no"?>
<!DOCTYPE svg PUBLIC "-//W3C//DTD SVG 1.1//EN"
  "http://www.w3.org/Graphics/SVG/1.1/DTD/svg11.dtd">
<svg xmlns:xlink="http://www.w3.org/1999/xlink" width="676.8pt" height="446.4pt" viewBox="0 0 676.8 446.4" xmlns="http://www.w3.org/2000/svg" version="1.1">
 <metadata>
  <rdf:RDF xmlns:dc="http://purl.org/dc/elements/1.1/" xmlns:cc="http://creativecommons.org/ns#" xmlns:rdf="http://www.w3.org/1999/02/22-rdf-syntax-ns#">
   <cc:Work>
    <dc:type rdf:resource="http://purl.org/dc/dcmitype/StillImage"/>
    <dc:date>2026-07-20T06:41:58.139723</dc:date>
    <dc:format>image/svg+xml</dc:format>
    <dc:creator>
     <cc:Agent>
      <dc:title>Matplotlib v3.9.4, https://matplotlib.org/</dc:title>
     </cc:Agent>
    </dc:creator>
   </cc:Work>
  </rdf:RDF>
 </metadata>
 <defs>
  <style type="text/css">*{stroke-linejoin: round; stroke-linecap: butt}</style>
 </defs>
 <g id="figure_1">
  <g id="patch_1">
   <path d="M 0 446.4 
L 676.8 446.4 
L 676.8 0 
L 0 0 
z
" style="fill: #ffffff"/>
  </g>
  <g id="axes_1">
   <g id="patch_2">
    <path d="M 74.448 348.192 
L 642.96 348.192 
L 642.96 93.744 
L 74.448 93.744 
z
" style="fill: #ffffff"/>
   </g>
   <g id="patch_3">
    <path d="M 169.2 348.192 
L 358.704 348.192 
L 358.704 93.744 
L 169.2 93.744 
z
" clip-path="url(#p87cbd6f764)" style="fill: #e7f0ea; opacity: 0.58; stroke: #e7f0ea; stroke-linejoin: miter"/>
   </g>
   <g id="matplotlib.axis_1">
    <g id="xtick_1">
     <g id="line2d_1">
      <path d="M 74.448 348.192 
L 74.448 93.744 
" clip-path="url(#p87cbd6f764)" style="fill: none; stroke: #dfe5e8; stroke-width: 0.65; stroke-linecap: square"/>
     </g>
     <g id="line2d_2">
      <defs>
       <path id="m3a50ad0ae0" d="M 0 0 
L 0 3.5 
" style="stroke: #000000; stroke-width: 0.8"/>
      </defs>
      <g>
       <use xlink:href="#m3a50ad0ae0" x="74.448" y="348.192" style="stroke: #000000; stroke-width: 0.8"/>
      </g>
     </g>
     <g id="text_1">
      <text style="font: 10px 'DejaVu Sans', 'Bitstream Vera Sans', 'Computer Modern Sans Serif', 'Lucida Grande', 'Verdana', 'Geneva', 'Lucid', 'Arial', 'Helvetica', 'Avant Garde', sans-serif; text-anchor: middle" x="74.448" y="362.790438" transform="rotate(-0 74.448 362.790438)">0</text>
     </g>
    </g>
    <g id="xtick_2">
     <g id="line2d_3">
      <path d="M 169.2 348.192 
L 169.2 93.744 
" clip-path="url(#p87cbd6f764)" style="fill: none; stroke: #dfe5e8; stroke-width: 0.65; stroke-linecap: square"/>
     </g>
     <g id="line2d_4">
      <g>
       <use xlink:href="#m3a50ad0ae0" x="169.2" y="348.192" style="stroke: #000000; stroke-width: 0.8"/>
      </g>
     </g>
     <g id="text_2">
      <text style="font: 10px 'DejaVu Sans', 'Bitstream Vera Sans', 'Computer Modern Sans Serif', 'Lucida Grande', 'Verdana', 'Geneva', 'Lucid', 'Arial', 'Helvetica', 'Avant Garde', sans-serif; text-anchor: middle" x="169.2" y="362.790438" transform="rotate(-0 169.2 362.790438)">1</text>
     </g>
    </g>
    <g id="xtick_3">
     <g id="line2d_5">
      <path d="M 263.952 348.192 
L 263.952 93.744 
" clip-path="url(#p87cbd6f764)" style="fill: none; stroke: #dfe5e8; stroke-width: 0.65; stroke-linecap: square"/>
     </g>
     <g id="line2d_6">
      <g>
       <use xlink:href="#m3a50ad0ae0" x="263.952" y="348.192" style="stroke: #000000; stroke-width: 0.8"/>
      </g>
     </g>
     <g id="text_3">
      <text style="font: 10px 'DejaVu Sans', 'Bitstream Vera Sans', 'Computer Modern Sans Serif', 'Lucida Grande', 'Verdana', 'Geneva', 'Lucid', 'Arial', 'Helvetica', 'Avant Garde', sans-serif; text-anchor: middle" x="263.952" y="362.790438" transform="rotate(-0 263.952 362.790438)">2</text>
     </g>
    </g>
    <g id="xtick_4">
     <g id="line2d_7">
      <path d="M 358.704 348.192 
L 358.704 93.744 
" clip-path="url(#p87cbd6f764)" style="fill: none; stroke: #dfe5e8; stroke-width: 0.65; stroke-linecap: square"/>
     </g>
     <g id="line2d_8">
      <g>
       <use xlink:href="#m3a50ad0ae0" x="358.704" y="348.192" style="stroke: #000000; stroke-width: 0.8"/>
      </g>
     </g>
     <g id="text_4">
      <text style="font: 10px 'DejaVu Sans', 'Bitstream Vera Sans', 'Computer Modern Sans Serif', 'Lucida Grande', 'Verdana', 'Geneva', 'Lucid', 'Arial', 'Helvetica', 'Avant Garde', sans-serif; text-anchor: middle" x="358.704" y="362.790438" transform="rotate(-0 358.704 362.790438)">3</text>
     </g>
    </g>
    <g id="xtick_5">
     <g id="line2d_9">
      <path d="M 453.456 348.192 
L 453.456 93.744 
" clip-path="url(#p87cbd6f764)" style="fill: none; stroke: #dfe5e8; stroke-width: 0.65; stroke-linecap: square"/>
     </g>
     <g id="line2d_10">
      <g>
       <use xlink:href="#m3a50ad0ae0" x="453.456" y="348.192" style="stroke: #000000; stroke-width: 0.8"/>
      </g>
     </g>
     <g id="text_5">
      <text style="font: 10px 'DejaVu Sans', 'Bitstream Vera Sans', 'Computer Modern Sans Serif', 'Lucida Grande', 'Verdana', 'Geneva', 'Lucid', 'Arial', 'Helvetica', 'Avant Garde', sans-serif; text-anchor: middle" x="453.456" y="362.790438" transform="rotate(-0 453.456 362.790438)">4</text>
     </g>
    </g>
    <g id="xtick_6">
     <g id="line2d_11">
      <path d="M 548.208 348.192 
L 548.208 93.744 
" clip-path="url(#p87cbd6f764)" style="fill: none; stroke: #dfe5e8; stroke-width: 0.65; stroke-linecap: square"/>
     </g>
     <g id="line2d_12">
      <g>
       <use xlink:href="#m3a50ad0ae0" x="548.208" y="348.192" style="stroke: #000000; stroke-width: 0.8"/>
      </g>
     </g>
     <g id="text_6">
      <text style="font: 10px 'DejaVu Sans', 'Bitstream Vera Sans', 'Computer Modern Sans Serif', 'Lucida Grande', 'Verdana', 'Geneva', 'Lucid', 'Arial', 'Helvetica', 'Avant Garde', sans-serif; text-anchor: middle" x="548.208" y="362.790438" transform="rotate(-0 548.208 362.790438)">5</text>
     </g>
    </g>
    <g id="xtick_7">
     <g id="line2d_13">
      <path d="M 642.96 348.192 
L 642.96 93.744 
" clip-path="url(#p87cbd6f764)" style="fill: none; stroke: #dfe5e8; stroke-width: 0.65; stroke-linecap: square"/>
     </g>
     <g id="line2d_14">
      <g>
       <use xlink:href="#m3a50ad0ae0" x="642.96" y="348.192" style="stroke: #000000; stroke-width: 0.8"/>
      </g>
     </g>
     <g id="text_7">
      <text style="font: 10px 'DejaVu Sans', 'Bitstream Vera Sans', 'Computer Modern Sans Serif', 'Lucida Grande', 'Verdana', 'Geneva', 'Lucid', 'Arial', 'Helvetica', 'Avant Garde', sans-serif; text-anchor: middle" x="642.96" y="362.790438" transform="rotate(-0 642.96 362.790438)">6</text>
     </g>
    </g>
    <g id="text_8">
     <text style="font: 10px 'DejaVu Sans', 'Bitstream Vera Sans', 'Computer Modern Sans Serif', 'Lucida Grande', 'Verdana', 'Geneva', 'Lucid', 'Arial', 'Helvetica', 'Avant Garde', sans-serif; text-anchor: middle" x="358.704" y="376.468563" transform="rotate(-0 358.704 376.468563)">sUCS dE threshold</text>
    </g>
   </g>
   <g id="matplotlib.axis_2">
    <g id="ytick_1">
     <g id="line2d_15">
      <path d="M 74.448 348.192 
L 642.96 348.192 
" clip-path="url(#p87cbd6f764)" style="fill: none; stroke: #dfe5e8; stroke-width: 0.65; stroke-linecap: square"/>
     </g>
     <g id="line2d_16">
      <defs>
       <path id="mde6e7b78d9" d="M 0 0 
L -3.5 0 
" style="stroke: #000000; stroke-width: 0.8"/>
      </defs>
      <g>
       <use xlink:href="#mde6e7b78d9" x="74.448" y="348.192" style="stroke: #000000; stroke-width: 0.8"/>
      </g>
     </g>
     <g id="text_9">
      <text style="font: 10px 'DejaVu Sans', 'Bitstream Vera Sans', 'Computer Modern Sans Serif', 'Lucida Grande', 'Verdana', 'Geneva', 'Lucid', 'Arial', 'Helvetica', 'Avant Garde', sans-serif; text-anchor: end" x="67.448" y="351.991219" transform="rotate(-0 67.448 351.991219)">0</text>
     </g>
    </g>
    <g id="ytick_2">
     <g id="line2d_17">
      <path d="M 74.448 297.3024 
L 642.96 297.3024 
" clip-path="url(#p87cbd6f764)" style="fill: none; stroke: #dfe5e8; stroke-width: 0.65; stroke-linecap: square"/>
     </g>
     <g id="line2d_18">
      <g>
       <use xlink:href="#mde6e7b78d9" x="74.448" y="297.3024" style="stroke: #000000; stroke-width: 0.8"/>
      </g>
     </g>
     <g id="text_10">
      <text style="font: 10px 'DejaVu Sans', 'Bitstream Vera Sans', 'Computer Modern Sans Serif', 'Lucida Grande', 'Verdana', 'Geneva', 'Lucid', 'Arial', 'Helvetica', 'Avant Garde', sans-serif; text-anchor: end" x="67.448" y="301.101619" transform="rotate(-0 67.448 301.101619)">20</text>
     </g>
    </g>
    <g id="ytick_3">
     <g id="line2d_19">
      <path d="M 74.448 246.4128 
L 642.96 246.4128 
" clip-path="url(#p87cbd6f764)" style="fill: none; stroke: #dfe5e8; stroke-width: 0.65; stroke-linecap: square"/>
     </g>
     <g id="line2d_20">
      <g>
       <use xlink:href="#mde6e7b78d9" x="74.448" y="246.4128" style="stroke: #000000; stroke-width: 0.8"/>
      </g>
     </g>
     <g id="text_11">
      <text style="font: 10px 'DejaVu Sans', 'Bitstream Vera Sans', 'Computer Modern Sans Serif', 'Lucida Grande', 'Verdana', 'Geneva', 'Lucid', 'Arial', 'Helvetica', 'Avant Garde', sans-serif; text-anchor: end" x="67.448" y="250.212019" transform="rotate(-0 67.448 250.212019)">40</text>
     </g>
    </g>
    <g id="ytick_4">
     <g id="line2d_21">
      <path d="M 74.448 195.5232 
L 642.96 195.5232 
" clip-path="url(#p87cbd6f764)" style="fill: none; stroke: #dfe5e8; stroke-width: 0.65; stroke-linecap: square"/>
     </g>
     <g id="line2d_22">
      <g>
       <use xlink:href="#mde6e7b78d9" x="74.448" y="195.5232" style="stroke: #000000; stroke-width: 0.8"/>
      </g>
     </g>
     <g id="text_12">
      <text style="font: 10px 'DejaVu Sans', 'Bitstream Vera Sans', 'Computer Modern Sans Serif', 'Lucida Grande', 'Verdana', 'Geneva', 'Lucid', 'Arial', 'Helvetica', 'Avant Garde', sans-serif; text-anchor: end" x="67.448" y="199.322419" transform="rotate(-0 67.448 199.322419)">60</text>
     </g>
    </g>
    <g id="ytick_5">
     <g id="line2d_23">
      <path d="M 74.448 144.6336 
L 642.96 144.6336 
" clip-path="url(#p87cbd6f764)" style="fill: none; stroke: #dfe5e8; stroke-width: 0.65; stroke-linecap: square"/>
     </g>
     <g id="line2d_24">
      <g>
       <use xlink:href="#mde6e7b78d9" x="74.448" y="144.6336" style="stroke: #000000; stroke-width: 0.8"/>
      </g>
     </g>
     <g id="text_13">
      <text style="font: 10px 'DejaVu Sans', 'Bitstream Vera Sans', 'Computer Modern Sans Serif', 'Lucida Grande', 'Verdana', 'Geneva', 'Lucid', 'Arial', 'Helvetica', 'Avant Garde', sans-serif; text-anchor: end" x="67.448" y="148.432819" transform="rotate(-0 67.448 148.432819)">80</text>
     </g>
    </g>
    <g id="ytick_6">
     <g id="line2d_25">
      <path d="M 74.448 93.744 
L 642.96 93.744 
" clip-path="url(#p87cbd6f764)" style="fill: none; stroke: #dfe5e8; stroke-width: 0.65; stroke-linecap: square"/>
     </g>
     <g id="line2d_26">
      <g>
       <use xlink:href="#mde6e7b78d9" x="74.448" y="93.744" style="stroke: #000000; stroke-width: 0.8"/>
      </g>
     </g>
     <g id="text_14">
      <text style="font: 10px 'DejaVu Sans', 'Bitstream Vera Sans', 'Computer Modern Sans Serif', 'Lucida Grande', 'Verdana', 'Geneva', 'Lucid', 'Arial', 'Helvetica', 'Avant Garde', sans-serif; text-anchor: end" x="67.448" y="97.543219" transform="rotate(-0 67.448 97.543219)">100</text>
     </g>
    </g>
    <g id="text_15">
     <text style="font: 10px 'DejaVu Sans', 'Bitstream Vera Sans', 'Computer Modern Sans Serif', 'Lucida Grande', 'Verdana', 'Geneva', 'Lucid', 'Arial', 'Helvetica', 'Avant Garde', sans-serif; text-anchor: middle" x="42.280812" y="220.968" transform="rotate(-90 42.280812 220.968)">observers%</text>
    </g>
   </g>
   <g id="line2d_27">
    <path d="M 74.448 348.192 
L 85.81824 348.192 
L 87.71328 344.929846 
L 89.60832 343.298769 
L 91.50336 343.298769 
L 93.3984 341.105252 
L 95.29344 341.105252 
L 97.18848 337.843098 
L 100.97856 337.843098 
L 104.76864 334.580944 
L 110.45376 334.580944 
L 112.3488 331.31879 
L 114.24384 331.31879 
L 116.13888 322.600966 
L 118.03392 318.213931 
L 119.92896 316.582854 
L 121.824 310.564743 
L 123.71904 308.933666 
L 125.61408 306.740149 
L 127.50912 295.772562 
L 129.40416 293.579045 
L 131.2992 288.685814 
L 133.19424 280.474186 
L 135.08928 278.843109 
L 136.98432 278.843109 
L 138.87936 276.649592 
L 142.66944 270.125284 
L 144.56448 268.494207 
L 146.45952 265.232053 
L 148.35456 265.232053 
L 150.2496 260.338822 
L 152.14464 260.338822 
L 154.03968 256.514228 
L 155.93472 251.620997 
L 157.82976 251.620997 
L 159.7248 242.340732 
L 161.61984 236.322621 
L 163.51488 232.498027 
L 165.40992 228.110992 
L 169.2 224.848838 
L 171.09504 224.848838 
L 172.99008 223.217761 
L 174.88512 219.955607 
L 176.78016 211.743979 
L 178.6752 207.356944 
L 180.57024 204.09479 
L 182.46528 200.270196 
L 184.36032 189.921294 
L 186.25536 184.465623 
L 188.1504 184.465623 
L 190.04544 178.447512 
L 191.94048 176.816435 
L 193.83552 176.816435 
L 195.73056 172.991841 
L 197.6256 171.360764 
L 199.52064 171.360764 
L 201.41568 167.53617 
L 205.20576 164.274016 
L 207.1008 160.449422 
L 208.99584 155.556191 
L 210.89088 152.294037 
L 212.78592 150.10052 
L 216.576 146.838366 
L 224.15616 146.838366 
L 226.0512 142.451332 
L 229.84128 139.189178 
L 233.63136 139.189178 
L 237.42144 134.802143 
L 239.31648 133.171066 
L 241.21152 128.784032 
L 243.10656 128.784032 
L 245.0016 126.590515 
L 248.79168 126.590515 
L 250.68672 123.328361 
L 252.58176 121.134844 
L 262.05696 121.134844 
L 263.952 119.503767 
L 267.74208 119.503767 
L 269.63712 115.116732 
L 271.53216 115.116732 
L 273.4272 112.923215 
L 277.21728 112.923215 
L 279.11232 110.729698 
L 282.9024 110.729698 
L 284.79744 106.342663 
L 286.69248 106.342663 
L 288.58752 104.149146 
L 292.3776 104.149146 
L 298.06272 97.568594 
L 299.95776 97.568594 
L 301.8528 95.937517 
L 315.11808 95.937517 
L 317.01312 93.744 
L 642.96 93.744 
L 642.96 93.744 
" clip-path="url(#p87cbd6f764)" style="fill: none; stroke: #252525; stroke-width: 2.5; stroke-linecap: square"/>
   </g>
   <g id="line2d_28">
    <path d="M 74.448 348.192 
L 91.50336 348.192 
L 95.29344 343.804966 
L 99.08352 343.804966 
L 100.97856 341.611448 
L 106.66368 341.611448 
L 108.55872 337.224414 
L 114.24384 337.224414 
L 116.13888 335.030897 
L 119.92896 326.256828 
L 123.71904 326.256828 
L 125.61408 322.432233 
L 129.40416 322.432233 
L 131.2992 320.238716 
L 133.19424 320.238716 
L 135.08928 318.045199 
L 136.98432 318.045199 
L 138.87936 315.851682 
L 140.7744 315.851682 
L 142.66944 313.658164 
L 144.56448 307.077613 
L 146.45952 302.690578 
L 150.2496 298.303544 
L 152.14464 298.303544 
L 154.03968 291.722992 
L 159.7248 291.722992 
L 161.61984 280.755406 
L 165.40992 280.755406 
L 167.30496 276.368371 
L 169.2 276.368371 
L 171.09504 274.174854 
L 172.99008 268.156743 
L 174.88512 268.156743 
L 176.78016 261.576191 
L 178.6752 257.751597 
L 180.57024 253.364562 
L 184.36032 250.102408 
L 186.25536 247.908891 
L 188.1504 243.521857 
L 190.04544 240.259703 
L 193.83552 232.610515 
L 195.73056 224.398886 
L 197.6256 220.011851 
L 199.52064 217.818334 
L 201.41568 216.187257 
L 203.31072 212.362663 
L 205.20576 212.362663 
L 207.1008 210.169146 
L 214.68096 210.169146 
L 216.576 208.538069 
L 222.26112 208.538069 
L 224.15616 206.344552 
L 226.0512 206.344552 
L 231.73632 201.451321 
L 233.63136 198.189167 
L 235.5264 196.55809 
L 237.42144 194.364573 
L 246.89664 186.209188 
L 248.79168 186.209188 
L 250.68672 184.578111 
L 256.37184 184.578111 
L 258.26688 181.315958 
L 260.16192 176.422727 
L 265.84704 171.529496 
L 269.63712 165.005188 
L 271.53216 163.374111 
L 273.4272 156.287363 
L 275.32224 156.287363 
L 279.11232 153.02521 
L 281.00736 153.02521 
L 282.9024 151.394133 
L 286.69248 151.394133 
L 288.58752 149.763056 
L 290.48256 149.763056 
L 292.3776 148.131979 
L 294.27264 141.045231 
L 296.16768 137.783077 
L 298.06272 136.152 
L 299.95776 129.627692 
L 301.8528 124.734462 
L 309.43296 118.210154 
L 311.328 114.948 
L 313.22304 114.948 
L 315.11808 113.316923 
L 318.90816 113.316923 
L 326.48832 106.792615 
L 332.17344 106.792615 
L 334.06848 105.161538 
L 339.7536 105.161538 
L 341.64864 103.530462 
L 345.43872 103.530462 
L 349.2288 100.268308 
L 366.28416 100.268308 
L 370.07424 97.006154 
L 375.75936 97.006154 
L 377.6544 95.375077 
L 417.45024 95.375077 
L 419.34528 93.744 
L 642.96 93.744 
L 642.96 93.744 
" clip-path="url(#p87cbd6f764)" style="fill: none; stroke: #3b83b4; stroke-width: 1.35; stroke-linecap: square"/>
   </g>
   <g id="line2d_29">
    <path d="M 74.448 348.192 
L 83.9232 348.192 
L 91.50336 341.667692 
L 93.3984 341.667692 
L 95.29344 340.036615 
L 97.18848 340.036615 
L 99.08352 335.143385 
L 100.97856 333.512308 
L 102.8736 333.512308 
L 106.66368 326.988 
L 108.55872 322.094769 
L 112.3488 318.832615 
L 114.24384 318.832615 
L 116.13888 312.308308 
L 118.03392 309.046154 
L 119.92896 302.521846 
L 125.61408 297.628615 
L 127.50912 297.628615 
L 131.2992 291.104308 
L 133.19424 286.211077 
L 135.08928 284.58 
L 136.98432 284.58 
L 138.87936 282.948923 
L 140.7744 282.948923 
L 142.66944 274.793538 
L 144.56448 274.793538 
L 146.45952 266.075714 
L 148.35456 264.444637 
L 150.2496 255.164371 
L 152.14464 255.164371 
L 154.03968 251.339777 
L 157.82976 251.339777 
L 159.7248 244.253029 
L 161.61984 242.059512 
L 163.51488 242.059512 
L 165.40992 237.166281 
L 167.30496 237.166281 
L 171.09504 230.641973 
L 174.88512 227.37982 
L 176.78016 221.924149 
L 178.6752 218.099554 
L 180.57024 214.837401 
L 182.46528 210.450366 
L 184.36032 210.450366 
L 186.25536 206.063332 
L 188.1504 199.48278 
L 190.04544 199.48278 
L 191.94048 195.095745 
L 193.83552 195.095745 
L 195.73056 190.708711 
L 197.6256 185.25304 
L 199.52064 183.621963 
L 201.41568 183.621963 
L 203.31072 181.990886 
L 208.99584 181.990886 
L 210.89088 180.359809 
L 214.68096 180.359809 
L 216.576 178.166292 
L 218.47104 173.779257 
L 220.36608 173.779257 
L 222.26112 169.392223 
L 224.15616 163.374111 
L 226.0512 161.180594 
L 239.31648 161.180594 
L 241.21152 158.987077 
L 243.10656 152.968966 
L 245.0016 152.968966 
L 248.79168 148.581931 
L 250.68672 144.194897 
L 252.58176 142.001379 
L 256.37184 142.001379 
L 258.26688 139.807862 
L 263.952 139.807862 
L 265.84704 137.614345 
L 277.21728 137.614345 
L 281.00736 133.22731 
L 290.48256 133.22731 
L 292.3776 131.033793 
L 299.95776 131.033793 
L 303.74784 126.646759 
L 305.64288 122.259724 
L 309.43296 117.87269 
L 326.48832 117.87269 
L 328.38336 115.679172 
L 332.17344 115.679172 
L 339.7536 106.905103 
L 343.54368 106.905103 
L 347.33376 102.518069 
L 356.80896 102.518069 
L 358.704 98.131034 
L 360.59904 98.131034 
L 362.49408 95.937517 
L 377.6544 95.937517 
L 379.54944 93.744 
L 642.96 93.744 
L 642.96 93.744 
" clip-path="url(#p87cbd6f764)" style="fill: none; stroke-dasharray: 4.995,2.16; stroke-dashoffset: 0; stroke: #c38a19; stroke-width: 1.35"/>
   </g>
   <g id="line2d_30">
    <path d="M 74.448 348.192 
L 82.02816 348.192 
L 83.9232 346.560923 
L 97.18848 346.560923 
L 99.08352 344.367406 
L 100.97856 344.367406 
L 102.8736 342.736329 
L 108.55872 342.736329 
L 110.45376 339.474175 
L 112.3488 339.474175 
L 114.24384 334.018504 
L 118.03392 334.018504 
L 119.92896 332.387427 
L 121.824 326.369316 
L 123.71904 326.369316 
L 125.61408 318.720127 
L 127.50912 317.08905 
L 129.40416 314.895533 
L 131.2992 309.439862 
L 133.19424 307.808785 
L 135.08928 307.808785 
L 136.98432 303.984191 
L 138.87936 298.52852 
L 140.7744 295.266366 
L 144.56448 295.266366 
L 146.45952 292.004212 
L 148.35456 282.723947 
L 152.14464 278.336912 
L 154.03968 271.250164 
L 155.93472 269.056647 
L 159.7248 262.53234 
L 161.61984 258.707745 
L 163.51488 254.320711 
L 165.40992 248.86504 
L 167.30496 245.602886 
L 169.2 240.709655 
L 171.09504 239.078578 
L 172.99008 239.078578 
L 174.88512 235.253984 
L 176.78016 231.99183 
L 178.6752 229.798313 
L 180.57024 228.167236 
L 182.46528 223.274005 
L 184.36032 223.274005 
L 186.25536 212.925103 
L 188.1504 204.713475 
L 190.04544 201.451321 
L 191.94048 189.977538 
L 193.83552 184.521867 
L 197.6256 180.134833 
L 199.52064 174.679162 
L 201.41568 172.485645 
L 203.31072 172.485645 
L 205.20576 164.274016 
L 207.1008 162.642939 
L 210.89088 162.642939 
L 212.78592 159.380785 
L 214.68096 157.749708 
L 216.576 153.925114 
L 220.36608 153.925114 
L 222.26112 152.294037 
L 224.15616 152.294037 
L 226.0512 150.66296 
L 227.94624 150.66296 
L 229.84128 148.469443 
L 231.73632 146.838366 
L 233.63136 143.013772 
L 235.5264 143.013772 
L 237.42144 141.382695 
L 239.31648 139.189178 
L 241.21152 137.558101 
L 243.10656 135.364584 
L 245.0016 130.977549 
L 246.89664 128.784032 
L 256.37184 128.784032 
L 258.26688 126.590515 
L 260.16192 122.76592 
L 263.952 119.503767 
L 265.84704 117.310249 
L 271.53216 117.310249 
L 273.4272 112.923215 
L 275.32224 112.923215 
L 277.21728 110.729698 
L 284.79744 110.729698 
L 288.58752 106.342663 
L 292.3776 106.342663 
L 294.27264 101.955629 
L 298.06272 101.955629 
L 299.95776 99.762111 
L 301.8528 99.762111 
L 303.74784 97.568594 
L 305.64288 97.568594 
L 307.53792 95.937517 
L 317.01312 95.937517 
L 318.90816 93.744 
L 642.96 93.744 
L 642.96 93.744 
" clip-path="url(#p87cbd6f764)" style="fill: none; stroke-dasharray: 1.35,2.2275; stroke-dashoffset: 0; stroke: #7d8a92; stroke-width: 1.35"/>
   </g>
   <g id="line2d_31">
    <path d="M 74.448 348.192 
L 108.55872 348.192 
L 110.45376 345.998483 
L 114.24384 345.998483 
L 116.13888 343.804966 
L 118.03392 339.417931 
L 125.61408 339.417931 
L 127.50912 337.224414 
L 136.98432 337.224414 
L 138.87936 335.030897 
L 148.35456 335.030897 
L 150.2496 333.39982 
L 155.93472 333.39982 
L 157.82976 329.012785 
L 161.61984 324.625751 
L 163.51488 320.238716 
L 165.40992 320.238716 
L 171.09504 313.658164 
L 172.99008 309.27113 
L 180.57024 309.27113 
L 182.46528 307.077613 
L 184.36032 307.077613 
L 186.25536 304.884095 
L 188.1504 304.884095 
L 190.04544 302.690578 
L 193.83552 289.529475 
L 195.73056 287.335958 
L 197.6256 282.948923 
L 199.52064 282.948923 
L 205.20576 276.368371 
L 208.99584 276.368371 
L 210.89088 272.543777 
L 216.576 272.543777 
L 218.47104 268.156743 
L 222.26112 268.156743 
L 226.0512 263.769708 
L 227.94624 257.189156 
L 229.84128 255.55808 
L 231.73632 255.55808 
L 233.63136 247.908891 
L 235.5264 245.715374 
L 239.31648 245.715374 
L 243.10656 241.32834 
L 245.0016 239.697263 
L 246.89664 239.697263 
L 248.79168 234.241592 
L 250.68672 230.416997 
L 252.58176 230.416997 
L 254.4768 227.154844 
L 256.37184 225.523767 
L 258.26688 225.523767 
L 260.16192 223.330249 
L 262.05696 221.699172 
L 271.53216 210.731586 
L 273.4272 210.731586 
L 275.32224 208.538069 
L 277.21728 205.275915 
L 279.11232 205.275915 
L 281.00736 203.644838 
L 282.9024 203.644838 
L 284.79744 194.927013 
L 286.69248 193.295936 
L 288.58752 193.295936 
L 292.3776 190.033782 
L 301.8528 190.033782 
L 303.74784 186.771629 
L 305.64288 181.878398 
L 309.43296 178.616244 
L 311.328 173.160573 
L 313.22304 171.529496 
L 315.11808 168.267342 
L 317.01312 168.267342 
L 322.69824 163.374111 
L 324.59328 158.480881 
L 326.48832 150.325496 
L 328.38336 147.063342 
L 330.2784 145.432265 
L 332.17344 145.432265 
L 334.06848 143.801188 
L 335.96352 141.607671 
L 337.85856 139.976594 
L 339.7536 135.083363 
L 341.64864 135.083363 
L 345.43872 131.82121 
L 349.2288 122.034748 
L 351.12384 119.841231 
L 353.01888 119.841231 
L 354.91392 118.210154 
L 358.704 118.210154 
L 360.59904 114.948 
L 362.49408 114.948 
L 366.28416 111.685846 
L 368.1792 111.685846 
L 370.07424 108.423692 
L 371.96928 106.792615 
L 381.44448 106.792615 
L 383.33952 103.530462 
L 390.91968 103.530462 
L 392.81472 101.899385 
L 396.6048 101.899385 
L 398.49984 100.268308 
L 411.76512 100.268308 
L 413.66016 98.637231 
L 417.45024 98.637231 
L 421.24032 95.375077 
L 462.9312 95.375077 
L 464.82624 93.744 
L 642.96 93.744 
L 642.96 93.744 
" clip-path="url(#p87cbd6f764)" style="fill: none; stroke-dasharray: 8.64,2.16,1.35,2.16; stroke-dashoffset: 0; stroke: #d0526a; stroke-width: 1.35"/>
   </g>
   <g id="line2d_32">
    <path d="M 74.448 348.192 
L 97.18848 348.192 
L 100.97856 343.804966 
L 125.61408 343.804966 
L 129.40416 339.417931 
L 138.87936 339.417931 
L 140.7744 337.224414 
L 150.2496 337.224414 
L 152.14464 335.030897 
L 154.03968 335.030897 
L 155.93472 332.837379 
L 167.30496 332.837379 
L 169.2 331.206302 
L 171.09504 331.206302 
L 172.99008 329.012785 
L 174.88512 324.625751 
L 176.78016 322.432233 
L 178.6752 322.432233 
L 180.57024 318.045199 
L 182.46528 315.851682 
L 184.36032 315.851682 
L 186.25536 313.658164 
L 190.04544 313.658164 
L 191.94048 309.27113 
L 193.83552 309.27113 
L 195.73056 307.077613 
L 199.52064 307.077613 
L 201.41568 300.497061 
L 203.31072 298.303544 
L 207.1008 298.303544 
L 208.99584 291.722992 
L 210.89088 287.335958 
L 212.78592 287.335958 
L 214.68096 282.948923 
L 220.36608 276.368371 
L 226.0512 276.368371 
L 227.94624 274.737294 
L 229.84128 272.543777 
L 233.63136 272.543777 
L 237.42144 268.156743 
L 243.10656 268.156743 
L 245.0016 263.769708 
L 246.89664 257.751597 
L 248.79168 253.364562 
L 250.68672 251.171045 
L 252.58176 247.908891 
L 254.4768 245.715374 
L 256.37184 245.715374 
L 258.26688 243.521857 
L 260.16192 243.521857 
L 262.05696 241.32834 
L 263.952 241.32834 
L 265.84704 239.697263 
L 267.74208 234.241592 
L 269.63712 232.610515 
L 271.53216 230.416997 
L 273.4272 226.592403 
L 279.11232 221.699172 
L 281.00736 221.699172 
L 282.9024 219.505655 
L 284.79744 219.505655 
L 292.3776 210.731586 
L 294.27264 209.100509 
L 296.16768 205.275915 
L 298.06272 202.013761 
L 301.8528 202.013761 
L 303.74784 197.120531 
L 305.64288 193.295936 
L 307.53792 191.664859 
L 309.43296 191.664859 
L 311.328 190.033782 
L 320.8032 190.033782 
L 322.69824 186.771629 
L 324.59328 180.247321 
L 326.48832 180.247321 
L 328.38336 173.723013 
L 330.2784 173.723013 
L 332.17344 169.898419 
L 334.06848 169.898419 
L 335.96352 165.005188 
L 337.85856 165.005188 
L 339.7536 163.374111 
L 341.64864 160.111958 
L 343.54368 150.325496 
L 345.43872 147.063342 
L 347.33376 147.063342 
L 353.01888 142.170111 
L 354.91392 138.345517 
L 360.59904 133.452286 
L 362.49408 130.190133 
L 364.38912 125.296902 
L 368.1792 122.034748 
L 370.07424 119.841231 
L 371.96928 119.841231 
L 373.86432 118.210154 
L 375.75936 118.210154 
L 377.6544 116.579077 
L 379.54944 113.316923 
L 381.44448 113.316923 
L 383.33952 111.685846 
L 385.23456 111.685846 
L 389.02464 108.423692 
L 390.91968 108.423692 
L 392.81472 106.792615 
L 398.49984 106.792615 
L 402.28992 103.530462 
L 407.97504 103.530462 
L 409.87008 101.899385 
L 413.66016 101.899385 
L 415.5552 100.268308 
L 426.92544 100.268308 
L 428.82048 98.637231 
L 434.5056 98.637231 
L 436.40064 97.006154 
L 438.29568 97.006154 
L 440.19072 95.375077 
L 479.98656 95.375077 
L 481.8816 93.744 
L 642.96 93.744 
L 642.96 93.744 
" clip-path="url(#p87cbd6f764)" style="fill: none; stroke-dasharray: 6.75,2.7,1.35,2.7; stroke-dashoffset: 0; stroke: #2f8f84; stroke-width: 1.35"/>
   </g>
   <g id="patch_4">
    <path d="M 74.448 348.192 
L 74.448 93.744 
" style="fill: none; stroke: #000000; stroke-width: 0.8; stroke-linejoin: miter; stroke-linecap: square"/>
   </g>
   <g id="patch_5">
    <path d="M 74.448 348.192 
L 642.96 348.192 
" style="fill: none; stroke: #000000; stroke-width: 0.8; stroke-linejoin: miter; stroke-linecap: square"/>
   </g>
  </g>
  <g id="text_16">
   <text style="font: 18px 'DejaVu Sans', 'Bitstream Vera Sans', 'Computer Modern Sans Serif', 'Lucida Grande', 'Verdana', 'Geneva', 'Lucid', 'Arial', 'Helvetica', 'Avant Garde', sans-serif; text-anchor: start" x="74.448" y="38.229188" transform="rotate(-0 74.448 38.229188)">KSF LCD → WOLED</text>
  </g>
  <g id="text_17">
   <text style="fill: #66747c; font: 10px 'DejaVu Sans', 'Bitstream Vera Sans', 'Computer Modern Sans Serif', 'Lucida Grande', 'Verdana', 'Geneva', 'Lucid', 'Arial', 'Helvetica', 'Avant Garde', sans-serif; text-anchor: start" x="74.448" y="64.728" transform="rotate(-0 74.448 64.728)">LED-V2</text>
  </g>
  <g id="legend_1">
   <g id="line2d_33">
    <path d="M 185.17875 404.151391 
L 194.27875 404.151391 
L 203.37875 404.151391 
" style="fill: none; stroke: #252525; stroke-width: 2.5; stroke-linecap: square"/>
   </g>
   <g id="text_18">
    <text style="font: 9.1px 'DejaVu Sans', 'Bitstream Vera Sans', 'Computer Modern Sans Serif', 'Lucida Grande', 'Verdana', 'Geneva', 'Lucid', 'Arial', 'Helvetica', 'Avant Garde', sans-serif; text-anchor: start" x="210.65875" y="407.336391" transform="rotate(-0 210.65875 407.336391)">Potera CMF</text>
   </g>
   <g id="line2d_34">
    <path d="M 185.17875 417.508484 
L 194.27875 417.508484 
L 203.37875 417.508484 
" style="fill: none; stroke: #3b83b4; stroke-width: 1.35; stroke-linecap: square"/>
   </g>
   <g id="text_19">
    <text style="font: 9.1px 'DejaVu Sans', 'Bitstream Vera Sans', 'Computer Modern Sans Serif', 'Lucida Grande', 'Verdana', 'Geneva', 'Lucid', 'Arial', 'Helvetica', 'Avant Garde', sans-serif; text-anchor: start" x="210.65875" y="420.693484" transform="rotate(-0 210.65875 420.693484)">CIE 2015 2°</text>
   </g>
   <g id="line2d_35">
    <path d="M 282.931234 404.151391 
L 292.031234 404.151391 
L 301.131234 404.151391 
" style="fill: none; stroke-dasharray: 4.995,2.16; stroke-dashoffset: 0; stroke: #c38a19; stroke-width: 1.35"/>
   </g>
   <g id="text_20">
    <text style="font: 9.1px 'DejaVu Sans', 'Bitstream Vera Sans', 'Computer Modern Sans Serif', 'Lucida Grande', 'Verdana', 'Geneva', 'Lucid', 'Arial', 'Helvetica', 'Avant Garde', sans-serif; text-anchor: start" x="308.411234" y="407.336391" transform="rotate(-0 308.411234 407.336391)">CIE 2015 10°</text>
   </g>
   <g id="line2d_36">
    <path d="M 282.931234 417.508484 
L 292.031234 417.508484 
L 301.131234 417.508484 
" style="fill: none; stroke-dasharray: 1.35,2.2275; stroke-dashoffset: 0; stroke: #7d8a92; stroke-width: 1.35"/>
   </g>
   <g id="text_21">
    <text style="font: 9.1px 'DejaVu Sans', 'Bitstream Vera Sans', 'Computer Modern Sans Serif', 'Lucida Grande', 'Verdana', 'Geneva', 'Lucid', 'Arial', 'Helvetica', 'Avant Garde', sans-serif; text-anchor: start" x="308.411234" y="420.693484" transform="rotate(-0 308.411234 420.693484)">CIE 1964 10°</text>
   </g>
   <g id="line2d_37">
    <path d="M 386.473594 404.151391 
L 395.573594 404.151391 
L 404.673594 404.151391 
" style="fill: none; stroke-dasharray: 8.64,2.16,1.35,2.16; stroke-dashoffset: 0; stroke: #d0526a; stroke-width: 1.35"/>
   </g>
   <g id="text_22">
    <text style="font: 9.1px 'DejaVu Sans', 'Bitstream Vera Sans', 'Computer Modern Sans Serif', 'Lucida Grande', 'Verdana', 'Geneva', 'Lucid', 'Arial', 'Helvetica', 'Avant Garde', sans-serif; text-anchor: start" x="411.953594" y="407.336391" transform="rotate(-0 411.953594 407.336391)">CIE 1931 2°</text>
   </g>
   <g id="line2d_38">
    <path d="M 386.473594 417.508484 
L 395.573594 417.508484 
L 404.673594 417.508484 
" style="fill: none; stroke-dasharray: 6.75,2.7,1.35,2.7; stroke-dashoffset: 0; stroke: #2f8f84; stroke-width: 1.35"/>
   </g>
   <g id="text_23">
    <text style="font: 9.1px 'DejaVu Sans', 'Bitstream Vera Sans', 'Computer Modern Sans Serif', 'Lucida Grande', 'Verdana', 'Geneva', 'Lucid', 'Arial', 'Helvetica', 'Avant Garde', sans-serif; text-anchor: start" x="411.953594" y="420.693484" transform="rotate(-0 411.953594 420.693484)">Judd–Vos 1978 2°</text>
   </g>
  </g>
 </g>
 <defs>
  <clipPath id="p87cbd6f764">
   <rect x="74.448" y="93.744" width="568.512" height="254.448"/>
  </clipPath>
 </defs>
</svg>
