<?xml version="1.0" encoding="utf-8" standalone="no"?>
<!DOCTYPE svg PUBLIC "-//W3C//DTD SVG 1.1//EN"
  "http://www.w3.org/Graphics/SVG/1.1/DTD/svg11.dtd">
<svg xmlns:xlink="http://www.w3.org/1999/xlink" width="676.8pt" height="446.4pt" viewBox="0 0 676.8 446.4" xmlns="http://www.w3.org/2000/svg" version="1.1">
 <metadata>
  <rdf:RDF xmlns:dc="http://purl.org/dc/elements/1.1/" xmlns:cc="http://creativecommons.org/ns#" xmlns:rdf="http://www.w3.org/1999/02/22-rdf-syntax-ns#">
   <cc:Work>
    <dc:type rdf:resource="http://purl.org/dc/dcmitype/StillImage"/>
    <dc:date>2026-07-20T06:41:55.740765</dc:date>
    <dc:format>image/svg+xml</dc:format>
    <dc:creator>
     <cc:Agent>
      <dc:title>Matplotlib v3.9.4, https://matplotlib.org/</dc:title>
     </cc:Agent>
    </dc:creator>
   </cc:Work>
  </rdf:RDF>
 </metadata>
 <defs>
  <style type="text/css">*{stroke-linejoin: round; stroke-linecap: butt}</style>
 </defs>
 <g id="figure_1">
  <g id="patch_1">
   <path d="M 0 446.4 
L 676.8 446.4 
L 676.8 0 
L 0 0 
z
" style="fill: #ffffff"/>
  </g>
  <g id="axes_1">
   <g id="patch_2">
    <path d="M 74.448 348.192 
L 642.96 348.192 
L 642.96 93.744 
L 74.448 93.744 
z
" style="fill: #ffffff"/>
   </g>
   <g id="patch_3">
    <path d="M 169.2 348.192 
L 358.704 348.192 
L 358.704 93.744 
L 169.2 93.744 
z
" clip-path="url(#pfcad5e751d)" style="fill: #e7f0ea; opacity: 0.58; stroke: #e7f0ea; stroke-linejoin: miter"/>
   </g>
   <g id="matplotlib.axis_1">
    <g id="xtick_1">
     <g id="line2d_1">
      <path d="M 74.448 348.192 
L 74.448 93.744 
" clip-path="url(#pfcad5e751d)" style="fill: none; stroke: #dfe5e8; stroke-width: 0.65; stroke-linecap: square"/>
     </g>
     <g id="line2d_2">
      <defs>
       <path id="m100709cb71" d="M 0 0 
L 0 3.5 
" style="stroke: #000000; stroke-width: 0.8"/>
      </defs>
      <g>
       <use xlink:href="#m100709cb71" x="74.448" y="348.192" style="stroke: #000000; stroke-width: 0.8"/>
      </g>
     </g>
     <g id="text_1">
      <text style="font: 10px 'DejaVu Sans', 'Bitstream Vera Sans', 'Computer Modern Sans Serif', 'Lucida Grande', 'Verdana', 'Geneva', 'Lucid', 'Arial', 'Helvetica', 'Avant Garde', sans-serif; text-anchor: middle" x="74.448" y="362.790438" transform="rotate(-0 74.448 362.790438)">0</text>
     </g>
    </g>
    <g id="xtick_2">
     <g id="line2d_3">
      <path d="M 169.2 348.192 
L 169.2 93.744 
" clip-path="url(#pfcad5e751d)" style="fill: none; stroke: #dfe5e8; stroke-width: 0.65; stroke-linecap: square"/>
     </g>
     <g id="line2d_4">
      <g>
       <use xlink:href="#m100709cb71" x="169.2" y="348.192" style="stroke: #000000; stroke-width: 0.8"/>
      </g>
     </g>
     <g id="text_2">
      <text style="font: 10px 'DejaVu Sans', 'Bitstream Vera Sans', 'Computer Modern Sans Serif', 'Lucida Grande', 'Verdana', 'Geneva', 'Lucid', 'Arial', 'Helvetica', 'Avant Garde', sans-serif; text-anchor: middle" x="169.2" y="362.790438" transform="rotate(-0 169.2 362.790438)">1</text>
     </g>
    </g>
    <g id="xtick_3">
     <g id="line2d_5">
      <path d="M 263.952 348.192 
L 263.952 93.744 
" clip-path="url(#pfcad5e751d)" style="fill: none; stroke: #dfe5e8; stroke-width: 0.65; stroke-linecap: square"/>
     </g>
     <g id="line2d_6">
      <g>
       <use xlink:href="#m100709cb71" x="263.952" y="348.192" style="stroke: #000000; stroke-width: 0.8"/>
      </g>
     </g>
     <g id="text_3">
      <text style="font: 10px 'DejaVu Sans', 'Bitstream Vera Sans', 'Computer Modern Sans Serif', 'Lucida Grande', 'Verdana', 'Geneva', 'Lucid', 'Arial', 'Helvetica', 'Avant Garde', sans-serif; text-anchor: middle" x="263.952" y="362.790438" transform="rotate(-0 263.952 362.790438)">2</text>
     </g>
    </g>
    <g id="xtick_4">
     <g id="line2d_7">
      <path d="M 358.704 348.192 
L 358.704 93.744 
" clip-path="url(#pfcad5e751d)" style="fill: none; stroke: #dfe5e8; stroke-width: 0.65; stroke-linecap: square"/>
     </g>
     <g id="line2d_8">
      <g>
       <use xlink:href="#m100709cb71" x="358.704" y="348.192" style="stroke: #000000; stroke-width: 0.8"/>
      </g>
     </g>
     <g id="text_4">
      <text style="font: 10px 'DejaVu Sans', 'Bitstream Vera Sans', 'Computer Modern Sans Serif', 'Lucida Grande', 'Verdana', 'Geneva', 'Lucid', 'Arial', 'Helvetica', 'Avant Garde', sans-serif; text-anchor: middle" x="358.704" y="362.790438" transform="rotate(-0 358.704 362.790438)">3</text>
     </g>
    </g>
    <g id="xtick_5">
     <g id="line2d_9">
      <path d="M 453.456 348.192 
L 453.456 93.744 
" clip-path="url(#pfcad5e751d)" style="fill: none; stroke: #dfe5e8; stroke-width: 0.65; stroke-linecap: square"/>
     </g>
     <g id="line2d_10">
      <g>
       <use xlink:href="#m100709cb71" x="453.456" y="348.192" style="stroke: #000000; stroke-width: 0.8"/>
      </g>
     </g>
     <g id="text_5">
      <text style="font: 10px 'DejaVu Sans', 'Bitstream Vera Sans', 'Computer Modern Sans Serif', 'Lucida Grande', 'Verdana', 'Geneva', 'Lucid', 'Arial', 'Helvetica', 'Avant Garde', sans-serif; text-anchor: middle" x="453.456" y="362.790438" transform="rotate(-0 453.456 362.790438)">4</text>
     </g>
    </g>
    <g id="xtick_6">
     <g id="line2d_11">
      <path d="M 548.208 348.192 
L 548.208 93.744 
" clip-path="url(#pfcad5e751d)" style="fill: none; stroke: #dfe5e8; stroke-width: 0.65; stroke-linecap: square"/>
     </g>
     <g id="line2d_12">
      <g>
       <use xlink:href="#m100709cb71" x="548.208" y="348.192" style="stroke: #000000; stroke-width: 0.8"/>
      </g>
     </g>
     <g id="text_6">
      <text style="font: 10px 'DejaVu Sans', 'Bitstream Vera Sans', 'Computer Modern Sans Serif', 'Lucida Grande', 'Verdana', 'Geneva', 'Lucid', 'Arial', 'Helvetica', 'Avant Garde', sans-serif; text-anchor: middle" x="548.208" y="362.790438" transform="rotate(-0 548.208 362.790438)">5</text>
     </g>
    </g>
    <g id="xtick_7">
     <g id="line2d_13">
      <path d="M 642.96 348.192 
L 642.96 93.744 
" clip-path="url(#pfcad5e751d)" style="fill: none; stroke: #dfe5e8; stroke-width: 0.65; stroke-linecap: square"/>
     </g>
     <g id="line2d_14">
      <g>
       <use xlink:href="#m100709cb71" x="642.96" y="348.192" style="stroke: #000000; stroke-width: 0.8"/>
      </g>
     </g>
     <g id="text_7">
      <text style="font: 10px 'DejaVu Sans', 'Bitstream Vera Sans', 'Computer Modern Sans Serif', 'Lucida Grande', 'Verdana', 'Geneva', 'Lucid', 'Arial', 'Helvetica', 'Avant Garde', sans-serif; text-anchor: middle" x="642.96" y="362.790438" transform="rotate(-0 642.96 362.790438)">6</text>
     </g>
    </g>
    <g id="text_8">
     <text style="font: 10px 'DejaVu Sans', 'Bitstream Vera Sans', 'Computer Modern Sans Serif', 'Lucida Grande', 'Verdana', 'Geneva', 'Lucid', 'Arial', 'Helvetica', 'Avant Garde', sans-serif; text-anchor: middle" x="358.704" y="376.468563" transform="rotate(-0 358.704 376.468563)">sUCS dE threshold</text>
    </g>
   </g>
   <g id="matplotlib.axis_2">
    <g id="ytick_1">
     <g id="line2d_15">
      <path d="M 74.448 348.192 
L 642.96 348.192 
" clip-path="url(#pfcad5e751d)" style="fill: none; stroke: #dfe5e8; stroke-width: 0.65; stroke-linecap: square"/>
     </g>
     <g id="line2d_16">
      <defs>
       <path id="me6b9ebf744" d="M 0 0 
L -3.5 0 
" style="stroke: #000000; stroke-width: 0.8"/>
      </defs>
      <g>
       <use xlink:href="#me6b9ebf744" x="74.448" y="348.192" style="stroke: #000000; stroke-width: 0.8"/>
      </g>
     </g>
     <g id="text_9">
      <text style="font: 10px 'DejaVu Sans', 'Bitstream Vera Sans', 'Computer Modern Sans Serif', 'Lucida Grande', 'Verdana', 'Geneva', 'Lucid', 'Arial', 'Helvetica', 'Avant Garde', sans-serif; text-anchor: end" x="67.448" y="351.991219" transform="rotate(-0 67.448 351.991219)">0</text>
     </g>
    </g>
    <g id="ytick_2">
     <g id="line2d_17">
      <path d="M 74.448 297.3024 
L 642.96 297.3024 
" clip-path="url(#pfcad5e751d)" style="fill: none; stroke: #dfe5e8; stroke-width: 0.65; stroke-linecap: square"/>
     </g>
     <g id="line2d_18">
      <g>
       <use xlink:href="#me6b9ebf744" x="74.448" y="297.3024" style="stroke: #000000; stroke-width: 0.8"/>
      </g>
     </g>
     <g id="text_10">
      <text style="font: 10px 'DejaVu Sans', 'Bitstream Vera Sans', 'Computer Modern Sans Serif', 'Lucida Grande', 'Verdana', 'Geneva', 'Lucid', 'Arial', 'Helvetica', 'Avant Garde', sans-serif; text-anchor: end" x="67.448" y="301.101619" transform="rotate(-0 67.448 301.101619)">20</text>
     </g>
    </g>
    <g id="ytick_3">
     <g id="line2d_19">
      <path d="M 74.448 246.4128 
L 642.96 246.4128 
" clip-path="url(#pfcad5e751d)" style="fill: none; stroke: #dfe5e8; stroke-width: 0.65; stroke-linecap: square"/>
     </g>
     <g id="line2d_20">
      <g>
       <use xlink:href="#me6b9ebf744" x="74.448" y="246.4128" style="stroke: #000000; stroke-width: 0.8"/>
      </g>
     </g>
     <g id="text_11">
      <text style="font: 10px 'DejaVu Sans', 'Bitstream Vera Sans', 'Computer Modern Sans Serif', 'Lucida Grande', 'Verdana', 'Geneva', 'Lucid', 'Arial', 'Helvetica', 'Avant Garde', sans-serif; text-anchor: end" x="67.448" y="250.212019" transform="rotate(-0 67.448 250.212019)">40</text>
     </g>
    </g>
    <g id="ytick_4">
     <g id="line2d_21">
      <path d="M 74.448 195.5232 
L 642.96 195.5232 
" clip-path="url(#pfcad5e751d)" style="fill: none; stroke: #dfe5e8; stroke-width: 0.65; stroke-linecap: square"/>
     </g>
     <g id="line2d_22">
      <g>
       <use xlink:href="#me6b9ebf744" x="74.448" y="195.5232" style="stroke: #000000; stroke-width: 0.8"/>
      </g>
     </g>
     <g id="text_12">
      <text style="font: 10px 'DejaVu Sans', 'Bitstream Vera Sans', 'Computer Modern Sans Serif', 'Lucida Grande', 'Verdana', 'Geneva', 'Lucid', 'Arial', 'Helvetica', 'Avant Garde', sans-serif; text-anchor: end" x="67.448" y="199.322419" transform="rotate(-0 67.448 199.322419)">60</text>
     </g>
    </g>
    <g id="ytick_5">
     <g id="line2d_23">
      <path d="M 74.448 144.6336 
L 642.96 144.6336 
" clip-path="url(#pfcad5e751d)" style="fill: none; stroke: #dfe5e8; stroke-width: 0.65; stroke-linecap: square"/>
     </g>
     <g id="line2d_24">
      <g>
       <use xlink:href="#me6b9ebf744" x="74.448" y="144.6336" style="stroke: #000000; stroke-width: 0.8"/>
      </g>
     </g>
     <g id="text_13">
      <text style="font: 10px 'DejaVu Sans', 'Bitstream Vera Sans', 'Computer Modern Sans Serif', 'Lucida Grande', 'Verdana', 'Geneva', 'Lucid', 'Arial', 'Helvetica', 'Avant Garde', sans-serif; text-anchor: end" x="67.448" y="148.432819" transform="rotate(-0 67.448 148.432819)">80</text>
     </g>
    </g>
    <g id="ytick_6">
     <g id="line2d_25">
      <path d="M 74.448 93.744 
L 642.96 93.744 
" clip-path="url(#pfcad5e751d)" style="fill: none; stroke: #dfe5e8; stroke-width: 0.65; stroke-linecap: square"/>
     </g>
     <g id="line2d_26">
      <g>
       <use xlink:href="#me6b9ebf744" x="74.448" y="93.744" style="stroke: #000000; stroke-width: 0.8"/>
      </g>
     </g>
     <g id="text_14">
      <text style="font: 10px 'DejaVu Sans', 'Bitstream Vera Sans', 'Computer Modern Sans Serif', 'Lucida Grande', 'Verdana', 'Geneva', 'Lucid', 'Arial', 'Helvetica', 'Avant Garde', sans-serif; text-anchor: end" x="67.448" y="97.543219" transform="rotate(-0 67.448 97.543219)">100</text>
     </g>
    </g>
    <g id="text_15">
     <text style="font: 10px 'DejaVu Sans', 'Bitstream Vera Sans', 'Computer Modern Sans Serif', 'Lucida Grande', 'Verdana', 'Geneva', 'Lucid', 'Arial', 'Helvetica', 'Avant Garde', sans-serif; text-anchor: middle" x="42.280812" y="220.968" transform="rotate(-90 42.280812 220.968)">observers%</text>
    </g>
   </g>
   <g id="line2d_27">
    <path d="M 74.448 348.192 
L 118.03392 348.192 
L 119.92896 344.367406 
L 121.824 342.173889 
L 123.71904 340.542812 
L 133.19424 340.542812 
L 135.08928 338.349294 
L 136.98432 335.087141 
L 138.87936 333.456064 
L 140.7744 330.19391 
L 152.14464 330.19391 
L 155.93472 325.806875 
L 159.7248 322.544721 
L 163.51488 322.544721 
L 165.40992 320.351204 
L 171.09504 320.351204 
L 172.99008 317.08905 
L 174.88512 315.457973 
L 176.78016 315.457973 
L 184.36032 308.933666 
L 186.25536 305.671512 
L 188.1504 304.040435 
L 190.04544 298.584764 
L 191.94048 296.953687 
L 193.83552 296.953687 
L 195.73056 295.32261 
L 201.41568 295.32261 
L 203.31072 292.060456 
L 205.20576 290.429379 
L 207.1008 287.167225 
L 208.99584 284.973708 
L 210.89088 283.342631 
L 212.78592 281.149114 
L 214.68096 279.518037 
L 218.47104 279.518037 
L 220.36608 277.32452 
L 222.26112 277.32452 
L 224.15616 275.693443 
L 231.73632 275.693443 
L 233.63136 274.062366 
L 235.5264 271.868849 
L 239.31648 268.606695 
L 241.21152 266.413178 
L 243.10656 263.151024 
L 245.0016 261.519947 
L 250.68672 261.519947 
L 252.58176 259.88887 
L 254.4768 259.88887 
L 256.37184 256.626716 
L 258.26688 254.995639 
L 262.05696 254.995639 
L 263.952 251.733485 
L 265.84704 250.102408 
L 267.74208 247.908891 
L 269.63712 246.277814 
L 273.4272 246.277814 
L 275.32224 244.084297 
L 286.69248 244.084297 
L 288.58752 242.45322 
L 290.48256 242.45322 
L 292.3776 238.628626 
L 294.27264 236.435109 
L 296.16768 232.610515 
L 298.06272 230.979438 
L 299.95776 228.78592 
L 303.74784 228.78592 
L 305.64288 225.523767 
L 309.43296 222.261613 
L 313.22304 215.737305 
L 318.90816 215.737305 
L 320.8032 212.475151 
L 324.59328 212.475151 
L 326.48832 210.844074 
L 328.38336 210.844074 
L 330.2784 207.01948 
L 332.17344 204.825963 
L 334.06848 203.194886 
L 335.96352 201.001369 
L 337.85856 197.739215 
L 343.54368 197.739215 
L 345.43872 196.108138 
L 347.33376 192.845984 
L 351.12384 192.845984 
L 353.01888 189.58383 
L 360.59904 189.58383 
L 362.49408 187.390313 
L 364.38912 187.390313 
L 373.86432 179.234928 
L 375.75936 177.041411 
L 377.6544 175.410334 
L 383.33952 175.410334 
L 385.23456 173.216817 
L 390.91968 173.216817 
L 392.81472 171.58574 
L 400.39488 171.58574 
L 404.18496 167.198706 
L 409.87008 167.198706 
L 411.76512 165.005188 
L 423.13536 165.005188 
L 425.0304 163.374111 
L 430.71552 163.374111 
L 432.61056 161.180594 
L 434.5056 157.356 
L 443.9808 157.356 
L 445.87584 155.162483 
L 468.61632 155.162483 
L 470.51136 152.968966 
L 474.30144 152.968966 
L 476.19648 150.775448 
L 481.8816 150.775448 
L 483.77664 148.581931 
L 498.93696 148.581931 
L 500.832 142.001379 
L 504.62208 142.001379 
L 506.51712 139.807862 
L 510.3072 139.807862 
L 512.20224 135.420828 
L 515.99232 135.420828 
L 517.88736 133.22731 
L 529.2576 133.22731 
L 531.15264 131.033793 
L 533.04768 131.033793 
L 534.94272 128.840276 
L 548.208 128.840276 
L 550.10304 126.646759 
L 563.36832 126.646759 
L 565.26336 124.453241 
L 595.584 124.453241 
L 597.47904 122.259724 
L 603.16416 122.259724 
L 605.0592 120.066207 
L 624.0096 120.066207 
L 625.90464 117.87269 
L 642.96 117.87269 
L 642.96 117.87269 
" clip-path="url(#pfcad5e751d)" style="fill: none; stroke: #252525; stroke-width: 2.5; stroke-linecap: square"/>
   </g>
   <g id="line2d_28">
    <path d="M 74.448 348.192 
L 119.92896 348.192 
L 121.824 345.998483 
L 135.08928 345.998483 
L 136.98432 343.804966 
L 148.35456 343.804966 
L 150.2496 341.611448 
L 171.09504 341.611448 
L 172.99008 335.030897 
L 180.57024 335.030897 
L 182.46528 330.643862 
L 186.25536 330.643862 
L 188.1504 328.450345 
L 197.6256 328.450345 
L 199.52064 326.256828 
L 201.41568 326.256828 
L 203.31072 324.06331 
L 208.99584 324.06331 
L 210.89088 319.676276 
L 220.36608 319.676276 
L 222.26112 317.482759 
L 229.84128 317.482759 
L 233.63136 313.095724 
L 235.5264 308.70869 
L 248.79168 308.70869 
L 250.68672 306.515172 
L 258.26688 306.515172 
L 260.16192 304.321655 
L 262.05696 304.321655 
L 263.952 299.934621 
L 265.84704 299.934621 
L 267.74208 297.741103 
L 279.11232 297.741103 
L 281.00736 295.547586 
L 284.79744 295.547586 
L 286.69248 293.354069 
L 288.58752 291.722992 
L 296.16768 291.722992 
L 299.95776 287.335958 
L 301.8528 282.948923 
L 307.53792 282.948923 
L 309.43296 278.561889 
L 313.22304 278.561889 
L 315.11808 276.368371 
L 320.8032 276.368371 
L 322.69824 274.174854 
L 324.59328 274.174854 
L 326.48832 272.543777 
L 330.2784 272.543777 
L 332.17344 270.35026 
L 334.06848 268.719183 
L 341.64864 268.719183 
L 343.54368 266.525666 
L 347.33376 266.525666 
L 353.01888 259.945114 
L 360.59904 259.945114 
L 362.49408 256.12052 
L 364.38912 254.489443 
L 366.28416 252.295926 
L 370.07424 252.295926 
L 371.96928 250.102408 
L 381.44448 250.102408 
L 383.33952 248.471332 
L 385.23456 248.471332 
L 387.1296 246.277814 
L 392.81472 246.277814 
L 394.70976 244.646737 
L 396.6048 244.646737 
L 398.49984 241.384584 
L 400.39488 239.753507 
L 402.28992 237.559989 
L 413.66016 237.559989 
L 415.5552 235.366472 
L 419.34528 235.366472 
L 421.24032 233.735395 
L 423.13536 233.735395 
L 428.82048 228.842164 
L 430.71552 228.842164 
L 432.61056 225.01757 
L 442.08576 225.01757 
L 443.9808 223.386493 
L 447.77088 223.386493 
L 449.66592 221.755416 
L 453.456 221.755416 
L 455.35104 220.12434 
L 457.24608 220.12434 
L 459.14112 216.862186 
L 461.03616 216.862186 
L 464.82624 213.600032 
L 466.72128 213.600032 
L 468.61632 209.212997 
L 470.51136 209.212997 
L 472.4064 207.01948 
L 476.19648 207.01948 
L 478.09152 204.825963 
L 481.8816 201.563809 
L 491.3568 201.563809 
L 495.14688 198.301655 
L 506.51712 198.301655 
L 508.41216 195.039501 
L 512.20224 195.039501 
L 514.09728 190.146271 
L 515.99232 188.515194 
L 517.88736 188.515194 
L 519.7824 186.321676 
L 523.57248 186.321676 
L 525.46752 184.128159 
L 529.2576 180.866005 
L 531.15264 180.866005 
L 533.04768 179.234928 
L 534.94272 177.041411 
L 538.7328 177.041411 
L 540.62784 173.779257 
L 548.208 173.779257 
L 550.10304 171.58574 
L 551.99808 169.954663 
L 555.78816 169.954663 
L 557.6832 168.323586 
L 559.57824 168.323586 
L 561.47328 166.692509 
L 563.36832 164.498992 
L 565.26336 162.867915 
L 567.1584 162.867915 
L 569.05344 160.674398 
L 572.84352 160.674398 
L 574.73856 159.043321 
L 576.6336 159.043321 
L 578.52864 156.849804 
L 580.42368 155.218727 
L 582.31872 151.956573 
L 586.1088 151.956573 
L 588.00384 150.325496 
L 589.89888 150.325496 
L 593.68896 147.063342 
L 608.84928 147.063342 
L 610.74432 145.432265 
L 612.63936 145.432265 
L 614.5344 143.801188 
L 618.32448 143.801188 
L 620.21952 142.170111 
L 622.11456 142.170111 
L 624.0096 138.907958 
L 627.79968 138.907958 
L 629.69472 137.276881 
L 631.58976 137.276881 
L 633.4848 135.645804 
L 635.37984 135.645804 
L 637.27488 132.38365 
L 639.16992 132.38365 
L 641.06496 127.490419 
L 642.96 125.859342 
L 642.96 125.859342 
" clip-path="url(#pfcad5e751d)" style="fill: none; stroke: #3b83b4; stroke-width: 1.35; stroke-linecap: square"/>
   </g>
   <g id="line2d_29">
    <path d="M 74.448 348.192 
L 119.92896 348.192 
L 121.824 344.929846 
L 123.71904 343.298769 
L 131.2992 343.298769 
L 133.19424 338.405538 
L 136.98432 338.405538 
L 138.87936 336.774462 
L 144.56448 336.774462 
L 146.45952 333.512308 
L 150.2496 333.512308 
L 154.03968 330.250154 
L 155.93472 330.250154 
L 157.82976 326.988 
L 159.7248 325.356923 
L 161.61984 325.356923 
L 165.40992 322.094769 
L 167.30496 322.094769 
L 172.99008 317.201538 
L 174.88512 315.008021 
L 180.57024 310.11479 
L 182.46528 306.852637 
L 184.36032 306.852637 
L 188.1504 300.328329 
L 190.04544 298.697252 
L 191.94048 295.435098 
L 193.83552 290.541867 
L 195.73056 288.91079 
L 197.6256 288.91079 
L 199.52064 287.279714 
L 203.31072 287.279714 
L 205.20576 284.01756 
L 207.1008 280.192966 
L 208.99584 278.561889 
L 210.89088 273.668658 
L 212.78592 270.406504 
L 214.68096 266.58191 
L 218.47104 266.58191 
L 220.36608 264.388393 
L 222.26112 264.388393 
L 224.15616 262.757316 
L 227.94624 262.757316 
L 229.84128 257.864085 
L 231.73632 256.233008 
L 235.5264 249.7087 
L 237.42144 249.7087 
L 239.31648 245.884106 
L 245.0016 245.884106 
L 246.89664 244.253029 
L 248.79168 244.253029 
L 250.68672 238.797358 
L 254.4768 238.797358 
L 256.37184 237.166281 
L 258.26688 233.904127 
L 260.16192 228.448456 
L 262.05696 226.817379 
L 265.84704 226.817379 
L 267.74208 222.992785 
L 269.63712 222.992785 
L 271.53216 218.605751 
L 275.32224 218.605751 
L 277.21728 216.974674 
L 281.00736 216.974674 
L 282.9024 212.081443 
L 284.79744 210.450366 
L 296.16768 210.450366 
L 298.06272 208.819289 
L 299.95776 208.819289 
L 303.74784 204.432255 
L 305.64288 204.432255 
L 307.53792 202.238737 
L 315.11808 202.238737 
L 317.01312 200.60766 
L 318.90816 197.345507 
L 324.59328 197.345507 
L 326.48832 193.520912 
L 332.17344 193.520912 
L 334.06848 189.696318 
L 364.38912 189.696318 
L 366.28416 188.065241 
L 371.96928 188.065241 
L 373.86432 185.871724 
L 390.91968 185.871724 
L 394.70976 181.48469 
L 411.76512 181.48469 
L 413.66016 179.291172 
L 421.24032 179.291172 
L 423.13536 177.097655 
L 438.29568 177.097655 
L 440.19072 174.904138 
L 457.24608 174.904138 
L 459.14112 172.710621 
L 470.51136 172.710621 
L 472.4064 170.517103 
L 487.56672 170.517103 
L 489.46176 168.323586 
L 497.04192 168.323586 
L 498.93696 166.130069 
L 515.99232 166.130069 
L 517.88736 163.936552 
L 523.57248 163.936552 
L 525.46752 161.743034 
L 533.04768 161.743034 
L 534.94272 159.549517 
L 546.31296 159.549517 
L 548.208 157.356 
L 555.78816 157.356 
L 557.6832 155.162483 
L 591.79392 155.162483 
L 595.584 150.775448 
L 606.95424 150.775448 
L 608.84928 148.581931 
L 616.42944 148.581931 
L 620.21952 144.194897 
L 622.11456 144.194897 
L 624.0096 139.807862 
L 627.79968 139.807862 
L 629.69472 137.614345 
L 633.4848 137.614345 
L 637.27488 133.22731 
L 641.06496 133.22731 
L 642.96 131.033793 
L 642.96 131.033793 
" clip-path="url(#pfcad5e751d)" style="fill: none; stroke-dasharray: 4.995,2.16; stroke-dashoffset: 0; stroke: #c38a19; stroke-width: 1.35"/>
   </g>
   <g id="line2d_30">
    <path d="M 74.448 348.192 
L 131.2992 348.192 
L 135.08928 344.929846 
L 138.87936 344.929846 
L 140.7744 341.667692 
L 142.66944 341.667692 
L 144.56448 340.036615 
L 150.2496 340.036615 
L 154.03968 336.774462 
L 155.93472 336.774462 
L 157.82976 331.31879 
L 159.7248 329.125273 
L 161.61984 324.232042 
L 163.51488 324.232042 
L 165.40992 322.600966 
L 167.30496 319.338812 
L 169.2 319.338812 
L 172.99008 312.814504 
L 174.88512 311.183427 
L 176.78016 311.183427 
L 178.6752 307.921273 
L 180.57024 305.727756 
L 182.46528 304.096679 
L 184.36032 304.096679 
L 188.1504 300.834525 
L 190.04544 297.572371 
L 193.83552 294.310218 
L 195.73056 294.310218 
L 197.6256 290.485623 
L 201.41568 290.485623 
L 203.31072 287.223469 
L 205.20576 287.223469 
L 207.1008 283.961316 
L 208.99584 279.574281 
L 210.89088 277.380764 
L 212.78592 274.11861 
L 214.68096 272.487533 
L 224.15616 272.487533 
L 226.0512 270.294016 
L 227.94624 270.294016 
L 231.73632 267.031862 
L 235.5264 267.031862 
L 239.31648 260.507554 
L 241.21152 258.314037 
L 245.0016 250.664849 
L 248.79168 247.402695 
L 250.68672 242.509464 
L 252.58176 240.878387 
L 260.16192 240.878387 
L 262.05696 237.616233 
L 263.952 235.985156 
L 265.84704 232.723003 
L 267.74208 231.091926 
L 269.63712 231.091926 
L 271.53216 227.829772 
L 273.4272 226.198695 
L 279.11232 226.198695 
L 284.79744 221.305464 
L 286.69248 217.48087 
L 288.58752 217.48087 
L 290.48256 214.218716 
L 296.16768 214.218716 
L 298.06272 212.587639 
L 301.8528 212.587639 
L 303.74784 207.694408 
L 305.64288 205.500891 
L 309.43296 202.238737 
L 311.328 198.414143 
L 317.01312 198.414143 
L 318.90816 196.220626 
L 322.69824 196.220626 
L 324.59328 192.958472 
L 326.48832 192.958472 
L 328.38336 191.327395 
L 334.06848 191.327395 
L 335.96352 189.133878 
L 337.85856 189.133878 
L 339.7536 186.940361 
L 353.01888 186.940361 
L 354.91392 183.115767 
L 364.38912 183.115767 
L 366.28416 180.922249 
L 370.07424 180.922249 
L 371.96928 179.291172 
L 377.6544 179.291172 
L 381.44448 174.904138 
L 398.49984 174.904138 
L 400.39488 172.710621 
L 419.34528 172.710621 
L 421.24032 170.517103 
L 432.61056 170.517103 
L 434.5056 168.323586 
L 438.29568 168.323586 
L 440.19072 166.130069 
L 459.14112 166.130069 
L 461.03616 163.936552 
L 466.72128 163.936552 
L 468.61632 161.743034 
L 474.30144 161.743034 
L 476.19648 159.549517 
L 489.46176 159.549517 
L 491.3568 157.356 
L 497.04192 157.356 
L 498.93696 155.162483 
L 533.04768 155.162483 
L 536.83776 150.775448 
L 548.208 150.775448 
L 550.10304 148.581931 
L 559.57824 148.581931 
L 563.36832 144.194897 
L 565.26336 139.807862 
L 572.84352 139.807862 
L 578.52864 133.22731 
L 584.21376 133.22731 
L 586.1088 131.033793 
L 588.00384 131.033793 
L 589.89888 128.840276 
L 616.42944 128.840276 
L 618.32448 126.646759 
L 627.79968 126.646759 
L 629.69472 124.453241 
L 642.96 124.453241 
L 642.96 124.453241 
" clip-path="url(#pfcad5e751d)" style="fill: none; stroke-dasharray: 1.35,2.2275; stroke-dashoffset: 0; stroke: #7d8a92; stroke-width: 1.35"/>
   </g>
   <g id="line2d_31">
    <path d="M 74.448 348.192 
L 184.36032 348.192 
L 186.25536 345.998483 
L 191.94048 345.998483 
L 193.83552 343.804966 
L 195.73056 343.804966 
L 197.6256 341.611448 
L 212.78592 341.611448 
L 214.68096 339.417931 
L 220.36608 339.417931 
L 224.15616 330.643862 
L 231.73632 330.643862 
L 233.63136 326.256828 
L 235.5264 326.256828 
L 239.31648 321.869793 
L 243.10656 321.869793 
L 245.0016 319.676276 
L 265.84704 319.676276 
L 267.74208 315.289241 
L 269.63712 315.289241 
L 271.53216 313.095724 
L 273.4272 313.095724 
L 275.32224 310.902207 
L 277.21728 310.902207 
L 279.11232 308.70869 
L 284.79744 308.70869 
L 286.69248 306.515172 
L 298.06272 306.515172 
L 301.8528 302.128138 
L 305.64288 302.128138 
L 307.53792 295.547586 
L 317.01312 295.547586 
L 318.90816 291.160552 
L 320.8032 287.335958 
L 322.69824 285.14244 
L 324.59328 285.14244 
L 326.48832 282.948923 
L 332.17344 282.948923 
L 334.06848 281.317846 
L 335.96352 281.317846 
L 337.85856 279.124329 
L 339.7536 279.124329 
L 341.64864 274.737294 
L 343.54368 274.737294 
L 345.43872 272.543777 
L 347.33376 272.543777 
L 349.2288 270.35026 
L 354.91392 270.35026 
L 356.80896 268.719183 
L 358.704 266.525666 
L 368.1792 266.525666 
L 370.07424 264.894589 
L 375.75936 264.894589 
L 377.6544 262.701072 
L 379.54944 262.701072 
L 381.44448 260.507554 
L 383.33952 260.507554 
L 389.02464 253.927003 
L 390.91968 250.102408 
L 398.49984 250.102408 
L 400.39488 247.908891 
L 413.66016 247.908891 
L 419.34528 243.01566 
L 425.0304 243.01566 
L 426.92544 240.822143 
L 430.71552 237.559989 
L 432.61056 237.559989 
L 434.5056 233.735395 
L 436.40064 231.541878 
L 443.9808 231.541878 
L 445.87584 228.279724 
L 447.77088 228.279724 
L 449.66592 226.648647 
L 453.456 226.648647 
L 455.35104 225.01757 
L 466.72128 225.01757 
L 468.61632 223.386493 
L 470.51136 223.386493 
L 472.4064 219.561899 
L 474.30144 217.930822 
L 476.19648 215.737305 
L 478.09152 214.106228 
L 479.98656 214.106228 
L 481.8816 212.475151 
L 487.56672 212.475151 
L 489.46176 209.212997 
L 493.25184 209.212997 
L 495.14688 207.01948 
L 497.04192 207.01948 
L 498.93696 205.388403 
L 504.62208 205.388403 
L 506.51712 201.563809 
L 508.41216 199.932732 
L 514.09728 199.932732 
L 517.88736 196.670578 
L 525.46752 196.670578 
L 527.36256 194.477061 
L 531.15264 194.477061 
L 533.04768 192.845984 
L 534.94272 192.845984 
L 536.83776 189.02139 
L 538.7328 187.390313 
L 540.62784 187.390313 
L 544.41792 184.128159 
L 546.31296 184.128159 
L 548.208 182.497082 
L 550.10304 179.234928 
L 551.99808 177.041411 
L 557.6832 177.041411 
L 559.57824 174.847894 
L 561.47328 174.847894 
L 569.05344 168.323586 
L 570.94848 168.323586 
L 574.73856 163.936552 
L 582.31872 163.936552 
L 584.21376 162.305475 
L 591.79392 162.305475 
L 595.584 159.043321 
L 597.47904 156.849804 
L 599.37408 155.218727 
L 606.95424 155.218727 
L 608.84928 151.956573 
L 610.74432 151.956573 
L 612.63936 148.694419 
L 614.5344 148.694419 
L 616.42944 147.063342 
L 635.37984 147.063342 
L 637.27488 145.432265 
L 639.16992 145.432265 
L 642.96 142.170111 
L 642.96 142.170111 
" clip-path="url(#pfcad5e751d)" style="fill: none; stroke-dasharray: 8.64,2.16,1.35,2.16; stroke-dashoffset: 0; stroke: #d0526a; stroke-width: 1.35"/>
   </g>
   <g id="line2d_32">
    <path d="M 74.448 348.192 
L 138.87936 348.192 
L 140.7744 345.998483 
L 190.04544 345.998483 
L 191.94048 343.804966 
L 195.73056 343.804966 
L 197.6256 341.611448 
L 199.52064 337.224414 
L 201.41568 335.030897 
L 205.20576 335.030897 
L 208.99584 330.643862 
L 212.78592 330.643862 
L 214.68096 324.06331 
L 216.576 319.676276 
L 218.47104 317.482759 
L 227.94624 317.482759 
L 229.84128 315.289241 
L 231.73632 315.289241 
L 233.63136 313.095724 
L 239.31648 313.095724 
L 241.21152 310.902207 
L 246.89664 310.902207 
L 248.79168 308.70869 
L 250.68672 308.70869 
L 254.4768 304.321655 
L 263.952 304.321655 
L 265.84704 299.934621 
L 279.11232 299.934621 
L 281.00736 297.741103 
L 290.48256 297.741103 
L 292.3776 295.547586 
L 299.95776 295.547586 
L 301.8528 293.354069 
L 305.64288 293.354069 
L 307.53792 291.160552 
L 315.11808 291.160552 
L 317.01312 288.967034 
L 318.90816 288.967034 
L 320.8032 286.773517 
L 322.69824 286.773517 
L 326.48832 282.386483 
L 339.7536 282.386483 
L 341.64864 280.192966 
L 347.33376 280.192966 
L 349.2288 277.999448 
L 381.44448 277.999448 
L 385.23456 273.612414 
L 390.91968 273.612414 
L 394.70976 269.225379 
L 398.49984 269.225379 
L 400.39488 267.031862 
L 419.34528 267.031862 
L 421.24032 264.838345 
L 425.0304 264.838345 
L 428.82048 260.45131 
L 457.24608 260.45131 
L 459.14112 258.257793 
L 468.61632 258.257793 
L 470.51136 256.626716 
L 478.09152 256.626716 
L 479.98656 254.433199 
L 502.72704 254.433199 
L 504.62208 250.046164 
L 515.99232 250.046164 
L 517.88736 248.415088 
L 519.7824 245.152934 
L 523.57248 245.152934 
L 525.46752 242.959416 
L 536.83776 242.959416 
L 538.7328 238.572382 
L 540.62784 236.941305 
L 544.41792 236.941305 
L 546.31296 235.310228 
L 551.99808 235.310228 
L 553.89312 233.116711 
L 557.6832 233.116711 
L 559.57824 231.485634 
L 561.47328 231.485634 
L 563.36832 229.854557 
L 567.1584 229.854557 
L 569.05344 228.22348 
L 570.94848 228.22348 
L 572.84352 226.592403 
L 578.52864 226.592403 
L 580.42368 224.398886 
L 582.31872 224.398886 
L 584.21376 222.767809 
L 591.79392 222.767809 
L 593.68896 220.574292 
L 605.0592 220.574292 
L 606.95424 218.943215 
L 610.74432 218.943215 
L 616.42944 214.049984 
L 620.21952 214.049984 
L 622.11456 212.418907 
L 624.0096 212.418907 
L 625.90464 210.78783 
L 627.79968 210.78783 
L 629.69472 205.332159 
L 637.27488 205.332159 
L 642.96 200.438928 
L 642.96 200.438928 
" clip-path="url(#pfcad5e751d)" style="fill: none; stroke-dasharray: 6.75,2.7,1.35,2.7; stroke-dashoffset: 0; stroke: #2f8f84; stroke-width: 1.35"/>
   </g>
   <g id="patch_4">
    <path d="M 74.448 348.192 
L 74.448 93.744 
" style="fill: none; stroke: #000000; stroke-width: 0.8; stroke-linejoin: miter; stroke-linecap: square"/>
   </g>
   <g id="patch_5">
    <path d="M 74.448 348.192 
L 642.96 348.192 
" style="fill: none; stroke: #000000; stroke-width: 0.8; stroke-linejoin: miter; stroke-linecap: square"/>
   </g>
  </g>
  <g id="text_16">
   <text style="font: 18px 'DejaVu Sans', 'Bitstream Vera Sans', 'Computer Modern Sans Serif', 'Lucida Grande', 'Verdana', 'Geneva', 'Lucid', 'Arial', 'Helvetica', 'Avant Garde', sans-serif; text-anchor: start" x="74.448" y="38.229188" transform="rotate(-0 74.448 38.229188)">LED-RGB1 Direct</text>
  </g>
  <g id="text_17">
   <text style="fill: #66747c; font: 10px 'DejaVu Sans', 'Bitstream Vera Sans', 'Computer Modern Sans Serif', 'Lucida Grande', 'Verdana', 'Geneva', 'Lucid', 'Arial', 'Helvetica', 'Avant Garde', sans-serif; text-anchor: start" x="74.448" y="64.728" transform="rotate(-0 74.448 64.728)">All devices</text>
  </g>
  <g id="legend_1">
   <g id="line2d_33">
    <path d="M 185.17875 404.151391 
L 194.27875 404.151391 
L 203.37875 404.151391 
" style="fill: none; stroke: #252525; stroke-width: 2.5; stroke-linecap: square"/>
   </g>
   <g id="text_18">
    <text style="font: 9.1px 'DejaVu Sans', 'Bitstream Vera Sans', 'Computer Modern Sans Serif', 'Lucida Grande', 'Verdana', 'Geneva', 'Lucid', 'Arial', 'Helvetica', 'Avant Garde', sans-serif; text-anchor: start" x="210.65875" y="407.336391" transform="rotate(-0 210.65875 407.336391)">Potera CMF</text>
   </g>
   <g id="line2d_34">
    <path d="M 185.17875 417.508484 
L 194.27875 417.508484 
L 203.37875 417.508484 
" style="fill: none; stroke: #3b83b4; stroke-width: 1.35; stroke-linecap: square"/>
   </g>
   <g id="text_19">
    <text style="font: 9.1px 'DejaVu Sans', 'Bitstream Vera Sans', 'Computer Modern Sans Serif', 'Lucida Grande', 'Verdana', 'Geneva', 'Lucid', 'Arial', 'Helvetica', 'Avant Garde', sans-serif; text-anchor: start" x="210.65875" y="420.693484" transform="rotate(-0 210.65875 420.693484)">CIE 2015 2°</text>
   </g>
   <g id="line2d_35">
    <path d="M 282.931234 404.151391 
L 292.031234 404.151391 
L 301.131234 404.151391 
" style="fill: none; stroke-dasharray: 4.995,2.16; stroke-dashoffset: 0; stroke: #c38a19; stroke-width: 1.35"/>
   </g>
   <g id="text_20">
    <text style="font: 9.1px 'DejaVu Sans', 'Bitstream Vera Sans', 'Computer Modern Sans Serif', 'Lucida Grande', 'Verdana', 'Geneva', 'Lucid', 'Arial', 'Helvetica', 'Avant Garde', sans-serif; text-anchor: start" x="308.411234" y="407.336391" transform="rotate(-0 308.411234 407.336391)">CIE 2015 10°</text>
   </g>
   <g id="line2d_36">
    <path d="M 282.931234 417.508484 
L 292.031234 417.508484 
L 301.131234 417.508484 
" style="fill: none; stroke-dasharray: 1.35,2.2275; stroke-dashoffset: 0; stroke: #7d8a92; stroke-width: 1.35"/>
   </g>
   <g id="text_21">
    <text style="font: 9.1px 'DejaVu Sans', 'Bitstream Vera Sans', 'Computer Modern Sans Serif', 'Lucida Grande', 'Verdana', 'Geneva', 'Lucid', 'Arial', 'Helvetica', 'Avant Garde', sans-serif; text-anchor: start" x="308.411234" y="420.693484" transform="rotate(-0 308.411234 420.693484)">CIE 1964 10°</text>
   </g>
   <g id="line2d_37">
    <path d="M 386.473594 404.151391 
L 395.573594 404.151391 
L 404.673594 404.151391 
" style="fill: none; stroke-dasharray: 8.64,2.16,1.35,2.16; stroke-dashoffset: 0; stroke: #d0526a; stroke-width: 1.35"/>
   </g>
   <g id="text_22">
    <text style="font: 9.1px 'DejaVu Sans', 'Bitstream Vera Sans', 'Computer Modern Sans Serif', 'Lucida Grande', 'Verdana', 'Geneva', 'Lucid', 'Arial', 'Helvetica', 'Avant Garde', sans-serif; text-anchor: start" x="411.953594" y="407.336391" transform="rotate(-0 411.953594 407.336391)">CIE 1931 2°</text>
   </g>
   <g id="line2d_38">
    <path d="M 386.473594 417.508484 
L 395.573594 417.508484 
L 404.673594 417.508484 
" style="fill: none; stroke-dasharray: 6.75,2.7,1.35,2.7; stroke-dashoffset: 0; stroke: #2f8f84; stroke-width: 1.35"/>
   </g>
   <g id="text_23">
    <text style="font: 9.1px 'DejaVu Sans', 'Bitstream Vera Sans', 'Computer Modern Sans Serif', 'Lucida Grande', 'Verdana', 'Geneva', 'Lucid', 'Arial', 'Helvetica', 'Avant Garde', sans-serif; text-anchor: start" x="411.953594" y="420.693484" transform="rotate(-0 411.953594 420.693484)">Judd–Vos 1978 2°</text>
   </g>
  </g>
 </g>
 <defs>
  <clipPath id="pfcad5e751d">
   <rect x="74.448" y="93.744" width="568.512" height="254.448"/>
  </clipPath>
 </defs>
</svg>
