<?xml version="1.0" encoding="utf-8" standalone="no"?>
<!DOCTYPE svg PUBLIC "-//W3C//DTD SVG 1.1//EN"
  "http://www.w3.org/Graphics/SVG/1.1/DTD/svg11.dtd">
<svg xmlns:xlink="http://www.w3.org/1999/xlink" width="676.8pt" height="446.4pt" viewBox="0 0 676.8 446.4" xmlns="http://www.w3.org/2000/svg" version="1.1">
 <metadata>
  <rdf:RDF xmlns:dc="http://purl.org/dc/elements/1.1/" xmlns:cc="http://creativecommons.org/ns#" xmlns:rdf="http://www.w3.org/1999/02/22-rdf-syntax-ns#">
   <cc:Work>
    <dc:type rdf:resource="http://purl.org/dc/dcmitype/StillImage"/>
    <dc:date>2026-07-20T06:41:55.834247</dc:date>
    <dc:format>image/svg+xml</dc:format>
    <dc:creator>
     <cc:Agent>
      <dc:title>Matplotlib v3.9.4, https://matplotlib.org/</dc:title>
     </cc:Agent>
    </dc:creator>
   </cc:Work>
  </rdf:RDF>
 </metadata>
 <defs>
  <style type="text/css">*{stroke-linejoin: round; stroke-linecap: butt}</style>
 </defs>
 <g id="figure_1">
  <g id="patch_1">
   <path d="M 0 446.4 
L 676.8 446.4 
L 676.8 0 
L 0 0 
z
" style="fill: #ffffff"/>
  </g>
  <g id="axes_1">
   <g id="patch_2">
    <path d="M 74.448 348.192 
L 642.96 348.192 
L 642.96 93.744 
L 74.448 93.744 
z
" style="fill: #ffffff"/>
   </g>
   <g id="patch_3">
    <path d="M 169.2 348.192 
L 358.704 348.192 
L 358.704 93.744 
L 169.2 93.744 
z
" clip-path="url(#p02924ff057)" style="fill: #e7f0ea; opacity: 0.58; stroke: #e7f0ea; stroke-linejoin: miter"/>
   </g>
   <g id="matplotlib.axis_1">
    <g id="xtick_1">
     <g id="line2d_1">
      <path d="M 74.448 348.192 
L 74.448 93.744 
" clip-path="url(#p02924ff057)" style="fill: none; stroke: #dfe5e8; stroke-width: 0.65; stroke-linecap: square"/>
     </g>
     <g id="line2d_2">
      <defs>
       <path id="md6151c4cf2" d="M 0 0 
L 0 3.5 
" style="stroke: #000000; stroke-width: 0.8"/>
      </defs>
      <g>
       <use xlink:href="#md6151c4cf2" x="74.448" y="348.192" style="stroke: #000000; stroke-width: 0.8"/>
      </g>
     </g>
     <g id="text_1">
      <text style="font: 10px 'DejaVu Sans', 'Bitstream Vera Sans', 'Computer Modern Sans Serif', 'Lucida Grande', 'Verdana', 'Geneva', 'Lucid', 'Arial', 'Helvetica', 'Avant Garde', sans-serif; text-anchor: middle" x="74.448" y="362.790438" transform="rotate(-0 74.448 362.790438)">0</text>
     </g>
    </g>
    <g id="xtick_2">
     <g id="line2d_3">
      <path d="M 169.2 348.192 
L 169.2 93.744 
" clip-path="url(#p02924ff057)" style="fill: none; stroke: #dfe5e8; stroke-width: 0.65; stroke-linecap: square"/>
     </g>
     <g id="line2d_4">
      <g>
       <use xlink:href="#md6151c4cf2" x="169.2" y="348.192" style="stroke: #000000; stroke-width: 0.8"/>
      </g>
     </g>
     <g id="text_2">
      <text style="font: 10px 'DejaVu Sans', 'Bitstream Vera Sans', 'Computer Modern Sans Serif', 'Lucida Grande', 'Verdana', 'Geneva', 'Lucid', 'Arial', 'Helvetica', 'Avant Garde', sans-serif; text-anchor: middle" x="169.2" y="362.790438" transform="rotate(-0 169.2 362.790438)">1</text>
     </g>
    </g>
    <g id="xtick_3">
     <g id="line2d_5">
      <path d="M 263.952 348.192 
L 263.952 93.744 
" clip-path="url(#p02924ff057)" style="fill: none; stroke: #dfe5e8; stroke-width: 0.65; stroke-linecap: square"/>
     </g>
     <g id="line2d_6">
      <g>
       <use xlink:href="#md6151c4cf2" x="263.952" y="348.192" style="stroke: #000000; stroke-width: 0.8"/>
      </g>
     </g>
     <g id="text_3">
      <text style="font: 10px 'DejaVu Sans', 'Bitstream Vera Sans', 'Computer Modern Sans Serif', 'Lucida Grande', 'Verdana', 'Geneva', 'Lucid', 'Arial', 'Helvetica', 'Avant Garde', sans-serif; text-anchor: middle" x="263.952" y="362.790438" transform="rotate(-0 263.952 362.790438)">2</text>
     </g>
    </g>
    <g id="xtick_4">
     <g id="line2d_7">
      <path d="M 358.704 348.192 
L 358.704 93.744 
" clip-path="url(#p02924ff057)" style="fill: none; stroke: #dfe5e8; stroke-width: 0.65; stroke-linecap: square"/>
     </g>
     <g id="line2d_8">
      <g>
       <use xlink:href="#md6151c4cf2" x="358.704" y="348.192" style="stroke: #000000; stroke-width: 0.8"/>
      </g>
     </g>
     <g id="text_4">
      <text style="font: 10px 'DejaVu Sans', 'Bitstream Vera Sans', 'Computer Modern Sans Serif', 'Lucida Grande', 'Verdana', 'Geneva', 'Lucid', 'Arial', 'Helvetica', 'Avant Garde', sans-serif; text-anchor: middle" x="358.704" y="362.790438" transform="rotate(-0 358.704 362.790438)">3</text>
     </g>
    </g>
    <g id="xtick_5">
     <g id="line2d_9">
      <path d="M 453.456 348.192 
L 453.456 93.744 
" clip-path="url(#p02924ff057)" style="fill: none; stroke: #dfe5e8; stroke-width: 0.65; stroke-linecap: square"/>
     </g>
     <g id="line2d_10">
      <g>
       <use xlink:href="#md6151c4cf2" x="453.456" y="348.192" style="stroke: #000000; stroke-width: 0.8"/>
      </g>
     </g>
     <g id="text_5">
      <text style="font: 10px 'DejaVu Sans', 'Bitstream Vera Sans', 'Computer Modern Sans Serif', 'Lucida Grande', 'Verdana', 'Geneva', 'Lucid', 'Arial', 'Helvetica', 'Avant Garde', sans-serif; text-anchor: middle" x="453.456" y="362.790438" transform="rotate(-0 453.456 362.790438)">4</text>
     </g>
    </g>
    <g id="xtick_6">
     <g id="line2d_11">
      <path d="M 548.208 348.192 
L 548.208 93.744 
" clip-path="url(#p02924ff057)" style="fill: none; stroke: #dfe5e8; stroke-width: 0.65; stroke-linecap: square"/>
     </g>
     <g id="line2d_12">
      <g>
       <use xlink:href="#md6151c4cf2" x="548.208" y="348.192" style="stroke: #000000; stroke-width: 0.8"/>
      </g>
     </g>
     <g id="text_6">
      <text style="font: 10px 'DejaVu Sans', 'Bitstream Vera Sans', 'Computer Modern Sans Serif', 'Lucida Grande', 'Verdana', 'Geneva', 'Lucid', 'Arial', 'Helvetica', 'Avant Garde', sans-serif; text-anchor: middle" x="548.208" y="362.790438" transform="rotate(-0 548.208 362.790438)">5</text>
     </g>
    </g>
    <g id="xtick_7">
     <g id="line2d_13">
      <path d="M 642.96 348.192 
L 642.96 93.744 
" clip-path="url(#p02924ff057)" style="fill: none; stroke: #dfe5e8; stroke-width: 0.65; stroke-linecap: square"/>
     </g>
     <g id="line2d_14">
      <g>
       <use xlink:href="#md6151c4cf2" x="642.96" y="348.192" style="stroke: #000000; stroke-width: 0.8"/>
      </g>
     </g>
     <g id="text_7">
      <text style="font: 10px 'DejaVu Sans', 'Bitstream Vera Sans', 'Computer Modern Sans Serif', 'Lucida Grande', 'Verdana', 'Geneva', 'Lucid', 'Arial', 'Helvetica', 'Avant Garde', sans-serif; text-anchor: middle" x="642.96" y="362.790438" transform="rotate(-0 642.96 362.790438)">6</text>
     </g>
    </g>
    <g id="text_8">
     <text style="font: 10px 'DejaVu Sans', 'Bitstream Vera Sans', 'Computer Modern Sans Serif', 'Lucida Grande', 'Verdana', 'Geneva', 'Lucid', 'Arial', 'Helvetica', 'Avant Garde', sans-serif; text-anchor: middle" x="358.704" y="376.468563" transform="rotate(-0 358.704 376.468563)">sUCS dE threshold</text>
    </g>
   </g>
   <g id="matplotlib.axis_2">
    <g id="ytick_1">
     <g id="line2d_15">
      <path d="M 74.448 348.192 
L 642.96 348.192 
" clip-path="url(#p02924ff057)" style="fill: none; stroke: #dfe5e8; stroke-width: 0.65; stroke-linecap: square"/>
     </g>
     <g id="line2d_16">
      <defs>
       <path id="mc96d30fd1c" d="M 0 0 
L -3.5 0 
" style="stroke: #000000; stroke-width: 0.8"/>
      </defs>
      <g>
       <use xlink:href="#mc96d30fd1c" x="74.448" y="348.192" style="stroke: #000000; stroke-width: 0.8"/>
      </g>
     </g>
     <g id="text_9">
      <text style="font: 10px 'DejaVu Sans', 'Bitstream Vera Sans', 'Computer Modern Sans Serif', 'Lucida Grande', 'Verdana', 'Geneva', 'Lucid', 'Arial', 'Helvetica', 'Avant Garde', sans-serif; text-anchor: end" x="67.448" y="351.991219" transform="rotate(-0 67.448 351.991219)">0</text>
     </g>
    </g>
    <g id="ytick_2">
     <g id="line2d_17">
      <path d="M 74.448 297.3024 
L 642.96 297.3024 
" clip-path="url(#p02924ff057)" style="fill: none; stroke: #dfe5e8; stroke-width: 0.65; stroke-linecap: square"/>
     </g>
     <g id="line2d_18">
      <g>
       <use xlink:href="#mc96d30fd1c" x="74.448" y="297.3024" style="stroke: #000000; stroke-width: 0.8"/>
      </g>
     </g>
     <g id="text_10">
      <text style="font: 10px 'DejaVu Sans', 'Bitstream Vera Sans', 'Computer Modern Sans Serif', 'Lucida Grande', 'Verdana', 'Geneva', 'Lucid', 'Arial', 'Helvetica', 'Avant Garde', sans-serif; text-anchor: end" x="67.448" y="301.101619" transform="rotate(-0 67.448 301.101619)">20</text>
     </g>
    </g>
    <g id="ytick_3">
     <g id="line2d_19">
      <path d="M 74.448 246.4128 
L 642.96 246.4128 
" clip-path="url(#p02924ff057)" style="fill: none; stroke: #dfe5e8; stroke-width: 0.65; stroke-linecap: square"/>
     </g>
     <g id="line2d_20">
      <g>
       <use xlink:href="#mc96d30fd1c" x="74.448" y="246.4128" style="stroke: #000000; stroke-width: 0.8"/>
      </g>
     </g>
     <g id="text_11">
      <text style="font: 10px 'DejaVu Sans', 'Bitstream Vera Sans', 'Computer Modern Sans Serif', 'Lucida Grande', 'Verdana', 'Geneva', 'Lucid', 'Arial', 'Helvetica', 'Avant Garde', sans-serif; text-anchor: end" x="67.448" y="250.212019" transform="rotate(-0 67.448 250.212019)">40</text>
     </g>
    </g>
    <g id="ytick_4">
     <g id="line2d_21">
      <path d="M 74.448 195.5232 
L 642.96 195.5232 
" clip-path="url(#p02924ff057)" style="fill: none; stroke: #dfe5e8; stroke-width: 0.65; stroke-linecap: square"/>
     </g>
     <g id="line2d_22">
      <g>
       <use xlink:href="#mc96d30fd1c" x="74.448" y="195.5232" style="stroke: #000000; stroke-width: 0.8"/>
      </g>
     </g>
     <g id="text_12">
      <text style="font: 10px 'DejaVu Sans', 'Bitstream Vera Sans', 'Computer Modern Sans Serif', 'Lucida Grande', 'Verdana', 'Geneva', 'Lucid', 'Arial', 'Helvetica', 'Avant Garde', sans-serif; text-anchor: end" x="67.448" y="199.322419" transform="rotate(-0 67.448 199.322419)">60</text>
     </g>
    </g>
    <g id="ytick_5">
     <g id="line2d_23">
      <path d="M 74.448 144.6336 
L 642.96 144.6336 
" clip-path="url(#p02924ff057)" style="fill: none; stroke: #dfe5e8; stroke-width: 0.65; stroke-linecap: square"/>
     </g>
     <g id="line2d_24">
      <g>
       <use xlink:href="#mc96d30fd1c" x="74.448" y="144.6336" style="stroke: #000000; stroke-width: 0.8"/>
      </g>
     </g>
     <g id="text_13">
      <text style="font: 10px 'DejaVu Sans', 'Bitstream Vera Sans', 'Computer Modern Sans Serif', 'Lucida Grande', 'Verdana', 'Geneva', 'Lucid', 'Arial', 'Helvetica', 'Avant Garde', sans-serif; text-anchor: end" x="67.448" y="148.432819" transform="rotate(-0 67.448 148.432819)">80</text>
     </g>
    </g>
    <g id="ytick_6">
     <g id="line2d_25">
      <path d="M 74.448 93.744 
L 642.96 93.744 
" clip-path="url(#p02924ff057)" style="fill: none; stroke: #dfe5e8; stroke-width: 0.65; stroke-linecap: square"/>
     </g>
     <g id="line2d_26">
      <g>
       <use xlink:href="#mc96d30fd1c" x="74.448" y="93.744" style="stroke: #000000; stroke-width: 0.8"/>
      </g>
     </g>
     <g id="text_14">
      <text style="font: 10px 'DejaVu Sans', 'Bitstream Vera Sans', 'Computer Modern Sans Serif', 'Lucida Grande', 'Verdana', 'Geneva', 'Lucid', 'Arial', 'Helvetica', 'Avant Garde', sans-serif; text-anchor: end" x="67.448" y="97.543219" transform="rotate(-0 67.448 97.543219)">100</text>
     </g>
    </g>
    <g id="text_15">
     <text style="font: 10px 'DejaVu Sans', 'Bitstream Vera Sans', 'Computer Modern Sans Serif', 'Lucida Grande', 'Verdana', 'Geneva', 'Lucid', 'Arial', 'Helvetica', 'Avant Garde', sans-serif; text-anchor: middle" x="42.280812" y="220.968" transform="rotate(-90 42.280812 220.968)">observers%</text>
    </g>
   </g>
   <g id="line2d_27">
    <path d="M 74.448 348.192 
L 85.81824 348.192 
L 87.71328 346.560923 
L 95.29344 346.560923 
L 97.18848 344.367406 
L 99.08352 344.367406 
L 100.97856 342.736329 
L 102.8736 342.736329 
L 104.76864 338.911735 
L 110.45376 338.911735 
L 112.3488 336.718218 
L 114.24384 336.718218 
L 116.13888 334.5247 
L 118.03392 334.5247 
L 119.92896 331.262546 
L 123.71904 331.262546 
L 125.61408 326.875512 
L 127.50912 325.244435 
L 129.40416 325.244435 
L 131.2992 323.050918 
L 133.19424 323.050918 
L 136.98432 319.788764 
L 140.7744 319.788764 
L 142.66944 314.895533 
L 148.35456 314.895533 
L 150.2496 310.508499 
L 152.14464 310.508499 
L 154.03968 308.877422 
L 155.93472 303.421751 
L 157.82976 303.421751 
L 159.7248 301.790674 
L 161.61984 301.790674 
L 165.40992 298.52852 
L 167.30496 295.266366 
L 169.2 293.072849 
L 171.09504 293.072849 
L 172.99008 291.441772 
L 174.88512 288.179618 
L 176.78016 288.179618 
L 178.6752 286.548541 
L 184.36032 286.548541 
L 186.25536 282.723947 
L 188.1504 280.53043 
L 190.04544 280.53043 
L 197.6256 274.006122 
L 201.41568 274.006122 
L 203.31072 272.375045 
L 205.20576 272.375045 
L 207.1008 268.550451 
L 208.99584 268.550451 
L 210.89088 266.356934 
L 212.78592 262.53234 
L 216.576 262.53234 
L 218.47104 260.901263 
L 222.26112 260.901263 
L 224.15616 259.270186 
L 226.0512 254.376955 
L 229.84128 251.114801 
L 231.73632 251.114801 
L 233.63136 248.921284 
L 237.42144 245.65913 
L 239.31648 245.65913 
L 241.21152 244.028053 
L 243.10656 240.765899 
L 245.0016 239.134822 
L 246.89664 239.134822 
L 248.79168 234.747788 
L 250.68672 233.116711 
L 256.37184 233.116711 
L 258.26688 231.485634 
L 263.952 231.485634 
L 267.74208 228.22348 
L 273.4272 228.22348 
L 279.11232 223.330249 
L 281.00736 223.330249 
L 282.9024 221.699172 
L 284.79744 219.505655 
L 286.69248 219.505655 
L 288.58752 217.874578 
L 290.48256 217.874578 
L 292.3776 216.243501 
L 294.27264 216.243501 
L 296.16768 212.418907 
L 298.06272 210.78783 
L 299.95776 210.78783 
L 301.8528 204.769719 
L 305.64288 201.507565 
L 311.328 201.507565 
L 313.22304 199.876488 
L 315.11808 199.876488 
L 317.01312 195.489454 
L 318.90816 191.664859 
L 320.8032 191.664859 
L 322.69824 187.840265 
L 324.59328 186.209188 
L 326.48832 186.209188 
L 330.2784 182.947034 
L 332.17344 179.12244 
L 335.96352 179.12244 
L 337.85856 177.491363 
L 339.7536 177.491363 
L 341.64864 175.860286 
L 349.2288 175.860286 
L 351.12384 174.22921 
L 354.91392 174.22921 
L 356.80896 166.017581 
L 358.704 163.824064 
L 362.49408 163.824064 
L 364.38912 161.630546 
L 366.28416 158.368393 
L 368.1792 158.368393 
L 371.96928 150.719204 
L 379.54944 150.719204 
L 381.44448 149.088127 
L 385.23456 149.088127 
L 387.1296 146.89461 
L 404.18496 146.89461 
L 406.08 144.701093 
L 413.66016 144.701093 
L 415.5552 142.507576 
L 417.45024 142.507576 
L 419.34528 140.314058 
L 421.24032 140.314058 
L 423.13536 138.120541 
L 426.92544 138.120541 
L 430.71552 134.858387 
L 434.5056 134.858387 
L 438.29568 130.471353 
L 462.9312 130.471353 
L 464.82624 128.277836 
L 470.51136 128.277836 
L 474.30144 123.890801 
L 476.19648 123.890801 
L 478.09152 120.066207 
L 493.25184 120.066207 
L 495.14688 117.87269 
L 506.51712 117.87269 
L 508.41216 115.679172 
L 514.09728 115.679172 
L 517.88736 111.292138 
L 534.94272 111.292138 
L 536.83776 109.098621 
L 586.1088 109.098621 
L 588.00384 106.905103 
L 624.0096 106.905103 
L 625.90464 104.711586 
L 627.79968 104.711586 
L 629.69472 102.518069 
L 642.96 102.518069 
L 642.96 102.518069 
" clip-path="url(#p02924ff057)" style="fill: none; stroke: #252525; stroke-width: 2.5; stroke-linecap: square"/>
   </g>
   <g id="line2d_28">
    <path d="M 74.448 348.192 
L 114.24384 348.192 
L 116.13888 345.998483 
L 152.14464 345.998483 
L 154.03968 343.804966 
L 165.40992 343.804966 
L 167.30496 341.611448 
L 174.88512 341.611448 
L 176.78016 337.224414 
L 178.6752 335.030897 
L 184.36032 335.030897 
L 186.25536 330.643862 
L 188.1504 330.643862 
L 190.04544 328.450345 
L 193.83552 328.450345 
L 197.6256 324.06331 
L 199.52064 324.06331 
L 201.41568 321.869793 
L 203.31072 317.482759 
L 216.576 317.482759 
L 222.26112 310.902207 
L 226.0512 310.902207 
L 227.94624 302.690578 
L 231.73632 302.690578 
L 233.63136 300.497061 
L 237.42144 300.497061 
L 241.21152 296.110027 
L 243.10656 296.110027 
L 246.89664 291.722992 
L 248.79168 291.722992 
L 250.68672 287.335958 
L 252.58176 287.335958 
L 254.4768 285.14244 
L 256.37184 285.14244 
L 258.26688 280.755406 
L 263.952 274.174854 
L 267.74208 274.174854 
L 269.63712 271.981337 
L 273.4272 271.981337 
L 275.32224 269.78782 
L 277.21728 269.78782 
L 279.11232 267.594302 
L 282.9024 267.594302 
L 284.79744 265.963225 
L 294.27264 265.963225 
L 296.16768 263.769708 
L 299.95776 263.769708 
L 301.8528 261.576191 
L 309.43296 261.576191 
L 311.328 257.751597 
L 326.48832 257.751597 
L 328.38336 256.12052 
L 330.2784 256.12052 
L 332.17344 253.927003 
L 334.06848 253.927003 
L 335.96352 251.733485 
L 341.64864 251.733485 
L 343.54368 247.908891 
L 345.43872 247.908891 
L 347.33376 246.277814 
L 349.2288 240.822143 
L 351.12384 238.628626 
L 353.01888 238.628626 
L 354.91392 236.435109 
L 356.80896 232.610515 
L 362.49408 232.610515 
L 364.38912 230.416997 
L 366.28416 228.78592 
L 370.07424 224.398886 
L 371.96928 224.398886 
L 373.86432 222.205369 
L 377.6544 218.943215 
L 383.33952 218.943215 
L 385.23456 217.312138 
L 387.1296 217.312138 
L 389.02464 215.118621 
L 390.91968 215.118621 
L 392.81472 212.925103 
L 396.6048 209.66295 
L 398.49984 209.66295 
L 400.39488 208.031873 
L 402.28992 208.031873 
L 404.18496 205.838355 
L 406.08 205.838355 
L 407.97504 204.207279 
L 411.76512 204.207279 
L 413.66016 200.945125 
L 419.34528 200.945125 
L 421.24032 199.314048 
L 423.13536 199.314048 
L 425.0304 195.489454 
L 426.92544 193.858377 
L 428.82048 190.596223 
L 434.5056 190.596223 
L 436.40064 187.334069 
L 438.29568 185.702992 
L 440.19072 182.440838 
L 449.66592 182.440838 
L 451.56096 180.247321 
L 455.35104 176.985167 
L 459.14112 176.985167 
L 461.03616 174.79165 
L 462.9312 174.79165 
L 466.72128 171.529496 
L 468.61632 171.529496 
L 470.51136 169.898419 
L 474.30144 169.898419 
L 483.77664 161.743034 
L 485.67168 158.480881 
L 487.56672 156.849804 
L 493.25184 156.849804 
L 495.14688 155.218727 
L 497.04192 151.956573 
L 500.832 148.694419 
L 504.62208 148.694419 
L 506.51712 147.063342 
L 523.57248 147.063342 
L 527.36256 143.801188 
L 531.15264 143.801188 
L 533.04768 142.170111 
L 536.83776 142.170111 
L 540.62784 138.907958 
L 542.52288 138.907958 
L 546.31296 135.645804 
L 551.99808 135.645804 
L 553.89312 132.38365 
L 557.6832 132.38365 
L 561.47328 129.121496 
L 570.94848 129.121496 
L 572.84352 127.490419 
L 574.73856 122.597188 
L 576.6336 120.966111 
L 578.52864 117.141517 
L 580.42368 115.51044 
L 582.31872 115.51044 
L 584.21376 113.879363 
L 591.79392 113.879363 
L 593.68896 112.248286 
L 595.584 112.248286 
L 599.37408 108.986133 
L 606.95424 108.986133 
L 608.84928 105.161538 
L 612.63936 105.161538 
L 614.5344 103.530462 
L 618.32448 103.530462 
L 620.21952 101.899385 
L 622.11456 101.899385 
L 625.90464 98.637231 
L 642.96 98.637231 
L 642.96 98.637231 
" clip-path="url(#p02924ff057)" style="fill: none; stroke: #3b83b4; stroke-width: 1.35; stroke-linecap: square"/>
   </g>
   <g id="line2d_29">
    <path d="M 74.448 348.192 
L 97.18848 348.192 
L 99.08352 346.560923 
L 100.97856 346.560923 
L 102.8736 343.298769 
L 112.3488 343.298769 
L 114.24384 341.667692 
L 116.13888 341.667692 
L 118.03392 340.036615 
L 119.92896 340.036615 
L 123.71904 336.774462 
L 127.50912 336.774462 
L 129.40416 335.143385 
L 131.2992 330.250154 
L 133.19424 328.619077 
L 135.08928 328.619077 
L 136.98432 326.988 
L 138.87936 326.988 
L 140.7744 323.163406 
L 142.66944 323.163406 
L 148.35456 318.270175 
L 150.2496 311.183427 
L 154.03968 307.921273 
L 155.93472 307.921273 
L 157.82976 304.659119 
L 159.7248 303.028042 
L 161.61984 299.765889 
L 163.51488 299.765889 
L 165.40992 298.134812 
L 167.30496 294.872658 
L 169.2 291.048064 
L 171.09504 287.78591 
L 172.99008 286.154833 
L 174.88512 283.961316 
L 176.78016 280.699162 
L 178.6752 275.805931 
L 180.57024 273.612414 
L 182.46528 265.963225 
L 186.25536 262.701072 
L 188.1504 262.701072 
L 191.94048 259.438918 
L 193.83552 259.438918 
L 195.73056 253.983247 
L 199.52064 250.721093 
L 205.20576 250.721093 
L 207.1008 249.090016 
L 208.99584 246.896499 
L 214.68096 246.896499 
L 216.576 245.265422 
L 218.47104 238.741114 
L 220.36608 238.741114 
L 222.26112 237.110037 
L 224.15616 237.110037 
L 226.0512 231.654366 
L 229.84128 228.392212 
L 231.73632 228.392212 
L 233.63136 226.761135 
L 237.42144 226.761135 
L 239.31648 225.130058 
L 245.0016 225.130058 
L 246.89664 219.674387 
L 248.79168 218.04331 
L 250.68672 218.04331 
L 254.4768 214.781156 
L 256.37184 212.587639 
L 258.26688 212.587639 
L 260.16192 210.956562 
L 262.05696 210.956562 
L 265.84704 203.307374 
L 267.74208 201.676297 
L 269.63712 197.851703 
L 271.53216 197.851703 
L 273.4272 195.658186 
L 288.58752 195.658186 
L 292.3776 192.396032 
L 309.43296 192.396032 
L 311.328 190.764955 
L 315.11808 190.764955 
L 317.01312 188.571438 
L 326.48832 188.571438 
L 328.38336 185.309284 
L 330.2784 185.309284 
L 332.17344 183.115767 
L 360.59904 183.115767 
L 362.49408 178.728732 
L 368.1792 178.728732 
L 370.07424 177.097655 
L 371.96928 177.097655 
L 373.86432 174.904138 
L 392.81472 174.904138 
L 394.70976 172.710621 
L 404.18496 172.710621 
L 406.08 168.323586 
L 415.5552 168.323586 
L 417.45024 166.130069 
L 419.34528 166.130069 
L 421.24032 163.936552 
L 426.92544 163.936552 
L 428.82048 161.743034 
L 434.5056 161.743034 
L 436.40064 159.549517 
L 455.35104 159.549517 
L 457.24608 157.356 
L 462.9312 157.356 
L 464.82624 155.162483 
L 466.72128 155.162483 
L 468.61632 152.968966 
L 472.4064 152.968966 
L 474.30144 148.581931 
L 476.19648 146.388414 
L 478.09152 146.388414 
L 479.98656 144.194897 
L 493.25184 144.194897 
L 495.14688 142.001379 
L 510.3072 142.001379 
L 512.20224 139.807862 
L 527.36256 139.807862 
L 529.2576 137.614345 
L 533.04768 137.614345 
L 536.83776 133.22731 
L 550.10304 133.22731 
L 553.89312 128.840276 
L 578.52864 128.840276 
L 580.42368 126.646759 
L 584.21376 126.646759 
L 586.1088 124.453241 
L 588.00384 124.453241 
L 589.89888 120.066207 
L 605.0592 120.066207 
L 606.95424 117.87269 
L 622.11456 117.87269 
L 624.0096 115.679172 
L 627.79968 115.679172 
L 629.69472 113.485655 
L 633.4848 113.485655 
L 635.37984 111.292138 
L 642.96 111.292138 
L 642.96 111.292138 
" clip-path="url(#p02924ff057)" style="fill: none; stroke-dasharray: 4.995,2.16; stroke-dashoffset: 0; stroke: #c38a19; stroke-width: 1.35"/>
   </g>
   <g id="line2d_30">
    <path d="M 74.448 348.192 
L 97.18848 348.192 
L 100.97856 344.929846 
L 102.8736 344.929846 
L 104.76864 343.298769 
L 108.55872 343.298769 
L 110.45376 341.667692 
L 116.13888 341.667692 
L 118.03392 340.036615 
L 119.92896 336.212021 
L 125.61408 336.212021 
L 127.50912 334.580944 
L 129.40416 331.31879 
L 135.08928 331.31879 
L 138.87936 328.056637 
L 140.7744 324.794483 
L 142.66944 319.338812 
L 144.56448 319.338812 
L 146.45952 316.076658 
L 150.2496 305.165316 
L 152.14464 302.971798 
L 154.03968 297.516127 
L 155.93472 293.691533 
L 157.82976 293.691533 
L 165.40992 287.167225 
L 167.30496 283.905072 
L 169.2 275.187247 
L 174.88512 270.294016 
L 178.6752 270.294016 
L 180.57024 267.031862 
L 182.46528 265.400785 
L 184.36032 265.400785 
L 186.25536 262.138631 
L 190.04544 262.138631 
L 191.94048 260.507554 
L 193.83552 260.507554 
L 195.73056 256.68296 
L 197.6256 255.051883 
L 199.52064 255.051883 
L 201.41568 251.789729 
L 207.1008 251.789729 
L 208.99584 250.158653 
L 216.576 250.158653 
L 218.47104 248.527576 
L 220.36608 244.702981 
L 222.26112 239.809751 
L 224.15616 239.809751 
L 226.0512 238.178674 
L 227.94624 235.985156 
L 229.84128 234.35408 
L 231.73632 234.35408 
L 233.63136 228.335968 
L 237.42144 228.335968 
L 239.31648 223.948934 
L 241.21152 222.317857 
L 243.10656 217.424626 
L 246.89664 217.424626 
L 248.79168 215.793549 
L 250.68672 212.531395 
L 254.4768 212.531395 
L 256.37184 210.900318 
L 258.26688 210.900318 
L 260.16192 209.269241 
L 262.05696 207.075724 
L 265.84704 207.075724 
L 267.74208 205.444647 
L 277.21728 205.444647 
L 279.11232 203.81357 
L 282.9024 197.289263 
L 284.79744 197.289263 
L 286.69248 195.095745 
L 288.58752 195.095745 
L 290.48256 193.464668 
L 292.3776 193.464668 
L 294.27264 191.833592 
L 299.95776 191.833592 
L 301.8528 189.640074 
L 309.43296 189.640074 
L 311.328 186.37792 
L 328.38336 186.37792 
L 330.2784 184.184403 
L 332.17344 184.184403 
L 334.06848 181.990886 
L 343.54368 181.990886 
L 345.43872 179.797369 
L 351.12384 179.797369 
L 353.01888 176.535215 
L 362.49408 176.535215 
L 364.38912 174.341698 
L 371.96928 174.341698 
L 373.86432 169.954663 
L 385.23456 169.954663 
L 387.1296 167.761146 
L 389.02464 167.761146 
L 390.91968 165.567629 
L 394.70976 165.567629 
L 396.6048 163.374111 
L 398.49984 161.743034 
L 402.28992 161.743034 
L 404.18496 159.549517 
L 423.13536 159.549517 
L 425.0304 157.356 
L 432.61056 157.356 
L 436.40064 152.968966 
L 440.19072 152.968966 
L 442.08576 150.775448 
L 443.9808 150.775448 
L 449.66592 144.194897 
L 464.82624 144.194897 
L 466.72128 142.001379 
L 479.98656 142.001379 
L 481.8816 139.807862 
L 493.25184 139.807862 
L 495.14688 137.614345 
L 502.72704 137.614345 
L 504.62208 133.22731 
L 517.88736 133.22731 
L 521.67744 128.840276 
L 548.208 128.840276 
L 551.99808 124.453241 
L 555.78816 124.453241 
L 557.6832 120.066207 
L 572.84352 120.066207 
L 574.73856 117.87269 
L 591.79392 117.87269 
L 593.68896 115.679172 
L 595.584 115.679172 
L 597.47904 113.485655 
L 601.26912 113.485655 
L 603.16416 111.292138 
L 614.5344 111.292138 
L 616.42944 109.098621 
L 642.96 109.098621 
L 642.96 109.098621 
" clip-path="url(#p02924ff057)" style="fill: none; stroke-dasharray: 1.35,2.2275; stroke-dashoffset: 0; stroke: #7d8a92; stroke-width: 1.35"/>
   </g>
   <g id="line2d_31">
    <path d="M 74.448 348.192 
L 159.7248 348.192 
L 161.61984 345.998483 
L 180.57024 345.998483 
L 182.46528 343.804966 
L 186.25536 343.804966 
L 190.04544 339.417931 
L 201.41568 339.417931 
L 203.31072 337.224414 
L 205.20576 337.224414 
L 207.1008 335.030897 
L 216.576 335.030897 
L 218.47104 332.837379 
L 229.84128 332.837379 
L 231.73632 330.643862 
L 233.63136 330.643862 
L 235.5264 328.450345 
L 241.21152 328.450345 
L 243.10656 326.256828 
L 245.0016 326.256828 
L 246.89664 324.625751 
L 248.79168 322.432233 
L 254.4768 322.432233 
L 258.26688 318.045199 
L 262.05696 318.045199 
L 263.952 313.658164 
L 265.84704 313.658164 
L 267.74208 309.27113 
L 273.4272 309.27113 
L 275.32224 307.077613 
L 277.21728 307.077613 
L 281.00736 302.690578 
L 284.79744 302.690578 
L 290.48256 296.110027 
L 292.3776 294.47895 
L 294.27264 294.47895 
L 298.06272 290.091915 
L 299.95776 290.091915 
L 301.8528 288.460838 
L 303.74784 288.460838 
L 309.43296 281.880286 
L 311.328 275.299735 
L 315.11808 270.9127 
L 322.69824 270.9127 
L 324.59328 264.332149 
L 326.48832 262.138631 
L 328.38336 258.314037 
L 335.96352 258.314037 
L 337.85856 254.489443 
L 339.7536 252.858366 
L 341.64864 252.858366 
L 343.54368 251.227289 
L 345.43872 251.227289 
L 347.33376 246.840255 
L 351.12384 242.45322 
L 353.01888 239.191066 
L 356.80896 239.191066 
L 358.704 235.366472 
L 362.49408 235.366472 
L 364.38912 229.348361 
L 366.28416 227.154844 
L 371.96928 227.154844 
L 373.86432 224.961326 
L 375.75936 223.330249 
L 379.54944 223.330249 
L 381.44448 221.699172 
L 383.33952 221.699172 
L 385.23456 215.681061 
L 394.70976 215.681061 
L 396.6048 214.049984 
L 402.28992 214.049984 
L 404.18496 210.78783 
L 407.97504 210.78783 
L 409.87008 207.525676 
L 413.66016 207.525676 
L 415.5552 202.632446 
L 417.45024 201.001369 
L 419.34528 201.001369 
L 421.24032 198.807851 
L 423.13536 198.807851 
L 425.0304 197.176775 
L 426.92544 193.914621 
L 430.71552 193.914621 
L 432.61056 192.283544 
L 436.40064 192.283544 
L 438.29568 189.02139 
L 442.08576 189.02139 
L 443.9808 187.390313 
L 445.87584 185.196796 
L 455.35104 185.196796 
L 457.24608 181.372202 
L 459.14112 181.372202 
L 461.03616 177.547607 
L 462.9312 177.547607 
L 464.82624 175.35409 
L 466.72128 172.091936 
L 468.61632 172.091936 
L 470.51136 170.460859 
L 472.4064 170.460859 
L 476.19648 167.198706 
L 478.09152 163.936552 
L 479.98656 162.305475 
L 481.8816 162.305475 
L 485.67168 159.043321 
L 489.46176 159.043321 
L 495.14688 154.15009 
L 497.04192 150.887936 
L 502.72704 150.887936 
L 504.62208 148.694419 
L 506.51712 148.694419 
L 508.41216 147.063342 
L 510.3072 147.063342 
L 512.20224 145.432265 
L 515.99232 145.432265 
L 517.88736 143.801188 
L 529.2576 143.801188 
L 534.94272 138.907958 
L 538.7328 138.907958 
L 540.62784 137.276881 
L 542.52288 137.276881 
L 544.41792 135.645804 
L 548.208 135.645804 
L 550.10304 132.38365 
L 551.99808 132.38365 
L 555.78816 129.121496 
L 559.57824 129.121496 
L 561.47328 127.490419 
L 569.05344 127.490419 
L 570.94848 123.665825 
L 574.73856 120.403671 
L 576.6336 120.403671 
L 578.52864 118.772594 
L 580.42368 115.51044 
L 582.31872 113.879363 
L 584.21376 113.879363 
L 586.1088 112.248286 
L 597.47904 112.248286 
L 601.26912 108.986133 
L 610.74432 108.986133 
L 618.32448 102.461825 
L 625.90464 102.461825 
L 627.79968 100.830748 
L 642.96 100.830748 
L 642.96 100.830748 
" clip-path="url(#p02924ff057)" style="fill: none; stroke-dasharray: 8.64,2.16,1.35,2.16; stroke-dashoffset: 0; stroke: #d0526a; stroke-width: 1.35"/>
   </g>
   <g id="line2d_32">
    <path d="M 74.448 348.192 
L 87.71328 348.192 
L 89.60832 345.998483 
L 100.97856 345.998483 
L 102.8736 343.804966 
L 104.76864 343.804966 
L 106.66368 341.611448 
L 125.61408 341.611448 
L 129.40416 337.224414 
L 135.08928 337.224414 
L 136.98432 335.030897 
L 140.7744 335.030897 
L 142.66944 332.837379 
L 148.35456 332.837379 
L 150.2496 330.643862 
L 152.14464 326.256828 
L 154.03968 324.06331 
L 163.51488 324.06331 
L 165.40992 321.869793 
L 167.30496 317.482759 
L 172.99008 317.482759 
L 176.78016 313.095724 
L 178.6752 313.095724 
L 180.57024 310.902207 
L 188.1504 310.902207 
L 193.83552 304.321655 
L 216.576 304.321655 
L 218.47104 302.128138 
L 226.0512 302.128138 
L 227.94624 299.934621 
L 235.5264 299.934621 
L 243.10656 291.160552 
L 248.79168 291.160552 
L 250.68672 288.967034 
L 254.4768 288.967034 
L 256.37184 286.773517 
L 263.952 286.773517 
L 265.84704 284.58 
L 277.21728 284.58 
L 279.11232 282.386483 
L 281.00736 282.386483 
L 286.69248 275.805931 
L 288.58752 275.805931 
L 290.48256 273.612414 
L 299.95776 273.612414 
L 301.8528 267.031862 
L 303.74784 264.838345 
L 305.64288 264.838345 
L 307.53792 261.013751 
L 337.85856 261.013751 
L 339.7536 258.820233 
L 345.43872 258.820233 
L 347.33376 254.433199 
L 356.80896 254.433199 
L 358.704 252.239682 
L 362.49408 252.239682 
L 364.38912 248.415088 
L 390.91968 248.415088 
L 394.70976 244.028053 
L 400.39488 244.028053 
L 404.18496 240.765899 
L 406.08 238.572382 
L 413.66016 238.572382 
L 415.5552 236.941305 
L 426.92544 236.941305 
L 428.82048 235.310228 
L 434.5056 235.310228 
L 436.40064 229.292117 
L 438.29568 229.292117 
L 440.19072 225.467523 
L 443.9808 221.080488 
L 445.87584 221.080488 
L 447.77088 219.449411 
L 449.66592 217.255894 
L 451.56096 217.255894 
L 453.456 213.99374 
L 455.35104 213.99374 
L 457.24608 211.800223 
L 464.82624 211.800223 
L 466.72128 208.538069 
L 470.51136 208.538069 
L 472.4064 205.275915 
L 478.09152 205.275915 
L 479.98656 203.082398 
L 481.8816 203.082398 
L 483.77664 201.451321 
L 491.3568 201.451321 
L 495.14688 198.189167 
L 497.04192 194.927013 
L 498.93696 192.733496 
L 500.832 192.733496 
L 502.72704 191.102419 
L 504.62208 191.102419 
L 506.51712 187.840265 
L 508.41216 187.840265 
L 510.3072 184.578111 
L 512.20224 182.947034 
L 515.99232 182.947034 
L 517.88736 179.684881 
L 519.7824 179.684881 
L 523.57248 176.422727 
L 533.04768 176.422727 
L 534.94272 172.598133 
L 536.83776 170.967056 
L 538.7328 170.967056 
L 540.62784 169.335979 
L 544.41792 169.335979 
L 548.208 166.073825 
L 551.99808 166.073825 
L 553.89312 164.442748 
L 555.78816 164.442748 
L 559.57824 161.180594 
L 565.26336 161.180594 
L 567.1584 157.91844 
L 569.05344 157.91844 
L 570.94848 154.656286 
L 574.73856 151.394133 
L 576.6336 151.394133 
L 578.52864 148.131979 
L 580.42368 148.131979 
L 582.31872 146.500902 
L 584.21376 146.500902 
L 586.1088 144.869825 
L 599.37408 144.869825 
L 601.26912 143.238748 
L 603.16416 143.238748 
L 605.0592 141.607671 
L 606.95424 141.607671 
L 608.84928 139.976594 
L 610.74432 139.976594 
L 612.63936 136.71444 
L 618.32448 136.71444 
L 620.21952 135.083363 
L 624.0096 135.083363 
L 625.90464 133.452286 
L 629.69472 133.452286 
L 631.58976 131.82121 
L 633.4848 131.82121 
L 635.37984 130.190133 
L 637.27488 126.927979 
L 639.16992 125.296902 
L 641.06496 125.296902 
L 642.96 123.665825 
L 642.96 123.665825 
" clip-path="url(#p02924ff057)" style="fill: none; stroke-dasharray: 6.75,2.7,1.35,2.7; stroke-dashoffset: 0; stroke: #2f8f84; stroke-width: 1.35"/>
   </g>
   <g id="patch_4">
    <path d="M 74.448 348.192 
L 74.448 93.744 
" style="fill: none; stroke: #000000; stroke-width: 0.8; stroke-linejoin: miter; stroke-linecap: square"/>
   </g>
   <g id="patch_5">
    <path d="M 74.448 348.192 
L 642.96 348.192 
" style="fill: none; stroke: #000000; stroke-width: 0.8; stroke-linejoin: miter; stroke-linecap: square"/>
   </g>
  </g>
  <g id="text_16">
   <text style="font: 18px 'DejaVu Sans', 'Bitstream Vera Sans', 'Computer Modern Sans Serif', 'Lucida Grande', 'Verdana', 'Geneva', 'Lucid', 'Arial', 'Helvetica', 'Avant Garde', sans-serif; text-anchor: start" x="74.448" y="38.229188" transform="rotate(-0 74.448 38.229188)">LED-RGB1 Direct</text>
  </g>
  <g id="text_17">
   <text style="fill: #66747c; font: 10px 'DejaVu Sans', 'Bitstream Vera Sans', 'Computer Modern Sans Serif', 'Lucida Grande', 'Verdana', 'Geneva', 'Lucid', 'Arial', 'Helvetica', 'Avant Garde', sans-serif; text-anchor: start" x="74.448" y="64.728" transform="rotate(-0 74.448 64.728)">KSF LCD</text>
  </g>
  <g id="legend_1">
   <g id="line2d_33">
    <path d="M 185.17875 404.151391 
L 194.27875 404.151391 
L 203.37875 404.151391 
" style="fill: none; stroke: #252525; stroke-width: 2.5; stroke-linecap: square"/>
   </g>
   <g id="text_18">
    <text style="font: 9.1px 'DejaVu Sans', 'Bitstream Vera Sans', 'Computer Modern Sans Serif', 'Lucida Grande', 'Verdana', 'Geneva', 'Lucid', 'Arial', 'Helvetica', 'Avant Garde', sans-serif; text-anchor: start" x="210.65875" y="407.336391" transform="rotate(-0 210.65875 407.336391)">Potera CMF</text>
   </g>
   <g id="line2d_34">
    <path d="M 185.17875 417.508484 
L 194.27875 417.508484 
L 203.37875 417.508484 
" style="fill: none; stroke: #3b83b4; stroke-width: 1.35; stroke-linecap: square"/>
   </g>
   <g id="text_19">
    <text style="font: 9.1px 'DejaVu Sans', 'Bitstream Vera Sans', 'Computer Modern Sans Serif', 'Lucida Grande', 'Verdana', 'Geneva', 'Lucid', 'Arial', 'Helvetica', 'Avant Garde', sans-serif; text-anchor: start" x="210.65875" y="420.693484" transform="rotate(-0 210.65875 420.693484)">CIE 2015 2°</text>
   </g>
   <g id="line2d_35">
    <path d="M 282.931234 404.151391 
L 292.031234 404.151391 
L 301.131234 404.151391 
" style="fill: none; stroke-dasharray: 4.995,2.16; stroke-dashoffset: 0; stroke: #c38a19; stroke-width: 1.35"/>
   </g>
   <g id="text_20">
    <text style="font: 9.1px 'DejaVu Sans', 'Bitstream Vera Sans', 'Computer Modern Sans Serif', 'Lucida Grande', 'Verdana', 'Geneva', 'Lucid', 'Arial', 'Helvetica', 'Avant Garde', sans-serif; text-anchor: start" x="308.411234" y="407.336391" transform="rotate(-0 308.411234 407.336391)">CIE 2015 10°</text>
   </g>
   <g id="line2d_36">
    <path d="M 282.931234 417.508484 
L 292.031234 417.508484 
L 301.131234 417.508484 
" style="fill: none; stroke-dasharray: 1.35,2.2275; stroke-dashoffset: 0; stroke: #7d8a92; stroke-width: 1.35"/>
   </g>
   <g id="text_21">
    <text style="font: 9.1px 'DejaVu Sans', 'Bitstream Vera Sans', 'Computer Modern Sans Serif', 'Lucida Grande', 'Verdana', 'Geneva', 'Lucid', 'Arial', 'Helvetica', 'Avant Garde', sans-serif; text-anchor: start" x="308.411234" y="420.693484" transform="rotate(-0 308.411234 420.693484)">CIE 1964 10°</text>
   </g>
   <g id="line2d_37">
    <path d="M 386.473594 404.151391 
L 395.573594 404.151391 
L 404.673594 404.151391 
" style="fill: none; stroke-dasharray: 8.64,2.16,1.35,2.16; stroke-dashoffset: 0; stroke: #d0526a; stroke-width: 1.35"/>
   </g>
   <g id="text_22">
    <text style="font: 9.1px 'DejaVu Sans', 'Bitstream Vera Sans', 'Computer Modern Sans Serif', 'Lucida Grande', 'Verdana', 'Geneva', 'Lucid', 'Arial', 'Helvetica', 'Avant Garde', sans-serif; text-anchor: start" x="411.953594" y="407.336391" transform="rotate(-0 411.953594 407.336391)">CIE 1931 2°</text>
   </g>
   <g id="line2d_38">
    <path d="M 386.473594 417.508484 
L 395.573594 417.508484 
L 404.673594 417.508484 
" style="fill: none; stroke-dasharray: 6.75,2.7,1.35,2.7; stroke-dashoffset: 0; stroke: #2f8f84; stroke-width: 1.35"/>
   </g>
   <g id="text_23">
    <text style="font: 9.1px 'DejaVu Sans', 'Bitstream Vera Sans', 'Computer Modern Sans Serif', 'Lucida Grande', 'Verdana', 'Geneva', 'Lucid', 'Arial', 'Helvetica', 'Avant Garde', sans-serif; text-anchor: start" x="411.953594" y="420.693484" transform="rotate(-0 411.953594 420.693484)">Judd–Vos 1978 2°</text>
   </g>
  </g>
 </g>
 <defs>
  <clipPath id="p02924ff057">
   <rect x="74.448" y="93.744" width="568.512" height="254.448"/>
  </clipPath>
 </defs>
</svg>
