<?xml version="1.0" encoding="utf-8" standalone="no"?>
<!DOCTYPE svg PUBLIC "-//W3C//DTD SVG 1.1//EN"
  "http://www.w3.org/Graphics/SVG/1.1/DTD/svg11.dtd">
<svg xmlns:xlink="http://www.w3.org/1999/xlink" width="676.8pt" height="446.4pt" viewBox="0 0 676.8 446.4" xmlns="http://www.w3.org/2000/svg" version="1.1">
 <metadata>
  <rdf:RDF xmlns:dc="http://purl.org/dc/elements/1.1/" xmlns:cc="http://creativecommons.org/ns#" xmlns:rdf="http://www.w3.org/1999/02/22-rdf-syntax-ns#">
   <cc:Work>
    <dc:type rdf:resource="http://purl.org/dc/dcmitype/StillImage"/>
    <dc:date>2026-07-20T06:41:56.097037</dc:date>
    <dc:format>image/svg+xml</dc:format>
    <dc:creator>
     <cc:Agent>
      <dc:title>Matplotlib v3.9.4, https://matplotlib.org/</dc:title>
     </cc:Agent>
    </dc:creator>
   </cc:Work>
  </rdf:RDF>
 </metadata>
 <defs>
  <style type="text/css">*{stroke-linejoin: round; stroke-linecap: butt}</style>
 </defs>
 <g id="figure_1">
  <g id="patch_1">
   <path d="M 0 446.4 
L 676.8 446.4 
L 676.8 0 
L 0 0 
z
" style="fill: #ffffff"/>
  </g>
  <g id="axes_1">
   <g id="patch_2">
    <path d="M 74.448 348.192 
L 642.96 348.192 
L 642.96 93.744 
L 74.448 93.744 
z
" style="fill: #ffffff"/>
   </g>
   <g id="patch_3">
    <path d="M 169.2 348.192 
L 358.704 348.192 
L 358.704 93.744 
L 169.2 93.744 
z
" clip-path="url(#p33555d4267)" style="fill: #e7f0ea; opacity: 0.58; stroke: #e7f0ea; stroke-linejoin: miter"/>
   </g>
   <g id="matplotlib.axis_1">
    <g id="xtick_1">
     <g id="line2d_1">
      <path d="M 74.448 348.192 
L 74.448 93.744 
" clip-path="url(#p33555d4267)" style="fill: none; stroke: #dfe5e8; stroke-width: 0.65; stroke-linecap: square"/>
     </g>
     <g id="line2d_2">
      <defs>
       <path id="m13d65da599" d="M 0 0 
L 0 3.5 
" style="stroke: #000000; stroke-width: 0.8"/>
      </defs>
      <g>
       <use xlink:href="#m13d65da599" x="74.448" y="348.192" style="stroke: #000000; stroke-width: 0.8"/>
      </g>
     </g>
     <g id="text_1">
      <text style="font: 10px 'DejaVu Sans', 'Bitstream Vera Sans', 'Computer Modern Sans Serif', 'Lucida Grande', 'Verdana', 'Geneva', 'Lucid', 'Arial', 'Helvetica', 'Avant Garde', sans-serif; text-anchor: middle" x="74.448" y="362.790438" transform="rotate(-0 74.448 362.790438)">0</text>
     </g>
    </g>
    <g id="xtick_2">
     <g id="line2d_3">
      <path d="M 169.2 348.192 
L 169.2 93.744 
" clip-path="url(#p33555d4267)" style="fill: none; stroke: #dfe5e8; stroke-width: 0.65; stroke-linecap: square"/>
     </g>
     <g id="line2d_4">
      <g>
       <use xlink:href="#m13d65da599" x="169.2" y="348.192" style="stroke: #000000; stroke-width: 0.8"/>
      </g>
     </g>
     <g id="text_2">
      <text style="font: 10px 'DejaVu Sans', 'Bitstream Vera Sans', 'Computer Modern Sans Serif', 'Lucida Grande', 'Verdana', 'Geneva', 'Lucid', 'Arial', 'Helvetica', 'Avant Garde', sans-serif; text-anchor: middle" x="169.2" y="362.790438" transform="rotate(-0 169.2 362.790438)">1</text>
     </g>
    </g>
    <g id="xtick_3">
     <g id="line2d_5">
      <path d="M 263.952 348.192 
L 263.952 93.744 
" clip-path="url(#p33555d4267)" style="fill: none; stroke: #dfe5e8; stroke-width: 0.65; stroke-linecap: square"/>
     </g>
     <g id="line2d_6">
      <g>
       <use xlink:href="#m13d65da599" x="263.952" y="348.192" style="stroke: #000000; stroke-width: 0.8"/>
      </g>
     </g>
     <g id="text_3">
      <text style="font: 10px 'DejaVu Sans', 'Bitstream Vera Sans', 'Computer Modern Sans Serif', 'Lucida Grande', 'Verdana', 'Geneva', 'Lucid', 'Arial', 'Helvetica', 'Avant Garde', sans-serif; text-anchor: middle" x="263.952" y="362.790438" transform="rotate(-0 263.952 362.790438)">2</text>
     </g>
    </g>
    <g id="xtick_4">
     <g id="line2d_7">
      <path d="M 358.704 348.192 
L 358.704 93.744 
" clip-path="url(#p33555d4267)" style="fill: none; stroke: #dfe5e8; stroke-width: 0.65; stroke-linecap: square"/>
     </g>
     <g id="line2d_8">
      <g>
       <use xlink:href="#m13d65da599" x="358.704" y="348.192" style="stroke: #000000; stroke-width: 0.8"/>
      </g>
     </g>
     <g id="text_4">
      <text style="font: 10px 'DejaVu Sans', 'Bitstream Vera Sans', 'Computer Modern Sans Serif', 'Lucida Grande', 'Verdana', 'Geneva', 'Lucid', 'Arial', 'Helvetica', 'Avant Garde', sans-serif; text-anchor: middle" x="358.704" y="362.790438" transform="rotate(-0 358.704 362.790438)">3</text>
     </g>
    </g>
    <g id="xtick_5">
     <g id="line2d_9">
      <path d="M 453.456 348.192 
L 453.456 93.744 
" clip-path="url(#p33555d4267)" style="fill: none; stroke: #dfe5e8; stroke-width: 0.65; stroke-linecap: square"/>
     </g>
     <g id="line2d_10">
      <g>
       <use xlink:href="#m13d65da599" x="453.456" y="348.192" style="stroke: #000000; stroke-width: 0.8"/>
      </g>
     </g>
     <g id="text_5">
      <text style="font: 10px 'DejaVu Sans', 'Bitstream Vera Sans', 'Computer Modern Sans Serif', 'Lucida Grande', 'Verdana', 'Geneva', 'Lucid', 'Arial', 'Helvetica', 'Avant Garde', sans-serif; text-anchor: middle" x="453.456" y="362.790438" transform="rotate(-0 453.456 362.790438)">4</text>
     </g>
    </g>
    <g id="xtick_6">
     <g id="line2d_11">
      <path d="M 548.208 348.192 
L 548.208 93.744 
" clip-path="url(#p33555d4267)" style="fill: none; stroke: #dfe5e8; stroke-width: 0.65; stroke-linecap: square"/>
     </g>
     <g id="line2d_12">
      <g>
       <use xlink:href="#m13d65da599" x="548.208" y="348.192" style="stroke: #000000; stroke-width: 0.8"/>
      </g>
     </g>
     <g id="text_6">
      <text style="font: 10px 'DejaVu Sans', 'Bitstream Vera Sans', 'Computer Modern Sans Serif', 'Lucida Grande', 'Verdana', 'Geneva', 'Lucid', 'Arial', 'Helvetica', 'Avant Garde', sans-serif; text-anchor: middle" x="548.208" y="362.790438" transform="rotate(-0 548.208 362.790438)">5</text>
     </g>
    </g>
    <g id="xtick_7">
     <g id="line2d_13">
      <path d="M 642.96 348.192 
L 642.96 93.744 
" clip-path="url(#p33555d4267)" style="fill: none; stroke: #dfe5e8; stroke-width: 0.65; stroke-linecap: square"/>
     </g>
     <g id="line2d_14">
      <g>
       <use xlink:href="#m13d65da599" x="642.96" y="348.192" style="stroke: #000000; stroke-width: 0.8"/>
      </g>
     </g>
     <g id="text_7">
      <text style="font: 10px 'DejaVu Sans', 'Bitstream Vera Sans', 'Computer Modern Sans Serif', 'Lucida Grande', 'Verdana', 'Geneva', 'Lucid', 'Arial', 'Helvetica', 'Avant Garde', sans-serif; text-anchor: middle" x="642.96" y="362.790438" transform="rotate(-0 642.96 362.790438)">6</text>
     </g>
    </g>
    <g id="text_8">
     <text style="font: 10px 'DejaVu Sans', 'Bitstream Vera Sans', 'Computer Modern Sans Serif', 'Lucida Grande', 'Verdana', 'Geneva', 'Lucid', 'Arial', 'Helvetica', 'Avant Garde', sans-serif; text-anchor: middle" x="358.704" y="376.468563" transform="rotate(-0 358.704 376.468563)">sUCS dE threshold</text>
    </g>
   </g>
   <g id="matplotlib.axis_2">
    <g id="ytick_1">
     <g id="line2d_15">
      <path d="M 74.448 348.192 
L 642.96 348.192 
" clip-path="url(#p33555d4267)" style="fill: none; stroke: #dfe5e8; stroke-width: 0.65; stroke-linecap: square"/>
     </g>
     <g id="line2d_16">
      <defs>
       <path id="mc8be4dd995" d="M 0 0 
L -3.5 0 
" style="stroke: #000000; stroke-width: 0.8"/>
      </defs>
      <g>
       <use xlink:href="#mc8be4dd995" x="74.448" y="348.192" style="stroke: #000000; stroke-width: 0.8"/>
      </g>
     </g>
     <g id="text_9">
      <text style="font: 10px 'DejaVu Sans', 'Bitstream Vera Sans', 'Computer Modern Sans Serif', 'Lucida Grande', 'Verdana', 'Geneva', 'Lucid', 'Arial', 'Helvetica', 'Avant Garde', sans-serif; text-anchor: end" x="67.448" y="351.991219" transform="rotate(-0 67.448 351.991219)">0</text>
     </g>
    </g>
    <g id="ytick_2">
     <g id="line2d_17">
      <path d="M 74.448 297.3024 
L 642.96 297.3024 
" clip-path="url(#p33555d4267)" style="fill: none; stroke: #dfe5e8; stroke-width: 0.65; stroke-linecap: square"/>
     </g>
     <g id="line2d_18">
      <g>
       <use xlink:href="#mc8be4dd995" x="74.448" y="297.3024" style="stroke: #000000; stroke-width: 0.8"/>
      </g>
     </g>
     <g id="text_10">
      <text style="font: 10px 'DejaVu Sans', 'Bitstream Vera Sans', 'Computer Modern Sans Serif', 'Lucida Grande', 'Verdana', 'Geneva', 'Lucid', 'Arial', 'Helvetica', 'Avant Garde', sans-serif; text-anchor: end" x="67.448" y="301.101619" transform="rotate(-0 67.448 301.101619)">20</text>
     </g>
    </g>
    <g id="ytick_3">
     <g id="line2d_19">
      <path d="M 74.448 246.4128 
L 642.96 246.4128 
" clip-path="url(#p33555d4267)" style="fill: none; stroke: #dfe5e8; stroke-width: 0.65; stroke-linecap: square"/>
     </g>
     <g id="line2d_20">
      <g>
       <use xlink:href="#mc8be4dd995" x="74.448" y="246.4128" style="stroke: #000000; stroke-width: 0.8"/>
      </g>
     </g>
     <g id="text_11">
      <text style="font: 10px 'DejaVu Sans', 'Bitstream Vera Sans', 'Computer Modern Sans Serif', 'Lucida Grande', 'Verdana', 'Geneva', 'Lucid', 'Arial', 'Helvetica', 'Avant Garde', sans-serif; text-anchor: end" x="67.448" y="250.212019" transform="rotate(-0 67.448 250.212019)">40</text>
     </g>
    </g>
    <g id="ytick_4">
     <g id="line2d_21">
      <path d="M 74.448 195.5232 
L 642.96 195.5232 
" clip-path="url(#p33555d4267)" style="fill: none; stroke: #dfe5e8; stroke-width: 0.65; stroke-linecap: square"/>
     </g>
     <g id="line2d_22">
      <g>
       <use xlink:href="#mc8be4dd995" x="74.448" y="195.5232" style="stroke: #000000; stroke-width: 0.8"/>
      </g>
     </g>
     <g id="text_12">
      <text style="font: 10px 'DejaVu Sans', 'Bitstream Vera Sans', 'Computer Modern Sans Serif', 'Lucida Grande', 'Verdana', 'Geneva', 'Lucid', 'Arial', 'Helvetica', 'Avant Garde', sans-serif; text-anchor: end" x="67.448" y="199.322419" transform="rotate(-0 67.448 199.322419)">60</text>
     </g>
    </g>
    <g id="ytick_5">
     <g id="line2d_23">
      <path d="M 74.448 144.6336 
L 642.96 144.6336 
" clip-path="url(#p33555d4267)" style="fill: none; stroke: #dfe5e8; stroke-width: 0.65; stroke-linecap: square"/>
     </g>
     <g id="line2d_24">
      <g>
       <use xlink:href="#mc8be4dd995" x="74.448" y="144.6336" style="stroke: #000000; stroke-width: 0.8"/>
      </g>
     </g>
     <g id="text_13">
      <text style="font: 10px 'DejaVu Sans', 'Bitstream Vera Sans', 'Computer Modern Sans Serif', 'Lucida Grande', 'Verdana', 'Geneva', 'Lucid', 'Arial', 'Helvetica', 'Avant Garde', sans-serif; text-anchor: end" x="67.448" y="148.432819" transform="rotate(-0 67.448 148.432819)">80</text>
     </g>
    </g>
    <g id="ytick_6">
     <g id="line2d_25">
      <path d="M 74.448 93.744 
L 642.96 93.744 
" clip-path="url(#p33555d4267)" style="fill: none; stroke: #dfe5e8; stroke-width: 0.65; stroke-linecap: square"/>
     </g>
     <g id="line2d_26">
      <g>
       <use xlink:href="#mc8be4dd995" x="74.448" y="93.744" style="stroke: #000000; stroke-width: 0.8"/>
      </g>
     </g>
     <g id="text_14">
      <text style="font: 10px 'DejaVu Sans', 'Bitstream Vera Sans', 'Computer Modern Sans Serif', 'Lucida Grande', 'Verdana', 'Geneva', 'Lucid', 'Arial', 'Helvetica', 'Avant Garde', sans-serif; text-anchor: end" x="67.448" y="97.543219" transform="rotate(-0 67.448 97.543219)">100</text>
     </g>
    </g>
    <g id="text_15">
     <text style="font: 10px 'DejaVu Sans', 'Bitstream Vera Sans', 'Computer Modern Sans Serif', 'Lucida Grande', 'Verdana', 'Geneva', 'Lucid', 'Arial', 'Helvetica', 'Avant Garde', sans-serif; text-anchor: middle" x="42.280812" y="220.968" transform="rotate(-90 42.280812 220.968)">observers%</text>
    </g>
   </g>
   <g id="line2d_27">
    <path d="M 74.448 348.192 
L 116.13888 348.192 
L 118.03392 346.560923 
L 119.92896 346.560923 
L 123.71904 343.298769 
L 125.61408 343.298769 
L 127.50912 341.667692 
L 131.2992 341.667692 
L 135.08928 335.143385 
L 136.98432 335.143385 
L 138.87936 333.512308 
L 142.66944 333.512308 
L 144.56448 329.687714 
L 146.45952 329.687714 
L 148.35456 328.056637 
L 150.2496 328.056637 
L 152.14464 326.42556 
L 155.93472 326.42556 
L 157.82976 322.600966 
L 159.7248 322.600966 
L 161.61984 320.969889 
L 163.51488 320.969889 
L 167.30496 317.707735 
L 169.2 315.514218 
L 171.09504 310.058546 
L 176.78016 310.058546 
L 178.6752 306.233952 
L 190.04544 306.233952 
L 191.94048 304.602875 
L 193.83552 304.602875 
L 195.73056 302.971798 
L 197.6256 302.971798 
L 199.52064 301.340721 
L 203.31072 301.340721 
L 205.20576 299.709645 
L 212.78592 299.709645 
L 214.68096 294.816414 
L 218.47104 294.816414 
L 220.36608 293.185337 
L 222.26112 290.99182 
L 224.15616 290.99182 
L 226.0512 287.167225 
L 227.94624 285.536149 
L 231.73632 285.536149 
L 233.63136 283.905072 
L 237.42144 283.905072 
L 239.31648 282.273995 
L 241.21152 282.273995 
L 243.10656 278.449401 
L 252.58176 278.449401 
L 254.4768 276.818324 
L 256.37184 276.818324 
L 258.26688 275.187247 
L 262.05696 275.187247 
L 263.952 271.362653 
L 267.74208 271.362653 
L 269.63712 268.100499 
L 271.53216 266.469422 
L 273.4272 266.469422 
L 275.32224 263.207268 
L 277.21728 263.207268 
L 279.11232 259.382674 
L 281.00736 257.751597 
L 282.9024 257.751597 
L 284.79744 254.489443 
L 286.69248 252.858366 
L 288.58752 249.033772 
L 298.06272 249.033772 
L 299.95776 247.402695 
L 307.53792 247.402695 
L 309.43296 244.140541 
L 313.22304 240.878387 
L 315.11808 240.878387 
L 317.01312 238.68487 
L 320.8032 238.68487 
L 322.69824 235.422716 
L 324.59328 235.422716 
L 326.48832 233.791639 
L 339.7536 233.791639 
L 341.64864 229.967045 
L 343.54368 227.773528 
L 345.43872 227.773528 
L 347.33376 222.880297 
L 356.80896 222.880297 
L 358.704 220.68678 
L 360.59904 216.862186 
L 364.38912 216.862186 
L 366.28416 213.037592 
L 371.96928 213.037592 
L 373.86432 211.406515 
L 389.02464 211.406515 
L 390.91968 209.775438 
L 392.81472 204.319767 
L 398.49984 204.319767 
L 400.39488 202.68869 
L 404.18496 202.68869 
L 406.08 201.057613 
L 417.45024 201.057613 
L 419.34528 198.864095 
L 426.92544 198.864095 
L 428.82048 196.670578 
L 432.61056 196.670578 
L 434.5056 194.477061 
L 436.40064 194.477061 
L 438.29568 191.214907 
L 440.19072 189.58383 
L 442.08576 187.390313 
L 443.9808 187.390313 
L 445.87584 185.196796 
L 449.66592 185.196796 
L 451.56096 183.003279 
L 453.456 183.003279 
L 455.35104 180.809761 
L 459.14112 180.809761 
L 461.03616 177.547607 
L 462.9312 177.547607 
L 464.82624 175.916531 
L 470.51136 175.916531 
L 472.4064 173.723013 
L 478.09152 173.723013 
L 479.98656 172.091936 
L 481.8816 169.898419 
L 483.77664 169.898419 
L 485.67168 168.267342 
L 491.3568 168.267342 
L 493.25184 166.073825 
L 517.88736 166.073825 
L 519.7824 163.880308 
L 523.57248 163.880308 
L 525.46752 159.493273 
L 527.36256 157.299756 
L 531.15264 157.299756 
L 533.04768 155.106239 
L 546.31296 155.106239 
L 548.208 152.912721 
L 559.57824 152.912721 
L 563.36832 149.650568 
L 574.73856 149.650568 
L 576.6336 148.019491 
L 582.31872 148.019491 
L 584.21376 145.825973 
L 606.95424 145.825973 
L 608.84928 143.632456 
L 614.5344 143.632456 
L 616.42944 139.245422 
L 622.11456 139.245422 
L 624.0096 137.051905 
L 627.79968 137.051905 
L 629.69472 135.420828 
L 639.16992 135.420828 
L 642.96 131.033793 
L 642.96 131.033793 
" clip-path="url(#p33555d4267)" style="fill: none; stroke: #252525; stroke-width: 2.5; stroke-linecap: square"/>
   </g>
   <g id="line2d_28">
    <path d="M 74.448 348.192 
L 91.50336 348.192 
L 93.3984 345.998483 
L 104.76864 345.998483 
L 106.66368 343.804966 
L 119.92896 343.804966 
L 121.824 341.611448 
L 125.61408 341.611448 
L 127.50912 339.417931 
L 136.98432 339.417931 
L 138.87936 335.030897 
L 163.51488 335.030897 
L 165.40992 332.837379 
L 167.30496 332.837379 
L 169.2 330.643862 
L 174.88512 330.643862 
L 176.78016 328.450345 
L 178.6752 328.450345 
L 180.57024 326.256828 
L 195.73056 326.256828 
L 197.6256 324.06331 
L 216.576 324.06331 
L 218.47104 322.432233 
L 233.63136 322.432233 
L 235.5264 320.238716 
L 237.42144 320.238716 
L 239.31648 318.045199 
L 250.68672 318.045199 
L 254.4768 313.658164 
L 256.37184 313.658164 
L 258.26688 312.027088 
L 267.74208 312.027088 
L 269.63712 309.83357 
L 282.9024 309.83357 
L 284.79744 307.640053 
L 286.69248 307.640053 
L 288.58752 305.446536 
L 303.74784 305.446536 
L 305.64288 302.184382 
L 320.8032 302.184382 
L 322.69824 296.728711 
L 324.59328 294.535194 
L 328.38336 294.535194 
L 330.2784 292.904117 
L 332.17344 290.710599 
L 335.96352 290.710599 
L 337.85856 289.079523 
L 341.64864 289.079523 
L 343.54368 287.448446 
L 347.33376 287.448446 
L 349.2288 283.623851 
L 353.01888 279.236817 
L 354.91392 279.236817 
L 358.704 274.849782 
L 360.59904 274.849782 
L 362.49408 270.462748 
L 364.38912 270.462748 
L 366.28416 268.269231 
L 370.07424 268.269231 
L 371.96928 266.638154 
L 373.86432 266.638154 
L 377.6544 262.251119 
L 383.33952 262.251119 
L 385.23456 260.620042 
L 390.91968 260.620042 
L 392.81472 256.795448 
L 394.70976 255.164371 
L 398.49984 255.164371 
L 400.39488 251.902218 
L 402.28992 250.271141 
L 404.18496 250.271141 
L 406.08 246.446546 
L 407.97504 246.446546 
L 409.87008 244.815469 
L 413.66016 244.815469 
L 415.5552 243.184393 
L 417.45024 243.184393 
L 419.34528 240.990875 
L 425.0304 240.990875 
L 426.92544 239.359798 
L 436.40064 239.359798 
L 438.29568 237.166281 
L 442.08576 237.166281 
L 447.77088 230.585729 
L 459.14112 230.585729 
L 461.03616 228.954653 
L 464.82624 228.954653 
L 466.72128 227.323576 
L 479.98656 227.323576 
L 481.8816 222.936541 
L 483.77664 220.743024 
L 485.67168 220.743024 
L 487.56672 219.111947 
L 489.46176 216.91843 
L 495.14688 216.91843 
L 497.04192 215.287353 
L 498.93696 215.287353 
L 500.832 213.656276 
L 504.62208 213.656276 
L 508.41216 209.269241 
L 512.20224 209.269241 
L 514.09728 206.007088 
L 515.99232 204.376011 
L 517.88736 202.182493 
L 519.7824 200.551416 
L 525.46752 200.551416 
L 527.36256 198.92034 
L 529.2576 198.92034 
L 531.15264 197.289263 
L 534.94272 197.289263 
L 536.83776 195.658186 
L 538.7328 193.464668 
L 540.62784 193.464668 
L 542.52288 190.202515 
L 546.31296 186.940361 
L 555.78816 186.940361 
L 557.6832 183.115767 
L 563.36832 183.115767 
L 565.26336 181.48469 
L 570.94848 181.48469 
L 572.84352 179.853613 
L 580.42368 179.853613 
L 582.31872 178.222536 
L 586.1088 178.222536 
L 591.79392 173.329305 
L 593.68896 173.329305 
L 597.47904 170.067151 
L 608.84928 170.067151 
L 610.74432 168.436074 
L 622.11456 168.436074 
L 624.0096 166.804997 
L 625.90464 162.980403 
L 633.4848 162.980403 
L 635.37984 159.718249 
L 637.27488 158.087172 
L 642.96 158.087172 
L 642.96 158.087172 
" clip-path="url(#p33555d4267)" style="fill: none; stroke: #3b83b4; stroke-width: 1.35; stroke-linecap: square"/>
   </g>
   <g id="line2d_29">
    <path d="M 74.448 348.192 
L 83.9232 348.192 
L 85.81824 346.560923 
L 91.50336 346.560923 
L 95.29344 343.298769 
L 100.97856 343.298769 
L 104.76864 340.036615 
L 116.13888 340.036615 
L 118.03392 338.405538 
L 119.92896 338.405538 
L 121.824 336.774462 
L 125.61408 336.774462 
L 127.50912 335.143385 
L 129.40416 331.881231 
L 131.2992 331.881231 
L 133.19424 330.250154 
L 155.93472 330.250154 
L 157.82976 328.619077 
L 167.30496 328.619077 
L 169.2 326.988 
L 176.78016 326.988 
L 178.6752 325.356923 
L 180.57024 325.356923 
L 182.46528 319.901252 
L 184.36032 319.901252 
L 186.25536 316.076658 
L 190.04544 312.814504 
L 191.94048 309.55235 
L 197.6256 309.55235 
L 199.52064 305.727756 
L 201.41568 302.465602 
L 203.31072 300.834525 
L 205.20576 294.310218 
L 208.99584 294.310218 
L 210.89088 291.048064 
L 212.78592 287.223469 
L 214.68096 283.961316 
L 218.47104 283.961316 
L 220.36608 282.330239 
L 227.94624 282.330239 
L 229.84128 280.699162 
L 231.73632 280.699162 
L 239.31648 274.174854 
L 250.68672 274.174854 
L 252.58176 270.35026 
L 254.4768 270.35026 
L 256.37184 268.719183 
L 258.26688 268.719183 
L 260.16192 267.088106 
L 263.952 267.088106 
L 265.84704 263.825952 
L 271.53216 258.932721 
L 279.11232 258.932721 
L 281.00736 255.108127 
L 286.69248 255.108127 
L 288.58752 252.91461 
L 292.3776 252.91461 
L 294.27264 249.090016 
L 296.16768 247.458939 
L 298.06272 247.458939 
L 299.95776 245.827862 
L 305.64288 245.827862 
L 307.53792 244.196785 
L 309.43296 242.003268 
L 313.22304 242.003268 
L 315.11808 239.809751 
L 317.01312 236.547597 
L 326.48832 236.547597 
L 328.38336 234.91652 
L 330.2784 234.91652 
L 332.17344 229.460849 
L 334.06848 227.829772 
L 335.96352 227.829772 
L 337.85856 225.636255 
L 339.7536 225.636255 
L 341.64864 224.005178 
L 347.33376 224.005178 
L 349.2288 222.374101 
L 358.704 222.374101 
L 360.59904 220.180584 
L 362.49408 218.549507 
L 368.1792 218.549507 
L 370.07424 215.287353 
L 387.1296 215.287353 
L 389.02464 213.093836 
L 390.91968 209.831682 
L 392.81472 207.638164 
L 400.39488 207.638164 
L 402.28992 206.007088 
L 407.97504 206.007088 
L 409.87008 204.376011 
L 413.66016 204.376011 
L 415.5552 200.551416 
L 417.45024 200.551416 
L 419.34528 198.92034 
L 421.24032 196.726822 
L 425.0304 196.726822 
L 426.92544 194.533305 
L 442.08576 194.533305 
L 445.87584 191.271151 
L 455.35104 191.271151 
L 457.24608 189.077634 
L 474.30144 189.077634 
L 476.19648 186.884117 
L 498.93696 186.884117 
L 500.832 184.690599 
L 502.72704 183.059523 
L 504.62208 178.672488 
L 510.3072 178.672488 
L 512.20224 176.478971 
L 515.99232 176.478971 
L 517.88736 172.091936 
L 519.7824 172.091936 
L 521.67744 170.460859 
L 525.46752 170.460859 
L 527.36256 168.267342 
L 531.15264 168.267342 
L 533.04768 166.636265 
L 534.94272 166.636265 
L 536.83776 165.005188 
L 555.78816 165.005188 
L 557.6832 162.811671 
L 567.1584 162.811671 
L 569.05344 158.987077 
L 576.6336 158.987077 
L 578.52864 156.79356 
L 597.47904 156.79356 
L 599.37408 154.600042 
L 606.95424 154.600042 
L 608.84928 150.213008 
L 610.74432 150.213008 
L 612.63936 148.019491 
L 616.42944 148.019491 
L 618.32448 145.825973 
L 627.79968 145.825973 
L 629.69472 144.194897 
L 633.4848 144.194897 
L 635.37984 142.001379 
L 642.96 142.001379 
L 642.96 142.001379 
" clip-path="url(#p33555d4267)" style="fill: none; stroke-dasharray: 4.995,2.16; stroke-dashoffset: 0; stroke: #c38a19; stroke-width: 1.35"/>
   </g>
   <g id="line2d_30">
    <path d="M 74.448 348.192 
L 102.8736 348.192 
L 104.76864 346.560923 
L 118.03392 346.560923 
L 119.92896 344.929846 
L 125.61408 344.929846 
L 129.40416 341.667692 
L 131.2992 338.405538 
L 136.98432 338.405538 
L 146.45952 330.250154 
L 148.35456 326.42556 
L 150.2496 322.038525 
L 154.03968 322.038525 
L 155.93472 318.213931 
L 157.82976 316.582854 
L 163.51488 316.582854 
L 165.40992 313.3207 
L 169.2 313.3207 
L 171.09504 311.689623 
L 176.78016 311.689623 
L 178.6752 310.058546 
L 184.36032 310.058546 
L 186.25536 308.427469 
L 188.1504 308.427469 
L 190.04544 304.602875 
L 193.83552 304.602875 
L 195.73056 302.971798 
L 197.6256 302.971798 
L 199.52064 301.340721 
L 207.1008 301.340721 
L 210.89088 298.078568 
L 214.68096 298.078568 
L 216.576 296.447491 
L 218.47104 296.447491 
L 224.15616 291.55426 
L 226.0512 291.55426 
L 227.94624 286.661029 
L 229.84128 282.836435 
L 235.5264 282.836435 
L 237.42144 281.205358 
L 241.21152 281.205358 
L 246.89664 276.312127 
L 248.79168 276.312127 
L 250.68672 274.11861 
L 252.58176 274.11861 
L 254.4768 270.856456 
L 256.37184 269.225379 
L 258.26688 265.400785 
L 260.16192 265.400785 
L 262.05696 263.769708 
L 265.84704 263.769708 
L 267.74208 260.507554 
L 279.11232 260.507554 
L 281.00736 255.051883 
L 284.79744 255.051883 
L 286.69248 253.420806 
L 288.58752 253.420806 
L 292.3776 249.033772 
L 294.27264 244.140541 
L 298.06272 240.878387 
L 299.95776 238.68487 
L 303.74784 238.68487 
L 305.64288 237.053793 
L 311.328 237.053793 
L 313.22304 235.422716 
L 317.01312 235.422716 
L 320.8032 232.160562 
L 326.48832 232.160562 
L 328.38336 230.529485 
L 330.2784 228.335968 
L 334.06848 225.073814 
L 335.96352 225.073814 
L 337.85856 223.442737 
L 341.64864 223.442737 
L 343.54368 221.81166 
L 351.12384 221.81166 
L 353.01888 219.618143 
L 354.91392 219.618143 
L 356.80896 217.424626 
L 360.59904 217.424626 
L 364.38912 214.162472 
L 366.28416 214.162472 
L 368.1792 211.968955 
L 370.07424 211.968955 
L 371.96928 209.775438 
L 377.6544 204.882207 
L 407.97504 204.882207 
L 409.87008 203.25113 
L 411.76512 199.988976 
L 413.66016 197.795459 
L 415.5552 197.795459 
L 417.45024 195.601942 
L 419.34528 195.601942 
L 421.24032 193.970865 
L 430.71552 193.970865 
L 432.61056 192.339788 
L 442.08576 192.339788 
L 443.9808 190.146271 
L 449.66592 190.146271 
L 451.56096 186.321676 
L 453.456 184.128159 
L 455.35104 184.128159 
L 457.24608 179.741125 
L 459.14112 178.110048 
L 461.03616 175.916531 
L 462.9312 175.916531 
L 464.82624 173.723013 
L 489.46176 173.723013 
L 491.3568 172.091936 
L 493.25184 172.091936 
L 495.14688 170.460859 
L 497.04192 168.267342 
L 517.88736 168.267342 
L 521.67744 163.880308 
L 531.15264 163.880308 
L 533.04768 162.249231 
L 534.94272 162.249231 
L 536.83776 160.055714 
L 546.31296 160.055714 
L 548.208 156.231119 
L 551.99808 151.844085 
L 555.78816 151.844085 
L 557.6832 149.650568 
L 589.89888 149.650568 
L 591.79392 148.019491 
L 599.37408 148.019491 
L 601.26912 146.388414 
L 603.16416 144.194897 
L 610.74432 144.194897 
L 612.63936 142.001379 
L 635.37984 142.001379 
L 639.16992 137.614345 
L 641.06496 137.614345 
L 642.96 135.420828 
L 642.96 135.420828 
" clip-path="url(#p33555d4267)" style="fill: none; stroke-dasharray: 1.35,2.2275; stroke-dashoffset: 0; stroke: #7d8a92; stroke-width: 1.35"/>
   </g>
   <g id="line2d_31">
    <path d="M 74.448 348.192 
L 146.45952 348.192 
L 148.35456 345.998483 
L 150.2496 341.611448 
L 157.82976 341.611448 
L 159.7248 339.417931 
L 161.61984 339.417931 
L 163.51488 335.030897 
L 172.99008 335.030897 
L 176.78016 330.643862 
L 180.57024 330.643862 
L 182.46528 328.450345 
L 193.83552 328.450345 
L 195.73056 326.256828 
L 220.36608 326.256828 
L 222.26112 324.06331 
L 237.42144 324.06331 
L 239.31648 321.869793 
L 241.21152 321.869793 
L 243.10656 319.676276 
L 245.0016 319.676276 
L 246.89664 317.482759 
L 248.79168 317.482759 
L 250.68672 315.851682 
L 265.84704 315.851682 
L 267.74208 313.658164 
L 273.4272 313.658164 
L 275.32224 311.464647 
L 279.11232 311.464647 
L 281.00736 307.640053 
L 315.11808 307.640053 
L 317.01312 305.446536 
L 330.2784 305.446536 
L 332.17344 303.815459 
L 341.64864 303.815459 
L 343.54368 299.990865 
L 345.43872 299.990865 
L 347.33376 298.359788 
L 349.2288 293.972753 
L 351.12384 293.972753 
L 353.01888 292.341676 
L 354.91392 292.341676 
L 356.80896 290.148159 
L 358.704 285.761125 
L 362.49408 285.761125 
L 364.38912 281.936531 
L 366.28416 281.936531 
L 368.1792 280.305454 
L 370.07424 280.305454 
L 371.96928 278.111936 
L 373.86432 278.111936 
L 375.75936 276.480859 
L 377.6544 274.287342 
L 381.44448 271.025188 
L 392.81472 271.025188 
L 394.70976 268.831671 
L 396.6048 268.831671 
L 398.49984 264.444637 
L 400.39488 264.444637 
L 402.28992 262.251119 
L 404.18496 262.251119 
L 406.08 260.057602 
L 411.76512 260.057602 
L 413.66016 258.426525 
L 415.5552 254.039491 
L 417.45024 251.845973 
L 428.82048 251.845973 
L 430.71552 246.952743 
L 434.5056 246.952743 
L 436.40064 245.321666 
L 442.08576 245.321666 
L 443.9808 238.234918 
L 451.56096 238.234918 
L 453.456 236.041401 
L 455.35104 232.216806 
L 468.61632 232.216806 
L 470.51136 230.585729 
L 472.4064 230.585729 
L 476.19648 226.198695 
L 483.77664 226.198695 
L 487.56672 221.81166 
L 497.04192 221.81166 
L 498.93696 220.180584 
L 502.72704 220.180584 
L 504.62208 218.549507 
L 506.51712 218.549507 
L 508.41216 216.355989 
L 523.57248 216.355989 
L 525.46752 214.162472 
L 527.36256 210.337878 
L 529.2576 210.337878 
L 531.15264 208.144361 
L 534.94272 208.144361 
L 536.83776 206.513284 
L 540.62784 206.513284 
L 542.52288 202.68869 
L 551.99808 202.68869 
L 553.89312 199.426536 
L 557.6832 196.164382 
L 561.47328 196.164382 
L 563.36832 194.533305 
L 567.1584 194.533305 
L 569.05344 192.902228 
L 572.84352 192.902228 
L 574.73856 189.640074 
L 576.6336 188.008997 
L 580.42368 188.008997 
L 584.21376 184.746844 
L 589.89888 184.746844 
L 591.79392 183.115767 
L 603.16416 183.115767 
L 605.0592 181.48469 
L 610.74432 181.48469 
L 612.63936 179.853613 
L 618.32448 179.853613 
L 620.21952 178.222536 
L 622.11456 178.222536 
L 625.90464 174.960382 
L 627.79968 174.960382 
L 629.69472 171.135788 
L 631.58976 171.135788 
L 635.37984 167.873634 
L 642.96 167.873634 
L 642.96 167.873634 
" clip-path="url(#p33555d4267)" style="fill: none; stroke-dasharray: 8.64,2.16,1.35,2.16; stroke-dashoffset: 0; stroke: #d0526a; stroke-width: 1.35"/>
   </g>
   <g id="line2d_32">
    <path d="M 74.448 348.192 
L 123.71904 348.192 
L 125.61408 345.998483 
L 148.35456 345.998483 
L 150.2496 343.804966 
L 210.89088 343.804966 
L 212.78592 341.611448 
L 216.576 341.611448 
L 220.36608 337.224414 
L 227.94624 337.224414 
L 229.84128 332.837379 
L 231.73632 330.643862 
L 233.63136 330.643862 
L 235.5264 328.450345 
L 250.68672 328.450345 
L 252.58176 326.256828 
L 258.26688 326.256828 
L 260.16192 324.06331 
L 281.00736 324.06331 
L 282.9024 319.676276 
L 286.69248 315.289241 
L 290.48256 315.289241 
L 292.3776 313.095724 
L 309.43296 313.095724 
L 311.328 310.902207 
L 328.38336 310.902207 
L 330.2784 306.515172 
L 335.96352 306.515172 
L 337.85856 304.321655 
L 339.7536 304.321655 
L 343.54368 299.934621 
L 351.12384 299.934621 
L 353.01888 297.741103 
L 371.96928 297.741103 
L 375.75936 293.354069 
L 377.6544 293.354069 
L 381.44448 288.967034 
L 385.23456 288.967034 
L 387.1296 286.773517 
L 396.6048 286.773517 
L 398.49984 284.58 
L 423.13536 284.58 
L 425.0304 282.386483 
L 440.19072 282.386483 
L 443.9808 277.999448 
L 461.03616 277.999448 
L 462.9312 275.805931 
L 476.19648 275.805931 
L 478.09152 274.174854 
L 512.20224 274.174854 
L 514.09728 271.981337 
L 515.99232 270.35026 
L 517.88736 270.35026 
L 521.67744 265.963225 
L 527.36256 265.963225 
L 529.2576 263.769708 
L 563.36832 263.769708 
L 565.26336 260.507554 
L 567.1584 260.507554 
L 569.05344 258.314037 
L 593.68896 258.314037 
L 595.584 254.489443 
L 597.47904 251.227289 
L 610.74432 251.227289 
L 612.63936 249.033772 
L 614.5344 247.402695 
L 616.42944 247.402695 
L 618.32448 245.209178 
L 622.11456 245.209178 
L 624.0096 243.578101 
L 627.79968 243.578101 
L 629.69472 241.384584 
L 639.16992 241.384584 
L 641.06496 233.735395 
L 642.96 233.735395 
L 642.96 233.735395 
" clip-path="url(#p33555d4267)" style="fill: none; stroke-dasharray: 6.75,2.7,1.35,2.7; stroke-dashoffset: 0; stroke: #2f8f84; stroke-width: 1.35"/>
   </g>
   <g id="patch_4">
    <path d="M 74.448 348.192 
L 74.448 93.744 
" style="fill: none; stroke: #000000; stroke-width: 0.8; stroke-linejoin: miter; stroke-linecap: square"/>
   </g>
   <g id="patch_5">
    <path d="M 74.448 348.192 
L 642.96 348.192 
" style="fill: none; stroke: #000000; stroke-width: 0.8; stroke-linejoin: miter; stroke-linecap: square"/>
   </g>
  </g>
  <g id="text_16">
   <text style="font: 18px 'DejaVu Sans', 'Bitstream Vera Sans', 'Computer Modern Sans Serif', 'Lucida Grande', 'Verdana', 'Geneva', 'Lucid', 'Arial', 'Helvetica', 'Avant Garde', sans-serif; text-anchor: start" x="74.448" y="38.229188" transform="rotate(-0 74.448 38.229188)">LED-RGB1 Direct</text>
  </g>
  <g id="text_17">
   <text style="fill: #66747c; font: 10px 'DejaVu Sans', 'Bitstream Vera Sans', 'Computer Modern Sans Serif', 'Lucida Grande', 'Verdana', 'Geneva', 'Lucid', 'Arial', 'Helvetica', 'Avant Garde', sans-serif; text-anchor: start" x="74.448" y="64.728" transform="rotate(-0 74.448 64.728)">QD-OLED</text>
  </g>
  <g id="legend_1">
   <g id="line2d_33">
    <path d="M 185.17875 404.151391 
L 194.27875 404.151391 
L 203.37875 404.151391 
" style="fill: none; stroke: #252525; stroke-width: 2.5; stroke-linecap: square"/>
   </g>
   <g id="text_18">
    <text style="font: 9.1px 'DejaVu Sans', 'Bitstream Vera Sans', 'Computer Modern Sans Serif', 'Lucida Grande', 'Verdana', 'Geneva', 'Lucid', 'Arial', 'Helvetica', 'Avant Garde', sans-serif; text-anchor: start" x="210.65875" y="407.336391" transform="rotate(-0 210.65875 407.336391)">Potera CMF</text>
   </g>
   <g id="line2d_34">
    <path d="M 185.17875 417.508484 
L 194.27875 417.508484 
L 203.37875 417.508484 
" style="fill: none; stroke: #3b83b4; stroke-width: 1.35; stroke-linecap: square"/>
   </g>
   <g id="text_19">
    <text style="font: 9.1px 'DejaVu Sans', 'Bitstream Vera Sans', 'Computer Modern Sans Serif', 'Lucida Grande', 'Verdana', 'Geneva', 'Lucid', 'Arial', 'Helvetica', 'Avant Garde', sans-serif; text-anchor: start" x="210.65875" y="420.693484" transform="rotate(-0 210.65875 420.693484)">CIE 2015 2°</text>
   </g>
   <g id="line2d_35">
    <path d="M 282.931234 404.151391 
L 292.031234 404.151391 
L 301.131234 404.151391 
" style="fill: none; stroke-dasharray: 4.995,2.16; stroke-dashoffset: 0; stroke: #c38a19; stroke-width: 1.35"/>
   </g>
   <g id="text_20">
    <text style="font: 9.1px 'DejaVu Sans', 'Bitstream Vera Sans', 'Computer Modern Sans Serif', 'Lucida Grande', 'Verdana', 'Geneva', 'Lucid', 'Arial', 'Helvetica', 'Avant Garde', sans-serif; text-anchor: start" x="308.411234" y="407.336391" transform="rotate(-0 308.411234 407.336391)">CIE 2015 10°</text>
   </g>
   <g id="line2d_36">
    <path d="M 282.931234 417.508484 
L 292.031234 417.508484 
L 301.131234 417.508484 
" style="fill: none; stroke-dasharray: 1.35,2.2275; stroke-dashoffset: 0; stroke: #7d8a92; stroke-width: 1.35"/>
   </g>
   <g id="text_21">
    <text style="font: 9.1px 'DejaVu Sans', 'Bitstream Vera Sans', 'Computer Modern Sans Serif', 'Lucida Grande', 'Verdana', 'Geneva', 'Lucid', 'Arial', 'Helvetica', 'Avant Garde', sans-serif; text-anchor: start" x="308.411234" y="420.693484" transform="rotate(-0 308.411234 420.693484)">CIE 1964 10°</text>
   </g>
   <g id="line2d_37">
    <path d="M 386.473594 404.151391 
L 395.573594 404.151391 
L 404.673594 404.151391 
" style="fill: none; stroke-dasharray: 8.64,2.16,1.35,2.16; stroke-dashoffset: 0; stroke: #d0526a; stroke-width: 1.35"/>
   </g>
   <g id="text_22">
    <text style="font: 9.1px 'DejaVu Sans', 'Bitstream Vera Sans', 'Computer Modern Sans Serif', 'Lucida Grande', 'Verdana', 'Geneva', 'Lucid', 'Arial', 'Helvetica', 'Avant Garde', sans-serif; text-anchor: start" x="411.953594" y="407.336391" transform="rotate(-0 411.953594 407.336391)">CIE 1931 2°</text>
   </g>
   <g id="line2d_38">
    <path d="M 386.473594 417.508484 
L 395.573594 417.508484 
L 404.673594 417.508484 
" style="fill: none; stroke-dasharray: 6.75,2.7,1.35,2.7; stroke-dashoffset: 0; stroke: #2f8f84; stroke-width: 1.35"/>
   </g>
   <g id="text_23">
    <text style="font: 9.1px 'DejaVu Sans', 'Bitstream Vera Sans', 'Computer Modern Sans Serif', 'Lucida Grande', 'Verdana', 'Geneva', 'Lucid', 'Arial', 'Helvetica', 'Avant Garde', sans-serif; text-anchor: start" x="411.953594" y="420.693484" transform="rotate(-0 411.953594 420.693484)">Judd–Vos 1978 2°</text>
   </g>
  </g>
 </g>
 <defs>
  <clipPath id="p33555d4267">
   <rect x="74.448" y="93.744" width="568.512" height="254.448"/>
  </clipPath>
 </defs>
</svg>
