<?xml version="1.0" encoding="utf-8" standalone="no"?>
<!DOCTYPE svg PUBLIC "-//W3C//DTD SVG 1.1//EN"
  "http://www.w3.org/Graphics/SVG/1.1/DTD/svg11.dtd">
<svg xmlns:xlink="http://www.w3.org/1999/xlink" width="676.8pt" height="446.4pt" viewBox="0 0 676.8 446.4" xmlns="http://www.w3.org/2000/svg" version="1.1">
 <metadata>
  <rdf:RDF xmlns:dc="http://purl.org/dc/elements/1.1/" xmlns:cc="http://creativecommons.org/ns#" xmlns:rdf="http://www.w3.org/1999/02/22-rdf-syntax-ns#">
   <cc:Work>
    <dc:type rdf:resource="http://purl.org/dc/dcmitype/StillImage"/>
    <dc:date>2026-07-20T06:41:55.771801</dc:date>
    <dc:format>image/svg+xml</dc:format>
    <dc:creator>
     <cc:Agent>
      <dc:title>Matplotlib v3.9.4, https://matplotlib.org/</dc:title>
     </cc:Agent>
    </dc:creator>
   </cc:Work>
  </rdf:RDF>
 </metadata>
 <defs>
  <style type="text/css">*{stroke-linejoin: round; stroke-linecap: butt}</style>
 </defs>
 <g id="figure_1">
  <g id="patch_1">
   <path d="M 0 446.4 
L 676.8 446.4 
L 676.8 0 
L 0 0 
z
" style="fill: #ffffff"/>
  </g>
  <g id="axes_1">
   <g id="patch_2">
    <path d="M 74.448 348.192 
L 642.96 348.192 
L 642.96 93.744 
L 74.448 93.744 
z
" style="fill: #ffffff"/>
   </g>
   <g id="patch_3">
    <path d="M 169.2 348.192 
L 358.704 348.192 
L 358.704 93.744 
L 169.2 93.744 
z
" clip-path="url(#pb981cddb1c)" style="fill: #e7f0ea; opacity: 0.58; stroke: #e7f0ea; stroke-linejoin: miter"/>
   </g>
   <g id="matplotlib.axis_1">
    <g id="xtick_1">
     <g id="line2d_1">
      <path d="M 74.448 348.192 
L 74.448 93.744 
" clip-path="url(#pb981cddb1c)" style="fill: none; stroke: #dfe5e8; stroke-width: 0.65; stroke-linecap: square"/>
     </g>
     <g id="line2d_2">
      <defs>
       <path id="m2a4d901823" d="M 0 0 
L 0 3.5 
" style="stroke: #000000; stroke-width: 0.8"/>
      </defs>
      <g>
       <use xlink:href="#m2a4d901823" x="74.448" y="348.192" style="stroke: #000000; stroke-width: 0.8"/>
      </g>
     </g>
     <g id="text_1">
      <text style="font: 10px 'DejaVu Sans', 'Bitstream Vera Sans', 'Computer Modern Sans Serif', 'Lucida Grande', 'Verdana', 'Geneva', 'Lucid', 'Arial', 'Helvetica', 'Avant Garde', sans-serif; text-anchor: middle" x="74.448" y="362.790438" transform="rotate(-0 74.448 362.790438)">0</text>
     </g>
    </g>
    <g id="xtick_2">
     <g id="line2d_3">
      <path d="M 169.2 348.192 
L 169.2 93.744 
" clip-path="url(#pb981cddb1c)" style="fill: none; stroke: #dfe5e8; stroke-width: 0.65; stroke-linecap: square"/>
     </g>
     <g id="line2d_4">
      <g>
       <use xlink:href="#m2a4d901823" x="169.2" y="348.192" style="stroke: #000000; stroke-width: 0.8"/>
      </g>
     </g>
     <g id="text_2">
      <text style="font: 10px 'DejaVu Sans', 'Bitstream Vera Sans', 'Computer Modern Sans Serif', 'Lucida Grande', 'Verdana', 'Geneva', 'Lucid', 'Arial', 'Helvetica', 'Avant Garde', sans-serif; text-anchor: middle" x="169.2" y="362.790438" transform="rotate(-0 169.2 362.790438)">1</text>
     </g>
    </g>
    <g id="xtick_3">
     <g id="line2d_5">
      <path d="M 263.952 348.192 
L 263.952 93.744 
" clip-path="url(#pb981cddb1c)" style="fill: none; stroke: #dfe5e8; stroke-width: 0.65; stroke-linecap: square"/>
     </g>
     <g id="line2d_6">
      <g>
       <use xlink:href="#m2a4d901823" x="263.952" y="348.192" style="stroke: #000000; stroke-width: 0.8"/>
      </g>
     </g>
     <g id="text_3">
      <text style="font: 10px 'DejaVu Sans', 'Bitstream Vera Sans', 'Computer Modern Sans Serif', 'Lucida Grande', 'Verdana', 'Geneva', 'Lucid', 'Arial', 'Helvetica', 'Avant Garde', sans-serif; text-anchor: middle" x="263.952" y="362.790438" transform="rotate(-0 263.952 362.790438)">2</text>
     </g>
    </g>
    <g id="xtick_4">
     <g id="line2d_7">
      <path d="M 358.704 348.192 
L 358.704 93.744 
" clip-path="url(#pb981cddb1c)" style="fill: none; stroke: #dfe5e8; stroke-width: 0.65; stroke-linecap: square"/>
     </g>
     <g id="line2d_8">
      <g>
       <use xlink:href="#m2a4d901823" x="358.704" y="348.192" style="stroke: #000000; stroke-width: 0.8"/>
      </g>
     </g>
     <g id="text_4">
      <text style="font: 10px 'DejaVu Sans', 'Bitstream Vera Sans', 'Computer Modern Sans Serif', 'Lucida Grande', 'Verdana', 'Geneva', 'Lucid', 'Arial', 'Helvetica', 'Avant Garde', sans-serif; text-anchor: middle" x="358.704" y="362.790438" transform="rotate(-0 358.704 362.790438)">3</text>
     </g>
    </g>
    <g id="xtick_5">
     <g id="line2d_9">
      <path d="M 453.456 348.192 
L 453.456 93.744 
" clip-path="url(#pb981cddb1c)" style="fill: none; stroke: #dfe5e8; stroke-width: 0.65; stroke-linecap: square"/>
     </g>
     <g id="line2d_10">
      <g>
       <use xlink:href="#m2a4d901823" x="453.456" y="348.192" style="stroke: #000000; stroke-width: 0.8"/>
      </g>
     </g>
     <g id="text_5">
      <text style="font: 10px 'DejaVu Sans', 'Bitstream Vera Sans', 'Computer Modern Sans Serif', 'Lucida Grande', 'Verdana', 'Geneva', 'Lucid', 'Arial', 'Helvetica', 'Avant Garde', sans-serif; text-anchor: middle" x="453.456" y="362.790438" transform="rotate(-0 453.456 362.790438)">4</text>
     </g>
    </g>
    <g id="xtick_6">
     <g id="line2d_11">
      <path d="M 548.208 348.192 
L 548.208 93.744 
" clip-path="url(#pb981cddb1c)" style="fill: none; stroke: #dfe5e8; stroke-width: 0.65; stroke-linecap: square"/>
     </g>
     <g id="line2d_12">
      <g>
       <use xlink:href="#m2a4d901823" x="548.208" y="348.192" style="stroke: #000000; stroke-width: 0.8"/>
      </g>
     </g>
     <g id="text_6">
      <text style="font: 10px 'DejaVu Sans', 'Bitstream Vera Sans', 'Computer Modern Sans Serif', 'Lucida Grande', 'Verdana', 'Geneva', 'Lucid', 'Arial', 'Helvetica', 'Avant Garde', sans-serif; text-anchor: middle" x="548.208" y="362.790438" transform="rotate(-0 548.208 362.790438)">5</text>
     </g>
    </g>
    <g id="xtick_7">
     <g id="line2d_13">
      <path d="M 642.96 348.192 
L 642.96 93.744 
" clip-path="url(#pb981cddb1c)" style="fill: none; stroke: #dfe5e8; stroke-width: 0.65; stroke-linecap: square"/>
     </g>
     <g id="line2d_14">
      <g>
       <use xlink:href="#m2a4d901823" x="642.96" y="348.192" style="stroke: #000000; stroke-width: 0.8"/>
      </g>
     </g>
     <g id="text_7">
      <text style="font: 10px 'DejaVu Sans', 'Bitstream Vera Sans', 'Computer Modern Sans Serif', 'Lucida Grande', 'Verdana', 'Geneva', 'Lucid', 'Arial', 'Helvetica', 'Avant Garde', sans-serif; text-anchor: middle" x="642.96" y="362.790438" transform="rotate(-0 642.96 362.790438)">6</text>
     </g>
    </g>
    <g id="text_8">
     <text style="font: 10px 'DejaVu Sans', 'Bitstream Vera Sans', 'Computer Modern Sans Serif', 'Lucida Grande', 'Verdana', 'Geneva', 'Lucid', 'Arial', 'Helvetica', 'Avant Garde', sans-serif; text-anchor: middle" x="358.704" y="376.468563" transform="rotate(-0 358.704 376.468563)">sUCS dE threshold</text>
    </g>
   </g>
   <g id="matplotlib.axis_2">
    <g id="ytick_1">
     <g id="line2d_15">
      <path d="M 74.448 348.192 
L 642.96 348.192 
" clip-path="url(#pb981cddb1c)" style="fill: none; stroke: #dfe5e8; stroke-width: 0.65; stroke-linecap: square"/>
     </g>
     <g id="line2d_16">
      <defs>
       <path id="m190739d8e2" d="M 0 0 
L -3.5 0 
" style="stroke: #000000; stroke-width: 0.8"/>
      </defs>
      <g>
       <use xlink:href="#m190739d8e2" x="74.448" y="348.192" style="stroke: #000000; stroke-width: 0.8"/>
      </g>
     </g>
     <g id="text_9">
      <text style="font: 10px 'DejaVu Sans', 'Bitstream Vera Sans', 'Computer Modern Sans Serif', 'Lucida Grande', 'Verdana', 'Geneva', 'Lucid', 'Arial', 'Helvetica', 'Avant Garde', sans-serif; text-anchor: end" x="67.448" y="351.991219" transform="rotate(-0 67.448 351.991219)">0</text>
     </g>
    </g>
    <g id="ytick_2">
     <g id="line2d_17">
      <path d="M 74.448 297.3024 
L 642.96 297.3024 
" clip-path="url(#pb981cddb1c)" style="fill: none; stroke: #dfe5e8; stroke-width: 0.65; stroke-linecap: square"/>
     </g>
     <g id="line2d_18">
      <g>
       <use xlink:href="#m190739d8e2" x="74.448" y="297.3024" style="stroke: #000000; stroke-width: 0.8"/>
      </g>
     </g>
     <g id="text_10">
      <text style="font: 10px 'DejaVu Sans', 'Bitstream Vera Sans', 'Computer Modern Sans Serif', 'Lucida Grande', 'Verdana', 'Geneva', 'Lucid', 'Arial', 'Helvetica', 'Avant Garde', sans-serif; text-anchor: end" x="67.448" y="301.101619" transform="rotate(-0 67.448 301.101619)">20</text>
     </g>
    </g>
    <g id="ytick_3">
     <g id="line2d_19">
      <path d="M 74.448 246.4128 
L 642.96 246.4128 
" clip-path="url(#pb981cddb1c)" style="fill: none; stroke: #dfe5e8; stroke-width: 0.65; stroke-linecap: square"/>
     </g>
     <g id="line2d_20">
      <g>
       <use xlink:href="#m190739d8e2" x="74.448" y="246.4128" style="stroke: #000000; stroke-width: 0.8"/>
      </g>
     </g>
     <g id="text_11">
      <text style="font: 10px 'DejaVu Sans', 'Bitstream Vera Sans', 'Computer Modern Sans Serif', 'Lucida Grande', 'Verdana', 'Geneva', 'Lucid', 'Arial', 'Helvetica', 'Avant Garde', sans-serif; text-anchor: end" x="67.448" y="250.212019" transform="rotate(-0 67.448 250.212019)">40</text>
     </g>
    </g>
    <g id="ytick_4">
     <g id="line2d_21">
      <path d="M 74.448 195.5232 
L 642.96 195.5232 
" clip-path="url(#pb981cddb1c)" style="fill: none; stroke: #dfe5e8; stroke-width: 0.65; stroke-linecap: square"/>
     </g>
     <g id="line2d_22">
      <g>
       <use xlink:href="#m190739d8e2" x="74.448" y="195.5232" style="stroke: #000000; stroke-width: 0.8"/>
      </g>
     </g>
     <g id="text_12">
      <text style="font: 10px 'DejaVu Sans', 'Bitstream Vera Sans', 'Computer Modern Sans Serif', 'Lucida Grande', 'Verdana', 'Geneva', 'Lucid', 'Arial', 'Helvetica', 'Avant Garde', sans-serif; text-anchor: end" x="67.448" y="199.322419" transform="rotate(-0 67.448 199.322419)">60</text>
     </g>
    </g>
    <g id="ytick_5">
     <g id="line2d_23">
      <path d="M 74.448 144.6336 
L 642.96 144.6336 
" clip-path="url(#pb981cddb1c)" style="fill: none; stroke: #dfe5e8; stroke-width: 0.65; stroke-linecap: square"/>
     </g>
     <g id="line2d_24">
      <g>
       <use xlink:href="#m190739d8e2" x="74.448" y="144.6336" style="stroke: #000000; stroke-width: 0.8"/>
      </g>
     </g>
     <g id="text_13">
      <text style="font: 10px 'DejaVu Sans', 'Bitstream Vera Sans', 'Computer Modern Sans Serif', 'Lucida Grande', 'Verdana', 'Geneva', 'Lucid', 'Arial', 'Helvetica', 'Avant Garde', sans-serif; text-anchor: end" x="67.448" y="148.432819" transform="rotate(-0 67.448 148.432819)">80</text>
     </g>
    </g>
    <g id="ytick_6">
     <g id="line2d_25">
      <path d="M 74.448 93.744 
L 642.96 93.744 
" clip-path="url(#pb981cddb1c)" style="fill: none; stroke: #dfe5e8; stroke-width: 0.65; stroke-linecap: square"/>
     </g>
     <g id="line2d_26">
      <g>
       <use xlink:href="#m190739d8e2" x="74.448" y="93.744" style="stroke: #000000; stroke-width: 0.8"/>
      </g>
     </g>
     <g id="text_14">
      <text style="font: 10px 'DejaVu Sans', 'Bitstream Vera Sans', 'Computer Modern Sans Serif', 'Lucida Grande', 'Verdana', 'Geneva', 'Lucid', 'Arial', 'Helvetica', 'Avant Garde', sans-serif; text-anchor: end" x="67.448" y="97.543219" transform="rotate(-0 67.448 97.543219)">100</text>
     </g>
    </g>
    <g id="text_15">
     <text style="font: 10px 'DejaVu Sans', 'Bitstream Vera Sans', 'Computer Modern Sans Serif', 'Lucida Grande', 'Verdana', 'Geneva', 'Lucid', 'Arial', 'Helvetica', 'Avant Garde', sans-serif; text-anchor: middle" x="42.280812" y="220.968" transform="rotate(-90 42.280812 220.968)">observers%</text>
    </g>
   </g>
   <g id="line2d_27">
    <path d="M 74.448 348.192 
L 87.71328 348.192 
L 89.60832 346.560923 
L 91.50336 346.560923 
L 93.3984 344.929846 
L 95.29344 344.929846 
L 97.18848 342.736329 
L 104.76864 342.736329 
L 106.66368 338.911735 
L 108.55872 338.911735 
L 110.45376 337.280658 
L 112.3488 334.018504 
L 116.13888 334.018504 
L 119.92896 330.75635 
L 121.824 330.75635 
L 123.71904 328.562833 
L 127.50912 325.300679 
L 129.40416 323.107162 
L 131.2992 323.107162 
L 133.19424 321.476085 
L 135.08928 321.476085 
L 136.98432 318.213931 
L 138.87936 316.020414 
L 140.7744 312.75826 
L 142.66944 311.127183 
L 144.56448 307.302589 
L 146.45952 305.671512 
L 148.35456 301.846918 
L 152.14464 301.846918 
L 154.03968 300.215841 
L 157.82976 300.215841 
L 159.7248 298.022324 
L 161.61984 298.022324 
L 165.40992 294.76017 
L 167.30496 289.304499 
L 169.2 289.304499 
L 171.09504 287.110981 
L 184.36032 275.693443 
L 186.25536 271.868849 
L 188.1504 270.237772 
L 191.94048 270.237772 
L 193.83552 266.975618 
L 197.6256 266.975618 
L 199.52064 265.344541 
L 201.41568 265.344541 
L 203.31072 261.519947 
L 208.99584 261.519947 
L 210.89088 259.88887 
L 212.78592 259.88887 
L 214.68096 258.257793 
L 216.576 258.257793 
L 220.36608 254.995639 
L 222.26112 254.995639 
L 224.15616 253.364562 
L 226.0512 250.102408 
L 237.42144 250.102408 
L 239.31648 248.471332 
L 241.21152 244.646737 
L 245.0016 241.384584 
L 246.89664 241.384584 
L 248.79168 238.12243 
L 252.58176 238.12243 
L 256.37184 234.860276 
L 258.26688 234.860276 
L 260.16192 231.598122 
L 263.952 231.598122 
L 265.84704 229.967045 
L 267.74208 226.704891 
L 271.53216 223.442737 
L 275.32224 223.442737 
L 281.00736 218.549507 
L 282.9024 218.549507 
L 284.79744 214.724912 
L 286.69248 213.093836 
L 288.58752 213.093836 
L 290.48256 210.900318 
L 296.16768 210.900318 
L 299.95776 207.638164 
L 307.53792 207.638164 
L 309.43296 202.182493 
L 313.22304 202.182493 
L 315.11808 199.988976 
L 318.90816 199.988976 
L 320.8032 198.357899 
L 334.06848 198.357899 
L 335.96352 195.095745 
L 341.64864 195.095745 
L 343.54368 191.833592 
L 345.43872 191.833592 
L 347.33376 187.446557 
L 349.2288 185.81548 
L 354.91392 185.81548 
L 356.80896 184.184403 
L 368.1792 184.184403 
L 370.07424 182.553326 
L 371.96928 182.553326 
L 373.86432 178.728732 
L 390.91968 178.728732 
L 392.81472 176.535215 
L 402.28992 176.535215 
L 404.18496 174.904138 
L 415.5552 174.904138 
L 417.45024 172.710621 
L 428.82048 172.710621 
L 430.71552 170.517103 
L 442.08576 170.517103 
L 443.9808 168.323586 
L 447.77088 168.323586 
L 449.66592 166.130069 
L 451.56096 166.130069 
L 453.456 163.936552 
L 459.14112 163.936552 
L 461.03616 161.743034 
L 466.72128 161.743034 
L 468.61632 159.549517 
L 506.51712 159.549517 
L 508.41216 157.356 
L 515.99232 157.356 
L 517.88736 155.162483 
L 525.46752 155.162483 
L 527.36256 152.968966 
L 531.15264 152.968966 
L 533.04768 150.775448 
L 540.62784 150.775448 
L 542.52288 148.581931 
L 544.41792 148.581931 
L 548.208 144.194897 
L 557.6832 144.194897 
L 559.57824 142.001379 
L 565.26336 142.001379 
L 567.1584 139.807862 
L 569.05344 139.807862 
L 570.94848 137.614345 
L 574.73856 137.614345 
L 576.6336 135.420828 
L 591.79392 135.420828 
L 593.68896 133.22731 
L 597.47904 133.22731 
L 599.37408 131.033793 
L 625.90464 131.033793 
L 627.79968 128.840276 
L 631.58976 128.840276 
L 633.4848 126.646759 
L 642.96 126.646759 
L 642.96 126.646759 
" clip-path="url(#pb981cddb1c)" style="fill: none; stroke: #252525; stroke-width: 2.5; stroke-linecap: square"/>
   </g>
   <g id="line2d_28">
    <path d="M 74.448 348.192 
L 97.18848 348.192 
L 99.08352 343.804966 
L 110.45376 343.804966 
L 112.3488 341.611448 
L 114.24384 341.611448 
L 116.13888 339.417931 
L 118.03392 339.417931 
L 119.92896 337.224414 
L 136.98432 337.224414 
L 138.87936 335.030897 
L 146.45952 335.030897 
L 148.35456 332.837379 
L 150.2496 328.450345 
L 154.03968 328.450345 
L 155.93472 326.256828 
L 178.6752 326.256828 
L 180.57024 324.06331 
L 188.1504 324.06331 
L 190.04544 321.869793 
L 197.6256 321.869793 
L 201.41568 317.482759 
L 208.99584 317.482759 
L 210.89088 315.289241 
L 224.15616 315.289241 
L 227.94624 310.902207 
L 229.84128 310.902207 
L 231.73632 309.27113 
L 235.5264 309.27113 
L 237.42144 307.077613 
L 246.89664 307.077613 
L 250.68672 302.690578 
L 262.05696 302.690578 
L 263.952 300.497061 
L 265.84704 300.497061 
L 267.74208 298.303544 
L 286.69248 298.303544 
L 288.58752 296.672467 
L 290.48256 296.672467 
L 292.3776 294.47895 
L 298.06272 294.47895 
L 301.8528 290.091915 
L 313.22304 290.091915 
L 315.11808 285.704881 
L 320.8032 285.704881 
L 322.69824 280.24921 
L 324.59328 280.24921 
L 326.48832 278.055692 
L 335.96352 278.055692 
L 337.85856 275.862175 
L 339.7536 272.037581 
L 351.12384 272.037581 
L 353.01888 270.406504 
L 354.91392 266.58191 
L 358.704 266.58191 
L 360.59904 264.388393 
L 364.38912 256.739204 
L 366.28416 256.739204 
L 368.1792 254.545687 
L 373.86432 254.545687 
L 375.75936 250.158653 
L 389.02464 250.158653 
L 390.91968 246.896499 
L 392.81472 240.878387 
L 394.70976 238.68487 
L 406.08 238.68487 
L 409.87008 234.297836 
L 411.76512 228.842164 
L 413.66016 227.211088 
L 419.34528 227.211088 
L 421.24032 223.948934 
L 426.92544 223.948934 
L 428.82048 222.317857 
L 430.71552 222.317857 
L 436.40064 217.424626 
L 438.29568 217.424626 
L 440.19072 215.231109 
L 442.08576 213.600032 
L 443.9808 213.600032 
L 445.87584 211.406515 
L 447.77088 209.775438 
L 449.66592 207.58192 
L 451.56096 205.950844 
L 457.24608 205.950844 
L 459.14112 204.319767 
L 462.9312 204.319767 
L 464.82624 202.126249 
L 466.72128 202.126249 
L 468.61632 200.495172 
L 472.4064 200.495172 
L 474.30144 198.301655 
L 476.19648 196.670578 
L 478.09152 196.670578 
L 479.98656 195.039501 
L 481.8816 191.214907 
L 489.46176 191.214907 
L 491.3568 189.58383 
L 493.25184 189.58383 
L 495.14688 187.390313 
L 497.04192 184.128159 
L 498.93696 184.128159 
L 500.832 180.866005 
L 502.72704 178.672488 
L 506.51712 178.672488 
L 508.41216 177.041411 
L 510.3072 173.779257 
L 512.20224 172.14818 
L 521.67744 172.14818 
L 523.57248 170.517103 
L 527.36256 170.517103 
L 529.2576 166.692509 
L 533.04768 166.692509 
L 534.94272 164.498992 
L 536.83776 164.498992 
L 540.62784 161.236838 
L 542.52288 161.236838 
L 544.41792 157.974684 
L 546.31296 157.974684 
L 548.208 154.712531 
L 550.10304 154.712531 
L 551.99808 151.450377 
L 555.78816 151.450377 
L 557.6832 149.8193 
L 567.1584 149.8193 
L 569.05344 148.188223 
L 574.73856 148.188223 
L 576.6336 146.557146 
L 578.52864 146.557146 
L 582.31872 143.294992 
L 584.21376 143.294992 
L 586.1088 139.470398 
L 588.00384 137.839321 
L 589.89888 137.839321 
L 591.79392 134.014727 
L 593.68896 129.121496 
L 597.47904 129.121496 
L 601.26912 125.859342 
L 606.95424 125.859342 
L 608.84928 124.228265 
L 610.74432 124.228265 
L 616.42944 119.335034 
L 627.79968 119.335034 
L 631.58976 116.072881 
L 637.27488 116.072881 
L 639.16992 114.441804 
L 642.96 114.441804 
L 642.96 114.441804 
" clip-path="url(#pb981cddb1c)" style="fill: none; stroke: #3b83b4; stroke-width: 1.35; stroke-linecap: square"/>
   </g>
   <g id="line2d_29">
    <path d="M 74.448 348.192 
L 93.3984 348.192 
L 97.18848 344.929846 
L 99.08352 344.929846 
L 100.97856 343.298769 
L 102.8736 340.036615 
L 108.55872 340.036615 
L 110.45376 338.405538 
L 112.3488 335.143385 
L 116.13888 331.881231 
L 121.824 331.881231 
L 123.71904 328.619077 
L 129.40416 323.725846 
L 131.2992 323.725846 
L 136.98432 318.832615 
L 138.87936 313.939385 
L 142.66944 310.677231 
L 144.56448 310.677231 
L 150.2496 305.784 
L 152.14464 302.521846 
L 154.03968 302.521846 
L 155.93472 293.804021 
L 157.82976 292.172944 
L 159.7248 287.279714 
L 161.61984 285.086196 
L 163.51488 283.455119 
L 165.40992 279.630525 
L 167.30496 276.368371 
L 169.2 274.737294 
L 171.09504 272.543777 
L 172.99008 272.543777 
L 174.88512 270.9127 
L 176.78016 267.650546 
L 180.57024 267.650546 
L 182.46528 264.388393 
L 184.36032 264.388393 
L 186.25536 262.757316 
L 191.94048 262.757316 
L 193.83552 261.126239 
L 195.73056 261.126239 
L 199.52064 257.864085 
L 201.41568 254.601931 
L 203.31072 254.601931 
L 205.20576 249.7087 
L 207.1008 246.446546 
L 208.99584 244.253029 
L 210.89088 244.253029 
L 212.78592 242.621952 
L 214.68096 242.621952 
L 216.576 240.990875 
L 218.47104 240.990875 
L 220.36608 238.797358 
L 224.15616 238.797358 
L 226.0512 234.972764 
L 231.73632 234.972764 
L 235.5264 231.71061 
L 237.42144 231.71061 
L 239.31648 228.448456 
L 245.0016 223.555225 
L 246.89664 223.555225 
L 248.79168 221.361708 
L 252.58176 221.361708 
L 254.4768 217.537114 
L 263.952 217.537114 
L 269.63712 212.643883 
L 277.21728 212.643883 
L 281.00736 209.381729 
L 284.79744 209.381729 
L 286.69248 207.188212 
L 294.27264 207.188212 
L 296.16768 204.994695 
L 301.8528 204.994695 
L 303.74784 203.363618 
L 307.53792 203.363618 
L 309.43296 201.170101 
L 313.22304 201.170101 
L 315.11808 199.539024 
L 318.90816 199.539024 
L 320.8032 197.345507 
L 354.91392 197.345507 
L 358.704 192.958472 
L 360.59904 192.958472 
L 362.49408 191.327395 
L 383.33952 191.327395 
L 385.23456 189.696318 
L 389.02464 189.696318 
L 390.91968 188.065241 
L 419.34528 188.065241 
L 421.24032 185.871724 
L 425.0304 185.871724 
L 426.92544 183.678207 
L 434.5056 183.678207 
L 436.40064 181.48469 
L 478.09152 181.48469 
L 479.98656 177.097655 
L 506.51712 177.097655 
L 508.41216 174.904138 
L 523.57248 174.904138 
L 525.46752 172.710621 
L 548.208 172.710621 
L 550.10304 170.517103 
L 563.36832 170.517103 
L 565.26336 168.323586 
L 582.31872 168.323586 
L 586.1088 163.936552 
L 591.79392 163.936552 
L 593.68896 161.743034 
L 601.26912 161.743034 
L 603.16416 159.549517 
L 639.16992 159.549517 
L 641.06496 157.356 
L 642.96 157.356 
L 642.96 157.356 
" clip-path="url(#pb981cddb1c)" style="fill: none; stroke-dasharray: 4.995,2.16; stroke-dashoffset: 0; stroke: #c38a19; stroke-width: 1.35"/>
   </g>
   <g id="line2d_30">
    <path d="M 74.448 348.192 
L 102.8736 348.192 
L 104.76864 346.560923 
L 110.45376 346.560923 
L 112.3488 344.929846 
L 116.13888 344.929846 
L 118.03392 342.736329 
L 119.92896 339.474175 
L 123.71904 336.212021 
L 125.61408 332.949867 
L 129.40416 332.949867 
L 131.2992 329.687714 
L 133.19424 328.056637 
L 135.08928 323.163406 
L 136.98432 319.901252 
L 138.87936 317.707735 
L 140.7744 313.883141 
L 142.66944 308.98991 
L 144.56448 307.358833 
L 148.35456 307.358833 
L 152.14464 304.096679 
L 155.93472 297.572371 
L 157.82976 292.1167 
L 159.7248 292.1167 
L 161.61984 290.485623 
L 163.51488 287.223469 
L 165.40992 285.592393 
L 167.30496 280.699162 
L 169.2 280.699162 
L 172.99008 277.437008 
L 174.88512 273.612414 
L 176.78016 268.719183 
L 178.6752 268.719183 
L 182.46528 265.457029 
L 184.36032 265.457029 
L 186.25536 260.563798 
L 188.1504 260.563798 
L 190.04544 258.932721 
L 191.94048 256.739204 
L 195.73056 256.739204 
L 197.6256 252.91461 
L 201.41568 246.390302 
L 203.31072 244.759225 
L 205.20576 244.759225 
L 207.1008 243.128149 
L 208.99584 243.128149 
L 210.89088 237.672477 
L 220.36608 237.672477 
L 222.26112 232.216806 
L 224.15616 230.585729 
L 235.5264 230.585729 
L 237.42144 227.323576 
L 243.10656 227.323576 
L 245.0016 225.692499 
L 246.89664 222.430345 
L 248.79168 222.430345 
L 250.68672 218.605751 
L 252.58176 216.974674 
L 260.16192 216.974674 
L 262.05696 213.15008 
L 263.952 211.519003 
L 265.84704 211.519003 
L 267.74208 209.887926 
L 275.32224 209.887926 
L 279.11232 206.625772 
L 281.00736 206.625772 
L 284.79744 203.363618 
L 292.3776 203.363618 
L 294.27264 201.170101 
L 305.64288 201.170101 
L 307.53792 199.539024 
L 317.01312 199.539024 
L 318.90816 197.345507 
L 320.8032 197.345507 
L 322.69824 195.71443 
L 328.38336 195.71443 
L 330.2784 193.520912 
L 341.64864 193.520912 
L 343.54368 191.327395 
L 345.43872 191.327395 
L 347.33376 189.696318 
L 354.91392 189.696318 
L 356.80896 188.065241 
L 385.23456 188.065241 
L 387.1296 185.871724 
L 398.49984 185.871724 
L 402.28992 181.48469 
L 443.9808 181.48469 
L 445.87584 179.291172 
L 447.77088 179.291172 
L 449.66592 177.097655 
L 474.30144 177.097655 
L 476.19648 174.904138 
L 491.3568 174.904138 
L 493.25184 172.710621 
L 515.99232 172.710621 
L 517.88736 170.517103 
L 529.2576 170.517103 
L 531.15264 168.323586 
L 546.31296 168.323586 
L 548.208 166.130069 
L 551.99808 166.130069 
L 553.89312 163.936552 
L 561.47328 163.936552 
L 563.36832 161.743034 
L 569.05344 161.743034 
L 570.94848 159.549517 
L 605.0592 159.549517 
L 606.95424 157.356 
L 610.74432 157.356 
L 612.63936 155.162483 
L 616.42944 155.162483 
L 618.32448 152.968966 
L 631.58976 152.968966 
L 633.4848 150.775448 
L 642.96 150.775448 
L 642.96 150.775448 
" clip-path="url(#pb981cddb1c)" style="fill: none; stroke-dasharray: 1.35,2.2275; stroke-dashoffset: 0; stroke: #7d8a92; stroke-width: 1.35"/>
   </g>
   <g id="line2d_31">
    <path d="M 74.448 348.192 
L 165.40992 348.192 
L 167.30496 345.998483 
L 172.99008 345.998483 
L 174.88512 343.804966 
L 188.1504 343.804966 
L 190.04544 341.611448 
L 212.78592 341.611448 
L 214.68096 339.417931 
L 218.47104 339.417931 
L 220.36608 337.224414 
L 222.26112 337.224414 
L 224.15616 335.593337 
L 227.94624 335.593337 
L 231.73632 331.206302 
L 233.63136 331.206302 
L 235.5264 329.012785 
L 241.21152 329.012785 
L 245.0016 324.625751 
L 246.89664 318.607639 
L 250.68672 318.607639 
L 252.58176 316.414122 
L 254.4768 316.414122 
L 256.37184 314.220605 
L 260.16192 314.220605 
L 262.05696 312.589528 
L 267.74208 312.589528 
L 271.53216 308.202493 
L 281.00736 308.202493 
L 284.79744 303.815459 
L 288.58752 303.815459 
L 290.48256 301.621942 
L 292.3776 301.621942 
L 294.27264 299.428424 
L 296.16768 297.797347 
L 298.06272 295.60383 
L 317.01312 295.60383 
L 318.90816 293.410313 
L 324.59328 293.410313 
L 326.48832 289.023279 
L 330.2784 289.023279 
L 332.17344 287.392202 
L 334.06848 287.392202 
L 335.96352 285.198684 
L 339.7536 285.198684 
L 343.54368 280.81165 
L 347.33376 280.81165 
L 349.2288 274.231098 
L 354.91392 274.231098 
L 356.80896 269.844064 
L 358.704 268.212987 
L 362.49408 268.212987 
L 366.28416 264.950833 
L 370.07424 264.950833 
L 371.96928 261.126239 
L 373.86432 259.495162 
L 381.44448 259.495162 
L 383.33952 255.108127 
L 387.1296 255.108127 
L 389.02464 253.47705 
L 392.81472 253.47705 
L 396.6048 249.090016 
L 398.49984 247.458939 
L 400.39488 244.196785 
L 402.28992 244.196785 
L 404.18496 240.934631 
L 406.08 238.741114 
L 409.87008 238.741114 
L 411.76512 233.285443 
L 413.66016 230.023289 
L 415.5552 227.829772 
L 417.45024 227.829772 
L 419.34528 224.005178 
L 421.24032 221.81166 
L 423.13536 221.81166 
L 425.0304 220.180584 
L 428.82048 220.180584 
L 430.71552 218.549507 
L 436.40064 218.549507 
L 438.29568 216.91843 
L 440.19072 216.91843 
L 442.08576 213.093836 
L 447.77088 213.093836 
L 449.66592 210.900318 
L 451.56096 207.075724 
L 453.456 204.882207 
L 459.14112 204.882207 
L 461.03616 203.25113 
L 462.9312 201.057613 
L 470.51136 201.057613 
L 472.4064 199.426536 
L 474.30144 195.039501 
L 483.77664 195.039501 
L 485.67168 193.408424 
L 487.56672 189.58383 
L 489.46176 187.390313 
L 491.3568 187.390313 
L 493.25184 185.759236 
L 497.04192 185.759236 
L 498.93696 184.128159 
L 500.832 184.128159 
L 502.72704 180.866005 
L 506.51712 177.603851 
L 508.41216 172.710621 
L 510.3072 172.710621 
L 512.20224 171.079544 
L 521.67744 171.079544 
L 523.57248 166.186313 
L 525.46752 166.186313 
L 527.36256 164.555236 
L 531.15264 164.555236 
L 533.04768 162.924159 
L 534.94272 162.924159 
L 536.83776 159.662005 
L 540.62784 159.662005 
L 542.52288 158.030928 
L 546.31296 158.030928 
L 548.208 156.399851 
L 551.99808 156.399851 
L 553.89312 154.768775 
L 555.78816 152.575257 
L 561.47328 147.682027 
L 567.1584 147.682027 
L 569.05344 143.857432 
L 576.6336 143.857432 
L 578.52864 142.226355 
L 580.42368 142.226355 
L 582.31872 140.595279 
L 586.1088 140.595279 
L 588.00384 137.333125 
L 589.89888 135.702048 
L 591.79392 135.702048 
L 593.68896 131.877454 
L 595.584 130.246377 
L 597.47904 130.246377 
L 599.37408 125.353146 
L 608.84928 125.353146 
L 610.74432 123.722069 
L 612.63936 123.722069 
L 614.5344 122.090992 
L 616.42944 122.090992 
L 618.32448 119.897475 
L 620.21952 118.266398 
L 624.0096 118.266398 
L 625.90464 116.635321 
L 635.37984 116.635321 
L 637.27488 115.004244 
L 642.96 115.004244 
L 642.96 115.004244 
" clip-path="url(#pb981cddb1c)" style="fill: none; stroke-dasharray: 8.64,2.16,1.35,2.16; stroke-dashoffset: 0; stroke: #d0526a; stroke-width: 1.35"/>
   </g>
   <g id="line2d_32">
    <path d="M 74.448 348.192 
L 127.50912 348.192 
L 129.40416 343.804966 
L 138.87936 343.804966 
L 140.7744 341.611448 
L 146.45952 341.611448 
L 148.35456 339.417931 
L 152.14464 339.417931 
L 154.03968 337.224414 
L 155.93472 337.224414 
L 157.82976 335.030897 
L 172.99008 335.030897 
L 176.78016 330.643862 
L 188.1504 330.643862 
L 190.04544 328.450345 
L 195.73056 328.450345 
L 197.6256 326.256828 
L 199.52064 326.256828 
L 201.41568 324.06331 
L 207.1008 324.06331 
L 208.99584 319.676276 
L 212.78592 319.676276 
L 214.68096 317.482759 
L 220.36608 317.482759 
L 222.26112 315.289241 
L 224.15616 310.902207 
L 226.0512 308.70869 
L 227.94624 308.70869 
L 231.73632 304.321655 
L 233.63136 304.321655 
L 235.5264 302.128138 
L 241.21152 302.128138 
L 243.10656 299.934621 
L 262.05696 299.934621 
L 263.952 297.741103 
L 265.84704 297.741103 
L 269.63712 293.354069 
L 273.4272 293.354069 
L 275.32224 291.160552 
L 296.16768 291.160552 
L 298.06272 288.967034 
L 305.64288 288.967034 
L 307.53792 284.58 
L 311.328 284.58 
L 313.22304 282.386483 
L 335.96352 282.386483 
L 337.85856 280.192966 
L 343.54368 280.192966 
L 345.43872 277.999448 
L 356.80896 277.999448 
L 358.704 275.805931 
L 362.49408 275.805931 
L 364.38912 273.612414 
L 396.6048 273.612414 
L 398.49984 271.418897 
L 402.28992 271.418897 
L 404.18496 269.225379 
L 406.08 269.225379 
L 407.97504 267.031862 
L 425.0304 267.031862 
L 426.92544 264.838345 
L 432.61056 264.838345 
L 434.5056 261.013751 
L 436.40064 261.013751 
L 438.29568 258.820233 
L 479.98656 258.820233 
L 481.8816 256.626716 
L 495.14688 256.626716 
L 497.04192 254.995639 
L 500.832 254.995639 
L 502.72704 252.802122 
L 521.67744 252.802122 
L 525.46752 248.415088 
L 527.36256 248.415088 
L 529.2576 246.784011 
L 531.15264 243.521857 
L 540.62784 243.521857 
L 542.52288 241.89078 
L 544.41792 241.89078 
L 546.31296 238.066186 
L 548.208 238.066186 
L 550.10304 236.435109 
L 551.99808 236.435109 
L 553.89312 234.241592 
L 561.47328 234.241592 
L 563.36832 230.416997 
L 576.6336 230.416997 
L 578.52864 228.78592 
L 580.42368 226.592403 
L 591.79392 226.592403 
L 593.68896 224.398886 
L 597.47904 221.136732 
L 601.26912 221.136732 
L 603.16416 218.943215 
L 610.74432 218.943215 
L 612.63936 213.487544 
L 614.5344 213.487544 
L 616.42944 209.66295 
L 618.32448 209.66295 
L 620.21952 208.031873 
L 622.11456 208.031873 
L 624.0096 206.400796 
L 633.4848 206.400796 
L 635.37984 203.138642 
L 637.27488 203.138642 
L 639.16992 197.682971 
L 641.06496 196.051894 
L 642.96 196.051894 
L 642.96 196.051894 
" clip-path="url(#pb981cddb1c)" style="fill: none; stroke-dasharray: 6.75,2.7,1.35,2.7; stroke-dashoffset: 0; stroke: #2f8f84; stroke-width: 1.35"/>
   </g>
   <g id="patch_4">
    <path d="M 74.448 348.192 
L 74.448 93.744 
" style="fill: none; stroke: #000000; stroke-width: 0.8; stroke-linejoin: miter; stroke-linecap: square"/>
   </g>
   <g id="patch_5">
    <path d="M 74.448 348.192 
L 642.96 348.192 
" style="fill: none; stroke: #000000; stroke-width: 0.8; stroke-linejoin: miter; stroke-linecap: square"/>
   </g>
  </g>
  <g id="text_16">
   <text style="font: 18px 'DejaVu Sans', 'Bitstream Vera Sans', 'Computer Modern Sans Serif', 'Lucida Grande', 'Verdana', 'Geneva', 'Lucid', 'Arial', 'Helvetica', 'Avant Garde', sans-serif; text-anchor: start" x="74.448" y="38.229188" transform="rotate(-0 74.448 38.229188)">LED-RGB1 Direct</text>
  </g>
  <g id="text_17">
   <text style="fill: #66747c; font: 10px 'DejaVu Sans', 'Bitstream Vera Sans', 'Computer Modern Sans Serif', 'Lucida Grande', 'Verdana', 'Geneva', 'Lucid', 'Arial', 'Helvetica', 'Avant Garde', sans-serif; text-anchor: start" x="74.448" y="64.728" transform="rotate(-0 74.448 64.728)">smartphone OLED</text>
  </g>
  <g id="legend_1">
   <g id="line2d_33">
    <path d="M 185.17875 404.151391 
L 194.27875 404.151391 
L 203.37875 404.151391 
" style="fill: none; stroke: #252525; stroke-width: 2.5; stroke-linecap: square"/>
   </g>
   <g id="text_18">
    <text style="font: 9.1px 'DejaVu Sans', 'Bitstream Vera Sans', 'Computer Modern Sans Serif', 'Lucida Grande', 'Verdana', 'Geneva', 'Lucid', 'Arial', 'Helvetica', 'Avant Garde', sans-serif; text-anchor: start" x="210.65875" y="407.336391" transform="rotate(-0 210.65875 407.336391)">Potera CMF</text>
   </g>
   <g id="line2d_34">
    <path d="M 185.17875 417.508484 
L 194.27875 417.508484 
L 203.37875 417.508484 
" style="fill: none; stroke: #3b83b4; stroke-width: 1.35; stroke-linecap: square"/>
   </g>
   <g id="text_19">
    <text style="font: 9.1px 'DejaVu Sans', 'Bitstream Vera Sans', 'Computer Modern Sans Serif', 'Lucida Grande', 'Verdana', 'Geneva', 'Lucid', 'Arial', 'Helvetica', 'Avant Garde', sans-serif; text-anchor: start" x="210.65875" y="420.693484" transform="rotate(-0 210.65875 420.693484)">CIE 2015 2°</text>
   </g>
   <g id="line2d_35">
    <path d="M 282.931234 404.151391 
L 292.031234 404.151391 
L 301.131234 404.151391 
" style="fill: none; stroke-dasharray: 4.995,2.16; stroke-dashoffset: 0; stroke: #c38a19; stroke-width: 1.35"/>
   </g>
   <g id="text_20">
    <text style="font: 9.1px 'DejaVu Sans', 'Bitstream Vera Sans', 'Computer Modern Sans Serif', 'Lucida Grande', 'Verdana', 'Geneva', 'Lucid', 'Arial', 'Helvetica', 'Avant Garde', sans-serif; text-anchor: start" x="308.411234" y="407.336391" transform="rotate(-0 308.411234 407.336391)">CIE 2015 10°</text>
   </g>
   <g id="line2d_36">
    <path d="M 282.931234 417.508484 
L 292.031234 417.508484 
L 301.131234 417.508484 
" style="fill: none; stroke-dasharray: 1.35,2.2275; stroke-dashoffset: 0; stroke: #7d8a92; stroke-width: 1.35"/>
   </g>
   <g id="text_21">
    <text style="font: 9.1px 'DejaVu Sans', 'Bitstream Vera Sans', 'Computer Modern Sans Serif', 'Lucida Grande', 'Verdana', 'Geneva', 'Lucid', 'Arial', 'Helvetica', 'Avant Garde', sans-serif; text-anchor: start" x="308.411234" y="420.693484" transform="rotate(-0 308.411234 420.693484)">CIE 1964 10°</text>
   </g>
   <g id="line2d_37">
    <path d="M 386.473594 404.151391 
L 395.573594 404.151391 
L 404.673594 404.151391 
" style="fill: none; stroke-dasharray: 8.64,2.16,1.35,2.16; stroke-dashoffset: 0; stroke: #d0526a; stroke-width: 1.35"/>
   </g>
   <g id="text_22">
    <text style="font: 9.1px 'DejaVu Sans', 'Bitstream Vera Sans', 'Computer Modern Sans Serif', 'Lucida Grande', 'Verdana', 'Geneva', 'Lucid', 'Arial', 'Helvetica', 'Avant Garde', sans-serif; text-anchor: start" x="411.953594" y="407.336391" transform="rotate(-0 411.953594 407.336391)">CIE 1931 2°</text>
   </g>
   <g id="line2d_38">
    <path d="M 386.473594 417.508484 
L 395.573594 417.508484 
L 404.673594 417.508484 
" style="fill: none; stroke-dasharray: 6.75,2.7,1.35,2.7; stroke-dashoffset: 0; stroke: #2f8f84; stroke-width: 1.35"/>
   </g>
   <g id="text_23">
    <text style="font: 9.1px 'DejaVu Sans', 'Bitstream Vera Sans', 'Computer Modern Sans Serif', 'Lucida Grande', 'Verdana', 'Geneva', 'Lucid', 'Arial', 'Helvetica', 'Avant Garde', sans-serif; text-anchor: start" x="411.953594" y="420.693484" transform="rotate(-0 411.953594 420.693484)">Judd–Vos 1978 2°</text>
   </g>
  </g>
 </g>
 <defs>
  <clipPath id="pb981cddb1c">
   <rect x="74.448" y="93.744" width="568.512" height="254.448"/>
  </clipPath>
 </defs>
</svg>
