<?xml version="1.0" encoding="utf-8" standalone="no"?>
<!DOCTYPE svg PUBLIC "-//W3C//DTD SVG 1.1//EN"
  "http://www.w3.org/Graphics/SVG/1.1/DTD/svg11.dtd">
<svg xmlns:xlink="http://www.w3.org/1999/xlink" width="676.8pt" height="446.4pt" viewBox="0 0 676.8 446.4" xmlns="http://www.w3.org/2000/svg" version="1.1">
 <metadata>
  <rdf:RDF xmlns:dc="http://purl.org/dc/elements/1.1/" xmlns:cc="http://creativecommons.org/ns#" xmlns:rdf="http://www.w3.org/1999/02/22-rdf-syntax-ns#">
   <cc:Work>
    <dc:type rdf:resource="http://purl.org/dc/dcmitype/StillImage"/>
    <dc:date>2026-07-20T06:41:56.031614</dc:date>
    <dc:format>image/svg+xml</dc:format>
    <dc:creator>
     <cc:Agent>
      <dc:title>Matplotlib v3.9.4, https://matplotlib.org/</dc:title>
     </cc:Agent>
    </dc:creator>
   </cc:Work>
  </rdf:RDF>
 </metadata>
 <defs>
  <style type="text/css">*{stroke-linejoin: round; stroke-linecap: butt}</style>
 </defs>
 <g id="figure_1">
  <g id="patch_1">
   <path d="M 0 446.4 
L 676.8 446.4 
L 676.8 0 
L 0 0 
z
" style="fill: #ffffff"/>
  </g>
  <g id="axes_1">
   <g id="patch_2">
    <path d="M 74.448 348.192 
L 642.96 348.192 
L 642.96 93.744 
L 74.448 93.744 
z
" style="fill: #ffffff"/>
   </g>
   <g id="patch_3">
    <path d="M 169.2 348.192 
L 358.704 348.192 
L 358.704 93.744 
L 169.2 93.744 
z
" clip-path="url(#p593f8e5625)" style="fill: #e7f0ea; opacity: 0.58; stroke: #e7f0ea; stroke-linejoin: miter"/>
   </g>
   <g id="matplotlib.axis_1">
    <g id="xtick_1">
     <g id="line2d_1">
      <path d="M 74.448 348.192 
L 74.448 93.744 
" clip-path="url(#p593f8e5625)" style="fill: none; stroke: #dfe5e8; stroke-width: 0.65; stroke-linecap: square"/>
     </g>
     <g id="line2d_2">
      <defs>
       <path id="mb1c563002e" d="M 0 0 
L 0 3.5 
" style="stroke: #000000; stroke-width: 0.8"/>
      </defs>
      <g>
       <use xlink:href="#mb1c563002e" x="74.448" y="348.192" style="stroke: #000000; stroke-width: 0.8"/>
      </g>
     </g>
     <g id="text_1">
      <text style="font: 10px 'DejaVu Sans', 'Bitstream Vera Sans', 'Computer Modern Sans Serif', 'Lucida Grande', 'Verdana', 'Geneva', 'Lucid', 'Arial', 'Helvetica', 'Avant Garde', sans-serif; text-anchor: middle" x="74.448" y="362.790438" transform="rotate(-0 74.448 362.790438)">0</text>
     </g>
    </g>
    <g id="xtick_2">
     <g id="line2d_3">
      <path d="M 169.2 348.192 
L 169.2 93.744 
" clip-path="url(#p593f8e5625)" style="fill: none; stroke: #dfe5e8; stroke-width: 0.65; stroke-linecap: square"/>
     </g>
     <g id="line2d_4">
      <g>
       <use xlink:href="#mb1c563002e" x="169.2" y="348.192" style="stroke: #000000; stroke-width: 0.8"/>
      </g>
     </g>
     <g id="text_2">
      <text style="font: 10px 'DejaVu Sans', 'Bitstream Vera Sans', 'Computer Modern Sans Serif', 'Lucida Grande', 'Verdana', 'Geneva', 'Lucid', 'Arial', 'Helvetica', 'Avant Garde', sans-serif; text-anchor: middle" x="169.2" y="362.790438" transform="rotate(-0 169.2 362.790438)">1</text>
     </g>
    </g>
    <g id="xtick_3">
     <g id="line2d_5">
      <path d="M 263.952 348.192 
L 263.952 93.744 
" clip-path="url(#p593f8e5625)" style="fill: none; stroke: #dfe5e8; stroke-width: 0.65; stroke-linecap: square"/>
     </g>
     <g id="line2d_6">
      <g>
       <use xlink:href="#mb1c563002e" x="263.952" y="348.192" style="stroke: #000000; stroke-width: 0.8"/>
      </g>
     </g>
     <g id="text_3">
      <text style="font: 10px 'DejaVu Sans', 'Bitstream Vera Sans', 'Computer Modern Sans Serif', 'Lucida Grande', 'Verdana', 'Geneva', 'Lucid', 'Arial', 'Helvetica', 'Avant Garde', sans-serif; text-anchor: middle" x="263.952" y="362.790438" transform="rotate(-0 263.952 362.790438)">2</text>
     </g>
    </g>
    <g id="xtick_4">
     <g id="line2d_7">
      <path d="M 358.704 348.192 
L 358.704 93.744 
" clip-path="url(#p593f8e5625)" style="fill: none; stroke: #dfe5e8; stroke-width: 0.65; stroke-linecap: square"/>
     </g>
     <g id="line2d_8">
      <g>
       <use xlink:href="#mb1c563002e" x="358.704" y="348.192" style="stroke: #000000; stroke-width: 0.8"/>
      </g>
     </g>
     <g id="text_4">
      <text style="font: 10px 'DejaVu Sans', 'Bitstream Vera Sans', 'Computer Modern Sans Serif', 'Lucida Grande', 'Verdana', 'Geneva', 'Lucid', 'Arial', 'Helvetica', 'Avant Garde', sans-serif; text-anchor: middle" x="358.704" y="362.790438" transform="rotate(-0 358.704 362.790438)">3</text>
     </g>
    </g>
    <g id="xtick_5">
     <g id="line2d_9">
      <path d="M 453.456 348.192 
L 453.456 93.744 
" clip-path="url(#p593f8e5625)" style="fill: none; stroke: #dfe5e8; stroke-width: 0.65; stroke-linecap: square"/>
     </g>
     <g id="line2d_10">
      <g>
       <use xlink:href="#mb1c563002e" x="453.456" y="348.192" style="stroke: #000000; stroke-width: 0.8"/>
      </g>
     </g>
     <g id="text_5">
      <text style="font: 10px 'DejaVu Sans', 'Bitstream Vera Sans', 'Computer Modern Sans Serif', 'Lucida Grande', 'Verdana', 'Geneva', 'Lucid', 'Arial', 'Helvetica', 'Avant Garde', sans-serif; text-anchor: middle" x="453.456" y="362.790438" transform="rotate(-0 453.456 362.790438)">4</text>
     </g>
    </g>
    <g id="xtick_6">
     <g id="line2d_11">
      <path d="M 548.208 348.192 
L 548.208 93.744 
" clip-path="url(#p593f8e5625)" style="fill: none; stroke: #dfe5e8; stroke-width: 0.65; stroke-linecap: square"/>
     </g>
     <g id="line2d_12">
      <g>
       <use xlink:href="#mb1c563002e" x="548.208" y="348.192" style="stroke: #000000; stroke-width: 0.8"/>
      </g>
     </g>
     <g id="text_6">
      <text style="font: 10px 'DejaVu Sans', 'Bitstream Vera Sans', 'Computer Modern Sans Serif', 'Lucida Grande', 'Verdana', 'Geneva', 'Lucid', 'Arial', 'Helvetica', 'Avant Garde', sans-serif; text-anchor: middle" x="548.208" y="362.790438" transform="rotate(-0 548.208 362.790438)">5</text>
     </g>
    </g>
    <g id="xtick_7">
     <g id="line2d_13">
      <path d="M 642.96 348.192 
L 642.96 93.744 
" clip-path="url(#p593f8e5625)" style="fill: none; stroke: #dfe5e8; stroke-width: 0.65; stroke-linecap: square"/>
     </g>
     <g id="line2d_14">
      <g>
       <use xlink:href="#mb1c563002e" x="642.96" y="348.192" style="stroke: #000000; stroke-width: 0.8"/>
      </g>
     </g>
     <g id="text_7">
      <text style="font: 10px 'DejaVu Sans', 'Bitstream Vera Sans', 'Computer Modern Sans Serif', 'Lucida Grande', 'Verdana', 'Geneva', 'Lucid', 'Arial', 'Helvetica', 'Avant Garde', sans-serif; text-anchor: middle" x="642.96" y="362.790438" transform="rotate(-0 642.96 362.790438)">6</text>
     </g>
    </g>
    <g id="text_8">
     <text style="font: 10px 'DejaVu Sans', 'Bitstream Vera Sans', 'Computer Modern Sans Serif', 'Lucida Grande', 'Verdana', 'Geneva', 'Lucid', 'Arial', 'Helvetica', 'Avant Garde', sans-serif; text-anchor: middle" x="358.704" y="376.468563" transform="rotate(-0 358.704 376.468563)">sUCS dE threshold</text>
    </g>
   </g>
   <g id="matplotlib.axis_2">
    <g id="ytick_1">
     <g id="line2d_15">
      <path d="M 74.448 348.192 
L 642.96 348.192 
" clip-path="url(#p593f8e5625)" style="fill: none; stroke: #dfe5e8; stroke-width: 0.65; stroke-linecap: square"/>
     </g>
     <g id="line2d_16">
      <defs>
       <path id="mf757660233" d="M 0 0 
L -3.5 0 
" style="stroke: #000000; stroke-width: 0.8"/>
      </defs>
      <g>
       <use xlink:href="#mf757660233" x="74.448" y="348.192" style="stroke: #000000; stroke-width: 0.8"/>
      </g>
     </g>
     <g id="text_9">
      <text style="font: 10px 'DejaVu Sans', 'Bitstream Vera Sans', 'Computer Modern Sans Serif', 'Lucida Grande', 'Verdana', 'Geneva', 'Lucid', 'Arial', 'Helvetica', 'Avant Garde', sans-serif; text-anchor: end" x="67.448" y="351.991219" transform="rotate(-0 67.448 351.991219)">0</text>
     </g>
    </g>
    <g id="ytick_2">
     <g id="line2d_17">
      <path d="M 74.448 297.3024 
L 642.96 297.3024 
" clip-path="url(#p593f8e5625)" style="fill: none; stroke: #dfe5e8; stroke-width: 0.65; stroke-linecap: square"/>
     </g>
     <g id="line2d_18">
      <g>
       <use xlink:href="#mf757660233" x="74.448" y="297.3024" style="stroke: #000000; stroke-width: 0.8"/>
      </g>
     </g>
     <g id="text_10">
      <text style="font: 10px 'DejaVu Sans', 'Bitstream Vera Sans', 'Computer Modern Sans Serif', 'Lucida Grande', 'Verdana', 'Geneva', 'Lucid', 'Arial', 'Helvetica', 'Avant Garde', sans-serif; text-anchor: end" x="67.448" y="301.101619" transform="rotate(-0 67.448 301.101619)">20</text>
     </g>
    </g>
    <g id="ytick_3">
     <g id="line2d_19">
      <path d="M 74.448 246.4128 
L 642.96 246.4128 
" clip-path="url(#p593f8e5625)" style="fill: none; stroke: #dfe5e8; stroke-width: 0.65; stroke-linecap: square"/>
     </g>
     <g id="line2d_20">
      <g>
       <use xlink:href="#mf757660233" x="74.448" y="246.4128" style="stroke: #000000; stroke-width: 0.8"/>
      </g>
     </g>
     <g id="text_11">
      <text style="font: 10px 'DejaVu Sans', 'Bitstream Vera Sans', 'Computer Modern Sans Serif', 'Lucida Grande', 'Verdana', 'Geneva', 'Lucid', 'Arial', 'Helvetica', 'Avant Garde', sans-serif; text-anchor: end" x="67.448" y="250.212019" transform="rotate(-0 67.448 250.212019)">40</text>
     </g>
    </g>
    <g id="ytick_4">
     <g id="line2d_21">
      <path d="M 74.448 195.5232 
L 642.96 195.5232 
" clip-path="url(#p593f8e5625)" style="fill: none; stroke: #dfe5e8; stroke-width: 0.65; stroke-linecap: square"/>
     </g>
     <g id="line2d_22">
      <g>
       <use xlink:href="#mf757660233" x="74.448" y="195.5232" style="stroke: #000000; stroke-width: 0.8"/>
      </g>
     </g>
     <g id="text_12">
      <text style="font: 10px 'DejaVu Sans', 'Bitstream Vera Sans', 'Computer Modern Sans Serif', 'Lucida Grande', 'Verdana', 'Geneva', 'Lucid', 'Arial', 'Helvetica', 'Avant Garde', sans-serif; text-anchor: end" x="67.448" y="199.322419" transform="rotate(-0 67.448 199.322419)">60</text>
     </g>
    </g>
    <g id="ytick_5">
     <g id="line2d_23">
      <path d="M 74.448 144.6336 
L 642.96 144.6336 
" clip-path="url(#p593f8e5625)" style="fill: none; stroke: #dfe5e8; stroke-width: 0.65; stroke-linecap: square"/>
     </g>
     <g id="line2d_24">
      <g>
       <use xlink:href="#mf757660233" x="74.448" y="144.6336" style="stroke: #000000; stroke-width: 0.8"/>
      </g>
     </g>
     <g id="text_13">
      <text style="font: 10px 'DejaVu Sans', 'Bitstream Vera Sans', 'Computer Modern Sans Serif', 'Lucida Grande', 'Verdana', 'Geneva', 'Lucid', 'Arial', 'Helvetica', 'Avant Garde', sans-serif; text-anchor: end" x="67.448" y="148.432819" transform="rotate(-0 67.448 148.432819)">80</text>
     </g>
    </g>
    <g id="ytick_6">
     <g id="line2d_25">
      <path d="M 74.448 93.744 
L 642.96 93.744 
" clip-path="url(#p593f8e5625)" style="fill: none; stroke: #dfe5e8; stroke-width: 0.65; stroke-linecap: square"/>
     </g>
     <g id="line2d_26">
      <g>
       <use xlink:href="#mf757660233" x="74.448" y="93.744" style="stroke: #000000; stroke-width: 0.8"/>
      </g>
     </g>
     <g id="text_14">
      <text style="font: 10px 'DejaVu Sans', 'Bitstream Vera Sans', 'Computer Modern Sans Serif', 'Lucida Grande', 'Verdana', 'Geneva', 'Lucid', 'Arial', 'Helvetica', 'Avant Garde', sans-serif; text-anchor: end" x="67.448" y="97.543219" transform="rotate(-0 67.448 97.543219)">100</text>
     </g>
    </g>
    <g id="text_15">
     <text style="font: 10px 'DejaVu Sans', 'Bitstream Vera Sans', 'Computer Modern Sans Serif', 'Lucida Grande', 'Verdana', 'Geneva', 'Lucid', 'Arial', 'Helvetica', 'Avant Garde', sans-serif; text-anchor: middle" x="42.280812" y="220.968" transform="rotate(-90 42.280812 220.968)">observers%</text>
    </g>
   </g>
   <g id="line2d_27">
    <path d="M 74.448 348.192 
L 97.18848 348.192 
L 99.08352 345.998483 
L 104.76864 345.998483 
L 106.66368 343.804966 
L 108.55872 340.542812 
L 112.3488 337.280658 
L 118.03392 330.700106 
L 119.92896 326.875512 
L 121.824 326.875512 
L 123.71904 323.613358 
L 125.61408 323.613358 
L 127.50912 320.351204 
L 129.40416 318.157687 
L 131.2992 314.895533 
L 133.19424 314.895533 
L 135.08928 311.070939 
L 138.87936 307.808785 
L 140.7744 307.808785 
L 142.66944 306.177708 
L 144.56448 302.915554 
L 146.45952 301.284477 
L 148.35456 295.828806 
L 150.2496 295.828806 
L 152.14464 294.197729 
L 154.03968 292.004212 
L 155.93472 288.742058 
L 157.82976 284.917464 
L 159.7248 282.723947 
L 161.61984 282.723947 
L 163.51488 279.461793 
L 165.40992 279.461793 
L 167.30496 276.199639 
L 171.09504 272.937485 
L 172.99008 272.937485 
L 174.88512 269.675332 
L 178.6752 269.675332 
L 180.57024 268.044255 
L 182.46528 268.044255 
L 184.36032 265.850737 
L 186.25536 260.395066 
L 188.1504 260.395066 
L 190.04544 256.570472 
L 193.83552 256.570472 
L 195.73056 254.939395 
L 197.6256 251.114801 
L 199.52064 247.852647 
L 203.31072 247.852647 
L 205.20576 244.028053 
L 207.1008 242.396976 
L 210.89088 242.396976 
L 214.68096 239.134822 
L 216.576 239.134822 
L 218.47104 236.941305 
L 220.36608 233.679151 
L 224.15616 230.416997 
L 229.84128 230.416997 
L 231.73632 228.22348 
L 233.63136 226.592403 
L 235.5264 223.330249 
L 239.31648 223.330249 
L 241.21152 220.068095 
L 243.10656 220.068095 
L 245.0016 218.437019 
L 248.79168 218.437019 
L 250.68672 214.612424 
L 254.4768 211.350271 
L 256.37184 205.894599 
L 258.26688 205.894599 
L 260.16192 204.263523 
L 263.952 204.263523 
L 265.84704 202.070005 
L 267.74208 198.245411 
L 269.63712 198.245411 
L 271.53216 196.614334 
L 273.4272 196.614334 
L 275.32224 194.420817 
L 277.21728 192.78974 
L 279.11232 187.334069 
L 281.00736 185.702992 
L 282.9024 183.509475 
L 284.79744 183.509475 
L 286.69248 181.315958 
L 288.58752 179.684881 
L 290.48256 179.684881 
L 292.3776 178.053804 
L 296.16768 178.053804 
L 301.8528 173.160573 
L 303.74784 170.967056 
L 305.64288 170.967056 
L 307.53792 169.335979 
L 309.43296 166.073825 
L 313.22304 166.073825 
L 315.11808 163.880308 
L 317.01312 162.249231 
L 318.90816 155.668679 
L 322.69824 155.668679 
L 324.59328 153.475162 
L 345.43872 153.475162 
L 349.2288 149.088127 
L 358.704 149.088127 
L 360.59904 146.89461 
L 370.07424 146.89461 
L 371.96928 144.701093 
L 375.75936 144.701093 
L 377.6544 143.070016 
L 383.33952 143.070016 
L 385.23456 140.876499 
L 398.49984 140.876499 
L 400.39488 139.245422 
L 404.18496 139.245422 
L 406.08 137.051905 
L 419.34528 137.051905 
L 421.24032 134.858387 
L 425.0304 134.858387 
L 426.92544 132.66487 
L 430.71552 132.66487 
L 432.61056 130.471353 
L 438.29568 130.471353 
L 442.08576 126.084318 
L 443.9808 126.084318 
L 445.87584 124.453241 
L 451.56096 124.453241 
L 453.456 120.066207 
L 459.14112 120.066207 
L 461.03616 115.679172 
L 493.25184 115.679172 
L 495.14688 113.485655 
L 519.7824 113.485655 
L 521.67744 111.292138 
L 534.94272 111.292138 
L 536.83776 109.098621 
L 565.26336 109.098621 
L 567.1584 106.905103 
L 588.00384 106.905103 
L 589.89888 104.711586 
L 601.26912 104.711586 
L 603.16416 102.518069 
L 633.4848 102.518069 
L 635.37984 100.324552 
L 642.96 100.324552 
L 642.96 100.324552 
" clip-path="url(#p593f8e5625)" style="fill: none; stroke: #252525; stroke-width: 2.5; stroke-linecap: square"/>
   </g>
   <g id="line2d_28">
    <path d="M 74.448 348.192 
L 116.13888 348.192 
L 118.03392 345.998483 
L 123.71904 345.998483 
L 125.61408 343.804966 
L 144.56448 343.804966 
L 146.45952 341.611448 
L 152.14464 341.611448 
L 154.03968 339.417931 
L 155.93472 339.417931 
L 157.82976 335.593337 
L 159.7248 333.39982 
L 169.2 333.39982 
L 171.09504 331.206302 
L 174.88512 331.206302 
L 180.57024 324.625751 
L 184.36032 315.851682 
L 188.1504 315.851682 
L 190.04544 311.464647 
L 197.6256 311.464647 
L 203.31072 304.884095 
L 207.1008 304.884095 
L 214.68096 296.110027 
L 218.47104 287.335958 
L 220.36608 285.14244 
L 222.26112 285.14244 
L 224.15616 282.948923 
L 226.0512 282.948923 
L 227.94624 280.755406 
L 233.63136 280.755406 
L 235.5264 276.368371 
L 237.42144 274.174854 
L 239.31648 274.174854 
L 241.21152 271.981337 
L 246.89664 271.981337 
L 250.68672 267.594302 
L 254.4768 267.594302 
L 256.37184 265.963225 
L 258.26688 265.963225 
L 262.05696 262.701072 
L 263.952 260.507554 
L 269.63712 260.507554 
L 273.4272 257.245401 
L 275.32224 257.245401 
L 277.21728 255.051883 
L 279.11232 255.051883 
L 281.00736 252.858366 
L 282.9024 252.858366 
L 284.79744 250.664849 
L 286.69248 246.277814 
L 299.95776 246.277814 
L 303.74784 241.89078 
L 305.64288 241.89078 
L 307.53792 239.697263 
L 309.43296 238.066186 
L 311.328 235.872668 
L 313.22304 235.872668 
L 315.11808 234.241592 
L 317.01312 234.241592 
L 318.90816 232.048074 
L 322.69824 232.048074 
L 324.59328 230.416997 
L 326.48832 228.22348 
L 328.38336 226.592403 
L 332.17344 226.592403 
L 334.06848 224.961326 
L 335.96352 221.699172 
L 337.85856 221.699172 
L 339.7536 217.874578 
L 341.64864 217.874578 
L 343.54368 214.049984 
L 345.43872 214.049984 
L 347.33376 210.78783 
L 356.80896 210.78783 
L 362.49408 205.894599 
L 364.38912 203.701082 
L 366.28416 203.701082 
L 368.1792 200.438928 
L 370.07424 195.545698 
L 371.96928 193.914621 
L 377.6544 193.914621 
L 379.54944 190.090027 
L 381.44448 190.090027 
L 383.33952 188.45895 
L 385.23456 184.634355 
L 387.1296 183.003279 
L 390.91968 183.003279 
L 394.70976 179.741125 
L 396.6048 179.741125 
L 398.49984 178.110048 
L 400.39488 178.110048 
L 402.28992 176.478971 
L 406.08 176.478971 
L 407.97504 174.847894 
L 409.87008 171.58574 
L 411.76512 171.58574 
L 413.66016 167.761146 
L 415.5552 167.761146 
L 421.24032 162.867915 
L 426.92544 162.867915 
L 428.82048 159.605761 
L 430.71552 159.605761 
L 432.61056 157.974684 
L 434.5056 155.781167 
L 436.40064 155.781167 
L 438.29568 154.15009 
L 442.08576 154.15009 
L 443.9808 152.519013 
L 449.66592 152.519013 
L 451.56096 148.694419 
L 455.35104 145.432265 
L 457.24608 145.432265 
L 459.14112 143.801188 
L 461.03616 143.801188 
L 462.9312 138.345517 
L 464.82624 130.190133 
L 479.98656 130.190133 
L 481.8816 128.559056 
L 483.77664 128.559056 
L 485.67168 126.927979 
L 487.56672 123.665825 
L 489.46176 123.665825 
L 491.3568 122.034748 
L 498.93696 122.034748 
L 500.832 120.403671 
L 502.72704 117.141517 
L 504.62208 112.248286 
L 506.51712 112.248286 
L 508.41216 110.61721 
L 515.99232 110.61721 
L 517.88736 108.986133 
L 523.57248 108.986133 
L 525.46752 107.355056 
L 534.94272 107.355056 
L 538.7328 104.092902 
L 540.62784 100.830748 
L 578.52864 100.830748 
L 580.42368 98.637231 
L 603.16416 98.637231 
L 605.0592 97.006154 
L 624.0096 97.006154 
L 625.90464 95.375077 
L 642.96 95.375077 
L 642.96 95.375077 
" clip-path="url(#p593f8e5625)" style="fill: none; stroke: #3b83b4; stroke-width: 1.35; stroke-linecap: square"/>
   </g>
   <g id="line2d_29">
    <path d="M 74.448 348.192 
L 93.3984 348.192 
L 95.29344 344.929846 
L 97.18848 344.929846 
L 99.08352 343.298769 
L 100.97856 343.298769 
L 106.66368 338.405538 
L 108.55872 338.405538 
L 112.3488 335.143385 
L 118.03392 335.143385 
L 119.92896 331.881231 
L 123.71904 331.881231 
L 125.61408 328.619077 
L 127.50912 328.619077 
L 129.40416 326.988 
L 131.2992 323.163406 
L 135.08928 319.901252 
L 136.98432 319.901252 
L 138.87936 313.376944 
L 140.7744 311.745867 
L 142.66944 308.483714 
L 148.35456 303.590483 
L 150.2496 298.697252 
L 152.14464 296.503735 
L 154.03968 289.979427 
L 155.93472 285.086196 
L 157.82976 285.086196 
L 163.51488 280.192966 
L 165.40992 276.930812 
L 167.30496 276.930812 
L 172.99008 272.037581 
L 174.88512 267.14435 
L 176.78016 264.950833 
L 178.6752 264.950833 
L 180.57024 263.319756 
L 182.46528 263.319756 
L 184.36032 261.688679 
L 186.25536 258.426525 
L 188.1504 256.795448 
L 190.04544 254.601931 
L 193.83552 254.601931 
L 195.73056 250.777337 
L 197.6256 248.58382 
L 199.52064 245.321666 
L 201.41568 239.865995 
L 203.31072 232.779247 
L 205.20576 232.779247 
L 208.99584 229.517093 
L 210.89088 227.323576 
L 212.78592 223.498981 
L 216.576 223.498981 
L 218.47104 221.867905 
L 220.36608 218.04331 
L 231.73632 218.04331 
L 235.5264 214.781156 
L 237.42144 211.519003 
L 239.31648 209.887926 
L 241.21152 206.625772 
L 245.0016 206.625772 
L 246.89664 204.994695 
L 248.79168 202.801178 
L 254.4768 202.801178 
L 256.37184 200.60766 
L 258.26688 198.976584 
L 277.21728 198.976584 
L 279.11232 197.345507 
L 288.58752 197.345507 
L 294.27264 190.764955 
L 299.95776 190.764955 
L 301.8528 189.133878 
L 303.74784 189.133878 
L 305.64288 186.940361 
L 307.53792 186.940361 
L 309.43296 184.746844 
L 324.59328 184.746844 
L 326.48832 182.553326 
L 341.64864 182.553326 
L 343.54368 180.922249 
L 349.2288 180.922249 
L 351.12384 178.728732 
L 358.704 178.728732 
L 360.59904 177.097655 
L 362.49408 177.097655 
L 364.38912 172.710621 
L 368.1792 172.710621 
L 370.07424 170.517103 
L 371.96928 170.517103 
L 373.86432 168.323586 
L 375.75936 168.323586 
L 377.6544 166.130069 
L 379.54944 166.130069 
L 381.44448 163.936552 
L 387.1296 163.936552 
L 389.02464 161.743034 
L 402.28992 161.743034 
L 404.18496 159.549517 
L 415.5552 159.549517 
L 417.45024 157.356 
L 421.24032 157.356 
L 423.13536 155.162483 
L 425.0304 155.162483 
L 426.92544 148.581931 
L 449.66592 148.581931 
L 451.56096 146.388414 
L 453.456 146.388414 
L 455.35104 144.194897 
L 466.72128 144.194897 
L 468.61632 142.001379 
L 478.09152 142.001379 
L 479.98656 139.807862 
L 489.46176 139.807862 
L 491.3568 137.614345 
L 508.41216 137.614345 
L 510.3072 135.420828 
L 527.36256 135.420828 
L 529.2576 133.22731 
L 533.04768 133.22731 
L 534.94272 131.033793 
L 536.83776 131.033793 
L 538.7328 128.840276 
L 546.31296 128.840276 
L 550.10304 124.453241 
L 557.6832 124.453241 
L 561.47328 120.066207 
L 567.1584 120.066207 
L 569.05344 115.679172 
L 601.26912 115.679172 
L 603.16416 113.485655 
L 627.79968 113.485655 
L 629.69472 111.292138 
L 642.96 111.292138 
L 642.96 111.292138 
" clip-path="url(#p593f8e5625)" style="fill: none; stroke-dasharray: 4.995,2.16; stroke-dashoffset: 0; stroke: #c38a19; stroke-width: 1.35"/>
   </g>
   <g id="line2d_30">
    <path d="M 74.448 348.192 
L 97.18848 348.192 
L 100.97856 344.929846 
L 102.8736 344.929846 
L 104.76864 343.298769 
L 106.66368 343.298769 
L 108.55872 341.667692 
L 112.3488 341.667692 
L 116.13888 338.405538 
L 121.824 338.405538 
L 125.61408 335.143385 
L 127.50912 330.250154 
L 131.2992 323.725846 
L 133.19424 323.725846 
L 135.08928 318.832615 
L 136.98432 318.832615 
L 138.87936 315.570462 
L 140.7744 315.570462 
L 144.56448 309.046154 
L 148.35456 305.784 
L 150.2496 301.959406 
L 152.14464 298.697252 
L 154.03968 298.697252 
L 155.93472 296.503735 
L 157.82976 293.241581 
L 159.7248 288.34835 
L 163.51488 285.086196 
L 165.40992 281.261602 
L 167.30496 277.999448 
L 171.09504 274.737294 
L 172.99008 269.844064 
L 174.88512 268.212987 
L 176.78016 262.757316 
L 178.6752 260.563798 
L 182.46528 260.563798 
L 186.25536 252.91461 
L 188.1504 250.721093 
L 190.04544 250.721093 
L 191.94048 247.458939 
L 195.73056 243.071905 
L 197.6256 241.440828 
L 199.52064 241.440828 
L 201.41568 239.809751 
L 203.31072 236.547597 
L 207.1008 236.547597 
L 208.99584 234.35408 
L 214.68096 234.35408 
L 216.576 231.091926 
L 218.47104 224.567618 
L 220.36608 221.305464 
L 222.26112 216.412233 
L 224.15616 213.15008 
L 226.0512 211.519003 
L 227.94624 211.519003 
L 229.84128 209.325485 
L 231.73632 209.325485 
L 233.63136 206.063332 
L 235.5264 206.063332 
L 237.42144 203.869814 
L 248.79168 203.869814 
L 250.68672 202.238737 
L 256.37184 202.238737 
L 258.26688 198.976584 
L 271.53216 198.976584 
L 273.4272 196.783066 
L 275.32224 192.396032 
L 286.69248 192.396032 
L 288.58752 188.008997 
L 296.16768 188.008997 
L 298.06272 186.37792 
L 307.53792 186.37792 
L 309.43296 184.184403 
L 318.90816 184.184403 
L 320.8032 182.553326 
L 332.17344 182.553326 
L 334.06848 180.359809 
L 341.64864 180.359809 
L 343.54368 176.535215 
L 345.43872 174.341698 
L 349.2288 174.341698 
L 353.01888 169.954663 
L 356.80896 169.954663 
L 358.704 167.761146 
L 360.59904 167.761146 
L 362.49408 163.936552 
L 368.1792 163.936552 
L 370.07424 161.743034 
L 385.23456 161.743034 
L 387.1296 159.549517 
L 394.70976 159.549517 
L 396.6048 157.356 
L 400.39488 157.356 
L 402.28992 155.162483 
L 406.08 155.162483 
L 407.97504 148.581931 
L 430.71552 148.581931 
L 432.61056 146.388414 
L 434.5056 146.388414 
L 436.40064 144.194897 
L 445.87584 144.194897 
L 447.77088 142.001379 
L 459.14112 142.001379 
L 461.03616 139.807862 
L 468.61632 139.807862 
L 470.51136 137.614345 
L 491.3568 137.614345 
L 493.25184 135.420828 
L 508.41216 135.420828 
L 510.3072 133.22731 
L 514.09728 133.22731 
L 515.99232 131.033793 
L 519.7824 131.033793 
L 521.67744 128.840276 
L 525.46752 128.840276 
L 529.2576 124.453241 
L 536.83776 124.453241 
L 538.7328 122.259724 
L 540.62784 122.259724 
L 542.52288 120.066207 
L 546.31296 120.066207 
L 548.208 115.679172 
L 580.42368 115.679172 
L 582.31872 113.485655 
L 606.95424 113.485655 
L 608.84928 111.292138 
L 624.0096 111.292138 
L 625.90464 109.098621 
L 642.96 109.098621 
L 642.96 109.098621 
" clip-path="url(#p593f8e5625)" style="fill: none; stroke-dasharray: 1.35,2.2275; stroke-dashoffset: 0; stroke: #7d8a92; stroke-width: 1.35"/>
   </g>
   <g id="line2d_31">
    <path d="M 74.448 348.192 
L 102.8736 348.192 
L 104.76864 345.998483 
L 154.03968 345.998483 
L 155.93472 343.804966 
L 157.82976 343.804966 
L 161.61984 339.417931 
L 184.36032 339.417931 
L 186.25536 337.224414 
L 199.52064 337.224414 
L 201.41568 335.030897 
L 207.1008 335.030897 
L 208.99584 332.837379 
L 210.89088 331.206302 
L 216.576 331.206302 
L 218.47104 329.012785 
L 222.26112 329.012785 
L 224.15616 326.819268 
L 226.0512 326.819268 
L 227.94624 324.625751 
L 229.84128 324.625751 
L 231.73632 322.994674 
L 233.63136 322.994674 
L 235.5264 320.801156 
L 239.31648 320.801156 
L 241.21152 316.414122 
L 243.10656 314.220605 
L 246.89664 314.220605 
L 248.79168 312.589528 
L 250.68672 308.202493 
L 252.58176 306.008976 
L 254.4768 306.008976 
L 256.37184 303.815459 
L 258.26688 302.184382 
L 260.16192 299.990865 
L 262.05696 299.990865 
L 263.952 296.166271 
L 267.74208 291.779236 
L 269.63712 285.198684 
L 271.53216 280.81165 
L 275.32224 276.424615 
L 277.21728 276.424615 
L 279.11232 274.793538 
L 281.00736 272.600021 
L 282.9024 266.58191 
L 286.69248 266.58191 
L 288.58752 264.388393 
L 298.06272 264.388393 
L 299.95776 257.807841 
L 301.8528 257.807841 
L 303.74784 253.420806 
L 305.64288 251.227289 
L 309.43296 247.965135 
L 313.22304 243.578101 
L 315.11808 243.578101 
L 317.01312 240.315947 
L 318.90816 235.928912 
L 322.69824 232.666759 
L 324.59328 232.666759 
L 326.48832 230.473241 
L 328.38336 228.842164 
L 330.2784 228.842164 
L 332.17344 227.211088 
L 334.06848 225.01757 
L 337.85856 225.01757 
L 339.7536 219.561899 
L 343.54368 213.037592 
L 351.12384 213.037592 
L 353.01888 211.406515 
L 354.91392 207.58192 
L 356.80896 204.319767 
L 358.704 202.68869 
L 360.59904 202.68869 
L 362.49408 201.057613 
L 364.38912 201.057613 
L 366.28416 199.426536 
L 370.07424 199.426536 
L 371.96928 195.601942 
L 373.86432 192.339788 
L 375.75936 192.339788 
L 377.6544 188.515194 
L 381.44448 185.25304 
L 385.23456 185.25304 
L 387.1296 181.428446 
L 390.91968 181.428446 
L 392.81472 178.166292 
L 394.70976 178.166292 
L 396.6048 174.904138 
L 398.49984 173.273061 
L 400.39488 173.273061 
L 402.28992 169.448467 
L 406.08 169.448467 
L 407.97504 167.81739 
L 409.87008 167.81739 
L 411.76512 164.555236 
L 413.66016 164.555236 
L 417.45024 161.293082 
L 419.34528 161.293082 
L 423.13536 158.030928 
L 426.92544 158.030928 
L 428.82048 155.837411 
L 432.61056 152.575257 
L 438.29568 152.575257 
L 440.19072 150.38174 
L 442.08576 148.750663 
L 443.9808 148.750663 
L 447.77088 142.226355 
L 453.456 142.226355 
L 455.35104 138.964202 
L 457.24608 138.964202 
L 459.14112 135.139607 
L 461.03616 135.139607 
L 462.9312 130.246377 
L 472.4064 130.246377 
L 474.30144 128.6153 
L 476.19648 128.6153 
L 478.09152 126.984223 
L 481.8816 126.984223 
L 483.77664 124.790706 
L 485.67168 123.159629 
L 487.56672 123.159629 
L 489.46176 121.528552 
L 491.3568 116.072881 
L 497.04192 116.072881 
L 500.832 112.810727 
L 502.72704 112.810727 
L 504.62208 111.17965 
L 506.51712 111.17965 
L 508.41216 106.286419 
L 512.20224 106.286419 
L 514.09728 104.655342 
L 521.67744 104.655342 
L 523.57248 102.461825 
L 525.46752 102.461825 
L 527.36256 100.830748 
L 582.31872 100.830748 
L 584.21376 99.199671 
L 603.16416 99.199671 
L 605.0592 97.568594 
L 642.96 97.568594 
L 642.96 97.568594 
" clip-path="url(#p593f8e5625)" style="fill: none; stroke-dasharray: 8.64,2.16,1.35,2.16; stroke-dashoffset: 0; stroke: #d0526a; stroke-width: 1.35"/>
   </g>
   <g id="line2d_32">
    <path d="M 74.448 348.192 
L 93.3984 348.192 
L 95.29344 345.998483 
L 118.03392 345.998483 
L 119.92896 343.804966 
L 121.824 343.804966 
L 123.71904 337.224414 
L 133.19424 337.224414 
L 135.08928 335.030897 
L 136.98432 335.030897 
L 138.87936 332.837379 
L 140.7744 332.837379 
L 142.66944 328.450345 
L 144.56448 326.256828 
L 154.03968 326.256828 
L 155.93472 324.06331 
L 157.82976 319.676276 
L 159.7248 317.482759 
L 169.2 317.482759 
L 172.99008 313.095724 
L 174.88512 313.095724 
L 176.78016 308.70869 
L 178.6752 308.70869 
L 180.57024 302.128138 
L 184.36032 297.741103 
L 193.83552 297.741103 
L 195.73056 295.547586 
L 197.6256 293.916509 
L 201.41568 293.916509 
L 203.31072 291.722992 
L 207.1008 291.722992 
L 208.99584 287.335958 
L 220.36608 287.335958 
L 222.26112 285.14244 
L 229.84128 285.14244 
L 231.73632 282.948923 
L 235.5264 282.948923 
L 237.42144 280.755406 
L 239.31648 280.755406 
L 241.21152 278.561889 
L 245.0016 278.561889 
L 248.79168 274.174854 
L 252.58176 274.174854 
L 254.4768 271.981337 
L 258.26688 271.981337 
L 260.16192 269.78782 
L 262.05696 265.400785 
L 269.63712 265.400785 
L 271.53216 263.207268 
L 282.9024 263.207268 
L 284.79744 261.013751 
L 292.3776 261.013751 
L 294.27264 258.820233 
L 299.95776 258.820233 
L 301.8528 256.626716 
L 303.74784 254.995639 
L 305.64288 252.802122 
L 307.53792 252.802122 
L 311.328 249.539968 
L 315.11808 249.539968 
L 317.01312 247.346451 
L 322.69824 247.346451 
L 324.59328 245.715374 
L 334.06848 245.715374 
L 335.96352 241.89078 
L 341.64864 241.89078 
L 343.54368 233.679151 
L 345.43872 233.679151 
L 347.33376 231.485634 
L 349.2288 231.485634 
L 351.12384 229.292117 
L 356.80896 229.292117 
L 358.704 227.098599 
L 362.49408 227.098599 
L 364.38912 224.905082 
L 366.28416 224.905082 
L 368.1792 223.274005 
L 370.07424 220.011851 
L 371.96928 220.011851 
L 373.86432 218.380775 
L 381.44448 218.380775 
L 383.33952 215.118621 
L 385.23456 206.906992 
L 387.1296 205.275915 
L 389.02464 205.275915 
L 390.91968 203.644838 
L 396.6048 203.644838 
L 398.49984 202.013761 
L 400.39488 202.013761 
L 402.28992 200.382684 
L 404.18496 196.55809 
L 406.08 196.55809 
L 409.87008 193.295936 
L 411.76512 193.295936 
L 413.66016 190.033782 
L 415.5552 190.033782 
L 417.45024 188.402706 
L 419.34528 188.402706 
L 421.24032 184.578111 
L 423.13536 184.578111 
L 428.82048 179.684881 
L 430.71552 179.684881 
L 434.5056 176.422727 
L 443.9808 176.422727 
L 447.77088 169.898419 
L 451.56096 166.636265 
L 455.35104 166.636265 
L 457.24608 163.374111 
L 461.03616 163.374111 
L 462.9312 161.743034 
L 464.82624 161.743034 
L 468.61632 158.480881 
L 470.51136 158.480881 
L 472.4064 156.849804 
L 478.09152 156.849804 
L 479.98656 155.218727 
L 481.8816 155.218727 
L 483.77664 153.58765 
L 489.46176 153.58765 
L 491.3568 151.956573 
L 493.25184 151.956573 
L 495.14688 148.694419 
L 502.72704 142.170111 
L 504.62208 138.345517 
L 506.51712 138.345517 
L 510.3072 135.083363 
L 512.20224 131.258769 
L 514.09728 129.627692 
L 529.2576 129.627692 
L 531.15264 124.734462 
L 533.04768 124.734462 
L 534.94272 121.472308 
L 536.83776 119.841231 
L 538.7328 114.948 
L 542.52288 111.685846 
L 544.41792 111.685846 
L 546.31296 110.054769 
L 551.99808 110.054769 
L 553.89312 108.423692 
L 557.6832 108.423692 
L 559.57824 106.792615 
L 565.26336 106.792615 
L 567.1584 105.161538 
L 570.94848 105.161538 
L 572.84352 103.530462 
L 588.00384 103.530462 
L 589.89888 100.268308 
L 591.79392 98.637231 
L 642.96 98.637231 
L 642.96 98.637231 
" clip-path="url(#p593f8e5625)" style="fill: none; stroke-dasharray: 6.75,2.7,1.35,2.7; stroke-dashoffset: 0; stroke: #2f8f84; stroke-width: 1.35"/>
   </g>
   <g id="patch_4">
    <path d="M 74.448 348.192 
L 74.448 93.744 
" style="fill: none; stroke: #000000; stroke-width: 0.8; stroke-linejoin: miter; stroke-linecap: square"/>
   </g>
   <g id="patch_5">
    <path d="M 74.448 348.192 
L 642.96 348.192 
" style="fill: none; stroke: #000000; stroke-width: 0.8; stroke-linejoin: miter; stroke-linecap: square"/>
   </g>
  </g>
  <g id="text_16">
   <text style="font: 18px 'DejaVu Sans', 'Bitstream Vera Sans', 'Computer Modern Sans Serif', 'Lucida Grande', 'Verdana', 'Geneva', 'Lucid', 'Arial', 'Helvetica', 'Avant Garde', sans-serif; text-anchor: start" x="74.448" y="38.229188" transform="rotate(-0 74.448 38.229188)">LED-RGB1 Direct</text>
  </g>
  <g id="text_17">
   <text style="fill: #66747c; font: 10px 'DejaVu Sans', 'Bitstream Vera Sans', 'Computer Modern Sans Serif', 'Lucida Grande', 'Verdana', 'Geneva', 'Lucid', 'Arial', 'Helvetica', 'Avant Garde', sans-serif; text-anchor: start" x="74.448" y="64.728" transform="rotate(-0 74.448 64.728)">WLED LCD</text>
  </g>
  <g id="legend_1">
   <g id="line2d_33">
    <path d="M 185.17875 404.151391 
L 194.27875 404.151391 
L 203.37875 404.151391 
" style="fill: none; stroke: #252525; stroke-width: 2.5; stroke-linecap: square"/>
   </g>
   <g id="text_18">
    <text style="font: 9.1px 'DejaVu Sans', 'Bitstream Vera Sans', 'Computer Modern Sans Serif', 'Lucida Grande', 'Verdana', 'Geneva', 'Lucid', 'Arial', 'Helvetica', 'Avant Garde', sans-serif; text-anchor: start" x="210.65875" y="407.336391" transform="rotate(-0 210.65875 407.336391)">Potera CMF</text>
   </g>
   <g id="line2d_34">
    <path d="M 185.17875 417.508484 
L 194.27875 417.508484 
L 203.37875 417.508484 
" style="fill: none; stroke: #3b83b4; stroke-width: 1.35; stroke-linecap: square"/>
   </g>
   <g id="text_19">
    <text style="font: 9.1px 'DejaVu Sans', 'Bitstream Vera Sans', 'Computer Modern Sans Serif', 'Lucida Grande', 'Verdana', 'Geneva', 'Lucid', 'Arial', 'Helvetica', 'Avant Garde', sans-serif; text-anchor: start" x="210.65875" y="420.693484" transform="rotate(-0 210.65875 420.693484)">CIE 2015 2°</text>
   </g>
   <g id="line2d_35">
    <path d="M 282.931234 404.151391 
L 292.031234 404.151391 
L 301.131234 404.151391 
" style="fill: none; stroke-dasharray: 4.995,2.16; stroke-dashoffset: 0; stroke: #c38a19; stroke-width: 1.35"/>
   </g>
   <g id="text_20">
    <text style="font: 9.1px 'DejaVu Sans', 'Bitstream Vera Sans', 'Computer Modern Sans Serif', 'Lucida Grande', 'Verdana', 'Geneva', 'Lucid', 'Arial', 'Helvetica', 'Avant Garde', sans-serif; text-anchor: start" x="308.411234" y="407.336391" transform="rotate(-0 308.411234 407.336391)">CIE 2015 10°</text>
   </g>
   <g id="line2d_36">
    <path d="M 282.931234 417.508484 
L 292.031234 417.508484 
L 301.131234 417.508484 
" style="fill: none; stroke-dasharray: 1.35,2.2275; stroke-dashoffset: 0; stroke: #7d8a92; stroke-width: 1.35"/>
   </g>
   <g id="text_21">
    <text style="font: 9.1px 'DejaVu Sans', 'Bitstream Vera Sans', 'Computer Modern Sans Serif', 'Lucida Grande', 'Verdana', 'Geneva', 'Lucid', 'Arial', 'Helvetica', 'Avant Garde', sans-serif; text-anchor: start" x="308.411234" y="420.693484" transform="rotate(-0 308.411234 420.693484)">CIE 1964 10°</text>
   </g>
   <g id="line2d_37">
    <path d="M 386.473594 404.151391 
L 395.573594 404.151391 
L 404.673594 404.151391 
" style="fill: none; stroke-dasharray: 8.64,2.16,1.35,2.16; stroke-dashoffset: 0; stroke: #d0526a; stroke-width: 1.35"/>
   </g>
   <g id="text_22">
    <text style="font: 9.1px 'DejaVu Sans', 'Bitstream Vera Sans', 'Computer Modern Sans Serif', 'Lucida Grande', 'Verdana', 'Geneva', 'Lucid', 'Arial', 'Helvetica', 'Avant Garde', sans-serif; text-anchor: start" x="411.953594" y="407.336391" transform="rotate(-0 411.953594 407.336391)">CIE 1931 2°</text>
   </g>
   <g id="line2d_38">
    <path d="M 386.473594 417.508484 
L 395.573594 417.508484 
L 404.673594 417.508484 
" style="fill: none; stroke-dasharray: 6.75,2.7,1.35,2.7; stroke-dashoffset: 0; stroke: #2f8f84; stroke-width: 1.35"/>
   </g>
   <g id="text_23">
    <text style="font: 9.1px 'DejaVu Sans', 'Bitstream Vera Sans', 'Computer Modern Sans Serif', 'Lucida Grande', 'Verdana', 'Geneva', 'Lucid', 'Arial', 'Helvetica', 'Avant Garde', sans-serif; text-anchor: start" x="411.953594" y="420.693484" transform="rotate(-0 411.953594 420.693484)">Judd–Vos 1978 2°</text>
   </g>
  </g>
 </g>
 <defs>
  <clipPath id="p593f8e5625">
   <rect x="74.448" y="93.744" width="568.512" height="254.448"/>
  </clipPath>
 </defs>
</svg>
