<?xml version="1.0" encoding="utf-8" standalone="no"?>
<!DOCTYPE svg PUBLIC "-//W3C//DTD SVG 1.1//EN"
  "http://www.w3.org/Graphics/SVG/1.1/DTD/svg11.dtd">
<svg xmlns:xlink="http://www.w3.org/1999/xlink" width="676.8pt" height="446.4pt" viewBox="0 0 676.8 446.4" xmlns="http://www.w3.org/2000/svg" version="1.1">
 <metadata>
  <rdf:RDF xmlns:dc="http://purl.org/dc/elements/1.1/" xmlns:cc="http://creativecommons.org/ns#" xmlns:rdf="http://www.w3.org/1999/02/22-rdf-syntax-ns#">
   <cc:Work>
    <dc:type rdf:resource="http://purl.org/dc/dcmitype/StillImage"/>
    <dc:date>2026-07-20T06:41:55.903871</dc:date>
    <dc:format>image/svg+xml</dc:format>
    <dc:creator>
     <cc:Agent>
      <dc:title>Matplotlib v3.9.4, https://matplotlib.org/</dc:title>
     </cc:Agent>
    </dc:creator>
   </cc:Work>
  </rdf:RDF>
 </metadata>
 <defs>
  <style type="text/css">*{stroke-linejoin: round; stroke-linecap: butt}</style>
 </defs>
 <g id="figure_1">
  <g id="patch_1">
   <path d="M 0 446.4 
L 676.8 446.4 
L 676.8 0 
L 0 0 
z
" style="fill: #ffffff"/>
  </g>
  <g id="axes_1">
   <g id="patch_2">
    <path d="M 74.448 348.192 
L 642.96 348.192 
L 642.96 93.744 
L 74.448 93.744 
z
" style="fill: #ffffff"/>
   </g>
   <g id="patch_3">
    <path d="M 169.2 348.192 
L 358.704 348.192 
L 358.704 93.744 
L 169.2 93.744 
z
" clip-path="url(#pecd407f079)" style="fill: #e7f0ea; opacity: 0.58; stroke: #e7f0ea; stroke-linejoin: miter"/>
   </g>
   <g id="matplotlib.axis_1">
    <g id="xtick_1">
     <g id="line2d_1">
      <path d="M 74.448 348.192 
L 74.448 93.744 
" clip-path="url(#pecd407f079)" style="fill: none; stroke: #dfe5e8; stroke-width: 0.65; stroke-linecap: square"/>
     </g>
     <g id="line2d_2">
      <defs>
       <path id="m3b73a73b7c" d="M 0 0 
L 0 3.5 
" style="stroke: #000000; stroke-width: 0.8"/>
      </defs>
      <g>
       <use xlink:href="#m3b73a73b7c" x="74.448" y="348.192" style="stroke: #000000; stroke-width: 0.8"/>
      </g>
     </g>
     <g id="text_1">
      <text style="font: 10px 'DejaVu Sans', 'Bitstream Vera Sans', 'Computer Modern Sans Serif', 'Lucida Grande', 'Verdana', 'Geneva', 'Lucid', 'Arial', 'Helvetica', 'Avant Garde', sans-serif; text-anchor: middle" x="74.448" y="362.790438" transform="rotate(-0 74.448 362.790438)">0</text>
     </g>
    </g>
    <g id="xtick_2">
     <g id="line2d_3">
      <path d="M 169.2 348.192 
L 169.2 93.744 
" clip-path="url(#pecd407f079)" style="fill: none; stroke: #dfe5e8; stroke-width: 0.65; stroke-linecap: square"/>
     </g>
     <g id="line2d_4">
      <g>
       <use xlink:href="#m3b73a73b7c" x="169.2" y="348.192" style="stroke: #000000; stroke-width: 0.8"/>
      </g>
     </g>
     <g id="text_2">
      <text style="font: 10px 'DejaVu Sans', 'Bitstream Vera Sans', 'Computer Modern Sans Serif', 'Lucida Grande', 'Verdana', 'Geneva', 'Lucid', 'Arial', 'Helvetica', 'Avant Garde', sans-serif; text-anchor: middle" x="169.2" y="362.790438" transform="rotate(-0 169.2 362.790438)">1</text>
     </g>
    </g>
    <g id="xtick_3">
     <g id="line2d_5">
      <path d="M 263.952 348.192 
L 263.952 93.744 
" clip-path="url(#pecd407f079)" style="fill: none; stroke: #dfe5e8; stroke-width: 0.65; stroke-linecap: square"/>
     </g>
     <g id="line2d_6">
      <g>
       <use xlink:href="#m3b73a73b7c" x="263.952" y="348.192" style="stroke: #000000; stroke-width: 0.8"/>
      </g>
     </g>
     <g id="text_3">
      <text style="font: 10px 'DejaVu Sans', 'Bitstream Vera Sans', 'Computer Modern Sans Serif', 'Lucida Grande', 'Verdana', 'Geneva', 'Lucid', 'Arial', 'Helvetica', 'Avant Garde', sans-serif; text-anchor: middle" x="263.952" y="362.790438" transform="rotate(-0 263.952 362.790438)">2</text>
     </g>
    </g>
    <g id="xtick_4">
     <g id="line2d_7">
      <path d="M 358.704 348.192 
L 358.704 93.744 
" clip-path="url(#pecd407f079)" style="fill: none; stroke: #dfe5e8; stroke-width: 0.65; stroke-linecap: square"/>
     </g>
     <g id="line2d_8">
      <g>
       <use xlink:href="#m3b73a73b7c" x="358.704" y="348.192" style="stroke: #000000; stroke-width: 0.8"/>
      </g>
     </g>
     <g id="text_4">
      <text style="font: 10px 'DejaVu Sans', 'Bitstream Vera Sans', 'Computer Modern Sans Serif', 'Lucida Grande', 'Verdana', 'Geneva', 'Lucid', 'Arial', 'Helvetica', 'Avant Garde', sans-serif; text-anchor: middle" x="358.704" y="362.790438" transform="rotate(-0 358.704 362.790438)">3</text>
     </g>
    </g>
    <g id="xtick_5">
     <g id="line2d_9">
      <path d="M 453.456 348.192 
L 453.456 93.744 
" clip-path="url(#pecd407f079)" style="fill: none; stroke: #dfe5e8; stroke-width: 0.65; stroke-linecap: square"/>
     </g>
     <g id="line2d_10">
      <g>
       <use xlink:href="#m3b73a73b7c" x="453.456" y="348.192" style="stroke: #000000; stroke-width: 0.8"/>
      </g>
     </g>
     <g id="text_5">
      <text style="font: 10px 'DejaVu Sans', 'Bitstream Vera Sans', 'Computer Modern Sans Serif', 'Lucida Grande', 'Verdana', 'Geneva', 'Lucid', 'Arial', 'Helvetica', 'Avant Garde', sans-serif; text-anchor: middle" x="453.456" y="362.790438" transform="rotate(-0 453.456 362.790438)">4</text>
     </g>
    </g>
    <g id="xtick_6">
     <g id="line2d_11">
      <path d="M 548.208 348.192 
L 548.208 93.744 
" clip-path="url(#pecd407f079)" style="fill: none; stroke: #dfe5e8; stroke-width: 0.65; stroke-linecap: square"/>
     </g>
     <g id="line2d_12">
      <g>
       <use xlink:href="#m3b73a73b7c" x="548.208" y="348.192" style="stroke: #000000; stroke-width: 0.8"/>
      </g>
     </g>
     <g id="text_6">
      <text style="font: 10px 'DejaVu Sans', 'Bitstream Vera Sans', 'Computer Modern Sans Serif', 'Lucida Grande', 'Verdana', 'Geneva', 'Lucid', 'Arial', 'Helvetica', 'Avant Garde', sans-serif; text-anchor: middle" x="548.208" y="362.790438" transform="rotate(-0 548.208 362.790438)">5</text>
     </g>
    </g>
    <g id="xtick_7">
     <g id="line2d_13">
      <path d="M 642.96 348.192 
L 642.96 93.744 
" clip-path="url(#pecd407f079)" style="fill: none; stroke: #dfe5e8; stroke-width: 0.65; stroke-linecap: square"/>
     </g>
     <g id="line2d_14">
      <g>
       <use xlink:href="#m3b73a73b7c" x="642.96" y="348.192" style="stroke: #000000; stroke-width: 0.8"/>
      </g>
     </g>
     <g id="text_7">
      <text style="font: 10px 'DejaVu Sans', 'Bitstream Vera Sans', 'Computer Modern Sans Serif', 'Lucida Grande', 'Verdana', 'Geneva', 'Lucid', 'Arial', 'Helvetica', 'Avant Garde', sans-serif; text-anchor: middle" x="642.96" y="362.790438" transform="rotate(-0 642.96 362.790438)">6</text>
     </g>
    </g>
    <g id="text_8">
     <text style="font: 10px 'DejaVu Sans', 'Bitstream Vera Sans', 'Computer Modern Sans Serif', 'Lucida Grande', 'Verdana', 'Geneva', 'Lucid', 'Arial', 'Helvetica', 'Avant Garde', sans-serif; text-anchor: middle" x="358.704" y="376.468563" transform="rotate(-0 358.704 376.468563)">sUCS dE threshold</text>
    </g>
   </g>
   <g id="matplotlib.axis_2">
    <g id="ytick_1">
     <g id="line2d_15">
      <path d="M 74.448 348.192 
L 642.96 348.192 
" clip-path="url(#pecd407f079)" style="fill: none; stroke: #dfe5e8; stroke-width: 0.65; stroke-linecap: square"/>
     </g>
     <g id="line2d_16">
      <defs>
       <path id="ma815a1d979" d="M 0 0 
L -3.5 0 
" style="stroke: #000000; stroke-width: 0.8"/>
      </defs>
      <g>
       <use xlink:href="#ma815a1d979" x="74.448" y="348.192" style="stroke: #000000; stroke-width: 0.8"/>
      </g>
     </g>
     <g id="text_9">
      <text style="font: 10px 'DejaVu Sans', 'Bitstream Vera Sans', 'Computer Modern Sans Serif', 'Lucida Grande', 'Verdana', 'Geneva', 'Lucid', 'Arial', 'Helvetica', 'Avant Garde', sans-serif; text-anchor: end" x="67.448" y="351.991219" transform="rotate(-0 67.448 351.991219)">0</text>
     </g>
    </g>
    <g id="ytick_2">
     <g id="line2d_17">
      <path d="M 74.448 297.3024 
L 642.96 297.3024 
" clip-path="url(#pecd407f079)" style="fill: none; stroke: #dfe5e8; stroke-width: 0.65; stroke-linecap: square"/>
     </g>
     <g id="line2d_18">
      <g>
       <use xlink:href="#ma815a1d979" x="74.448" y="297.3024" style="stroke: #000000; stroke-width: 0.8"/>
      </g>
     </g>
     <g id="text_10">
      <text style="font: 10px 'DejaVu Sans', 'Bitstream Vera Sans', 'Computer Modern Sans Serif', 'Lucida Grande', 'Verdana', 'Geneva', 'Lucid', 'Arial', 'Helvetica', 'Avant Garde', sans-serif; text-anchor: end" x="67.448" y="301.101619" transform="rotate(-0 67.448 301.101619)">20</text>
     </g>
    </g>
    <g id="ytick_3">
     <g id="line2d_19">
      <path d="M 74.448 246.4128 
L 642.96 246.4128 
" clip-path="url(#pecd407f079)" style="fill: none; stroke: #dfe5e8; stroke-width: 0.65; stroke-linecap: square"/>
     </g>
     <g id="line2d_20">
      <g>
       <use xlink:href="#ma815a1d979" x="74.448" y="246.4128" style="stroke: #000000; stroke-width: 0.8"/>
      </g>
     </g>
     <g id="text_11">
      <text style="font: 10px 'DejaVu Sans', 'Bitstream Vera Sans', 'Computer Modern Sans Serif', 'Lucida Grande', 'Verdana', 'Geneva', 'Lucid', 'Arial', 'Helvetica', 'Avant Garde', sans-serif; text-anchor: end" x="67.448" y="250.212019" transform="rotate(-0 67.448 250.212019)">40</text>
     </g>
    </g>
    <g id="ytick_4">
     <g id="line2d_21">
      <path d="M 74.448 195.5232 
L 642.96 195.5232 
" clip-path="url(#pecd407f079)" style="fill: none; stroke: #dfe5e8; stroke-width: 0.65; stroke-linecap: square"/>
     </g>
     <g id="line2d_22">
      <g>
       <use xlink:href="#ma815a1d979" x="74.448" y="195.5232" style="stroke: #000000; stroke-width: 0.8"/>
      </g>
     </g>
     <g id="text_12">
      <text style="font: 10px 'DejaVu Sans', 'Bitstream Vera Sans', 'Computer Modern Sans Serif', 'Lucida Grande', 'Verdana', 'Geneva', 'Lucid', 'Arial', 'Helvetica', 'Avant Garde', sans-serif; text-anchor: end" x="67.448" y="199.322419" transform="rotate(-0 67.448 199.322419)">60</text>
     </g>
    </g>
    <g id="ytick_5">
     <g id="line2d_23">
      <path d="M 74.448 144.6336 
L 642.96 144.6336 
" clip-path="url(#pecd407f079)" style="fill: none; stroke: #dfe5e8; stroke-width: 0.65; stroke-linecap: square"/>
     </g>
     <g id="line2d_24">
      <g>
       <use xlink:href="#ma815a1d979" x="74.448" y="144.6336" style="stroke: #000000; stroke-width: 0.8"/>
      </g>
     </g>
     <g id="text_13">
      <text style="font: 10px 'DejaVu Sans', 'Bitstream Vera Sans', 'Computer Modern Sans Serif', 'Lucida Grande', 'Verdana', 'Geneva', 'Lucid', 'Arial', 'Helvetica', 'Avant Garde', sans-serif; text-anchor: end" x="67.448" y="148.432819" transform="rotate(-0 67.448 148.432819)">80</text>
     </g>
    </g>
    <g id="ytick_6">
     <g id="line2d_25">
      <path d="M 74.448 93.744 
L 642.96 93.744 
" clip-path="url(#pecd407f079)" style="fill: none; stroke: #dfe5e8; stroke-width: 0.65; stroke-linecap: square"/>
     </g>
     <g id="line2d_26">
      <g>
       <use xlink:href="#ma815a1d979" x="74.448" y="93.744" style="stroke: #000000; stroke-width: 0.8"/>
      </g>
     </g>
     <g id="text_14">
      <text style="font: 10px 'DejaVu Sans', 'Bitstream Vera Sans', 'Computer Modern Sans Serif', 'Lucida Grande', 'Verdana', 'Geneva', 'Lucid', 'Arial', 'Helvetica', 'Avant Garde', sans-serif; text-anchor: end" x="67.448" y="97.543219" transform="rotate(-0 67.448 97.543219)">100</text>
     </g>
    </g>
    <g id="text_15">
     <text style="font: 10px 'DejaVu Sans', 'Bitstream Vera Sans', 'Computer Modern Sans Serif', 'Lucida Grande', 'Verdana', 'Geneva', 'Lucid', 'Arial', 'Helvetica', 'Avant Garde', sans-serif; text-anchor: middle" x="42.280812" y="220.968" transform="rotate(-90 42.280812 220.968)">observers%</text>
    </g>
   </g>
   <g id="line2d_27">
    <path d="M 74.448 348.192 
L 93.3984 348.192 
L 95.29344 345.998483 
L 97.18848 345.998483 
L 99.08352 343.804966 
L 102.8736 343.804966 
L 104.76864 342.173889 
L 106.66368 335.593337 
L 108.55872 335.593337 
L 110.45376 332.331183 
L 112.3488 330.700106 
L 118.03392 330.700106 
L 119.92896 329.069029 
L 123.71904 329.069029 
L 125.61408 327.437952 
L 129.40416 327.437952 
L 133.19424 324.175798 
L 135.08928 321.982281 
L 138.87936 321.982281 
L 140.7744 320.351204 
L 144.56448 320.351204 
L 146.45952 318.157687 
L 148.35456 316.52661 
L 152.14464 316.52661 
L 154.03968 314.895533 
L 159.7248 314.895533 
L 161.61984 312.702016 
L 163.51488 312.702016 
L 167.30496 309.439862 
L 171.09504 309.439862 
L 172.99008 307.246345 
L 174.88512 307.246345 
L 176.78016 305.615268 
L 178.6752 305.615268 
L 180.57024 303.984191 
L 186.25536 303.984191 
L 191.94048 299.09096 
L 193.83552 299.09096 
L 197.6256 295.828806 
L 199.52064 292.004212 
L 201.41568 289.810695 
L 207.1008 289.810695 
L 208.99584 287.617178 
L 210.89088 287.617178 
L 214.68096 281.09287 
L 218.47104 281.09287 
L 220.36608 278.899353 
L 224.15616 278.899353 
L 226.0512 276.705836 
L 229.84128 273.443682 
L 231.73632 273.443682 
L 233.63136 269.619088 
L 235.5264 269.619088 
L 241.21152 264.725857 
L 243.10656 264.725857 
L 245.0016 262.53234 
L 246.89664 262.53234 
L 250.68672 259.270186 
L 252.58176 259.270186 
L 254.4768 257.639109 
L 262.05696 257.639109 
L 263.952 254.376955 
L 265.84704 252.745878 
L 267.74208 248.921284 
L 269.63712 248.921284 
L 271.53216 247.290207 
L 273.4272 243.465613 
L 275.32224 243.465613 
L 279.11232 240.203459 
L 284.79744 240.203459 
L 286.69248 236.378865 
L 296.16768 236.378865 
L 298.06272 234.185347 
L 299.95776 234.185347 
L 301.8528 230.923194 
L 305.64288 230.923194 
L 307.53792 228.729676 
L 309.43296 228.729676 
L 311.328 227.098599 
L 315.11808 227.098599 
L 317.01312 225.467523 
L 318.90816 221.642928 
L 320.8032 220.011851 
L 334.06848 220.011851 
L 337.85856 216.749698 
L 345.43872 216.749698 
L 347.33376 215.118621 
L 353.01888 215.118621 
L 354.91392 212.925103 
L 356.80896 211.294027 
L 358.704 209.100509 
L 360.59904 209.100509 
L 362.49408 204.207279 
L 370.07424 204.207279 
L 371.96928 202.013761 
L 375.75936 202.013761 
L 377.6544 196.55809 
L 379.54944 185.084308 
L 381.44448 185.084308 
L 383.33952 183.453231 
L 389.02464 183.453231 
L 390.91968 181.822154 
L 392.81472 181.822154 
L 394.70976 177.99756 
L 398.49984 177.99756 
L 400.39488 176.366483 
L 406.08 176.366483 
L 407.97504 174.172966 
L 411.76512 174.172966 
L 413.66016 170.910812 
L 417.45024 170.910812 
L 421.24032 166.523777 
L 423.13536 166.523777 
L 425.0304 164.8927 
L 426.92544 162.699183 
L 430.71552 162.699183 
L 432.61056 161.068106 
L 438.29568 161.068106 
L 440.19072 159.437029 
L 443.9808 159.437029 
L 445.87584 153.418918 
L 447.77088 149.594324 
L 457.24608 149.594324 
L 459.14112 147.400806 
L 468.61632 147.400806 
L 470.51136 143.576212 
L 485.67168 143.576212 
L 487.56672 141.382695 
L 508.41216 141.382695 
L 510.3072 139.189178 
L 512.20224 137.558101 
L 515.99232 137.558101 
L 517.88736 135.927024 
L 521.67744 135.927024 
L 523.57248 134.295947 
L 525.46752 132.10243 
L 531.15264 132.10243 
L 533.04768 129.908912 
L 536.83776 129.908912 
L 538.7328 127.715395 
L 542.52288 127.715395 
L 544.41792 126.084318 
L 559.57824 126.084318 
L 561.47328 124.453241 
L 580.42368 124.453241 
L 582.31872 122.259724 
L 586.1088 122.259724 
L 588.00384 120.066207 
L 608.84928 120.066207 
L 610.74432 117.87269 
L 622.11456 117.87269 
L 624.0096 115.679172 
L 631.58976 115.679172 
L 633.4848 113.485655 
L 635.37984 113.485655 
L 637.27488 111.292138 
L 642.96 111.292138 
L 642.96 111.292138 
" clip-path="url(#pecd407f079)" style="fill: none; stroke: #252525; stroke-width: 2.5; stroke-linecap: square"/>
   </g>
   <g id="line2d_28">
    <path d="M 74.448 348.192 
L 123.71904 348.192 
L 125.61408 345.998483 
L 133.19424 345.998483 
L 135.08928 343.804966 
L 136.98432 339.417931 
L 152.14464 339.417931 
L 154.03968 335.030897 
L 165.40992 335.030897 
L 167.30496 330.643862 
L 172.99008 330.643862 
L 174.88512 326.256828 
L 182.46528 326.256828 
L 184.36032 324.06331 
L 188.1504 324.06331 
L 190.04544 321.869793 
L 191.94048 321.869793 
L 193.83552 319.676276 
L 197.6256 319.676276 
L 201.41568 315.289241 
L 210.89088 315.289241 
L 214.68096 310.902207 
L 216.576 310.902207 
L 222.26112 304.321655 
L 248.79168 304.321655 
L 250.68672 302.128138 
L 252.58176 302.128138 
L 254.4768 299.934621 
L 263.952 299.934621 
L 265.84704 297.741103 
L 269.63712 297.741103 
L 271.53216 295.547586 
L 282.9024 295.547586 
L 284.79744 293.354069 
L 286.69248 293.354069 
L 288.58752 291.160552 
L 292.3776 291.160552 
L 294.27264 288.967034 
L 299.95776 288.967034 
L 301.8528 284.58 
L 307.53792 277.999448 
L 309.43296 274.174854 
L 315.11808 274.174854 
L 317.01312 269.78782 
L 318.90816 269.78782 
L 320.8032 267.594302 
L 345.43872 267.594302 
L 347.33376 265.400785 
L 354.91392 265.400785 
L 356.80896 261.013751 
L 358.704 258.820233 
L 381.44448 258.820233 
L 383.33952 256.626716 
L 385.23456 256.626716 
L 387.1296 252.239682 
L 389.02464 250.046164 
L 390.91968 250.046164 
L 392.81472 245.65913 
L 394.70976 241.834536 
L 396.6048 238.572382 
L 402.28992 238.572382 
L 406.08 235.310228 
L 409.87008 235.310228 
L 411.76512 233.116711 
L 413.66016 233.116711 
L 415.5552 230.923194 
L 419.34528 230.923194 
L 421.24032 228.729676 
L 426.92544 228.729676 
L 428.82048 226.536159 
L 436.40064 226.536159 
L 438.29568 224.905082 
L 443.9808 224.905082 
L 445.87584 223.274005 
L 449.66592 223.274005 
L 451.56096 221.642928 
L 453.456 221.642928 
L 455.35104 220.011851 
L 461.03616 220.011851 
L 462.9312 218.380775 
L 464.82624 213.99374 
L 468.61632 213.99374 
L 470.51136 212.362663 
L 481.8816 212.362663 
L 483.77664 209.100509 
L 485.67168 209.100509 
L 487.56672 206.906992 
L 489.46176 205.275915 
L 491.3568 203.082398 
L 493.25184 203.082398 
L 495.14688 199.820244 
L 497.04192 198.189167 
L 500.832 198.189167 
L 504.62208 194.927013 
L 510.3072 194.927013 
L 512.20224 193.295936 
L 517.88736 193.295936 
L 519.7824 191.664859 
L 531.15264 191.664859 
L 533.04768 190.033782 
L 542.52288 190.033782 
L 544.41792 188.402706 
L 546.31296 185.140552 
L 548.208 183.509475 
L 550.10304 183.509475 
L 555.78816 178.616244 
L 557.6832 178.616244 
L 559.57824 176.985167 
L 565.26336 176.985167 
L 567.1584 174.79165 
L 570.94848 174.79165 
L 576.6336 169.898419 
L 584.21376 169.898419 
L 588.00384 166.636265 
L 589.89888 166.636265 
L 591.79392 165.005188 
L 595.584 165.005188 
L 597.47904 163.374111 
L 601.26912 163.374111 
L 606.95424 158.480881 
L 612.63936 158.480881 
L 614.5344 156.849804 
L 620.21952 156.849804 
L 622.11456 155.218727 
L 627.79968 155.218727 
L 629.69472 153.58765 
L 631.58976 153.58765 
L 633.4848 151.956573 
L 641.06496 151.956573 
L 642.96 150.325496 
L 642.96 150.325496 
" clip-path="url(#pecd407f079)" style="fill: none; stroke: #3b83b4; stroke-width: 1.35; stroke-linecap: square"/>
   </g>
   <g id="line2d_29">
    <path d="M 74.448 348.192 
L 100.97856 348.192 
L 102.8736 345.998483 
L 106.66368 345.998483 
L 108.55872 344.367406 
L 114.24384 344.367406 
L 116.13888 341.105252 
L 118.03392 339.474175 
L 119.92896 336.212021 
L 121.824 331.31879 
L 123.71904 329.687714 
L 125.61408 329.687714 
L 127.50912 328.056637 
L 129.40416 324.794483 
L 131.2992 324.794483 
L 135.08928 321.532329 
L 140.7744 321.532329 
L 144.56448 315.008021 
L 146.45952 315.008021 
L 154.03968 308.483714 
L 155.93472 305.22156 
L 159.7248 301.959406 
L 161.61984 298.697252 
L 165.40992 298.697252 
L 167.30496 295.435098 
L 169.2 295.435098 
L 171.09504 293.804021 
L 174.88512 293.804021 
L 178.6752 290.541867 
L 180.57024 290.541867 
L 182.46528 288.91079 
L 184.36032 288.91079 
L 186.25536 284.01756 
L 191.94048 284.01756 
L 193.83552 280.192966 
L 195.73056 276.930812 
L 199.52064 276.930812 
L 201.41568 275.299735 
L 203.31072 275.299735 
L 205.20576 273.668658 
L 207.1008 273.668658 
L 210.89088 267.14435 
L 212.78592 267.14435 
L 214.68096 265.513273 
L 216.576 262.251119 
L 218.47104 260.620042 
L 220.36608 260.620042 
L 222.26112 257.357889 
L 226.0512 257.357889 
L 227.94624 254.095735 
L 229.84128 254.095735 
L 231.73632 252.464658 
L 233.63136 252.464658 
L 235.5264 250.833581 
L 243.10656 250.833581 
L 245.0016 249.202504 
L 248.79168 249.202504 
L 250.68672 245.94035 
L 256.37184 245.94035 
L 260.16192 242.678196 
L 262.05696 240.484679 
L 263.952 238.853602 
L 265.84704 238.853602 
L 269.63712 234.466568 
L 271.53216 230.079533 
L 273.4272 228.448456 
L 275.32224 228.448456 
L 281.00736 223.555225 
L 282.9024 221.361708 
L 284.79744 219.730631 
L 286.69248 219.730631 
L 288.58752 218.099554 
L 294.27264 218.099554 
L 296.16768 215.906037 
L 298.06272 215.906037 
L 299.95776 213.71252 
L 301.8528 212.081443 
L 307.53792 212.081443 
L 309.43296 210.450366 
L 311.328 210.450366 
L 313.22304 206.625772 
L 315.11808 206.625772 
L 317.01312 204.432255 
L 324.59328 204.432255 
L 326.48832 202.238737 
L 330.2784 202.238737 
L 332.17344 200.04522 
L 353.01888 200.04522 
L 356.80896 196.783066 
L 360.59904 196.783066 
L 362.49408 195.151989 
L 364.38912 192.958472 
L 366.28416 191.327395 
L 375.75936 191.327395 
L 377.6544 189.133878 
L 381.44448 189.133878 
L 383.33952 186.940361 
L 387.1296 186.940361 
L 389.02464 185.309284 
L 390.91968 183.115767 
L 394.70976 183.115767 
L 396.6048 181.48469 
L 423.13536 181.48469 
L 425.0304 179.291172 
L 440.19072 179.291172 
L 442.08576 177.097655 
L 459.14112 177.097655 
L 461.03616 174.904138 
L 462.9312 174.904138 
L 464.82624 172.710621 
L 483.77664 172.710621 
L 485.67168 170.517103 
L 508.41216 170.517103 
L 510.3072 168.323586 
L 512.20224 168.323586 
L 514.09728 163.936552 
L 525.46752 163.936552 
L 527.36256 161.743034 
L 534.94272 161.743034 
L 536.83776 159.549517 
L 540.62784 159.549517 
L 544.41792 155.162483 
L 561.47328 155.162483 
L 563.36832 152.968966 
L 572.84352 152.968966 
L 574.73856 150.775448 
L 576.6336 150.775448 
L 578.52864 148.581931 
L 584.21376 148.581931 
L 588.00384 144.194897 
L 601.26912 144.194897 
L 603.16416 142.001379 
L 614.5344 142.001379 
L 616.42944 139.807862 
L 627.79968 139.807862 
L 629.69472 137.614345 
L 637.27488 137.614345 
L 639.16992 135.420828 
L 642.96 135.420828 
L 642.96 135.420828 
" clip-path="url(#pecd407f079)" style="fill: none; stroke-dasharray: 4.995,2.16; stroke-dashoffset: 0; stroke: #c38a19; stroke-width: 1.35"/>
   </g>
   <g id="line2d_30">
    <path d="M 74.448 348.192 
L 87.71328 348.192 
L 89.60832 344.929846 
L 99.08352 344.929846 
L 100.97856 343.298769 
L 108.55872 343.298769 
L 110.45376 341.667692 
L 119.92896 341.667692 
L 121.824 340.036615 
L 125.61408 340.036615 
L 129.40416 333.512308 
L 131.2992 333.512308 
L 135.08928 326.988 
L 138.87936 326.988 
L 142.66944 323.725846 
L 144.56448 323.725846 
L 148.35456 320.463692 
L 152.14464 320.463692 
L 154.03968 318.832615 
L 155.93472 316.639098 
L 171.09504 303.590483 
L 172.99008 303.590483 
L 174.88512 301.396966 
L 176.78016 299.765889 
L 178.6752 299.765889 
L 180.57024 294.872658 
L 182.46528 288.854546 
L 184.36032 285.029952 
L 186.25536 285.029952 
L 188.1504 282.836435 
L 191.94048 282.836435 
L 193.83552 279.574281 
L 199.52064 274.68105 
L 201.41568 271.418897 
L 205.20576 271.418897 
L 207.1008 269.78782 
L 208.99584 267.594302 
L 210.89088 267.594302 
L 212.78592 265.400785 
L 214.68096 265.400785 
L 216.576 262.138631 
L 218.47104 259.945114 
L 220.36608 258.314037 
L 226.0512 258.314037 
L 227.94624 256.68296 
L 235.5264 256.68296 
L 241.21152 251.789729 
L 243.10656 245.771618 
L 250.68672 245.771618 
L 252.58176 244.140541 
L 254.4768 240.315947 
L 258.26688 240.315947 
L 260.16192 238.12243 
L 262.05696 238.12243 
L 263.952 236.491353 
L 277.21728 236.491353 
L 279.11232 231.598122 
L 281.00736 226.142451 
L 282.9024 223.948934 
L 290.48256 223.948934 
L 292.3776 222.317857 
L 294.27264 219.055703 
L 298.06272 215.793549 
L 299.95776 213.600032 
L 301.8528 211.968955 
L 303.74784 211.968955 
L 305.64288 208.144361 
L 313.22304 208.144361 
L 315.11808 206.513284 
L 320.8032 206.513284 
L 322.69824 204.319767 
L 326.48832 204.319767 
L 332.17344 199.426536 
L 339.7536 199.426536 
L 341.64864 195.601942 
L 347.33376 195.601942 
L 349.2288 193.970865 
L 353.01888 193.970865 
L 354.91392 192.339788 
L 356.80896 190.146271 
L 360.59904 190.146271 
L 362.49408 188.515194 
L 366.28416 188.515194 
L 368.1792 186.884117 
L 371.96928 186.884117 
L 373.86432 184.690599 
L 375.75936 184.690599 
L 377.6544 182.497082 
L 383.33952 182.497082 
L 385.23456 180.866005 
L 396.6048 180.866005 
L 398.49984 178.672488 
L 425.0304 178.672488 
L 426.92544 174.847894 
L 428.82048 174.847894 
L 432.61056 170.460859 
L 434.5056 168.829782 
L 438.29568 168.829782 
L 440.19072 167.198706 
L 442.08576 165.005188 
L 447.77088 165.005188 
L 449.66592 162.811671 
L 453.456 162.811671 
L 455.35104 160.618154 
L 459.14112 160.618154 
L 461.03616 158.987077 
L 472.4064 158.987077 
L 474.30144 156.79356 
L 476.19648 155.162483 
L 478.09152 155.162483 
L 479.98656 152.968966 
L 485.67168 152.968966 
L 487.56672 150.775448 
L 495.14688 150.775448 
L 497.04192 146.388414 
L 498.93696 144.194897 
L 515.99232 144.194897 
L 517.88736 142.001379 
L 531.15264 142.001379 
L 533.04768 139.807862 
L 540.62784 139.807862 
L 542.52288 137.614345 
L 550.10304 137.614345 
L 551.99808 135.420828 
L 569.05344 135.420828 
L 570.94848 133.22731 
L 584.21376 133.22731 
L 586.1088 131.033793 
L 603.16416 131.033793 
L 605.0592 128.840276 
L 612.63936 128.840276 
L 616.42944 124.453241 
L 642.96 124.453241 
L 642.96 124.453241 
" clip-path="url(#pecd407f079)" style="fill: none; stroke-dasharray: 1.35,2.2275; stroke-dashoffset: 0; stroke: #7d8a92; stroke-width: 1.35"/>
   </g>
   <g id="line2d_31">
    <path d="M 74.448 348.192 
L 142.66944 348.192 
L 144.56448 345.998483 
L 148.35456 345.998483 
L 150.2496 343.804966 
L 157.82976 343.804966 
L 161.61984 339.417931 
L 167.30496 339.417931 
L 169.2 337.224414 
L 171.09504 337.224414 
L 172.99008 335.030897 
L 174.88512 335.030897 
L 176.78016 332.837379 
L 182.46528 332.837379 
L 184.36032 330.643862 
L 188.1504 330.643862 
L 190.04544 328.450345 
L 195.73056 328.450345 
L 197.6256 326.256828 
L 199.52064 326.256828 
L 203.31072 321.869793 
L 207.1008 321.869793 
L 210.89088 317.482759 
L 220.36608 317.482759 
L 222.26112 315.289241 
L 227.94624 315.289241 
L 231.73632 310.902207 
L 235.5264 310.902207 
L 237.42144 308.70869 
L 239.31648 308.70869 
L 243.10656 304.321655 
L 248.79168 304.321655 
L 250.68672 302.128138 
L 277.21728 302.128138 
L 282.9024 295.547586 
L 294.27264 295.547586 
L 296.16768 293.354069 
L 299.95776 293.354069 
L 303.74784 288.967034 
L 305.64288 288.967034 
L 307.53792 285.14244 
L 311.328 285.14244 
L 313.22304 282.948923 
L 317.01312 282.948923 
L 320.8032 274.174854 
L 322.69824 274.174854 
L 324.59328 271.981337 
L 326.48832 271.981337 
L 328.38336 269.78782 
L 335.96352 269.78782 
L 337.85856 267.594302 
L 341.64864 267.594302 
L 343.54368 265.400785 
L 356.80896 265.400785 
L 360.59904 261.013751 
L 364.38912 261.013751 
L 366.28416 258.820233 
L 385.23456 258.820233 
L 389.02464 254.433199 
L 390.91968 250.046164 
L 394.70976 246.784011 
L 396.6048 244.590493 
L 398.49984 244.590493 
L 400.39488 242.396976 
L 404.18496 239.134822 
L 406.08 239.134822 
L 407.97504 236.941305 
L 409.87008 235.310228 
L 413.66016 235.310228 
L 415.5552 233.116711 
L 419.34528 233.116711 
L 421.24032 230.923194 
L 423.13536 230.923194 
L 425.0304 226.536159 
L 438.29568 226.536159 
L 440.19072 224.905082 
L 442.08576 224.905082 
L 443.9808 223.274005 
L 449.66592 223.274005 
L 451.56096 221.642928 
L 453.456 221.642928 
L 455.35104 218.380775 
L 468.61632 218.380775 
L 470.51136 214.55618 
L 472.4064 212.362663 
L 485.67168 212.362663 
L 487.56672 209.100509 
L 489.46176 209.100509 
L 491.3568 205.275915 
L 495.14688 205.275915 
L 500.832 200.382684 
L 502.72704 198.189167 
L 504.62208 198.189167 
L 508.41216 194.927013 
L 512.20224 194.927013 
L 514.09728 193.295936 
L 515.99232 193.295936 
L 517.88736 191.664859 
L 534.94272 191.664859 
L 536.83776 190.033782 
L 544.41792 190.033782 
L 546.31296 186.771629 
L 548.208 186.771629 
L 550.10304 183.509475 
L 553.89312 183.509475 
L 555.78816 181.878398 
L 557.6832 181.878398 
L 563.36832 176.985167 
L 567.1584 176.985167 
L 569.05344 174.79165 
L 574.73856 174.79165 
L 578.52864 171.529496 
L 580.42368 171.529496 
L 582.31872 169.898419 
L 588.00384 169.898419 
L 591.79392 166.636265 
L 595.584 166.636265 
L 597.47904 163.374111 
L 603.16416 163.374111 
L 605.0592 161.743034 
L 606.95424 161.743034 
L 608.84928 158.480881 
L 612.63936 158.480881 
L 614.5344 156.849804 
L 620.21952 156.849804 
L 622.11456 155.218727 
L 629.69472 155.218727 
L 631.58976 153.58765 
L 635.37984 153.58765 
L 637.27488 151.956573 
L 642.96 151.956573 
L 642.96 151.956573 
" clip-path="url(#pecd407f079)" style="fill: none; stroke-dasharray: 8.64,2.16,1.35,2.16; stroke-dashoffset: 0; stroke: #d0526a; stroke-width: 1.35"/>
   </g>
   <g id="line2d_32">
    <path d="M 74.448 348.192 
L 135.08928 348.192 
L 136.98432 345.998483 
L 146.45952 345.998483 
L 148.35456 343.804966 
L 152.14464 343.804966 
L 154.03968 341.611448 
L 163.51488 341.611448 
L 169.2 335.030897 
L 180.57024 335.030897 
L 182.46528 330.643862 
L 205.20576 330.643862 
L 207.1008 328.450345 
L 214.68096 328.450345 
L 216.576 326.256828 
L 220.36608 326.256828 
L 222.26112 324.06331 
L 227.94624 324.06331 
L 229.84128 321.869793 
L 239.31648 321.869793 
L 241.21152 319.676276 
L 248.79168 319.676276 
L 250.68672 315.289241 
L 252.58176 315.289241 
L 254.4768 313.095724 
L 256.37184 313.095724 
L 258.26688 310.902207 
L 260.16192 310.902207 
L 263.952 302.128138 
L 271.53216 302.128138 
L 273.4272 299.934621 
L 277.21728 299.934621 
L 279.11232 297.741103 
L 284.79744 297.741103 
L 286.69248 295.547586 
L 292.3776 295.547586 
L 294.27264 293.354069 
L 298.06272 293.354069 
L 301.8528 288.967034 
L 303.74784 288.967034 
L 305.64288 286.773517 
L 320.8032 286.773517 
L 322.69824 282.386483 
L 324.59328 280.192966 
L 332.17344 280.192966 
L 334.06848 277.999448 
L 337.85856 277.999448 
L 339.7536 275.805931 
L 343.54368 275.805931 
L 347.33376 271.418897 
L 368.1792 271.418897 
L 370.07424 269.225379 
L 375.75936 269.225379 
L 377.6544 267.031862 
L 392.81472 267.031862 
L 394.70976 264.838345 
L 402.28992 264.838345 
L 404.18496 262.644828 
L 411.76512 262.644828 
L 413.66016 260.45131 
L 462.9312 260.45131 
L 464.82624 258.257793 
L 472.4064 258.257793 
L 474.30144 254.433199 
L 483.77664 254.433199 
L 487.56672 250.046164 
L 491.3568 250.046164 
L 495.14688 245.65913 
L 506.51712 245.65913 
L 508.41216 243.465613 
L 510.3072 243.465613 
L 512.20224 241.272095 
L 521.67744 241.272095 
L 525.46752 236.885061 
L 527.36256 236.885061 
L 529.2576 233.060467 
L 531.15264 233.060467 
L 534.94272 228.673432 
L 536.83776 227.042355 
L 546.31296 227.042355 
L 548.208 225.411279 
L 553.89312 225.411279 
L 555.78816 222.149125 
L 570.94848 222.149125 
L 572.84352 219.955607 
L 578.52864 219.955607 
L 580.42368 218.324531 
L 586.1088 218.324531 
L 588.00384 216.131013 
L 591.79392 216.131013 
L 593.68896 210.675342 
L 595.584 210.675342 
L 597.47904 207.413188 
L 608.84928 207.413188 
L 610.74432 204.151034 
L 618.32448 204.151034 
L 620.21952 200.888881 
L 624.0096 200.888881 
L 625.90464 197.626727 
L 627.79968 197.626727 
L 629.69472 195.99565 
L 631.58976 195.99565 
L 633.4848 192.733496 
L 641.06496 192.733496 
L 642.96 191.102419 
L 642.96 191.102419 
" clip-path="url(#pecd407f079)" style="fill: none; stroke-dasharray: 6.75,2.7,1.35,2.7; stroke-dashoffset: 0; stroke: #2f8f84; stroke-width: 1.35"/>
   </g>
   <g id="patch_4">
    <path d="M 74.448 348.192 
L 74.448 93.744 
" style="fill: none; stroke: #000000; stroke-width: 0.8; stroke-linejoin: miter; stroke-linecap: square"/>
   </g>
   <g id="patch_5">
    <path d="M 74.448 348.192 
L 642.96 348.192 
" style="fill: none; stroke: #000000; stroke-width: 0.8; stroke-linejoin: miter; stroke-linecap: square"/>
   </g>
  </g>
  <g id="text_16">
   <text style="font: 18px 'DejaVu Sans', 'Bitstream Vera Sans', 'Computer Modern Sans Serif', 'Lucida Grande', 'Verdana', 'Geneva', 'Lucid', 'Arial', 'Helvetica', 'Avant Garde', sans-serif; text-anchor: start" x="74.448" y="38.229188" transform="rotate(-0 74.448 38.229188)">LED-RGB1 Direct</text>
  </g>
  <g id="text_17">
   <text style="fill: #66747c; font: 10px 'DejaVu Sans', 'Bitstream Vera Sans', 'Computer Modern Sans Serif', 'Lucida Grande', 'Verdana', 'Geneva', 'Lucid', 'Arial', 'Helvetica', 'Avant Garde', sans-serif; text-anchor: start" x="74.448" y="64.728" transform="rotate(-0 74.448 64.728)">WOLED</text>
  </g>
  <g id="legend_1">
   <g id="line2d_33">
    <path d="M 185.17875 404.151391 
L 194.27875 404.151391 
L 203.37875 404.151391 
" style="fill: none; stroke: #252525; stroke-width: 2.5; stroke-linecap: square"/>
   </g>
   <g id="text_18">
    <text style="font: 9.1px 'DejaVu Sans', 'Bitstream Vera Sans', 'Computer Modern Sans Serif', 'Lucida Grande', 'Verdana', 'Geneva', 'Lucid', 'Arial', 'Helvetica', 'Avant Garde', sans-serif; text-anchor: start" x="210.65875" y="407.336391" transform="rotate(-0 210.65875 407.336391)">Potera CMF</text>
   </g>
   <g id="line2d_34">
    <path d="M 185.17875 417.508484 
L 194.27875 417.508484 
L 203.37875 417.508484 
" style="fill: none; stroke: #3b83b4; stroke-width: 1.35; stroke-linecap: square"/>
   </g>
   <g id="text_19">
    <text style="font: 9.1px 'DejaVu Sans', 'Bitstream Vera Sans', 'Computer Modern Sans Serif', 'Lucida Grande', 'Verdana', 'Geneva', 'Lucid', 'Arial', 'Helvetica', 'Avant Garde', sans-serif; text-anchor: start" x="210.65875" y="420.693484" transform="rotate(-0 210.65875 420.693484)">CIE 2015 2°</text>
   </g>
   <g id="line2d_35">
    <path d="M 282.931234 404.151391 
L 292.031234 404.151391 
L 301.131234 404.151391 
" style="fill: none; stroke-dasharray: 4.995,2.16; stroke-dashoffset: 0; stroke: #c38a19; stroke-width: 1.35"/>
   </g>
   <g id="text_20">
    <text style="font: 9.1px 'DejaVu Sans', 'Bitstream Vera Sans', 'Computer Modern Sans Serif', 'Lucida Grande', 'Verdana', 'Geneva', 'Lucid', 'Arial', 'Helvetica', 'Avant Garde', sans-serif; text-anchor: start" x="308.411234" y="407.336391" transform="rotate(-0 308.411234 407.336391)">CIE 2015 10°</text>
   </g>
   <g id="line2d_36">
    <path d="M 282.931234 417.508484 
L 292.031234 417.508484 
L 301.131234 417.508484 
" style="fill: none; stroke-dasharray: 1.35,2.2275; stroke-dashoffset: 0; stroke: #7d8a92; stroke-width: 1.35"/>
   </g>
   <g id="text_21">
    <text style="font: 9.1px 'DejaVu Sans', 'Bitstream Vera Sans', 'Computer Modern Sans Serif', 'Lucida Grande', 'Verdana', 'Geneva', 'Lucid', 'Arial', 'Helvetica', 'Avant Garde', sans-serif; text-anchor: start" x="308.411234" y="420.693484" transform="rotate(-0 308.411234 420.693484)">CIE 1964 10°</text>
   </g>
   <g id="line2d_37">
    <path d="M 386.473594 404.151391 
L 395.573594 404.151391 
L 404.673594 404.151391 
" style="fill: none; stroke-dasharray: 8.64,2.16,1.35,2.16; stroke-dashoffset: 0; stroke: #d0526a; stroke-width: 1.35"/>
   </g>
   <g id="text_22">
    <text style="font: 9.1px 'DejaVu Sans', 'Bitstream Vera Sans', 'Computer Modern Sans Serif', 'Lucida Grande', 'Verdana', 'Geneva', 'Lucid', 'Arial', 'Helvetica', 'Avant Garde', sans-serif; text-anchor: start" x="411.953594" y="407.336391" transform="rotate(-0 411.953594 407.336391)">CIE 1931 2°</text>
   </g>
   <g id="line2d_38">
    <path d="M 386.473594 417.508484 
L 395.573594 417.508484 
L 404.673594 417.508484 
" style="fill: none; stroke-dasharray: 6.75,2.7,1.35,2.7; stroke-dashoffset: 0; stroke: #2f8f84; stroke-width: 1.35"/>
   </g>
   <g id="text_23">
    <text style="font: 9.1px 'DejaVu Sans', 'Bitstream Vera Sans', 'Computer Modern Sans Serif', 'Lucida Grande', 'Verdana', 'Geneva', 'Lucid', 'Arial', 'Helvetica', 'Avant Garde', sans-serif; text-anchor: start" x="411.953594" y="420.693484" transform="rotate(-0 411.953594 420.693484)">Judd–Vos 1978 2°</text>
   </g>
  </g>
 </g>
 <defs>
  <clipPath id="pecd407f079">
   <rect x="74.448" y="93.744" width="568.512" height="254.448"/>
  </clipPath>
 </defs>
</svg>
