<?xml version="1.0" encoding="utf-8" standalone="no"?>
<!DOCTYPE svg PUBLIC "-//W3C//DTD SVG 1.1//EN"
  "http://www.w3.org/Graphics/SVG/1.1/DTD/svg11.dtd">
<svg xmlns:xlink="http://www.w3.org/1999/xlink" width="676.8pt" height="446.4pt" viewBox="0 0 676.8 446.4" xmlns="http://www.w3.org/2000/svg" version="1.1">
 <metadata>
  <rdf:RDF xmlns:dc="http://purl.org/dc/elements/1.1/" xmlns:cc="http://creativecommons.org/ns#" xmlns:rdf="http://www.w3.org/1999/02/22-rdf-syntax-ns#">
   <cc:Work>
    <dc:type rdf:resource="http://purl.org/dc/dcmitype/StillImage"/>
    <dc:date>2026-07-20T06:42:00.538624</dc:date>
    <dc:format>image/svg+xml</dc:format>
    <dc:creator>
     <cc:Agent>
      <dc:title>Matplotlib v3.9.4, https://matplotlib.org/</dc:title>
     </cc:Agent>
    </dc:creator>
   </cc:Work>
  </rdf:RDF>
 </metadata>
 <defs>
  <style type="text/css">*{stroke-linejoin: round; stroke-linecap: butt}</style>
 </defs>
 <g id="figure_1">
  <g id="patch_1">
   <path d="M 0 446.4 
L 676.8 446.4 
L 676.8 0 
L 0 0 
z
" style="fill: #ffffff"/>
  </g>
  <g id="axes_1">
   <g id="patch_2">
    <path d="M 74.448 348.192 
L 642.96 348.192 
L 642.96 93.744 
L 74.448 93.744 
z
" style="fill: #ffffff"/>
   </g>
   <g id="patch_3">
    <path d="M 169.2 348.192 
L 358.704 348.192 
L 358.704 93.744 
L 169.2 93.744 
z
" clip-path="url(#p902d961cb1)" style="fill: #e7f0ea; opacity: 0.58; stroke: #e7f0ea; stroke-linejoin: miter"/>
   </g>
   <g id="matplotlib.axis_1">
    <g id="xtick_1">
     <g id="line2d_1">
      <path d="M 74.448 348.192 
L 74.448 93.744 
" clip-path="url(#p902d961cb1)" style="fill: none; stroke: #dfe5e8; stroke-width: 0.65; stroke-linecap: square"/>
     </g>
     <g id="line2d_2">
      <defs>
       <path id="m3b888600a9" d="M 0 0 
L 0 3.5 
" style="stroke: #000000; stroke-width: 0.8"/>
      </defs>
      <g>
       <use xlink:href="#m3b888600a9" x="74.448" y="348.192" style="stroke: #000000; stroke-width: 0.8"/>
      </g>
     </g>
     <g id="text_1">
      <text style="font: 10px 'DejaVu Sans', 'Bitstream Vera Sans', 'Computer Modern Sans Serif', 'Lucida Grande', 'Verdana', 'Geneva', 'Lucid', 'Arial', 'Helvetica', 'Avant Garde', sans-serif; text-anchor: middle" x="74.448" y="362.790438" transform="rotate(-0 74.448 362.790438)">0</text>
     </g>
    </g>
    <g id="xtick_2">
     <g id="line2d_3">
      <path d="M 169.2 348.192 
L 169.2 93.744 
" clip-path="url(#p902d961cb1)" style="fill: none; stroke: #dfe5e8; stroke-width: 0.65; stroke-linecap: square"/>
     </g>
     <g id="line2d_4">
      <g>
       <use xlink:href="#m3b888600a9" x="169.2" y="348.192" style="stroke: #000000; stroke-width: 0.8"/>
      </g>
     </g>
     <g id="text_2">
      <text style="font: 10px 'DejaVu Sans', 'Bitstream Vera Sans', 'Computer Modern Sans Serif', 'Lucida Grande', 'Verdana', 'Geneva', 'Lucid', 'Arial', 'Helvetica', 'Avant Garde', sans-serif; text-anchor: middle" x="169.2" y="362.790438" transform="rotate(-0 169.2 362.790438)">1</text>
     </g>
    </g>
    <g id="xtick_3">
     <g id="line2d_5">
      <path d="M 263.952 348.192 
L 263.952 93.744 
" clip-path="url(#p902d961cb1)" style="fill: none; stroke: #dfe5e8; stroke-width: 0.65; stroke-linecap: square"/>
     </g>
     <g id="line2d_6">
      <g>
       <use xlink:href="#m3b888600a9" x="263.952" y="348.192" style="stroke: #000000; stroke-width: 0.8"/>
      </g>
     </g>
     <g id="text_3">
      <text style="font: 10px 'DejaVu Sans', 'Bitstream Vera Sans', 'Computer Modern Sans Serif', 'Lucida Grande', 'Verdana', 'Geneva', 'Lucid', 'Arial', 'Helvetica', 'Avant Garde', sans-serif; text-anchor: middle" x="263.952" y="362.790438" transform="rotate(-0 263.952 362.790438)">2</text>
     </g>
    </g>
    <g id="xtick_4">
     <g id="line2d_7">
      <path d="M 358.704 348.192 
L 358.704 93.744 
" clip-path="url(#p902d961cb1)" style="fill: none; stroke: #dfe5e8; stroke-width: 0.65; stroke-linecap: square"/>
     </g>
     <g id="line2d_8">
      <g>
       <use xlink:href="#m3b888600a9" x="358.704" y="348.192" style="stroke: #000000; stroke-width: 0.8"/>
      </g>
     </g>
     <g id="text_4">
      <text style="font: 10px 'DejaVu Sans', 'Bitstream Vera Sans', 'Computer Modern Sans Serif', 'Lucida Grande', 'Verdana', 'Geneva', 'Lucid', 'Arial', 'Helvetica', 'Avant Garde', sans-serif; text-anchor: middle" x="358.704" y="362.790438" transform="rotate(-0 358.704 362.790438)">3</text>
     </g>
    </g>
    <g id="xtick_5">
     <g id="line2d_9">
      <path d="M 453.456 348.192 
L 453.456 93.744 
" clip-path="url(#p902d961cb1)" style="fill: none; stroke: #dfe5e8; stroke-width: 0.65; stroke-linecap: square"/>
     </g>
     <g id="line2d_10">
      <g>
       <use xlink:href="#m3b888600a9" x="453.456" y="348.192" style="stroke: #000000; stroke-width: 0.8"/>
      </g>
     </g>
     <g id="text_5">
      <text style="font: 10px 'DejaVu Sans', 'Bitstream Vera Sans', 'Computer Modern Sans Serif', 'Lucida Grande', 'Verdana', 'Geneva', 'Lucid', 'Arial', 'Helvetica', 'Avant Garde', sans-serif; text-anchor: middle" x="453.456" y="362.790438" transform="rotate(-0 453.456 362.790438)">4</text>
     </g>
    </g>
    <g id="xtick_6">
     <g id="line2d_11">
      <path d="M 548.208 348.192 
L 548.208 93.744 
" clip-path="url(#p902d961cb1)" style="fill: none; stroke: #dfe5e8; stroke-width: 0.65; stroke-linecap: square"/>
     </g>
     <g id="line2d_12">
      <g>
       <use xlink:href="#m3b888600a9" x="548.208" y="348.192" style="stroke: #000000; stroke-width: 0.8"/>
      </g>
     </g>
     <g id="text_6">
      <text style="font: 10px 'DejaVu Sans', 'Bitstream Vera Sans', 'Computer Modern Sans Serif', 'Lucida Grande', 'Verdana', 'Geneva', 'Lucid', 'Arial', 'Helvetica', 'Avant Garde', sans-serif; text-anchor: middle" x="548.208" y="362.790438" transform="rotate(-0 548.208 362.790438)">5</text>
     </g>
    </g>
    <g id="xtick_7">
     <g id="line2d_13">
      <path d="M 642.96 348.192 
L 642.96 93.744 
" clip-path="url(#p902d961cb1)" style="fill: none; stroke: #dfe5e8; stroke-width: 0.65; stroke-linecap: square"/>
     </g>
     <g id="line2d_14">
      <g>
       <use xlink:href="#m3b888600a9" x="642.96" y="348.192" style="stroke: #000000; stroke-width: 0.8"/>
      </g>
     </g>
     <g id="text_7">
      <text style="font: 10px 'DejaVu Sans', 'Bitstream Vera Sans', 'Computer Modern Sans Serif', 'Lucida Grande', 'Verdana', 'Geneva', 'Lucid', 'Arial', 'Helvetica', 'Avant Garde', sans-serif; text-anchor: middle" x="642.96" y="362.790438" transform="rotate(-0 642.96 362.790438)">6</text>
     </g>
    </g>
    <g id="text_8">
     <text style="font: 10px 'DejaVu Sans', 'Bitstream Vera Sans', 'Computer Modern Sans Serif', 'Lucida Grande', 'Verdana', 'Geneva', 'Lucid', 'Arial', 'Helvetica', 'Avant Garde', sans-serif; text-anchor: middle" x="358.704" y="376.468563" transform="rotate(-0 358.704 376.468563)">sUCS dE threshold</text>
    </g>
   </g>
   <g id="matplotlib.axis_2">
    <g id="ytick_1">
     <g id="line2d_15">
      <path d="M 74.448 348.192 
L 642.96 348.192 
" clip-path="url(#p902d961cb1)" style="fill: none; stroke: #dfe5e8; stroke-width: 0.65; stroke-linecap: square"/>
     </g>
     <g id="line2d_16">
      <defs>
       <path id="m03f3458377" d="M 0 0 
L -3.5 0 
" style="stroke: #000000; stroke-width: 0.8"/>
      </defs>
      <g>
       <use xlink:href="#m03f3458377" x="74.448" y="348.192" style="stroke: #000000; stroke-width: 0.8"/>
      </g>
     </g>
     <g id="text_9">
      <text style="font: 10px 'DejaVu Sans', 'Bitstream Vera Sans', 'Computer Modern Sans Serif', 'Lucida Grande', 'Verdana', 'Geneva', 'Lucid', 'Arial', 'Helvetica', 'Avant Garde', sans-serif; text-anchor: end" x="67.448" y="351.991219" transform="rotate(-0 67.448 351.991219)">0</text>
     </g>
    </g>
    <g id="ytick_2">
     <g id="line2d_17">
      <path d="M 74.448 297.3024 
L 642.96 297.3024 
" clip-path="url(#p902d961cb1)" style="fill: none; stroke: #dfe5e8; stroke-width: 0.65; stroke-linecap: square"/>
     </g>
     <g id="line2d_18">
      <g>
       <use xlink:href="#m03f3458377" x="74.448" y="297.3024" style="stroke: #000000; stroke-width: 0.8"/>
      </g>
     </g>
     <g id="text_10">
      <text style="font: 10px 'DejaVu Sans', 'Bitstream Vera Sans', 'Computer Modern Sans Serif', 'Lucida Grande', 'Verdana', 'Geneva', 'Lucid', 'Arial', 'Helvetica', 'Avant Garde', sans-serif; text-anchor: end" x="67.448" y="301.101619" transform="rotate(-0 67.448 301.101619)">20</text>
     </g>
    </g>
    <g id="ytick_3">
     <g id="line2d_19">
      <path d="M 74.448 246.4128 
L 642.96 246.4128 
" clip-path="url(#p902d961cb1)" style="fill: none; stroke: #dfe5e8; stroke-width: 0.65; stroke-linecap: square"/>
     </g>
     <g id="line2d_20">
      <g>
       <use xlink:href="#m03f3458377" x="74.448" y="246.4128" style="stroke: #000000; stroke-width: 0.8"/>
      </g>
     </g>
     <g id="text_11">
      <text style="font: 10px 'DejaVu Sans', 'Bitstream Vera Sans', 'Computer Modern Sans Serif', 'Lucida Grande', 'Verdana', 'Geneva', 'Lucid', 'Arial', 'Helvetica', 'Avant Garde', sans-serif; text-anchor: end" x="67.448" y="250.212019" transform="rotate(-0 67.448 250.212019)">40</text>
     </g>
    </g>
    <g id="ytick_4">
     <g id="line2d_21">
      <path d="M 74.448 195.5232 
L 642.96 195.5232 
" clip-path="url(#p902d961cb1)" style="fill: none; stroke: #dfe5e8; stroke-width: 0.65; stroke-linecap: square"/>
     </g>
     <g id="line2d_22">
      <g>
       <use xlink:href="#m03f3458377" x="74.448" y="195.5232" style="stroke: #000000; stroke-width: 0.8"/>
      </g>
     </g>
     <g id="text_12">
      <text style="font: 10px 'DejaVu Sans', 'Bitstream Vera Sans', 'Computer Modern Sans Serif', 'Lucida Grande', 'Verdana', 'Geneva', 'Lucid', 'Arial', 'Helvetica', 'Avant Garde', sans-serif; text-anchor: end" x="67.448" y="199.322419" transform="rotate(-0 67.448 199.322419)">60</text>
     </g>
    </g>
    <g id="ytick_5">
     <g id="line2d_23">
      <path d="M 74.448 144.6336 
L 642.96 144.6336 
" clip-path="url(#p902d961cb1)" style="fill: none; stroke: #dfe5e8; stroke-width: 0.65; stroke-linecap: square"/>
     </g>
     <g id="line2d_24">
      <g>
       <use xlink:href="#m03f3458377" x="74.448" y="144.6336" style="stroke: #000000; stroke-width: 0.8"/>
      </g>
     </g>
     <g id="text_13">
      <text style="font: 10px 'DejaVu Sans', 'Bitstream Vera Sans', 'Computer Modern Sans Serif', 'Lucida Grande', 'Verdana', 'Geneva', 'Lucid', 'Arial', 'Helvetica', 'Avant Garde', sans-serif; text-anchor: end" x="67.448" y="148.432819" transform="rotate(-0 67.448 148.432819)">80</text>
     </g>
    </g>
    <g id="ytick_6">
     <g id="line2d_25">
      <path d="M 74.448 93.744 
L 642.96 93.744 
" clip-path="url(#p902d961cb1)" style="fill: none; stroke: #dfe5e8; stroke-width: 0.65; stroke-linecap: square"/>
     </g>
     <g id="line2d_26">
      <g>
       <use xlink:href="#m03f3458377" x="74.448" y="93.744" style="stroke: #000000; stroke-width: 0.8"/>
      </g>
     </g>
     <g id="text_14">
      <text style="font: 10px 'DejaVu Sans', 'Bitstream Vera Sans', 'Computer Modern Sans Serif', 'Lucida Grande', 'Verdana', 'Geneva', 'Lucid', 'Arial', 'Helvetica', 'Avant Garde', sans-serif; text-anchor: end" x="67.448" y="97.543219" transform="rotate(-0 67.448 97.543219)">100</text>
     </g>
    </g>
    <g id="text_15">
     <text style="font: 10px 'DejaVu Sans', 'Bitstream Vera Sans', 'Computer Modern Sans Serif', 'Lucida Grande', 'Verdana', 'Geneva', 'Lucid', 'Arial', 'Helvetica', 'Avant Garde', sans-serif; text-anchor: middle" x="42.280812" y="220.968" transform="rotate(-90 42.280812 220.968)">observers%</text>
    </g>
   </g>
   <g id="line2d_27">
    <path d="M 74.448 348.192 
L 97.18848 348.192 
L 99.08352 346.560923 
L 108.55872 346.560923 
L 110.45376 344.929846 
L 114.24384 344.929846 
L 119.92896 340.036615 
L 133.19424 340.036615 
L 142.66944 331.881231 
L 144.56448 326.42556 
L 146.45952 326.42556 
L 150.2496 323.163406 
L 152.14464 319.901252 
L 154.03968 316.076658 
L 155.93472 316.076658 
L 159.7248 312.814504 
L 161.61984 310.620987 
L 163.51488 310.620987 
L 165.40992 308.98991 
L 167.30496 308.98991 
L 169.2 303.534239 
L 171.09504 295.88505 
L 178.6752 295.88505 
L 180.57024 294.253973 
L 184.36032 294.253973 
L 186.25536 290.429379 
L 188.1504 288.798302 
L 190.04544 284.973708 
L 197.6256 284.973708 
L 199.52064 281.149114 
L 203.31072 281.149114 
L 205.20576 279.518037 
L 210.89088 279.518037 
L 212.78592 275.693443 
L 214.68096 274.062366 
L 216.576 268.044255 
L 224.15616 268.044255 
L 226.0512 262.588584 
L 227.94624 259.32643 
L 229.84128 259.32643 
L 231.73632 257.695353 
L 233.63136 252.239682 
L 235.5264 252.239682 
L 237.42144 248.415088 
L 239.31648 248.415088 
L 241.21152 241.32834 
L 246.89664 241.32834 
L 248.79168 234.241592 
L 250.68672 234.241592 
L 252.58176 229.854557 
L 254.4768 227.66104 
L 256.37184 227.66104 
L 258.26688 222.767809 
L 260.16192 219.505655 
L 262.05696 215.681061 
L 265.84704 215.681061 
L 267.74208 214.049984 
L 269.63712 210.22539 
L 275.32224 210.22539 
L 277.21728 208.031873 
L 281.00736 208.031873 
L 282.9024 204.207279 
L 286.69248 204.207279 
L 292.3776 199.314048 
L 294.27264 199.314048 
L 296.16768 195.489454 
L 298.06272 193.858377 
L 303.74784 193.858377 
L 305.64288 192.2273 
L 307.53792 188.965146 
L 309.43296 188.965146 
L 311.328 186.771629 
L 318.90816 186.771629 
L 320.8032 181.315958 
L 324.59328 181.315958 
L 326.48832 177.491363 
L 328.38336 172.035692 
L 332.17344 172.035692 
L 334.06848 169.842175 
L 341.64864 169.842175 
L 343.54368 168.211098 
L 347.33376 168.211098 
L 349.2288 166.017581 
L 354.91392 166.017581 
L 356.80896 162.192987 
L 358.704 159.999469 
L 362.49408 159.999469 
L 368.1792 153.418918 
L 373.86432 153.418918 
L 375.75936 151.225401 
L 377.6544 151.225401 
L 379.54944 149.031883 
L 381.44448 149.031883 
L 383.33952 147.400806 
L 385.23456 147.400806 
L 387.1296 145.207289 
L 398.49984 145.207289 
L 400.39488 143.013772 
L 402.28992 141.382695 
L 406.08 141.382695 
L 407.97504 139.189178 
L 423.13536 139.189178 
L 425.0304 136.99566 
L 432.61056 136.99566 
L 434.5056 134.802143 
L 440.19072 134.802143 
L 442.08576 132.608626 
L 449.66592 132.608626 
L 451.56096 130.415109 
L 459.14112 130.415109 
L 461.03616 128.221592 
L 464.82624 128.221592 
L 466.72128 126.028074 
L 472.4064 126.028074 
L 476.19648 121.64104 
L 485.67168 121.64104 
L 487.56672 119.447523 
L 495.14688 119.447523 
L 497.04192 117.816446 
L 502.72704 117.816446 
L 504.62208 116.185369 
L 512.20224 116.185369 
L 514.09728 113.991851 
L 517.88736 113.991851 
L 519.7824 111.798334 
L 521.67744 110.167257 
L 523.57248 107.97374 
L 527.36256 107.97374 
L 529.2576 106.342663 
L 540.62784 106.342663 
L 542.52288 104.149146 
L 555.78816 104.149146 
L 557.6832 101.955629 
L 561.47328 101.955629 
L 563.36832 99.762111 
L 601.26912 99.762111 
L 603.16416 98.131034 
L 642.96 98.131034 
L 642.96 98.131034 
" clip-path="url(#p902d961cb1)" style="fill: none; stroke: #252525; stroke-width: 2.5; stroke-linecap: square"/>
   </g>
   <g id="line2d_28">
    <path d="M 74.448 348.192 
L 91.50336 348.192 
L 93.3984 345.998483 
L 110.45376 345.998483 
L 112.3488 343.804966 
L 118.03392 343.804966 
L 121.824 339.417931 
L 135.08928 339.417931 
L 136.98432 335.593337 
L 138.87936 333.96226 
L 142.66944 333.96226 
L 144.56448 331.768743 
L 148.35456 331.768743 
L 150.2496 329.575225 
L 159.7248 329.575225 
L 161.61984 327.381708 
L 167.30496 327.381708 
L 171.09504 322.994674 
L 190.04544 322.994674 
L 191.94048 320.801156 
L 195.73056 317.539003 
L 197.6256 313.714408 
L 199.52064 313.714408 
L 201.41568 312.083332 
L 203.31072 312.083332 
L 205.20576 310.452255 
L 208.99584 310.452255 
L 210.89088 308.258737 
L 212.78592 308.258737 
L 214.68096 304.434143 
L 220.36608 304.434143 
L 222.26112 300.609549 
L 224.15616 300.609549 
L 227.94624 291.83548 
L 229.84128 289.641963 
L 233.63136 289.641963 
L 237.42144 286.379809 
L 239.31648 286.379809 
L 241.21152 284.186292 
L 245.0016 276.537103 
L 246.89664 274.343586 
L 248.79168 268.887915 
L 252.58176 268.887915 
L 254.4768 266.694398 
L 258.26688 263.432244 
L 260.16192 257.976573 
L 262.05696 251.958462 
L 263.952 250.327385 
L 269.63712 250.327385 
L 271.53216 247.065231 
L 273.4272 244.871714 
L 275.32224 241.60956 
L 277.21728 239.978483 
L 279.11232 235.591448 
L 281.00736 233.960371 
L 282.9024 231.766854 
L 284.79744 230.135777 
L 286.69248 227.94226 
L 288.58752 226.311183 
L 290.48256 224.117666 
L 292.3776 222.486589 
L 294.27264 222.486589 
L 298.06272 219.224435 
L 299.95776 219.224435 
L 301.8528 217.593358 
L 303.74784 213.768764 
L 307.53792 213.768764 
L 309.43296 212.137687 
L 311.328 207.244456 
L 313.22304 201.788785 
L 315.11808 197.401751 
L 317.01312 195.770674 
L 318.90816 195.770674 
L 320.8032 193.577156 
L 324.59328 193.577156 
L 328.38336 190.315003 
L 334.06848 190.315003 
L 335.96352 188.683926 
L 341.64864 188.683926 
L 343.54368 187.052849 
L 345.43872 182.159618 
L 347.33376 178.335024 
L 349.2288 178.335024 
L 351.12384 176.703947 
L 360.59904 176.703947 
L 362.49408 172.879353 
L 364.38912 170.685836 
L 370.07424 170.685836 
L 373.86432 163.036647 
L 375.75936 160.84313 
L 377.6544 155.949899 
L 381.44448 155.949899 
L 383.33952 152.687745 
L 385.23456 147.232074 
L 387.1296 147.232074 
L 389.02464 143.40748 
L 390.91968 141.776403 
L 396.6048 141.776403 
L 398.49984 139.582886 
L 400.39488 137.951809 
L 402.28992 137.951809 
L 407.97504 133.058578 
L 413.66016 133.058578 
L 415.5552 131.427501 
L 419.34528 131.427501 
L 421.24032 129.233984 
L 432.61056 129.233984 
L 434.5056 127.040467 
L 438.29568 127.040467 
L 440.19072 125.40939 
L 447.77088 125.40939 
L 449.66592 123.778313 
L 455.35104 123.778313 
L 457.24608 122.147236 
L 462.9312 122.147236 
L 464.82624 118.322642 
L 466.72128 118.322642 
L 468.61632 116.691565 
L 474.30144 116.691565 
L 478.09152 113.429411 
L 479.98656 113.429411 
L 481.8816 111.235894 
L 489.46176 111.235894 
L 491.3568 109.604817 
L 493.25184 107.4113 
L 502.72704 107.4113 
L 504.62208 105.780223 
L 551.99808 105.780223 
L 553.89312 104.149146 
L 576.6336 104.149146 
L 578.52864 101.955629 
L 595.584 101.955629 
L 597.47904 99.762111 
L 625.90464 99.762111 
L 627.79968 98.131034 
L 642.96 98.131034 
L 642.96 98.131034 
" clip-path="url(#p902d961cb1)" style="fill: none; stroke: #3b83b4; stroke-width: 1.35; stroke-linecap: square"/>
   </g>
   <g id="line2d_29">
    <path d="M 74.448 348.192 
L 85.81824 348.192 
L 87.71328 346.560923 
L 95.29344 346.560923 
L 99.08352 343.298769 
L 112.3488 343.298769 
L 114.24384 341.667692 
L 116.13888 341.667692 
L 118.03392 340.036615 
L 119.92896 337.843098 
L 121.824 337.843098 
L 123.71904 334.580944 
L 129.40416 334.580944 
L 131.2992 329.687714 
L 138.87936 329.687714 
L 140.7744 326.42556 
L 142.66944 326.42556 
L 144.56448 324.232042 
L 148.35456 320.969889 
L 150.2496 320.969889 
L 152.14464 319.338812 
L 154.03968 319.338812 
L 155.93472 317.707735 
L 157.82976 317.707735 
L 159.7248 316.076658 
L 161.61984 316.076658 
L 163.51488 314.445581 
L 165.40992 311.183427 
L 171.09504 311.183427 
L 172.99008 307.921273 
L 174.88512 306.290196 
L 176.78016 306.290196 
L 178.6752 304.659119 
L 180.57024 300.834525 
L 184.36032 300.834525 
L 186.25536 299.203448 
L 188.1504 299.203448 
L 190.04544 295.378854 
L 191.94048 295.378854 
L 193.83552 293.747777 
L 195.73056 289.923183 
L 197.6256 289.923183 
L 199.52064 285.536149 
L 201.41568 283.905072 
L 203.31072 283.905072 
L 205.20576 280.642918 
L 208.99584 280.642918 
L 210.89088 279.011841 
L 212.78592 279.011841 
L 214.68096 275.187247 
L 216.576 272.993729 
L 220.36608 269.731576 
L 222.26112 267.538058 
L 224.15616 265.906981 
L 227.94624 261.519947 
L 229.84128 261.519947 
L 231.73632 254.995639 
L 233.63136 254.995639 
L 235.5264 251.171045 
L 237.42144 251.171045 
L 239.31648 249.539968 
L 241.21152 249.539968 
L 245.0016 241.89078 
L 246.89664 240.259703 
L 248.79168 240.259703 
L 252.58176 235.872668 
L 254.4768 235.872668 
L 256.37184 232.610515 
L 258.26688 230.979438 
L 260.16192 230.979438 
L 262.05696 227.154844 
L 263.952 225.523767 
L 267.74208 225.523767 
L 269.63712 223.89269 
L 271.53216 221.699172 
L 273.4272 217.874578 
L 275.32224 217.874578 
L 277.21728 215.681061 
L 279.11232 214.049984 
L 281.00736 210.78783 
L 282.9024 208.594313 
L 284.79744 206.963236 
L 288.58752 206.963236 
L 290.48256 202.576202 
L 292.3776 202.576202 
L 294.27264 200.945125 
L 296.16768 200.945125 
L 299.95776 197.682971 
L 301.8528 197.682971 
L 303.74784 193.858377 
L 305.64288 193.858377 
L 309.43296 190.596223 
L 313.22304 190.596223 
L 315.11808 188.965146 
L 318.90816 188.965146 
L 322.69824 185.702992 
L 324.59328 183.509475 
L 326.48832 181.878398 
L 328.38336 181.878398 
L 332.17344 177.491363 
L 341.64864 177.491363 
L 343.54368 175.297846 
L 347.33376 175.297846 
L 349.2288 169.842175 
L 351.12384 168.211098 
L 354.91392 168.211098 
L 356.80896 166.017581 
L 360.59904 166.017581 
L 362.49408 163.824064 
L 364.38912 163.824064 
L 366.28416 161.630546 
L 379.54944 161.630546 
L 381.44448 159.437029 
L 383.33952 159.437029 
L 385.23456 153.418918 
L 387.1296 151.225401 
L 390.91968 151.225401 
L 392.81472 149.031883 
L 396.6048 149.031883 
L 398.49984 146.838366 
L 402.28992 146.838366 
L 404.18496 144.644849 
L 407.97504 144.644849 
L 409.87008 143.013772 
L 415.5552 143.013772 
L 417.45024 140.820255 
L 428.82048 140.820255 
L 430.71552 139.189178 
L 436.40064 139.189178 
L 438.29568 134.802143 
L 447.77088 134.802143 
L 449.66592 132.608626 
L 451.56096 132.608626 
L 453.456 130.415109 
L 455.35104 130.415109 
L 459.14112 126.028074 
L 461.03616 126.028074 
L 462.9312 123.834557 
L 468.61632 123.834557 
L 470.51136 120.009963 
L 476.19648 120.009963 
L 478.09152 118.378886 
L 495.14688 118.378886 
L 497.04192 116.747809 
L 498.93696 116.747809 
L 504.62208 110.167257 
L 531.15264 110.167257 
L 533.04768 107.97374 
L 538.7328 107.97374 
L 542.52288 103.586706 
L 550.10304 103.586706 
L 551.99808 101.393188 
L 553.89312 101.393188 
L 555.78816 99.762111 
L 574.73856 99.762111 
L 576.6336 98.131034 
L 642.96 98.131034 
L 642.96 98.131034 
" clip-path="url(#p902d961cb1)" style="fill: none; stroke-dasharray: 4.995,2.16; stroke-dashoffset: 0; stroke: #c38a19; stroke-width: 1.35"/>
   </g>
   <g id="line2d_30">
    <path d="M 74.448 348.192 
L 102.8736 348.192 
L 104.76864 346.560923 
L 106.66368 346.560923 
L 108.55872 344.929846 
L 116.13888 344.929846 
L 118.03392 341.667692 
L 123.71904 341.667692 
L 127.50912 338.405538 
L 129.40416 336.212021 
L 131.2992 334.580944 
L 135.08928 334.580944 
L 138.87936 331.31879 
L 140.7744 329.125273 
L 142.66944 329.125273 
L 144.56448 327.494196 
L 150.2496 327.494196 
L 152.14464 325.863119 
L 157.82976 325.863119 
L 159.7248 323.669602 
L 161.61984 320.407448 
L 163.51488 318.776371 
L 165.40992 315.514218 
L 167.30496 313.3207 
L 174.88512 313.3207 
L 176.78016 311.689623 
L 178.6752 311.689623 
L 180.57024 310.058546 
L 184.36032 305.671512 
L 186.25536 300.215841 
L 188.1504 300.215841 
L 190.04544 298.584764 
L 191.94048 296.391247 
L 193.83552 294.76017 
L 195.73056 290.935576 
L 197.6256 290.935576 
L 199.52064 287.673422 
L 201.41568 287.673422 
L 203.31072 277.268276 
L 205.20576 275.637199 
L 208.99584 275.637199 
L 210.89088 274.006122 
L 212.78592 270.743968 
L 214.68096 263.65722 
L 216.576 260.395066 
L 218.47104 258.763989 
L 220.36608 256.570472 
L 222.26112 254.939395 
L 224.15616 254.939395 
L 226.0512 253.308318 
L 227.94624 253.308318 
L 231.73632 245.65913 
L 233.63136 245.65913 
L 235.5264 243.465613 
L 241.21152 243.465613 
L 243.10656 241.272095 
L 245.0016 239.641019 
L 246.89664 239.641019 
L 248.79168 238.009942 
L 250.68672 238.009942 
L 252.58176 235.816424 
L 256.37184 232.554271 
L 258.26688 232.554271 
L 260.16192 230.923194 
L 262.05696 230.923194 
L 263.952 227.098599 
L 265.84704 225.467523 
L 267.74208 223.274005 
L 271.53216 220.011851 
L 277.21728 220.011851 
L 279.11232 215.118621 
L 281.00736 215.118621 
L 282.9024 213.487544 
L 284.79744 213.487544 
L 286.69248 209.66295 
L 288.58752 209.66295 
L 290.48256 207.469432 
L 292.3776 205.838355 
L 294.27264 202.576202 
L 296.16768 200.382684 
L 299.95776 200.382684 
L 303.74784 197.120531 
L 305.64288 194.927013 
L 307.53792 191.102419 
L 309.43296 191.102419 
L 311.328 189.471342 
L 313.22304 189.471342 
L 315.11808 187.840265 
L 317.01312 183.453231 
L 318.90816 183.453231 
L 322.69824 179.066196 
L 326.48832 179.066196 
L 330.2784 175.804042 
L 332.17344 171.979448 
L 339.7536 171.979448 
L 341.64864 169.785931 
L 343.54368 169.785931 
L 345.43872 168.154854 
L 347.33376 168.154854 
L 351.12384 163.76782 
L 354.91392 163.76782 
L 356.80896 162.136743 
L 358.704 157.749708 
L 360.59904 156.118631 
L 362.49408 153.925114 
L 364.38912 152.294037 
L 371.96928 152.294037 
L 375.75936 147.907003 
L 377.6544 147.907003 
L 379.54944 146.275926 
L 392.81472 146.275926 
L 394.70976 144.082408 
L 396.6048 144.082408 
L 398.49984 141.888891 
L 400.39488 138.064297 
L 407.97504 138.064297 
L 409.87008 135.87078 
L 415.5552 135.87078 
L 417.45024 133.677263 
L 421.24032 133.677263 
L 423.13536 131.483745 
L 425.0304 131.483745 
L 426.92544 129.852668 
L 432.61056 129.852668 
L 434.5056 127.659151 
L 443.9808 127.659151 
L 445.87584 126.028074 
L 455.35104 126.028074 
L 457.24608 124.396997 
L 461.03616 124.396997 
L 462.9312 120.009963 
L 464.82624 120.009963 
L 468.61632 115.622928 
L 470.51136 113.991851 
L 476.19648 113.991851 
L 478.09152 112.360775 
L 489.46176 112.360775 
L 491.3568 110.167257 
L 502.72704 110.167257 
L 504.62208 107.97374 
L 510.3072 107.97374 
L 512.20224 105.780223 
L 525.46752 105.780223 
L 527.36256 103.586706 
L 557.6832 103.586706 
L 559.57824 99.762111 
L 574.73856 99.762111 
L 576.6336 98.131034 
L 642.96 98.131034 
L 642.96 98.131034 
" clip-path="url(#p902d961cb1)" style="fill: none; stroke-dasharray: 1.35,2.2275; stroke-dashoffset: 0; stroke: #7d8a92; stroke-width: 1.35"/>
   </g>
   <g id="line2d_31">
    <path d="M 74.448 348.192 
L 112.3488 348.192 
L 114.24384 345.998483 
L 142.66944 345.998483 
L 144.56448 343.804966 
L 150.2496 343.804966 
L 152.14464 341.611448 
L 167.30496 341.611448 
L 169.2 337.224414 
L 172.99008 337.224414 
L 174.88512 335.030897 
L 178.6752 335.030897 
L 180.57024 332.837379 
L 182.46528 332.837379 
L 186.25536 328.450345 
L 190.04544 328.450345 
L 191.94048 326.819268 
L 193.83552 324.625751 
L 195.73056 324.625751 
L 197.6256 320.238716 
L 205.20576 320.238716 
L 207.1008 318.045199 
L 208.99584 316.414122 
L 212.78592 316.414122 
L 214.68096 314.220605 
L 216.576 314.220605 
L 218.47104 309.83357 
L 227.94624 309.83357 
L 233.63136 303.253019 
L 246.89664 303.253019 
L 252.58176 296.672467 
L 258.26688 296.672467 
L 260.16192 295.04139 
L 262.05696 295.04139 
L 263.952 292.847873 
L 284.79744 292.847873 
L 288.58752 289.585719 
L 290.48256 289.585719 
L 292.3776 283.567607 
L 294.27264 278.111936 
L 296.16768 275.918419 
L 298.06272 275.918419 
L 299.95776 273.724902 
L 301.8528 273.724902 
L 305.64288 270.462748 
L 309.43296 266.075714 
L 313.22304 266.075714 
L 315.11808 264.444637 
L 317.01312 264.444637 
L 320.8032 255.670568 
L 322.69824 254.039491 
L 324.59328 250.214897 
L 326.48832 248.021379 
L 328.38336 246.390302 
L 330.2784 246.390302 
L 334.06848 243.128149 
L 335.96352 243.128149 
L 337.85856 240.934631 
L 339.7536 239.303554 
L 341.64864 231.654366 
L 349.2288 231.654366 
L 351.12384 227.829772 
L 353.01888 226.198695 
L 354.91392 226.198695 
L 358.704 222.936541 
L 360.59904 220.743024 
L 362.49408 217.48087 
L 364.38912 215.849793 
L 366.28416 215.849793 
L 368.1792 214.218716 
L 370.07424 214.218716 
L 371.96928 209.831682 
L 373.86432 206.569528 
L 375.75936 202.744934 
L 377.6544 202.744934 
L 379.54944 201.113857 
L 381.44448 201.113857 
L 383.33952 199.48278 
L 385.23456 199.48278 
L 387.1296 195.658186 
L 390.91968 192.396032 
L 392.81472 190.202515 
L 394.70976 190.202515 
L 396.6048 186.940361 
L 411.76512 186.940361 
L 413.66016 182.04713 
L 415.5552 182.04713 
L 419.34528 178.784976 
L 421.24032 175.522822 
L 423.13536 173.329305 
L 428.82048 173.329305 
L 430.71552 171.698228 
L 432.61056 168.436074 
L 436.40064 165.17392 
L 438.29568 162.980403 
L 442.08576 162.980403 
L 443.9808 161.349326 
L 447.77088 161.349326 
L 449.66592 159.718249 
L 455.35104 159.718249 
L 457.24608 157.524732 
L 459.14112 153.700138 
L 464.82624 153.700138 
L 466.72128 149.875544 
L 468.61632 148.244467 
L 470.51136 148.244467 
L 476.19648 143.351236 
L 479.98656 136.826928 
L 485.67168 136.826928 
L 489.46176 133.564775 
L 491.3568 133.564775 
L 493.25184 131.933698 
L 497.04192 131.933698 
L 498.93696 130.302621 
L 500.832 130.302621 
L 504.62208 127.040467 
L 506.51712 124.84695 
L 510.3072 121.584796 
L 529.2576 121.584796 
L 531.15264 119.953719 
L 533.04768 119.953719 
L 534.94272 118.322642 
L 538.7328 118.322642 
L 540.62784 116.691565 
L 542.52288 116.691565 
L 544.41792 115.060488 
L 546.31296 115.060488 
L 548.208 112.866971 
L 551.99808 112.866971 
L 553.89312 111.235894 
L 559.57824 111.235894 
L 561.47328 109.604817 
L 567.1584 109.604817 
L 569.05344 105.780223 
L 572.84352 105.780223 
L 574.73856 104.149146 
L 641.06496 104.149146 
L 642.96 101.955629 
L 642.96 101.955629 
" clip-path="url(#p902d961cb1)" style="fill: none; stroke-dasharray: 8.64,2.16,1.35,2.16; stroke-dashoffset: 0; stroke: #d0526a; stroke-width: 1.35"/>
   </g>
   <g id="line2d_32">
    <path d="M 74.448 348.192 
L 127.50912 348.192 
L 129.40416 345.998483 
L 157.82976 345.998483 
L 159.7248 343.804966 
L 180.57024 343.804966 
L 182.46528 341.611448 
L 186.25536 341.611448 
L 188.1504 339.417931 
L 191.94048 339.417931 
L 195.73056 335.030897 
L 199.52064 335.030897 
L 201.41568 330.643862 
L 203.31072 330.643862 
L 205.20576 328.450345 
L 207.1008 328.450345 
L 208.99584 326.256828 
L 212.78592 326.256828 
L 214.68096 324.06331 
L 231.73632 324.06331 
L 233.63136 321.869793 
L 235.5264 321.869793 
L 237.42144 319.676276 
L 256.37184 319.676276 
L 258.26688 315.289241 
L 262.05696 315.289241 
L 263.952 313.658164 
L 271.53216 313.658164 
L 273.4272 309.27113 
L 277.21728 309.27113 
L 282.9024 302.690578 
L 286.69248 302.690578 
L 288.58752 300.497061 
L 292.3776 300.497061 
L 294.27264 298.865984 
L 296.16768 296.672467 
L 298.06272 296.672467 
L 299.95776 294.47895 
L 305.64288 294.47895 
L 309.43296 290.091915 
L 311.328 290.091915 
L 313.22304 285.704881 
L 324.59328 285.704881 
L 326.48832 280.24921 
L 334.06848 280.24921 
L 335.96352 278.055692 
L 341.64864 278.055692 
L 343.54368 275.862175 
L 349.2288 275.862175 
L 353.01888 272.600021 
L 371.96928 272.600021 
L 373.86432 270.968944 
L 375.75936 270.968944 
L 377.6544 266.075714 
L 379.54944 262.251119 
L 381.44448 262.251119 
L 383.33952 254.601931 
L 385.23456 252.970854 
L 387.1296 250.777337 
L 389.02464 249.14626 
L 396.6048 249.14626 
L 398.49984 247.515183 
L 400.39488 247.515183 
L 402.28992 243.128149 
L 404.18496 240.934631 
L 407.97504 237.672477 
L 411.76512 237.672477 
L 413.66016 233.847883 
L 415.5552 231.654366 
L 417.45024 231.654366 
L 419.34528 230.023289 
L 425.0304 230.023289 
L 426.92544 226.198695 
L 428.82048 224.567618 
L 432.61056 224.567618 
L 434.5056 222.374101 
L 436.40064 218.549507 
L 438.29568 218.549507 
L 440.19072 216.91843 
L 442.08576 216.91843 
L 443.9808 215.287353 
L 445.87584 215.287353 
L 447.77088 213.656276 
L 449.66592 213.656276 
L 451.56096 212.025199 
L 453.456 208.763045 
L 455.35104 206.569528 
L 457.24608 204.938451 
L 462.9312 204.938451 
L 464.82624 201.113857 
L 468.61632 197.851703 
L 470.51136 194.027109 
L 472.4064 192.396032 
L 474.30144 192.396032 
L 476.19648 189.133878 
L 478.09152 185.309284 
L 481.8816 182.04713 
L 483.77664 182.04713 
L 485.67168 179.853613 
L 495.14688 179.853613 
L 497.04192 178.222536 
L 498.93696 178.222536 
L 504.62208 173.329305 
L 506.51712 173.329305 
L 508.41216 168.436074 
L 512.20224 165.17392 
L 517.88736 165.17392 
L 519.7824 163.542844 
L 521.67744 160.28069 
L 523.57248 160.28069 
L 525.46752 158.649613 
L 529.2576 158.649613 
L 531.15264 157.018536 
L 533.04768 154.825019 
L 534.94272 154.825019 
L 540.62784 149.931788 
L 542.52288 149.931788 
L 544.41792 147.738271 
L 550.10304 147.738271 
L 551.99808 143.913676 
L 557.6832 143.913676 
L 559.57824 142.282599 
L 561.47328 138.458005 
L 567.1584 138.458005 
L 569.05344 136.826928 
L 570.94848 136.826928 
L 572.84352 133.564775 
L 574.73856 133.564775 
L 578.52864 130.302621 
L 584.21376 130.302621 
L 586.1088 128.671544 
L 589.89888 128.671544 
L 591.79392 126.478027 
L 593.68896 124.84695 
L 595.584 119.391279 
L 597.47904 119.391279 
L 599.37408 117.760202 
L 601.26912 117.760202 
L 603.16416 116.129125 
L 624.0096 116.129125 
L 625.90464 114.498048 
L 631.58976 114.498048 
L 633.4848 112.304531 
L 635.37984 110.673454 
L 642.96 110.673454 
L 642.96 110.673454 
" clip-path="url(#p902d961cb1)" style="fill: none; stroke-dasharray: 6.75,2.7,1.35,2.7; stroke-dashoffset: 0; stroke: #2f8f84; stroke-width: 1.35"/>
   </g>
   <g id="patch_4">
    <path d="M 74.448 348.192 
L 74.448 93.744 
" style="fill: none; stroke: #000000; stroke-width: 0.8; stroke-linejoin: miter; stroke-linecap: square"/>
   </g>
   <g id="patch_5">
    <path d="M 74.448 348.192 
L 642.96 348.192 
" style="fill: none; stroke: #000000; stroke-width: 0.8; stroke-linejoin: miter; stroke-linecap: square"/>
   </g>
  </g>
  <g id="text_16">
   <text style="font: 18px 'DejaVu Sans', 'Bitstream Vera Sans', 'Computer Modern Sans Serif', 'Lucida Grande', 'Verdana', 'Geneva', 'Lucid', 'Arial', 'Helvetica', 'Avant Garde', sans-serif; text-anchor: start" x="74.448" y="38.229188" transform="rotate(-0 74.448 38.229188)">WLED LCD → QD-OLED</text>
  </g>
  <g id="text_17">
   <text style="fill: #66747c; font: 10px 'DejaVu Sans', 'Bitstream Vera Sans', 'Computer Modern Sans Serif', 'Lucida Grande', 'Verdana', 'Geneva', 'Lucid', 'Arial', 'Helvetica', 'Avant Garde', sans-serif; text-anchor: start" x="74.448" y="64.728" transform="rotate(-0 74.448 64.728)">All illuminants</text>
  </g>
  <g id="legend_1">
   <g id="line2d_33">
    <path d="M 185.17875 404.151391 
L 194.27875 404.151391 
L 203.37875 404.151391 
" style="fill: none; stroke: #252525; stroke-width: 2.5; stroke-linecap: square"/>
   </g>
   <g id="text_18">
    <text style="font: 9.1px 'DejaVu Sans', 'Bitstream Vera Sans', 'Computer Modern Sans Serif', 'Lucida Grande', 'Verdana', 'Geneva', 'Lucid', 'Arial', 'Helvetica', 'Avant Garde', sans-serif; text-anchor: start" x="210.65875" y="407.336391" transform="rotate(-0 210.65875 407.336391)">Potera CMF</text>
   </g>
   <g id="line2d_34">
    <path d="M 185.17875 417.508484 
L 194.27875 417.508484 
L 203.37875 417.508484 
" style="fill: none; stroke: #3b83b4; stroke-width: 1.35; stroke-linecap: square"/>
   </g>
   <g id="text_19">
    <text style="font: 9.1px 'DejaVu Sans', 'Bitstream Vera Sans', 'Computer Modern Sans Serif', 'Lucida Grande', 'Verdana', 'Geneva', 'Lucid', 'Arial', 'Helvetica', 'Avant Garde', sans-serif; text-anchor: start" x="210.65875" y="420.693484" transform="rotate(-0 210.65875 420.693484)">CIE 2015 2°</text>
   </g>
   <g id="line2d_35">
    <path d="M 282.931234 404.151391 
L 292.031234 404.151391 
L 301.131234 404.151391 
" style="fill: none; stroke-dasharray: 4.995,2.16; stroke-dashoffset: 0; stroke: #c38a19; stroke-width: 1.35"/>
   </g>
   <g id="text_20">
    <text style="font: 9.1px 'DejaVu Sans', 'Bitstream Vera Sans', 'Computer Modern Sans Serif', 'Lucida Grande', 'Verdana', 'Geneva', 'Lucid', 'Arial', 'Helvetica', 'Avant Garde', sans-serif; text-anchor: start" x="308.411234" y="407.336391" transform="rotate(-0 308.411234 407.336391)">CIE 2015 10°</text>
   </g>
   <g id="line2d_36">
    <path d="M 282.931234 417.508484 
L 292.031234 417.508484 
L 301.131234 417.508484 
" style="fill: none; stroke-dasharray: 1.35,2.2275; stroke-dashoffset: 0; stroke: #7d8a92; stroke-width: 1.35"/>
   </g>
   <g id="text_21">
    <text style="font: 9.1px 'DejaVu Sans', 'Bitstream Vera Sans', 'Computer Modern Sans Serif', 'Lucida Grande', 'Verdana', 'Geneva', 'Lucid', 'Arial', 'Helvetica', 'Avant Garde', sans-serif; text-anchor: start" x="308.411234" y="420.693484" transform="rotate(-0 308.411234 420.693484)">CIE 1964 10°</text>
   </g>
   <g id="line2d_37">
    <path d="M 386.473594 404.151391 
L 395.573594 404.151391 
L 404.673594 404.151391 
" style="fill: none; stroke-dasharray: 8.64,2.16,1.35,2.16; stroke-dashoffset: 0; stroke: #d0526a; stroke-width: 1.35"/>
   </g>
   <g id="text_22">
    <text style="font: 9.1px 'DejaVu Sans', 'Bitstream Vera Sans', 'Computer Modern Sans Serif', 'Lucida Grande', 'Verdana', 'Geneva', 'Lucid', 'Arial', 'Helvetica', 'Avant Garde', sans-serif; text-anchor: start" x="411.953594" y="407.336391" transform="rotate(-0 411.953594 407.336391)">CIE 1931 2°</text>
   </g>
   <g id="line2d_38">
    <path d="M 386.473594 417.508484 
L 395.573594 417.508484 
L 404.673594 417.508484 
" style="fill: none; stroke-dasharray: 6.75,2.7,1.35,2.7; stroke-dashoffset: 0; stroke: #2f8f84; stroke-width: 1.35"/>
   </g>
   <g id="text_23">
    <text style="font: 9.1px 'DejaVu Sans', 'Bitstream Vera Sans', 'Computer Modern Sans Serif', 'Lucida Grande', 'Verdana', 'Geneva', 'Lucid', 'Arial', 'Helvetica', 'Avant Garde', sans-serif; text-anchor: start" x="411.953594" y="420.693484" transform="rotate(-0 411.953594 420.693484)">Judd–Vos 1978 2°</text>
   </g>
  </g>
 </g>
 <defs>
  <clipPath id="p902d961cb1">
   <rect x="74.448" y="93.744" width="568.512" height="254.448"/>
  </clipPath>
 </defs>
</svg>
