<?xml version="1.0" encoding="utf-8" standalone="no"?>
<!DOCTYPE svg PUBLIC "-//W3C//DTD SVG 1.1//EN"
  "http://www.w3.org/Graphics/SVG/1.1/DTD/svg11.dtd">
<svg xmlns:xlink="http://www.w3.org/1999/xlink" width="676.8pt" height="446.4pt" viewBox="0 0 676.8 446.4" xmlns="http://www.w3.org/2000/svg" version="1.1">
 <metadata>
  <rdf:RDF xmlns:dc="http://purl.org/dc/elements/1.1/" xmlns:cc="http://creativecommons.org/ns#" xmlns:rdf="http://www.w3.org/1999/02/22-rdf-syntax-ns#">
   <cc:Work>
    <dc:type rdf:resource="http://purl.org/dc/dcmitype/StillImage"/>
    <dc:date>2026-07-20T06:42:00.639450</dc:date>
    <dc:format>image/svg+xml</dc:format>
    <dc:creator>
     <cc:Agent>
      <dc:title>Matplotlib v3.9.4, https://matplotlib.org/</dc:title>
     </cc:Agent>
    </dc:creator>
   </cc:Work>
  </rdf:RDF>
 </metadata>
 <defs>
  <style type="text/css">*{stroke-linejoin: round; stroke-linecap: butt}</style>
 </defs>
 <g id="figure_1">
  <g id="patch_1">
   <path d="M 0 446.4 
L 676.8 446.4 
L 676.8 0 
L 0 0 
z
" style="fill: #ffffff"/>
  </g>
  <g id="axes_1">
   <g id="patch_2">
    <path d="M 74.448 348.192 
L 642.96 348.192 
L 642.96 93.744 
L 74.448 93.744 
z
" style="fill: #ffffff"/>
   </g>
   <g id="patch_3">
    <path d="M 169.2 348.192 
L 358.704 348.192 
L 358.704 93.744 
L 169.2 93.744 
z
" clip-path="url(#p0bb1c88de8)" style="fill: #e7f0ea; opacity: 0.58; stroke: #e7f0ea; stroke-linejoin: miter"/>
   </g>
   <g id="matplotlib.axis_1">
    <g id="xtick_1">
     <g id="line2d_1">
      <path d="M 74.448 348.192 
L 74.448 93.744 
" clip-path="url(#p0bb1c88de8)" style="fill: none; stroke: #dfe5e8; stroke-width: 0.65; stroke-linecap: square"/>
     </g>
     <g id="line2d_2">
      <defs>
       <path id="m760d062436" d="M 0 0 
L 0 3.5 
" style="stroke: #000000; stroke-width: 0.8"/>
      </defs>
      <g>
       <use xlink:href="#m760d062436" x="74.448" y="348.192" style="stroke: #000000; stroke-width: 0.8"/>
      </g>
     </g>
     <g id="text_1">
      <text style="font: 10px 'DejaVu Sans', 'Bitstream Vera Sans', 'Computer Modern Sans Serif', 'Lucida Grande', 'Verdana', 'Geneva', 'Lucid', 'Arial', 'Helvetica', 'Avant Garde', sans-serif; text-anchor: middle" x="74.448" y="362.790438" transform="rotate(-0 74.448 362.790438)">0</text>
     </g>
    </g>
    <g id="xtick_2">
     <g id="line2d_3">
      <path d="M 169.2 348.192 
L 169.2 93.744 
" clip-path="url(#p0bb1c88de8)" style="fill: none; stroke: #dfe5e8; stroke-width: 0.65; stroke-linecap: square"/>
     </g>
     <g id="line2d_4">
      <g>
       <use xlink:href="#m760d062436" x="169.2" y="348.192" style="stroke: #000000; stroke-width: 0.8"/>
      </g>
     </g>
     <g id="text_2">
      <text style="font: 10px 'DejaVu Sans', 'Bitstream Vera Sans', 'Computer Modern Sans Serif', 'Lucida Grande', 'Verdana', 'Geneva', 'Lucid', 'Arial', 'Helvetica', 'Avant Garde', sans-serif; text-anchor: middle" x="169.2" y="362.790438" transform="rotate(-0 169.2 362.790438)">1</text>
     </g>
    </g>
    <g id="xtick_3">
     <g id="line2d_5">
      <path d="M 263.952 348.192 
L 263.952 93.744 
" clip-path="url(#p0bb1c88de8)" style="fill: none; stroke: #dfe5e8; stroke-width: 0.65; stroke-linecap: square"/>
     </g>
     <g id="line2d_6">
      <g>
       <use xlink:href="#m760d062436" x="263.952" y="348.192" style="stroke: #000000; stroke-width: 0.8"/>
      </g>
     </g>
     <g id="text_3">
      <text style="font: 10px 'DejaVu Sans', 'Bitstream Vera Sans', 'Computer Modern Sans Serif', 'Lucida Grande', 'Verdana', 'Geneva', 'Lucid', 'Arial', 'Helvetica', 'Avant Garde', sans-serif; text-anchor: middle" x="263.952" y="362.790438" transform="rotate(-0 263.952 362.790438)">2</text>
     </g>
    </g>
    <g id="xtick_4">
     <g id="line2d_7">
      <path d="M 358.704 348.192 
L 358.704 93.744 
" clip-path="url(#p0bb1c88de8)" style="fill: none; stroke: #dfe5e8; stroke-width: 0.65; stroke-linecap: square"/>
     </g>
     <g id="line2d_8">
      <g>
       <use xlink:href="#m760d062436" x="358.704" y="348.192" style="stroke: #000000; stroke-width: 0.8"/>
      </g>
     </g>
     <g id="text_4">
      <text style="font: 10px 'DejaVu Sans', 'Bitstream Vera Sans', 'Computer Modern Sans Serif', 'Lucida Grande', 'Verdana', 'Geneva', 'Lucid', 'Arial', 'Helvetica', 'Avant Garde', sans-serif; text-anchor: middle" x="358.704" y="362.790438" transform="rotate(-0 358.704 362.790438)">3</text>
     </g>
    </g>
    <g id="xtick_5">
     <g id="line2d_9">
      <path d="M 453.456 348.192 
L 453.456 93.744 
" clip-path="url(#p0bb1c88de8)" style="fill: none; stroke: #dfe5e8; stroke-width: 0.65; stroke-linecap: square"/>
     </g>
     <g id="line2d_10">
      <g>
       <use xlink:href="#m760d062436" x="453.456" y="348.192" style="stroke: #000000; stroke-width: 0.8"/>
      </g>
     </g>
     <g id="text_5">
      <text style="font: 10px 'DejaVu Sans', 'Bitstream Vera Sans', 'Computer Modern Sans Serif', 'Lucida Grande', 'Verdana', 'Geneva', 'Lucid', 'Arial', 'Helvetica', 'Avant Garde', sans-serif; text-anchor: middle" x="453.456" y="362.790438" transform="rotate(-0 453.456 362.790438)">4</text>
     </g>
    </g>
    <g id="xtick_6">
     <g id="line2d_11">
      <path d="M 548.208 348.192 
L 548.208 93.744 
" clip-path="url(#p0bb1c88de8)" style="fill: none; stroke: #dfe5e8; stroke-width: 0.65; stroke-linecap: square"/>
     </g>
     <g id="line2d_12">
      <g>
       <use xlink:href="#m760d062436" x="548.208" y="348.192" style="stroke: #000000; stroke-width: 0.8"/>
      </g>
     </g>
     <g id="text_6">
      <text style="font: 10px 'DejaVu Sans', 'Bitstream Vera Sans', 'Computer Modern Sans Serif', 'Lucida Grande', 'Verdana', 'Geneva', 'Lucid', 'Arial', 'Helvetica', 'Avant Garde', sans-serif; text-anchor: middle" x="548.208" y="362.790438" transform="rotate(-0 548.208 362.790438)">5</text>
     </g>
    </g>
    <g id="xtick_7">
     <g id="line2d_13">
      <path d="M 642.96 348.192 
L 642.96 93.744 
" clip-path="url(#p0bb1c88de8)" style="fill: none; stroke: #dfe5e8; stroke-width: 0.65; stroke-linecap: square"/>
     </g>
     <g id="line2d_14">
      <g>
       <use xlink:href="#m760d062436" x="642.96" y="348.192" style="stroke: #000000; stroke-width: 0.8"/>
      </g>
     </g>
     <g id="text_7">
      <text style="font: 10px 'DejaVu Sans', 'Bitstream Vera Sans', 'Computer Modern Sans Serif', 'Lucida Grande', 'Verdana', 'Geneva', 'Lucid', 'Arial', 'Helvetica', 'Avant Garde', sans-serif; text-anchor: middle" x="642.96" y="362.790438" transform="rotate(-0 642.96 362.790438)">6</text>
     </g>
    </g>
    <g id="text_8">
     <text style="font: 10px 'DejaVu Sans', 'Bitstream Vera Sans', 'Computer Modern Sans Serif', 'Lucida Grande', 'Verdana', 'Geneva', 'Lucid', 'Arial', 'Helvetica', 'Avant Garde', sans-serif; text-anchor: middle" x="358.704" y="376.468563" transform="rotate(-0 358.704 376.468563)">sUCS dE threshold</text>
    </g>
   </g>
   <g id="matplotlib.axis_2">
    <g id="ytick_1">
     <g id="line2d_15">
      <path d="M 74.448 348.192 
L 642.96 348.192 
" clip-path="url(#p0bb1c88de8)" style="fill: none; stroke: #dfe5e8; stroke-width: 0.65; stroke-linecap: square"/>
     </g>
     <g id="line2d_16">
      <defs>
       <path id="m3cd15f5e41" d="M 0 0 
L -3.5 0 
" style="stroke: #000000; stroke-width: 0.8"/>
      </defs>
      <g>
       <use xlink:href="#m3cd15f5e41" x="74.448" y="348.192" style="stroke: #000000; stroke-width: 0.8"/>
      </g>
     </g>
     <g id="text_9">
      <text style="font: 10px 'DejaVu Sans', 'Bitstream Vera Sans', 'Computer Modern Sans Serif', 'Lucida Grande', 'Verdana', 'Geneva', 'Lucid', 'Arial', 'Helvetica', 'Avant Garde', sans-serif; text-anchor: end" x="67.448" y="351.991219" transform="rotate(-0 67.448 351.991219)">0</text>
     </g>
    </g>
    <g id="ytick_2">
     <g id="line2d_17">
      <path d="M 74.448 297.3024 
L 642.96 297.3024 
" clip-path="url(#p0bb1c88de8)" style="fill: none; stroke: #dfe5e8; stroke-width: 0.65; stroke-linecap: square"/>
     </g>
     <g id="line2d_18">
      <g>
       <use xlink:href="#m3cd15f5e41" x="74.448" y="297.3024" style="stroke: #000000; stroke-width: 0.8"/>
      </g>
     </g>
     <g id="text_10">
      <text style="font: 10px 'DejaVu Sans', 'Bitstream Vera Sans', 'Computer Modern Sans Serif', 'Lucida Grande', 'Verdana', 'Geneva', 'Lucid', 'Arial', 'Helvetica', 'Avant Garde', sans-serif; text-anchor: end" x="67.448" y="301.101619" transform="rotate(-0 67.448 301.101619)">20</text>
     </g>
    </g>
    <g id="ytick_3">
     <g id="line2d_19">
      <path d="M 74.448 246.4128 
L 642.96 246.4128 
" clip-path="url(#p0bb1c88de8)" style="fill: none; stroke: #dfe5e8; stroke-width: 0.65; stroke-linecap: square"/>
     </g>
     <g id="line2d_20">
      <g>
       <use xlink:href="#m3cd15f5e41" x="74.448" y="246.4128" style="stroke: #000000; stroke-width: 0.8"/>
      </g>
     </g>
     <g id="text_11">
      <text style="font: 10px 'DejaVu Sans', 'Bitstream Vera Sans', 'Computer Modern Sans Serif', 'Lucida Grande', 'Verdana', 'Geneva', 'Lucid', 'Arial', 'Helvetica', 'Avant Garde', sans-serif; text-anchor: end" x="67.448" y="250.212019" transform="rotate(-0 67.448 250.212019)">40</text>
     </g>
    </g>
    <g id="ytick_4">
     <g id="line2d_21">
      <path d="M 74.448 195.5232 
L 642.96 195.5232 
" clip-path="url(#p0bb1c88de8)" style="fill: none; stroke: #dfe5e8; stroke-width: 0.65; stroke-linecap: square"/>
     </g>
     <g id="line2d_22">
      <g>
       <use xlink:href="#m3cd15f5e41" x="74.448" y="195.5232" style="stroke: #000000; stroke-width: 0.8"/>
      </g>
     </g>
     <g id="text_12">
      <text style="font: 10px 'DejaVu Sans', 'Bitstream Vera Sans', 'Computer Modern Sans Serif', 'Lucida Grande', 'Verdana', 'Geneva', 'Lucid', 'Arial', 'Helvetica', 'Avant Garde', sans-serif; text-anchor: end" x="67.448" y="199.322419" transform="rotate(-0 67.448 199.322419)">60</text>
     </g>
    </g>
    <g id="ytick_5">
     <g id="line2d_23">
      <path d="M 74.448 144.6336 
L 642.96 144.6336 
" clip-path="url(#p0bb1c88de8)" style="fill: none; stroke: #dfe5e8; stroke-width: 0.65; stroke-linecap: square"/>
     </g>
     <g id="line2d_24">
      <g>
       <use xlink:href="#m3cd15f5e41" x="74.448" y="144.6336" style="stroke: #000000; stroke-width: 0.8"/>
      </g>
     </g>
     <g id="text_13">
      <text style="font: 10px 'DejaVu Sans', 'Bitstream Vera Sans', 'Computer Modern Sans Serif', 'Lucida Grande', 'Verdana', 'Geneva', 'Lucid', 'Arial', 'Helvetica', 'Avant Garde', sans-serif; text-anchor: end" x="67.448" y="148.432819" transform="rotate(-0 67.448 148.432819)">80</text>
     </g>
    </g>
    <g id="ytick_6">
     <g id="line2d_25">
      <path d="M 74.448 93.744 
L 642.96 93.744 
" clip-path="url(#p0bb1c88de8)" style="fill: none; stroke: #dfe5e8; stroke-width: 0.65; stroke-linecap: square"/>
     </g>
     <g id="line2d_26">
      <g>
       <use xlink:href="#m3cd15f5e41" x="74.448" y="93.744" style="stroke: #000000; stroke-width: 0.8"/>
      </g>
     </g>
     <g id="text_14">
      <text style="font: 10px 'DejaVu Sans', 'Bitstream Vera Sans', 'Computer Modern Sans Serif', 'Lucida Grande', 'Verdana', 'Geneva', 'Lucid', 'Arial', 'Helvetica', 'Avant Garde', sans-serif; text-anchor: end" x="67.448" y="97.543219" transform="rotate(-0 67.448 97.543219)">100</text>
     </g>
    </g>
    <g id="text_15">
     <text style="font: 10px 'DejaVu Sans', 'Bitstream Vera Sans', 'Computer Modern Sans Serif', 'Lucida Grande', 'Verdana', 'Geneva', 'Lucid', 'Arial', 'Helvetica', 'Avant Garde', sans-serif; text-anchor: middle" x="42.280812" y="220.968" transform="rotate(-90 42.280812 220.968)">observers%</text>
    </g>
   </g>
   <g id="line2d_27">
    <path d="M 74.448 348.192 
L 95.29344 348.192 
L 97.18848 346.560923 
L 99.08352 346.560923 
L 100.97856 343.298769 
L 108.55872 343.298769 
L 114.24384 338.405538 
L 118.03392 338.405538 
L 119.92896 336.774462 
L 129.40416 336.774462 
L 131.2992 332.949867 
L 133.19424 332.949867 
L 135.08928 331.31879 
L 138.87936 331.31879 
L 140.7744 329.687714 
L 142.66944 329.687714 
L 144.56448 326.42556 
L 146.45952 322.600966 
L 148.35456 322.600966 
L 150.2496 319.338812 
L 154.03968 319.338812 
L 157.82976 312.814504 
L 159.7248 311.183427 
L 161.61984 311.183427 
L 163.51488 309.55235 
L 165.40992 305.727756 
L 167.30496 299.709645 
L 169.2 295.88505 
L 171.09504 293.691533 
L 172.99008 292.060456 
L 174.88512 289.866939 
L 176.78016 288.235862 
L 178.6752 286.042345 
L 182.46528 282.780191 
L 188.1504 282.780191 
L 190.04544 279.518037 
L 191.94048 279.518037 
L 193.83552 275.693443 
L 199.52064 275.693443 
L 201.41568 274.062366 
L 203.31072 274.062366 
L 208.99584 269.169135 
L 210.89088 266.975618 
L 212.78592 263.713464 
L 214.68096 262.082387 
L 218.47104 257.695353 
L 224.15616 257.695353 
L 227.94624 254.433199 
L 229.84128 247.852647 
L 231.73632 246.22157 
L 233.63136 240.765899 
L 235.5264 235.872668 
L 237.42144 235.872668 
L 239.31648 229.854557 
L 241.21152 228.22348 
L 243.10656 224.398886 
L 248.79168 224.398886 
L 250.68672 222.767809 
L 256.37184 222.767809 
L 258.26688 220.574292 
L 260.16192 218.943215 
L 262.05696 214.049984 
L 263.952 211.856467 
L 265.84704 211.856467 
L 267.74208 210.22539 
L 269.63712 210.22539 
L 271.53216 206.400796 
L 273.4272 203.138642 
L 275.32224 203.138642 
L 279.11232 199.876488 
L 281.00736 196.051894 
L 284.79744 196.051894 
L 286.69248 193.858377 
L 288.58752 192.2273 
L 290.48256 192.2273 
L 292.3776 188.965146 
L 296.16768 188.965146 
L 298.06272 187.334069 
L 301.8528 182.947034 
L 305.64288 182.947034 
L 307.53792 181.315958 
L 313.22304 181.315958 
L 317.01312 178.053804 
L 318.90816 175.860286 
L 320.8032 175.860286 
L 322.69824 174.22921 
L 326.48832 174.22921 
L 328.38336 170.404615 
L 332.17344 170.404615 
L 334.06848 164.386504 
L 337.85856 164.386504 
L 339.7536 159.999469 
L 347.33376 159.999469 
L 353.01888 153.418918 
L 366.28416 153.418918 
L 370.07424 149.031883 
L 373.86432 149.031883 
L 375.75936 146.838366 
L 381.44448 146.838366 
L 383.33952 145.207289 
L 400.39488 145.207289 
L 402.28992 141.382695 
L 406.08 141.382695 
L 407.97504 139.189178 
L 409.87008 134.802143 
L 419.34528 134.802143 
L 421.24032 132.608626 
L 455.35104 132.608626 
L 457.24608 130.415109 
L 461.03616 127.152955 
L 470.51136 127.152955 
L 472.4064 124.959438 
L 474.30144 124.959438 
L 476.19648 120.572403 
L 478.09152 120.572403 
L 479.98656 116.185369 
L 481.8816 114.554292 
L 495.14688 114.554292 
L 497.04192 112.360775 
L 508.41216 112.360775 
L 510.3072 110.167257 
L 514.09728 110.167257 
L 515.99232 108.53618 
L 521.67744 108.53618 
L 523.57248 104.149146 
L 533.04768 104.149146 
L 534.94272 101.955629 
L 546.31296 101.955629 
L 548.208 99.762111 
L 584.21376 99.762111 
L 586.1088 98.131034 
L 639.16992 98.131034 
L 641.06496 95.937517 
L 642.96 95.937517 
L 642.96 95.937517 
" clip-path="url(#p0bb1c88de8)" style="fill: none; stroke: #252525; stroke-width: 2.5; stroke-linecap: square"/>
   </g>
   <g id="line2d_28">
    <path d="M 74.448 348.192 
L 89.60832 348.192 
L 91.50336 344.367406 
L 108.55872 344.367406 
L 112.3488 339.980371 
L 119.92896 339.980371 
L 121.824 337.786854 
L 127.50912 337.786854 
L 129.40416 336.155777 
L 131.2992 333.96226 
L 144.56448 333.96226 
L 146.45952 331.768743 
L 155.93472 331.768743 
L 157.82976 329.575225 
L 161.61984 329.575225 
L 163.51488 325.188191 
L 169.2 325.188191 
L 171.09504 322.994674 
L 174.88512 322.994674 
L 176.78016 320.801156 
L 180.57024 320.801156 
L 182.46528 319.17008 
L 191.94048 319.17008 
L 195.73056 315.907926 
L 197.6256 313.714408 
L 199.52064 309.327374 
L 203.31072 309.327374 
L 205.20576 303.309263 
L 208.99584 303.309263 
L 210.89088 301.678186 
L 212.78592 295.660074 
L 214.68096 295.660074 
L 216.576 292.39792 
L 218.47104 288.573326 
L 222.26112 288.573326 
L 224.15616 286.379809 
L 226.0512 286.379809 
L 227.94624 284.186292 
L 229.84128 282.555215 
L 231.73632 279.293061 
L 233.63136 277.099544 
L 235.5264 268.887915 
L 237.42144 267.256838 
L 241.21152 267.256838 
L 243.10656 265.063321 
L 245.0016 265.063321 
L 246.89664 261.801167 
L 248.79168 261.801167 
L 250.68672 251.958462 
L 252.58176 249.764944 
L 254.4768 249.764944 
L 256.37184 248.133867 
L 258.26688 248.133867 
L 262.05696 240.484679 
L 263.952 240.484679 
L 265.84704 238.853602 
L 267.74208 238.853602 
L 269.63712 233.397931 
L 277.21728 233.397931 
L 279.11232 230.135777 
L 282.9024 230.135777 
L 284.79744 228.5047 
L 286.69248 222.486589 
L 288.58752 220.855512 
L 290.48256 220.855512 
L 292.3776 218.661995 
L 294.27264 215.399841 
L 296.16768 213.206324 
L 299.95776 209.94417 
L 305.64288 209.94417 
L 307.53792 207.750653 
L 309.43296 207.750653 
L 313.22304 204.488499 
L 315.11808 204.488499 
L 317.01312 202.857422 
L 318.90816 199.032828 
L 320.8032 197.401751 
L 322.69824 191.94608 
L 324.59328 191.94608 
L 326.48832 190.315003 
L 328.38336 190.315003 
L 330.2784 188.683926 
L 332.17344 188.683926 
L 334.06848 184.859332 
L 335.96352 184.859332 
L 337.85856 181.597178 
L 339.7536 179.966101 
L 341.64864 179.966101 
L 345.43872 176.703947 
L 347.33376 174.51043 
L 353.01888 174.51043 
L 354.91392 172.316912 
L 356.80896 170.685836 
L 358.704 164.105284 
L 360.59904 160.84313 
L 370.07424 160.84313 
L 371.96928 159.212053 
L 373.86432 159.212053 
L 375.75936 157.580976 
L 379.54944 157.580976 
L 381.44448 155.949899 
L 383.33952 151.562865 
L 387.1296 148.300711 
L 389.02464 144.476117 
L 392.81472 144.476117 
L 394.70976 142.84504 
L 396.6048 137.389369 
L 402.28992 137.389369 
L 404.18496 134.127215 
L 415.5552 134.127215 
L 419.34528 130.865061 
L 421.24032 130.865061 
L 423.13536 129.233984 
L 425.0304 129.233984 
L 426.92544 127.602907 
L 428.82048 125.40939 
L 430.71552 125.40939 
L 432.61056 121.584796 
L 440.19072 121.584796 
L 445.87584 116.691565 
L 466.72128 116.691565 
L 468.61632 115.060488 
L 474.30144 115.060488 
L 476.19648 112.866971 
L 478.09152 111.235894 
L 489.46176 111.235894 
L 491.3568 109.604817 
L 493.25184 107.4113 
L 506.51712 107.4113 
L 508.41216 105.780223 
L 519.7824 105.780223 
L 521.67744 104.149146 
L 569.05344 104.149146 
L 570.94848 101.955629 
L 608.84928 101.955629 
L 610.74432 99.762111 
L 627.79968 99.762111 
L 629.69472 98.131034 
L 642.96 98.131034 
L 642.96 98.131034 
" clip-path="url(#p0bb1c88de8)" style="fill: none; stroke: #3b83b4; stroke-width: 1.35; stroke-linecap: square"/>
   </g>
   <g id="line2d_29">
    <path d="M 74.448 348.192 
L 80.13312 348.192 
L 82.02816 346.560923 
L 91.50336 346.560923 
L 95.29344 343.298769 
L 99.08352 343.298769 
L 100.97856 341.667692 
L 114.24384 341.667692 
L 116.13888 337.843098 
L 119.92896 334.580944 
L 121.824 334.580944 
L 123.71904 331.31879 
L 127.50912 328.056637 
L 140.7744 328.056637 
L 142.66944 326.42556 
L 150.2496 326.42556 
L 152.14464 321.532329 
L 154.03968 319.901252 
L 155.93472 319.901252 
L 157.82976 317.707735 
L 161.61984 317.707735 
L 163.51488 313.883141 
L 165.40992 312.252064 
L 167.30496 308.98991 
L 169.2 304.096679 
L 171.09504 304.096679 
L 172.99008 300.834525 
L 174.88512 300.834525 
L 176.78016 299.203448 
L 178.6752 299.203448 
L 180.57024 295.941294 
L 182.46528 295.941294 
L 184.36032 291.55426 
L 186.25536 285.536149 
L 188.1504 283.342631 
L 190.04544 283.342631 
L 191.94048 281.711554 
L 193.83552 279.518037 
L 195.73056 274.624806 
L 207.1008 274.624806 
L 208.99584 272.993729 
L 210.89088 267.538058 
L 212.78592 264.275905 
L 214.68096 264.275905 
L 216.576 262.644828 
L 218.47104 262.644828 
L 220.36608 261.013751 
L 222.26112 257.189156 
L 226.0512 252.802122 
L 227.94624 252.802122 
L 229.84128 248.977528 
L 231.73632 247.346451 
L 233.63136 247.346451 
L 235.5264 241.89078 
L 239.31648 241.89078 
L 241.21152 240.259703 
L 243.10656 240.259703 
L 245.0016 234.241592 
L 248.79168 226.592403 
L 252.58176 223.330249 
L 254.4768 219.505655 
L 258.26688 219.505655 
L 260.16192 217.312138 
L 262.05696 215.681061 
L 263.952 212.418907 
L 267.74208 212.418907 
L 269.63712 210.78783 
L 273.4272 210.78783 
L 275.32224 207.525676 
L 277.21728 205.332159 
L 279.11232 205.332159 
L 281.00736 203.701082 
L 282.9024 199.314048 
L 284.79744 199.314048 
L 286.69248 197.682971 
L 288.58752 195.489454 
L 290.48256 192.2273 
L 292.3776 190.033782 
L 294.27264 190.033782 
L 296.16768 188.402706 
L 298.06272 188.402706 
L 299.95776 186.771629 
L 309.43296 186.771629 
L 311.328 185.140552 
L 315.11808 185.140552 
L 317.01312 181.315958 
L 322.69824 181.315958 
L 324.59328 177.491363 
L 326.48832 175.860286 
L 337.85856 175.860286 
L 339.7536 172.035692 
L 341.64864 170.404615 
L 343.54368 170.404615 
L 345.43872 166.017581 
L 347.33376 166.017581 
L 349.2288 163.824064 
L 351.12384 159.999469 
L 353.01888 159.999469 
L 354.91392 157.805952 
L 362.49408 157.805952 
L 364.38912 155.612435 
L 366.28416 155.612435 
L 368.1792 153.418918 
L 370.07424 153.418918 
L 371.96928 151.225401 
L 373.86432 151.225401 
L 375.75936 149.031883 
L 377.6544 149.031883 
L 379.54944 146.838366 
L 398.49984 146.838366 
L 400.39488 145.207289 
L 406.08 145.207289 
L 407.97504 140.820255 
L 417.45024 140.820255 
L 419.34528 139.189178 
L 421.24032 136.99566 
L 423.13536 136.99566 
L 425.0304 134.802143 
L 426.92544 134.802143 
L 428.82048 132.608626 
L 440.19072 132.608626 
L 443.9808 129.346472 
L 449.66592 129.346472 
L 451.56096 127.152955 
L 464.82624 127.152955 
L 466.72128 123.328361 
L 468.61632 121.134844 
L 470.51136 121.134844 
L 474.30144 116.747809 
L 491.3568 116.747809 
L 493.25184 114.554292 
L 502.72704 114.554292 
L 504.62208 112.360775 
L 514.09728 112.360775 
L 515.99232 107.97374 
L 519.7824 107.97374 
L 521.67744 105.780223 
L 523.57248 105.780223 
L 525.46752 103.586706 
L 529.2576 103.586706 
L 531.15264 101.955629 
L 534.94272 101.955629 
L 536.83776 99.762111 
L 569.05344 99.762111 
L 570.94848 98.131034 
L 642.96 98.131034 
L 642.96 98.131034 
" clip-path="url(#p0bb1c88de8)" style="fill: none; stroke-dasharray: 4.995,2.16; stroke-dashoffset: 0; stroke: #c38a19; stroke-width: 1.35"/>
   </g>
   <g id="line2d_30">
    <path d="M 74.448 348.192 
L 99.08352 348.192 
L 100.97856 346.560923 
L 108.55872 346.560923 
L 110.45376 344.929846 
L 112.3488 341.667692 
L 119.92896 341.667692 
L 121.824 339.474175 
L 123.71904 339.474175 
L 129.40416 334.580944 
L 131.2992 334.580944 
L 133.19424 332.949867 
L 135.08928 332.949867 
L 136.98432 329.687714 
L 144.56448 329.687714 
L 146.45952 327.494196 
L 148.35456 325.863119 
L 150.2496 323.669602 
L 157.82976 323.669602 
L 159.7248 318.213931 
L 163.51488 314.951777 
L 165.40992 314.951777 
L 167.30496 312.75826 
L 169.2 309.496106 
L 176.78016 309.496106 
L 178.6752 305.671512 
L 180.57024 303.477995 
L 182.46528 301.846918 
L 184.36032 298.022324 
L 186.25536 298.022324 
L 188.1504 293.635289 
L 191.94048 285.986101 
L 193.83552 280.53043 
L 199.52064 280.53043 
L 201.41568 278.899353 
L 203.31072 270.181528 
L 205.20576 268.550451 
L 207.1008 263.09478 
L 208.99584 263.09478 
L 210.89088 257.639109 
L 212.78592 257.639109 
L 214.68096 256.008032 
L 216.576 246.727767 
L 220.36608 246.727767 
L 224.15616 243.465613 
L 227.94624 243.465613 
L 229.84128 241.272095 
L 231.73632 236.378865 
L 233.63136 236.378865 
L 235.5264 234.185347 
L 239.31648 230.923194 
L 241.21152 228.729676 
L 245.0016 225.467523 
L 254.4768 225.467523 
L 256.37184 222.205369 
L 258.26688 220.574292 
L 260.16192 220.574292 
L 262.05696 217.312138 
L 265.84704 212.925103 
L 273.4272 212.925103 
L 275.32224 210.731586 
L 277.21728 209.100509 
L 279.11232 205.275915 
L 281.00736 205.275915 
L 282.9024 201.451321 
L 286.69248 201.451321 
L 290.48256 198.189167 
L 292.3776 194.364573 
L 294.27264 192.733496 
L 296.16768 190.539979 
L 301.8528 190.539979 
L 303.74784 188.908902 
L 305.64288 184.521867 
L 307.53792 180.697273 
L 313.22304 180.697273 
L 315.11808 179.066196 
L 320.8032 179.066196 
L 322.69824 175.804042 
L 324.59328 169.785931 
L 326.48832 169.785931 
L 328.38336 165.398897 
L 330.2784 163.205379 
L 334.06848 163.205379 
L 335.96352 159.943225 
L 337.85856 159.943225 
L 339.7536 157.749708 
L 356.80896 157.749708 
L 358.704 156.118631 
L 364.38912 149.53808 
L 366.28416 145.713485 
L 368.1792 145.713485 
L 371.96928 142.451332 
L 373.86432 142.451332 
L 375.75936 140.257814 
L 406.08 140.257814 
L 407.97504 138.064297 
L 417.45024 138.064297 
L 419.34528 136.43322 
L 423.13536 136.43322 
L 425.0304 134.239703 
L 426.92544 134.239703 
L 428.82048 132.608626 
L 430.71552 128.221592 
L 432.61056 126.590515 
L 434.5056 126.590515 
L 436.40064 122.20348 
L 438.29568 118.378886 
L 443.9808 118.378886 
L 445.87584 116.747809 
L 461.03616 116.747809 
L 462.9312 114.554292 
L 474.30144 114.554292 
L 478.09152 110.167257 
L 485.67168 110.167257 
L 487.56672 107.97374 
L 502.72704 107.97374 
L 504.62208 105.780223 
L 519.7824 105.780223 
L 521.67744 103.586706 
L 523.57248 103.586706 
L 525.46752 101.393188 
L 548.208 101.393188 
L 550.10304 99.762111 
L 553.89312 99.762111 
L 555.78816 98.131034 
L 642.96 98.131034 
L 642.96 98.131034 
" clip-path="url(#p0bb1c88de8)" style="fill: none; stroke-dasharray: 1.35,2.2275; stroke-dashoffset: 0; stroke: #7d8a92; stroke-width: 1.35"/>
   </g>
   <g id="line2d_31">
    <path d="M 74.448 348.192 
L 114.24384 348.192 
L 116.13888 345.998483 
L 133.19424 345.998483 
L 135.08928 343.804966 
L 146.45952 343.804966 
L 150.2496 339.417931 
L 154.03968 339.417931 
L 155.93472 337.224414 
L 157.82976 337.224414 
L 159.7248 335.030897 
L 176.78016 335.030897 
L 178.6752 332.837379 
L 180.57024 332.837379 
L 182.46528 330.643862 
L 184.36032 330.643862 
L 186.25536 328.450345 
L 190.04544 328.450345 
L 191.94048 326.256828 
L 193.83552 326.256828 
L 197.6256 321.869793 
L 199.52064 320.238716 
L 201.41568 318.045199 
L 210.89088 318.045199 
L 214.68096 313.658164 
L 216.576 309.27113 
L 220.36608 309.27113 
L 222.26112 307.077613 
L 231.73632 307.077613 
L 233.63136 305.446536 
L 235.5264 305.446536 
L 237.42144 301.059501 
L 246.89664 301.059501 
L 248.79168 298.865984 
L 250.68672 298.865984 
L 252.58176 296.672467 
L 254.4768 296.672467 
L 256.37184 295.04139 
L 262.05696 295.04139 
L 265.84704 290.654355 
L 269.63712 290.654355 
L 271.53216 289.023279 
L 273.4272 286.829761 
L 275.32224 286.829761 
L 277.21728 284.636244 
L 281.00736 284.636244 
L 282.9024 282.442727 
L 284.79744 279.180573 
L 292.3776 279.180573 
L 296.16768 274.793538 
L 298.06272 269.337867 
L 299.95776 267.14435 
L 301.8528 267.14435 
L 303.74784 264.950833 
L 307.53792 261.688679 
L 309.43296 256.233008 
L 311.328 256.233008 
L 315.11808 251.845973 
L 317.01312 246.390302 
L 318.90816 244.196785 
L 320.8032 242.565708 
L 326.48832 242.565708 
L 328.38336 240.934631 
L 330.2784 240.934631 
L 332.17344 238.741114 
L 334.06848 234.91652 
L 337.85856 234.91652 
L 339.7536 231.654366 
L 341.64864 230.023289 
L 343.54368 226.761135 
L 345.43872 226.761135 
L 351.12384 220.180584 
L 356.80896 220.180584 
L 358.704 217.987066 
L 362.49408 214.724912 
L 366.28416 214.724912 
L 368.1792 210.900318 
L 370.07424 210.900318 
L 371.96928 209.269241 
L 373.86432 206.007088 
L 377.6544 206.007088 
L 379.54944 204.376011 
L 381.44448 204.376011 
L 383.33952 200.551416 
L 385.23456 200.551416 
L 387.1296 198.92034 
L 389.02464 198.92034 
L 392.81472 194.533305 
L 394.70976 192.902228 
L 396.6048 192.902228 
L 398.49984 189.640074 
L 400.39488 189.640074 
L 402.28992 186.37792 
L 404.18496 186.37792 
L 406.08 184.746844 
L 413.66016 184.746844 
L 417.45024 181.48469 
L 421.24032 181.48469 
L 423.13536 179.853613 
L 425.0304 176.591459 
L 426.92544 171.698228 
L 428.82048 167.873634 
L 430.71552 167.873634 
L 432.61056 166.242557 
L 434.5056 162.980403 
L 443.9808 162.980403 
L 445.87584 159.718249 
L 447.77088 159.718249 
L 449.66592 158.087172 
L 451.56096 158.087172 
L 453.456 152.069061 
L 457.24608 152.069061 
L 459.14112 148.806907 
L 462.9312 148.806907 
L 464.82624 147.17583 
L 474.30144 147.17583 
L 476.19648 143.351236 
L 478.09152 141.720159 
L 479.98656 141.720159 
L 481.8816 140.089082 
L 483.77664 136.826928 
L 489.46176 136.826928 
L 495.14688 131.933698 
L 498.93696 131.933698 
L 502.72704 128.671544 
L 508.41216 128.671544 
L 512.20224 125.40939 
L 514.09728 125.40939 
L 515.99232 123.215873 
L 519.7824 123.215873 
L 523.57248 119.953719 
L 527.36256 119.953719 
L 531.15264 116.691565 
L 542.52288 116.691565 
L 544.41792 114.498048 
L 546.31296 112.866971 
L 565.26336 112.866971 
L 567.1584 111.235894 
L 569.05344 111.235894 
L 570.94848 109.042377 
L 576.6336 109.042377 
L 578.52864 107.4113 
L 580.42368 107.4113 
L 582.31872 105.780223 
L 589.89888 105.780223 
L 591.79392 104.149146 
L 629.69472 104.149146 
L 631.58976 101.955629 
L 637.27488 101.955629 
L 639.16992 99.762111 
L 642.96 99.762111 
L 642.96 99.762111 
" clip-path="url(#p0bb1c88de8)" style="fill: none; stroke-dasharray: 8.64,2.16,1.35,2.16; stroke-dashoffset: 0; stroke: #d0526a; stroke-width: 1.35"/>
   </g>
   <g id="line2d_32">
    <path d="M 74.448 348.192 
L 112.3488 348.192 
L 114.24384 345.998483 
L 154.03968 345.998483 
L 155.93472 343.804966 
L 172.99008 343.804966 
L 174.88512 341.611448 
L 176.78016 341.611448 
L 180.57024 337.224414 
L 184.36032 337.224414 
L 186.25536 335.030897 
L 188.1504 335.030897 
L 190.04544 332.837379 
L 191.94048 328.450345 
L 195.73056 328.450345 
L 197.6256 326.256828 
L 208.99584 326.256828 
L 210.89088 324.06331 
L 224.15616 324.06331 
L 226.0512 321.869793 
L 229.84128 321.869793 
L 231.73632 319.676276 
L 241.21152 319.676276 
L 245.0016 315.289241 
L 258.26688 315.289241 
L 262.05696 310.902207 
L 267.74208 310.902207 
L 271.53216 306.515172 
L 273.4272 306.515172 
L 275.32224 300.497061 
L 279.11232 300.497061 
L 281.00736 298.303544 
L 282.9024 293.916509 
L 284.79744 291.722992 
L 294.27264 291.722992 
L 296.16768 289.529475 
L 299.95776 289.529475 
L 303.74784 285.14244 
L 309.43296 285.14244 
L 313.22304 281.880286 
L 315.11808 279.686769 
L 317.01312 278.055692 
L 324.59328 278.055692 
L 326.48832 276.424615 
L 337.85856 276.424615 
L 339.7536 274.793538 
L 341.64864 274.793538 
L 343.54368 272.600021 
L 351.12384 272.600021 
L 353.01888 270.968944 
L 358.704 264.388393 
L 360.59904 262.757316 
L 362.49408 262.757316 
L 366.28416 259.495162 
L 368.1792 259.495162 
L 370.07424 257.864085 
L 371.96928 254.601931 
L 373.86432 254.601931 
L 375.75936 252.970854 
L 379.54944 248.58382 
L 383.33952 248.58382 
L 385.23456 244.759225 
L 387.1296 240.372191 
L 390.91968 240.372191 
L 392.81472 238.741114 
L 394.70976 238.741114 
L 396.6048 233.285443 
L 400.39488 233.285443 
L 402.28992 231.091926 
L 404.18496 227.829772 
L 407.97504 227.829772 
L 409.87008 226.198695 
L 413.66016 226.198695 
L 415.5552 224.005178 
L 421.24032 219.111947 
L 428.82048 219.111947 
L 430.71552 214.724912 
L 434.5056 214.724912 
L 438.29568 208.200605 
L 440.19072 206.007088 
L 443.9808 202.744934 
L 445.87584 202.744934 
L 447.77088 198.92034 
L 449.66592 198.92034 
L 451.56096 197.289263 
L 461.03616 197.289263 
L 462.9312 191.833592 
L 468.61632 191.833592 
L 470.51136 190.202515 
L 472.4064 188.008997 
L 474.30144 188.008997 
L 481.8816 181.48469 
L 487.56672 181.48469 
L 489.46176 179.853613 
L 491.3568 176.591459 
L 493.25184 174.960382 
L 495.14688 170.067151 
L 498.93696 170.067151 
L 500.832 168.436074 
L 502.72704 168.436074 
L 506.51712 165.17392 
L 508.41216 165.17392 
L 510.3072 161.349326 
L 512.20224 159.718249 
L 514.09728 159.718249 
L 515.99232 158.087172 
L 517.88736 158.087172 
L 519.7824 156.456095 
L 521.67744 151.562865 
L 525.46752 151.562865 
L 527.36256 149.369347 
L 529.2576 149.369347 
L 531.15264 147.738271 
L 533.04768 147.738271 
L 534.94272 145.544753 
L 540.62784 145.544753 
L 542.52288 143.913676 
L 553.89312 143.913676 
L 555.78816 142.282599 
L 557.6832 140.089082 
L 561.47328 136.826928 
L 563.36832 136.826928 
L 565.26336 135.195851 
L 567.1584 135.195851 
L 569.05344 133.564775 
L 570.94848 129.74018 
L 572.84352 129.74018 
L 574.73856 128.109103 
L 576.6336 128.109103 
L 578.52864 126.478027 
L 582.31872 126.478027 
L 584.21376 124.84695 
L 588.00384 124.84695 
L 589.89888 123.215873 
L 591.79392 121.022355 
L 599.37408 121.022355 
L 601.26912 117.760202 
L 605.0592 117.760202 
L 606.95424 116.129125 
L 608.84928 116.129125 
L 610.74432 114.498048 
L 616.42944 114.498048 
L 618.32448 112.304531 
L 624.0096 112.304531 
L 625.90464 110.673454 
L 642.96 110.673454 
L 642.96 110.673454 
" clip-path="url(#p0bb1c88de8)" style="fill: none; stroke-dasharray: 6.75,2.7,1.35,2.7; stroke-dashoffset: 0; stroke: #2f8f84; stroke-width: 1.35"/>
   </g>
   <g id="patch_4">
    <path d="M 74.448 348.192 
L 74.448 93.744 
" style="fill: none; stroke: #000000; stroke-width: 0.8; stroke-linejoin: miter; stroke-linecap: square"/>
   </g>
   <g id="patch_5">
    <path d="M 74.448 348.192 
L 642.96 348.192 
" style="fill: none; stroke: #000000; stroke-width: 0.8; stroke-linejoin: miter; stroke-linecap: square"/>
   </g>
  </g>
  <g id="text_16">
   <text style="font: 18px 'DejaVu Sans', 'Bitstream Vera Sans', 'Computer Modern Sans Serif', 'Lucida Grande', 'Verdana', 'Geneva', 'Lucid', 'Arial', 'Helvetica', 'Avant Garde', sans-serif; text-anchor: start" x="74.448" y="38.229188" transform="rotate(-0 74.448 38.229188)">WLED LCD → QD-OLED</text>
  </g>
  <g id="text_17">
   <text style="fill: #66747c; font: 10px 'DejaVu Sans', 'Bitstream Vera Sans', 'Computer Modern Sans Serif', 'Lucida Grande', 'Verdana', 'Geneva', 'Lucid', 'Arial', 'Helvetica', 'Avant Garde', sans-serif; text-anchor: start" x="74.448" y="64.728" transform="rotate(-0 74.448 64.728)">D50</text>
  </g>
  <g id="legend_1">
   <g id="line2d_33">
    <path d="M 185.17875 404.151391 
L 194.27875 404.151391 
L 203.37875 404.151391 
" style="fill: none; stroke: #252525; stroke-width: 2.5; stroke-linecap: square"/>
   </g>
   <g id="text_18">
    <text style="font: 9.1px 'DejaVu Sans', 'Bitstream Vera Sans', 'Computer Modern Sans Serif', 'Lucida Grande', 'Verdana', 'Geneva', 'Lucid', 'Arial', 'Helvetica', 'Avant Garde', sans-serif; text-anchor: start" x="210.65875" y="407.336391" transform="rotate(-0 210.65875 407.336391)">Potera CMF</text>
   </g>
   <g id="line2d_34">
    <path d="M 185.17875 417.508484 
L 194.27875 417.508484 
L 203.37875 417.508484 
" style="fill: none; stroke: #3b83b4; stroke-width: 1.35; stroke-linecap: square"/>
   </g>
   <g id="text_19">
    <text style="font: 9.1px 'DejaVu Sans', 'Bitstream Vera Sans', 'Computer Modern Sans Serif', 'Lucida Grande', 'Verdana', 'Geneva', 'Lucid', 'Arial', 'Helvetica', 'Avant Garde', sans-serif; text-anchor: start" x="210.65875" y="420.693484" transform="rotate(-0 210.65875 420.693484)">CIE 2015 2°</text>
   </g>
   <g id="line2d_35">
    <path d="M 282.931234 404.151391 
L 292.031234 404.151391 
L 301.131234 404.151391 
" style="fill: none; stroke-dasharray: 4.995,2.16; stroke-dashoffset: 0; stroke: #c38a19; stroke-width: 1.35"/>
   </g>
   <g id="text_20">
    <text style="font: 9.1px 'DejaVu Sans', 'Bitstream Vera Sans', 'Computer Modern Sans Serif', 'Lucida Grande', 'Verdana', 'Geneva', 'Lucid', 'Arial', 'Helvetica', 'Avant Garde', sans-serif; text-anchor: start" x="308.411234" y="407.336391" transform="rotate(-0 308.411234 407.336391)">CIE 2015 10°</text>
   </g>
   <g id="line2d_36">
    <path d="M 282.931234 417.508484 
L 292.031234 417.508484 
L 301.131234 417.508484 
" style="fill: none; stroke-dasharray: 1.35,2.2275; stroke-dashoffset: 0; stroke: #7d8a92; stroke-width: 1.35"/>
   </g>
   <g id="text_21">
    <text style="font: 9.1px 'DejaVu Sans', 'Bitstream Vera Sans', 'Computer Modern Sans Serif', 'Lucida Grande', 'Verdana', 'Geneva', 'Lucid', 'Arial', 'Helvetica', 'Avant Garde', sans-serif; text-anchor: start" x="308.411234" y="420.693484" transform="rotate(-0 308.411234 420.693484)">CIE 1964 10°</text>
   </g>
   <g id="line2d_37">
    <path d="M 386.473594 404.151391 
L 395.573594 404.151391 
L 404.673594 404.151391 
" style="fill: none; stroke-dasharray: 8.64,2.16,1.35,2.16; stroke-dashoffset: 0; stroke: #d0526a; stroke-width: 1.35"/>
   </g>
   <g id="text_22">
    <text style="font: 9.1px 'DejaVu Sans', 'Bitstream Vera Sans', 'Computer Modern Sans Serif', 'Lucida Grande', 'Verdana', 'Geneva', 'Lucid', 'Arial', 'Helvetica', 'Avant Garde', sans-serif; text-anchor: start" x="411.953594" y="407.336391" transform="rotate(-0 411.953594 407.336391)">CIE 1931 2°</text>
   </g>
   <g id="line2d_38">
    <path d="M 386.473594 417.508484 
L 395.573594 417.508484 
L 404.673594 417.508484 
" style="fill: none; stroke-dasharray: 6.75,2.7,1.35,2.7; stroke-dashoffset: 0; stroke: #2f8f84; stroke-width: 1.35"/>
   </g>
   <g id="text_23">
    <text style="font: 9.1px 'DejaVu Sans', 'Bitstream Vera Sans', 'Computer Modern Sans Serif', 'Lucida Grande', 'Verdana', 'Geneva', 'Lucid', 'Arial', 'Helvetica', 'Avant Garde', sans-serif; text-anchor: start" x="411.953594" y="420.693484" transform="rotate(-0 411.953594 420.693484)">Judd–Vos 1978 2°</text>
   </g>
  </g>
 </g>
 <defs>
  <clipPath id="p0bb1c88de8">
   <rect x="74.448" y="93.744" width="568.512" height="254.448"/>
  </clipPath>
 </defs>
</svg>
