<?xml version="1.0" encoding="utf-8" standalone="no"?>
<!DOCTYPE svg PUBLIC "-//W3C//DTD SVG 1.1//EN"
  "http://www.w3.org/Graphics/SVG/1.1/DTD/svg11.dtd">
<svg xmlns:xlink="http://www.w3.org/1999/xlink" width="676.8pt" height="446.4pt" viewBox="0 0 676.8 446.4" xmlns="http://www.w3.org/2000/svg" version="1.1">
 <metadata>
  <rdf:RDF xmlns:dc="http://purl.org/dc/elements/1.1/" xmlns:cc="http://creativecommons.org/ns#" xmlns:rdf="http://www.w3.org/1999/02/22-rdf-syntax-ns#">
   <cc:Work>
    <dc:type rdf:resource="http://purl.org/dc/dcmitype/StillImage"/>
    <dc:date>2026-07-20T06:42:00.706720</dc:date>
    <dc:format>image/svg+xml</dc:format>
    <dc:creator>
     <cc:Agent>
      <dc:title>Matplotlib v3.9.4, https://matplotlib.org/</dc:title>
     </cc:Agent>
    </dc:creator>
   </cc:Work>
  </rdf:RDF>
 </metadata>
 <defs>
  <style type="text/css">*{stroke-linejoin: round; stroke-linecap: butt}</style>
 </defs>
 <g id="figure_1">
  <g id="patch_1">
   <path d="M 0 446.4 
L 676.8 446.4 
L 676.8 0 
L 0 0 
z
" style="fill: #ffffff"/>
  </g>
  <g id="axes_1">
   <g id="patch_2">
    <path d="M 74.448 348.192 
L 642.96 348.192 
L 642.96 93.744 
L 74.448 93.744 
z
" style="fill: #ffffff"/>
   </g>
   <g id="patch_3">
    <path d="M 169.2 348.192 
L 358.704 348.192 
L 358.704 93.744 
L 169.2 93.744 
z
" clip-path="url(#p97e08babc8)" style="fill: #e7f0ea; opacity: 0.58; stroke: #e7f0ea; stroke-linejoin: miter"/>
   </g>
   <g id="matplotlib.axis_1">
    <g id="xtick_1">
     <g id="line2d_1">
      <path d="M 74.448 348.192 
L 74.448 93.744 
" clip-path="url(#p97e08babc8)" style="fill: none; stroke: #dfe5e8; stroke-width: 0.65; stroke-linecap: square"/>
     </g>
     <g id="line2d_2">
      <defs>
       <path id="m5e59a0483e" d="M 0 0 
L 0 3.5 
" style="stroke: #000000; stroke-width: 0.8"/>
      </defs>
      <g>
       <use xlink:href="#m5e59a0483e" x="74.448" y="348.192" style="stroke: #000000; stroke-width: 0.8"/>
      </g>
     </g>
     <g id="text_1">
      <text style="font: 10px 'DejaVu Sans', 'Bitstream Vera Sans', 'Computer Modern Sans Serif', 'Lucida Grande', 'Verdana', 'Geneva', 'Lucid', 'Arial', 'Helvetica', 'Avant Garde', sans-serif; text-anchor: middle" x="74.448" y="362.790438" transform="rotate(-0 74.448 362.790438)">0</text>
     </g>
    </g>
    <g id="xtick_2">
     <g id="line2d_3">
      <path d="M 169.2 348.192 
L 169.2 93.744 
" clip-path="url(#p97e08babc8)" style="fill: none; stroke: #dfe5e8; stroke-width: 0.65; stroke-linecap: square"/>
     </g>
     <g id="line2d_4">
      <g>
       <use xlink:href="#m5e59a0483e" x="169.2" y="348.192" style="stroke: #000000; stroke-width: 0.8"/>
      </g>
     </g>
     <g id="text_2">
      <text style="font: 10px 'DejaVu Sans', 'Bitstream Vera Sans', 'Computer Modern Sans Serif', 'Lucida Grande', 'Verdana', 'Geneva', 'Lucid', 'Arial', 'Helvetica', 'Avant Garde', sans-serif; text-anchor: middle" x="169.2" y="362.790438" transform="rotate(-0 169.2 362.790438)">1</text>
     </g>
    </g>
    <g id="xtick_3">
     <g id="line2d_5">
      <path d="M 263.952 348.192 
L 263.952 93.744 
" clip-path="url(#p97e08babc8)" style="fill: none; stroke: #dfe5e8; stroke-width: 0.65; stroke-linecap: square"/>
     </g>
     <g id="line2d_6">
      <g>
       <use xlink:href="#m5e59a0483e" x="263.952" y="348.192" style="stroke: #000000; stroke-width: 0.8"/>
      </g>
     </g>
     <g id="text_3">
      <text style="font: 10px 'DejaVu Sans', 'Bitstream Vera Sans', 'Computer Modern Sans Serif', 'Lucida Grande', 'Verdana', 'Geneva', 'Lucid', 'Arial', 'Helvetica', 'Avant Garde', sans-serif; text-anchor: middle" x="263.952" y="362.790438" transform="rotate(-0 263.952 362.790438)">2</text>
     </g>
    </g>
    <g id="xtick_4">
     <g id="line2d_7">
      <path d="M 358.704 348.192 
L 358.704 93.744 
" clip-path="url(#p97e08babc8)" style="fill: none; stroke: #dfe5e8; stroke-width: 0.65; stroke-linecap: square"/>
     </g>
     <g id="line2d_8">
      <g>
       <use xlink:href="#m5e59a0483e" x="358.704" y="348.192" style="stroke: #000000; stroke-width: 0.8"/>
      </g>
     </g>
     <g id="text_4">
      <text style="font: 10px 'DejaVu Sans', 'Bitstream Vera Sans', 'Computer Modern Sans Serif', 'Lucida Grande', 'Verdana', 'Geneva', 'Lucid', 'Arial', 'Helvetica', 'Avant Garde', sans-serif; text-anchor: middle" x="358.704" y="362.790438" transform="rotate(-0 358.704 362.790438)">3</text>
     </g>
    </g>
    <g id="xtick_5">
     <g id="line2d_9">
      <path d="M 453.456 348.192 
L 453.456 93.744 
" clip-path="url(#p97e08babc8)" style="fill: none; stroke: #dfe5e8; stroke-width: 0.65; stroke-linecap: square"/>
     </g>
     <g id="line2d_10">
      <g>
       <use xlink:href="#m5e59a0483e" x="453.456" y="348.192" style="stroke: #000000; stroke-width: 0.8"/>
      </g>
     </g>
     <g id="text_5">
      <text style="font: 10px 'DejaVu Sans', 'Bitstream Vera Sans', 'Computer Modern Sans Serif', 'Lucida Grande', 'Verdana', 'Geneva', 'Lucid', 'Arial', 'Helvetica', 'Avant Garde', sans-serif; text-anchor: middle" x="453.456" y="362.790438" transform="rotate(-0 453.456 362.790438)">4</text>
     </g>
    </g>
    <g id="xtick_6">
     <g id="line2d_11">
      <path d="M 548.208 348.192 
L 548.208 93.744 
" clip-path="url(#p97e08babc8)" style="fill: none; stroke: #dfe5e8; stroke-width: 0.65; stroke-linecap: square"/>
     </g>
     <g id="line2d_12">
      <g>
       <use xlink:href="#m5e59a0483e" x="548.208" y="348.192" style="stroke: #000000; stroke-width: 0.8"/>
      </g>
     </g>
     <g id="text_6">
      <text style="font: 10px 'DejaVu Sans', 'Bitstream Vera Sans', 'Computer Modern Sans Serif', 'Lucida Grande', 'Verdana', 'Geneva', 'Lucid', 'Arial', 'Helvetica', 'Avant Garde', sans-serif; text-anchor: middle" x="548.208" y="362.790438" transform="rotate(-0 548.208 362.790438)">5</text>
     </g>
    </g>
    <g id="xtick_7">
     <g id="line2d_13">
      <path d="M 642.96 348.192 
L 642.96 93.744 
" clip-path="url(#p97e08babc8)" style="fill: none; stroke: #dfe5e8; stroke-width: 0.65; stroke-linecap: square"/>
     </g>
     <g id="line2d_14">
      <g>
       <use xlink:href="#m5e59a0483e" x="642.96" y="348.192" style="stroke: #000000; stroke-width: 0.8"/>
      </g>
     </g>
     <g id="text_7">
      <text style="font: 10px 'DejaVu Sans', 'Bitstream Vera Sans', 'Computer Modern Sans Serif', 'Lucida Grande', 'Verdana', 'Geneva', 'Lucid', 'Arial', 'Helvetica', 'Avant Garde', sans-serif; text-anchor: middle" x="642.96" y="362.790438" transform="rotate(-0 642.96 362.790438)">6</text>
     </g>
    </g>
    <g id="text_8">
     <text style="font: 10px 'DejaVu Sans', 'Bitstream Vera Sans', 'Computer Modern Sans Serif', 'Lucida Grande', 'Verdana', 'Geneva', 'Lucid', 'Arial', 'Helvetica', 'Avant Garde', sans-serif; text-anchor: middle" x="358.704" y="376.468563" transform="rotate(-0 358.704 376.468563)">sUCS dE threshold</text>
    </g>
   </g>
   <g id="matplotlib.axis_2">
    <g id="ytick_1">
     <g id="line2d_15">
      <path d="M 74.448 348.192 
L 642.96 348.192 
" clip-path="url(#p97e08babc8)" style="fill: none; stroke: #dfe5e8; stroke-width: 0.65; stroke-linecap: square"/>
     </g>
     <g id="line2d_16">
      <defs>
       <path id="m3b712a4e56" d="M 0 0 
L -3.5 0 
" style="stroke: #000000; stroke-width: 0.8"/>
      </defs>
      <g>
       <use xlink:href="#m3b712a4e56" x="74.448" y="348.192" style="stroke: #000000; stroke-width: 0.8"/>
      </g>
     </g>
     <g id="text_9">
      <text style="font: 10px 'DejaVu Sans', 'Bitstream Vera Sans', 'Computer Modern Sans Serif', 'Lucida Grande', 'Verdana', 'Geneva', 'Lucid', 'Arial', 'Helvetica', 'Avant Garde', sans-serif; text-anchor: end" x="67.448" y="351.991219" transform="rotate(-0 67.448 351.991219)">0</text>
     </g>
    </g>
    <g id="ytick_2">
     <g id="line2d_17">
      <path d="M 74.448 297.3024 
L 642.96 297.3024 
" clip-path="url(#p97e08babc8)" style="fill: none; stroke: #dfe5e8; stroke-width: 0.65; stroke-linecap: square"/>
     </g>
     <g id="line2d_18">
      <g>
       <use xlink:href="#m3b712a4e56" x="74.448" y="297.3024" style="stroke: #000000; stroke-width: 0.8"/>
      </g>
     </g>
     <g id="text_10">
      <text style="font: 10px 'DejaVu Sans', 'Bitstream Vera Sans', 'Computer Modern Sans Serif', 'Lucida Grande', 'Verdana', 'Geneva', 'Lucid', 'Arial', 'Helvetica', 'Avant Garde', sans-serif; text-anchor: end" x="67.448" y="301.101619" transform="rotate(-0 67.448 301.101619)">20</text>
     </g>
    </g>
    <g id="ytick_3">
     <g id="line2d_19">
      <path d="M 74.448 246.4128 
L 642.96 246.4128 
" clip-path="url(#p97e08babc8)" style="fill: none; stroke: #dfe5e8; stroke-width: 0.65; stroke-linecap: square"/>
     </g>
     <g id="line2d_20">
      <g>
       <use xlink:href="#m3b712a4e56" x="74.448" y="246.4128" style="stroke: #000000; stroke-width: 0.8"/>
      </g>
     </g>
     <g id="text_11">
      <text style="font: 10px 'DejaVu Sans', 'Bitstream Vera Sans', 'Computer Modern Sans Serif', 'Lucida Grande', 'Verdana', 'Geneva', 'Lucid', 'Arial', 'Helvetica', 'Avant Garde', sans-serif; text-anchor: end" x="67.448" y="250.212019" transform="rotate(-0 67.448 250.212019)">40</text>
     </g>
    </g>
    <g id="ytick_4">
     <g id="line2d_21">
      <path d="M 74.448 195.5232 
L 642.96 195.5232 
" clip-path="url(#p97e08babc8)" style="fill: none; stroke: #dfe5e8; stroke-width: 0.65; stroke-linecap: square"/>
     </g>
     <g id="line2d_22">
      <g>
       <use xlink:href="#m3b712a4e56" x="74.448" y="195.5232" style="stroke: #000000; stroke-width: 0.8"/>
      </g>
     </g>
     <g id="text_12">
      <text style="font: 10px 'DejaVu Sans', 'Bitstream Vera Sans', 'Computer Modern Sans Serif', 'Lucida Grande', 'Verdana', 'Geneva', 'Lucid', 'Arial', 'Helvetica', 'Avant Garde', sans-serif; text-anchor: end" x="67.448" y="199.322419" transform="rotate(-0 67.448 199.322419)">60</text>
     </g>
    </g>
    <g id="ytick_5">
     <g id="line2d_23">
      <path d="M 74.448 144.6336 
L 642.96 144.6336 
" clip-path="url(#p97e08babc8)" style="fill: none; stroke: #dfe5e8; stroke-width: 0.65; stroke-linecap: square"/>
     </g>
     <g id="line2d_24">
      <g>
       <use xlink:href="#m3b712a4e56" x="74.448" y="144.6336" style="stroke: #000000; stroke-width: 0.8"/>
      </g>
     </g>
     <g id="text_13">
      <text style="font: 10px 'DejaVu Sans', 'Bitstream Vera Sans', 'Computer Modern Sans Serif', 'Lucida Grande', 'Verdana', 'Geneva', 'Lucid', 'Arial', 'Helvetica', 'Avant Garde', sans-serif; text-anchor: end" x="67.448" y="148.432819" transform="rotate(-0 67.448 148.432819)">80</text>
     </g>
    </g>
    <g id="ytick_6">
     <g id="line2d_25">
      <path d="M 74.448 93.744 
L 642.96 93.744 
" clip-path="url(#p97e08babc8)" style="fill: none; stroke: #dfe5e8; stroke-width: 0.65; stroke-linecap: square"/>
     </g>
     <g id="line2d_26">
      <g>
       <use xlink:href="#m3b712a4e56" x="74.448" y="93.744" style="stroke: #000000; stroke-width: 0.8"/>
      </g>
     </g>
     <g id="text_14">
      <text style="font: 10px 'DejaVu Sans', 'Bitstream Vera Sans', 'Computer Modern Sans Serif', 'Lucida Grande', 'Verdana', 'Geneva', 'Lucid', 'Arial', 'Helvetica', 'Avant Garde', sans-serif; text-anchor: end" x="67.448" y="97.543219" transform="rotate(-0 67.448 97.543219)">100</text>
     </g>
    </g>
    <g id="text_15">
     <text style="font: 10px 'DejaVu Sans', 'Bitstream Vera Sans', 'Computer Modern Sans Serif', 'Lucida Grande', 'Verdana', 'Geneva', 'Lucid', 'Arial', 'Helvetica', 'Avant Garde', sans-serif; text-anchor: middle" x="42.280812" y="220.968" transform="rotate(-90 42.280812 220.968)">observers%</text>
    </g>
   </g>
   <g id="line2d_27">
    <path d="M 74.448 348.192 
L 95.29344 348.192 
L 100.97856 343.298769 
L 106.66368 343.298769 
L 108.55872 341.667692 
L 110.45376 341.667692 
L 116.13888 336.774462 
L 125.61408 336.774462 
L 127.50912 334.580944 
L 133.19424 329.687714 
L 136.98432 329.687714 
L 138.87936 328.056637 
L 144.56448 328.056637 
L 146.45952 325.863119 
L 148.35456 320.969889 
L 150.2496 319.338812 
L 154.03968 319.338812 
L 157.82976 316.076658 
L 159.7248 316.076658 
L 161.61984 314.445581 
L 163.51488 309.55235 
L 165.40992 304.096679 
L 167.30496 299.709645 
L 169.2 293.129093 
L 171.09504 293.129093 
L 172.99008 291.498016 
L 174.88512 288.235862 
L 176.78016 286.604785 
L 178.6752 282.780191 
L 184.36032 282.780191 
L 186.25536 281.149114 
L 188.1504 281.149114 
L 190.04544 279.518037 
L 191.94048 277.32452 
L 193.83552 277.32452 
L 195.73056 275.693443 
L 197.6256 275.693443 
L 199.52064 270.800212 
L 201.41568 270.800212 
L 203.31072 269.169135 
L 207.1008 269.169135 
L 208.99584 263.713464 
L 212.78592 263.713464 
L 214.68096 262.082387 
L 216.576 262.082387 
L 218.47104 256.064276 
L 220.36608 256.064276 
L 222.26112 254.433199 
L 224.15616 252.239682 
L 226.0512 248.415088 
L 227.94624 246.22157 
L 233.63136 241.32834 
L 237.42144 233.679151 
L 239.31648 232.048074 
L 241.21152 226.029963 
L 243.10656 224.398886 
L 246.89664 224.398886 
L 248.79168 222.767809 
L 252.58176 222.767809 
L 254.4768 221.136732 
L 256.37184 217.312138 
L 258.26688 215.118621 
L 265.84704 208.594313 
L 267.74208 205.332159 
L 269.63712 201.507565 
L 271.53216 201.507565 
L 273.4272 199.876488 
L 282.9024 199.876488 
L 286.69248 192.2273 
L 288.58752 190.596223 
L 292.3776 190.596223 
L 294.27264 186.771629 
L 296.16768 186.771629 
L 298.06272 185.140552 
L 299.95776 182.947034 
L 301.8528 181.315958 
L 303.74784 181.315958 
L 305.64288 179.684881 
L 315.11808 179.684881 
L 317.01312 177.491363 
L 320.8032 177.491363 
L 322.69824 174.22921 
L 324.59328 174.22921 
L 326.48832 172.035692 
L 328.38336 166.580021 
L 330.2784 164.386504 
L 332.17344 164.386504 
L 334.06848 162.192987 
L 339.7536 162.192987 
L 343.54368 157.805952 
L 347.33376 157.805952 
L 349.2288 153.418918 
L 362.49408 153.418918 
L 364.38912 151.225401 
L 366.28416 151.225401 
L 368.1792 149.031883 
L 375.75936 149.031883 
L 377.6544 146.838366 
L 381.44448 146.838366 
L 383.33952 145.207289 
L 400.39488 145.207289 
L 402.28992 141.382695 
L 404.18496 136.99566 
L 411.76512 136.99566 
L 415.5552 132.608626 
L 443.9808 132.608626 
L 445.87584 130.977549 
L 447.77088 130.977549 
L 449.66592 129.346472 
L 457.24608 129.346472 
L 459.14112 127.152955 
L 468.61632 127.152955 
L 470.51136 125.521878 
L 474.30144 121.134844 
L 478.09152 121.134844 
L 479.98656 114.554292 
L 487.56672 114.554292 
L 489.46176 112.360775 
L 506.51712 112.360775 
L 508.41216 110.167257 
L 510.3072 110.167257 
L 512.20224 108.53618 
L 515.99232 108.53618 
L 517.88736 106.342663 
L 521.67744 106.342663 
L 523.57248 104.149146 
L 525.46752 104.149146 
L 527.36256 101.955629 
L 540.62784 101.955629 
L 542.52288 99.762111 
L 578.52864 99.762111 
L 580.42368 98.131034 
L 629.69472 98.131034 
L 631.58976 95.937517 
L 642.96 95.937517 
L 642.96 95.937517 
" clip-path="url(#p97e08babc8)" style="fill: none; stroke: #252525; stroke-width: 2.5; stroke-linecap: square"/>
   </g>
   <g id="line2d_28">
    <path d="M 74.448 348.192 
L 89.60832 348.192 
L 91.50336 345.998483 
L 97.18848 345.998483 
L 99.08352 344.367406 
L 108.55872 344.367406 
L 110.45376 339.980371 
L 119.92896 339.980371 
L 121.824 337.786854 
L 125.61408 337.786854 
L 127.50912 335.593337 
L 140.7744 335.593337 
L 142.66944 333.96226 
L 144.56448 333.96226 
L 146.45952 331.768743 
L 152.14464 331.768743 
L 154.03968 329.575225 
L 159.7248 329.575225 
L 161.61984 327.381708 
L 165.40992 327.381708 
L 167.30496 325.188191 
L 169.2 325.188191 
L 171.09504 322.994674 
L 172.99008 322.994674 
L 174.88512 320.801156 
L 176.78016 320.801156 
L 178.6752 319.17008 
L 190.04544 319.17008 
L 191.94048 316.976562 
L 193.83552 313.151968 
L 195.73056 311.520891 
L 197.6256 311.520891 
L 199.52064 309.327374 
L 201.41568 309.327374 
L 203.31072 303.309263 
L 207.1008 303.309263 
L 208.99584 297.291151 
L 210.89088 295.660074 
L 212.78592 295.660074 
L 214.68096 294.028997 
L 216.576 294.028997 
L 220.36608 286.379809 
L 222.26112 286.379809 
L 224.15616 284.748732 
L 226.0512 278.730621 
L 227.94624 276.537103 
L 229.84128 276.537103 
L 231.73632 274.906027 
L 233.63136 272.712509 
L 235.5264 268.887915 
L 237.42144 265.625761 
L 239.31648 265.625761 
L 241.21152 263.432244 
L 243.10656 257.414133 
L 245.0016 257.414133 
L 246.89664 255.783056 
L 250.68672 255.783056 
L 252.58176 250.327385 
L 254.4768 250.327385 
L 256.37184 248.133867 
L 258.26688 246.50279 
L 260.16192 242.115756 
L 262.05696 240.484679 
L 263.952 238.291162 
L 267.74208 238.291162 
L 269.63712 235.029008 
L 271.53216 235.029008 
L 273.4272 233.397931 
L 275.32224 233.397931 
L 277.21728 231.766854 
L 279.11232 231.766854 
L 282.9024 228.5047 
L 284.79744 225.242546 
L 286.69248 220.855512 
L 288.58752 218.661995 
L 290.48256 217.030918 
L 292.3776 214.837401 
L 299.95776 214.837401 
L 301.8528 211.575247 
L 303.74784 211.575247 
L 305.64288 209.381729 
L 307.53792 207.750653 
L 309.43296 207.750653 
L 311.328 206.119576 
L 315.11808 206.119576 
L 317.01312 204.488499 
L 318.90816 200.663905 
L 320.8032 199.032828 
L 322.69824 195.208233 
L 326.48832 191.94608 
L 328.38336 188.683926 
L 330.2784 186.490408 
L 332.17344 184.859332 
L 337.85856 184.859332 
L 339.7536 182.665814 
L 341.64864 176.141507 
L 345.43872 176.141507 
L 347.33376 174.51043 
L 349.2288 174.51043 
L 351.12384 170.123395 
L 353.01888 170.123395 
L 354.91392 167.929878 
L 356.80896 160.84313 
L 370.07424 160.84313 
L 371.96928 159.212053 
L 375.75936 159.212053 
L 377.6544 157.580976 
L 379.54944 155.387459 
L 381.44448 155.387459 
L 383.33952 153.756382 
L 385.23456 149.369347 
L 387.1296 145.544753 
L 389.02464 145.544753 
L 390.91968 143.913676 
L 392.81472 143.913676 
L 394.70976 142.282599 
L 396.6048 142.282599 
L 398.49984 139.020446 
L 400.39488 137.389369 
L 402.28992 137.389369 
L 404.18496 135.758292 
L 406.08 130.865061 
L 421.24032 130.865061 
L 423.13536 129.233984 
L 425.0304 127.040467 
L 428.82048 127.040467 
L 430.71552 123.215873 
L 432.61056 123.215873 
L 436.40064 119.953719 
L 440.19072 119.953719 
L 443.9808 116.691565 
L 470.51136 116.691565 
L 472.4064 112.866971 
L 479.98656 112.866971 
L 481.8816 111.235894 
L 491.3568 111.235894 
L 493.25184 109.042377 
L 495.14688 107.4113 
L 508.41216 107.4113 
L 512.20224 104.149146 
L 565.26336 104.149146 
L 567.1584 101.955629 
L 612.63936 101.955629 
L 614.5344 99.762111 
L 627.79968 99.762111 
L 629.69472 98.131034 
L 642.96 98.131034 
L 642.96 98.131034 
" clip-path="url(#p97e08babc8)" style="fill: none; stroke: #3b83b4; stroke-width: 1.35; stroke-linecap: square"/>
   </g>
   <g id="line2d_29">
    <path d="M 74.448 348.192 
L 80.13312 348.192 
L 82.02816 346.560923 
L 95.29344 346.560923 
L 97.18848 341.667692 
L 112.3488 341.667692 
L 114.24384 337.843098 
L 116.13888 337.843098 
L 119.92896 334.580944 
L 121.824 331.31879 
L 123.71904 329.687714 
L 125.61408 329.687714 
L 127.50912 328.056637 
L 142.66944 328.056637 
L 144.56448 326.42556 
L 150.2496 326.42556 
L 152.14464 324.794483 
L 154.03968 319.901252 
L 157.82976 319.901252 
L 161.61984 315.514218 
L 163.51488 313.883141 
L 165.40992 310.620987 
L 167.30496 305.727756 
L 171.09504 302.465602 
L 172.99008 302.465602 
L 174.88512 300.834525 
L 176.78016 300.834525 
L 178.6752 295.941294 
L 180.57024 295.941294 
L 182.46528 287.167225 
L 184.36032 284.973708 
L 186.25536 281.711554 
L 188.1504 279.518037 
L 190.04544 279.518037 
L 191.94048 277.88696 
L 193.83552 274.624806 
L 203.31072 274.624806 
L 205.20576 271.362653 
L 207.1008 267.538058 
L 210.89088 264.275905 
L 212.78592 264.275905 
L 216.576 261.013751 
L 218.47104 261.013751 
L 220.36608 259.382674 
L 222.26112 259.382674 
L 224.15616 252.802122 
L 229.84128 252.802122 
L 231.73632 247.908891 
L 233.63136 245.715374 
L 235.5264 245.715374 
L 237.42144 241.89078 
L 239.31648 239.697263 
L 241.21152 230.416997 
L 243.10656 230.416997 
L 245.0016 228.78592 
L 246.89664 226.592403 
L 248.79168 223.330249 
L 250.68672 221.699172 
L 252.58176 217.874578 
L 254.4768 216.243501 
L 256.37184 214.049984 
L 258.26688 212.418907 
L 271.53216 212.418907 
L 273.4272 205.332159 
L 275.32224 205.332159 
L 277.21728 203.701082 
L 281.00736 203.701082 
L 282.9024 199.876488 
L 284.79744 195.489454 
L 286.69248 195.489454 
L 290.48256 192.2273 
L 292.3776 188.402706 
L 294.27264 188.402706 
L 296.16768 186.771629 
L 307.53792 186.771629 
L 309.43296 182.947034 
L 311.328 182.947034 
L 313.22304 181.315958 
L 315.11808 181.315958 
L 317.01312 179.684881 
L 320.8032 179.684881 
L 322.69824 177.491363 
L 326.48832 177.491363 
L 328.38336 175.860286 
L 334.06848 175.860286 
L 337.85856 172.598133 
L 339.7536 172.598133 
L 341.64864 166.580021 
L 349.2288 157.805952 
L 356.80896 157.805952 
L 360.59904 153.418918 
L 371.96928 153.418918 
L 373.86432 149.031883 
L 375.75936 146.838366 
L 394.70976 146.838366 
L 396.6048 145.207289 
L 407.97504 145.207289 
L 411.76512 140.820255 
L 413.66016 140.820255 
L 415.5552 139.189178 
L 417.45024 134.802143 
L 419.34528 132.608626 
L 428.82048 132.608626 
L 430.71552 130.977549 
L 434.5056 130.977549 
L 436.40064 129.346472 
L 453.456 129.346472 
L 455.35104 127.152955 
L 457.24608 125.521878 
L 464.82624 125.521878 
L 466.72128 123.328361 
L 468.61632 123.328361 
L 470.51136 121.134844 
L 472.4064 121.134844 
L 474.30144 118.941326 
L 476.19648 118.941326 
L 478.09152 116.747809 
L 489.46176 116.747809 
L 491.3568 114.554292 
L 502.72704 114.554292 
L 504.62208 110.167257 
L 515.99232 110.167257 
L 521.67744 103.586706 
L 523.57248 101.955629 
L 533.04768 101.955629 
L 534.94272 99.762111 
L 567.1584 99.762111 
L 569.05344 98.131034 
L 642.96 98.131034 
L 642.96 98.131034 
" clip-path="url(#p97e08babc8)" style="fill: none; stroke-dasharray: 4.995,2.16; stroke-dashoffset: 0; stroke: #c38a19; stroke-width: 1.35"/>
   </g>
   <g id="line2d_30">
    <path d="M 74.448 348.192 
L 102.8736 348.192 
L 104.76864 346.560923 
L 110.45376 346.560923 
L 112.3488 343.298769 
L 114.24384 341.667692 
L 118.03392 341.667692 
L 119.92896 339.474175 
L 121.824 337.843098 
L 127.50912 337.843098 
L 129.40416 334.580944 
L 131.2992 332.949867 
L 135.08928 332.949867 
L 136.98432 331.31879 
L 138.87936 331.31879 
L 140.7744 329.687714 
L 144.56448 329.687714 
L 146.45952 328.056637 
L 150.2496 323.669602 
L 155.93472 323.669602 
L 157.82976 319.845008 
L 159.7248 318.213931 
L 161.61984 314.389337 
L 165.40992 311.127183 
L 169.2 311.127183 
L 171.09504 309.496106 
L 174.88512 309.496106 
L 176.78016 307.865029 
L 178.6752 305.671512 
L 180.57024 297.459883 
L 182.46528 297.459883 
L 184.36032 289.810695 
L 190.04544 289.810695 
L 191.94048 285.986101 
L 193.83552 285.986101 
L 195.73056 282.161507 
L 199.52064 275.637199 
L 201.41568 271.812605 
L 203.31072 269.619088 
L 207.1008 263.09478 
L 208.99584 259.270186 
L 210.89088 259.270186 
L 212.78592 253.252074 
L 216.576 249.98992 
L 218.47104 246.727767 
L 220.36608 246.727767 
L 224.15616 243.465613 
L 226.0512 236.378865 
L 227.94624 234.747788 
L 233.63136 234.747788 
L 235.5264 233.116711 
L 237.42144 233.116711 
L 239.31648 229.292117 
L 241.21152 229.292117 
L 243.10656 225.467523 
L 245.0016 223.836446 
L 248.79168 223.836446 
L 250.68672 222.205369 
L 252.58176 222.205369 
L 254.4768 220.574292 
L 256.37184 218.380775 
L 258.26688 218.380775 
L 262.05696 215.118621 
L 263.952 210.731586 
L 269.63712 210.731586 
L 271.53216 208.538069 
L 273.4272 208.538069 
L 275.32224 206.906992 
L 279.11232 206.906992 
L 281.00736 203.082398 
L 282.9024 203.082398 
L 284.79744 197.626727 
L 286.69248 197.626727 
L 292.3776 192.733496 
L 298.06272 192.733496 
L 299.95776 190.539979 
L 301.8528 186.715385 
L 303.74784 186.715385 
L 305.64288 182.32835 
L 307.53792 182.32835 
L 311.328 179.066196 
L 315.11808 179.066196 
L 318.90816 174.679162 
L 320.8032 170.854568 
L 322.69824 169.223491 
L 324.59328 169.223491 
L 326.48832 165.398897 
L 328.38336 165.398897 
L 330.2784 163.76782 
L 332.17344 161.574302 
L 334.06848 157.749708 
L 354.91392 157.749708 
L 356.80896 151.731597 
L 358.704 151.731597 
L 360.59904 150.10052 
L 362.49408 147.907003 
L 366.28416 147.907003 
L 370.07424 140.257814 
L 409.87008 140.257814 
L 411.76512 138.064297 
L 415.5552 138.064297 
L 421.24032 133.171066 
L 425.0304 133.171066 
L 426.92544 128.784032 
L 430.71552 124.396997 
L 432.61056 124.396997 
L 434.5056 120.572403 
L 436.40064 118.941326 
L 438.29568 116.747809 
L 459.14112 116.747809 
L 461.03616 114.554292 
L 470.51136 114.554292 
L 472.4064 112.360775 
L 478.09152 112.360775 
L 481.8816 107.97374 
L 498.93696 107.97374 
L 500.832 105.780223 
L 514.09728 105.780223 
L 515.99232 103.586706 
L 517.88736 103.586706 
L 519.7824 101.393188 
L 546.31296 101.393188 
L 548.208 98.131034 
L 642.96 98.131034 
L 642.96 98.131034 
" clip-path="url(#p97e08babc8)" style="fill: none; stroke-dasharray: 1.35,2.2275; stroke-dashoffset: 0; stroke: #7d8a92; stroke-width: 1.35"/>
   </g>
   <g id="line2d_31">
    <path d="M 74.448 348.192 
L 118.03392 348.192 
L 119.92896 345.998483 
L 129.40416 345.998483 
L 131.2992 343.804966 
L 138.87936 343.804966 
L 140.7744 341.611448 
L 144.56448 341.611448 
L 146.45952 339.417931 
L 155.93472 339.417931 
L 157.82976 335.030897 
L 178.6752 335.030897 
L 180.57024 332.837379 
L 182.46528 332.837379 
L 186.25536 328.450345 
L 188.1504 328.450345 
L 190.04544 326.256828 
L 195.73056 326.256828 
L 201.41568 319.676276 
L 205.20576 319.676276 
L 207.1008 318.045199 
L 208.99584 315.851682 
L 210.89088 315.851682 
L 212.78592 311.464647 
L 214.68096 311.464647 
L 216.576 309.27113 
L 220.36608 309.27113 
L 222.26112 307.077613 
L 231.73632 307.077613 
L 233.63136 304.884095 
L 237.42144 304.884095 
L 239.31648 302.690578 
L 241.21152 302.690578 
L 243.10656 301.059501 
L 245.0016 298.865984 
L 250.68672 298.865984 
L 252.58176 296.672467 
L 254.4768 296.672467 
L 256.37184 292.847873 
L 267.74208 292.847873 
L 269.63712 286.829761 
L 271.53216 286.829761 
L 273.4272 284.636244 
L 277.21728 284.636244 
L 279.11232 282.442727 
L 281.00736 282.442727 
L 284.79744 279.180573 
L 286.69248 279.180573 
L 288.58752 274.793538 
L 294.27264 274.793538 
L 296.16768 272.600021 
L 298.06272 270.968944 
L 299.95776 267.14435 
L 301.8528 264.950833 
L 303.74784 264.950833 
L 305.64288 260.057602 
L 307.53792 257.864085 
L 309.43296 254.039491 
L 311.328 251.845973 
L 313.22304 251.845973 
L 315.11808 248.021379 
L 317.01312 248.021379 
L 318.90816 245.827862 
L 320.8032 245.827862 
L 322.69824 242.003268 
L 324.59328 242.003268 
L 326.48832 238.741114 
L 330.2784 238.741114 
L 332.17344 236.547597 
L 334.06848 236.547597 
L 337.85856 233.285443 
L 339.7536 233.285443 
L 341.64864 226.198695 
L 343.54368 224.567618 
L 345.43872 224.567618 
L 347.33376 222.374101 
L 353.01888 222.374101 
L 354.91392 218.549507 
L 356.80896 218.549507 
L 358.704 216.355989 
L 360.59904 216.355989 
L 362.49408 214.162472 
L 364.38912 214.162472 
L 366.28416 212.531395 
L 368.1792 212.531395 
L 370.07424 210.900318 
L 373.86432 210.900318 
L 377.6544 204.376011 
L 379.54944 204.376011 
L 381.44448 202.182493 
L 383.33952 202.182493 
L 385.23456 199.988976 
L 387.1296 199.988976 
L 389.02464 196.726822 
L 390.91968 196.726822 
L 392.81472 194.533305 
L 394.70976 194.533305 
L 398.49984 191.271151 
L 404.18496 191.271151 
L 406.08 186.37792 
L 407.97504 186.37792 
L 411.76512 183.115767 
L 415.5552 183.115767 
L 417.45024 181.48469 
L 421.24032 181.48469 
L 423.13536 179.853613 
L 425.0304 176.591459 
L 426.92544 172.766865 
L 428.82048 169.504711 
L 434.5056 164.61148 
L 438.29568 164.61148 
L 440.19072 162.980403 
L 447.77088 162.980403 
L 449.66592 158.087172 
L 453.456 153.700138 
L 457.24608 153.700138 
L 459.14112 148.806907 
L 462.9312 148.806907 
L 464.82624 145.544753 
L 478.09152 145.544753 
L 479.98656 141.720159 
L 481.8816 138.458005 
L 483.77664 138.458005 
L 485.67168 136.826928 
L 493.25184 136.826928 
L 495.14688 133.564775 
L 497.04192 133.564775 
L 498.93696 131.933698 
L 500.832 131.933698 
L 502.72704 130.302621 
L 504.62208 127.040467 
L 512.20224 127.040467 
L 514.09728 125.40939 
L 515.99232 125.40939 
L 517.88736 123.215873 
L 523.57248 123.215873 
L 525.46752 121.584796 
L 527.36256 121.584796 
L 531.15264 118.322642 
L 533.04768 118.322642 
L 534.94272 116.691565 
L 540.62784 116.691565 
L 542.52288 114.498048 
L 546.31296 114.498048 
L 548.208 112.866971 
L 569.05344 112.866971 
L 570.94848 109.042377 
L 580.42368 109.042377 
L 582.31872 107.4113 
L 586.1088 107.4113 
L 588.00384 105.780223 
L 593.68896 105.780223 
L 595.584 104.149146 
L 620.21952 104.149146 
L 622.11456 101.955629 
L 635.37984 101.955629 
L 637.27488 99.762111 
L 642.96 99.762111 
L 642.96 99.762111 
" clip-path="url(#p97e08babc8)" style="fill: none; stroke-dasharray: 8.64,2.16,1.35,2.16; stroke-dashoffset: 0; stroke: #d0526a; stroke-width: 1.35"/>
   </g>
   <g id="line2d_32">
    <path d="M 74.448 348.192 
L 110.45376 348.192 
L 112.3488 345.998483 
L 154.03968 345.998483 
L 155.93472 343.804966 
L 169.2 343.804966 
L 171.09504 339.417931 
L 176.78016 339.417931 
L 178.6752 337.224414 
L 182.46528 337.224414 
L 184.36032 335.030897 
L 188.1504 335.030897 
L 190.04544 332.837379 
L 191.94048 326.256828 
L 208.99584 326.256828 
L 210.89088 324.06331 
L 222.26112 324.06331 
L 224.15616 321.869793 
L 227.94624 321.869793 
L 229.84128 319.676276 
L 237.42144 319.676276 
L 241.21152 315.289241 
L 252.58176 315.289241 
L 254.4768 313.095724 
L 258.26688 313.095724 
L 260.16192 310.902207 
L 265.84704 310.902207 
L 267.74208 308.70869 
L 269.63712 304.321655 
L 273.4272 299.934621 
L 277.21728 299.934621 
L 279.11232 293.354069 
L 281.00736 293.354069 
L 282.9024 291.722992 
L 290.48256 291.722992 
L 292.3776 289.529475 
L 296.16768 289.529475 
L 299.95776 285.14244 
L 307.53792 285.14244 
L 309.43296 282.948923 
L 311.328 281.317846 
L 315.11808 281.317846 
L 318.90816 278.055692 
L 322.69824 278.055692 
L 324.59328 276.424615 
L 334.06848 276.424615 
L 335.96352 274.793538 
L 341.64864 274.793538 
L 343.54368 272.600021 
L 345.43872 272.600021 
L 347.33376 270.406504 
L 349.2288 266.58191 
L 351.12384 266.58191 
L 353.01888 264.388393 
L 356.80896 264.388393 
L 360.59904 261.126239 
L 362.49408 261.126239 
L 364.38912 259.495162 
L 366.28416 259.495162 
L 368.1792 257.864085 
L 370.07424 254.601931 
L 371.96928 252.970854 
L 373.86432 250.777337 
L 375.75936 250.777337 
L 377.6544 246.390302 
L 379.54944 246.390302 
L 381.44448 244.759225 
L 383.33952 240.372191 
L 385.23456 240.372191 
L 387.1296 238.178674 
L 392.81472 238.178674 
L 396.6048 234.91652 
L 398.49984 232.723003 
L 400.39488 229.460849 
L 402.28992 229.460849 
L 407.97504 224.567618 
L 411.76512 224.567618 
L 413.66016 222.374101 
L 415.5552 220.743024 
L 417.45024 220.743024 
L 419.34528 216.91843 
L 425.0304 216.91843 
L 426.92544 215.287353 
L 428.82048 215.287353 
L 430.71552 213.093836 
L 432.61056 211.462759 
L 434.5056 211.462759 
L 436.40064 206.007088 
L 438.29568 202.182493 
L 442.08576 202.182493 
L 443.9808 200.551416 
L 447.77088 200.551416 
L 451.56096 197.289263 
L 459.14112 197.289263 
L 461.03616 195.095745 
L 464.82624 191.833592 
L 466.72128 191.833592 
L 468.61632 189.640074 
L 470.51136 188.008997 
L 474.30144 188.008997 
L 485.67168 178.222536 
L 487.56672 178.222536 
L 489.46176 176.591459 
L 491.3568 173.329305 
L 493.25184 173.329305 
L 495.14688 171.698228 
L 497.04192 171.698228 
L 498.93696 170.067151 
L 500.832 170.067151 
L 502.72704 168.436074 
L 504.62208 166.242557 
L 506.51712 162.980403 
L 508.41216 162.980403 
L 512.20224 159.718249 
L 514.09728 159.718249 
L 517.88736 156.456095 
L 519.7824 153.193942 
L 521.67744 153.193942 
L 523.57248 149.369347 
L 527.36256 149.369347 
L 529.2576 147.17583 
L 531.15264 147.17583 
L 533.04768 145.544753 
L 536.83776 145.544753 
L 538.7328 143.913676 
L 551.99808 143.913676 
L 553.89312 142.282599 
L 555.78816 140.089082 
L 557.6832 136.826928 
L 561.47328 136.826928 
L 563.36832 133.002334 
L 567.1584 133.002334 
L 569.05344 131.371257 
L 570.94848 131.371257 
L 574.73856 128.109103 
L 576.6336 128.109103 
L 580.42368 124.84695 
L 586.1088 124.84695 
L 588.00384 123.215873 
L 589.89888 123.215873 
L 591.79392 121.022355 
L 599.37408 121.022355 
L 605.0592 116.129125 
L 608.84928 116.129125 
L 610.74432 114.498048 
L 612.63936 114.498048 
L 614.5344 112.304531 
L 622.11456 112.304531 
L 624.0096 110.673454 
L 642.96 110.673454 
L 642.96 110.673454 
" clip-path="url(#p97e08babc8)" style="fill: none; stroke-dasharray: 6.75,2.7,1.35,2.7; stroke-dashoffset: 0; stroke: #2f8f84; stroke-width: 1.35"/>
   </g>
   <g id="patch_4">
    <path d="M 74.448 348.192 
L 74.448 93.744 
" style="fill: none; stroke: #000000; stroke-width: 0.8; stroke-linejoin: miter; stroke-linecap: square"/>
   </g>
   <g id="patch_5">
    <path d="M 74.448 348.192 
L 642.96 348.192 
" style="fill: none; stroke: #000000; stroke-width: 0.8; stroke-linejoin: miter; stroke-linecap: square"/>
   </g>
  </g>
  <g id="text_16">
   <text style="font: 18px 'DejaVu Sans', 'Bitstream Vera Sans', 'Computer Modern Sans Serif', 'Lucida Grande', 'Verdana', 'Geneva', 'Lucid', 'Arial', 'Helvetica', 'Avant Garde', sans-serif; text-anchor: start" x="74.448" y="38.229188" transform="rotate(-0 74.448 38.229188)">WLED LCD → QD-OLED</text>
  </g>
  <g id="text_17">
   <text style="fill: #66747c; font: 10px 'DejaVu Sans', 'Bitstream Vera Sans', 'Computer Modern Sans Serif', 'Lucida Grande', 'Verdana', 'Geneva', 'Lucid', 'Arial', 'Helvetica', 'Avant Garde', sans-serif; text-anchor: start" x="74.448" y="64.728" transform="rotate(-0 74.448 64.728)">D55</text>
  </g>
  <g id="legend_1">
   <g id="line2d_33">
    <path d="M 185.17875 404.151391 
L 194.27875 404.151391 
L 203.37875 404.151391 
" style="fill: none; stroke: #252525; stroke-width: 2.5; stroke-linecap: square"/>
   </g>
   <g id="text_18">
    <text style="font: 9.1px 'DejaVu Sans', 'Bitstream Vera Sans', 'Computer Modern Sans Serif', 'Lucida Grande', 'Verdana', 'Geneva', 'Lucid', 'Arial', 'Helvetica', 'Avant Garde', sans-serif; text-anchor: start" x="210.65875" y="407.336391" transform="rotate(-0 210.65875 407.336391)">Potera CMF</text>
   </g>
   <g id="line2d_34">
    <path d="M 185.17875 417.508484 
L 194.27875 417.508484 
L 203.37875 417.508484 
" style="fill: none; stroke: #3b83b4; stroke-width: 1.35; stroke-linecap: square"/>
   </g>
   <g id="text_19">
    <text style="font: 9.1px 'DejaVu Sans', 'Bitstream Vera Sans', 'Computer Modern Sans Serif', 'Lucida Grande', 'Verdana', 'Geneva', 'Lucid', 'Arial', 'Helvetica', 'Avant Garde', sans-serif; text-anchor: start" x="210.65875" y="420.693484" transform="rotate(-0 210.65875 420.693484)">CIE 2015 2°</text>
   </g>
   <g id="line2d_35">
    <path d="M 282.931234 404.151391 
L 292.031234 404.151391 
L 301.131234 404.151391 
" style="fill: none; stroke-dasharray: 4.995,2.16; stroke-dashoffset: 0; stroke: #c38a19; stroke-width: 1.35"/>
   </g>
   <g id="text_20">
    <text style="font: 9.1px 'DejaVu Sans', 'Bitstream Vera Sans', 'Computer Modern Sans Serif', 'Lucida Grande', 'Verdana', 'Geneva', 'Lucid', 'Arial', 'Helvetica', 'Avant Garde', sans-serif; text-anchor: start" x="308.411234" y="407.336391" transform="rotate(-0 308.411234 407.336391)">CIE 2015 10°</text>
   </g>
   <g id="line2d_36">
    <path d="M 282.931234 417.508484 
L 292.031234 417.508484 
L 301.131234 417.508484 
" style="fill: none; stroke-dasharray: 1.35,2.2275; stroke-dashoffset: 0; stroke: #7d8a92; stroke-width: 1.35"/>
   </g>
   <g id="text_21">
    <text style="font: 9.1px 'DejaVu Sans', 'Bitstream Vera Sans', 'Computer Modern Sans Serif', 'Lucida Grande', 'Verdana', 'Geneva', 'Lucid', 'Arial', 'Helvetica', 'Avant Garde', sans-serif; text-anchor: start" x="308.411234" y="420.693484" transform="rotate(-0 308.411234 420.693484)">CIE 1964 10°</text>
   </g>
   <g id="line2d_37">
    <path d="M 386.473594 404.151391 
L 395.573594 404.151391 
L 404.673594 404.151391 
" style="fill: none; stroke-dasharray: 8.64,2.16,1.35,2.16; stroke-dashoffset: 0; stroke: #d0526a; stroke-width: 1.35"/>
   </g>
   <g id="text_22">
    <text style="font: 9.1px 'DejaVu Sans', 'Bitstream Vera Sans', 'Computer Modern Sans Serif', 'Lucida Grande', 'Verdana', 'Geneva', 'Lucid', 'Arial', 'Helvetica', 'Avant Garde', sans-serif; text-anchor: start" x="411.953594" y="407.336391" transform="rotate(-0 411.953594 407.336391)">CIE 1931 2°</text>
   </g>
   <g id="line2d_38">
    <path d="M 386.473594 417.508484 
L 395.573594 417.508484 
L 404.673594 417.508484 
" style="fill: none; stroke-dasharray: 6.75,2.7,1.35,2.7; stroke-dashoffset: 0; stroke: #2f8f84; stroke-width: 1.35"/>
   </g>
   <g id="text_23">
    <text style="font: 9.1px 'DejaVu Sans', 'Bitstream Vera Sans', 'Computer Modern Sans Serif', 'Lucida Grande', 'Verdana', 'Geneva', 'Lucid', 'Arial', 'Helvetica', 'Avant Garde', sans-serif; text-anchor: start" x="411.953594" y="420.693484" transform="rotate(-0 411.953594 420.693484)">Judd–Vos 1978 2°</text>
   </g>
  </g>
 </g>
 <defs>
  <clipPath id="p97e08babc8">
   <rect x="74.448" y="93.744" width="568.512" height="254.448"/>
  </clipPath>
 </defs>
</svg>
