<?xml version="1.0" encoding="utf-8" standalone="no"?>
<!DOCTYPE svg PUBLIC "-//W3C//DTD SVG 1.1//EN"
  "http://www.w3.org/Graphics/SVG/1.1/DTD/svg11.dtd">
<svg xmlns:xlink="http://www.w3.org/1999/xlink" width="676.8pt" height="446.4pt" viewBox="0 0 676.8 446.4" xmlns="http://www.w3.org/2000/svg" version="1.1">
 <metadata>
  <rdf:RDF xmlns:dc="http://purl.org/dc/elements/1.1/" xmlns:cc="http://creativecommons.org/ns#" xmlns:rdf="http://www.w3.org/1999/02/22-rdf-syntax-ns#">
   <cc:Work>
    <dc:type rdf:resource="http://purl.org/dc/dcmitype/StillImage"/>
    <dc:date>2026-07-20T06:42:00.572995</dc:date>
    <dc:format>image/svg+xml</dc:format>
    <dc:creator>
     <cc:Agent>
      <dc:title>Matplotlib v3.9.4, https://matplotlib.org/</dc:title>
     </cc:Agent>
    </dc:creator>
   </cc:Work>
  </rdf:RDF>
 </metadata>
 <defs>
  <style type="text/css">*{stroke-linejoin: round; stroke-linecap: butt}</style>
 </defs>
 <g id="figure_1">
  <g id="patch_1">
   <path d="M 0 446.4 
L 676.8 446.4 
L 676.8 0 
L 0 0 
z
" style="fill: #ffffff"/>
  </g>
  <g id="axes_1">
   <g id="patch_2">
    <path d="M 74.448 348.192 
L 642.96 348.192 
L 642.96 93.744 
L 74.448 93.744 
z
" style="fill: #ffffff"/>
   </g>
   <g id="patch_3">
    <path d="M 169.2 348.192 
L 358.704 348.192 
L 358.704 93.744 
L 169.2 93.744 
z
" clip-path="url(#pd52a87367a)" style="fill: #e7f0ea; opacity: 0.58; stroke: #e7f0ea; stroke-linejoin: miter"/>
   </g>
   <g id="matplotlib.axis_1">
    <g id="xtick_1">
     <g id="line2d_1">
      <path d="M 74.448 348.192 
L 74.448 93.744 
" clip-path="url(#pd52a87367a)" style="fill: none; stroke: #dfe5e8; stroke-width: 0.65; stroke-linecap: square"/>
     </g>
     <g id="line2d_2">
      <defs>
       <path id="m297ca60369" d="M 0 0 
L 0 3.5 
" style="stroke: #000000; stroke-width: 0.8"/>
      </defs>
      <g>
       <use xlink:href="#m297ca60369" x="74.448" y="348.192" style="stroke: #000000; stroke-width: 0.8"/>
      </g>
     </g>
     <g id="text_1">
      <text style="font: 10px 'DejaVu Sans', 'Bitstream Vera Sans', 'Computer Modern Sans Serif', 'Lucida Grande', 'Verdana', 'Geneva', 'Lucid', 'Arial', 'Helvetica', 'Avant Garde', sans-serif; text-anchor: middle" x="74.448" y="362.790438" transform="rotate(-0 74.448 362.790438)">0</text>
     </g>
    </g>
    <g id="xtick_2">
     <g id="line2d_3">
      <path d="M 169.2 348.192 
L 169.2 93.744 
" clip-path="url(#pd52a87367a)" style="fill: none; stroke: #dfe5e8; stroke-width: 0.65; stroke-linecap: square"/>
     </g>
     <g id="line2d_4">
      <g>
       <use xlink:href="#m297ca60369" x="169.2" y="348.192" style="stroke: #000000; stroke-width: 0.8"/>
      </g>
     </g>
     <g id="text_2">
      <text style="font: 10px 'DejaVu Sans', 'Bitstream Vera Sans', 'Computer Modern Sans Serif', 'Lucida Grande', 'Verdana', 'Geneva', 'Lucid', 'Arial', 'Helvetica', 'Avant Garde', sans-serif; text-anchor: middle" x="169.2" y="362.790438" transform="rotate(-0 169.2 362.790438)">1</text>
     </g>
    </g>
    <g id="xtick_3">
     <g id="line2d_5">
      <path d="M 263.952 348.192 
L 263.952 93.744 
" clip-path="url(#pd52a87367a)" style="fill: none; stroke: #dfe5e8; stroke-width: 0.65; stroke-linecap: square"/>
     </g>
     <g id="line2d_6">
      <g>
       <use xlink:href="#m297ca60369" x="263.952" y="348.192" style="stroke: #000000; stroke-width: 0.8"/>
      </g>
     </g>
     <g id="text_3">
      <text style="font: 10px 'DejaVu Sans', 'Bitstream Vera Sans', 'Computer Modern Sans Serif', 'Lucida Grande', 'Verdana', 'Geneva', 'Lucid', 'Arial', 'Helvetica', 'Avant Garde', sans-serif; text-anchor: middle" x="263.952" y="362.790438" transform="rotate(-0 263.952 362.790438)">2</text>
     </g>
    </g>
    <g id="xtick_4">
     <g id="line2d_7">
      <path d="M 358.704 348.192 
L 358.704 93.744 
" clip-path="url(#pd52a87367a)" style="fill: none; stroke: #dfe5e8; stroke-width: 0.65; stroke-linecap: square"/>
     </g>
     <g id="line2d_8">
      <g>
       <use xlink:href="#m297ca60369" x="358.704" y="348.192" style="stroke: #000000; stroke-width: 0.8"/>
      </g>
     </g>
     <g id="text_4">
      <text style="font: 10px 'DejaVu Sans', 'Bitstream Vera Sans', 'Computer Modern Sans Serif', 'Lucida Grande', 'Verdana', 'Geneva', 'Lucid', 'Arial', 'Helvetica', 'Avant Garde', sans-serif; text-anchor: middle" x="358.704" y="362.790438" transform="rotate(-0 358.704 362.790438)">3</text>
     </g>
    </g>
    <g id="xtick_5">
     <g id="line2d_9">
      <path d="M 453.456 348.192 
L 453.456 93.744 
" clip-path="url(#pd52a87367a)" style="fill: none; stroke: #dfe5e8; stroke-width: 0.65; stroke-linecap: square"/>
     </g>
     <g id="line2d_10">
      <g>
       <use xlink:href="#m297ca60369" x="453.456" y="348.192" style="stroke: #000000; stroke-width: 0.8"/>
      </g>
     </g>
     <g id="text_5">
      <text style="font: 10px 'DejaVu Sans', 'Bitstream Vera Sans', 'Computer Modern Sans Serif', 'Lucida Grande', 'Verdana', 'Geneva', 'Lucid', 'Arial', 'Helvetica', 'Avant Garde', sans-serif; text-anchor: middle" x="453.456" y="362.790438" transform="rotate(-0 453.456 362.790438)">4</text>
     </g>
    </g>
    <g id="xtick_6">
     <g id="line2d_11">
      <path d="M 548.208 348.192 
L 548.208 93.744 
" clip-path="url(#pd52a87367a)" style="fill: none; stroke: #dfe5e8; stroke-width: 0.65; stroke-linecap: square"/>
     </g>
     <g id="line2d_12">
      <g>
       <use xlink:href="#m297ca60369" x="548.208" y="348.192" style="stroke: #000000; stroke-width: 0.8"/>
      </g>
     </g>
     <g id="text_6">
      <text style="font: 10px 'DejaVu Sans', 'Bitstream Vera Sans', 'Computer Modern Sans Serif', 'Lucida Grande', 'Verdana', 'Geneva', 'Lucid', 'Arial', 'Helvetica', 'Avant Garde', sans-serif; text-anchor: middle" x="548.208" y="362.790438" transform="rotate(-0 548.208 362.790438)">5</text>
     </g>
    </g>
    <g id="xtick_7">
     <g id="line2d_13">
      <path d="M 642.96 348.192 
L 642.96 93.744 
" clip-path="url(#pd52a87367a)" style="fill: none; stroke: #dfe5e8; stroke-width: 0.65; stroke-linecap: square"/>
     </g>
     <g id="line2d_14">
      <g>
       <use xlink:href="#m297ca60369" x="642.96" y="348.192" style="stroke: #000000; stroke-width: 0.8"/>
      </g>
     </g>
     <g id="text_7">
      <text style="font: 10px 'DejaVu Sans', 'Bitstream Vera Sans', 'Computer Modern Sans Serif', 'Lucida Grande', 'Verdana', 'Geneva', 'Lucid', 'Arial', 'Helvetica', 'Avant Garde', sans-serif; text-anchor: middle" x="642.96" y="362.790438" transform="rotate(-0 642.96 362.790438)">6</text>
     </g>
    </g>
    <g id="text_8">
     <text style="font: 10px 'DejaVu Sans', 'Bitstream Vera Sans', 'Computer Modern Sans Serif', 'Lucida Grande', 'Verdana', 'Geneva', 'Lucid', 'Arial', 'Helvetica', 'Avant Garde', sans-serif; text-anchor: middle" x="358.704" y="376.468563" transform="rotate(-0 358.704 376.468563)">sUCS dE threshold</text>
    </g>
   </g>
   <g id="matplotlib.axis_2">
    <g id="ytick_1">
     <g id="line2d_15">
      <path d="M 74.448 348.192 
L 642.96 348.192 
" clip-path="url(#pd52a87367a)" style="fill: none; stroke: #dfe5e8; stroke-width: 0.65; stroke-linecap: square"/>
     </g>
     <g id="line2d_16">
      <defs>
       <path id="m1b0ac5ff0e" d="M 0 0 
L -3.5 0 
" style="stroke: #000000; stroke-width: 0.8"/>
      </defs>
      <g>
       <use xlink:href="#m1b0ac5ff0e" x="74.448" y="348.192" style="stroke: #000000; stroke-width: 0.8"/>
      </g>
     </g>
     <g id="text_9">
      <text style="font: 10px 'DejaVu Sans', 'Bitstream Vera Sans', 'Computer Modern Sans Serif', 'Lucida Grande', 'Verdana', 'Geneva', 'Lucid', 'Arial', 'Helvetica', 'Avant Garde', sans-serif; text-anchor: end" x="67.448" y="351.991219" transform="rotate(-0 67.448 351.991219)">0</text>
     </g>
    </g>
    <g id="ytick_2">
     <g id="line2d_17">
      <path d="M 74.448 297.3024 
L 642.96 297.3024 
" clip-path="url(#pd52a87367a)" style="fill: none; stroke: #dfe5e8; stroke-width: 0.65; stroke-linecap: square"/>
     </g>
     <g id="line2d_18">
      <g>
       <use xlink:href="#m1b0ac5ff0e" x="74.448" y="297.3024" style="stroke: #000000; stroke-width: 0.8"/>
      </g>
     </g>
     <g id="text_10">
      <text style="font: 10px 'DejaVu Sans', 'Bitstream Vera Sans', 'Computer Modern Sans Serif', 'Lucida Grande', 'Verdana', 'Geneva', 'Lucid', 'Arial', 'Helvetica', 'Avant Garde', sans-serif; text-anchor: end" x="67.448" y="301.101619" transform="rotate(-0 67.448 301.101619)">20</text>
     </g>
    </g>
    <g id="ytick_3">
     <g id="line2d_19">
      <path d="M 74.448 246.4128 
L 642.96 246.4128 
" clip-path="url(#pd52a87367a)" style="fill: none; stroke: #dfe5e8; stroke-width: 0.65; stroke-linecap: square"/>
     </g>
     <g id="line2d_20">
      <g>
       <use xlink:href="#m1b0ac5ff0e" x="74.448" y="246.4128" style="stroke: #000000; stroke-width: 0.8"/>
      </g>
     </g>
     <g id="text_11">
      <text style="font: 10px 'DejaVu Sans', 'Bitstream Vera Sans', 'Computer Modern Sans Serif', 'Lucida Grande', 'Verdana', 'Geneva', 'Lucid', 'Arial', 'Helvetica', 'Avant Garde', sans-serif; text-anchor: end" x="67.448" y="250.212019" transform="rotate(-0 67.448 250.212019)">40</text>
     </g>
    </g>
    <g id="ytick_4">
     <g id="line2d_21">
      <path d="M 74.448 195.5232 
L 642.96 195.5232 
" clip-path="url(#pd52a87367a)" style="fill: none; stroke: #dfe5e8; stroke-width: 0.65; stroke-linecap: square"/>
     </g>
     <g id="line2d_22">
      <g>
       <use xlink:href="#m1b0ac5ff0e" x="74.448" y="195.5232" style="stroke: #000000; stroke-width: 0.8"/>
      </g>
     </g>
     <g id="text_12">
      <text style="font: 10px 'DejaVu Sans', 'Bitstream Vera Sans', 'Computer Modern Sans Serif', 'Lucida Grande', 'Verdana', 'Geneva', 'Lucid', 'Arial', 'Helvetica', 'Avant Garde', sans-serif; text-anchor: end" x="67.448" y="199.322419" transform="rotate(-0 67.448 199.322419)">60</text>
     </g>
    </g>
    <g id="ytick_5">
     <g id="line2d_23">
      <path d="M 74.448 144.6336 
L 642.96 144.6336 
" clip-path="url(#pd52a87367a)" style="fill: none; stroke: #dfe5e8; stroke-width: 0.65; stroke-linecap: square"/>
     </g>
     <g id="line2d_24">
      <g>
       <use xlink:href="#m1b0ac5ff0e" x="74.448" y="144.6336" style="stroke: #000000; stroke-width: 0.8"/>
      </g>
     </g>
     <g id="text_13">
      <text style="font: 10px 'DejaVu Sans', 'Bitstream Vera Sans', 'Computer Modern Sans Serif', 'Lucida Grande', 'Verdana', 'Geneva', 'Lucid', 'Arial', 'Helvetica', 'Avant Garde', sans-serif; text-anchor: end" x="67.448" y="148.432819" transform="rotate(-0 67.448 148.432819)">80</text>
     </g>
    </g>
    <g id="ytick_6">
     <g id="line2d_25">
      <path d="M 74.448 93.744 
L 642.96 93.744 
" clip-path="url(#pd52a87367a)" style="fill: none; stroke: #dfe5e8; stroke-width: 0.65; stroke-linecap: square"/>
     </g>
     <g id="line2d_26">
      <g>
       <use xlink:href="#m1b0ac5ff0e" x="74.448" y="93.744" style="stroke: #000000; stroke-width: 0.8"/>
      </g>
     </g>
     <g id="text_14">
      <text style="font: 10px 'DejaVu Sans', 'Bitstream Vera Sans', 'Computer Modern Sans Serif', 'Lucida Grande', 'Verdana', 'Geneva', 'Lucid', 'Arial', 'Helvetica', 'Avant Garde', sans-serif; text-anchor: end" x="67.448" y="97.543219" transform="rotate(-0 67.448 97.543219)">100</text>
     </g>
    </g>
    <g id="text_15">
     <text style="font: 10px 'DejaVu Sans', 'Bitstream Vera Sans', 'Computer Modern Sans Serif', 'Lucida Grande', 'Verdana', 'Geneva', 'Lucid', 'Arial', 'Helvetica', 'Avant Garde', sans-serif; text-anchor: middle" x="42.280812" y="220.968" transform="rotate(-90 42.280812 220.968)">observers%</text>
    </g>
   </g>
   <g id="line2d_27">
    <path d="M 74.448 348.192 
L 91.50336 348.192 
L 93.3984 346.560923 
L 100.97856 346.560923 
L 102.8736 344.929846 
L 104.76864 341.667692 
L 106.66368 340.036615 
L 110.45376 340.036615 
L 112.3488 338.405538 
L 116.13888 338.405538 
L 118.03392 336.774462 
L 119.92896 336.774462 
L 121.824 332.949867 
L 123.71904 331.31879 
L 131.2992 331.31879 
L 133.19424 328.056637 
L 140.7744 328.056637 
L 142.66944 325.863119 
L 144.56448 325.863119 
L 152.14464 319.338812 
L 155.93472 319.338812 
L 157.82976 317.707735 
L 159.7248 312.252064 
L 161.61984 310.620987 
L 163.51488 310.620987 
L 165.40992 304.602875 
L 167.30496 304.602875 
L 169.2 296.953687 
L 171.09504 295.32261 
L 174.88512 287.673422 
L 176.78016 282.780191 
L 182.46528 282.780191 
L 184.36032 279.518037 
L 186.25536 279.518037 
L 188.1504 275.693443 
L 191.94048 275.693443 
L 193.83552 274.062366 
L 195.73056 270.800212 
L 199.52064 270.800212 
L 201.41568 267.538058 
L 203.31072 265.906981 
L 205.20576 265.906981 
L 207.1008 263.713464 
L 208.99584 262.082387 
L 212.78592 262.082387 
L 214.68096 260.45131 
L 220.36608 248.977528 
L 222.26112 248.977528 
L 224.15616 246.784011 
L 226.0512 246.784011 
L 229.84128 242.396976 
L 231.73632 239.134822 
L 233.63136 237.503745 
L 235.5264 235.310228 
L 237.42144 233.679151 
L 239.31648 233.679151 
L 243.10656 222.767809 
L 245.0016 219.505655 
L 246.89664 214.049984 
L 256.37184 214.049984 
L 258.26688 210.78783 
L 260.16192 208.594313 
L 262.05696 208.594313 
L 265.84704 205.332159 
L 267.74208 203.138642 
L 271.53216 203.138642 
L 275.32224 199.876488 
L 279.11232 199.876488 
L 281.00736 198.245411 
L 284.79744 198.245411 
L 286.69248 196.051894 
L 288.58752 190.033782 
L 290.48256 190.033782 
L 292.3776 186.771629 
L 294.27264 182.947034 
L 296.16768 181.315958 
L 298.06272 181.315958 
L 299.95776 179.684881 
L 313.22304 179.684881 
L 315.11808 177.491363 
L 317.01312 177.491363 
L 318.90816 175.860286 
L 320.8032 173.666769 
L 322.69824 172.035692 
L 324.59328 169.842175 
L 326.48832 165.455141 
L 328.38336 162.192987 
L 330.2784 159.999469 
L 343.54368 159.999469 
L 345.43872 155.612435 
L 347.33376 155.612435 
L 349.2288 153.418918 
L 354.91392 153.418918 
L 356.80896 151.225401 
L 364.38912 151.225401 
L 366.28416 149.031883 
L 377.6544 149.031883 
L 379.54944 146.838366 
L 383.33952 146.838366 
L 385.23456 145.207289 
L 392.81472 145.207289 
L 396.6048 140.820255 
L 398.49984 140.820255 
L 400.39488 139.189178 
L 402.28992 139.189178 
L 404.18496 136.99566 
L 406.08 136.99566 
L 407.97504 134.802143 
L 415.5552 134.802143 
L 417.45024 132.608626 
L 423.13536 132.608626 
L 425.0304 130.977549 
L 432.61056 130.977549 
L 434.5056 129.346472 
L 449.66592 129.346472 
L 451.56096 127.715395 
L 459.14112 127.715395 
L 461.03616 125.521878 
L 464.82624 125.521878 
L 466.72128 123.328361 
L 476.19648 123.328361 
L 478.09152 118.941326 
L 479.98656 118.941326 
L 481.8816 114.554292 
L 483.77664 112.360775 
L 502.72704 112.360775 
L 504.62208 110.167257 
L 506.51712 108.53618 
L 508.41216 108.53618 
L 510.3072 106.342663 
L 515.99232 106.342663 
L 517.88736 104.149146 
L 521.67744 104.149146 
L 523.57248 101.955629 
L 533.04768 101.955629 
L 534.94272 99.762111 
L 570.94848 99.762111 
L 572.84352 98.131034 
L 612.63936 98.131034 
L 614.5344 95.937517 
L 642.96 95.937517 
L 642.96 95.937517 
" clip-path="url(#pd52a87367a)" style="fill: none; stroke: #252525; stroke-width: 2.5; stroke-linecap: square"/>
   </g>
   <g id="line2d_28">
    <path d="M 74.448 348.192 
L 89.60832 348.192 
L 91.50336 345.998483 
L 106.66368 345.998483 
L 110.45376 341.611448 
L 114.24384 341.611448 
L 116.13888 339.980371 
L 121.824 339.980371 
L 125.61408 335.593337 
L 144.56448 335.593337 
L 148.35456 331.206302 
L 155.93472 331.206302 
L 157.82976 329.012785 
L 159.7248 327.381708 
L 161.61984 325.188191 
L 171.09504 325.188191 
L 172.99008 322.994674 
L 174.88512 321.363597 
L 176.78016 321.363597 
L 178.6752 319.17008 
L 182.46528 319.17008 
L 186.25536 314.783045 
L 190.04544 314.783045 
L 191.94048 312.589528 
L 195.73056 309.327374 
L 197.6256 309.327374 
L 199.52064 305.50278 
L 201.41568 303.871703 
L 203.31072 297.853592 
L 205.20576 297.853592 
L 207.1008 294.028997 
L 208.99584 294.028997 
L 210.89088 292.39792 
L 212.78592 292.39792 
L 214.68096 288.010886 
L 216.576 284.186292 
L 218.47104 281.992775 
L 222.26112 281.992775 
L 224.15616 280.361698 
L 226.0512 278.16818 
L 227.94624 274.343586 
L 229.84128 274.343586 
L 231.73632 269.956552 
L 233.63136 264.500881 
L 235.5264 261.238727 
L 237.42144 259.60765 
L 239.31648 259.60765 
L 241.21152 255.783056 
L 243.10656 254.151979 
L 250.68672 254.151979 
L 252.58176 251.958462 
L 254.4768 250.327385 
L 256.37184 245.94035 
L 258.26688 245.94035 
L 260.16192 241.553316 
L 263.952 238.291162 
L 265.84704 238.291162 
L 271.53216 233.397931 
L 275.32224 233.397931 
L 277.21728 230.135777 
L 279.11232 226.311183 
L 281.00736 226.311183 
L 282.9024 224.680106 
L 284.79744 224.680106 
L 286.69248 222.486589 
L 288.58752 222.486589 
L 290.48256 220.293072 
L 292.3776 216.468477 
L 294.27264 214.837401 
L 301.8528 214.837401 
L 303.74784 212.643883 
L 305.64288 211.012806 
L 309.43296 211.012806 
L 315.11808 206.119576 
L 318.90816 206.119576 
L 320.8032 200.663905 
L 322.69824 196.83931 
L 324.59328 193.577156 
L 326.48832 191.383639 
L 328.38336 187.559045 
L 330.2784 187.559045 
L 334.06848 184.296891 
L 335.96352 184.296891 
L 337.85856 182.665814 
L 339.7536 182.665814 
L 341.64864 178.84122 
L 343.54368 178.84122 
L 345.43872 177.210143 
L 347.33376 173.385549 
L 349.2288 171.192032 
L 351.12384 169.560955 
L 353.01888 167.367438 
L 354.91392 160.84313 
L 366.28416 160.84313 
L 368.1792 159.212053 
L 370.07424 159.212053 
L 371.96928 157.018536 
L 373.86432 157.018536 
L 375.75936 154.825019 
L 379.54944 154.825019 
L 381.44448 152.631501 
L 385.23456 146.107194 
L 387.1296 146.107194 
L 389.02464 143.913676 
L 390.91968 142.282599 
L 396.6048 142.282599 
L 398.49984 140.651523 
L 400.39488 137.389369 
L 402.28992 137.389369 
L 404.18496 135.758292 
L 406.08 132.496138 
L 409.87008 129.233984 
L 411.76512 127.040467 
L 430.71552 127.040467 
L 432.61056 125.40939 
L 434.5056 123.215873 
L 436.40064 123.215873 
L 438.29568 121.584796 
L 440.19072 121.584796 
L 443.9808 118.322642 
L 445.87584 118.322642 
L 447.77088 116.691565 
L 468.61632 116.691565 
L 470.51136 114.498048 
L 474.30144 114.498048 
L 476.19648 112.866971 
L 489.46176 112.866971 
L 491.3568 109.042377 
L 495.14688 109.042377 
L 497.04192 107.4113 
L 498.93696 107.4113 
L 500.832 105.780223 
L 514.09728 105.780223 
L 515.99232 104.149146 
L 561.47328 104.149146 
L 563.36832 101.955629 
L 618.32448 101.955629 
L 620.21952 99.762111 
L 627.79968 99.762111 
L 629.69472 98.131034 
L 642.96 98.131034 
L 642.96 98.131034 
" clip-path="url(#pd52a87367a)" style="fill: none; stroke: #3b83b4; stroke-width: 1.35; stroke-linecap: square"/>
   </g>
   <g id="line2d_29">
    <path d="M 74.448 348.192 
L 80.13312 348.192 
L 82.02816 346.560923 
L 91.50336 346.560923 
L 93.3984 344.929846 
L 99.08352 344.929846 
L 100.97856 343.298769 
L 102.8736 343.298769 
L 104.76864 341.667692 
L 108.55872 341.667692 
L 110.45376 340.036615 
L 112.3488 337.843098 
L 114.24384 337.843098 
L 116.13888 336.212021 
L 118.03392 331.31879 
L 123.71904 331.31879 
L 125.61408 328.056637 
L 144.56448 328.056637 
L 146.45952 326.42556 
L 148.35456 326.42556 
L 150.2496 324.794483 
L 152.14464 324.794483 
L 154.03968 320.969889 
L 155.93472 320.969889 
L 157.82976 316.076658 
L 159.7248 312.814504 
L 161.61984 312.814504 
L 163.51488 311.183427 
L 165.40992 311.183427 
L 167.30496 307.921273 
L 169.2 305.727756 
L 171.09504 304.096679 
L 172.99008 301.903162 
L 174.88512 301.903162 
L 176.78016 298.641008 
L 178.6752 289.360743 
L 180.57024 285.536149 
L 182.46528 283.342631 
L 184.36032 277.88696 
L 186.25536 277.88696 
L 188.1504 276.255883 
L 190.04544 276.255883 
L 191.94048 274.624806 
L 193.83552 274.624806 
L 195.73056 271.362653 
L 199.52064 271.362653 
L 201.41568 269.169135 
L 203.31072 265.906981 
L 207.1008 265.906981 
L 208.99584 264.275905 
L 210.89088 264.275905 
L 216.576 259.382674 
L 218.47104 257.189156 
L 222.26112 257.189156 
L 224.15616 255.55808 
L 226.0512 251.171045 
L 227.94624 248.977528 
L 229.84128 248.977528 
L 233.63136 245.715374 
L 235.5264 241.89078 
L 237.42144 236.997549 
L 239.31648 224.961326 
L 243.10656 221.699172 
L 245.0016 221.699172 
L 246.89664 220.068095 
L 248.79168 220.068095 
L 250.68672 216.243501 
L 252.58176 216.243501 
L 254.4768 214.612424 
L 258.26688 214.612424 
L 262.05696 210.22539 
L 267.74208 210.22539 
L 269.63712 206.963236 
L 273.4272 203.701082 
L 275.32224 203.701082 
L 277.21728 202.070005 
L 279.11232 199.876488 
L 281.00736 199.876488 
L 282.9024 198.245411 
L 286.69248 198.245411 
L 288.58752 192.2273 
L 290.48256 192.2273 
L 292.3776 190.033782 
L 294.27264 188.402706 
L 296.16768 188.402706 
L 298.06272 186.771629 
L 299.95776 184.578111 
L 303.74784 184.578111 
L 307.53792 181.315958 
L 309.43296 181.315958 
L 311.328 179.684881 
L 318.90816 179.684881 
L 320.8032 177.491363 
L 326.48832 177.491363 
L 332.17344 172.598133 
L 334.06848 166.580021 
L 335.96352 166.580021 
L 339.7536 162.192987 
L 341.64864 162.192987 
L 343.54368 159.999469 
L 345.43872 159.999469 
L 347.33376 157.805952 
L 351.12384 157.805952 
L 354.91392 153.418918 
L 364.38912 153.418918 
L 366.28416 151.225401 
L 370.07424 151.225401 
L 371.96928 149.031883 
L 379.54944 149.031883 
L 381.44448 146.838366 
L 390.91968 146.838366 
L 392.81472 145.207289 
L 404.18496 145.207289 
L 406.08 140.820255 
L 407.97504 140.820255 
L 409.87008 136.99566 
L 411.76512 134.802143 
L 413.66016 134.802143 
L 415.5552 133.171066 
L 417.45024 130.977549 
L 423.13536 130.977549 
L 425.0304 129.346472 
L 442.08576 129.346472 
L 443.9808 127.715395 
L 459.14112 127.715395 
L 461.03616 125.521878 
L 462.9312 125.521878 
L 464.82624 123.328361 
L 476.19648 123.328361 
L 479.98656 118.941326 
L 481.8816 118.941326 
L 483.77664 116.747809 
L 485.67168 116.747809 
L 489.46176 112.360775 
L 502.72704 112.360775 
L 504.62208 110.167257 
L 510.3072 110.167257 
L 512.20224 107.97374 
L 514.09728 106.342663 
L 515.99232 104.149146 
L 521.67744 104.149146 
L 523.57248 101.955629 
L 529.2576 101.955629 
L 531.15264 99.762111 
L 563.36832 99.762111 
L 565.26336 98.131034 
L 622.11456 98.131034 
L 624.0096 95.937517 
L 642.96 95.937517 
L 642.96 95.937517 
" clip-path="url(#pd52a87367a)" style="fill: none; stroke-dasharray: 4.995,2.16; stroke-dashoffset: 0; stroke: #c38a19; stroke-width: 1.35"/>
   </g>
   <g id="line2d_30">
    <path d="M 74.448 348.192 
L 108.55872 348.192 
L 114.24384 343.298769 
L 116.13888 341.105252 
L 119.92896 337.843098 
L 127.50912 337.843098 
L 129.40416 334.580944 
L 131.2992 332.949867 
L 135.08928 332.949867 
L 136.98432 331.31879 
L 142.66944 331.31879 
L 144.56448 329.125273 
L 146.45952 325.863119 
L 152.14464 325.863119 
L 154.03968 319.282568 
L 155.93472 319.282568 
L 157.82976 316.020414 
L 161.61984 312.75826 
L 163.51488 312.75826 
L 165.40992 308.933666 
L 169.2 308.933666 
L 171.09504 307.302589 
L 172.99008 307.302589 
L 174.88512 304.040435 
L 176.78016 300.215841 
L 178.6752 298.022324 
L 180.57024 291.441772 
L 184.36032 291.441772 
L 186.25536 289.810695 
L 190.04544 289.810695 
L 191.94048 285.986101 
L 193.83552 280.53043 
L 197.6256 277.268276 
L 199.52064 271.250164 
L 201.41568 267.988011 
L 203.31072 265.794493 
L 205.20576 264.163416 
L 207.1008 260.338822 
L 210.89088 257.076668 
L 212.78592 252.183438 
L 214.68096 250.552361 
L 216.576 246.727767 
L 218.47104 241.272095 
L 220.36608 239.641019 
L 222.26112 236.378865 
L 227.94624 236.378865 
L 229.84128 231.485634 
L 231.73632 231.485634 
L 233.63136 229.854557 
L 237.42144 229.854557 
L 241.21152 226.592403 
L 243.10656 224.398886 
L 245.0016 220.011851 
L 246.89664 220.011851 
L 248.79168 217.818334 
L 250.68672 216.187257 
L 254.4768 216.187257 
L 256.37184 214.55618 
L 260.16192 214.55618 
L 262.05696 210.169146 
L 263.952 208.538069 
L 271.53216 208.538069 
L 273.4272 206.906992 
L 277.21728 202.519958 
L 279.11232 200.888881 
L 281.00736 197.626727 
L 284.79744 197.626727 
L 288.58752 194.364573 
L 292.3776 194.364573 
L 294.27264 192.733496 
L 296.16768 190.539979 
L 298.06272 190.539979 
L 299.95776 186.715385 
L 301.8528 186.715385 
L 303.74784 182.89079 
L 305.64288 180.697273 
L 307.53792 176.310239 
L 311.328 176.310239 
L 313.22304 174.116721 
L 315.11808 174.116721 
L 318.90816 170.854568 
L 320.8032 167.592414 
L 324.59328 163.205379 
L 330.2784 163.205379 
L 332.17344 159.943225 
L 335.96352 159.943225 
L 337.85856 157.749708 
L 339.7536 157.749708 
L 341.64864 155.556191 
L 347.33376 155.556191 
L 349.2288 153.925114 
L 351.12384 151.731597 
L 353.01888 151.731597 
L 354.91392 150.10052 
L 360.59904 150.10052 
L 364.38912 145.713485 
L 366.28416 145.713485 
L 368.1792 144.082408 
L 370.07424 144.082408 
L 371.96928 142.451332 
L 373.86432 140.257814 
L 402.28992 140.257814 
L 404.18496 138.626737 
L 406.08 138.626737 
L 407.97504 136.99566 
L 411.76512 136.99566 
L 413.66016 134.802143 
L 415.5552 130.977549 
L 419.34528 130.977549 
L 421.24032 127.152955 
L 423.13536 124.959438 
L 430.71552 124.959438 
L 432.61056 123.328361 
L 434.5056 121.134844 
L 438.29568 121.134844 
L 442.08576 116.747809 
L 459.14112 116.747809 
L 461.03616 114.554292 
L 464.82624 114.554292 
L 466.72128 112.360775 
L 472.4064 112.360775 
L 474.30144 110.167257 
L 479.98656 110.167257 
L 481.8816 107.97374 
L 495.14688 107.97374 
L 497.04192 105.780223 
L 498.93696 105.780223 
L 500.832 103.586706 
L 517.88736 103.586706 
L 519.7824 101.393188 
L 538.7328 101.393188 
L 542.52288 98.131034 
L 642.96 98.131034 
L 642.96 98.131034 
" clip-path="url(#pd52a87367a)" style="fill: none; stroke-dasharray: 1.35,2.2275; stroke-dashoffset: 0; stroke: #7d8a92; stroke-width: 1.35"/>
   </g>
   <g id="line2d_31">
    <path d="M 74.448 348.192 
L 123.71904 348.192 
L 129.40416 341.611448 
L 136.98432 341.611448 
L 138.87936 339.417931 
L 157.82976 339.417931 
L 159.7248 335.030897 
L 180.57024 335.030897 
L 186.25536 328.450345 
L 188.1504 328.450345 
L 190.04544 326.256828 
L 195.73056 326.256828 
L 199.52064 321.869793 
L 201.41568 317.482759 
L 203.31072 317.482759 
L 205.20576 315.289241 
L 208.99584 315.289241 
L 210.89088 313.095724 
L 216.576 313.095724 
L 218.47104 310.902207 
L 220.36608 310.902207 
L 222.26112 309.27113 
L 224.15616 307.077613 
L 227.94624 307.077613 
L 229.84128 304.884095 
L 237.42144 304.884095 
L 241.21152 300.497061 
L 245.0016 300.497061 
L 246.89664 298.303544 
L 250.68672 298.303544 
L 252.58176 296.110027 
L 256.37184 296.110027 
L 260.16192 292.847873 
L 263.952 292.847873 
L 265.84704 288.460838 
L 267.74208 286.829761 
L 271.53216 286.829761 
L 275.32224 282.442727 
L 277.21728 282.442727 
L 279.11232 278.618133 
L 281.00736 276.424615 
L 282.9024 276.424615 
L 284.79744 274.793538 
L 290.48256 274.793538 
L 294.27264 270.406504 
L 298.06272 270.406504 
L 299.95776 266.58191 
L 301.8528 264.950833 
L 303.74784 259.495162 
L 305.64288 257.301645 
L 307.53792 255.670568 
L 309.43296 249.652456 
L 311.328 247.458939 
L 313.22304 245.827862 
L 317.01312 245.827862 
L 318.90816 243.634345 
L 320.8032 243.634345 
L 322.69824 242.003268 
L 328.38336 242.003268 
L 330.2784 239.809751 
L 332.17344 235.985156 
L 335.96352 235.985156 
L 337.85856 232.723003 
L 341.64864 229.460849 
L 343.54368 229.460849 
L 345.43872 224.567618 
L 347.33376 224.567618 
L 349.2288 222.374101 
L 351.12384 220.743024 
L 353.01888 220.743024 
L 354.91392 218.549507 
L 356.80896 218.549507 
L 360.59904 214.162472 
L 368.1792 214.162472 
L 370.07424 211.968955 
L 373.86432 208.706801 
L 375.75936 208.706801 
L 381.44448 203.81357 
L 385.23456 203.81357 
L 387.1296 202.182493 
L 389.02464 198.357899 
L 390.91968 198.357899 
L 392.81472 195.095745 
L 394.70976 192.902228 
L 396.6048 191.271151 
L 402.28992 191.271151 
L 404.18496 189.640074 
L 406.08 189.640074 
L 407.97504 188.008997 
L 409.87008 188.008997 
L 411.76512 186.37792 
L 413.66016 186.37792 
L 415.5552 183.115767 
L 419.34528 179.853613 
L 421.24032 179.853613 
L 423.13536 177.660095 
L 425.0304 177.660095 
L 426.92544 176.029019 
L 428.82048 176.029019 
L 430.71552 174.397942 
L 432.61056 174.397942 
L 434.5056 172.766865 
L 438.29568 166.242557 
L 440.19072 164.61148 
L 443.9808 164.61148 
L 445.87584 162.980403 
L 447.77088 159.155809 
L 449.66592 159.155809 
L 451.56096 155.331215 
L 453.456 153.700138 
L 455.35104 153.700138 
L 461.03616 148.806907 
L 462.9312 148.806907 
L 464.82624 147.17583 
L 466.72128 147.17583 
L 468.61632 145.544753 
L 476.19648 145.544753 
L 478.09152 143.913676 
L 481.8816 143.913676 
L 483.77664 140.089082 
L 487.56672 140.089082 
L 489.46176 136.826928 
L 491.3568 135.195851 
L 498.93696 135.195851 
L 500.832 133.564775 
L 502.72704 133.564775 
L 504.62208 130.302621 
L 506.51712 128.671544 
L 508.41216 128.671544 
L 510.3072 127.040467 
L 515.99232 127.040467 
L 517.88736 125.40939 
L 519.7824 123.215873 
L 525.46752 123.215873 
L 527.36256 121.584796 
L 531.15264 121.584796 
L 533.04768 119.953719 
L 534.94272 119.953719 
L 536.83776 118.322642 
L 538.7328 118.322642 
L 540.62784 116.129125 
L 544.41792 116.129125 
L 546.31296 114.498048 
L 550.10304 114.498048 
L 551.99808 112.866971 
L 569.05344 112.866971 
L 570.94848 110.673454 
L 574.73856 110.673454 
L 576.6336 109.042377 
L 586.1088 109.042377 
L 588.00384 107.4113 
L 593.68896 107.4113 
L 595.584 105.780223 
L 601.26912 105.780223 
L 603.16416 104.149146 
L 606.95424 104.149146 
L 608.84928 101.955629 
L 631.58976 101.955629 
L 633.4848 99.762111 
L 642.96 99.762111 
L 642.96 99.762111 
" clip-path="url(#pd52a87367a)" style="fill: none; stroke-dasharray: 8.64,2.16,1.35,2.16; stroke-dashoffset: 0; stroke: #d0526a; stroke-width: 1.35"/>
   </g>
   <g id="line2d_32">
    <path d="M 74.448 348.192 
L 110.45376 348.192 
L 112.3488 345.998483 
L 155.93472 345.998483 
L 157.82976 343.804966 
L 161.61984 343.804966 
L 163.51488 341.611448 
L 165.40992 341.611448 
L 167.30496 339.417931 
L 172.99008 339.417931 
L 174.88512 337.224414 
L 176.78016 337.224414 
L 178.6752 335.030897 
L 182.46528 335.030897 
L 184.36032 332.837379 
L 186.25536 332.837379 
L 188.1504 330.643862 
L 190.04544 330.643862 
L 191.94048 328.450345 
L 193.83552 328.450345 
L 195.73056 326.256828 
L 210.89088 326.256828 
L 212.78592 324.06331 
L 220.36608 324.06331 
L 222.26112 321.869793 
L 226.0512 321.869793 
L 227.94624 319.676276 
L 233.63136 319.676276 
L 237.42144 315.289241 
L 243.10656 315.289241 
L 245.0016 313.095724 
L 254.4768 313.095724 
L 256.37184 310.902207 
L 258.26688 310.902207 
L 262.05696 306.515172 
L 263.952 306.515172 
L 267.74208 302.128138 
L 269.63712 297.741103 
L 271.53216 295.547586 
L 273.4272 295.547586 
L 275.32224 293.354069 
L 286.69248 293.354069 
L 290.48256 288.967034 
L 292.3776 287.335958 
L 294.27264 287.335958 
L 296.16768 285.14244 
L 301.8528 285.14244 
L 303.74784 282.948923 
L 307.53792 282.948923 
L 309.43296 281.317846 
L 313.22304 281.317846 
L 315.11808 279.686769 
L 322.69824 279.686769 
L 324.59328 278.055692 
L 328.38336 278.055692 
L 330.2784 276.424615 
L 332.17344 276.424615 
L 334.06848 274.793538 
L 337.85856 270.406504 
L 339.7536 270.406504 
L 341.64864 268.212987 
L 343.54368 268.212987 
L 345.43872 264.388393 
L 353.01888 264.388393 
L 354.91392 261.126239 
L 358.704 261.126239 
L 360.59904 259.495162 
L 362.49408 259.495162 
L 364.38912 257.301645 
L 366.28416 251.845973 
L 368.1792 248.58382 
L 370.07424 248.58382 
L 371.96928 246.390302 
L 373.86432 246.390302 
L 375.75936 240.372191 
L 377.6544 238.178674 
L 385.23456 238.178674 
L 387.1296 236.547597 
L 392.81472 236.547597 
L 394.70976 231.091926 
L 398.49984 231.091926 
L 400.39488 229.460849 
L 402.28992 229.460849 
L 404.18496 227.267332 
L 406.08 224.005178 
L 407.97504 222.374101 
L 409.87008 220.180584 
L 411.76512 216.91843 
L 415.5552 216.91843 
L 417.45024 215.287353 
L 425.0304 215.287353 
L 428.82048 207.638164 
L 430.71552 207.638164 
L 432.61056 205.444647 
L 436.40064 205.444647 
L 440.19072 202.182493 
L 442.08576 202.182493 
L 443.9808 200.551416 
L 449.66592 200.551416 
L 453.456 197.289263 
L 457.24608 197.289263 
L 459.14112 193.464668 
L 461.03616 191.833592 
L 462.9312 191.833592 
L 464.82624 189.640074 
L 466.72128 189.640074 
L 472.4064 184.746844 
L 479.98656 184.746844 
L 481.8816 181.48469 
L 487.56672 176.591459 
L 489.46176 176.591459 
L 493.25184 173.329305 
L 495.14688 171.135788 
L 497.04192 171.135788 
L 498.93696 169.504711 
L 504.62208 169.504711 
L 506.51712 166.242557 
L 508.41216 164.61148 
L 510.3072 161.349326 
L 512.20224 161.349326 
L 514.09728 159.718249 
L 515.99232 155.893655 
L 517.88736 151.000424 
L 521.67744 151.000424 
L 523.57248 148.806907 
L 525.46752 147.17583 
L 531.15264 147.17583 
L 533.04768 145.544753 
L 534.94272 145.544753 
L 536.83776 143.913676 
L 544.41792 143.913676 
L 546.31296 142.282599 
L 551.99808 142.282599 
L 553.89312 138.458005 
L 555.78816 136.264488 
L 557.6832 136.264488 
L 561.47328 133.002334 
L 567.1584 133.002334 
L 569.05344 131.371257 
L 574.73856 131.371257 
L 576.6336 128.109103 
L 580.42368 124.84695 
L 586.1088 124.84695 
L 588.00384 123.215873 
L 589.89888 121.022355 
L 597.47904 121.022355 
L 599.37408 119.391279 
L 601.26912 119.391279 
L 603.16416 117.760202 
L 606.95424 117.760202 
L 608.84928 113.935607 
L 614.5344 113.935607 
L 616.42944 112.304531 
L 620.21952 112.304531 
L 622.11456 110.673454 
L 637.27488 110.673454 
L 639.16992 108.479936 
L 642.96 108.479936 
L 642.96 108.479936 
" clip-path="url(#pd52a87367a)" style="fill: none; stroke-dasharray: 6.75,2.7,1.35,2.7; stroke-dashoffset: 0; stroke: #2f8f84; stroke-width: 1.35"/>
   </g>
   <g id="patch_4">
    <path d="M 74.448 348.192 
L 74.448 93.744 
" style="fill: none; stroke: #000000; stroke-width: 0.8; stroke-linejoin: miter; stroke-linecap: square"/>
   </g>
   <g id="patch_5">
    <path d="M 74.448 348.192 
L 642.96 348.192 
" style="fill: none; stroke: #000000; stroke-width: 0.8; stroke-linejoin: miter; stroke-linecap: square"/>
   </g>
  </g>
  <g id="text_16">
   <text style="font: 18px 'DejaVu Sans', 'Bitstream Vera Sans', 'Computer Modern Sans Serif', 'Lucida Grande', 'Verdana', 'Geneva', 'Lucid', 'Arial', 'Helvetica', 'Avant Garde', sans-serif; text-anchor: start" x="74.448" y="38.229188" transform="rotate(-0 74.448 38.229188)">WLED LCD → QD-OLED</text>
  </g>
  <g id="text_17">
   <text style="fill: #66747c; font: 10px 'DejaVu Sans', 'Bitstream Vera Sans', 'Computer Modern Sans Serif', 'Lucida Grande', 'Verdana', 'Geneva', 'Lucid', 'Arial', 'Helvetica', 'Avant Garde', sans-serif; text-anchor: start" x="74.448" y="64.728" transform="rotate(-0 74.448 64.728)">D65</text>
  </g>
  <g id="legend_1">
   <g id="line2d_33">
    <path d="M 185.17875 404.151391 
L 194.27875 404.151391 
L 203.37875 404.151391 
" style="fill: none; stroke: #252525; stroke-width: 2.5; stroke-linecap: square"/>
   </g>
   <g id="text_18">
    <text style="font: 9.1px 'DejaVu Sans', 'Bitstream Vera Sans', 'Computer Modern Sans Serif', 'Lucida Grande', 'Verdana', 'Geneva', 'Lucid', 'Arial', 'Helvetica', 'Avant Garde', sans-serif; text-anchor: start" x="210.65875" y="407.336391" transform="rotate(-0 210.65875 407.336391)">Potera CMF</text>
   </g>
   <g id="line2d_34">
    <path d="M 185.17875 417.508484 
L 194.27875 417.508484 
L 203.37875 417.508484 
" style="fill: none; stroke: #3b83b4; stroke-width: 1.35; stroke-linecap: square"/>
   </g>
   <g id="text_19">
    <text style="font: 9.1px 'DejaVu Sans', 'Bitstream Vera Sans', 'Computer Modern Sans Serif', 'Lucida Grande', 'Verdana', 'Geneva', 'Lucid', 'Arial', 'Helvetica', 'Avant Garde', sans-serif; text-anchor: start" x="210.65875" y="420.693484" transform="rotate(-0 210.65875 420.693484)">CIE 2015 2°</text>
   </g>
   <g id="line2d_35">
    <path d="M 282.931234 404.151391 
L 292.031234 404.151391 
L 301.131234 404.151391 
" style="fill: none; stroke-dasharray: 4.995,2.16; stroke-dashoffset: 0; stroke: #c38a19; stroke-width: 1.35"/>
   </g>
   <g id="text_20">
    <text style="font: 9.1px 'DejaVu Sans', 'Bitstream Vera Sans', 'Computer Modern Sans Serif', 'Lucida Grande', 'Verdana', 'Geneva', 'Lucid', 'Arial', 'Helvetica', 'Avant Garde', sans-serif; text-anchor: start" x="308.411234" y="407.336391" transform="rotate(-0 308.411234 407.336391)">CIE 2015 10°</text>
   </g>
   <g id="line2d_36">
    <path d="M 282.931234 417.508484 
L 292.031234 417.508484 
L 301.131234 417.508484 
" style="fill: none; stroke-dasharray: 1.35,2.2275; stroke-dashoffset: 0; stroke: #7d8a92; stroke-width: 1.35"/>
   </g>
   <g id="text_21">
    <text style="font: 9.1px 'DejaVu Sans', 'Bitstream Vera Sans', 'Computer Modern Sans Serif', 'Lucida Grande', 'Verdana', 'Geneva', 'Lucid', 'Arial', 'Helvetica', 'Avant Garde', sans-serif; text-anchor: start" x="308.411234" y="420.693484" transform="rotate(-0 308.411234 420.693484)">CIE 1964 10°</text>
   </g>
   <g id="line2d_37">
    <path d="M 386.473594 404.151391 
L 395.573594 404.151391 
L 404.673594 404.151391 
" style="fill: none; stroke-dasharray: 8.64,2.16,1.35,2.16; stroke-dashoffset: 0; stroke: #d0526a; stroke-width: 1.35"/>
   </g>
   <g id="text_22">
    <text style="font: 9.1px 'DejaVu Sans', 'Bitstream Vera Sans', 'Computer Modern Sans Serif', 'Lucida Grande', 'Verdana', 'Geneva', 'Lucid', 'Arial', 'Helvetica', 'Avant Garde', sans-serif; text-anchor: start" x="411.953594" y="407.336391" transform="rotate(-0 411.953594 407.336391)">CIE 1931 2°</text>
   </g>
   <g id="line2d_38">
    <path d="M 386.473594 417.508484 
L 395.573594 417.508484 
L 404.673594 417.508484 
" style="fill: none; stroke-dasharray: 6.75,2.7,1.35,2.7; stroke-dashoffset: 0; stroke: #2f8f84; stroke-width: 1.35"/>
   </g>
   <g id="text_23">
    <text style="font: 9.1px 'DejaVu Sans', 'Bitstream Vera Sans', 'Computer Modern Sans Serif', 'Lucida Grande', 'Verdana', 'Geneva', 'Lucid', 'Arial', 'Helvetica', 'Avant Garde', sans-serif; text-anchor: start" x="411.953594" y="420.693484" transform="rotate(-0 411.953594 420.693484)">Judd–Vos 1978 2°</text>
   </g>
  </g>
 </g>
 <defs>
  <clipPath id="pd52a87367a">
   <rect x="74.448" y="93.744" width="568.512" height="254.448"/>
  </clipPath>
 </defs>
</svg>
