<?xml version="1.0" encoding="utf-8" standalone="no"?>
<!DOCTYPE svg PUBLIC "-//W3C//DTD SVG 1.1//EN"
  "http://www.w3.org/Graphics/SVG/1.1/DTD/svg11.dtd">
<svg xmlns:xlink="http://www.w3.org/1999/xlink" width="676.8pt" height="446.4pt" viewBox="0 0 676.8 446.4" xmlns="http://www.w3.org/2000/svg" version="1.1">
 <metadata>
  <rdf:RDF xmlns:dc="http://purl.org/dc/elements/1.1/" xmlns:cc="http://creativecommons.org/ns#" xmlns:rdf="http://www.w3.org/1999/02/22-rdf-syntax-ns#">
   <cc:Work>
    <dc:type rdf:resource="http://purl.org/dc/dcmitype/StillImage"/>
    <dc:date>2026-07-20T06:42:00.838979</dc:date>
    <dc:format>image/svg+xml</dc:format>
    <dc:creator>
     <cc:Agent>
      <dc:title>Matplotlib v3.9.4, https://matplotlib.org/</dc:title>
     </cc:Agent>
    </dc:creator>
   </cc:Work>
  </rdf:RDF>
 </metadata>
 <defs>
  <style type="text/css">*{stroke-linejoin: round; stroke-linecap: butt}</style>
 </defs>
 <g id="figure_1">
  <g id="patch_1">
   <path d="M 0 446.4 
L 676.8 446.4 
L 676.8 0 
L 0 0 
z
" style="fill: #ffffff"/>
  </g>
  <g id="axes_1">
   <g id="patch_2">
    <path d="M 74.448 348.192 
L 642.96 348.192 
L 642.96 93.744 
L 74.448 93.744 
z
" style="fill: #ffffff"/>
   </g>
   <g id="patch_3">
    <path d="M 169.2 348.192 
L 358.704 348.192 
L 358.704 93.744 
L 169.2 93.744 
z
" clip-path="url(#pbbecd6eb97)" style="fill: #e7f0ea; opacity: 0.58; stroke: #e7f0ea; stroke-linejoin: miter"/>
   </g>
   <g id="matplotlib.axis_1">
    <g id="xtick_1">
     <g id="line2d_1">
      <path d="M 74.448 348.192 
L 74.448 93.744 
" clip-path="url(#pbbecd6eb97)" style="fill: none; stroke: #dfe5e8; stroke-width: 0.65; stroke-linecap: square"/>
     </g>
     <g id="line2d_2">
      <defs>
       <path id="m40efccf43d" d="M 0 0 
L 0 3.5 
" style="stroke: #000000; stroke-width: 0.8"/>
      </defs>
      <g>
       <use xlink:href="#m40efccf43d" x="74.448" y="348.192" style="stroke: #000000; stroke-width: 0.8"/>
      </g>
     </g>
     <g id="text_1">
      <text style="font: 10px 'DejaVu Sans', 'Bitstream Vera Sans', 'Computer Modern Sans Serif', 'Lucida Grande', 'Verdana', 'Geneva', 'Lucid', 'Arial', 'Helvetica', 'Avant Garde', sans-serif; text-anchor: middle" x="74.448" y="362.790438" transform="rotate(-0 74.448 362.790438)">0</text>
     </g>
    </g>
    <g id="xtick_2">
     <g id="line2d_3">
      <path d="M 169.2 348.192 
L 169.2 93.744 
" clip-path="url(#pbbecd6eb97)" style="fill: none; stroke: #dfe5e8; stroke-width: 0.65; stroke-linecap: square"/>
     </g>
     <g id="line2d_4">
      <g>
       <use xlink:href="#m40efccf43d" x="169.2" y="348.192" style="stroke: #000000; stroke-width: 0.8"/>
      </g>
     </g>
     <g id="text_2">
      <text style="font: 10px 'DejaVu Sans', 'Bitstream Vera Sans', 'Computer Modern Sans Serif', 'Lucida Grande', 'Verdana', 'Geneva', 'Lucid', 'Arial', 'Helvetica', 'Avant Garde', sans-serif; text-anchor: middle" x="169.2" y="362.790438" transform="rotate(-0 169.2 362.790438)">1</text>
     </g>
    </g>
    <g id="xtick_3">
     <g id="line2d_5">
      <path d="M 263.952 348.192 
L 263.952 93.744 
" clip-path="url(#pbbecd6eb97)" style="fill: none; stroke: #dfe5e8; stroke-width: 0.65; stroke-linecap: square"/>
     </g>
     <g id="line2d_6">
      <g>
       <use xlink:href="#m40efccf43d" x="263.952" y="348.192" style="stroke: #000000; stroke-width: 0.8"/>
      </g>
     </g>
     <g id="text_3">
      <text style="font: 10px 'DejaVu Sans', 'Bitstream Vera Sans', 'Computer Modern Sans Serif', 'Lucida Grande', 'Verdana', 'Geneva', 'Lucid', 'Arial', 'Helvetica', 'Avant Garde', sans-serif; text-anchor: middle" x="263.952" y="362.790438" transform="rotate(-0 263.952 362.790438)">2</text>
     </g>
    </g>
    <g id="xtick_4">
     <g id="line2d_7">
      <path d="M 358.704 348.192 
L 358.704 93.744 
" clip-path="url(#pbbecd6eb97)" style="fill: none; stroke: #dfe5e8; stroke-width: 0.65; stroke-linecap: square"/>
     </g>
     <g id="line2d_8">
      <g>
       <use xlink:href="#m40efccf43d" x="358.704" y="348.192" style="stroke: #000000; stroke-width: 0.8"/>
      </g>
     </g>
     <g id="text_4">
      <text style="font: 10px 'DejaVu Sans', 'Bitstream Vera Sans', 'Computer Modern Sans Serif', 'Lucida Grande', 'Verdana', 'Geneva', 'Lucid', 'Arial', 'Helvetica', 'Avant Garde', sans-serif; text-anchor: middle" x="358.704" y="362.790438" transform="rotate(-0 358.704 362.790438)">3</text>
     </g>
    </g>
    <g id="xtick_5">
     <g id="line2d_9">
      <path d="M 453.456 348.192 
L 453.456 93.744 
" clip-path="url(#pbbecd6eb97)" style="fill: none; stroke: #dfe5e8; stroke-width: 0.65; stroke-linecap: square"/>
     </g>
     <g id="line2d_10">
      <g>
       <use xlink:href="#m40efccf43d" x="453.456" y="348.192" style="stroke: #000000; stroke-width: 0.8"/>
      </g>
     </g>
     <g id="text_5">
      <text style="font: 10px 'DejaVu Sans', 'Bitstream Vera Sans', 'Computer Modern Sans Serif', 'Lucida Grande', 'Verdana', 'Geneva', 'Lucid', 'Arial', 'Helvetica', 'Avant Garde', sans-serif; text-anchor: middle" x="453.456" y="362.790438" transform="rotate(-0 453.456 362.790438)">4</text>
     </g>
    </g>
    <g id="xtick_6">
     <g id="line2d_11">
      <path d="M 548.208 348.192 
L 548.208 93.744 
" clip-path="url(#pbbecd6eb97)" style="fill: none; stroke: #dfe5e8; stroke-width: 0.65; stroke-linecap: square"/>
     </g>
     <g id="line2d_12">
      <g>
       <use xlink:href="#m40efccf43d" x="548.208" y="348.192" style="stroke: #000000; stroke-width: 0.8"/>
      </g>
     </g>
     <g id="text_6">
      <text style="font: 10px 'DejaVu Sans', 'Bitstream Vera Sans', 'Computer Modern Sans Serif', 'Lucida Grande', 'Verdana', 'Geneva', 'Lucid', 'Arial', 'Helvetica', 'Avant Garde', sans-serif; text-anchor: middle" x="548.208" y="362.790438" transform="rotate(-0 548.208 362.790438)">5</text>
     </g>
    </g>
    <g id="xtick_7">
     <g id="line2d_13">
      <path d="M 642.96 348.192 
L 642.96 93.744 
" clip-path="url(#pbbecd6eb97)" style="fill: none; stroke: #dfe5e8; stroke-width: 0.65; stroke-linecap: square"/>
     </g>
     <g id="line2d_14">
      <g>
       <use xlink:href="#m40efccf43d" x="642.96" y="348.192" style="stroke: #000000; stroke-width: 0.8"/>
      </g>
     </g>
     <g id="text_7">
      <text style="font: 10px 'DejaVu Sans', 'Bitstream Vera Sans', 'Computer Modern Sans Serif', 'Lucida Grande', 'Verdana', 'Geneva', 'Lucid', 'Arial', 'Helvetica', 'Avant Garde', sans-serif; text-anchor: middle" x="642.96" y="362.790438" transform="rotate(-0 642.96 362.790438)">6</text>
     </g>
    </g>
    <g id="text_8">
     <text style="font: 10px 'DejaVu Sans', 'Bitstream Vera Sans', 'Computer Modern Sans Serif', 'Lucida Grande', 'Verdana', 'Geneva', 'Lucid', 'Arial', 'Helvetica', 'Avant Garde', sans-serif; text-anchor: middle" x="358.704" y="376.468563" transform="rotate(-0 358.704 376.468563)">sUCS dE threshold</text>
    </g>
   </g>
   <g id="matplotlib.axis_2">
    <g id="ytick_1">
     <g id="line2d_15">
      <path d="M 74.448 348.192 
L 642.96 348.192 
" clip-path="url(#pbbecd6eb97)" style="fill: none; stroke: #dfe5e8; stroke-width: 0.65; stroke-linecap: square"/>
     </g>
     <g id="line2d_16">
      <defs>
       <path id="md15dfbbc77" d="M 0 0 
L -3.5 0 
" style="stroke: #000000; stroke-width: 0.8"/>
      </defs>
      <g>
       <use xlink:href="#md15dfbbc77" x="74.448" y="348.192" style="stroke: #000000; stroke-width: 0.8"/>
      </g>
     </g>
     <g id="text_9">
      <text style="font: 10px 'DejaVu Sans', 'Bitstream Vera Sans', 'Computer Modern Sans Serif', 'Lucida Grande', 'Verdana', 'Geneva', 'Lucid', 'Arial', 'Helvetica', 'Avant Garde', sans-serif; text-anchor: end" x="67.448" y="351.991219" transform="rotate(-0 67.448 351.991219)">0</text>
     </g>
    </g>
    <g id="ytick_2">
     <g id="line2d_17">
      <path d="M 74.448 297.3024 
L 642.96 297.3024 
" clip-path="url(#pbbecd6eb97)" style="fill: none; stroke: #dfe5e8; stroke-width: 0.65; stroke-linecap: square"/>
     </g>
     <g id="line2d_18">
      <g>
       <use xlink:href="#md15dfbbc77" x="74.448" y="297.3024" style="stroke: #000000; stroke-width: 0.8"/>
      </g>
     </g>
     <g id="text_10">
      <text style="font: 10px 'DejaVu Sans', 'Bitstream Vera Sans', 'Computer Modern Sans Serif', 'Lucida Grande', 'Verdana', 'Geneva', 'Lucid', 'Arial', 'Helvetica', 'Avant Garde', sans-serif; text-anchor: end" x="67.448" y="301.101619" transform="rotate(-0 67.448 301.101619)">20</text>
     </g>
    </g>
    <g id="ytick_3">
     <g id="line2d_19">
      <path d="M 74.448 246.4128 
L 642.96 246.4128 
" clip-path="url(#pbbecd6eb97)" style="fill: none; stroke: #dfe5e8; stroke-width: 0.65; stroke-linecap: square"/>
     </g>
     <g id="line2d_20">
      <g>
       <use xlink:href="#md15dfbbc77" x="74.448" y="246.4128" style="stroke: #000000; stroke-width: 0.8"/>
      </g>
     </g>
     <g id="text_11">
      <text style="font: 10px 'DejaVu Sans', 'Bitstream Vera Sans', 'Computer Modern Sans Serif', 'Lucida Grande', 'Verdana', 'Geneva', 'Lucid', 'Arial', 'Helvetica', 'Avant Garde', sans-serif; text-anchor: end" x="67.448" y="250.212019" transform="rotate(-0 67.448 250.212019)">40</text>
     </g>
    </g>
    <g id="ytick_4">
     <g id="line2d_21">
      <path d="M 74.448 195.5232 
L 642.96 195.5232 
" clip-path="url(#pbbecd6eb97)" style="fill: none; stroke: #dfe5e8; stroke-width: 0.65; stroke-linecap: square"/>
     </g>
     <g id="line2d_22">
      <g>
       <use xlink:href="#md15dfbbc77" x="74.448" y="195.5232" style="stroke: #000000; stroke-width: 0.8"/>
      </g>
     </g>
     <g id="text_12">
      <text style="font: 10px 'DejaVu Sans', 'Bitstream Vera Sans', 'Computer Modern Sans Serif', 'Lucida Grande', 'Verdana', 'Geneva', 'Lucid', 'Arial', 'Helvetica', 'Avant Garde', sans-serif; text-anchor: end" x="67.448" y="199.322419" transform="rotate(-0 67.448 199.322419)">60</text>
     </g>
    </g>
    <g id="ytick_5">
     <g id="line2d_23">
      <path d="M 74.448 144.6336 
L 642.96 144.6336 
" clip-path="url(#pbbecd6eb97)" style="fill: none; stroke: #dfe5e8; stroke-width: 0.65; stroke-linecap: square"/>
     </g>
     <g id="line2d_24">
      <g>
       <use xlink:href="#md15dfbbc77" x="74.448" y="144.6336" style="stroke: #000000; stroke-width: 0.8"/>
      </g>
     </g>
     <g id="text_13">
      <text style="font: 10px 'DejaVu Sans', 'Bitstream Vera Sans', 'Computer Modern Sans Serif', 'Lucida Grande', 'Verdana', 'Geneva', 'Lucid', 'Arial', 'Helvetica', 'Avant Garde', sans-serif; text-anchor: end" x="67.448" y="148.432819" transform="rotate(-0 67.448 148.432819)">80</text>
     </g>
    </g>
    <g id="ytick_6">
     <g id="line2d_25">
      <path d="M 74.448 93.744 
L 642.96 93.744 
" clip-path="url(#pbbecd6eb97)" style="fill: none; stroke: #dfe5e8; stroke-width: 0.65; stroke-linecap: square"/>
     </g>
     <g id="line2d_26">
      <g>
       <use xlink:href="#md15dfbbc77" x="74.448" y="93.744" style="stroke: #000000; stroke-width: 0.8"/>
      </g>
     </g>
     <g id="text_14">
      <text style="font: 10px 'DejaVu Sans', 'Bitstream Vera Sans', 'Computer Modern Sans Serif', 'Lucida Grande', 'Verdana', 'Geneva', 'Lucid', 'Arial', 'Helvetica', 'Avant Garde', sans-serif; text-anchor: end" x="67.448" y="97.543219" transform="rotate(-0 67.448 97.543219)">100</text>
     </g>
    </g>
    <g id="text_15">
     <text style="font: 10px 'DejaVu Sans', 'Bitstream Vera Sans', 'Computer Modern Sans Serif', 'Lucida Grande', 'Verdana', 'Geneva', 'Lucid', 'Arial', 'Helvetica', 'Avant Garde', sans-serif; text-anchor: middle" x="42.280812" y="220.968" transform="rotate(-90 42.280812 220.968)">observers%</text>
    </g>
   </g>
   <g id="line2d_27">
    <path d="M 74.448 348.192 
L 97.18848 348.192 
L 99.08352 346.560923 
L 102.8736 346.560923 
L 104.76864 344.929846 
L 108.55872 344.929846 
L 110.45376 341.667692 
L 112.3488 340.036615 
L 121.824 340.036615 
L 123.71904 338.405538 
L 133.19424 338.405538 
L 135.08928 336.774462 
L 136.98432 333.512308 
L 138.87936 331.881231 
L 140.7744 329.687714 
L 150.2496 321.532329 
L 152.14464 316.076658 
L 154.03968 316.076658 
L 155.93472 314.445581 
L 157.82976 314.445581 
L 159.7248 311.183427 
L 161.61984 311.183427 
L 163.51488 308.98991 
L 165.40992 307.358833 
L 167.30496 301.340721 
L 169.2 295.88505 
L 176.78016 295.88505 
L 178.6752 293.691533 
L 180.57024 290.429379 
L 182.46528 284.973708 
L 193.83552 284.973708 
L 195.73056 283.342631 
L 197.6256 278.955597 
L 199.52064 278.955597 
L 203.31072 275.693443 
L 207.1008 275.693443 
L 208.99584 272.431289 
L 212.78592 272.431289 
L 214.68096 268.044255 
L 218.47104 268.044255 
L 220.36608 260.957507 
L 224.15616 260.957507 
L 227.94624 257.695353 
L 229.84128 254.433199 
L 231.73632 250.608605 
L 235.5264 250.608605 
L 237.42144 246.22157 
L 239.31648 242.396976 
L 241.21152 235.310228 
L 243.10656 235.310228 
L 245.0016 233.679151 
L 246.89664 229.854557 
L 248.79168 229.854557 
L 250.68672 228.22348 
L 252.58176 222.767809 
L 254.4768 222.767809 
L 256.37184 218.943215 
L 258.26688 218.943215 
L 260.16192 217.312138 
L 262.05696 217.312138 
L 263.952 215.681061 
L 265.84704 215.681061 
L 267.74208 212.418907 
L 269.63712 212.418907 
L 271.53216 210.22539 
L 273.4272 210.22539 
L 275.32224 208.031873 
L 277.21728 208.031873 
L 279.11232 206.400796 
L 281.00736 206.400796 
L 282.9024 202.576202 
L 284.79744 202.576202 
L 286.69248 198.751607 
L 288.58752 197.120531 
L 290.48256 197.120531 
L 292.3776 195.489454 
L 294.27264 195.489454 
L 298.06272 192.2273 
L 301.8528 192.2273 
L 303.74784 190.596223 
L 305.64288 190.596223 
L 307.53792 188.965146 
L 309.43296 186.771629 
L 311.328 186.771629 
L 313.22304 182.947034 
L 315.11808 182.947034 
L 318.90816 179.684881 
L 320.8032 179.684881 
L 322.69824 175.860286 
L 326.48832 175.860286 
L 328.38336 172.035692 
L 332.17344 172.035692 
L 334.06848 169.842175 
L 335.96352 169.842175 
L 337.85856 168.211098 
L 339.7536 166.017581 
L 349.2288 166.017581 
L 351.12384 163.824064 
L 353.01888 162.192987 
L 356.80896 157.805952 
L 358.704 157.805952 
L 360.59904 155.612435 
L 366.28416 155.612435 
L 371.96928 149.031883 
L 377.6544 149.031883 
L 379.54944 146.838366 
L 381.44448 146.838366 
L 383.33952 145.207289 
L 398.49984 145.207289 
L 400.39488 140.820255 
L 402.28992 140.820255 
L 404.18496 139.189178 
L 419.34528 139.189178 
L 421.24032 136.99566 
L 426.92544 136.99566 
L 428.82048 134.802143 
L 432.61056 134.802143 
L 434.5056 132.608626 
L 447.77088 132.608626 
L 449.66592 130.415109 
L 461.03616 130.415109 
L 462.9312 128.221592 
L 464.82624 128.221592 
L 466.72128 126.028074 
L 474.30144 126.028074 
L 476.19648 121.64104 
L 481.8816 121.64104 
L 483.77664 119.447523 
L 485.67168 119.447523 
L 487.56672 117.816446 
L 493.25184 117.816446 
L 495.14688 116.185369 
L 508.41216 116.185369 
L 510.3072 113.991851 
L 512.20224 112.360775 
L 515.99232 112.360775 
L 519.7824 107.97374 
L 523.57248 107.97374 
L 525.46752 106.342663 
L 531.15264 106.342663 
L 533.04768 104.149146 
L 548.208 104.149146 
L 550.10304 101.955629 
L 557.6832 101.955629 
L 559.57824 99.762111 
L 597.47904 99.762111 
L 599.37408 98.131034 
L 642.96 98.131034 
L 642.96 98.131034 
" clip-path="url(#pbbecd6eb97)" style="fill: none; stroke: #252525; stroke-width: 2.5; stroke-linecap: square"/>
   </g>
   <g id="line2d_28">
    <path d="M 74.448 348.192 
L 89.60832 348.192 
L 91.50336 345.998483 
L 99.08352 345.998483 
L 100.97856 344.367406 
L 102.8736 344.367406 
L 104.76864 342.736329 
L 110.45376 342.736329 
L 112.3488 340.542812 
L 118.03392 340.542812 
L 119.92896 336.155777 
L 133.19424 336.155777 
L 135.08928 333.96226 
L 144.56448 333.96226 
L 146.45952 331.768743 
L 150.2496 331.768743 
L 152.14464 329.575225 
L 161.61984 329.575225 
L 163.51488 327.381708 
L 165.40992 327.381708 
L 169.2 322.994674 
L 190.04544 322.994674 
L 191.94048 315.345485 
L 193.83552 313.714408 
L 195.73056 313.714408 
L 199.52064 310.452255 
L 205.20576 310.452255 
L 207.1008 308.258737 
L 208.99584 306.62766 
L 210.89088 304.434143 
L 214.68096 304.434143 
L 216.576 300.609549 
L 218.47104 298.416032 
L 220.36608 298.416032 
L 222.26112 294.028997 
L 224.15616 294.028997 
L 226.0512 290.204403 
L 227.94624 288.010886 
L 229.84128 286.379809 
L 233.63136 286.379809 
L 235.5264 282.555215 
L 237.42144 280.924138 
L 239.31648 277.099544 
L 243.10656 277.099544 
L 245.0016 272.712509 
L 246.89664 266.694398 
L 248.79168 265.063321 
L 250.68672 261.238727 
L 252.58176 259.04521 
L 254.4768 257.414133 
L 256.37184 257.414133 
L 258.26688 255.220615 
L 260.16192 250.327385 
L 262.05696 248.696308 
L 263.952 248.696308 
L 265.84704 247.065231 
L 267.74208 247.065231 
L 269.63712 241.60956 
L 271.53216 237.222525 
L 275.32224 233.960371 
L 277.21728 230.698218 
L 279.11232 228.5047 
L 281.00736 226.873623 
L 282.9024 223.049029 
L 284.79744 223.049029 
L 286.69248 220.855512 
L 288.58752 220.855512 
L 290.48256 219.224435 
L 299.95776 219.224435 
L 301.8528 213.768764 
L 303.74784 212.137687 
L 305.64288 208.875533 
L 307.53792 208.875533 
L 309.43296 206.682016 
L 311.328 199.595268 
L 313.22304 199.595268 
L 315.11808 195.770674 
L 317.01312 194.139597 
L 318.90816 194.139597 
L 320.8032 191.94608 
L 322.69824 191.94608 
L 324.59328 188.683926 
L 326.48832 187.052849 
L 334.06848 187.052849 
L 335.96352 183.790695 
L 337.85856 182.159618 
L 339.7536 182.159618 
L 341.64864 178.335024 
L 354.91392 178.335024 
L 356.80896 175.07287 
L 358.704 175.07287 
L 360.59904 170.685836 
L 362.49408 170.685836 
L 364.38912 169.054759 
L 366.28416 165.230164 
L 368.1792 163.036647 
L 370.07424 163.036647 
L 371.96928 159.774493 
L 373.86432 158.143416 
L 377.6544 150.494228 
L 379.54944 150.494228 
L 385.23456 145.600997 
L 387.1296 143.40748 
L 390.91968 143.40748 
L 392.81472 141.776403 
L 394.70976 141.776403 
L 396.6048 137.951809 
L 398.49984 137.951809 
L 402.28992 134.689655 
L 406.08 134.689655 
L 407.97504 133.058578 
L 417.45024 133.058578 
L 419.34528 131.427501 
L 421.24032 131.427501 
L 423.13536 127.040467 
L 432.61056 127.040467 
L 434.5056 125.40939 
L 445.87584 125.40939 
L 447.77088 123.778313 
L 453.456 123.778313 
L 455.35104 122.147236 
L 457.24608 118.322642 
L 461.03616 118.322642 
L 464.82624 115.060488 
L 476.19648 115.060488 
L 478.09152 113.429411 
L 479.98656 111.235894 
L 487.56672 111.235894 
L 489.46176 109.604817 
L 491.3568 109.604817 
L 493.25184 107.4113 
L 495.14688 105.780223 
L 544.41792 105.780223 
L 546.31296 104.149146 
L 574.73856 104.149146 
L 576.6336 101.955629 
L 595.584 101.955629 
L 597.47904 99.762111 
L 625.90464 99.762111 
L 627.79968 98.131034 
L 642.96 98.131034 
L 642.96 98.131034 
" clip-path="url(#pbbecd6eb97)" style="fill: none; stroke: #3b83b4; stroke-width: 1.35; stroke-linecap: square"/>
   </g>
   <g id="line2d_29">
    <path d="M 74.448 348.192 
L 83.9232 348.192 
L 85.81824 344.929846 
L 89.60832 344.929846 
L 91.50336 343.298769 
L 108.55872 343.298769 
L 110.45376 341.667692 
L 116.13888 341.667692 
L 118.03392 337.843098 
L 121.824 334.580944 
L 123.71904 334.580944 
L 125.61408 332.949867 
L 127.50912 332.949867 
L 131.2992 329.687714 
L 135.08928 329.687714 
L 136.98432 328.056637 
L 138.87936 328.056637 
L 140.7744 326.42556 
L 144.56448 326.42556 
L 146.45952 320.969889 
L 148.35456 320.969889 
L 150.2496 319.338812 
L 155.93472 319.338812 
L 163.51488 312.814504 
L 165.40992 312.814504 
L 169.2 309.55235 
L 171.09504 309.55235 
L 172.99008 306.290196 
L 174.88512 304.096679 
L 176.78016 302.465602 
L 178.6752 302.465602 
L 180.57024 300.834525 
L 182.46528 297.572371 
L 184.36032 297.572371 
L 186.25536 295.378854 
L 190.04544 292.1167 
L 195.73056 285.536149 
L 197.6256 285.536149 
L 199.52064 281.711554 
L 201.41568 281.711554 
L 203.31072 280.080477 
L 205.20576 276.818324 
L 207.1008 275.187247 
L 212.78592 275.187247 
L 214.68096 273.55617 
L 216.576 273.55617 
L 218.47104 269.731576 
L 220.36608 267.538058 
L 222.26112 261.519947 
L 224.15616 257.695353 
L 226.0512 257.695353 
L 229.84128 254.433199 
L 231.73632 250.608605 
L 233.63136 245.715374 
L 237.42144 245.715374 
L 239.31648 243.521857 
L 241.21152 243.521857 
L 243.10656 241.89078 
L 245.0016 235.872668 
L 246.89664 235.872668 
L 250.68672 232.610515 
L 252.58176 232.610515 
L 254.4768 230.979438 
L 256.37184 230.979438 
L 258.26688 227.154844 
L 260.16192 227.154844 
L 262.05696 223.330249 
L 263.952 221.136732 
L 265.84704 219.505655 
L 267.74208 219.505655 
L 269.63712 217.874578 
L 271.53216 215.681061 
L 273.4272 211.856467 
L 277.21728 211.856467 
L 279.11232 210.22539 
L 281.00736 208.031873 
L 282.9024 204.769719 
L 290.48256 204.769719 
L 292.3776 199.314048 
L 294.27264 196.051894 
L 298.06272 196.051894 
L 299.95776 193.858377 
L 301.8528 192.2273 
L 303.74784 192.2273 
L 305.64288 190.596223 
L 309.43296 190.596223 
L 311.328 186.771629 
L 317.01312 186.771629 
L 320.8032 183.509475 
L 322.69824 183.509475 
L 324.59328 181.878398 
L 328.38336 177.491363 
L 332.17344 177.491363 
L 334.06848 175.297846 
L 341.64864 175.297846 
L 343.54368 173.666769 
L 345.43872 173.666769 
L 347.33376 169.842175 
L 349.2288 168.211098 
L 353.01888 168.211098 
L 354.91392 166.017581 
L 356.80896 166.017581 
L 358.704 161.630546 
L 370.07424 161.630546 
L 375.75936 155.049995 
L 377.6544 151.225401 
L 389.02464 151.225401 
L 394.70976 144.644849 
L 404.18496 144.644849 
L 406.08 142.451332 
L 407.97504 140.820255 
L 426.92544 140.820255 
L 428.82048 136.99566 
L 438.29568 136.99566 
L 440.19072 134.802143 
L 445.87584 134.802143 
L 447.77088 132.608626 
L 449.66592 132.608626 
L 451.56096 130.415109 
L 453.456 130.415109 
L 455.35104 128.221592 
L 457.24608 128.221592 
L 461.03616 123.834557 
L 462.9312 122.20348 
L 466.72128 122.20348 
L 468.61632 118.378886 
L 487.56672 118.378886 
L 489.46176 116.747809 
L 495.14688 116.747809 
L 498.93696 112.360775 
L 504.62208 112.360775 
L 506.51712 110.167257 
L 523.57248 110.167257 
L 525.46752 107.97374 
L 533.04768 107.97374 
L 534.94272 105.780223 
L 538.7328 105.780223 
L 540.62784 103.586706 
L 542.52288 103.586706 
L 544.41792 101.393188 
L 548.208 101.393188 
L 550.10304 99.762111 
L 572.84352 99.762111 
L 574.73856 98.131034 
L 642.96 98.131034 
L 642.96 98.131034 
" clip-path="url(#pbbecd6eb97)" style="fill: none; stroke-dasharray: 4.995,2.16; stroke-dashoffset: 0; stroke: #c38a19; stroke-width: 1.35"/>
   </g>
   <g id="line2d_30">
    <path d="M 74.448 348.192 
L 93.3984 348.192 
L 95.29344 346.560923 
L 106.66368 346.560923 
L 108.55872 343.298769 
L 112.3488 343.298769 
L 114.24384 341.667692 
L 123.71904 341.667692 
L 125.61408 340.036615 
L 127.50912 336.212021 
L 129.40416 334.580944 
L 131.2992 334.580944 
L 135.08928 331.31879 
L 136.98432 331.31879 
L 138.87936 329.125273 
L 140.7744 327.494196 
L 148.35456 327.494196 
L 150.2496 325.863119 
L 154.03968 325.863119 
L 155.93472 323.669602 
L 157.82976 323.669602 
L 159.7248 320.407448 
L 161.61984 318.776371 
L 163.51488 314.951777 
L 165.40992 313.3207 
L 174.88512 313.3207 
L 176.78016 311.127183 
L 180.57024 307.865029 
L 182.46528 305.671512 
L 184.36032 302.409358 
L 186.25536 300.778281 
L 188.1504 294.197729 
L 190.04544 294.197729 
L 191.94048 292.004212 
L 193.83552 288.742058 
L 195.73056 288.742058 
L 197.6256 282.723947 
L 199.52064 279.461793 
L 201.41568 279.461793 
L 205.20576 271.812605 
L 208.99584 271.812605 
L 214.68096 262.026143 
L 216.576 255.501836 
L 220.36608 255.501836 
L 222.26112 253.308318 
L 224.15616 249.483724 
L 226.0512 247.290207 
L 227.94624 243.465613 
L 231.73632 243.465613 
L 233.63136 241.272095 
L 235.5264 241.272095 
L 237.42144 239.078578 
L 239.31648 239.078578 
L 241.21152 237.447501 
L 243.10656 237.447501 
L 246.89664 234.185347 
L 248.79168 231.99183 
L 252.58176 228.729676 
L 254.4768 228.729676 
L 258.26688 225.467523 
L 265.84704 225.467523 
L 267.74208 218.380775 
L 271.53216 218.380775 
L 273.4272 216.749698 
L 275.32224 216.749698 
L 277.21728 213.487544 
L 281.00736 213.487544 
L 284.79744 205.838355 
L 286.69248 203.644838 
L 290.48256 203.644838 
L 292.3776 200.382684 
L 296.16768 200.382684 
L 298.06272 196.55809 
L 299.95776 194.927013 
L 303.74784 194.927013 
L 305.64288 188.908902 
L 309.43296 188.908902 
L 311.328 187.277825 
L 313.22304 183.453231 
L 315.11808 183.453231 
L 317.01312 181.259714 
L 318.90816 176.872679 
L 324.59328 176.872679 
L 326.48832 173.610525 
L 328.38336 173.610525 
L 330.2784 171.979448 
L 332.17344 169.785931 
L 335.96352 169.785931 
L 337.85856 167.592414 
L 339.7536 165.961337 
L 345.43872 165.961337 
L 351.12384 159.380785 
L 353.01888 157.749708 
L 354.91392 155.556191 
L 356.80896 155.556191 
L 358.704 153.925114 
L 360.59904 153.925114 
L 362.49408 152.294037 
L 364.38912 150.10052 
L 370.07424 150.10052 
L 371.96928 147.907003 
L 373.86432 147.907003 
L 375.75936 146.275926 
L 383.33952 146.275926 
L 385.23456 144.082408 
L 390.91968 144.082408 
L 392.81472 140.257814 
L 396.6048 140.257814 
L 398.49984 138.064297 
L 409.87008 138.064297 
L 411.76512 135.87078 
L 415.5552 135.87078 
L 417.45024 133.677263 
L 423.13536 133.677263 
L 425.0304 132.046186 
L 426.92544 129.852668 
L 430.71552 129.852668 
L 432.61056 127.659151 
L 442.08576 127.659151 
L 443.9808 126.028074 
L 447.77088 126.028074 
L 449.66592 124.396997 
L 455.35104 124.396997 
L 457.24608 122.20348 
L 459.14112 117.816446 
L 461.03616 117.816446 
L 462.9312 116.185369 
L 466.72128 116.185369 
L 468.61632 113.991851 
L 470.51136 112.360775 
L 481.8816 112.360775 
L 483.77664 110.167257 
L 497.04192 110.167257 
L 498.93696 107.97374 
L 508.41216 107.97374 
L 510.3072 105.780223 
L 521.67744 105.780223 
L 523.57248 103.586706 
L 550.10304 103.586706 
L 551.99808 101.393188 
L 555.78816 101.393188 
L 557.6832 99.762111 
L 569.05344 99.762111 
L 570.94848 98.131034 
L 642.96 98.131034 
L 642.96 98.131034 
" clip-path="url(#pbbecd6eb97)" style="fill: none; stroke-dasharray: 1.35,2.2275; stroke-dashoffset: 0; stroke: #7d8a92; stroke-width: 1.35"/>
   </g>
   <g id="line2d_31">
    <path d="M 74.448 348.192 
L 108.55872 348.192 
L 110.45376 345.998483 
L 138.87936 345.998483 
L 140.7744 343.804966 
L 150.2496 343.804966 
L 152.14464 341.611448 
L 159.7248 341.611448 
L 163.51488 337.224414 
L 169.2 337.224414 
L 171.09504 335.030897 
L 172.99008 335.030897 
L 174.88512 332.837379 
L 176.78016 332.837379 
L 178.6752 331.206302 
L 182.46528 331.206302 
L 186.25536 326.819268 
L 191.94048 326.819268 
L 193.83552 324.625751 
L 195.73056 320.238716 
L 203.31072 320.238716 
L 205.20576 316.414122 
L 212.78592 316.414122 
L 214.68096 314.220605 
L 216.576 314.220605 
L 218.47104 309.83357 
L 224.15616 309.83357 
L 226.0512 307.640053 
L 227.94624 307.640053 
L 231.73632 303.253019 
L 243.10656 303.253019 
L 245.0016 301.059501 
L 250.68672 301.059501 
L 252.58176 298.865984 
L 254.4768 295.04139 
L 256.37184 292.847873 
L 275.32224 292.847873 
L 277.21728 291.216796 
L 281.00736 291.216796 
L 282.9024 287.392202 
L 284.79744 285.198684 
L 288.58752 285.198684 
L 290.48256 283.005167 
L 294.27264 275.355979 
L 298.06272 275.355979 
L 299.95776 273.724902 
L 301.8528 270.462748 
L 303.74784 266.638154 
L 305.64288 264.444637 
L 307.53792 264.444637 
L 309.43296 262.81356 
L 311.328 262.81356 
L 313.22304 258.988966 
L 315.11808 256.795448 
L 317.01312 250.214897 
L 320.8032 250.214897 
L 322.69824 246.390302 
L 326.48832 243.128149 
L 328.38336 243.128149 
L 330.2784 240.934631 
L 332.17344 240.934631 
L 335.96352 237.672477 
L 337.85856 235.47896 
L 339.7536 232.216806 
L 341.64864 232.216806 
L 343.54368 228.392212 
L 345.43872 226.198695 
L 351.12384 226.198695 
L 353.01888 222.936541 
L 356.80896 222.936541 
L 358.704 219.111947 
L 360.59904 213.656276 
L 362.49408 213.656276 
L 364.38912 212.025199 
L 366.28416 209.831682 
L 368.1792 208.200605 
L 371.96928 208.200605 
L 373.86432 206.007088 
L 377.6544 202.744934 
L 379.54944 199.48278 
L 381.44448 197.289263 
L 385.23456 194.027109 
L 387.1296 194.027109 
L 389.02464 191.833592 
L 390.91968 188.571438 
L 392.81472 186.940361 
L 409.87008 186.940361 
L 411.76512 183.678207 
L 413.66016 179.853613 
L 415.5552 176.591459 
L 417.45024 176.591459 
L 421.24032 170.067151 
L 425.0304 170.067151 
L 426.92544 168.436074 
L 428.82048 168.436074 
L 430.71552 166.804997 
L 432.61056 164.61148 
L 434.5056 164.61148 
L 438.29568 161.349326 
L 443.9808 161.349326 
L 445.87584 159.718249 
L 451.56096 159.718249 
L 453.456 157.524732 
L 455.35104 157.524732 
L 457.24608 155.331215 
L 459.14112 153.700138 
L 461.03616 153.700138 
L 462.9312 147.17583 
L 464.82624 147.17583 
L 466.72128 143.351236 
L 472.4064 143.351236 
L 474.30144 141.720159 
L 476.19648 138.458005 
L 479.98656 138.458005 
L 487.56672 131.933698 
L 495.14688 131.933698 
L 497.04192 130.302621 
L 498.93696 130.302621 
L 500.832 128.671544 
L 504.62208 128.671544 
L 506.51712 127.040467 
L 508.41216 121.584796 
L 512.20224 121.584796 
L 514.09728 119.953719 
L 531.15264 119.953719 
L 533.04768 118.322642 
L 534.94272 118.322642 
L 536.83776 115.060488 
L 546.31296 115.060488 
L 548.208 112.866971 
L 553.89312 112.866971 
L 555.78816 111.235894 
L 561.47328 111.235894 
L 565.26336 107.97374 
L 567.1584 107.97374 
L 569.05344 105.780223 
L 576.6336 105.780223 
L 578.52864 104.149146 
L 641.06496 104.149146 
L 642.96 101.955629 
L 642.96 101.955629 
" clip-path="url(#pbbecd6eb97)" style="fill: none; stroke-dasharray: 8.64,2.16,1.35,2.16; stroke-dashoffset: 0; stroke: #d0526a; stroke-width: 1.35"/>
   </g>
   <g id="line2d_32">
    <path d="M 74.448 348.192 
L 118.03392 348.192 
L 119.92896 345.998483 
L 154.03968 345.998483 
L 155.93472 343.804966 
L 180.57024 343.804966 
L 182.46528 341.611448 
L 184.36032 341.611448 
L 186.25536 337.224414 
L 190.04544 337.224414 
L 191.94048 335.030897 
L 193.83552 335.030897 
L 195.73056 330.643862 
L 197.6256 328.450345 
L 207.1008 328.450345 
L 208.99584 324.06331 
L 229.84128 324.06331 
L 233.63136 319.676276 
L 248.79168 319.676276 
L 252.58176 315.289241 
L 258.26688 315.289241 
L 260.16192 313.658164 
L 263.952 313.658164 
L 265.84704 311.464647 
L 271.53216 311.464647 
L 273.4272 309.27113 
L 275.32224 309.27113 
L 277.21728 302.690578 
L 284.79744 302.690578 
L 286.69248 300.497061 
L 288.58752 300.497061 
L 290.48256 296.672467 
L 292.3776 294.47895 
L 299.95776 294.47895 
L 301.8528 290.091915 
L 303.74784 290.091915 
L 307.53792 285.704881 
L 315.11808 285.704881 
L 317.01312 283.511363 
L 318.90816 280.24921 
L 322.69824 280.24921 
L 324.59328 278.055692 
L 334.06848 278.055692 
L 335.96352 276.424615 
L 337.85856 276.424615 
L 339.7536 274.231098 
L 341.64864 272.600021 
L 360.59904 272.600021 
L 362.49408 270.968944 
L 364.38912 270.968944 
L 371.96928 264.444637 
L 373.86432 262.251119 
L 375.75936 254.601931 
L 377.6544 252.408414 
L 381.44448 252.408414 
L 383.33952 250.777337 
L 385.23456 247.515183 
L 390.91968 247.515183 
L 392.81472 245.321666 
L 394.70976 241.497072 
L 396.6048 239.303554 
L 400.39488 236.041401 
L 402.28992 233.847883 
L 407.97504 233.847883 
L 409.87008 230.023289 
L 415.5552 230.023289 
L 417.45024 228.392212 
L 419.34528 224.005178 
L 421.24032 220.743024 
L 426.92544 220.743024 
L 428.82048 218.549507 
L 430.71552 218.549507 
L 432.61056 216.91843 
L 434.5056 216.91843 
L 438.29568 213.656276 
L 440.19072 213.656276 
L 442.08576 210.394122 
L 443.9808 210.394122 
L 445.87584 208.200605 
L 447.77088 206.569528 
L 449.66592 206.569528 
L 451.56096 204.938451 
L 453.456 201.113857 
L 457.24608 201.113857 
L 459.14112 199.48278 
L 461.03616 197.289263 
L 462.9312 194.027109 
L 464.82624 192.396032 
L 466.72128 188.571438 
L 470.51136 185.309284 
L 474.30144 185.309284 
L 476.19648 183.115767 
L 478.09152 179.853613 
L 485.67168 179.853613 
L 487.56672 178.222536 
L 491.3568 178.222536 
L 493.25184 174.960382 
L 502.72704 166.804997 
L 506.51712 166.804997 
L 508.41216 165.17392 
L 510.3072 165.17392 
L 512.20224 163.542844 
L 514.09728 163.542844 
L 517.88736 160.28069 
L 519.7824 160.28069 
L 521.67744 154.825019 
L 523.57248 153.193942 
L 525.46752 149.931788 
L 536.83776 149.931788 
L 538.7328 147.738271 
L 540.62784 147.738271 
L 542.52288 145.544753 
L 546.31296 145.544753 
L 548.208 142.282599 
L 551.99808 142.282599 
L 553.89312 140.089082 
L 557.6832 140.089082 
L 565.26336 133.564775 
L 567.1584 133.564775 
L 569.05344 131.933698 
L 570.94848 131.933698 
L 572.84352 128.671544 
L 584.21376 128.671544 
L 586.1088 127.040467 
L 588.00384 123.215873 
L 589.89888 123.215873 
L 591.79392 121.022355 
L 593.68896 117.760202 
L 595.584 116.129125 
L 616.42944 116.129125 
L 618.32448 114.498048 
L 622.11456 114.498048 
L 624.0096 112.866971 
L 625.90464 112.866971 
L 627.79968 110.673454 
L 641.06496 110.673454 
L 642.96 109.042377 
L 642.96 109.042377 
" clip-path="url(#pbbecd6eb97)" style="fill: none; stroke-dasharray: 6.75,2.7,1.35,2.7; stroke-dashoffset: 0; stroke: #2f8f84; stroke-width: 1.35"/>
   </g>
   <g id="patch_4">
    <path d="M 74.448 348.192 
L 74.448 93.744 
" style="fill: none; stroke: #000000; stroke-width: 0.8; stroke-linejoin: miter; stroke-linecap: square"/>
   </g>
   <g id="patch_5">
    <path d="M 74.448 348.192 
L 642.96 348.192 
" style="fill: none; stroke: #000000; stroke-width: 0.8; stroke-linejoin: miter; stroke-linecap: square"/>
   </g>
  </g>
  <g id="text_16">
   <text style="font: 18px 'DejaVu Sans', 'Bitstream Vera Sans', 'Computer Modern Sans Serif', 'Lucida Grande', 'Verdana', 'Geneva', 'Lucid', 'Arial', 'Helvetica', 'Avant Garde', sans-serif; text-anchor: start" x="74.448" y="38.229188" transform="rotate(-0 74.448 38.229188)">WLED LCD → QD-OLED</text>
  </g>
  <g id="text_17">
   <text style="fill: #66747c; font: 10px 'DejaVu Sans', 'Bitstream Vera Sans', 'Computer Modern Sans Serif', 'Lucida Grande', 'Verdana', 'Geneva', 'Lucid', 'Arial', 'Helvetica', 'Avant Garde', sans-serif; text-anchor: start" x="74.448" y="64.728" transform="rotate(-0 74.448 64.728)">LED-V2</text>
  </g>
  <g id="legend_1">
   <g id="line2d_33">
    <path d="M 185.17875 404.151391 
L 194.27875 404.151391 
L 203.37875 404.151391 
" style="fill: none; stroke: #252525; stroke-width: 2.5; stroke-linecap: square"/>
   </g>
   <g id="text_18">
    <text style="font: 9.1px 'DejaVu Sans', 'Bitstream Vera Sans', 'Computer Modern Sans Serif', 'Lucida Grande', 'Verdana', 'Geneva', 'Lucid', 'Arial', 'Helvetica', 'Avant Garde', sans-serif; text-anchor: start" x="210.65875" y="407.336391" transform="rotate(-0 210.65875 407.336391)">Potera CMF</text>
   </g>
   <g id="line2d_34">
    <path d="M 185.17875 417.508484 
L 194.27875 417.508484 
L 203.37875 417.508484 
" style="fill: none; stroke: #3b83b4; stroke-width: 1.35; stroke-linecap: square"/>
   </g>
   <g id="text_19">
    <text style="font: 9.1px 'DejaVu Sans', 'Bitstream Vera Sans', 'Computer Modern Sans Serif', 'Lucida Grande', 'Verdana', 'Geneva', 'Lucid', 'Arial', 'Helvetica', 'Avant Garde', sans-serif; text-anchor: start" x="210.65875" y="420.693484" transform="rotate(-0 210.65875 420.693484)">CIE 2015 2°</text>
   </g>
   <g id="line2d_35">
    <path d="M 282.931234 404.151391 
L 292.031234 404.151391 
L 301.131234 404.151391 
" style="fill: none; stroke-dasharray: 4.995,2.16; stroke-dashoffset: 0; stroke: #c38a19; stroke-width: 1.35"/>
   </g>
   <g id="text_20">
    <text style="font: 9.1px 'DejaVu Sans', 'Bitstream Vera Sans', 'Computer Modern Sans Serif', 'Lucida Grande', 'Verdana', 'Geneva', 'Lucid', 'Arial', 'Helvetica', 'Avant Garde', sans-serif; text-anchor: start" x="308.411234" y="407.336391" transform="rotate(-0 308.411234 407.336391)">CIE 2015 10°</text>
   </g>
   <g id="line2d_36">
    <path d="M 282.931234 417.508484 
L 292.031234 417.508484 
L 301.131234 417.508484 
" style="fill: none; stroke-dasharray: 1.35,2.2275; stroke-dashoffset: 0; stroke: #7d8a92; stroke-width: 1.35"/>
   </g>
   <g id="text_21">
    <text style="font: 9.1px 'DejaVu Sans', 'Bitstream Vera Sans', 'Computer Modern Sans Serif', 'Lucida Grande', 'Verdana', 'Geneva', 'Lucid', 'Arial', 'Helvetica', 'Avant Garde', sans-serif; text-anchor: start" x="308.411234" y="420.693484" transform="rotate(-0 308.411234 420.693484)">CIE 1964 10°</text>
   </g>
   <g id="line2d_37">
    <path d="M 386.473594 404.151391 
L 395.573594 404.151391 
L 404.673594 404.151391 
" style="fill: none; stroke-dasharray: 8.64,2.16,1.35,2.16; stroke-dashoffset: 0; stroke: #d0526a; stroke-width: 1.35"/>
   </g>
   <g id="text_22">
    <text style="font: 9.1px 'DejaVu Sans', 'Bitstream Vera Sans', 'Computer Modern Sans Serif', 'Lucida Grande', 'Verdana', 'Geneva', 'Lucid', 'Arial', 'Helvetica', 'Avant Garde', sans-serif; text-anchor: start" x="411.953594" y="407.336391" transform="rotate(-0 411.953594 407.336391)">CIE 1931 2°</text>
   </g>
   <g id="line2d_38">
    <path d="M 386.473594 417.508484 
L 395.573594 417.508484 
L 404.673594 417.508484 
" style="fill: none; stroke-dasharray: 6.75,2.7,1.35,2.7; stroke-dashoffset: 0; stroke: #2f8f84; stroke-width: 1.35"/>
   </g>
   <g id="text_23">
    <text style="font: 9.1px 'DejaVu Sans', 'Bitstream Vera Sans', 'Computer Modern Sans Serif', 'Lucida Grande', 'Verdana', 'Geneva', 'Lucid', 'Arial', 'Helvetica', 'Avant Garde', sans-serif; text-anchor: start" x="411.953594" y="420.693484" transform="rotate(-0 411.953594 420.693484)">Judd–Vos 1978 2°</text>
   </g>
  </g>
 </g>
 <defs>
  <clipPath id="pbbecd6eb97">
   <rect x="74.448" y="93.744" width="568.512" height="254.448"/>
  </clipPath>
 </defs>
</svg>
