<?xml version="1.0" encoding="utf-8" standalone="no"?>
<!DOCTYPE svg PUBLIC "-//W3C//DTD SVG 1.1//EN"
  "http://www.w3.org/Graphics/SVG/1.1/DTD/svg11.dtd">
<svg xmlns:xlink="http://www.w3.org/1999/xlink" width="676.8pt" height="446.4pt" viewBox="0 0 676.8 446.4" xmlns="http://www.w3.org/2000/svg" version="1.1">
 <metadata>
  <rdf:RDF xmlns:dc="http://purl.org/dc/elements/1.1/" xmlns:cc="http://creativecommons.org/ns#" xmlns:rdf="http://www.w3.org/1999/02/22-rdf-syntax-ns#">
   <cc:Work>
    <dc:type rdf:resource="http://purl.org/dc/dcmitype/StillImage"/>
    <dc:date>2026-07-20T06:42:00.924338</dc:date>
    <dc:format>image/svg+xml</dc:format>
    <dc:creator>
     <cc:Agent>
      <dc:title>Matplotlib v3.9.4, https://matplotlib.org/</dc:title>
     </cc:Agent>
    </dc:creator>
   </cc:Work>
  </rdf:RDF>
 </metadata>
 <defs>
  <style type="text/css">*{stroke-linejoin: round; stroke-linecap: butt}</style>
 </defs>
 <g id="figure_1">
  <g id="patch_1">
   <path d="M 0 446.4 
L 676.8 446.4 
L 676.8 0 
L 0 0 
z
" style="fill: #ffffff"/>
  </g>
  <g id="axes_1">
   <g id="patch_2">
    <path d="M 74.448 348.192 
L 642.96 348.192 
L 642.96 93.744 
L 74.448 93.744 
z
" style="fill: #ffffff"/>
   </g>
   <g id="patch_3">
    <path d="M 169.2 348.192 
L 358.704 348.192 
L 358.704 93.744 
L 169.2 93.744 
z
" clip-path="url(#pe4fb86b12e)" style="fill: #e7f0ea; opacity: 0.58; stroke: #e7f0ea; stroke-linejoin: miter"/>
   </g>
   <g id="matplotlib.axis_1">
    <g id="xtick_1">
     <g id="line2d_1">
      <path d="M 74.448 348.192 
L 74.448 93.744 
" clip-path="url(#pe4fb86b12e)" style="fill: none; stroke: #dfe5e8; stroke-width: 0.65; stroke-linecap: square"/>
     </g>
     <g id="line2d_2">
      <defs>
       <path id="m50a178af39" d="M 0 0 
L 0 3.5 
" style="stroke: #000000; stroke-width: 0.8"/>
      </defs>
      <g>
       <use xlink:href="#m50a178af39" x="74.448" y="348.192" style="stroke: #000000; stroke-width: 0.8"/>
      </g>
     </g>
     <g id="text_1">
      <text style="font: 10px 'DejaVu Sans', 'Bitstream Vera Sans', 'Computer Modern Sans Serif', 'Lucida Grande', 'Verdana', 'Geneva', 'Lucid', 'Arial', 'Helvetica', 'Avant Garde', sans-serif; text-anchor: middle" x="74.448" y="362.790438" transform="rotate(-0 74.448 362.790438)">0</text>
     </g>
    </g>
    <g id="xtick_2">
     <g id="line2d_3">
      <path d="M 169.2 348.192 
L 169.2 93.744 
" clip-path="url(#pe4fb86b12e)" style="fill: none; stroke: #dfe5e8; stroke-width: 0.65; stroke-linecap: square"/>
     </g>
     <g id="line2d_4">
      <g>
       <use xlink:href="#m50a178af39" x="169.2" y="348.192" style="stroke: #000000; stroke-width: 0.8"/>
      </g>
     </g>
     <g id="text_2">
      <text style="font: 10px 'DejaVu Sans', 'Bitstream Vera Sans', 'Computer Modern Sans Serif', 'Lucida Grande', 'Verdana', 'Geneva', 'Lucid', 'Arial', 'Helvetica', 'Avant Garde', sans-serif; text-anchor: middle" x="169.2" y="362.790438" transform="rotate(-0 169.2 362.790438)">1</text>
     </g>
    </g>
    <g id="xtick_3">
     <g id="line2d_5">
      <path d="M 263.952 348.192 
L 263.952 93.744 
" clip-path="url(#pe4fb86b12e)" style="fill: none; stroke: #dfe5e8; stroke-width: 0.65; stroke-linecap: square"/>
     </g>
     <g id="line2d_6">
      <g>
       <use xlink:href="#m50a178af39" x="263.952" y="348.192" style="stroke: #000000; stroke-width: 0.8"/>
      </g>
     </g>
     <g id="text_3">
      <text style="font: 10px 'DejaVu Sans', 'Bitstream Vera Sans', 'Computer Modern Sans Serif', 'Lucida Grande', 'Verdana', 'Geneva', 'Lucid', 'Arial', 'Helvetica', 'Avant Garde', sans-serif; text-anchor: middle" x="263.952" y="362.790438" transform="rotate(-0 263.952 362.790438)">2</text>
     </g>
    </g>
    <g id="xtick_4">
     <g id="line2d_7">
      <path d="M 358.704 348.192 
L 358.704 93.744 
" clip-path="url(#pe4fb86b12e)" style="fill: none; stroke: #dfe5e8; stroke-width: 0.65; stroke-linecap: square"/>
     </g>
     <g id="line2d_8">
      <g>
       <use xlink:href="#m50a178af39" x="358.704" y="348.192" style="stroke: #000000; stroke-width: 0.8"/>
      </g>
     </g>
     <g id="text_4">
      <text style="font: 10px 'DejaVu Sans', 'Bitstream Vera Sans', 'Computer Modern Sans Serif', 'Lucida Grande', 'Verdana', 'Geneva', 'Lucid', 'Arial', 'Helvetica', 'Avant Garde', sans-serif; text-anchor: middle" x="358.704" y="362.790438" transform="rotate(-0 358.704 362.790438)">3</text>
     </g>
    </g>
    <g id="xtick_5">
     <g id="line2d_9">
      <path d="M 453.456 348.192 
L 453.456 93.744 
" clip-path="url(#pe4fb86b12e)" style="fill: none; stroke: #dfe5e8; stroke-width: 0.65; stroke-linecap: square"/>
     </g>
     <g id="line2d_10">
      <g>
       <use xlink:href="#m50a178af39" x="453.456" y="348.192" style="stroke: #000000; stroke-width: 0.8"/>
      </g>
     </g>
     <g id="text_5">
      <text style="font: 10px 'DejaVu Sans', 'Bitstream Vera Sans', 'Computer Modern Sans Serif', 'Lucida Grande', 'Verdana', 'Geneva', 'Lucid', 'Arial', 'Helvetica', 'Avant Garde', sans-serif; text-anchor: middle" x="453.456" y="362.790438" transform="rotate(-0 453.456 362.790438)">4</text>
     </g>
    </g>
    <g id="xtick_6">
     <g id="line2d_11">
      <path d="M 548.208 348.192 
L 548.208 93.744 
" clip-path="url(#pe4fb86b12e)" style="fill: none; stroke: #dfe5e8; stroke-width: 0.65; stroke-linecap: square"/>
     </g>
     <g id="line2d_12">
      <g>
       <use xlink:href="#m50a178af39" x="548.208" y="348.192" style="stroke: #000000; stroke-width: 0.8"/>
      </g>
     </g>
     <g id="text_6">
      <text style="font: 10px 'DejaVu Sans', 'Bitstream Vera Sans', 'Computer Modern Sans Serif', 'Lucida Grande', 'Verdana', 'Geneva', 'Lucid', 'Arial', 'Helvetica', 'Avant Garde', sans-serif; text-anchor: middle" x="548.208" y="362.790438" transform="rotate(-0 548.208 362.790438)">5</text>
     </g>
    </g>
    <g id="xtick_7">
     <g id="line2d_13">
      <path d="M 642.96 348.192 
L 642.96 93.744 
" clip-path="url(#pe4fb86b12e)" style="fill: none; stroke: #dfe5e8; stroke-width: 0.65; stroke-linecap: square"/>
     </g>
     <g id="line2d_14">
      <g>
       <use xlink:href="#m50a178af39" x="642.96" y="348.192" style="stroke: #000000; stroke-width: 0.8"/>
      </g>
     </g>
     <g id="text_7">
      <text style="font: 10px 'DejaVu Sans', 'Bitstream Vera Sans', 'Computer Modern Sans Serif', 'Lucida Grande', 'Verdana', 'Geneva', 'Lucid', 'Arial', 'Helvetica', 'Avant Garde', sans-serif; text-anchor: middle" x="642.96" y="362.790438" transform="rotate(-0 642.96 362.790438)">6</text>
     </g>
    </g>
    <g id="text_8">
     <text style="font: 10px 'DejaVu Sans', 'Bitstream Vera Sans', 'Computer Modern Sans Serif', 'Lucida Grande', 'Verdana', 'Geneva', 'Lucid', 'Arial', 'Helvetica', 'Avant Garde', sans-serif; text-anchor: middle" x="358.704" y="376.468563" transform="rotate(-0 358.704 376.468563)">sUCS dE threshold</text>
    </g>
   </g>
   <g id="matplotlib.axis_2">
    <g id="ytick_1">
     <g id="line2d_15">
      <path d="M 74.448 348.192 
L 642.96 348.192 
" clip-path="url(#pe4fb86b12e)" style="fill: none; stroke: #dfe5e8; stroke-width: 0.65; stroke-linecap: square"/>
     </g>
     <g id="line2d_16">
      <defs>
       <path id="m565edb373d" d="M 0 0 
L -3.5 0 
" style="stroke: #000000; stroke-width: 0.8"/>
      </defs>
      <g>
       <use xlink:href="#m565edb373d" x="74.448" y="348.192" style="stroke: #000000; stroke-width: 0.8"/>
      </g>
     </g>
     <g id="text_9">
      <text style="font: 10px 'DejaVu Sans', 'Bitstream Vera Sans', 'Computer Modern Sans Serif', 'Lucida Grande', 'Verdana', 'Geneva', 'Lucid', 'Arial', 'Helvetica', 'Avant Garde', sans-serif; text-anchor: end" x="67.448" y="351.991219" transform="rotate(-0 67.448 351.991219)">0</text>
     </g>
    </g>
    <g id="ytick_2">
     <g id="line2d_17">
      <path d="M 74.448 297.3024 
L 642.96 297.3024 
" clip-path="url(#pe4fb86b12e)" style="fill: none; stroke: #dfe5e8; stroke-width: 0.65; stroke-linecap: square"/>
     </g>
     <g id="line2d_18">
      <g>
       <use xlink:href="#m565edb373d" x="74.448" y="297.3024" style="stroke: #000000; stroke-width: 0.8"/>
      </g>
     </g>
     <g id="text_10">
      <text style="font: 10px 'DejaVu Sans', 'Bitstream Vera Sans', 'Computer Modern Sans Serif', 'Lucida Grande', 'Verdana', 'Geneva', 'Lucid', 'Arial', 'Helvetica', 'Avant Garde', sans-serif; text-anchor: end" x="67.448" y="301.101619" transform="rotate(-0 67.448 301.101619)">20</text>
     </g>
    </g>
    <g id="ytick_3">
     <g id="line2d_19">
      <path d="M 74.448 246.4128 
L 642.96 246.4128 
" clip-path="url(#pe4fb86b12e)" style="fill: none; stroke: #dfe5e8; stroke-width: 0.65; stroke-linecap: square"/>
     </g>
     <g id="line2d_20">
      <g>
       <use xlink:href="#m565edb373d" x="74.448" y="246.4128" style="stroke: #000000; stroke-width: 0.8"/>
      </g>
     </g>
     <g id="text_11">
      <text style="font: 10px 'DejaVu Sans', 'Bitstream Vera Sans', 'Computer Modern Sans Serif', 'Lucida Grande', 'Verdana', 'Geneva', 'Lucid', 'Arial', 'Helvetica', 'Avant Garde', sans-serif; text-anchor: end" x="67.448" y="250.212019" transform="rotate(-0 67.448 250.212019)">40</text>
     </g>
    </g>
    <g id="ytick_4">
     <g id="line2d_21">
      <path d="M 74.448 195.5232 
L 642.96 195.5232 
" clip-path="url(#pe4fb86b12e)" style="fill: none; stroke: #dfe5e8; stroke-width: 0.65; stroke-linecap: square"/>
     </g>
     <g id="line2d_22">
      <g>
       <use xlink:href="#m565edb373d" x="74.448" y="195.5232" style="stroke: #000000; stroke-width: 0.8"/>
      </g>
     </g>
     <g id="text_12">
      <text style="font: 10px 'DejaVu Sans', 'Bitstream Vera Sans', 'Computer Modern Sans Serif', 'Lucida Grande', 'Verdana', 'Geneva', 'Lucid', 'Arial', 'Helvetica', 'Avant Garde', sans-serif; text-anchor: end" x="67.448" y="199.322419" transform="rotate(-0 67.448 199.322419)">60</text>
     </g>
    </g>
    <g id="ytick_5">
     <g id="line2d_23">
      <path d="M 74.448 144.6336 
L 642.96 144.6336 
" clip-path="url(#pe4fb86b12e)" style="fill: none; stroke: #dfe5e8; stroke-width: 0.65; stroke-linecap: square"/>
     </g>
     <g id="line2d_24">
      <g>
       <use xlink:href="#m565edb373d" x="74.448" y="144.6336" style="stroke: #000000; stroke-width: 0.8"/>
      </g>
     </g>
     <g id="text_13">
      <text style="font: 10px 'DejaVu Sans', 'Bitstream Vera Sans', 'Computer Modern Sans Serif', 'Lucida Grande', 'Verdana', 'Geneva', 'Lucid', 'Arial', 'Helvetica', 'Avant Garde', sans-serif; text-anchor: end" x="67.448" y="148.432819" transform="rotate(-0 67.448 148.432819)">80</text>
     </g>
    </g>
    <g id="ytick_6">
     <g id="line2d_25">
      <path d="M 74.448 93.744 
L 642.96 93.744 
" clip-path="url(#pe4fb86b12e)" style="fill: none; stroke: #dfe5e8; stroke-width: 0.65; stroke-linecap: square"/>
     </g>
     <g id="line2d_26">
      <g>
       <use xlink:href="#m565edb373d" x="74.448" y="93.744" style="stroke: #000000; stroke-width: 0.8"/>
      </g>
     </g>
     <g id="text_14">
      <text style="font: 10px 'DejaVu Sans', 'Bitstream Vera Sans', 'Computer Modern Sans Serif', 'Lucida Grande', 'Verdana', 'Geneva', 'Lucid', 'Arial', 'Helvetica', 'Avant Garde', sans-serif; text-anchor: end" x="67.448" y="97.543219" transform="rotate(-0 67.448 97.543219)">100</text>
     </g>
    </g>
    <g id="text_15">
     <text style="font: 10px 'DejaVu Sans', 'Bitstream Vera Sans', 'Computer Modern Sans Serif', 'Lucida Grande', 'Verdana', 'Geneva', 'Lucid', 'Arial', 'Helvetica', 'Avant Garde', sans-serif; text-anchor: middle" x="42.280812" y="220.968" transform="rotate(-90 42.280812 220.968)">observers%</text>
    </g>
   </g>
   <g id="line2d_27">
    <path d="M 74.448 348.192 
L 93.3984 348.192 
L 95.29344 346.560923 
L 104.76864 346.560923 
L 106.66368 344.929846 
L 108.55872 344.929846 
L 110.45376 343.298769 
L 116.13888 343.298769 
L 118.03392 341.667692 
L 123.71904 341.667692 
L 125.61408 338.405538 
L 127.50912 338.405538 
L 129.40416 335.143385 
L 138.87936 335.143385 
L 142.66944 331.881231 
L 148.35456 331.881231 
L 150.2496 326.988 
L 152.14464 324.794483 
L 155.93472 324.794483 
L 157.82976 323.163406 
L 159.7248 323.163406 
L 161.61984 321.532329 
L 163.51488 317.707735 
L 165.40992 315.514218 
L 167.30496 311.689623 
L 171.09504 308.427469 
L 174.88512 308.427469 
L 178.6752 304.040435 
L 180.57024 299.147204 
L 182.46528 297.516127 
L 186.25536 297.516127 
L 188.1504 295.88505 
L 190.04544 295.88505 
L 191.94048 293.691533 
L 193.83552 292.060456 
L 205.20576 292.060456 
L 207.1008 290.429379 
L 208.99584 282.780191 
L 210.89088 277.88696 
L 212.78592 275.693443 
L 216.576 275.693443 
L 218.47104 273.499926 
L 220.36608 271.868849 
L 222.26112 271.868849 
L 227.94624 266.975618 
L 229.84128 263.151024 
L 231.73632 260.957507 
L 233.63136 257.695353 
L 237.42144 257.695353 
L 239.31648 255.501836 
L 241.21152 251.677241 
L 245.0016 251.677241 
L 246.89664 247.852647 
L 248.79168 247.852647 
L 250.68672 244.028053 
L 252.58176 242.396976 
L 254.4768 242.396976 
L 256.37184 240.765899 
L 260.16192 240.765899 
L 263.952 237.503745 
L 265.84704 234.241592 
L 267.74208 232.610515 
L 269.63712 232.610515 
L 271.53216 230.979438 
L 273.4272 226.592403 
L 277.21728 226.592403 
L 279.11232 224.398886 
L 281.00736 221.136732 
L 282.9024 218.943215 
L 284.79744 213.487544 
L 286.69248 213.487544 
L 288.58752 211.856467 
L 290.48256 204.207279 
L 294.27264 204.207279 
L 296.16768 200.945125 
L 303.74784 200.945125 
L 305.64288 197.120531 
L 311.328 197.120531 
L 313.22304 195.489454 
L 317.01312 195.489454 
L 318.90816 193.858377 
L 322.69824 193.858377 
L 324.59328 192.2273 
L 326.48832 190.033782 
L 328.38336 188.402706 
L 330.2784 188.402706 
L 334.06848 185.140552 
L 335.96352 182.947034 
L 339.7536 182.947034 
L 341.64864 181.315958 
L 343.54368 181.315958 
L 345.43872 176.928923 
L 347.33376 174.735406 
L 349.2288 174.735406 
L 351.12384 172.541889 
L 356.80896 172.541889 
L 358.704 170.348371 
L 362.49408 170.348371 
L 364.38912 168.717294 
L 368.1792 168.717294 
L 370.07424 166.523777 
L 373.86432 166.523777 
L 375.75936 164.33026 
L 377.6544 164.33026 
L 379.54944 162.699183 
L 381.44448 162.699183 
L 383.33952 160.505666 
L 387.1296 160.505666 
L 389.02464 158.312149 
L 390.91968 154.487554 
L 392.81472 154.487554 
L 394.70976 152.856477 
L 400.39488 152.856477 
L 402.28992 150.66296 
L 404.18496 145.769729 
L 406.08 145.769729 
L 409.87008 141.382695 
L 415.5552 141.382695 
L 417.45024 139.189178 
L 434.5056 139.189178 
L 436.40064 134.802143 
L 443.9808 134.802143 
L 445.87584 132.608626 
L 449.66592 132.608626 
L 451.56096 130.415109 
L 461.03616 130.415109 
L 462.9312 128.221592 
L 466.72128 128.221592 
L 468.61632 123.834557 
L 470.51136 123.834557 
L 472.4064 121.64104 
L 497.04192 121.64104 
L 498.93696 119.447523 
L 502.72704 119.447523 
L 504.62208 117.254005 
L 510.3072 117.254005 
L 512.20224 115.060488 
L 546.31296 115.060488 
L 548.208 113.429411 
L 553.89312 113.429411 
L 555.78816 111.798334 
L 561.47328 111.798334 
L 565.26336 107.4113 
L 576.6336 107.4113 
L 578.52864 105.780223 
L 582.31872 105.780223 
L 584.21376 101.955629 
L 586.1088 101.955629 
L 588.00384 99.762111 
L 625.90464 99.762111 
L 627.79968 98.131034 
L 642.96 98.131034 
L 642.96 98.131034 
" clip-path="url(#pe4fb86b12e)" style="fill: none; stroke: #252525; stroke-width: 2.5; stroke-linecap: square"/>
   </g>
   <g id="line2d_28">
    <path d="M 74.448 348.192 
L 95.29344 348.192 
L 97.18848 345.998483 
L 112.3488 345.998483 
L 114.24384 343.804966 
L 116.13888 343.804966 
L 118.03392 341.611448 
L 123.71904 341.611448 
L 125.61408 339.417931 
L 133.19424 339.417931 
L 135.08928 337.224414 
L 140.7744 337.224414 
L 144.56448 332.837379 
L 148.35456 332.837379 
L 150.2496 330.643862 
L 154.03968 330.643862 
L 155.93472 329.012785 
L 157.82976 329.012785 
L 159.7248 327.381708 
L 176.78016 327.381708 
L 178.6752 325.188191 
L 184.36032 325.188191 
L 186.25536 320.801156 
L 191.94048 315.907926 
L 197.6256 315.907926 
L 199.52064 314.276849 
L 220.36608 314.276849 
L 224.15616 309.889814 
L 226.0512 308.258737 
L 227.94624 301.171989 
L 229.84128 298.978472 
L 231.73632 298.978472 
L 233.63136 289.698207 
L 235.5264 289.698207 
L 237.42144 284.242536 
L 245.0016 284.242536 
L 246.89664 282.049019 
L 250.68672 282.049019 
L 252.58176 278.786865 
L 254.4768 272.768753 
L 258.26688 268.381719 
L 260.16192 261.294971 
L 262.05696 259.101454 
L 263.952 257.470377 
L 265.84704 255.276859 
L 267.74208 250.889825 
L 273.4272 250.889825 
L 277.21728 247.627671 
L 279.11232 247.627671 
L 281.00736 245.996594 
L 282.9024 245.996594 
L 284.79744 244.365517 
L 286.69248 242.172 
L 288.58752 238.909846 
L 290.48256 233.454175 
L 294.27264 230.192021 
L 296.16768 230.192021 
L 298.06272 228.560944 
L 299.95776 224.17391 
L 303.74784 224.17391 
L 305.64288 218.718239 
L 307.53792 218.718239 
L 309.43296 217.087162 
L 313.22304 217.087162 
L 315.11808 209.437973 
L 317.01312 207.244456 
L 318.90816 207.244456 
L 320.8032 205.050939 
L 322.69824 205.050939 
L 324.59328 201.226345 
L 326.48832 199.032828 
L 334.06848 199.032828 
L 335.96352 197.401751 
L 337.85856 197.401751 
L 339.7536 195.770674 
L 341.64864 192.50852 
L 345.43872 192.50852 
L 347.33376 188.683926 
L 349.2288 185.421772 
L 351.12384 185.421772 
L 353.01888 181.597178 
L 354.91392 179.966101 
L 356.80896 179.966101 
L 358.704 176.703947 
L 360.59904 172.879353 
L 362.49408 169.617199 
L 364.38912 169.617199 
L 366.28416 166.355045 
L 368.1792 164.161528 
L 371.96928 164.161528 
L 373.86432 160.336934 
L 375.75936 160.336934 
L 379.54944 157.07478 
L 381.44448 153.812626 
L 383.33952 152.181549 
L 389.02464 152.181549 
L 390.91968 149.988032 
L 392.81472 148.356955 
L 396.6048 148.356955 
L 398.49984 142.901284 
L 404.18496 142.901284 
L 406.08 140.707767 
L 407.97504 140.707767 
L 411.76512 136.320732 
L 419.34528 136.320732 
L 423.13536 133.058578 
L 425.0304 129.233984 
L 428.82048 129.233984 
L 430.71552 127.602907 
L 432.61056 127.602907 
L 436.40064 124.340753 
L 442.08576 124.340753 
L 443.9808 122.709676 
L 451.56096 122.709676 
L 453.456 121.078599 
L 461.03616 121.078599 
L 462.9312 119.447523 
L 487.56672 119.447523 
L 489.46176 112.866971 
L 512.20224 112.866971 
L 514.09728 110.673454 
L 550.10304 110.673454 
L 551.99808 109.042377 
L 565.26336 109.042377 
L 567.1584 105.217782 
L 586.1088 105.217782 
L 588.00384 103.024265 
L 597.47904 103.024265 
L 599.37408 101.393188 
L 606.95424 101.393188 
L 608.84928 99.762111 
L 616.42944 99.762111 
L 618.32448 98.131034 
L 642.96 98.131034 
L 642.96 98.131034 
" clip-path="url(#pe4fb86b12e)" style="fill: none; stroke: #3b83b4; stroke-width: 1.35; stroke-linecap: square"/>
   </g>
   <g id="line2d_29">
    <path d="M 74.448 348.192 
L 93.3984 348.192 
L 95.29344 346.560923 
L 102.8736 346.560923 
L 104.76864 343.298769 
L 116.13888 343.298769 
L 118.03392 341.667692 
L 121.824 341.667692 
L 123.71904 339.474175 
L 125.61408 337.843098 
L 127.50912 335.649581 
L 131.2992 335.649581 
L 135.08928 329.125273 
L 136.98432 329.125273 
L 138.87936 325.863119 
L 140.7744 324.232042 
L 142.66944 324.232042 
L 144.56448 320.969889 
L 146.45952 320.969889 
L 148.35456 319.338812 
L 150.2496 319.338812 
L 152.14464 316.076658 
L 159.7248 316.076658 
L 165.40992 311.183427 
L 178.6752 311.183427 
L 180.57024 306.290196 
L 182.46528 304.659119 
L 188.1504 304.659119 
L 193.83552 299.765889 
L 195.73056 297.572371 
L 197.6256 295.941294 
L 199.52064 293.747777 
L 203.31072 293.747777 
L 205.20576 289.923183 
L 207.1008 287.729666 
L 208.99584 286.098589 
L 216.576 286.098589 
L 218.47104 282.273995 
L 220.36608 280.642918 
L 222.26112 276.818324 
L 226.0512 272.431289 
L 227.94624 268.606695 
L 229.84128 266.413178 
L 231.73632 264.782101 
L 233.63136 260.957507 
L 237.42144 260.957507 
L 239.31648 259.32643 
L 243.10656 252.802122 
L 246.89664 252.802122 
L 248.79168 251.171045 
L 250.68672 247.346451 
L 252.58176 247.346451 
L 254.4768 245.152934 
L 256.37184 245.152934 
L 258.26688 243.521857 
L 260.16192 239.134822 
L 262.05696 239.134822 
L 263.952 235.872668 
L 267.74208 235.872668 
L 269.63712 232.610515 
L 273.4272 232.610515 
L 275.32224 230.979438 
L 284.79744 230.979438 
L 286.69248 227.717284 
L 288.58752 220.068095 
L 290.48256 218.437019 
L 292.3776 218.437019 
L 296.16768 215.174865 
L 298.06272 215.174865 
L 299.95776 213.543788 
L 303.74784 213.543788 
L 305.64288 211.350271 
L 311.328 211.350271 
L 313.22304 209.719194 
L 315.11808 209.719194 
L 317.01312 205.332159 
L 318.90816 205.332159 
L 322.69824 202.070005 
L 324.59328 199.876488 
L 326.48832 198.245411 
L 328.38336 193.858377 
L 334.06848 193.858377 
L 335.96352 187.840265 
L 337.85856 186.209188 
L 339.7536 181.822154 
L 341.64864 180.191077 
L 343.54368 180.191077 
L 345.43872 178.56 
L 356.80896 178.56 
L 358.704 176.928923 
L 360.59904 176.928923 
L 362.49408 173.104329 
L 366.28416 169.842175 
L 385.23456 169.842175 
L 387.1296 167.648658 
L 389.02464 163.824064 
L 390.91968 159.437029 
L 394.70976 159.437029 
L 396.6048 157.243512 
L 409.87008 157.243512 
L 415.5552 150.66296 
L 421.24032 150.66296 
L 423.13536 148.469443 
L 425.0304 146.838366 
L 426.92544 142.451332 
L 430.71552 138.064297 
L 432.61056 138.064297 
L 434.5056 135.87078 
L 438.29568 135.87078 
L 440.19072 134.239703 
L 447.77088 134.239703 
L 449.66592 132.608626 
L 453.456 132.608626 
L 455.35104 130.415109 
L 459.14112 130.415109 
L 461.03616 128.221592 
L 464.82624 128.221592 
L 466.72128 126.028074 
L 474.30144 126.028074 
L 476.19648 123.834557 
L 485.67168 123.834557 
L 487.56672 121.64104 
L 495.14688 121.64104 
L 497.04192 119.447523 
L 508.41216 119.447523 
L 510.3072 115.622928 
L 515.99232 115.622928 
L 517.88736 113.429411 
L 531.15264 113.429411 
L 533.04768 111.798334 
L 538.7328 111.798334 
L 540.62784 110.167257 
L 542.52288 110.167257 
L 546.31296 105.780223 
L 553.89312 105.780223 
L 555.78816 103.586706 
L 582.31872 103.586706 
L 584.21376 101.955629 
L 589.89888 101.955629 
L 591.79392 100.324552 
L 608.84928 100.324552 
L 610.74432 98.131034 
L 642.96 98.131034 
L 642.96 98.131034 
" clip-path="url(#pe4fb86b12e)" style="fill: none; stroke-dasharray: 4.995,2.16; stroke-dashoffset: 0; stroke: #c38a19; stroke-width: 1.35"/>
   </g>
   <g id="line2d_30">
    <path d="M 74.448 348.192 
L 100.97856 348.192 
L 102.8736 346.560923 
L 108.55872 346.560923 
L 110.45376 344.929846 
L 121.824 344.929846 
L 123.71904 338.405538 
L 125.61408 336.774462 
L 127.50912 334.580944 
L 140.7744 334.580944 
L 142.66944 332.387427 
L 144.56448 330.75635 
L 154.03968 330.75635 
L 155.93472 327.494196 
L 157.82976 325.863119 
L 159.7248 320.969889 
L 161.61984 320.969889 
L 163.51488 319.338812 
L 165.40992 319.338812 
L 169.2 316.076658 
L 171.09504 308.427469 
L 172.99008 308.427469 
L 174.88512 306.796393 
L 178.6752 306.796393 
L 180.57024 304.602875 
L 182.46528 304.602875 
L 184.36032 301.340721 
L 186.25536 301.340721 
L 188.1504 296.953687 
L 190.04544 296.953687 
L 191.94048 294.76017 
L 193.83552 290.373135 
L 199.52064 285.479905 
L 205.20576 285.479905 
L 207.1008 282.217751 
L 208.99584 282.217751 
L 210.89088 280.586674 
L 214.68096 272.937485 
L 218.47104 272.937485 
L 222.26112 269.675332 
L 224.15616 267.481814 
L 227.94624 267.481814 
L 229.84128 261.463703 
L 235.5264 261.463703 
L 237.42144 256.570472 
L 246.89664 256.570472 
L 248.79168 253.308318 
L 250.68672 251.677241 
L 252.58176 249.483724 
L 256.37184 249.483724 
L 258.26688 245.65913 
L 260.16192 244.028053 
L 263.952 244.028053 
L 265.84704 240.203459 
L 267.74208 238.572382 
L 269.63712 236.378865 
L 271.53216 234.747788 
L 273.4272 231.485634 
L 277.21728 231.485634 
L 279.11232 227.66104 
L 281.00736 226.029963 
L 282.9024 226.029963 
L 284.79744 224.398886 
L 288.58752 224.398886 
L 290.48256 218.943215 
L 292.3776 217.312138 
L 294.27264 217.312138 
L 296.16768 214.049984 
L 298.06272 212.418907 
L 299.95776 212.418907 
L 303.74784 208.031873 
L 305.64288 208.031873 
L 307.53792 206.400796 
L 309.43296 206.400796 
L 311.328 204.207279 
L 313.22304 202.576202 
L 315.11808 200.382684 
L 317.01312 200.382684 
L 318.90816 198.751607 
L 320.8032 198.751607 
L 322.69824 194.364573 
L 324.59328 194.364573 
L 326.48832 192.733496 
L 335.96352 192.733496 
L 337.85856 188.908902 
L 339.7536 187.277825 
L 343.54368 187.277825 
L 345.43872 181.822154 
L 347.33376 179.628637 
L 349.2288 177.99756 
L 351.12384 174.172966 
L 353.01888 174.172966 
L 354.91392 170.910812 
L 366.28416 170.910812 
L 370.07424 166.523777 
L 371.96928 166.523777 
L 373.86432 164.8927 
L 377.6544 160.505666 
L 381.44448 160.505666 
L 383.33952 158.312149 
L 385.23456 153.925114 
L 387.1296 152.294037 
L 389.02464 152.294037 
L 390.91968 148.469443 
L 392.81472 148.469443 
L 394.70976 146.275926 
L 396.6048 146.275926 
L 400.39488 141.888891 
L 404.18496 141.888891 
L 406.08 139.695374 
L 409.87008 139.695374 
L 411.76512 137.501857 
L 413.66016 137.501857 
L 415.5552 135.30834 
L 432.61056 135.30834 
L 434.5056 133.114822 
L 436.40064 131.483745 
L 442.08576 131.483745 
L 443.9808 129.290228 
L 447.77088 129.290228 
L 449.66592 127.659151 
L 451.56096 125.465634 
L 455.35104 125.465634 
L 457.24608 123.272117 
L 459.14112 121.64104 
L 498.93696 121.64104 
L 500.832 119.447523 
L 502.72704 117.816446 
L 504.62208 117.816446 
L 506.51712 115.622928 
L 515.99232 115.622928 
L 517.88736 113.429411 
L 519.7824 113.429411 
L 521.67744 111.235894 
L 523.57248 111.235894 
L 525.46752 109.042377 
L 527.36256 109.042377 
L 529.2576 107.4113 
L 531.15264 103.586706 
L 570.94848 103.586706 
L 572.84352 101.955629 
L 605.0592 101.955629 
L 606.95424 100.324552 
L 612.63936 100.324552 
L 614.5344 98.131034 
L 642.96 98.131034 
L 642.96 98.131034 
" clip-path="url(#pe4fb86b12e)" style="fill: none; stroke-dasharray: 1.35,2.2275; stroke-dashoffset: 0; stroke: #7d8a92; stroke-width: 1.35"/>
   </g>
   <g id="line2d_31">
    <path d="M 74.448 348.192 
L 108.55872 348.192 
L 110.45376 345.998483 
L 144.56448 345.998483 
L 146.45952 343.804966 
L 154.03968 343.804966 
L 155.93472 341.611448 
L 163.51488 341.611448 
L 165.40992 339.417931 
L 171.09504 339.417931 
L 172.99008 337.786854 
L 180.57024 337.786854 
L 182.46528 333.96226 
L 188.1504 327.381708 
L 195.73056 327.381708 
L 197.6256 322.994674 
L 205.20576 322.994674 
L 207.1008 320.801156 
L 208.99584 320.801156 
L 210.89088 318.607639 
L 212.78592 314.220605 
L 220.36608 314.220605 
L 222.26112 312.027088 
L 224.15616 312.027088 
L 226.0512 307.640053 
L 227.94624 307.640053 
L 229.84128 305.446536 
L 248.79168 305.446536 
L 250.68672 303.253019 
L 252.58176 303.253019 
L 254.4768 301.059501 
L 256.37184 301.059501 
L 258.26688 299.428424 
L 260.16192 297.234907 
L 262.05696 297.234907 
L 263.952 295.60383 
L 267.74208 295.60383 
L 269.63712 293.410313 
L 271.53216 293.410313 
L 273.4272 291.779236 
L 275.32224 291.779236 
L 277.21728 289.585719 
L 281.00736 289.585719 
L 282.9024 287.954642 
L 284.79744 284.130048 
L 286.69248 284.130048 
L 288.58752 282.498971 
L 301.8528 282.498971 
L 303.74784 280.867894 
L 311.328 280.867894 
L 315.11808 277.60574 
L 317.01312 277.60574 
L 318.90816 273.218706 
L 320.8032 266.638154 
L 322.69824 263.376 
L 328.38336 251.902218 
L 330.2784 251.902218 
L 332.17344 249.7087 
L 334.06848 244.815469 
L 335.96352 242.621952 
L 337.85856 238.797358 
L 339.7536 238.797358 
L 341.64864 229.517093 
L 343.54368 229.517093 
L 345.43872 227.886016 
L 349.2288 227.886016 
L 351.12384 225.692499 
L 353.01888 225.692499 
L 354.91392 223.498981 
L 356.80896 223.498981 
L 358.704 219.674387 
L 360.59904 219.674387 
L 362.49408 216.412233 
L 364.38912 216.412233 
L 366.28416 214.218716 
L 370.07424 210.956562 
L 371.96928 208.763045 
L 373.86432 207.131968 
L 377.6544 207.131968 
L 379.54944 205.500891 
L 381.44448 205.500891 
L 383.33952 203.869814 
L 385.23456 196.783066 
L 387.1296 191.889836 
L 389.02464 190.258759 
L 390.91968 190.258759 
L 394.70976 186.996605 
L 402.28992 186.996605 
L 407.97504 182.103374 
L 409.87008 182.103374 
L 411.76512 177.71634 
L 413.66016 177.71634 
L 415.5552 176.085263 
L 421.24032 176.085263 
L 423.13536 174.454186 
L 428.82048 174.454186 
L 430.71552 172.260668 
L 432.61056 172.260668 
L 434.5056 170.629592 
L 436.40064 170.629592 
L 438.29568 165.17392 
L 440.19072 163.542844 
L 442.08576 163.542844 
L 443.9808 161.911767 
L 445.87584 161.911767 
L 447.77088 158.087172 
L 449.66592 158.087172 
L 453.456 154.825019 
L 455.35104 152.631501 
L 461.03616 147.738271 
L 462.9312 147.738271 
L 464.82624 145.544753 
L 466.72128 142.282599 
L 468.61632 142.282599 
L 470.51136 140.651523 
L 472.4064 140.651523 
L 474.30144 136.826928 
L 476.19648 135.195851 
L 478.09152 135.195851 
L 483.77664 130.302621 
L 485.67168 130.302621 
L 487.56672 128.109103 
L 491.3568 128.109103 
L 493.25184 126.478027 
L 497.04192 126.478027 
L 498.93696 124.84695 
L 519.7824 124.84695 
L 525.46752 119.953719 
L 531.15264 119.953719 
L 534.94272 116.691565 
L 538.7328 116.691565 
L 540.62784 115.060488 
L 548.208 115.060488 
L 550.10304 112.866971 
L 551.99808 112.866971 
L 553.89312 111.235894 
L 557.6832 111.235894 
L 559.57824 109.042377 
L 561.47328 107.4113 
L 595.584 107.4113 
L 597.47904 105.780223 
L 612.63936 105.780223 
L 614.5344 104.149146 
L 642.96 104.149146 
L 642.96 104.149146 
" clip-path="url(#pe4fb86b12e)" style="fill: none; stroke-dasharray: 8.64,2.16,1.35,2.16; stroke-dashoffset: 0; stroke: #d0526a; stroke-width: 1.35"/>
   </g>
   <g id="line2d_32">
    <path d="M 74.448 348.192 
L 150.2496 348.192 
L 152.14464 345.998483 
L 159.7248 345.998483 
L 161.61984 343.804966 
L 167.30496 343.804966 
L 169.2 341.611448 
L 197.6256 341.611448 
L 203.31072 335.030897 
L 208.99584 335.030897 
L 210.89088 332.837379 
L 218.47104 332.837379 
L 220.36608 328.450345 
L 237.42144 328.450345 
L 239.31648 324.625751 
L 241.21152 324.625751 
L 243.10656 322.432233 
L 245.0016 318.045199 
L 254.4768 318.045199 
L 256.37184 316.414122 
L 269.63712 316.414122 
L 271.53216 314.220605 
L 273.4272 314.220605 
L 275.32224 312.027088 
L 277.21728 312.027088 
L 279.11232 309.83357 
L 281.00736 309.83357 
L 284.79744 305.446536 
L 286.69248 305.446536 
L 288.58752 303.253019 
L 298.06272 303.253019 
L 299.95776 301.059501 
L 315.11808 301.059501 
L 318.90816 296.672467 
L 320.8032 296.672467 
L 322.69824 292.285432 
L 326.48832 292.285432 
L 328.38336 290.091915 
L 330.2784 288.460838 
L 332.17344 286.267321 
L 339.7536 286.267321 
L 341.64864 284.636244 
L 343.54368 282.442727 
L 349.2288 282.442727 
L 351.12384 280.24921 
L 354.91392 280.24921 
L 356.80896 278.618133 
L 358.704 276.424615 
L 360.59904 274.793538 
L 362.49408 272.600021 
L 364.38912 270.968944 
L 373.86432 270.968944 
L 375.75936 267.70679 
L 381.44448 267.70679 
L 383.33952 265.513273 
L 385.23456 265.513273 
L 389.02464 262.251119 
L 390.91968 262.251119 
L 396.6048 257.357889 
L 402.28992 257.357889 
L 404.18496 255.726812 
L 406.08 255.726812 
L 407.97504 254.095735 
L 411.76512 249.7087 
L 419.34528 249.7087 
L 421.24032 245.884106 
L 425.0304 242.621952 
L 426.92544 234.972764 
L 428.82048 228.954653 
L 430.71552 228.954653 
L 432.61056 220.236828 
L 434.5056 218.605751 
L 436.40064 214.781156 
L 440.19072 214.781156 
L 442.08576 213.15008 
L 443.9808 213.15008 
L 445.87584 211.519003 
L 449.66592 211.519003 
L 451.56096 207.694408 
L 459.14112 207.694408 
L 461.03616 205.500891 
L 464.82624 205.500891 
L 466.72128 200.04522 
L 468.61632 195.151989 
L 474.30144 195.151989 
L 476.19648 193.520912 
L 481.8816 193.520912 
L 483.77664 191.327395 
L 485.67168 188.065241 
L 487.56672 188.065241 
L 489.46176 186.434164 
L 491.3568 186.434164 
L 493.25184 180.978493 
L 495.14688 179.347416 
L 500.832 179.347416 
L 502.72704 177.71634 
L 504.62208 177.71634 
L 506.51712 176.085263 
L 508.41216 176.085263 
L 512.20224 172.823109 
L 514.09728 170.629592 
L 515.99232 168.998515 
L 517.88736 165.736361 
L 519.7824 165.736361 
L 521.67744 163.542844 
L 529.2576 163.542844 
L 531.15264 161.911767 
L 533.04768 161.911767 
L 534.94272 160.28069 
L 538.7328 160.28069 
L 540.62784 158.649613 
L 544.41792 158.649613 
L 546.31296 157.018536 
L 548.208 153.756382 
L 550.10304 151.562865 
L 555.78816 151.562865 
L 557.6832 144.476117 
L 559.57824 144.476117 
L 561.47328 142.282599 
L 563.36832 140.651523 
L 565.26336 138.458005 
L 567.1584 135.195851 
L 569.05344 135.195851 
L 572.84352 131.933698 
L 574.73856 128.671544 
L 584.21376 128.671544 
L 588.00384 125.40939 
L 589.89888 125.40939 
L 591.79392 123.215873 
L 593.68896 121.584796 
L 605.0592 121.584796 
L 606.95424 119.953719 
L 612.63936 119.953719 
L 614.5344 118.322642 
L 622.11456 118.322642 
L 624.0096 116.129125 
L 627.79968 116.129125 
L 629.69472 114.498048 
L 631.58976 114.498048 
L 633.4848 111.235894 
L 637.27488 111.235894 
L 641.06496 107.97374 
L 642.96 107.97374 
L 642.96 107.97374 
" clip-path="url(#pe4fb86b12e)" style="fill: none; stroke-dasharray: 6.75,2.7,1.35,2.7; stroke-dashoffset: 0; stroke: #2f8f84; stroke-width: 1.35"/>
   </g>
   <g id="patch_4">
    <path d="M 74.448 348.192 
L 74.448 93.744 
" style="fill: none; stroke: #000000; stroke-width: 0.8; stroke-linejoin: miter; stroke-linecap: square"/>
   </g>
   <g id="patch_5">
    <path d="M 74.448 348.192 
L 642.96 348.192 
" style="fill: none; stroke: #000000; stroke-width: 0.8; stroke-linejoin: miter; stroke-linecap: square"/>
   </g>
  </g>
  <g id="text_16">
   <text style="font: 18px 'DejaVu Sans', 'Bitstream Vera Sans', 'Computer Modern Sans Serif', 'Lucida Grande', 'Verdana', 'Geneva', 'Lucid', 'Arial', 'Helvetica', 'Avant Garde', sans-serif; text-anchor: start" x="74.448" y="38.229188" transform="rotate(-0 74.448 38.229188)">WLED LCD → QD-OLED</text>
  </g>
  <g id="text_17">
   <text style="fill: #66747c; font: 10px 'DejaVu Sans', 'Bitstream Vera Sans', 'Computer Modern Sans Serif', 'Lucida Grande', 'Verdana', 'Geneva', 'Lucid', 'Arial', 'Helvetica', 'Avant Garde', sans-serif; text-anchor: start" x="74.448" y="64.728" transform="rotate(-0 74.448 64.728)">LED-V1</text>
  </g>
  <g id="legend_1">
   <g id="line2d_33">
    <path d="M 185.17875 404.151391 
L 194.27875 404.151391 
L 203.37875 404.151391 
" style="fill: none; stroke: #252525; stroke-width: 2.5; stroke-linecap: square"/>
   </g>
   <g id="text_18">
    <text style="font: 9.1px 'DejaVu Sans', 'Bitstream Vera Sans', 'Computer Modern Sans Serif', 'Lucida Grande', 'Verdana', 'Geneva', 'Lucid', 'Arial', 'Helvetica', 'Avant Garde', sans-serif; text-anchor: start" x="210.65875" y="407.336391" transform="rotate(-0 210.65875 407.336391)">Potera CMF</text>
   </g>
   <g id="line2d_34">
    <path d="M 185.17875 417.508484 
L 194.27875 417.508484 
L 203.37875 417.508484 
" style="fill: none; stroke: #3b83b4; stroke-width: 1.35; stroke-linecap: square"/>
   </g>
   <g id="text_19">
    <text style="font: 9.1px 'DejaVu Sans', 'Bitstream Vera Sans', 'Computer Modern Sans Serif', 'Lucida Grande', 'Verdana', 'Geneva', 'Lucid', 'Arial', 'Helvetica', 'Avant Garde', sans-serif; text-anchor: start" x="210.65875" y="420.693484" transform="rotate(-0 210.65875 420.693484)">CIE 2015 2°</text>
   </g>
   <g id="line2d_35">
    <path d="M 282.931234 404.151391 
L 292.031234 404.151391 
L 301.131234 404.151391 
" style="fill: none; stroke-dasharray: 4.995,2.16; stroke-dashoffset: 0; stroke: #c38a19; stroke-width: 1.35"/>
   </g>
   <g id="text_20">
    <text style="font: 9.1px 'DejaVu Sans', 'Bitstream Vera Sans', 'Computer Modern Sans Serif', 'Lucida Grande', 'Verdana', 'Geneva', 'Lucid', 'Arial', 'Helvetica', 'Avant Garde', sans-serif; text-anchor: start" x="308.411234" y="407.336391" transform="rotate(-0 308.411234 407.336391)">CIE 2015 10°</text>
   </g>
   <g id="line2d_36">
    <path d="M 282.931234 417.508484 
L 292.031234 417.508484 
L 301.131234 417.508484 
" style="fill: none; stroke-dasharray: 1.35,2.2275; stroke-dashoffset: 0; stroke: #7d8a92; stroke-width: 1.35"/>
   </g>
   <g id="text_21">
    <text style="font: 9.1px 'DejaVu Sans', 'Bitstream Vera Sans', 'Computer Modern Sans Serif', 'Lucida Grande', 'Verdana', 'Geneva', 'Lucid', 'Arial', 'Helvetica', 'Avant Garde', sans-serif; text-anchor: start" x="308.411234" y="420.693484" transform="rotate(-0 308.411234 420.693484)">CIE 1964 10°</text>
   </g>
   <g id="line2d_37">
    <path d="M 386.473594 404.151391 
L 395.573594 404.151391 
L 404.673594 404.151391 
" style="fill: none; stroke-dasharray: 8.64,2.16,1.35,2.16; stroke-dashoffset: 0; stroke: #d0526a; stroke-width: 1.35"/>
   </g>
   <g id="text_22">
    <text style="font: 9.1px 'DejaVu Sans', 'Bitstream Vera Sans', 'Computer Modern Sans Serif', 'Lucida Grande', 'Verdana', 'Geneva', 'Lucid', 'Arial', 'Helvetica', 'Avant Garde', sans-serif; text-anchor: start" x="411.953594" y="407.336391" transform="rotate(-0 411.953594 407.336391)">CIE 1931 2°</text>
   </g>
   <g id="line2d_38">
    <path d="M 386.473594 417.508484 
L 395.573594 417.508484 
L 404.673594 417.508484 
" style="fill: none; stroke-dasharray: 6.75,2.7,1.35,2.7; stroke-dashoffset: 0; stroke: #2f8f84; stroke-width: 1.35"/>
   </g>
   <g id="text_23">
    <text style="font: 9.1px 'DejaVu Sans', 'Bitstream Vera Sans', 'Computer Modern Sans Serif', 'Lucida Grande', 'Verdana', 'Geneva', 'Lucid', 'Arial', 'Helvetica', 'Avant Garde', sans-serif; text-anchor: start" x="411.953594" y="420.693484" transform="rotate(-0 411.953594 420.693484)">Judd–Vos 1978 2°</text>
   </g>
  </g>
 </g>
 <defs>
  <clipPath id="pe4fb86b12e">
   <rect x="74.448" y="93.744" width="568.512" height="254.448"/>
  </clipPath>
 </defs>
</svg>
