<?xml version="1.0" encoding="utf-8" standalone="no"?>
<!DOCTYPE svg PUBLIC "-//W3C//DTD SVG 1.1//EN"
  "http://www.w3.org/Graphics/SVG/1.1/DTD/svg11.dtd">
<svg xmlns:xlink="http://www.w3.org/1999/xlink" width="676.8pt" height="446.4pt" viewBox="0 0 676.8 446.4" xmlns="http://www.w3.org/2000/svg" version="1.1">
 <metadata>
  <rdf:RDF xmlns:dc="http://purl.org/dc/elements/1.1/" xmlns:cc="http://creativecommons.org/ns#" xmlns:rdf="http://www.w3.org/1999/02/22-rdf-syntax-ns#">
   <cc:Work>
    <dc:type rdf:resource="http://purl.org/dc/dcmitype/StillImage"/>
    <dc:date>2026-07-20T06:42:00.989924</dc:date>
    <dc:format>image/svg+xml</dc:format>
    <dc:creator>
     <cc:Agent>
      <dc:title>Matplotlib v3.9.4, https://matplotlib.org/</dc:title>
     </cc:Agent>
    </dc:creator>
   </cc:Work>
  </rdf:RDF>
 </metadata>
 <defs>
  <style type="text/css">*{stroke-linejoin: round; stroke-linecap: butt}</style>
 </defs>
 <g id="figure_1">
  <g id="patch_1">
   <path d="M 0 446.4 
L 676.8 446.4 
L 676.8 0 
L 0 0 
z
" style="fill: #ffffff"/>
  </g>
  <g id="axes_1">
   <g id="patch_2">
    <path d="M 74.448 348.192 
L 642.96 348.192 
L 642.96 93.744 
L 74.448 93.744 
z
" style="fill: #ffffff"/>
   </g>
   <g id="patch_3">
    <path d="M 169.2 348.192 
L 358.704 348.192 
L 358.704 93.744 
L 169.2 93.744 
z
" clip-path="url(#pfcc69d2806)" style="fill: #e7f0ea; opacity: 0.58; stroke: #e7f0ea; stroke-linejoin: miter"/>
   </g>
   <g id="matplotlib.axis_1">
    <g id="xtick_1">
     <g id="line2d_1">
      <path d="M 74.448 348.192 
L 74.448 93.744 
" clip-path="url(#pfcc69d2806)" style="fill: none; stroke: #dfe5e8; stroke-width: 0.65; stroke-linecap: square"/>
     </g>
     <g id="line2d_2">
      <defs>
       <path id="mabc7998bf6" d="M 0 0 
L 0 3.5 
" style="stroke: #000000; stroke-width: 0.8"/>
      </defs>
      <g>
       <use xlink:href="#mabc7998bf6" x="74.448" y="348.192" style="stroke: #000000; stroke-width: 0.8"/>
      </g>
     </g>
     <g id="text_1">
      <text style="font: 10px 'DejaVu Sans', 'Bitstream Vera Sans', 'Computer Modern Sans Serif', 'Lucida Grande', 'Verdana', 'Geneva', 'Lucid', 'Arial', 'Helvetica', 'Avant Garde', sans-serif; text-anchor: middle" x="74.448" y="362.790438" transform="rotate(-0 74.448 362.790438)">0</text>
     </g>
    </g>
    <g id="xtick_2">
     <g id="line2d_3">
      <path d="M 169.2 348.192 
L 169.2 93.744 
" clip-path="url(#pfcc69d2806)" style="fill: none; stroke: #dfe5e8; stroke-width: 0.65; stroke-linecap: square"/>
     </g>
     <g id="line2d_4">
      <g>
       <use xlink:href="#mabc7998bf6" x="169.2" y="348.192" style="stroke: #000000; stroke-width: 0.8"/>
      </g>
     </g>
     <g id="text_2">
      <text style="font: 10px 'DejaVu Sans', 'Bitstream Vera Sans', 'Computer Modern Sans Serif', 'Lucida Grande', 'Verdana', 'Geneva', 'Lucid', 'Arial', 'Helvetica', 'Avant Garde', sans-serif; text-anchor: middle" x="169.2" y="362.790438" transform="rotate(-0 169.2 362.790438)">1</text>
     </g>
    </g>
    <g id="xtick_3">
     <g id="line2d_5">
      <path d="M 263.952 348.192 
L 263.952 93.744 
" clip-path="url(#pfcc69d2806)" style="fill: none; stroke: #dfe5e8; stroke-width: 0.65; stroke-linecap: square"/>
     </g>
     <g id="line2d_6">
      <g>
       <use xlink:href="#mabc7998bf6" x="263.952" y="348.192" style="stroke: #000000; stroke-width: 0.8"/>
      </g>
     </g>
     <g id="text_3">
      <text style="font: 10px 'DejaVu Sans', 'Bitstream Vera Sans', 'Computer Modern Sans Serif', 'Lucida Grande', 'Verdana', 'Geneva', 'Lucid', 'Arial', 'Helvetica', 'Avant Garde', sans-serif; text-anchor: middle" x="263.952" y="362.790438" transform="rotate(-0 263.952 362.790438)">2</text>
     </g>
    </g>
    <g id="xtick_4">
     <g id="line2d_7">
      <path d="M 358.704 348.192 
L 358.704 93.744 
" clip-path="url(#pfcc69d2806)" style="fill: none; stroke: #dfe5e8; stroke-width: 0.65; stroke-linecap: square"/>
     </g>
     <g id="line2d_8">
      <g>
       <use xlink:href="#mabc7998bf6" x="358.704" y="348.192" style="stroke: #000000; stroke-width: 0.8"/>
      </g>
     </g>
     <g id="text_4">
      <text style="font: 10px 'DejaVu Sans', 'Bitstream Vera Sans', 'Computer Modern Sans Serif', 'Lucida Grande', 'Verdana', 'Geneva', 'Lucid', 'Arial', 'Helvetica', 'Avant Garde', sans-serif; text-anchor: middle" x="358.704" y="362.790438" transform="rotate(-0 358.704 362.790438)">3</text>
     </g>
    </g>
    <g id="xtick_5">
     <g id="line2d_9">
      <path d="M 453.456 348.192 
L 453.456 93.744 
" clip-path="url(#pfcc69d2806)" style="fill: none; stroke: #dfe5e8; stroke-width: 0.65; stroke-linecap: square"/>
     </g>
     <g id="line2d_10">
      <g>
       <use xlink:href="#mabc7998bf6" x="453.456" y="348.192" style="stroke: #000000; stroke-width: 0.8"/>
      </g>
     </g>
     <g id="text_5">
      <text style="font: 10px 'DejaVu Sans', 'Bitstream Vera Sans', 'Computer Modern Sans Serif', 'Lucida Grande', 'Verdana', 'Geneva', 'Lucid', 'Arial', 'Helvetica', 'Avant Garde', sans-serif; text-anchor: middle" x="453.456" y="362.790438" transform="rotate(-0 453.456 362.790438)">4</text>
     </g>
    </g>
    <g id="xtick_6">
     <g id="line2d_11">
      <path d="M 548.208 348.192 
L 548.208 93.744 
" clip-path="url(#pfcc69d2806)" style="fill: none; stroke: #dfe5e8; stroke-width: 0.65; stroke-linecap: square"/>
     </g>
     <g id="line2d_12">
      <g>
       <use xlink:href="#mabc7998bf6" x="548.208" y="348.192" style="stroke: #000000; stroke-width: 0.8"/>
      </g>
     </g>
     <g id="text_6">
      <text style="font: 10px 'DejaVu Sans', 'Bitstream Vera Sans', 'Computer Modern Sans Serif', 'Lucida Grande', 'Verdana', 'Geneva', 'Lucid', 'Arial', 'Helvetica', 'Avant Garde', sans-serif; text-anchor: middle" x="548.208" y="362.790438" transform="rotate(-0 548.208 362.790438)">5</text>
     </g>
    </g>
    <g id="xtick_7">
     <g id="line2d_13">
      <path d="M 642.96 348.192 
L 642.96 93.744 
" clip-path="url(#pfcc69d2806)" style="fill: none; stroke: #dfe5e8; stroke-width: 0.65; stroke-linecap: square"/>
     </g>
     <g id="line2d_14">
      <g>
       <use xlink:href="#mabc7998bf6" x="642.96" y="348.192" style="stroke: #000000; stroke-width: 0.8"/>
      </g>
     </g>
     <g id="text_7">
      <text style="font: 10px 'DejaVu Sans', 'Bitstream Vera Sans', 'Computer Modern Sans Serif', 'Lucida Grande', 'Verdana', 'Geneva', 'Lucid', 'Arial', 'Helvetica', 'Avant Garde', sans-serif; text-anchor: middle" x="642.96" y="362.790438" transform="rotate(-0 642.96 362.790438)">6</text>
     </g>
    </g>
    <g id="text_8">
     <text style="font: 10px 'DejaVu Sans', 'Bitstream Vera Sans', 'Computer Modern Sans Serif', 'Lucida Grande', 'Verdana', 'Geneva', 'Lucid', 'Arial', 'Helvetica', 'Avant Garde', sans-serif; text-anchor: middle" x="358.704" y="376.468563" transform="rotate(-0 358.704 376.468563)">sUCS dE threshold</text>
    </g>
   </g>
   <g id="matplotlib.axis_2">
    <g id="ytick_1">
     <g id="line2d_15">
      <path d="M 74.448 348.192 
L 642.96 348.192 
" clip-path="url(#pfcc69d2806)" style="fill: none; stroke: #dfe5e8; stroke-width: 0.65; stroke-linecap: square"/>
     </g>
     <g id="line2d_16">
      <defs>
       <path id="m9595bc036e" d="M 0 0 
L -3.5 0 
" style="stroke: #000000; stroke-width: 0.8"/>
      </defs>
      <g>
       <use xlink:href="#m9595bc036e" x="74.448" y="348.192" style="stroke: #000000; stroke-width: 0.8"/>
      </g>
     </g>
     <g id="text_9">
      <text style="font: 10px 'DejaVu Sans', 'Bitstream Vera Sans', 'Computer Modern Sans Serif', 'Lucida Grande', 'Verdana', 'Geneva', 'Lucid', 'Arial', 'Helvetica', 'Avant Garde', sans-serif; text-anchor: end" x="67.448" y="351.991219" transform="rotate(-0 67.448 351.991219)">0</text>
     </g>
    </g>
    <g id="ytick_2">
     <g id="line2d_17">
      <path d="M 74.448 297.3024 
L 642.96 297.3024 
" clip-path="url(#pfcc69d2806)" style="fill: none; stroke: #dfe5e8; stroke-width: 0.65; stroke-linecap: square"/>
     </g>
     <g id="line2d_18">
      <g>
       <use xlink:href="#m9595bc036e" x="74.448" y="297.3024" style="stroke: #000000; stroke-width: 0.8"/>
      </g>
     </g>
     <g id="text_10">
      <text style="font: 10px 'DejaVu Sans', 'Bitstream Vera Sans', 'Computer Modern Sans Serif', 'Lucida Grande', 'Verdana', 'Geneva', 'Lucid', 'Arial', 'Helvetica', 'Avant Garde', sans-serif; text-anchor: end" x="67.448" y="301.101619" transform="rotate(-0 67.448 301.101619)">20</text>
     </g>
    </g>
    <g id="ytick_3">
     <g id="line2d_19">
      <path d="M 74.448 246.4128 
L 642.96 246.4128 
" clip-path="url(#pfcc69d2806)" style="fill: none; stroke: #dfe5e8; stroke-width: 0.65; stroke-linecap: square"/>
     </g>
     <g id="line2d_20">
      <g>
       <use xlink:href="#m9595bc036e" x="74.448" y="246.4128" style="stroke: #000000; stroke-width: 0.8"/>
      </g>
     </g>
     <g id="text_11">
      <text style="font: 10px 'DejaVu Sans', 'Bitstream Vera Sans', 'Computer Modern Sans Serif', 'Lucida Grande', 'Verdana', 'Geneva', 'Lucid', 'Arial', 'Helvetica', 'Avant Garde', sans-serif; text-anchor: end" x="67.448" y="250.212019" transform="rotate(-0 67.448 250.212019)">40</text>
     </g>
    </g>
    <g id="ytick_4">
     <g id="line2d_21">
      <path d="M 74.448 195.5232 
L 642.96 195.5232 
" clip-path="url(#pfcc69d2806)" style="fill: none; stroke: #dfe5e8; stroke-width: 0.65; stroke-linecap: square"/>
     </g>
     <g id="line2d_22">
      <g>
       <use xlink:href="#m9595bc036e" x="74.448" y="195.5232" style="stroke: #000000; stroke-width: 0.8"/>
      </g>
     </g>
     <g id="text_12">
      <text style="font: 10px 'DejaVu Sans', 'Bitstream Vera Sans', 'Computer Modern Sans Serif', 'Lucida Grande', 'Verdana', 'Geneva', 'Lucid', 'Arial', 'Helvetica', 'Avant Garde', sans-serif; text-anchor: end" x="67.448" y="199.322419" transform="rotate(-0 67.448 199.322419)">60</text>
     </g>
    </g>
    <g id="ytick_5">
     <g id="line2d_23">
      <path d="M 74.448 144.6336 
L 642.96 144.6336 
" clip-path="url(#pfcc69d2806)" style="fill: none; stroke: #dfe5e8; stroke-width: 0.65; stroke-linecap: square"/>
     </g>
     <g id="line2d_24">
      <g>
       <use xlink:href="#m9595bc036e" x="74.448" y="144.6336" style="stroke: #000000; stroke-width: 0.8"/>
      </g>
     </g>
     <g id="text_13">
      <text style="font: 10px 'DejaVu Sans', 'Bitstream Vera Sans', 'Computer Modern Sans Serif', 'Lucida Grande', 'Verdana', 'Geneva', 'Lucid', 'Arial', 'Helvetica', 'Avant Garde', sans-serif; text-anchor: end" x="67.448" y="148.432819" transform="rotate(-0 67.448 148.432819)">80</text>
     </g>
    </g>
    <g id="ytick_6">
     <g id="line2d_25">
      <path d="M 74.448 93.744 
L 642.96 93.744 
" clip-path="url(#pfcc69d2806)" style="fill: none; stroke: #dfe5e8; stroke-width: 0.65; stroke-linecap: square"/>
     </g>
     <g id="line2d_26">
      <g>
       <use xlink:href="#m9595bc036e" x="74.448" y="93.744" style="stroke: #000000; stroke-width: 0.8"/>
      </g>
     </g>
     <g id="text_14">
      <text style="font: 10px 'DejaVu Sans', 'Bitstream Vera Sans', 'Computer Modern Sans Serif', 'Lucida Grande', 'Verdana', 'Geneva', 'Lucid', 'Arial', 'Helvetica', 'Avant Garde', sans-serif; text-anchor: end" x="67.448" y="97.543219" transform="rotate(-0 67.448 97.543219)">100</text>
     </g>
    </g>
    <g id="text_15">
     <text style="font: 10px 'DejaVu Sans', 'Bitstream Vera Sans', 'Computer Modern Sans Serif', 'Lucida Grande', 'Verdana', 'Geneva', 'Lucid', 'Arial', 'Helvetica', 'Avant Garde', sans-serif; text-anchor: middle" x="42.280812" y="220.968" transform="rotate(-90 42.280812 220.968)">observers%</text>
    </g>
   </g>
   <g id="line2d_27">
    <path d="M 74.448 348.192 
L 93.3984 348.192 
L 95.29344 346.560923 
L 104.76864 346.560923 
L 106.66368 344.929846 
L 112.3488 344.929846 
L 114.24384 343.298769 
L 116.13888 343.298769 
L 118.03392 341.667692 
L 123.71904 341.667692 
L 125.61408 338.405538 
L 127.50912 338.405538 
L 129.40416 336.774462 
L 131.2992 336.774462 
L 133.19424 335.143385 
L 135.08928 335.143385 
L 136.98432 333.512308 
L 140.7744 333.512308 
L 142.66944 331.881231 
L 144.56448 331.881231 
L 146.45952 330.250154 
L 148.35456 330.250154 
L 150.2496 326.988 
L 152.14464 326.988 
L 154.03968 324.794483 
L 155.93472 324.794483 
L 157.82976 321.532329 
L 159.7248 319.901252 
L 161.61984 317.707735 
L 163.51488 313.883141 
L 167.30496 313.883141 
L 169.2 310.058546 
L 172.99008 306.796393 
L 174.88512 302.971798 
L 176.78016 300.778281 
L 178.6752 297.516127 
L 184.36032 297.516127 
L 186.25536 295.88505 
L 190.04544 295.88505 
L 191.94048 292.060456 
L 199.52064 292.060456 
L 201.41568 290.429379 
L 203.31072 290.429379 
L 205.20576 288.798302 
L 207.1008 286.604785 
L 208.99584 286.604785 
L 210.89088 280.586674 
L 212.78592 277.32452 
L 214.68096 271.868849 
L 218.47104 271.868849 
L 220.36608 270.237772 
L 224.15616 270.237772 
L 226.0512 268.606695 
L 227.94624 268.606695 
L 229.84128 266.975618 
L 231.73632 264.782101 
L 233.63136 260.957507 
L 237.42144 257.695353 
L 239.31648 255.501836 
L 243.10656 252.239682 
L 245.0016 247.852647 
L 246.89664 247.852647 
L 248.79168 246.22157 
L 250.68672 246.22157 
L 252.58176 244.028053 
L 254.4768 240.765899 
L 256.37184 240.765899 
L 258.26688 239.134822 
L 260.16192 235.872668 
L 262.05696 232.048074 
L 263.952 232.048074 
L 265.84704 228.78592 
L 269.63712 228.78592 
L 271.53216 226.592403 
L 273.4272 226.592403 
L 275.32224 224.961326 
L 279.11232 217.312138 
L 281.00736 217.312138 
L 284.79744 212.925103 
L 286.69248 209.100509 
L 288.58752 209.100509 
L 290.48256 204.207279 
L 292.3776 204.207279 
L 298.06272 199.314048 
L 301.8528 199.314048 
L 303.74784 197.682971 
L 309.43296 197.682971 
L 311.328 195.489454 
L 318.90816 195.489454 
L 320.8032 193.858377 
L 322.69824 193.858377 
L 324.59328 188.402706 
L 328.38336 185.140552 
L 332.17344 185.140552 
L 335.96352 180.753517 
L 337.85856 180.753517 
L 339.7536 179.12244 
L 341.64864 179.12244 
L 343.54368 176.928923 
L 345.43872 176.928923 
L 347.33376 174.735406 
L 351.12384 174.735406 
L 353.01888 172.541889 
L 354.91392 170.910812 
L 360.59904 170.910812 
L 362.49408 168.717294 
L 364.38912 168.717294 
L 366.28416 166.523777 
L 379.54944 166.523777 
L 383.33952 163.261623 
L 385.23456 161.068106 
L 387.1296 154.487554 
L 389.02464 152.856477 
L 390.91968 152.856477 
L 392.81472 149.594324 
L 394.70976 149.594324 
L 396.6048 147.400806 
L 402.28992 147.400806 
L 404.18496 145.769729 
L 406.08 145.769729 
L 411.76512 139.189178 
L 440.19072 139.189178 
L 442.08576 136.99566 
L 443.9808 136.99566 
L 445.87584 132.608626 
L 449.66592 132.608626 
L 451.56096 130.415109 
L 464.82624 130.415109 
L 466.72128 123.834557 
L 468.61632 123.834557 
L 470.51136 121.64104 
L 498.93696 121.64104 
L 500.832 119.447523 
L 510.3072 119.447523 
L 512.20224 117.254005 
L 515.99232 117.254005 
L 517.88736 115.060488 
L 544.41792 115.060488 
L 548.208 111.798334 
L 557.6832 111.798334 
L 559.57824 109.604817 
L 561.47328 109.604817 
L 563.36832 107.4113 
L 565.26336 107.4113 
L 567.1584 105.780223 
L 574.73856 105.780223 
L 576.6336 104.149146 
L 580.42368 104.149146 
L 582.31872 101.955629 
L 584.21376 101.955629 
L 586.1088 99.762111 
L 624.0096 99.762111 
L 625.90464 98.131034 
L 642.96 98.131034 
L 642.96 98.131034 
" clip-path="url(#pfcc69d2806)" style="fill: none; stroke: #252525; stroke-width: 2.5; stroke-linecap: square"/>
   </g>
   <g id="line2d_28">
    <path d="M 74.448 348.192 
L 93.3984 348.192 
L 95.29344 345.998483 
L 112.3488 345.998483 
L 114.24384 343.804966 
L 116.13888 343.804966 
L 118.03392 341.611448 
L 127.50912 341.611448 
L 129.40416 339.417931 
L 131.2992 339.417931 
L 133.19424 337.224414 
L 140.7744 337.224414 
L 142.66944 335.593337 
L 148.35456 329.012785 
L 163.51488 329.012785 
L 165.40992 327.381708 
L 176.78016 327.381708 
L 178.6752 325.750631 
L 180.57024 323.557114 
L 182.46528 323.557114 
L 184.36032 319.17008 
L 186.25536 319.17008 
L 190.04544 315.907926 
L 197.6256 315.907926 
L 199.52064 314.276849 
L 220.36608 314.276849 
L 222.26112 312.645772 
L 224.15616 310.452255 
L 226.0512 306.62766 
L 231.73632 300.047109 
L 233.63136 298.416032 
L 235.5264 294.591438 
L 237.42144 292.960361 
L 239.31648 285.873613 
L 241.21152 284.242536 
L 243.10656 284.242536 
L 245.0016 282.049019 
L 248.79168 282.049019 
L 250.68672 279.855501 
L 252.58176 273.27495 
L 256.37184 266.750642 
L 258.26688 265.119565 
L 260.16192 265.119565 
L 262.05696 262.926048 
L 263.952 256.907936 
L 265.84704 252.520902 
L 267.74208 250.889825 
L 275.32224 250.889825 
L 279.11232 247.627671 
L 281.00736 247.627671 
L 284.79744 244.365517 
L 286.69248 240.540923 
L 288.58752 238.909846 
L 290.48256 235.085252 
L 292.3776 233.454175 
L 294.27264 227.998504 
L 296.16768 225.804987 
L 299.95776 222.542833 
L 305.64288 222.542833 
L 309.43296 218.155798 
L 313.22304 214.893645 
L 315.11808 208.875533 
L 317.01312 206.682016 
L 318.90816 206.682016 
L 322.69824 199.032828 
L 332.17344 199.032828 
L 335.96352 195.770674 
L 337.85856 195.770674 
L 339.7536 194.139597 
L 341.64864 194.139597 
L 343.54368 191.94608 
L 345.43872 190.315003 
L 347.33376 187.052849 
L 349.2288 185.421772 
L 351.12384 182.159618 
L 358.704 182.159618 
L 360.59904 178.335024 
L 362.49408 171.248276 
L 364.38912 169.617199 
L 366.28416 166.355045 
L 368.1792 166.355045 
L 371.96928 161.968011 
L 373.86432 161.968011 
L 377.6544 158.705857 
L 381.44448 158.705857 
L 383.33952 157.07478 
L 385.23456 157.07478 
L 389.02464 153.812626 
L 390.91968 149.988032 
L 392.81472 149.988032 
L 394.70976 148.356955 
L 396.6048 148.356955 
L 398.49984 144.532361 
L 400.39488 144.532361 
L 402.28992 142.901284 
L 404.18496 142.901284 
L 406.08 140.707767 
L 407.97504 140.707767 
L 409.87008 134.689655 
L 413.66016 134.689655 
L 415.5552 133.058578 
L 417.45024 133.058578 
L 419.34528 130.865061 
L 425.0304 130.865061 
L 426.92544 129.233984 
L 428.82048 129.233984 
L 430.71552 127.602907 
L 438.29568 127.602907 
L 440.19072 125.97183 
L 442.08576 125.97183 
L 443.9808 124.340753 
L 451.56096 124.340753 
L 455.35104 121.078599 
L 468.61632 121.078599 
L 470.51136 119.447523 
L 479.98656 119.447523 
L 481.8816 117.254005 
L 487.56672 117.254005 
L 489.46176 115.060488 
L 491.3568 115.060488 
L 493.25184 112.866971 
L 504.62208 112.866971 
L 506.51712 110.673454 
L 534.94272 110.673454 
L 536.83776 109.042377 
L 551.99808 109.042377 
L 553.89312 107.4113 
L 574.73856 107.4113 
L 576.6336 105.217782 
L 582.31872 105.217782 
L 584.21376 103.586706 
L 586.1088 103.586706 
L 588.00384 101.393188 
L 597.47904 101.393188 
L 599.37408 99.762111 
L 622.11456 99.762111 
L 624.0096 98.131034 
L 642.96 98.131034 
L 642.96 98.131034 
" clip-path="url(#pfcc69d2806)" style="fill: none; stroke: #3b83b4; stroke-width: 1.35; stroke-linecap: square"/>
   </g>
   <g id="line2d_29">
    <path d="M 74.448 348.192 
L 91.50336 348.192 
L 93.3984 346.560923 
L 99.08352 346.560923 
L 102.8736 343.298769 
L 116.13888 343.298769 
L 118.03392 341.667692 
L 121.824 341.667692 
L 123.71904 340.036615 
L 125.61408 340.036615 
L 127.50912 335.649581 
L 129.40416 335.649581 
L 133.19424 332.387427 
L 135.08928 329.125273 
L 136.98432 327.494196 
L 138.87936 327.494196 
L 140.7744 325.863119 
L 142.66944 320.969889 
L 148.35456 320.969889 
L 152.14464 317.707735 
L 154.03968 317.707735 
L 155.93472 316.076658 
L 157.82976 316.076658 
L 161.61984 312.814504 
L 163.51488 312.814504 
L 165.40992 311.183427 
L 176.78016 311.183427 
L 180.57024 304.659119 
L 190.04544 304.659119 
L 191.94048 299.765889 
L 195.73056 299.765889 
L 197.6256 295.941294 
L 199.52064 293.747777 
L 201.41568 293.747777 
L 205.20576 289.360743 
L 208.99584 286.098589 
L 214.68096 286.098589 
L 216.576 283.905072 
L 218.47104 280.080477 
L 220.36608 278.449401 
L 222.26112 274.624806 
L 224.15616 274.624806 
L 226.0512 269.169135 
L 229.84128 269.169135 
L 231.73632 264.782101 
L 237.42144 259.88887 
L 239.31648 259.88887 
L 241.21152 256.064276 
L 243.10656 254.433199 
L 245.0016 251.171045 
L 246.89664 251.171045 
L 250.68672 246.784011 
L 252.58176 246.784011 
L 254.4768 243.521857 
L 258.26688 239.134822 
L 262.05696 239.134822 
L 263.952 235.872668 
L 265.84704 235.872668 
L 267.74208 232.610515 
L 269.63712 230.979438 
L 279.11232 230.979438 
L 281.00736 228.78592 
L 282.9024 223.89269 
L 284.79744 223.89269 
L 288.58752 220.630536 
L 290.48256 216.805942 
L 292.3776 216.805942 
L 294.27264 215.174865 
L 298.06272 215.174865 
L 299.95776 213.543788 
L 301.8528 213.543788 
L 303.74784 211.350271 
L 305.64288 211.350271 
L 307.53792 209.156753 
L 309.43296 209.156753 
L 311.328 206.963236 
L 313.22304 206.963236 
L 315.11808 203.138642 
L 317.01312 201.507565 
L 318.90816 201.507565 
L 322.69824 198.245411 
L 328.38336 191.664859 
L 332.17344 191.664859 
L 334.06848 188.402706 
L 335.96352 186.209188 
L 337.85856 182.384594 
L 339.7536 182.384594 
L 341.64864 180.753517 
L 343.54368 180.753517 
L 345.43872 178.56 
L 347.33376 178.56 
L 349.2288 176.928923 
L 353.01888 176.928923 
L 354.91392 175.297846 
L 360.59904 175.297846 
L 364.38912 172.035692 
L 368.1792 172.035692 
L 370.07424 169.842175 
L 373.86432 169.842175 
L 375.75936 167.648658 
L 377.6544 167.648658 
L 379.54944 165.455141 
L 381.44448 163.824064 
L 383.33952 163.824064 
L 385.23456 161.630546 
L 389.02464 161.630546 
L 390.91968 159.437029 
L 392.81472 159.437029 
L 394.70976 157.243512 
L 407.97504 157.243512 
L 409.87008 155.049995 
L 417.45024 155.049995 
L 419.34528 150.66296 
L 421.24032 150.66296 
L 423.13536 146.838366 
L 425.0304 142.451332 
L 426.92544 140.257814 
L 428.82048 140.257814 
L 430.71552 138.626737 
L 434.5056 138.626737 
L 438.29568 134.239703 
L 445.87584 134.239703 
L 447.77088 132.608626 
L 449.66592 132.608626 
L 451.56096 130.415109 
L 453.456 130.415109 
L 455.35104 128.221592 
L 470.51136 128.221592 
L 472.4064 126.028074 
L 483.77664 126.028074 
L 485.67168 123.834557 
L 487.56672 123.834557 
L 489.46176 121.64104 
L 493.25184 121.64104 
L 495.14688 119.447523 
L 502.72704 119.447523 
L 504.62208 117.816446 
L 506.51712 117.816446 
L 510.3072 113.429411 
L 523.57248 113.429411 
L 525.46752 111.798334 
L 533.04768 111.798334 
L 534.94272 110.167257 
L 544.41792 110.167257 
L 548.208 105.780223 
L 555.78816 105.780223 
L 557.6832 103.586706 
L 582.31872 103.586706 
L 584.21376 101.955629 
L 586.1088 101.955629 
L 588.00384 100.324552 
L 599.37408 100.324552 
L 601.26912 98.131034 
L 642.96 98.131034 
L 642.96 98.131034 
" clip-path="url(#pfcc69d2806)" style="fill: none; stroke-dasharray: 4.995,2.16; stroke-dashoffset: 0; stroke: #c38a19; stroke-width: 1.35"/>
   </g>
   <g id="line2d_30">
    <path d="M 74.448 348.192 
L 100.97856 348.192 
L 102.8736 346.560923 
L 104.76864 346.560923 
L 106.66368 344.929846 
L 118.03392 344.929846 
L 119.92896 343.298769 
L 121.824 343.298769 
L 123.71904 338.405538 
L 125.61408 336.774462 
L 127.50912 336.774462 
L 129.40416 334.580944 
L 136.98432 334.580944 
L 138.87936 332.387427 
L 140.7744 332.387427 
L 142.66944 330.75635 
L 152.14464 330.75635 
L 155.93472 327.494196 
L 157.82976 324.232042 
L 159.7248 322.600966 
L 161.61984 322.600966 
L 163.51488 319.338812 
L 167.30496 319.338812 
L 169.2 312.252064 
L 171.09504 312.252064 
L 172.99008 310.058546 
L 176.78016 306.796393 
L 178.6752 304.602875 
L 184.36032 304.602875 
L 186.25536 299.147204 
L 190.04544 299.147204 
L 191.94048 292.566653 
L 193.83552 292.566653 
L 195.73056 290.935576 
L 197.6256 290.935576 
L 199.52064 288.742058 
L 201.41568 285.479905 
L 203.31072 285.479905 
L 207.1008 282.217751 
L 208.99584 282.217751 
L 210.89088 280.024233 
L 212.78592 278.393156 
L 214.68096 273.499926 
L 216.576 273.499926 
L 218.47104 271.306408 
L 220.36608 271.306408 
L 222.26112 267.481814 
L 226.0512 263.09478 
L 227.94624 261.463703 
L 229.84128 261.463703 
L 233.63136 258.201549 
L 235.5264 258.201549 
L 237.42144 256.570472 
L 243.10656 256.570472 
L 245.0016 251.677241 
L 248.79168 247.290207 
L 252.58176 247.290207 
L 254.4768 245.65913 
L 260.16192 245.65913 
L 263.952 242.396976 
L 267.74208 242.396976 
L 269.63712 236.378865 
L 271.53216 230.923194 
L 275.32224 227.66104 
L 277.21728 227.66104 
L 279.11232 226.029963 
L 286.69248 226.029963 
L 288.58752 222.767809 
L 296.16768 216.243501 
L 299.95776 208.594313 
L 301.8528 206.400796 
L 303.74784 206.400796 
L 309.43296 199.820244 
L 311.328 199.820244 
L 315.11808 196.55809 
L 320.8032 196.55809 
L 322.69824 194.927013 
L 328.38336 194.927013 
L 330.2784 192.733496 
L 332.17344 192.733496 
L 334.06848 191.102419 
L 335.96352 187.277825 
L 337.85856 185.084308 
L 339.7536 183.453231 
L 341.64864 181.259714 
L 345.43872 177.99756 
L 349.2288 177.99756 
L 351.12384 176.366483 
L 353.01888 170.910812 
L 358.704 170.910812 
L 362.49408 166.523777 
L 370.07424 166.523777 
L 371.96928 162.699183 
L 375.75936 162.699183 
L 377.6544 160.505666 
L 379.54944 160.505666 
L 381.44448 158.312149 
L 383.33952 158.312149 
L 387.1296 150.66296 
L 389.02464 150.66296 
L 390.91968 148.469443 
L 392.81472 148.469443 
L 394.70976 146.275926 
L 396.6048 146.275926 
L 398.49984 141.888891 
L 400.39488 141.888891 
L 402.28992 139.695374 
L 404.18496 139.695374 
L 406.08 137.501857 
L 413.66016 137.501857 
L 415.5552 135.30834 
L 432.61056 135.30834 
L 434.5056 133.677263 
L 438.29568 133.677263 
L 440.19072 131.483745 
L 442.08576 129.852668 
L 445.87584 129.852668 
L 447.77088 127.659151 
L 449.66592 127.659151 
L 451.56096 125.465634 
L 455.35104 125.465634 
L 457.24608 121.64104 
L 493.25184 121.64104 
L 495.14688 117.816446 
L 506.51712 117.816446 
L 510.3072 113.429411 
L 519.7824 113.429411 
L 521.67744 107.97374 
L 523.57248 107.97374 
L 525.46752 105.780223 
L 529.2576 105.780223 
L 531.15264 103.586706 
L 569.05344 103.586706 
L 570.94848 101.955629 
L 601.26912 101.955629 
L 603.16416 100.324552 
L 605.0592 98.131034 
L 642.96 98.131034 
L 642.96 98.131034 
" clip-path="url(#pfcc69d2806)" style="fill: none; stroke-dasharray: 1.35,2.2275; stroke-dashoffset: 0; stroke: #7d8a92; stroke-width: 1.35"/>
   </g>
   <g id="line2d_31">
    <path d="M 74.448 348.192 
L 104.76864 348.192 
L 106.66368 345.998483 
L 144.56448 345.998483 
L 146.45952 343.804966 
L 154.03968 343.804966 
L 155.93472 341.611448 
L 165.40992 341.611448 
L 167.30496 339.417931 
L 171.09504 339.417931 
L 172.99008 337.786854 
L 174.88512 337.786854 
L 176.78016 336.155777 
L 178.6752 336.155777 
L 180.57024 333.96226 
L 184.36032 333.96226 
L 186.25536 329.575225 
L 188.1504 327.381708 
L 191.94048 327.381708 
L 193.83552 325.188191 
L 195.73056 325.188191 
L 197.6256 322.994674 
L 203.31072 322.994674 
L 205.20576 320.801156 
L 208.99584 320.801156 
L 214.68096 314.220605 
L 220.36608 314.220605 
L 222.26112 312.027088 
L 224.15616 307.640053 
L 229.84128 307.640053 
L 231.73632 305.446536 
L 248.79168 305.446536 
L 250.68672 301.059501 
L 254.4768 301.059501 
L 256.37184 298.865984 
L 262.05696 298.865984 
L 263.952 297.234907 
L 265.84704 293.410313 
L 275.32224 293.410313 
L 277.21728 291.779236 
L 279.11232 291.779236 
L 282.9024 287.392202 
L 288.58752 282.498971 
L 303.74784 282.498971 
L 307.53792 279.236817 
L 311.328 279.236817 
L 313.22304 277.0433 
L 317.01312 277.0433 
L 318.90816 274.849782 
L 320.8032 267.200594 
L 322.69824 265.007077 
L 324.59328 265.007077 
L 326.48832 258.426525 
L 328.38336 256.795448 
L 330.2784 252.408414 
L 332.17344 252.408414 
L 334.06848 249.14626 
L 335.96352 249.14626 
L 337.85856 243.690589 
L 339.7536 236.603841 
L 341.64864 231.14817 
L 343.54368 231.14817 
L 345.43872 227.886016 
L 351.12384 227.886016 
L 353.01888 225.692499 
L 354.91392 225.692499 
L 356.80896 223.498981 
L 358.704 223.498981 
L 360.59904 219.111947 
L 362.49408 219.111947 
L 366.28416 215.849793 
L 368.1792 210.956562 
L 370.07424 209.325485 
L 371.96928 207.131968 
L 373.86432 207.131968 
L 375.75936 203.869814 
L 377.6544 202.238737 
L 381.44448 202.238737 
L 383.33952 198.976584 
L 387.1296 198.976584 
L 389.02464 196.783066 
L 390.91968 196.783066 
L 392.81472 191.889836 
L 396.6048 191.889836 
L 400.39488 188.627682 
L 402.28992 185.365528 
L 406.08 185.365528 
L 409.87008 180.978493 
L 413.66016 177.71634 
L 415.5552 177.71634 
L 417.45024 176.085263 
L 419.34528 176.085263 
L 421.24032 173.891745 
L 428.82048 173.891745 
L 430.71552 172.260668 
L 434.5056 172.260668 
L 436.40064 168.998515 
L 438.29568 168.998515 
L 442.08576 165.736361 
L 445.87584 165.736361 
L 449.66592 158.087172 
L 455.35104 158.087172 
L 457.24608 156.456095 
L 459.14112 152.631501 
L 462.9312 152.631501 
L 464.82624 146.61339 
L 466.72128 143.351236 
L 468.61632 141.720159 
L 472.4064 141.720159 
L 474.30144 140.089082 
L 476.19648 136.826928 
L 478.09152 135.195851 
L 487.56672 135.195851 
L 489.46176 130.302621 
L 491.3568 128.671544 
L 493.25184 126.478027 
L 500.832 126.478027 
L 502.72704 124.84695 
L 527.36256 124.84695 
L 529.2576 123.215873 
L 531.15264 123.215873 
L 536.83776 118.322642 
L 538.7328 118.322642 
L 540.62784 116.691565 
L 542.52288 116.691565 
L 546.31296 113.429411 
L 548.208 113.429411 
L 550.10304 111.798334 
L 551.99808 109.604817 
L 561.47328 109.604817 
L 563.36832 107.4113 
L 586.1088 107.4113 
L 588.00384 105.780223 
L 597.47904 105.780223 
L 599.37408 104.149146 
L 642.96 104.149146 
L 642.96 104.149146 
" clip-path="url(#pfcc69d2806)" style="fill: none; stroke-dasharray: 8.64,2.16,1.35,2.16; stroke-dashoffset: 0; stroke: #d0526a; stroke-width: 1.35"/>
   </g>
   <g id="line2d_32">
    <path d="M 74.448 348.192 
L 144.56448 348.192 
L 146.45952 345.998483 
L 159.7248 345.998483 
L 161.61984 343.804966 
L 169.2 343.804966 
L 171.09504 341.611448 
L 197.6256 341.611448 
L 199.52064 337.224414 
L 203.31072 337.224414 
L 205.20576 335.030897 
L 208.99584 335.030897 
L 210.89088 332.837379 
L 214.68096 332.837379 
L 216.576 328.450345 
L 237.42144 328.450345 
L 241.21152 319.676276 
L 243.10656 318.045199 
L 262.05696 318.045199 
L 263.952 316.414122 
L 269.63712 316.414122 
L 271.53216 314.220605 
L 273.4272 314.220605 
L 275.32224 312.027088 
L 277.21728 312.027088 
L 279.11232 309.83357 
L 282.9024 309.83357 
L 286.69248 305.446536 
L 288.58752 305.446536 
L 290.48256 303.253019 
L 296.16768 303.253019 
L 298.06272 301.059501 
L 309.43296 301.059501 
L 311.328 298.865984 
L 318.90816 298.865984 
L 320.8032 294.47895 
L 322.69824 294.47895 
L 324.59328 290.091915 
L 332.17344 290.091915 
L 334.06848 288.460838 
L 335.96352 288.460838 
L 339.7536 284.073804 
L 341.64864 282.442727 
L 351.12384 282.442727 
L 353.01888 278.055692 
L 354.91392 278.055692 
L 356.80896 275.862175 
L 358.704 275.862175 
L 360.59904 274.231098 
L 366.28416 274.231098 
L 368.1792 272.600021 
L 370.07424 272.600021 
L 371.96928 270.968944 
L 377.6544 270.968944 
L 379.54944 269.337867 
L 381.44448 266.075714 
L 385.23456 266.075714 
L 387.1296 263.882196 
L 389.02464 263.882196 
L 390.91968 262.251119 
L 392.81472 262.251119 
L 394.70976 260.620042 
L 396.6048 257.357889 
L 402.28992 257.357889 
L 404.18496 255.726812 
L 406.08 253.533294 
L 407.97504 251.902218 
L 415.5552 251.902218 
L 417.45024 249.7087 
L 419.34528 249.7087 
L 421.24032 243.690589 
L 423.13536 241.497072 
L 425.0304 239.865995 
L 426.92544 234.410324 
L 428.82048 234.410324 
L 430.71552 232.779247 
L 432.61056 230.585729 
L 434.5056 226.761135 
L 436.40064 226.761135 
L 438.29568 221.305464 
L 440.19072 221.305464 
L 443.9808 218.04331 
L 445.87584 214.781156 
L 449.66592 211.519003 
L 451.56096 209.325485 
L 453.456 209.325485 
L 455.35104 207.694408 
L 462.9312 207.694408 
L 464.82624 205.500891 
L 466.72128 205.500891 
L 468.61632 203.869814 
L 470.51136 200.04522 
L 474.30144 193.520912 
L 479.98656 193.520912 
L 481.8816 191.327395 
L 491.3568 191.327395 
L 493.25184 188.065241 
L 495.14688 188.065241 
L 497.04192 184.803088 
L 498.93696 182.60957 
L 502.72704 179.347416 
L 506.51712 179.347416 
L 510.3072 176.085263 
L 512.20224 173.891745 
L 514.09728 170.629592 
L 515.99232 170.629592 
L 517.88736 168.436074 
L 519.7824 166.804997 
L 521.67744 166.804997 
L 523.57248 163.542844 
L 527.36256 163.542844 
L 529.2576 161.911767 
L 534.94272 161.911767 
L 536.83776 160.28069 
L 538.7328 160.28069 
L 540.62784 157.018536 
L 546.31296 157.018536 
L 548.208 155.387459 
L 555.78816 155.387459 
L 559.57824 147.738271 
L 561.47328 145.544753 
L 567.1584 140.651523 
L 569.05344 138.458005 
L 570.94848 138.458005 
L 572.84352 135.195851 
L 574.73856 133.564775 
L 576.6336 133.564775 
L 578.52864 131.933698 
L 580.42368 131.933698 
L 584.21376 128.671544 
L 593.68896 128.671544 
L 595.584 127.040467 
L 597.47904 123.215873 
L 599.37408 123.215873 
L 603.16416 119.953719 
L 608.84928 119.953719 
L 610.74432 118.322642 
L 618.32448 118.322642 
L 620.21952 116.129125 
L 637.27488 116.129125 
L 639.16992 114.498048 
L 641.06496 111.235894 
L 642.96 109.604817 
L 642.96 109.604817 
" clip-path="url(#pfcc69d2806)" style="fill: none; stroke-dasharray: 6.75,2.7,1.35,2.7; stroke-dashoffset: 0; stroke: #2f8f84; stroke-width: 1.35"/>
   </g>
   <g id="patch_4">
    <path d="M 74.448 348.192 
L 74.448 93.744 
" style="fill: none; stroke: #000000; stroke-width: 0.8; stroke-linejoin: miter; stroke-linecap: square"/>
   </g>
   <g id="patch_5">
    <path d="M 74.448 348.192 
L 642.96 348.192 
" style="fill: none; stroke: #000000; stroke-width: 0.8; stroke-linejoin: miter; stroke-linecap: square"/>
   </g>
  </g>
  <g id="text_16">
   <text style="font: 18px 'DejaVu Sans', 'Bitstream Vera Sans', 'Computer Modern Sans Serif', 'Lucida Grande', 'Verdana', 'Geneva', 'Lucid', 'Arial', 'Helvetica', 'Avant Garde', sans-serif; text-anchor: start" x="74.448" y="38.229188" transform="rotate(-0 74.448 38.229188)">WLED LCD → QD-OLED</text>
  </g>
  <g id="text_17">
   <text style="fill: #66747c; font: 10px 'DejaVu Sans', 'Bitstream Vera Sans', 'Computer Modern Sans Serif', 'Lucida Grande', 'Verdana', 'Geneva', 'Lucid', 'Arial', 'Helvetica', 'Avant Garde', sans-serif; text-anchor: start" x="74.448" y="64.728" transform="rotate(-0 74.448 64.728)">LED-BH1</text>
  </g>
  <g id="legend_1">
   <g id="line2d_33">
    <path d="M 185.17875 404.151391 
L 194.27875 404.151391 
L 203.37875 404.151391 
" style="fill: none; stroke: #252525; stroke-width: 2.5; stroke-linecap: square"/>
   </g>
   <g id="text_18">
    <text style="font: 9.1px 'DejaVu Sans', 'Bitstream Vera Sans', 'Computer Modern Sans Serif', 'Lucida Grande', 'Verdana', 'Geneva', 'Lucid', 'Arial', 'Helvetica', 'Avant Garde', sans-serif; text-anchor: start" x="210.65875" y="407.336391" transform="rotate(-0 210.65875 407.336391)">Potera CMF</text>
   </g>
   <g id="line2d_34">
    <path d="M 185.17875 417.508484 
L 194.27875 417.508484 
L 203.37875 417.508484 
" style="fill: none; stroke: #3b83b4; stroke-width: 1.35; stroke-linecap: square"/>
   </g>
   <g id="text_19">
    <text style="font: 9.1px 'DejaVu Sans', 'Bitstream Vera Sans', 'Computer Modern Sans Serif', 'Lucida Grande', 'Verdana', 'Geneva', 'Lucid', 'Arial', 'Helvetica', 'Avant Garde', sans-serif; text-anchor: start" x="210.65875" y="420.693484" transform="rotate(-0 210.65875 420.693484)">CIE 2015 2°</text>
   </g>
   <g id="line2d_35">
    <path d="M 282.931234 404.151391 
L 292.031234 404.151391 
L 301.131234 404.151391 
" style="fill: none; stroke-dasharray: 4.995,2.16; stroke-dashoffset: 0; stroke: #c38a19; stroke-width: 1.35"/>
   </g>
   <g id="text_20">
    <text style="font: 9.1px 'DejaVu Sans', 'Bitstream Vera Sans', 'Computer Modern Sans Serif', 'Lucida Grande', 'Verdana', 'Geneva', 'Lucid', 'Arial', 'Helvetica', 'Avant Garde', sans-serif; text-anchor: start" x="308.411234" y="407.336391" transform="rotate(-0 308.411234 407.336391)">CIE 2015 10°</text>
   </g>
   <g id="line2d_36">
    <path d="M 282.931234 417.508484 
L 292.031234 417.508484 
L 301.131234 417.508484 
" style="fill: none; stroke-dasharray: 1.35,2.2275; stroke-dashoffset: 0; stroke: #7d8a92; stroke-width: 1.35"/>
   </g>
   <g id="text_21">
    <text style="font: 9.1px 'DejaVu Sans', 'Bitstream Vera Sans', 'Computer Modern Sans Serif', 'Lucida Grande', 'Verdana', 'Geneva', 'Lucid', 'Arial', 'Helvetica', 'Avant Garde', sans-serif; text-anchor: start" x="308.411234" y="420.693484" transform="rotate(-0 308.411234 420.693484)">CIE 1964 10°</text>
   </g>
   <g id="line2d_37">
    <path d="M 386.473594 404.151391 
L 395.573594 404.151391 
L 404.673594 404.151391 
" style="fill: none; stroke-dasharray: 8.64,2.16,1.35,2.16; stroke-dashoffset: 0; stroke: #d0526a; stroke-width: 1.35"/>
   </g>
   <g id="text_22">
    <text style="font: 9.1px 'DejaVu Sans', 'Bitstream Vera Sans', 'Computer Modern Sans Serif', 'Lucida Grande', 'Verdana', 'Geneva', 'Lucid', 'Arial', 'Helvetica', 'Avant Garde', sans-serif; text-anchor: start" x="411.953594" y="407.336391" transform="rotate(-0 411.953594 407.336391)">CIE 1931 2°</text>
   </g>
   <g id="line2d_38">
    <path d="M 386.473594 417.508484 
L 395.573594 417.508484 
L 404.673594 417.508484 
" style="fill: none; stroke-dasharray: 6.75,2.7,1.35,2.7; stroke-dashoffset: 0; stroke: #2f8f84; stroke-width: 1.35"/>
   </g>
   <g id="text_23">
    <text style="font: 9.1px 'DejaVu Sans', 'Bitstream Vera Sans', 'Computer Modern Sans Serif', 'Lucida Grande', 'Verdana', 'Geneva', 'Lucid', 'Arial', 'Helvetica', 'Avant Garde', sans-serif; text-anchor: start" x="411.953594" y="420.693484" transform="rotate(-0 411.953594 420.693484)">Judd–Vos 1978 2°</text>
   </g>
  </g>
 </g>
 <defs>
  <clipPath id="pfcc69d2806">
   <rect x="74.448" y="93.744" width="568.512" height="254.448"/>
  </clipPath>
 </defs>
</svg>
