<?xml version="1.0" encoding="utf-8" standalone="no"?>
<!DOCTYPE svg PUBLIC "-//W3C//DTD SVG 1.1//EN"
  "http://www.w3.org/Graphics/SVG/1.1/DTD/svg11.dtd">
<svg xmlns:xlink="http://www.w3.org/1999/xlink" width="676.8pt" height="446.4pt" viewBox="0 0 676.8 446.4" xmlns="http://www.w3.org/2000/svg" version="1.1">
 <metadata>
  <rdf:RDF xmlns:dc="http://purl.org/dc/elements/1.1/" xmlns:cc="http://creativecommons.org/ns#" xmlns:rdf="http://www.w3.org/1999/02/22-rdf-syntax-ns#">
   <cc:Work>
    <dc:type rdf:resource="http://purl.org/dc/dcmitype/StillImage"/>
    <dc:date>2026-07-20T06:42:00.773497</dc:date>
    <dc:format>image/svg+xml</dc:format>
    <dc:creator>
     <cc:Agent>
      <dc:title>Matplotlib v3.9.4, https://matplotlib.org/</dc:title>
     </cc:Agent>
    </dc:creator>
   </cc:Work>
  </rdf:RDF>
 </metadata>
 <defs>
  <style type="text/css">*{stroke-linejoin: round; stroke-linecap: butt}</style>
 </defs>
 <g id="figure_1">
  <g id="patch_1">
   <path d="M 0 446.4 
L 676.8 446.4 
L 676.8 0 
L 0 0 
z
" style="fill: #ffffff"/>
  </g>
  <g id="axes_1">
   <g id="patch_2">
    <path d="M 74.448 348.192 
L 642.96 348.192 
L 642.96 93.744 
L 74.448 93.744 
z
" style="fill: #ffffff"/>
   </g>
   <g id="patch_3">
    <path d="M 169.2 348.192 
L 358.704 348.192 
L 358.704 93.744 
L 169.2 93.744 
z
" clip-path="url(#p86fa29f4ee)" style="fill: #e7f0ea; opacity: 0.58; stroke: #e7f0ea; stroke-linejoin: miter"/>
   </g>
   <g id="matplotlib.axis_1">
    <g id="xtick_1">
     <g id="line2d_1">
      <path d="M 74.448 348.192 
L 74.448 93.744 
" clip-path="url(#p86fa29f4ee)" style="fill: none; stroke: #dfe5e8; stroke-width: 0.65; stroke-linecap: square"/>
     </g>
     <g id="line2d_2">
      <defs>
       <path id="mbdb06af18c" d="M 0 0 
L 0 3.5 
" style="stroke: #000000; stroke-width: 0.8"/>
      </defs>
      <g>
       <use xlink:href="#mbdb06af18c" x="74.448" y="348.192" style="stroke: #000000; stroke-width: 0.8"/>
      </g>
     </g>
     <g id="text_1">
      <text style="font: 10px 'DejaVu Sans', 'Bitstream Vera Sans', 'Computer Modern Sans Serif', 'Lucida Grande', 'Verdana', 'Geneva', 'Lucid', 'Arial', 'Helvetica', 'Avant Garde', sans-serif; text-anchor: middle" x="74.448" y="362.790438" transform="rotate(-0 74.448 362.790438)">0</text>
     </g>
    </g>
    <g id="xtick_2">
     <g id="line2d_3">
      <path d="M 169.2 348.192 
L 169.2 93.744 
" clip-path="url(#p86fa29f4ee)" style="fill: none; stroke: #dfe5e8; stroke-width: 0.65; stroke-linecap: square"/>
     </g>
     <g id="line2d_4">
      <g>
       <use xlink:href="#mbdb06af18c" x="169.2" y="348.192" style="stroke: #000000; stroke-width: 0.8"/>
      </g>
     </g>
     <g id="text_2">
      <text style="font: 10px 'DejaVu Sans', 'Bitstream Vera Sans', 'Computer Modern Sans Serif', 'Lucida Grande', 'Verdana', 'Geneva', 'Lucid', 'Arial', 'Helvetica', 'Avant Garde', sans-serif; text-anchor: middle" x="169.2" y="362.790438" transform="rotate(-0 169.2 362.790438)">1</text>
     </g>
    </g>
    <g id="xtick_3">
     <g id="line2d_5">
      <path d="M 263.952 348.192 
L 263.952 93.744 
" clip-path="url(#p86fa29f4ee)" style="fill: none; stroke: #dfe5e8; stroke-width: 0.65; stroke-linecap: square"/>
     </g>
     <g id="line2d_6">
      <g>
       <use xlink:href="#mbdb06af18c" x="263.952" y="348.192" style="stroke: #000000; stroke-width: 0.8"/>
      </g>
     </g>
     <g id="text_3">
      <text style="font: 10px 'DejaVu Sans', 'Bitstream Vera Sans', 'Computer Modern Sans Serif', 'Lucida Grande', 'Verdana', 'Geneva', 'Lucid', 'Arial', 'Helvetica', 'Avant Garde', sans-serif; text-anchor: middle" x="263.952" y="362.790438" transform="rotate(-0 263.952 362.790438)">2</text>
     </g>
    </g>
    <g id="xtick_4">
     <g id="line2d_7">
      <path d="M 358.704 348.192 
L 358.704 93.744 
" clip-path="url(#p86fa29f4ee)" style="fill: none; stroke: #dfe5e8; stroke-width: 0.65; stroke-linecap: square"/>
     </g>
     <g id="line2d_8">
      <g>
       <use xlink:href="#mbdb06af18c" x="358.704" y="348.192" style="stroke: #000000; stroke-width: 0.8"/>
      </g>
     </g>
     <g id="text_4">
      <text style="font: 10px 'DejaVu Sans', 'Bitstream Vera Sans', 'Computer Modern Sans Serif', 'Lucida Grande', 'Verdana', 'Geneva', 'Lucid', 'Arial', 'Helvetica', 'Avant Garde', sans-serif; text-anchor: middle" x="358.704" y="362.790438" transform="rotate(-0 358.704 362.790438)">3</text>
     </g>
    </g>
    <g id="xtick_5">
     <g id="line2d_9">
      <path d="M 453.456 348.192 
L 453.456 93.744 
" clip-path="url(#p86fa29f4ee)" style="fill: none; stroke: #dfe5e8; stroke-width: 0.65; stroke-linecap: square"/>
     </g>
     <g id="line2d_10">
      <g>
       <use xlink:href="#mbdb06af18c" x="453.456" y="348.192" style="stroke: #000000; stroke-width: 0.8"/>
      </g>
     </g>
     <g id="text_5">
      <text style="font: 10px 'DejaVu Sans', 'Bitstream Vera Sans', 'Computer Modern Sans Serif', 'Lucida Grande', 'Verdana', 'Geneva', 'Lucid', 'Arial', 'Helvetica', 'Avant Garde', sans-serif; text-anchor: middle" x="453.456" y="362.790438" transform="rotate(-0 453.456 362.790438)">4</text>
     </g>
    </g>
    <g id="xtick_6">
     <g id="line2d_11">
      <path d="M 548.208 348.192 
L 548.208 93.744 
" clip-path="url(#p86fa29f4ee)" style="fill: none; stroke: #dfe5e8; stroke-width: 0.65; stroke-linecap: square"/>
     </g>
     <g id="line2d_12">
      <g>
       <use xlink:href="#mbdb06af18c" x="548.208" y="348.192" style="stroke: #000000; stroke-width: 0.8"/>
      </g>
     </g>
     <g id="text_6">
      <text style="font: 10px 'DejaVu Sans', 'Bitstream Vera Sans', 'Computer Modern Sans Serif', 'Lucida Grande', 'Verdana', 'Geneva', 'Lucid', 'Arial', 'Helvetica', 'Avant Garde', sans-serif; text-anchor: middle" x="548.208" y="362.790438" transform="rotate(-0 548.208 362.790438)">5</text>
     </g>
    </g>
    <g id="xtick_7">
     <g id="line2d_13">
      <path d="M 642.96 348.192 
L 642.96 93.744 
" clip-path="url(#p86fa29f4ee)" style="fill: none; stroke: #dfe5e8; stroke-width: 0.65; stroke-linecap: square"/>
     </g>
     <g id="line2d_14">
      <g>
       <use xlink:href="#mbdb06af18c" x="642.96" y="348.192" style="stroke: #000000; stroke-width: 0.8"/>
      </g>
     </g>
     <g id="text_7">
      <text style="font: 10px 'DejaVu Sans', 'Bitstream Vera Sans', 'Computer Modern Sans Serif', 'Lucida Grande', 'Verdana', 'Geneva', 'Lucid', 'Arial', 'Helvetica', 'Avant Garde', sans-serif; text-anchor: middle" x="642.96" y="362.790438" transform="rotate(-0 642.96 362.790438)">6</text>
     </g>
    </g>
    <g id="text_8">
     <text style="font: 10px 'DejaVu Sans', 'Bitstream Vera Sans', 'Computer Modern Sans Serif', 'Lucida Grande', 'Verdana', 'Geneva', 'Lucid', 'Arial', 'Helvetica', 'Avant Garde', sans-serif; text-anchor: middle" x="358.704" y="376.468563" transform="rotate(-0 358.704 376.468563)">sUCS dE threshold</text>
    </g>
   </g>
   <g id="matplotlib.axis_2">
    <g id="ytick_1">
     <g id="line2d_15">
      <path d="M 74.448 348.192 
L 642.96 348.192 
" clip-path="url(#p86fa29f4ee)" style="fill: none; stroke: #dfe5e8; stroke-width: 0.65; stroke-linecap: square"/>
     </g>
     <g id="line2d_16">
      <defs>
       <path id="m66bc24632e" d="M 0 0 
L -3.5 0 
" style="stroke: #000000; stroke-width: 0.8"/>
      </defs>
      <g>
       <use xlink:href="#m66bc24632e" x="74.448" y="348.192" style="stroke: #000000; stroke-width: 0.8"/>
      </g>
     </g>
     <g id="text_9">
      <text style="font: 10px 'DejaVu Sans', 'Bitstream Vera Sans', 'Computer Modern Sans Serif', 'Lucida Grande', 'Verdana', 'Geneva', 'Lucid', 'Arial', 'Helvetica', 'Avant Garde', sans-serif; text-anchor: end" x="67.448" y="351.991219" transform="rotate(-0 67.448 351.991219)">0</text>
     </g>
    </g>
    <g id="ytick_2">
     <g id="line2d_17">
      <path d="M 74.448 297.3024 
L 642.96 297.3024 
" clip-path="url(#p86fa29f4ee)" style="fill: none; stroke: #dfe5e8; stroke-width: 0.65; stroke-linecap: square"/>
     </g>
     <g id="line2d_18">
      <g>
       <use xlink:href="#m66bc24632e" x="74.448" y="297.3024" style="stroke: #000000; stroke-width: 0.8"/>
      </g>
     </g>
     <g id="text_10">
      <text style="font: 10px 'DejaVu Sans', 'Bitstream Vera Sans', 'Computer Modern Sans Serif', 'Lucida Grande', 'Verdana', 'Geneva', 'Lucid', 'Arial', 'Helvetica', 'Avant Garde', sans-serif; text-anchor: end" x="67.448" y="301.101619" transform="rotate(-0 67.448 301.101619)">20</text>
     </g>
    </g>
    <g id="ytick_3">
     <g id="line2d_19">
      <path d="M 74.448 246.4128 
L 642.96 246.4128 
" clip-path="url(#p86fa29f4ee)" style="fill: none; stroke: #dfe5e8; stroke-width: 0.65; stroke-linecap: square"/>
     </g>
     <g id="line2d_20">
      <g>
       <use xlink:href="#m66bc24632e" x="74.448" y="246.4128" style="stroke: #000000; stroke-width: 0.8"/>
      </g>
     </g>
     <g id="text_11">
      <text style="font: 10px 'DejaVu Sans', 'Bitstream Vera Sans', 'Computer Modern Sans Serif', 'Lucida Grande', 'Verdana', 'Geneva', 'Lucid', 'Arial', 'Helvetica', 'Avant Garde', sans-serif; text-anchor: end" x="67.448" y="250.212019" transform="rotate(-0 67.448 250.212019)">40</text>
     </g>
    </g>
    <g id="ytick_4">
     <g id="line2d_21">
      <path d="M 74.448 195.5232 
L 642.96 195.5232 
" clip-path="url(#p86fa29f4ee)" style="fill: none; stroke: #dfe5e8; stroke-width: 0.65; stroke-linecap: square"/>
     </g>
     <g id="line2d_22">
      <g>
       <use xlink:href="#m66bc24632e" x="74.448" y="195.5232" style="stroke: #000000; stroke-width: 0.8"/>
      </g>
     </g>
     <g id="text_12">
      <text style="font: 10px 'DejaVu Sans', 'Bitstream Vera Sans', 'Computer Modern Sans Serif', 'Lucida Grande', 'Verdana', 'Geneva', 'Lucid', 'Arial', 'Helvetica', 'Avant Garde', sans-serif; text-anchor: end" x="67.448" y="199.322419" transform="rotate(-0 67.448 199.322419)">60</text>
     </g>
    </g>
    <g id="ytick_5">
     <g id="line2d_23">
      <path d="M 74.448 144.6336 
L 642.96 144.6336 
" clip-path="url(#p86fa29f4ee)" style="fill: none; stroke: #dfe5e8; stroke-width: 0.65; stroke-linecap: square"/>
     </g>
     <g id="line2d_24">
      <g>
       <use xlink:href="#m66bc24632e" x="74.448" y="144.6336" style="stroke: #000000; stroke-width: 0.8"/>
      </g>
     </g>
     <g id="text_13">
      <text style="font: 10px 'DejaVu Sans', 'Bitstream Vera Sans', 'Computer Modern Sans Serif', 'Lucida Grande', 'Verdana', 'Geneva', 'Lucid', 'Arial', 'Helvetica', 'Avant Garde', sans-serif; text-anchor: end" x="67.448" y="148.432819" transform="rotate(-0 67.448 148.432819)">80</text>
     </g>
    </g>
    <g id="ytick_6">
     <g id="line2d_25">
      <path d="M 74.448 93.744 
L 642.96 93.744 
" clip-path="url(#p86fa29f4ee)" style="fill: none; stroke: #dfe5e8; stroke-width: 0.65; stroke-linecap: square"/>
     </g>
     <g id="line2d_26">
      <g>
       <use xlink:href="#m66bc24632e" x="74.448" y="93.744" style="stroke: #000000; stroke-width: 0.8"/>
      </g>
     </g>
     <g id="text_14">
      <text style="font: 10px 'DejaVu Sans', 'Bitstream Vera Sans', 'Computer Modern Sans Serif', 'Lucida Grande', 'Verdana', 'Geneva', 'Lucid', 'Arial', 'Helvetica', 'Avant Garde', sans-serif; text-anchor: end" x="67.448" y="97.543219" transform="rotate(-0 67.448 97.543219)">100</text>
     </g>
    </g>
    <g id="text_15">
     <text style="font: 10px 'DejaVu Sans', 'Bitstream Vera Sans', 'Computer Modern Sans Serif', 'Lucida Grande', 'Verdana', 'Geneva', 'Lucid', 'Arial', 'Helvetica', 'Avant Garde', sans-serif; text-anchor: middle" x="42.280812" y="220.968" transform="rotate(-90 42.280812 220.968)">observers%</text>
    </g>
   </g>
   <g id="line2d_27">
    <path d="M 74.448 348.192 
L 93.3984 348.192 
L 95.29344 346.560923 
L 108.55872 346.560923 
L 110.45376 344.929846 
L 114.24384 344.929846 
L 116.13888 343.298769 
L 119.92896 343.298769 
L 121.824 341.667692 
L 123.71904 341.667692 
L 125.61408 340.036615 
L 127.50912 340.036615 
L 129.40416 338.405538 
L 131.2992 338.405538 
L 136.98432 333.512308 
L 140.7744 333.512308 
L 142.66944 331.881231 
L 148.35456 331.881231 
L 152.14464 328.619077 
L 154.03968 326.42556 
L 155.93472 324.794483 
L 157.82976 321.532329 
L 159.7248 319.901252 
L 161.61984 317.707735 
L 163.51488 316.076658 
L 165.40992 316.076658 
L 167.30496 313.883141 
L 169.2 313.883141 
L 171.09504 312.252064 
L 174.88512 304.602875 
L 176.78016 302.409358 
L 178.6752 297.516127 
L 184.36032 297.516127 
L 186.25536 295.88505 
L 195.73056 295.88505 
L 197.6256 292.060456 
L 199.52064 290.429379 
L 203.31072 290.429379 
L 205.20576 288.798302 
L 208.99584 284.411268 
L 212.78592 284.411268 
L 214.68096 282.780191 
L 216.576 282.780191 
L 218.47104 280.586674 
L 220.36608 275.131003 
L 222.26112 273.499926 
L 224.15616 273.499926 
L 226.0512 268.606695 
L 229.84128 268.606695 
L 231.73632 266.413178 
L 235.5264 266.413178 
L 237.42144 264.782101 
L 239.31648 260.957507 
L 241.21152 259.32643 
L 243.10656 257.132912 
L 245.0016 255.501836 
L 246.89664 253.308318 
L 248.79168 248.415088 
L 252.58176 248.415088 
L 254.4768 246.22157 
L 256.37184 244.590493 
L 258.26688 244.590493 
L 260.16192 237.503745 
L 262.05696 235.872668 
L 263.952 232.048074 
L 265.84704 232.048074 
L 269.63712 228.78592 
L 271.53216 226.592403 
L 273.4272 226.592403 
L 275.32224 224.961326 
L 277.21728 221.699172 
L 279.11232 221.699172 
L 281.00736 219.505655 
L 282.9024 219.505655 
L 284.79744 213.487544 
L 288.58752 209.100509 
L 290.48256 207.469432 
L 292.3776 207.469432 
L 294.27264 205.838355 
L 298.06272 205.838355 
L 299.95776 204.207279 
L 301.8528 204.207279 
L 303.74784 199.314048 
L 305.64288 197.682971 
L 318.90816 197.682971 
L 320.8032 196.051894 
L 322.69824 196.051894 
L 324.59328 192.2273 
L 326.48832 190.033782 
L 328.38336 186.771629 
L 330.2784 186.771629 
L 332.17344 185.140552 
L 334.06848 182.947034 
L 335.96352 182.947034 
L 337.85856 181.315958 
L 341.64864 176.928923 
L 345.43872 176.928923 
L 347.33376 174.735406 
L 354.91392 174.735406 
L 356.80896 173.104329 
L 364.38912 173.104329 
L 366.28416 170.910812 
L 371.96928 170.910812 
L 373.86432 168.717294 
L 377.6544 168.717294 
L 379.54944 166.523777 
L 383.33952 163.261623 
L 385.23456 163.261623 
L 387.1296 161.630546 
L 389.02464 161.630546 
L 390.91968 157.805952 
L 392.81472 157.805952 
L 394.70976 156.174875 
L 398.49984 151.787841 
L 400.39488 151.787841 
L 402.28992 149.594324 
L 404.18496 149.594324 
L 406.08 147.963247 
L 407.97504 145.769729 
L 409.87008 145.769729 
L 411.76512 143.576212 
L 415.5552 143.576212 
L 417.45024 141.382695 
L 426.92544 141.382695 
L 428.82048 139.189178 
L 443.9808 139.189178 
L 445.87584 136.99566 
L 453.456 136.99566 
L 455.35104 134.802143 
L 461.03616 134.802143 
L 464.82624 130.415109 
L 466.72128 130.415109 
L 468.61632 128.221592 
L 476.19648 128.221592 
L 478.09152 123.834557 
L 481.8816 123.834557 
L 483.77664 121.64104 
L 517.88736 121.64104 
L 519.7824 119.447523 
L 527.36256 119.447523 
L 529.2576 117.254005 
L 538.7328 117.254005 
L 540.62784 115.060488 
L 542.52288 115.060488 
L 544.41792 113.429411 
L 551.99808 113.429411 
L 553.89312 111.798334 
L 555.78816 111.798334 
L 557.6832 109.604817 
L 563.36832 109.604817 
L 565.26336 107.97374 
L 578.52864 107.97374 
L 580.42368 106.342663 
L 584.21376 106.342663 
L 586.1088 104.149146 
L 589.89888 104.149146 
L 591.79392 101.955629 
L 603.16416 101.955629 
L 605.0592 99.762111 
L 624.0096 99.762111 
L 625.90464 98.131034 
L 642.96 98.131034 
L 642.96 98.131034 
" clip-path="url(#p86fa29f4ee)" style="fill: none; stroke: #252525; stroke-width: 2.5; stroke-linecap: square"/>
   </g>
   <g id="line2d_28">
    <path d="M 74.448 348.192 
L 93.3984 348.192 
L 95.29344 345.998483 
L 116.13888 345.998483 
L 118.03392 343.804966 
L 119.92896 343.804966 
L 121.824 341.611448 
L 131.2992 341.611448 
L 133.19424 337.224414 
L 138.87936 337.224414 
L 140.7744 335.593337 
L 142.66944 335.593337 
L 146.45952 331.206302 
L 148.35456 331.206302 
L 150.2496 329.012785 
L 165.40992 329.012785 
L 167.30496 327.381708 
L 174.88512 327.381708 
L 176.78016 325.750631 
L 178.6752 325.750631 
L 180.57024 323.557114 
L 182.46528 323.557114 
L 186.25536 319.17008 
L 191.94048 319.17008 
L 193.83552 317.539003 
L 195.73056 317.539003 
L 197.6256 315.907926 
L 205.20576 315.907926 
L 207.1008 314.276849 
L 224.15616 314.276849 
L 226.0512 312.645772 
L 227.94624 312.645772 
L 229.84128 308.258737 
L 231.73632 306.62766 
L 233.63136 306.62766 
L 235.5264 304.434143 
L 237.42144 300.047109 
L 239.31648 298.416032 
L 241.21152 298.416032 
L 243.10656 296.784955 
L 245.0016 296.784955 
L 246.89664 294.591438 
L 250.68672 283.680095 
L 252.58176 279.293061 
L 254.4768 279.293061 
L 256.37184 277.661984 
L 258.26688 277.661984 
L 260.16192 273.27495 
L 262.05696 267.819279 
L 263.952 263.994684 
L 267.74208 260.732531 
L 269.63712 258.539013 
L 271.53216 256.907936 
L 273.4272 252.520902 
L 279.11232 252.520902 
L 281.00736 250.889825 
L 284.79744 250.889825 
L 286.69248 247.065231 
L 290.48256 243.803077 
L 292.3776 240.540923 
L 294.27264 238.347406 
L 296.16768 236.716329 
L 298.06272 236.716329 
L 301.8528 233.454175 
L 303.74784 233.454175 
L 305.64288 229.629581 
L 307.53792 227.436064 
L 309.43296 224.17391 
L 311.328 224.17391 
L 313.22304 217.593358 
L 317.01312 214.331204 
L 318.90816 214.331204 
L 320.8032 212.137687 
L 322.69824 212.137687 
L 324.59328 207.750653 
L 326.48832 204.488499 
L 328.38336 202.857422 
L 330.2784 199.032828 
L 337.85856 199.032828 
L 339.7536 197.401751 
L 341.64864 194.139597 
L 345.43872 194.139597 
L 347.33376 190.877443 
L 349.2288 188.683926 
L 354.91392 188.683926 
L 360.59904 183.790695 
L 364.38912 183.790695 
L 366.28416 182.159618 
L 371.96928 182.159618 
L 373.86432 179.966101 
L 375.75936 174.51043 
L 377.6544 170.685836 
L 381.44448 167.423682 
L 383.33952 165.230164 
L 385.23456 165.230164 
L 387.1296 163.599088 
L 389.02464 160.336934 
L 390.91968 158.705857 
L 400.39488 158.705857 
L 402.28992 154.881263 
L 404.18496 152.687745 
L 406.08 151.056668 
L 407.97504 147.794515 
L 409.87008 147.794515 
L 411.76512 140.145326 
L 415.5552 140.145326 
L 417.45024 136.320732 
L 421.24032 136.320732 
L 425.0304 133.058578 
L 426.92544 133.058578 
L 428.82048 131.427501 
L 430.71552 129.233984 
L 453.456 129.233984 
L 457.24608 125.97183 
L 462.9312 125.97183 
L 468.61632 121.078599 
L 479.98656 121.078599 
L 481.8816 119.447523 
L 485.67168 119.447523 
L 487.56672 117.254005 
L 493.25184 117.254005 
L 495.14688 115.060488 
L 498.93696 115.060488 
L 500.832 112.866971 
L 504.62208 112.866971 
L 506.51712 110.673454 
L 533.04768 110.673454 
L 534.94272 109.042377 
L 548.208 109.042377 
L 550.10304 107.4113 
L 578.52864 107.4113 
L 580.42368 105.780223 
L 589.89888 105.780223 
L 591.79392 103.586706 
L 593.68896 103.586706 
L 595.584 101.393188 
L 597.47904 99.762111 
L 641.06496 99.762111 
L 642.96 98.131034 
L 642.96 98.131034 
" clip-path="url(#p86fa29f4ee)" style="fill: none; stroke: #3b83b4; stroke-width: 1.35; stroke-linecap: square"/>
   </g>
   <g id="line2d_29">
    <path d="M 74.448 348.192 
L 91.50336 348.192 
L 93.3984 346.560923 
L 97.18848 346.560923 
L 99.08352 344.929846 
L 100.97856 344.929846 
L 102.8736 343.298769 
L 119.92896 343.298769 
L 123.71904 340.036615 
L 127.50912 335.649581 
L 129.40416 335.649581 
L 133.19424 332.387427 
L 135.08928 332.387427 
L 136.98432 329.125273 
L 138.87936 327.494196 
L 140.7744 327.494196 
L 144.56448 320.969889 
L 152.14464 320.969889 
L 159.7248 314.445581 
L 161.61984 314.445581 
L 163.51488 312.814504 
L 169.2 312.814504 
L 171.09504 311.183427 
L 176.78016 311.183427 
L 178.6752 309.55235 
L 180.57024 306.290196 
L 184.36032 306.290196 
L 186.25536 304.659119 
L 190.04544 304.659119 
L 193.83552 301.396966 
L 195.73056 301.396966 
L 197.6256 298.134812 
L 203.31072 291.55426 
L 205.20576 291.55426 
L 207.1008 289.923183 
L 208.99584 289.923183 
L 210.89088 287.729666 
L 212.78592 287.729666 
L 214.68096 286.098589 
L 216.576 281.711554 
L 218.47104 280.080477 
L 224.15616 280.080477 
L 226.0512 276.818324 
L 227.94624 274.624806 
L 229.84128 272.993729 
L 231.73632 269.169135 
L 233.63136 265.906981 
L 239.31648 265.906981 
L 241.21152 261.519947 
L 246.89664 256.626716 
L 248.79168 250.608605 
L 250.68672 250.608605 
L 252.58176 246.784011 
L 258.26688 246.784011 
L 262.05696 243.521857 
L 263.952 239.697263 
L 265.84704 239.697263 
L 267.74208 235.872668 
L 269.63712 234.241592 
L 271.53216 234.241592 
L 273.4272 232.610515 
L 275.32224 232.610515 
L 277.21728 230.979438 
L 279.11232 228.78592 
L 281.00736 228.78592 
L 282.9024 227.154844 
L 284.79744 227.154844 
L 288.58752 223.89269 
L 290.48256 218.437019 
L 292.3776 218.437019 
L 298.06272 213.543788 
L 299.95776 213.543788 
L 301.8528 211.350271 
L 303.74784 211.350271 
L 305.64288 209.156753 
L 315.11808 209.156753 
L 317.01312 206.963236 
L 318.90816 203.701082 
L 324.59328 203.701082 
L 326.48832 197.120531 
L 328.38336 193.295936 
L 330.2784 193.295936 
L 332.17344 190.033782 
L 334.06848 190.033782 
L 339.7536 185.140552 
L 341.64864 185.140552 
L 343.54368 182.947034 
L 345.43872 182.947034 
L 347.33376 181.315958 
L 349.2288 179.12244 
L 356.80896 179.12244 
L 358.704 177.491363 
L 360.59904 177.491363 
L 362.49408 175.860286 
L 364.38912 173.666769 
L 366.28416 173.666769 
L 368.1792 172.035692 
L 371.96928 172.035692 
L 373.86432 169.842175 
L 377.6544 169.842175 
L 379.54944 168.211098 
L 381.44448 166.017581 
L 383.33952 166.017581 
L 385.23456 163.824064 
L 389.02464 163.824064 
L 390.91968 161.630546 
L 396.6048 161.630546 
L 398.49984 159.437029 
L 415.5552 159.437029 
L 417.45024 155.049995 
L 421.24032 155.049995 
L 423.13536 151.225401 
L 426.92544 151.225401 
L 428.82048 149.594324 
L 434.5056 143.013772 
L 438.29568 143.013772 
L 440.19072 140.820255 
L 442.08576 140.820255 
L 443.9808 138.626737 
L 445.87584 138.626737 
L 447.77088 136.99566 
L 449.66592 132.608626 
L 453.456 132.608626 
L 455.35104 130.415109 
L 472.4064 130.415109 
L 474.30144 128.221592 
L 485.67168 128.221592 
L 487.56672 126.028074 
L 491.3568 126.028074 
L 493.25184 123.834557 
L 502.72704 123.834557 
L 504.62208 120.009963 
L 506.51712 117.816446 
L 514.09728 117.816446 
L 515.99232 115.622928 
L 517.88736 115.622928 
L 519.7824 113.429411 
L 521.67744 113.429411 
L 523.57248 111.798334 
L 538.7328 111.798334 
L 540.62784 110.167257 
L 555.78816 110.167257 
L 557.6832 107.97374 
L 567.1584 107.97374 
L 569.05344 105.780223 
L 576.6336 105.780223 
L 578.52864 103.586706 
L 584.21376 103.586706 
L 586.1088 101.955629 
L 589.89888 101.955629 
L 591.79392 100.324552 
L 597.47904 100.324552 
L 599.37408 98.131034 
L 642.96 98.131034 
L 642.96 98.131034 
" clip-path="url(#p86fa29f4ee)" style="fill: none; stroke-dasharray: 4.995,2.16; stroke-dashoffset: 0; stroke: #c38a19; stroke-width: 1.35"/>
   </g>
   <g id="line2d_30">
    <path d="M 74.448 348.192 
L 100.97856 348.192 
L 104.76864 344.929846 
L 121.824 344.929846 
L 123.71904 343.298769 
L 125.61408 338.405538 
L 127.50912 336.774462 
L 131.2992 336.774462 
L 133.19424 334.580944 
L 135.08928 334.580944 
L 136.98432 332.387427 
L 142.66944 332.387427 
L 144.56448 330.75635 
L 154.03968 330.75635 
L 155.93472 327.494196 
L 157.82976 327.494196 
L 161.61984 324.232042 
L 163.51488 320.969889 
L 165.40992 320.969889 
L 169.2 317.707735 
L 171.09504 312.252064 
L 172.99008 310.058546 
L 176.78016 310.058546 
L 178.6752 307.865029 
L 184.36032 302.971798 
L 188.1504 302.971798 
L 190.04544 300.778281 
L 193.83552 297.516127 
L 195.73056 295.32261 
L 197.6256 295.32261 
L 199.52064 290.935576 
L 201.41568 290.935576 
L 203.31072 289.304499 
L 205.20576 289.304499 
L 207.1008 286.042345 
L 208.99584 280.024233 
L 212.78592 280.024233 
L 214.68096 278.393156 
L 216.576 278.393156 
L 218.47104 273.499926 
L 222.26112 273.499926 
L 224.15616 271.306408 
L 226.0512 266.919374 
L 227.94624 265.288297 
L 229.84128 259.832626 
L 231.73632 259.832626 
L 233.63136 258.201549 
L 243.10656 258.201549 
L 245.0016 256.008032 
L 246.89664 252.745878 
L 248.79168 248.921284 
L 250.68672 248.921284 
L 252.58176 245.65913 
L 265.84704 245.65913 
L 267.74208 244.028053 
L 269.63712 239.641019 
L 271.53216 239.641019 
L 273.4272 236.378865 
L 275.32224 234.747788 
L 277.21728 234.747788 
L 279.11232 233.116711 
L 281.00736 229.854557 
L 282.9024 227.66104 
L 288.58752 222.767809 
L 292.3776 222.767809 
L 294.27264 221.136732 
L 296.16768 221.136732 
L 298.06272 218.943215 
L 299.95776 215.681061 
L 301.8528 214.049984 
L 303.74784 214.049984 
L 305.64288 210.22539 
L 307.53792 205.838355 
L 309.43296 202.013761 
L 313.22304 202.013761 
L 315.11808 200.382684 
L 320.8032 200.382684 
L 322.69824 196.55809 
L 324.59328 196.55809 
L 326.48832 194.927013 
L 332.17344 194.927013 
L 335.96352 191.664859 
L 337.85856 191.664859 
L 339.7536 185.646748 
L 341.64864 184.015671 
L 343.54368 180.191077 
L 345.43872 180.191077 
L 347.33376 177.99756 
L 358.704 177.99756 
L 360.59904 174.172966 
L 362.49408 174.172966 
L 364.38912 172.541889 
L 366.28416 168.717294 
L 368.1792 168.717294 
L 370.07424 166.523777 
L 371.96928 166.523777 
L 373.86432 164.8927 
L 375.75936 162.699183 
L 381.44448 162.699183 
L 383.33952 158.874589 
L 390.91968 158.874589 
L 392.81472 155.049995 
L 400.39488 146.275926 
L 402.28992 146.275926 
L 404.18496 141.888891 
L 411.76512 141.888891 
L 413.66016 139.695374 
L 415.5552 139.695374 
L 417.45024 137.501857 
L 428.82048 137.501857 
L 430.71552 135.30834 
L 436.40064 135.30834 
L 440.19072 132.046186 
L 442.08576 132.046186 
L 443.9808 129.852668 
L 455.35104 129.852668 
L 457.24608 127.659151 
L 459.14112 126.028074 
L 464.82624 126.028074 
L 466.72128 123.834557 
L 478.09152 123.834557 
L 479.98656 121.64104 
L 491.3568 121.64104 
L 493.25184 120.009963 
L 495.14688 117.816446 
L 506.51712 117.816446 
L 508.41216 115.622928 
L 517.88736 115.622928 
L 519.7824 113.991851 
L 523.57248 113.991851 
L 525.46752 112.360775 
L 527.36256 112.360775 
L 531.15264 107.97374 
L 536.83776 107.97374 
L 538.7328 105.780223 
L 540.62784 105.780223 
L 542.52288 103.586706 
L 570.94848 103.586706 
L 572.84352 101.955629 
L 601.26912 101.955629 
L 603.16416 99.762111 
L 608.84928 99.762111 
L 610.74432 98.131034 
L 642.96 98.131034 
L 642.96 98.131034 
" clip-path="url(#p86fa29f4ee)" style="fill: none; stroke-dasharray: 1.35,2.2275; stroke-dashoffset: 0; stroke: #7d8a92; stroke-width: 1.35"/>
   </g>
   <g id="line2d_31">
    <path d="M 74.448 348.192 
L 100.97856 348.192 
L 102.8736 345.998483 
L 148.35456 345.998483 
L 150.2496 343.804966 
L 163.51488 343.804966 
L 165.40992 341.611448 
L 169.2 341.611448 
L 171.09504 339.417931 
L 174.88512 339.417931 
L 178.6752 336.155777 
L 180.57024 333.96226 
L 182.46528 333.96226 
L 184.36032 331.768743 
L 186.25536 331.768743 
L 190.04544 327.381708 
L 193.83552 327.381708 
L 195.73056 325.188191 
L 197.6256 325.188191 
L 199.52064 322.994674 
L 203.31072 322.994674 
L 205.20576 320.801156 
L 212.78592 320.801156 
L 218.47104 314.220605 
L 222.26112 314.220605 
L 227.94624 307.640053 
L 233.63136 307.640053 
L 235.5264 305.446536 
L 246.89664 305.446536 
L 248.79168 303.253019 
L 252.58176 303.253019 
L 254.4768 298.865984 
L 263.952 298.865984 
L 265.84704 296.672467 
L 267.74208 295.04139 
L 269.63712 295.04139 
L 271.53216 293.410313 
L 282.9024 293.410313 
L 284.79744 291.216796 
L 286.69248 291.216796 
L 288.58752 289.585719 
L 290.48256 285.761125 
L 294.27264 285.761125 
L 298.06272 282.498971 
L 305.64288 282.498971 
L 307.53792 280.867894 
L 313.22304 280.867894 
L 315.11808 279.236817 
L 317.01312 279.236817 
L 318.90816 277.0433 
L 320.8032 277.0433 
L 326.48832 270.462748 
L 328.38336 266.075714 
L 330.2784 262.81356 
L 332.17344 262.81356 
L 334.06848 258.426525 
L 335.96352 258.426525 
L 337.85856 254.039491 
L 341.64864 246.390302 
L 345.43872 246.390302 
L 349.2288 243.128149 
L 351.12384 232.779247 
L 353.01888 231.14817 
L 354.91392 231.14817 
L 356.80896 229.517093 
L 358.704 225.692499 
L 360.59904 223.498981 
L 364.38912 223.498981 
L 366.28416 219.674387 
L 370.07424 219.674387 
L 371.96928 217.48087 
L 373.86432 214.218716 
L 375.75936 214.218716 
L 377.6544 210.956562 
L 379.54944 209.325485 
L 381.44448 209.325485 
L 383.33952 206.063332 
L 387.1296 206.063332 
L 390.91968 202.801178 
L 392.81472 200.60766 
L 394.70976 198.976584 
L 404.18496 198.976584 
L 406.08 196.783066 
L 407.97504 191.889836 
L 409.87008 188.627682 
L 413.66016 188.627682 
L 415.5552 185.365528 
L 419.34528 180.978493 
L 423.13536 180.978493 
L 425.0304 178.784976 
L 426.92544 177.153899 
L 428.82048 173.891745 
L 442.08576 173.891745 
L 445.87584 170.629592 
L 447.77088 170.629592 
L 449.66592 168.998515 
L 455.35104 168.998515 
L 457.24608 167.367438 
L 459.14112 167.367438 
L 461.03616 165.736361 
L 462.9312 161.911767 
L 464.82624 159.718249 
L 466.72128 159.718249 
L 468.61632 155.893655 
L 470.51136 153.700138 
L 472.4064 150.437984 
L 474.30144 150.437984 
L 476.19648 146.61339 
L 481.8816 146.61339 
L 483.77664 144.982313 
L 485.67168 144.982313 
L 487.56672 143.351236 
L 489.46176 140.089082 
L 491.3568 140.089082 
L 493.25184 136.826928 
L 497.04192 136.826928 
L 498.93696 135.195851 
L 500.832 133.002334 
L 502.72704 131.371257 
L 508.41216 131.371257 
L 514.09728 126.478027 
L 523.57248 126.478027 
L 525.46752 124.84695 
L 536.83776 124.84695 
L 538.7328 123.215873 
L 540.62784 123.215873 
L 542.52288 121.584796 
L 546.31296 121.584796 
L 548.208 119.953719 
L 550.10304 119.953719 
L 555.78816 115.060488 
L 557.6832 115.060488 
L 559.57824 112.866971 
L 563.36832 112.866971 
L 565.26336 111.235894 
L 569.05344 111.235894 
L 570.94848 109.604817 
L 572.84352 107.4113 
L 584.21376 107.4113 
L 586.1088 105.780223 
L 595.584 105.780223 
L 597.47904 104.149146 
L 642.96 104.149146 
L 642.96 104.149146 
" clip-path="url(#p86fa29f4ee)" style="fill: none; stroke-dasharray: 8.64,2.16,1.35,2.16; stroke-dashoffset: 0; stroke: #d0526a; stroke-width: 1.35"/>
   </g>
   <g id="line2d_32">
    <path d="M 74.448 348.192 
L 144.56448 348.192 
L 146.45952 345.998483 
L 165.40992 345.998483 
L 167.30496 343.804966 
L 172.99008 343.804966 
L 174.88512 341.611448 
L 197.6256 341.611448 
L 199.52064 339.417931 
L 205.20576 339.417931 
L 207.1008 335.030897 
L 216.576 335.030897 
L 220.36608 330.643862 
L 224.15616 330.643862 
L 226.0512 328.450345 
L 235.5264 328.450345 
L 241.21152 321.869793 
L 256.37184 321.869793 
L 258.26688 319.676276 
L 260.16192 319.676276 
L 262.05696 318.045199 
L 277.21728 318.045199 
L 279.11232 315.851682 
L 282.9024 315.851682 
L 284.79744 314.220605 
L 288.58752 309.83357 
L 290.48256 309.83357 
L 292.3776 307.640053 
L 299.95776 307.640053 
L 301.8528 303.253019 
L 305.64288 303.253019 
L 309.43296 298.865984 
L 328.38336 298.865984 
L 330.2784 296.672467 
L 334.06848 296.672467 
L 335.96352 294.47895 
L 337.85856 294.47895 
L 339.7536 292.285432 
L 341.64864 292.285432 
L 343.54368 290.091915 
L 345.43872 290.091915 
L 347.33376 287.898398 
L 349.2288 287.898398 
L 351.12384 285.704881 
L 353.01888 284.073804 
L 354.91392 284.073804 
L 356.80896 281.880286 
L 358.704 280.24921 
L 373.86432 280.24921 
L 375.75936 278.055692 
L 377.6544 278.055692 
L 379.54944 275.862175 
L 383.33952 275.862175 
L 385.23456 272.600021 
L 389.02464 272.600021 
L 390.91968 270.968944 
L 394.70976 270.968944 
L 398.49984 267.70679 
L 404.18496 267.70679 
L 406.08 263.882196 
L 409.87008 263.882196 
L 411.76512 262.251119 
L 413.66016 258.988966 
L 415.5552 255.164371 
L 417.45024 255.164371 
L 419.34528 253.533294 
L 421.24032 251.339777 
L 430.71552 251.339777 
L 432.61056 249.14626 
L 434.5056 245.321666 
L 436.40064 243.128149 
L 438.29568 241.497072 
L 445.87584 241.497072 
L 447.77088 236.041401 
L 449.66592 236.041401 
L 451.56096 232.779247 
L 453.456 232.779247 
L 455.35104 230.585729 
L 457.24608 226.198695 
L 459.14112 226.198695 
L 461.03616 224.567618 
L 462.9312 224.567618 
L 464.82624 221.305464 
L 466.72128 221.305464 
L 472.4064 216.412233 
L 474.30144 212.587639 
L 476.19648 212.587639 
L 478.09152 209.325485 
L 481.8816 209.325485 
L 483.77664 207.694408 
L 485.67168 207.694408 
L 487.56672 205.500891 
L 491.3568 202.238737 
L 493.25184 200.04522 
L 497.04192 200.04522 
L 498.93696 196.783066 
L 500.832 195.151989 
L 502.72704 195.151989 
L 504.62208 193.520912 
L 514.09728 193.520912 
L 515.99232 191.327395 
L 519.7824 191.327395 
L 521.67744 189.696318 
L 523.57248 184.803088 
L 525.46752 184.803088 
L 527.36256 181.540934 
L 529.2576 179.347416 
L 531.15264 176.085263 
L 533.04768 173.891745 
L 534.94272 172.260668 
L 540.62784 172.260668 
L 542.52288 170.067151 
L 548.208 165.17392 
L 550.10304 161.911767 
L 555.78816 161.911767 
L 557.6832 160.28069 
L 565.26336 160.28069 
L 567.1584 158.649613 
L 569.05344 158.649613 
L 570.94848 155.387459 
L 574.73856 155.387459 
L 576.6336 153.193942 
L 578.52864 151.562865 
L 580.42368 151.562865 
L 584.21376 148.300711 
L 586.1088 148.300711 
L 588.00384 146.107194 
L 589.89888 146.107194 
L 591.79392 143.913676 
L 593.68896 143.913676 
L 595.584 142.282599 
L 597.47904 140.089082 
L 599.37408 138.458005 
L 601.26912 138.458005 
L 603.16416 136.826928 
L 606.95424 136.826928 
L 610.74432 133.564775 
L 612.63936 128.671544 
L 614.5344 128.671544 
L 616.42944 124.84695 
L 622.11456 124.84695 
L 624.0096 122.653432 
L 627.79968 122.653432 
L 629.69472 121.022355 
L 633.4848 121.022355 
L 635.37984 117.760202 
L 642.96 117.760202 
L 642.96 117.760202 
" clip-path="url(#p86fa29f4ee)" style="fill: none; stroke-dasharray: 6.75,2.7,1.35,2.7; stroke-dashoffset: 0; stroke: #2f8f84; stroke-width: 1.35"/>
   </g>
   <g id="patch_4">
    <path d="M 74.448 348.192 
L 74.448 93.744 
" style="fill: none; stroke: #000000; stroke-width: 0.8; stroke-linejoin: miter; stroke-linecap: square"/>
   </g>
   <g id="patch_5">
    <path d="M 74.448 348.192 
L 642.96 348.192 
" style="fill: none; stroke: #000000; stroke-width: 0.8; stroke-linejoin: miter; stroke-linecap: square"/>
   </g>
  </g>
  <g id="text_16">
   <text style="font: 18px 'DejaVu Sans', 'Bitstream Vera Sans', 'Computer Modern Sans Serif', 'Lucida Grande', 'Verdana', 'Geneva', 'Lucid', 'Arial', 'Helvetica', 'Avant Garde', sans-serif; text-anchor: start" x="74.448" y="38.229188" transform="rotate(-0 74.448 38.229188)">WLED LCD → QD-OLED</text>
  </g>
  <g id="text_17">
   <text style="fill: #66747c; font: 10px 'DejaVu Sans', 'Bitstream Vera Sans', 'Computer Modern Sans Serif', 'Lucida Grande', 'Verdana', 'Geneva', 'Lucid', 'Arial', 'Helvetica', 'Avant Garde', sans-serif; text-anchor: start" x="74.448" y="64.728" transform="rotate(-0 74.448 64.728)">LED-RGB1</text>
  </g>
  <g id="legend_1">
   <g id="line2d_33">
    <path d="M 185.17875 404.151391 
L 194.27875 404.151391 
L 203.37875 404.151391 
" style="fill: none; stroke: #252525; stroke-width: 2.5; stroke-linecap: square"/>
   </g>
   <g id="text_18">
    <text style="font: 9.1px 'DejaVu Sans', 'Bitstream Vera Sans', 'Computer Modern Sans Serif', 'Lucida Grande', 'Verdana', 'Geneva', 'Lucid', 'Arial', 'Helvetica', 'Avant Garde', sans-serif; text-anchor: start" x="210.65875" y="407.336391" transform="rotate(-0 210.65875 407.336391)">Potera CMF</text>
   </g>
   <g id="line2d_34">
    <path d="M 185.17875 417.508484 
L 194.27875 417.508484 
L 203.37875 417.508484 
" style="fill: none; stroke: #3b83b4; stroke-width: 1.35; stroke-linecap: square"/>
   </g>
   <g id="text_19">
    <text style="font: 9.1px 'DejaVu Sans', 'Bitstream Vera Sans', 'Computer Modern Sans Serif', 'Lucida Grande', 'Verdana', 'Geneva', 'Lucid', 'Arial', 'Helvetica', 'Avant Garde', sans-serif; text-anchor: start" x="210.65875" y="420.693484" transform="rotate(-0 210.65875 420.693484)">CIE 2015 2°</text>
   </g>
   <g id="line2d_35">
    <path d="M 282.931234 404.151391 
L 292.031234 404.151391 
L 301.131234 404.151391 
" style="fill: none; stroke-dasharray: 4.995,2.16; stroke-dashoffset: 0; stroke: #c38a19; stroke-width: 1.35"/>
   </g>
   <g id="text_20">
    <text style="font: 9.1px 'DejaVu Sans', 'Bitstream Vera Sans', 'Computer Modern Sans Serif', 'Lucida Grande', 'Verdana', 'Geneva', 'Lucid', 'Arial', 'Helvetica', 'Avant Garde', sans-serif; text-anchor: start" x="308.411234" y="407.336391" transform="rotate(-0 308.411234 407.336391)">CIE 2015 10°</text>
   </g>
   <g id="line2d_36">
    <path d="M 282.931234 417.508484 
L 292.031234 417.508484 
L 301.131234 417.508484 
" style="fill: none; stroke-dasharray: 1.35,2.2275; stroke-dashoffset: 0; stroke: #7d8a92; stroke-width: 1.35"/>
   </g>
   <g id="text_21">
    <text style="font: 9.1px 'DejaVu Sans', 'Bitstream Vera Sans', 'Computer Modern Sans Serif', 'Lucida Grande', 'Verdana', 'Geneva', 'Lucid', 'Arial', 'Helvetica', 'Avant Garde', sans-serif; text-anchor: start" x="308.411234" y="420.693484" transform="rotate(-0 308.411234 420.693484)">CIE 1964 10°</text>
   </g>
   <g id="line2d_37">
    <path d="M 386.473594 404.151391 
L 395.573594 404.151391 
L 404.673594 404.151391 
" style="fill: none; stroke-dasharray: 8.64,2.16,1.35,2.16; stroke-dashoffset: 0; stroke: #d0526a; stroke-width: 1.35"/>
   </g>
   <g id="text_22">
    <text style="font: 9.1px 'DejaVu Sans', 'Bitstream Vera Sans', 'Computer Modern Sans Serif', 'Lucida Grande', 'Verdana', 'Geneva', 'Lucid', 'Arial', 'Helvetica', 'Avant Garde', sans-serif; text-anchor: start" x="411.953594" y="407.336391" transform="rotate(-0 411.953594 407.336391)">CIE 1931 2°</text>
   </g>
   <g id="line2d_38">
    <path d="M 386.473594 417.508484 
L 395.573594 417.508484 
L 404.673594 417.508484 
" style="fill: none; stroke-dasharray: 6.75,2.7,1.35,2.7; stroke-dashoffset: 0; stroke: #2f8f84; stroke-width: 1.35"/>
   </g>
   <g id="text_23">
    <text style="font: 9.1px 'DejaVu Sans', 'Bitstream Vera Sans', 'Computer Modern Sans Serif', 'Lucida Grande', 'Verdana', 'Geneva', 'Lucid', 'Arial', 'Helvetica', 'Avant Garde', sans-serif; text-anchor: start" x="411.953594" y="420.693484" transform="rotate(-0 411.953594 420.693484)">Judd–Vos 1978 2°</text>
   </g>
  </g>
 </g>
 <defs>
  <clipPath id="p86fa29f4ee">
   <rect x="74.448" y="93.744" width="568.512" height="254.448"/>
  </clipPath>
 </defs>
</svg>
