<?xml version="1.0" encoding="utf-8" standalone="no"?>
<!DOCTYPE svg PUBLIC "-//W3C//DTD SVG 1.1//EN"
  "http://www.w3.org/Graphics/SVG/1.1/DTD/svg11.dtd">
<svg xmlns:xlink="http://www.w3.org/1999/xlink" width="676.8pt" height="446.4pt" viewBox="0 0 676.8 446.4" xmlns="http://www.w3.org/2000/svg" version="1.1">
 <metadata>
  <rdf:RDF xmlns:dc="http://purl.org/dc/elements/1.1/" xmlns:cc="http://creativecommons.org/ns#" xmlns:rdf="http://www.w3.org/1999/02/22-rdf-syntax-ns#">
   <cc:Work>
    <dc:type rdf:resource="http://purl.org/dc/dcmitype/StillImage"/>
    <dc:date>2026-07-20T06:41:54.861746</dc:date>
    <dc:format>image/svg+xml</dc:format>
    <dc:creator>
     <cc:Agent>
      <dc:title>Matplotlib v3.9.4, https://matplotlib.org/</dc:title>
     </cc:Agent>
    </dc:creator>
   </cc:Work>
  </rdf:RDF>
 </metadata>
 <defs>
  <style type="text/css">*{stroke-linejoin: round; stroke-linecap: butt}</style>
 </defs>
 <g id="figure_1">
  <g id="patch_1">
   <path d="M 0 446.4 
L 676.8 446.4 
L 676.8 0 
L 0 0 
z
" style="fill: #ffffff"/>
  </g>
  <g id="axes_1">
   <g id="patch_2">
    <path d="M 74.448 348.192 
L 642.96 348.192 
L 642.96 93.744 
L 74.448 93.744 
z
" style="fill: #ffffff"/>
   </g>
   <g id="patch_3">
    <path d="M 169.2 348.192 
L 358.704 348.192 
L 358.704 93.744 
L 169.2 93.744 
z
" clip-path="url(#p3ef19e20a6)" style="fill: #e7f0ea; opacity: 0.58; stroke: #e7f0ea; stroke-linejoin: miter"/>
   </g>
   <g id="matplotlib.axis_1">
    <g id="xtick_1">
     <g id="line2d_1">
      <path d="M 74.448 348.192 
L 74.448 93.744 
" clip-path="url(#p3ef19e20a6)" style="fill: none; stroke: #dfe5e8; stroke-width: 0.65; stroke-linecap: square"/>
     </g>
     <g id="line2d_2">
      <defs>
       <path id="mdb74b23d2a" d="M 0 0 
L 0 3.5 
" style="stroke: #000000; stroke-width: 0.8"/>
      </defs>
      <g>
       <use xlink:href="#mdb74b23d2a" x="74.448" y="348.192" style="stroke: #000000; stroke-width: 0.8"/>
      </g>
     </g>
     <g id="text_1">
      <text style="font: 10px 'DejaVu Sans', 'Bitstream Vera Sans', 'Computer Modern Sans Serif', 'Lucida Grande', 'Verdana', 'Geneva', 'Lucid', 'Arial', 'Helvetica', 'Avant Garde', sans-serif; text-anchor: middle" x="74.448" y="362.790438" transform="rotate(-0 74.448 362.790438)">0</text>
     </g>
    </g>
    <g id="xtick_2">
     <g id="line2d_3">
      <path d="M 169.2 348.192 
L 169.2 93.744 
" clip-path="url(#p3ef19e20a6)" style="fill: none; stroke: #dfe5e8; stroke-width: 0.65; stroke-linecap: square"/>
     </g>
     <g id="line2d_4">
      <g>
       <use xlink:href="#mdb74b23d2a" x="169.2" y="348.192" style="stroke: #000000; stroke-width: 0.8"/>
      </g>
     </g>
     <g id="text_2">
      <text style="font: 10px 'DejaVu Sans', 'Bitstream Vera Sans', 'Computer Modern Sans Serif', 'Lucida Grande', 'Verdana', 'Geneva', 'Lucid', 'Arial', 'Helvetica', 'Avant Garde', sans-serif; text-anchor: middle" x="169.2" y="362.790438" transform="rotate(-0 169.2 362.790438)">1</text>
     </g>
    </g>
    <g id="xtick_3">
     <g id="line2d_5">
      <path d="M 263.952 348.192 
L 263.952 93.744 
" clip-path="url(#p3ef19e20a6)" style="fill: none; stroke: #dfe5e8; stroke-width: 0.65; stroke-linecap: square"/>
     </g>
     <g id="line2d_6">
      <g>
       <use xlink:href="#mdb74b23d2a" x="263.952" y="348.192" style="stroke: #000000; stroke-width: 0.8"/>
      </g>
     </g>
     <g id="text_3">
      <text style="font: 10px 'DejaVu Sans', 'Bitstream Vera Sans', 'Computer Modern Sans Serif', 'Lucida Grande', 'Verdana', 'Geneva', 'Lucid', 'Arial', 'Helvetica', 'Avant Garde', sans-serif; text-anchor: middle" x="263.952" y="362.790438" transform="rotate(-0 263.952 362.790438)">2</text>
     </g>
    </g>
    <g id="xtick_4">
     <g id="line2d_7">
      <path d="M 358.704 348.192 
L 358.704 93.744 
" clip-path="url(#p3ef19e20a6)" style="fill: none; stroke: #dfe5e8; stroke-width: 0.65; stroke-linecap: square"/>
     </g>
     <g id="line2d_8">
      <g>
       <use xlink:href="#mdb74b23d2a" x="358.704" y="348.192" style="stroke: #000000; stroke-width: 0.8"/>
      </g>
     </g>
     <g id="text_4">
      <text style="font: 10px 'DejaVu Sans', 'Bitstream Vera Sans', 'Computer Modern Sans Serif', 'Lucida Grande', 'Verdana', 'Geneva', 'Lucid', 'Arial', 'Helvetica', 'Avant Garde', sans-serif; text-anchor: middle" x="358.704" y="362.790438" transform="rotate(-0 358.704 362.790438)">3</text>
     </g>
    </g>
    <g id="xtick_5">
     <g id="line2d_9">
      <path d="M 453.456 348.192 
L 453.456 93.744 
" clip-path="url(#p3ef19e20a6)" style="fill: none; stroke: #dfe5e8; stroke-width: 0.65; stroke-linecap: square"/>
     </g>
     <g id="line2d_10">
      <g>
       <use xlink:href="#mdb74b23d2a" x="453.456" y="348.192" style="stroke: #000000; stroke-width: 0.8"/>
      </g>
     </g>
     <g id="text_5">
      <text style="font: 10px 'DejaVu Sans', 'Bitstream Vera Sans', 'Computer Modern Sans Serif', 'Lucida Grande', 'Verdana', 'Geneva', 'Lucid', 'Arial', 'Helvetica', 'Avant Garde', sans-serif; text-anchor: middle" x="453.456" y="362.790438" transform="rotate(-0 453.456 362.790438)">4</text>
     </g>
    </g>
    <g id="xtick_6">
     <g id="line2d_11">
      <path d="M 548.208 348.192 
L 548.208 93.744 
" clip-path="url(#p3ef19e20a6)" style="fill: none; stroke: #dfe5e8; stroke-width: 0.65; stroke-linecap: square"/>
     </g>
     <g id="line2d_12">
      <g>
       <use xlink:href="#mdb74b23d2a" x="548.208" y="348.192" style="stroke: #000000; stroke-width: 0.8"/>
      </g>
     </g>
     <g id="text_6">
      <text style="font: 10px 'DejaVu Sans', 'Bitstream Vera Sans', 'Computer Modern Sans Serif', 'Lucida Grande', 'Verdana', 'Geneva', 'Lucid', 'Arial', 'Helvetica', 'Avant Garde', sans-serif; text-anchor: middle" x="548.208" y="362.790438" transform="rotate(-0 548.208 362.790438)">5</text>
     </g>
    </g>
    <g id="xtick_7">
     <g id="line2d_13">
      <path d="M 642.96 348.192 
L 642.96 93.744 
" clip-path="url(#p3ef19e20a6)" style="fill: none; stroke: #dfe5e8; stroke-width: 0.65; stroke-linecap: square"/>
     </g>
     <g id="line2d_14">
      <g>
       <use xlink:href="#mdb74b23d2a" x="642.96" y="348.192" style="stroke: #000000; stroke-width: 0.8"/>
      </g>
     </g>
     <g id="text_7">
      <text style="font: 10px 'DejaVu Sans', 'Bitstream Vera Sans', 'Computer Modern Sans Serif', 'Lucida Grande', 'Verdana', 'Geneva', 'Lucid', 'Arial', 'Helvetica', 'Avant Garde', sans-serif; text-anchor: middle" x="642.96" y="362.790438" transform="rotate(-0 642.96 362.790438)">6</text>
     </g>
    </g>
    <g id="text_8">
     <text style="font: 10px 'DejaVu Sans', 'Bitstream Vera Sans', 'Computer Modern Sans Serif', 'Lucida Grande', 'Verdana', 'Geneva', 'Lucid', 'Arial', 'Helvetica', 'Avant Garde', sans-serif; text-anchor: middle" x="358.704" y="376.468563" transform="rotate(-0 358.704 376.468563)">sUCS dE threshold</text>
    </g>
   </g>
   <g id="matplotlib.axis_2">
    <g id="ytick_1">
     <g id="line2d_15">
      <path d="M 74.448 348.192 
L 642.96 348.192 
" clip-path="url(#p3ef19e20a6)" style="fill: none; stroke: #dfe5e8; stroke-width: 0.65; stroke-linecap: square"/>
     </g>
     <g id="line2d_16">
      <defs>
       <path id="m84193cf99a" d="M 0 0 
L -3.5 0 
" style="stroke: #000000; stroke-width: 0.8"/>
      </defs>
      <g>
       <use xlink:href="#m84193cf99a" x="74.448" y="348.192" style="stroke: #000000; stroke-width: 0.8"/>
      </g>
     </g>
     <g id="text_9">
      <text style="font: 10px 'DejaVu Sans', 'Bitstream Vera Sans', 'Computer Modern Sans Serif', 'Lucida Grande', 'Verdana', 'Geneva', 'Lucid', 'Arial', 'Helvetica', 'Avant Garde', sans-serif; text-anchor: end" x="67.448" y="351.991219" transform="rotate(-0 67.448 351.991219)">0</text>
     </g>
    </g>
    <g id="ytick_2">
     <g id="line2d_17">
      <path d="M 74.448 297.3024 
L 642.96 297.3024 
" clip-path="url(#p3ef19e20a6)" style="fill: none; stroke: #dfe5e8; stroke-width: 0.65; stroke-linecap: square"/>
     </g>
     <g id="line2d_18">
      <g>
       <use xlink:href="#m84193cf99a" x="74.448" y="297.3024" style="stroke: #000000; stroke-width: 0.8"/>
      </g>
     </g>
     <g id="text_10">
      <text style="font: 10px 'DejaVu Sans', 'Bitstream Vera Sans', 'Computer Modern Sans Serif', 'Lucida Grande', 'Verdana', 'Geneva', 'Lucid', 'Arial', 'Helvetica', 'Avant Garde', sans-serif; text-anchor: end" x="67.448" y="301.101619" transform="rotate(-0 67.448 301.101619)">20</text>
     </g>
    </g>
    <g id="ytick_3">
     <g id="line2d_19">
      <path d="M 74.448 246.4128 
L 642.96 246.4128 
" clip-path="url(#p3ef19e20a6)" style="fill: none; stroke: #dfe5e8; stroke-width: 0.65; stroke-linecap: square"/>
     </g>
     <g id="line2d_20">
      <g>
       <use xlink:href="#m84193cf99a" x="74.448" y="246.4128" style="stroke: #000000; stroke-width: 0.8"/>
      </g>
     </g>
     <g id="text_11">
      <text style="font: 10px 'DejaVu Sans', 'Bitstream Vera Sans', 'Computer Modern Sans Serif', 'Lucida Grande', 'Verdana', 'Geneva', 'Lucid', 'Arial', 'Helvetica', 'Avant Garde', sans-serif; text-anchor: end" x="67.448" y="250.212019" transform="rotate(-0 67.448 250.212019)">40</text>
     </g>
    </g>
    <g id="ytick_4">
     <g id="line2d_21">
      <path d="M 74.448 195.5232 
L 642.96 195.5232 
" clip-path="url(#p3ef19e20a6)" style="fill: none; stroke: #dfe5e8; stroke-width: 0.65; stroke-linecap: square"/>
     </g>
     <g id="line2d_22">
      <g>
       <use xlink:href="#m84193cf99a" x="74.448" y="195.5232" style="stroke: #000000; stroke-width: 0.8"/>
      </g>
     </g>
     <g id="text_12">
      <text style="font: 10px 'DejaVu Sans', 'Bitstream Vera Sans', 'Computer Modern Sans Serif', 'Lucida Grande', 'Verdana', 'Geneva', 'Lucid', 'Arial', 'Helvetica', 'Avant Garde', sans-serif; text-anchor: end" x="67.448" y="199.322419" transform="rotate(-0 67.448 199.322419)">60</text>
     </g>
    </g>
    <g id="ytick_5">
     <g id="line2d_23">
      <path d="M 74.448 144.6336 
L 642.96 144.6336 
" clip-path="url(#p3ef19e20a6)" style="fill: none; stroke: #dfe5e8; stroke-width: 0.65; stroke-linecap: square"/>
     </g>
     <g id="line2d_24">
      <g>
       <use xlink:href="#m84193cf99a" x="74.448" y="144.6336" style="stroke: #000000; stroke-width: 0.8"/>
      </g>
     </g>
     <g id="text_13">
      <text style="font: 10px 'DejaVu Sans', 'Bitstream Vera Sans', 'Computer Modern Sans Serif', 'Lucida Grande', 'Verdana', 'Geneva', 'Lucid', 'Arial', 'Helvetica', 'Avant Garde', sans-serif; text-anchor: end" x="67.448" y="148.432819" transform="rotate(-0 67.448 148.432819)">80</text>
     </g>
    </g>
    <g id="ytick_6">
     <g id="line2d_25">
      <path d="M 74.448 93.744 
L 642.96 93.744 
" clip-path="url(#p3ef19e20a6)" style="fill: none; stroke: #dfe5e8; stroke-width: 0.65; stroke-linecap: square"/>
     </g>
     <g id="line2d_26">
      <g>
       <use xlink:href="#m84193cf99a" x="74.448" y="93.744" style="stroke: #000000; stroke-width: 0.8"/>
      </g>
     </g>
     <g id="text_14">
      <text style="font: 10px 'DejaVu Sans', 'Bitstream Vera Sans', 'Computer Modern Sans Serif', 'Lucida Grande', 'Verdana', 'Geneva', 'Lucid', 'Arial', 'Helvetica', 'Avant Garde', sans-serif; text-anchor: end" x="67.448" y="97.543219" transform="rotate(-0 67.448 97.543219)">100</text>
     </g>
    </g>
    <g id="text_15">
     <text style="font: 10px 'DejaVu Sans', 'Bitstream Vera Sans', 'Computer Modern Sans Serif', 'Lucida Grande', 'Verdana', 'Geneva', 'Lucid', 'Arial', 'Helvetica', 'Avant Garde', sans-serif; text-anchor: middle" x="42.280812" y="220.968" transform="rotate(-90 42.280812 220.968)">observers%</text>
    </g>
   </g>
   <g id="line2d_27">
    <path d="M 74.448 348.192 
L 155.93472 348.192 
L 157.82976 346.560923 
L 159.7248 346.560923 
L 163.51488 342.173889 
L 169.2 342.173889 
L 171.09504 340.542812 
L 176.78016 340.542812 
L 180.57024 337.280658 
L 182.46528 335.087141 
L 186.25536 335.087141 
L 190.04544 330.700106 
L 191.94048 330.700106 
L 193.83552 329.069029 
L 201.41568 329.069029 
L 207.1008 324.175798 
L 208.99584 324.175798 
L 210.89088 320.913645 
L 212.78592 315.457973 
L 214.68096 313.826897 
L 218.47104 313.826897 
L 220.36608 312.19582 
L 224.15616 312.19582 
L 226.0512 310.564743 
L 227.94624 307.302589 
L 229.84128 305.671512 
L 231.73632 305.671512 
L 235.5264 302.409358 
L 237.42144 302.409358 
L 239.31648 299.147204 
L 241.21152 296.953687 
L 243.10656 293.691533 
L 245.0016 293.691533 
L 246.89664 292.060456 
L 248.79168 287.167225 
L 250.68672 285.536149 
L 254.4768 285.536149 
L 256.37184 283.905072 
L 260.16192 283.905072 
L 262.05696 282.273995 
L 263.952 282.273995 
L 265.84704 280.642918 
L 267.74208 276.818324 
L 269.63712 273.55617 
L 271.53216 273.55617 
L 273.4272 271.362653 
L 275.32224 268.100499 
L 281.00736 268.100499 
L 282.9024 264.838345 
L 288.58752 264.838345 
L 292.3776 261.576191 
L 301.8528 261.576191 
L 303.74784 259.382674 
L 307.53792 259.382674 
L 309.43296 256.12052 
L 311.328 254.489443 
L 313.22304 254.489443 
L 315.11808 252.858366 
L 317.01312 252.858366 
L 320.8032 249.596212 
L 322.69824 247.402695 
L 324.59328 247.402695 
L 326.48832 245.771618 
L 328.38336 240.878387 
L 332.17344 237.616233 
L 334.06848 233.791639 
L 341.64864 233.791639 
L 343.54368 230.529485 
L 345.43872 228.898408 
L 347.33376 228.898408 
L 349.2288 225.073814 
L 351.12384 225.073814 
L 353.01888 222.880297 
L 368.1792 222.880297 
L 370.07424 220.68678 
L 377.6544 220.68678 
L 379.54944 219.055703 
L 381.44448 219.055703 
L 383.33952 216.862186 
L 387.1296 216.862186 
L 389.02464 215.231109 
L 390.91968 213.037592 
L 394.70976 213.037592 
L 396.6048 209.212997 
L 398.49984 209.212997 
L 400.39488 207.58192 
L 402.28992 203.757326 
L 413.66016 203.757326 
L 415.5552 199.932732 
L 417.45024 198.301655 
L 434.5056 198.301655 
L 436.40064 194.477061 
L 445.87584 194.477061 
L 447.77088 192.845984 
L 449.66592 192.845984 
L 451.56096 191.214907 
L 453.456 191.214907 
L 455.35104 189.58383 
L 459.14112 185.196796 
L 461.03616 183.565719 
L 470.51136 183.565719 
L 472.4064 181.934642 
L 483.77664 181.934642 
L 487.56672 177.547607 
L 495.14688 177.547607 
L 497.04192 175.916531 
L 519.7824 175.916531 
L 521.67744 174.285454 
L 523.57248 174.285454 
L 525.46752 172.654377 
L 533.04768 172.654377 
L 534.94272 170.460859 
L 540.62784 170.460859 
L 542.52288 168.267342 
L 572.84352 168.267342 
L 574.73856 163.880308 
L 584.21376 163.880308 
L 586.1088 162.249231 
L 588.00384 162.249231 
L 589.89888 160.055714 
L 606.95424 160.055714 
L 608.84928 157.862196 
L 624.0096 157.862196 
L 625.90464 155.668679 
L 627.79968 155.668679 
L 629.69472 149.088127 
L 642.96 149.088127 
L 642.96 149.088127 
" clip-path="url(#p3ef19e20a6)" style="fill: none; stroke: #252525; stroke-width: 2.5; stroke-linecap: square"/>
   </g>
   <g id="line2d_28">
    <path d="M 74.448 348.192 
L 119.92896 348.192 
L 121.824 345.998483 
L 178.6752 345.998483 
L 180.57024 343.804966 
L 195.73056 343.804966 
L 197.6256 341.611448 
L 214.68096 341.611448 
L 216.576 339.417931 
L 245.0016 339.417931 
L 246.89664 337.224414 
L 248.79168 335.593337 
L 252.58176 335.593337 
L 254.4768 333.96226 
L 256.37184 329.575225 
L 258.26688 327.944149 
L 262.05696 327.944149 
L 263.952 323.557114 
L 265.84704 321.363597 
L 267.74208 321.363597 
L 269.63712 317.539003 
L 271.53216 317.539003 
L 273.4272 315.907926 
L 275.32224 313.714408 
L 282.9024 313.714408 
L 284.79744 312.083332 
L 286.69248 308.258737 
L 288.58752 308.258737 
L 290.48256 306.06522 
L 298.06272 306.06522 
L 299.95776 304.434143 
L 301.8528 302.240626 
L 303.74784 302.240626 
L 305.64288 296.784955 
L 307.53792 295.153878 
L 309.43296 292.960361 
L 313.22304 292.960361 
L 315.11808 290.766844 
L 330.2784 290.766844 
L 332.17344 289.135767 
L 334.06848 289.135767 
L 335.96352 286.942249 
L 341.64864 286.942249 
L 343.54368 283.117655 
L 349.2288 283.117655 
L 353.01888 279.855501 
L 354.91392 276.030907 
L 356.80896 276.030907 
L 358.704 274.39983 
L 360.59904 274.39983 
L 362.49408 270.575236 
L 364.38912 268.944159 
L 370.07424 268.944159 
L 371.96928 265.682005 
L 375.75936 265.682005 
L 377.6544 264.050928 
L 383.33952 264.050928 
L 385.23456 262.419851 
L 387.1296 262.419851 
L 389.02464 259.157698 
L 390.91968 256.96418 
L 392.81472 255.333103 
L 394.70976 255.333103 
L 396.6048 249.877432 
L 406.08 249.877432 
L 407.97504 246.052838 
L 411.76512 242.790684 
L 415.5552 236.266377 
L 417.45024 234.6353 
L 419.34528 232.441782 
L 421.24032 230.810706 
L 423.13536 226.423671 
L 425.0304 226.423671 
L 426.92544 224.792594 
L 428.82048 224.792594 
L 430.71552 220.968 
L 434.5056 220.968 
L 440.19072 209.494218 
L 442.08576 209.494218 
L 443.9808 206.232064 
L 445.87584 204.600987 
L 451.56096 204.600987 
L 453.456 202.96991 
L 455.35104 200.776393 
L 457.24608 200.776393 
L 462.9312 195.883162 
L 470.51136 195.883162 
L 472.4064 194.252085 
L 474.30144 190.427491 
L 478.09152 190.427491 
L 479.98656 187.165337 
L 481.8816 185.53426 
L 495.14688 185.53426 
L 497.04192 183.340743 
L 498.93696 181.709666 
L 500.832 179.516149 
L 502.72704 177.885072 
L 504.62208 177.885072 
L 506.51712 175.691554 
L 510.3072 175.691554 
L 512.20224 174.060477 
L 517.88736 174.060477 
L 519.7824 171.86696 
L 523.57248 168.604806 
L 525.46752 168.604806 
L 527.36256 166.973729 
L 531.15264 166.973729 
L 533.04768 164.780212 
L 534.94272 163.149135 
L 538.7328 163.149135 
L 540.62784 161.518058 
L 542.52288 161.518058 
L 544.41792 158.255905 
L 550.10304 158.255905 
L 551.99808 156.624828 
L 553.89312 153.362674 
L 557.6832 153.362674 
L 559.57824 151.169156 
L 567.1584 151.169156 
L 569.05344 147.907003 
L 576.6336 147.907003 
L 578.52864 146.275926 
L 580.42368 144.082408 
L 593.68896 144.082408 
L 595.584 141.888891 
L 618.32448 141.888891 
L 620.21952 139.695374 
L 622.11456 138.064297 
L 624.0096 133.677263 
L 635.37984 133.677263 
L 637.27488 132.046186 
L 639.16992 132.046186 
L 641.06496 130.415109 
L 642.96 128.221592 
L 642.96 128.221592 
" clip-path="url(#p3ef19e20a6)" style="fill: none; stroke: #3b83b4; stroke-width: 1.35; stroke-linecap: square"/>
   </g>
   <g id="line2d_29">
    <path d="M 74.448 348.192 
L 135.08928 348.192 
L 136.98432 346.560923 
L 144.56448 346.560923 
L 146.45952 344.929846 
L 155.93472 344.929846 
L 159.7248 341.667692 
L 163.51488 341.667692 
L 165.40992 340.036615 
L 167.30496 340.036615 
L 169.2 338.405538 
L 171.09504 338.405538 
L 172.99008 336.774462 
L 174.88512 336.774462 
L 176.78016 333.512308 
L 178.6752 329.687714 
L 182.46528 329.687714 
L 184.36032 326.42556 
L 186.25536 326.42556 
L 188.1504 324.794483 
L 205.20576 324.794483 
L 207.1008 323.163406 
L 212.78592 323.163406 
L 214.68096 321.532329 
L 226.0512 321.532329 
L 227.94624 319.901252 
L 231.73632 319.901252 
L 239.31648 313.376944 
L 241.21152 310.11479 
L 246.89664 310.11479 
L 248.79168 308.483714 
L 252.58176 308.483714 
L 254.4768 303.590483 
L 256.37184 300.328329 
L 258.26688 300.328329 
L 260.16192 298.697252 
L 262.05696 296.503735 
L 265.84704 296.503735 
L 267.74208 294.872658 
L 275.32224 294.872658 
L 281.00736 289.979427 
L 284.79744 289.979427 
L 286.69248 287.78591 
L 290.48256 287.78591 
L 292.3776 286.154833 
L 294.27264 283.961316 
L 296.16768 282.330239 
L 299.95776 282.330239 
L 301.8528 278.505645 
L 303.74784 273.049973 
L 317.01312 273.049973 
L 318.90816 270.856456 
L 320.8032 269.225379 
L 322.69824 269.225379 
L 324.59328 267.594302 
L 326.48832 264.332149 
L 330.2784 261.069995 
L 335.96352 261.069995 
L 337.85856 258.876477 
L 341.64864 258.876477 
L 343.54368 256.68296 
L 345.43872 256.68296 
L 347.33376 254.489443 
L 349.2288 252.858366 
L 354.91392 252.858366 
L 356.80896 251.227289 
L 360.59904 251.227289 
L 364.38912 247.965135 
L 368.1792 247.965135 
L 370.07424 246.334058 
L 381.44448 246.334058 
L 385.23456 243.071905 
L 392.81472 243.071905 
L 396.6048 239.809751 
L 400.39488 239.809751 
L 402.28992 238.178674 
L 421.24032 238.178674 
L 423.13536 234.91652 
L 428.82048 234.91652 
L 430.71552 233.285443 
L 432.61056 229.460849 
L 440.19072 229.460849 
L 442.08576 227.829772 
L 443.9808 224.567618 
L 445.87584 222.936541 
L 449.66592 222.936541 
L 451.56096 221.305464 
L 461.03616 221.305464 
L 462.9312 219.674387 
L 464.82624 219.674387 
L 466.72128 215.287353 
L 476.19648 215.287353 
L 478.09152 213.093836 
L 489.46176 213.093836 
L 491.3568 211.462759 
L 493.25184 211.462759 
L 495.14688 208.200605 
L 500.832 208.200605 
L 502.72704 206.007088 
L 504.62208 200.551416 
L 506.51712 198.357899 
L 510.3072 198.357899 
L 512.20224 196.726822 
L 515.99232 196.726822 
L 517.88736 194.533305 
L 525.46752 194.533305 
L 527.36256 192.339788 
L 531.15264 192.339788 
L 533.04768 190.708711 
L 551.99808 190.708711 
L 553.89312 188.515194 
L 559.57824 188.515194 
L 563.36832 184.128159 
L 569.05344 184.128159 
L 570.94848 182.497082 
L 572.84352 180.303565 
L 578.52864 180.303565 
L 580.42368 178.672488 
L 595.584 178.672488 
L 597.47904 175.410334 
L 612.63936 175.410334 
L 614.5344 173.216817 
L 624.0096 173.216817 
L 625.90464 171.0233 
L 642.96 171.0233 
L 642.96 171.0233 
" clip-path="url(#p3ef19e20a6)" style="fill: none; stroke-dasharray: 4.995,2.16; stroke-dashoffset: 0; stroke: #c38a19; stroke-width: 1.35"/>
   </g>
   <g id="line2d_30">
    <path d="M 74.448 348.192 
L 165.40992 348.192 
L 167.30496 346.560923 
L 169.2 346.560923 
L 171.09504 344.929846 
L 172.99008 342.736329 
L 178.6752 342.736329 
L 184.36032 337.843098 
L 195.73056 337.843098 
L 197.6256 336.212021 
L 203.31072 336.212021 
L 205.20576 334.580944 
L 207.1008 334.580944 
L 208.99584 331.31879 
L 210.89088 329.125273 
L 212.78592 329.125273 
L 214.68096 327.494196 
L 218.47104 320.969889 
L 220.36608 320.969889 
L 222.26112 319.338812 
L 226.0512 319.338812 
L 227.94624 317.707735 
L 231.73632 317.707735 
L 233.63136 316.076658 
L 235.5264 316.076658 
L 241.21152 311.183427 
L 252.58176 311.183427 
L 254.4768 308.98991 
L 256.37184 302.971798 
L 262.05696 302.971798 
L 263.952 301.340721 
L 265.84704 299.147204 
L 267.74208 299.147204 
L 269.63712 297.516127 
L 271.53216 297.516127 
L 273.4272 295.32261 
L 277.21728 292.060456 
L 281.00736 292.060456 
L 282.9024 290.429379 
L 284.79744 290.429379 
L 286.69248 288.798302 
L 288.58752 288.798302 
L 292.3776 285.536149 
L 294.27264 280.642918 
L 298.06272 277.380764 
L 299.95776 271.925093 
L 301.8528 271.925093 
L 303.74784 267.538058 
L 305.64288 265.906981 
L 309.43296 265.906981 
L 311.328 264.275905 
L 317.01312 264.275905 
L 318.90816 262.644828 
L 320.8032 262.644828 
L 322.69824 261.013751 
L 324.59328 261.013751 
L 326.48832 257.751597 
L 328.38336 257.751597 
L 334.06848 252.858366 
L 341.64864 252.858366 
L 343.54368 251.227289 
L 345.43872 251.227289 
L 349.2288 247.965135 
L 360.59904 247.965135 
L 362.49408 246.334058 
L 368.1792 246.334058 
L 373.86432 241.440828 
L 379.54944 241.440828 
L 381.44448 239.809751 
L 392.81472 239.809751 
L 394.70976 237.616233 
L 396.6048 237.616233 
L 398.49984 235.985156 
L 400.39488 235.985156 
L 402.28992 234.35408 
L 406.08 234.35408 
L 407.97504 232.723003 
L 409.87008 230.529485 
L 417.45024 230.529485 
L 419.34528 228.898408 
L 423.13536 228.898408 
L 425.0304 225.636255 
L 426.92544 225.636255 
L 428.82048 223.442737 
L 430.71552 223.442737 
L 432.61056 221.81166 
L 434.5056 221.81166 
L 436.40064 219.618143 
L 438.29568 217.987066 
L 440.19072 214.724912 
L 459.14112 214.724912 
L 461.03616 212.531395 
L 464.82624 212.531395 
L 466.72128 208.706801 
L 487.56672 208.706801 
L 489.46176 206.513284 
L 491.3568 202.68869 
L 498.93696 202.68869 
L 500.832 198.864095 
L 502.72704 198.864095 
L 504.62208 196.670578 
L 512.20224 196.670578 
L 514.09728 193.408424 
L 515.99232 191.214907 
L 517.88736 191.214907 
L 519.7824 189.58383 
L 521.67744 187.390313 
L 523.57248 187.390313 
L 525.46752 185.759236 
L 536.83776 185.759236 
L 538.7328 183.565719 
L 540.62784 181.934642 
L 561.47328 181.934642 
L 563.36832 179.741125 
L 572.84352 179.741125 
L 574.73856 178.110048 
L 584.21376 178.110048 
L 586.1088 175.916531 
L 589.89888 175.916531 
L 591.79392 172.654377 
L 593.68896 172.654377 
L 595.584 171.0233 
L 610.74432 171.0233 
L 612.63936 168.829782 
L 618.32448 168.829782 
L 620.21952 166.636265 
L 642.96 166.636265 
L 642.96 166.636265 
" clip-path="url(#p3ef19e20a6)" style="fill: none; stroke-dasharray: 1.35,2.2275; stroke-dashoffset: 0; stroke: #7d8a92; stroke-width: 1.35"/>
   </g>
   <g id="line2d_31">
    <path d="M 74.448 348.192 
L 199.52064 348.192 
L 201.41568 345.998483 
L 256.37184 345.998483 
L 258.26688 344.367406 
L 277.21728 344.367406 
L 279.11232 342.173889 
L 281.00736 342.173889 
L 282.9024 339.980371 
L 294.27264 339.980371 
L 296.16768 338.349294 
L 301.8528 338.349294 
L 303.74784 335.087141 
L 305.64288 335.087141 
L 307.53792 333.456064 
L 334.06848 333.456064 
L 335.96352 329.631469 
L 345.43872 329.631469 
L 347.33376 328.000393 
L 349.2288 328.000393 
L 353.01888 324.738239 
L 358.704 324.738239 
L 360.59904 321.476085 
L 364.38912 318.213931 
L 368.1792 318.213931 
L 370.07424 316.582854 
L 373.86432 316.582854 
L 377.6544 313.3207 
L 381.44448 313.3207 
L 383.33952 310.058546 
L 385.23456 310.058546 
L 387.1296 308.427469 
L 392.81472 308.427469 
L 394.70976 306.796393 
L 396.6048 306.796393 
L 404.18496 300.272085 
L 406.08 300.272085 
L 407.97504 298.641008 
L 409.87008 298.641008 
L 411.76512 296.447491 
L 413.66016 296.447491 
L 415.5552 292.622897 
L 419.34528 292.622897 
L 421.24032 290.99182 
L 425.0304 290.99182 
L 426.92544 288.798302 
L 428.82048 287.167225 
L 432.61056 287.167225 
L 434.5056 285.536149 
L 436.40064 283.342631 
L 438.29568 283.342631 
L 443.9808 278.449401 
L 445.87584 276.255883 
L 447.77088 274.624806 
L 449.66592 271.362653 
L 451.56096 271.362653 
L 453.456 265.906981 
L 455.35104 264.275905 
L 457.24608 264.275905 
L 464.82624 257.751597 
L 468.61632 257.751597 
L 472.4064 254.489443 
L 474.30144 254.489443 
L 476.19648 252.858366 
L 478.09152 252.858366 
L 479.98656 251.227289 
L 481.8816 251.227289 
L 483.77664 249.596212 
L 487.56672 249.596212 
L 489.46176 245.771618 
L 491.3568 245.771618 
L 493.25184 242.509464 
L 495.14688 240.315947 
L 497.04192 238.68487 
L 498.93696 238.68487 
L 502.72704 235.422716 
L 506.51712 235.422716 
L 508.41216 231.598122 
L 519.7824 231.598122 
L 523.57248 228.335968 
L 525.46752 228.335968 
L 527.36256 226.704891 
L 529.2576 222.880297 
L 533.04768 219.618143 
L 538.7328 219.618143 
L 540.62784 217.987066 
L 544.41792 217.987066 
L 546.31296 216.355989 
L 555.78816 216.355989 
L 557.6832 214.724912 
L 559.57824 214.724912 
L 561.47328 213.093836 
L 563.36832 210.900318 
L 569.05344 210.900318 
L 570.94848 207.075724 
L 574.73856 207.075724 
L 576.6336 205.444647 
L 578.52864 205.444647 
L 580.42368 203.81357 
L 582.31872 201.620053 
L 584.21376 197.795459 
L 586.1088 197.795459 
L 588.00384 193.970865 
L 599.37408 193.970865 
L 601.26912 191.777347 
L 612.63936 191.777347 
L 614.5344 189.58383 
L 616.42944 189.58383 
L 618.32448 187.952753 
L 625.90464 187.952753 
L 627.79968 185.759236 
L 629.69472 185.759236 
L 631.58976 183.565719 
L 635.37984 183.565719 
L 637.27488 181.934642 
L 642.96 181.934642 
L 642.96 181.934642 
" clip-path="url(#p3ef19e20a6)" style="fill: none; stroke-dasharray: 8.64,2.16,1.35,2.16; stroke-dashoffset: 0; stroke: #d0526a; stroke-width: 1.35"/>
   </g>
   <g id="line2d_32">
    <path d="M 74.448 348.192 
L 201.41568 348.192 
L 203.31072 345.998483 
L 205.20576 345.998483 
L 210.89088 339.417931 
L 216.576 339.417931 
L 218.47104 337.224414 
L 224.15616 337.224414 
L 226.0512 335.030897 
L 229.84128 335.030897 
L 233.63136 330.643862 
L 254.4768 330.643862 
L 256.37184 326.256828 
L 262.05696 326.256828 
L 263.952 324.06331 
L 265.84704 324.06331 
L 267.74208 321.869793 
L 286.69248 321.869793 
L 290.48256 317.482759 
L 292.3776 317.482759 
L 294.27264 313.095724 
L 301.8528 313.095724 
L 303.74784 310.902207 
L 318.90816 310.902207 
L 320.8032 308.70869 
L 322.69824 308.70869 
L 324.59328 306.515172 
L 345.43872 306.515172 
L 347.33376 304.321655 
L 358.704 304.321655 
L 364.38912 297.741103 
L 373.86432 297.741103 
L 375.75936 295.547586 
L 377.6544 295.547586 
L 379.54944 291.160552 
L 383.33952 291.160552 
L 385.23456 288.967034 
L 394.70976 288.967034 
L 396.6048 286.773517 
L 402.28992 286.773517 
L 404.18496 284.58 
L 434.5056 284.58 
L 436.40064 282.386483 
L 438.29568 282.386483 
L 440.19072 280.192966 
L 457.24608 280.192966 
L 459.14112 276.368371 
L 487.56672 276.368371 
L 491.3568 267.594302 
L 493.25184 267.594302 
L 497.04192 263.207268 
L 498.93696 263.207268 
L 500.832 261.013751 
L 502.72704 259.382674 
L 529.2576 259.382674 
L 531.15264 257.751597 
L 538.7328 257.751597 
L 542.52288 254.489443 
L 544.41792 254.489443 
L 546.31296 252.295926 
L 551.99808 252.295926 
L 553.89312 250.664849 
L 557.6832 250.664849 
L 559.57824 249.033772 
L 563.36832 249.033772 
L 565.26336 247.402695 
L 567.1584 247.402695 
L 569.05344 245.771618 
L 570.94848 242.509464 
L 572.84352 240.878387 
L 576.6336 240.878387 
L 580.42368 237.616233 
L 584.21376 237.616233 
L 586.1088 235.985156 
L 591.79392 235.985156 
L 593.68896 234.35408 
L 597.47904 234.35408 
L 599.37408 232.723003 
L 601.26912 232.723003 
L 606.95424 227.829772 
L 612.63936 227.829772 
L 614.5344 226.198695 
L 624.0096 226.198695 
L 625.90464 224.567618 
L 639.16992 224.567618 
L 642.96 220.180584 
L 642.96 220.180584 
" clip-path="url(#p3ef19e20a6)" style="fill: none; stroke-dasharray: 6.75,2.7,1.35,2.7; stroke-dashoffset: 0; stroke: #2f8f84; stroke-width: 1.35"/>
   </g>
   <g id="patch_4">
    <path d="M 74.448 348.192 
L 74.448 93.744 
" style="fill: none; stroke: #000000; stroke-width: 0.8; stroke-linejoin: miter; stroke-linecap: square"/>
   </g>
   <g id="patch_5">
    <path d="M 74.448 348.192 
L 642.96 348.192 
" style="fill: none; stroke: #000000; stroke-width: 0.8; stroke-linejoin: miter; stroke-linecap: square"/>
   </g>
  </g>
  <g id="text_16">
   <text style="font: 18px 'DejaVu Sans', 'Bitstream Vera Sans', 'Computer Modern Sans Serif', 'Lucida Grande', 'Verdana', 'Geneva', 'Lucid', 'Arial', 'Helvetica', 'Avant Garde', sans-serif; text-anchor: start" x="74.448" y="38.229188" transform="rotate(-0 74.448 38.229188)">D50 Direct</text>
  </g>
  <g id="text_17">
   <text style="fill: #66747c; font: 10px 'DejaVu Sans', 'Bitstream Vera Sans', 'Computer Modern Sans Serif', 'Lucida Grande', 'Verdana', 'Geneva', 'Lucid', 'Arial', 'Helvetica', 'Avant Garde', sans-serif; text-anchor: start" x="74.448" y="64.728" transform="rotate(-0 74.448 64.728)">All devices</text>
  </g>
  <g id="legend_1">
   <g id="line2d_33">
    <path d="M 185.17875 404.151391 
L 194.27875 404.151391 
L 203.37875 404.151391 
" style="fill: none; stroke: #252525; stroke-width: 2.5; stroke-linecap: square"/>
   </g>
   <g id="text_18">
    <text style="font: 9.1px 'DejaVu Sans', 'Bitstream Vera Sans', 'Computer Modern Sans Serif', 'Lucida Grande', 'Verdana', 'Geneva', 'Lucid', 'Arial', 'Helvetica', 'Avant Garde', sans-serif; text-anchor: start" x="210.65875" y="407.336391" transform="rotate(-0 210.65875 407.336391)">Potera CMF</text>
   </g>
   <g id="line2d_34">
    <path d="M 185.17875 417.508484 
L 194.27875 417.508484 
L 203.37875 417.508484 
" style="fill: none; stroke: #3b83b4; stroke-width: 1.35; stroke-linecap: square"/>
   </g>
   <g id="text_19">
    <text style="font: 9.1px 'DejaVu Sans', 'Bitstream Vera Sans', 'Computer Modern Sans Serif', 'Lucida Grande', 'Verdana', 'Geneva', 'Lucid', 'Arial', 'Helvetica', 'Avant Garde', sans-serif; text-anchor: start" x="210.65875" y="420.693484" transform="rotate(-0 210.65875 420.693484)">CIE 2015 2°</text>
   </g>
   <g id="line2d_35">
    <path d="M 282.931234 404.151391 
L 292.031234 404.151391 
L 301.131234 404.151391 
" style="fill: none; stroke-dasharray: 4.995,2.16; stroke-dashoffset: 0; stroke: #c38a19; stroke-width: 1.35"/>
   </g>
   <g id="text_20">
    <text style="font: 9.1px 'DejaVu Sans', 'Bitstream Vera Sans', 'Computer Modern Sans Serif', 'Lucida Grande', 'Verdana', 'Geneva', 'Lucid', 'Arial', 'Helvetica', 'Avant Garde', sans-serif; text-anchor: start" x="308.411234" y="407.336391" transform="rotate(-0 308.411234 407.336391)">CIE 2015 10°</text>
   </g>
   <g id="line2d_36">
    <path d="M 282.931234 417.508484 
L 292.031234 417.508484 
L 301.131234 417.508484 
" style="fill: none; stroke-dasharray: 1.35,2.2275; stroke-dashoffset: 0; stroke: #7d8a92; stroke-width: 1.35"/>
   </g>
   <g id="text_21">
    <text style="font: 9.1px 'DejaVu Sans', 'Bitstream Vera Sans', 'Computer Modern Sans Serif', 'Lucida Grande', 'Verdana', 'Geneva', 'Lucid', 'Arial', 'Helvetica', 'Avant Garde', sans-serif; text-anchor: start" x="308.411234" y="420.693484" transform="rotate(-0 308.411234 420.693484)">CIE 1964 10°</text>
   </g>
   <g id="line2d_37">
    <path d="M 386.473594 404.151391 
L 395.573594 404.151391 
L 404.673594 404.151391 
" style="fill: none; stroke-dasharray: 8.64,2.16,1.35,2.16; stroke-dashoffset: 0; stroke: #d0526a; stroke-width: 1.35"/>
   </g>
   <g id="text_22">
    <text style="font: 9.1px 'DejaVu Sans', 'Bitstream Vera Sans', 'Computer Modern Sans Serif', 'Lucida Grande', 'Verdana', 'Geneva', 'Lucid', 'Arial', 'Helvetica', 'Avant Garde', sans-serif; text-anchor: start" x="411.953594" y="407.336391" transform="rotate(-0 411.953594 407.336391)">CIE 1931 2°</text>
   </g>
   <g id="line2d_38">
    <path d="M 386.473594 417.508484 
L 395.573594 417.508484 
L 404.673594 417.508484 
" style="fill: none; stroke-dasharray: 6.75,2.7,1.35,2.7; stroke-dashoffset: 0; stroke: #2f8f84; stroke-width: 1.35"/>
   </g>
   <g id="text_23">
    <text style="font: 9.1px 'DejaVu Sans', 'Bitstream Vera Sans', 'Computer Modern Sans Serif', 'Lucida Grande', 'Verdana', 'Geneva', 'Lucid', 'Arial', 'Helvetica', 'Avant Garde', sans-serif; text-anchor: start" x="411.953594" y="420.693484" transform="rotate(-0 411.953594 420.693484)">Judd–Vos 1978 2°</text>
   </g>
  </g>
 </g>
 <defs>
  <clipPath id="p3ef19e20a6">
   <rect x="74.448" y="93.744" width="568.512" height="254.448"/>
  </clipPath>
 </defs>
</svg>
