<?xml version="1.0" encoding="utf-8" standalone="no"?>
<!DOCTYPE svg PUBLIC "-//W3C//DTD SVG 1.1//EN"
  "http://www.w3.org/Graphics/SVG/1.1/DTD/svg11.dtd">
<svg xmlns:xlink="http://www.w3.org/1999/xlink" width="676.8pt" height="446.4pt" viewBox="0 0 676.8 446.4" xmlns="http://www.w3.org/2000/svg" version="1.1">
 <metadata>
  <rdf:RDF xmlns:dc="http://purl.org/dc/elements/1.1/" xmlns:cc="http://creativecommons.org/ns#" xmlns:rdf="http://www.w3.org/1999/02/22-rdf-syntax-ns#">
   <cc:Work>
    <dc:type rdf:resource="http://purl.org/dc/dcmitype/StillImage"/>
    <dc:date>2026-07-20T06:41:54.955704</dc:date>
    <dc:format>image/svg+xml</dc:format>
    <dc:creator>
     <cc:Agent>
      <dc:title>Matplotlib v3.9.4, https://matplotlib.org/</dc:title>
     </cc:Agent>
    </dc:creator>
   </cc:Work>
  </rdf:RDF>
 </metadata>
 <defs>
  <style type="text/css">*{stroke-linejoin: round; stroke-linecap: butt}</style>
 </defs>
 <g id="figure_1">
  <g id="patch_1">
   <path d="M 0 446.4 
L 676.8 446.4 
L 676.8 0 
L 0 0 
z
" style="fill: #ffffff"/>
  </g>
  <g id="axes_1">
   <g id="patch_2">
    <path d="M 74.448 348.192 
L 642.96 348.192 
L 642.96 93.744 
L 74.448 93.744 
z
" style="fill: #ffffff"/>
   </g>
   <g id="patch_3">
    <path d="M 169.2 348.192 
L 358.704 348.192 
L 358.704 93.744 
L 169.2 93.744 
z
" clip-path="url(#pb513b1fd83)" style="fill: #e7f0ea; opacity: 0.58; stroke: #e7f0ea; stroke-linejoin: miter"/>
   </g>
   <g id="matplotlib.axis_1">
    <g id="xtick_1">
     <g id="line2d_1">
      <path d="M 74.448 348.192 
L 74.448 93.744 
" clip-path="url(#pb513b1fd83)" style="fill: none; stroke: #dfe5e8; stroke-width: 0.65; stroke-linecap: square"/>
     </g>
     <g id="line2d_2">
      <defs>
       <path id="mf51ec4f0b2" d="M 0 0 
L 0 3.5 
" style="stroke: #000000; stroke-width: 0.8"/>
      </defs>
      <g>
       <use xlink:href="#mf51ec4f0b2" x="74.448" y="348.192" style="stroke: #000000; stroke-width: 0.8"/>
      </g>
     </g>
     <g id="text_1">
      <text style="font: 10px 'DejaVu Sans', 'Bitstream Vera Sans', 'Computer Modern Sans Serif', 'Lucida Grande', 'Verdana', 'Geneva', 'Lucid', 'Arial', 'Helvetica', 'Avant Garde', sans-serif; text-anchor: middle" x="74.448" y="362.790438" transform="rotate(-0 74.448 362.790438)">0</text>
     </g>
    </g>
    <g id="xtick_2">
     <g id="line2d_3">
      <path d="M 169.2 348.192 
L 169.2 93.744 
" clip-path="url(#pb513b1fd83)" style="fill: none; stroke: #dfe5e8; stroke-width: 0.65; stroke-linecap: square"/>
     </g>
     <g id="line2d_4">
      <g>
       <use xlink:href="#mf51ec4f0b2" x="169.2" y="348.192" style="stroke: #000000; stroke-width: 0.8"/>
      </g>
     </g>
     <g id="text_2">
      <text style="font: 10px 'DejaVu Sans', 'Bitstream Vera Sans', 'Computer Modern Sans Serif', 'Lucida Grande', 'Verdana', 'Geneva', 'Lucid', 'Arial', 'Helvetica', 'Avant Garde', sans-serif; text-anchor: middle" x="169.2" y="362.790438" transform="rotate(-0 169.2 362.790438)">1</text>
     </g>
    </g>
    <g id="xtick_3">
     <g id="line2d_5">
      <path d="M 263.952 348.192 
L 263.952 93.744 
" clip-path="url(#pb513b1fd83)" style="fill: none; stroke: #dfe5e8; stroke-width: 0.65; stroke-linecap: square"/>
     </g>
     <g id="line2d_6">
      <g>
       <use xlink:href="#mf51ec4f0b2" x="263.952" y="348.192" style="stroke: #000000; stroke-width: 0.8"/>
      </g>
     </g>
     <g id="text_3">
      <text style="font: 10px 'DejaVu Sans', 'Bitstream Vera Sans', 'Computer Modern Sans Serif', 'Lucida Grande', 'Verdana', 'Geneva', 'Lucid', 'Arial', 'Helvetica', 'Avant Garde', sans-serif; text-anchor: middle" x="263.952" y="362.790438" transform="rotate(-0 263.952 362.790438)">2</text>
     </g>
    </g>
    <g id="xtick_4">
     <g id="line2d_7">
      <path d="M 358.704 348.192 
L 358.704 93.744 
" clip-path="url(#pb513b1fd83)" style="fill: none; stroke: #dfe5e8; stroke-width: 0.65; stroke-linecap: square"/>
     </g>
     <g id="line2d_8">
      <g>
       <use xlink:href="#mf51ec4f0b2" x="358.704" y="348.192" style="stroke: #000000; stroke-width: 0.8"/>
      </g>
     </g>
     <g id="text_4">
      <text style="font: 10px 'DejaVu Sans', 'Bitstream Vera Sans', 'Computer Modern Sans Serif', 'Lucida Grande', 'Verdana', 'Geneva', 'Lucid', 'Arial', 'Helvetica', 'Avant Garde', sans-serif; text-anchor: middle" x="358.704" y="362.790438" transform="rotate(-0 358.704 362.790438)">3</text>
     </g>
    </g>
    <g id="xtick_5">
     <g id="line2d_9">
      <path d="M 453.456 348.192 
L 453.456 93.744 
" clip-path="url(#pb513b1fd83)" style="fill: none; stroke: #dfe5e8; stroke-width: 0.65; stroke-linecap: square"/>
     </g>
     <g id="line2d_10">
      <g>
       <use xlink:href="#mf51ec4f0b2" x="453.456" y="348.192" style="stroke: #000000; stroke-width: 0.8"/>
      </g>
     </g>
     <g id="text_5">
      <text style="font: 10px 'DejaVu Sans', 'Bitstream Vera Sans', 'Computer Modern Sans Serif', 'Lucida Grande', 'Verdana', 'Geneva', 'Lucid', 'Arial', 'Helvetica', 'Avant Garde', sans-serif; text-anchor: middle" x="453.456" y="362.790438" transform="rotate(-0 453.456 362.790438)">4</text>
     </g>
    </g>
    <g id="xtick_6">
     <g id="line2d_11">
      <path d="M 548.208 348.192 
L 548.208 93.744 
" clip-path="url(#pb513b1fd83)" style="fill: none; stroke: #dfe5e8; stroke-width: 0.65; stroke-linecap: square"/>
     </g>
     <g id="line2d_12">
      <g>
       <use xlink:href="#mf51ec4f0b2" x="548.208" y="348.192" style="stroke: #000000; stroke-width: 0.8"/>
      </g>
     </g>
     <g id="text_6">
      <text style="font: 10px 'DejaVu Sans', 'Bitstream Vera Sans', 'Computer Modern Sans Serif', 'Lucida Grande', 'Verdana', 'Geneva', 'Lucid', 'Arial', 'Helvetica', 'Avant Garde', sans-serif; text-anchor: middle" x="548.208" y="362.790438" transform="rotate(-0 548.208 362.790438)">5</text>
     </g>
    </g>
    <g id="xtick_7">
     <g id="line2d_13">
      <path d="M 642.96 348.192 
L 642.96 93.744 
" clip-path="url(#pb513b1fd83)" style="fill: none; stroke: #dfe5e8; stroke-width: 0.65; stroke-linecap: square"/>
     </g>
     <g id="line2d_14">
      <g>
       <use xlink:href="#mf51ec4f0b2" x="642.96" y="348.192" style="stroke: #000000; stroke-width: 0.8"/>
      </g>
     </g>
     <g id="text_7">
      <text style="font: 10px 'DejaVu Sans', 'Bitstream Vera Sans', 'Computer Modern Sans Serif', 'Lucida Grande', 'Verdana', 'Geneva', 'Lucid', 'Arial', 'Helvetica', 'Avant Garde', sans-serif; text-anchor: middle" x="642.96" y="362.790438" transform="rotate(-0 642.96 362.790438)">6</text>
     </g>
    </g>
    <g id="text_8">
     <text style="font: 10px 'DejaVu Sans', 'Bitstream Vera Sans', 'Computer Modern Sans Serif', 'Lucida Grande', 'Verdana', 'Geneva', 'Lucid', 'Arial', 'Helvetica', 'Avant Garde', sans-serif; text-anchor: middle" x="358.704" y="376.468563" transform="rotate(-0 358.704 376.468563)">sUCS dE threshold</text>
    </g>
   </g>
   <g id="matplotlib.axis_2">
    <g id="ytick_1">
     <g id="line2d_15">
      <path d="M 74.448 348.192 
L 642.96 348.192 
" clip-path="url(#pb513b1fd83)" style="fill: none; stroke: #dfe5e8; stroke-width: 0.65; stroke-linecap: square"/>
     </g>
     <g id="line2d_16">
      <defs>
       <path id="ma75d002797" d="M 0 0 
L -3.5 0 
" style="stroke: #000000; stroke-width: 0.8"/>
      </defs>
      <g>
       <use xlink:href="#ma75d002797" x="74.448" y="348.192" style="stroke: #000000; stroke-width: 0.8"/>
      </g>
     </g>
     <g id="text_9">
      <text style="font: 10px 'DejaVu Sans', 'Bitstream Vera Sans', 'Computer Modern Sans Serif', 'Lucida Grande', 'Verdana', 'Geneva', 'Lucid', 'Arial', 'Helvetica', 'Avant Garde', sans-serif; text-anchor: end" x="67.448" y="351.991219" transform="rotate(-0 67.448 351.991219)">0</text>
     </g>
    </g>
    <g id="ytick_2">
     <g id="line2d_17">
      <path d="M 74.448 297.3024 
L 642.96 297.3024 
" clip-path="url(#pb513b1fd83)" style="fill: none; stroke: #dfe5e8; stroke-width: 0.65; stroke-linecap: square"/>
     </g>
     <g id="line2d_18">
      <g>
       <use xlink:href="#ma75d002797" x="74.448" y="297.3024" style="stroke: #000000; stroke-width: 0.8"/>
      </g>
     </g>
     <g id="text_10">
      <text style="font: 10px 'DejaVu Sans', 'Bitstream Vera Sans', 'Computer Modern Sans Serif', 'Lucida Grande', 'Verdana', 'Geneva', 'Lucid', 'Arial', 'Helvetica', 'Avant Garde', sans-serif; text-anchor: end" x="67.448" y="301.101619" transform="rotate(-0 67.448 301.101619)">20</text>
     </g>
    </g>
    <g id="ytick_3">
     <g id="line2d_19">
      <path d="M 74.448 246.4128 
L 642.96 246.4128 
" clip-path="url(#pb513b1fd83)" style="fill: none; stroke: #dfe5e8; stroke-width: 0.65; stroke-linecap: square"/>
     </g>
     <g id="line2d_20">
      <g>
       <use xlink:href="#ma75d002797" x="74.448" y="246.4128" style="stroke: #000000; stroke-width: 0.8"/>
      </g>
     </g>
     <g id="text_11">
      <text style="font: 10px 'DejaVu Sans', 'Bitstream Vera Sans', 'Computer Modern Sans Serif', 'Lucida Grande', 'Verdana', 'Geneva', 'Lucid', 'Arial', 'Helvetica', 'Avant Garde', sans-serif; text-anchor: end" x="67.448" y="250.212019" transform="rotate(-0 67.448 250.212019)">40</text>
     </g>
    </g>
    <g id="ytick_4">
     <g id="line2d_21">
      <path d="M 74.448 195.5232 
L 642.96 195.5232 
" clip-path="url(#pb513b1fd83)" style="fill: none; stroke: #dfe5e8; stroke-width: 0.65; stroke-linecap: square"/>
     </g>
     <g id="line2d_22">
      <g>
       <use xlink:href="#ma75d002797" x="74.448" y="195.5232" style="stroke: #000000; stroke-width: 0.8"/>
      </g>
     </g>
     <g id="text_12">
      <text style="font: 10px 'DejaVu Sans', 'Bitstream Vera Sans', 'Computer Modern Sans Serif', 'Lucida Grande', 'Verdana', 'Geneva', 'Lucid', 'Arial', 'Helvetica', 'Avant Garde', sans-serif; text-anchor: end" x="67.448" y="199.322419" transform="rotate(-0 67.448 199.322419)">60</text>
     </g>
    </g>
    <g id="ytick_5">
     <g id="line2d_23">
      <path d="M 74.448 144.6336 
L 642.96 144.6336 
" clip-path="url(#pb513b1fd83)" style="fill: none; stroke: #dfe5e8; stroke-width: 0.65; stroke-linecap: square"/>
     </g>
     <g id="line2d_24">
      <g>
       <use xlink:href="#ma75d002797" x="74.448" y="144.6336" style="stroke: #000000; stroke-width: 0.8"/>
      </g>
     </g>
     <g id="text_13">
      <text style="font: 10px 'DejaVu Sans', 'Bitstream Vera Sans', 'Computer Modern Sans Serif', 'Lucida Grande', 'Verdana', 'Geneva', 'Lucid', 'Arial', 'Helvetica', 'Avant Garde', sans-serif; text-anchor: end" x="67.448" y="148.432819" transform="rotate(-0 67.448 148.432819)">80</text>
     </g>
    </g>
    <g id="ytick_6">
     <g id="line2d_25">
      <path d="M 74.448 93.744 
L 642.96 93.744 
" clip-path="url(#pb513b1fd83)" style="fill: none; stroke: #dfe5e8; stroke-width: 0.65; stroke-linecap: square"/>
     </g>
     <g id="line2d_26">
      <g>
       <use xlink:href="#ma75d002797" x="74.448" y="93.744" style="stroke: #000000; stroke-width: 0.8"/>
      </g>
     </g>
     <g id="text_14">
      <text style="font: 10px 'DejaVu Sans', 'Bitstream Vera Sans', 'Computer Modern Sans Serif', 'Lucida Grande', 'Verdana', 'Geneva', 'Lucid', 'Arial', 'Helvetica', 'Avant Garde', sans-serif; text-anchor: end" x="67.448" y="97.543219" transform="rotate(-0 67.448 97.543219)">100</text>
     </g>
    </g>
    <g id="text_15">
     <text style="font: 10px 'DejaVu Sans', 'Bitstream Vera Sans', 'Computer Modern Sans Serif', 'Lucida Grande', 'Verdana', 'Geneva', 'Lucid', 'Arial', 'Helvetica', 'Avant Garde', sans-serif; text-anchor: middle" x="42.280812" y="220.968" transform="rotate(-90 42.280812 220.968)">observers%</text>
    </g>
   </g>
   <g id="line2d_27">
    <path d="M 74.448 348.192 
L 106.66368 348.192 
L 108.55872 346.560923 
L 112.3488 346.560923 
L 114.24384 344.929846 
L 121.824 344.929846 
L 123.71904 343.298769 
L 129.40416 343.298769 
L 131.2992 341.667692 
L 140.7744 341.667692 
L 142.66944 340.036615 
L 148.35456 340.036615 
L 150.2496 336.212021 
L 154.03968 332.949867 
L 157.82976 332.949867 
L 161.61984 329.687714 
L 163.51488 329.687714 
L 171.09504 323.163406 
L 172.99008 320.969889 
L 178.6752 320.969889 
L 180.57024 319.338812 
L 182.46528 315.514218 
L 184.36032 315.514218 
L 186.25536 313.3207 
L 190.04544 313.3207 
L 191.94048 311.127183 
L 195.73056 307.865029 
L 199.52064 307.865029 
L 201.41568 302.971798 
L 203.31072 299.709645 
L 205.20576 299.709645 
L 207.1008 297.516127 
L 212.78592 297.516127 
L 214.68096 293.691533 
L 220.36608 293.691533 
L 224.15616 290.429379 
L 233.63136 290.429379 
L 235.5264 287.167225 
L 237.42144 287.167225 
L 239.31648 283.905072 
L 241.21152 281.711554 
L 245.0016 278.449401 
L 246.89664 274.624806 
L 248.79168 272.993729 
L 252.58176 272.993729 
L 254.4768 271.362653 
L 256.37184 271.362653 
L 258.26688 269.731576 
L 260.16192 269.731576 
L 262.05696 268.100499 
L 267.74208 268.100499 
L 271.53216 264.838345 
L 273.4272 264.838345 
L 275.32224 259.945114 
L 277.21728 256.68296 
L 279.11232 251.227289 
L 282.9024 251.227289 
L 286.69248 247.965135 
L 288.58752 244.702981 
L 290.48256 244.702981 
L 292.3776 242.509464 
L 296.16768 242.509464 
L 298.06272 240.878387 
L 299.95776 238.68487 
L 301.8528 237.053793 
L 311.328 237.053793 
L 315.11808 233.791639 
L 317.01312 229.967045 
L 320.8032 229.967045 
L 322.69824 228.335968 
L 324.59328 228.335968 
L 326.48832 226.142451 
L 328.38336 224.511374 
L 334.06848 224.511374 
L 335.96352 220.68678 
L 337.85856 220.68678 
L 339.7536 218.493263 
L 341.64864 216.862186 
L 343.54368 213.037592 
L 345.43872 211.406515 
L 349.2288 211.406515 
L 351.12384 208.144361 
L 353.01888 205.950844 
L 354.91392 204.319767 
L 356.80896 202.126249 
L 358.704 200.495172 
L 375.75936 200.495172 
L 377.6544 198.864095 
L 379.54944 196.670578 
L 383.33952 196.670578 
L 385.23456 194.477061 
L 398.49984 194.477061 
L 400.39488 192.283544 
L 402.28992 192.283544 
L 404.18496 190.090027 
L 406.08 188.45895 
L 409.87008 184.071915 
L 417.45024 184.071915 
L 419.34528 182.440838 
L 432.61056 182.440838 
L 434.5056 180.247321 
L 436.40064 180.247321 
L 438.29568 178.616244 
L 440.19072 178.616244 
L 442.08576 176.422727 
L 457.24608 176.422727 
L 459.14112 174.22921 
L 461.03616 174.22921 
L 462.9312 172.598133 
L 470.51136 172.598133 
L 472.4064 168.773538 
L 481.8816 168.773538 
L 483.77664 167.142462 
L 497.04192 167.142462 
L 498.93696 165.511385 
L 500.832 163.317867 
L 502.72704 163.317867 
L 504.62208 161.12435 
L 514.09728 161.12435 
L 515.99232 159.493273 
L 523.57248 159.493273 
L 525.46752 157.299756 
L 540.62784 157.299756 
L 544.41792 152.912721 
L 548.208 152.912721 
L 550.10304 151.281645 
L 553.89312 151.281645 
L 555.78816 149.088127 
L 565.26336 149.088127 
L 567.1584 147.45705 
L 576.6336 147.45705 
L 580.42368 143.070016 
L 593.68896 143.070016 
L 595.584 140.876499 
L 599.37408 140.876499 
L 601.26912 138.682981 
L 603.16416 134.295947 
L 606.95424 134.295947 
L 608.84928 132.10243 
L 620.21952 132.10243 
L 622.11456 129.908912 
L 629.69472 129.908912 
L 631.58976 127.715395 
L 642.96 127.715395 
L 642.96 127.715395 
" clip-path="url(#pb513b1fd83)" style="fill: none; stroke: #252525; stroke-width: 2.5; stroke-linecap: square"/>
   </g>
   <g id="line2d_28">
    <path d="M 74.448 348.192 
L 100.97856 348.192 
L 102.8736 345.998483 
L 108.55872 345.998483 
L 110.45376 343.804966 
L 127.50912 343.804966 
L 129.40416 341.611448 
L 133.19424 341.611448 
L 135.08928 339.417931 
L 136.98432 337.786854 
L 140.7744 337.786854 
L 142.66944 335.593337 
L 146.45952 335.593337 
L 150.2496 331.206302 
L 152.14464 331.206302 
L 154.03968 329.575225 
L 159.7248 329.575225 
L 161.61984 327.381708 
L 176.78016 327.381708 
L 178.6752 325.750631 
L 182.46528 325.750631 
L 184.36032 323.557114 
L 190.04544 323.557114 
L 191.94048 321.926037 
L 193.83552 321.926037 
L 195.73056 318.101443 
L 201.41568 318.101443 
L 203.31072 316.470366 
L 205.20576 316.470366 
L 207.1008 312.645772 
L 210.89088 312.645772 
L 212.78592 311.014695 
L 216.576 311.014695 
L 218.47104 307.752541 
L 222.26112 303.365507 
L 227.94624 303.365507 
L 229.84128 301.171989 
L 231.73632 299.540912 
L 233.63136 297.347395 
L 237.42144 297.347395 
L 239.31648 292.960361 
L 241.21152 289.135767 
L 245.0016 289.135767 
L 246.89664 287.50469 
L 248.79168 287.50469 
L 250.68672 284.242536 
L 252.58176 282.611459 
L 254.4768 282.611459 
L 256.37184 280.980382 
L 263.952 280.980382 
L 265.84704 279.349305 
L 267.74208 279.349305 
L 273.4272 274.456074 
L 277.21728 274.456074 
L 279.11232 272.824997 
L 282.9024 272.824997 
L 284.79744 269.000403 
L 290.48256 269.000403 
L 292.3776 266.806886 
L 296.16768 266.806886 
L 298.06272 264.613369 
L 299.95776 264.613369 
L 301.8528 262.982292 
L 307.53792 262.982292 
L 309.43296 260.788775 
L 311.328 259.157698 
L 313.22304 259.157698 
L 315.11808 256.96418 
L 318.90816 256.96418 
L 320.8032 253.139586 
L 322.69824 253.139586 
L 324.59328 251.508509 
L 328.38336 251.508509 
L 330.2784 247.121475 
L 334.06848 247.121475 
L 335.96352 245.490398 
L 339.7536 245.490398 
L 341.64864 243.859321 
L 343.54368 243.859321 
L 345.43872 242.228244 
L 349.2288 242.228244 
L 351.12384 235.703936 
L 353.01888 235.703936 
L 354.91392 230.810706 
L 356.80896 227.548552 
L 358.704 225.917475 
L 360.59904 225.917475 
L 362.49408 222.655321 
L 364.38912 221.024244 
L 366.28416 221.024244 
L 368.1792 217.76209 
L 371.96928 214.499936 
L 375.75936 214.499936 
L 377.6544 212.868859 
L 383.33952 212.868859 
L 385.23456 211.237782 
L 396.6048 211.237782 
L 398.49984 205.782111 
L 400.39488 203.588594 
L 404.18496 203.588594 
L 406.08 201.957517 
L 409.87008 201.957517 
L 411.76512 198.695363 
L 413.66016 196.501846 
L 417.45024 193.239692 
L 419.34528 191.046175 
L 421.24032 191.046175 
L 423.13536 188.852658 
L 426.92544 188.852658 
L 428.82048 187.221581 
L 430.71552 182.834546 
L 434.5056 182.834546 
L 440.19072 177.941316 
L 442.08576 177.941316 
L 443.9808 176.310239 
L 447.77088 176.310239 
L 449.66592 174.679162 
L 453.456 174.679162 
L 455.35104 173.048085 
L 457.24608 173.048085 
L 459.14112 171.417008 
L 462.9312 171.417008 
L 470.51136 162.642939 
L 479.98656 162.642939 
L 481.8816 160.449422 
L 485.67168 160.449422 
L 487.56672 158.818345 
L 489.46176 158.818345 
L 491.3568 154.993751 
L 495.14688 154.993751 
L 497.04192 153.362674 
L 500.832 148.975639 
L 502.72704 148.975639 
L 506.51712 144.588605 
L 512.20224 144.588605 
L 514.09728 142.957528 
L 517.88736 142.957528 
L 519.7824 141.326451 
L 527.36256 141.326451 
L 529.2576 139.132934 
L 542.52288 139.132934 
L 544.41792 137.501857 
L 553.89312 137.501857 
L 555.78816 135.87078 
L 561.47328 135.87078 
L 563.36832 134.239703 
L 576.6336 134.239703 
L 578.52864 132.046186 
L 580.42368 132.046186 
L 582.31872 130.415109 
L 584.21376 128.221592 
L 589.89888 128.221592 
L 591.79392 126.590515 
L 601.26912 126.590515 
L 603.16416 124.396997 
L 618.32448 124.396997 
L 620.21952 122.76592 
L 633.4848 122.76592 
L 635.37984 118.378886 
L 639.16992 118.378886 
L 641.06496 116.185369 
L 642.96 116.185369 
L 642.96 116.185369 
" clip-path="url(#pb513b1fd83)" style="fill: none; stroke: #3b83b4; stroke-width: 1.35; stroke-linecap: square"/>
   </g>
   <g id="line2d_29">
    <path d="M 74.448 348.192 
L 95.29344 348.192 
L 97.18848 346.560923 
L 106.66368 346.560923 
L 108.55872 344.929846 
L 114.24384 344.929846 
L 116.13888 343.298769 
L 123.71904 343.298769 
L 125.61408 341.667692 
L 127.50912 338.405538 
L 129.40416 336.774462 
L 152.14464 336.774462 
L 155.93472 333.512308 
L 161.61984 333.512308 
L 163.51488 331.881231 
L 165.40992 331.881231 
L 167.30496 330.250154 
L 169.2 328.056637 
L 172.99008 328.056637 
L 176.78016 324.794483 
L 184.36032 324.794483 
L 186.25536 323.163406 
L 205.20576 323.163406 
L 207.1008 321.532329 
L 210.89088 321.532329 
L 212.78592 318.270175 
L 216.576 318.270175 
L 218.47104 316.639098 
L 222.26112 316.639098 
L 224.15616 313.376944 
L 226.0512 313.376944 
L 227.94624 311.745867 
L 233.63136 311.745867 
L 239.31648 306.852637 
L 241.21152 306.852637 
L 243.10656 304.659119 
L 245.0016 303.028042 
L 246.89664 303.028042 
L 248.79168 300.834525 
L 256.37184 294.310218 
L 258.26688 294.310218 
L 262.05696 291.048064 
L 263.952 291.048064 
L 265.84704 289.416987 
L 271.53216 289.416987 
L 273.4272 287.78591 
L 277.21728 287.78591 
L 281.00736 284.523756 
L 286.69248 284.523756 
L 288.58752 282.892679 
L 290.48256 279.630525 
L 292.3776 279.630525 
L 298.06272 274.737294 
L 299.95776 272.543777 
L 301.8528 272.543777 
L 303.74784 270.35026 
L 305.64288 270.35026 
L 309.43296 267.088106 
L 315.11808 267.088106 
L 317.01312 264.894589 
L 318.90816 264.894589 
L 320.8032 262.701072 
L 322.69824 262.701072 
L 324.59328 261.069995 
L 328.38336 261.069995 
L 330.2784 259.438918 
L 334.06848 259.438918 
L 335.96352 257.807841 
L 337.85856 257.807841 
L 339.7536 255.614324 
L 349.2288 255.614324 
L 353.01888 251.227289 
L 360.59904 251.227289 
L 362.49408 249.596212 
L 364.38912 249.596212 
L 366.28416 247.965135 
L 368.1792 247.965135 
L 370.07424 246.334058 
L 371.96928 246.334058 
L 373.86432 244.140541 
L 379.54944 244.140541 
L 381.44448 242.509464 
L 383.33952 242.509464 
L 389.02464 237.616233 
L 390.91968 237.616233 
L 392.81472 234.35408 
L 394.70976 234.35408 
L 396.6048 231.091926 
L 398.49984 231.091926 
L 400.39488 228.898408 
L 402.28992 225.073814 
L 411.76512 225.073814 
L 413.66016 221.81166 
L 426.92544 221.81166 
L 428.82048 220.180584 
L 432.61056 220.180584 
L 434.5056 216.91843 
L 436.40064 215.287353 
L 438.29568 215.287353 
L 440.19072 213.093836 
L 442.08576 213.093836 
L 443.9808 210.900318 
L 445.87584 207.075724 
L 447.77088 205.444647 
L 449.66592 203.25113 
L 453.456 203.25113 
L 455.35104 201.057613 
L 464.82624 201.057613 
L 468.61632 197.795459 
L 470.51136 197.795459 
L 472.4064 195.601942 
L 476.19648 195.601942 
L 478.09152 191.777347 
L 481.8816 191.777347 
L 485.67168 188.515194 
L 491.3568 188.515194 
L 493.25184 186.321676 
L 533.04768 186.321676 
L 534.94272 184.128159 
L 542.52288 184.128159 
L 546.31296 176.478971 
L 557.6832 176.478971 
L 561.47328 173.216817 
L 563.36832 171.0233 
L 580.42368 171.0233 
L 582.31872 168.829782 
L 593.68896 168.829782 
L 595.584 166.636265 
L 605.0592 166.636265 
L 606.95424 165.005188 
L 616.42944 165.005188 
L 618.32448 162.811671 
L 622.11456 162.811671 
L 624.0096 160.618154 
L 627.79968 160.618154 
L 629.69472 158.987077 
L 631.58976 158.987077 
L 633.4848 156.79356 
L 642.96 156.79356 
L 642.96 156.79356 
" clip-path="url(#pb513b1fd83)" style="fill: none; stroke-dasharray: 4.995,2.16; stroke-dashoffset: 0; stroke: #c38a19; stroke-width: 1.35"/>
   </g>
   <g id="line2d_30">
    <path d="M 74.448 348.192 
L 106.66368 348.192 
L 108.55872 346.560923 
L 116.13888 346.560923 
L 118.03392 344.367406 
L 123.71904 344.367406 
L 125.61408 342.736329 
L 131.2992 342.736329 
L 133.19424 341.105252 
L 138.87936 341.105252 
L 140.7744 337.843098 
L 150.2496 337.843098 
L 152.14464 336.212021 
L 165.40992 336.212021 
L 167.30496 334.580944 
L 172.99008 334.580944 
L 174.88512 332.949867 
L 176.78016 332.949867 
L 178.6752 331.31879 
L 180.57024 328.056637 
L 184.36032 328.056637 
L 186.25536 326.42556 
L 193.83552 326.42556 
L 195.73056 324.794483 
L 199.52064 324.794483 
L 205.20576 319.901252 
L 207.1008 315.514218 
L 212.78592 315.514218 
L 214.68096 313.883141 
L 216.576 313.883141 
L 222.26112 308.98991 
L 231.73632 308.98991 
L 233.63136 304.096679 
L 243.10656 304.096679 
L 245.0016 301.903162 
L 248.79168 301.903162 
L 252.58176 298.641008 
L 254.4768 298.641008 
L 256.37184 295.378854 
L 265.84704 295.378854 
L 267.74208 290.485623 
L 269.63712 288.854546 
L 273.4272 288.854546 
L 275.32224 287.223469 
L 279.11232 287.223469 
L 281.00736 285.592393 
L 284.79744 285.592393 
L 286.69248 283.398875 
L 288.58752 283.398875 
L 290.48256 281.205358 
L 292.3776 277.943204 
L 294.27264 275.749687 
L 296.16768 275.749687 
L 298.06272 274.11861 
L 299.95776 270.856456 
L 303.74784 270.856456 
L 305.64288 268.662939 
L 307.53792 265.400785 
L 309.43296 263.769708 
L 317.01312 263.769708 
L 318.90816 259.382674 
L 322.69824 259.382674 
L 324.59328 257.751597 
L 326.48832 255.55808 
L 328.38336 255.55808 
L 330.2784 253.927003 
L 334.06848 253.927003 
L 337.85856 250.664849 
L 366.28416 250.664849 
L 368.1792 249.033772 
L 379.54944 249.033772 
L 381.44448 244.646737 
L 383.33952 243.01566 
L 385.23456 243.01566 
L 387.1296 239.753507 
L 389.02464 239.753507 
L 390.91968 238.12243 
L 398.49984 238.12243 
L 400.39488 236.491353 
L 402.28992 233.229199 
L 404.18496 233.229199 
L 406.08 228.842164 
L 407.97504 225.580011 
L 409.87008 223.386493 
L 411.76512 223.386493 
L 413.66016 221.755416 
L 417.45024 221.755416 
L 419.34528 217.930822 
L 425.0304 217.930822 
L 426.92544 216.299745 
L 428.82048 212.475151 
L 430.71552 212.475151 
L 432.61056 210.844074 
L 438.29568 210.844074 
L 440.19072 207.58192 
L 442.08576 205.388403 
L 443.9808 205.388403 
L 445.87584 203.194886 
L 453.456 203.194886 
L 457.24608 199.932732 
L 462.9312 199.932732 
L 464.82624 197.739215 
L 468.61632 197.739215 
L 470.51136 196.108138 
L 476.19648 196.108138 
L 478.09152 194.477061 
L 481.8816 194.477061 
L 485.67168 191.214907 
L 506.51712 191.214907 
L 508.41216 189.02139 
L 514.09728 189.02139 
L 515.99232 186.827873 
L 517.88736 185.196796 
L 521.67744 185.196796 
L 523.57248 183.565719 
L 525.46752 183.565719 
L 527.36256 181.372202 
L 531.15264 181.372202 
L 534.94272 178.110048 
L 546.31296 178.110048 
L 548.208 175.916531 
L 551.99808 175.916531 
L 553.89312 173.723013 
L 574.73856 173.723013 
L 576.6336 172.091936 
L 578.52864 172.091936 
L 580.42368 169.898419 
L 595.584 169.898419 
L 597.47904 168.267342 
L 599.37408 166.073825 
L 601.26912 164.442748 
L 614.5344 164.442748 
L 616.42944 162.249231 
L 620.21952 162.249231 
L 622.11456 160.618154 
L 637.27488 160.618154 
L 639.16992 158.424637 
L 642.96 158.424637 
L 642.96 158.424637 
" clip-path="url(#pb513b1fd83)" style="fill: none; stroke-dasharray: 1.35,2.2275; stroke-dashoffset: 0; stroke: #7d8a92; stroke-width: 1.35"/>
   </g>
   <g id="line2d_31">
    <path d="M 74.448 348.192 
L 161.61984 348.192 
L 163.51488 345.998483 
L 169.2 345.998483 
L 171.09504 344.367406 
L 203.31072 344.367406 
L 205.20576 342.736329 
L 208.99584 342.736329 
L 210.89088 341.105252 
L 235.5264 341.105252 
L 237.42144 339.474175 
L 239.31648 339.474175 
L 241.21152 337.280658 
L 243.10656 337.280658 
L 245.0016 335.649581 
L 246.89664 333.456064 
L 265.84704 333.456064 
L 267.74208 331.824987 
L 275.32224 331.824987 
L 277.21728 330.19391 
L 301.8528 330.19391 
L 303.74784 328.562833 
L 305.64288 328.562833 
L 307.53792 324.738239 
L 309.43296 323.107162 
L 320.8032 323.107162 
L 326.48832 318.213931 
L 339.7536 318.213931 
L 341.64864 316.582854 
L 343.54368 316.582854 
L 345.43872 314.951777 
L 347.33376 314.951777 
L 349.2288 313.3207 
L 353.01888 313.3207 
L 354.91392 311.689623 
L 364.38912 311.689623 
L 366.28416 308.427469 
L 371.96928 308.427469 
L 373.86432 306.796393 
L 377.6544 306.796393 
L 379.54944 304.602875 
L 394.70976 304.602875 
L 396.6048 302.971798 
L 402.28992 302.971798 
L 404.18496 301.340721 
L 406.08 301.340721 
L 407.97504 299.709645 
L 421.24032 299.709645 
L 426.92544 294.816414 
L 442.08576 294.816414 
L 443.9808 291.55426 
L 445.87584 291.55426 
L 447.77088 289.360743 
L 451.56096 289.360743 
L 453.456 287.729666 
L 455.35104 287.729666 
L 457.24608 283.905072 
L 461.03616 280.642918 
L 462.9312 280.642918 
L 466.72128 277.380764 
L 468.61632 277.380764 
L 470.51136 275.187247 
L 472.4064 275.187247 
L 474.30144 273.55617 
L 483.77664 273.55617 
L 485.67168 271.925093 
L 489.46176 267.538058 
L 493.25184 267.538058 
L 495.14688 265.906981 
L 498.93696 265.906981 
L 500.832 262.082387 
L 506.51712 262.082387 
L 508.41216 258.820233 
L 512.20224 258.820233 
L 514.09728 256.626716 
L 515.99232 256.626716 
L 517.88736 253.364562 
L 523.57248 253.364562 
L 525.46752 251.733485 
L 527.36256 249.539968 
L 529.2576 249.539968 
L 531.15264 247.908891 
L 533.04768 245.715374 
L 534.94272 244.084297 
L 540.62784 244.084297 
L 542.52288 242.45322 
L 544.41792 240.259703 
L 557.6832 240.259703 
L 561.47328 235.872668 
L 563.36832 235.872668 
L 565.26336 233.679151 
L 569.05344 233.679151 
L 570.94848 232.048074 
L 572.84352 232.048074 
L 574.73856 230.416997 
L 586.1088 230.416997 
L 588.00384 228.78592 
L 589.89888 226.592403 
L 591.79392 224.961326 
L 595.584 224.961326 
L 597.47904 222.767809 
L 601.26912 219.505655 
L 605.0592 219.505655 
L 606.95424 217.874578 
L 608.84928 217.874578 
L 610.74432 214.612424 
L 614.5344 214.612424 
L 616.42944 212.981347 
L 618.32448 209.719194 
L 620.21952 208.088117 
L 624.0096 208.088117 
L 625.90464 206.45704 
L 631.58976 206.45704 
L 635.37984 203.194886 
L 642.96 203.194886 
L 642.96 203.194886 
" clip-path="url(#pb513b1fd83)" style="fill: none; stroke-dasharray: 8.64,2.16,1.35,2.16; stroke-dashoffset: 0; stroke: #d0526a; stroke-width: 1.35"/>
   </g>
   <g id="line2d_32">
    <path d="M 74.448 348.192 
L 118.03392 348.192 
L 119.92896 345.998483 
L 146.45952 345.998483 
L 148.35456 343.804966 
L 161.61984 343.804966 
L 165.40992 339.417931 
L 176.78016 339.417931 
L 178.6752 337.224414 
L 180.57024 337.224414 
L 182.46528 335.030897 
L 199.52064 335.030897 
L 201.41568 332.837379 
L 205.20576 332.837379 
L 207.1008 328.450345 
L 208.99584 326.256828 
L 212.78592 326.256828 
L 214.68096 324.06331 
L 216.576 324.06331 
L 218.47104 321.869793 
L 220.36608 321.869793 
L 224.15616 317.482759 
L 231.73632 317.482759 
L 233.63136 315.289241 
L 241.21152 315.289241 
L 243.10656 313.095724 
L 250.68672 313.095724 
L 252.58176 311.464647 
L 262.05696 311.464647 
L 263.952 309.27113 
L 290.48256 309.27113 
L 292.3776 307.077613 
L 294.27264 303.815459 
L 296.16768 302.184382 
L 301.8528 302.184382 
L 303.74784 299.990865 
L 309.43296 299.990865 
L 311.328 293.410313 
L 315.11808 293.410313 
L 317.01312 291.216796 
L 318.90816 289.585719 
L 320.8032 285.198684 
L 322.69824 285.198684 
L 324.59328 283.567607 
L 326.48832 281.37409 
L 330.2784 281.37409 
L 332.17344 277.549496 
L 334.06848 275.355979 
L 337.85856 275.355979 
L 341.64864 272.093825 
L 345.43872 272.093825 
L 347.33376 270.462748 
L 351.12384 270.462748 
L 353.01888 268.831671 
L 356.80896 268.831671 
L 358.704 266.638154 
L 360.59904 266.638154 
L 362.49408 264.444637 
L 364.38912 262.81356 
L 366.28416 260.620042 
L 368.1792 260.620042 
L 370.07424 258.426525 
L 373.86432 258.426525 
L 375.75936 256.233008 
L 383.33952 256.233008 
L 385.23456 254.601931 
L 387.1296 254.601931 
L 389.02464 252.970854 
L 398.49984 252.970854 
L 400.39488 251.339777 
L 402.28992 251.339777 
L 404.18496 247.515183 
L 409.87008 247.515183 
L 411.76512 245.884106 
L 415.5552 241.497072 
L 417.45024 239.865995 
L 423.13536 239.865995 
L 425.0304 237.672477 
L 426.92544 234.410324 
L 432.61056 234.410324 
L 434.5056 228.954653 
L 440.19072 222.374101 
L 442.08576 222.374101 
L 445.87584 219.111947 
L 449.66592 219.111947 
L 451.56096 214.724912 
L 457.24608 214.724912 
L 461.03616 207.075724 
L 462.9312 207.075724 
L 464.82624 205.444647 
L 468.61632 205.444647 
L 470.51136 203.81357 
L 472.4064 203.81357 
L 474.30144 199.988976 
L 478.09152 195.601942 
L 479.98656 193.970865 
L 481.8816 193.970865 
L 483.77664 190.708711 
L 485.67168 189.077634 
L 489.46176 189.077634 
L 491.3568 187.446557 
L 493.25184 185.25304 
L 497.04192 185.25304 
L 498.93696 183.621963 
L 500.832 180.359809 
L 502.72704 176.535215 
L 506.51712 176.535215 
L 510.3072 173.273061 
L 515.99232 173.273061 
L 517.88736 171.641984 
L 525.46752 171.641984 
L 529.2576 168.37983 
L 531.15264 162.924159 
L 533.04768 161.293082 
L 540.62784 161.293082 
L 542.52288 159.662005 
L 544.41792 159.662005 
L 546.31296 157.468488 
L 557.6832 157.468488 
L 559.57824 154.206334 
L 561.47328 152.575257 
L 567.1584 152.575257 
L 569.05344 150.94418 
L 576.6336 150.94418 
L 582.31872 146.05095 
L 586.1088 139.526642 
L 589.89888 139.526642 
L 591.79392 137.333125 
L 595.584 137.333125 
L 597.47904 135.702048 
L 605.0592 135.702048 
L 606.95424 134.070971 
L 612.63936 134.070971 
L 614.5344 132.439894 
L 618.32448 132.439894 
L 620.21952 130.246377 
L 622.11456 128.6153 
L 639.16992 128.6153 
L 641.06496 126.984223 
L 642.96 126.984223 
L 642.96 126.984223 
" clip-path="url(#pb513b1fd83)" style="fill: none; stroke-dasharray: 6.75,2.7,1.35,2.7; stroke-dashoffset: 0; stroke: #2f8f84; stroke-width: 1.35"/>
   </g>
   <g id="patch_4">
    <path d="M 74.448 348.192 
L 74.448 93.744 
" style="fill: none; stroke: #000000; stroke-width: 0.8; stroke-linejoin: miter; stroke-linecap: square"/>
   </g>
   <g id="patch_5">
    <path d="M 74.448 348.192 
L 642.96 348.192 
" style="fill: none; stroke: #000000; stroke-width: 0.8; stroke-linejoin: miter; stroke-linecap: square"/>
   </g>
  </g>
  <g id="text_16">
   <text style="font: 18px 'DejaVu Sans', 'Bitstream Vera Sans', 'Computer Modern Sans Serif', 'Lucida Grande', 'Verdana', 'Geneva', 'Lucid', 'Arial', 'Helvetica', 'Avant Garde', sans-serif; text-anchor: start" x="74.448" y="38.229188" transform="rotate(-0 74.448 38.229188)">D50 Direct</text>
  </g>
  <g id="text_17">
   <text style="fill: #66747c; font: 10px 'DejaVu Sans', 'Bitstream Vera Sans', 'Computer Modern Sans Serif', 'Lucida Grande', 'Verdana', 'Geneva', 'Lucid', 'Arial', 'Helvetica', 'Avant Garde', sans-serif; text-anchor: start" x="74.448" y="64.728" transform="rotate(-0 74.448 64.728)">KSF LCD</text>
  </g>
  <g id="legend_1">
   <g id="line2d_33">
    <path d="M 185.17875 404.151391 
L 194.27875 404.151391 
L 203.37875 404.151391 
" style="fill: none; stroke: #252525; stroke-width: 2.5; stroke-linecap: square"/>
   </g>
   <g id="text_18">
    <text style="font: 9.1px 'DejaVu Sans', 'Bitstream Vera Sans', 'Computer Modern Sans Serif', 'Lucida Grande', 'Verdana', 'Geneva', 'Lucid', 'Arial', 'Helvetica', 'Avant Garde', sans-serif; text-anchor: start" x="210.65875" y="407.336391" transform="rotate(-0 210.65875 407.336391)">Potera CMF</text>
   </g>
   <g id="line2d_34">
    <path d="M 185.17875 417.508484 
L 194.27875 417.508484 
L 203.37875 417.508484 
" style="fill: none; stroke: #3b83b4; stroke-width: 1.35; stroke-linecap: square"/>
   </g>
   <g id="text_19">
    <text style="font: 9.1px 'DejaVu Sans', 'Bitstream Vera Sans', 'Computer Modern Sans Serif', 'Lucida Grande', 'Verdana', 'Geneva', 'Lucid', 'Arial', 'Helvetica', 'Avant Garde', sans-serif; text-anchor: start" x="210.65875" y="420.693484" transform="rotate(-0 210.65875 420.693484)">CIE 2015 2°</text>
   </g>
   <g id="line2d_35">
    <path d="M 282.931234 404.151391 
L 292.031234 404.151391 
L 301.131234 404.151391 
" style="fill: none; stroke-dasharray: 4.995,2.16; stroke-dashoffset: 0; stroke: #c38a19; stroke-width: 1.35"/>
   </g>
   <g id="text_20">
    <text style="font: 9.1px 'DejaVu Sans', 'Bitstream Vera Sans', 'Computer Modern Sans Serif', 'Lucida Grande', 'Verdana', 'Geneva', 'Lucid', 'Arial', 'Helvetica', 'Avant Garde', sans-serif; text-anchor: start" x="308.411234" y="407.336391" transform="rotate(-0 308.411234 407.336391)">CIE 2015 10°</text>
   </g>
   <g id="line2d_36">
    <path d="M 282.931234 417.508484 
L 292.031234 417.508484 
L 301.131234 417.508484 
" style="fill: none; stroke-dasharray: 1.35,2.2275; stroke-dashoffset: 0; stroke: #7d8a92; stroke-width: 1.35"/>
   </g>
   <g id="text_21">
    <text style="font: 9.1px 'DejaVu Sans', 'Bitstream Vera Sans', 'Computer Modern Sans Serif', 'Lucida Grande', 'Verdana', 'Geneva', 'Lucid', 'Arial', 'Helvetica', 'Avant Garde', sans-serif; text-anchor: start" x="308.411234" y="420.693484" transform="rotate(-0 308.411234 420.693484)">CIE 1964 10°</text>
   </g>
   <g id="line2d_37">
    <path d="M 386.473594 404.151391 
L 395.573594 404.151391 
L 404.673594 404.151391 
" style="fill: none; stroke-dasharray: 8.64,2.16,1.35,2.16; stroke-dashoffset: 0; stroke: #d0526a; stroke-width: 1.35"/>
   </g>
   <g id="text_22">
    <text style="font: 9.1px 'DejaVu Sans', 'Bitstream Vera Sans', 'Computer Modern Sans Serif', 'Lucida Grande', 'Verdana', 'Geneva', 'Lucid', 'Arial', 'Helvetica', 'Avant Garde', sans-serif; text-anchor: start" x="411.953594" y="407.336391" transform="rotate(-0 411.953594 407.336391)">CIE 1931 2°</text>
   </g>
   <g id="line2d_38">
    <path d="M 386.473594 417.508484 
L 395.573594 417.508484 
L 404.673594 417.508484 
" style="fill: none; stroke-dasharray: 6.75,2.7,1.35,2.7; stroke-dashoffset: 0; stroke: #2f8f84; stroke-width: 1.35"/>
   </g>
   <g id="text_23">
    <text style="font: 9.1px 'DejaVu Sans', 'Bitstream Vera Sans', 'Computer Modern Sans Serif', 'Lucida Grande', 'Verdana', 'Geneva', 'Lucid', 'Arial', 'Helvetica', 'Avant Garde', sans-serif; text-anchor: start" x="411.953594" y="420.693484" transform="rotate(-0 411.953594 420.693484)">Judd–Vos 1978 2°</text>
   </g>
  </g>
 </g>
 <defs>
  <clipPath id="pb513b1fd83">
   <rect x="74.448" y="93.744" width="568.512" height="254.448"/>
  </clipPath>
 </defs>
</svg>
