<?xml version="1.0" encoding="utf-8" standalone="no"?>
<!DOCTYPE svg PUBLIC "-//W3C//DTD SVG 1.1//EN"
  "http://www.w3.org/Graphics/SVG/1.1/DTD/svg11.dtd">
<svg xmlns:xlink="http://www.w3.org/1999/xlink" width="676.8pt" height="446.4pt" viewBox="0 0 676.8 446.4" xmlns="http://www.w3.org/2000/svg" version="1.1">
 <metadata>
  <rdf:RDF xmlns:dc="http://purl.org/dc/elements/1.1/" xmlns:cc="http://creativecommons.org/ns#" xmlns:rdf="http://www.w3.org/1999/02/22-rdf-syntax-ns#">
   <cc:Work>
    <dc:type rdf:resource="http://purl.org/dc/dcmitype/StillImage"/>
    <dc:date>2026-07-20T06:41:54.891482</dc:date>
    <dc:format>image/svg+xml</dc:format>
    <dc:creator>
     <cc:Agent>
      <dc:title>Matplotlib v3.9.4, https://matplotlib.org/</dc:title>
     </cc:Agent>
    </dc:creator>
   </cc:Work>
  </rdf:RDF>
 </metadata>
 <defs>
  <style type="text/css">*{stroke-linejoin: round; stroke-linecap: butt}</style>
 </defs>
 <g id="figure_1">
  <g id="patch_1">
   <path d="M 0 446.4 
L 676.8 446.4 
L 676.8 0 
L 0 0 
z
" style="fill: #ffffff"/>
  </g>
  <g id="axes_1">
   <g id="patch_2">
    <path d="M 74.448 348.192 
L 642.96 348.192 
L 642.96 93.744 
L 74.448 93.744 
z
" style="fill: #ffffff"/>
   </g>
   <g id="patch_3">
    <path d="M 169.2 348.192 
L 358.704 348.192 
L 358.704 93.744 
L 169.2 93.744 
z
" clip-path="url(#p4190349e2e)" style="fill: #e7f0ea; opacity: 0.58; stroke: #e7f0ea; stroke-linejoin: miter"/>
   </g>
   <g id="matplotlib.axis_1">
    <g id="xtick_1">
     <g id="line2d_1">
      <path d="M 74.448 348.192 
L 74.448 93.744 
" clip-path="url(#p4190349e2e)" style="fill: none; stroke: #dfe5e8; stroke-width: 0.65; stroke-linecap: square"/>
     </g>
     <g id="line2d_2">
      <defs>
       <path id="m91aa7e95b4" d="M 0 0 
L 0 3.5 
" style="stroke: #000000; stroke-width: 0.8"/>
      </defs>
      <g>
       <use xlink:href="#m91aa7e95b4" x="74.448" y="348.192" style="stroke: #000000; stroke-width: 0.8"/>
      </g>
     </g>
     <g id="text_1">
      <text style="font: 10px 'DejaVu Sans', 'Bitstream Vera Sans', 'Computer Modern Sans Serif', 'Lucida Grande', 'Verdana', 'Geneva', 'Lucid', 'Arial', 'Helvetica', 'Avant Garde', sans-serif; text-anchor: middle" x="74.448" y="362.790438" transform="rotate(-0 74.448 362.790438)">0</text>
     </g>
    </g>
    <g id="xtick_2">
     <g id="line2d_3">
      <path d="M 169.2 348.192 
L 169.2 93.744 
" clip-path="url(#p4190349e2e)" style="fill: none; stroke: #dfe5e8; stroke-width: 0.65; stroke-linecap: square"/>
     </g>
     <g id="line2d_4">
      <g>
       <use xlink:href="#m91aa7e95b4" x="169.2" y="348.192" style="stroke: #000000; stroke-width: 0.8"/>
      </g>
     </g>
     <g id="text_2">
      <text style="font: 10px 'DejaVu Sans', 'Bitstream Vera Sans', 'Computer Modern Sans Serif', 'Lucida Grande', 'Verdana', 'Geneva', 'Lucid', 'Arial', 'Helvetica', 'Avant Garde', sans-serif; text-anchor: middle" x="169.2" y="362.790438" transform="rotate(-0 169.2 362.790438)">1</text>
     </g>
    </g>
    <g id="xtick_3">
     <g id="line2d_5">
      <path d="M 263.952 348.192 
L 263.952 93.744 
" clip-path="url(#p4190349e2e)" style="fill: none; stroke: #dfe5e8; stroke-width: 0.65; stroke-linecap: square"/>
     </g>
     <g id="line2d_6">
      <g>
       <use xlink:href="#m91aa7e95b4" x="263.952" y="348.192" style="stroke: #000000; stroke-width: 0.8"/>
      </g>
     </g>
     <g id="text_3">
      <text style="font: 10px 'DejaVu Sans', 'Bitstream Vera Sans', 'Computer Modern Sans Serif', 'Lucida Grande', 'Verdana', 'Geneva', 'Lucid', 'Arial', 'Helvetica', 'Avant Garde', sans-serif; text-anchor: middle" x="263.952" y="362.790438" transform="rotate(-0 263.952 362.790438)">2</text>
     </g>
    </g>
    <g id="xtick_4">
     <g id="line2d_7">
      <path d="M 358.704 348.192 
L 358.704 93.744 
" clip-path="url(#p4190349e2e)" style="fill: none; stroke: #dfe5e8; stroke-width: 0.65; stroke-linecap: square"/>
     </g>
     <g id="line2d_8">
      <g>
       <use xlink:href="#m91aa7e95b4" x="358.704" y="348.192" style="stroke: #000000; stroke-width: 0.8"/>
      </g>
     </g>
     <g id="text_4">
      <text style="font: 10px 'DejaVu Sans', 'Bitstream Vera Sans', 'Computer Modern Sans Serif', 'Lucida Grande', 'Verdana', 'Geneva', 'Lucid', 'Arial', 'Helvetica', 'Avant Garde', sans-serif; text-anchor: middle" x="358.704" y="362.790438" transform="rotate(-0 358.704 362.790438)">3</text>
     </g>
    </g>
    <g id="xtick_5">
     <g id="line2d_9">
      <path d="M 453.456 348.192 
L 453.456 93.744 
" clip-path="url(#p4190349e2e)" style="fill: none; stroke: #dfe5e8; stroke-width: 0.65; stroke-linecap: square"/>
     </g>
     <g id="line2d_10">
      <g>
       <use xlink:href="#m91aa7e95b4" x="453.456" y="348.192" style="stroke: #000000; stroke-width: 0.8"/>
      </g>
     </g>
     <g id="text_5">
      <text style="font: 10px 'DejaVu Sans', 'Bitstream Vera Sans', 'Computer Modern Sans Serif', 'Lucida Grande', 'Verdana', 'Geneva', 'Lucid', 'Arial', 'Helvetica', 'Avant Garde', sans-serif; text-anchor: middle" x="453.456" y="362.790438" transform="rotate(-0 453.456 362.790438)">4</text>
     </g>
    </g>
    <g id="xtick_6">
     <g id="line2d_11">
      <path d="M 548.208 348.192 
L 548.208 93.744 
" clip-path="url(#p4190349e2e)" style="fill: none; stroke: #dfe5e8; stroke-width: 0.65; stroke-linecap: square"/>
     </g>
     <g id="line2d_12">
      <g>
       <use xlink:href="#m91aa7e95b4" x="548.208" y="348.192" style="stroke: #000000; stroke-width: 0.8"/>
      </g>
     </g>
     <g id="text_6">
      <text style="font: 10px 'DejaVu Sans', 'Bitstream Vera Sans', 'Computer Modern Sans Serif', 'Lucida Grande', 'Verdana', 'Geneva', 'Lucid', 'Arial', 'Helvetica', 'Avant Garde', sans-serif; text-anchor: middle" x="548.208" y="362.790438" transform="rotate(-0 548.208 362.790438)">5</text>
     </g>
    </g>
    <g id="xtick_7">
     <g id="line2d_13">
      <path d="M 642.96 348.192 
L 642.96 93.744 
" clip-path="url(#p4190349e2e)" style="fill: none; stroke: #dfe5e8; stroke-width: 0.65; stroke-linecap: square"/>
     </g>
     <g id="line2d_14">
      <g>
       <use xlink:href="#m91aa7e95b4" x="642.96" y="348.192" style="stroke: #000000; stroke-width: 0.8"/>
      </g>
     </g>
     <g id="text_7">
      <text style="font: 10px 'DejaVu Sans', 'Bitstream Vera Sans', 'Computer Modern Sans Serif', 'Lucida Grande', 'Verdana', 'Geneva', 'Lucid', 'Arial', 'Helvetica', 'Avant Garde', sans-serif; text-anchor: middle" x="642.96" y="362.790438" transform="rotate(-0 642.96 362.790438)">6</text>
     </g>
    </g>
    <g id="text_8">
     <text style="font: 10px 'DejaVu Sans', 'Bitstream Vera Sans', 'Computer Modern Sans Serif', 'Lucida Grande', 'Verdana', 'Geneva', 'Lucid', 'Arial', 'Helvetica', 'Avant Garde', sans-serif; text-anchor: middle" x="358.704" y="376.468563" transform="rotate(-0 358.704 376.468563)">sUCS dE threshold</text>
    </g>
   </g>
   <g id="matplotlib.axis_2">
    <g id="ytick_1">
     <g id="line2d_15">
      <path d="M 74.448 348.192 
L 642.96 348.192 
" clip-path="url(#p4190349e2e)" style="fill: none; stroke: #dfe5e8; stroke-width: 0.65; stroke-linecap: square"/>
     </g>
     <g id="line2d_16">
      <defs>
       <path id="m61ba313158" d="M 0 0 
L -3.5 0 
" style="stroke: #000000; stroke-width: 0.8"/>
      </defs>
      <g>
       <use xlink:href="#m61ba313158" x="74.448" y="348.192" style="stroke: #000000; stroke-width: 0.8"/>
      </g>
     </g>
     <g id="text_9">
      <text style="font: 10px 'DejaVu Sans', 'Bitstream Vera Sans', 'Computer Modern Sans Serif', 'Lucida Grande', 'Verdana', 'Geneva', 'Lucid', 'Arial', 'Helvetica', 'Avant Garde', sans-serif; text-anchor: end" x="67.448" y="351.991219" transform="rotate(-0 67.448 351.991219)">0</text>
     </g>
    </g>
    <g id="ytick_2">
     <g id="line2d_17">
      <path d="M 74.448 297.3024 
L 642.96 297.3024 
" clip-path="url(#p4190349e2e)" style="fill: none; stroke: #dfe5e8; stroke-width: 0.65; stroke-linecap: square"/>
     </g>
     <g id="line2d_18">
      <g>
       <use xlink:href="#m61ba313158" x="74.448" y="297.3024" style="stroke: #000000; stroke-width: 0.8"/>
      </g>
     </g>
     <g id="text_10">
      <text style="font: 10px 'DejaVu Sans', 'Bitstream Vera Sans', 'Computer Modern Sans Serif', 'Lucida Grande', 'Verdana', 'Geneva', 'Lucid', 'Arial', 'Helvetica', 'Avant Garde', sans-serif; text-anchor: end" x="67.448" y="301.101619" transform="rotate(-0 67.448 301.101619)">20</text>
     </g>
    </g>
    <g id="ytick_3">
     <g id="line2d_19">
      <path d="M 74.448 246.4128 
L 642.96 246.4128 
" clip-path="url(#p4190349e2e)" style="fill: none; stroke: #dfe5e8; stroke-width: 0.65; stroke-linecap: square"/>
     </g>
     <g id="line2d_20">
      <g>
       <use xlink:href="#m61ba313158" x="74.448" y="246.4128" style="stroke: #000000; stroke-width: 0.8"/>
      </g>
     </g>
     <g id="text_11">
      <text style="font: 10px 'DejaVu Sans', 'Bitstream Vera Sans', 'Computer Modern Sans Serif', 'Lucida Grande', 'Verdana', 'Geneva', 'Lucid', 'Arial', 'Helvetica', 'Avant Garde', sans-serif; text-anchor: end" x="67.448" y="250.212019" transform="rotate(-0 67.448 250.212019)">40</text>
     </g>
    </g>
    <g id="ytick_4">
     <g id="line2d_21">
      <path d="M 74.448 195.5232 
L 642.96 195.5232 
" clip-path="url(#p4190349e2e)" style="fill: none; stroke: #dfe5e8; stroke-width: 0.65; stroke-linecap: square"/>
     </g>
     <g id="line2d_22">
      <g>
       <use xlink:href="#m61ba313158" x="74.448" y="195.5232" style="stroke: #000000; stroke-width: 0.8"/>
      </g>
     </g>
     <g id="text_12">
      <text style="font: 10px 'DejaVu Sans', 'Bitstream Vera Sans', 'Computer Modern Sans Serif', 'Lucida Grande', 'Verdana', 'Geneva', 'Lucid', 'Arial', 'Helvetica', 'Avant Garde', sans-serif; text-anchor: end" x="67.448" y="199.322419" transform="rotate(-0 67.448 199.322419)">60</text>
     </g>
    </g>
    <g id="ytick_5">
     <g id="line2d_23">
      <path d="M 74.448 144.6336 
L 642.96 144.6336 
" clip-path="url(#p4190349e2e)" style="fill: none; stroke: #dfe5e8; stroke-width: 0.65; stroke-linecap: square"/>
     </g>
     <g id="line2d_24">
      <g>
       <use xlink:href="#m61ba313158" x="74.448" y="144.6336" style="stroke: #000000; stroke-width: 0.8"/>
      </g>
     </g>
     <g id="text_13">
      <text style="font: 10px 'DejaVu Sans', 'Bitstream Vera Sans', 'Computer Modern Sans Serif', 'Lucida Grande', 'Verdana', 'Geneva', 'Lucid', 'Arial', 'Helvetica', 'Avant Garde', sans-serif; text-anchor: end" x="67.448" y="148.432819" transform="rotate(-0 67.448 148.432819)">80</text>
     </g>
    </g>
    <g id="ytick_6">
     <g id="line2d_25">
      <path d="M 74.448 93.744 
L 642.96 93.744 
" clip-path="url(#p4190349e2e)" style="fill: none; stroke: #dfe5e8; stroke-width: 0.65; stroke-linecap: square"/>
     </g>
     <g id="line2d_26">
      <g>
       <use xlink:href="#m61ba313158" x="74.448" y="93.744" style="stroke: #000000; stroke-width: 0.8"/>
      </g>
     </g>
     <g id="text_14">
      <text style="font: 10px 'DejaVu Sans', 'Bitstream Vera Sans', 'Computer Modern Sans Serif', 'Lucida Grande', 'Verdana', 'Geneva', 'Lucid', 'Arial', 'Helvetica', 'Avant Garde', sans-serif; text-anchor: end" x="67.448" y="97.543219" transform="rotate(-0 67.448 97.543219)">100</text>
     </g>
    </g>
    <g id="text_15">
     <text style="font: 10px 'DejaVu Sans', 'Bitstream Vera Sans', 'Computer Modern Sans Serif', 'Lucida Grande', 'Verdana', 'Geneva', 'Lucid', 'Arial', 'Helvetica', 'Avant Garde', sans-serif; text-anchor: middle" x="42.280812" y="220.968" transform="rotate(-90 42.280812 220.968)">observers%</text>
    </g>
   </g>
   <g id="line2d_27">
    <path d="M 74.448 348.192 
L 114.24384 348.192 
L 116.13888 346.560923 
L 118.03392 346.560923 
L 119.92896 344.929846 
L 133.19424 344.929846 
L 135.08928 342.736329 
L 136.98432 339.474175 
L 138.87936 339.474175 
L 140.7744 336.212021 
L 150.2496 336.212021 
L 152.14464 334.018504 
L 167.30496 334.018504 
L 169.2 332.387427 
L 176.78016 332.387427 
L 178.6752 330.19391 
L 180.57024 330.19391 
L 182.46528 328.562833 
L 184.36032 328.562833 
L 186.25536 326.931756 
L 190.04544 326.931756 
L 191.94048 320.913645 
L 195.73056 320.913645 
L 197.6256 319.282568 
L 199.52064 317.08905 
L 201.41568 313.264456 
L 205.20576 313.264456 
L 207.1008 311.633379 
L 214.68096 311.633379 
L 216.576 307.808785 
L 218.47104 306.177708 
L 224.15616 306.177708 
L 226.0512 302.353114 
L 235.5264 302.353114 
L 237.42144 299.09096 
L 239.31648 296.897443 
L 241.21152 295.266366 
L 243.10656 295.266366 
L 245.0016 293.635289 
L 250.68672 293.635289 
L 252.58176 292.004212 
L 254.4768 292.004212 
L 256.37184 289.810695 
L 258.26688 288.179618 
L 260.16192 288.179618 
L 262.05696 286.548541 
L 263.952 284.355024 
L 265.84704 284.355024 
L 267.74208 282.723947 
L 277.21728 282.723947 
L 279.11232 280.53043 
L 281.00736 280.53043 
L 282.9024 278.899353 
L 286.69248 278.899353 
L 288.58752 275.637199 
L 290.48256 274.006122 
L 292.3776 271.812605 
L 294.27264 271.812605 
L 298.06272 268.550451 
L 299.95776 264.725857 
L 301.8528 256.008032 
L 305.64288 256.008032 
L 307.53792 252.745878 
L 309.43296 252.745878 
L 311.328 251.114801 
L 313.22304 251.114801 
L 315.11808 247.852647 
L 318.90816 247.852647 
L 324.59328 242.959416 
L 328.38336 242.959416 
L 332.17344 239.697263 
L 335.96352 239.697263 
L 337.85856 235.872668 
L 339.7536 234.241592 
L 345.43872 234.241592 
L 347.33376 232.048074 
L 354.91392 232.048074 
L 356.80896 230.416997 
L 358.704 230.416997 
L 360.59904 228.78592 
L 366.28416 228.78592 
L 370.07424 225.523767 
L 381.44448 225.523767 
L 383.33952 223.330249 
L 387.1296 223.330249 
L 389.02464 215.681061 
L 390.91968 215.681061 
L 398.49984 209.156753 
L 400.39488 205.332159 
L 404.18496 205.332159 
L 406.08 203.701082 
L 413.66016 203.701082 
L 415.5552 201.507565 
L 417.45024 201.507565 
L 419.34528 199.876488 
L 421.24032 199.876488 
L 423.13536 198.245411 
L 425.0304 198.245411 
L 426.92544 196.051894 
L 434.5056 196.051894 
L 436.40064 193.858377 
L 447.77088 193.858377 
L 449.66592 192.2273 
L 455.35104 192.2273 
L 459.14112 188.965146 
L 461.03616 185.702992 
L 474.30144 185.702992 
L 476.19648 184.071915 
L 485.67168 184.071915 
L 487.56672 181.878398 
L 493.25184 181.878398 
L 495.14688 177.491363 
L 512.20224 177.491363 
L 514.09728 175.860286 
L 515.99232 175.860286 
L 517.88736 174.22921 
L 529.2576 174.22921 
L 531.15264 172.035692 
L 533.04768 172.035692 
L 534.94272 169.842175 
L 550.10304 169.842175 
L 551.99808 168.211098 
L 555.78816 168.211098 
L 557.6832 166.017581 
L 563.36832 166.017581 
L 565.26336 164.386504 
L 582.31872 164.386504 
L 584.21376 162.192987 
L 595.584 162.192987 
L 599.37408 157.805952 
L 620.21952 157.805952 
L 622.11456 156.174875 
L 633.4848 156.174875 
L 635.37984 153.981358 
L 642.96 153.981358 
L 642.96 153.981358 
" clip-path="url(#p4190349e2e)" style="fill: none; stroke: #252525; stroke-width: 2.5; stroke-linecap: square"/>
   </g>
   <g id="line2d_28">
    <path d="M 74.448 348.192 
L 148.35456 348.192 
L 150.2496 345.998483 
L 155.93472 345.998483 
L 157.82976 343.804966 
L 172.99008 343.804966 
L 176.78016 339.417931 
L 178.6752 339.417931 
L 180.57024 337.224414 
L 182.46528 337.224414 
L 184.36032 335.030897 
L 186.25536 333.39982 
L 195.73056 333.39982 
L 197.6256 331.768743 
L 199.52064 331.768743 
L 201.41568 329.575225 
L 226.0512 329.575225 
L 227.94624 325.188191 
L 229.84128 325.188191 
L 231.73632 320.801156 
L 239.31648 320.801156 
L 243.10656 316.414122 
L 246.89664 316.414122 
L 248.79168 314.783045 
L 265.84704 314.783045 
L 267.74208 310.396011 
L 271.53216 310.396011 
L 273.4272 308.202493 
L 284.79744 308.202493 
L 286.69248 304.94034 
L 292.3776 304.94034 
L 294.27264 302.746822 
L 307.53792 302.746822 
L 309.43296 301.115745 
L 311.328 295.660074 
L 313.22304 295.660074 
L 315.11808 294.028997 
L 318.90816 289.641963 
L 320.8032 288.010886 
L 324.59328 288.010886 
L 326.48832 284.748732 
L 328.38336 284.748732 
L 330.2784 283.117655 
L 334.06848 283.117655 
L 335.96352 281.486578 
L 339.7536 281.486578 
L 341.64864 279.855501 
L 345.43872 275.468467 
L 347.33376 275.468467 
L 349.2288 271.643873 
L 351.12384 271.643873 
L 353.01888 269.450355 
L 356.80896 269.450355 
L 358.704 265.625761 
L 366.28416 265.625761 
L 368.1792 263.994684 
L 371.96928 263.994684 
L 375.75936 260.732531 
L 383.33952 260.732531 
L 385.23456 259.101454 
L 387.1296 256.907936 
L 389.02464 256.907936 
L 392.81472 253.645782 
L 394.70976 251.452265 
L 396.6048 249.821188 
L 400.39488 249.821188 
L 402.28992 248.190111 
L 407.97504 248.190111 
L 409.87008 246.559034 
L 411.76512 246.559034 
L 413.66016 243.296881 
L 415.5552 243.296881 
L 417.45024 239.472286 
L 423.13536 239.472286 
L 425.0304 237.84121 
L 432.61056 237.84121 
L 434.5056 236.210133 
L 443.9808 236.210133 
L 449.66592 231.316902 
L 451.56096 231.316902 
L 453.456 229.685825 
L 457.24608 222.036637 
L 459.14112 222.036637 
L 461.03616 218.212042 
L 464.82624 214.949889 
L 472.4064 214.949889 
L 474.30144 212.756371 
L 476.19648 211.125294 
L 483.77664 211.125294 
L 487.56672 204.600987 
L 489.46176 204.600987 
L 491.3568 202.96991 
L 498.93696 202.96991 
L 500.832 201.338833 
L 502.72704 201.338833 
L 504.62208 199.707756 
L 506.51712 197.514239 
L 508.41216 195.883162 
L 514.09728 195.883162 
L 519.7824 190.989931 
L 523.57248 186.602897 
L 525.46752 184.97182 
L 527.36256 184.97182 
L 529.2576 183.340743 
L 531.15264 180.078589 
L 536.83776 180.078589 
L 538.7328 177.885072 
L 540.62784 176.253995 
L 544.41792 176.253995 
L 546.31296 174.622918 
L 559.57824 174.622918 
L 561.47328 171.360764 
L 576.6336 171.360764 
L 578.52864 169.167247 
L 580.42368 167.53617 
L 582.31872 165.342653 
L 584.21376 163.711576 
L 589.89888 163.711576 
L 591.79392 162.080499 
L 595.584 162.080499 
L 597.47904 159.886981 
L 603.16416 159.886981 
L 606.95424 156.624828 
L 612.63936 156.624828 
L 614.5344 154.993751 
L 616.42944 152.800233 
L 618.32448 152.800233 
L 620.21952 150.606716 
L 624.0096 150.606716 
L 625.90464 148.413199 
L 627.79968 146.782122 
L 629.69472 146.782122 
L 631.58976 144.588605 
L 642.96 144.588605 
L 642.96 144.588605 
" clip-path="url(#p4190349e2e)" style="fill: none; stroke: #3b83b4; stroke-width: 1.35; stroke-linecap: square"/>
   </g>
   <g id="line2d_29">
    <path d="M 74.448 348.192 
L 102.8736 348.192 
L 104.76864 346.560923 
L 135.08928 346.560923 
L 136.98432 344.929846 
L 142.66944 344.929846 
L 144.56448 343.298769 
L 146.45952 343.298769 
L 148.35456 339.474175 
L 152.14464 339.474175 
L 157.82976 334.580944 
L 167.30496 334.580944 
L 169.2 332.949867 
L 171.09504 332.949867 
L 172.99008 331.31879 
L 178.6752 331.31879 
L 180.57024 329.687714 
L 188.1504 329.687714 
L 190.04544 328.056637 
L 195.73056 328.056637 
L 197.6256 324.232042 
L 199.52064 322.600966 
L 203.31072 318.213931 
L 205.20576 318.213931 
L 207.1008 316.582854 
L 208.99584 316.582854 
L 210.89088 314.951777 
L 216.576 314.951777 
L 218.47104 313.3207 
L 222.26112 313.3207 
L 224.15616 310.058546 
L 229.84128 305.165316 
L 239.31648 305.165316 
L 241.21152 301.903162 
L 243.10656 301.903162 
L 245.0016 300.272085 
L 246.89664 297.009931 
L 258.26688 297.009931 
L 260.16192 290.485623 
L 273.4272 290.485623 
L 275.32224 287.223469 
L 277.21728 285.592393 
L 281.00736 285.592393 
L 282.9024 283.398875 
L 284.79744 278.505645 
L 288.58752 278.505645 
L 290.48256 276.312127 
L 298.06272 276.312127 
L 299.95776 274.68105 
L 301.8528 274.68105 
L 303.74784 270.856456 
L 305.64288 270.856456 
L 307.53792 269.225379 
L 309.43296 265.963225 
L 311.328 264.332149 
L 315.11808 264.332149 
L 317.01312 260.507554 
L 335.96352 260.507554 
L 337.85856 258.314037 
L 339.7536 258.314037 
L 341.64864 256.12052 
L 351.12384 256.12052 
L 353.01888 254.489443 
L 375.75936 254.489443 
L 377.6544 252.858366 
L 379.54944 252.858366 
L 381.44448 251.227289 
L 387.1296 251.227289 
L 390.91968 246.840255 
L 400.39488 246.840255 
L 402.28992 243.578101 
L 404.18496 243.578101 
L 407.97504 239.191066 
L 413.66016 239.191066 
L 415.5552 236.997549 
L 417.45024 235.366472 
L 419.34528 235.366472 
L 421.24032 229.910801 
L 425.0304 229.910801 
L 428.82048 226.648647 
L 430.71552 224.45513 
L 434.5056 224.45513 
L 436.40064 220.630536 
L 443.9808 220.630536 
L 445.87584 218.999459 
L 447.77088 218.999459 
L 449.66592 215.174865 
L 459.14112 215.174865 
L 461.03616 212.981347 
L 478.09152 212.981347 
L 479.98656 209.156753 
L 481.8816 209.156753 
L 483.77664 205.894599 
L 485.67168 204.263523 
L 487.56672 204.263523 
L 489.46176 202.632446 
L 491.3568 202.632446 
L 493.25184 199.370292 
L 497.04192 199.370292 
L 498.93696 197.739215 
L 510.3072 197.739215 
L 512.20224 196.108138 
L 523.57248 196.108138 
L 525.46752 194.477061 
L 544.41792 194.477061 
L 546.31296 192.845984 
L 550.10304 192.845984 
L 551.99808 191.214907 
L 555.78816 191.214907 
L 557.6832 187.952753 
L 567.1584 187.952753 
L 569.05344 185.759236 
L 572.84352 185.759236 
L 574.73856 183.565719 
L 595.584 183.565719 
L 597.47904 179.178684 
L 616.42944 179.178684 
L 618.32448 176.985167 
L 624.0096 176.985167 
L 625.90464 175.35409 
L 642.96 175.35409 
L 642.96 175.35409 
" clip-path="url(#p4190349e2e)" style="fill: none; stroke-dasharray: 4.995,2.16; stroke-dashoffset: 0; stroke: #c38a19; stroke-width: 1.35"/>
   </g>
   <g id="line2d_30">
    <path d="M 74.448 348.192 
L 104.76864 348.192 
L 106.66368 346.560923 
L 129.40416 346.560923 
L 131.2992 344.929846 
L 144.56448 344.929846 
L 146.45952 342.736329 
L 148.35456 342.736329 
L 150.2496 341.105252 
L 159.7248 341.105252 
L 163.51488 337.843098 
L 169.2 337.843098 
L 171.09504 336.212021 
L 172.99008 336.212021 
L 174.88512 334.018504 
L 178.6752 334.018504 
L 180.57024 331.824987 
L 182.46528 330.19391 
L 184.36032 330.19391 
L 186.25536 328.562833 
L 190.04544 328.562833 
L 193.83552 325.300679 
L 199.52064 325.300679 
L 201.41568 321.476085 
L 208.99584 321.476085 
L 210.89088 319.845008 
L 222.26112 319.845008 
L 224.15616 318.213931 
L 233.63136 318.213931 
L 235.5264 316.582854 
L 248.79168 316.582854 
L 250.68672 314.951777 
L 256.37184 314.951777 
L 258.26688 311.689623 
L 260.16192 311.689623 
L 263.952 308.427469 
L 265.84704 308.427469 
L 269.63712 305.165316 
L 271.53216 305.165316 
L 273.4272 301.903162 
L 275.32224 301.903162 
L 281.00736 297.009931 
L 284.79744 297.009931 
L 286.69248 293.185337 
L 288.58752 291.55426 
L 290.48256 288.292106 
L 299.95776 288.292106 
L 301.8528 285.029952 
L 315.11808 285.029952 
L 317.01312 282.836435 
L 318.90816 278.449401 
L 320.8032 275.187247 
L 328.38336 275.187247 
L 330.2784 273.55617 
L 332.17344 273.55617 
L 334.06848 271.925093 
L 335.96352 266.469422 
L 337.85856 264.275905 
L 345.43872 264.275905 
L 347.33376 262.644828 
L 349.2288 262.644828 
L 351.12384 261.013751 
L 356.80896 261.013751 
L 358.704 259.382674 
L 360.59904 259.382674 
L 362.49408 257.189156 
L 364.38912 255.55808 
L 375.75936 255.55808 
L 377.6544 253.927003 
L 381.44448 253.927003 
L 383.33952 251.733485 
L 394.70976 251.733485 
L 396.6048 249.539968 
L 400.39488 249.539968 
L 402.28992 247.908891 
L 404.18496 247.908891 
L 406.08 245.715374 
L 407.97504 244.084297 
L 409.87008 241.89078 
L 419.34528 241.89078 
L 421.24032 239.697263 
L 425.0304 239.697263 
L 426.92544 238.066186 
L 428.82048 235.872668 
L 438.29568 235.872668 
L 440.19072 233.679151 
L 442.08576 233.679151 
L 443.9808 232.048074 
L 447.77088 232.048074 
L 449.66592 229.854557 
L 459.14112 229.854557 
L 461.03616 228.22348 
L 466.72128 228.22348 
L 468.61632 226.029963 
L 472.4064 222.767809 
L 474.30144 222.767809 
L 478.09152 219.505655 
L 483.77664 219.505655 
L 485.67168 215.681061 
L 487.56672 215.681061 
L 489.46176 212.418907 
L 504.62208 212.418907 
L 506.51712 210.78783 
L 510.3072 210.78783 
L 512.20224 209.156753 
L 525.46752 209.156753 
L 527.36256 207.525676 
L 538.7328 207.525676 
L 540.62784 204.263523 
L 542.52288 204.263523 
L 544.41792 201.001369 
L 548.208 201.001369 
L 550.10304 199.370292 
L 551.99808 199.370292 
L 553.89312 197.739215 
L 570.94848 197.739215 
L 572.84352 193.914621 
L 574.73856 193.914621 
L 576.6336 192.283544 
L 584.21376 192.283544 
L 586.1088 190.652467 
L 591.79392 190.652467 
L 593.68896 186.265432 
L 599.37408 186.265432 
L 601.26912 184.634355 
L 610.74432 184.634355 
L 612.63936 183.003279 
L 618.32448 183.003279 
L 620.21952 179.741125 
L 622.11456 179.741125 
L 624.0096 177.547607 
L 642.96 177.547607 
L 642.96 177.547607 
" clip-path="url(#p4190349e2e)" style="fill: none; stroke-dasharray: 1.35,2.2275; stroke-dashoffset: 0; stroke: #7d8a92; stroke-width: 1.35"/>
   </g>
   <g id="line2d_31">
    <path d="M 74.448 348.192 
L 174.88512 348.192 
L 176.78016 346.560923 
L 205.20576 346.560923 
L 207.1008 344.367406 
L 208.99584 342.736329 
L 210.89088 340.542812 
L 229.84128 340.542812 
L 231.73632 338.911735 
L 243.10656 338.911735 
L 245.0016 337.280658 
L 256.37184 337.280658 
L 258.26688 335.649581 
L 260.16192 335.649581 
L 262.05696 334.018504 
L 284.79744 334.018504 
L 286.69248 332.387427 
L 296.16768 332.387427 
L 298.06272 330.19391 
L 309.43296 330.19391 
L 311.328 326.931756 
L 320.8032 326.931756 
L 322.69824 321.476085 
L 330.2784 321.476085 
L 332.17344 318.213931 
L 334.06848 316.582854 
L 354.91392 316.582854 
L 356.80896 314.951777 
L 360.59904 314.951777 
L 362.49408 313.3207 
L 368.1792 313.3207 
L 370.07424 311.127183 
L 371.96928 309.496106 
L 373.86432 309.496106 
L 375.75936 307.865029 
L 381.44448 307.865029 
L 383.33952 306.233952 
L 394.70976 306.233952 
L 396.6048 304.602875 
L 404.18496 304.602875 
L 406.08 302.971798 
L 411.76512 302.971798 
L 413.66016 299.709645 
L 421.24032 299.709645 
L 425.0304 296.447491 
L 426.92544 296.447491 
L 428.82048 294.816414 
L 434.5056 294.816414 
L 436.40064 293.185337 
L 438.29568 293.185337 
L 440.19072 291.55426 
L 445.87584 291.55426 
L 447.77088 289.923183 
L 451.56096 289.923183 
L 455.35104 285.536149 
L 459.14112 285.536149 
L 461.03616 283.905072 
L 466.72128 283.905072 
L 468.61632 280.642918 
L 470.51136 279.011841 
L 474.30144 279.011841 
L 478.09152 275.749687 
L 479.98656 273.55617 
L 489.46176 273.55617 
L 491.3568 271.362653 
L 495.14688 271.362653 
L 497.04192 269.731576 
L 500.832 269.731576 
L 502.72704 265.906981 
L 506.51712 261.519947 
L 508.41216 256.626716 
L 510.3072 256.626716 
L 512.20224 254.433199 
L 514.09728 254.433199 
L 515.99232 252.802122 
L 525.46752 252.802122 
L 531.15264 247.908891 
L 551.99808 247.908891 
L 553.89312 245.715374 
L 559.57824 245.715374 
L 561.47328 243.521857 
L 576.6336 243.521857 
L 578.52864 241.89078 
L 580.42368 241.89078 
L 582.31872 240.259703 
L 584.21376 235.872668 
L 595.584 235.872668 
L 597.47904 233.679151 
L 599.37408 233.679151 
L 601.26912 232.048074 
L 603.16416 232.048074 
L 605.0592 230.416997 
L 608.84928 230.416997 
L 610.74432 228.22348 
L 614.5344 228.22348 
L 616.42944 226.592403 
L 624.0096 226.592403 
L 625.90464 224.398886 
L 627.79968 224.398886 
L 629.69472 222.767809 
L 633.4848 222.767809 
L 635.37984 221.136732 
L 639.16992 221.136732 
L 642.96 217.874578 
L 642.96 217.874578 
" clip-path="url(#p4190349e2e)" style="fill: none; stroke-dasharray: 8.64,2.16,1.35,2.16; stroke-dashoffset: 0; stroke: #d0526a; stroke-width: 1.35"/>
   </g>
   <g id="line2d_32">
    <path d="M 74.448 348.192 
L 129.40416 348.192 
L 131.2992 345.998483 
L 133.19424 345.998483 
L 135.08928 343.804966 
L 152.14464 343.804966 
L 154.03968 341.611448 
L 163.51488 341.611448 
L 165.40992 339.417931 
L 182.46528 339.417931 
L 186.25536 335.030897 
L 197.6256 335.030897 
L 199.52064 332.837379 
L 207.1008 332.837379 
L 208.99584 330.643862 
L 210.89088 330.643862 
L 212.78592 328.450345 
L 224.15616 328.450345 
L 226.0512 326.256828 
L 237.42144 326.256828 
L 239.31648 324.06331 
L 241.21152 324.06331 
L 243.10656 321.869793 
L 248.79168 321.869793 
L 250.68672 319.676276 
L 258.26688 319.676276 
L 262.05696 315.289241 
L 281.00736 315.289241 
L 282.9024 313.095724 
L 288.58752 313.095724 
L 290.48256 310.902207 
L 299.95776 310.902207 
L 301.8528 308.70869 
L 326.48832 308.70869 
L 328.38336 304.321655 
L 339.7536 304.321655 
L 341.64864 302.128138 
L 345.43872 302.128138 
L 347.33376 299.934621 
L 358.704 299.934621 
L 360.59904 297.741103 
L 370.07424 297.741103 
L 373.86432 293.354069 
L 375.75936 293.354069 
L 377.6544 291.722992 
L 387.1296 291.722992 
L 389.02464 289.529475 
L 398.49984 289.529475 
L 400.39488 287.335958 
L 402.28992 285.704881 
L 419.34528 285.704881 
L 421.24032 281.880286 
L 426.92544 281.880286 
L 428.82048 280.24921 
L 430.71552 278.055692 
L 434.5056 278.055692 
L 436.40064 276.424615 
L 440.19072 276.424615 
L 442.08576 274.793538 
L 445.87584 274.793538 
L 447.77088 272.600021 
L 451.56096 272.600021 
L 453.456 270.968944 
L 455.35104 270.968944 
L 457.24608 268.775427 
L 461.03616 268.775427 
L 462.9312 267.14435 
L 466.72128 262.757316 
L 468.61632 262.757316 
L 470.51136 261.126239 
L 472.4064 258.932721 
L 474.30144 258.932721 
L 476.19648 257.301645 
L 478.09152 257.301645 
L 479.98656 255.108127 
L 483.77664 255.108127 
L 485.67168 253.47705 
L 489.46176 253.47705 
L 491.3568 251.283533 
L 493.25184 248.021379 
L 495.14688 246.390302 
L 498.93696 246.390302 
L 502.72704 243.128149 
L 510.3072 243.128149 
L 512.20224 240.934631 
L 515.99232 240.934631 
L 517.88736 238.741114 
L 527.36256 238.741114 
L 529.2576 237.110037 
L 546.31296 237.110037 
L 548.208 234.91652 
L 550.10304 234.91652 
L 551.99808 232.723003 
L 555.78816 229.460849 
L 563.36832 229.460849 
L 565.26336 225.636255 
L 570.94848 225.636255 
L 572.84352 221.24922 
L 576.6336 217.987066 
L 580.42368 217.987066 
L 582.31872 216.355989 
L 586.1088 216.355989 
L 588.00384 214.162472 
L 589.89888 208.144361 
L 597.47904 208.144361 
L 599.37408 205.950844 
L 601.26912 204.319767 
L 603.16416 204.319767 
L 605.0592 202.68869 
L 606.95424 202.68869 
L 608.84928 201.057613 
L 612.63936 201.057613 
L 614.5344 197.233019 
L 624.0096 197.233019 
L 625.90464 195.601942 
L 629.69472 195.601942 
L 635.37984 190.708711 
L 637.27488 190.708711 
L 639.16992 187.446557 
L 641.06496 185.81548 
L 642.96 178.728732 
L 642.96 178.728732 
" clip-path="url(#p4190349e2e)" style="fill: none; stroke-dasharray: 6.75,2.7,1.35,2.7; stroke-dashoffset: 0; stroke: #2f8f84; stroke-width: 1.35"/>
   </g>
   <g id="patch_4">
    <path d="M 74.448 348.192 
L 74.448 93.744 
" style="fill: none; stroke: #000000; stroke-width: 0.8; stroke-linejoin: miter; stroke-linecap: square"/>
   </g>
   <g id="patch_5">
    <path d="M 74.448 348.192 
L 642.96 348.192 
" style="fill: none; stroke: #000000; stroke-width: 0.8; stroke-linejoin: miter; stroke-linecap: square"/>
   </g>
  </g>
  <g id="text_16">
   <text style="font: 18px 'DejaVu Sans', 'Bitstream Vera Sans', 'Computer Modern Sans Serif', 'Lucida Grande', 'Verdana', 'Geneva', 'Lucid', 'Arial', 'Helvetica', 'Avant Garde', sans-serif; text-anchor: start" x="74.448" y="38.229188" transform="rotate(-0 74.448 38.229188)">D50 Direct</text>
  </g>
  <g id="text_17">
   <text style="fill: #66747c; font: 10px 'DejaVu Sans', 'Bitstream Vera Sans', 'Computer Modern Sans Serif', 'Lucida Grande', 'Verdana', 'Geneva', 'Lucid', 'Arial', 'Helvetica', 'Avant Garde', sans-serif; text-anchor: start" x="74.448" y="64.728" transform="rotate(-0 74.448 64.728)">smartphone OLED</text>
  </g>
  <g id="legend_1">
   <g id="line2d_33">
    <path d="M 185.17875 404.151391 
L 194.27875 404.151391 
L 203.37875 404.151391 
" style="fill: none; stroke: #252525; stroke-width: 2.5; stroke-linecap: square"/>
   </g>
   <g id="text_18">
    <text style="font: 9.1px 'DejaVu Sans', 'Bitstream Vera Sans', 'Computer Modern Sans Serif', 'Lucida Grande', 'Verdana', 'Geneva', 'Lucid', 'Arial', 'Helvetica', 'Avant Garde', sans-serif; text-anchor: start" x="210.65875" y="407.336391" transform="rotate(-0 210.65875 407.336391)">Potera CMF</text>
   </g>
   <g id="line2d_34">
    <path d="M 185.17875 417.508484 
L 194.27875 417.508484 
L 203.37875 417.508484 
" style="fill: none; stroke: #3b83b4; stroke-width: 1.35; stroke-linecap: square"/>
   </g>
   <g id="text_19">
    <text style="font: 9.1px 'DejaVu Sans', 'Bitstream Vera Sans', 'Computer Modern Sans Serif', 'Lucida Grande', 'Verdana', 'Geneva', 'Lucid', 'Arial', 'Helvetica', 'Avant Garde', sans-serif; text-anchor: start" x="210.65875" y="420.693484" transform="rotate(-0 210.65875 420.693484)">CIE 2015 2°</text>
   </g>
   <g id="line2d_35">
    <path d="M 282.931234 404.151391 
L 292.031234 404.151391 
L 301.131234 404.151391 
" style="fill: none; stroke-dasharray: 4.995,2.16; stroke-dashoffset: 0; stroke: #c38a19; stroke-width: 1.35"/>
   </g>
   <g id="text_20">
    <text style="font: 9.1px 'DejaVu Sans', 'Bitstream Vera Sans', 'Computer Modern Sans Serif', 'Lucida Grande', 'Verdana', 'Geneva', 'Lucid', 'Arial', 'Helvetica', 'Avant Garde', sans-serif; text-anchor: start" x="308.411234" y="407.336391" transform="rotate(-0 308.411234 407.336391)">CIE 2015 10°</text>
   </g>
   <g id="line2d_36">
    <path d="M 282.931234 417.508484 
L 292.031234 417.508484 
L 301.131234 417.508484 
" style="fill: none; stroke-dasharray: 1.35,2.2275; stroke-dashoffset: 0; stroke: #7d8a92; stroke-width: 1.35"/>
   </g>
   <g id="text_21">
    <text style="font: 9.1px 'DejaVu Sans', 'Bitstream Vera Sans', 'Computer Modern Sans Serif', 'Lucida Grande', 'Verdana', 'Geneva', 'Lucid', 'Arial', 'Helvetica', 'Avant Garde', sans-serif; text-anchor: start" x="308.411234" y="420.693484" transform="rotate(-0 308.411234 420.693484)">CIE 1964 10°</text>
   </g>
   <g id="line2d_37">
    <path d="M 386.473594 404.151391 
L 395.573594 404.151391 
L 404.673594 404.151391 
" style="fill: none; stroke-dasharray: 8.64,2.16,1.35,2.16; stroke-dashoffset: 0; stroke: #d0526a; stroke-width: 1.35"/>
   </g>
   <g id="text_22">
    <text style="font: 9.1px 'DejaVu Sans', 'Bitstream Vera Sans', 'Computer Modern Sans Serif', 'Lucida Grande', 'Verdana', 'Geneva', 'Lucid', 'Arial', 'Helvetica', 'Avant Garde', sans-serif; text-anchor: start" x="411.953594" y="407.336391" transform="rotate(-0 411.953594 407.336391)">CIE 1931 2°</text>
   </g>
   <g id="line2d_38">
    <path d="M 386.473594 417.508484 
L 395.573594 417.508484 
L 404.673594 417.508484 
" style="fill: none; stroke-dasharray: 6.75,2.7,1.35,2.7; stroke-dashoffset: 0; stroke: #2f8f84; stroke-width: 1.35"/>
   </g>
   <g id="text_23">
    <text style="font: 9.1px 'DejaVu Sans', 'Bitstream Vera Sans', 'Computer Modern Sans Serif', 'Lucida Grande', 'Verdana', 'Geneva', 'Lucid', 'Arial', 'Helvetica', 'Avant Garde', sans-serif; text-anchor: start" x="411.953594" y="420.693484" transform="rotate(-0 411.953594 420.693484)">Judd–Vos 1978 2°</text>
   </g>
  </g>
 </g>
 <defs>
  <clipPath id="p4190349e2e">
   <rect x="74.448" y="93.744" width="568.512" height="254.448"/>
  </clipPath>
 </defs>
</svg>
