<?xml version="1.0" encoding="utf-8" standalone="no"?>
<!DOCTYPE svg PUBLIC "-//W3C//DTD SVG 1.1//EN"
  "http://www.w3.org/Graphics/SVG/1.1/DTD/svg11.dtd">
<svg xmlns:xlink="http://www.w3.org/1999/xlink" width="676.8pt" height="446.4pt" viewBox="0 0 676.8 446.4" xmlns="http://www.w3.org/2000/svg" version="1.1">
 <metadata>
  <rdf:RDF xmlns:dc="http://purl.org/dc/elements/1.1/" xmlns:cc="http://creativecommons.org/ns#" xmlns:rdf="http://www.w3.org/1999/02/22-rdf-syntax-ns#">
   <cc:Work>
    <dc:type rdf:resource="http://purl.org/dc/dcmitype/StillImage"/>
    <dc:date>2026-07-20T06:41:55.181126</dc:date>
    <dc:format>image/svg+xml</dc:format>
    <dc:creator>
     <cc:Agent>
      <dc:title>Matplotlib v3.9.4, https://matplotlib.org/</dc:title>
     </cc:Agent>
    </dc:creator>
   </cc:Work>
  </rdf:RDF>
 </metadata>
 <defs>
  <style type="text/css">*{stroke-linejoin: round; stroke-linecap: butt}</style>
 </defs>
 <g id="figure_1">
  <g id="patch_1">
   <path d="M 0 446.4 
L 676.8 446.4 
L 676.8 0 
L 0 0 
z
" style="fill: #ffffff"/>
  </g>
  <g id="axes_1">
   <g id="patch_2">
    <path d="M 74.448 348.192 
L 642.96 348.192 
L 642.96 93.744 
L 74.448 93.744 
z
" style="fill: #ffffff"/>
   </g>
   <g id="patch_3">
    <path d="M 169.2 348.192 
L 358.704 348.192 
L 358.704 93.744 
L 169.2 93.744 
z
" clip-path="url(#p57b9c01e24)" style="fill: #e7f0ea; opacity: 0.58; stroke: #e7f0ea; stroke-linejoin: miter"/>
   </g>
   <g id="matplotlib.axis_1">
    <g id="xtick_1">
     <g id="line2d_1">
      <path d="M 74.448 348.192 
L 74.448 93.744 
" clip-path="url(#p57b9c01e24)" style="fill: none; stroke: #dfe5e8; stroke-width: 0.65; stroke-linecap: square"/>
     </g>
     <g id="line2d_2">
      <defs>
       <path id="m15dfb574ec" d="M 0 0 
L 0 3.5 
" style="stroke: #000000; stroke-width: 0.8"/>
      </defs>
      <g>
       <use xlink:href="#m15dfb574ec" x="74.448" y="348.192" style="stroke: #000000; stroke-width: 0.8"/>
      </g>
     </g>
     <g id="text_1">
      <text style="font: 10px 'DejaVu Sans', 'Bitstream Vera Sans', 'Computer Modern Sans Serif', 'Lucida Grande', 'Verdana', 'Geneva', 'Lucid', 'Arial', 'Helvetica', 'Avant Garde', sans-serif; text-anchor: middle" x="74.448" y="362.790438" transform="rotate(-0 74.448 362.790438)">0</text>
     </g>
    </g>
    <g id="xtick_2">
     <g id="line2d_3">
      <path d="M 169.2 348.192 
L 169.2 93.744 
" clip-path="url(#p57b9c01e24)" style="fill: none; stroke: #dfe5e8; stroke-width: 0.65; stroke-linecap: square"/>
     </g>
     <g id="line2d_4">
      <g>
       <use xlink:href="#m15dfb574ec" x="169.2" y="348.192" style="stroke: #000000; stroke-width: 0.8"/>
      </g>
     </g>
     <g id="text_2">
      <text style="font: 10px 'DejaVu Sans', 'Bitstream Vera Sans', 'Computer Modern Sans Serif', 'Lucida Grande', 'Verdana', 'Geneva', 'Lucid', 'Arial', 'Helvetica', 'Avant Garde', sans-serif; text-anchor: middle" x="169.2" y="362.790438" transform="rotate(-0 169.2 362.790438)">1</text>
     </g>
    </g>
    <g id="xtick_3">
     <g id="line2d_5">
      <path d="M 263.952 348.192 
L 263.952 93.744 
" clip-path="url(#p57b9c01e24)" style="fill: none; stroke: #dfe5e8; stroke-width: 0.65; stroke-linecap: square"/>
     </g>
     <g id="line2d_6">
      <g>
       <use xlink:href="#m15dfb574ec" x="263.952" y="348.192" style="stroke: #000000; stroke-width: 0.8"/>
      </g>
     </g>
     <g id="text_3">
      <text style="font: 10px 'DejaVu Sans', 'Bitstream Vera Sans', 'Computer Modern Sans Serif', 'Lucida Grande', 'Verdana', 'Geneva', 'Lucid', 'Arial', 'Helvetica', 'Avant Garde', sans-serif; text-anchor: middle" x="263.952" y="362.790438" transform="rotate(-0 263.952 362.790438)">2</text>
     </g>
    </g>
    <g id="xtick_4">
     <g id="line2d_7">
      <path d="M 358.704 348.192 
L 358.704 93.744 
" clip-path="url(#p57b9c01e24)" style="fill: none; stroke: #dfe5e8; stroke-width: 0.65; stroke-linecap: square"/>
     </g>
     <g id="line2d_8">
      <g>
       <use xlink:href="#m15dfb574ec" x="358.704" y="348.192" style="stroke: #000000; stroke-width: 0.8"/>
      </g>
     </g>
     <g id="text_4">
      <text style="font: 10px 'DejaVu Sans', 'Bitstream Vera Sans', 'Computer Modern Sans Serif', 'Lucida Grande', 'Verdana', 'Geneva', 'Lucid', 'Arial', 'Helvetica', 'Avant Garde', sans-serif; text-anchor: middle" x="358.704" y="362.790438" transform="rotate(-0 358.704 362.790438)">3</text>
     </g>
    </g>
    <g id="xtick_5">
     <g id="line2d_9">
      <path d="M 453.456 348.192 
L 453.456 93.744 
" clip-path="url(#p57b9c01e24)" style="fill: none; stroke: #dfe5e8; stroke-width: 0.65; stroke-linecap: square"/>
     </g>
     <g id="line2d_10">
      <g>
       <use xlink:href="#m15dfb574ec" x="453.456" y="348.192" style="stroke: #000000; stroke-width: 0.8"/>
      </g>
     </g>
     <g id="text_5">
      <text style="font: 10px 'DejaVu Sans', 'Bitstream Vera Sans', 'Computer Modern Sans Serif', 'Lucida Grande', 'Verdana', 'Geneva', 'Lucid', 'Arial', 'Helvetica', 'Avant Garde', sans-serif; text-anchor: middle" x="453.456" y="362.790438" transform="rotate(-0 453.456 362.790438)">4</text>
     </g>
    </g>
    <g id="xtick_6">
     <g id="line2d_11">
      <path d="M 548.208 348.192 
L 548.208 93.744 
" clip-path="url(#p57b9c01e24)" style="fill: none; stroke: #dfe5e8; stroke-width: 0.65; stroke-linecap: square"/>
     </g>
     <g id="line2d_12">
      <g>
       <use xlink:href="#m15dfb574ec" x="548.208" y="348.192" style="stroke: #000000; stroke-width: 0.8"/>
      </g>
     </g>
     <g id="text_6">
      <text style="font: 10px 'DejaVu Sans', 'Bitstream Vera Sans', 'Computer Modern Sans Serif', 'Lucida Grande', 'Verdana', 'Geneva', 'Lucid', 'Arial', 'Helvetica', 'Avant Garde', sans-serif; text-anchor: middle" x="548.208" y="362.790438" transform="rotate(-0 548.208 362.790438)">5</text>
     </g>
    </g>
    <g id="xtick_7">
     <g id="line2d_13">
      <path d="M 642.96 348.192 
L 642.96 93.744 
" clip-path="url(#p57b9c01e24)" style="fill: none; stroke: #dfe5e8; stroke-width: 0.65; stroke-linecap: square"/>
     </g>
     <g id="line2d_14">
      <g>
       <use xlink:href="#m15dfb574ec" x="642.96" y="348.192" style="stroke: #000000; stroke-width: 0.8"/>
      </g>
     </g>
     <g id="text_7">
      <text style="font: 10px 'DejaVu Sans', 'Bitstream Vera Sans', 'Computer Modern Sans Serif', 'Lucida Grande', 'Verdana', 'Geneva', 'Lucid', 'Arial', 'Helvetica', 'Avant Garde', sans-serif; text-anchor: middle" x="642.96" y="362.790438" transform="rotate(-0 642.96 362.790438)">6</text>
     </g>
    </g>
    <g id="text_8">
     <text style="font: 10px 'DejaVu Sans', 'Bitstream Vera Sans', 'Computer Modern Sans Serif', 'Lucida Grande', 'Verdana', 'Geneva', 'Lucid', 'Arial', 'Helvetica', 'Avant Garde', sans-serif; text-anchor: middle" x="358.704" y="376.468563" transform="rotate(-0 358.704 376.468563)">sUCS dE threshold</text>
    </g>
   </g>
   <g id="matplotlib.axis_2">
    <g id="ytick_1">
     <g id="line2d_15">
      <path d="M 74.448 348.192 
L 642.96 348.192 
" clip-path="url(#p57b9c01e24)" style="fill: none; stroke: #dfe5e8; stroke-width: 0.65; stroke-linecap: square"/>
     </g>
     <g id="line2d_16">
      <defs>
       <path id="m4d7a7eb81a" d="M 0 0 
L -3.5 0 
" style="stroke: #000000; stroke-width: 0.8"/>
      </defs>
      <g>
       <use xlink:href="#m4d7a7eb81a" x="74.448" y="348.192" style="stroke: #000000; stroke-width: 0.8"/>
      </g>
     </g>
     <g id="text_9">
      <text style="font: 10px 'DejaVu Sans', 'Bitstream Vera Sans', 'Computer Modern Sans Serif', 'Lucida Grande', 'Verdana', 'Geneva', 'Lucid', 'Arial', 'Helvetica', 'Avant Garde', sans-serif; text-anchor: end" x="67.448" y="351.991219" transform="rotate(-0 67.448 351.991219)">0</text>
     </g>
    </g>
    <g id="ytick_2">
     <g id="line2d_17">
      <path d="M 74.448 297.3024 
L 642.96 297.3024 
" clip-path="url(#p57b9c01e24)" style="fill: none; stroke: #dfe5e8; stroke-width: 0.65; stroke-linecap: square"/>
     </g>
     <g id="line2d_18">
      <g>
       <use xlink:href="#m4d7a7eb81a" x="74.448" y="297.3024" style="stroke: #000000; stroke-width: 0.8"/>
      </g>
     </g>
     <g id="text_10">
      <text style="font: 10px 'DejaVu Sans', 'Bitstream Vera Sans', 'Computer Modern Sans Serif', 'Lucida Grande', 'Verdana', 'Geneva', 'Lucid', 'Arial', 'Helvetica', 'Avant Garde', sans-serif; text-anchor: end" x="67.448" y="301.101619" transform="rotate(-0 67.448 301.101619)">20</text>
     </g>
    </g>
    <g id="ytick_3">
     <g id="line2d_19">
      <path d="M 74.448 246.4128 
L 642.96 246.4128 
" clip-path="url(#p57b9c01e24)" style="fill: none; stroke: #dfe5e8; stroke-width: 0.65; stroke-linecap: square"/>
     </g>
     <g id="line2d_20">
      <g>
       <use xlink:href="#m4d7a7eb81a" x="74.448" y="246.4128" style="stroke: #000000; stroke-width: 0.8"/>
      </g>
     </g>
     <g id="text_11">
      <text style="font: 10px 'DejaVu Sans', 'Bitstream Vera Sans', 'Computer Modern Sans Serif', 'Lucida Grande', 'Verdana', 'Geneva', 'Lucid', 'Arial', 'Helvetica', 'Avant Garde', sans-serif; text-anchor: end" x="67.448" y="250.212019" transform="rotate(-0 67.448 250.212019)">40</text>
     </g>
    </g>
    <g id="ytick_4">
     <g id="line2d_21">
      <path d="M 74.448 195.5232 
L 642.96 195.5232 
" clip-path="url(#p57b9c01e24)" style="fill: none; stroke: #dfe5e8; stroke-width: 0.65; stroke-linecap: square"/>
     </g>
     <g id="line2d_22">
      <g>
       <use xlink:href="#m4d7a7eb81a" x="74.448" y="195.5232" style="stroke: #000000; stroke-width: 0.8"/>
      </g>
     </g>
     <g id="text_12">
      <text style="font: 10px 'DejaVu Sans', 'Bitstream Vera Sans', 'Computer Modern Sans Serif', 'Lucida Grande', 'Verdana', 'Geneva', 'Lucid', 'Arial', 'Helvetica', 'Avant Garde', sans-serif; text-anchor: end" x="67.448" y="199.322419" transform="rotate(-0 67.448 199.322419)">60</text>
     </g>
    </g>
    <g id="ytick_5">
     <g id="line2d_23">
      <path d="M 74.448 144.6336 
L 642.96 144.6336 
" clip-path="url(#p57b9c01e24)" style="fill: none; stroke: #dfe5e8; stroke-width: 0.65; stroke-linecap: square"/>
     </g>
     <g id="line2d_24">
      <g>
       <use xlink:href="#m4d7a7eb81a" x="74.448" y="144.6336" style="stroke: #000000; stroke-width: 0.8"/>
      </g>
     </g>
     <g id="text_13">
      <text style="font: 10px 'DejaVu Sans', 'Bitstream Vera Sans', 'Computer Modern Sans Serif', 'Lucida Grande', 'Verdana', 'Geneva', 'Lucid', 'Arial', 'Helvetica', 'Avant Garde', sans-serif; text-anchor: end" x="67.448" y="148.432819" transform="rotate(-0 67.448 148.432819)">80</text>
     </g>
    </g>
    <g id="ytick_6">
     <g id="line2d_25">
      <path d="M 74.448 93.744 
L 642.96 93.744 
" clip-path="url(#p57b9c01e24)" style="fill: none; stroke: #dfe5e8; stroke-width: 0.65; stroke-linecap: square"/>
     </g>
     <g id="line2d_26">
      <g>
       <use xlink:href="#m4d7a7eb81a" x="74.448" y="93.744" style="stroke: #000000; stroke-width: 0.8"/>
      </g>
     </g>
     <g id="text_14">
      <text style="font: 10px 'DejaVu Sans', 'Bitstream Vera Sans', 'Computer Modern Sans Serif', 'Lucida Grande', 'Verdana', 'Geneva', 'Lucid', 'Arial', 'Helvetica', 'Avant Garde', sans-serif; text-anchor: end" x="67.448" y="97.543219" transform="rotate(-0 67.448 97.543219)">100</text>
     </g>
    </g>
    <g id="text_15">
     <text style="font: 10px 'DejaVu Sans', 'Bitstream Vera Sans', 'Computer Modern Sans Serif', 'Lucida Grande', 'Verdana', 'Geneva', 'Lucid', 'Arial', 'Helvetica', 'Avant Garde', sans-serif; text-anchor: middle" x="42.280812" y="220.968" transform="rotate(-90 42.280812 220.968)">observers%</text>
    </g>
   </g>
   <g id="line2d_27">
    <path d="M 74.448 348.192 
L 95.29344 348.192 
L 97.18848 346.560923 
L 99.08352 346.560923 
L 100.97856 344.929846 
L 112.3488 344.929846 
L 114.24384 343.298769 
L 123.71904 343.298769 
L 125.61408 341.667692 
L 133.19424 341.667692 
L 135.08928 340.036615 
L 136.98432 337.843098 
L 138.87936 336.212021 
L 140.7744 336.212021 
L 142.66944 328.000393 
L 144.56448 326.369316 
L 154.03968 326.369316 
L 155.93472 324.175798 
L 163.51488 324.175798 
L 165.40992 321.982281 
L 169.2 318.720127 
L 171.09504 318.720127 
L 172.99008 315.457973 
L 178.6752 315.457973 
L 180.57024 313.826897 
L 186.25536 313.826897 
L 190.04544 310.564743 
L 195.73056 310.564743 
L 197.6256 308.933666 
L 199.52064 305.671512 
L 201.41568 304.040435 
L 203.31072 304.040435 
L 205.20576 301.846918 
L 207.1008 300.215841 
L 214.68096 300.215841 
L 216.576 298.584764 
L 218.47104 296.391247 
L 220.36608 292.004212 
L 222.26112 288.742058 
L 226.0512 288.742058 
L 227.94624 283.848828 
L 229.84128 283.848828 
L 231.73632 278.955597 
L 235.5264 278.955597 
L 237.42144 277.32452 
L 243.10656 277.32452 
L 245.0016 275.693443 
L 246.89664 275.693443 
L 250.68672 272.431289 
L 252.58176 269.169135 
L 254.4768 269.169135 
L 256.37184 267.538058 
L 260.16192 267.538058 
L 262.05696 264.275905 
L 265.84704 264.275905 
L 267.74208 262.082387 
L 269.63712 262.082387 
L 275.32224 257.189156 
L 279.11232 257.189156 
L 281.00736 253.927003 
L 282.9024 252.295926 
L 284.79744 252.295926 
L 286.69248 250.102408 
L 290.48256 250.102408 
L 292.3776 247.908891 
L 294.27264 244.646737 
L 296.16768 240.822143 
L 298.06272 239.191066 
L 299.95776 239.191066 
L 301.8528 237.559989 
L 303.74784 230.473241 
L 305.64288 228.842164 
L 311.328 228.842164 
L 313.22304 227.211088 
L 330.2784 227.211088 
L 332.17344 221.755416 
L 334.06848 221.755416 
L 335.96352 220.12434 
L 337.85856 216.862186 
L 341.64864 216.862186 
L 343.54368 215.231109 
L 345.43872 215.231109 
L 349.2288 211.968955 
L 351.12384 211.968955 
L 353.01888 210.337878 
L 354.91392 208.144361 
L 356.80896 203.25113 
L 362.49408 203.25113 
L 366.28416 198.864095 
L 370.07424 198.864095 
L 371.96928 196.670578 
L 373.86432 196.670578 
L 375.75936 192.283544 
L 377.6544 192.283544 
L 379.54944 190.090027 
L 381.44448 190.090027 
L 383.33952 187.896509 
L 390.91968 187.896509 
L 392.81472 185.702992 
L 402.28992 185.702992 
L 404.18496 183.509475 
L 406.08 183.509475 
L 407.97504 181.878398 
L 423.13536 181.878398 
L 425.0304 180.247321 
L 430.71552 180.247321 
L 432.61056 178.053804 
L 438.29568 178.053804 
L 440.19072 174.79165 
L 442.08576 173.160573 
L 449.66592 173.160573 
L 451.56096 170.967056 
L 466.72128 170.967056 
L 468.61632 168.773538 
L 470.51136 167.142462 
L 487.56672 167.142462 
L 489.46176 164.948944 
L 502.72704 164.948944 
L 504.62208 163.317867 
L 506.51712 163.317867 
L 508.41216 161.12435 
L 510.3072 161.12435 
L 512.20224 159.493273 
L 514.09728 159.493273 
L 515.99232 157.862196 
L 527.36256 157.862196 
L 529.2576 155.668679 
L 531.15264 155.668679 
L 533.04768 151.281645 
L 551.99808 151.281645 
L 553.89312 149.088127 
L 555.78816 147.45705 
L 557.6832 147.45705 
L 559.57824 145.263533 
L 591.79392 145.263533 
L 593.68896 143.070016 
L 595.584 143.070016 
L 597.47904 140.876499 
L 603.16416 140.876499 
L 606.95424 136.489464 
L 614.5344 136.489464 
L 618.32448 132.10243 
L 620.21952 132.10243 
L 622.11456 129.908912 
L 642.96 129.908912 
L 642.96 129.908912 
" clip-path="url(#p57b9c01e24)" style="fill: none; stroke: #252525; stroke-width: 2.5; stroke-linecap: square"/>
   </g>
   <g id="line2d_28">
    <path d="M 74.448 348.192 
L 125.61408 348.192 
L 129.40416 343.804966 
L 131.2992 343.804966 
L 133.19424 341.611448 
L 146.45952 341.611448 
L 148.35456 337.224414 
L 155.93472 337.224414 
L 157.82976 335.593337 
L 161.61984 335.593337 
L 163.51488 333.39982 
L 172.99008 333.39982 
L 174.88512 331.768743 
L 178.6752 327.381708 
L 186.25536 327.381708 
L 190.04544 322.994674 
L 191.94048 322.994674 
L 193.83552 321.363597 
L 195.73056 321.363597 
L 197.6256 319.73252 
L 199.52064 319.73252 
L 201.41568 315.907926 
L 205.20576 311.520891 
L 207.1008 308.258737 
L 208.99584 308.258737 
L 210.89088 306.06522 
L 218.47104 306.06522 
L 220.36608 300.609549 
L 227.94624 300.609549 
L 229.84128 298.978472 
L 231.73632 298.978472 
L 233.63136 297.347395 
L 239.31648 297.347395 
L 241.21152 295.153878 
L 243.10656 295.153878 
L 245.0016 290.766844 
L 246.89664 287.50469 
L 248.79168 285.873613 
L 258.26688 285.873613 
L 260.16192 284.242536 
L 262.05696 280.417942 
L 267.74208 280.417942 
L 269.63712 278.786865 
L 271.53216 274.962271 
L 273.4272 274.962271 
L 275.32224 273.331194 
L 277.21728 273.331194 
L 279.11232 270.06904 
L 281.00736 270.06904 
L 282.9024 268.437963 
L 288.58752 268.437963 
L 290.48256 266.244446 
L 299.95776 266.244446 
L 301.8528 264.613369 
L 303.74784 264.613369 
L 305.64288 262.419851 
L 311.328 262.419851 
L 313.22304 258.032817 
L 317.01312 258.032817 
L 318.90816 256.40174 
L 320.8032 256.40174 
L 322.69824 254.770663 
L 324.59328 254.770663 
L 326.48832 253.139586 
L 335.96352 253.139586 
L 337.85856 247.683915 
L 341.64864 244.421761 
L 343.54368 244.421761 
L 345.43872 235.703936 
L 347.33376 235.703936 
L 349.2288 234.072859 
L 351.12384 234.072859 
L 354.91392 230.810706 
L 358.704 224.286398 
L 360.59904 224.286398 
L 364.38912 221.024244 
L 370.07424 221.024244 
L 371.96928 217.76209 
L 375.75936 214.499936 
L 381.44448 214.499936 
L 385.23456 211.237782 
L 387.1296 211.237782 
L 389.02464 207.975629 
L 390.91968 207.975629 
L 392.81472 205.782111 
L 394.70976 205.782111 
L 396.6048 203.588594 
L 400.39488 203.588594 
L 402.28992 201.957517 
L 406.08 201.957517 
L 407.97504 198.132923 
L 409.87008 196.501846 
L 411.76512 196.501846 
L 413.66016 194.308329 
L 415.5552 194.308329 
L 417.45024 192.677252 
L 423.13536 192.677252 
L 425.0304 191.046175 
L 426.92544 187.784021 
L 428.82048 185.590504 
L 430.71552 181.76591 
L 434.5056 181.76591 
L 436.40064 180.134833 
L 438.29568 180.134833 
L 440.19072 178.503756 
L 442.08576 176.310239 
L 443.9808 174.679162 
L 455.35104 174.679162 
L 457.24608 170.854568 
L 461.03616 170.854568 
L 462.9312 167.592414 
L 464.82624 167.592414 
L 468.61632 163.205379 
L 470.51136 163.205379 
L 472.4064 161.011862 
L 474.30144 161.011862 
L 476.19648 158.818345 
L 478.09152 158.818345 
L 479.98656 157.187268 
L 485.67168 157.187268 
L 487.56672 155.556191 
L 495.14688 155.556191 
L 497.04192 153.925114 
L 498.93696 153.925114 
L 500.832 150.10052 
L 506.51712 150.10052 
L 508.41216 145.713485 
L 510.3072 143.519968 
L 519.7824 143.519968 
L 521.67744 141.326451 
L 523.57248 139.695374 
L 527.36256 139.695374 
L 529.2576 137.501857 
L 540.62784 137.501857 
L 542.52288 135.87078 
L 546.31296 135.87078 
L 548.208 134.239703 
L 578.52864 134.239703 
L 580.42368 130.977549 
L 586.1088 130.977549 
L 589.89888 126.590515 
L 595.584 126.590515 
L 597.47904 124.959438 
L 610.74432 124.959438 
L 612.63936 122.76592 
L 642.96 122.76592 
L 642.96 122.76592 
" clip-path="url(#p57b9c01e24)" style="fill: none; stroke: #3b83b4; stroke-width: 1.35; stroke-linecap: square"/>
   </g>
   <g id="line2d_29">
    <path d="M 74.448 348.192 
L 93.3984 348.192 
L 95.29344 346.560923 
L 106.66368 346.560923 
L 108.55872 344.929846 
L 118.03392 344.929846 
L 121.824 341.667692 
L 125.61408 341.667692 
L 127.50912 337.843098 
L 142.66944 337.843098 
L 144.56448 336.212021 
L 146.45952 336.212021 
L 148.35456 334.580944 
L 154.03968 334.580944 
L 155.93472 332.949867 
L 157.82976 332.949867 
L 159.7248 331.31879 
L 163.51488 331.31879 
L 165.40992 329.687714 
L 184.36032 329.687714 
L 188.1504 326.42556 
L 190.04544 326.42556 
L 191.94048 323.163406 
L 199.52064 323.163406 
L 201.41568 318.270175 
L 203.31072 315.008021 
L 205.20576 315.008021 
L 207.1008 312.814504 
L 218.47104 312.814504 
L 220.36608 311.183427 
L 222.26112 311.183427 
L 226.0512 307.921273 
L 231.73632 307.921273 
L 233.63136 304.659119 
L 243.10656 304.659119 
L 246.89664 301.396966 
L 250.68672 301.396966 
L 252.58176 298.134812 
L 254.4768 296.503735 
L 263.952 296.503735 
L 265.84704 294.872658 
L 269.63712 294.872658 
L 271.53216 293.241581 
L 273.4272 289.979427 
L 277.21728 286.717273 
L 279.11232 282.892679 
L 284.79744 282.892679 
L 286.69248 280.699162 
L 290.48256 277.437008 
L 292.3776 277.437008 
L 294.27264 275.243491 
L 296.16768 271.981337 
L 298.06272 269.78782 
L 299.95776 269.78782 
L 301.8528 265.963225 
L 303.74784 264.332149 
L 309.43296 264.332149 
L 311.328 262.701072 
L 313.22304 262.701072 
L 315.11808 257.245401 
L 317.01312 255.051883 
L 324.59328 255.051883 
L 326.48832 252.858366 
L 347.33376 252.858366 
L 349.2288 251.227289 
L 351.12384 249.033772 
L 358.704 249.033772 
L 360.59904 247.402695 
L 364.38912 247.402695 
L 366.28416 245.771618 
L 370.07424 245.771618 
L 371.96928 244.140541 
L 377.6544 244.140541 
L 381.44448 240.878387 
L 385.23456 236.491353 
L 389.02464 233.229199 
L 390.91968 233.229199 
L 392.81472 229.967045 
L 394.70976 228.335968 
L 396.6048 228.335968 
L 398.49984 226.704891 
L 404.18496 226.704891 
L 406.08 225.073814 
L 409.87008 225.073814 
L 411.76512 221.24922 
L 413.66016 221.24922 
L 415.5552 217.424626 
L 428.82048 217.424626 
L 430.71552 215.793549 
L 432.61056 211.968955 
L 438.29568 211.968955 
L 442.08576 204.319767 
L 443.9808 204.319767 
L 447.77088 201.057613 
L 449.66592 198.864095 
L 455.35104 198.864095 
L 457.24608 197.233019 
L 470.51136 197.233019 
L 472.4064 195.601942 
L 476.19648 195.601942 
L 478.09152 191.777347 
L 479.98656 191.777347 
L 481.8816 190.146271 
L 483.77664 186.321676 
L 519.7824 186.321676 
L 521.67744 182.497082 
L 525.46752 182.497082 
L 527.36256 180.303565 
L 536.83776 180.303565 
L 538.7328 178.110048 
L 542.52288 178.110048 
L 544.41792 175.916531 
L 553.89312 175.916531 
L 555.78816 174.285454 
L 559.57824 174.285454 
L 561.47328 172.091936 
L 563.36832 170.460859 
L 570.94848 170.460859 
L 572.84352 168.829782 
L 593.68896 168.829782 
L 595.584 166.636265 
L 597.47904 166.636265 
L 599.37408 165.005188 
L 612.63936 165.005188 
L 614.5344 160.618154 
L 620.21952 160.618154 
L 622.11456 158.987077 
L 631.58976 158.987077 
L 633.4848 156.79356 
L 642.96 156.79356 
L 642.96 156.79356 
" clip-path="url(#p57b9c01e24)" style="fill: none; stroke-dasharray: 4.995,2.16; stroke-dashoffset: 0; stroke: #c38a19; stroke-width: 1.35"/>
   </g>
   <g id="line2d_30">
    <path d="M 74.448 348.192 
L 123.71904 348.192 
L 125.61408 345.998483 
L 131.2992 345.998483 
L 133.19424 342.736329 
L 140.7744 342.736329 
L 144.56448 339.474175 
L 150.2496 339.474175 
L 152.14464 337.843098 
L 167.30496 337.843098 
L 169.2 334.580944 
L 174.88512 329.687714 
L 182.46528 329.687714 
L 184.36032 328.056637 
L 186.25536 325.863119 
L 188.1504 325.863119 
L 191.94048 322.600966 
L 201.41568 322.600966 
L 203.31072 320.969889 
L 212.78592 320.969889 
L 214.68096 319.338812 
L 226.0512 319.338812 
L 227.94624 316.076658 
L 229.84128 313.883141 
L 235.5264 313.883141 
L 237.42144 312.252064 
L 241.21152 312.252064 
L 243.10656 308.98991 
L 246.89664 308.98991 
L 248.79168 304.096679 
L 250.68672 304.096679 
L 252.58176 301.903162 
L 256.37184 298.641008 
L 258.26688 298.641008 
L 260.16192 295.378854 
L 262.05696 293.747777 
L 263.952 293.747777 
L 265.84704 292.1167 
L 267.74208 292.1167 
L 269.63712 289.923183 
L 275.32224 289.923183 
L 277.21728 288.292106 
L 284.79744 288.292106 
L 286.69248 286.661029 
L 288.58752 281.205358 
L 290.48256 276.818324 
L 294.27264 276.818324 
L 296.16768 272.993729 
L 298.06272 272.993729 
L 299.95776 270.800212 
L 305.64288 265.906981 
L 307.53792 265.906981 
L 309.43296 264.275905 
L 311.328 264.275905 
L 313.22304 262.082387 
L 326.48832 262.082387 
L 328.38336 257.189156 
L 332.17344 253.927003 
L 335.96352 253.927003 
L 337.85856 252.295926 
L 349.2288 252.295926 
L 351.12384 250.664849 
L 370.07424 250.664849 
L 371.96928 248.471332 
L 373.86432 248.471332 
L 377.6544 244.084297 
L 385.23456 244.084297 
L 387.1296 242.45322 
L 389.02464 242.45322 
L 390.91968 236.997549 
L 392.81472 236.997549 
L 394.70976 230.979438 
L 406.08 230.979438 
L 407.97504 229.348361 
L 409.87008 226.086207 
L 417.45024 226.086207 
L 419.34528 222.261613 
L 421.24032 218.999459 
L 425.0304 215.737305 
L 426.92544 215.737305 
L 428.82048 214.106228 
L 432.61056 214.106228 
L 434.5056 212.475151 
L 438.29568 212.475151 
L 440.19072 210.281634 
L 443.9808 207.01948 
L 445.87584 207.01948 
L 447.77088 204.825963 
L 455.35104 204.825963 
L 457.24608 203.194886 
L 459.14112 201.001369 
L 468.61632 201.001369 
L 470.51136 199.370292 
L 474.30144 199.370292 
L 476.19648 196.108138 
L 485.67168 196.108138 
L 487.56672 194.477061 
L 489.46176 194.477061 
L 493.25184 191.214907 
L 498.93696 191.214907 
L 500.832 189.02139 
L 502.72704 189.02139 
L 504.62208 187.390313 
L 508.41216 187.390313 
L 510.3072 185.196796 
L 515.99232 185.196796 
L 517.88736 183.003279 
L 521.67744 183.003279 
L 523.57248 181.372202 
L 527.36256 181.372202 
L 529.2576 179.741125 
L 531.15264 179.741125 
L 533.04768 177.547607 
L 538.7328 177.547607 
L 540.62784 175.916531 
L 557.6832 175.916531 
L 559.57824 174.285454 
L 563.36832 174.285454 
L 565.26336 172.091936 
L 589.89888 172.091936 
L 591.79392 169.898419 
L 603.16416 169.898419 
L 605.0592 167.704902 
L 608.84928 167.704902 
L 610.74432 166.073825 
L 612.63936 166.073825 
L 614.5344 164.442748 
L 618.32448 164.442748 
L 620.21952 162.811671 
L 624.0096 162.811671 
L 625.90464 160.618154 
L 633.4848 160.618154 
L 635.37984 158.424637 
L 642.96 158.424637 
L 642.96 158.424637 
" clip-path="url(#p57b9c01e24)" style="fill: none; stroke-dasharray: 1.35,2.2275; stroke-dashoffset: 0; stroke: #7d8a92; stroke-width: 1.35"/>
   </g>
   <g id="line2d_31">
    <path d="M 74.448 348.192 
L 171.09504 348.192 
L 172.99008 345.998483 
L 174.88512 344.367406 
L 190.04544 344.367406 
L 191.94048 342.736329 
L 212.78592 342.736329 
L 214.68096 341.105252 
L 220.36608 341.105252 
L 222.26112 339.474175 
L 224.15616 339.474175 
L 226.0512 337.280658 
L 237.42144 337.280658 
L 239.31648 335.649581 
L 277.21728 335.649581 
L 279.11232 334.018504 
L 281.00736 334.018504 
L 282.9024 332.387427 
L 284.79744 332.387427 
L 286.69248 330.19391 
L 307.53792 330.19391 
L 309.43296 328.562833 
L 326.48832 328.562833 
L 328.38336 326.369316 
L 330.2784 323.107162 
L 332.17344 323.107162 
L 334.06848 321.476085 
L 337.85856 321.476085 
L 339.7536 319.845008 
L 341.64864 319.845008 
L 343.54368 318.213931 
L 345.43872 318.213931 
L 349.2288 314.951777 
L 358.704 314.951777 
L 360.59904 313.3207 
L 364.38912 313.3207 
L 366.28416 311.689623 
L 371.96928 311.689623 
L 373.86432 310.058546 
L 381.44448 310.058546 
L 383.33952 306.796393 
L 385.23456 304.602875 
L 389.02464 304.602875 
L 390.91968 302.971798 
L 421.24032 302.971798 
L 423.13536 301.340721 
L 426.92544 301.340721 
L 428.82048 299.709645 
L 430.71552 299.709645 
L 432.61056 298.078568 
L 434.5056 294.816414 
L 440.19072 294.816414 
L 442.08576 293.185337 
L 447.77088 293.185337 
L 449.66592 290.99182 
L 451.56096 289.360743 
L 457.24608 289.360743 
L 459.14112 287.729666 
L 461.03616 287.729666 
L 462.9312 286.098589 
L 464.82624 283.905072 
L 466.72128 283.905072 
L 468.61632 282.273995 
L 472.4064 282.273995 
L 476.19648 279.011841 
L 485.67168 279.011841 
L 487.56672 276.818324 
L 489.46176 276.818324 
L 491.3568 274.624806 
L 497.04192 269.731576 
L 498.93696 269.731576 
L 500.832 265.344541 
L 504.62208 265.344541 
L 508.41216 262.082387 
L 510.3072 258.820233 
L 512.20224 257.189156 
L 514.09728 257.189156 
L 517.88736 252.802122 
L 529.2576 252.802122 
L 531.15264 251.171045 
L 533.04768 251.171045 
L 534.94272 249.539968 
L 536.83776 246.277814 
L 544.41792 246.277814 
L 546.31296 244.084297 
L 548.208 244.084297 
L 550.10304 242.45322 
L 561.47328 242.45322 
L 563.36832 238.066186 
L 570.94848 238.066186 
L 572.84352 235.872668 
L 574.73856 235.872668 
L 576.6336 233.679151 
L 580.42368 233.679151 
L 584.21376 230.416997 
L 586.1088 230.416997 
L 588.00384 228.78592 
L 589.89888 228.78592 
L 591.79392 227.154844 
L 593.68896 227.154844 
L 595.584 223.89269 
L 597.47904 220.068095 
L 606.95424 220.068095 
L 608.84928 217.874578 
L 610.74432 217.874578 
L 612.63936 216.243501 
L 614.5344 216.243501 
L 616.42944 212.981347 
L 618.32448 212.981347 
L 622.11456 209.719194 
L 624.0096 209.719194 
L 625.90464 208.088117 
L 631.58976 208.088117 
L 633.4848 206.45704 
L 639.16992 206.45704 
L 641.06496 204.825963 
L 642.96 204.825963 
L 642.96 204.825963 
" clip-path="url(#p57b9c01e24)" style="fill: none; stroke-dasharray: 8.64,2.16,1.35,2.16; stroke-dashoffset: 0; stroke: #d0526a; stroke-width: 1.35"/>
   </g>
   <g id="line2d_32">
    <path d="M 74.448 348.192 
L 102.8736 348.192 
L 104.76864 345.998483 
L 131.2992 345.998483 
L 133.19424 343.804966 
L 140.7744 343.804966 
L 142.66944 341.611448 
L 154.03968 341.611448 
L 159.7248 335.030897 
L 172.99008 335.030897 
L 176.78016 330.643862 
L 188.1504 330.643862 
L 193.83552 324.06331 
L 195.73056 324.06331 
L 199.52064 319.676276 
L 207.1008 319.676276 
L 208.99584 317.482759 
L 220.36608 317.482759 
L 222.26112 315.289241 
L 226.0512 315.289241 
L 227.94624 313.095724 
L 254.4768 313.095724 
L 260.16192 306.515172 
L 267.74208 306.515172 
L 269.63712 304.884095 
L 271.53216 304.884095 
L 273.4272 302.690578 
L 290.48256 302.690578 
L 292.3776 300.497061 
L 294.27264 300.497061 
L 296.16768 298.865984 
L 298.06272 298.865984 
L 299.95776 297.234907 
L 305.64288 297.234907 
L 307.53792 295.04139 
L 311.328 295.04139 
L 313.22304 293.410313 
L 317.01312 293.410313 
L 318.90816 291.216796 
L 320.8032 291.216796 
L 322.69824 289.023279 
L 326.48832 289.023279 
L 328.38336 286.829761 
L 335.96352 286.829761 
L 337.85856 284.636244 
L 339.7536 283.005167 
L 341.64864 279.180573 
L 345.43872 275.918419 
L 347.33376 275.918419 
L 349.2288 273.724902 
L 351.12384 269.900308 
L 353.01888 268.269231 
L 356.80896 268.269231 
L 358.704 266.075714 
L 360.59904 266.075714 
L 362.49408 263.882196 
L 364.38912 260.057602 
L 366.28416 257.864085 
L 373.86432 257.864085 
L 375.75936 255.670568 
L 379.54944 255.670568 
L 381.44448 254.039491 
L 385.23456 254.039491 
L 387.1296 252.408414 
L 396.6048 252.408414 
L 398.49984 248.58382 
L 402.28992 248.58382 
L 404.18496 244.759225 
L 409.87008 244.759225 
L 411.76512 243.128149 
L 423.13536 243.128149 
L 425.0304 241.497072 
L 426.92544 241.497072 
L 428.82048 239.865995 
L 430.71552 237.672477 
L 434.5056 237.672477 
L 436.40064 232.216806 
L 443.9808 232.216806 
L 445.87584 226.198695 
L 447.77088 226.198695 
L 449.66592 221.81166 
L 453.456 214.162472 
L 455.35104 214.162472 
L 459.14112 209.775438 
L 461.03616 206.513284 
L 464.82624 203.25113 
L 468.61632 203.25113 
L 470.51136 201.620053 
L 472.4064 201.620053 
L 474.30144 199.426536 
L 481.8816 199.426536 
L 483.77664 197.795459 
L 485.67168 195.601942 
L 487.56672 195.601942 
L 489.46176 191.777347 
L 491.3568 190.146271 
L 497.04192 190.146271 
L 498.93696 188.515194 
L 500.832 188.515194 
L 506.51712 183.621963 
L 508.41216 183.621963 
L 510.3072 181.990886 
L 512.20224 175.972775 
L 514.09728 174.341698 
L 517.88736 174.341698 
L 521.67744 171.079544 
L 525.46752 171.079544 
L 527.36256 169.448467 
L 529.2576 169.448467 
L 531.15264 167.81739 
L 533.04768 167.81739 
L 538.7328 162.924159 
L 550.10304 162.924159 
L 551.99808 159.662005 
L 553.89312 157.468488 
L 555.78816 157.468488 
L 557.6832 155.837411 
L 561.47328 155.837411 
L 563.36832 153.643894 
L 569.05344 153.643894 
L 570.94848 148.750663 
L 572.84352 148.750663 
L 574.73856 145.488509 
L 576.6336 145.488509 
L 578.52864 143.857432 
L 589.89888 143.857432 
L 591.79392 140.595279 
L 593.68896 138.964202 
L 595.584 138.964202 
L 597.47904 137.333125 
L 618.32448 137.333125 
L 622.11456 134.070971 
L 624.0096 134.070971 
L 625.90464 128.6153 
L 642.96 128.6153 
L 642.96 128.6153 
" clip-path="url(#p57b9c01e24)" style="fill: none; stroke-dasharray: 6.75,2.7,1.35,2.7; stroke-dashoffset: 0; stroke: #2f8f84; stroke-width: 1.35"/>
   </g>
   <g id="patch_4">
    <path d="M 74.448 348.192 
L 74.448 93.744 
" style="fill: none; stroke: #000000; stroke-width: 0.8; stroke-linejoin: miter; stroke-linecap: square"/>
   </g>
   <g id="patch_5">
    <path d="M 74.448 348.192 
L 642.96 348.192 
" style="fill: none; stroke: #000000; stroke-width: 0.8; stroke-linejoin: miter; stroke-linecap: square"/>
   </g>
  </g>
  <g id="text_16">
   <text style="font: 18px 'DejaVu Sans', 'Bitstream Vera Sans', 'Computer Modern Sans Serif', 'Lucida Grande', 'Verdana', 'Geneva', 'Lucid', 'Arial', 'Helvetica', 'Avant Garde', sans-serif; text-anchor: start" x="74.448" y="38.229188" transform="rotate(-0 74.448 38.229188)">D50 Direct</text>
  </g>
  <g id="text_17">
   <text style="fill: #66747c; font: 10px 'DejaVu Sans', 'Bitstream Vera Sans', 'Computer Modern Sans Serif', 'Lucida Grande', 'Verdana', 'Geneva', 'Lucid', 'Arial', 'Helvetica', 'Avant Garde', sans-serif; text-anchor: start" x="74.448" y="64.728" transform="rotate(-0 74.448 64.728)">WLED LCD</text>
  </g>
  <g id="legend_1">
   <g id="line2d_33">
    <path d="M 185.17875 404.151391 
L 194.27875 404.151391 
L 203.37875 404.151391 
" style="fill: none; stroke: #252525; stroke-width: 2.5; stroke-linecap: square"/>
   </g>
   <g id="text_18">
    <text style="font: 9.1px 'DejaVu Sans', 'Bitstream Vera Sans', 'Computer Modern Sans Serif', 'Lucida Grande', 'Verdana', 'Geneva', 'Lucid', 'Arial', 'Helvetica', 'Avant Garde', sans-serif; text-anchor: start" x="210.65875" y="407.336391" transform="rotate(-0 210.65875 407.336391)">Potera CMF</text>
   </g>
   <g id="line2d_34">
    <path d="M 185.17875 417.508484 
L 194.27875 417.508484 
L 203.37875 417.508484 
" style="fill: none; stroke: #3b83b4; stroke-width: 1.35; stroke-linecap: square"/>
   </g>
   <g id="text_19">
    <text style="font: 9.1px 'DejaVu Sans', 'Bitstream Vera Sans', 'Computer Modern Sans Serif', 'Lucida Grande', 'Verdana', 'Geneva', 'Lucid', 'Arial', 'Helvetica', 'Avant Garde', sans-serif; text-anchor: start" x="210.65875" y="420.693484" transform="rotate(-0 210.65875 420.693484)">CIE 2015 2°</text>
   </g>
   <g id="line2d_35">
    <path d="M 282.931234 404.151391 
L 292.031234 404.151391 
L 301.131234 404.151391 
" style="fill: none; stroke-dasharray: 4.995,2.16; stroke-dashoffset: 0; stroke: #c38a19; stroke-width: 1.35"/>
   </g>
   <g id="text_20">
    <text style="font: 9.1px 'DejaVu Sans', 'Bitstream Vera Sans', 'Computer Modern Sans Serif', 'Lucida Grande', 'Verdana', 'Geneva', 'Lucid', 'Arial', 'Helvetica', 'Avant Garde', sans-serif; text-anchor: start" x="308.411234" y="407.336391" transform="rotate(-0 308.411234 407.336391)">CIE 2015 10°</text>
   </g>
   <g id="line2d_36">
    <path d="M 282.931234 417.508484 
L 292.031234 417.508484 
L 301.131234 417.508484 
" style="fill: none; stroke-dasharray: 1.35,2.2275; stroke-dashoffset: 0; stroke: #7d8a92; stroke-width: 1.35"/>
   </g>
   <g id="text_21">
    <text style="font: 9.1px 'DejaVu Sans', 'Bitstream Vera Sans', 'Computer Modern Sans Serif', 'Lucida Grande', 'Verdana', 'Geneva', 'Lucid', 'Arial', 'Helvetica', 'Avant Garde', sans-serif; text-anchor: start" x="308.411234" y="420.693484" transform="rotate(-0 308.411234 420.693484)">CIE 1964 10°</text>
   </g>
   <g id="line2d_37">
    <path d="M 386.473594 404.151391 
L 395.573594 404.151391 
L 404.673594 404.151391 
" style="fill: none; stroke-dasharray: 8.64,2.16,1.35,2.16; stroke-dashoffset: 0; stroke: #d0526a; stroke-width: 1.35"/>
   </g>
   <g id="text_22">
    <text style="font: 9.1px 'DejaVu Sans', 'Bitstream Vera Sans', 'Computer Modern Sans Serif', 'Lucida Grande', 'Verdana', 'Geneva', 'Lucid', 'Arial', 'Helvetica', 'Avant Garde', sans-serif; text-anchor: start" x="411.953594" y="407.336391" transform="rotate(-0 411.953594 407.336391)">CIE 1931 2°</text>
   </g>
   <g id="line2d_38">
    <path d="M 386.473594 417.508484 
L 395.573594 417.508484 
L 404.673594 417.508484 
" style="fill: none; stroke-dasharray: 6.75,2.7,1.35,2.7; stroke-dashoffset: 0; stroke: #2f8f84; stroke-width: 1.35"/>
   </g>
   <g id="text_23">
    <text style="font: 9.1px 'DejaVu Sans', 'Bitstream Vera Sans', 'Computer Modern Sans Serif', 'Lucida Grande', 'Verdana', 'Geneva', 'Lucid', 'Arial', 'Helvetica', 'Avant Garde', sans-serif; text-anchor: start" x="411.953594" y="420.693484" transform="rotate(-0 411.953594 420.693484)">Judd–Vos 1978 2°</text>
   </g>
  </g>
 </g>
 <defs>
  <clipPath id="p57b9c01e24">
   <rect x="74.448" y="93.744" width="568.512" height="254.448"/>
  </clipPath>
 </defs>
</svg>
