<?xml version="1.0" encoding="utf-8" standalone="no"?>
<!DOCTYPE svg PUBLIC "-//W3C//DTD SVG 1.1//EN"
  "http://www.w3.org/Graphics/SVG/1.1/DTD/svg11.dtd">
<svg xmlns:xlink="http://www.w3.org/1999/xlink" width="676.8pt" height="446.4pt" viewBox="0 0 676.8 446.4" xmlns="http://www.w3.org/2000/svg" version="1.1">
 <metadata>
  <rdf:RDF xmlns:dc="http://purl.org/dc/elements/1.1/" xmlns:cc="http://creativecommons.org/ns#" xmlns:rdf="http://www.w3.org/1999/02/22-rdf-syntax-ns#">
   <cc:Work>
    <dc:type rdf:resource="http://purl.org/dc/dcmitype/StillImage"/>
    <dc:date>2026-07-20T06:41:55.023559</dc:date>
    <dc:format>image/svg+xml</dc:format>
    <dc:creator>
     <cc:Agent>
      <dc:title>Matplotlib v3.9.4, https://matplotlib.org/</dc:title>
     </cc:Agent>
    </dc:creator>
   </cc:Work>
  </rdf:RDF>
 </metadata>
 <defs>
  <style type="text/css">*{stroke-linejoin: round; stroke-linecap: butt}</style>
 </defs>
 <g id="figure_1">
  <g id="patch_1">
   <path d="M 0 446.4 
L 676.8 446.4 
L 676.8 0 
L 0 0 
z
" style="fill: #ffffff"/>
  </g>
  <g id="axes_1">
   <g id="patch_2">
    <path d="M 74.448 348.192 
L 642.96 348.192 
L 642.96 93.744 
L 74.448 93.744 
z
" style="fill: #ffffff"/>
   </g>
   <g id="patch_3">
    <path d="M 169.2 348.192 
L 358.704 348.192 
L 358.704 93.744 
L 169.2 93.744 
z
" clip-path="url(#p2d7d585bbc)" style="fill: #e7f0ea; opacity: 0.58; stroke: #e7f0ea; stroke-linejoin: miter"/>
   </g>
   <g id="matplotlib.axis_1">
    <g id="xtick_1">
     <g id="line2d_1">
      <path d="M 74.448 348.192 
L 74.448 93.744 
" clip-path="url(#p2d7d585bbc)" style="fill: none; stroke: #dfe5e8; stroke-width: 0.65; stroke-linecap: square"/>
     </g>
     <g id="line2d_2">
      <defs>
       <path id="m3bd19ad45c" d="M 0 0 
L 0 3.5 
" style="stroke: #000000; stroke-width: 0.8"/>
      </defs>
      <g>
       <use xlink:href="#m3bd19ad45c" x="74.448" y="348.192" style="stroke: #000000; stroke-width: 0.8"/>
      </g>
     </g>
     <g id="text_1">
      <text style="font: 10px 'DejaVu Sans', 'Bitstream Vera Sans', 'Computer Modern Sans Serif', 'Lucida Grande', 'Verdana', 'Geneva', 'Lucid', 'Arial', 'Helvetica', 'Avant Garde', sans-serif; text-anchor: middle" x="74.448" y="362.790438" transform="rotate(-0 74.448 362.790438)">0</text>
     </g>
    </g>
    <g id="xtick_2">
     <g id="line2d_3">
      <path d="M 169.2 348.192 
L 169.2 93.744 
" clip-path="url(#p2d7d585bbc)" style="fill: none; stroke: #dfe5e8; stroke-width: 0.65; stroke-linecap: square"/>
     </g>
     <g id="line2d_4">
      <g>
       <use xlink:href="#m3bd19ad45c" x="169.2" y="348.192" style="stroke: #000000; stroke-width: 0.8"/>
      </g>
     </g>
     <g id="text_2">
      <text style="font: 10px 'DejaVu Sans', 'Bitstream Vera Sans', 'Computer Modern Sans Serif', 'Lucida Grande', 'Verdana', 'Geneva', 'Lucid', 'Arial', 'Helvetica', 'Avant Garde', sans-serif; text-anchor: middle" x="169.2" y="362.790438" transform="rotate(-0 169.2 362.790438)">1</text>
     </g>
    </g>
    <g id="xtick_3">
     <g id="line2d_5">
      <path d="M 263.952 348.192 
L 263.952 93.744 
" clip-path="url(#p2d7d585bbc)" style="fill: none; stroke: #dfe5e8; stroke-width: 0.65; stroke-linecap: square"/>
     </g>
     <g id="line2d_6">
      <g>
       <use xlink:href="#m3bd19ad45c" x="263.952" y="348.192" style="stroke: #000000; stroke-width: 0.8"/>
      </g>
     </g>
     <g id="text_3">
      <text style="font: 10px 'DejaVu Sans', 'Bitstream Vera Sans', 'Computer Modern Sans Serif', 'Lucida Grande', 'Verdana', 'Geneva', 'Lucid', 'Arial', 'Helvetica', 'Avant Garde', sans-serif; text-anchor: middle" x="263.952" y="362.790438" transform="rotate(-0 263.952 362.790438)">2</text>
     </g>
    </g>
    <g id="xtick_4">
     <g id="line2d_7">
      <path d="M 358.704 348.192 
L 358.704 93.744 
" clip-path="url(#p2d7d585bbc)" style="fill: none; stroke: #dfe5e8; stroke-width: 0.65; stroke-linecap: square"/>
     </g>
     <g id="line2d_8">
      <g>
       <use xlink:href="#m3bd19ad45c" x="358.704" y="348.192" style="stroke: #000000; stroke-width: 0.8"/>
      </g>
     </g>
     <g id="text_4">
      <text style="font: 10px 'DejaVu Sans', 'Bitstream Vera Sans', 'Computer Modern Sans Serif', 'Lucida Grande', 'Verdana', 'Geneva', 'Lucid', 'Arial', 'Helvetica', 'Avant Garde', sans-serif; text-anchor: middle" x="358.704" y="362.790438" transform="rotate(-0 358.704 362.790438)">3</text>
     </g>
    </g>
    <g id="xtick_5">
     <g id="line2d_9">
      <path d="M 453.456 348.192 
L 453.456 93.744 
" clip-path="url(#p2d7d585bbc)" style="fill: none; stroke: #dfe5e8; stroke-width: 0.65; stroke-linecap: square"/>
     </g>
     <g id="line2d_10">
      <g>
       <use xlink:href="#m3bd19ad45c" x="453.456" y="348.192" style="stroke: #000000; stroke-width: 0.8"/>
      </g>
     </g>
     <g id="text_5">
      <text style="font: 10px 'DejaVu Sans', 'Bitstream Vera Sans', 'Computer Modern Sans Serif', 'Lucida Grande', 'Verdana', 'Geneva', 'Lucid', 'Arial', 'Helvetica', 'Avant Garde', sans-serif; text-anchor: middle" x="453.456" y="362.790438" transform="rotate(-0 453.456 362.790438)">4</text>
     </g>
    </g>
    <g id="xtick_6">
     <g id="line2d_11">
      <path d="M 548.208 348.192 
L 548.208 93.744 
" clip-path="url(#p2d7d585bbc)" style="fill: none; stroke: #dfe5e8; stroke-width: 0.65; stroke-linecap: square"/>
     </g>
     <g id="line2d_12">
      <g>
       <use xlink:href="#m3bd19ad45c" x="548.208" y="348.192" style="stroke: #000000; stroke-width: 0.8"/>
      </g>
     </g>
     <g id="text_6">
      <text style="font: 10px 'DejaVu Sans', 'Bitstream Vera Sans', 'Computer Modern Sans Serif', 'Lucida Grande', 'Verdana', 'Geneva', 'Lucid', 'Arial', 'Helvetica', 'Avant Garde', sans-serif; text-anchor: middle" x="548.208" y="362.790438" transform="rotate(-0 548.208 362.790438)">5</text>
     </g>
    </g>
    <g id="xtick_7">
     <g id="line2d_13">
      <path d="M 642.96 348.192 
L 642.96 93.744 
" clip-path="url(#p2d7d585bbc)" style="fill: none; stroke: #dfe5e8; stroke-width: 0.65; stroke-linecap: square"/>
     </g>
     <g id="line2d_14">
      <g>
       <use xlink:href="#m3bd19ad45c" x="642.96" y="348.192" style="stroke: #000000; stroke-width: 0.8"/>
      </g>
     </g>
     <g id="text_7">
      <text style="font: 10px 'DejaVu Sans', 'Bitstream Vera Sans', 'Computer Modern Sans Serif', 'Lucida Grande', 'Verdana', 'Geneva', 'Lucid', 'Arial', 'Helvetica', 'Avant Garde', sans-serif; text-anchor: middle" x="642.96" y="362.790438" transform="rotate(-0 642.96 362.790438)">6</text>
     </g>
    </g>
    <g id="text_8">
     <text style="font: 10px 'DejaVu Sans', 'Bitstream Vera Sans', 'Computer Modern Sans Serif', 'Lucida Grande', 'Verdana', 'Geneva', 'Lucid', 'Arial', 'Helvetica', 'Avant Garde', sans-serif; text-anchor: middle" x="358.704" y="376.468563" transform="rotate(-0 358.704 376.468563)">sUCS dE threshold</text>
    </g>
   </g>
   <g id="matplotlib.axis_2">
    <g id="ytick_1">
     <g id="line2d_15">
      <path d="M 74.448 348.192 
L 642.96 348.192 
" clip-path="url(#p2d7d585bbc)" style="fill: none; stroke: #dfe5e8; stroke-width: 0.65; stroke-linecap: square"/>
     </g>
     <g id="line2d_16">
      <defs>
       <path id="m7348909dcb" d="M 0 0 
L -3.5 0 
" style="stroke: #000000; stroke-width: 0.8"/>
      </defs>
      <g>
       <use xlink:href="#m7348909dcb" x="74.448" y="348.192" style="stroke: #000000; stroke-width: 0.8"/>
      </g>
     </g>
     <g id="text_9">
      <text style="font: 10px 'DejaVu Sans', 'Bitstream Vera Sans', 'Computer Modern Sans Serif', 'Lucida Grande', 'Verdana', 'Geneva', 'Lucid', 'Arial', 'Helvetica', 'Avant Garde', sans-serif; text-anchor: end" x="67.448" y="351.991219" transform="rotate(-0 67.448 351.991219)">0</text>
     </g>
    </g>
    <g id="ytick_2">
     <g id="line2d_17">
      <path d="M 74.448 297.3024 
L 642.96 297.3024 
" clip-path="url(#p2d7d585bbc)" style="fill: none; stroke: #dfe5e8; stroke-width: 0.65; stroke-linecap: square"/>
     </g>
     <g id="line2d_18">
      <g>
       <use xlink:href="#m7348909dcb" x="74.448" y="297.3024" style="stroke: #000000; stroke-width: 0.8"/>
      </g>
     </g>
     <g id="text_10">
      <text style="font: 10px 'DejaVu Sans', 'Bitstream Vera Sans', 'Computer Modern Sans Serif', 'Lucida Grande', 'Verdana', 'Geneva', 'Lucid', 'Arial', 'Helvetica', 'Avant Garde', sans-serif; text-anchor: end" x="67.448" y="301.101619" transform="rotate(-0 67.448 301.101619)">20</text>
     </g>
    </g>
    <g id="ytick_3">
     <g id="line2d_19">
      <path d="M 74.448 246.4128 
L 642.96 246.4128 
" clip-path="url(#p2d7d585bbc)" style="fill: none; stroke: #dfe5e8; stroke-width: 0.65; stroke-linecap: square"/>
     </g>
     <g id="line2d_20">
      <g>
       <use xlink:href="#m7348909dcb" x="74.448" y="246.4128" style="stroke: #000000; stroke-width: 0.8"/>
      </g>
     </g>
     <g id="text_11">
      <text style="font: 10px 'DejaVu Sans', 'Bitstream Vera Sans', 'Computer Modern Sans Serif', 'Lucida Grande', 'Verdana', 'Geneva', 'Lucid', 'Arial', 'Helvetica', 'Avant Garde', sans-serif; text-anchor: end" x="67.448" y="250.212019" transform="rotate(-0 67.448 250.212019)">40</text>
     </g>
    </g>
    <g id="ytick_4">
     <g id="line2d_21">
      <path d="M 74.448 195.5232 
L 642.96 195.5232 
" clip-path="url(#p2d7d585bbc)" style="fill: none; stroke: #dfe5e8; stroke-width: 0.65; stroke-linecap: square"/>
     </g>
     <g id="line2d_22">
      <g>
       <use xlink:href="#m7348909dcb" x="74.448" y="195.5232" style="stroke: #000000; stroke-width: 0.8"/>
      </g>
     </g>
     <g id="text_12">
      <text style="font: 10px 'DejaVu Sans', 'Bitstream Vera Sans', 'Computer Modern Sans Serif', 'Lucida Grande', 'Verdana', 'Geneva', 'Lucid', 'Arial', 'Helvetica', 'Avant Garde', sans-serif; text-anchor: end" x="67.448" y="199.322419" transform="rotate(-0 67.448 199.322419)">60</text>
     </g>
    </g>
    <g id="ytick_5">
     <g id="line2d_23">
      <path d="M 74.448 144.6336 
L 642.96 144.6336 
" clip-path="url(#p2d7d585bbc)" style="fill: none; stroke: #dfe5e8; stroke-width: 0.65; stroke-linecap: square"/>
     </g>
     <g id="line2d_24">
      <g>
       <use xlink:href="#m7348909dcb" x="74.448" y="144.6336" style="stroke: #000000; stroke-width: 0.8"/>
      </g>
     </g>
     <g id="text_13">
      <text style="font: 10px 'DejaVu Sans', 'Bitstream Vera Sans', 'Computer Modern Sans Serif', 'Lucida Grande', 'Verdana', 'Geneva', 'Lucid', 'Arial', 'Helvetica', 'Avant Garde', sans-serif; text-anchor: end" x="67.448" y="148.432819" transform="rotate(-0 67.448 148.432819)">80</text>
     </g>
    </g>
    <g id="ytick_6">
     <g id="line2d_25">
      <path d="M 74.448 93.744 
L 642.96 93.744 
" clip-path="url(#p2d7d585bbc)" style="fill: none; stroke: #dfe5e8; stroke-width: 0.65; stroke-linecap: square"/>
     </g>
     <g id="line2d_26">
      <g>
       <use xlink:href="#m7348909dcb" x="74.448" y="93.744" style="stroke: #000000; stroke-width: 0.8"/>
      </g>
     </g>
     <g id="text_14">
      <text style="font: 10px 'DejaVu Sans', 'Bitstream Vera Sans', 'Computer Modern Sans Serif', 'Lucida Grande', 'Verdana', 'Geneva', 'Lucid', 'Arial', 'Helvetica', 'Avant Garde', sans-serif; text-anchor: end" x="67.448" y="97.543219" transform="rotate(-0 67.448 97.543219)">100</text>
     </g>
    </g>
    <g id="text_15">
     <text style="font: 10px 'DejaVu Sans', 'Bitstream Vera Sans', 'Computer Modern Sans Serif', 'Lucida Grande', 'Verdana', 'Geneva', 'Lucid', 'Arial', 'Helvetica', 'Avant Garde', sans-serif; text-anchor: middle" x="42.280812" y="220.968" transform="rotate(-90 42.280812 220.968)">observers%</text>
    </g>
   </g>
   <g id="line2d_27">
    <path d="M 74.448 348.192 
L 112.3488 348.192 
L 114.24384 345.998483 
L 125.61408 345.998483 
L 129.40416 342.736329 
L 131.2992 338.911735 
L 135.08928 338.911735 
L 136.98432 335.649581 
L 138.87936 335.649581 
L 140.7744 331.824987 
L 142.66944 330.19391 
L 150.2496 330.19391 
L 152.14464 328.562833 
L 155.93472 328.562833 
L 157.82976 323.107162 
L 159.7248 323.107162 
L 161.61984 319.845008 
L 163.51488 314.951777 
L 165.40992 309.496106 
L 167.30496 307.865029 
L 174.88512 307.865029 
L 176.78016 305.671512 
L 180.57024 305.671512 
L 182.46528 304.040435 
L 184.36032 304.040435 
L 188.1504 297.516127 
L 190.04544 297.516127 
L 191.94048 295.88505 
L 193.83552 292.060456 
L 195.73056 288.798302 
L 197.6256 288.798302 
L 199.52064 284.973708 
L 201.41568 281.711554 
L 212.78592 271.925093 
L 214.68096 268.662939 
L 216.576 268.662939 
L 218.47104 266.469422 
L 220.36608 264.838345 
L 226.0512 264.838345 
L 227.94624 261.576191 
L 231.73632 261.576191 
L 233.63136 259.945114 
L 235.5264 259.945114 
L 237.42144 256.12052 
L 241.21152 256.12052 
L 243.10656 254.489443 
L 245.0016 254.489443 
L 248.79168 251.227289 
L 250.68672 251.227289 
L 252.58176 249.596212 
L 256.37184 249.596212 
L 258.26688 246.334058 
L 260.16192 244.140541 
L 262.05696 244.140541 
L 263.952 242.509464 
L 269.63712 242.509464 
L 271.53216 238.12243 
L 273.4272 233.229199 
L 275.32224 231.598122 
L 279.11232 231.598122 
L 281.00736 229.404605 
L 282.9024 229.404605 
L 284.79744 227.211088 
L 286.69248 225.580011 
L 288.58752 222.317857 
L 292.3776 222.317857 
L 296.16768 219.055703 
L 307.53792 219.055703 
L 309.43296 215.231109 
L 311.328 215.231109 
L 317.01312 210.337878 
L 318.90816 210.337878 
L 320.8032 208.144361 
L 324.59328 208.144361 
L 326.48832 205.950844 
L 328.38336 205.950844 
L 330.2784 202.68869 
L 345.43872 202.68869 
L 347.33376 201.057613 
L 349.2288 197.795459 
L 351.12384 195.601942 
L 362.49408 195.601942 
L 364.38912 193.970865 
L 366.28416 193.970865 
L 368.1792 191.777347 
L 370.07424 190.146271 
L 371.96928 190.146271 
L 375.75936 185.759236 
L 394.70976 185.759236 
L 396.6048 184.128159 
L 398.49984 181.934642 
L 400.39488 180.303565 
L 402.28992 180.303565 
L 404.18496 178.110048 
L 409.87008 178.110048 
L 411.76512 176.478971 
L 415.5552 176.478971 
L 417.45024 174.285454 
L 438.29568 174.285454 
L 440.19072 172.654377 
L 453.456 172.654377 
L 455.35104 171.0233 
L 461.03616 171.0233 
L 462.9312 167.198706 
L 497.04192 167.198706 
L 498.93696 165.005188 
L 510.3072 165.005188 
L 512.20224 162.811671 
L 514.09728 162.811671 
L 515.99232 160.618154 
L 523.57248 160.618154 
L 525.46752 158.424637 
L 529.2576 158.424637 
L 531.15264 156.231119 
L 572.84352 156.231119 
L 574.73856 154.037602 
L 576.6336 150.213008 
L 591.79392 150.213008 
L 593.68896 145.825973 
L 599.37408 145.825973 
L 601.26912 143.632456 
L 608.84928 143.632456 
L 610.74432 142.001379 
L 612.63936 139.807862 
L 631.58976 139.807862 
L 633.4848 137.614345 
L 642.96 137.614345 
L 642.96 137.614345 
" clip-path="url(#p2d7d585bbc)" style="fill: none; stroke: #252525; stroke-width: 2.5; stroke-linecap: square"/>
   </g>
   <g id="line2d_28">
    <path d="M 74.448 348.192 
L 87.71328 348.192 
L 89.60832 345.998483 
L 135.08928 345.998483 
L 136.98432 344.367406 
L 138.87936 340.542812 
L 140.7744 338.911735 
L 146.45952 338.911735 
L 148.35456 336.718218 
L 159.7248 336.718218 
L 165.40992 331.824987 
L 167.30496 331.824987 
L 169.2 330.19391 
L 171.09504 328.000393 
L 176.78016 328.000393 
L 178.6752 324.738239 
L 184.36032 324.738239 
L 188.1504 321.476085 
L 199.52064 321.476085 
L 201.41568 319.282568 
L 203.31072 317.651491 
L 205.20576 313.264456 
L 207.1008 307.246345 
L 208.99584 307.246345 
L 210.89088 305.615268 
L 214.68096 301.228233 
L 227.94624 301.228233 
L 231.73632 294.703926 
L 233.63136 293.072849 
L 235.5264 293.072849 
L 239.31648 289.810695 
L 241.21152 287.617178 
L 246.89664 287.617178 
L 248.79168 285.42366 
L 250.68672 282.161507 
L 252.58176 282.161507 
L 254.4768 278.336912 
L 256.37184 276.705836 
L 258.26688 274.512318 
L 262.05696 274.512318 
L 263.952 272.318801 
L 265.84704 270.687724 
L 267.74208 270.687724 
L 269.63712 267.42557 
L 284.79744 267.42557 
L 286.69248 265.232053 
L 288.58752 263.600976 
L 292.3776 259.213942 
L 294.27264 257.582865 
L 296.16768 257.582865 
L 298.06272 255.951788 
L 305.64288 255.951788 
L 309.43296 252.689634 
L 311.328 246.671523 
L 313.22304 246.671523 
L 315.11808 245.040446 
L 317.01312 245.040446 
L 318.90816 242.846928 
L 320.8032 239.022334 
L 324.59328 239.022334 
L 326.48832 235.19774 
L 328.38336 235.19774 
L 330.2784 233.566663 
L 335.96352 233.566663 
L 337.85856 231.373146 
L 339.7536 229.742069 
L 341.64864 227.548552 
L 345.43872 227.548552 
L 347.33376 225.355034 
L 351.12384 225.355034 
L 353.01888 223.723958 
L 354.91392 220.461804 
L 360.59904 220.461804 
L 362.49408 218.830727 
L 364.38912 218.830727 
L 368.1792 215.568573 
L 370.07424 211.743979 
L 373.86432 211.743979 
L 375.75936 206.850748 
L 377.6544 205.219671 
L 381.44448 205.219671 
L 383.33952 203.026154 
L 385.23456 199.764 
L 389.02464 199.764 
L 390.91968 196.501846 
L 392.81472 194.308329 
L 394.70976 194.308329 
L 396.6048 192.114812 
L 400.39488 192.114812 
L 402.28992 189.921294 
L 404.18496 189.921294 
L 406.08 187.727777 
L 409.87008 187.727777 
L 411.76512 186.0967 
L 415.5552 186.0967 
L 419.34528 182.834546 
L 421.24032 182.834546 
L 423.13536 181.203469 
L 425.0304 181.203469 
L 426.92544 179.572393 
L 428.82048 179.572393 
L 430.71552 177.378875 
L 432.61056 175.747798 
L 438.29568 175.747798 
L 440.19072 173.554281 
L 442.08576 173.554281 
L 443.9808 171.360764 
L 445.87584 171.360764 
L 447.77088 169.729687 
L 449.66592 167.53617 
L 455.35104 167.53617 
L 457.24608 163.711576 
L 466.72128 163.711576 
L 468.61632 161.518058 
L 474.30144 161.518058 
L 476.19648 159.324541 
L 478.09152 159.324541 
L 479.98656 157.693464 
L 481.8816 157.693464 
L 483.77664 156.062387 
L 491.3568 156.062387 
L 493.25184 154.43131 
L 497.04192 154.43131 
L 498.93696 152.800233 
L 510.3072 152.800233 
L 512.20224 148.975639 
L 517.88736 148.975639 
L 519.7824 146.782122 
L 527.36256 146.782122 
L 531.15264 143.519968 
L 542.52288 143.519968 
L 546.31296 140.257814 
L 553.89312 140.257814 
L 555.78816 138.626737 
L 559.57824 138.626737 
L 561.47328 136.43322 
L 572.84352 136.43322 
L 574.73856 134.802143 
L 589.89888 134.802143 
L 593.68896 130.415109 
L 597.47904 130.415109 
L 599.37408 128.784032 
L 605.0592 128.784032 
L 606.95424 127.152955 
L 608.84928 124.959438 
L 624.0096 124.959438 
L 625.90464 122.76592 
L 642.96 122.76592 
L 642.96 122.76592 
" clip-path="url(#p2d7d585bbc)" style="fill: none; stroke: #3b83b4; stroke-width: 1.35; stroke-linecap: square"/>
   </g>
   <g id="line2d_29">
    <path d="M 74.448 348.192 
L 110.45376 348.192 
L 114.24384 341.667692 
L 119.92896 341.667692 
L 121.824 338.405538 
L 127.50912 338.405538 
L 129.40416 336.774462 
L 135.08928 336.774462 
L 136.98432 335.143385 
L 140.7744 335.143385 
L 142.66944 332.949867 
L 150.2496 332.949867 
L 152.14464 331.31879 
L 155.93472 324.794483 
L 157.82976 324.794483 
L 159.7248 323.163406 
L 161.61984 318.270175 
L 163.51488 318.270175 
L 165.40992 316.639098 
L 169.2 316.639098 
L 172.99008 313.376944 
L 174.88512 311.183427 
L 176.78016 309.55235 
L 180.57024 309.55235 
L 182.46528 307.921273 
L 184.36032 307.921273 
L 186.25536 306.290196 
L 191.94048 306.290196 
L 193.83552 304.659119 
L 199.52064 304.659119 
L 201.41568 303.028042 
L 208.99584 303.028042 
L 210.89088 301.396966 
L 212.78592 299.203448 
L 214.68096 295.941294 
L 220.36608 295.941294 
L 222.26112 292.1167 
L 226.0512 292.1167 
L 229.84128 288.854546 
L 233.63136 288.854546 
L 235.5264 287.223469 
L 237.42144 287.223469 
L 239.31648 283.398875 
L 241.21152 283.398875 
L 243.10656 281.205358 
L 245.0016 277.943204 
L 246.89664 277.943204 
L 248.79168 276.312127 
L 250.68672 274.11861 
L 252.58176 272.487533 
L 262.05696 272.487533 
L 263.952 270.856456 
L 273.4272 270.856456 
L 275.32224 269.225379 
L 279.11232 269.225379 
L 281.00736 265.963225 
L 282.9024 265.963225 
L 284.79744 262.701072 
L 288.58752 262.701072 
L 290.48256 261.069995 
L 292.3776 258.876477 
L 296.16768 258.876477 
L 298.06272 255.614324 
L 299.95776 253.983247 
L 313.22304 253.983247 
L 315.11808 251.789729 
L 318.90816 251.789729 
L 320.8032 250.158653 
L 322.69824 250.158653 
L 324.59328 248.527576 
L 328.38336 248.527576 
L 330.2784 246.896499 
L 334.06848 246.896499 
L 335.96352 244.702981 
L 341.64864 244.702981 
L 343.54368 242.509464 
L 345.43872 242.509464 
L 347.33376 238.68487 
L 353.01888 238.68487 
L 354.91392 232.666759 
L 356.80896 232.666759 
L 358.704 231.035682 
L 360.59904 231.035682 
L 364.38912 227.773528 
L 366.28416 227.773528 
L 373.86432 221.24922 
L 377.6544 221.24922 
L 379.54944 219.618143 
L 381.44448 219.618143 
L 383.33952 217.424626 
L 385.23456 217.424626 
L 387.1296 215.793549 
L 400.39488 215.793549 
L 402.28992 213.600032 
L 406.08 210.337878 
L 407.97504 210.337878 
L 409.87008 208.706801 
L 413.66016 208.706801 
L 415.5552 207.075724 
L 417.45024 207.075724 
L 419.34528 203.81357 
L 421.24032 202.182493 
L 426.92544 202.182493 
L 428.82048 199.988976 
L 430.71552 199.988976 
L 432.61056 197.795459 
L 436.40064 197.795459 
L 438.29568 196.164382 
L 442.08576 196.164382 
L 443.9808 194.533305 
L 445.87584 194.533305 
L 447.77088 192.902228 
L 449.66592 190.708711 
L 451.56096 189.077634 
L 462.9312 189.077634 
L 464.82624 185.81548 
L 485.67168 185.81548 
L 487.56672 183.621963 
L 500.832 183.621963 
L 502.72704 181.990886 
L 527.36256 181.990886 
L 531.15264 177.603851 
L 533.04768 177.603851 
L 534.94272 175.972775 
L 536.83776 175.972775 
L 538.7328 173.779257 
L 553.89312 173.779257 
L 555.78816 171.58574 
L 559.57824 171.58574 
L 561.47328 169.954663 
L 563.36832 169.954663 
L 565.26336 167.761146 
L 578.52864 167.761146 
L 580.42368 165.567629 
L 625.90464 165.567629 
L 627.79968 163.374111 
L 642.96 163.374111 
L 642.96 163.374111 
" clip-path="url(#p2d7d585bbc)" style="fill: none; stroke-dasharray: 4.995,2.16; stroke-dashoffset: 0; stroke: #c38a19; stroke-width: 1.35"/>
   </g>
   <g id="line2d_30">
    <path d="M 74.448 348.192 
L 112.3488 348.192 
L 114.24384 344.929846 
L 119.92896 340.036615 
L 121.824 340.036615 
L 123.71904 335.143385 
L 127.50912 331.881231 
L 135.08928 331.881231 
L 138.87936 328.619077 
L 150.2496 328.619077 
L 152.14464 326.42556 
L 154.03968 324.794483 
L 157.82976 324.794483 
L 159.7248 323.163406 
L 161.61984 317.707735 
L 163.51488 317.707735 
L 165.40992 316.076658 
L 167.30496 316.076658 
L 169.2 314.445581 
L 172.99008 314.445581 
L 174.88512 312.814504 
L 176.78016 309.55235 
L 184.36032 309.55235 
L 186.25536 307.358833 
L 188.1504 304.096679 
L 190.04544 300.272085 
L 191.94048 300.272085 
L 193.83552 298.641008 
L 197.6256 294.253973 
L 199.52064 294.253973 
L 201.41568 292.622897 
L 203.31072 288.798302 
L 208.99584 288.798302 
L 210.89088 283.905072 
L 212.78592 283.905072 
L 214.68096 282.273995 
L 226.0512 282.273995 
L 227.94624 280.642918 
L 229.84128 280.642918 
L 233.63136 274.11861 
L 239.31648 269.225379 
L 241.21152 267.031862 
L 250.68672 267.031862 
L 256.37184 262.138631 
L 262.05696 262.138631 
L 263.952 258.314037 
L 275.32224 258.314037 
L 277.21728 256.68296 
L 282.9024 256.68296 
L 286.69248 253.420806 
L 288.58752 253.420806 
L 290.48256 251.789729 
L 294.27264 251.789729 
L 296.16768 247.965135 
L 298.06272 246.334058 
L 299.95776 244.140541 
L 303.74784 244.140541 
L 305.64288 241.947024 
L 311.328 241.947024 
L 315.11808 237.559989 
L 318.90816 234.297836 
L 322.69824 234.297836 
L 326.48832 227.773528 
L 328.38336 226.142451 
L 330.2784 226.142451 
L 332.17344 222.317857 
L 337.85856 222.317857 
L 339.7536 220.68678 
L 343.54368 220.68678 
L 345.43872 217.424626 
L 347.33376 217.424626 
L 349.2288 215.793549 
L 354.91392 215.793549 
L 356.80896 214.162472 
L 360.59904 214.162472 
L 362.49408 212.531395 
L 364.38912 212.531395 
L 366.28416 210.900318 
L 373.86432 210.900318 
L 375.75936 209.269241 
L 377.6544 207.075724 
L 379.54944 207.075724 
L 381.44448 205.444647 
L 383.33952 205.444647 
L 385.23456 203.25113 
L 387.1296 201.620053 
L 389.02464 201.620053 
L 390.91968 199.988976 
L 398.49984 199.988976 
L 400.39488 197.795459 
L 406.08 197.795459 
L 407.97504 196.164382 
L 415.5552 196.164382 
L 417.45024 194.533305 
L 423.13536 194.533305 
L 425.0304 191.271151 
L 428.82048 191.271151 
L 430.71552 189.077634 
L 432.61056 189.077634 
L 434.5056 186.884117 
L 447.77088 186.884117 
L 449.66592 185.25304 
L 457.24608 185.25304 
L 461.03616 181.990886 
L 476.19648 181.990886 
L 478.09152 179.797369 
L 483.77664 179.797369 
L 485.67168 178.166292 
L 487.56672 173.779257 
L 502.72704 173.779257 
L 504.62208 171.58574 
L 512.20224 171.58574 
L 514.09728 169.392223 
L 519.7824 169.392223 
L 521.67744 167.761146 
L 527.36256 167.761146 
L 529.2576 165.567629 
L 576.6336 165.567629 
L 578.52864 163.374111 
L 608.84928 163.374111 
L 610.74432 161.180594 
L 625.90464 161.180594 
L 629.69472 156.79356 
L 633.4848 156.79356 
L 635.37984 154.600042 
L 642.96 154.600042 
L 642.96 154.600042 
" clip-path="url(#p2d7d585bbc)" style="fill: none; stroke-dasharray: 1.35,2.2275; stroke-dashoffset: 0; stroke: #7d8a92; stroke-width: 1.35"/>
   </g>
   <g id="line2d_31">
    <path d="M 74.448 348.192 
L 133.19424 348.192 
L 135.08928 345.998483 
L 155.93472 345.998483 
L 157.82976 344.367406 
L 171.09504 344.367406 
L 172.99008 342.736329 
L 178.6752 342.736329 
L 180.57024 341.105252 
L 188.1504 341.105252 
L 190.04544 338.911735 
L 191.94048 335.649581 
L 193.83552 335.649581 
L 195.73056 332.387427 
L 197.6256 330.75635 
L 203.31072 330.75635 
L 205.20576 326.931756 
L 210.89088 322.038525 
L 212.78592 322.038525 
L 214.68096 318.776371 
L 216.576 317.145294 
L 218.47104 312.252064 
L 222.26112 312.252064 
L 224.15616 310.620987 
L 226.0512 307.358833 
L 227.94624 305.727756 
L 239.31648 305.727756 
L 241.21152 302.465602 
L 243.10656 302.465602 
L 245.0016 300.272085 
L 246.89664 300.272085 
L 248.79168 298.641008 
L 250.68672 298.641008 
L 252.58176 297.009931 
L 254.4768 293.747777 
L 256.37184 292.1167 
L 258.26688 292.1167 
L 260.16192 288.854546 
L 263.952 288.854546 
L 265.84704 286.661029 
L 267.74208 286.661029 
L 269.63712 283.398875 
L 277.21728 283.398875 
L 279.11232 281.767798 
L 282.9024 274.11861 
L 284.79744 272.487533 
L 288.58752 272.487533 
L 292.3776 269.225379 
L 298.06272 269.225379 
L 305.64288 262.701072 
L 311.328 262.701072 
L 313.22304 261.069995 
L 318.90816 261.069995 
L 320.8032 259.438918 
L 322.69824 257.245401 
L 324.59328 257.245401 
L 326.48832 253.983247 
L 330.2784 250.721093 
L 334.06848 250.721093 
L 335.96352 249.090016 
L 343.54368 249.090016 
L 345.43872 243.634345 
L 351.12384 243.634345 
L 353.01888 242.003268 
L 354.91392 242.003268 
L 356.80896 240.372191 
L 364.38912 240.372191 
L 366.28416 238.178674 
L 368.1792 236.547597 
L 375.75936 236.547597 
L 377.6544 234.35408 
L 379.54944 234.35408 
L 385.23456 229.460849 
L 387.1296 229.460849 
L 389.02464 223.442737 
L 394.70976 223.442737 
L 396.6048 221.81166 
L 400.39488 221.81166 
L 402.28992 219.618143 
L 404.18496 217.987066 
L 407.97504 217.987066 
L 409.87008 213.093836 
L 411.76512 210.900318 
L 415.5552 210.900318 
L 417.45024 209.269241 
L 419.34528 209.269241 
L 421.24032 207.638164 
L 423.13536 207.638164 
L 425.0304 206.007088 
L 430.71552 206.007088 
L 434.5056 202.744934 
L 436.40064 202.744934 
L 438.29568 201.113857 
L 445.87584 201.113857 
L 447.77088 197.289263 
L 449.66592 195.658186 
L 451.56096 195.658186 
L 455.35104 191.271151 
L 461.03616 191.271151 
L 462.9312 189.640074 
L 466.72128 189.640074 
L 468.61632 185.81548 
L 493.25184 185.81548 
L 495.14688 184.184403 
L 497.04192 181.990886 
L 534.94272 181.990886 
L 536.83776 180.359809 
L 540.62784 180.359809 
L 542.52288 178.166292 
L 544.41792 178.166292 
L 548.208 173.779257 
L 553.89312 173.779257 
L 555.78816 172.14818 
L 567.1584 172.14818 
L 569.05344 169.954663 
L 576.6336 169.954663 
L 578.52864 167.761146 
L 580.42368 167.761146 
L 582.31872 165.567629 
L 625.90464 165.567629 
L 627.79968 163.374111 
L 642.96 163.374111 
L 642.96 163.374111 
" clip-path="url(#p2d7d585bbc)" style="fill: none; stroke-dasharray: 8.64,2.16,1.35,2.16; stroke-dashoffset: 0; stroke: #d0526a; stroke-width: 1.35"/>
   </g>
   <g id="line2d_32">
    <path d="M 74.448 348.192 
L 123.71904 348.192 
L 125.61408 345.998483 
L 131.2992 345.998483 
L 133.19424 343.804966 
L 136.98432 343.804966 
L 138.87936 341.611448 
L 152.14464 341.611448 
L 154.03968 339.417931 
L 172.99008 339.417931 
L 176.78016 335.030897 
L 191.94048 335.030897 
L 193.83552 330.643862 
L 199.52064 330.643862 
L 205.20576 324.06331 
L 212.78592 324.06331 
L 214.68096 321.869793 
L 220.36608 321.869793 
L 222.26112 317.482759 
L 231.73632 317.482759 
L 233.63136 313.095724 
L 248.79168 313.095724 
L 250.68672 310.902207 
L 263.952 310.902207 
L 265.84704 308.70869 
L 275.32224 308.70869 
L 277.21728 306.515172 
L 286.69248 306.515172 
L 288.58752 304.321655 
L 294.27264 304.321655 
L 299.95776 297.741103 
L 301.8528 293.354069 
L 303.74784 291.160552 
L 313.22304 291.160552 
L 315.11808 288.967034 
L 337.85856 288.967034 
L 341.64864 284.58 
L 347.33376 284.58 
L 349.2288 282.948923 
L 358.704 282.948923 
L 360.59904 280.755406 
L 370.07424 280.755406 
L 373.86432 276.368371 
L 404.18496 276.368371 
L 406.08 274.174854 
L 407.97504 272.543777 
L 417.45024 272.543777 
L 419.34528 268.156743 
L 423.13536 268.156743 
L 425.0304 265.963225 
L 451.56096 265.963225 
L 453.456 264.332149 
L 457.24608 264.332149 
L 459.14112 262.138631 
L 472.4064 262.138631 
L 474.30144 260.507554 
L 476.19648 258.314037 
L 491.3568 258.314037 
L 493.25184 256.12052 
L 502.72704 256.12052 
L 504.62208 254.489443 
L 508.41216 254.489443 
L 510.3072 252.858366 
L 512.20224 252.858366 
L 514.09728 249.596212 
L 523.57248 249.596212 
L 525.46752 247.965135 
L 531.15264 247.965135 
L 533.04768 246.334058 
L 534.94272 244.140541 
L 540.62784 244.140541 
L 542.52288 242.509464 
L 546.31296 242.509464 
L 548.208 240.878387 
L 557.6832 240.878387 
L 559.57824 239.24731 
L 567.1584 239.24731 
L 572.84352 234.35408 
L 574.73856 234.35408 
L 578.52864 231.091926 
L 580.42368 231.091926 
L 582.31872 229.460849 
L 595.584 229.460849 
L 597.47904 227.829772 
L 599.37408 227.829772 
L 601.26912 226.198695 
L 603.16416 226.198695 
L 605.0592 224.567618 
L 606.95424 222.374101 
L 614.5344 222.374101 
L 616.42944 220.180584 
L 620.21952 220.180584 
L 622.11456 216.355989 
L 625.90464 213.093836 
L 627.79968 213.093836 
L 629.69472 210.900318 
L 631.58976 209.269241 
L 641.06496 209.269241 
L 642.96 207.638164 
L 642.96 207.638164 
" clip-path="url(#p2d7d585bbc)" style="fill: none; stroke-dasharray: 6.75,2.7,1.35,2.7; stroke-dashoffset: 0; stroke: #2f8f84; stroke-width: 1.35"/>
   </g>
   <g id="patch_4">
    <path d="M 74.448 348.192 
L 74.448 93.744 
" style="fill: none; stroke: #000000; stroke-width: 0.8; stroke-linejoin: miter; stroke-linecap: square"/>
   </g>
   <g id="patch_5">
    <path d="M 74.448 348.192 
L 642.96 348.192 
" style="fill: none; stroke: #000000; stroke-width: 0.8; stroke-linejoin: miter; stroke-linecap: square"/>
   </g>
  </g>
  <g id="text_16">
   <text style="font: 18px 'DejaVu Sans', 'Bitstream Vera Sans', 'Computer Modern Sans Serif', 'Lucida Grande', 'Verdana', 'Geneva', 'Lucid', 'Arial', 'Helvetica', 'Avant Garde', sans-serif; text-anchor: start" x="74.448" y="38.229188" transform="rotate(-0 74.448 38.229188)">D50 Direct</text>
  </g>
  <g id="text_17">
   <text style="fill: #66747c; font: 10px 'DejaVu Sans', 'Bitstream Vera Sans', 'Computer Modern Sans Serif', 'Lucida Grande', 'Verdana', 'Geneva', 'Lucid', 'Arial', 'Helvetica', 'Avant Garde', sans-serif; text-anchor: start" x="74.448" y="64.728" transform="rotate(-0 74.448 64.728)">WOLED</text>
  </g>
  <g id="legend_1">
   <g id="line2d_33">
    <path d="M 185.17875 404.151391 
L 194.27875 404.151391 
L 203.37875 404.151391 
" style="fill: none; stroke: #252525; stroke-width: 2.5; stroke-linecap: square"/>
   </g>
   <g id="text_18">
    <text style="font: 9.1px 'DejaVu Sans', 'Bitstream Vera Sans', 'Computer Modern Sans Serif', 'Lucida Grande', 'Verdana', 'Geneva', 'Lucid', 'Arial', 'Helvetica', 'Avant Garde', sans-serif; text-anchor: start" x="210.65875" y="407.336391" transform="rotate(-0 210.65875 407.336391)">Potera CMF</text>
   </g>
   <g id="line2d_34">
    <path d="M 185.17875 417.508484 
L 194.27875 417.508484 
L 203.37875 417.508484 
" style="fill: none; stroke: #3b83b4; stroke-width: 1.35; stroke-linecap: square"/>
   </g>
   <g id="text_19">
    <text style="font: 9.1px 'DejaVu Sans', 'Bitstream Vera Sans', 'Computer Modern Sans Serif', 'Lucida Grande', 'Verdana', 'Geneva', 'Lucid', 'Arial', 'Helvetica', 'Avant Garde', sans-serif; text-anchor: start" x="210.65875" y="420.693484" transform="rotate(-0 210.65875 420.693484)">CIE 2015 2°</text>
   </g>
   <g id="line2d_35">
    <path d="M 282.931234 404.151391 
L 292.031234 404.151391 
L 301.131234 404.151391 
" style="fill: none; stroke-dasharray: 4.995,2.16; stroke-dashoffset: 0; stroke: #c38a19; stroke-width: 1.35"/>
   </g>
   <g id="text_20">
    <text style="font: 9.1px 'DejaVu Sans', 'Bitstream Vera Sans', 'Computer Modern Sans Serif', 'Lucida Grande', 'Verdana', 'Geneva', 'Lucid', 'Arial', 'Helvetica', 'Avant Garde', sans-serif; text-anchor: start" x="308.411234" y="407.336391" transform="rotate(-0 308.411234 407.336391)">CIE 2015 10°</text>
   </g>
   <g id="line2d_36">
    <path d="M 282.931234 417.508484 
L 292.031234 417.508484 
L 301.131234 417.508484 
" style="fill: none; stroke-dasharray: 1.35,2.2275; stroke-dashoffset: 0; stroke: #7d8a92; stroke-width: 1.35"/>
   </g>
   <g id="text_21">
    <text style="font: 9.1px 'DejaVu Sans', 'Bitstream Vera Sans', 'Computer Modern Sans Serif', 'Lucida Grande', 'Verdana', 'Geneva', 'Lucid', 'Arial', 'Helvetica', 'Avant Garde', sans-serif; text-anchor: start" x="308.411234" y="420.693484" transform="rotate(-0 308.411234 420.693484)">CIE 1964 10°</text>
   </g>
   <g id="line2d_37">
    <path d="M 386.473594 404.151391 
L 395.573594 404.151391 
L 404.673594 404.151391 
" style="fill: none; stroke-dasharray: 8.64,2.16,1.35,2.16; stroke-dashoffset: 0; stroke: #d0526a; stroke-width: 1.35"/>
   </g>
   <g id="text_22">
    <text style="font: 9.1px 'DejaVu Sans', 'Bitstream Vera Sans', 'Computer Modern Sans Serif', 'Lucida Grande', 'Verdana', 'Geneva', 'Lucid', 'Arial', 'Helvetica', 'Avant Garde', sans-serif; text-anchor: start" x="411.953594" y="407.336391" transform="rotate(-0 411.953594 407.336391)">CIE 1931 2°</text>
   </g>
   <g id="line2d_38">
    <path d="M 386.473594 417.508484 
L 395.573594 417.508484 
L 404.673594 417.508484 
" style="fill: none; stroke-dasharray: 6.75,2.7,1.35,2.7; stroke-dashoffset: 0; stroke: #2f8f84; stroke-width: 1.35"/>
   </g>
   <g id="text_23">
    <text style="font: 9.1px 'DejaVu Sans', 'Bitstream Vera Sans', 'Computer Modern Sans Serif', 'Lucida Grande', 'Verdana', 'Geneva', 'Lucid', 'Arial', 'Helvetica', 'Avant Garde', sans-serif; text-anchor: start" x="411.953594" y="420.693484" transform="rotate(-0 411.953594 420.693484)">Judd–Vos 1978 2°</text>
   </g>
  </g>
 </g>
 <defs>
  <clipPath id="p2d7d585bbc">
   <rect x="74.448" y="93.744" width="568.512" height="254.448"/>
  </clipPath>
 </defs>
</svg>
