<?xml version="1.0" encoding="utf-8" standalone="no"?>
<!DOCTYPE svg PUBLIC "-//W3C//DTD SVG 1.1//EN"
  "http://www.w3.org/Graphics/SVG/1.1/DTD/svg11.dtd">
<svg xmlns:xlink="http://www.w3.org/1999/xlink" width="676.8pt" height="446.4pt" viewBox="0 0 676.8 446.4" xmlns="http://www.w3.org/2000/svg" version="1.1">
 <metadata>
  <rdf:RDF xmlns:dc="http://purl.org/dc/elements/1.1/" xmlns:cc="http://creativecommons.org/ns#" xmlns:rdf="http://www.w3.org/1999/02/22-rdf-syntax-ns#">
   <cc:Work>
    <dc:type rdf:resource="http://purl.org/dc/dcmitype/StillImage"/>
    <dc:date>2026-07-20T06:41:59.493823</dc:date>
    <dc:format>image/svg+xml</dc:format>
    <dc:creator>
     <cc:Agent>
      <dc:title>Matplotlib v3.9.4, https://matplotlib.org/</dc:title>
     </cc:Agent>
    </dc:creator>
   </cc:Work>
  </rdf:RDF>
 </metadata>
 <defs>
  <style type="text/css">*{stroke-linejoin: round; stroke-linecap: butt}</style>
 </defs>
 <g id="figure_1">
  <g id="patch_1">
   <path d="M 0 446.4 
L 676.8 446.4 
L 676.8 0 
L 0 0 
z
" style="fill: #ffffff"/>
  </g>
  <g id="axes_1">
   <g id="patch_2">
    <path d="M 74.448 348.192 
L 642.96 348.192 
L 642.96 93.744 
L 74.448 93.744 
z
" style="fill: #ffffff"/>
   </g>
   <g id="patch_3">
    <path d="M 169.2 348.192 
L 358.704 348.192 
L 358.704 93.744 
L 169.2 93.744 
z
" clip-path="url(#pad987273b8)" style="fill: #e7f0ea; opacity: 0.58; stroke: #e7f0ea; stroke-linejoin: miter"/>
   </g>
   <g id="matplotlib.axis_1">
    <g id="xtick_1">
     <g id="line2d_1">
      <path d="M 74.448 348.192 
L 74.448 93.744 
" clip-path="url(#pad987273b8)" style="fill: none; stroke: #dfe5e8; stroke-width: 0.65; stroke-linecap: square"/>
     </g>
     <g id="line2d_2">
      <defs>
       <path id="m5f692f849f" d="M 0 0 
L 0 3.5 
" style="stroke: #000000; stroke-width: 0.8"/>
      </defs>
      <g>
       <use xlink:href="#m5f692f849f" x="74.448" y="348.192" style="stroke: #000000; stroke-width: 0.8"/>
      </g>
     </g>
     <g id="text_1">
      <text style="font: 10px 'DejaVu Sans', 'Bitstream Vera Sans', 'Computer Modern Sans Serif', 'Lucida Grande', 'Verdana', 'Geneva', 'Lucid', 'Arial', 'Helvetica', 'Avant Garde', sans-serif; text-anchor: middle" x="74.448" y="362.790438" transform="rotate(-0 74.448 362.790438)">0</text>
     </g>
    </g>
    <g id="xtick_2">
     <g id="line2d_3">
      <path d="M 169.2 348.192 
L 169.2 93.744 
" clip-path="url(#pad987273b8)" style="fill: none; stroke: #dfe5e8; stroke-width: 0.65; stroke-linecap: square"/>
     </g>
     <g id="line2d_4">
      <g>
       <use xlink:href="#m5f692f849f" x="169.2" y="348.192" style="stroke: #000000; stroke-width: 0.8"/>
      </g>
     </g>
     <g id="text_2">
      <text style="font: 10px 'DejaVu Sans', 'Bitstream Vera Sans', 'Computer Modern Sans Serif', 'Lucida Grande', 'Verdana', 'Geneva', 'Lucid', 'Arial', 'Helvetica', 'Avant Garde', sans-serif; text-anchor: middle" x="169.2" y="362.790438" transform="rotate(-0 169.2 362.790438)">1</text>
     </g>
    </g>
    <g id="xtick_3">
     <g id="line2d_5">
      <path d="M 263.952 348.192 
L 263.952 93.744 
" clip-path="url(#pad987273b8)" style="fill: none; stroke: #dfe5e8; stroke-width: 0.65; stroke-linecap: square"/>
     </g>
     <g id="line2d_6">
      <g>
       <use xlink:href="#m5f692f849f" x="263.952" y="348.192" style="stroke: #000000; stroke-width: 0.8"/>
      </g>
     </g>
     <g id="text_3">
      <text style="font: 10px 'DejaVu Sans', 'Bitstream Vera Sans', 'Computer Modern Sans Serif', 'Lucida Grande', 'Verdana', 'Geneva', 'Lucid', 'Arial', 'Helvetica', 'Avant Garde', sans-serif; text-anchor: middle" x="263.952" y="362.790438" transform="rotate(-0 263.952 362.790438)">2</text>
     </g>
    </g>
    <g id="xtick_4">
     <g id="line2d_7">
      <path d="M 358.704 348.192 
L 358.704 93.744 
" clip-path="url(#pad987273b8)" style="fill: none; stroke: #dfe5e8; stroke-width: 0.65; stroke-linecap: square"/>
     </g>
     <g id="line2d_8">
      <g>
       <use xlink:href="#m5f692f849f" x="358.704" y="348.192" style="stroke: #000000; stroke-width: 0.8"/>
      </g>
     </g>
     <g id="text_4">
      <text style="font: 10px 'DejaVu Sans', 'Bitstream Vera Sans', 'Computer Modern Sans Serif', 'Lucida Grande', 'Verdana', 'Geneva', 'Lucid', 'Arial', 'Helvetica', 'Avant Garde', sans-serif; text-anchor: middle" x="358.704" y="362.790438" transform="rotate(-0 358.704 362.790438)">3</text>
     </g>
    </g>
    <g id="xtick_5">
     <g id="line2d_9">
      <path d="M 453.456 348.192 
L 453.456 93.744 
" clip-path="url(#pad987273b8)" style="fill: none; stroke: #dfe5e8; stroke-width: 0.65; stroke-linecap: square"/>
     </g>
     <g id="line2d_10">
      <g>
       <use xlink:href="#m5f692f849f" x="453.456" y="348.192" style="stroke: #000000; stroke-width: 0.8"/>
      </g>
     </g>
     <g id="text_5">
      <text style="font: 10px 'DejaVu Sans', 'Bitstream Vera Sans', 'Computer Modern Sans Serif', 'Lucida Grande', 'Verdana', 'Geneva', 'Lucid', 'Arial', 'Helvetica', 'Avant Garde', sans-serif; text-anchor: middle" x="453.456" y="362.790438" transform="rotate(-0 453.456 362.790438)">4</text>
     </g>
    </g>
    <g id="xtick_6">
     <g id="line2d_11">
      <path d="M 548.208 348.192 
L 548.208 93.744 
" clip-path="url(#pad987273b8)" style="fill: none; stroke: #dfe5e8; stroke-width: 0.65; stroke-linecap: square"/>
     </g>
     <g id="line2d_12">
      <g>
       <use xlink:href="#m5f692f849f" x="548.208" y="348.192" style="stroke: #000000; stroke-width: 0.8"/>
      </g>
     </g>
     <g id="text_6">
      <text style="font: 10px 'DejaVu Sans', 'Bitstream Vera Sans', 'Computer Modern Sans Serif', 'Lucida Grande', 'Verdana', 'Geneva', 'Lucid', 'Arial', 'Helvetica', 'Avant Garde', sans-serif; text-anchor: middle" x="548.208" y="362.790438" transform="rotate(-0 548.208 362.790438)">5</text>
     </g>
    </g>
    <g id="xtick_7">
     <g id="line2d_13">
      <path d="M 642.96 348.192 
L 642.96 93.744 
" clip-path="url(#pad987273b8)" style="fill: none; stroke: #dfe5e8; stroke-width: 0.65; stroke-linecap: square"/>
     </g>
     <g id="line2d_14">
      <g>
       <use xlink:href="#m5f692f849f" x="642.96" y="348.192" style="stroke: #000000; stroke-width: 0.8"/>
      </g>
     </g>
     <g id="text_7">
      <text style="font: 10px 'DejaVu Sans', 'Bitstream Vera Sans', 'Computer Modern Sans Serif', 'Lucida Grande', 'Verdana', 'Geneva', 'Lucid', 'Arial', 'Helvetica', 'Avant Garde', sans-serif; text-anchor: middle" x="642.96" y="362.790438" transform="rotate(-0 642.96 362.790438)">6</text>
     </g>
    </g>
    <g id="text_8">
     <text style="font: 10px 'DejaVu Sans', 'Bitstream Vera Sans', 'Computer Modern Sans Serif', 'Lucida Grande', 'Verdana', 'Geneva', 'Lucid', 'Arial', 'Helvetica', 'Avant Garde', sans-serif; text-anchor: middle" x="358.704" y="376.468563" transform="rotate(-0 358.704 376.468563)">sUCS dE threshold</text>
    </g>
   </g>
   <g id="matplotlib.axis_2">
    <g id="ytick_1">
     <g id="line2d_15">
      <path d="M 74.448 348.192 
L 642.96 348.192 
" clip-path="url(#pad987273b8)" style="fill: none; stroke: #dfe5e8; stroke-width: 0.65; stroke-linecap: square"/>
     </g>
     <g id="line2d_16">
      <defs>
       <path id="mfac620505a" d="M 0 0 
L -3.5 0 
" style="stroke: #000000; stroke-width: 0.8"/>
      </defs>
      <g>
       <use xlink:href="#mfac620505a" x="74.448" y="348.192" style="stroke: #000000; stroke-width: 0.8"/>
      </g>
     </g>
     <g id="text_9">
      <text style="font: 10px 'DejaVu Sans', 'Bitstream Vera Sans', 'Computer Modern Sans Serif', 'Lucida Grande', 'Verdana', 'Geneva', 'Lucid', 'Arial', 'Helvetica', 'Avant Garde', sans-serif; text-anchor: end" x="67.448" y="351.991219" transform="rotate(-0 67.448 351.991219)">0</text>
     </g>
    </g>
    <g id="ytick_2">
     <g id="line2d_17">
      <path d="M 74.448 297.3024 
L 642.96 297.3024 
" clip-path="url(#pad987273b8)" style="fill: none; stroke: #dfe5e8; stroke-width: 0.65; stroke-linecap: square"/>
     </g>
     <g id="line2d_18">
      <g>
       <use xlink:href="#mfac620505a" x="74.448" y="297.3024" style="stroke: #000000; stroke-width: 0.8"/>
      </g>
     </g>
     <g id="text_10">
      <text style="font: 10px 'DejaVu Sans', 'Bitstream Vera Sans', 'Computer Modern Sans Serif', 'Lucida Grande', 'Verdana', 'Geneva', 'Lucid', 'Arial', 'Helvetica', 'Avant Garde', sans-serif; text-anchor: end" x="67.448" y="301.101619" transform="rotate(-0 67.448 301.101619)">20</text>
     </g>
    </g>
    <g id="ytick_3">
     <g id="line2d_19">
      <path d="M 74.448 246.4128 
L 642.96 246.4128 
" clip-path="url(#pad987273b8)" style="fill: none; stroke: #dfe5e8; stroke-width: 0.65; stroke-linecap: square"/>
     </g>
     <g id="line2d_20">
      <g>
       <use xlink:href="#mfac620505a" x="74.448" y="246.4128" style="stroke: #000000; stroke-width: 0.8"/>
      </g>
     </g>
     <g id="text_11">
      <text style="font: 10px 'DejaVu Sans', 'Bitstream Vera Sans', 'Computer Modern Sans Serif', 'Lucida Grande', 'Verdana', 'Geneva', 'Lucid', 'Arial', 'Helvetica', 'Avant Garde', sans-serif; text-anchor: end" x="67.448" y="250.212019" transform="rotate(-0 67.448 250.212019)">40</text>
     </g>
    </g>
    <g id="ytick_4">
     <g id="line2d_21">
      <path d="M 74.448 195.5232 
L 642.96 195.5232 
" clip-path="url(#pad987273b8)" style="fill: none; stroke: #dfe5e8; stroke-width: 0.65; stroke-linecap: square"/>
     </g>
     <g id="line2d_22">
      <g>
       <use xlink:href="#mfac620505a" x="74.448" y="195.5232" style="stroke: #000000; stroke-width: 0.8"/>
      </g>
     </g>
     <g id="text_12">
      <text style="font: 10px 'DejaVu Sans', 'Bitstream Vera Sans', 'Computer Modern Sans Serif', 'Lucida Grande', 'Verdana', 'Geneva', 'Lucid', 'Arial', 'Helvetica', 'Avant Garde', sans-serif; text-anchor: end" x="67.448" y="199.322419" transform="rotate(-0 67.448 199.322419)">60</text>
     </g>
    </g>
    <g id="ytick_5">
     <g id="line2d_23">
      <path d="M 74.448 144.6336 
L 642.96 144.6336 
" clip-path="url(#pad987273b8)" style="fill: none; stroke: #dfe5e8; stroke-width: 0.65; stroke-linecap: square"/>
     </g>
     <g id="line2d_24">
      <g>
       <use xlink:href="#mfac620505a" x="74.448" y="144.6336" style="stroke: #000000; stroke-width: 0.8"/>
      </g>
     </g>
     <g id="text_13">
      <text style="font: 10px 'DejaVu Sans', 'Bitstream Vera Sans', 'Computer Modern Sans Serif', 'Lucida Grande', 'Verdana', 'Geneva', 'Lucid', 'Arial', 'Helvetica', 'Avant Garde', sans-serif; text-anchor: end" x="67.448" y="148.432819" transform="rotate(-0 67.448 148.432819)">80</text>
     </g>
    </g>
    <g id="ytick_6">
     <g id="line2d_25">
      <path d="M 74.448 93.744 
L 642.96 93.744 
" clip-path="url(#pad987273b8)" style="fill: none; stroke: #dfe5e8; stroke-width: 0.65; stroke-linecap: square"/>
     </g>
     <g id="line2d_26">
      <g>
       <use xlink:href="#mfac620505a" x="74.448" y="93.744" style="stroke: #000000; stroke-width: 0.8"/>
      </g>
     </g>
     <g id="text_14">
      <text style="font: 10px 'DejaVu Sans', 'Bitstream Vera Sans', 'Computer Modern Sans Serif', 'Lucida Grande', 'Verdana', 'Geneva', 'Lucid', 'Arial', 'Helvetica', 'Avant Garde', sans-serif; text-anchor: end" x="67.448" y="97.543219" transform="rotate(-0 67.448 97.543219)">100</text>
     </g>
    </g>
    <g id="text_15">
     <text style="font: 10px 'DejaVu Sans', 'Bitstream Vera Sans', 'Computer Modern Sans Serif', 'Lucida Grande', 'Verdana', 'Geneva', 'Lucid', 'Arial', 'Helvetica', 'Avant Garde', sans-serif; text-anchor: middle" x="42.280812" y="220.968" transform="rotate(-90 42.280812 220.968)">observers%</text>
    </g>
   </g>
   <g id="line2d_27">
    <path d="M 74.448 348.192 
L 83.9232 348.192 
L 85.81824 346.560923 
L 95.29344 346.560923 
L 97.18848 344.367406 
L 100.97856 344.367406 
L 102.8736 342.736329 
L 104.76864 336.155777 
L 106.66368 334.5247 
L 110.45376 334.5247 
L 112.3488 332.893623 
L 116.13888 332.893623 
L 118.03392 329.069029 
L 125.61408 329.069029 
L 127.50912 326.875512 
L 131.2992 319.226324 
L 136.98432 319.226324 
L 138.87936 315.96417 
L 142.66944 315.96417 
L 146.45952 309.439862 
L 148.35456 307.808785 
L 150.2496 305.615268 
L 152.14464 303.984191 
L 154.03968 303.984191 
L 155.93472 302.353114 
L 157.82976 299.09096 
L 159.7248 293.072849 
L 161.61984 289.248255 
L 163.51488 285.986101 
L 165.40992 283.792584 
L 167.30496 282.161507 
L 171.09504 277.774472 
L 172.99008 277.774472 
L 174.88512 275.580955 
L 176.78016 270.125284 
L 178.6752 266.86313 
L 184.36032 261.969899 
L 186.25536 258.707745 
L 188.1504 251.620997 
L 191.94048 245.09669 
L 193.83552 245.09669 
L 195.73056 238.009942 
L 197.6256 233.622907 
L 201.41568 230.360753 
L 203.31072 230.360753 
L 205.20576 228.729676 
L 207.1008 223.274005 
L 210.89088 223.274005 
L 212.78592 219.449411 
L 214.68096 217.255894 
L 218.47104 217.255894 
L 220.36608 213.4313 
L 224.15616 213.4313 
L 226.0512 207.413188 
L 227.94624 204.151034 
L 229.84128 204.151034 
L 231.73632 201.957517 
L 233.63136 200.32644 
L 241.21152 200.32644 
L 243.10656 197.064286 
L 245.0016 192.171056 
L 246.89664 190.539979 
L 248.79168 188.346462 
L 254.4768 188.346462 
L 256.37184 185.084308 
L 260.16192 185.084308 
L 262.05696 183.453231 
L 263.952 183.453231 
L 265.84704 181.822154 
L 267.74208 179.628637 
L 271.53216 179.628637 
L 273.4272 173.048085 
L 275.32224 173.048085 
L 277.21728 169.223491 
L 279.11232 167.029973 
L 282.9024 167.029973 
L 284.79744 164.836456 
L 290.48256 159.943225 
L 292.3776 159.943225 
L 294.27264 155.556191 
L 296.16768 153.925114 
L 298.06272 153.925114 
L 299.95776 151.731597 
L 301.8528 145.713485 
L 303.74784 145.713485 
L 305.64288 143.519968 
L 307.53792 143.519968 
L 309.43296 139.132934 
L 315.11808 139.132934 
L 317.01312 136.939416 
L 318.90816 136.939416 
L 320.8032 135.30834 
L 324.59328 135.30834 
L 326.48832 133.677263 
L 328.38336 131.483745 
L 330.2784 129.852668 
L 335.96352 129.852668 
L 337.85856 127.659151 
L 343.54368 127.659151 
L 345.43872 123.834557 
L 349.2288 119.447523 
L 353.01888 119.447523 
L 354.91392 117.816446 
L 356.80896 115.622928 
L 362.49408 115.622928 
L 364.38912 111.798334 
L 371.96928 111.798334 
L 373.86432 109.604817 
L 375.75936 109.604817 
L 377.6544 107.97374 
L 389.02464 107.97374 
L 390.91968 105.780223 
L 392.81472 104.149146 
L 396.6048 104.149146 
L 398.49984 102.518069 
L 400.39488 102.518069 
L 402.28992 100.324552 
L 411.76512 100.324552 
L 413.66016 98.131034 
L 440.19072 98.131034 
L 442.08576 95.937517 
L 493.25184 95.937517 
L 495.14688 93.744 
L 642.96 93.744 
L 642.96 93.744 
" clip-path="url(#pad987273b8)" style="fill: none; stroke: #252525; stroke-width: 2.5; stroke-linecap: square"/>
   </g>
   <g id="line2d_28">
    <path d="M 74.448 348.192 
L 110.45376 348.192 
L 112.3488 343.804966 
L 114.24384 341.611448 
L 119.92896 341.611448 
L 123.71904 337.224414 
L 129.40416 337.224414 
L 131.2992 332.837379 
L 138.87936 332.837379 
L 142.66944 324.06331 
L 146.45952 324.06331 
L 148.35456 320.238716 
L 150.2496 320.238716 
L 154.03968 315.851682 
L 157.82976 315.851682 
L 159.7248 313.658164 
L 165.40992 313.658164 
L 167.30496 312.027088 
L 169.2 307.640053 
L 171.09504 305.446536 
L 172.99008 301.059501 
L 174.88512 298.865984 
L 178.6752 298.865984 
L 180.57024 296.672467 
L 184.36032 296.672467 
L 186.25536 294.47895 
L 190.04544 294.47895 
L 191.94048 292.285432 
L 193.83552 292.285432 
L 195.73056 290.654355 
L 199.52064 286.267321 
L 201.41568 276.424615 
L 203.31072 276.424615 
L 207.1008 272.037581 
L 208.99584 272.037581 
L 210.89088 267.650546 
L 212.78592 267.650546 
L 214.68096 265.457029 
L 216.576 258.876477 
L 218.47104 258.876477 
L 220.36608 257.245401 
L 222.26112 255.051883 
L 229.84128 255.051883 
L 231.73632 249.033772 
L 233.63136 246.840255 
L 235.5264 240.822143 
L 237.42144 235.366472 
L 243.10656 235.366472 
L 245.0016 229.910801 
L 246.89664 226.086207 
L 248.79168 224.45513 
L 250.68672 222.261613 
L 256.37184 222.261613 
L 260.16192 217.874578 
L 262.05696 214.049984 
L 265.84704 214.049984 
L 267.74208 211.856467 
L 269.63712 211.856467 
L 271.53216 210.22539 
L 275.32224 210.22539 
L 277.21728 208.031873 
L 279.11232 206.400796 
L 281.00736 206.400796 
L 282.9024 204.207279 
L 286.69248 204.207279 
L 288.58752 200.382684 
L 294.27264 200.382684 
L 296.16768 198.751607 
L 298.06272 196.55809 
L 305.64288 196.55809 
L 309.43296 193.295936 
L 313.22304 193.295936 
L 315.11808 191.664859 
L 317.01312 187.840265 
L 318.90816 187.840265 
L 320.8032 186.209188 
L 322.69824 186.209188 
L 324.59328 181.315958 
L 326.48832 179.684881 
L 330.2784 179.684881 
L 332.17344 173.160573 
L 334.06848 171.529496 
L 337.85856 171.529496 
L 339.7536 169.898419 
L 345.43872 169.898419 
L 347.33376 166.636265 
L 349.2288 166.636265 
L 351.12384 162.811671 
L 358.704 162.811671 
L 360.59904 161.180594 
L 362.49408 157.91844 
L 364.38912 156.287363 
L 366.28416 156.287363 
L 368.1792 151.394133 
L 370.07424 149.763056 
L 371.96928 149.763056 
L 379.54944 143.238748 
L 381.44448 143.238748 
L 385.23456 139.976594 
L 398.49984 139.976594 
L 400.39488 136.71444 
L 402.28992 135.083363 
L 404.18496 135.083363 
L 406.08 132.889846 
L 407.97504 131.258769 
L 411.76512 131.258769 
L 413.66016 129.627692 
L 415.5552 129.627692 
L 417.45024 127.996615 
L 419.34528 127.996615 
L 421.24032 124.734462 
L 428.82048 124.734462 
L 430.71552 123.103385 
L 432.61056 123.103385 
L 438.29568 118.210154 
L 453.456 118.210154 
L 455.35104 116.579077 
L 461.03616 116.579077 
L 462.9312 114.948 
L 464.82624 111.685846 
L 466.72128 110.054769 
L 478.09152 110.054769 
L 481.8816 106.792615 
L 483.77664 106.792615 
L 485.67168 105.161538 
L 497.04192 105.161538 
L 498.93696 103.530462 
L 517.88736 103.530462 
L 519.7824 101.899385 
L 521.67744 101.899385 
L 523.57248 98.637231 
L 550.10304 98.637231 
L 551.99808 97.006154 
L 561.47328 97.006154 
L 563.36832 95.375077 
L 574.73856 95.375077 
L 576.6336 93.744 
L 642.96 93.744 
L 642.96 93.744 
" clip-path="url(#pad987273b8)" style="fill: none; stroke: #3b83b4; stroke-width: 1.35; stroke-linecap: square"/>
   </g>
   <g id="line2d_29">
    <path d="M 74.448 348.192 
L 95.29344 348.192 
L 97.18848 346.560923 
L 100.97856 346.560923 
L 102.8736 344.929846 
L 108.55872 344.929846 
L 110.45376 341.667692 
L 112.3488 340.036615 
L 114.24384 336.774462 
L 118.03392 333.512308 
L 119.92896 330.250154 
L 125.61408 325.356923 
L 127.50912 323.163406 
L 131.2992 319.901252 
L 135.08928 319.901252 
L 136.98432 314.445581 
L 138.87936 312.814504 
L 140.7744 312.814504 
L 142.66944 309.55235 
L 144.56448 309.55235 
L 154.03968 301.396966 
L 155.93472 301.396966 
L 159.7248 298.134812 
L 161.61984 295.941294 
L 163.51488 292.1167 
L 165.40992 285.536149 
L 169.2 285.536149 
L 171.09504 280.642918 
L 172.99008 279.011841 
L 174.88512 275.187247 
L 176.78016 270.800212 
L 178.6752 267.538058 
L 184.36032 262.644828 
L 186.25536 254.489443 
L 188.1504 252.295926 
L 190.04544 247.402695 
L 191.94048 247.402695 
L 193.83552 244.140541 
L 195.73056 244.140541 
L 197.6256 241.947024 
L 199.52064 235.422716 
L 203.31072 235.422716 
L 205.20576 232.160562 
L 207.1008 229.967045 
L 208.99584 228.335968 
L 210.89088 228.335968 
L 212.78592 224.511374 
L 214.68096 221.24922 
L 216.576 219.055703 
L 218.47104 217.424626 
L 220.36608 214.162472 
L 224.15616 214.162472 
L 226.0512 211.968955 
L 227.94624 210.337878 
L 229.84128 210.337878 
L 231.73632 208.706801 
L 233.63136 206.513284 
L 235.5264 206.513284 
L 237.42144 202.126249 
L 243.10656 202.126249 
L 245.0016 199.932732 
L 248.79168 199.932732 
L 250.68672 196.670578 
L 252.58176 195.039501 
L 256.37184 195.039501 
L 258.26688 193.408424 
L 260.16192 193.408424 
L 262.05696 189.58383 
L 267.74208 189.58383 
L 269.63712 187.390313 
L 271.53216 185.759236 
L 273.4272 183.565719 
L 275.32224 181.934642 
L 277.21728 181.934642 
L 279.11232 178.110048 
L 286.69248 178.110048 
L 288.58752 173.723013 
L 290.48256 172.091936 
L 292.3776 172.091936 
L 294.27264 170.460859 
L 298.06272 170.460859 
L 299.95776 168.267342 
L 301.8528 168.267342 
L 303.74784 165.005188 
L 305.64288 165.005188 
L 307.53792 162.811671 
L 315.11808 162.811671 
L 317.01312 161.180594 
L 318.90816 158.987077 
L 320.8032 158.987077 
L 322.69824 156.79356 
L 326.48832 156.79356 
L 328.38336 155.162483 
L 337.85856 155.162483 
L 339.7536 152.968966 
L 345.43872 152.968966 
L 354.91392 142.001379 
L 358.704 142.001379 
L 362.49408 137.614345 
L 366.28416 137.614345 
L 368.1792 135.420828 
L 373.86432 135.420828 
L 379.54944 122.259724 
L 394.70976 122.259724 
L 396.6048 120.066207 
L 411.76512 120.066207 
L 413.66016 117.87269 
L 417.45024 117.87269 
L 421.24032 113.485655 
L 425.0304 113.485655 
L 426.92544 111.292138 
L 432.61056 111.292138 
L 434.5056 106.905103 
L 445.87584 106.905103 
L 447.77088 104.711586 
L 462.9312 104.711586 
L 464.82624 102.518069 
L 476.19648 102.518069 
L 478.09152 100.324552 
L 487.56672 100.324552 
L 489.46176 98.131034 
L 515.99232 98.131034 
L 517.88736 95.937517 
L 565.26336 95.937517 
L 567.1584 93.744 
L 642.96 93.744 
L 642.96 93.744 
" clip-path="url(#pad987273b8)" style="fill: none; stroke-dasharray: 4.995,2.16; stroke-dashoffset: 0; stroke: #c38a19; stroke-width: 1.35"/>
   </g>
   <g id="line2d_30">
    <path d="M 74.448 348.192 
L 104.76864 348.192 
L 106.66368 345.998483 
L 110.45376 345.998483 
L 112.3488 344.367406 
L 114.24384 344.367406 
L 116.13888 342.173889 
L 121.824 342.173889 
L 123.71904 340.542812 
L 129.40416 340.542812 
L 131.2992 338.911735 
L 133.19424 338.911735 
L 135.08928 337.280658 
L 138.87936 337.280658 
L 140.7744 335.087141 
L 142.66944 335.087141 
L 146.45952 330.700106 
L 148.35456 330.700106 
L 152.14464 326.313072 
L 154.03968 326.313072 
L 155.93472 323.050918 
L 157.82976 323.050918 
L 159.7248 320.857401 
L 161.61984 319.226324 
L 163.51488 317.032806 
L 165.40992 309.383618 
L 169.2 309.383618 
L 171.09504 306.121464 
L 172.99008 304.490387 
L 176.78016 304.490387 
L 178.6752 300.103353 
L 180.57024 300.103353 
L 182.46528 298.472276 
L 188.1504 298.472276 
L 193.83552 288.685814 
L 195.73056 286.492297 
L 197.6256 279.967989 
L 201.41568 276.705836 
L 203.31072 274.512318 
L 205.20576 274.512318 
L 207.1008 269.056647 
L 210.89088 262.53234 
L 212.78592 260.338822 
L 214.68096 255.445592 
L 216.576 255.445592 
L 218.47104 252.183438 
L 222.26112 252.183438 
L 224.15616 249.98992 
L 226.0512 248.358844 
L 227.94624 243.465613 
L 229.84128 241.834536 
L 231.73632 234.185347 
L 233.63136 234.185347 
L 235.5264 232.554271 
L 237.42144 228.729676 
L 239.31648 225.467523 
L 241.21152 223.274005 
L 243.10656 221.642928 
L 245.0016 219.449411 
L 246.89664 208.538069 
L 248.79168 206.906992 
L 250.68672 201.451321 
L 254.4768 201.451321 
L 258.26688 198.189167 
L 260.16192 195.99565 
L 262.05696 195.99565 
L 263.952 192.733496 
L 269.63712 192.733496 
L 271.53216 188.908902 
L 273.4272 187.277825 
L 275.32224 187.277825 
L 277.21728 185.084308 
L 279.11232 181.259714 
L 281.00736 179.628637 
L 282.9024 176.366483 
L 284.79744 174.172966 
L 286.69248 172.541889 
L 288.58752 172.541889 
L 290.48256 170.348371 
L 292.3776 170.348371 
L 294.27264 166.523777 
L 296.16768 164.8927 
L 298.06272 161.068106 
L 299.95776 159.437029 
L 301.8528 157.243512 
L 305.64288 157.243512 
L 307.53792 155.049995 
L 309.43296 155.049995 
L 311.328 153.418918 
L 313.22304 153.418918 
L 317.01312 149.031883 
L 318.90816 144.644849 
L 322.69824 144.644849 
L 324.59328 142.451332 
L 326.48832 142.451332 
L 328.38336 140.820255 
L 330.2784 138.626737 
L 332.17344 138.626737 
L 334.06848 136.43322 
L 335.96352 130.977549 
L 339.7536 130.977549 
L 341.64864 129.346472 
L 343.54368 127.152955 
L 358.704 127.152955 
L 360.59904 124.959438 
L 362.49408 124.959438 
L 364.38912 122.76592 
L 368.1792 122.76592 
L 370.07424 121.134844 
L 371.96928 116.747809 
L 373.86432 114.554292 
L 375.75936 112.923215 
L 383.33952 112.923215 
L 385.23456 110.729698 
L 387.1296 110.729698 
L 389.02464 108.53618 
L 390.91968 108.53618 
L 392.81472 106.342663 
L 402.28992 106.342663 
L 404.18496 104.711586 
L 407.97504 104.711586 
L 409.87008 102.518069 
L 425.0304 102.518069 
L 426.92544 100.324552 
L 436.40064 100.324552 
L 438.29568 98.131034 
L 459.14112 98.131034 
L 461.03616 95.937517 
L 504.62208 95.937517 
L 506.51712 93.744 
L 642.96 93.744 
L 642.96 93.744 
" clip-path="url(#pad987273b8)" style="fill: none; stroke-dasharray: 1.35,2.2275; stroke-dashoffset: 0; stroke: #7d8a92; stroke-width: 1.35"/>
   </g>
   <g id="line2d_31">
    <path d="M 74.448 348.192 
L 144.56448 348.192 
L 146.45952 345.998483 
L 163.51488 345.998483 
L 165.40992 343.804966 
L 171.09504 343.804966 
L 172.99008 341.611448 
L 186.25536 341.611448 
L 190.04544 337.224414 
L 199.52064 337.224414 
L 207.1008 328.450345 
L 208.99584 324.625751 
L 214.68096 324.625751 
L 216.576 320.238716 
L 218.47104 320.238716 
L 220.36608 315.851682 
L 231.73632 315.851682 
L 237.42144 309.27113 
L 241.21152 309.27113 
L 243.10656 307.077613 
L 246.89664 307.077613 
L 248.79168 304.884095 
L 250.68672 298.303544 
L 254.4768 298.303544 
L 258.26688 293.916509 
L 267.74208 293.916509 
L 269.63712 291.722992 
L 271.53216 287.335958 
L 275.32224 282.948923 
L 277.21728 282.948923 
L 279.11232 280.755406 
L 281.00736 280.755406 
L 282.9024 278.561889 
L 286.69248 278.561889 
L 288.58752 276.930812 
L 290.48256 272.543777 
L 296.16768 272.543777 
L 298.06272 270.35026 
L 301.8528 270.35026 
L 303.74784 268.156743 
L 307.53792 268.156743 
L 309.43296 262.138631 
L 311.328 262.138631 
L 313.22304 258.314037 
L 315.11808 256.12052 
L 324.59328 256.12052 
L 326.48832 253.927003 
L 328.38336 252.295926 
L 330.2784 248.471332 
L 334.06848 244.084297 
L 335.96352 244.084297 
L 337.85856 241.89078 
L 339.7536 240.259703 
L 341.64864 240.259703 
L 343.54368 236.435109 
L 345.43872 234.241592 
L 349.2288 234.241592 
L 353.01888 229.854557 
L 354.91392 226.029963 
L 356.80896 226.029963 
L 358.704 224.398886 
L 366.28416 224.398886 
L 370.07424 221.136732 
L 371.96928 221.136732 
L 373.86432 219.505655 
L 375.75936 217.312138 
L 379.54944 217.312138 
L 381.44448 215.681061 
L 383.33952 211.856467 
L 385.23456 211.856467 
L 387.1296 210.22539 
L 392.81472 203.644838 
L 398.49984 203.644838 
L 400.39488 202.013761 
L 404.18496 202.013761 
L 406.08 200.382684 
L 409.87008 200.382684 
L 411.76512 198.189167 
L 413.66016 198.189167 
L 415.5552 195.99565 
L 417.45024 194.364573 
L 421.24032 194.364573 
L 423.13536 192.733496 
L 426.92544 192.733496 
L 430.71552 189.471342 
L 432.61056 189.471342 
L 434.5056 187.840265 
L 436.40064 187.840265 
L 442.08576 182.947034 
L 443.9808 182.947034 
L 445.87584 181.315958 
L 447.77088 181.315958 
L 449.66592 172.598133 
L 451.56096 172.598133 
L 455.35104 169.335979 
L 457.24608 169.335979 
L 461.03616 166.073825 
L 466.72128 166.073825 
L 468.61632 162.811671 
L 470.51136 161.180594 
L 472.4064 161.180594 
L 474.30144 159.549517 
L 476.19648 154.656286 
L 478.09152 153.02521 
L 479.98656 148.131979 
L 481.8816 146.500902 
L 491.3568 146.500902 
L 493.25184 143.238748 
L 497.04192 143.238748 
L 498.93696 141.607671 
L 502.72704 141.607671 
L 504.62208 139.976594 
L 510.3072 139.976594 
L 515.99232 135.083363 
L 517.88736 135.083363 
L 519.7824 131.258769 
L 523.57248 131.258769 
L 525.46752 129.627692 
L 527.36256 129.627692 
L 529.2576 127.996615 
L 531.15264 127.996615 
L 533.04768 124.734462 
L 536.83776 124.734462 
L 540.62784 121.472308 
L 542.52288 121.472308 
L 546.31296 118.210154 
L 561.47328 118.210154 
L 563.36832 116.579077 
L 565.26336 116.579077 
L 567.1584 114.948 
L 569.05344 110.054769 
L 572.84352 110.054769 
L 574.73856 108.423692 
L 576.6336 108.423692 
L 578.52864 106.792615 
L 584.21376 106.792615 
L 586.1088 105.161538 
L 608.84928 105.161538 
L 610.74432 103.530462 
L 612.63936 103.530462 
L 614.5344 101.899385 
L 616.42944 101.899385 
L 618.32448 100.268308 
L 625.90464 100.268308 
L 627.79968 98.637231 
L 642.96 98.637231 
L 642.96 98.637231 
" clip-path="url(#pad987273b8)" style="fill: none; stroke-dasharray: 8.64,2.16,1.35,2.16; stroke-dashoffset: 0; stroke: #d0526a; stroke-width: 1.35"/>
   </g>
   <g id="line2d_32">
    <path d="M 74.448 348.192 
L 95.29344 348.192 
L 97.18848 345.998483 
L 121.824 345.998483 
L 123.71904 343.804966 
L 131.2992 343.804966 
L 133.19424 341.611448 
L 136.98432 341.611448 
L 138.87936 339.417931 
L 144.56448 339.417931 
L 146.45952 337.224414 
L 157.82976 337.224414 
L 161.61984 328.450345 
L 163.51488 328.450345 
L 165.40992 324.06331 
L 167.30496 321.869793 
L 182.46528 321.869793 
L 184.36032 320.238716 
L 188.1504 320.238716 
L 190.04544 315.851682 
L 195.73056 315.851682 
L 197.6256 313.658164 
L 199.52064 313.658164 
L 201.41568 311.464647 
L 203.31072 311.464647 
L 207.1008 307.077613 
L 208.99584 307.077613 
L 212.78592 302.690578 
L 216.576 302.690578 
L 218.47104 298.303544 
L 220.36608 298.303544 
L 224.15616 293.916509 
L 226.0512 293.916509 
L 227.94624 287.335958 
L 229.84128 282.948923 
L 231.73632 280.755406 
L 237.42144 280.755406 
L 239.31648 278.561889 
L 241.21152 278.561889 
L 243.10656 276.930812 
L 250.68672 276.930812 
L 252.58176 272.543777 
L 254.4768 270.35026 
L 256.37184 270.35026 
L 258.26688 268.156743 
L 262.05696 268.156743 
L 265.84704 264.894589 
L 269.63712 260.507554 
L 277.21728 260.507554 
L 281.00736 256.12052 
L 282.9024 256.12052 
L 284.79744 254.489443 
L 286.69248 254.489443 
L 292.3776 241.32834 
L 299.95776 241.32834 
L 301.8528 238.066186 
L 309.43296 238.066186 
L 311.328 236.435109 
L 313.22304 232.610515 
L 315.11808 232.610515 
L 317.01312 226.029963 
L 320.8032 222.767809 
L 322.69824 222.767809 
L 324.59328 221.136732 
L 328.38336 221.136732 
L 332.17344 217.874578 
L 335.96352 217.874578 
L 339.7536 213.487544 
L 341.64864 213.487544 
L 343.54368 211.856467 
L 345.43872 209.66295 
L 347.33376 209.66295 
L 349.2288 207.469432 
L 353.01888 207.469432 
L 354.91392 204.207279 
L 356.80896 202.013761 
L 364.38912 202.013761 
L 366.28416 200.382684 
L 370.07424 195.99565 
L 377.6544 195.99565 
L 379.54944 194.364573 
L 385.23456 194.364573 
L 390.91968 189.471342 
L 392.81472 189.471342 
L 394.70976 187.840265 
L 398.49984 187.840265 
L 402.28992 184.578111 
L 406.08 184.578111 
L 407.97504 178.053804 
L 409.87008 178.053804 
L 411.76512 171.529496 
L 413.66016 171.529496 
L 415.5552 169.898419 
L 419.34528 169.898419 
L 421.24032 167.704902 
L 425.0304 167.704902 
L 426.92544 164.442748 
L 428.82048 164.442748 
L 430.71552 162.811671 
L 432.61056 162.811671 
L 434.5056 161.180594 
L 436.40064 161.180594 
L 438.29568 159.549517 
L 440.19072 159.549517 
L 442.08576 156.287363 
L 443.9808 151.394133 
L 449.66592 146.500902 
L 455.35104 146.500902 
L 457.24608 144.869825 
L 459.14112 144.869825 
L 461.03616 141.607671 
L 464.82624 141.607671 
L 466.72128 139.976594 
L 478.09152 139.976594 
L 479.98656 136.71444 
L 481.8816 136.71444 
L 483.77664 132.889846 
L 485.67168 129.627692 
L 495.14688 129.627692 
L 497.04192 127.996615 
L 498.93696 124.734462 
L 500.832 124.734462 
L 502.72704 123.103385 
L 506.51712 123.103385 
L 508.41216 121.472308 
L 512.20224 121.472308 
L 514.09728 118.210154 
L 529.2576 118.210154 
L 531.15264 116.579077 
L 536.83776 116.579077 
L 538.7328 113.316923 
L 540.62784 111.685846 
L 542.52288 111.685846 
L 546.31296 108.423692 
L 550.10304 108.423692 
L 553.89312 105.161538 
L 574.73856 105.161538 
L 576.6336 103.530462 
L 589.89888 103.530462 
L 595.584 98.637231 
L 624.0096 98.637231 
L 625.90464 97.006154 
L 631.58976 97.006154 
L 633.4848 95.375077 
L 642.96 95.375077 
L 642.96 95.375077 
" clip-path="url(#pad987273b8)" style="fill: none; stroke-dasharray: 6.75,2.7,1.35,2.7; stroke-dashoffset: 0; stroke: #2f8f84; stroke-width: 1.35"/>
   </g>
   <g id="patch_4">
    <path d="M 74.448 348.192 
L 74.448 93.744 
" style="fill: none; stroke: #000000; stroke-width: 0.8; stroke-linejoin: miter; stroke-linecap: square"/>
   </g>
   <g id="patch_5">
    <path d="M 74.448 348.192 
L 642.96 348.192 
" style="fill: none; stroke: #000000; stroke-width: 0.8; stroke-linejoin: miter; stroke-linecap: square"/>
   </g>
  </g>
  <g id="text_16">
   <text style="font: 18px 'DejaVu Sans', 'Bitstream Vera Sans', 'Computer Modern Sans Serif', 'Lucida Grande', 'Verdana', 'Geneva', 'Lucid', 'Arial', 'Helvetica', 'Avant Garde', sans-serif; text-anchor: start" x="74.448" y="38.229188" transform="rotate(-0 74.448 38.229188)">QDEF LCD → QD-OLED</text>
  </g>
  <g id="text_17">
   <text style="fill: #66747c; font: 10px 'DejaVu Sans', 'Bitstream Vera Sans', 'Computer Modern Sans Serif', 'Lucida Grande', 'Verdana', 'Geneva', 'Lucid', 'Arial', 'Helvetica', 'Avant Garde', sans-serif; text-anchor: start" x="74.448" y="64.728" transform="rotate(-0 74.448 64.728)">All illuminants</text>
  </g>
  <g id="legend_1">
   <g id="line2d_33">
    <path d="M 185.17875 404.151391 
L 194.27875 404.151391 
L 203.37875 404.151391 
" style="fill: none; stroke: #252525; stroke-width: 2.5; stroke-linecap: square"/>
   </g>
   <g id="text_18">
    <text style="font: 9.1px 'DejaVu Sans', 'Bitstream Vera Sans', 'Computer Modern Sans Serif', 'Lucida Grande', 'Verdana', 'Geneva', 'Lucid', 'Arial', 'Helvetica', 'Avant Garde', sans-serif; text-anchor: start" x="210.65875" y="407.336391" transform="rotate(-0 210.65875 407.336391)">Potera CMF</text>
   </g>
   <g id="line2d_34">
    <path d="M 185.17875 417.508484 
L 194.27875 417.508484 
L 203.37875 417.508484 
" style="fill: none; stroke: #3b83b4; stroke-width: 1.35; stroke-linecap: square"/>
   </g>
   <g id="text_19">
    <text style="font: 9.1px 'DejaVu Sans', 'Bitstream Vera Sans', 'Computer Modern Sans Serif', 'Lucida Grande', 'Verdana', 'Geneva', 'Lucid', 'Arial', 'Helvetica', 'Avant Garde', sans-serif; text-anchor: start" x="210.65875" y="420.693484" transform="rotate(-0 210.65875 420.693484)">CIE 2015 2°</text>
   </g>
   <g id="line2d_35">
    <path d="M 282.931234 404.151391 
L 292.031234 404.151391 
L 301.131234 404.151391 
" style="fill: none; stroke-dasharray: 4.995,2.16; stroke-dashoffset: 0; stroke: #c38a19; stroke-width: 1.35"/>
   </g>
   <g id="text_20">
    <text style="font: 9.1px 'DejaVu Sans', 'Bitstream Vera Sans', 'Computer Modern Sans Serif', 'Lucida Grande', 'Verdana', 'Geneva', 'Lucid', 'Arial', 'Helvetica', 'Avant Garde', sans-serif; text-anchor: start" x="308.411234" y="407.336391" transform="rotate(-0 308.411234 407.336391)">CIE 2015 10°</text>
   </g>
   <g id="line2d_36">
    <path d="M 282.931234 417.508484 
L 292.031234 417.508484 
L 301.131234 417.508484 
" style="fill: none; stroke-dasharray: 1.35,2.2275; stroke-dashoffset: 0; stroke: #7d8a92; stroke-width: 1.35"/>
   </g>
   <g id="text_21">
    <text style="font: 9.1px 'DejaVu Sans', 'Bitstream Vera Sans', 'Computer Modern Sans Serif', 'Lucida Grande', 'Verdana', 'Geneva', 'Lucid', 'Arial', 'Helvetica', 'Avant Garde', sans-serif; text-anchor: start" x="308.411234" y="420.693484" transform="rotate(-0 308.411234 420.693484)">CIE 1964 10°</text>
   </g>
   <g id="line2d_37">
    <path d="M 386.473594 404.151391 
L 395.573594 404.151391 
L 404.673594 404.151391 
" style="fill: none; stroke-dasharray: 8.64,2.16,1.35,2.16; stroke-dashoffset: 0; stroke: #d0526a; stroke-width: 1.35"/>
   </g>
   <g id="text_22">
    <text style="font: 9.1px 'DejaVu Sans', 'Bitstream Vera Sans', 'Computer Modern Sans Serif', 'Lucida Grande', 'Verdana', 'Geneva', 'Lucid', 'Arial', 'Helvetica', 'Avant Garde', sans-serif; text-anchor: start" x="411.953594" y="407.336391" transform="rotate(-0 411.953594 407.336391)">CIE 1931 2°</text>
   </g>
   <g id="line2d_38">
    <path d="M 386.473594 417.508484 
L 395.573594 417.508484 
L 404.673594 417.508484 
" style="fill: none; stroke-dasharray: 6.75,2.7,1.35,2.7; stroke-dashoffset: 0; stroke: #2f8f84; stroke-width: 1.35"/>
   </g>
   <g id="text_23">
    <text style="font: 9.1px 'DejaVu Sans', 'Bitstream Vera Sans', 'Computer Modern Sans Serif', 'Lucida Grande', 'Verdana', 'Geneva', 'Lucid', 'Arial', 'Helvetica', 'Avant Garde', sans-serif; text-anchor: start" x="411.953594" y="420.693484" transform="rotate(-0 411.953594 420.693484)">Judd–Vos 1978 2°</text>
   </g>
  </g>
 </g>
 <defs>
  <clipPath id="pad987273b8">
   <rect x="74.448" y="93.744" width="568.512" height="254.448"/>
  </clipPath>
 </defs>
</svg>
