<?xml version="1.0" encoding="utf-8" standalone="no"?>
<!DOCTYPE svg PUBLIC "-//W3C//DTD SVG 1.1//EN"
  "http://www.w3.org/Graphics/SVG/1.1/DTD/svg11.dtd">
<svg xmlns:xlink="http://www.w3.org/1999/xlink" width="676.8pt" height="446.4pt" viewBox="0 0 676.8 446.4" xmlns="http://www.w3.org/2000/svg" version="1.1">
 <metadata>
  <rdf:RDF xmlns:dc="http://purl.org/dc/elements/1.1/" xmlns:cc="http://creativecommons.org/ns#" xmlns:rdf="http://www.w3.org/1999/02/22-rdf-syntax-ns#">
   <cc:Work>
    <dc:type rdf:resource="http://purl.org/dc/dcmitype/StillImage"/>
    <dc:date>2026-07-20T06:41:59.593875</dc:date>
    <dc:format>image/svg+xml</dc:format>
    <dc:creator>
     <cc:Agent>
      <dc:title>Matplotlib v3.9.4, https://matplotlib.org/</dc:title>
     </cc:Agent>
    </dc:creator>
   </cc:Work>
  </rdf:RDF>
 </metadata>
 <defs>
  <style type="text/css">*{stroke-linejoin: round; stroke-linecap: butt}</style>
 </defs>
 <g id="figure_1">
  <g id="patch_1">
   <path d="M 0 446.4 
L 676.8 446.4 
L 676.8 0 
L 0 0 
z
" style="fill: #ffffff"/>
  </g>
  <g id="axes_1">
   <g id="patch_2">
    <path d="M 74.448 348.192 
L 642.96 348.192 
L 642.96 93.744 
L 74.448 93.744 
z
" style="fill: #ffffff"/>
   </g>
   <g id="patch_3">
    <path d="M 169.2 348.192 
L 358.704 348.192 
L 358.704 93.744 
L 169.2 93.744 
z
" clip-path="url(#p523362c66b)" style="fill: #e7f0ea; opacity: 0.58; stroke: #e7f0ea; stroke-linejoin: miter"/>
   </g>
   <g id="matplotlib.axis_1">
    <g id="xtick_1">
     <g id="line2d_1">
      <path d="M 74.448 348.192 
L 74.448 93.744 
" clip-path="url(#p523362c66b)" style="fill: none; stroke: #dfe5e8; stroke-width: 0.65; stroke-linecap: square"/>
     </g>
     <g id="line2d_2">
      <defs>
       <path id="m386b12618b" d="M 0 0 
L 0 3.5 
" style="stroke: #000000; stroke-width: 0.8"/>
      </defs>
      <g>
       <use xlink:href="#m386b12618b" x="74.448" y="348.192" style="stroke: #000000; stroke-width: 0.8"/>
      </g>
     </g>
     <g id="text_1">
      <text style="font: 10px 'DejaVu Sans', 'Bitstream Vera Sans', 'Computer Modern Sans Serif', 'Lucida Grande', 'Verdana', 'Geneva', 'Lucid', 'Arial', 'Helvetica', 'Avant Garde', sans-serif; text-anchor: middle" x="74.448" y="362.790438" transform="rotate(-0 74.448 362.790438)">0</text>
     </g>
    </g>
    <g id="xtick_2">
     <g id="line2d_3">
      <path d="M 169.2 348.192 
L 169.2 93.744 
" clip-path="url(#p523362c66b)" style="fill: none; stroke: #dfe5e8; stroke-width: 0.65; stroke-linecap: square"/>
     </g>
     <g id="line2d_4">
      <g>
       <use xlink:href="#m386b12618b" x="169.2" y="348.192" style="stroke: #000000; stroke-width: 0.8"/>
      </g>
     </g>
     <g id="text_2">
      <text style="font: 10px 'DejaVu Sans', 'Bitstream Vera Sans', 'Computer Modern Sans Serif', 'Lucida Grande', 'Verdana', 'Geneva', 'Lucid', 'Arial', 'Helvetica', 'Avant Garde', sans-serif; text-anchor: middle" x="169.2" y="362.790438" transform="rotate(-0 169.2 362.790438)">1</text>
     </g>
    </g>
    <g id="xtick_3">
     <g id="line2d_5">
      <path d="M 263.952 348.192 
L 263.952 93.744 
" clip-path="url(#p523362c66b)" style="fill: none; stroke: #dfe5e8; stroke-width: 0.65; stroke-linecap: square"/>
     </g>
     <g id="line2d_6">
      <g>
       <use xlink:href="#m386b12618b" x="263.952" y="348.192" style="stroke: #000000; stroke-width: 0.8"/>
      </g>
     </g>
     <g id="text_3">
      <text style="font: 10px 'DejaVu Sans', 'Bitstream Vera Sans', 'Computer Modern Sans Serif', 'Lucida Grande', 'Verdana', 'Geneva', 'Lucid', 'Arial', 'Helvetica', 'Avant Garde', sans-serif; text-anchor: middle" x="263.952" y="362.790438" transform="rotate(-0 263.952 362.790438)">2</text>
     </g>
    </g>
    <g id="xtick_4">
     <g id="line2d_7">
      <path d="M 358.704 348.192 
L 358.704 93.744 
" clip-path="url(#p523362c66b)" style="fill: none; stroke: #dfe5e8; stroke-width: 0.65; stroke-linecap: square"/>
     </g>
     <g id="line2d_8">
      <g>
       <use xlink:href="#m386b12618b" x="358.704" y="348.192" style="stroke: #000000; stroke-width: 0.8"/>
      </g>
     </g>
     <g id="text_4">
      <text style="font: 10px 'DejaVu Sans', 'Bitstream Vera Sans', 'Computer Modern Sans Serif', 'Lucida Grande', 'Verdana', 'Geneva', 'Lucid', 'Arial', 'Helvetica', 'Avant Garde', sans-serif; text-anchor: middle" x="358.704" y="362.790438" transform="rotate(-0 358.704 362.790438)">3</text>
     </g>
    </g>
    <g id="xtick_5">
     <g id="line2d_9">
      <path d="M 453.456 348.192 
L 453.456 93.744 
" clip-path="url(#p523362c66b)" style="fill: none; stroke: #dfe5e8; stroke-width: 0.65; stroke-linecap: square"/>
     </g>
     <g id="line2d_10">
      <g>
       <use xlink:href="#m386b12618b" x="453.456" y="348.192" style="stroke: #000000; stroke-width: 0.8"/>
      </g>
     </g>
     <g id="text_5">
      <text style="font: 10px 'DejaVu Sans', 'Bitstream Vera Sans', 'Computer Modern Sans Serif', 'Lucida Grande', 'Verdana', 'Geneva', 'Lucid', 'Arial', 'Helvetica', 'Avant Garde', sans-serif; text-anchor: middle" x="453.456" y="362.790438" transform="rotate(-0 453.456 362.790438)">4</text>
     </g>
    </g>
    <g id="xtick_6">
     <g id="line2d_11">
      <path d="M 548.208 348.192 
L 548.208 93.744 
" clip-path="url(#p523362c66b)" style="fill: none; stroke: #dfe5e8; stroke-width: 0.65; stroke-linecap: square"/>
     </g>
     <g id="line2d_12">
      <g>
       <use xlink:href="#m386b12618b" x="548.208" y="348.192" style="stroke: #000000; stroke-width: 0.8"/>
      </g>
     </g>
     <g id="text_6">
      <text style="font: 10px 'DejaVu Sans', 'Bitstream Vera Sans', 'Computer Modern Sans Serif', 'Lucida Grande', 'Verdana', 'Geneva', 'Lucid', 'Arial', 'Helvetica', 'Avant Garde', sans-serif; text-anchor: middle" x="548.208" y="362.790438" transform="rotate(-0 548.208 362.790438)">5</text>
     </g>
    </g>
    <g id="xtick_7">
     <g id="line2d_13">
      <path d="M 642.96 348.192 
L 642.96 93.744 
" clip-path="url(#p523362c66b)" style="fill: none; stroke: #dfe5e8; stroke-width: 0.65; stroke-linecap: square"/>
     </g>
     <g id="line2d_14">
      <g>
       <use xlink:href="#m386b12618b" x="642.96" y="348.192" style="stroke: #000000; stroke-width: 0.8"/>
      </g>
     </g>
     <g id="text_7">
      <text style="font: 10px 'DejaVu Sans', 'Bitstream Vera Sans', 'Computer Modern Sans Serif', 'Lucida Grande', 'Verdana', 'Geneva', 'Lucid', 'Arial', 'Helvetica', 'Avant Garde', sans-serif; text-anchor: middle" x="642.96" y="362.790438" transform="rotate(-0 642.96 362.790438)">6</text>
     </g>
    </g>
    <g id="text_8">
     <text style="font: 10px 'DejaVu Sans', 'Bitstream Vera Sans', 'Computer Modern Sans Serif', 'Lucida Grande', 'Verdana', 'Geneva', 'Lucid', 'Arial', 'Helvetica', 'Avant Garde', sans-serif; text-anchor: middle" x="358.704" y="376.468563" transform="rotate(-0 358.704 376.468563)">sUCS dE threshold</text>
    </g>
   </g>
   <g id="matplotlib.axis_2">
    <g id="ytick_1">
     <g id="line2d_15">
      <path d="M 74.448 348.192 
L 642.96 348.192 
" clip-path="url(#p523362c66b)" style="fill: none; stroke: #dfe5e8; stroke-width: 0.65; stroke-linecap: square"/>
     </g>
     <g id="line2d_16">
      <defs>
       <path id="m65f69796dc" d="M 0 0 
L -3.5 0 
" style="stroke: #000000; stroke-width: 0.8"/>
      </defs>
      <g>
       <use xlink:href="#m65f69796dc" x="74.448" y="348.192" style="stroke: #000000; stroke-width: 0.8"/>
      </g>
     </g>
     <g id="text_9">
      <text style="font: 10px 'DejaVu Sans', 'Bitstream Vera Sans', 'Computer Modern Sans Serif', 'Lucida Grande', 'Verdana', 'Geneva', 'Lucid', 'Arial', 'Helvetica', 'Avant Garde', sans-serif; text-anchor: end" x="67.448" y="351.991219" transform="rotate(-0 67.448 351.991219)">0</text>
     </g>
    </g>
    <g id="ytick_2">
     <g id="line2d_17">
      <path d="M 74.448 297.3024 
L 642.96 297.3024 
" clip-path="url(#p523362c66b)" style="fill: none; stroke: #dfe5e8; stroke-width: 0.65; stroke-linecap: square"/>
     </g>
     <g id="line2d_18">
      <g>
       <use xlink:href="#m65f69796dc" x="74.448" y="297.3024" style="stroke: #000000; stroke-width: 0.8"/>
      </g>
     </g>
     <g id="text_10">
      <text style="font: 10px 'DejaVu Sans', 'Bitstream Vera Sans', 'Computer Modern Sans Serif', 'Lucida Grande', 'Verdana', 'Geneva', 'Lucid', 'Arial', 'Helvetica', 'Avant Garde', sans-serif; text-anchor: end" x="67.448" y="301.101619" transform="rotate(-0 67.448 301.101619)">20</text>
     </g>
    </g>
    <g id="ytick_3">
     <g id="line2d_19">
      <path d="M 74.448 246.4128 
L 642.96 246.4128 
" clip-path="url(#p523362c66b)" style="fill: none; stroke: #dfe5e8; stroke-width: 0.65; stroke-linecap: square"/>
     </g>
     <g id="line2d_20">
      <g>
       <use xlink:href="#m65f69796dc" x="74.448" y="246.4128" style="stroke: #000000; stroke-width: 0.8"/>
      </g>
     </g>
     <g id="text_11">
      <text style="font: 10px 'DejaVu Sans', 'Bitstream Vera Sans', 'Computer Modern Sans Serif', 'Lucida Grande', 'Verdana', 'Geneva', 'Lucid', 'Arial', 'Helvetica', 'Avant Garde', sans-serif; text-anchor: end" x="67.448" y="250.212019" transform="rotate(-0 67.448 250.212019)">40</text>
     </g>
    </g>
    <g id="ytick_4">
     <g id="line2d_21">
      <path d="M 74.448 195.5232 
L 642.96 195.5232 
" clip-path="url(#p523362c66b)" style="fill: none; stroke: #dfe5e8; stroke-width: 0.65; stroke-linecap: square"/>
     </g>
     <g id="line2d_22">
      <g>
       <use xlink:href="#m65f69796dc" x="74.448" y="195.5232" style="stroke: #000000; stroke-width: 0.8"/>
      </g>
     </g>
     <g id="text_12">
      <text style="font: 10px 'DejaVu Sans', 'Bitstream Vera Sans', 'Computer Modern Sans Serif', 'Lucida Grande', 'Verdana', 'Geneva', 'Lucid', 'Arial', 'Helvetica', 'Avant Garde', sans-serif; text-anchor: end" x="67.448" y="199.322419" transform="rotate(-0 67.448 199.322419)">60</text>
     </g>
    </g>
    <g id="ytick_5">
     <g id="line2d_23">
      <path d="M 74.448 144.6336 
L 642.96 144.6336 
" clip-path="url(#p523362c66b)" style="fill: none; stroke: #dfe5e8; stroke-width: 0.65; stroke-linecap: square"/>
     </g>
     <g id="line2d_24">
      <g>
       <use xlink:href="#m65f69796dc" x="74.448" y="144.6336" style="stroke: #000000; stroke-width: 0.8"/>
      </g>
     </g>
     <g id="text_13">
      <text style="font: 10px 'DejaVu Sans', 'Bitstream Vera Sans', 'Computer Modern Sans Serif', 'Lucida Grande', 'Verdana', 'Geneva', 'Lucid', 'Arial', 'Helvetica', 'Avant Garde', sans-serif; text-anchor: end" x="67.448" y="148.432819" transform="rotate(-0 67.448 148.432819)">80</text>
     </g>
    </g>
    <g id="ytick_6">
     <g id="line2d_25">
      <path d="M 74.448 93.744 
L 642.96 93.744 
" clip-path="url(#p523362c66b)" style="fill: none; stroke: #dfe5e8; stroke-width: 0.65; stroke-linecap: square"/>
     </g>
     <g id="line2d_26">
      <g>
       <use xlink:href="#m65f69796dc" x="74.448" y="93.744" style="stroke: #000000; stroke-width: 0.8"/>
      </g>
     </g>
     <g id="text_14">
      <text style="font: 10px 'DejaVu Sans', 'Bitstream Vera Sans', 'Computer Modern Sans Serif', 'Lucida Grande', 'Verdana', 'Geneva', 'Lucid', 'Arial', 'Helvetica', 'Avant Garde', sans-serif; text-anchor: end" x="67.448" y="97.543219" transform="rotate(-0 67.448 97.543219)">100</text>
     </g>
    </g>
    <g id="text_15">
     <text style="font: 10px 'DejaVu Sans', 'Bitstream Vera Sans', 'Computer Modern Sans Serif', 'Lucida Grande', 'Verdana', 'Geneva', 'Lucid', 'Arial', 'Helvetica', 'Avant Garde', sans-serif; text-anchor: middle" x="42.280812" y="220.968" transform="rotate(-90 42.280812 220.968)">observers%</text>
    </g>
   </g>
   <g id="line2d_27">
    <path d="M 74.448 348.192 
L 83.9232 348.192 
L 85.81824 346.560923 
L 95.29344 346.560923 
L 97.18848 344.929846 
L 100.97856 340.542812 
L 102.8736 338.911735 
L 110.45376 338.911735 
L 112.3488 335.087141 
L 114.24384 335.087141 
L 116.13888 331.824987 
L 118.03392 331.824987 
L 119.92896 329.631469 
L 121.824 328.000393 
L 123.71904 328.000393 
L 127.50912 323.613358 
L 136.98432 323.613358 
L 138.87936 321.419841 
L 142.66944 314.895533 
L 144.56448 312.702016 
L 148.35456 309.439862 
L 152.14464 309.439862 
L 154.03968 303.984191 
L 159.7248 303.984191 
L 161.61984 301.790674 
L 163.51488 298.52852 
L 165.40992 292.510408 
L 167.30496 292.510408 
L 169.2 290.316891 
L 171.09504 285.42366 
L 172.99008 282.161507 
L 176.78016 282.161507 
L 178.6752 276.705836 
L 180.57024 276.705836 
L 182.46528 275.074759 
L 184.36032 272.881241 
L 188.1504 269.619088 
L 190.04544 264.163416 
L 191.94048 257.076668 
L 193.83552 254.883151 
L 195.73056 251.058557 
L 197.6256 251.058557 
L 199.52064 249.42748 
L 201.41568 246.165326 
L 203.31072 241.272095 
L 205.20576 239.641019 
L 207.1008 235.816424 
L 208.99584 232.554271 
L 210.89088 230.923194 
L 212.78592 225.467523 
L 216.576 221.080488 
L 218.47104 221.080488 
L 222.26112 217.818334 
L 229.84128 217.818334 
L 231.73632 211.800223 
L 233.63136 210.169146 
L 235.5264 210.169146 
L 237.42144 208.538069 
L 239.31648 204.713475 
L 243.10656 200.32644 
L 248.79168 200.32644 
L 252.58176 197.064286 
L 254.4768 197.064286 
L 256.37184 193.239692 
L 262.05696 193.239692 
L 263.952 191.608615 
L 265.84704 191.608615 
L 267.74208 189.415098 
L 269.63712 186.152944 
L 271.53216 184.521867 
L 277.21728 184.521867 
L 279.11232 182.89079 
L 282.9024 175.241602 
L 284.79744 173.048085 
L 288.58752 173.048085 
L 290.48256 171.417008 
L 292.3776 171.417008 
L 294.27264 169.223491 
L 298.06272 169.223491 
L 299.95776 167.029973 
L 301.8528 167.029973 
L 303.74784 165.398897 
L 305.64288 165.398897 
L 307.53792 159.380785 
L 313.22304 159.380785 
L 315.11808 157.749708 
L 317.01312 153.925114 
L 318.90816 151.731597 
L 320.8032 151.731597 
L 322.69824 145.713485 
L 328.38336 145.713485 
L 330.2784 144.082408 
L 332.17344 141.888891 
L 337.85856 141.888891 
L 339.7536 138.064297 
L 343.54368 138.064297 
L 345.43872 136.43322 
L 347.33376 136.43322 
L 349.2288 134.239703 
L 351.12384 134.239703 
L 353.01888 132.046186 
L 360.59904 132.046186 
L 362.49408 130.415109 
L 364.38912 126.028074 
L 366.28416 123.834557 
L 368.1792 123.834557 
L 370.07424 120.009963 
L 371.96928 120.009963 
L 373.86432 117.816446 
L 385.23456 117.816446 
L 387.1296 114.554292 
L 396.6048 114.554292 
L 400.39488 110.167257 
L 402.28992 110.167257 
L 404.18496 108.53618 
L 409.87008 108.53618 
L 411.76512 101.955629 
L 426.92544 101.955629 
L 428.82048 98.131034 
L 493.25184 98.131034 
L 495.14688 95.937517 
L 521.67744 95.937517 
L 523.57248 93.744 
L 642.96 93.744 
L 642.96 93.744 
" clip-path="url(#p523362c66b)" style="fill: none; stroke: #252525; stroke-width: 2.5; stroke-linecap: square"/>
   </g>
   <g id="line2d_28">
    <path d="M 74.448 348.192 
L 100.97856 348.192 
L 102.8736 345.998483 
L 114.24384 345.998483 
L 116.13888 343.804966 
L 119.92896 343.804966 
L 121.824 339.417931 
L 123.71904 339.417931 
L 127.50912 335.030897 
L 136.98432 335.030897 
L 138.87936 330.643862 
L 140.7744 330.643862 
L 144.56448 326.256828 
L 146.45952 326.256828 
L 148.35456 321.869793 
L 159.7248 321.869793 
L 161.61984 318.045199 
L 163.51488 315.851682 
L 165.40992 315.851682 
L 167.30496 309.27113 
L 169.2 307.077613 
L 176.78016 307.077613 
L 178.6752 304.884095 
L 180.57024 304.884095 
L 182.46528 302.690578 
L 184.36032 298.303544 
L 188.1504 298.303544 
L 190.04544 296.110027 
L 191.94048 294.47895 
L 193.83552 294.47895 
L 195.73056 290.091915 
L 197.6256 290.091915 
L 199.52064 285.704881 
L 203.31072 281.317846 
L 205.20576 276.930812 
L 208.99584 276.930812 
L 210.89088 273.106218 
L 212.78592 273.106218 
L 214.68096 270.9127 
L 216.576 270.9127 
L 218.47104 268.719183 
L 220.36608 263.263512 
L 222.26112 258.876477 
L 224.15616 256.68296 
L 229.84128 256.68296 
L 231.73632 254.489443 
L 235.5264 254.489443 
L 237.42144 248.471332 
L 239.31648 248.471332 
L 241.21152 246.277814 
L 243.10656 244.646737 
L 246.89664 244.646737 
L 248.79168 240.822143 
L 250.68672 238.628626 
L 254.4768 238.628626 
L 256.37184 236.997549 
L 260.16192 236.997549 
L 262.05696 234.804032 
L 263.952 234.804032 
L 265.84704 230.979438 
L 267.74208 229.348361 
L 269.63712 227.154844 
L 286.69248 227.154844 
L 288.58752 223.330249 
L 290.48256 220.068095 
L 292.3776 218.437019 
L 294.27264 216.243501 
L 296.16768 212.418907 
L 299.95776 208.031873 
L 305.64288 208.031873 
L 307.53792 205.838355 
L 317.01312 205.838355 
L 318.90816 203.644838 
L 320.8032 203.644838 
L 322.69824 201.451321 
L 324.59328 199.820244 
L 337.85856 199.820244 
L 339.7536 195.99565 
L 341.64864 195.99565 
L 345.43872 192.733496 
L 347.33376 189.471342 
L 349.2288 187.840265 
L 351.12384 187.840265 
L 353.01888 186.209188 
L 354.91392 186.209188 
L 356.80896 184.578111 
L 360.59904 184.578111 
L 362.49408 182.384594 
L 366.28416 182.384594 
L 371.96928 177.491363 
L 377.6544 177.491363 
L 379.54944 175.860286 
L 383.33952 175.860286 
L 385.23456 174.22921 
L 387.1296 174.22921 
L 389.02464 169.335979 
L 390.91968 169.335979 
L 396.6048 164.442748 
L 400.39488 157.91844 
L 402.28992 153.02521 
L 404.18496 153.02521 
L 409.87008 148.131979 
L 413.66016 148.131979 
L 415.5552 146.500902 
L 417.45024 141.607671 
L 419.34528 139.976594 
L 430.71552 139.976594 
L 432.61056 138.345517 
L 434.5056 138.345517 
L 436.40064 136.71444 
L 440.19072 136.71444 
L 442.08576 135.083363 
L 449.66592 135.083363 
L 451.56096 133.452286 
L 457.24608 133.452286 
L 459.14112 131.82121 
L 461.03616 131.82121 
L 462.9312 130.190133 
L 466.72128 130.190133 
L 472.4064 125.296902 
L 478.09152 125.296902 
L 481.8816 122.034748 
L 483.77664 122.034748 
L 485.67168 120.403671 
L 487.56672 116.579077 
L 493.25184 116.579077 
L 495.14688 114.948 
L 504.62208 114.948 
L 506.51712 111.685846 
L 508.41216 111.685846 
L 510.3072 110.054769 
L 517.88736 110.054769 
L 519.7824 108.423692 
L 521.67744 108.423692 
L 523.57248 106.792615 
L 527.36256 106.792615 
L 529.2576 105.161538 
L 540.62784 105.161538 
L 542.52288 103.530462 
L 551.99808 103.530462 
L 553.89312 101.899385 
L 572.84352 101.899385 
L 574.73856 100.268308 
L 586.1088 100.268308 
L 588.00384 97.006154 
L 597.47904 97.006154 
L 599.37408 95.375077 
L 633.4848 95.375077 
L 635.37984 93.744 
L 642.96 93.744 
L 642.96 93.744 
" clip-path="url(#p523362c66b)" style="fill: none; stroke: #3b83b4; stroke-width: 1.35; stroke-linecap: square"/>
   </g>
   <g id="line2d_29">
    <path d="M 74.448 348.192 
L 95.29344 348.192 
L 99.08352 344.929846 
L 110.45376 344.929846 
L 112.3488 341.105252 
L 114.24384 336.212021 
L 118.03392 332.949867 
L 119.92896 329.687714 
L 121.824 328.056637 
L 123.71904 323.163406 
L 125.61408 321.532329 
L 127.50912 317.707735 
L 133.19424 317.707735 
L 136.98432 314.445581 
L 140.7744 314.445581 
L 144.56448 311.183427 
L 146.45952 307.921273 
L 148.35456 307.921273 
L 150.2496 306.290196 
L 152.14464 306.290196 
L 154.03968 301.396966 
L 155.93472 299.765889 
L 157.82976 296.503735 
L 163.51488 296.503735 
L 165.40992 291.048064 
L 169.2 286.661029 
L 171.09504 283.398875 
L 174.88512 275.749687 
L 176.78016 275.749687 
L 178.6752 270.856456 
L 180.57024 270.856456 
L 182.46528 267.594302 
L 184.36032 263.769708 
L 186.25536 263.769708 
L 188.1504 260.507554 
L 190.04544 260.507554 
L 191.94048 258.876477 
L 193.83552 253.983247 
L 195.73056 252.35217 
L 197.6256 250.158653 
L 199.52064 246.334058 
L 201.41568 240.315947 
L 203.31072 238.68487 
L 208.99584 238.68487 
L 210.89088 237.053793 
L 212.78592 234.860276 
L 214.68096 234.860276 
L 216.576 233.229199 
L 222.26112 233.229199 
L 226.0512 226.704891 
L 227.94624 225.073814 
L 233.63136 225.073814 
L 235.5264 223.442737 
L 239.31648 223.442737 
L 243.10656 216.91843 
L 245.0016 207.075724 
L 248.79168 207.075724 
L 254.4768 202.182493 
L 256.37184 202.182493 
L 258.26688 199.988976 
L 260.16192 199.988976 
L 262.05696 196.164382 
L 265.84704 196.164382 
L 267.74208 194.533305 
L 269.63712 192.339788 
L 271.53216 187.952753 
L 273.4272 186.321676 
L 279.11232 186.321676 
L 281.00736 182.497082 
L 284.79744 182.497082 
L 286.69248 180.303565 
L 288.58752 180.303565 
L 290.48256 178.110048 
L 296.16768 178.110048 
L 298.06272 174.285454 
L 303.74784 174.285454 
L 307.53792 169.898419 
L 309.43296 168.267342 
L 311.328 164.442748 
L 318.90816 164.442748 
L 320.8032 162.249231 
L 322.69824 162.249231 
L 324.59328 160.618154 
L 326.48832 160.618154 
L 328.38336 158.987077 
L 332.17344 158.987077 
L 335.96352 154.600042 
L 356.80896 154.600042 
L 358.704 152.968966 
L 360.59904 152.968966 
L 364.38912 148.581931 
L 370.07424 148.581931 
L 373.86432 144.194897 
L 379.54944 144.194897 
L 381.44448 142.001379 
L 383.33952 142.001379 
L 385.23456 139.807862 
L 387.1296 139.807862 
L 389.02464 137.614345 
L 392.81472 137.614345 
L 394.70976 135.420828 
L 396.6048 135.420828 
L 398.49984 133.22731 
L 400.39488 128.840276 
L 415.5552 128.840276 
L 419.34528 124.453241 
L 421.24032 124.453241 
L 423.13536 122.259724 
L 430.71552 122.259724 
L 436.40064 115.679172 
L 440.19072 115.679172 
L 442.08576 113.485655 
L 453.456 113.485655 
L 455.35104 111.292138 
L 472.4064 111.292138 
L 476.19648 106.905103 
L 481.8816 106.905103 
L 483.77664 104.711586 
L 485.67168 104.711586 
L 487.56672 102.518069 
L 489.46176 102.518069 
L 491.3568 100.324552 
L 506.51712 100.324552 
L 508.41216 98.131034 
L 570.94848 98.131034 
L 572.84352 95.937517 
L 597.47904 95.937517 
L 599.37408 93.744 
L 642.96 93.744 
L 642.96 93.744 
" clip-path="url(#p523362c66b)" style="fill: none; stroke-dasharray: 4.995,2.16; stroke-dashoffset: 0; stroke: #c38a19; stroke-width: 1.35"/>
   </g>
   <g id="line2d_30">
    <path d="M 74.448 348.192 
L 112.3488 348.192 
L 114.24384 343.804966 
L 121.824 343.804966 
L 123.71904 340.542812 
L 136.98432 340.542812 
L 138.87936 338.911735 
L 140.7744 335.087141 
L 142.66944 332.893623 
L 144.56448 332.893623 
L 146.45952 331.262546 
L 154.03968 331.262546 
L 159.7248 324.681995 
L 161.61984 324.681995 
L 163.51488 322.488477 
L 171.09504 315.96417 
L 172.99008 312.702016 
L 174.88512 310.508499 
L 178.6752 310.508499 
L 180.57024 308.877422 
L 184.36032 308.877422 
L 186.25536 305.052828 
L 190.04544 305.052828 
L 191.94048 301.790674 
L 193.83552 297.403639 
L 195.73056 295.772562 
L 197.6256 290.316891 
L 199.52064 285.42366 
L 201.41568 285.42366 
L 205.20576 282.161507 
L 207.1008 275.074759 
L 210.89088 275.074759 
L 212.78592 270.181528 
L 214.68096 270.181528 
L 216.576 266.919374 
L 218.47104 266.919374 
L 220.36608 263.65722 
L 222.26112 263.65722 
L 224.15616 259.832626 
L 226.0512 259.832626 
L 227.94624 257.639109 
L 229.84128 257.639109 
L 231.73632 254.376955 
L 233.63136 249.98992 
L 235.5264 244.534249 
L 237.42144 244.534249 
L 239.31648 242.340732 
L 241.21152 238.516138 
L 243.10656 236.885061 
L 245.0016 233.622907 
L 248.79168 225.973719 
L 250.68672 221.080488 
L 254.4768 217.818334 
L 258.26688 217.818334 
L 260.16192 216.187257 
L 262.05696 212.362663 
L 263.952 206.344552 
L 269.63712 206.344552 
L 271.53216 203.082398 
L 273.4272 199.257804 
L 275.32224 197.626727 
L 277.21728 194.364573 
L 279.11232 192.733496 
L 281.00736 192.733496 
L 282.9024 188.908902 
L 286.69248 188.908902 
L 288.58752 187.277825 
L 290.48256 187.277825 
L 292.3776 185.084308 
L 296.16768 185.084308 
L 299.95776 181.822154 
L 301.8528 175.804042 
L 303.74784 171.417008 
L 305.64288 169.785931 
L 311.328 169.785931 
L 313.22304 168.154854 
L 315.11808 164.8927 
L 317.01312 164.8927 
L 318.90816 163.261623 
L 320.8032 163.261623 
L 322.69824 161.068106 
L 324.59328 161.068106 
L 326.48832 155.049995 
L 330.2784 155.049995 
L 332.17344 152.856477 
L 334.06848 152.856477 
L 335.96352 150.66296 
L 337.85856 146.838366 
L 339.7536 142.451332 
L 341.64864 136.99566 
L 351.12384 136.99566 
L 356.80896 130.415109 
L 364.38912 130.415109 
L 366.28416 128.221592 
L 370.07424 128.221592 
L 371.96928 126.028074 
L 377.6544 126.028074 
L 379.54944 123.834557 
L 381.44448 123.834557 
L 383.33952 120.572403 
L 387.1296 120.572403 
L 389.02464 116.747809 
L 390.91968 115.116732 
L 404.18496 115.116732 
L 406.08 112.923215 
L 409.87008 112.923215 
L 411.76512 108.53618 
L 413.66016 106.342663 
L 421.24032 106.342663 
L 423.13536 104.149146 
L 428.82048 104.149146 
L 430.71552 101.955629 
L 442.08576 101.955629 
L 443.9808 100.324552 
L 447.77088 100.324552 
L 449.66592 98.131034 
L 506.51712 98.131034 
L 508.41216 95.937517 
L 527.36256 95.937517 
L 529.2576 93.744 
L 642.96 93.744 
L 642.96 93.744 
" clip-path="url(#p523362c66b)" style="fill: none; stroke-dasharray: 1.35,2.2275; stroke-dashoffset: 0; stroke: #7d8a92; stroke-width: 1.35"/>
   </g>
   <g id="line2d_31">
    <path d="M 74.448 348.192 
L 152.14464 348.192 
L 154.03968 345.998483 
L 165.40992 345.998483 
L 167.30496 343.804966 
L 182.46528 343.804966 
L 186.25536 339.417931 
L 193.83552 339.417931 
L 197.6256 335.030897 
L 210.89088 335.030897 
L 212.78592 330.643862 
L 218.47104 330.643862 
L 220.36608 328.450345 
L 222.26112 328.450345 
L 224.15616 326.256828 
L 226.0512 326.256828 
L 227.94624 321.869793 
L 229.84128 320.238716 
L 235.5264 320.238716 
L 239.31648 315.851682 
L 246.89664 315.851682 
L 252.58176 309.27113 
L 258.26688 309.27113 
L 260.16192 304.884095 
L 262.05696 302.690578 
L 265.84704 302.690578 
L 267.74208 300.497061 
L 269.63712 300.497061 
L 271.53216 298.303544 
L 281.00736 298.303544 
L 282.9024 296.110027 
L 286.69248 296.110027 
L 290.48256 291.722992 
L 292.3776 291.722992 
L 294.27264 287.335958 
L 298.06272 287.335958 
L 299.95776 282.948923 
L 301.8528 280.755406 
L 307.53792 280.755406 
L 309.43296 276.368371 
L 315.11808 276.368371 
L 317.01312 274.174854 
L 324.59328 274.174854 
L 326.48832 269.78782 
L 330.2784 269.78782 
L 332.17344 268.156743 
L 334.06848 265.963225 
L 335.96352 265.963225 
L 337.85856 262.138631 
L 339.7536 257.751597 
L 347.33376 257.751597 
L 349.2288 256.12052 
L 353.01888 256.12052 
L 354.91392 253.927003 
L 356.80896 253.927003 
L 358.704 250.102408 
L 360.59904 250.102408 
L 362.49408 248.471332 
L 364.38912 248.471332 
L 366.28416 246.277814 
L 370.07424 246.277814 
L 371.96928 242.45322 
L 377.6544 242.45322 
L 379.54944 240.822143 
L 381.44448 240.822143 
L 383.33952 238.628626 
L 385.23456 238.628626 
L 387.1296 236.435109 
L 392.81472 236.435109 
L 398.49984 229.854557 
L 402.28992 229.854557 
L 404.18496 228.22348 
L 406.08 224.398886 
L 407.97504 222.767809 
L 417.45024 222.767809 
L 419.34528 221.136732 
L 421.24032 221.136732 
L 423.13536 218.943215 
L 425.0304 218.943215 
L 426.92544 217.312138 
L 430.71552 217.312138 
L 432.61056 214.049984 
L 438.29568 214.049984 
L 440.19072 211.856467 
L 443.9808 211.856467 
L 445.87584 207.469432 
L 447.77088 205.838355 
L 451.56096 201.451321 
L 457.24608 201.451321 
L 459.14112 199.820244 
L 462.9312 199.820244 
L 464.82624 198.189167 
L 470.51136 198.189167 
L 472.4064 196.55809 
L 474.30144 191.102419 
L 476.19648 189.471342 
L 478.09152 189.471342 
L 479.98656 187.840265 
L 481.8816 187.840265 
L 483.77664 186.209188 
L 485.67168 186.209188 
L 487.56672 184.015671 
L 491.3568 184.015671 
L 493.25184 182.384594 
L 500.832 182.384594 
L 504.62208 179.12244 
L 506.51712 179.12244 
L 512.20224 174.22921 
L 514.09728 170.967056 
L 515.99232 169.335979 
L 519.7824 169.335979 
L 521.67744 164.442748 
L 523.57248 161.180594 
L 531.15264 154.656286 
L 536.83776 154.656286 
L 540.62784 151.394133 
L 542.52288 151.394133 
L 544.41792 148.131979 
L 546.31296 148.131979 
L 548.208 144.869825 
L 550.10304 139.976594 
L 551.99808 139.976594 
L 553.89312 138.345517 
L 557.6832 138.345517 
L 559.57824 136.71444 
L 574.73856 136.71444 
L 576.6336 135.083363 
L 578.52864 131.82121 
L 580.42368 131.82121 
L 582.31872 130.190133 
L 584.21376 130.190133 
L 586.1088 128.559056 
L 589.89888 128.559056 
L 591.79392 125.296902 
L 593.68896 125.296902 
L 595.584 123.665825 
L 599.37408 123.665825 
L 601.26912 122.034748 
L 605.0592 122.034748 
L 606.95424 120.403671 
L 610.74432 120.403671 
L 612.63936 118.772594 
L 614.5344 116.579077 
L 616.42944 116.579077 
L 620.21952 113.316923 
L 622.11456 113.316923 
L 627.79968 108.423692 
L 629.69472 108.423692 
L 631.58976 106.792615 
L 642.96 106.792615 
L 642.96 106.792615 
" clip-path="url(#p523362c66b)" style="fill: none; stroke-dasharray: 8.64,2.16,1.35,2.16; stroke-dashoffset: 0; stroke: #d0526a; stroke-width: 1.35"/>
   </g>
   <g id="line2d_32">
    <path d="M 74.448 348.192 
L 97.18848 348.192 
L 99.08352 345.998483 
L 112.3488 345.998483 
L 114.24384 343.804966 
L 138.87936 343.804966 
L 140.7744 341.611448 
L 142.66944 341.611448 
L 144.56448 339.417931 
L 161.61984 339.417931 
L 163.51488 335.030897 
L 165.40992 335.030897 
L 167.30496 332.837379 
L 171.09504 332.837379 
L 172.99008 330.643862 
L 176.78016 330.643862 
L 178.6752 328.450345 
L 180.57024 328.450345 
L 182.46528 326.256828 
L 184.36032 321.869793 
L 186.25536 319.676276 
L 188.1504 319.676276 
L 190.04544 317.482759 
L 191.94048 317.482759 
L 193.83552 315.289241 
L 199.52064 315.289241 
L 203.31072 310.902207 
L 205.20576 309.27113 
L 216.576 309.27113 
L 218.47104 307.077613 
L 220.36608 307.077613 
L 222.26112 304.884095 
L 224.15616 304.884095 
L 226.0512 302.690578 
L 227.94624 302.690578 
L 229.84128 300.497061 
L 231.73632 300.497061 
L 235.5264 296.110027 
L 239.31648 296.110027 
L 241.21152 293.916509 
L 245.0016 293.916509 
L 246.89664 287.335958 
L 248.79168 285.14244 
L 252.58176 285.14244 
L 254.4768 282.948923 
L 262.05696 282.948923 
L 263.952 280.755406 
L 267.74208 280.755406 
L 271.53216 276.368371 
L 273.4272 271.981337 
L 275.32224 271.981337 
L 277.21728 269.78782 
L 282.9024 269.78782 
L 284.79744 267.594302 
L 286.69248 267.594302 
L 288.58752 263.207268 
L 290.48256 263.207268 
L 292.3776 259.382674 
L 309.43296 259.382674 
L 311.328 257.751597 
L 313.22304 257.751597 
L 315.11808 256.12052 
L 317.01312 256.12052 
L 318.90816 253.927003 
L 320.8032 250.102408 
L 322.69824 248.471332 
L 324.59328 244.646737 
L 328.38336 244.646737 
L 330.2784 242.45322 
L 334.06848 242.45322 
L 335.96352 240.259703 
L 339.7536 240.259703 
L 341.64864 238.628626 
L 345.43872 238.628626 
L 347.33376 236.435109 
L 353.01888 236.435109 
L 354.91392 232.048074 
L 358.704 232.048074 
L 360.59904 227.66104 
L 364.38912 224.398886 
L 366.28416 224.398886 
L 368.1792 222.767809 
L 383.33952 222.767809 
L 385.23456 220.574292 
L 389.02464 217.312138 
L 390.91968 217.312138 
L 392.81472 214.049984 
L 394.70976 211.856467 
L 396.6048 211.856467 
L 398.49984 208.031873 
L 400.39488 208.031873 
L 402.28992 205.838355 
L 407.97504 205.838355 
L 409.87008 203.644838 
L 415.5552 203.644838 
L 417.45024 201.451321 
L 426.92544 201.451321 
L 428.82048 199.820244 
L 430.71552 199.820244 
L 432.61056 198.189167 
L 436.40064 198.189167 
L 438.29568 194.927013 
L 442.08576 191.664859 
L 443.9808 186.209188 
L 445.87584 184.015671 
L 453.456 184.015671 
L 455.35104 182.384594 
L 464.82624 182.384594 
L 468.61632 179.12244 
L 470.51136 179.12244 
L 472.4064 177.491363 
L 476.19648 177.491363 
L 481.8816 172.598133 
L 483.77664 169.335979 
L 485.67168 169.335979 
L 489.46176 162.811671 
L 493.25184 159.549517 
L 495.14688 159.549517 
L 498.93696 156.287363 
L 500.832 156.287363 
L 502.72704 149.763056 
L 504.62208 148.131979 
L 506.51712 148.131979 
L 508.41216 146.500902 
L 510.3072 146.500902 
L 512.20224 144.869825 
L 514.09728 141.607671 
L 515.99232 139.976594 
L 521.67744 139.976594 
L 523.57248 138.345517 
L 527.36256 138.345517 
L 529.2576 136.71444 
L 540.62784 136.71444 
L 544.41792 133.452286 
L 553.89312 133.452286 
L 555.78816 130.190133 
L 561.47328 125.296902 
L 565.26336 125.296902 
L 567.1584 123.665825 
L 570.94848 123.665825 
L 574.73856 120.403671 
L 580.42368 120.403671 
L 582.31872 118.210154 
L 586.1088 118.210154 
L 588.00384 113.316923 
L 591.79392 113.316923 
L 595.584 110.054769 
L 605.0592 110.054769 
L 606.95424 106.792615 
L 618.32448 106.792615 
L 620.21952 105.161538 
L 631.58976 105.161538 
L 635.37984 101.899385 
L 642.96 101.899385 
L 642.96 101.899385 
" clip-path="url(#p523362c66b)" style="fill: none; stroke-dasharray: 6.75,2.7,1.35,2.7; stroke-dashoffset: 0; stroke: #2f8f84; stroke-width: 1.35"/>
   </g>
   <g id="patch_4">
    <path d="M 74.448 348.192 
L 74.448 93.744 
" style="fill: none; stroke: #000000; stroke-width: 0.8; stroke-linejoin: miter; stroke-linecap: square"/>
   </g>
   <g id="patch_5">
    <path d="M 74.448 348.192 
L 642.96 348.192 
" style="fill: none; stroke: #000000; stroke-width: 0.8; stroke-linejoin: miter; stroke-linecap: square"/>
   </g>
  </g>
  <g id="text_16">
   <text style="font: 18px 'DejaVu Sans', 'Bitstream Vera Sans', 'Computer Modern Sans Serif', 'Lucida Grande', 'Verdana', 'Geneva', 'Lucid', 'Arial', 'Helvetica', 'Avant Garde', sans-serif; text-anchor: start" x="74.448" y="38.229188" transform="rotate(-0 74.448 38.229188)">QDEF LCD → QD-OLED</text>
  </g>
  <g id="text_17">
   <text style="fill: #66747c; font: 10px 'DejaVu Sans', 'Bitstream Vera Sans', 'Computer Modern Sans Serif', 'Lucida Grande', 'Verdana', 'Geneva', 'Lucid', 'Arial', 'Helvetica', 'Avant Garde', sans-serif; text-anchor: start" x="74.448" y="64.728" transform="rotate(-0 74.448 64.728)">D50</text>
  </g>
  <g id="legend_1">
   <g id="line2d_33">
    <path d="M 185.17875 404.151391 
L 194.27875 404.151391 
L 203.37875 404.151391 
" style="fill: none; stroke: #252525; stroke-width: 2.5; stroke-linecap: square"/>
   </g>
   <g id="text_18">
    <text style="font: 9.1px 'DejaVu Sans', 'Bitstream Vera Sans', 'Computer Modern Sans Serif', 'Lucida Grande', 'Verdana', 'Geneva', 'Lucid', 'Arial', 'Helvetica', 'Avant Garde', sans-serif; text-anchor: start" x="210.65875" y="407.336391" transform="rotate(-0 210.65875 407.336391)">Potera CMF</text>
   </g>
   <g id="line2d_34">
    <path d="M 185.17875 417.508484 
L 194.27875 417.508484 
L 203.37875 417.508484 
" style="fill: none; stroke: #3b83b4; stroke-width: 1.35; stroke-linecap: square"/>
   </g>
   <g id="text_19">
    <text style="font: 9.1px 'DejaVu Sans', 'Bitstream Vera Sans', 'Computer Modern Sans Serif', 'Lucida Grande', 'Verdana', 'Geneva', 'Lucid', 'Arial', 'Helvetica', 'Avant Garde', sans-serif; text-anchor: start" x="210.65875" y="420.693484" transform="rotate(-0 210.65875 420.693484)">CIE 2015 2°</text>
   </g>
   <g id="line2d_35">
    <path d="M 282.931234 404.151391 
L 292.031234 404.151391 
L 301.131234 404.151391 
" style="fill: none; stroke-dasharray: 4.995,2.16; stroke-dashoffset: 0; stroke: #c38a19; stroke-width: 1.35"/>
   </g>
   <g id="text_20">
    <text style="font: 9.1px 'DejaVu Sans', 'Bitstream Vera Sans', 'Computer Modern Sans Serif', 'Lucida Grande', 'Verdana', 'Geneva', 'Lucid', 'Arial', 'Helvetica', 'Avant Garde', sans-serif; text-anchor: start" x="308.411234" y="407.336391" transform="rotate(-0 308.411234 407.336391)">CIE 2015 10°</text>
   </g>
   <g id="line2d_36">
    <path d="M 282.931234 417.508484 
L 292.031234 417.508484 
L 301.131234 417.508484 
" style="fill: none; stroke-dasharray: 1.35,2.2275; stroke-dashoffset: 0; stroke: #7d8a92; stroke-width: 1.35"/>
   </g>
   <g id="text_21">
    <text style="font: 9.1px 'DejaVu Sans', 'Bitstream Vera Sans', 'Computer Modern Sans Serif', 'Lucida Grande', 'Verdana', 'Geneva', 'Lucid', 'Arial', 'Helvetica', 'Avant Garde', sans-serif; text-anchor: start" x="308.411234" y="420.693484" transform="rotate(-0 308.411234 420.693484)">CIE 1964 10°</text>
   </g>
   <g id="line2d_37">
    <path d="M 386.473594 404.151391 
L 395.573594 404.151391 
L 404.673594 404.151391 
" style="fill: none; stroke-dasharray: 8.64,2.16,1.35,2.16; stroke-dashoffset: 0; stroke: #d0526a; stroke-width: 1.35"/>
   </g>
   <g id="text_22">
    <text style="font: 9.1px 'DejaVu Sans', 'Bitstream Vera Sans', 'Computer Modern Sans Serif', 'Lucida Grande', 'Verdana', 'Geneva', 'Lucid', 'Arial', 'Helvetica', 'Avant Garde', sans-serif; text-anchor: start" x="411.953594" y="407.336391" transform="rotate(-0 411.953594 407.336391)">CIE 1931 2°</text>
   </g>
   <g id="line2d_38">
    <path d="M 386.473594 417.508484 
L 395.573594 417.508484 
L 404.673594 417.508484 
" style="fill: none; stroke-dasharray: 6.75,2.7,1.35,2.7; stroke-dashoffset: 0; stroke: #2f8f84; stroke-width: 1.35"/>
   </g>
   <g id="text_23">
    <text style="font: 9.1px 'DejaVu Sans', 'Bitstream Vera Sans', 'Computer Modern Sans Serif', 'Lucida Grande', 'Verdana', 'Geneva', 'Lucid', 'Arial', 'Helvetica', 'Avant Garde', sans-serif; text-anchor: start" x="411.953594" y="420.693484" transform="rotate(-0 411.953594 420.693484)">Judd–Vos 1978 2°</text>
   </g>
  </g>
 </g>
 <defs>
  <clipPath id="p523362c66b">
   <rect x="74.448" y="93.744" width="568.512" height="254.448"/>
  </clipPath>
 </defs>
</svg>
