<?xml version="1.0" encoding="utf-8" standalone="no"?>
<!DOCTYPE svg PUBLIC "-//W3C//DTD SVG 1.1//EN"
  "http://www.w3.org/Graphics/SVG/1.1/DTD/svg11.dtd">
<svg xmlns:xlink="http://www.w3.org/1999/xlink" width="676.8pt" height="446.4pt" viewBox="0 0 676.8 446.4" xmlns="http://www.w3.org/2000/svg" version="1.1">
 <metadata>
  <rdf:RDF xmlns:dc="http://purl.org/dc/elements/1.1/" xmlns:cc="http://creativecommons.org/ns#" xmlns:rdf="http://www.w3.org/1999/02/22-rdf-syntax-ns#">
   <cc:Work>
    <dc:type rdf:resource="http://purl.org/dc/dcmitype/StillImage"/>
    <dc:date>2026-07-20T06:41:59.658977</dc:date>
    <dc:format>image/svg+xml</dc:format>
    <dc:creator>
     <cc:Agent>
      <dc:title>Matplotlib v3.9.4, https://matplotlib.org/</dc:title>
     </cc:Agent>
    </dc:creator>
   </cc:Work>
  </rdf:RDF>
 </metadata>
 <defs>
  <style type="text/css">*{stroke-linejoin: round; stroke-linecap: butt}</style>
 </defs>
 <g id="figure_1">
  <g id="patch_1">
   <path d="M 0 446.4 
L 676.8 446.4 
L 676.8 0 
L 0 0 
z
" style="fill: #ffffff"/>
  </g>
  <g id="axes_1">
   <g id="patch_2">
    <path d="M 74.448 348.192 
L 642.96 348.192 
L 642.96 93.744 
L 74.448 93.744 
z
" style="fill: #ffffff"/>
   </g>
   <g id="patch_3">
    <path d="M 169.2 348.192 
L 358.704 348.192 
L 358.704 93.744 
L 169.2 93.744 
z
" clip-path="url(#pdc918d04e2)" style="fill: #e7f0ea; opacity: 0.58; stroke: #e7f0ea; stroke-linejoin: miter"/>
   </g>
   <g id="matplotlib.axis_1">
    <g id="xtick_1">
     <g id="line2d_1">
      <path d="M 74.448 348.192 
L 74.448 93.744 
" clip-path="url(#pdc918d04e2)" style="fill: none; stroke: #dfe5e8; stroke-width: 0.65; stroke-linecap: square"/>
     </g>
     <g id="line2d_2">
      <defs>
       <path id="mac076676ae" d="M 0 0 
L 0 3.5 
" style="stroke: #000000; stroke-width: 0.8"/>
      </defs>
      <g>
       <use xlink:href="#mac076676ae" x="74.448" y="348.192" style="stroke: #000000; stroke-width: 0.8"/>
      </g>
     </g>
     <g id="text_1">
      <text style="font: 10px 'DejaVu Sans', 'Bitstream Vera Sans', 'Computer Modern Sans Serif', 'Lucida Grande', 'Verdana', 'Geneva', 'Lucid', 'Arial', 'Helvetica', 'Avant Garde', sans-serif; text-anchor: middle" x="74.448" y="362.790438" transform="rotate(-0 74.448 362.790438)">0</text>
     </g>
    </g>
    <g id="xtick_2">
     <g id="line2d_3">
      <path d="M 169.2 348.192 
L 169.2 93.744 
" clip-path="url(#pdc918d04e2)" style="fill: none; stroke: #dfe5e8; stroke-width: 0.65; stroke-linecap: square"/>
     </g>
     <g id="line2d_4">
      <g>
       <use xlink:href="#mac076676ae" x="169.2" y="348.192" style="stroke: #000000; stroke-width: 0.8"/>
      </g>
     </g>
     <g id="text_2">
      <text style="font: 10px 'DejaVu Sans', 'Bitstream Vera Sans', 'Computer Modern Sans Serif', 'Lucida Grande', 'Verdana', 'Geneva', 'Lucid', 'Arial', 'Helvetica', 'Avant Garde', sans-serif; text-anchor: middle" x="169.2" y="362.790438" transform="rotate(-0 169.2 362.790438)">1</text>
     </g>
    </g>
    <g id="xtick_3">
     <g id="line2d_5">
      <path d="M 263.952 348.192 
L 263.952 93.744 
" clip-path="url(#pdc918d04e2)" style="fill: none; stroke: #dfe5e8; stroke-width: 0.65; stroke-linecap: square"/>
     </g>
     <g id="line2d_6">
      <g>
       <use xlink:href="#mac076676ae" x="263.952" y="348.192" style="stroke: #000000; stroke-width: 0.8"/>
      </g>
     </g>
     <g id="text_3">
      <text style="font: 10px 'DejaVu Sans', 'Bitstream Vera Sans', 'Computer Modern Sans Serif', 'Lucida Grande', 'Verdana', 'Geneva', 'Lucid', 'Arial', 'Helvetica', 'Avant Garde', sans-serif; text-anchor: middle" x="263.952" y="362.790438" transform="rotate(-0 263.952 362.790438)">2</text>
     </g>
    </g>
    <g id="xtick_4">
     <g id="line2d_7">
      <path d="M 358.704 348.192 
L 358.704 93.744 
" clip-path="url(#pdc918d04e2)" style="fill: none; stroke: #dfe5e8; stroke-width: 0.65; stroke-linecap: square"/>
     </g>
     <g id="line2d_8">
      <g>
       <use xlink:href="#mac076676ae" x="358.704" y="348.192" style="stroke: #000000; stroke-width: 0.8"/>
      </g>
     </g>
     <g id="text_4">
      <text style="font: 10px 'DejaVu Sans', 'Bitstream Vera Sans', 'Computer Modern Sans Serif', 'Lucida Grande', 'Verdana', 'Geneva', 'Lucid', 'Arial', 'Helvetica', 'Avant Garde', sans-serif; text-anchor: middle" x="358.704" y="362.790438" transform="rotate(-0 358.704 362.790438)">3</text>
     </g>
    </g>
    <g id="xtick_5">
     <g id="line2d_9">
      <path d="M 453.456 348.192 
L 453.456 93.744 
" clip-path="url(#pdc918d04e2)" style="fill: none; stroke: #dfe5e8; stroke-width: 0.65; stroke-linecap: square"/>
     </g>
     <g id="line2d_10">
      <g>
       <use xlink:href="#mac076676ae" x="453.456" y="348.192" style="stroke: #000000; stroke-width: 0.8"/>
      </g>
     </g>
     <g id="text_5">
      <text style="font: 10px 'DejaVu Sans', 'Bitstream Vera Sans', 'Computer Modern Sans Serif', 'Lucida Grande', 'Verdana', 'Geneva', 'Lucid', 'Arial', 'Helvetica', 'Avant Garde', sans-serif; text-anchor: middle" x="453.456" y="362.790438" transform="rotate(-0 453.456 362.790438)">4</text>
     </g>
    </g>
    <g id="xtick_6">
     <g id="line2d_11">
      <path d="M 548.208 348.192 
L 548.208 93.744 
" clip-path="url(#pdc918d04e2)" style="fill: none; stroke: #dfe5e8; stroke-width: 0.65; stroke-linecap: square"/>
     </g>
     <g id="line2d_12">
      <g>
       <use xlink:href="#mac076676ae" x="548.208" y="348.192" style="stroke: #000000; stroke-width: 0.8"/>
      </g>
     </g>
     <g id="text_6">
      <text style="font: 10px 'DejaVu Sans', 'Bitstream Vera Sans', 'Computer Modern Sans Serif', 'Lucida Grande', 'Verdana', 'Geneva', 'Lucid', 'Arial', 'Helvetica', 'Avant Garde', sans-serif; text-anchor: middle" x="548.208" y="362.790438" transform="rotate(-0 548.208 362.790438)">5</text>
     </g>
    </g>
    <g id="xtick_7">
     <g id="line2d_13">
      <path d="M 642.96 348.192 
L 642.96 93.744 
" clip-path="url(#pdc918d04e2)" style="fill: none; stroke: #dfe5e8; stroke-width: 0.65; stroke-linecap: square"/>
     </g>
     <g id="line2d_14">
      <g>
       <use xlink:href="#mac076676ae" x="642.96" y="348.192" style="stroke: #000000; stroke-width: 0.8"/>
      </g>
     </g>
     <g id="text_7">
      <text style="font: 10px 'DejaVu Sans', 'Bitstream Vera Sans', 'Computer Modern Sans Serif', 'Lucida Grande', 'Verdana', 'Geneva', 'Lucid', 'Arial', 'Helvetica', 'Avant Garde', sans-serif; text-anchor: middle" x="642.96" y="362.790438" transform="rotate(-0 642.96 362.790438)">6</text>
     </g>
    </g>
    <g id="text_8">
     <text style="font: 10px 'DejaVu Sans', 'Bitstream Vera Sans', 'Computer Modern Sans Serif', 'Lucida Grande', 'Verdana', 'Geneva', 'Lucid', 'Arial', 'Helvetica', 'Avant Garde', sans-serif; text-anchor: middle" x="358.704" y="376.468563" transform="rotate(-0 358.704 376.468563)">sUCS dE threshold</text>
    </g>
   </g>
   <g id="matplotlib.axis_2">
    <g id="ytick_1">
     <g id="line2d_15">
      <path d="M 74.448 348.192 
L 642.96 348.192 
" clip-path="url(#pdc918d04e2)" style="fill: none; stroke: #dfe5e8; stroke-width: 0.65; stroke-linecap: square"/>
     </g>
     <g id="line2d_16">
      <defs>
       <path id="m22a3d35a48" d="M 0 0 
L -3.5 0 
" style="stroke: #000000; stroke-width: 0.8"/>
      </defs>
      <g>
       <use xlink:href="#m22a3d35a48" x="74.448" y="348.192" style="stroke: #000000; stroke-width: 0.8"/>
      </g>
     </g>
     <g id="text_9">
      <text style="font: 10px 'DejaVu Sans', 'Bitstream Vera Sans', 'Computer Modern Sans Serif', 'Lucida Grande', 'Verdana', 'Geneva', 'Lucid', 'Arial', 'Helvetica', 'Avant Garde', sans-serif; text-anchor: end" x="67.448" y="351.991219" transform="rotate(-0 67.448 351.991219)">0</text>
     </g>
    </g>
    <g id="ytick_2">
     <g id="line2d_17">
      <path d="M 74.448 297.3024 
L 642.96 297.3024 
" clip-path="url(#pdc918d04e2)" style="fill: none; stroke: #dfe5e8; stroke-width: 0.65; stroke-linecap: square"/>
     </g>
     <g id="line2d_18">
      <g>
       <use xlink:href="#m22a3d35a48" x="74.448" y="297.3024" style="stroke: #000000; stroke-width: 0.8"/>
      </g>
     </g>
     <g id="text_10">
      <text style="font: 10px 'DejaVu Sans', 'Bitstream Vera Sans', 'Computer Modern Sans Serif', 'Lucida Grande', 'Verdana', 'Geneva', 'Lucid', 'Arial', 'Helvetica', 'Avant Garde', sans-serif; text-anchor: end" x="67.448" y="301.101619" transform="rotate(-0 67.448 301.101619)">20</text>
     </g>
    </g>
    <g id="ytick_3">
     <g id="line2d_19">
      <path d="M 74.448 246.4128 
L 642.96 246.4128 
" clip-path="url(#pdc918d04e2)" style="fill: none; stroke: #dfe5e8; stroke-width: 0.65; stroke-linecap: square"/>
     </g>
     <g id="line2d_20">
      <g>
       <use xlink:href="#m22a3d35a48" x="74.448" y="246.4128" style="stroke: #000000; stroke-width: 0.8"/>
      </g>
     </g>
     <g id="text_11">
      <text style="font: 10px 'DejaVu Sans', 'Bitstream Vera Sans', 'Computer Modern Sans Serif', 'Lucida Grande', 'Verdana', 'Geneva', 'Lucid', 'Arial', 'Helvetica', 'Avant Garde', sans-serif; text-anchor: end" x="67.448" y="250.212019" transform="rotate(-0 67.448 250.212019)">40</text>
     </g>
    </g>
    <g id="ytick_4">
     <g id="line2d_21">
      <path d="M 74.448 195.5232 
L 642.96 195.5232 
" clip-path="url(#pdc918d04e2)" style="fill: none; stroke: #dfe5e8; stroke-width: 0.65; stroke-linecap: square"/>
     </g>
     <g id="line2d_22">
      <g>
       <use xlink:href="#m22a3d35a48" x="74.448" y="195.5232" style="stroke: #000000; stroke-width: 0.8"/>
      </g>
     </g>
     <g id="text_12">
      <text style="font: 10px 'DejaVu Sans', 'Bitstream Vera Sans', 'Computer Modern Sans Serif', 'Lucida Grande', 'Verdana', 'Geneva', 'Lucid', 'Arial', 'Helvetica', 'Avant Garde', sans-serif; text-anchor: end" x="67.448" y="199.322419" transform="rotate(-0 67.448 199.322419)">60</text>
     </g>
    </g>
    <g id="ytick_5">
     <g id="line2d_23">
      <path d="M 74.448 144.6336 
L 642.96 144.6336 
" clip-path="url(#pdc918d04e2)" style="fill: none; stroke: #dfe5e8; stroke-width: 0.65; stroke-linecap: square"/>
     </g>
     <g id="line2d_24">
      <g>
       <use xlink:href="#m22a3d35a48" x="74.448" y="144.6336" style="stroke: #000000; stroke-width: 0.8"/>
      </g>
     </g>
     <g id="text_13">
      <text style="font: 10px 'DejaVu Sans', 'Bitstream Vera Sans', 'Computer Modern Sans Serif', 'Lucida Grande', 'Verdana', 'Geneva', 'Lucid', 'Arial', 'Helvetica', 'Avant Garde', sans-serif; text-anchor: end" x="67.448" y="148.432819" transform="rotate(-0 67.448 148.432819)">80</text>
     </g>
    </g>
    <g id="ytick_6">
     <g id="line2d_25">
      <path d="M 74.448 93.744 
L 642.96 93.744 
" clip-path="url(#pdc918d04e2)" style="fill: none; stroke: #dfe5e8; stroke-width: 0.65; stroke-linecap: square"/>
     </g>
     <g id="line2d_26">
      <g>
       <use xlink:href="#m22a3d35a48" x="74.448" y="93.744" style="stroke: #000000; stroke-width: 0.8"/>
      </g>
     </g>
     <g id="text_14">
      <text style="font: 10px 'DejaVu Sans', 'Bitstream Vera Sans', 'Computer Modern Sans Serif', 'Lucida Grande', 'Verdana', 'Geneva', 'Lucid', 'Arial', 'Helvetica', 'Avant Garde', sans-serif; text-anchor: end" x="67.448" y="97.543219" transform="rotate(-0 67.448 97.543219)">100</text>
     </g>
    </g>
    <g id="text_15">
     <text style="font: 10px 'DejaVu Sans', 'Bitstream Vera Sans', 'Computer Modern Sans Serif', 'Lucida Grande', 'Verdana', 'Geneva', 'Lucid', 'Arial', 'Helvetica', 'Avant Garde', sans-serif; text-anchor: middle" x="42.280812" y="220.968" transform="rotate(-90 42.280812 220.968)">observers%</text>
    </g>
   </g>
   <g id="line2d_27">
    <path d="M 74.448 348.192 
L 83.9232 348.192 
L 85.81824 346.560923 
L 95.29344 346.560923 
L 97.18848 344.929846 
L 99.08352 344.929846 
L 100.97856 338.911735 
L 108.55872 338.911735 
L 110.45376 337.280658 
L 112.3488 337.280658 
L 114.24384 335.087141 
L 116.13888 335.087141 
L 118.03392 333.456064 
L 119.92896 330.19391 
L 125.61408 330.19391 
L 131.2992 323.613358 
L 136.98432 323.613358 
L 138.87936 321.982281 
L 140.7744 321.982281 
L 142.66944 320.351204 
L 144.56448 316.52661 
L 148.35456 316.52661 
L 150.2496 314.333093 
L 152.14464 312.702016 
L 154.03968 307.246345 
L 157.82976 307.246345 
L 163.51488 302.353114 
L 165.40992 302.353114 
L 167.30496 297.96608 
L 171.09504 294.703926 
L 174.88512 287.054737 
L 176.78016 285.42366 
L 178.6752 285.42366 
L 180.57024 282.161507 
L 182.46528 279.967989 
L 184.36032 274.512318 
L 186.25536 274.512318 
L 188.1504 272.881241 
L 190.04544 272.881241 
L 191.94048 271.250164 
L 193.83552 267.988011 
L 195.73056 264.163416 
L 197.6256 260.901263 
L 199.52064 257.076668 
L 201.41568 255.445592 
L 203.31072 251.620997 
L 205.20576 251.620997 
L 207.1008 249.98992 
L 208.99584 243.971809 
L 210.89088 243.971809 
L 212.78592 242.340732 
L 214.68096 235.816424 
L 216.576 235.816424 
L 222.26112 230.923194 
L 224.15616 226.029963 
L 226.0512 223.836446 
L 227.94624 223.836446 
L 229.84128 219.449411 
L 231.73632 219.449411 
L 235.5264 216.187257 
L 237.42144 216.187257 
L 239.31648 214.55618 
L 243.10656 214.55618 
L 245.0016 210.169146 
L 246.89664 210.169146 
L 248.79168 207.975629 
L 250.68672 204.713475 
L 252.58176 200.888881 
L 254.4768 198.695363 
L 258.26688 198.695363 
L 260.16192 194.308329 
L 263.952 194.308329 
L 267.74208 191.046175 
L 275.32224 191.046175 
L 277.21728 189.415098 
L 279.11232 189.415098 
L 282.9024 186.152944 
L 286.69248 186.152944 
L 288.58752 182.32835 
L 290.48256 180.697273 
L 292.3776 176.872679 
L 296.16768 176.872679 
L 298.06272 174.679162 
L 299.95776 173.048085 
L 301.8528 173.048085 
L 303.74784 171.417008 
L 305.64288 169.223491 
L 313.22304 169.223491 
L 317.01312 165.961337 
L 318.90816 159.943225 
L 320.8032 159.943225 
L 322.69824 157.749708 
L 330.2784 157.749708 
L 332.17344 155.556191 
L 334.06848 153.925114 
L 335.96352 153.925114 
L 339.7536 146.275926 
L 343.54368 146.275926 
L 345.43872 144.644849 
L 347.33376 140.257814 
L 356.80896 140.257814 
L 358.704 136.43322 
L 360.59904 134.239703 
L 370.07424 134.239703 
L 371.96928 132.608626 
L 373.86432 130.415109 
L 377.6544 130.415109 
L 379.54944 128.221592 
L 383.33952 128.221592 
L 385.23456 126.028074 
L 387.1296 126.028074 
L 390.91968 121.64104 
L 392.81472 121.64104 
L 394.70976 120.009963 
L 396.6048 120.009963 
L 398.49984 118.378886 
L 400.39488 116.185369 
L 406.08 116.185369 
L 407.97504 114.554292 
L 409.87008 114.554292 
L 411.76512 112.360775 
L 413.66016 112.360775 
L 415.5552 110.729698 
L 423.13536 110.729698 
L 425.0304 106.342663 
L 432.61056 106.342663 
L 436.40064 101.955629 
L 442.08576 101.955629 
L 443.9808 99.762111 
L 447.77088 99.762111 
L 449.66592 98.131034 
L 521.67744 98.131034 
L 523.57248 95.937517 
L 544.41792 95.937517 
L 546.31296 93.744 
L 642.96 93.744 
L 642.96 93.744 
" clip-path="url(#pdc918d04e2)" style="fill: none; stroke: #252525; stroke-width: 2.5; stroke-linecap: square"/>
   </g>
   <g id="line2d_28">
    <path d="M 74.448 348.192 
L 102.8736 348.192 
L 104.76864 345.998483 
L 110.45376 345.998483 
L 112.3488 343.804966 
L 121.824 343.804966 
L 123.71904 341.611448 
L 127.50912 341.611448 
L 133.19424 335.030897 
L 136.98432 335.030897 
L 138.87936 332.837379 
L 140.7744 332.837379 
L 142.66944 330.643862 
L 144.56448 330.643862 
L 146.45952 324.06331 
L 155.93472 324.06331 
L 157.82976 321.869793 
L 165.40992 321.869793 
L 167.30496 317.482759 
L 169.2 313.658164 
L 172.99008 309.27113 
L 176.78016 309.27113 
L 178.6752 304.884095 
L 180.57024 302.690578 
L 184.36032 302.690578 
L 186.25536 298.303544 
L 188.1504 298.303544 
L 190.04544 296.110027 
L 195.73056 296.110027 
L 197.6256 293.916509 
L 199.52064 287.335958 
L 203.31072 287.335958 
L 205.20576 285.14244 
L 207.1008 281.317846 
L 208.99584 281.317846 
L 210.89088 279.124329 
L 212.78592 279.124329 
L 216.576 274.737294 
L 218.47104 270.9127 
L 220.36608 270.9127 
L 222.26112 268.719183 
L 226.0512 268.719183 
L 227.94624 264.332149 
L 229.84128 262.138631 
L 231.73632 262.138631 
L 233.63136 259.945114 
L 235.5264 259.945114 
L 237.42144 256.12052 
L 239.31648 256.12052 
L 241.21152 252.858366 
L 243.10656 250.664849 
L 252.58176 250.664849 
L 254.4768 249.033772 
L 256.37184 244.646737 
L 258.26688 240.822143 
L 262.05696 240.822143 
L 263.952 238.628626 
L 265.84704 238.628626 
L 267.74208 236.997549 
L 277.21728 236.997549 
L 279.11232 234.804032 
L 281.00736 228.78592 
L 282.9024 228.78592 
L 284.79744 227.154844 
L 301.8528 227.154844 
L 303.74784 223.330249 
L 305.64288 223.330249 
L 307.53792 218.943215 
L 311.328 215.681061 
L 313.22304 211.856467 
L 315.11808 210.22539 
L 320.8032 210.22539 
L 324.59328 205.838355 
L 328.38336 205.838355 
L 330.2784 203.644838 
L 343.54368 203.644838 
L 345.43872 201.451321 
L 347.33376 201.451321 
L 349.2288 199.820244 
L 356.80896 199.820244 
L 358.704 198.189167 
L 360.59904 194.927013 
L 364.38912 194.927013 
L 366.28416 189.471342 
L 368.1792 187.840265 
L 370.07424 187.840265 
L 371.96928 186.209188 
L 373.86432 184.015671 
L 379.54944 184.015671 
L 381.44448 182.384594 
L 390.91968 182.384594 
L 392.81472 180.753517 
L 394.70976 180.753517 
L 396.6048 177.491363 
L 402.28992 177.491363 
L 406.08 174.22921 
L 409.87008 174.22921 
L 411.76512 170.967056 
L 413.66016 166.073825 
L 415.5552 166.073825 
L 417.45024 164.442748 
L 419.34528 161.180594 
L 421.24032 161.180594 
L 423.13536 157.91844 
L 428.82048 157.91844 
L 432.61056 154.656286 
L 434.5056 149.763056 
L 438.29568 146.500902 
L 440.19072 146.500902 
L 443.9808 143.238748 
L 445.87584 139.976594 
L 447.77088 139.976594 
L 449.66592 138.345517 
L 457.24608 138.345517 
L 459.14112 136.71444 
L 464.82624 136.71444 
L 466.72128 135.083363 
L 470.51136 135.083363 
L 472.4064 133.452286 
L 485.67168 133.452286 
L 489.46176 130.190133 
L 493.25184 130.190133 
L 495.14688 126.927979 
L 497.04192 125.296902 
L 502.72704 125.296902 
L 506.51712 122.034748 
L 508.41216 122.034748 
L 510.3072 120.403671 
L 519.7824 120.403671 
L 523.57248 117.141517 
L 525.46752 117.141517 
L 527.36256 114.948 
L 529.2576 114.948 
L 531.15264 113.316923 
L 533.04768 113.316923 
L 534.94272 110.054769 
L 540.62784 110.054769 
L 542.52288 108.423692 
L 548.208 108.423692 
L 550.10304 106.792615 
L 553.89312 106.792615 
L 555.78816 105.161538 
L 576.6336 105.161538 
L 578.52864 101.899385 
L 610.74432 101.899385 
L 612.63936 100.268308 
L 614.5344 100.268308 
L 616.42944 98.637231 
L 624.0096 98.637231 
L 627.79968 95.375077 
L 642.96 95.375077 
L 642.96 95.375077 
" clip-path="url(#pdc918d04e2)" style="fill: none; stroke: #3b83b4; stroke-width: 1.35; stroke-linecap: square"/>
   </g>
   <g id="line2d_29">
    <path d="M 74.448 348.192 
L 99.08352 348.192 
L 102.8736 344.929846 
L 106.66368 344.929846 
L 108.55872 342.736329 
L 114.24384 337.843098 
L 116.13888 337.843098 
L 118.03392 332.949867 
L 119.92896 332.949867 
L 121.824 331.31879 
L 123.71904 326.42556 
L 125.61408 323.163406 
L 127.50912 320.969889 
L 129.40416 319.338812 
L 131.2992 319.338812 
L 133.19424 317.707735 
L 135.08928 317.707735 
L 140.7744 312.814504 
L 144.56448 312.814504 
L 146.45952 311.183427 
L 148.35456 311.183427 
L 152.14464 307.921273 
L 154.03968 304.659119 
L 157.82976 304.659119 
L 159.7248 301.396966 
L 161.61984 299.765889 
L 163.51488 296.503735 
L 165.40992 296.503735 
L 167.30496 294.872658 
L 169.2 292.679141 
L 172.99008 285.029952 
L 174.88512 283.398875 
L 176.78016 280.136721 
L 180.57024 269.225379 
L 182.46528 267.594302 
L 188.1504 267.594302 
L 190.04544 265.963225 
L 191.94048 265.963225 
L 193.83552 264.332149 
L 197.6256 259.945114 
L 199.52064 251.227289 
L 203.31072 247.965135 
L 207.1008 247.965135 
L 208.99584 242.509464 
L 210.89088 238.68487 
L 218.47104 238.68487 
L 220.36608 237.053793 
L 222.26112 237.053793 
L 224.15616 235.422716 
L 229.84128 235.422716 
L 231.73632 233.791639 
L 233.63136 231.598122 
L 239.31648 226.704891 
L 241.21152 221.81166 
L 245.0016 221.81166 
L 246.89664 220.180584 
L 248.79168 216.355989 
L 250.68672 214.724912 
L 254.4768 214.724912 
L 256.37184 209.831682 
L 258.26688 206.007088 
L 262.05696 206.007088 
L 263.952 202.182493 
L 265.84704 200.551416 
L 267.74208 200.551416 
L 269.63712 196.726822 
L 273.4272 196.726822 
L 275.32224 194.533305 
L 277.21728 194.533305 
L 279.11232 188.515194 
L 281.00736 186.321676 
L 286.69248 186.321676 
L 288.58752 184.690599 
L 290.48256 184.690599 
L 292.3776 182.497082 
L 301.8528 182.497082 
L 303.74784 180.303565 
L 305.64288 180.303565 
L 307.53792 178.110048 
L 313.22304 178.110048 
L 315.11808 175.916531 
L 317.01312 174.285454 
L 318.90816 174.285454 
L 320.8032 168.267342 
L 322.69824 168.267342 
L 326.48832 163.880308 
L 328.38336 163.880308 
L 330.2784 162.249231 
L 332.17344 160.055714 
L 334.06848 158.424637 
L 335.96352 158.424637 
L 337.85856 156.231119 
L 339.7536 154.600042 
L 366.28416 154.600042 
L 368.1792 152.406525 
L 373.86432 152.406525 
L 375.75936 150.775448 
L 377.6544 148.581931 
L 379.54944 148.581931 
L 381.44448 146.388414 
L 390.91968 146.388414 
L 392.81472 144.194897 
L 400.39488 144.194897 
L 404.18496 139.807862 
L 407.97504 139.807862 
L 409.87008 137.614345 
L 415.5552 137.614345 
L 417.45024 133.22731 
L 419.34528 131.033793 
L 425.0304 131.033793 
L 426.92544 128.840276 
L 428.82048 128.840276 
L 430.71552 126.646759 
L 442.08576 126.646759 
L 445.87584 122.259724 
L 455.35104 122.259724 
L 461.03616 115.679172 
L 464.82624 115.679172 
L 466.72128 113.485655 
L 472.4064 113.485655 
L 474.30144 111.292138 
L 489.46176 111.292138 
L 491.3568 109.098621 
L 500.832 109.098621 
L 502.72704 106.905103 
L 504.62208 106.905103 
L 506.51712 104.711586 
L 510.3072 104.711586 
L 514.09728 100.324552 
L 523.57248 100.324552 
L 525.46752 98.131034 
L 603.16416 98.131034 
L 605.0592 95.937517 
L 622.11456 95.937517 
L 624.0096 93.744 
L 642.96 93.744 
L 642.96 93.744 
" clip-path="url(#pdc918d04e2)" style="fill: none; stroke-dasharray: 4.995,2.16; stroke-dashoffset: 0; stroke: #c38a19; stroke-width: 1.35"/>
   </g>
   <g id="line2d_30">
    <path d="M 74.448 348.192 
L 114.24384 348.192 
L 116.13888 345.998483 
L 121.824 345.998483 
L 123.71904 342.173889 
L 125.61408 342.173889 
L 127.50912 340.542812 
L 140.7744 340.542812 
L 142.66944 337.280658 
L 144.56448 332.893623 
L 152.14464 332.893623 
L 154.03968 331.262546 
L 155.93472 329.069029 
L 159.7248 329.069029 
L 161.61984 324.681995 
L 165.40992 324.681995 
L 167.30496 320.857401 
L 169.2 320.857401 
L 172.99008 314.333093 
L 174.88512 312.702016 
L 186.25536 312.702016 
L 188.1504 311.070939 
L 190.04544 311.070939 
L 191.94048 306.177708 
L 193.83552 303.984191 
L 195.73056 302.353114 
L 197.6256 298.52852 
L 199.52064 298.52852 
L 201.41568 295.266366 
L 203.31072 293.635289 
L 205.20576 289.810695 
L 207.1008 286.548541 
L 208.99584 286.548541 
L 210.89088 284.355024 
L 212.78592 277.268276 
L 214.68096 273.443682 
L 216.576 273.443682 
L 218.47104 271.812605 
L 220.36608 271.812605 
L 222.26112 268.550451 
L 224.15616 266.919374 
L 227.94624 266.919374 
L 229.84128 262.026143 
L 233.63136 257.639109 
L 237.42144 257.639109 
L 239.31648 253.814515 
L 241.21152 252.183438 
L 243.10656 248.358844 
L 245.0016 246.727767 
L 246.89664 242.340732 
L 248.79168 242.340732 
L 250.68672 236.885061 
L 252.58176 230.86695 
L 256.37184 227.604796 
L 258.26688 224.342642 
L 260.16192 224.342642 
L 262.05696 221.080488 
L 263.952 219.449411 
L 265.84704 213.99374 
L 269.63712 213.99374 
L 273.4272 206.344552 
L 275.32224 204.713475 
L 277.21728 202.519958 
L 281.00736 202.519958 
L 282.9024 200.888881 
L 284.79744 200.888881 
L 286.69248 195.99565 
L 288.58752 194.364573 
L 290.48256 194.364573 
L 292.3776 192.171056 
L 296.16768 188.908902 
L 301.8528 188.908902 
L 303.74784 183.453231 
L 305.64288 181.259714 
L 311.328 181.259714 
L 315.11808 177.99756 
L 317.01312 175.804042 
L 318.90816 170.348371 
L 324.59328 170.348371 
L 326.48832 168.154854 
L 328.38336 164.33026 
L 330.2784 162.699183 
L 332.17344 160.505666 
L 334.06848 158.874589 
L 335.96352 158.874589 
L 337.85856 156.681072 
L 339.7536 156.681072 
L 341.64864 154.487554 
L 343.54368 154.487554 
L 345.43872 152.856477 
L 349.2288 152.856477 
L 351.12384 151.225401 
L 354.91392 146.838366 
L 356.80896 145.207289 
L 358.704 143.013772 
L 360.59904 143.013772 
L 362.49408 141.382695 
L 364.38912 141.382695 
L 366.28416 134.802143 
L 370.07424 134.802143 
L 371.96928 132.608626 
L 373.86432 132.608626 
L 377.6544 128.221592 
L 390.91968 128.221592 
L 392.81472 124.396997 
L 396.6048 120.009963 
L 402.28992 120.009963 
L 404.18496 118.378886 
L 406.08 118.378886 
L 407.97504 116.747809 
L 409.87008 116.747809 
L 411.76512 115.116732 
L 421.24032 115.116732 
L 423.13536 112.923215 
L 425.0304 112.923215 
L 426.92544 110.729698 
L 430.71552 110.729698 
L 432.61056 108.53618 
L 436.40064 108.53618 
L 438.29568 106.342663 
L 442.08576 106.342663 
L 445.87584 101.955629 
L 461.03616 101.955629 
L 462.9312 99.762111 
L 464.82624 98.131034 
L 534.94272 98.131034 
L 536.83776 95.937517 
L 548.208 95.937517 
L 550.10304 93.744 
L 642.96 93.744 
L 642.96 93.744 
" clip-path="url(#pdc918d04e2)" style="fill: none; stroke-dasharray: 1.35,2.2275; stroke-dashoffset: 0; stroke: #7d8a92; stroke-width: 1.35"/>
   </g>
   <g id="line2d_31">
    <path d="M 74.448 348.192 
L 155.93472 348.192 
L 157.82976 345.998483 
L 167.30496 345.998483 
L 169.2 343.804966 
L 176.78016 343.804966 
L 178.6752 341.611448 
L 186.25536 341.611448 
L 188.1504 339.417931 
L 191.94048 339.417931 
L 193.83552 337.224414 
L 199.52064 337.224414 
L 201.41568 335.030897 
L 212.78592 335.030897 
L 214.68096 332.837379 
L 220.36608 332.837379 
L 224.15616 328.450345 
L 229.84128 328.450345 
L 231.73632 326.256828 
L 235.5264 326.256828 
L 239.31648 321.869793 
L 241.21152 320.238716 
L 245.0016 320.238716 
L 248.79168 315.851682 
L 254.4768 315.851682 
L 256.37184 313.658164 
L 258.26688 313.658164 
L 260.16192 311.464647 
L 263.952 311.464647 
L 265.84704 307.077613 
L 269.63712 302.690578 
L 279.11232 302.690578 
L 281.00736 298.303544 
L 292.3776 298.303544 
L 294.27264 296.110027 
L 296.16768 291.722992 
L 298.06272 291.722992 
L 299.95776 289.529475 
L 301.8528 289.529475 
L 305.64288 285.14244 
L 309.43296 285.14244 
L 311.328 282.948923 
L 313.22304 282.948923 
L 317.01312 278.561889 
L 318.90816 278.561889 
L 320.8032 276.368371 
L 328.38336 276.368371 
L 330.2784 274.174854 
L 332.17344 274.174854 
L 334.06848 271.981337 
L 341.64864 271.981337 
L 343.54368 268.156743 
L 349.2288 268.156743 
L 351.12384 261.576191 
L 353.01888 259.945114 
L 354.91392 259.945114 
L 356.80896 257.751597 
L 360.59904 257.751597 
L 362.49408 256.12052 
L 368.1792 256.12052 
L 370.07424 251.733485 
L 371.96928 251.733485 
L 373.86432 250.102408 
L 385.23456 250.102408 
L 387.1296 248.471332 
L 390.91968 244.084297 
L 396.6048 244.084297 
L 398.49984 240.822143 
L 402.28992 240.822143 
L 404.18496 238.628626 
L 409.87008 238.628626 
L 411.76512 236.435109 
L 415.5552 236.435109 
L 417.45024 232.048074 
L 419.34528 229.854557 
L 425.0304 229.854557 
L 426.92544 228.22348 
L 428.82048 222.767809 
L 436.40064 222.767809 
L 438.29568 221.136732 
L 440.19072 221.136732 
L 442.08576 218.943215 
L 445.87584 218.943215 
L 447.77088 217.312138 
L 459.14112 217.312138 
L 461.03616 211.856467 
L 462.9312 211.856467 
L 464.82624 209.66295 
L 474.30144 209.66295 
L 476.19648 208.031873 
L 478.09152 205.838355 
L 479.98656 201.451321 
L 481.8816 198.189167 
L 489.46176 198.189167 
L 491.3568 195.99565 
L 493.25184 192.733496 
L 500.832 192.733496 
L 502.72704 191.102419 
L 504.62208 191.102419 
L 506.51712 187.840265 
L 510.3072 187.840265 
L 512.20224 186.209188 
L 517.88736 186.209188 
L 519.7824 184.015671 
L 521.67744 182.384594 
L 527.36256 182.384594 
L 531.15264 179.12244 
L 533.04768 179.12244 
L 538.7328 174.22921 
L 540.62784 169.335979 
L 542.52288 166.073825 
L 546.31296 166.073825 
L 548.208 162.811671 
L 553.89312 162.811671 
L 559.57824 157.91844 
L 563.36832 157.91844 
L 565.26336 154.656286 
L 572.84352 154.656286 
L 574.73856 153.02521 
L 576.6336 148.131979 
L 580.42368 144.869825 
L 582.31872 144.869825 
L 584.21376 139.976594 
L 586.1088 139.976594 
L 591.79392 135.083363 
L 595.584 135.083363 
L 597.47904 133.452286 
L 610.74432 133.452286 
L 614.5344 130.190133 
L 616.42944 130.190133 
L 618.32448 128.559056 
L 622.11456 128.559056 
L 629.69472 122.034748 
L 631.58976 122.034748 
L 633.4848 120.403671 
L 642.96 120.403671 
L 642.96 120.403671 
" clip-path="url(#pdc918d04e2)" style="fill: none; stroke-dasharray: 8.64,2.16,1.35,2.16; stroke-dashoffset: 0; stroke: #d0526a; stroke-width: 1.35"/>
   </g>
   <g id="line2d_32">
    <path d="M 74.448 348.192 
L 99.08352 348.192 
L 100.97856 345.998483 
L 112.3488 345.998483 
L 114.24384 343.804966 
L 146.45952 343.804966 
L 150.2496 339.417931 
L 165.40992 339.417931 
L 167.30496 337.224414 
L 171.09504 337.224414 
L 174.88512 332.837379 
L 176.78016 332.837379 
L 180.57024 328.450345 
L 182.46528 324.06331 
L 188.1504 324.06331 
L 193.83552 317.482759 
L 201.41568 317.482759 
L 203.31072 315.289241 
L 205.20576 315.289241 
L 207.1008 313.095724 
L 212.78592 313.095724 
L 214.68096 310.902207 
L 216.576 310.902207 
L 218.47104 309.27113 
L 220.36608 309.27113 
L 222.26112 307.077613 
L 229.84128 307.077613 
L 231.73632 304.884095 
L 235.5264 304.884095 
L 237.42144 302.690578 
L 241.21152 302.690578 
L 243.10656 298.303544 
L 246.89664 298.303544 
L 252.58176 291.722992 
L 256.37184 291.722992 
L 262.05696 285.14244 
L 263.952 285.14244 
L 265.84704 282.948923 
L 271.53216 282.948923 
L 275.32224 278.561889 
L 277.21728 278.561889 
L 279.11232 274.174854 
L 288.58752 274.174854 
L 290.48256 269.78782 
L 292.3776 269.78782 
L 294.27264 267.594302 
L 298.06272 267.594302 
L 301.8528 263.207268 
L 303.74784 263.207268 
L 305.64288 261.013751 
L 311.328 261.013751 
L 313.22304 259.382674 
L 315.11808 259.382674 
L 317.01312 257.751597 
L 328.38336 257.751597 
L 330.2784 256.12052 
L 335.96352 256.12052 
L 337.85856 252.295926 
L 341.64864 252.295926 
L 343.54368 247.908891 
L 345.43872 245.715374 
L 347.33376 244.084297 
L 351.12384 244.084297 
L 353.01888 242.45322 
L 358.704 242.45322 
L 360.59904 240.822143 
L 364.38912 240.822143 
L 366.28416 238.628626 
L 370.07424 238.628626 
L 373.86432 234.241592 
L 377.6544 234.241592 
L 379.54944 232.048074 
L 381.44448 230.416997 
L 383.33952 226.029963 
L 387.1296 226.029963 
L 389.02464 224.398886 
L 390.91968 224.398886 
L 392.81472 222.767809 
L 404.18496 222.767809 
L 406.08 218.943215 
L 407.97504 218.943215 
L 409.87008 217.312138 
L 417.45024 217.312138 
L 419.34528 215.118621 
L 423.13536 211.856467 
L 425.0304 209.66295 
L 426.92544 209.66295 
L 428.82048 208.031873 
L 430.71552 205.838355 
L 438.29568 205.838355 
L 440.19072 203.644838 
L 445.87584 203.644838 
L 447.77088 201.451321 
L 453.456 201.451321 
L 457.24608 198.189167 
L 459.14112 198.189167 
L 461.03616 193.295936 
L 462.9312 193.295936 
L 464.82624 191.102419 
L 470.51136 191.102419 
L 472.4064 187.840265 
L 474.30144 186.209188 
L 476.19648 186.209188 
L 478.09152 184.015671 
L 485.67168 184.015671 
L 487.56672 182.384594 
L 495.14688 182.384594 
L 497.04192 180.753517 
L 498.93696 180.753517 
L 500.832 179.12244 
L 502.72704 179.12244 
L 504.62208 175.860286 
L 506.51712 174.22921 
L 508.41216 174.22921 
L 510.3072 169.335979 
L 512.20224 167.704902 
L 514.09728 167.704902 
L 515.99232 162.811671 
L 517.88736 162.811671 
L 519.7824 161.180594 
L 525.46752 161.180594 
L 527.36256 157.91844 
L 529.2576 156.287363 
L 533.04768 156.287363 
L 534.94272 154.656286 
L 536.83776 154.656286 
L 538.7328 153.02521 
L 540.62784 153.02521 
L 542.52288 151.394133 
L 544.41792 148.131979 
L 546.31296 143.238748 
L 548.208 139.976594 
L 550.10304 138.345517 
L 555.78816 138.345517 
L 557.6832 136.71444 
L 565.26336 136.71444 
L 567.1584 135.083363 
L 572.84352 135.083363 
L 574.73856 133.452286 
L 576.6336 133.452286 
L 578.52864 131.82121 
L 586.1088 131.82121 
L 588.00384 128.559056 
L 593.68896 128.559056 
L 595.584 125.296902 
L 597.47904 125.296902 
L 599.37408 123.665825 
L 605.0592 123.665825 
L 606.95424 122.034748 
L 610.74432 122.034748 
L 612.63936 120.403671 
L 614.5344 120.403671 
L 616.42944 118.772594 
L 618.32448 118.772594 
L 620.21952 117.141517 
L 624.0096 117.141517 
L 627.79968 113.879363 
L 629.69472 111.685846 
L 631.58976 108.423692 
L 641.06496 108.423692 
L 642.96 106.792615 
L 642.96 106.792615 
" clip-path="url(#pdc918d04e2)" style="fill: none; stroke-dasharray: 6.75,2.7,1.35,2.7; stroke-dashoffset: 0; stroke: #2f8f84; stroke-width: 1.35"/>
   </g>
   <g id="patch_4">
    <path d="M 74.448 348.192 
L 74.448 93.744 
" style="fill: none; stroke: #000000; stroke-width: 0.8; stroke-linejoin: miter; stroke-linecap: square"/>
   </g>
   <g id="patch_5">
    <path d="M 74.448 348.192 
L 642.96 348.192 
" style="fill: none; stroke: #000000; stroke-width: 0.8; stroke-linejoin: miter; stroke-linecap: square"/>
   </g>
  </g>
  <g id="text_16">
   <text style="font: 18px 'DejaVu Sans', 'Bitstream Vera Sans', 'Computer Modern Sans Serif', 'Lucida Grande', 'Verdana', 'Geneva', 'Lucid', 'Arial', 'Helvetica', 'Avant Garde', sans-serif; text-anchor: start" x="74.448" y="38.229188" transform="rotate(-0 74.448 38.229188)">QDEF LCD → QD-OLED</text>
  </g>
  <g id="text_17">
   <text style="fill: #66747c; font: 10px 'DejaVu Sans', 'Bitstream Vera Sans', 'Computer Modern Sans Serif', 'Lucida Grande', 'Verdana', 'Geneva', 'Lucid', 'Arial', 'Helvetica', 'Avant Garde', sans-serif; text-anchor: start" x="74.448" y="64.728" transform="rotate(-0 74.448 64.728)">D55</text>
  </g>
  <g id="legend_1">
   <g id="line2d_33">
    <path d="M 185.17875 404.151391 
L 194.27875 404.151391 
L 203.37875 404.151391 
" style="fill: none; stroke: #252525; stroke-width: 2.5; stroke-linecap: square"/>
   </g>
   <g id="text_18">
    <text style="font: 9.1px 'DejaVu Sans', 'Bitstream Vera Sans', 'Computer Modern Sans Serif', 'Lucida Grande', 'Verdana', 'Geneva', 'Lucid', 'Arial', 'Helvetica', 'Avant Garde', sans-serif; text-anchor: start" x="210.65875" y="407.336391" transform="rotate(-0 210.65875 407.336391)">Potera CMF</text>
   </g>
   <g id="line2d_34">
    <path d="M 185.17875 417.508484 
L 194.27875 417.508484 
L 203.37875 417.508484 
" style="fill: none; stroke: #3b83b4; stroke-width: 1.35; stroke-linecap: square"/>
   </g>
   <g id="text_19">
    <text style="font: 9.1px 'DejaVu Sans', 'Bitstream Vera Sans', 'Computer Modern Sans Serif', 'Lucida Grande', 'Verdana', 'Geneva', 'Lucid', 'Arial', 'Helvetica', 'Avant Garde', sans-serif; text-anchor: start" x="210.65875" y="420.693484" transform="rotate(-0 210.65875 420.693484)">CIE 2015 2°</text>
   </g>
   <g id="line2d_35">
    <path d="M 282.931234 404.151391 
L 292.031234 404.151391 
L 301.131234 404.151391 
" style="fill: none; stroke-dasharray: 4.995,2.16; stroke-dashoffset: 0; stroke: #c38a19; stroke-width: 1.35"/>
   </g>
   <g id="text_20">
    <text style="font: 9.1px 'DejaVu Sans', 'Bitstream Vera Sans', 'Computer Modern Sans Serif', 'Lucida Grande', 'Verdana', 'Geneva', 'Lucid', 'Arial', 'Helvetica', 'Avant Garde', sans-serif; text-anchor: start" x="308.411234" y="407.336391" transform="rotate(-0 308.411234 407.336391)">CIE 2015 10°</text>
   </g>
   <g id="line2d_36">
    <path d="M 282.931234 417.508484 
L 292.031234 417.508484 
L 301.131234 417.508484 
" style="fill: none; stroke-dasharray: 1.35,2.2275; stroke-dashoffset: 0; stroke: #7d8a92; stroke-width: 1.35"/>
   </g>
   <g id="text_21">
    <text style="font: 9.1px 'DejaVu Sans', 'Bitstream Vera Sans', 'Computer Modern Sans Serif', 'Lucida Grande', 'Verdana', 'Geneva', 'Lucid', 'Arial', 'Helvetica', 'Avant Garde', sans-serif; text-anchor: start" x="308.411234" y="420.693484" transform="rotate(-0 308.411234 420.693484)">CIE 1964 10°</text>
   </g>
   <g id="line2d_37">
    <path d="M 386.473594 404.151391 
L 395.573594 404.151391 
L 404.673594 404.151391 
" style="fill: none; stroke-dasharray: 8.64,2.16,1.35,2.16; stroke-dashoffset: 0; stroke: #d0526a; stroke-width: 1.35"/>
   </g>
   <g id="text_22">
    <text style="font: 9.1px 'DejaVu Sans', 'Bitstream Vera Sans', 'Computer Modern Sans Serif', 'Lucida Grande', 'Verdana', 'Geneva', 'Lucid', 'Arial', 'Helvetica', 'Avant Garde', sans-serif; text-anchor: start" x="411.953594" y="407.336391" transform="rotate(-0 411.953594 407.336391)">CIE 1931 2°</text>
   </g>
   <g id="line2d_38">
    <path d="M 386.473594 417.508484 
L 395.573594 417.508484 
L 404.673594 417.508484 
" style="fill: none; stroke-dasharray: 6.75,2.7,1.35,2.7; stroke-dashoffset: 0; stroke: #2f8f84; stroke-width: 1.35"/>
   </g>
   <g id="text_23">
    <text style="font: 9.1px 'DejaVu Sans', 'Bitstream Vera Sans', 'Computer Modern Sans Serif', 'Lucida Grande', 'Verdana', 'Geneva', 'Lucid', 'Arial', 'Helvetica', 'Avant Garde', sans-serif; text-anchor: start" x="411.953594" y="420.693484" transform="rotate(-0 411.953594 420.693484)">Judd–Vos 1978 2°</text>
   </g>
  </g>
 </g>
 <defs>
  <clipPath id="pdc918d04e2">
   <rect x="74.448" y="93.744" width="568.512" height="254.448"/>
  </clipPath>
 </defs>
</svg>
