<?xml version="1.0" encoding="utf-8" standalone="no"?>
<!DOCTYPE svg PUBLIC "-//W3C//DTD SVG 1.1//EN"
  "http://www.w3.org/Graphics/SVG/1.1/DTD/svg11.dtd">
<svg xmlns:xlink="http://www.w3.org/1999/xlink" width="676.8pt" height="446.4pt" viewBox="0 0 676.8 446.4" xmlns="http://www.w3.org/2000/svg" version="1.1">
 <metadata>
  <rdf:RDF xmlns:dc="http://purl.org/dc/elements/1.1/" xmlns:cc="http://creativecommons.org/ns#" xmlns:rdf="http://www.w3.org/1999/02/22-rdf-syntax-ns#">
   <cc:Work>
    <dc:type rdf:resource="http://purl.org/dc/dcmitype/StillImage"/>
    <dc:date>2026-07-20T06:41:59.528320</dc:date>
    <dc:format>image/svg+xml</dc:format>
    <dc:creator>
     <cc:Agent>
      <dc:title>Matplotlib v3.9.4, https://matplotlib.org/</dc:title>
     </cc:Agent>
    </dc:creator>
   </cc:Work>
  </rdf:RDF>
 </metadata>
 <defs>
  <style type="text/css">*{stroke-linejoin: round; stroke-linecap: butt}</style>
 </defs>
 <g id="figure_1">
  <g id="patch_1">
   <path d="M 0 446.4 
L 676.8 446.4 
L 676.8 0 
L 0 0 
z
" style="fill: #ffffff"/>
  </g>
  <g id="axes_1">
   <g id="patch_2">
    <path d="M 74.448 348.192 
L 642.96 348.192 
L 642.96 93.744 
L 74.448 93.744 
z
" style="fill: #ffffff"/>
   </g>
   <g id="patch_3">
    <path d="M 169.2 348.192 
L 358.704 348.192 
L 358.704 93.744 
L 169.2 93.744 
z
" clip-path="url(#p64f1ff1af3)" style="fill: #e7f0ea; opacity: 0.58; stroke: #e7f0ea; stroke-linejoin: miter"/>
   </g>
   <g id="matplotlib.axis_1">
    <g id="xtick_1">
     <g id="line2d_1">
      <path d="M 74.448 348.192 
L 74.448 93.744 
" clip-path="url(#p64f1ff1af3)" style="fill: none; stroke: #dfe5e8; stroke-width: 0.65; stroke-linecap: square"/>
     </g>
     <g id="line2d_2">
      <defs>
       <path id="m26800ccbf1" d="M 0 0 
L 0 3.5 
" style="stroke: #000000; stroke-width: 0.8"/>
      </defs>
      <g>
       <use xlink:href="#m26800ccbf1" x="74.448" y="348.192" style="stroke: #000000; stroke-width: 0.8"/>
      </g>
     </g>
     <g id="text_1">
      <text style="font: 10px 'DejaVu Sans', 'Bitstream Vera Sans', 'Computer Modern Sans Serif', 'Lucida Grande', 'Verdana', 'Geneva', 'Lucid', 'Arial', 'Helvetica', 'Avant Garde', sans-serif; text-anchor: middle" x="74.448" y="362.790438" transform="rotate(-0 74.448 362.790438)">0</text>
     </g>
    </g>
    <g id="xtick_2">
     <g id="line2d_3">
      <path d="M 169.2 348.192 
L 169.2 93.744 
" clip-path="url(#p64f1ff1af3)" style="fill: none; stroke: #dfe5e8; stroke-width: 0.65; stroke-linecap: square"/>
     </g>
     <g id="line2d_4">
      <g>
       <use xlink:href="#m26800ccbf1" x="169.2" y="348.192" style="stroke: #000000; stroke-width: 0.8"/>
      </g>
     </g>
     <g id="text_2">
      <text style="font: 10px 'DejaVu Sans', 'Bitstream Vera Sans', 'Computer Modern Sans Serif', 'Lucida Grande', 'Verdana', 'Geneva', 'Lucid', 'Arial', 'Helvetica', 'Avant Garde', sans-serif; text-anchor: middle" x="169.2" y="362.790438" transform="rotate(-0 169.2 362.790438)">1</text>
     </g>
    </g>
    <g id="xtick_3">
     <g id="line2d_5">
      <path d="M 263.952 348.192 
L 263.952 93.744 
" clip-path="url(#p64f1ff1af3)" style="fill: none; stroke: #dfe5e8; stroke-width: 0.65; stroke-linecap: square"/>
     </g>
     <g id="line2d_6">
      <g>
       <use xlink:href="#m26800ccbf1" x="263.952" y="348.192" style="stroke: #000000; stroke-width: 0.8"/>
      </g>
     </g>
     <g id="text_3">
      <text style="font: 10px 'DejaVu Sans', 'Bitstream Vera Sans', 'Computer Modern Sans Serif', 'Lucida Grande', 'Verdana', 'Geneva', 'Lucid', 'Arial', 'Helvetica', 'Avant Garde', sans-serif; text-anchor: middle" x="263.952" y="362.790438" transform="rotate(-0 263.952 362.790438)">2</text>
     </g>
    </g>
    <g id="xtick_4">
     <g id="line2d_7">
      <path d="M 358.704 348.192 
L 358.704 93.744 
" clip-path="url(#p64f1ff1af3)" style="fill: none; stroke: #dfe5e8; stroke-width: 0.65; stroke-linecap: square"/>
     </g>
     <g id="line2d_8">
      <g>
       <use xlink:href="#m26800ccbf1" x="358.704" y="348.192" style="stroke: #000000; stroke-width: 0.8"/>
      </g>
     </g>
     <g id="text_4">
      <text style="font: 10px 'DejaVu Sans', 'Bitstream Vera Sans', 'Computer Modern Sans Serif', 'Lucida Grande', 'Verdana', 'Geneva', 'Lucid', 'Arial', 'Helvetica', 'Avant Garde', sans-serif; text-anchor: middle" x="358.704" y="362.790438" transform="rotate(-0 358.704 362.790438)">3</text>
     </g>
    </g>
    <g id="xtick_5">
     <g id="line2d_9">
      <path d="M 453.456 348.192 
L 453.456 93.744 
" clip-path="url(#p64f1ff1af3)" style="fill: none; stroke: #dfe5e8; stroke-width: 0.65; stroke-linecap: square"/>
     </g>
     <g id="line2d_10">
      <g>
       <use xlink:href="#m26800ccbf1" x="453.456" y="348.192" style="stroke: #000000; stroke-width: 0.8"/>
      </g>
     </g>
     <g id="text_5">
      <text style="font: 10px 'DejaVu Sans', 'Bitstream Vera Sans', 'Computer Modern Sans Serif', 'Lucida Grande', 'Verdana', 'Geneva', 'Lucid', 'Arial', 'Helvetica', 'Avant Garde', sans-serif; text-anchor: middle" x="453.456" y="362.790438" transform="rotate(-0 453.456 362.790438)">4</text>
     </g>
    </g>
    <g id="xtick_6">
     <g id="line2d_11">
      <path d="M 548.208 348.192 
L 548.208 93.744 
" clip-path="url(#p64f1ff1af3)" style="fill: none; stroke: #dfe5e8; stroke-width: 0.65; stroke-linecap: square"/>
     </g>
     <g id="line2d_12">
      <g>
       <use xlink:href="#m26800ccbf1" x="548.208" y="348.192" style="stroke: #000000; stroke-width: 0.8"/>
      </g>
     </g>
     <g id="text_6">
      <text style="font: 10px 'DejaVu Sans', 'Bitstream Vera Sans', 'Computer Modern Sans Serif', 'Lucida Grande', 'Verdana', 'Geneva', 'Lucid', 'Arial', 'Helvetica', 'Avant Garde', sans-serif; text-anchor: middle" x="548.208" y="362.790438" transform="rotate(-0 548.208 362.790438)">5</text>
     </g>
    </g>
    <g id="xtick_7">
     <g id="line2d_13">
      <path d="M 642.96 348.192 
L 642.96 93.744 
" clip-path="url(#p64f1ff1af3)" style="fill: none; stroke: #dfe5e8; stroke-width: 0.65; stroke-linecap: square"/>
     </g>
     <g id="line2d_14">
      <g>
       <use xlink:href="#m26800ccbf1" x="642.96" y="348.192" style="stroke: #000000; stroke-width: 0.8"/>
      </g>
     </g>
     <g id="text_7">
      <text style="font: 10px 'DejaVu Sans', 'Bitstream Vera Sans', 'Computer Modern Sans Serif', 'Lucida Grande', 'Verdana', 'Geneva', 'Lucid', 'Arial', 'Helvetica', 'Avant Garde', sans-serif; text-anchor: middle" x="642.96" y="362.790438" transform="rotate(-0 642.96 362.790438)">6</text>
     </g>
    </g>
    <g id="text_8">
     <text style="font: 10px 'DejaVu Sans', 'Bitstream Vera Sans', 'Computer Modern Sans Serif', 'Lucida Grande', 'Verdana', 'Geneva', 'Lucid', 'Arial', 'Helvetica', 'Avant Garde', sans-serif; text-anchor: middle" x="358.704" y="376.468563" transform="rotate(-0 358.704 376.468563)">sUCS dE threshold</text>
    </g>
   </g>
   <g id="matplotlib.axis_2">
    <g id="ytick_1">
     <g id="line2d_15">
      <path d="M 74.448 348.192 
L 642.96 348.192 
" clip-path="url(#p64f1ff1af3)" style="fill: none; stroke: #dfe5e8; stroke-width: 0.65; stroke-linecap: square"/>
     </g>
     <g id="line2d_16">
      <defs>
       <path id="m000a72bf06" d="M 0 0 
L -3.5 0 
" style="stroke: #000000; stroke-width: 0.8"/>
      </defs>
      <g>
       <use xlink:href="#m000a72bf06" x="74.448" y="348.192" style="stroke: #000000; stroke-width: 0.8"/>
      </g>
     </g>
     <g id="text_9">
      <text style="font: 10px 'DejaVu Sans', 'Bitstream Vera Sans', 'Computer Modern Sans Serif', 'Lucida Grande', 'Verdana', 'Geneva', 'Lucid', 'Arial', 'Helvetica', 'Avant Garde', sans-serif; text-anchor: end" x="67.448" y="351.991219" transform="rotate(-0 67.448 351.991219)">0</text>
     </g>
    </g>
    <g id="ytick_2">
     <g id="line2d_17">
      <path d="M 74.448 297.3024 
L 642.96 297.3024 
" clip-path="url(#p64f1ff1af3)" style="fill: none; stroke: #dfe5e8; stroke-width: 0.65; stroke-linecap: square"/>
     </g>
     <g id="line2d_18">
      <g>
       <use xlink:href="#m000a72bf06" x="74.448" y="297.3024" style="stroke: #000000; stroke-width: 0.8"/>
      </g>
     </g>
     <g id="text_10">
      <text style="font: 10px 'DejaVu Sans', 'Bitstream Vera Sans', 'Computer Modern Sans Serif', 'Lucida Grande', 'Verdana', 'Geneva', 'Lucid', 'Arial', 'Helvetica', 'Avant Garde', sans-serif; text-anchor: end" x="67.448" y="301.101619" transform="rotate(-0 67.448 301.101619)">20</text>
     </g>
    </g>
    <g id="ytick_3">
     <g id="line2d_19">
      <path d="M 74.448 246.4128 
L 642.96 246.4128 
" clip-path="url(#p64f1ff1af3)" style="fill: none; stroke: #dfe5e8; stroke-width: 0.65; stroke-linecap: square"/>
     </g>
     <g id="line2d_20">
      <g>
       <use xlink:href="#m000a72bf06" x="74.448" y="246.4128" style="stroke: #000000; stroke-width: 0.8"/>
      </g>
     </g>
     <g id="text_11">
      <text style="font: 10px 'DejaVu Sans', 'Bitstream Vera Sans', 'Computer Modern Sans Serif', 'Lucida Grande', 'Verdana', 'Geneva', 'Lucid', 'Arial', 'Helvetica', 'Avant Garde', sans-serif; text-anchor: end" x="67.448" y="250.212019" transform="rotate(-0 67.448 250.212019)">40</text>
     </g>
    </g>
    <g id="ytick_4">
     <g id="line2d_21">
      <path d="M 74.448 195.5232 
L 642.96 195.5232 
" clip-path="url(#p64f1ff1af3)" style="fill: none; stroke: #dfe5e8; stroke-width: 0.65; stroke-linecap: square"/>
     </g>
     <g id="line2d_22">
      <g>
       <use xlink:href="#m000a72bf06" x="74.448" y="195.5232" style="stroke: #000000; stroke-width: 0.8"/>
      </g>
     </g>
     <g id="text_12">
      <text style="font: 10px 'DejaVu Sans', 'Bitstream Vera Sans', 'Computer Modern Sans Serif', 'Lucida Grande', 'Verdana', 'Geneva', 'Lucid', 'Arial', 'Helvetica', 'Avant Garde', sans-serif; text-anchor: end" x="67.448" y="199.322419" transform="rotate(-0 67.448 199.322419)">60</text>
     </g>
    </g>
    <g id="ytick_5">
     <g id="line2d_23">
      <path d="M 74.448 144.6336 
L 642.96 144.6336 
" clip-path="url(#p64f1ff1af3)" style="fill: none; stroke: #dfe5e8; stroke-width: 0.65; stroke-linecap: square"/>
     </g>
     <g id="line2d_24">
      <g>
       <use xlink:href="#m000a72bf06" x="74.448" y="144.6336" style="stroke: #000000; stroke-width: 0.8"/>
      </g>
     </g>
     <g id="text_13">
      <text style="font: 10px 'DejaVu Sans', 'Bitstream Vera Sans', 'Computer Modern Sans Serif', 'Lucida Grande', 'Verdana', 'Geneva', 'Lucid', 'Arial', 'Helvetica', 'Avant Garde', sans-serif; text-anchor: end" x="67.448" y="148.432819" transform="rotate(-0 67.448 148.432819)">80</text>
     </g>
    </g>
    <g id="ytick_6">
     <g id="line2d_25">
      <path d="M 74.448 93.744 
L 642.96 93.744 
" clip-path="url(#p64f1ff1af3)" style="fill: none; stroke: #dfe5e8; stroke-width: 0.65; stroke-linecap: square"/>
     </g>
     <g id="line2d_26">
      <g>
       <use xlink:href="#m000a72bf06" x="74.448" y="93.744" style="stroke: #000000; stroke-width: 0.8"/>
      </g>
     </g>
     <g id="text_14">
      <text style="font: 10px 'DejaVu Sans', 'Bitstream Vera Sans', 'Computer Modern Sans Serif', 'Lucida Grande', 'Verdana', 'Geneva', 'Lucid', 'Arial', 'Helvetica', 'Avant Garde', sans-serif; text-anchor: end" x="67.448" y="97.543219" transform="rotate(-0 67.448 97.543219)">100</text>
     </g>
    </g>
    <g id="text_15">
     <text style="font: 10px 'DejaVu Sans', 'Bitstream Vera Sans', 'Computer Modern Sans Serif', 'Lucida Grande', 'Verdana', 'Geneva', 'Lucid', 'Arial', 'Helvetica', 'Avant Garde', sans-serif; text-anchor: middle" x="42.280812" y="220.968" transform="rotate(-90 42.280812 220.968)">observers%</text>
    </g>
   </g>
   <g id="line2d_27">
    <path d="M 74.448 348.192 
L 83.9232 348.192 
L 85.81824 346.560923 
L 95.29344 346.560923 
L 97.18848 343.298769 
L 99.08352 343.298769 
L 100.97856 341.105252 
L 102.8736 341.105252 
L 104.76864 338.911735 
L 110.45376 338.911735 
L 112.3488 337.280658 
L 116.13888 337.280658 
L 118.03392 333.456064 
L 119.92896 331.824987 
L 121.824 331.824987 
L 123.71904 330.19391 
L 133.19424 330.19391 
L 135.08928 326.369316 
L 136.98432 326.369316 
L 140.7744 321.982281 
L 142.66944 320.351204 
L 150.2496 320.351204 
L 152.14464 318.720127 
L 154.03968 316.52661 
L 155.93472 314.895533 
L 157.82976 311.070939 
L 159.7248 311.070939 
L 161.61984 308.877422 
L 163.51488 307.246345 
L 165.40992 307.246345 
L 167.30496 305.052828 
L 169.2 299.597156 
L 172.99008 299.597156 
L 176.78016 296.335003 
L 178.6752 290.879332 
L 180.57024 290.879332 
L 182.46528 287.054737 
L 184.36032 284.86122 
L 186.25536 284.86122 
L 188.1504 278.843109 
L 191.94048 278.843109 
L 193.83552 273.949878 
L 195.73056 270.687724 
L 197.6256 270.687724 
L 199.52064 267.42557 
L 201.41568 263.600976 
L 203.31072 263.600976 
L 205.20576 260.338822 
L 207.1008 260.338822 
L 212.78592 255.445592 
L 216.576 255.445592 
L 220.36608 252.183438 
L 222.26112 252.183438 
L 224.15616 250.552361 
L 226.0512 250.552361 
L 229.84128 247.290207 
L 231.73632 241.272095 
L 233.63136 241.272095 
L 235.5264 238.009942 
L 237.42144 236.378865 
L 239.31648 234.185347 
L 243.10656 230.923194 
L 245.0016 230.923194 
L 246.89664 227.66104 
L 248.79168 227.66104 
L 250.68672 220.574292 
L 252.58176 214.55618 
L 254.4768 212.362663 
L 256.37184 210.731586 
L 258.26688 208.538069 
L 260.16192 208.538069 
L 262.05696 206.344552 
L 263.952 206.344552 
L 267.74208 201.957517 
L 271.53216 201.957517 
L 273.4272 199.764 
L 277.21728 196.501846 
L 282.9024 196.501846 
L 284.79744 194.870769 
L 288.58752 194.870769 
L 290.48256 192.677252 
L 292.3776 192.677252 
L 294.27264 191.046175 
L 296.16768 188.852658 
L 301.8528 183.959427 
L 305.64288 183.959427 
L 307.53792 181.76591 
L 309.43296 177.941316 
L 313.22304 177.941316 
L 315.11808 174.679162 
L 317.01312 174.679162 
L 320.8032 171.417008 
L 334.06848 171.417008 
L 335.96352 167.592414 
L 337.85856 167.592414 
L 341.64864 164.33026 
L 345.43872 164.33026 
L 347.33376 162.699183 
L 349.2288 158.312149 
L 351.12384 156.118631 
L 353.01888 154.487554 
L 354.91392 154.487554 
L 356.80896 152.294037 
L 360.59904 152.294037 
L 362.49408 150.10052 
L 364.38912 148.469443 
L 366.28416 148.469443 
L 368.1792 146.838366 
L 370.07424 144.644849 
L 373.86432 144.644849 
L 375.75936 140.257814 
L 389.02464 140.257814 
L 390.91968 136.43322 
L 392.81472 136.43322 
L 394.70976 134.802143 
L 398.49984 134.802143 
L 400.39488 132.608626 
L 404.18496 132.608626 
L 406.08 130.415109 
L 413.66016 130.415109 
L 415.5552 128.221592 
L 417.45024 126.590515 
L 421.24032 122.20348 
L 432.61056 122.20348 
L 434.5056 120.009963 
L 436.40064 120.009963 
L 438.29568 116.185369 
L 440.19072 114.554292 
L 445.87584 114.554292 
L 447.77088 112.923215 
L 449.66592 110.729698 
L 453.456 110.729698 
L 455.35104 108.53618 
L 468.61632 108.53618 
L 474.30144 101.955629 
L 479.98656 101.955629 
L 481.8816 99.762111 
L 483.77664 98.131034 
L 572.84352 98.131034 
L 574.73856 95.937517 
L 584.21376 95.937517 
L 586.1088 93.744 
L 642.96 93.744 
L 642.96 93.744 
" clip-path="url(#p64f1ff1af3)" style="fill: none; stroke: #252525; stroke-width: 2.5; stroke-linecap: square"/>
   </g>
   <g id="line2d_28">
    <path d="M 74.448 348.192 
L 110.45376 348.192 
L 112.3488 345.998483 
L 114.24384 345.998483 
L 116.13888 343.804966 
L 125.61408 343.804966 
L 127.50912 341.611448 
L 131.2992 341.611448 
L 133.19424 339.417931 
L 140.7744 339.417931 
L 142.66944 335.030897 
L 144.56448 332.837379 
L 146.45952 332.837379 
L 148.35456 328.450345 
L 150.2496 328.450345 
L 154.03968 324.06331 
L 167.30496 324.06331 
L 169.2 319.676276 
L 171.09504 317.482759 
L 172.99008 317.482759 
L 174.88512 315.289241 
L 176.78016 315.289241 
L 180.57024 310.902207 
L 182.46528 309.27113 
L 184.36032 304.884095 
L 188.1504 304.884095 
L 191.94048 296.110027 
L 193.83552 296.110027 
L 199.52064 289.529475 
L 210.89088 289.529475 
L 212.78592 287.335958 
L 214.68096 282.948923 
L 220.36608 282.948923 
L 224.15616 278.561889 
L 226.0512 278.561889 
L 227.94624 276.368371 
L 229.84128 276.368371 
L 231.73632 274.737294 
L 233.63136 268.719183 
L 235.5264 268.719183 
L 237.42144 266.525666 
L 239.31648 262.701072 
L 243.10656 262.701072 
L 246.89664 258.314037 
L 260.16192 258.314037 
L 262.05696 256.12052 
L 263.952 256.12052 
L 265.84704 251.733485 
L 273.4272 251.733485 
L 275.32224 246.840255 
L 277.21728 245.209178 
L 282.9024 245.209178 
L 284.79744 243.01566 
L 286.69248 241.384584 
L 288.58752 241.384584 
L 292.3776 236.997549 
L 301.8528 236.997549 
L 307.53792 230.416997 
L 309.43296 230.416997 
L 311.328 228.78592 
L 313.22304 228.78592 
L 315.11808 227.154844 
L 320.8032 227.154844 
L 322.69824 224.961326 
L 326.48832 224.961326 
L 328.38336 221.136732 
L 330.2784 219.505655 
L 332.17344 217.312138 
L 335.96352 217.312138 
L 337.85856 215.118621 
L 339.7536 215.118621 
L 341.64864 212.925103 
L 343.54368 212.925103 
L 345.43872 211.294027 
L 347.33376 211.294027 
L 349.2288 209.66295 
L 353.01888 209.66295 
L 354.91392 208.031873 
L 362.49408 208.031873 
L 364.38912 205.838355 
L 366.28416 205.838355 
L 368.1792 203.644838 
L 379.54944 203.644838 
L 381.44448 202.013761 
L 383.33952 202.013761 
L 385.23456 198.189167 
L 387.1296 196.55809 
L 389.02464 196.55809 
L 390.91968 194.927013 
L 392.81472 194.927013 
L 394.70976 192.733496 
L 396.6048 192.733496 
L 402.28992 187.840265 
L 409.87008 187.840265 
L 411.76512 185.646748 
L 419.34528 185.646748 
L 423.13536 182.384594 
L 428.82048 182.384594 
L 430.71552 180.753517 
L 432.61056 177.491363 
L 436.40064 177.491363 
L 438.29568 174.22921 
L 440.19072 174.22921 
L 442.08576 172.598133 
L 445.87584 172.598133 
L 447.77088 170.967056 
L 449.66592 167.704902 
L 451.56096 167.704902 
L 453.456 164.442748 
L 459.14112 164.442748 
L 462.9312 161.180594 
L 470.51136 161.180594 
L 472.4064 157.91844 
L 474.30144 156.287363 
L 476.19648 156.287363 
L 478.09152 154.656286 
L 479.98656 154.656286 
L 481.8816 153.02521 
L 483.77664 149.763056 
L 487.56672 146.500902 
L 489.46176 146.500902 
L 495.14688 141.607671 
L 497.04192 136.71444 
L 498.93696 135.083363 
L 514.09728 135.083363 
L 515.99232 133.452286 
L 521.67744 133.452286 
L 523.57248 131.82121 
L 531.15264 131.82121 
L 533.04768 130.190133 
L 538.7328 130.190133 
L 542.52288 126.927979 
L 544.41792 126.927979 
L 548.208 123.665825 
L 557.6832 123.665825 
L 559.57824 122.034748 
L 563.36832 122.034748 
L 565.26336 120.403671 
L 567.1584 115.51044 
L 582.31872 115.51044 
L 584.21376 110.61721 
L 595.584 110.61721 
L 597.47904 108.423692 
L 603.16416 108.423692 
L 605.0592 106.792615 
L 610.74432 106.792615 
L 612.63936 105.161538 
L 618.32448 105.161538 
L 620.21952 103.530462 
L 639.16992 103.530462 
L 641.06496 101.899385 
L 642.96 101.899385 
L 642.96 101.899385 
" clip-path="url(#p64f1ff1af3)" style="fill: none; stroke: #3b83b4; stroke-width: 1.35; stroke-linecap: square"/>
   </g>
   <g id="line2d_29">
    <path d="M 74.448 348.192 
L 100.97856 348.192 
L 102.8736 345.998483 
L 104.76864 344.367406 
L 106.66368 344.367406 
L 108.55872 341.105252 
L 110.45376 341.105252 
L 112.3488 339.474175 
L 116.13888 339.474175 
L 119.92896 332.949867 
L 123.71904 332.949867 
L 125.61408 329.687714 
L 127.50912 328.056637 
L 129.40416 322.600966 
L 131.2992 319.338812 
L 135.08928 319.338812 
L 136.98432 317.707735 
L 138.87936 317.707735 
L 140.7744 316.076658 
L 142.66944 316.076658 
L 144.56448 314.445581 
L 148.35456 314.445581 
L 152.14464 311.183427 
L 154.03968 311.183427 
L 157.82976 307.921273 
L 161.61984 307.921273 
L 163.51488 306.290196 
L 167.30496 299.765889 
L 169.2 298.134812 
L 171.09504 298.134812 
L 172.99008 294.872658 
L 174.88512 292.679141 
L 176.78016 291.048064 
L 178.6752 291.048064 
L 180.57024 285.592393 
L 182.46528 277.943204 
L 184.36032 277.943204 
L 186.25536 273.049973 
L 190.04544 273.049973 
L 191.94048 267.594302 
L 193.83552 267.594302 
L 195.73056 265.963225 
L 197.6256 261.576191 
L 201.41568 261.576191 
L 203.31072 259.945114 
L 207.1008 259.945114 
L 208.99584 258.314037 
L 210.89088 258.314037 
L 212.78592 256.68296 
L 214.68096 252.858366 
L 216.576 251.227289 
L 218.47104 247.965135 
L 220.36608 247.965135 
L 222.26112 246.334058 
L 224.15616 244.140541 
L 227.94624 240.878387 
L 229.84128 238.68487 
L 233.63136 238.68487 
L 235.5264 235.422716 
L 239.31648 232.160562 
L 243.10656 232.160562 
L 245.0016 230.529485 
L 248.79168 230.529485 
L 252.58176 227.267332 
L 254.4768 223.442737 
L 256.37184 221.24922 
L 258.26688 221.24922 
L 260.16192 219.618143 
L 262.05696 219.618143 
L 265.84704 213.093836 
L 267.74208 210.900318 
L 269.63712 207.075724 
L 271.53216 205.444647 
L 273.4272 205.444647 
L 275.32224 203.81357 
L 277.21728 203.81357 
L 279.11232 198.357899 
L 282.9024 198.357899 
L 284.79744 196.164382 
L 286.69248 196.164382 
L 288.58752 194.533305 
L 298.06272 194.533305 
L 299.95776 192.902228 
L 305.64288 192.902228 
L 307.53792 190.708711 
L 309.43296 186.884117 
L 313.22304 186.884117 
L 315.11808 184.690599 
L 317.01312 184.690599 
L 318.90816 182.497082 
L 326.48832 182.497082 
L 328.38336 180.303565 
L 330.2784 178.672488 
L 335.96352 178.672488 
L 337.85856 176.478971 
L 339.7536 176.478971 
L 341.64864 172.091936 
L 343.54368 169.898419 
L 345.43872 169.898419 
L 347.33376 165.511385 
L 349.2288 165.511385 
L 351.12384 163.880308 
L 354.91392 159.493273 
L 356.80896 159.493273 
L 360.59904 156.231119 
L 362.49408 156.231119 
L 364.38912 154.600042 
L 379.54944 154.600042 
L 381.44448 152.406525 
L 394.70976 152.406525 
L 396.6048 150.213008 
L 398.49984 150.213008 
L 400.39488 148.019491 
L 404.18496 148.019491 
L 406.08 146.388414 
L 426.92544 146.388414 
L 428.82048 142.001379 
L 434.5056 142.001379 
L 436.40064 139.807862 
L 445.87584 139.807862 
L 447.77088 137.614345 
L 449.66592 137.614345 
L 451.56096 135.420828 
L 455.35104 135.420828 
L 461.03616 128.840276 
L 464.82624 128.840276 
L 466.72128 126.646759 
L 472.4064 126.646759 
L 474.30144 124.453241 
L 491.3568 124.453241 
L 497.04192 117.87269 
L 504.62208 117.87269 
L 506.51712 115.679172 
L 515.99232 115.679172 
L 521.67744 109.098621 
L 534.94272 109.098621 
L 536.83776 106.905103 
L 553.89312 106.905103 
L 555.78816 104.711586 
L 557.6832 104.711586 
L 559.57824 100.324552 
L 561.47328 98.131034 
L 642.96 98.131034 
L 642.96 98.131034 
" clip-path="url(#p64f1ff1af3)" style="fill: none; stroke-dasharray: 4.995,2.16; stroke-dashoffset: 0; stroke: #c38a19; stroke-width: 1.35"/>
   </g>
   <g id="line2d_30">
    <path d="M 74.448 348.192 
L 118.03392 348.192 
L 119.92896 345.998483 
L 123.71904 345.998483 
L 125.61408 344.367406 
L 135.08928 344.367406 
L 138.87936 341.105252 
L 140.7744 338.911735 
L 144.56448 338.911735 
L 146.45952 336.718218 
L 148.35456 336.718218 
L 150.2496 332.893623 
L 152.14464 332.893623 
L 154.03968 330.700106 
L 161.61984 330.700106 
L 163.51488 328.506589 
L 169.2 328.506589 
L 171.09504 326.313072 
L 172.99008 324.681995 
L 174.88512 319.226324 
L 176.78016 315.96417 
L 178.6752 314.333093 
L 180.57024 314.333093 
L 182.46528 312.702016 
L 190.04544 312.702016 
L 191.94048 311.070939 
L 193.83552 307.808785 
L 195.73056 306.177708 
L 199.52064 306.177708 
L 203.31072 299.653401 
L 205.20576 299.653401 
L 207.1008 295.828806 
L 208.99584 294.197729 
L 212.78592 294.197729 
L 218.47104 289.304499 
L 220.36608 289.304499 
L 222.26112 287.673422 
L 224.15616 287.673422 
L 226.0512 281.65531 
L 227.94624 278.393156 
L 231.73632 278.393156 
L 233.63136 274.006122 
L 235.5264 274.006122 
L 237.42144 266.356934 
L 239.31648 263.09478 
L 243.10656 263.09478 
L 245.0016 259.270186 
L 246.89664 257.639109 
L 250.68672 249.98992 
L 252.58176 249.98992 
L 254.4768 246.727767 
L 258.26688 246.727767 
L 260.16192 244.534249 
L 262.05696 244.534249 
L 263.952 240.709655 
L 265.84704 235.253984 
L 267.74208 233.622907 
L 269.63712 228.167236 
L 271.53216 228.167236 
L 273.4272 224.342642 
L 275.32224 222.711565 
L 279.11232 222.711565 
L 281.00736 215.062377 
L 282.9024 213.4313 
L 284.79744 213.4313 
L 288.58752 210.169146 
L 290.48256 210.169146 
L 294.27264 206.906992 
L 298.06272 202.519958 
L 299.95776 202.519958 
L 301.8528 200.888881 
L 303.74784 198.695363 
L 305.64288 197.064286 
L 307.53792 194.870769 
L 309.43296 191.046175 
L 311.328 187.784021 
L 313.22304 187.784021 
L 317.01312 184.521867 
L 318.90816 181.259714 
L 326.48832 181.259714 
L 328.38336 179.628637 
L 332.17344 179.628637 
L 334.06848 177.99756 
L 335.96352 177.99756 
L 337.85856 171.979448 
L 341.64864 171.979448 
L 343.54368 170.348371 
L 345.43872 168.154854 
L 347.33376 168.154854 
L 349.2288 165.961337 
L 351.12384 165.961337 
L 353.01888 164.33026 
L 354.91392 164.33026 
L 356.80896 162.699183 
L 358.704 162.699183 
L 360.59904 160.505666 
L 364.38912 160.505666 
L 366.28416 158.874589 
L 368.1792 152.856477 
L 375.75936 152.856477 
L 377.6544 151.225401 
L 385.23456 151.225401 
L 387.1296 145.207289 
L 389.02464 143.013772 
L 390.91968 143.013772 
L 392.81472 138.626737 
L 396.6048 138.626737 
L 398.49984 136.99566 
L 400.39488 134.802143 
L 407.97504 134.802143 
L 409.87008 130.415109 
L 411.76512 130.415109 
L 413.66016 126.590515 
L 419.34528 126.590515 
L 421.24032 124.396997 
L 426.92544 124.396997 
L 428.82048 120.572403 
L 436.40064 120.572403 
L 438.29568 118.378886 
L 440.19072 118.378886 
L 442.08576 116.185369 
L 449.66592 116.185369 
L 453.456 112.923215 
L 455.35104 112.923215 
L 457.24608 110.729698 
L 464.82624 110.729698 
L 466.72128 108.53618 
L 476.19648 108.53618 
L 478.09152 106.342663 
L 479.98656 106.342663 
L 481.8816 104.149146 
L 485.67168 104.149146 
L 489.46176 99.762111 
L 498.93696 99.762111 
L 500.832 98.131034 
L 584.21376 98.131034 
L 588.00384 93.744 
L 642.96 93.744 
L 642.96 93.744 
" clip-path="url(#p64f1ff1af3)" style="fill: none; stroke-dasharray: 1.35,2.2275; stroke-dashoffset: 0; stroke: #7d8a92; stroke-width: 1.35"/>
   </g>
   <g id="line2d_31">
    <path d="M 74.448 348.192 
L 161.61984 348.192 
L 163.51488 345.998483 
L 165.40992 345.998483 
L 167.30496 343.804966 
L 171.09504 343.804966 
L 172.99008 341.611448 
L 178.6752 341.611448 
L 180.57024 339.417931 
L 207.1008 339.417931 
L 208.99584 337.224414 
L 212.78592 337.224414 
L 214.68096 335.030897 
L 216.576 335.030897 
L 218.47104 332.837379 
L 229.84128 332.837379 
L 231.73632 330.643862 
L 239.31648 330.643862 
L 241.21152 328.450345 
L 243.10656 328.450345 
L 245.0016 326.256828 
L 252.58176 326.256828 
L 256.37184 321.869793 
L 260.16192 321.869793 
L 262.05696 315.851682 
L 265.84704 315.851682 
L 267.74208 313.658164 
L 275.32224 313.658164 
L 277.21728 309.27113 
L 279.11232 309.27113 
L 281.00736 304.884095 
L 284.79744 304.884095 
L 286.69248 302.690578 
L 292.3776 302.690578 
L 296.16768 298.303544 
L 299.95776 298.303544 
L 301.8528 296.110027 
L 303.74784 296.110027 
L 305.64288 293.916509 
L 309.43296 293.916509 
L 311.328 291.722992 
L 317.01312 291.722992 
L 320.8032 287.335958 
L 328.38336 287.335958 
L 330.2784 285.14244 
L 332.17344 280.755406 
L 334.06848 280.755406 
L 339.7536 274.174854 
L 351.12384 274.174854 
L 353.01888 272.543777 
L 360.59904 272.543777 
L 362.49408 270.35026 
L 366.28416 270.35026 
L 368.1792 268.156743 
L 370.07424 263.769708 
L 375.75936 263.769708 
L 377.6544 261.576191 
L 383.33952 261.576191 
L 387.1296 258.314037 
L 389.02464 253.927003 
L 394.70976 253.927003 
L 396.6048 251.733485 
L 398.49984 250.102408 
L 415.5552 250.102408 
L 417.45024 247.908891 
L 428.82048 247.908891 
L 430.71552 244.646737 
L 434.5056 240.259703 
L 442.08576 240.259703 
L 443.9808 238.628626 
L 449.66592 238.628626 
L 451.56096 236.435109 
L 453.456 236.435109 
L 457.24608 232.048074 
L 459.14112 228.22348 
L 464.82624 228.22348 
L 466.72128 226.592403 
L 468.61632 221.136732 
L 474.30144 221.136732 
L 476.19648 218.943215 
L 481.8816 218.943215 
L 483.77664 217.312138 
L 487.56672 217.312138 
L 489.46176 215.118621 
L 500.832 215.118621 
L 502.72704 212.925103 
L 504.62208 212.925103 
L 506.51712 211.294027 
L 508.41216 211.294027 
L 510.3072 208.031873 
L 517.88736 208.031873 
L 519.7824 204.207279 
L 521.67744 202.576202 
L 523.57248 202.576202 
L 525.46752 198.751607 
L 527.36256 196.55809 
L 529.2576 194.927013 
L 534.94272 194.927013 
L 536.83776 192.733496 
L 548.208 192.733496 
L 550.10304 191.102419 
L 553.89312 191.102419 
L 555.78816 189.471342 
L 557.6832 189.471342 
L 559.57824 187.840265 
L 561.47328 184.578111 
L 563.36832 182.947034 
L 569.05344 182.947034 
L 572.84352 179.684881 
L 574.73856 175.860286 
L 578.52864 175.860286 
L 580.42368 174.22921 
L 582.31872 174.22921 
L 589.89888 167.704902 
L 591.79392 167.704902 
L 593.68896 164.442748 
L 597.47904 164.442748 
L 599.37408 162.811671 
L 605.0592 162.811671 
L 610.74432 157.91844 
L 614.5344 157.91844 
L 618.32448 154.656286 
L 622.11456 154.656286 
L 627.79968 149.763056 
L 629.69472 149.763056 
L 631.58976 148.131979 
L 633.4848 141.607671 
L 641.06496 141.607671 
L 642.96 138.345517 
L 642.96 138.345517 
" clip-path="url(#p64f1ff1af3)" style="fill: none; stroke-dasharray: 8.64,2.16,1.35,2.16; stroke-dashoffset: 0; stroke: #d0526a; stroke-width: 1.35"/>
   </g>
   <g id="line2d_32">
    <path d="M 74.448 348.192 
L 102.8736 348.192 
L 104.76864 345.998483 
L 112.3488 345.998483 
L 114.24384 343.804966 
L 155.93472 343.804966 
L 157.82976 341.611448 
L 161.61984 341.611448 
L 163.51488 339.417931 
L 169.2 339.417931 
L 172.99008 335.030897 
L 174.88512 335.030897 
L 176.78016 332.837379 
L 180.57024 332.837379 
L 184.36032 328.450345 
L 188.1504 328.450345 
L 190.04544 326.256828 
L 193.83552 326.256828 
L 195.73056 324.06331 
L 201.41568 324.06331 
L 207.1008 317.482759 
L 210.89088 317.482759 
L 212.78592 315.289241 
L 218.47104 315.289241 
L 220.36608 313.095724 
L 227.94624 313.095724 
L 229.84128 310.902207 
L 237.42144 310.902207 
L 239.31648 308.70869 
L 241.21152 307.077613 
L 246.89664 307.077613 
L 248.79168 304.884095 
L 252.58176 304.884095 
L 254.4768 302.690578 
L 256.37184 298.303544 
L 263.952 298.303544 
L 265.84704 296.110027 
L 269.63712 296.110027 
L 271.53216 291.722992 
L 273.4272 291.722992 
L 275.32224 289.529475 
L 277.21728 285.14244 
L 279.11232 285.14244 
L 282.9024 280.755406 
L 284.79744 280.755406 
L 286.69248 278.561889 
L 292.3776 278.561889 
L 296.16768 274.174854 
L 301.8528 274.174854 
L 303.74784 271.981337 
L 317.01312 271.981337 
L 318.90816 265.400785 
L 320.8032 263.207268 
L 326.48832 263.207268 
L 328.38336 261.576191 
L 337.85856 261.576191 
L 339.7536 259.382674 
L 349.2288 259.382674 
L 351.12384 257.751597 
L 354.91392 257.751597 
L 356.80896 256.12052 
L 362.49408 256.12052 
L 364.38912 253.927003 
L 366.28416 252.295926 
L 368.1792 250.102408 
L 371.96928 250.102408 
L 373.86432 247.908891 
L 390.91968 247.908891 
L 392.81472 245.715374 
L 396.6048 242.45322 
L 400.39488 242.45322 
L 402.28992 240.822143 
L 404.18496 240.822143 
L 406.08 238.628626 
L 411.76512 238.628626 
L 413.66016 236.435109 
L 415.5552 234.804032 
L 417.45024 232.610515 
L 419.34528 232.610515 
L 421.24032 228.22348 
L 423.13536 226.029963 
L 428.82048 226.029963 
L 430.71552 224.398886 
L 432.61056 224.398886 
L 434.5056 222.767809 
L 438.29568 222.767809 
L 440.19072 221.136732 
L 442.08576 218.943215 
L 445.87584 218.943215 
L 447.77088 215.118621 
L 462.9312 215.118621 
L 464.82624 212.925103 
L 468.61632 212.925103 
L 470.51136 211.294027 
L 474.30144 211.294027 
L 476.19648 208.031873 
L 487.56672 208.031873 
L 489.46176 204.207279 
L 491.3568 202.013761 
L 493.25184 202.013761 
L 495.14688 200.382684 
L 497.04192 195.99565 
L 500.832 192.733496 
L 514.09728 192.733496 
L 517.88736 189.471342 
L 519.7824 189.471342 
L 521.67744 187.840265 
L 533.04768 187.840265 
L 534.94272 186.209188 
L 536.83776 182.384594 
L 540.62784 179.12244 
L 546.31296 179.12244 
L 548.208 175.860286 
L 550.10304 174.22921 
L 557.6832 174.22921 
L 561.47328 167.704902 
L 563.36832 167.704902 
L 569.05344 162.811671 
L 574.73856 162.811671 
L 576.6336 161.180594 
L 580.42368 161.180594 
L 582.31872 159.549517 
L 588.00384 159.549517 
L 589.89888 157.91844 
L 591.79392 154.656286 
L 593.68896 153.02521 
L 595.584 153.02521 
L 603.16416 146.500902 
L 606.95424 139.976594 
L 610.74432 139.976594 
L 614.5344 136.71444 
L 616.42944 136.71444 
L 618.32448 135.083363 
L 622.11456 135.083363 
L 624.0096 133.452286 
L 641.06496 133.452286 
L 642.96 130.190133 
L 642.96 130.190133 
" clip-path="url(#p64f1ff1af3)" style="fill: none; stroke-dasharray: 6.75,2.7,1.35,2.7; stroke-dashoffset: 0; stroke: #2f8f84; stroke-width: 1.35"/>
   </g>
   <g id="patch_4">
    <path d="M 74.448 348.192 
L 74.448 93.744 
" style="fill: none; stroke: #000000; stroke-width: 0.8; stroke-linejoin: miter; stroke-linecap: square"/>
   </g>
   <g id="patch_5">
    <path d="M 74.448 348.192 
L 642.96 348.192 
" style="fill: none; stroke: #000000; stroke-width: 0.8; stroke-linejoin: miter; stroke-linecap: square"/>
   </g>
  </g>
  <g id="text_16">
   <text style="font: 18px 'DejaVu Sans', 'Bitstream Vera Sans', 'Computer Modern Sans Serif', 'Lucida Grande', 'Verdana', 'Geneva', 'Lucid', 'Arial', 'Helvetica', 'Avant Garde', sans-serif; text-anchor: start" x="74.448" y="38.229188" transform="rotate(-0 74.448 38.229188)">QDEF LCD → QD-OLED</text>
  </g>
  <g id="text_17">
   <text style="fill: #66747c; font: 10px 'DejaVu Sans', 'Bitstream Vera Sans', 'Computer Modern Sans Serif', 'Lucida Grande', 'Verdana', 'Geneva', 'Lucid', 'Arial', 'Helvetica', 'Avant Garde', sans-serif; text-anchor: start" x="74.448" y="64.728" transform="rotate(-0 74.448 64.728)">D65</text>
  </g>
  <g id="legend_1">
   <g id="line2d_33">
    <path d="M 185.17875 404.151391 
L 194.27875 404.151391 
L 203.37875 404.151391 
" style="fill: none; stroke: #252525; stroke-width: 2.5; stroke-linecap: square"/>
   </g>
   <g id="text_18">
    <text style="font: 9.1px 'DejaVu Sans', 'Bitstream Vera Sans', 'Computer Modern Sans Serif', 'Lucida Grande', 'Verdana', 'Geneva', 'Lucid', 'Arial', 'Helvetica', 'Avant Garde', sans-serif; text-anchor: start" x="210.65875" y="407.336391" transform="rotate(-0 210.65875 407.336391)">Potera CMF</text>
   </g>
   <g id="line2d_34">
    <path d="M 185.17875 417.508484 
L 194.27875 417.508484 
L 203.37875 417.508484 
" style="fill: none; stroke: #3b83b4; stroke-width: 1.35; stroke-linecap: square"/>
   </g>
   <g id="text_19">
    <text style="font: 9.1px 'DejaVu Sans', 'Bitstream Vera Sans', 'Computer Modern Sans Serif', 'Lucida Grande', 'Verdana', 'Geneva', 'Lucid', 'Arial', 'Helvetica', 'Avant Garde', sans-serif; text-anchor: start" x="210.65875" y="420.693484" transform="rotate(-0 210.65875 420.693484)">CIE 2015 2°</text>
   </g>
   <g id="line2d_35">
    <path d="M 282.931234 404.151391 
L 292.031234 404.151391 
L 301.131234 404.151391 
" style="fill: none; stroke-dasharray: 4.995,2.16; stroke-dashoffset: 0; stroke: #c38a19; stroke-width: 1.35"/>
   </g>
   <g id="text_20">
    <text style="font: 9.1px 'DejaVu Sans', 'Bitstream Vera Sans', 'Computer Modern Sans Serif', 'Lucida Grande', 'Verdana', 'Geneva', 'Lucid', 'Arial', 'Helvetica', 'Avant Garde', sans-serif; text-anchor: start" x="308.411234" y="407.336391" transform="rotate(-0 308.411234 407.336391)">CIE 2015 10°</text>
   </g>
   <g id="line2d_36">
    <path d="M 282.931234 417.508484 
L 292.031234 417.508484 
L 301.131234 417.508484 
" style="fill: none; stroke-dasharray: 1.35,2.2275; stroke-dashoffset: 0; stroke: #7d8a92; stroke-width: 1.35"/>
   </g>
   <g id="text_21">
    <text style="font: 9.1px 'DejaVu Sans', 'Bitstream Vera Sans', 'Computer Modern Sans Serif', 'Lucida Grande', 'Verdana', 'Geneva', 'Lucid', 'Arial', 'Helvetica', 'Avant Garde', sans-serif; text-anchor: start" x="308.411234" y="420.693484" transform="rotate(-0 308.411234 420.693484)">CIE 1964 10°</text>
   </g>
   <g id="line2d_37">
    <path d="M 386.473594 404.151391 
L 395.573594 404.151391 
L 404.673594 404.151391 
" style="fill: none; stroke-dasharray: 8.64,2.16,1.35,2.16; stroke-dashoffset: 0; stroke: #d0526a; stroke-width: 1.35"/>
   </g>
   <g id="text_22">
    <text style="font: 9.1px 'DejaVu Sans', 'Bitstream Vera Sans', 'Computer Modern Sans Serif', 'Lucida Grande', 'Verdana', 'Geneva', 'Lucid', 'Arial', 'Helvetica', 'Avant Garde', sans-serif; text-anchor: start" x="411.953594" y="407.336391" transform="rotate(-0 411.953594 407.336391)">CIE 1931 2°</text>
   </g>
   <g id="line2d_38">
    <path d="M 386.473594 417.508484 
L 395.573594 417.508484 
L 404.673594 417.508484 
" style="fill: none; stroke-dasharray: 6.75,2.7,1.35,2.7; stroke-dashoffset: 0; stroke: #2f8f84; stroke-width: 1.35"/>
   </g>
   <g id="text_23">
    <text style="font: 9.1px 'DejaVu Sans', 'Bitstream Vera Sans', 'Computer Modern Sans Serif', 'Lucida Grande', 'Verdana', 'Geneva', 'Lucid', 'Arial', 'Helvetica', 'Avant Garde', sans-serif; text-anchor: start" x="411.953594" y="420.693484" transform="rotate(-0 411.953594 420.693484)">Judd–Vos 1978 2°</text>
   </g>
  </g>
 </g>
 <defs>
  <clipPath id="p64f1ff1af3">
   <rect x="74.448" y="93.744" width="568.512" height="254.448"/>
  </clipPath>
 </defs>
</svg>
