<?xml version="1.0" encoding="utf-8" standalone="no"?>
<!DOCTYPE svg PUBLIC "-//W3C//DTD SVG 1.1//EN"
  "http://www.w3.org/Graphics/SVG/1.1/DTD/svg11.dtd">
<svg xmlns:xlink="http://www.w3.org/1999/xlink" width="676.8pt" height="446.4pt" viewBox="0 0 676.8 446.4" xmlns="http://www.w3.org/2000/svg" version="1.1">
 <metadata>
  <rdf:RDF xmlns:dc="http://purl.org/dc/elements/1.1/" xmlns:cc="http://creativecommons.org/ns#" xmlns:rdf="http://www.w3.org/1999/02/22-rdf-syntax-ns#">
   <cc:Work>
    <dc:type rdf:resource="http://purl.org/dc/dcmitype/StillImage"/>
    <dc:date>2026-07-20T06:41:59.876614</dc:date>
    <dc:format>image/svg+xml</dc:format>
    <dc:creator>
     <cc:Agent>
      <dc:title>Matplotlib v3.9.4, https://matplotlib.org/</dc:title>
     </cc:Agent>
    </dc:creator>
   </cc:Work>
  </rdf:RDF>
 </metadata>
 <defs>
  <style type="text/css">*{stroke-linejoin: round; stroke-linecap: butt}</style>
 </defs>
 <g id="figure_1">
  <g id="patch_1">
   <path d="M 0 446.4 
L 676.8 446.4 
L 676.8 0 
L 0 0 
z
" style="fill: #ffffff"/>
  </g>
  <g id="axes_1">
   <g id="patch_2">
    <path d="M 74.448 348.192 
L 642.96 348.192 
L 642.96 93.744 
L 74.448 93.744 
z
" style="fill: #ffffff"/>
   </g>
   <g id="patch_3">
    <path d="M 169.2 348.192 
L 358.704 348.192 
L 358.704 93.744 
L 169.2 93.744 
z
" clip-path="url(#p9dcc22d894)" style="fill: #e7f0ea; opacity: 0.58; stroke: #e7f0ea; stroke-linejoin: miter"/>
   </g>
   <g id="matplotlib.axis_1">
    <g id="xtick_1">
     <g id="line2d_1">
      <path d="M 74.448 348.192 
L 74.448 93.744 
" clip-path="url(#p9dcc22d894)" style="fill: none; stroke: #dfe5e8; stroke-width: 0.65; stroke-linecap: square"/>
     </g>
     <g id="line2d_2">
      <defs>
       <path id="m63082c84d9" d="M 0 0 
L 0 3.5 
" style="stroke: #000000; stroke-width: 0.8"/>
      </defs>
      <g>
       <use xlink:href="#m63082c84d9" x="74.448" y="348.192" style="stroke: #000000; stroke-width: 0.8"/>
      </g>
     </g>
     <g id="text_1">
      <text style="font: 10px 'DejaVu Sans', 'Bitstream Vera Sans', 'Computer Modern Sans Serif', 'Lucida Grande', 'Verdana', 'Geneva', 'Lucid', 'Arial', 'Helvetica', 'Avant Garde', sans-serif; text-anchor: middle" x="74.448" y="362.790438" transform="rotate(-0 74.448 362.790438)">0</text>
     </g>
    </g>
    <g id="xtick_2">
     <g id="line2d_3">
      <path d="M 169.2 348.192 
L 169.2 93.744 
" clip-path="url(#p9dcc22d894)" style="fill: none; stroke: #dfe5e8; stroke-width: 0.65; stroke-linecap: square"/>
     </g>
     <g id="line2d_4">
      <g>
       <use xlink:href="#m63082c84d9" x="169.2" y="348.192" style="stroke: #000000; stroke-width: 0.8"/>
      </g>
     </g>
     <g id="text_2">
      <text style="font: 10px 'DejaVu Sans', 'Bitstream Vera Sans', 'Computer Modern Sans Serif', 'Lucida Grande', 'Verdana', 'Geneva', 'Lucid', 'Arial', 'Helvetica', 'Avant Garde', sans-serif; text-anchor: middle" x="169.2" y="362.790438" transform="rotate(-0 169.2 362.790438)">1</text>
     </g>
    </g>
    <g id="xtick_3">
     <g id="line2d_5">
      <path d="M 263.952 348.192 
L 263.952 93.744 
" clip-path="url(#p9dcc22d894)" style="fill: none; stroke: #dfe5e8; stroke-width: 0.65; stroke-linecap: square"/>
     </g>
     <g id="line2d_6">
      <g>
       <use xlink:href="#m63082c84d9" x="263.952" y="348.192" style="stroke: #000000; stroke-width: 0.8"/>
      </g>
     </g>
     <g id="text_3">
      <text style="font: 10px 'DejaVu Sans', 'Bitstream Vera Sans', 'Computer Modern Sans Serif', 'Lucida Grande', 'Verdana', 'Geneva', 'Lucid', 'Arial', 'Helvetica', 'Avant Garde', sans-serif; text-anchor: middle" x="263.952" y="362.790438" transform="rotate(-0 263.952 362.790438)">2</text>
     </g>
    </g>
    <g id="xtick_4">
     <g id="line2d_7">
      <path d="M 358.704 348.192 
L 358.704 93.744 
" clip-path="url(#p9dcc22d894)" style="fill: none; stroke: #dfe5e8; stroke-width: 0.65; stroke-linecap: square"/>
     </g>
     <g id="line2d_8">
      <g>
       <use xlink:href="#m63082c84d9" x="358.704" y="348.192" style="stroke: #000000; stroke-width: 0.8"/>
      </g>
     </g>
     <g id="text_4">
      <text style="font: 10px 'DejaVu Sans', 'Bitstream Vera Sans', 'Computer Modern Sans Serif', 'Lucida Grande', 'Verdana', 'Geneva', 'Lucid', 'Arial', 'Helvetica', 'Avant Garde', sans-serif; text-anchor: middle" x="358.704" y="362.790438" transform="rotate(-0 358.704 362.790438)">3</text>
     </g>
    </g>
    <g id="xtick_5">
     <g id="line2d_9">
      <path d="M 453.456 348.192 
L 453.456 93.744 
" clip-path="url(#p9dcc22d894)" style="fill: none; stroke: #dfe5e8; stroke-width: 0.65; stroke-linecap: square"/>
     </g>
     <g id="line2d_10">
      <g>
       <use xlink:href="#m63082c84d9" x="453.456" y="348.192" style="stroke: #000000; stroke-width: 0.8"/>
      </g>
     </g>
     <g id="text_5">
      <text style="font: 10px 'DejaVu Sans', 'Bitstream Vera Sans', 'Computer Modern Sans Serif', 'Lucida Grande', 'Verdana', 'Geneva', 'Lucid', 'Arial', 'Helvetica', 'Avant Garde', sans-serif; text-anchor: middle" x="453.456" y="362.790438" transform="rotate(-0 453.456 362.790438)">4</text>
     </g>
    </g>
    <g id="xtick_6">
     <g id="line2d_11">
      <path d="M 548.208 348.192 
L 548.208 93.744 
" clip-path="url(#p9dcc22d894)" style="fill: none; stroke: #dfe5e8; stroke-width: 0.65; stroke-linecap: square"/>
     </g>
     <g id="line2d_12">
      <g>
       <use xlink:href="#m63082c84d9" x="548.208" y="348.192" style="stroke: #000000; stroke-width: 0.8"/>
      </g>
     </g>
     <g id="text_6">
      <text style="font: 10px 'DejaVu Sans', 'Bitstream Vera Sans', 'Computer Modern Sans Serif', 'Lucida Grande', 'Verdana', 'Geneva', 'Lucid', 'Arial', 'Helvetica', 'Avant Garde', sans-serif; text-anchor: middle" x="548.208" y="362.790438" transform="rotate(-0 548.208 362.790438)">5</text>
     </g>
    </g>
    <g id="xtick_7">
     <g id="line2d_13">
      <path d="M 642.96 348.192 
L 642.96 93.744 
" clip-path="url(#p9dcc22d894)" style="fill: none; stroke: #dfe5e8; stroke-width: 0.65; stroke-linecap: square"/>
     </g>
     <g id="line2d_14">
      <g>
       <use xlink:href="#m63082c84d9" x="642.96" y="348.192" style="stroke: #000000; stroke-width: 0.8"/>
      </g>
     </g>
     <g id="text_7">
      <text style="font: 10px 'DejaVu Sans', 'Bitstream Vera Sans', 'Computer Modern Sans Serif', 'Lucida Grande', 'Verdana', 'Geneva', 'Lucid', 'Arial', 'Helvetica', 'Avant Garde', sans-serif; text-anchor: middle" x="642.96" y="362.790438" transform="rotate(-0 642.96 362.790438)">6</text>
     </g>
    </g>
    <g id="text_8">
     <text style="font: 10px 'DejaVu Sans', 'Bitstream Vera Sans', 'Computer Modern Sans Serif', 'Lucida Grande', 'Verdana', 'Geneva', 'Lucid', 'Arial', 'Helvetica', 'Avant Garde', sans-serif; text-anchor: middle" x="358.704" y="376.468563" transform="rotate(-0 358.704 376.468563)">sUCS dE threshold</text>
    </g>
   </g>
   <g id="matplotlib.axis_2">
    <g id="ytick_1">
     <g id="line2d_15">
      <path d="M 74.448 348.192 
L 642.96 348.192 
" clip-path="url(#p9dcc22d894)" style="fill: none; stroke: #dfe5e8; stroke-width: 0.65; stroke-linecap: square"/>
     </g>
     <g id="line2d_16">
      <defs>
       <path id="m9835273f5b" d="M 0 0 
L -3.5 0 
" style="stroke: #000000; stroke-width: 0.8"/>
      </defs>
      <g>
       <use xlink:href="#m9835273f5b" x="74.448" y="348.192" style="stroke: #000000; stroke-width: 0.8"/>
      </g>
     </g>
     <g id="text_9">
      <text style="font: 10px 'DejaVu Sans', 'Bitstream Vera Sans', 'Computer Modern Sans Serif', 'Lucida Grande', 'Verdana', 'Geneva', 'Lucid', 'Arial', 'Helvetica', 'Avant Garde', sans-serif; text-anchor: end" x="67.448" y="351.991219" transform="rotate(-0 67.448 351.991219)">0</text>
     </g>
    </g>
    <g id="ytick_2">
     <g id="line2d_17">
      <path d="M 74.448 297.3024 
L 642.96 297.3024 
" clip-path="url(#p9dcc22d894)" style="fill: none; stroke: #dfe5e8; stroke-width: 0.65; stroke-linecap: square"/>
     </g>
     <g id="line2d_18">
      <g>
       <use xlink:href="#m9835273f5b" x="74.448" y="297.3024" style="stroke: #000000; stroke-width: 0.8"/>
      </g>
     </g>
     <g id="text_10">
      <text style="font: 10px 'DejaVu Sans', 'Bitstream Vera Sans', 'Computer Modern Sans Serif', 'Lucida Grande', 'Verdana', 'Geneva', 'Lucid', 'Arial', 'Helvetica', 'Avant Garde', sans-serif; text-anchor: end" x="67.448" y="301.101619" transform="rotate(-0 67.448 301.101619)">20</text>
     </g>
    </g>
    <g id="ytick_3">
     <g id="line2d_19">
      <path d="M 74.448 246.4128 
L 642.96 246.4128 
" clip-path="url(#p9dcc22d894)" style="fill: none; stroke: #dfe5e8; stroke-width: 0.65; stroke-linecap: square"/>
     </g>
     <g id="line2d_20">
      <g>
       <use xlink:href="#m9835273f5b" x="74.448" y="246.4128" style="stroke: #000000; stroke-width: 0.8"/>
      </g>
     </g>
     <g id="text_11">
      <text style="font: 10px 'DejaVu Sans', 'Bitstream Vera Sans', 'Computer Modern Sans Serif', 'Lucida Grande', 'Verdana', 'Geneva', 'Lucid', 'Arial', 'Helvetica', 'Avant Garde', sans-serif; text-anchor: end" x="67.448" y="250.212019" transform="rotate(-0 67.448 250.212019)">40</text>
     </g>
    </g>
    <g id="ytick_4">
     <g id="line2d_21">
      <path d="M 74.448 195.5232 
L 642.96 195.5232 
" clip-path="url(#p9dcc22d894)" style="fill: none; stroke: #dfe5e8; stroke-width: 0.65; stroke-linecap: square"/>
     </g>
     <g id="line2d_22">
      <g>
       <use xlink:href="#m9835273f5b" x="74.448" y="195.5232" style="stroke: #000000; stroke-width: 0.8"/>
      </g>
     </g>
     <g id="text_12">
      <text style="font: 10px 'DejaVu Sans', 'Bitstream Vera Sans', 'Computer Modern Sans Serif', 'Lucida Grande', 'Verdana', 'Geneva', 'Lucid', 'Arial', 'Helvetica', 'Avant Garde', sans-serif; text-anchor: end" x="67.448" y="199.322419" transform="rotate(-0 67.448 199.322419)">60</text>
     </g>
    </g>
    <g id="ytick_5">
     <g id="line2d_23">
      <path d="M 74.448 144.6336 
L 642.96 144.6336 
" clip-path="url(#p9dcc22d894)" style="fill: none; stroke: #dfe5e8; stroke-width: 0.65; stroke-linecap: square"/>
     </g>
     <g id="line2d_24">
      <g>
       <use xlink:href="#m9835273f5b" x="74.448" y="144.6336" style="stroke: #000000; stroke-width: 0.8"/>
      </g>
     </g>
     <g id="text_13">
      <text style="font: 10px 'DejaVu Sans', 'Bitstream Vera Sans', 'Computer Modern Sans Serif', 'Lucida Grande', 'Verdana', 'Geneva', 'Lucid', 'Arial', 'Helvetica', 'Avant Garde', sans-serif; text-anchor: end" x="67.448" y="148.432819" transform="rotate(-0 67.448 148.432819)">80</text>
     </g>
    </g>
    <g id="ytick_6">
     <g id="line2d_25">
      <path d="M 74.448 93.744 
L 642.96 93.744 
" clip-path="url(#p9dcc22d894)" style="fill: none; stroke: #dfe5e8; stroke-width: 0.65; stroke-linecap: square"/>
     </g>
     <g id="line2d_26">
      <g>
       <use xlink:href="#m9835273f5b" x="74.448" y="93.744" style="stroke: #000000; stroke-width: 0.8"/>
      </g>
     </g>
     <g id="text_14">
      <text style="font: 10px 'DejaVu Sans', 'Bitstream Vera Sans', 'Computer Modern Sans Serif', 'Lucida Grande', 'Verdana', 'Geneva', 'Lucid', 'Arial', 'Helvetica', 'Avant Garde', sans-serif; text-anchor: end" x="67.448" y="97.543219" transform="rotate(-0 67.448 97.543219)">100</text>
     </g>
    </g>
    <g id="text_15">
     <text style="font: 10px 'DejaVu Sans', 'Bitstream Vera Sans', 'Computer Modern Sans Serif', 'Lucida Grande', 'Verdana', 'Geneva', 'Lucid', 'Arial', 'Helvetica', 'Avant Garde', sans-serif; text-anchor: middle" x="42.280812" y="220.968" transform="rotate(-90 42.280812 220.968)">observers%</text>
    </g>
   </g>
   <g id="line2d_27">
    <path d="M 74.448 348.192 
L 80.13312 348.192 
L 82.02816 345.998483 
L 83.9232 345.998483 
L 85.81824 344.367406 
L 93.3984 344.367406 
L 97.18848 339.980371 
L 102.8736 339.980371 
L 104.76864 336.718218 
L 106.66368 334.5247 
L 108.55872 328.506589 
L 110.45376 326.313072 
L 112.3488 326.313072 
L 114.24384 324.681995 
L 116.13888 324.681995 
L 118.03392 319.226324 
L 119.92896 317.595247 
L 125.61408 311.014695 
L 129.40416 311.014695 
L 131.2992 307.190101 
L 133.19424 304.996584 
L 136.98432 301.73443 
L 142.66944 291.947968 
L 146.45952 287.560934 
L 148.35456 285.929857 
L 150.2496 282.667703 
L 152.14464 282.667703 
L 154.03968 278.843109 
L 157.82976 269.056647 
L 163.51488 264.163416 
L 165.40992 260.338822 
L 167.30496 260.338822 
L 169.2 258.145305 
L 171.09504 254.320711 
L 172.99008 252.689634 
L 174.88512 249.42748 
L 176.78016 247.796403 
L 178.6752 239.078578 
L 180.57024 233.060467 
L 182.46528 233.060467 
L 184.36032 229.235873 
L 186.25536 227.604796 
L 188.1504 224.342642 
L 190.04544 224.342642 
L 191.94048 222.711565 
L 193.83552 220.518048 
L 195.73056 216.693454 
L 199.52064 216.693454 
L 201.41568 214.499936 
L 203.31072 210.675342 
L 207.1008 210.675342 
L 208.99584 209.044265 
L 212.78592 201.395077 
L 214.68096 199.764 
L 218.47104 195.376966 
L 220.36608 195.376966 
L 222.26112 191.552371 
L 224.15616 188.290218 
L 226.0512 186.0967 
L 227.94624 186.0967 
L 229.84128 182.272106 
L 231.73632 182.272106 
L 233.63136 180.641029 
L 235.5264 180.641029 
L 239.31648 177.378875 
L 241.21152 177.378875 
L 243.10656 175.747798 
L 245.0016 172.485645 
L 246.89664 170.854568 
L 248.79168 168.66105 
L 250.68672 168.66105 
L 252.58176 167.029973 
L 256.37184 167.029973 
L 258.26688 165.398897 
L 260.16192 161.574302 
L 262.05696 161.574302 
L 265.84704 158.312149 
L 269.63712 158.312149 
L 271.53216 156.118631 
L 273.4272 156.118631 
L 275.32224 149.53808 
L 277.21728 149.53808 
L 279.11232 147.344562 
L 281.00736 144.082408 
L 282.9024 144.082408 
L 284.79744 141.888891 
L 286.69248 140.257814 
L 290.48256 140.257814 
L 292.3776 138.064297 
L 298.06272 138.064297 
L 299.95776 135.87078 
L 301.8528 135.87078 
L 303.74784 133.677263 
L 305.64288 133.677263 
L 307.53792 131.483745 
L 313.22304 131.483745 
L 315.11808 124.903194 
L 317.01312 124.903194 
L 318.90816 123.272117 
L 328.38336 123.272117 
L 330.2784 121.078599 
L 334.06848 121.078599 
L 335.96352 118.885082 
L 341.64864 118.885082 
L 343.54368 117.254005 
L 345.43872 117.254005 
L 347.33376 115.060488 
L 349.2288 115.060488 
L 353.01888 111.798334 
L 360.59904 111.798334 
L 362.49408 109.604817 
L 364.38912 109.604817 
L 366.28416 107.97374 
L 370.07424 107.97374 
L 371.96928 105.780223 
L 373.86432 105.780223 
L 375.75936 104.149146 
L 377.6544 104.149146 
L 379.54944 101.955629 
L 389.02464 101.955629 
L 390.91968 95.937517 
L 447.77088 95.937517 
L 449.66592 93.744 
L 642.96 93.744 
L 642.96 93.744 
" clip-path="url(#p9dcc22d894)" style="fill: none; stroke: #252525; stroke-width: 2.5; stroke-linecap: square"/>
   </g>
   <g id="line2d_28">
    <path d="M 74.448 348.192 
L 93.3984 348.192 
L 95.29344 343.804966 
L 100.97856 343.804966 
L 102.8736 341.611448 
L 104.76864 341.611448 
L 106.66368 339.417931 
L 114.24384 339.417931 
L 119.92896 332.837379 
L 121.824 332.837379 
L 123.71904 328.450345 
L 127.50912 325.188191 
L 135.08928 325.188191 
L 138.87936 320.801156 
L 140.7744 320.801156 
L 142.66944 316.414122 
L 146.45952 316.414122 
L 148.35456 314.783045 
L 150.2496 308.202493 
L 152.14464 308.202493 
L 155.93472 303.815459 
L 157.82976 303.815459 
L 159.7248 301.621942 
L 161.61984 301.621942 
L 163.51488 299.990865 
L 169.2 299.990865 
L 172.99008 295.60383 
L 174.88512 291.779236 
L 176.78016 289.585719 
L 178.6752 287.954642 
L 180.57024 279.743013 
L 184.36032 279.743013 
L 186.25536 272.093825 
L 188.1504 266.075714 
L 190.04544 262.251119 
L 191.94048 262.251119 
L 193.83552 260.620042 
L 195.73056 256.233008 
L 197.6256 256.233008 
L 199.52064 254.039491 
L 201.41568 250.214897 
L 205.20576 250.214897 
L 207.1008 242.003268 
L 214.68096 233.229199 
L 216.576 231.598122 
L 218.47104 231.598122 
L 222.26112 225.073814 
L 226.0512 225.073814 
L 227.94624 219.055703 
L 229.84128 217.424626 
L 231.73632 211.968955 
L 235.5264 211.968955 
L 237.42144 209.775438 
L 239.31648 209.775438 
L 241.21152 208.144361 
L 243.10656 208.144361 
L 245.0016 203.757326 
L 246.89664 201.563809 
L 248.79168 201.563809 
L 250.68672 193.914621 
L 254.4768 193.914621 
L 256.37184 190.652467 
L 258.26688 190.652467 
L 260.16192 189.02139 
L 262.05696 186.827873 
L 263.952 181.372202 
L 265.84704 179.178684 
L 267.74208 177.547607 
L 271.53216 177.547607 
L 273.4272 175.916531 
L 277.21728 175.916531 
L 279.11232 174.285454 
L 281.00736 169.898419 
L 288.58752 169.898419 
L 290.48256 168.267342 
L 292.3776 168.267342 
L 294.27264 163.374111 
L 296.16768 163.374111 
L 298.06272 161.743034 
L 299.95776 161.743034 
L 301.8528 160.111958 
L 305.64288 160.111958 
L 309.43296 156.849804 
L 311.328 151.956573 
L 313.22304 151.956573 
L 315.11808 146.500902 
L 317.01312 144.869825 
L 318.90816 141.607671 
L 328.38336 141.607671 
L 330.2784 139.976594 
L 332.17344 137.783077 
L 335.96352 137.783077 
L 337.85856 136.152 
L 341.64864 136.152 
L 343.54368 134.520923 
L 345.43872 134.520923 
L 347.33376 132.889846 
L 349.2288 132.889846 
L 351.12384 131.258769 
L 358.704 131.258769 
L 360.59904 127.996615 
L 362.49408 127.996615 
L 364.38912 126.365538 
L 366.28416 126.365538 
L 368.1792 124.734462 
L 370.07424 124.734462 
L 371.96928 123.103385 
L 373.86432 123.103385 
L 377.6544 119.841231 
L 379.54944 119.841231 
L 383.33952 116.579077 
L 385.23456 116.579077 
L 387.1296 114.948 
L 392.81472 114.948 
L 394.70976 113.316923 
L 396.6048 113.316923 
L 400.39488 110.054769 
L 411.76512 110.054769 
L 417.45024 105.161538 
L 443.9808 105.161538 
L 445.87584 103.530462 
L 474.30144 103.530462 
L 478.09152 100.268308 
L 485.67168 100.268308 
L 487.56672 98.637231 
L 498.93696 98.637231 
L 500.832 97.006154 
L 504.62208 97.006154 
L 506.51712 95.375077 
L 515.99232 95.375077 
L 517.88736 93.744 
L 642.96 93.744 
L 642.96 93.744 
" clip-path="url(#p9dcc22d894)" style="fill: none; stroke: #3b83b4; stroke-width: 1.35; stroke-linecap: square"/>
   </g>
   <g id="line2d_29">
    <path d="M 74.448 348.192 
L 89.60832 348.192 
L 91.50336 346.560923 
L 93.3984 346.560923 
L 95.29344 343.298769 
L 99.08352 343.298769 
L 100.97856 341.667692 
L 104.76864 341.667692 
L 106.66368 336.774462 
L 108.55872 336.774462 
L 110.45376 333.512308 
L 112.3488 328.056637 
L 114.24384 326.42556 
L 116.13888 323.163406 
L 118.03392 321.532329 
L 119.92896 319.338812 
L 125.61408 319.338812 
L 127.50912 317.707735 
L 129.40416 317.707735 
L 131.2992 310.058546 
L 133.19424 308.427469 
L 135.08928 305.165316 
L 136.98432 305.165316 
L 138.87936 303.534239 
L 140.7744 303.534239 
L 142.66944 301.903162 
L 144.56448 296.447491 
L 148.35456 293.185337 
L 150.2496 287.729666 
L 152.14464 285.536149 
L 154.03968 281.711554 
L 155.93472 280.080477 
L 157.82976 277.88696 
L 159.7248 276.255883 
L 163.51488 268.606695 
L 165.40992 268.606695 
L 167.30496 259.88887 
L 169.2 258.257793 
L 171.09504 256.064276 
L 172.99008 251.171045 
L 174.88512 251.171045 
L 176.78016 247.346451 
L 178.6752 247.346451 
L 180.57024 242.45322 
L 184.36032 239.191066 
L 186.25536 236.997549 
L 188.1504 236.997549 
L 190.04544 235.366472 
L 191.94048 233.172955 
L 193.83552 229.348361 
L 195.73056 227.717284 
L 199.52064 221.192976 
L 201.41568 219.561899 
L 203.31072 219.561899 
L 205.20576 216.299745 
L 208.99584 216.299745 
L 212.78592 213.037592 
L 214.68096 213.037592 
L 216.576 207.58192 
L 218.47104 205.950844 
L 222.26112 205.950844 
L 226.0512 202.68869 
L 231.73632 202.68869 
L 237.42144 196.108138 
L 239.31648 192.283544 
L 241.21152 190.090027 
L 245.0016 190.090027 
L 246.89664 187.896509 
L 248.79168 184.071915 
L 252.58176 184.071915 
L 254.4768 181.878398 
L 258.26688 181.878398 
L 260.16192 179.684881 
L 263.952 179.684881 
L 265.84704 175.860286 
L 267.74208 174.22921 
L 269.63712 174.22921 
L 271.53216 172.598133 
L 273.4272 170.404615 
L 275.32224 170.404615 
L 277.21728 168.211098 
L 282.9024 168.211098 
L 284.79744 164.948944 
L 286.69248 164.948944 
L 288.58752 158.930833 
L 292.3776 154.543798 
L 294.27264 154.543798 
L 296.16768 152.912721 
L 299.95776 152.912721 
L 301.8528 151.281645 
L 303.74784 151.281645 
L 305.64288 149.650568 
L 318.90816 149.650568 
L 320.8032 147.45705 
L 322.69824 145.825973 
L 326.48832 145.825973 
L 328.38336 142.001379 
L 337.85856 142.001379 
L 345.43872 133.22731 
L 347.33376 133.22731 
L 349.2288 131.033793 
L 354.91392 131.033793 
L 356.80896 128.840276 
L 358.704 128.840276 
L 360.59904 126.646759 
L 368.1792 126.646759 
L 371.96928 122.259724 
L 375.75936 122.259724 
L 377.6544 120.066207 
L 383.33952 120.066207 
L 385.23456 113.485655 
L 400.39488 113.485655 
L 404.18496 109.098621 
L 415.5552 109.098621 
L 417.45024 106.905103 
L 430.71552 106.905103 
L 432.61056 104.711586 
L 436.40064 104.711586 
L 438.29568 102.518069 
L 445.87584 102.518069 
L 447.77088 100.324552 
L 459.14112 100.324552 
L 461.03616 95.937517 
L 517.88736 95.937517 
L 519.7824 93.744 
L 642.96 93.744 
L 642.96 93.744 
" clip-path="url(#p9dcc22d894)" style="fill: none; stroke-dasharray: 4.995,2.16; stroke-dashoffset: 0; stroke: #c38a19; stroke-width: 1.35"/>
   </g>
   <g id="line2d_30">
    <path d="M 74.448 348.192 
L 89.60832 348.192 
L 91.50336 345.998483 
L 93.3984 345.998483 
L 95.29344 342.173889 
L 106.66368 342.173889 
L 108.55872 340.542812 
L 112.3488 340.542812 
L 116.13888 336.155777 
L 119.92896 336.155777 
L 121.824 332.331183 
L 125.61408 332.331183 
L 127.50912 330.700106 
L 136.98432 330.700106 
L 138.87936 326.313072 
L 140.7744 324.119554 
L 142.66944 322.488477 
L 144.56448 320.29496 
L 146.45952 320.29496 
L 148.35456 318.101443 
L 150.2496 314.839289 
L 155.93472 314.839289 
L 157.82976 309.383618 
L 159.7248 307.752541 
L 161.61984 303.365507 
L 163.51488 303.365507 
L 165.40992 301.171989 
L 169.2 297.909836 
L 171.09504 293.016605 
L 172.99008 290.823088 
L 174.88512 285.929857 
L 176.78016 278.280668 
L 178.6752 274.456074 
L 180.57024 272.262557 
L 182.46528 272.262557 
L 184.36032 266.806886 
L 186.25536 266.806886 
L 190.04544 263.544732 
L 191.94048 257.020424 
L 193.83552 257.020424 
L 195.73056 251.564753 
L 197.6256 251.564753 
L 203.31072 246.671523 
L 205.20576 243.409369 
L 207.1008 241.778292 
L 208.99584 238.516138 
L 212.78592 235.253984 
L 214.68096 235.253984 
L 216.576 230.360753 
L 218.47104 223.274005 
L 220.36608 217.818334 
L 222.26112 213.99374 
L 224.15616 211.800223 
L 226.0512 210.169146 
L 227.94624 203.082398 
L 229.84128 201.451321 
L 231.73632 199.257804 
L 233.63136 197.626727 
L 235.5264 190.539979 
L 237.42144 188.908902 
L 239.31648 188.908902 
L 241.21152 182.89079 
L 243.10656 182.89079 
L 245.0016 180.697273 
L 246.89664 179.066196 
L 248.79168 175.804042 
L 250.68672 174.172966 
L 252.58176 174.172966 
L 254.4768 169.785931 
L 256.37184 167.592414 
L 262.05696 167.592414 
L 263.952 164.33026 
L 265.84704 162.699183 
L 267.74208 162.699183 
L 269.63712 161.068106 
L 277.21728 161.068106 
L 279.11232 158.874589 
L 286.69248 158.874589 
L 288.58752 155.049995 
L 290.48256 152.856477 
L 298.06272 152.856477 
L 299.95776 151.225401 
L 301.8528 149.031883 
L 303.74784 147.400806 
L 305.64288 145.207289 
L 307.53792 140.820255 
L 318.90816 140.820255 
L 320.8032 139.189178 
L 322.69824 135.364584 
L 326.48832 135.364584 
L 328.38336 133.171066 
L 335.96352 133.171066 
L 343.54368 124.396997 
L 345.43872 124.396997 
L 347.33376 122.76592 
L 349.2288 120.572403 
L 351.12384 117.310249 
L 353.01888 115.116732 
L 360.59904 115.116732 
L 362.49408 113.485655 
L 364.38912 113.485655 
L 366.28416 111.292138 
L 375.75936 111.292138 
L 377.6544 109.098621 
L 381.44448 109.098621 
L 383.33952 106.905103 
L 385.23456 106.905103 
L 387.1296 104.711586 
L 404.18496 104.711586 
L 406.08 102.518069 
L 417.45024 102.518069 
L 423.13536 95.937517 
L 470.51136 95.937517 
L 472.4064 93.744 
L 642.96 93.744 
L 642.96 93.744 
" clip-path="url(#p9dcc22d894)" style="fill: none; stroke-dasharray: 1.35,2.2275; stroke-dashoffset: 0; stroke: #7d8a92; stroke-width: 1.35"/>
   </g>
   <g id="line2d_31">
    <path d="M 74.448 348.192 
L 129.40416 348.192 
L 131.2992 345.998483 
L 135.08928 345.998483 
L 136.98432 343.804966 
L 155.93472 343.804966 
L 157.82976 341.611448 
L 161.61984 341.611448 
L 163.51488 337.224414 
L 165.40992 337.224414 
L 167.30496 335.030897 
L 174.88512 335.030897 
L 178.6752 330.643862 
L 180.57024 326.819268 
L 190.04544 326.819268 
L 191.94048 324.625751 
L 193.83552 320.238716 
L 199.52064 320.238716 
L 201.41568 318.045199 
L 203.31072 313.658164 
L 212.78592 313.658164 
L 214.68096 309.27113 
L 218.47104 309.27113 
L 220.36608 304.884095 
L 222.26112 302.690578 
L 224.15616 301.059501 
L 226.0512 297.234907 
L 227.94624 297.234907 
L 229.84128 293.410313 
L 231.73632 289.023279 
L 233.63136 286.829761 
L 235.5264 286.829761 
L 237.42144 282.442727 
L 239.31648 275.862175 
L 243.10656 275.862175 
L 245.0016 273.668658 
L 248.79168 273.668658 
L 254.4768 267.088106 
L 256.37184 262.701072 
L 263.952 262.701072 
L 267.74208 258.314037 
L 273.4272 258.314037 
L 275.32224 256.68296 
L 277.21728 254.489443 
L 281.00736 254.489443 
L 282.9024 250.664849 
L 284.79744 246.277814 
L 286.69248 244.084297 
L 288.58752 236.997549 
L 292.3776 233.735395 
L 294.27264 231.541878 
L 296.16768 231.541878 
L 298.06272 227.717284 
L 301.8528 224.45513 
L 305.64288 220.068095 
L 307.53792 220.068095 
L 309.43296 217.874578 
L 311.328 217.874578 
L 313.22304 211.856467 
L 317.01312 211.856467 
L 318.90816 204.769719 
L 320.8032 204.769719 
L 322.69824 200.945125 
L 324.59328 199.314048 
L 326.48832 197.120531 
L 332.17344 197.120531 
L 334.06848 192.2273 
L 337.85856 192.2273 
L 339.7536 190.033782 
L 343.54368 186.771629 
L 345.43872 186.771629 
L 347.33376 185.140552 
L 349.2288 185.140552 
L 354.91392 180.247321 
L 356.80896 180.247321 
L 358.704 178.616244 
L 360.59904 178.616244 
L 364.38912 175.35409 
L 366.28416 175.35409 
L 368.1792 173.160573 
L 370.07424 171.529496 
L 375.75936 171.529496 
L 377.6544 169.898419 
L 379.54944 167.704902 
L 383.33952 167.704902 
L 385.23456 166.073825 
L 387.1296 166.073825 
L 389.02464 162.811671 
L 394.70976 162.811671 
L 396.6048 161.180594 
L 398.49984 157.91844 
L 402.28992 154.656286 
L 404.18496 154.656286 
L 406.08 151.394133 
L 409.87008 148.131979 
L 411.76512 143.238748 
L 413.66016 141.607671 
L 415.5552 139.414154 
L 425.0304 139.414154 
L 430.71552 134.520923 
L 438.29568 134.520923 
L 442.08576 131.258769 
L 449.66592 131.258769 
L 451.56096 129.627692 
L 453.456 126.365538 
L 455.35104 126.365538 
L 457.24608 124.734462 
L 461.03616 124.734462 
L 462.9312 123.103385 
L 464.82624 123.103385 
L 466.72128 121.472308 
L 470.51136 121.472308 
L 472.4064 119.841231 
L 474.30144 116.579077 
L 476.19648 116.579077 
L 478.09152 114.948 
L 483.77664 114.948 
L 485.67168 113.316923 
L 487.56672 110.054769 
L 500.832 110.054769 
L 506.51712 105.161538 
L 525.46752 105.161538 
L 527.36256 103.530462 
L 553.89312 103.530462 
L 555.78816 101.899385 
L 559.57824 101.899385 
L 561.47328 100.268308 
L 580.42368 100.268308 
L 582.31872 98.637231 
L 586.1088 98.637231 
L 588.00384 95.375077 
L 595.584 95.375077 
L 597.47904 93.744 
L 642.96 93.744 
L 642.96 93.744 
" clip-path="url(#p9dcc22d894)" style="fill: none; stroke-dasharray: 8.64,2.16,1.35,2.16; stroke-dashoffset: 0; stroke: #d0526a; stroke-width: 1.35"/>
   </g>
   <g id="line2d_32">
    <path d="M 74.448 348.192 
L 91.50336 348.192 
L 93.3984 345.998483 
L 110.45376 345.998483 
L 112.3488 343.804966 
L 114.24384 343.804966 
L 116.13888 341.611448 
L 121.824 341.611448 
L 123.71904 339.417931 
L 125.61408 339.417931 
L 127.50912 337.224414 
L 131.2992 337.224414 
L 133.19424 335.030897 
L 136.98432 335.030897 
L 138.87936 332.837379 
L 140.7744 332.837379 
L 142.66944 326.256828 
L 144.56448 326.256828 
L 146.45952 324.06331 
L 148.35456 324.06331 
L 150.2496 322.432233 
L 152.14464 322.432233 
L 154.03968 318.045199 
L 165.40992 318.045199 
L 167.30496 313.658164 
L 171.09504 313.658164 
L 172.99008 312.027088 
L 174.88512 307.640053 
L 178.6752 304.377899 
L 182.46528 304.377899 
L 184.36032 293.410313 
L 188.1504 293.410313 
L 191.94048 289.023279 
L 197.6256 289.023279 
L 199.52064 284.636244 
L 201.41568 282.442727 
L 203.31072 278.055692 
L 205.20576 278.055692 
L 207.1008 275.862175 
L 212.78592 275.862175 
L 214.68096 273.668658 
L 216.576 269.281623 
L 220.36608 269.281623 
L 222.26112 267.088106 
L 224.15616 263.263512 
L 226.0512 258.876477 
L 231.73632 258.876477 
L 233.63136 256.68296 
L 235.5264 252.295926 
L 237.42144 249.033772 
L 239.31648 247.402695 
L 241.21152 247.402695 
L 245.0016 239.753507 
L 248.79168 236.491353 
L 250.68672 236.491353 
L 252.58176 234.297836 
L 254.4768 234.297836 
L 256.37184 232.666759 
L 260.16192 232.666759 
L 262.05696 228.279724 
L 263.952 222.261613 
L 265.84704 222.261613 
L 267.74208 216.243501 
L 269.63712 211.350271 
L 271.53216 209.156753 
L 273.4272 209.156753 
L 275.32224 206.963236 
L 277.21728 205.332159 
L 279.11232 205.332159 
L 281.00736 203.701082 
L 282.9024 203.701082 
L 288.58752 198.807851 
L 290.48256 194.420817 
L 296.16768 194.420817 
L 298.06272 192.2273 
L 299.95776 190.596223 
L 301.8528 188.402706 
L 303.74784 188.402706 
L 305.64288 185.140552 
L 311.328 185.140552 
L 313.22304 180.247321 
L 317.01312 176.985167 
L 318.90816 176.985167 
L 320.8032 175.35409 
L 322.69824 175.35409 
L 324.59328 173.160573 
L 328.38336 173.160573 
L 330.2784 171.529496 
L 334.06848 171.529496 
L 335.96352 169.898419 
L 337.85856 167.704902 
L 345.43872 167.704902 
L 347.33376 166.073825 
L 349.2288 162.811671 
L 351.12384 162.811671 
L 356.80896 157.91844 
L 360.59904 157.91844 
L 362.49408 154.656286 
L 366.28416 154.656286 
L 368.1792 149.763056 
L 370.07424 148.131979 
L 373.86432 141.607671 
L 381.44448 141.607671 
L 383.33952 139.414154 
L 385.23456 139.414154 
L 387.1296 137.783077 
L 390.91968 137.783077 
L 392.81472 136.152 
L 394.70976 136.152 
L 396.6048 134.520923 
L 400.39488 134.520923 
L 402.28992 132.889846 
L 404.18496 132.889846 
L 406.08 131.258769 
L 413.66016 131.258769 
L 415.5552 127.996615 
L 417.45024 127.996615 
L 419.34528 126.365538 
L 421.24032 126.365538 
L 423.13536 124.734462 
L 426.92544 124.734462 
L 432.61056 119.841231 
L 436.40064 119.841231 
L 438.29568 118.210154 
L 440.19072 114.948 
L 447.77088 114.948 
L 449.66592 113.316923 
L 451.56096 113.316923 
L 455.35104 110.054769 
L 466.72128 110.054769 
L 472.4064 105.161538 
L 495.14688 105.161538 
L 497.04192 103.530462 
L 527.36256 103.530462 
L 529.2576 100.268308 
L 542.52288 100.268308 
L 544.41792 98.637231 
L 553.89312 98.637231 
L 555.78816 97.006154 
L 557.6832 97.006154 
L 559.57824 95.375077 
L 567.1584 95.375077 
L 569.05344 93.744 
L 642.96 93.744 
L 642.96 93.744 
" clip-path="url(#p9dcc22d894)" style="fill: none; stroke-dasharray: 6.75,2.7,1.35,2.7; stroke-dashoffset: 0; stroke: #2f8f84; stroke-width: 1.35"/>
   </g>
   <g id="patch_4">
    <path d="M 74.448 348.192 
L 74.448 93.744 
" style="fill: none; stroke: #000000; stroke-width: 0.8; stroke-linejoin: miter; stroke-linecap: square"/>
   </g>
   <g id="patch_5">
    <path d="M 74.448 348.192 
L 642.96 348.192 
" style="fill: none; stroke: #000000; stroke-width: 0.8; stroke-linejoin: miter; stroke-linecap: square"/>
   </g>
  </g>
  <g id="text_16">
   <text style="font: 18px 'DejaVu Sans', 'Bitstream Vera Sans', 'Computer Modern Sans Serif', 'Lucida Grande', 'Verdana', 'Geneva', 'Lucid', 'Arial', 'Helvetica', 'Avant Garde', sans-serif; text-anchor: start" x="74.448" y="38.229188" transform="rotate(-0 74.448 38.229188)">QDEF LCD → QD-OLED</text>
  </g>
  <g id="text_17">
   <text style="fill: #66747c; font: 10px 'DejaVu Sans', 'Bitstream Vera Sans', 'Computer Modern Sans Serif', 'Lucida Grande', 'Verdana', 'Geneva', 'Lucid', 'Arial', 'Helvetica', 'Avant Garde', sans-serif; text-anchor: start" x="74.448" y="64.728" transform="rotate(-0 74.448 64.728)">LED-V1</text>
  </g>
  <g id="legend_1">
   <g id="line2d_33">
    <path d="M 185.17875 404.151391 
L 194.27875 404.151391 
L 203.37875 404.151391 
" style="fill: none; stroke: #252525; stroke-width: 2.5; stroke-linecap: square"/>
   </g>
   <g id="text_18">
    <text style="font: 9.1px 'DejaVu Sans', 'Bitstream Vera Sans', 'Computer Modern Sans Serif', 'Lucida Grande', 'Verdana', 'Geneva', 'Lucid', 'Arial', 'Helvetica', 'Avant Garde', sans-serif; text-anchor: start" x="210.65875" y="407.336391" transform="rotate(-0 210.65875 407.336391)">Potera CMF</text>
   </g>
   <g id="line2d_34">
    <path d="M 185.17875 417.508484 
L 194.27875 417.508484 
L 203.37875 417.508484 
" style="fill: none; stroke: #3b83b4; stroke-width: 1.35; stroke-linecap: square"/>
   </g>
   <g id="text_19">
    <text style="font: 9.1px 'DejaVu Sans', 'Bitstream Vera Sans', 'Computer Modern Sans Serif', 'Lucida Grande', 'Verdana', 'Geneva', 'Lucid', 'Arial', 'Helvetica', 'Avant Garde', sans-serif; text-anchor: start" x="210.65875" y="420.693484" transform="rotate(-0 210.65875 420.693484)">CIE 2015 2°</text>
   </g>
   <g id="line2d_35">
    <path d="M 282.931234 404.151391 
L 292.031234 404.151391 
L 301.131234 404.151391 
" style="fill: none; stroke-dasharray: 4.995,2.16; stroke-dashoffset: 0; stroke: #c38a19; stroke-width: 1.35"/>
   </g>
   <g id="text_20">
    <text style="font: 9.1px 'DejaVu Sans', 'Bitstream Vera Sans', 'Computer Modern Sans Serif', 'Lucida Grande', 'Verdana', 'Geneva', 'Lucid', 'Arial', 'Helvetica', 'Avant Garde', sans-serif; text-anchor: start" x="308.411234" y="407.336391" transform="rotate(-0 308.411234 407.336391)">CIE 2015 10°</text>
   </g>
   <g id="line2d_36">
    <path d="M 282.931234 417.508484 
L 292.031234 417.508484 
L 301.131234 417.508484 
" style="fill: none; stroke-dasharray: 1.35,2.2275; stroke-dashoffset: 0; stroke: #7d8a92; stroke-width: 1.35"/>
   </g>
   <g id="text_21">
    <text style="font: 9.1px 'DejaVu Sans', 'Bitstream Vera Sans', 'Computer Modern Sans Serif', 'Lucida Grande', 'Verdana', 'Geneva', 'Lucid', 'Arial', 'Helvetica', 'Avant Garde', sans-serif; text-anchor: start" x="308.411234" y="420.693484" transform="rotate(-0 308.411234 420.693484)">CIE 1964 10°</text>
   </g>
   <g id="line2d_37">
    <path d="M 386.473594 404.151391 
L 395.573594 404.151391 
L 404.673594 404.151391 
" style="fill: none; stroke-dasharray: 8.64,2.16,1.35,2.16; stroke-dashoffset: 0; stroke: #d0526a; stroke-width: 1.35"/>
   </g>
   <g id="text_22">
    <text style="font: 9.1px 'DejaVu Sans', 'Bitstream Vera Sans', 'Computer Modern Sans Serif', 'Lucida Grande', 'Verdana', 'Geneva', 'Lucid', 'Arial', 'Helvetica', 'Avant Garde', sans-serif; text-anchor: start" x="411.953594" y="407.336391" transform="rotate(-0 411.953594 407.336391)">CIE 1931 2°</text>
   </g>
   <g id="line2d_38">
    <path d="M 386.473594 417.508484 
L 395.573594 417.508484 
L 404.673594 417.508484 
" style="fill: none; stroke-dasharray: 6.75,2.7,1.35,2.7; stroke-dashoffset: 0; stroke: #2f8f84; stroke-width: 1.35"/>
   </g>
   <g id="text_23">
    <text style="font: 9.1px 'DejaVu Sans', 'Bitstream Vera Sans', 'Computer Modern Sans Serif', 'Lucida Grande', 'Verdana', 'Geneva', 'Lucid', 'Arial', 'Helvetica', 'Avant Garde', sans-serif; text-anchor: start" x="411.953594" y="420.693484" transform="rotate(-0 411.953594 420.693484)">Judd–Vos 1978 2°</text>
   </g>
  </g>
 </g>
 <defs>
  <clipPath id="p9dcc22d894">
   <rect x="74.448" y="93.744" width="568.512" height="254.448"/>
  </clipPath>
 </defs>
</svg>
