<?xml version="1.0" encoding="utf-8" standalone="no"?>
<!DOCTYPE svg PUBLIC "-//W3C//DTD SVG 1.1//EN"
  "http://www.w3.org/Graphics/SVG/1.1/DTD/svg11.dtd">
<svg xmlns:xlink="http://www.w3.org/1999/xlink" width="676.8pt" height="446.4pt" viewBox="0 0 676.8 446.4" xmlns="http://www.w3.org/2000/svg" version="1.1">
 <metadata>
  <rdf:RDF xmlns:dc="http://purl.org/dc/elements/1.1/" xmlns:cc="http://creativecommons.org/ns#" xmlns:rdf="http://www.w3.org/1999/02/22-rdf-syntax-ns#">
   <cc:Work>
    <dc:type rdf:resource="http://purl.org/dc/dcmitype/StillImage"/>
    <dc:date>2026-07-20T06:41:59.809338</dc:date>
    <dc:format>image/svg+xml</dc:format>
    <dc:creator>
     <cc:Agent>
      <dc:title>Matplotlib v3.9.4, https://matplotlib.org/</dc:title>
     </cc:Agent>
    </dc:creator>
   </cc:Work>
  </rdf:RDF>
 </metadata>
 <defs>
  <style type="text/css">*{stroke-linejoin: round; stroke-linecap: butt}</style>
 </defs>
 <g id="figure_1">
  <g id="patch_1">
   <path d="M 0 446.4 
L 676.8 446.4 
L 676.8 0 
L 0 0 
z
" style="fill: #ffffff"/>
  </g>
  <g id="axes_1">
   <g id="patch_2">
    <path d="M 74.448 348.192 
L 642.96 348.192 
L 642.96 93.744 
L 74.448 93.744 
z
" style="fill: #ffffff"/>
   </g>
   <g id="patch_3">
    <path d="M 169.2 348.192 
L 358.704 348.192 
L 358.704 93.744 
L 169.2 93.744 
z
" clip-path="url(#p2571b34b79)" style="fill: #e7f0ea; opacity: 0.58; stroke: #e7f0ea; stroke-linejoin: miter"/>
   </g>
   <g id="matplotlib.axis_1">
    <g id="xtick_1">
     <g id="line2d_1">
      <path d="M 74.448 348.192 
L 74.448 93.744 
" clip-path="url(#p2571b34b79)" style="fill: none; stroke: #dfe5e8; stroke-width: 0.65; stroke-linecap: square"/>
     </g>
     <g id="line2d_2">
      <defs>
       <path id="m29887cc4ce" d="M 0 0 
L 0 3.5 
" style="stroke: #000000; stroke-width: 0.8"/>
      </defs>
      <g>
       <use xlink:href="#m29887cc4ce" x="74.448" y="348.192" style="stroke: #000000; stroke-width: 0.8"/>
      </g>
     </g>
     <g id="text_1">
      <text style="font: 10px 'DejaVu Sans', 'Bitstream Vera Sans', 'Computer Modern Sans Serif', 'Lucida Grande', 'Verdana', 'Geneva', 'Lucid', 'Arial', 'Helvetica', 'Avant Garde', sans-serif; text-anchor: middle" x="74.448" y="362.790438" transform="rotate(-0 74.448 362.790438)">0</text>
     </g>
    </g>
    <g id="xtick_2">
     <g id="line2d_3">
      <path d="M 169.2 348.192 
L 169.2 93.744 
" clip-path="url(#p2571b34b79)" style="fill: none; stroke: #dfe5e8; stroke-width: 0.65; stroke-linecap: square"/>
     </g>
     <g id="line2d_4">
      <g>
       <use xlink:href="#m29887cc4ce" x="169.2" y="348.192" style="stroke: #000000; stroke-width: 0.8"/>
      </g>
     </g>
     <g id="text_2">
      <text style="font: 10px 'DejaVu Sans', 'Bitstream Vera Sans', 'Computer Modern Sans Serif', 'Lucida Grande', 'Verdana', 'Geneva', 'Lucid', 'Arial', 'Helvetica', 'Avant Garde', sans-serif; text-anchor: middle" x="169.2" y="362.790438" transform="rotate(-0 169.2 362.790438)">1</text>
     </g>
    </g>
    <g id="xtick_3">
     <g id="line2d_5">
      <path d="M 263.952 348.192 
L 263.952 93.744 
" clip-path="url(#p2571b34b79)" style="fill: none; stroke: #dfe5e8; stroke-width: 0.65; stroke-linecap: square"/>
     </g>
     <g id="line2d_6">
      <g>
       <use xlink:href="#m29887cc4ce" x="263.952" y="348.192" style="stroke: #000000; stroke-width: 0.8"/>
      </g>
     </g>
     <g id="text_3">
      <text style="font: 10px 'DejaVu Sans', 'Bitstream Vera Sans', 'Computer Modern Sans Serif', 'Lucida Grande', 'Verdana', 'Geneva', 'Lucid', 'Arial', 'Helvetica', 'Avant Garde', sans-serif; text-anchor: middle" x="263.952" y="362.790438" transform="rotate(-0 263.952 362.790438)">2</text>
     </g>
    </g>
    <g id="xtick_4">
     <g id="line2d_7">
      <path d="M 358.704 348.192 
L 358.704 93.744 
" clip-path="url(#p2571b34b79)" style="fill: none; stroke: #dfe5e8; stroke-width: 0.65; stroke-linecap: square"/>
     </g>
     <g id="line2d_8">
      <g>
       <use xlink:href="#m29887cc4ce" x="358.704" y="348.192" style="stroke: #000000; stroke-width: 0.8"/>
      </g>
     </g>
     <g id="text_4">
      <text style="font: 10px 'DejaVu Sans', 'Bitstream Vera Sans', 'Computer Modern Sans Serif', 'Lucida Grande', 'Verdana', 'Geneva', 'Lucid', 'Arial', 'Helvetica', 'Avant Garde', sans-serif; text-anchor: middle" x="358.704" y="362.790438" transform="rotate(-0 358.704 362.790438)">3</text>
     </g>
    </g>
    <g id="xtick_5">
     <g id="line2d_9">
      <path d="M 453.456 348.192 
L 453.456 93.744 
" clip-path="url(#p2571b34b79)" style="fill: none; stroke: #dfe5e8; stroke-width: 0.65; stroke-linecap: square"/>
     </g>
     <g id="line2d_10">
      <g>
       <use xlink:href="#m29887cc4ce" x="453.456" y="348.192" style="stroke: #000000; stroke-width: 0.8"/>
      </g>
     </g>
     <g id="text_5">
      <text style="font: 10px 'DejaVu Sans', 'Bitstream Vera Sans', 'Computer Modern Sans Serif', 'Lucida Grande', 'Verdana', 'Geneva', 'Lucid', 'Arial', 'Helvetica', 'Avant Garde', sans-serif; text-anchor: middle" x="453.456" y="362.790438" transform="rotate(-0 453.456 362.790438)">4</text>
     </g>
    </g>
    <g id="xtick_6">
     <g id="line2d_11">
      <path d="M 548.208 348.192 
L 548.208 93.744 
" clip-path="url(#p2571b34b79)" style="fill: none; stroke: #dfe5e8; stroke-width: 0.65; stroke-linecap: square"/>
     </g>
     <g id="line2d_12">
      <g>
       <use xlink:href="#m29887cc4ce" x="548.208" y="348.192" style="stroke: #000000; stroke-width: 0.8"/>
      </g>
     </g>
     <g id="text_6">
      <text style="font: 10px 'DejaVu Sans', 'Bitstream Vera Sans', 'Computer Modern Sans Serif', 'Lucida Grande', 'Verdana', 'Geneva', 'Lucid', 'Arial', 'Helvetica', 'Avant Garde', sans-serif; text-anchor: middle" x="548.208" y="362.790438" transform="rotate(-0 548.208 362.790438)">5</text>
     </g>
    </g>
    <g id="xtick_7">
     <g id="line2d_13">
      <path d="M 642.96 348.192 
L 642.96 93.744 
" clip-path="url(#p2571b34b79)" style="fill: none; stroke: #dfe5e8; stroke-width: 0.65; stroke-linecap: square"/>
     </g>
     <g id="line2d_14">
      <g>
       <use xlink:href="#m29887cc4ce" x="642.96" y="348.192" style="stroke: #000000; stroke-width: 0.8"/>
      </g>
     </g>
     <g id="text_7">
      <text style="font: 10px 'DejaVu Sans', 'Bitstream Vera Sans', 'Computer Modern Sans Serif', 'Lucida Grande', 'Verdana', 'Geneva', 'Lucid', 'Arial', 'Helvetica', 'Avant Garde', sans-serif; text-anchor: middle" x="642.96" y="362.790438" transform="rotate(-0 642.96 362.790438)">6</text>
     </g>
    </g>
    <g id="text_8">
     <text style="font: 10px 'DejaVu Sans', 'Bitstream Vera Sans', 'Computer Modern Sans Serif', 'Lucida Grande', 'Verdana', 'Geneva', 'Lucid', 'Arial', 'Helvetica', 'Avant Garde', sans-serif; text-anchor: middle" x="358.704" y="376.468563" transform="rotate(-0 358.704 376.468563)">sUCS dE threshold</text>
    </g>
   </g>
   <g id="matplotlib.axis_2">
    <g id="ytick_1">
     <g id="line2d_15">
      <path d="M 74.448 348.192 
L 642.96 348.192 
" clip-path="url(#p2571b34b79)" style="fill: none; stroke: #dfe5e8; stroke-width: 0.65; stroke-linecap: square"/>
     </g>
     <g id="line2d_16">
      <defs>
       <path id="m74f826e26d" d="M 0 0 
L -3.5 0 
" style="stroke: #000000; stroke-width: 0.8"/>
      </defs>
      <g>
       <use xlink:href="#m74f826e26d" x="74.448" y="348.192" style="stroke: #000000; stroke-width: 0.8"/>
      </g>
     </g>
     <g id="text_9">
      <text style="font: 10px 'DejaVu Sans', 'Bitstream Vera Sans', 'Computer Modern Sans Serif', 'Lucida Grande', 'Verdana', 'Geneva', 'Lucid', 'Arial', 'Helvetica', 'Avant Garde', sans-serif; text-anchor: end" x="67.448" y="351.991219" transform="rotate(-0 67.448 351.991219)">0</text>
     </g>
    </g>
    <g id="ytick_2">
     <g id="line2d_17">
      <path d="M 74.448 297.3024 
L 642.96 297.3024 
" clip-path="url(#p2571b34b79)" style="fill: none; stroke: #dfe5e8; stroke-width: 0.65; stroke-linecap: square"/>
     </g>
     <g id="line2d_18">
      <g>
       <use xlink:href="#m74f826e26d" x="74.448" y="297.3024" style="stroke: #000000; stroke-width: 0.8"/>
      </g>
     </g>
     <g id="text_10">
      <text style="font: 10px 'DejaVu Sans', 'Bitstream Vera Sans', 'Computer Modern Sans Serif', 'Lucida Grande', 'Verdana', 'Geneva', 'Lucid', 'Arial', 'Helvetica', 'Avant Garde', sans-serif; text-anchor: end" x="67.448" y="301.101619" transform="rotate(-0 67.448 301.101619)">20</text>
     </g>
    </g>
    <g id="ytick_3">
     <g id="line2d_19">
      <path d="M 74.448 246.4128 
L 642.96 246.4128 
" clip-path="url(#p2571b34b79)" style="fill: none; stroke: #dfe5e8; stroke-width: 0.65; stroke-linecap: square"/>
     </g>
     <g id="line2d_20">
      <g>
       <use xlink:href="#m74f826e26d" x="74.448" y="246.4128" style="stroke: #000000; stroke-width: 0.8"/>
      </g>
     </g>
     <g id="text_11">
      <text style="font: 10px 'DejaVu Sans', 'Bitstream Vera Sans', 'Computer Modern Sans Serif', 'Lucida Grande', 'Verdana', 'Geneva', 'Lucid', 'Arial', 'Helvetica', 'Avant Garde', sans-serif; text-anchor: end" x="67.448" y="250.212019" transform="rotate(-0 67.448 250.212019)">40</text>
     </g>
    </g>
    <g id="ytick_4">
     <g id="line2d_21">
      <path d="M 74.448 195.5232 
L 642.96 195.5232 
" clip-path="url(#p2571b34b79)" style="fill: none; stroke: #dfe5e8; stroke-width: 0.65; stroke-linecap: square"/>
     </g>
     <g id="line2d_22">
      <g>
       <use xlink:href="#m74f826e26d" x="74.448" y="195.5232" style="stroke: #000000; stroke-width: 0.8"/>
      </g>
     </g>
     <g id="text_12">
      <text style="font: 10px 'DejaVu Sans', 'Bitstream Vera Sans', 'Computer Modern Sans Serif', 'Lucida Grande', 'Verdana', 'Geneva', 'Lucid', 'Arial', 'Helvetica', 'Avant Garde', sans-serif; text-anchor: end" x="67.448" y="199.322419" transform="rotate(-0 67.448 199.322419)">60</text>
     </g>
    </g>
    <g id="ytick_5">
     <g id="line2d_23">
      <path d="M 74.448 144.6336 
L 642.96 144.6336 
" clip-path="url(#p2571b34b79)" style="fill: none; stroke: #dfe5e8; stroke-width: 0.65; stroke-linecap: square"/>
     </g>
     <g id="line2d_24">
      <g>
       <use xlink:href="#m74f826e26d" x="74.448" y="144.6336" style="stroke: #000000; stroke-width: 0.8"/>
      </g>
     </g>
     <g id="text_13">
      <text style="font: 10px 'DejaVu Sans', 'Bitstream Vera Sans', 'Computer Modern Sans Serif', 'Lucida Grande', 'Verdana', 'Geneva', 'Lucid', 'Arial', 'Helvetica', 'Avant Garde', sans-serif; text-anchor: end" x="67.448" y="148.432819" transform="rotate(-0 67.448 148.432819)">80</text>
     </g>
    </g>
    <g id="ytick_6">
     <g id="line2d_25">
      <path d="M 74.448 93.744 
L 642.96 93.744 
" clip-path="url(#p2571b34b79)" style="fill: none; stroke: #dfe5e8; stroke-width: 0.65; stroke-linecap: square"/>
     </g>
     <g id="line2d_26">
      <g>
       <use xlink:href="#m74f826e26d" x="74.448" y="93.744" style="stroke: #000000; stroke-width: 0.8"/>
      </g>
     </g>
     <g id="text_14">
      <text style="font: 10px 'DejaVu Sans', 'Bitstream Vera Sans', 'Computer Modern Sans Serif', 'Lucida Grande', 'Verdana', 'Geneva', 'Lucid', 'Arial', 'Helvetica', 'Avant Garde', sans-serif; text-anchor: end" x="67.448" y="97.543219" transform="rotate(-0 67.448 97.543219)">100</text>
     </g>
    </g>
    <g id="text_15">
     <text style="font: 10px 'DejaVu Sans', 'Bitstream Vera Sans', 'Computer Modern Sans Serif', 'Lucida Grande', 'Verdana', 'Geneva', 'Lucid', 'Arial', 'Helvetica', 'Avant Garde', sans-serif; text-anchor: middle" x="42.280812" y="220.968" transform="rotate(-90 42.280812 220.968)">observers%</text>
    </g>
   </g>
   <g id="line2d_27">
    <path d="M 74.448 348.192 
L 83.9232 348.192 
L 85.81824 346.560923 
L 95.29344 346.560923 
L 97.18848 344.367406 
L 99.08352 344.367406 
L 100.97856 342.736329 
L 102.8736 338.349294 
L 104.76864 338.349294 
L 106.66368 334.5247 
L 110.45376 334.5247 
L 112.3488 332.893623 
L 114.24384 332.893623 
L 116.13888 331.262546 
L 118.03392 329.069029 
L 119.92896 329.069029 
L 121.824 327.437952 
L 123.71904 325.244435 
L 125.61408 325.244435 
L 127.50912 323.613358 
L 129.40416 321.419841 
L 131.2992 317.595247 
L 133.19424 314.333093 
L 140.7744 314.333093 
L 142.66944 310.508499 
L 146.45952 303.984191 
L 148.35456 303.984191 
L 150.2496 300.159597 
L 152.14464 296.897443 
L 154.03968 294.703926 
L 155.93472 294.703926 
L 157.82976 290.879332 
L 159.7248 289.248255 
L 161.61984 287.054737 
L 163.51488 285.42366 
L 165.40992 279.967989 
L 167.30496 276.143395 
L 169.2 272.881241 
L 171.09504 266.86313 
L 172.99008 266.86313 
L 174.88512 263.600976 
L 176.78016 261.969899 
L 178.6752 261.969899 
L 180.57024 260.338822 
L 182.46528 260.338822 
L 184.36032 253.814515 
L 186.25536 250.552361 
L 188.1504 248.921284 
L 190.04544 243.465613 
L 193.83552 235.816424 
L 195.73056 233.622907 
L 197.6256 233.622907 
L 199.52064 231.99183 
L 201.41568 227.098599 
L 205.20576 227.098599 
L 207.1008 225.467523 
L 208.99584 223.274005 
L 210.89088 219.449411 
L 212.78592 217.255894 
L 214.68096 215.624817 
L 216.576 215.624817 
L 218.47104 211.237782 
L 222.26112 211.237782 
L 224.15616 207.975629 
L 226.0512 206.344552 
L 227.94624 206.344552 
L 229.84128 202.519958 
L 231.73632 200.32644 
L 233.63136 198.695363 
L 237.42144 198.695363 
L 239.31648 197.064286 
L 241.21152 193.239692 
L 243.10656 191.608615 
L 246.89664 191.608615 
L 248.79168 188.346462 
L 252.58176 188.346462 
L 254.4768 186.715385 
L 256.37184 183.453231 
L 262.05696 183.453231 
L 263.952 181.822154 
L 265.84704 181.822154 
L 267.74208 177.435119 
L 269.63712 177.435119 
L 271.53216 175.241602 
L 273.4272 175.241602 
L 275.32224 173.610525 
L 279.11232 169.223491 
L 281.00736 169.223491 
L 282.9024 167.029973 
L 284.79744 167.029973 
L 286.69248 161.011862 
L 288.58752 157.749708 
L 292.3776 157.749708 
L 294.27264 155.556191 
L 296.16768 149.53808 
L 298.06272 147.344562 
L 299.95776 142.957528 
L 301.8528 142.957528 
L 303.74784 141.326451 
L 309.43296 141.326451 
L 313.22304 136.939416 
L 320.8032 136.939416 
L 322.69824 133.677263 
L 324.59328 132.046186 
L 328.38336 132.046186 
L 332.17344 127.659151 
L 339.7536 127.659151 
L 341.64864 125.465634 
L 343.54368 125.465634 
L 345.43872 121.64104 
L 347.33376 121.64104 
L 349.2288 120.009963 
L 353.01888 115.622928 
L 354.91392 113.991851 
L 364.38912 113.991851 
L 366.28416 111.798334 
L 371.96928 111.798334 
L 373.86432 107.97374 
L 385.23456 107.97374 
L 387.1296 104.149146 
L 394.70976 104.149146 
L 396.6048 100.324552 
L 407.97504 100.324552 
L 409.87008 98.131034 
L 443.9808 98.131034 
L 445.87584 95.937517 
L 489.46176 95.937517 
L 491.3568 93.744 
L 642.96 93.744 
L 642.96 93.744 
" clip-path="url(#p2571b34b79)" style="fill: none; stroke: #252525; stroke-width: 2.5; stroke-linecap: square"/>
   </g>
   <g id="line2d_28">
    <path d="M 74.448 348.192 
L 100.97856 348.192 
L 104.76864 343.804966 
L 114.24384 343.804966 
L 116.13888 341.611448 
L 118.03392 341.611448 
L 119.92896 339.417931 
L 121.824 339.417931 
L 123.71904 337.224414 
L 127.50912 337.224414 
L 129.40416 335.030897 
L 131.2992 335.030897 
L 133.19424 330.643862 
L 135.08928 328.450345 
L 136.98432 328.450345 
L 138.87936 324.06331 
L 140.7744 324.06331 
L 142.66944 321.869793 
L 148.35456 321.869793 
L 150.2496 320.238716 
L 152.14464 320.238716 
L 154.03968 315.851682 
L 157.82976 315.851682 
L 159.7248 311.464647 
L 163.51488 311.464647 
L 165.40992 309.83357 
L 169.2 305.446536 
L 172.99008 305.446536 
L 174.88512 301.059501 
L 176.78016 298.865984 
L 180.57024 298.865984 
L 182.46528 296.672467 
L 184.36032 292.285432 
L 186.25536 289.023279 
L 190.04544 284.636244 
L 195.73056 284.636244 
L 197.6256 278.055692 
L 199.52064 276.424615 
L 201.41568 276.424615 
L 205.20576 272.037581 
L 207.1008 272.037581 
L 208.99584 263.263512 
L 210.89088 263.263512 
L 214.68096 258.876477 
L 216.576 254.489443 
L 218.47104 252.295926 
L 220.36608 250.664849 
L 226.0512 250.664849 
L 229.84128 246.277814 
L 231.73632 246.277814 
L 233.63136 242.45322 
L 235.5264 240.822143 
L 237.42144 237.559989 
L 239.31648 235.366472 
L 241.21152 235.366472 
L 245.0016 227.717284 
L 246.89664 227.717284 
L 248.79168 225.523767 
L 250.68672 223.89269 
L 252.58176 223.89269 
L 254.4768 222.261613 
L 260.16192 222.261613 
L 262.05696 220.068095 
L 263.952 216.243501 
L 265.84704 214.049984 
L 267.74208 214.049984 
L 269.63712 209.66295 
L 275.32224 209.66295 
L 277.21728 206.400796 
L 279.11232 206.400796 
L 281.00736 204.207279 
L 282.9024 204.207279 
L 284.79744 202.013761 
L 288.58752 202.013761 
L 290.48256 200.382684 
L 292.3776 198.189167 
L 299.95776 198.189167 
L 301.8528 196.55809 
L 309.43296 196.55809 
L 311.328 194.927013 
L 313.22304 191.102419 
L 317.01312 187.840265 
L 320.8032 187.840265 
L 322.69824 184.578111 
L 326.48832 184.578111 
L 328.38336 182.947034 
L 330.2784 178.053804 
L 332.17344 174.79165 
L 334.06848 174.79165 
L 335.96352 171.529496 
L 337.85856 169.898419 
L 345.43872 169.898419 
L 347.33376 167.704902 
L 353.01888 162.811671 
L 358.704 162.811671 
L 360.59904 159.549517 
L 362.49408 159.549517 
L 364.38912 157.91844 
L 368.1792 151.394133 
L 373.86432 146.500902 
L 377.6544 146.500902 
L 379.54944 144.869825 
L 381.44448 141.607671 
L 387.1296 141.607671 
L 389.02464 139.976594 
L 400.39488 139.976594 
L 402.28992 136.71444 
L 404.18496 136.71444 
L 406.08 133.452286 
L 407.97504 133.452286 
L 409.87008 131.82121 
L 411.76512 129.627692 
L 419.34528 129.627692 
L 421.24032 126.365538 
L 423.13536 124.734462 
L 426.92544 124.734462 
L 428.82048 123.103385 
L 430.71552 123.103385 
L 434.5056 119.841231 
L 436.40064 119.841231 
L 438.29568 118.210154 
L 451.56096 118.210154 
L 453.456 116.579077 
L 461.03616 116.579077 
L 462.9312 113.316923 
L 466.72128 113.316923 
L 468.61632 110.054769 
L 474.30144 110.054769 
L 476.19648 108.423692 
L 479.98656 108.423692 
L 481.8816 105.161538 
L 502.72704 105.161538 
L 504.62208 103.530462 
L 514.09728 103.530462 
L 515.99232 101.899385 
L 517.88736 101.899385 
L 519.7824 100.268308 
L 521.67744 100.268308 
L 523.57248 98.637231 
L 548.208 98.637231 
L 550.10304 97.006154 
L 555.78816 97.006154 
L 557.6832 95.375077 
L 574.73856 95.375077 
L 576.6336 93.744 
L 642.96 93.744 
L 642.96 93.744 
" clip-path="url(#p2571b34b79)" style="fill: none; stroke: #3b83b4; stroke-width: 1.35; stroke-linecap: square"/>
   </g>
   <g id="line2d_29">
    <path d="M 74.448 348.192 
L 89.60832 348.192 
L 91.50336 346.560923 
L 93.3984 346.560923 
L 95.29344 344.929846 
L 106.66368 344.929846 
L 108.55872 343.298769 
L 110.45376 336.774462 
L 112.3488 335.143385 
L 116.13888 335.143385 
L 118.03392 328.619077 
L 119.92896 326.988 
L 121.824 326.988 
L 123.71904 324.794483 
L 125.61408 321.532329 
L 127.50912 321.532329 
L 131.2992 318.270175 
L 133.19424 316.076658 
L 135.08928 312.814504 
L 136.98432 312.814504 
L 138.87936 309.55235 
L 140.7744 307.921273 
L 146.45952 307.921273 
L 148.35456 304.659119 
L 150.2496 304.659119 
L 152.14464 301.396966 
L 154.03968 301.396966 
L 155.93472 299.765889 
L 157.82976 296.503735 
L 159.7248 294.310218 
L 161.61984 294.310218 
L 163.51488 286.098589 
L 165.40992 282.273995 
L 167.30496 279.011841 
L 169.2 279.011841 
L 171.09504 273.55617 
L 172.99008 271.925093 
L 174.88512 265.906981 
L 176.78016 262.644828 
L 178.6752 261.013751 
L 180.57024 261.013751 
L 186.25536 251.227289 
L 188.1504 249.033772 
L 190.04544 245.771618 
L 191.94048 244.140541 
L 193.83552 239.24731 
L 195.73056 239.24731 
L 199.52064 235.985156 
L 201.41568 233.791639 
L 203.31072 232.160562 
L 205.20576 232.160562 
L 207.1008 228.335968 
L 208.99584 228.335968 
L 210.89088 226.142451 
L 212.78592 221.24922 
L 214.68096 219.055703 
L 218.47104 219.055703 
L 220.36608 215.793549 
L 222.26112 215.793549 
L 224.15616 214.162472 
L 226.0512 211.968955 
L 227.94624 211.968955 
L 229.84128 208.706801 
L 233.63136 208.706801 
L 235.5264 204.319767 
L 239.31648 204.319767 
L 241.21152 199.932732 
L 246.89664 199.932732 
L 248.79168 196.670578 
L 250.68672 196.670578 
L 252.58176 195.039501 
L 254.4768 195.039501 
L 256.37184 191.777347 
L 258.26688 190.146271 
L 260.16192 190.146271 
L 262.05696 187.952753 
L 263.952 187.952753 
L 265.84704 185.759236 
L 269.63712 185.759236 
L 271.53216 183.565719 
L 275.32224 180.303565 
L 277.21728 180.303565 
L 279.11232 178.110048 
L 281.00736 178.110048 
L 282.9024 176.478971 
L 284.79744 176.478971 
L 286.69248 174.285454 
L 288.58752 170.460859 
L 290.48256 170.460859 
L 292.3776 168.267342 
L 298.06272 168.267342 
L 299.95776 166.636265 
L 303.74784 166.636265 
L 305.64288 162.811671 
L 309.43296 162.811671 
L 311.328 160.618154 
L 313.22304 158.987077 
L 328.38336 158.987077 
L 330.2784 155.162483 
L 335.96352 155.162483 
L 337.85856 152.968966 
L 339.7536 152.968966 
L 341.64864 150.775448 
L 345.43872 150.775448 
L 349.2288 146.388414 
L 351.12384 146.388414 
L 353.01888 144.194897 
L 354.91392 144.194897 
L 356.80896 139.807862 
L 358.704 139.807862 
L 362.49408 135.420828 
L 364.38912 135.420828 
L 366.28416 133.22731 
L 370.07424 133.22731 
L 371.96928 126.646759 
L 373.86432 126.646759 
L 375.75936 124.453241 
L 381.44448 124.453241 
L 383.33952 122.259724 
L 394.70976 122.259724 
L 396.6048 120.066207 
L 406.08 120.066207 
L 407.97504 117.87269 
L 413.66016 117.87269 
L 415.5552 115.679172 
L 419.34528 115.679172 
L 421.24032 111.292138 
L 426.92544 111.292138 
L 428.82048 109.098621 
L 434.5056 109.098621 
L 436.40064 106.905103 
L 443.9808 106.905103 
L 445.87584 104.711586 
L 457.24608 104.711586 
L 459.14112 102.518069 
L 470.51136 102.518069 
L 472.4064 100.324552 
L 481.8816 100.324552 
L 483.77664 98.131034 
L 515.99232 98.131034 
L 517.88736 95.937517 
L 561.47328 95.937517 
L 563.36832 93.744 
L 642.96 93.744 
L 642.96 93.744 
" clip-path="url(#p2571b34b79)" style="fill: none; stroke-dasharray: 4.995,2.16; stroke-dashoffset: 0; stroke: #c38a19; stroke-width: 1.35"/>
   </g>
   <g id="line2d_30">
    <path d="M 74.448 348.192 
L 93.3984 348.192 
L 95.29344 345.998483 
L 112.3488 345.998483 
L 114.24384 342.173889 
L 116.13888 340.542812 
L 119.92896 340.542812 
L 121.824 338.911735 
L 131.2992 338.911735 
L 133.19424 337.280658 
L 135.08928 337.280658 
L 138.87936 332.893623 
L 140.7744 332.893623 
L 142.66944 330.700106 
L 146.45952 330.700106 
L 148.35456 328.506589 
L 150.2496 328.506589 
L 152.14464 324.681995 
L 154.03968 322.488477 
L 155.93472 322.488477 
L 157.82976 318.663883 
L 159.7248 318.663883 
L 161.61984 314.839289 
L 163.51488 312.645772 
L 165.40992 309.383618 
L 169.2 309.383618 
L 171.09504 306.121464 
L 172.99008 306.121464 
L 176.78016 302.85931 
L 178.6752 300.665793 
L 180.57024 300.665793 
L 182.46528 298.472276 
L 184.36032 298.472276 
L 188.1504 295.210122 
L 191.94048 288.685814 
L 193.83552 287.054737 
L 195.73056 284.86122 
L 197.6256 279.967989 
L 199.52064 278.336912 
L 201.41568 278.336912 
L 203.31072 271.812605 
L 205.20576 269.619088 
L 207.1008 264.163416 
L 208.99584 260.901263 
L 210.89088 258.707745 
L 212.78592 258.707745 
L 218.47104 253.814515 
L 220.36608 253.814515 
L 222.26112 249.98992 
L 224.15616 248.358844 
L 226.0512 241.272095 
L 227.94624 241.272095 
L 229.84128 231.99183 
L 231.73632 227.098599 
L 233.63136 225.467523 
L 237.42144 225.467523 
L 239.31648 221.642928 
L 241.21152 220.011851 
L 243.10656 220.011851 
L 245.0016 213.99374 
L 246.89664 210.169146 
L 248.79168 208.538069 
L 250.68672 205.275915 
L 252.58176 203.644838 
L 254.4768 201.451321 
L 256.37184 201.451321 
L 258.26688 195.99565 
L 260.16192 194.364573 
L 262.05696 194.364573 
L 265.84704 191.102419 
L 267.74208 191.102419 
L 269.63712 186.715385 
L 275.32224 186.715385 
L 277.21728 184.521867 
L 279.11232 179.066196 
L 284.79744 174.172966 
L 286.69248 174.172966 
L 290.48256 170.910812 
L 292.3776 164.8927 
L 296.16768 164.8927 
L 298.06272 158.874589 
L 301.8528 158.874589 
L 303.74784 155.612435 
L 305.64288 153.418918 
L 309.43296 153.418918 
L 311.328 151.225401 
L 313.22304 146.838366 
L 317.01312 146.838366 
L 318.90816 142.451332 
L 326.48832 142.451332 
L 330.2784 134.802143 
L 332.17344 132.608626 
L 334.06848 130.977549 
L 337.85856 130.977549 
L 339.7536 128.784032 
L 345.43872 128.784032 
L 347.33376 127.152955 
L 354.91392 127.152955 
L 356.80896 124.959438 
L 358.704 124.959438 
L 360.59904 120.572403 
L 364.38912 120.572403 
L 366.28416 118.941326 
L 368.1792 116.747809 
L 370.07424 116.747809 
L 371.96928 112.923215 
L 377.6544 112.923215 
L 379.54944 110.729698 
L 385.23456 110.729698 
L 389.02464 106.342663 
L 402.28992 106.342663 
L 404.18496 104.149146 
L 406.08 104.149146 
L 407.97504 102.518069 
L 417.45024 102.518069 
L 419.34528 100.324552 
L 430.71552 100.324552 
L 432.61056 98.131034 
L 459.14112 98.131034 
L 461.03616 95.937517 
L 498.93696 95.937517 
L 500.832 93.744 
L 642.96 93.744 
L 642.96 93.744 
" clip-path="url(#p2571b34b79)" style="fill: none; stroke-dasharray: 1.35,2.2275; stroke-dashoffset: 0; stroke: #7d8a92; stroke-width: 1.35"/>
   </g>
   <g id="line2d_31">
    <path d="M 74.448 348.192 
L 146.45952 348.192 
L 148.35456 345.998483 
L 165.40992 345.998483 
L 167.30496 341.611448 
L 182.46528 341.611448 
L 184.36032 339.417931 
L 190.04544 339.417931 
L 191.94048 337.224414 
L 201.41568 337.224414 
L 203.31072 335.030897 
L 205.20576 335.030897 
L 207.1008 328.450345 
L 208.99584 326.819268 
L 210.89088 326.819268 
L 212.78592 322.432233 
L 214.68096 320.238716 
L 220.36608 320.238716 
L 224.15616 315.851682 
L 226.0512 315.851682 
L 227.94624 313.658164 
L 229.84128 313.658164 
L 231.73632 311.464647 
L 239.31648 311.464647 
L 241.21152 307.077613 
L 246.89664 307.077613 
L 254.4768 298.303544 
L 256.37184 298.303544 
L 260.16192 293.916509 
L 271.53216 293.916509 
L 273.4272 291.722992 
L 275.32224 285.14244 
L 281.00736 285.14244 
L 284.79744 280.755406 
L 290.48256 280.755406 
L 292.3776 276.368371 
L 294.27264 274.737294 
L 298.06272 274.737294 
L 299.95776 270.35026 
L 303.74784 265.963225 
L 313.22304 265.963225 
L 315.11808 264.332149 
L 317.01312 259.945114 
L 318.90816 256.12052 
L 324.59328 256.12052 
L 326.48832 252.295926 
L 328.38336 250.102408 
L 330.2784 250.102408 
L 332.17344 246.277814 
L 334.06848 246.277814 
L 335.96352 244.646737 
L 337.85856 244.646737 
L 339.7536 242.45322 
L 341.64864 242.45322 
L 343.54368 240.259703 
L 345.43872 240.259703 
L 347.33376 236.435109 
L 353.01888 236.435109 
L 360.59904 227.66104 
L 364.38912 224.398886 
L 371.96928 224.398886 
L 373.86432 222.767809 
L 375.75936 222.767809 
L 377.6544 221.136732 
L 381.44448 221.136732 
L 383.33952 217.312138 
L 385.23456 215.118621 
L 387.1296 215.118621 
L 389.02464 211.856467 
L 392.81472 211.856467 
L 394.70976 208.031873 
L 396.6048 205.838355 
L 398.49984 205.838355 
L 400.39488 203.644838 
L 409.87008 203.644838 
L 413.66016 200.382684 
L 415.5552 198.189167 
L 417.45024 198.189167 
L 419.34528 196.55809 
L 425.0304 196.55809 
L 426.92544 194.364573 
L 430.71552 194.364573 
L 434.5056 191.102419 
L 438.29568 191.102419 
L 440.19072 184.578111 
L 445.87584 184.578111 
L 447.77088 180.753517 
L 449.66592 180.753517 
L 453.456 177.491363 
L 455.35104 177.491363 
L 461.03616 172.598133 
L 462.9312 172.598133 
L 464.82624 169.335979 
L 466.72128 167.704902 
L 468.61632 167.704902 
L 470.51136 164.442748 
L 476.19648 159.549517 
L 478.09152 156.287363 
L 479.98656 154.656286 
L 481.8816 151.394133 
L 483.77664 151.394133 
L 485.67168 149.763056 
L 487.56672 146.500902 
L 491.3568 146.500902 
L 493.25184 144.869825 
L 497.04192 144.869825 
L 498.93696 143.238748 
L 500.832 143.238748 
L 502.72704 141.607671 
L 508.41216 141.607671 
L 510.3072 139.976594 
L 512.20224 139.976594 
L 514.09728 136.71444 
L 515.99232 135.083363 
L 525.46752 135.083363 
L 527.36256 133.452286 
L 529.2576 133.452286 
L 531.15264 131.258769 
L 533.04768 129.627692 
L 534.94272 126.365538 
L 536.83776 126.365538 
L 538.7328 124.734462 
L 542.52288 124.734462 
L 544.41792 121.472308 
L 546.31296 119.841231 
L 548.208 119.841231 
L 550.10304 118.210154 
L 561.47328 118.210154 
L 567.1584 113.316923 
L 569.05344 113.316923 
L 570.94848 111.685846 
L 572.84352 108.423692 
L 584.21376 108.423692 
L 586.1088 106.792615 
L 589.89888 106.792615 
L 591.79392 105.161538 
L 606.95424 105.161538 
L 608.84928 103.530462 
L 614.5344 103.530462 
L 616.42944 101.899385 
L 618.32448 101.899385 
L 620.21952 100.268308 
L 631.58976 100.268308 
L 633.4848 98.637231 
L 642.96 98.637231 
L 642.96 98.637231 
" clip-path="url(#p2571b34b79)" style="fill: none; stroke-dasharray: 8.64,2.16,1.35,2.16; stroke-dashoffset: 0; stroke: #d0526a; stroke-width: 1.35"/>
   </g>
   <g id="line2d_32">
    <path d="M 74.448 348.192 
L 91.50336 348.192 
L 93.3984 345.998483 
L 118.03392 345.998483 
L 119.92896 343.804966 
L 129.40416 343.804966 
L 133.19424 339.417931 
L 144.56448 339.417931 
L 146.45952 337.224414 
L 154.03968 337.224414 
L 159.7248 330.643862 
L 163.51488 330.643862 
L 165.40992 326.256828 
L 167.30496 326.256828 
L 169.2 324.06331 
L 171.09504 324.06331 
L 172.99008 321.869793 
L 176.78016 321.869793 
L 178.6752 319.676276 
L 180.57024 319.676276 
L 182.46528 315.851682 
L 195.73056 315.851682 
L 197.6256 313.658164 
L 203.31072 313.658164 
L 205.20576 307.077613 
L 207.1008 302.690578 
L 212.78592 302.690578 
L 216.576 298.303544 
L 218.47104 298.303544 
L 220.36608 296.110027 
L 222.26112 296.110027 
L 224.15616 291.722992 
L 226.0512 289.529475 
L 227.94624 289.529475 
L 233.63136 282.948923 
L 235.5264 282.948923 
L 237.42144 280.755406 
L 245.0016 280.755406 
L 246.89664 278.561889 
L 248.79168 274.174854 
L 250.68672 272.543777 
L 252.58176 270.35026 
L 263.952 270.35026 
L 265.84704 265.963225 
L 269.63712 262.701072 
L 273.4272 258.314037 
L 275.32224 258.314037 
L 277.21728 256.12052 
L 281.00736 256.12052 
L 282.9024 253.927003 
L 286.69248 253.927003 
L 288.58752 250.102408 
L 290.48256 250.102408 
L 292.3776 245.715374 
L 296.16768 245.715374 
L 298.06272 243.521857 
L 299.95776 241.89078 
L 303.74784 241.89078 
L 305.64288 238.066186 
L 307.53792 236.435109 
L 313.22304 236.435109 
L 315.11808 234.241592 
L 317.01312 234.241592 
L 318.90816 232.048074 
L 322.69824 224.398886 
L 324.59328 224.398886 
L 326.48832 222.767809 
L 332.17344 222.767809 
L 334.06848 218.943215 
L 335.96352 218.943215 
L 337.85856 217.312138 
L 341.64864 217.312138 
L 343.54368 215.118621 
L 345.43872 213.487544 
L 347.33376 213.487544 
L 349.2288 209.66295 
L 351.12384 209.66295 
L 353.01888 207.469432 
L 354.91392 205.838355 
L 360.59904 205.838355 
L 362.49408 203.644838 
L 364.38912 203.644838 
L 366.28416 202.013761 
L 370.07424 202.013761 
L 371.96928 199.820244 
L 373.86432 198.189167 
L 379.54944 198.189167 
L 381.44448 195.99565 
L 387.1296 195.99565 
L 389.02464 192.733496 
L 394.70976 192.733496 
L 400.39488 187.840265 
L 402.28992 187.840265 
L 404.18496 186.209188 
L 407.97504 186.209188 
L 409.87008 182.947034 
L 411.76512 181.315958 
L 413.66016 181.315958 
L 415.5552 178.053804 
L 417.45024 173.160573 
L 419.34528 170.967056 
L 421.24032 170.967056 
L 423.13536 169.335979 
L 425.0304 169.335979 
L 426.92544 167.704902 
L 428.82048 167.704902 
L 430.71552 166.073825 
L 432.61056 166.073825 
L 438.29568 161.180594 
L 440.19072 161.180594 
L 443.9808 157.91844 
L 445.87584 153.02521 
L 447.77088 151.394133 
L 449.66592 148.131979 
L 451.56096 146.500902 
L 457.24608 146.500902 
L 459.14112 144.869825 
L 461.03616 144.869825 
L 464.82624 141.607671 
L 472.4064 141.607671 
L 474.30144 139.976594 
L 478.09152 139.976594 
L 483.77664 135.083363 
L 485.67168 135.083363 
L 487.56672 133.452286 
L 493.25184 133.452286 
L 495.14688 131.258769 
L 497.04192 129.627692 
L 498.93696 129.627692 
L 500.832 126.365538 
L 502.72704 126.365538 
L 504.62208 124.734462 
L 508.41216 124.734462 
L 510.3072 123.103385 
L 512.20224 119.841231 
L 514.09728 119.841231 
L 515.99232 118.210154 
L 531.15264 118.210154 
L 533.04768 116.579077 
L 536.83776 116.579077 
L 538.7328 113.316923 
L 542.52288 110.054769 
L 546.31296 110.054769 
L 550.10304 106.792615 
L 557.6832 106.792615 
L 559.57824 105.161538 
L 582.31872 105.161538 
L 584.21376 101.899385 
L 588.00384 101.899385 
L 589.89888 100.268308 
L 599.37408 100.268308 
L 601.26912 98.637231 
L 622.11456 98.637231 
L 624.0096 97.006154 
L 629.69472 97.006154 
L 631.58976 95.375077 
L 642.96 95.375077 
L 642.96 95.375077 
" clip-path="url(#p2571b34b79)" style="fill: none; stroke-dasharray: 6.75,2.7,1.35,2.7; stroke-dashoffset: 0; stroke: #2f8f84; stroke-width: 1.35"/>
   </g>
   <g id="patch_4">
    <path d="M 74.448 348.192 
L 74.448 93.744 
" style="fill: none; stroke: #000000; stroke-width: 0.8; stroke-linejoin: miter; stroke-linecap: square"/>
   </g>
   <g id="patch_5">
    <path d="M 74.448 348.192 
L 642.96 348.192 
" style="fill: none; stroke: #000000; stroke-width: 0.8; stroke-linejoin: miter; stroke-linecap: square"/>
   </g>
  </g>
  <g id="text_16">
   <text style="font: 18px 'DejaVu Sans', 'Bitstream Vera Sans', 'Computer Modern Sans Serif', 'Lucida Grande', 'Verdana', 'Geneva', 'Lucid', 'Arial', 'Helvetica', 'Avant Garde', sans-serif; text-anchor: start" x="74.448" y="38.229188" transform="rotate(-0 74.448 38.229188)">QDEF LCD → QD-OLED</text>
  </g>
  <g id="text_17">
   <text style="fill: #66747c; font: 10px 'DejaVu Sans', 'Bitstream Vera Sans', 'Computer Modern Sans Serif', 'Lucida Grande', 'Verdana', 'Geneva', 'Lucid', 'Arial', 'Helvetica', 'Avant Garde', sans-serif; text-anchor: start" x="74.448" y="64.728" transform="rotate(-0 74.448 64.728)">LED-V2</text>
  </g>
  <g id="legend_1">
   <g id="line2d_33">
    <path d="M 185.17875 404.151391 
L 194.27875 404.151391 
L 203.37875 404.151391 
" style="fill: none; stroke: #252525; stroke-width: 2.5; stroke-linecap: square"/>
   </g>
   <g id="text_18">
    <text style="font: 9.1px 'DejaVu Sans', 'Bitstream Vera Sans', 'Computer Modern Sans Serif', 'Lucida Grande', 'Verdana', 'Geneva', 'Lucid', 'Arial', 'Helvetica', 'Avant Garde', sans-serif; text-anchor: start" x="210.65875" y="407.336391" transform="rotate(-0 210.65875 407.336391)">Potera CMF</text>
   </g>
   <g id="line2d_34">
    <path d="M 185.17875 417.508484 
L 194.27875 417.508484 
L 203.37875 417.508484 
" style="fill: none; stroke: #3b83b4; stroke-width: 1.35; stroke-linecap: square"/>
   </g>
   <g id="text_19">
    <text style="font: 9.1px 'DejaVu Sans', 'Bitstream Vera Sans', 'Computer Modern Sans Serif', 'Lucida Grande', 'Verdana', 'Geneva', 'Lucid', 'Arial', 'Helvetica', 'Avant Garde', sans-serif; text-anchor: start" x="210.65875" y="420.693484" transform="rotate(-0 210.65875 420.693484)">CIE 2015 2°</text>
   </g>
   <g id="line2d_35">
    <path d="M 282.931234 404.151391 
L 292.031234 404.151391 
L 301.131234 404.151391 
" style="fill: none; stroke-dasharray: 4.995,2.16; stroke-dashoffset: 0; stroke: #c38a19; stroke-width: 1.35"/>
   </g>
   <g id="text_20">
    <text style="font: 9.1px 'DejaVu Sans', 'Bitstream Vera Sans', 'Computer Modern Sans Serif', 'Lucida Grande', 'Verdana', 'Geneva', 'Lucid', 'Arial', 'Helvetica', 'Avant Garde', sans-serif; text-anchor: start" x="308.411234" y="407.336391" transform="rotate(-0 308.411234 407.336391)">CIE 2015 10°</text>
   </g>
   <g id="line2d_36">
    <path d="M 282.931234 417.508484 
L 292.031234 417.508484 
L 301.131234 417.508484 
" style="fill: none; stroke-dasharray: 1.35,2.2275; stroke-dashoffset: 0; stroke: #7d8a92; stroke-width: 1.35"/>
   </g>
   <g id="text_21">
    <text style="font: 9.1px 'DejaVu Sans', 'Bitstream Vera Sans', 'Computer Modern Sans Serif', 'Lucida Grande', 'Verdana', 'Geneva', 'Lucid', 'Arial', 'Helvetica', 'Avant Garde', sans-serif; text-anchor: start" x="308.411234" y="420.693484" transform="rotate(-0 308.411234 420.693484)">CIE 1964 10°</text>
   </g>
   <g id="line2d_37">
    <path d="M 386.473594 404.151391 
L 395.573594 404.151391 
L 404.673594 404.151391 
" style="fill: none; stroke-dasharray: 8.64,2.16,1.35,2.16; stroke-dashoffset: 0; stroke: #d0526a; stroke-width: 1.35"/>
   </g>
   <g id="text_22">
    <text style="font: 9.1px 'DejaVu Sans', 'Bitstream Vera Sans', 'Computer Modern Sans Serif', 'Lucida Grande', 'Verdana', 'Geneva', 'Lucid', 'Arial', 'Helvetica', 'Avant Garde', sans-serif; text-anchor: start" x="411.953594" y="407.336391" transform="rotate(-0 411.953594 407.336391)">CIE 1931 2°</text>
   </g>
   <g id="line2d_38">
    <path d="M 386.473594 417.508484 
L 395.573594 417.508484 
L 404.673594 417.508484 
" style="fill: none; stroke-dasharray: 6.75,2.7,1.35,2.7; stroke-dashoffset: 0; stroke: #2f8f84; stroke-width: 1.35"/>
   </g>
   <g id="text_23">
    <text style="font: 9.1px 'DejaVu Sans', 'Bitstream Vera Sans', 'Computer Modern Sans Serif', 'Lucida Grande', 'Verdana', 'Geneva', 'Lucid', 'Arial', 'Helvetica', 'Avant Garde', sans-serif; text-anchor: start" x="411.953594" y="420.693484" transform="rotate(-0 411.953594 420.693484)">Judd–Vos 1978 2°</text>
   </g>
  </g>
 </g>
 <defs>
  <clipPath id="p2571b34b79">
   <rect x="74.448" y="93.744" width="568.512" height="254.448"/>
  </clipPath>
 </defs>
</svg>
