<?xml version="1.0" encoding="utf-8" standalone="no"?>
<!DOCTYPE svg PUBLIC "-//W3C//DTD SVG 1.1//EN"
  "http://www.w3.org/Graphics/SVG/1.1/DTD/svg11.dtd">
<svg xmlns:xlink="http://www.w3.org/1999/xlink" width="676.8pt" height="446.4pt" viewBox="0 0 676.8 446.4" xmlns="http://www.w3.org/2000/svg" version="1.1">
 <metadata>
  <rdf:RDF xmlns:dc="http://purl.org/dc/elements/1.1/" xmlns:cc="http://creativecommons.org/ns#" xmlns:rdf="http://www.w3.org/1999/02/22-rdf-syntax-ns#">
   <cc:Work>
    <dc:type rdf:resource="http://purl.org/dc/dcmitype/StillImage"/>
    <dc:date>2026-07-20T06:41:59.724793</dc:date>
    <dc:format>image/svg+xml</dc:format>
    <dc:creator>
     <cc:Agent>
      <dc:title>Matplotlib v3.9.4, https://matplotlib.org/</dc:title>
     </cc:Agent>
    </dc:creator>
   </cc:Work>
  </rdf:RDF>
 </metadata>
 <defs>
  <style type="text/css">*{stroke-linejoin: round; stroke-linecap: butt}</style>
 </defs>
 <g id="figure_1">
  <g id="patch_1">
   <path d="M 0 446.4 
L 676.8 446.4 
L 676.8 0 
L 0 0 
z
" style="fill: #ffffff"/>
  </g>
  <g id="axes_1">
   <g id="patch_2">
    <path d="M 74.448 348.192 
L 642.96 348.192 
L 642.96 93.744 
L 74.448 93.744 
z
" style="fill: #ffffff"/>
   </g>
   <g id="patch_3">
    <path d="M 169.2 348.192 
L 358.704 348.192 
L 358.704 93.744 
L 169.2 93.744 
z
" clip-path="url(#p2b5b8672e8)" style="fill: #e7f0ea; opacity: 0.58; stroke: #e7f0ea; stroke-linejoin: miter"/>
   </g>
   <g id="matplotlib.axis_1">
    <g id="xtick_1">
     <g id="line2d_1">
      <path d="M 74.448 348.192 
L 74.448 93.744 
" clip-path="url(#p2b5b8672e8)" style="fill: none; stroke: #dfe5e8; stroke-width: 0.65; stroke-linecap: square"/>
     </g>
     <g id="line2d_2">
      <defs>
       <path id="m4a2b08d9c2" d="M 0 0 
L 0 3.5 
" style="stroke: #000000; stroke-width: 0.8"/>
      </defs>
      <g>
       <use xlink:href="#m4a2b08d9c2" x="74.448" y="348.192" style="stroke: #000000; stroke-width: 0.8"/>
      </g>
     </g>
     <g id="text_1">
      <text style="font: 10px 'DejaVu Sans', 'Bitstream Vera Sans', 'Computer Modern Sans Serif', 'Lucida Grande', 'Verdana', 'Geneva', 'Lucid', 'Arial', 'Helvetica', 'Avant Garde', sans-serif; text-anchor: middle" x="74.448" y="362.790438" transform="rotate(-0 74.448 362.790438)">0</text>
     </g>
    </g>
    <g id="xtick_2">
     <g id="line2d_3">
      <path d="M 169.2 348.192 
L 169.2 93.744 
" clip-path="url(#p2b5b8672e8)" style="fill: none; stroke: #dfe5e8; stroke-width: 0.65; stroke-linecap: square"/>
     </g>
     <g id="line2d_4">
      <g>
       <use xlink:href="#m4a2b08d9c2" x="169.2" y="348.192" style="stroke: #000000; stroke-width: 0.8"/>
      </g>
     </g>
     <g id="text_2">
      <text style="font: 10px 'DejaVu Sans', 'Bitstream Vera Sans', 'Computer Modern Sans Serif', 'Lucida Grande', 'Verdana', 'Geneva', 'Lucid', 'Arial', 'Helvetica', 'Avant Garde', sans-serif; text-anchor: middle" x="169.2" y="362.790438" transform="rotate(-0 169.2 362.790438)">1</text>
     </g>
    </g>
    <g id="xtick_3">
     <g id="line2d_5">
      <path d="M 263.952 348.192 
L 263.952 93.744 
" clip-path="url(#p2b5b8672e8)" style="fill: none; stroke: #dfe5e8; stroke-width: 0.65; stroke-linecap: square"/>
     </g>
     <g id="line2d_6">
      <g>
       <use xlink:href="#m4a2b08d9c2" x="263.952" y="348.192" style="stroke: #000000; stroke-width: 0.8"/>
      </g>
     </g>
     <g id="text_3">
      <text style="font: 10px 'DejaVu Sans', 'Bitstream Vera Sans', 'Computer Modern Sans Serif', 'Lucida Grande', 'Verdana', 'Geneva', 'Lucid', 'Arial', 'Helvetica', 'Avant Garde', sans-serif; text-anchor: middle" x="263.952" y="362.790438" transform="rotate(-0 263.952 362.790438)">2</text>
     </g>
    </g>
    <g id="xtick_4">
     <g id="line2d_7">
      <path d="M 358.704 348.192 
L 358.704 93.744 
" clip-path="url(#p2b5b8672e8)" style="fill: none; stroke: #dfe5e8; stroke-width: 0.65; stroke-linecap: square"/>
     </g>
     <g id="line2d_8">
      <g>
       <use xlink:href="#m4a2b08d9c2" x="358.704" y="348.192" style="stroke: #000000; stroke-width: 0.8"/>
      </g>
     </g>
     <g id="text_4">
      <text style="font: 10px 'DejaVu Sans', 'Bitstream Vera Sans', 'Computer Modern Sans Serif', 'Lucida Grande', 'Verdana', 'Geneva', 'Lucid', 'Arial', 'Helvetica', 'Avant Garde', sans-serif; text-anchor: middle" x="358.704" y="362.790438" transform="rotate(-0 358.704 362.790438)">3</text>
     </g>
    </g>
    <g id="xtick_5">
     <g id="line2d_9">
      <path d="M 453.456 348.192 
L 453.456 93.744 
" clip-path="url(#p2b5b8672e8)" style="fill: none; stroke: #dfe5e8; stroke-width: 0.65; stroke-linecap: square"/>
     </g>
     <g id="line2d_10">
      <g>
       <use xlink:href="#m4a2b08d9c2" x="453.456" y="348.192" style="stroke: #000000; stroke-width: 0.8"/>
      </g>
     </g>
     <g id="text_5">
      <text style="font: 10px 'DejaVu Sans', 'Bitstream Vera Sans', 'Computer Modern Sans Serif', 'Lucida Grande', 'Verdana', 'Geneva', 'Lucid', 'Arial', 'Helvetica', 'Avant Garde', sans-serif; text-anchor: middle" x="453.456" y="362.790438" transform="rotate(-0 453.456 362.790438)">4</text>
     </g>
    </g>
    <g id="xtick_6">
     <g id="line2d_11">
      <path d="M 548.208 348.192 
L 548.208 93.744 
" clip-path="url(#p2b5b8672e8)" style="fill: none; stroke: #dfe5e8; stroke-width: 0.65; stroke-linecap: square"/>
     </g>
     <g id="line2d_12">
      <g>
       <use xlink:href="#m4a2b08d9c2" x="548.208" y="348.192" style="stroke: #000000; stroke-width: 0.8"/>
      </g>
     </g>
     <g id="text_6">
      <text style="font: 10px 'DejaVu Sans', 'Bitstream Vera Sans', 'Computer Modern Sans Serif', 'Lucida Grande', 'Verdana', 'Geneva', 'Lucid', 'Arial', 'Helvetica', 'Avant Garde', sans-serif; text-anchor: middle" x="548.208" y="362.790438" transform="rotate(-0 548.208 362.790438)">5</text>
     </g>
    </g>
    <g id="xtick_7">
     <g id="line2d_13">
      <path d="M 642.96 348.192 
L 642.96 93.744 
" clip-path="url(#p2b5b8672e8)" style="fill: none; stroke: #dfe5e8; stroke-width: 0.65; stroke-linecap: square"/>
     </g>
     <g id="line2d_14">
      <g>
       <use xlink:href="#m4a2b08d9c2" x="642.96" y="348.192" style="stroke: #000000; stroke-width: 0.8"/>
      </g>
     </g>
     <g id="text_7">
      <text style="font: 10px 'DejaVu Sans', 'Bitstream Vera Sans', 'Computer Modern Sans Serif', 'Lucida Grande', 'Verdana', 'Geneva', 'Lucid', 'Arial', 'Helvetica', 'Avant Garde', sans-serif; text-anchor: middle" x="642.96" y="362.790438" transform="rotate(-0 642.96 362.790438)">6</text>
     </g>
    </g>
    <g id="text_8">
     <text style="font: 10px 'DejaVu Sans', 'Bitstream Vera Sans', 'Computer Modern Sans Serif', 'Lucida Grande', 'Verdana', 'Geneva', 'Lucid', 'Arial', 'Helvetica', 'Avant Garde', sans-serif; text-anchor: middle" x="358.704" y="376.468563" transform="rotate(-0 358.704 376.468563)">sUCS dE threshold</text>
    </g>
   </g>
   <g id="matplotlib.axis_2">
    <g id="ytick_1">
     <g id="line2d_15">
      <path d="M 74.448 348.192 
L 642.96 348.192 
" clip-path="url(#p2b5b8672e8)" style="fill: none; stroke: #dfe5e8; stroke-width: 0.65; stroke-linecap: square"/>
     </g>
     <g id="line2d_16">
      <defs>
       <path id="m87ac252cfe" d="M 0 0 
L -3.5 0 
" style="stroke: #000000; stroke-width: 0.8"/>
      </defs>
      <g>
       <use xlink:href="#m87ac252cfe" x="74.448" y="348.192" style="stroke: #000000; stroke-width: 0.8"/>
      </g>
     </g>
     <g id="text_9">
      <text style="font: 10px 'DejaVu Sans', 'Bitstream Vera Sans', 'Computer Modern Sans Serif', 'Lucida Grande', 'Verdana', 'Geneva', 'Lucid', 'Arial', 'Helvetica', 'Avant Garde', sans-serif; text-anchor: end" x="67.448" y="351.991219" transform="rotate(-0 67.448 351.991219)">0</text>
     </g>
    </g>
    <g id="ytick_2">
     <g id="line2d_17">
      <path d="M 74.448 297.3024 
L 642.96 297.3024 
" clip-path="url(#p2b5b8672e8)" style="fill: none; stroke: #dfe5e8; stroke-width: 0.65; stroke-linecap: square"/>
     </g>
     <g id="line2d_18">
      <g>
       <use xlink:href="#m87ac252cfe" x="74.448" y="297.3024" style="stroke: #000000; stroke-width: 0.8"/>
      </g>
     </g>
     <g id="text_10">
      <text style="font: 10px 'DejaVu Sans', 'Bitstream Vera Sans', 'Computer Modern Sans Serif', 'Lucida Grande', 'Verdana', 'Geneva', 'Lucid', 'Arial', 'Helvetica', 'Avant Garde', sans-serif; text-anchor: end" x="67.448" y="301.101619" transform="rotate(-0 67.448 301.101619)">20</text>
     </g>
    </g>
    <g id="ytick_3">
     <g id="line2d_19">
      <path d="M 74.448 246.4128 
L 642.96 246.4128 
" clip-path="url(#p2b5b8672e8)" style="fill: none; stroke: #dfe5e8; stroke-width: 0.65; stroke-linecap: square"/>
     </g>
     <g id="line2d_20">
      <g>
       <use xlink:href="#m87ac252cfe" x="74.448" y="246.4128" style="stroke: #000000; stroke-width: 0.8"/>
      </g>
     </g>
     <g id="text_11">
      <text style="font: 10px 'DejaVu Sans', 'Bitstream Vera Sans', 'Computer Modern Sans Serif', 'Lucida Grande', 'Verdana', 'Geneva', 'Lucid', 'Arial', 'Helvetica', 'Avant Garde', sans-serif; text-anchor: end" x="67.448" y="250.212019" transform="rotate(-0 67.448 250.212019)">40</text>
     </g>
    </g>
    <g id="ytick_4">
     <g id="line2d_21">
      <path d="M 74.448 195.5232 
L 642.96 195.5232 
" clip-path="url(#p2b5b8672e8)" style="fill: none; stroke: #dfe5e8; stroke-width: 0.65; stroke-linecap: square"/>
     </g>
     <g id="line2d_22">
      <g>
       <use xlink:href="#m87ac252cfe" x="74.448" y="195.5232" style="stroke: #000000; stroke-width: 0.8"/>
      </g>
     </g>
     <g id="text_12">
      <text style="font: 10px 'DejaVu Sans', 'Bitstream Vera Sans', 'Computer Modern Sans Serif', 'Lucida Grande', 'Verdana', 'Geneva', 'Lucid', 'Arial', 'Helvetica', 'Avant Garde', sans-serif; text-anchor: end" x="67.448" y="199.322419" transform="rotate(-0 67.448 199.322419)">60</text>
     </g>
    </g>
    <g id="ytick_5">
     <g id="line2d_23">
      <path d="M 74.448 144.6336 
L 642.96 144.6336 
" clip-path="url(#p2b5b8672e8)" style="fill: none; stroke: #dfe5e8; stroke-width: 0.65; stroke-linecap: square"/>
     </g>
     <g id="line2d_24">
      <g>
       <use xlink:href="#m87ac252cfe" x="74.448" y="144.6336" style="stroke: #000000; stroke-width: 0.8"/>
      </g>
     </g>
     <g id="text_13">
      <text style="font: 10px 'DejaVu Sans', 'Bitstream Vera Sans', 'Computer Modern Sans Serif', 'Lucida Grande', 'Verdana', 'Geneva', 'Lucid', 'Arial', 'Helvetica', 'Avant Garde', sans-serif; text-anchor: end" x="67.448" y="148.432819" transform="rotate(-0 67.448 148.432819)">80</text>
     </g>
    </g>
    <g id="ytick_6">
     <g id="line2d_25">
      <path d="M 74.448 93.744 
L 642.96 93.744 
" clip-path="url(#p2b5b8672e8)" style="fill: none; stroke: #dfe5e8; stroke-width: 0.65; stroke-linecap: square"/>
     </g>
     <g id="line2d_26">
      <g>
       <use xlink:href="#m87ac252cfe" x="74.448" y="93.744" style="stroke: #000000; stroke-width: 0.8"/>
      </g>
     </g>
     <g id="text_14">
      <text style="font: 10px 'DejaVu Sans', 'Bitstream Vera Sans', 'Computer Modern Sans Serif', 'Lucida Grande', 'Verdana', 'Geneva', 'Lucid', 'Arial', 'Helvetica', 'Avant Garde', sans-serif; text-anchor: end" x="67.448" y="97.543219" transform="rotate(-0 67.448 97.543219)">100</text>
     </g>
    </g>
    <g id="text_15">
     <text style="font: 10px 'DejaVu Sans', 'Bitstream Vera Sans', 'Computer Modern Sans Serif', 'Lucida Grande', 'Verdana', 'Geneva', 'Lucid', 'Arial', 'Helvetica', 'Avant Garde', sans-serif; text-anchor: middle" x="42.280812" y="220.968" transform="rotate(-90 42.280812 220.968)">observers%</text>
    </g>
   </g>
   <g id="line2d_27">
    <path d="M 74.448 348.192 
L 80.13312 348.192 
L 82.02816 345.998483 
L 83.9232 345.998483 
L 85.81824 344.367406 
L 89.60832 344.367406 
L 91.50336 339.980371 
L 95.29344 339.980371 
L 97.18848 338.349294 
L 99.08352 338.349294 
L 100.97856 333.96226 
L 102.8736 332.331183 
L 104.76864 330.137666 
L 106.66368 325.750631 
L 108.55872 324.119554 
L 112.3488 324.119554 
L 114.24384 319.226324 
L 116.13888 319.226324 
L 118.03392 317.032806 
L 119.92896 313.208212 
L 123.71904 313.208212 
L 125.61408 309.383618 
L 127.50912 303.927947 
L 129.40416 301.73443 
L 131.2992 296.278759 
L 133.19424 294.647682 
L 135.08928 287.560934 
L 138.87936 287.560934 
L 140.7744 285.929857 
L 142.66944 285.929857 
L 144.56448 282.667703 
L 146.45952 281.036626 
L 148.35456 276.143395 
L 150.2496 273.949878 
L 152.14464 269.056647 
L 154.03968 261.969899 
L 155.93472 261.969899 
L 157.82976 259.776382 
L 159.7248 258.145305 
L 161.61984 254.320711 
L 167.30496 254.320711 
L 169.2 246.165326 
L 171.09504 242.340732 
L 172.99008 236.885061 
L 174.88512 225.973719 
L 176.78016 223.780202 
L 178.6752 219.393167 
L 182.46528 216.131013 
L 186.25536 216.131013 
L 188.1504 214.499936 
L 191.94048 210.112902 
L 193.83552 208.481825 
L 195.73056 208.481825 
L 197.6256 205.219671 
L 201.41568 200.832637 
L 203.31072 197.008042 
L 205.20576 190.989931 
L 207.1008 190.989931 
L 210.89088 187.727777 
L 212.78592 187.727777 
L 214.68096 185.53426 
L 216.576 185.53426 
L 220.36608 182.272106 
L 222.26112 179.009952 
L 224.15616 177.378875 
L 226.0512 177.378875 
L 227.94624 174.116721 
L 229.84128 174.116721 
L 231.73632 170.292127 
L 237.42144 170.292127 
L 239.31648 167.029973 
L 241.21152 165.398897 
L 243.10656 165.398897 
L 245.0016 163.205379 
L 246.89664 159.380785 
L 248.79168 157.187268 
L 250.68672 155.556191 
L 252.58176 151.731597 
L 254.4768 151.731597 
L 256.37184 149.53808 
L 260.16192 149.53808 
L 262.05696 147.907003 
L 265.84704 147.907003 
L 267.74208 143.519968 
L 269.63712 139.695374 
L 277.21728 139.695374 
L 279.11232 138.064297 
L 286.69248 138.064297 
L 288.58752 133.677263 
L 290.48256 131.483745 
L 292.3776 131.483745 
L 294.27264 129.290228 
L 296.16768 124.903194 
L 305.64288 124.903194 
L 307.53792 123.272117 
L 309.43296 123.272117 
L 311.328 121.078599 
L 315.11808 121.078599 
L 317.01312 118.885082 
L 322.69824 118.885082 
L 324.59328 117.254005 
L 326.48832 117.254005 
L 328.38336 113.429411 
L 334.06848 113.429411 
L 335.96352 111.235894 
L 341.64864 111.235894 
L 343.54368 109.604817 
L 345.43872 109.604817 
L 347.33376 107.97374 
L 351.12384 107.97374 
L 353.01888 104.149146 
L 360.59904 104.149146 
L 362.49408 99.762111 
L 364.38912 97.568594 
L 373.86432 97.568594 
L 375.75936 95.937517 
L 415.5552 95.937517 
L 417.45024 93.744 
L 642.96 93.744 
L 642.96 93.744 
" clip-path="url(#p2b5b8672e8)" style="fill: none; stroke: #252525; stroke-width: 2.5; stroke-linecap: square"/>
   </g>
   <g id="line2d_28">
    <path d="M 74.448 348.192 
L 89.60832 348.192 
L 91.50336 345.998483 
L 93.3984 345.998483 
L 95.29344 343.804966 
L 99.08352 343.804966 
L 100.97856 341.611448 
L 102.8736 341.611448 
L 104.76864 339.417931 
L 108.55872 339.417931 
L 110.45376 337.224414 
L 112.3488 337.224414 
L 114.24384 335.030897 
L 116.13888 329.012785 
L 118.03392 329.012785 
L 119.92896 327.381708 
L 121.824 327.381708 
L 123.71904 325.188191 
L 127.50912 325.188191 
L 129.40416 320.801156 
L 133.19424 320.801156 
L 140.7744 312.027088 
L 142.66944 312.027088 
L 144.56448 306.008976 
L 146.45952 306.008976 
L 148.35456 303.815459 
L 154.03968 303.815459 
L 155.93472 302.184382 
L 157.82976 299.990865 
L 161.61984 296.728711 
L 163.51488 292.904117 
L 165.40992 292.904117 
L 167.30496 288.517082 
L 169.2 288.517082 
L 171.09504 278.674377 
L 172.99008 271.587629 
L 174.88512 267.200594 
L 176.78016 267.200594 
L 178.6752 265.007077 
L 180.57024 265.007077 
L 182.46528 260.620042 
L 184.36032 256.795448 
L 188.1504 256.795448 
L 190.04544 248.58382 
L 191.94048 246.390302 
L 193.83552 242.565708 
L 195.73056 240.934631 
L 197.6256 233.285443 
L 201.41568 228.898408 
L 205.20576 228.898408 
L 207.1008 222.374101 
L 208.99584 220.743024 
L 210.89088 220.743024 
L 212.78592 218.549507 
L 214.68096 216.91843 
L 216.576 216.91843 
L 220.36608 212.531395 
L 222.26112 212.531395 
L 224.15616 208.706801 
L 227.94624 208.706801 
L 229.84128 205.444647 
L 231.73632 203.25113 
L 235.5264 199.988976 
L 237.42144 197.795459 
L 239.31648 193.970865 
L 241.21152 189.58383 
L 243.10656 189.58383 
L 245.0016 187.390313 
L 246.89664 181.372202 
L 248.79168 179.178684 
L 250.68672 175.916531 
L 252.58176 172.091936 
L 260.16192 172.091936 
L 262.05696 170.460859 
L 263.952 170.460859 
L 265.84704 167.198706 
L 267.74208 167.198706 
L 271.53216 163.936552 
L 273.4272 163.936552 
L 275.32224 161.743034 
L 277.21728 160.111958 
L 279.11232 160.111958 
L 281.00736 156.849804 
L 282.9024 155.218727 
L 284.79744 155.218727 
L 286.69248 153.58765 
L 288.58752 150.325496 
L 290.48256 150.325496 
L 292.3776 148.694419 
L 294.27264 145.432265 
L 296.16768 145.432265 
L 298.06272 143.238748 
L 299.95776 139.976594 
L 311.328 139.976594 
L 313.22304 137.783077 
L 315.11808 137.783077 
L 317.01312 134.520923 
L 318.90816 132.889846 
L 322.69824 132.889846 
L 324.59328 131.258769 
L 326.48832 131.258769 
L 330.2784 127.996615 
L 337.85856 127.996615 
L 339.7536 124.734462 
L 347.33376 118.210154 
L 349.2288 118.210154 
L 351.12384 116.579077 
L 354.91392 116.579077 
L 356.80896 114.948 
L 358.704 114.948 
L 360.59904 113.316923 
L 364.38912 113.316923 
L 368.1792 110.054769 
L 379.54944 110.054769 
L 381.44448 108.423692 
L 385.23456 108.423692 
L 387.1296 106.792615 
L 392.81472 106.792615 
L 394.70976 105.161538 
L 419.34528 105.161538 
L 421.24032 103.530462 
L 443.9808 103.530462 
L 445.87584 100.268308 
L 453.456 100.268308 
L 455.35104 98.637231 
L 464.82624 98.637231 
L 468.61632 95.375077 
L 487.56672 95.375077 
L 489.46176 93.744 
L 642.96 93.744 
L 642.96 93.744 
" clip-path="url(#p2b5b8672e8)" style="fill: none; stroke: #3b83b4; stroke-width: 1.35; stroke-linecap: square"/>
   </g>
   <g id="line2d_29">
    <path d="M 74.448 348.192 
L 87.71328 348.192 
L 91.50336 344.929846 
L 93.3984 344.929846 
L 95.29344 341.667692 
L 99.08352 341.667692 
L 104.76864 336.774462 
L 106.66368 333.512308 
L 108.55872 325.863119 
L 110.45376 324.232042 
L 112.3488 318.776371 
L 114.24384 318.776371 
L 116.13888 315.514218 
L 118.03392 315.514218 
L 119.92896 313.883141 
L 121.824 311.689623 
L 125.61408 311.689623 
L 127.50912 310.058546 
L 129.40416 310.058546 
L 131.2992 306.796393 
L 133.19424 301.903162 
L 135.08928 300.272085 
L 136.98432 298.078568 
L 140.7744 294.816414 
L 142.66944 290.99182 
L 144.56448 289.360743 
L 146.45952 283.905072 
L 148.35456 277.88696 
L 150.2496 277.88696 
L 152.14464 274.062366 
L 154.03968 271.868849 
L 157.82976 260.957507 
L 163.51488 251.171045 
L 165.40992 248.977528 
L 167.30496 245.715374 
L 169.2 245.715374 
L 171.09504 243.521857 
L 172.99008 243.521857 
L 174.88512 236.435109 
L 176.78016 233.172955 
L 180.57024 233.172955 
L 182.46528 231.541878 
L 184.36032 227.717284 
L 186.25536 227.717284 
L 188.1504 226.086207 
L 191.94048 226.086207 
L 193.83552 224.45513 
L 195.73056 219.561899 
L 197.6256 217.930822 
L 199.52064 214.106228 
L 201.41568 212.475151 
L 203.31072 212.475151 
L 205.20576 208.650557 
L 207.1008 208.650557 
L 208.99584 207.01948 
L 210.89088 207.01948 
L 212.78592 203.757326 
L 214.68096 203.757326 
L 216.576 201.563809 
L 218.47104 199.932732 
L 220.36608 199.932732 
L 222.26112 196.108138 
L 224.15616 196.108138 
L 227.94624 191.721103 
L 229.84128 190.090027 
L 231.73632 187.896509 
L 235.5264 187.896509 
L 237.42144 183.509475 
L 239.31648 183.509475 
L 241.21152 179.684881 
L 243.10656 177.491363 
L 248.79168 177.491363 
L 250.68672 175.297846 
L 252.58176 172.035692 
L 256.37184 172.035692 
L 258.26688 169.842175 
L 260.16192 169.842175 
L 262.05696 166.580021 
L 263.952 164.386504 
L 265.84704 159.999469 
L 269.63712 159.999469 
L 271.53216 157.805952 
L 277.21728 157.805952 
L 279.11232 156.174875 
L 281.00736 152.912721 
L 286.69248 152.912721 
L 288.58752 151.281645 
L 292.3776 151.281645 
L 294.27264 149.650568 
L 296.16768 149.650568 
L 298.06272 147.45705 
L 307.53792 147.45705 
L 309.43296 145.263533 
L 311.328 139.245422 
L 313.22304 139.245422 
L 315.11808 137.051905 
L 317.01312 137.051905 
L 318.90816 135.420828 
L 320.8032 135.420828 
L 322.69824 133.22731 
L 328.38336 133.22731 
L 330.2784 131.033793 
L 332.17344 131.033793 
L 334.06848 126.646759 
L 351.12384 126.646759 
L 353.01888 124.453241 
L 354.91392 120.066207 
L 356.80896 120.066207 
L 362.49408 113.485655 
L 375.75936 113.485655 
L 377.6544 111.292138 
L 379.54944 111.292138 
L 381.44448 109.098621 
L 392.81472 109.098621 
L 394.70976 106.905103 
L 400.39488 106.905103 
L 402.28992 104.711586 
L 417.45024 104.711586 
L 419.34528 102.518069 
L 423.13536 102.518069 
L 425.0304 100.324552 
L 426.92544 100.324552 
L 430.71552 95.937517 
L 479.98656 95.937517 
L 481.8816 93.744 
L 642.96 93.744 
L 642.96 93.744 
" clip-path="url(#p2b5b8672e8)" style="fill: none; stroke-dasharray: 4.995,2.16; stroke-dashoffset: 0; stroke: #c38a19; stroke-width: 1.35"/>
   </g>
   <g id="line2d_30">
    <path d="M 74.448 348.192 
L 91.50336 348.192 
L 93.3984 346.560923 
L 95.29344 344.367406 
L 104.76864 344.367406 
L 106.66368 342.173889 
L 110.45376 342.173889 
L 112.3488 337.786854 
L 114.24384 336.155777 
L 119.92896 336.155777 
L 121.824 334.5247 
L 123.71904 332.331183 
L 127.50912 332.331183 
L 129.40416 328.506589 
L 133.19424 328.506589 
L 135.08928 324.119554 
L 136.98432 322.488477 
L 138.87936 318.101443 
L 140.7744 314.276849 
L 142.66944 312.083332 
L 144.56448 310.452255 
L 150.2496 310.452255 
L 152.14464 304.996584 
L 154.03968 303.365507 
L 155.93472 299.540912 
L 157.82976 294.085241 
L 163.51488 294.085241 
L 165.40992 292.454164 
L 167.30496 284.804976 
L 169.2 277.718228 
L 171.09504 272.262557 
L 172.99008 272.262557 
L 174.88512 268.437963 
L 176.78016 263.544732 
L 178.6752 261.913655 
L 182.46528 261.913655 
L 184.36032 256.457984 
L 186.25536 253.19583 
L 188.1504 251.564753 
L 190.04544 248.302599 
L 191.94048 246.671523 
L 195.73056 240.147215 
L 197.6256 238.516138 
L 199.52064 238.516138 
L 201.41568 236.885061 
L 203.31072 229.235873 
L 205.20576 229.235873 
L 207.1008 221.586684 
L 208.99584 211.800223 
L 210.89088 211.800223 
L 212.78592 208.538069 
L 214.68096 208.538069 
L 216.576 206.906992 
L 218.47104 198.695363 
L 220.36608 193.802133 
L 222.26112 192.171056 
L 224.15616 186.715385 
L 226.0512 183.453231 
L 227.94624 181.259714 
L 229.84128 177.435119 
L 231.73632 177.435119 
L 233.63136 174.172966 
L 235.5264 174.172966 
L 241.21152 167.592414 
L 248.79168 167.592414 
L 250.68672 165.961337 
L 252.58176 165.961337 
L 254.4768 164.33026 
L 256.37184 164.33026 
L 258.26688 158.874589 
L 262.05696 158.874589 
L 265.84704 154.487554 
L 273.4272 154.487554 
L 275.32224 152.294037 
L 279.11232 152.294037 
L 281.00736 150.66296 
L 282.9024 148.469443 
L 284.79744 148.469443 
L 288.58752 144.082408 
L 290.48256 144.082408 
L 292.3776 140.820255 
L 305.64288 140.820255 
L 307.53792 138.626737 
L 309.43296 138.626737 
L 311.328 132.608626 
L 313.22304 132.608626 
L 315.11808 130.977549 
L 317.01312 128.784032 
L 318.90816 128.784032 
L 320.8032 127.152955 
L 322.69824 124.959438 
L 326.48832 124.959438 
L 328.38336 122.76592 
L 330.2784 121.134844 
L 332.17344 117.310249 
L 335.96352 117.310249 
L 337.85856 115.116732 
L 339.7536 115.116732 
L 341.64864 112.923215 
L 347.33376 112.923215 
L 349.2288 111.292138 
L 354.91392 111.292138 
L 356.80896 109.098621 
L 358.704 109.098621 
L 362.49408 104.711586 
L 379.54944 104.711586 
L 381.44448 102.518069 
L 390.91968 102.518069 
L 394.70976 98.131034 
L 404.18496 98.131034 
L 406.08 95.937517 
L 436.40064 95.937517 
L 438.29568 93.744 
L 642.96 93.744 
L 642.96 93.744 
" clip-path="url(#p2b5b8672e8)" style="fill: none; stroke-dasharray: 1.35,2.2275; stroke-dashoffset: 0; stroke: #7d8a92; stroke-width: 1.35"/>
   </g>
   <g id="line2d_31">
    <path d="M 74.448 348.192 
L 129.40416 348.192 
L 131.2992 343.804966 
L 146.45952 343.804966 
L 150.2496 339.417931 
L 152.14464 339.417931 
L 155.93472 335.030897 
L 165.40992 335.030897 
L 167.30496 333.39982 
L 171.09504 329.012785 
L 174.88512 329.012785 
L 176.78016 324.625751 
L 180.57024 324.625751 
L 182.46528 320.238716 
L 190.04544 320.238716 
L 193.83552 315.851682 
L 195.73056 315.851682 
L 197.6256 311.464647 
L 199.52064 311.464647 
L 201.41568 309.27113 
L 203.31072 309.27113 
L 205.20576 303.815459 
L 207.1008 301.621942 
L 208.99584 295.60383 
L 212.78592 291.216796 
L 216.576 291.216796 
L 220.36608 286.829761 
L 224.15616 278.055692 
L 227.94624 278.055692 
L 229.84128 273.668658 
L 231.73632 271.475141 
L 235.5264 271.475141 
L 237.42144 264.894589 
L 239.31648 262.701072 
L 246.89664 262.701072 
L 248.79168 261.069995 
L 250.68672 261.069995 
L 252.58176 258.876477 
L 254.4768 255.051883 
L 256.37184 253.420806 
L 258.26688 251.227289 
L 260.16192 251.227289 
L 262.05696 247.402695 
L 263.952 241.384584 
L 265.84704 234.297836 
L 269.63712 234.297836 
L 271.53216 232.104318 
L 273.4272 232.104318 
L 275.32224 230.473241 
L 277.21728 230.473241 
L 279.11232 225.01757 
L 281.00736 220.630536 
L 282.9024 216.805942 
L 284.79744 216.805942 
L 286.69248 209.156753 
L 288.58752 205.332159 
L 290.48256 205.332159 
L 292.3776 203.701082 
L 294.27264 203.701082 
L 296.16768 202.070005 
L 298.06272 202.070005 
L 299.95776 198.807851 
L 305.64288 198.807851 
L 307.53792 196.614334 
L 309.43296 192.78974 
L 311.328 190.596223 
L 315.11808 190.596223 
L 318.90816 187.334069 
L 320.8032 187.334069 
L 322.69824 185.702992 
L 324.59328 181.878398 
L 326.48832 178.616244 
L 328.38336 176.985167 
L 330.2784 176.985167 
L 334.06848 173.723013 
L 335.96352 171.529496 
L 337.85856 171.529496 
L 339.7536 169.898419 
L 341.64864 167.704902 
L 349.2288 167.704902 
L 351.12384 166.073825 
L 353.01888 166.073825 
L 354.91392 164.442748 
L 356.80896 161.180594 
L 358.704 159.549517 
L 364.38912 159.549517 
L 366.28416 157.91844 
L 368.1792 157.91844 
L 370.07424 154.656286 
L 371.96928 153.02521 
L 373.86432 149.763056 
L 375.75936 148.131979 
L 377.6544 144.869825 
L 381.44448 141.607671 
L 385.23456 141.607671 
L 387.1296 139.976594 
L 389.02464 137.783077 
L 396.6048 137.783077 
L 398.49984 134.520923 
L 400.39488 134.520923 
L 402.28992 132.889846 
L 406.08 132.889846 
L 407.97504 131.258769 
L 411.76512 131.258769 
L 413.66016 127.996615 
L 419.34528 127.996615 
L 423.13536 124.734462 
L 425.0304 124.734462 
L 428.82048 121.472308 
L 430.71552 116.579077 
L 434.5056 116.579077 
L 436.40064 114.948 
L 440.19072 114.948 
L 442.08576 113.316923 
L 443.9808 113.316923 
L 447.77088 110.054769 
L 461.03616 110.054769 
L 462.9312 108.423692 
L 466.72128 108.423692 
L 468.61632 106.792615 
L 470.51136 106.792615 
L 472.4064 105.161538 
L 493.25184 105.161538 
L 495.14688 103.530462 
L 523.57248 103.530462 
L 527.36256 100.268308 
L 529.2576 100.268308 
L 531.15264 98.637231 
L 542.52288 98.637231 
L 546.31296 95.375077 
L 559.57824 95.375077 
L 561.47328 93.744 
L 642.96 93.744 
L 642.96 93.744 
" clip-path="url(#p2b5b8672e8)" style="fill: none; stroke-dasharray: 8.64,2.16,1.35,2.16; stroke-dashoffset: 0; stroke: #d0526a; stroke-width: 1.35"/>
   </g>
   <g id="line2d_32">
    <path d="M 74.448 348.192 
L 91.50336 348.192 
L 93.3984 345.998483 
L 110.45376 345.998483 
L 112.3488 341.611448 
L 114.24384 341.611448 
L 116.13888 337.224414 
L 127.50912 337.224414 
L 129.40416 335.030897 
L 131.2992 330.643862 
L 133.19424 330.643862 
L 135.08928 328.450345 
L 136.98432 322.432233 
L 142.66944 322.432233 
L 144.56448 320.238716 
L 146.45952 315.851682 
L 150.2496 315.851682 
L 152.14464 314.220605 
L 155.93472 314.220605 
L 157.82976 308.764934 
L 161.61984 304.377899 
L 163.51488 304.377899 
L 165.40992 302.184382 
L 171.09504 302.184382 
L 172.99008 293.410313 
L 174.88512 291.216796 
L 176.78016 286.829761 
L 178.6752 284.636244 
L 184.36032 284.636244 
L 186.25536 280.24921 
L 190.04544 280.24921 
L 191.94048 278.055692 
L 195.73056 278.055692 
L 197.6256 276.424615 
L 199.52064 276.424615 
L 201.41568 272.037581 
L 203.31072 268.212987 
L 205.20576 268.212987 
L 207.1008 266.019469 
L 208.99584 266.019469 
L 210.89088 260.001358 
L 212.78592 254.545687 
L 216.576 250.158653 
L 218.47104 244.140541 
L 220.36608 238.68487 
L 222.26112 238.68487 
L 224.15616 236.491353 
L 226.0512 232.666759 
L 227.94624 232.666759 
L 229.84128 228.842164 
L 231.73632 228.842164 
L 235.5264 225.580011 
L 237.42144 221.755416 
L 239.31648 220.12434 
L 241.21152 217.930822 
L 243.10656 214.106228 
L 246.89664 214.106228 
L 248.79168 208.650557 
L 252.58176 208.650557 
L 254.4768 203.194886 
L 256.37184 203.194886 
L 258.26688 201.001369 
L 260.16192 201.001369 
L 262.05696 199.370292 
L 269.63712 199.370292 
L 271.53216 197.739215 
L 273.4272 195.545698 
L 275.32224 193.914621 
L 279.11232 186.265432 
L 281.00736 180.809761 
L 284.79744 180.809761 
L 286.69248 178.616244 
L 292.3776 178.616244 
L 294.27264 173.160573 
L 296.16768 169.335979 
L 298.06272 167.704902 
L 307.53792 167.704902 
L 315.11808 161.180594 
L 317.01312 161.180594 
L 318.90816 159.549517 
L 320.8032 159.549517 
L 322.69824 157.91844 
L 324.59328 157.91844 
L 326.48832 156.287363 
L 328.38336 153.02521 
L 330.2784 153.02521 
L 332.17344 151.394133 
L 334.06848 151.394133 
L 335.96352 148.131979 
L 341.64864 143.238748 
L 343.54368 143.238748 
L 347.33376 139.976594 
L 354.91392 139.976594 
L 356.80896 137.783077 
L 360.59904 137.783077 
L 362.49408 136.152 
L 364.38912 132.889846 
L 368.1792 132.889846 
L 370.07424 131.258769 
L 373.86432 131.258769 
L 375.75936 127.996615 
L 383.33952 127.996615 
L 396.6048 116.579077 
L 400.39488 116.579077 
L 402.28992 114.948 
L 404.18496 114.948 
L 406.08 113.316923 
L 409.87008 113.316923 
L 413.66016 110.054769 
L 425.0304 110.054769 
L 426.92544 108.423692 
L 430.71552 108.423692 
L 432.61056 106.792615 
L 438.29568 106.792615 
L 440.19072 105.161538 
L 462.9312 105.161538 
L 464.82624 103.530462 
L 489.46176 103.530462 
L 493.25184 100.268308 
L 497.04192 100.268308 
L 498.93696 98.637231 
L 510.3072 98.637231 
L 514.09728 95.375077 
L 531.15264 95.375077 
L 533.04768 93.744 
L 642.96 93.744 
L 642.96 93.744 
" clip-path="url(#p2b5b8672e8)" style="fill: none; stroke-dasharray: 6.75,2.7,1.35,2.7; stroke-dashoffset: 0; stroke: #2f8f84; stroke-width: 1.35"/>
   </g>
   <g id="patch_4">
    <path d="M 74.448 348.192 
L 74.448 93.744 
" style="fill: none; stroke: #000000; stroke-width: 0.8; stroke-linejoin: miter; stroke-linecap: square"/>
   </g>
   <g id="patch_5">
    <path d="M 74.448 348.192 
L 642.96 348.192 
" style="fill: none; stroke: #000000; stroke-width: 0.8; stroke-linejoin: miter; stroke-linecap: square"/>
   </g>
  </g>
  <g id="text_16">
   <text style="font: 18px 'DejaVu Sans', 'Bitstream Vera Sans', 'Computer Modern Sans Serif', 'Lucida Grande', 'Verdana', 'Geneva', 'Lucid', 'Arial', 'Helvetica', 'Avant Garde', sans-serif; text-anchor: start" x="74.448" y="38.229188" transform="rotate(-0 74.448 38.229188)">QDEF LCD → QD-OLED</text>
  </g>
  <g id="text_17">
   <text style="fill: #66747c; font: 10px 'DejaVu Sans', 'Bitstream Vera Sans', 'Computer Modern Sans Serif', 'Lucida Grande', 'Verdana', 'Geneva', 'Lucid', 'Arial', 'Helvetica', 'Avant Garde', sans-serif; text-anchor: start" x="74.448" y="64.728" transform="rotate(-0 74.448 64.728)">LED-RGB1</text>
  </g>
  <g id="legend_1">
   <g id="line2d_33">
    <path d="M 185.17875 404.151391 
L 194.27875 404.151391 
L 203.37875 404.151391 
" style="fill: none; stroke: #252525; stroke-width: 2.5; stroke-linecap: square"/>
   </g>
   <g id="text_18">
    <text style="font: 9.1px 'DejaVu Sans', 'Bitstream Vera Sans', 'Computer Modern Sans Serif', 'Lucida Grande', 'Verdana', 'Geneva', 'Lucid', 'Arial', 'Helvetica', 'Avant Garde', sans-serif; text-anchor: start" x="210.65875" y="407.336391" transform="rotate(-0 210.65875 407.336391)">Potera CMF</text>
   </g>
   <g id="line2d_34">
    <path d="M 185.17875 417.508484 
L 194.27875 417.508484 
L 203.37875 417.508484 
" style="fill: none; stroke: #3b83b4; stroke-width: 1.35; stroke-linecap: square"/>
   </g>
   <g id="text_19">
    <text style="font: 9.1px 'DejaVu Sans', 'Bitstream Vera Sans', 'Computer Modern Sans Serif', 'Lucida Grande', 'Verdana', 'Geneva', 'Lucid', 'Arial', 'Helvetica', 'Avant Garde', sans-serif; text-anchor: start" x="210.65875" y="420.693484" transform="rotate(-0 210.65875 420.693484)">CIE 2015 2°</text>
   </g>
   <g id="line2d_35">
    <path d="M 282.931234 404.151391 
L 292.031234 404.151391 
L 301.131234 404.151391 
" style="fill: none; stroke-dasharray: 4.995,2.16; stroke-dashoffset: 0; stroke: #c38a19; stroke-width: 1.35"/>
   </g>
   <g id="text_20">
    <text style="font: 9.1px 'DejaVu Sans', 'Bitstream Vera Sans', 'Computer Modern Sans Serif', 'Lucida Grande', 'Verdana', 'Geneva', 'Lucid', 'Arial', 'Helvetica', 'Avant Garde', sans-serif; text-anchor: start" x="308.411234" y="407.336391" transform="rotate(-0 308.411234 407.336391)">CIE 2015 10°</text>
   </g>
   <g id="line2d_36">
    <path d="M 282.931234 417.508484 
L 292.031234 417.508484 
L 301.131234 417.508484 
" style="fill: none; stroke-dasharray: 1.35,2.2275; stroke-dashoffset: 0; stroke: #7d8a92; stroke-width: 1.35"/>
   </g>
   <g id="text_21">
    <text style="font: 9.1px 'DejaVu Sans', 'Bitstream Vera Sans', 'Computer Modern Sans Serif', 'Lucida Grande', 'Verdana', 'Geneva', 'Lucid', 'Arial', 'Helvetica', 'Avant Garde', sans-serif; text-anchor: start" x="308.411234" y="420.693484" transform="rotate(-0 308.411234 420.693484)">CIE 1964 10°</text>
   </g>
   <g id="line2d_37">
    <path d="M 386.473594 404.151391 
L 395.573594 404.151391 
L 404.673594 404.151391 
" style="fill: none; stroke-dasharray: 8.64,2.16,1.35,2.16; stroke-dashoffset: 0; stroke: #d0526a; stroke-width: 1.35"/>
   </g>
   <g id="text_22">
    <text style="font: 9.1px 'DejaVu Sans', 'Bitstream Vera Sans', 'Computer Modern Sans Serif', 'Lucida Grande', 'Verdana', 'Geneva', 'Lucid', 'Arial', 'Helvetica', 'Avant Garde', sans-serif; text-anchor: start" x="411.953594" y="407.336391" transform="rotate(-0 411.953594 407.336391)">CIE 1931 2°</text>
   </g>
   <g id="line2d_38">
    <path d="M 386.473594 417.508484 
L 395.573594 417.508484 
L 404.673594 417.508484 
" style="fill: none; stroke-dasharray: 6.75,2.7,1.35,2.7; stroke-dashoffset: 0; stroke: #2f8f84; stroke-width: 1.35"/>
   </g>
   <g id="text_23">
    <text style="font: 9.1px 'DejaVu Sans', 'Bitstream Vera Sans', 'Computer Modern Sans Serif', 'Lucida Grande', 'Verdana', 'Geneva', 'Lucid', 'Arial', 'Helvetica', 'Avant Garde', sans-serif; text-anchor: start" x="411.953594" y="420.693484" transform="rotate(-0 411.953594 420.693484)">Judd–Vos 1978 2°</text>
   </g>
  </g>
 </g>
 <defs>
  <clipPath id="p2b5b8672e8">
   <rect x="74.448" y="93.744" width="568.512" height="254.448"/>
  </clipPath>
 </defs>
</svg>
