<?xml version="1.0" encoding="utf-8" standalone="no"?>
<!DOCTYPE svg PUBLIC "-//W3C//DTD SVG 1.1//EN"
  "http://www.w3.org/Graphics/SVG/1.1/DTD/svg11.dtd">
<svg xmlns:xlink="http://www.w3.org/1999/xlink" width="676.8pt" height="446.4pt" viewBox="0 0 676.8 446.4" xmlns="http://www.w3.org/2000/svg" version="1.1">
 <metadata>
  <rdf:RDF xmlns:dc="http://purl.org/dc/elements/1.1/" xmlns:cc="http://creativecommons.org/ns#" xmlns:rdf="http://www.w3.org/1999/02/22-rdf-syntax-ns#">
   <cc:Work>
    <dc:type rdf:resource="http://purl.org/dc/dcmitype/StillImage"/>
    <dc:date>2026-07-20T06:41:59.941383</dc:date>
    <dc:format>image/svg+xml</dc:format>
    <dc:creator>
     <cc:Agent>
      <dc:title>Matplotlib v3.9.4, https://matplotlib.org/</dc:title>
     </cc:Agent>
    </dc:creator>
   </cc:Work>
  </rdf:RDF>
 </metadata>
 <defs>
  <style type="text/css">*{stroke-linejoin: round; stroke-linecap: butt}</style>
 </defs>
 <g id="figure_1">
  <g id="patch_1">
   <path d="M 0 446.4 
L 676.8 446.4 
L 676.8 0 
L 0 0 
z
" style="fill: #ffffff"/>
  </g>
  <g id="axes_1">
   <g id="patch_2">
    <path d="M 74.448 348.192 
L 642.96 348.192 
L 642.96 93.744 
L 74.448 93.744 
z
" style="fill: #ffffff"/>
   </g>
   <g id="patch_3">
    <path d="M 169.2 348.192 
L 358.704 348.192 
L 358.704 93.744 
L 169.2 93.744 
z
" clip-path="url(#pc7cd1ddb3c)" style="fill: #e7f0ea; opacity: 0.58; stroke: #e7f0ea; stroke-linejoin: miter"/>
   </g>
   <g id="matplotlib.axis_1">
    <g id="xtick_1">
     <g id="line2d_1">
      <path d="M 74.448 348.192 
L 74.448 93.744 
" clip-path="url(#pc7cd1ddb3c)" style="fill: none; stroke: #dfe5e8; stroke-width: 0.65; stroke-linecap: square"/>
     </g>
     <g id="line2d_2">
      <defs>
       <path id="m57e45d0fc9" d="M 0 0 
L 0 3.5 
" style="stroke: #000000; stroke-width: 0.8"/>
      </defs>
      <g>
       <use xlink:href="#m57e45d0fc9" x="74.448" y="348.192" style="stroke: #000000; stroke-width: 0.8"/>
      </g>
     </g>
     <g id="text_1">
      <text style="font: 10px 'DejaVu Sans', 'Bitstream Vera Sans', 'Computer Modern Sans Serif', 'Lucida Grande', 'Verdana', 'Geneva', 'Lucid', 'Arial', 'Helvetica', 'Avant Garde', sans-serif; text-anchor: middle" x="74.448" y="362.790438" transform="rotate(-0 74.448 362.790438)">0</text>
     </g>
    </g>
    <g id="xtick_2">
     <g id="line2d_3">
      <path d="M 169.2 348.192 
L 169.2 93.744 
" clip-path="url(#pc7cd1ddb3c)" style="fill: none; stroke: #dfe5e8; stroke-width: 0.65; stroke-linecap: square"/>
     </g>
     <g id="line2d_4">
      <g>
       <use xlink:href="#m57e45d0fc9" x="169.2" y="348.192" style="stroke: #000000; stroke-width: 0.8"/>
      </g>
     </g>
     <g id="text_2">
      <text style="font: 10px 'DejaVu Sans', 'Bitstream Vera Sans', 'Computer Modern Sans Serif', 'Lucida Grande', 'Verdana', 'Geneva', 'Lucid', 'Arial', 'Helvetica', 'Avant Garde', sans-serif; text-anchor: middle" x="169.2" y="362.790438" transform="rotate(-0 169.2 362.790438)">1</text>
     </g>
    </g>
    <g id="xtick_3">
     <g id="line2d_5">
      <path d="M 263.952 348.192 
L 263.952 93.744 
" clip-path="url(#pc7cd1ddb3c)" style="fill: none; stroke: #dfe5e8; stroke-width: 0.65; stroke-linecap: square"/>
     </g>
     <g id="line2d_6">
      <g>
       <use xlink:href="#m57e45d0fc9" x="263.952" y="348.192" style="stroke: #000000; stroke-width: 0.8"/>
      </g>
     </g>
     <g id="text_3">
      <text style="font: 10px 'DejaVu Sans', 'Bitstream Vera Sans', 'Computer Modern Sans Serif', 'Lucida Grande', 'Verdana', 'Geneva', 'Lucid', 'Arial', 'Helvetica', 'Avant Garde', sans-serif; text-anchor: middle" x="263.952" y="362.790438" transform="rotate(-0 263.952 362.790438)">2</text>
     </g>
    </g>
    <g id="xtick_4">
     <g id="line2d_7">
      <path d="M 358.704 348.192 
L 358.704 93.744 
" clip-path="url(#pc7cd1ddb3c)" style="fill: none; stroke: #dfe5e8; stroke-width: 0.65; stroke-linecap: square"/>
     </g>
     <g id="line2d_8">
      <g>
       <use xlink:href="#m57e45d0fc9" x="358.704" y="348.192" style="stroke: #000000; stroke-width: 0.8"/>
      </g>
     </g>
     <g id="text_4">
      <text style="font: 10px 'DejaVu Sans', 'Bitstream Vera Sans', 'Computer Modern Sans Serif', 'Lucida Grande', 'Verdana', 'Geneva', 'Lucid', 'Arial', 'Helvetica', 'Avant Garde', sans-serif; text-anchor: middle" x="358.704" y="362.790438" transform="rotate(-0 358.704 362.790438)">3</text>
     </g>
    </g>
    <g id="xtick_5">
     <g id="line2d_9">
      <path d="M 453.456 348.192 
L 453.456 93.744 
" clip-path="url(#pc7cd1ddb3c)" style="fill: none; stroke: #dfe5e8; stroke-width: 0.65; stroke-linecap: square"/>
     </g>
     <g id="line2d_10">
      <g>
       <use xlink:href="#m57e45d0fc9" x="453.456" y="348.192" style="stroke: #000000; stroke-width: 0.8"/>
      </g>
     </g>
     <g id="text_5">
      <text style="font: 10px 'DejaVu Sans', 'Bitstream Vera Sans', 'Computer Modern Sans Serif', 'Lucida Grande', 'Verdana', 'Geneva', 'Lucid', 'Arial', 'Helvetica', 'Avant Garde', sans-serif; text-anchor: middle" x="453.456" y="362.790438" transform="rotate(-0 453.456 362.790438)">4</text>
     </g>
    </g>
    <g id="xtick_6">
     <g id="line2d_11">
      <path d="M 548.208 348.192 
L 548.208 93.744 
" clip-path="url(#pc7cd1ddb3c)" style="fill: none; stroke: #dfe5e8; stroke-width: 0.65; stroke-linecap: square"/>
     </g>
     <g id="line2d_12">
      <g>
       <use xlink:href="#m57e45d0fc9" x="548.208" y="348.192" style="stroke: #000000; stroke-width: 0.8"/>
      </g>
     </g>
     <g id="text_6">
      <text style="font: 10px 'DejaVu Sans', 'Bitstream Vera Sans', 'Computer Modern Sans Serif', 'Lucida Grande', 'Verdana', 'Geneva', 'Lucid', 'Arial', 'Helvetica', 'Avant Garde', sans-serif; text-anchor: middle" x="548.208" y="362.790438" transform="rotate(-0 548.208 362.790438)">5</text>
     </g>
    </g>
    <g id="xtick_7">
     <g id="line2d_13">
      <path d="M 642.96 348.192 
L 642.96 93.744 
" clip-path="url(#pc7cd1ddb3c)" style="fill: none; stroke: #dfe5e8; stroke-width: 0.65; stroke-linecap: square"/>
     </g>
     <g id="line2d_14">
      <g>
       <use xlink:href="#m57e45d0fc9" x="642.96" y="348.192" style="stroke: #000000; stroke-width: 0.8"/>
      </g>
     </g>
     <g id="text_7">
      <text style="font: 10px 'DejaVu Sans', 'Bitstream Vera Sans', 'Computer Modern Sans Serif', 'Lucida Grande', 'Verdana', 'Geneva', 'Lucid', 'Arial', 'Helvetica', 'Avant Garde', sans-serif; text-anchor: middle" x="642.96" y="362.790438" transform="rotate(-0 642.96 362.790438)">6</text>
     </g>
    </g>
    <g id="text_8">
     <text style="font: 10px 'DejaVu Sans', 'Bitstream Vera Sans', 'Computer Modern Sans Serif', 'Lucida Grande', 'Verdana', 'Geneva', 'Lucid', 'Arial', 'Helvetica', 'Avant Garde', sans-serif; text-anchor: middle" x="358.704" y="376.468563" transform="rotate(-0 358.704 376.468563)">sUCS dE threshold</text>
    </g>
   </g>
   <g id="matplotlib.axis_2">
    <g id="ytick_1">
     <g id="line2d_15">
      <path d="M 74.448 348.192 
L 642.96 348.192 
" clip-path="url(#pc7cd1ddb3c)" style="fill: none; stroke: #dfe5e8; stroke-width: 0.65; stroke-linecap: square"/>
     </g>
     <g id="line2d_16">
      <defs>
       <path id="mcd02751fd0" d="M 0 0 
L -3.5 0 
" style="stroke: #000000; stroke-width: 0.8"/>
      </defs>
      <g>
       <use xlink:href="#mcd02751fd0" x="74.448" y="348.192" style="stroke: #000000; stroke-width: 0.8"/>
      </g>
     </g>
     <g id="text_9">
      <text style="font: 10px 'DejaVu Sans', 'Bitstream Vera Sans', 'Computer Modern Sans Serif', 'Lucida Grande', 'Verdana', 'Geneva', 'Lucid', 'Arial', 'Helvetica', 'Avant Garde', sans-serif; text-anchor: end" x="67.448" y="351.991219" transform="rotate(-0 67.448 351.991219)">0</text>
     </g>
    </g>
    <g id="ytick_2">
     <g id="line2d_17">
      <path d="M 74.448 297.3024 
L 642.96 297.3024 
" clip-path="url(#pc7cd1ddb3c)" style="fill: none; stroke: #dfe5e8; stroke-width: 0.65; stroke-linecap: square"/>
     </g>
     <g id="line2d_18">
      <g>
       <use xlink:href="#mcd02751fd0" x="74.448" y="297.3024" style="stroke: #000000; stroke-width: 0.8"/>
      </g>
     </g>
     <g id="text_10">
      <text style="font: 10px 'DejaVu Sans', 'Bitstream Vera Sans', 'Computer Modern Sans Serif', 'Lucida Grande', 'Verdana', 'Geneva', 'Lucid', 'Arial', 'Helvetica', 'Avant Garde', sans-serif; text-anchor: end" x="67.448" y="301.101619" transform="rotate(-0 67.448 301.101619)">20</text>
     </g>
    </g>
    <g id="ytick_3">
     <g id="line2d_19">
      <path d="M 74.448 246.4128 
L 642.96 246.4128 
" clip-path="url(#pc7cd1ddb3c)" style="fill: none; stroke: #dfe5e8; stroke-width: 0.65; stroke-linecap: square"/>
     </g>
     <g id="line2d_20">
      <g>
       <use xlink:href="#mcd02751fd0" x="74.448" y="246.4128" style="stroke: #000000; stroke-width: 0.8"/>
      </g>
     </g>
     <g id="text_11">
      <text style="font: 10px 'DejaVu Sans', 'Bitstream Vera Sans', 'Computer Modern Sans Serif', 'Lucida Grande', 'Verdana', 'Geneva', 'Lucid', 'Arial', 'Helvetica', 'Avant Garde', sans-serif; text-anchor: end" x="67.448" y="250.212019" transform="rotate(-0 67.448 250.212019)">40</text>
     </g>
    </g>
    <g id="ytick_4">
     <g id="line2d_21">
      <path d="M 74.448 195.5232 
L 642.96 195.5232 
" clip-path="url(#pc7cd1ddb3c)" style="fill: none; stroke: #dfe5e8; stroke-width: 0.65; stroke-linecap: square"/>
     </g>
     <g id="line2d_22">
      <g>
       <use xlink:href="#mcd02751fd0" x="74.448" y="195.5232" style="stroke: #000000; stroke-width: 0.8"/>
      </g>
     </g>
     <g id="text_12">
      <text style="font: 10px 'DejaVu Sans', 'Bitstream Vera Sans', 'Computer Modern Sans Serif', 'Lucida Grande', 'Verdana', 'Geneva', 'Lucid', 'Arial', 'Helvetica', 'Avant Garde', sans-serif; text-anchor: end" x="67.448" y="199.322419" transform="rotate(-0 67.448 199.322419)">60</text>
     </g>
    </g>
    <g id="ytick_5">
     <g id="line2d_23">
      <path d="M 74.448 144.6336 
L 642.96 144.6336 
" clip-path="url(#pc7cd1ddb3c)" style="fill: none; stroke: #dfe5e8; stroke-width: 0.65; stroke-linecap: square"/>
     </g>
     <g id="line2d_24">
      <g>
       <use xlink:href="#mcd02751fd0" x="74.448" y="144.6336" style="stroke: #000000; stroke-width: 0.8"/>
      </g>
     </g>
     <g id="text_13">
      <text style="font: 10px 'DejaVu Sans', 'Bitstream Vera Sans', 'Computer Modern Sans Serif', 'Lucida Grande', 'Verdana', 'Geneva', 'Lucid', 'Arial', 'Helvetica', 'Avant Garde', sans-serif; text-anchor: end" x="67.448" y="148.432819" transform="rotate(-0 67.448 148.432819)">80</text>
     </g>
    </g>
    <g id="ytick_6">
     <g id="line2d_25">
      <path d="M 74.448 93.744 
L 642.96 93.744 
" clip-path="url(#pc7cd1ddb3c)" style="fill: none; stroke: #dfe5e8; stroke-width: 0.65; stroke-linecap: square"/>
     </g>
     <g id="line2d_26">
      <g>
       <use xlink:href="#mcd02751fd0" x="74.448" y="93.744" style="stroke: #000000; stroke-width: 0.8"/>
      </g>
     </g>
     <g id="text_14">
      <text style="font: 10px 'DejaVu Sans', 'Bitstream Vera Sans', 'Computer Modern Sans Serif', 'Lucida Grande', 'Verdana', 'Geneva', 'Lucid', 'Arial', 'Helvetica', 'Avant Garde', sans-serif; text-anchor: end" x="67.448" y="97.543219" transform="rotate(-0 67.448 97.543219)">100</text>
     </g>
    </g>
    <g id="text_15">
     <text style="font: 10px 'DejaVu Sans', 'Bitstream Vera Sans', 'Computer Modern Sans Serif', 'Lucida Grande', 'Verdana', 'Geneva', 'Lucid', 'Arial', 'Helvetica', 'Avant Garde', sans-serif; text-anchor: middle" x="42.280812" y="220.968" transform="rotate(-90 42.280812 220.968)">observers%</text>
    </g>
   </g>
   <g id="line2d_27">
    <path d="M 74.448 348.192 
L 78.23808 348.192 
L 80.13312 345.998483 
L 83.9232 345.998483 
L 85.81824 344.367406 
L 91.50336 344.367406 
L 93.3984 342.173889 
L 95.29344 342.173889 
L 97.18848 339.980371 
L 102.8736 339.980371 
L 104.76864 338.349294 
L 106.66368 334.5247 
L 108.55872 328.506589 
L 110.45376 326.313072 
L 112.3488 326.313072 
L 114.24384 324.681995 
L 116.13888 322.488477 
L 118.03392 320.857401 
L 119.92896 315.401729 
L 123.71904 315.401729 
L 125.61408 311.014695 
L 129.40416 311.014695 
L 131.2992 304.996584 
L 133.19424 304.996584 
L 138.87936 295.210122 
L 140.7744 293.579045 
L 142.66944 293.579045 
L 146.45952 290.316891 
L 148.35456 282.667703 
L 150.2496 282.667703 
L 152.14464 278.843109 
L 154.03968 272.318801 
L 155.93472 269.056647 
L 159.7248 265.794493 
L 161.61984 265.794493 
L 163.51488 261.969899 
L 165.40992 261.969899 
L 167.30496 260.338822 
L 169.2 256.514228 
L 171.09504 249.42748 
L 172.99008 247.796403 
L 174.88512 245.602886 
L 176.78016 236.322621 
L 178.6752 233.060467 
L 180.57024 233.060467 
L 182.46528 229.235873 
L 184.36032 227.604796 
L 186.25536 227.604796 
L 188.1504 224.342642 
L 190.04544 220.518048 
L 191.94048 218.886971 
L 197.6256 218.886971 
L 199.52064 212.868859 
L 201.41568 212.868859 
L 203.31072 210.675342 
L 205.20576 210.675342 
L 207.1008 208.481825 
L 208.99584 203.588594 
L 210.89088 203.588594 
L 212.78592 201.957517 
L 214.68096 197.570483 
L 216.576 195.939406 
L 218.47104 193.745889 
L 220.36608 189.921294 
L 222.26112 189.921294 
L 226.0512 186.659141 
L 229.84128 182.272106 
L 233.63136 179.009952 
L 237.42144 179.009952 
L 239.31648 175.747798 
L 241.21152 174.116721 
L 245.0016 174.116721 
L 246.89664 168.66105 
L 250.68672 168.66105 
L 252.58176 165.398897 
L 254.4768 165.398897 
L 256.37184 161.574302 
L 260.16192 161.574302 
L 263.952 158.312149 
L 269.63712 158.312149 
L 271.53216 149.53808 
L 273.4272 147.344562 
L 275.32224 145.713485 
L 277.21728 145.713485 
L 279.11232 144.082408 
L 281.00736 140.257814 
L 290.48256 140.257814 
L 296.16768 133.677263 
L 298.06272 133.677263 
L 299.95776 131.483745 
L 305.64288 131.483745 
L 307.53792 129.290228 
L 309.43296 129.290228 
L 313.22304 124.903194 
L 315.11808 123.272117 
L 324.59328 123.272117 
L 326.48832 121.078599 
L 328.38336 121.078599 
L 330.2784 118.885082 
L 337.85856 118.885082 
L 339.7536 117.254005 
L 341.64864 115.060488 
L 345.43872 115.060488 
L 347.33376 111.798334 
L 358.704 111.798334 
L 360.59904 107.97374 
L 362.49408 105.780223 
L 368.1792 105.780223 
L 370.07424 104.149146 
L 371.96928 101.955629 
L 381.44448 101.955629 
L 383.33952 98.131034 
L 385.23456 95.937517 
L 443.9808 95.937517 
L 445.87584 93.744 
L 642.96 93.744 
L 642.96 93.744 
" clip-path="url(#pc7cd1ddb3c)" style="fill: none; stroke: #252525; stroke-width: 2.5; stroke-linecap: square"/>
   </g>
   <g id="line2d_28">
    <path d="M 74.448 348.192 
L 89.60832 348.192 
L 91.50336 345.998483 
L 95.29344 345.998483 
L 97.18848 343.804966 
L 100.97856 343.804966 
L 102.8736 341.611448 
L 104.76864 341.611448 
L 106.66368 339.417931 
L 114.24384 339.417931 
L 116.13888 337.224414 
L 118.03392 332.837379 
L 119.92896 332.837379 
L 121.824 330.643862 
L 123.71904 330.643862 
L 125.61408 326.819268 
L 127.50912 325.188191 
L 136.98432 325.188191 
L 140.7744 316.414122 
L 144.56448 316.414122 
L 146.45952 314.220605 
L 148.35456 312.589528 
L 152.14464 308.202493 
L 154.03968 308.202493 
L 157.82976 303.815459 
L 159.7248 303.815459 
L 161.61984 299.990865 
L 169.2 299.990865 
L 171.09504 295.60383 
L 172.99008 295.60383 
L 174.88512 293.410313 
L 176.78016 287.392202 
L 178.6752 283.005167 
L 180.57024 279.743013 
L 182.46528 275.355979 
L 184.36032 273.724902 
L 186.25536 269.900308 
L 188.1504 268.269231 
L 190.04544 264.444637 
L 191.94048 262.251119 
L 193.83552 257.864085 
L 195.73056 254.039491 
L 197.6256 251.845973 
L 203.31072 251.845973 
L 205.20576 246.390302 
L 207.1008 246.390302 
L 208.99584 237.616233 
L 210.89088 237.616233 
L 212.78592 233.229199 
L 216.576 233.229199 
L 218.47104 229.967045 
L 220.36608 229.967045 
L 222.26112 224.511374 
L 224.15616 224.511374 
L 226.0512 220.68678 
L 227.94624 220.68678 
L 229.84128 216.862186 
L 231.73632 213.600032 
L 233.63136 209.775438 
L 239.31648 209.775438 
L 241.21152 205.388403 
L 243.10656 201.563809 
L 246.89664 197.176775 
L 248.79168 193.914621 
L 252.58176 193.914621 
L 254.4768 188.45895 
L 256.37184 188.45895 
L 258.26688 184.634355 
L 260.16192 183.003279 
L 262.05696 180.809761 
L 265.84704 177.547607 
L 269.63712 177.547607 
L 271.53216 175.916531 
L 273.4272 175.916531 
L 275.32224 173.723013 
L 277.21728 173.723013 
L 279.11232 172.091936 
L 282.9024 172.091936 
L 284.79744 169.898419 
L 286.69248 169.898419 
L 288.58752 168.267342 
L 290.48256 168.267342 
L 292.3776 165.005188 
L 294.27264 165.005188 
L 298.06272 161.743034 
L 299.95776 161.743034 
L 301.8528 160.111958 
L 303.74784 160.111958 
L 305.64288 158.480881 
L 307.53792 155.218727 
L 309.43296 153.02521 
L 311.328 149.763056 
L 313.22304 148.131979 
L 315.11808 143.238748 
L 317.01312 141.607671 
L 324.59328 141.607671 
L 326.48832 139.976594 
L 328.38336 137.783077 
L 332.17344 137.783077 
L 334.06848 136.152 
L 337.85856 136.152 
L 339.7536 134.520923 
L 343.54368 134.520923 
L 347.33376 131.258769 
L 354.91392 131.258769 
L 356.80896 129.627692 
L 358.704 126.365538 
L 364.38912 126.365538 
L 368.1792 123.103385 
L 373.86432 123.103385 
L 375.75936 119.841231 
L 379.54944 119.841231 
L 385.23456 114.948 
L 389.02464 114.948 
L 390.91968 113.316923 
L 392.81472 113.316923 
L 396.6048 110.054769 
L 406.08 110.054769 
L 409.87008 106.792615 
L 413.66016 106.792615 
L 415.5552 105.161538 
L 440.19072 105.161538 
L 442.08576 103.530462 
L 468.61632 103.530462 
L 472.4064 100.268308 
L 481.8816 100.268308 
L 483.77664 98.637231 
L 493.25184 98.637231 
L 495.14688 97.006154 
L 498.93696 97.006154 
L 500.832 95.375077 
L 508.41216 95.375077 
L 510.3072 93.744 
L 642.96 93.744 
L 642.96 93.744 
" clip-path="url(#pc7cd1ddb3c)" style="fill: none; stroke: #3b83b4; stroke-width: 1.35; stroke-linecap: square"/>
   </g>
   <g id="line2d_29">
    <path d="M 74.448 348.192 
L 89.60832 348.192 
L 91.50336 346.560923 
L 93.3984 346.560923 
L 95.29344 343.298769 
L 99.08352 343.298769 
L 100.97856 341.667692 
L 102.8736 341.667692 
L 104.76864 338.405538 
L 108.55872 335.143385 
L 110.45376 331.881231 
L 112.3488 326.42556 
L 114.24384 323.163406 
L 116.13888 323.163406 
L 118.03392 321.532329 
L 121.824 321.532329 
L 123.71904 319.338812 
L 125.61408 319.338812 
L 127.50912 317.707735 
L 129.40416 314.445581 
L 133.19424 306.796393 
L 135.08928 306.796393 
L 136.98432 303.534239 
L 140.7744 303.534239 
L 142.66944 300.272085 
L 144.56448 296.447491 
L 146.45952 294.816414 
L 148.35456 288.798302 
L 150.2496 285.536149 
L 152.14464 283.342631 
L 154.03968 277.88696 
L 155.93472 277.88696 
L 157.82976 276.255883 
L 159.7248 274.062366 
L 161.61984 268.606695 
L 163.51488 268.606695 
L 165.40992 262.082387 
L 167.30496 259.88887 
L 169.2 258.257793 
L 171.09504 256.064276 
L 172.99008 252.802122 
L 174.88512 248.977528 
L 176.78016 248.977528 
L 178.6752 244.084297 
L 180.57024 244.084297 
L 182.46528 242.45322 
L 184.36032 236.997549 
L 186.25536 236.997549 
L 188.1504 235.366472 
L 190.04544 233.172955 
L 191.94048 229.910801 
L 193.83552 224.45513 
L 195.73056 219.561899 
L 199.52064 216.299745 
L 207.1008 216.299745 
L 212.78592 211.406515 
L 214.68096 208.144361 
L 216.576 205.950844 
L 220.36608 202.68869 
L 227.94624 202.68869 
L 229.84128 200.495172 
L 231.73632 198.864095 
L 235.5264 194.477061 
L 237.42144 190.090027 
L 243.10656 190.090027 
L 245.0016 187.896509 
L 246.89664 186.265432 
L 248.79168 186.265432 
L 252.58176 181.878398 
L 254.4768 181.878398 
L 256.37184 179.684881 
L 258.26688 179.684881 
L 260.16192 178.053804 
L 265.84704 178.053804 
L 267.74208 172.035692 
L 269.63712 170.404615 
L 277.21728 170.404615 
L 279.11232 166.580021 
L 281.00736 166.580021 
L 282.9024 164.948944 
L 284.79744 161.12435 
L 288.58752 156.737316 
L 290.48256 156.737316 
L 292.3776 155.106239 
L 294.27264 151.281645 
L 299.95776 151.281645 
L 301.8528 149.650568 
L 315.11808 149.650568 
L 317.01312 145.825973 
L 318.90816 145.825973 
L 320.8032 144.194897 
L 322.69824 144.194897 
L 324.59328 142.001379 
L 335.96352 142.001379 
L 339.7536 133.22731 
L 341.64864 131.033793 
L 349.2288 131.033793 
L 351.12384 128.840276 
L 356.80896 128.840276 
L 358.704 126.646759 
L 360.59904 126.646759 
L 362.49408 122.259724 
L 368.1792 122.259724 
L 370.07424 120.066207 
L 375.75936 120.066207 
L 377.6544 117.87269 
L 379.54944 117.87269 
L 381.44448 113.485655 
L 396.6048 113.485655 
L 398.49984 109.098621 
L 409.87008 109.098621 
L 411.76512 106.905103 
L 425.0304 106.905103 
L 426.92544 104.711586 
L 430.71552 104.711586 
L 432.61056 102.518069 
L 438.29568 102.518069 
L 440.19072 100.324552 
L 451.56096 100.324552 
L 455.35104 95.937517 
L 512.20224 95.937517 
L 514.09728 93.744 
L 642.96 93.744 
L 642.96 93.744 
" clip-path="url(#pc7cd1ddb3c)" style="fill: none; stroke-dasharray: 4.995,2.16; stroke-dashoffset: 0; stroke: #c38a19; stroke-width: 1.35"/>
   </g>
   <g id="line2d_30">
    <path d="M 74.448 348.192 
L 87.71328 348.192 
L 89.60832 345.998483 
L 91.50336 345.998483 
L 93.3984 343.804966 
L 95.29344 343.804966 
L 97.18848 342.173889 
L 104.76864 342.173889 
L 106.66368 340.542812 
L 112.3488 340.542812 
L 114.24384 336.155777 
L 118.03392 336.155777 
L 119.92896 333.96226 
L 121.824 332.331183 
L 125.61408 332.331183 
L 127.50912 330.700106 
L 135.08928 330.700106 
L 136.98432 326.313072 
L 138.87936 326.313072 
L 140.7744 324.119554 
L 142.66944 322.488477 
L 146.45952 318.101443 
L 150.2496 318.101443 
L 152.14464 314.839289 
L 154.03968 314.839289 
L 155.93472 313.208212 
L 159.7248 305.559024 
L 161.61984 303.365507 
L 165.40992 303.365507 
L 167.30496 297.909836 
L 169.2 296.278759 
L 171.09504 293.016605 
L 172.99008 291.385528 
L 174.88512 283.73634 
L 176.78016 276.649592 
L 180.57024 272.262557 
L 184.36032 269.000403 
L 186.25536 266.806886 
L 188.1504 265.175809 
L 190.04544 260.282578 
L 191.94048 258.651501 
L 193.83552 255.389347 
L 195.73056 249.933676 
L 199.52064 249.933676 
L 207.1008 243.409369 
L 208.99584 236.885061 
L 210.89088 235.253984 
L 212.78592 235.253984 
L 216.576 225.467523 
L 218.47104 219.449411 
L 220.36608 216.187257 
L 224.15616 208.538069 
L 226.0512 202.519958 
L 227.94624 202.519958 
L 229.84128 195.99565 
L 231.73632 192.171056 
L 235.5264 192.171056 
L 237.42144 188.346462 
L 239.31648 186.715385 
L 241.21152 182.89079 
L 243.10656 180.697273 
L 245.0016 180.697273 
L 246.89664 179.066196 
L 248.79168 174.172966 
L 250.68672 171.979448 
L 252.58176 167.592414 
L 256.37184 167.592414 
L 258.26688 164.33026 
L 260.16192 164.33026 
L 262.05696 162.699183 
L 269.63712 162.699183 
L 271.53216 161.068106 
L 273.4272 161.068106 
L 275.32224 158.874589 
L 282.9024 158.874589 
L 284.79744 156.681072 
L 286.69248 155.049995 
L 288.58752 152.856477 
L 292.3776 152.856477 
L 294.27264 149.031883 
L 296.16768 149.031883 
L 298.06272 147.400806 
L 299.95776 147.400806 
L 305.64288 140.820255 
L 313.22304 140.820255 
L 315.11808 136.99566 
L 318.90816 136.99566 
L 320.8032 135.364584 
L 322.69824 133.171066 
L 332.17344 133.171066 
L 334.06848 126.590515 
L 335.96352 124.396997 
L 337.85856 124.396997 
L 339.7536 122.20348 
L 343.54368 122.20348 
L 345.43872 118.378886 
L 347.33376 115.116732 
L 353.01888 115.116732 
L 354.91392 113.485655 
L 358.704 113.485655 
L 360.59904 111.292138 
L 370.07424 111.292138 
L 371.96928 109.098621 
L 375.75936 109.098621 
L 377.6544 106.905103 
L 385.23456 106.905103 
L 387.1296 104.711586 
L 396.6048 104.711586 
L 398.49984 102.518069 
L 406.08 102.518069 
L 407.97504 100.324552 
L 411.76512 100.324552 
L 415.5552 95.937517 
L 462.9312 95.937517 
L 464.82624 93.744 
L 642.96 93.744 
L 642.96 93.744 
" clip-path="url(#pc7cd1ddb3c)" style="fill: none; stroke-dasharray: 1.35,2.2275; stroke-dashoffset: 0; stroke: #7d8a92; stroke-width: 1.35"/>
   </g>
   <g id="line2d_31">
    <path d="M 74.448 348.192 
L 131.2992 348.192 
L 133.19424 345.998483 
L 136.98432 345.998483 
L 138.87936 343.804966 
L 155.93472 343.804966 
L 157.82976 341.611448 
L 163.51488 341.611448 
L 165.40992 337.224414 
L 167.30496 335.030897 
L 172.99008 335.030897 
L 176.78016 330.643862 
L 178.6752 330.643862 
L 180.57024 329.012785 
L 182.46528 326.819268 
L 191.94048 326.819268 
L 193.83552 322.432233 
L 195.73056 322.432233 
L 197.6256 320.238716 
L 199.52064 320.238716 
L 201.41568 315.851682 
L 203.31072 313.658164 
L 208.99584 313.658164 
L 210.89088 311.464647 
L 214.68096 311.464647 
L 216.576 309.27113 
L 218.47104 309.27113 
L 220.36608 304.884095 
L 222.26112 304.884095 
L 224.15616 302.690578 
L 226.0512 301.059501 
L 227.94624 297.234907 
L 229.84128 290.654355 
L 231.73632 289.023279 
L 233.63136 286.829761 
L 235.5264 282.442727 
L 241.21152 275.862175 
L 243.10656 275.862175 
L 245.0016 273.668658 
L 246.89664 273.668658 
L 248.79168 269.281623 
L 252.58176 269.281623 
L 254.4768 267.088106 
L 256.37184 267.088106 
L 260.16192 262.701072 
L 263.952 262.701072 
L 265.84704 260.507554 
L 267.74208 260.507554 
L 269.63712 258.314037 
L 275.32224 258.314037 
L 277.21728 256.68296 
L 279.11232 254.489443 
L 281.00736 254.489443 
L 282.9024 246.277814 
L 284.79744 246.277814 
L 286.69248 242.45322 
L 288.58752 240.822143 
L 290.48256 235.366472 
L 292.3776 233.735395 
L 294.27264 231.541878 
L 296.16768 229.910801 
L 298.06272 229.910801 
L 299.95776 227.717284 
L 301.8528 226.086207 
L 303.74784 223.89269 
L 305.64288 222.261613 
L 307.53792 220.068095 
L 309.43296 220.068095 
L 311.328 216.243501 
L 313.22304 214.049984 
L 315.11808 209.66295 
L 317.01312 209.66295 
L 318.90816 207.469432 
L 320.8032 205.838355 
L 322.69824 198.751607 
L 326.48832 198.751607 
L 328.38336 197.120531 
L 332.17344 197.120531 
L 334.06848 194.927013 
L 337.85856 188.402706 
L 339.7536 186.771629 
L 345.43872 186.771629 
L 347.33376 185.140552 
L 349.2288 185.140552 
L 354.91392 180.247321 
L 356.80896 180.247321 
L 358.704 178.616244 
L 362.49408 178.616244 
L 364.38912 176.985167 
L 366.28416 173.160573 
L 368.1792 171.529496 
L 375.75936 171.529496 
L 377.6544 169.898419 
L 381.44448 169.898419 
L 383.33952 166.073825 
L 385.23456 166.073825 
L 389.02464 162.811671 
L 392.81472 162.811671 
L 394.70976 161.180594 
L 396.6048 161.180594 
L 398.49984 157.91844 
L 400.39488 153.02521 
L 404.18496 149.763056 
L 406.08 149.763056 
L 407.97504 148.131979 
L 409.87008 144.307385 
L 415.5552 139.414154 
L 421.24032 139.414154 
L 426.92544 134.520923 
L 436.40064 134.520923 
L 440.19072 131.258769 
L 447.77088 131.258769 
L 449.66592 126.365538 
L 451.56096 126.365538 
L 453.456 124.734462 
L 457.24608 124.734462 
L 459.14112 123.103385 
L 462.9312 123.103385 
L 464.82624 121.472308 
L 468.61632 121.472308 
L 470.51136 119.841231 
L 472.4064 116.579077 
L 476.19648 116.579077 
L 478.09152 114.948 
L 479.98656 114.948 
L 481.8816 113.316923 
L 483.77664 110.054769 
L 493.25184 110.054769 
L 495.14688 108.423692 
L 497.04192 108.423692 
L 498.93696 106.792615 
L 504.62208 106.792615 
L 506.51712 105.161538 
L 519.7824 105.161538 
L 521.67744 103.530462 
L 546.31296 103.530462 
L 548.208 101.899385 
L 553.89312 101.899385 
L 555.78816 100.268308 
L 576.6336 100.268308 
L 578.52864 98.637231 
L 580.42368 98.637231 
L 582.31872 95.375077 
L 586.1088 95.375077 
L 588.00384 93.744 
L 642.96 93.744 
L 642.96 93.744 
" clip-path="url(#pc7cd1ddb3c)" style="fill: none; stroke-dasharray: 8.64,2.16,1.35,2.16; stroke-dashoffset: 0; stroke: #d0526a; stroke-width: 1.35"/>
   </g>
   <g id="line2d_32">
    <path d="M 74.448 348.192 
L 89.60832 348.192 
L 91.50336 345.998483 
L 112.3488 345.998483 
L 114.24384 343.804966 
L 116.13888 343.804966 
L 118.03392 341.611448 
L 121.824 341.611448 
L 123.71904 339.417931 
L 127.50912 339.417931 
L 131.2992 335.030897 
L 135.08928 335.030897 
L 136.98432 332.837379 
L 138.87936 332.837379 
L 140.7744 330.643862 
L 142.66944 326.256828 
L 146.45952 326.256828 
L 148.35456 324.06331 
L 150.2496 322.432233 
L 152.14464 318.045199 
L 161.61984 318.045199 
L 163.51488 315.851682 
L 167.30496 315.851682 
L 169.2 313.658164 
L 172.99008 313.658164 
L 174.88512 307.640053 
L 176.78016 307.640053 
L 180.57024 304.377899 
L 182.46528 299.990865 
L 184.36032 297.797347 
L 186.25536 293.410313 
L 188.1504 293.410313 
L 191.94048 289.023279 
L 195.73056 289.023279 
L 197.6256 286.829761 
L 199.52064 282.442727 
L 201.41568 282.442727 
L 203.31072 280.24921 
L 205.20576 275.862175 
L 210.89088 275.862175 
L 214.68096 271.475141 
L 216.576 271.475141 
L 218.47104 267.088106 
L 222.26112 262.701072 
L 224.15616 262.701072 
L 226.0512 260.507554 
L 227.94624 258.876477 
L 231.73632 258.876477 
L 235.5264 254.489443 
L 237.42144 254.489443 
L 239.31648 251.227289 
L 241.21152 245.771618 
L 243.10656 241.384584 
L 246.89664 238.12243 
L 248.79168 238.12243 
L 250.68672 236.491353 
L 252.58176 234.297836 
L 256.37184 234.297836 
L 258.26688 232.666759 
L 260.16192 230.473241 
L 262.05696 226.648647 
L 263.952 224.45513 
L 265.84704 220.630536 
L 267.74208 220.630536 
L 269.63712 211.856467 
L 271.53216 210.22539 
L 273.4272 206.963236 
L 277.21728 206.963236 
L 281.00736 203.701082 
L 282.9024 203.701082 
L 284.79744 201.507565 
L 286.69248 197.682971 
L 290.48256 194.420817 
L 292.3776 194.420817 
L 296.16768 190.033782 
L 298.06272 190.033782 
L 299.95776 188.402706 
L 301.8528 188.402706 
L 307.53792 183.509475 
L 309.43296 183.509475 
L 313.22304 180.247321 
L 315.11808 180.247321 
L 317.01312 178.616244 
L 318.90816 175.35409 
L 320.8032 173.160573 
L 326.48832 173.160573 
L 328.38336 171.529496 
L 334.06848 171.529496 
L 335.96352 169.898419 
L 339.7536 169.898419 
L 341.64864 167.704902 
L 343.54368 167.704902 
L 349.2288 162.811671 
L 353.01888 162.811671 
L 354.91392 159.549517 
L 356.80896 157.91844 
L 358.704 157.91844 
L 366.28416 151.394133 
L 371.96928 141.607671 
L 377.6544 141.607671 
L 379.54944 139.414154 
L 381.44448 139.414154 
L 383.33952 137.783077 
L 387.1296 137.783077 
L 389.02464 136.152 
L 390.91968 136.152 
L 392.81472 134.520923 
L 398.49984 134.520923 
L 402.28992 131.258769 
L 411.76512 131.258769 
L 413.66016 126.365538 
L 417.45024 126.365538 
L 419.34528 124.734462 
L 421.24032 124.734462 
L 423.13536 123.103385 
L 426.92544 123.103385 
L 428.82048 121.472308 
L 430.71552 121.472308 
L 432.61056 119.841231 
L 434.5056 119.841231 
L 436.40064 118.210154 
L 438.29568 118.210154 
L 440.19072 114.948 
L 443.9808 114.948 
L 445.87584 113.316923 
L 447.77088 113.316923 
L 451.56096 110.054769 
L 461.03616 110.054769 
L 462.9312 106.792615 
L 468.61632 106.792615 
L 470.51136 105.161538 
L 491.3568 105.161538 
L 493.25184 103.530462 
L 519.7824 103.530462 
L 523.57248 100.268308 
L 538.7328 100.268308 
L 540.62784 98.637231 
L 548.208 98.637231 
L 551.99808 95.375077 
L 557.6832 95.375077 
L 559.57824 93.744 
L 642.96 93.744 
L 642.96 93.744 
" clip-path="url(#pc7cd1ddb3c)" style="fill: none; stroke-dasharray: 6.75,2.7,1.35,2.7; stroke-dashoffset: 0; stroke: #2f8f84; stroke-width: 1.35"/>
   </g>
   <g id="patch_4">
    <path d="M 74.448 348.192 
L 74.448 93.744 
" style="fill: none; stroke: #000000; stroke-width: 0.8; stroke-linejoin: miter; stroke-linecap: square"/>
   </g>
   <g id="patch_5">
    <path d="M 74.448 348.192 
L 642.96 348.192 
" style="fill: none; stroke: #000000; stroke-width: 0.8; stroke-linejoin: miter; stroke-linecap: square"/>
   </g>
  </g>
  <g id="text_16">
   <text style="font: 18px 'DejaVu Sans', 'Bitstream Vera Sans', 'Computer Modern Sans Serif', 'Lucida Grande', 'Verdana', 'Geneva', 'Lucid', 'Arial', 'Helvetica', 'Avant Garde', sans-serif; text-anchor: start" x="74.448" y="38.229188" transform="rotate(-0 74.448 38.229188)">QDEF LCD → QD-OLED</text>
  </g>
  <g id="text_17">
   <text style="fill: #66747c; font: 10px 'DejaVu Sans', 'Bitstream Vera Sans', 'Computer Modern Sans Serif', 'Lucida Grande', 'Verdana', 'Geneva', 'Lucid', 'Arial', 'Helvetica', 'Avant Garde', sans-serif; text-anchor: start" x="74.448" y="64.728" transform="rotate(-0 74.448 64.728)">LED-BH1</text>
  </g>
  <g id="legend_1">
   <g id="line2d_33">
    <path d="M 185.17875 404.151391 
L 194.27875 404.151391 
L 203.37875 404.151391 
" style="fill: none; stroke: #252525; stroke-width: 2.5; stroke-linecap: square"/>
   </g>
   <g id="text_18">
    <text style="font: 9.1px 'DejaVu Sans', 'Bitstream Vera Sans', 'Computer Modern Sans Serif', 'Lucida Grande', 'Verdana', 'Geneva', 'Lucid', 'Arial', 'Helvetica', 'Avant Garde', sans-serif; text-anchor: start" x="210.65875" y="407.336391" transform="rotate(-0 210.65875 407.336391)">Potera CMF</text>
   </g>
   <g id="line2d_34">
    <path d="M 185.17875 417.508484 
L 194.27875 417.508484 
L 203.37875 417.508484 
" style="fill: none; stroke: #3b83b4; stroke-width: 1.35; stroke-linecap: square"/>
   </g>
   <g id="text_19">
    <text style="font: 9.1px 'DejaVu Sans', 'Bitstream Vera Sans', 'Computer Modern Sans Serif', 'Lucida Grande', 'Verdana', 'Geneva', 'Lucid', 'Arial', 'Helvetica', 'Avant Garde', sans-serif; text-anchor: start" x="210.65875" y="420.693484" transform="rotate(-0 210.65875 420.693484)">CIE 2015 2°</text>
   </g>
   <g id="line2d_35">
    <path d="M 282.931234 404.151391 
L 292.031234 404.151391 
L 301.131234 404.151391 
" style="fill: none; stroke-dasharray: 4.995,2.16; stroke-dashoffset: 0; stroke: #c38a19; stroke-width: 1.35"/>
   </g>
   <g id="text_20">
    <text style="font: 9.1px 'DejaVu Sans', 'Bitstream Vera Sans', 'Computer Modern Sans Serif', 'Lucida Grande', 'Verdana', 'Geneva', 'Lucid', 'Arial', 'Helvetica', 'Avant Garde', sans-serif; text-anchor: start" x="308.411234" y="407.336391" transform="rotate(-0 308.411234 407.336391)">CIE 2015 10°</text>
   </g>
   <g id="line2d_36">
    <path d="M 282.931234 417.508484 
L 292.031234 417.508484 
L 301.131234 417.508484 
" style="fill: none; stroke-dasharray: 1.35,2.2275; stroke-dashoffset: 0; stroke: #7d8a92; stroke-width: 1.35"/>
   </g>
   <g id="text_21">
    <text style="font: 9.1px 'DejaVu Sans', 'Bitstream Vera Sans', 'Computer Modern Sans Serif', 'Lucida Grande', 'Verdana', 'Geneva', 'Lucid', 'Arial', 'Helvetica', 'Avant Garde', sans-serif; text-anchor: start" x="308.411234" y="420.693484" transform="rotate(-0 308.411234 420.693484)">CIE 1964 10°</text>
   </g>
   <g id="line2d_37">
    <path d="M 386.473594 404.151391 
L 395.573594 404.151391 
L 404.673594 404.151391 
" style="fill: none; stroke-dasharray: 8.64,2.16,1.35,2.16; stroke-dashoffset: 0; stroke: #d0526a; stroke-width: 1.35"/>
   </g>
   <g id="text_22">
    <text style="font: 9.1px 'DejaVu Sans', 'Bitstream Vera Sans', 'Computer Modern Sans Serif', 'Lucida Grande', 'Verdana', 'Geneva', 'Lucid', 'Arial', 'Helvetica', 'Avant Garde', sans-serif; text-anchor: start" x="411.953594" y="407.336391" transform="rotate(-0 411.953594 407.336391)">CIE 1931 2°</text>
   </g>
   <g id="line2d_38">
    <path d="M 386.473594 417.508484 
L 395.573594 417.508484 
L 404.673594 417.508484 
" style="fill: none; stroke-dasharray: 6.75,2.7,1.35,2.7; stroke-dashoffset: 0; stroke: #2f8f84; stroke-width: 1.35"/>
   </g>
   <g id="text_23">
    <text style="font: 9.1px 'DejaVu Sans', 'Bitstream Vera Sans', 'Computer Modern Sans Serif', 'Lucida Grande', 'Verdana', 'Geneva', 'Lucid', 'Arial', 'Helvetica', 'Avant Garde', sans-serif; text-anchor: start" x="411.953594" y="420.693484" transform="rotate(-0 411.953594 420.693484)">Judd–Vos 1978 2°</text>
   </g>
  </g>
 </g>
 <defs>
  <clipPath id="pc7cd1ddb3c">
   <rect x="74.448" y="93.744" width="568.512" height="254.448"/>
  </clipPath>
 </defs>
</svg>
