<?xml version="1.0" encoding="utf-8" standalone="no"?>
<!DOCTYPE svg PUBLIC "-//W3C//DTD SVG 1.1//EN"
  "http://www.w3.org/Graphics/SVG/1.1/DTD/svg11.dtd">
<svg xmlns:xlink="http://www.w3.org/1999/xlink" width="676.8pt" height="446.4pt" viewBox="0 0 676.8 446.4" xmlns="http://www.w3.org/2000/svg" version="1.1">
 <metadata>
  <rdf:RDF xmlns:dc="http://purl.org/dc/elements/1.1/" xmlns:cc="http://creativecommons.org/ns#" xmlns:rdf="http://www.w3.org/1999/02/22-rdf-syntax-ns#">
   <cc:Work>
    <dc:type rdf:resource="http://purl.org/dc/dcmitype/StillImage"/>
    <dc:date>2026-07-20T06:41:56.695507</dc:date>
    <dc:format>image/svg+xml</dc:format>
    <dc:creator>
     <cc:Agent>
      <dc:title>Matplotlib v3.9.4, https://matplotlib.org/</dc:title>
     </cc:Agent>
    </dc:creator>
   </cc:Work>
  </rdf:RDF>
 </metadata>
 <defs>
  <style type="text/css">*{stroke-linejoin: round; stroke-linecap: butt}</style>
 </defs>
 <g id="figure_1">
  <g id="patch_1">
   <path d="M 0 446.4 
L 676.8 446.4 
L 676.8 0 
L 0 0 
z
" style="fill: #ffffff"/>
  </g>
  <g id="axes_1">
   <g id="patch_2">
    <path d="M 74.448 348.192 
L 642.96 348.192 
L 642.96 93.744 
L 74.448 93.744 
z
" style="fill: #ffffff"/>
   </g>
   <g id="patch_3">
    <path d="M 169.2 348.192 
L 358.704 348.192 
L 358.704 93.744 
L 169.2 93.744 
z
" clip-path="url(#p6a420e9d94)" style="fill: #e7f0ea; opacity: 0.58; stroke: #e7f0ea; stroke-linejoin: miter"/>
   </g>
   <g id="matplotlib.axis_1">
    <g id="xtick_1">
     <g id="line2d_1">
      <path d="M 74.448 348.192 
L 74.448 93.744 
" clip-path="url(#p6a420e9d94)" style="fill: none; stroke: #dfe5e8; stroke-width: 0.65; stroke-linecap: square"/>
     </g>
     <g id="line2d_2">
      <defs>
       <path id="m53708007ad" d="M 0 0 
L 0 3.5 
" style="stroke: #000000; stroke-width: 0.8"/>
      </defs>
      <g>
       <use xlink:href="#m53708007ad" x="74.448" y="348.192" style="stroke: #000000; stroke-width: 0.8"/>
      </g>
     </g>
     <g id="text_1">
      <text style="font: 10px 'DejaVu Sans', 'Bitstream Vera Sans', 'Computer Modern Sans Serif', 'Lucida Grande', 'Verdana', 'Geneva', 'Lucid', 'Arial', 'Helvetica', 'Avant Garde', sans-serif; text-anchor: middle" x="74.448" y="362.790438" transform="rotate(-0 74.448 362.790438)">0</text>
     </g>
    </g>
    <g id="xtick_2">
     <g id="line2d_3">
      <path d="M 169.2 348.192 
L 169.2 93.744 
" clip-path="url(#p6a420e9d94)" style="fill: none; stroke: #dfe5e8; stroke-width: 0.65; stroke-linecap: square"/>
     </g>
     <g id="line2d_4">
      <g>
       <use xlink:href="#m53708007ad" x="169.2" y="348.192" style="stroke: #000000; stroke-width: 0.8"/>
      </g>
     </g>
     <g id="text_2">
      <text style="font: 10px 'DejaVu Sans', 'Bitstream Vera Sans', 'Computer Modern Sans Serif', 'Lucida Grande', 'Verdana', 'Geneva', 'Lucid', 'Arial', 'Helvetica', 'Avant Garde', sans-serif; text-anchor: middle" x="169.2" y="362.790438" transform="rotate(-0 169.2 362.790438)">1</text>
     </g>
    </g>
    <g id="xtick_3">
     <g id="line2d_5">
      <path d="M 263.952 348.192 
L 263.952 93.744 
" clip-path="url(#p6a420e9d94)" style="fill: none; stroke: #dfe5e8; stroke-width: 0.65; stroke-linecap: square"/>
     </g>
     <g id="line2d_6">
      <g>
       <use xlink:href="#m53708007ad" x="263.952" y="348.192" style="stroke: #000000; stroke-width: 0.8"/>
      </g>
     </g>
     <g id="text_3">
      <text style="font: 10px 'DejaVu Sans', 'Bitstream Vera Sans', 'Computer Modern Sans Serif', 'Lucida Grande', 'Verdana', 'Geneva', 'Lucid', 'Arial', 'Helvetica', 'Avant Garde', sans-serif; text-anchor: middle" x="263.952" y="362.790438" transform="rotate(-0 263.952 362.790438)">2</text>
     </g>
    </g>
    <g id="xtick_4">
     <g id="line2d_7">
      <path d="M 358.704 348.192 
L 358.704 93.744 
" clip-path="url(#p6a420e9d94)" style="fill: none; stroke: #dfe5e8; stroke-width: 0.65; stroke-linecap: square"/>
     </g>
     <g id="line2d_8">
      <g>
       <use xlink:href="#m53708007ad" x="358.704" y="348.192" style="stroke: #000000; stroke-width: 0.8"/>
      </g>
     </g>
     <g id="text_4">
      <text style="font: 10px 'DejaVu Sans', 'Bitstream Vera Sans', 'Computer Modern Sans Serif', 'Lucida Grande', 'Verdana', 'Geneva', 'Lucid', 'Arial', 'Helvetica', 'Avant Garde', sans-serif; text-anchor: middle" x="358.704" y="362.790438" transform="rotate(-0 358.704 362.790438)">3</text>
     </g>
    </g>
    <g id="xtick_5">
     <g id="line2d_9">
      <path d="M 453.456 348.192 
L 453.456 93.744 
" clip-path="url(#p6a420e9d94)" style="fill: none; stroke: #dfe5e8; stroke-width: 0.65; stroke-linecap: square"/>
     </g>
     <g id="line2d_10">
      <g>
       <use xlink:href="#m53708007ad" x="453.456" y="348.192" style="stroke: #000000; stroke-width: 0.8"/>
      </g>
     </g>
     <g id="text_5">
      <text style="font: 10px 'DejaVu Sans', 'Bitstream Vera Sans', 'Computer Modern Sans Serif', 'Lucida Grande', 'Verdana', 'Geneva', 'Lucid', 'Arial', 'Helvetica', 'Avant Garde', sans-serif; text-anchor: middle" x="453.456" y="362.790438" transform="rotate(-0 453.456 362.790438)">4</text>
     </g>
    </g>
    <g id="xtick_6">
     <g id="line2d_11">
      <path d="M 548.208 348.192 
L 548.208 93.744 
" clip-path="url(#p6a420e9d94)" style="fill: none; stroke: #dfe5e8; stroke-width: 0.65; stroke-linecap: square"/>
     </g>
     <g id="line2d_12">
      <g>
       <use xlink:href="#m53708007ad" x="548.208" y="348.192" style="stroke: #000000; stroke-width: 0.8"/>
      </g>
     </g>
     <g id="text_6">
      <text style="font: 10px 'DejaVu Sans', 'Bitstream Vera Sans', 'Computer Modern Sans Serif', 'Lucida Grande', 'Verdana', 'Geneva', 'Lucid', 'Arial', 'Helvetica', 'Avant Garde', sans-serif; text-anchor: middle" x="548.208" y="362.790438" transform="rotate(-0 548.208 362.790438)">5</text>
     </g>
    </g>
    <g id="xtick_7">
     <g id="line2d_13">
      <path d="M 642.96 348.192 
L 642.96 93.744 
" clip-path="url(#p6a420e9d94)" style="fill: none; stroke: #dfe5e8; stroke-width: 0.65; stroke-linecap: square"/>
     </g>
     <g id="line2d_14">
      <g>
       <use xlink:href="#m53708007ad" x="642.96" y="348.192" style="stroke: #000000; stroke-width: 0.8"/>
      </g>
     </g>
     <g id="text_7">
      <text style="font: 10px 'DejaVu Sans', 'Bitstream Vera Sans', 'Computer Modern Sans Serif', 'Lucida Grande', 'Verdana', 'Geneva', 'Lucid', 'Arial', 'Helvetica', 'Avant Garde', sans-serif; text-anchor: middle" x="642.96" y="362.790438" transform="rotate(-0 642.96 362.790438)">6</text>
     </g>
    </g>
    <g id="text_8">
     <text style="font: 10px 'DejaVu Sans', 'Bitstream Vera Sans', 'Computer Modern Sans Serif', 'Lucida Grande', 'Verdana', 'Geneva', 'Lucid', 'Arial', 'Helvetica', 'Avant Garde', sans-serif; text-anchor: middle" x="358.704" y="376.468563" transform="rotate(-0 358.704 376.468563)">sUCS dE threshold</text>
    </g>
   </g>
   <g id="matplotlib.axis_2">
    <g id="ytick_1">
     <g id="line2d_15">
      <path d="M 74.448 348.192 
L 642.96 348.192 
" clip-path="url(#p6a420e9d94)" style="fill: none; stroke: #dfe5e8; stroke-width: 0.65; stroke-linecap: square"/>
     </g>
     <g id="line2d_16">
      <defs>
       <path id="m854264b1ba" d="M 0 0 
L -3.5 0 
" style="stroke: #000000; stroke-width: 0.8"/>
      </defs>
      <g>
       <use xlink:href="#m854264b1ba" x="74.448" y="348.192" style="stroke: #000000; stroke-width: 0.8"/>
      </g>
     </g>
     <g id="text_9">
      <text style="font: 10px 'DejaVu Sans', 'Bitstream Vera Sans', 'Computer Modern Sans Serif', 'Lucida Grande', 'Verdana', 'Geneva', 'Lucid', 'Arial', 'Helvetica', 'Avant Garde', sans-serif; text-anchor: end" x="67.448" y="351.991219" transform="rotate(-0 67.448 351.991219)">0</text>
     </g>
    </g>
    <g id="ytick_2">
     <g id="line2d_17">
      <path d="M 74.448 297.3024 
L 642.96 297.3024 
" clip-path="url(#p6a420e9d94)" style="fill: none; stroke: #dfe5e8; stroke-width: 0.65; stroke-linecap: square"/>
     </g>
     <g id="line2d_18">
      <g>
       <use xlink:href="#m854264b1ba" x="74.448" y="297.3024" style="stroke: #000000; stroke-width: 0.8"/>
      </g>
     </g>
     <g id="text_10">
      <text style="font: 10px 'DejaVu Sans', 'Bitstream Vera Sans', 'Computer Modern Sans Serif', 'Lucida Grande', 'Verdana', 'Geneva', 'Lucid', 'Arial', 'Helvetica', 'Avant Garde', sans-serif; text-anchor: end" x="67.448" y="301.101619" transform="rotate(-0 67.448 301.101619)">20</text>
     </g>
    </g>
    <g id="ytick_3">
     <g id="line2d_19">
      <path d="M 74.448 246.4128 
L 642.96 246.4128 
" clip-path="url(#p6a420e9d94)" style="fill: none; stroke: #dfe5e8; stroke-width: 0.65; stroke-linecap: square"/>
     </g>
     <g id="line2d_20">
      <g>
       <use xlink:href="#m854264b1ba" x="74.448" y="246.4128" style="stroke: #000000; stroke-width: 0.8"/>
      </g>
     </g>
     <g id="text_11">
      <text style="font: 10px 'DejaVu Sans', 'Bitstream Vera Sans', 'Computer Modern Sans Serif', 'Lucida Grande', 'Verdana', 'Geneva', 'Lucid', 'Arial', 'Helvetica', 'Avant Garde', sans-serif; text-anchor: end" x="67.448" y="250.212019" transform="rotate(-0 67.448 250.212019)">40</text>
     </g>
    </g>
    <g id="ytick_4">
     <g id="line2d_21">
      <path d="M 74.448 195.5232 
L 642.96 195.5232 
" clip-path="url(#p6a420e9d94)" style="fill: none; stroke: #dfe5e8; stroke-width: 0.65; stroke-linecap: square"/>
     </g>
     <g id="line2d_22">
      <g>
       <use xlink:href="#m854264b1ba" x="74.448" y="195.5232" style="stroke: #000000; stroke-width: 0.8"/>
      </g>
     </g>
     <g id="text_12">
      <text style="font: 10px 'DejaVu Sans', 'Bitstream Vera Sans', 'Computer Modern Sans Serif', 'Lucida Grande', 'Verdana', 'Geneva', 'Lucid', 'Arial', 'Helvetica', 'Avant Garde', sans-serif; text-anchor: end" x="67.448" y="199.322419" transform="rotate(-0 67.448 199.322419)">60</text>
     </g>
    </g>
    <g id="ytick_5">
     <g id="line2d_23">
      <path d="M 74.448 144.6336 
L 642.96 144.6336 
" clip-path="url(#p6a420e9d94)" style="fill: none; stroke: #dfe5e8; stroke-width: 0.65; stroke-linecap: square"/>
     </g>
     <g id="line2d_24">
      <g>
       <use xlink:href="#m854264b1ba" x="74.448" y="144.6336" style="stroke: #000000; stroke-width: 0.8"/>
      </g>
     </g>
     <g id="text_13">
      <text style="font: 10px 'DejaVu Sans', 'Bitstream Vera Sans', 'Computer Modern Sans Serif', 'Lucida Grande', 'Verdana', 'Geneva', 'Lucid', 'Arial', 'Helvetica', 'Avant Garde', sans-serif; text-anchor: end" x="67.448" y="148.432819" transform="rotate(-0 67.448 148.432819)">80</text>
     </g>
    </g>
    <g id="ytick_6">
     <g id="line2d_25">
      <path d="M 74.448 93.744 
L 642.96 93.744 
" clip-path="url(#p6a420e9d94)" style="fill: none; stroke: #dfe5e8; stroke-width: 0.65; stroke-linecap: square"/>
     </g>
     <g id="line2d_26">
      <g>
       <use xlink:href="#m854264b1ba" x="74.448" y="93.744" style="stroke: #000000; stroke-width: 0.8"/>
      </g>
     </g>
     <g id="text_14">
      <text style="font: 10px 'DejaVu Sans', 'Bitstream Vera Sans', 'Computer Modern Sans Serif', 'Lucida Grande', 'Verdana', 'Geneva', 'Lucid', 'Arial', 'Helvetica', 'Avant Garde', sans-serif; text-anchor: end" x="67.448" y="97.543219" transform="rotate(-0 67.448 97.543219)">100</text>
     </g>
    </g>
    <g id="text_15">
     <text style="font: 10px 'DejaVu Sans', 'Bitstream Vera Sans', 'Computer Modern Sans Serif', 'Lucida Grande', 'Verdana', 'Geneva', 'Lucid', 'Arial', 'Helvetica', 'Avant Garde', sans-serif; text-anchor: middle" x="42.280812" y="220.968" transform="rotate(-90 42.280812 220.968)">observers%</text>
    </g>
   </g>
   <g id="line2d_27">
    <path d="M 74.448 348.192 
L 127.50912 348.192 
L 129.40416 346.560923 
L 152.14464 346.560923 
L 154.03968 344.367406 
L 161.61984 344.367406 
L 163.51488 342.173889 
L 165.40992 342.173889 
L 167.30496 339.980371 
L 172.99008 339.980371 
L 174.88512 338.349294 
L 193.83552 338.349294 
L 197.6256 335.087141 
L 210.89088 335.087141 
L 212.78592 333.456064 
L 224.15616 333.456064 
L 226.0512 331.824987 
L 227.94624 331.824987 
L 229.84128 328.000393 
L 233.63136 324.738239 
L 252.58176 324.738239 
L 254.4768 323.107162 
L 262.05696 323.107162 
L 263.952 320.913645 
L 265.84704 317.651491 
L 269.63712 317.651491 
L 273.4272 314.389337 
L 279.11232 314.389337 
L 281.00736 312.19582 
L 284.79744 312.19582 
L 286.69248 310.564743 
L 288.58752 310.564743 
L 290.48256 308.371225 
L 298.06272 308.371225 
L 299.95776 304.546631 
L 303.74784 304.546631 
L 305.64288 301.284477 
L 307.53792 301.284477 
L 309.43296 299.653401 
L 311.328 299.653401 
L 313.22304 297.459883 
L 315.11808 289.248255 
L 317.01312 289.248255 
L 318.90816 285.986101 
L 320.8032 281.09287 
L 322.69824 278.899353 
L 324.59328 278.899353 
L 326.48832 277.268276 
L 332.17344 277.268276 
L 334.06848 275.637199 
L 335.96352 273.443682 
L 337.85856 271.812605 
L 339.7536 271.812605 
L 341.64864 270.181528 
L 347.33376 270.181528 
L 349.2288 268.550451 
L 358.704 268.550451 
L 360.59904 266.919374 
L 370.07424 266.919374 
L 371.96928 265.288297 
L 377.6544 265.288297 
L 379.54944 263.65722 
L 381.44448 263.65722 
L 383.33952 261.463703 
L 385.23456 261.463703 
L 387.1296 259.832626 
L 389.02464 259.832626 
L 390.91968 257.639109 
L 392.81472 257.639109 
L 394.70976 256.008032 
L 400.39488 256.008032 
L 402.28992 248.921284 
L 406.08 248.921284 
L 407.97504 246.727767 
L 411.76512 246.727767 
L 413.66016 245.09669 
L 428.82048 245.09669 
L 430.71552 243.465613 
L 445.87584 243.465613 
L 447.77088 241.834536 
L 453.456 241.834536 
L 455.35104 236.378865 
L 461.03616 236.378865 
L 462.9312 234.185347 
L 468.61632 234.185347 
L 470.51136 232.554271 
L 472.4064 232.554271 
L 476.19648 229.292117 
L 481.8816 229.292117 
L 483.77664 227.098599 
L 487.56672 220.574292 
L 491.3568 220.574292 
L 493.25184 216.749698 
L 498.93696 216.749698 
L 500.832 215.118621 
L 514.09728 215.118621 
L 515.99232 213.487544 
L 517.88736 213.487544 
L 519.7824 210.22539 
L 527.36256 210.22539 
L 529.2576 208.031873 
L 534.94272 208.031873 
L 536.83776 206.400796 
L 540.62784 206.400796 
L 542.52288 204.769719 
L 548.208 204.769719 
L 550.10304 201.507565 
L 557.6832 201.507565 
L 559.57824 197.682971 
L 561.47328 197.682971 
L 567.1584 192.78974 
L 584.21376 192.78974 
L 586.1088 190.596223 
L 591.79392 190.596223 
L 593.68896 188.402706 
L 597.47904 188.402706 
L 599.37408 186.209188 
L 627.79968 186.209188 
L 631.58976 182.947034 
L 635.37984 182.947034 
L 637.27488 181.315958 
L 642.96 181.315958 
L 642.96 181.315958 
" clip-path="url(#p6a420e9d94)" style="fill: none; stroke: #252525; stroke-width: 2.5; stroke-linecap: square"/>
   </g>
   <g id="line2d_28">
    <path d="M 74.448 348.192 
L 131.2992 348.192 
L 133.19424 345.998483 
L 172.99008 345.998483 
L 174.88512 343.804966 
L 184.36032 343.804966 
L 186.25536 341.611448 
L 188.1504 337.224414 
L 190.04544 335.030897 
L 199.52064 335.030897 
L 201.41568 329.012785 
L 205.20576 324.625751 
L 239.31648 324.625751 
L 241.21152 322.432233 
L 252.58176 322.432233 
L 254.4768 320.238716 
L 267.74208 320.238716 
L 269.63712 316.414122 
L 286.69248 316.414122 
L 288.58752 314.783045 
L 294.27264 314.783045 
L 298.06272 310.396011 
L 299.95776 308.764934 
L 307.53792 308.764934 
L 309.43296 306.571416 
L 349.2288 306.571416 
L 351.12384 304.377899 
L 354.91392 304.377899 
L 356.80896 302.746822 
L 364.38912 302.746822 
L 366.28416 300.553305 
L 368.1792 300.553305 
L 370.07424 298.359788 
L 371.96928 296.728711 
L 377.6544 296.728711 
L 379.54944 295.097634 
L 383.33952 295.097634 
L 385.23456 292.904117 
L 390.91968 292.904117 
L 392.81472 289.079523 
L 394.70976 287.448446 
L 396.6048 287.448446 
L 398.49984 283.623851 
L 407.97504 283.623851 
L 409.87008 281.992775 
L 417.45024 281.992775 
L 419.34528 279.799257 
L 421.24032 279.799257 
L 423.13536 278.16818 
L 445.87584 278.16818 
L 447.77088 276.537103 
L 455.35104 276.537103 
L 457.24608 274.343586 
L 461.03616 274.343586 
L 462.9312 272.712509 
L 468.61632 272.712509 
L 470.51136 269.450355 
L 472.4064 269.450355 
L 478.09152 264.557125 
L 479.98656 264.557125 
L 481.8816 262.363607 
L 483.77664 262.363607 
L 487.56672 259.101454 
L 495.14688 259.101454 
L 497.04192 257.470377 
L 500.832 257.470377 
L 502.72704 255.8393 
L 506.51712 255.8393 
L 508.41216 254.208223 
L 510.3072 254.208223 
L 515.99232 249.314992 
L 517.88736 249.314992 
L 519.7824 247.121475 
L 527.36256 247.121475 
L 529.2576 245.490398 
L 531.15264 245.490398 
L 533.04768 243.859321 
L 534.94272 243.859321 
L 536.83776 242.228244 
L 538.7328 238.96609 
L 542.52288 235.703936 
L 559.57824 235.703936 
L 561.47328 234.072859 
L 569.05344 234.072859 
L 570.94848 225.917475 
L 574.73856 225.917475 
L 576.6336 224.286398 
L 588.00384 224.286398 
L 589.89888 221.024244 
L 595.584 221.024244 
L 599.37408 217.76209 
L 605.0592 217.76209 
L 606.95424 214.499936 
L 616.42944 214.499936 
L 618.32448 212.306419 
L 620.21952 210.675342 
L 625.90464 210.675342 
L 627.79968 208.481825 
L 629.69472 206.850748 
L 641.06496 206.850748 
L 642.96 205.219671 
L 642.96 205.219671 
" clip-path="url(#p6a420e9d94)" style="fill: none; stroke: #3b83b4; stroke-width: 1.35; stroke-linecap: square"/>
   </g>
   <g id="line2d_29">
    <path d="M 74.448 348.192 
L 104.76864 348.192 
L 106.66368 346.560923 
L 112.3488 346.560923 
L 114.24384 344.929846 
L 144.56448 344.929846 
L 146.45952 343.298769 
L 163.51488 343.298769 
L 165.40992 341.667692 
L 184.36032 341.667692 
L 186.25536 340.036615 
L 190.04544 340.036615 
L 191.94048 337.843098 
L 193.83552 336.212021 
L 195.73056 336.212021 
L 197.6256 334.018504 
L 203.31072 334.018504 
L 205.20576 332.387427 
L 214.68096 332.387427 
L 216.576 330.75635 
L 226.0512 330.75635 
L 227.94624 329.125273 
L 231.73632 329.125273 
L 233.63136 327.494196 
L 239.31648 327.494196 
L 241.21152 324.232042 
L 245.0016 324.232042 
L 246.89664 322.600966 
L 248.79168 322.600966 
L 250.68672 320.969889 
L 252.58176 317.707735 
L 254.4768 317.707735 
L 256.37184 316.076658 
L 263.952 316.076658 
L 265.84704 314.445581 
L 275.32224 314.445581 
L 277.21728 308.98991 
L 284.79744 308.98991 
L 286.69248 305.727756 
L 288.58752 305.727756 
L 290.48256 304.096679 
L 309.43296 304.096679 
L 311.328 302.465602 
L 313.22304 302.465602 
L 315.11808 300.272085 
L 318.90816 300.272085 
L 320.8032 297.009931 
L 335.96352 297.009931 
L 339.7536 293.747777 
L 345.43872 293.747777 
L 349.2288 290.485623 
L 358.704 290.485623 
L 360.59904 288.292106 
L 362.49408 286.661029 
L 364.38912 286.661029 
L 366.28416 285.029952 
L 375.75936 285.029952 
L 377.6544 283.398875 
L 381.44448 283.398875 
L 383.33952 281.767798 
L 385.23456 281.767798 
L 387.1296 277.943204 
L 396.6048 277.943204 
L 398.49984 274.68105 
L 404.18496 274.68105 
L 406.08 272.487533 
L 415.5552 272.487533 
L 417.45024 270.856456 
L 419.34528 270.856456 
L 421.24032 269.225379 
L 423.13536 269.225379 
L 425.0304 267.594302 
L 451.56096 267.594302 
L 453.456 265.400785 
L 466.72128 265.400785 
L 468.61632 263.769708 
L 470.51136 260.507554 
L 472.4064 260.507554 
L 474.30144 258.876477 
L 481.8816 258.876477 
L 483.77664 257.245401 
L 485.67168 255.051883 
L 487.56672 255.051883 
L 489.46176 253.420806 
L 500.832 253.420806 
L 502.72704 251.227289 
L 504.62208 249.596212 
L 512.20224 249.596212 
L 517.88736 243.01566 
L 521.67744 243.01566 
L 523.57248 240.822143 
L 525.46752 239.191066 
L 529.2576 239.191066 
L 531.15264 236.997549 
L 533.04768 235.366472 
L 542.52288 235.366472 
L 544.41792 233.172955 
L 546.31296 231.541878 
L 548.208 227.154844 
L 550.10304 227.154844 
L 551.99808 224.961326 
L 567.1584 224.961326 
L 569.05344 223.330249 
L 570.94848 223.330249 
L 574.73856 220.068095 
L 576.6336 220.068095 
L 578.52864 218.437019 
L 580.42368 215.174865 
L 620.21952 215.174865 
L 622.11456 211.912711 
L 624.0096 209.719194 
L 627.79968 209.719194 
L 629.69472 208.088117 
L 642.96 208.088117 
L 642.96 208.088117 
" clip-path="url(#p6a420e9d94)" style="fill: none; stroke-dasharray: 4.995,2.16; stroke-dashoffset: 0; stroke: #c38a19; stroke-width: 1.35"/>
   </g>
   <g id="line2d_30">
    <path d="M 74.448 348.192 
L 133.19424 348.192 
L 135.08928 346.560923 
L 140.7744 346.560923 
L 142.66944 344.929846 
L 152.14464 344.929846 
L 154.03968 341.667692 
L 178.6752 341.667692 
L 180.57024 340.036615 
L 182.46528 337.843098 
L 191.94048 337.843098 
L 193.83552 334.018504 
L 216.576 334.018504 
L 218.47104 332.387427 
L 220.36608 332.387427 
L 224.15616 329.125273 
L 231.73632 329.125273 
L 235.5264 325.863119 
L 239.31648 325.863119 
L 241.21152 322.038525 
L 254.4768 322.038525 
L 256.37184 320.407448 
L 263.952 320.407448 
L 265.84704 317.145294 
L 269.63712 317.145294 
L 271.53216 313.883141 
L 277.21728 313.883141 
L 279.11232 311.689623 
L 284.79744 306.796393 
L 290.48256 306.796393 
L 292.3776 305.165316 
L 296.16768 305.165316 
L 298.06272 303.534239 
L 299.95776 303.534239 
L 301.8528 301.903162 
L 318.90816 301.903162 
L 320.8032 300.272085 
L 328.38336 300.272085 
L 332.17344 297.009931 
L 341.64864 297.009931 
L 343.54368 293.747777 
L 351.12384 293.747777 
L 353.01888 288.292106 
L 354.91392 284.467512 
L 360.59904 284.467512 
L 362.49408 282.836435 
L 364.38912 280.642918 
L 366.28416 280.642918 
L 368.1792 279.011841 
L 387.1296 279.011841 
L 389.02464 277.380764 
L 402.28992 277.380764 
L 407.97504 272.487533 
L 417.45024 272.487533 
L 419.34528 268.662939 
L 430.71552 268.662939 
L 432.61056 267.031862 
L 438.29568 267.031862 
L 440.19072 265.400785 
L 442.08576 261.576191 
L 461.03616 261.576191 
L 462.9312 259.945114 
L 466.72128 259.945114 
L 468.61632 257.751597 
L 470.51136 256.12052 
L 472.4064 256.12052 
L 474.30144 253.927003 
L 476.19648 252.295926 
L 478.09152 252.295926 
L 479.98656 250.102408 
L 483.77664 250.102408 
L 485.67168 247.908891 
L 491.3568 247.908891 
L 493.25184 246.277814 
L 498.93696 246.277814 
L 500.832 244.084297 
L 502.72704 244.084297 
L 504.62208 242.45322 
L 510.3072 242.45322 
L 512.20224 240.259703 
L 515.99232 240.259703 
L 517.88736 238.066186 
L 523.57248 238.066186 
L 525.46752 235.872668 
L 527.36256 234.241592 
L 529.2576 232.048074 
L 534.94272 232.048074 
L 536.83776 228.78592 
L 553.89312 228.78592 
L 555.78816 227.154844 
L 561.47328 227.154844 
L 563.36832 225.523767 
L 565.26336 221.699172 
L 569.05344 221.699172 
L 570.94848 220.068095 
L 580.42368 220.068095 
L 582.31872 218.437019 
L 586.1088 218.437019 
L 588.00384 216.805942 
L 591.79392 216.805942 
L 593.68896 215.174865 
L 595.584 212.981347 
L 606.95424 212.981347 
L 608.84928 211.350271 
L 620.21952 211.350271 
L 622.11456 209.719194 
L 629.69472 209.719194 
L 631.58976 208.088117 
L 633.4848 208.088117 
L 635.37984 205.894599 
L 639.16992 205.894599 
L 641.06496 204.263523 
L 642.96 204.263523 
L 642.96 204.263523 
" clip-path="url(#p6a420e9d94)" style="fill: none; stroke-dasharray: 1.35,2.2275; stroke-dashoffset: 0; stroke: #7d8a92; stroke-width: 1.35"/>
   </g>
   <g id="line2d_31">
    <path d="M 74.448 348.192 
L 237.42144 348.192 
L 239.31648 345.998483 
L 273.4272 345.998483 
L 275.32224 343.804966 
L 299.95776 343.804966 
L 301.8528 342.173889 
L 322.69824 342.173889 
L 324.59328 340.542812 
L 341.64864 340.542812 
L 343.54368 338.911735 
L 347.33376 338.911735 
L 349.2288 337.280658 
L 366.28416 337.280658 
L 368.1792 334.018504 
L 389.02464 334.018504 
L 390.91968 332.387427 
L 440.19072 332.387427 
L 442.08576 330.75635 
L 461.03616 330.75635 
L 462.9312 329.125273 
L 464.82624 329.125273 
L 468.61632 324.738239 
L 514.09728 324.738239 
L 515.99232 323.107162 
L 525.46752 323.107162 
L 529.2576 319.845008 
L 534.94272 319.845008 
L 540.62784 314.951777 
L 561.47328 314.951777 
L 563.36832 313.3207 
L 582.31872 313.3207 
L 584.21376 311.689623 
L 591.79392 311.689623 
L 593.68896 310.058546 
L 610.74432 310.058546 
L 612.63936 308.427469 
L 624.0096 308.427469 
L 625.90464 306.796393 
L 642.96 306.796393 
L 642.96 306.796393 
" clip-path="url(#p6a420e9d94)" style="fill: none; stroke-dasharray: 8.64,2.16,1.35,2.16; stroke-dashoffset: 0; stroke: #d0526a; stroke-width: 1.35"/>
   </g>
   <g id="line2d_32">
    <path d="M 74.448 348.192 
L 161.61984 348.192 
L 163.51488 345.998483 
L 205.20576 345.998483 
L 207.1008 343.804966 
L 210.89088 343.804966 
L 212.78592 341.611448 
L 214.68096 341.611448 
L 218.47104 337.224414 
L 224.15616 337.224414 
L 226.0512 335.030897 
L 241.21152 335.030897 
L 243.10656 332.837379 
L 258.26688 332.837379 
L 260.16192 330.643862 
L 265.84704 330.643862 
L 267.74208 328.450345 
L 282.9024 328.450345 
L 286.69248 324.06331 
L 290.48256 324.06331 
L 292.3776 321.869793 
L 322.69824 321.869793 
L 324.59328 319.676276 
L 353.01888 319.676276 
L 354.91392 317.482759 
L 366.28416 317.482759 
L 368.1792 315.289241 
L 375.75936 315.289241 
L 377.6544 313.095724 
L 406.08 313.095724 
L 407.97504 310.902207 
L 411.76512 310.902207 
L 413.66016 308.70869 
L 419.34528 308.70869 
L 421.24032 304.321655 
L 432.61056 304.321655 
L 434.5056 302.690578 
L 449.66592 302.690578 
L 453.456 299.428424 
L 464.82624 299.428424 
L 466.72128 297.234907 
L 474.30144 297.234907 
L 476.19648 295.04139 
L 485.67168 295.04139 
L 487.56672 292.847873 
L 489.46176 292.847873 
L 491.3568 290.654355 
L 493.25184 290.654355 
L 495.14688 286.267321 
L 498.93696 286.267321 
L 500.832 284.636244 
L 527.36256 284.636244 
L 531.15264 281.37409 
L 533.04768 279.180573 
L 536.83776 279.180573 
L 538.7328 275.918419 
L 542.52288 271.531385 
L 551.99808 271.531385 
L 553.89312 269.337867 
L 555.78816 269.337867 
L 557.6832 266.075714 
L 559.57824 266.075714 
L 561.47328 263.882196 
L 574.73856 263.882196 
L 576.6336 261.688679 
L 588.00384 261.688679 
L 591.79392 254.039491 
L 597.47904 254.039491 
L 599.37408 252.408414 
L 603.16416 252.408414 
L 605.0592 250.777337 
L 606.95424 250.777337 
L 608.84928 248.58382 
L 610.74432 248.58382 
L 612.63936 246.390302 
L 614.5344 246.390302 
L 616.42944 244.759225 
L 620.21952 244.759225 
L 622.11456 242.565708 
L 633.4848 242.565708 
L 637.27488 239.303554 
L 642.96 239.303554 
L 642.96 239.303554 
" clip-path="url(#p6a420e9d94)" style="fill: none; stroke-dasharray: 6.75,2.7,1.35,2.7; stroke-dashoffset: 0; stroke: #2f8f84; stroke-width: 1.35"/>
   </g>
   <g id="patch_4">
    <path d="M 74.448 348.192 
L 74.448 93.744 
" style="fill: none; stroke: #000000; stroke-width: 0.8; stroke-linejoin: miter; stroke-linecap: square"/>
   </g>
   <g id="patch_5">
    <path d="M 74.448 348.192 
L 642.96 348.192 
" style="fill: none; stroke: #000000; stroke-width: 0.8; stroke-linejoin: miter; stroke-linecap: square"/>
   </g>
  </g>
  <g id="text_16">
   <text style="font: 18px 'DejaVu Sans', 'Bitstream Vera Sans', 'Computer Modern Sans Serif', 'Lucida Grande', 'Verdana', 'Geneva', 'Lucid', 'Arial', 'Helvetica', 'Avant Garde', sans-serif; text-anchor: start" x="74.448" y="38.229188" transform="rotate(-0 74.448 38.229188)">LED-V1 Direct</text>
  </g>
  <g id="text_17">
   <text style="fill: #66747c; font: 10px 'DejaVu Sans', 'Bitstream Vera Sans', 'Computer Modern Sans Serif', 'Lucida Grande', 'Verdana', 'Geneva', 'Lucid', 'Arial', 'Helvetica', 'Avant Garde', sans-serif; text-anchor: start" x="74.448" y="64.728" transform="rotate(-0 74.448 64.728)">smartphone OLED</text>
  </g>
  <g id="legend_1">
   <g id="line2d_33">
    <path d="M 185.17875 404.151391 
L 194.27875 404.151391 
L 203.37875 404.151391 
" style="fill: none; stroke: #252525; stroke-width: 2.5; stroke-linecap: square"/>
   </g>
   <g id="text_18">
    <text style="font: 9.1px 'DejaVu Sans', 'Bitstream Vera Sans', 'Computer Modern Sans Serif', 'Lucida Grande', 'Verdana', 'Geneva', 'Lucid', 'Arial', 'Helvetica', 'Avant Garde', sans-serif; text-anchor: start" x="210.65875" y="407.336391" transform="rotate(-0 210.65875 407.336391)">Potera CMF</text>
   </g>
   <g id="line2d_34">
    <path d="M 185.17875 417.508484 
L 194.27875 417.508484 
L 203.37875 417.508484 
" style="fill: none; stroke: #3b83b4; stroke-width: 1.35; stroke-linecap: square"/>
   </g>
   <g id="text_19">
    <text style="font: 9.1px 'DejaVu Sans', 'Bitstream Vera Sans', 'Computer Modern Sans Serif', 'Lucida Grande', 'Verdana', 'Geneva', 'Lucid', 'Arial', 'Helvetica', 'Avant Garde', sans-serif; text-anchor: start" x="210.65875" y="420.693484" transform="rotate(-0 210.65875 420.693484)">CIE 2015 2°</text>
   </g>
   <g id="line2d_35">
    <path d="M 282.931234 404.151391 
L 292.031234 404.151391 
L 301.131234 404.151391 
" style="fill: none; stroke-dasharray: 4.995,2.16; stroke-dashoffset: 0; stroke: #c38a19; stroke-width: 1.35"/>
   </g>
   <g id="text_20">
    <text style="font: 9.1px 'DejaVu Sans', 'Bitstream Vera Sans', 'Computer Modern Sans Serif', 'Lucida Grande', 'Verdana', 'Geneva', 'Lucid', 'Arial', 'Helvetica', 'Avant Garde', sans-serif; text-anchor: start" x="308.411234" y="407.336391" transform="rotate(-0 308.411234 407.336391)">CIE 2015 10°</text>
   </g>
   <g id="line2d_36">
    <path d="M 282.931234 417.508484 
L 292.031234 417.508484 
L 301.131234 417.508484 
" style="fill: none; stroke-dasharray: 1.35,2.2275; stroke-dashoffset: 0; stroke: #7d8a92; stroke-width: 1.35"/>
   </g>
   <g id="text_21">
    <text style="font: 9.1px 'DejaVu Sans', 'Bitstream Vera Sans', 'Computer Modern Sans Serif', 'Lucida Grande', 'Verdana', 'Geneva', 'Lucid', 'Arial', 'Helvetica', 'Avant Garde', sans-serif; text-anchor: start" x="308.411234" y="420.693484" transform="rotate(-0 308.411234 420.693484)">CIE 1964 10°</text>
   </g>
   <g id="line2d_37">
    <path d="M 386.473594 404.151391 
L 395.573594 404.151391 
L 404.673594 404.151391 
" style="fill: none; stroke-dasharray: 8.64,2.16,1.35,2.16; stroke-dashoffset: 0; stroke: #d0526a; stroke-width: 1.35"/>
   </g>
   <g id="text_22">
    <text style="font: 9.1px 'DejaVu Sans', 'Bitstream Vera Sans', 'Computer Modern Sans Serif', 'Lucida Grande', 'Verdana', 'Geneva', 'Lucid', 'Arial', 'Helvetica', 'Avant Garde', sans-serif; text-anchor: start" x="411.953594" y="407.336391" transform="rotate(-0 411.953594 407.336391)">CIE 1931 2°</text>
   </g>
   <g id="line2d_38">
    <path d="M 386.473594 417.508484 
L 395.573594 417.508484 
L 404.673594 417.508484 
" style="fill: none; stroke-dasharray: 6.75,2.7,1.35,2.7; stroke-dashoffset: 0; stroke: #2f8f84; stroke-width: 1.35"/>
   </g>
   <g id="text_23">
    <text style="font: 9.1px 'DejaVu Sans', 'Bitstream Vera Sans', 'Computer Modern Sans Serif', 'Lucida Grande', 'Verdana', 'Geneva', 'Lucid', 'Arial', 'Helvetica', 'Avant Garde', sans-serif; text-anchor: start" x="411.953594" y="420.693484" transform="rotate(-0 411.953594 420.693484)">Judd–Vos 1978 2°</text>
   </g>
  </g>
 </g>
 <defs>
  <clipPath id="p6a420e9d94">
   <rect x="74.448" y="93.744" width="568.512" height="254.448"/>
  </clipPath>
 </defs>
</svg>
