<?xml version="1.0" encoding="utf-8" standalone="no"?>
<!DOCTYPE svg PUBLIC "-//W3C//DTD SVG 1.1//EN"
  "http://www.w3.org/Graphics/SVG/1.1/DTD/svg11.dtd">
<svg xmlns:xlink="http://www.w3.org/1999/xlink" width="676.8pt" height="446.4pt" viewBox="0 0 676.8 446.4" xmlns="http://www.w3.org/2000/svg" version="1.1">
 <metadata>
  <rdf:RDF xmlns:dc="http://purl.org/dc/elements/1.1/" xmlns:cc="http://creativecommons.org/ns#" xmlns:rdf="http://www.w3.org/1999/02/22-rdf-syntax-ns#">
   <cc:Work>
    <dc:type rdf:resource="http://purl.org/dc/dcmitype/StillImage"/>
    <dc:date>2026-07-20T06:41:56.855001</dc:date>
    <dc:format>image/svg+xml</dc:format>
    <dc:creator>
     <cc:Agent>
      <dc:title>Matplotlib v3.9.4, https://matplotlib.org/</dc:title>
     </cc:Agent>
    </dc:creator>
   </cc:Work>
  </rdf:RDF>
 </metadata>
 <defs>
  <style type="text/css">*{stroke-linejoin: round; stroke-linecap: butt}</style>
 </defs>
 <g id="figure_1">
  <g id="patch_1">
   <path d="M 0 446.4 
L 676.8 446.4 
L 676.8 0 
L 0 0 
z
" style="fill: #ffffff"/>
  </g>
  <g id="axes_1">
   <g id="patch_2">
    <path d="M 74.448 348.192 
L 642.96 348.192 
L 642.96 93.744 
L 74.448 93.744 
z
" style="fill: #ffffff"/>
   </g>
   <g id="patch_3">
    <path d="M 169.2 348.192 
L 358.704 348.192 
L 358.704 93.744 
L 169.2 93.744 
z
" clip-path="url(#pbc260b87a3)" style="fill: #e7f0ea; opacity: 0.58; stroke: #e7f0ea; stroke-linejoin: miter"/>
   </g>
   <g id="matplotlib.axis_1">
    <g id="xtick_1">
     <g id="line2d_1">
      <path d="M 74.448 348.192 
L 74.448 93.744 
" clip-path="url(#pbc260b87a3)" style="fill: none; stroke: #dfe5e8; stroke-width: 0.65; stroke-linecap: square"/>
     </g>
     <g id="line2d_2">
      <defs>
       <path id="m7eeaa3ff8d" d="M 0 0 
L 0 3.5 
" style="stroke: #000000; stroke-width: 0.8"/>
      </defs>
      <g>
       <use xlink:href="#m7eeaa3ff8d" x="74.448" y="348.192" style="stroke: #000000; stroke-width: 0.8"/>
      </g>
     </g>
     <g id="text_1">
      <text style="font: 10px 'DejaVu Sans', 'Bitstream Vera Sans', 'Computer Modern Sans Serif', 'Lucida Grande', 'Verdana', 'Geneva', 'Lucid', 'Arial', 'Helvetica', 'Avant Garde', sans-serif; text-anchor: middle" x="74.448" y="362.790438" transform="rotate(-0 74.448 362.790438)">0</text>
     </g>
    </g>
    <g id="xtick_2">
     <g id="line2d_3">
      <path d="M 169.2 348.192 
L 169.2 93.744 
" clip-path="url(#pbc260b87a3)" style="fill: none; stroke: #dfe5e8; stroke-width: 0.65; stroke-linecap: square"/>
     </g>
     <g id="line2d_4">
      <g>
       <use xlink:href="#m7eeaa3ff8d" x="169.2" y="348.192" style="stroke: #000000; stroke-width: 0.8"/>
      </g>
     </g>
     <g id="text_2">
      <text style="font: 10px 'DejaVu Sans', 'Bitstream Vera Sans', 'Computer Modern Sans Serif', 'Lucida Grande', 'Verdana', 'Geneva', 'Lucid', 'Arial', 'Helvetica', 'Avant Garde', sans-serif; text-anchor: middle" x="169.2" y="362.790438" transform="rotate(-0 169.2 362.790438)">1</text>
     </g>
    </g>
    <g id="xtick_3">
     <g id="line2d_5">
      <path d="M 263.952 348.192 
L 263.952 93.744 
" clip-path="url(#pbc260b87a3)" style="fill: none; stroke: #dfe5e8; stroke-width: 0.65; stroke-linecap: square"/>
     </g>
     <g id="line2d_6">
      <g>
       <use xlink:href="#m7eeaa3ff8d" x="263.952" y="348.192" style="stroke: #000000; stroke-width: 0.8"/>
      </g>
     </g>
     <g id="text_3">
      <text style="font: 10px 'DejaVu Sans', 'Bitstream Vera Sans', 'Computer Modern Sans Serif', 'Lucida Grande', 'Verdana', 'Geneva', 'Lucid', 'Arial', 'Helvetica', 'Avant Garde', sans-serif; text-anchor: middle" x="263.952" y="362.790438" transform="rotate(-0 263.952 362.790438)">2</text>
     </g>
    </g>
    <g id="xtick_4">
     <g id="line2d_7">
      <path d="M 358.704 348.192 
L 358.704 93.744 
" clip-path="url(#pbc260b87a3)" style="fill: none; stroke: #dfe5e8; stroke-width: 0.65; stroke-linecap: square"/>
     </g>
     <g id="line2d_8">
      <g>
       <use xlink:href="#m7eeaa3ff8d" x="358.704" y="348.192" style="stroke: #000000; stroke-width: 0.8"/>
      </g>
     </g>
     <g id="text_4">
      <text style="font: 10px 'DejaVu Sans', 'Bitstream Vera Sans', 'Computer Modern Sans Serif', 'Lucida Grande', 'Verdana', 'Geneva', 'Lucid', 'Arial', 'Helvetica', 'Avant Garde', sans-serif; text-anchor: middle" x="358.704" y="362.790438" transform="rotate(-0 358.704 362.790438)">3</text>
     </g>
    </g>
    <g id="xtick_5">
     <g id="line2d_9">
      <path d="M 453.456 348.192 
L 453.456 93.744 
" clip-path="url(#pbc260b87a3)" style="fill: none; stroke: #dfe5e8; stroke-width: 0.65; stroke-linecap: square"/>
     </g>
     <g id="line2d_10">
      <g>
       <use xlink:href="#m7eeaa3ff8d" x="453.456" y="348.192" style="stroke: #000000; stroke-width: 0.8"/>
      </g>
     </g>
     <g id="text_5">
      <text style="font: 10px 'DejaVu Sans', 'Bitstream Vera Sans', 'Computer Modern Sans Serif', 'Lucida Grande', 'Verdana', 'Geneva', 'Lucid', 'Arial', 'Helvetica', 'Avant Garde', sans-serif; text-anchor: middle" x="453.456" y="362.790438" transform="rotate(-0 453.456 362.790438)">4</text>
     </g>
    </g>
    <g id="xtick_6">
     <g id="line2d_11">
      <path d="M 548.208 348.192 
L 548.208 93.744 
" clip-path="url(#pbc260b87a3)" style="fill: none; stroke: #dfe5e8; stroke-width: 0.65; stroke-linecap: square"/>
     </g>
     <g id="line2d_12">
      <g>
       <use xlink:href="#m7eeaa3ff8d" x="548.208" y="348.192" style="stroke: #000000; stroke-width: 0.8"/>
      </g>
     </g>
     <g id="text_6">
      <text style="font: 10px 'DejaVu Sans', 'Bitstream Vera Sans', 'Computer Modern Sans Serif', 'Lucida Grande', 'Verdana', 'Geneva', 'Lucid', 'Arial', 'Helvetica', 'Avant Garde', sans-serif; text-anchor: middle" x="548.208" y="362.790438" transform="rotate(-0 548.208 362.790438)">5</text>
     </g>
    </g>
    <g id="xtick_7">
     <g id="line2d_13">
      <path d="M 642.96 348.192 
L 642.96 93.744 
" clip-path="url(#pbc260b87a3)" style="fill: none; stroke: #dfe5e8; stroke-width: 0.65; stroke-linecap: square"/>
     </g>
     <g id="line2d_14">
      <g>
       <use xlink:href="#m7eeaa3ff8d" x="642.96" y="348.192" style="stroke: #000000; stroke-width: 0.8"/>
      </g>
     </g>
     <g id="text_7">
      <text style="font: 10px 'DejaVu Sans', 'Bitstream Vera Sans', 'Computer Modern Sans Serif', 'Lucida Grande', 'Verdana', 'Geneva', 'Lucid', 'Arial', 'Helvetica', 'Avant Garde', sans-serif; text-anchor: middle" x="642.96" y="362.790438" transform="rotate(-0 642.96 362.790438)">6</text>
     </g>
    </g>
    <g id="text_8">
     <text style="font: 10px 'DejaVu Sans', 'Bitstream Vera Sans', 'Computer Modern Sans Serif', 'Lucida Grande', 'Verdana', 'Geneva', 'Lucid', 'Arial', 'Helvetica', 'Avant Garde', sans-serif; text-anchor: middle" x="358.704" y="376.468563" transform="rotate(-0 358.704 376.468563)">sUCS dE threshold</text>
    </g>
   </g>
   <g id="matplotlib.axis_2">
    <g id="ytick_1">
     <g id="line2d_15">
      <path d="M 74.448 348.192 
L 642.96 348.192 
" clip-path="url(#pbc260b87a3)" style="fill: none; stroke: #dfe5e8; stroke-width: 0.65; stroke-linecap: square"/>
     </g>
     <g id="line2d_16">
      <defs>
       <path id="mcf1c9a86d4" d="M 0 0 
L -3.5 0 
" style="stroke: #000000; stroke-width: 0.8"/>
      </defs>
      <g>
       <use xlink:href="#mcf1c9a86d4" x="74.448" y="348.192" style="stroke: #000000; stroke-width: 0.8"/>
      </g>
     </g>
     <g id="text_9">
      <text style="font: 10px 'DejaVu Sans', 'Bitstream Vera Sans', 'Computer Modern Sans Serif', 'Lucida Grande', 'Verdana', 'Geneva', 'Lucid', 'Arial', 'Helvetica', 'Avant Garde', sans-serif; text-anchor: end" x="67.448" y="351.991219" transform="rotate(-0 67.448 351.991219)">0</text>
     </g>
    </g>
    <g id="ytick_2">
     <g id="line2d_17">
      <path d="M 74.448 297.3024 
L 642.96 297.3024 
" clip-path="url(#pbc260b87a3)" style="fill: none; stroke: #dfe5e8; stroke-width: 0.65; stroke-linecap: square"/>
     </g>
     <g id="line2d_18">
      <g>
       <use xlink:href="#mcf1c9a86d4" x="74.448" y="297.3024" style="stroke: #000000; stroke-width: 0.8"/>
      </g>
     </g>
     <g id="text_10">
      <text style="font: 10px 'DejaVu Sans', 'Bitstream Vera Sans', 'Computer Modern Sans Serif', 'Lucida Grande', 'Verdana', 'Geneva', 'Lucid', 'Arial', 'Helvetica', 'Avant Garde', sans-serif; text-anchor: end" x="67.448" y="301.101619" transform="rotate(-0 67.448 301.101619)">20</text>
     </g>
    </g>
    <g id="ytick_3">
     <g id="line2d_19">
      <path d="M 74.448 246.4128 
L 642.96 246.4128 
" clip-path="url(#pbc260b87a3)" style="fill: none; stroke: #dfe5e8; stroke-width: 0.65; stroke-linecap: square"/>
     </g>
     <g id="line2d_20">
      <g>
       <use xlink:href="#mcf1c9a86d4" x="74.448" y="246.4128" style="stroke: #000000; stroke-width: 0.8"/>
      </g>
     </g>
     <g id="text_11">
      <text style="font: 10px 'DejaVu Sans', 'Bitstream Vera Sans', 'Computer Modern Sans Serif', 'Lucida Grande', 'Verdana', 'Geneva', 'Lucid', 'Arial', 'Helvetica', 'Avant Garde', sans-serif; text-anchor: end" x="67.448" y="250.212019" transform="rotate(-0 67.448 250.212019)">40</text>
     </g>
    </g>
    <g id="ytick_4">
     <g id="line2d_21">
      <path d="M 74.448 195.5232 
L 642.96 195.5232 
" clip-path="url(#pbc260b87a3)" style="fill: none; stroke: #dfe5e8; stroke-width: 0.65; stroke-linecap: square"/>
     </g>
     <g id="line2d_22">
      <g>
       <use xlink:href="#mcf1c9a86d4" x="74.448" y="195.5232" style="stroke: #000000; stroke-width: 0.8"/>
      </g>
     </g>
     <g id="text_12">
      <text style="font: 10px 'DejaVu Sans', 'Bitstream Vera Sans', 'Computer Modern Sans Serif', 'Lucida Grande', 'Verdana', 'Geneva', 'Lucid', 'Arial', 'Helvetica', 'Avant Garde', sans-serif; text-anchor: end" x="67.448" y="199.322419" transform="rotate(-0 67.448 199.322419)">60</text>
     </g>
    </g>
    <g id="ytick_5">
     <g id="line2d_23">
      <path d="M 74.448 144.6336 
L 642.96 144.6336 
" clip-path="url(#pbc260b87a3)" style="fill: none; stroke: #dfe5e8; stroke-width: 0.65; stroke-linecap: square"/>
     </g>
     <g id="line2d_24">
      <g>
       <use xlink:href="#mcf1c9a86d4" x="74.448" y="144.6336" style="stroke: #000000; stroke-width: 0.8"/>
      </g>
     </g>
     <g id="text_13">
      <text style="font: 10px 'DejaVu Sans', 'Bitstream Vera Sans', 'Computer Modern Sans Serif', 'Lucida Grande', 'Verdana', 'Geneva', 'Lucid', 'Arial', 'Helvetica', 'Avant Garde', sans-serif; text-anchor: end" x="67.448" y="148.432819" transform="rotate(-0 67.448 148.432819)">80</text>
     </g>
    </g>
    <g id="ytick_6">
     <g id="line2d_25">
      <path d="M 74.448 93.744 
L 642.96 93.744 
" clip-path="url(#pbc260b87a3)" style="fill: none; stroke: #dfe5e8; stroke-width: 0.65; stroke-linecap: square"/>
     </g>
     <g id="line2d_26">
      <g>
       <use xlink:href="#mcf1c9a86d4" x="74.448" y="93.744" style="stroke: #000000; stroke-width: 0.8"/>
      </g>
     </g>
     <g id="text_14">
      <text style="font: 10px 'DejaVu Sans', 'Bitstream Vera Sans', 'Computer Modern Sans Serif', 'Lucida Grande', 'Verdana', 'Geneva', 'Lucid', 'Arial', 'Helvetica', 'Avant Garde', sans-serif; text-anchor: end" x="67.448" y="97.543219" transform="rotate(-0 67.448 97.543219)">100</text>
     </g>
    </g>
    <g id="text_15">
     <text style="font: 10px 'DejaVu Sans', 'Bitstream Vera Sans', 'Computer Modern Sans Serif', 'Lucida Grande', 'Verdana', 'Geneva', 'Lucid', 'Arial', 'Helvetica', 'Avant Garde', sans-serif; text-anchor: middle" x="42.280812" y="220.968" transform="rotate(-90 42.280812 220.968)">observers%</text>
    </g>
   </g>
   <g id="line2d_27">
    <path d="M 74.448 348.192 
L 121.824 348.192 
L 123.71904 345.998483 
L 125.61408 344.367406 
L 129.40416 344.367406 
L 131.2992 342.736329 
L 136.98432 342.736329 
L 138.87936 340.542812 
L 140.7744 338.911735 
L 144.56448 338.911735 
L 146.45952 337.280658 
L 154.03968 337.280658 
L 155.93472 335.649581 
L 171.09504 335.649581 
L 174.88512 332.387427 
L 176.78016 332.387427 
L 178.6752 330.75635 
L 180.57024 328.562833 
L 182.46528 328.562833 
L 184.36032 326.369316 
L 188.1504 326.369316 
L 190.04544 323.107162 
L 197.6256 323.107162 
L 199.52064 321.476085 
L 201.41568 321.476085 
L 205.20576 318.213931 
L 208.99584 318.213931 
L 210.89088 316.582854 
L 212.78592 313.3207 
L 216.576 313.3207 
L 218.47104 310.058546 
L 220.36608 310.058546 
L 222.26112 306.796393 
L 226.0512 303.534239 
L 231.73632 303.534239 
L 233.63136 301.903162 
L 235.5264 301.903162 
L 237.42144 300.272085 
L 239.31648 298.078568 
L 256.37184 298.078568 
L 260.16192 294.816414 
L 263.952 294.816414 
L 265.84704 292.622897 
L 267.74208 292.622897 
L 269.63712 290.99182 
L 271.53216 290.99182 
L 273.4272 289.360743 
L 275.32224 287.167225 
L 281.00736 287.167225 
L 282.9024 285.536149 
L 284.79744 285.536149 
L 286.69248 281.711554 
L 288.58752 279.518037 
L 290.48256 279.518037 
L 292.3776 277.88696 
L 294.27264 275.693443 
L 296.16768 274.062366 
L 301.8528 274.062366 
L 303.74784 272.431289 
L 305.64288 272.431289 
L 307.53792 270.800212 
L 309.43296 267.538058 
L 317.01312 267.538058 
L 318.90816 265.344541 
L 322.69824 265.344541 
L 324.59328 263.713464 
L 328.38336 263.713464 
L 330.2784 259.32643 
L 332.17344 259.32643 
L 334.06848 257.695353 
L 337.85856 251.171045 
L 339.7536 251.171045 
L 341.64864 247.908891 
L 347.33376 247.908891 
L 349.2288 245.715374 
L 351.12384 244.084297 
L 353.01888 244.084297 
L 356.80896 240.822143 
L 362.49408 240.822143 
L 364.38912 239.191066 
L 370.07424 239.191066 
L 371.96928 237.559989 
L 383.33952 237.559989 
L 385.23456 235.366472 
L 392.81472 235.366472 
L 394.70976 233.172955 
L 396.6048 233.172955 
L 400.39488 228.78592 
L 402.28992 227.154844 
L 404.18496 227.154844 
L 406.08 225.523767 
L 421.24032 225.523767 
L 423.13536 223.89269 
L 428.82048 223.89269 
L 430.71552 221.699172 
L 432.61056 220.068095 
L 442.08576 220.068095 
L 443.9808 217.874578 
L 445.87584 216.243501 
L 451.56096 216.243501 
L 453.456 214.049984 
L 455.35104 214.049984 
L 459.14112 210.78783 
L 462.9312 210.78783 
L 464.82624 208.594313 
L 466.72128 208.594313 
L 468.61632 205.332159 
L 474.30144 205.332159 
L 476.19648 203.701082 
L 489.46176 203.701082 
L 495.14688 198.807851 
L 497.04192 198.807851 
L 498.93696 197.176775 
L 502.72704 197.176775 
L 504.62208 194.983257 
L 506.51712 191.158663 
L 508.41216 189.527586 
L 514.09728 189.527586 
L 515.99232 187.896509 
L 527.36256 187.896509 
L 529.2576 185.702992 
L 531.15264 185.702992 
L 533.04768 184.071915 
L 542.52288 184.071915 
L 544.41792 182.440838 
L 567.1584 182.440838 
L 569.05344 180.809761 
L 574.73856 180.809761 
L 576.6336 177.547607 
L 580.42368 177.547607 
L 586.1088 170.967056 
L 595.584 170.967056 
L 597.47904 168.773538 
L 641.06496 168.773538 
L 642.96 166.580021 
L 642.96 166.580021 
" clip-path="url(#pbc260b87a3)" style="fill: none; stroke: #252525; stroke-width: 2.5; stroke-linecap: square"/>
   </g>
   <g id="line2d_28">
    <path d="M 74.448 348.192 
L 95.29344 348.192 
L 97.18848 345.998483 
L 129.40416 345.998483 
L 131.2992 343.804966 
L 138.87936 343.804966 
L 142.66944 339.417931 
L 154.03968 339.417931 
L 155.93472 337.224414 
L 161.61984 337.224414 
L 163.51488 332.837379 
L 165.40992 332.837379 
L 167.30496 330.643862 
L 176.78016 330.643862 
L 178.6752 326.256828 
L 180.57024 326.256828 
L 182.46528 324.625751 
L 205.20576 324.625751 
L 207.1008 322.432233 
L 208.99584 322.432233 
L 210.89088 320.801156 
L 214.68096 320.801156 
L 216.576 318.607639 
L 218.47104 318.607639 
L 220.36608 316.414122 
L 226.0512 316.414122 
L 227.94624 314.220605 
L 233.63136 314.220605 
L 235.5264 312.589528 
L 237.42144 312.589528 
L 239.31648 310.958451 
L 254.4768 310.958451 
L 260.16192 306.06522 
L 269.63712 306.06522 
L 271.53216 302.240626 
L 273.4272 300.609549 
L 284.79744 300.609549 
L 286.69248 297.347395 
L 288.58752 297.347395 
L 290.48256 295.716318 
L 298.06272 295.716318 
L 299.95776 293.522801 
L 309.43296 293.522801 
L 311.328 291.329284 
L 313.22304 287.50469 
L 326.48832 287.50469 
L 328.38336 285.873613 
L 334.06848 285.873613 
L 335.96352 283.680095 
L 339.7536 283.680095 
L 341.64864 282.049019 
L 343.54368 282.049019 
L 345.43872 279.855501 
L 351.12384 279.855501 
L 353.01888 274.39983 
L 354.91392 272.768753 
L 358.704 272.768753 
L 360.59904 269.506599 
L 362.49408 269.506599 
L 364.38912 265.682005 
L 366.28416 264.050928 
L 368.1792 258.595257 
L 370.07424 255.333103 
L 375.75936 255.333103 
L 377.6544 253.139586 
L 379.54944 251.508509 
L 381.44448 247.683915 
L 389.02464 247.683915 
L 390.91968 246.052838 
L 394.70976 246.052838 
L 398.49984 242.790684 
L 402.28992 242.790684 
L 404.18496 241.159607 
L 406.08 241.159607 
L 407.97504 237.335013 
L 409.87008 235.703936 
L 415.5552 235.703936 
L 417.45024 232.441782 
L 419.34528 230.810706 
L 430.71552 230.810706 
L 432.61056 229.179629 
L 434.5056 229.179629 
L 436.40064 225.917475 
L 440.19072 225.917475 
L 442.08576 224.286398 
L 443.9808 224.286398 
L 445.87584 222.655321 
L 451.56096 222.655321 
L 455.35104 219.393167 
L 459.14112 219.393167 
L 461.03616 216.131013 
L 462.9312 214.499936 
L 466.72128 214.499936 
L 468.61632 212.306419 
L 470.51136 212.306419 
L 472.4064 210.675342 
L 476.19648 210.675342 
L 478.09152 209.044265 
L 502.72704 209.044265 
L 504.62208 207.413188 
L 508.41216 207.413188 
L 510.3072 205.782111 
L 514.09728 205.782111 
L 515.99232 204.151034 
L 519.7824 204.151034 
L 521.67744 200.888881 
L 533.04768 200.888881 
L 534.94272 197.064286 
L 536.83776 197.064286 
L 538.7328 195.43321 
L 540.62784 195.43321 
L 544.41792 192.171056 
L 561.47328 192.171056 
L 563.36832 190.539979 
L 565.26336 190.539979 
L 567.1584 188.908902 
L 574.73856 188.908902 
L 576.6336 187.277825 
L 586.1088 187.277825 
L 588.00384 185.084308 
L 589.89888 183.453231 
L 599.37408 183.453231 
L 601.26912 181.822154 
L 608.84928 181.822154 
L 610.74432 179.628637 
L 614.5344 179.628637 
L 618.32448 175.241602 
L 622.11456 175.241602 
L 624.0096 173.048085 
L 625.90464 173.048085 
L 627.79968 170.854568 
L 629.69472 170.854568 
L 631.58976 168.66105 
L 642.96 168.66105 
L 642.96 168.66105 
" clip-path="url(#pbc260b87a3)" style="fill: none; stroke: #3b83b4; stroke-width: 1.35; stroke-linecap: square"/>
   </g>
   <g id="line2d_29">
    <path d="M 74.448 348.192 
L 97.18848 348.192 
L 99.08352 346.560923 
L 100.97856 346.560923 
L 102.8736 344.929846 
L 118.03392 344.929846 
L 119.92896 343.298769 
L 136.98432 343.298769 
L 138.87936 341.667692 
L 142.66944 341.667692 
L 144.56448 340.036615 
L 155.93472 340.036615 
L 157.82976 336.774462 
L 161.61984 333.512308 
L 165.40992 333.512308 
L 167.30496 331.881231 
L 188.1504 331.881231 
L 190.04544 328.619077 
L 191.94048 326.988 
L 195.73056 326.988 
L 197.6256 324.794483 
L 220.36608 324.794483 
L 222.26112 323.163406 
L 229.84128 323.163406 
L 231.73632 319.901252 
L 233.63136 319.901252 
L 235.5264 318.270175 
L 239.31648 318.270175 
L 241.21152 316.639098 
L 246.89664 316.639098 
L 250.68672 313.376944 
L 262.05696 313.376944 
L 263.952 311.745867 
L 271.53216 311.745867 
L 273.4272 309.55235 
L 275.32224 307.921273 
L 277.21728 307.921273 
L 279.11232 306.290196 
L 282.9024 306.290196 
L 284.79744 304.659119 
L 286.69248 302.465602 
L 288.58752 302.465602 
L 290.48256 300.834525 
L 296.16768 300.834525 
L 298.06272 296.447491 
L 299.95776 296.447491 
L 303.74784 293.185337 
L 307.53792 293.185337 
L 309.43296 289.923183 
L 313.22304 289.923183 
L 315.11808 287.729666 
L 318.90816 284.467512 
L 326.48832 284.467512 
L 334.06848 277.943204 
L 341.64864 277.943204 
L 343.54368 274.68105 
L 351.12384 274.68105 
L 353.01888 273.049973 
L 364.38912 273.049973 
L 366.28416 269.78782 
L 375.75936 269.78782 
L 377.6544 268.156743 
L 379.54944 268.156743 
L 383.33952 263.769708 
L 385.23456 262.138631 
L 390.91968 262.138631 
L 392.81472 259.945114 
L 396.6048 259.945114 
L 398.49984 258.314037 
L 417.45024 258.314037 
L 421.24032 255.051883 
L 423.13536 255.051883 
L 425.0304 252.858366 
L 426.92544 251.227289 
L 440.19072 251.227289 
L 442.08576 249.033772 
L 445.87584 249.033772 
L 447.77088 246.840255 
L 451.56096 246.840255 
L 455.35104 243.578101 
L 459.14112 243.578101 
L 461.03616 241.947024 
L 468.61632 241.947024 
L 470.51136 238.68487 
L 472.4064 238.68487 
L 474.30144 236.491353 
L 481.8816 236.491353 
L 483.77664 234.297836 
L 485.67168 232.666759 
L 498.93696 232.666759 
L 500.832 230.473241 
L 502.72704 230.473241 
L 504.62208 228.842164 
L 514.09728 228.842164 
L 515.99232 225.01757 
L 527.36256 225.01757 
L 529.2576 223.386493 
L 531.15264 223.386493 
L 533.04768 221.755416 
L 538.7328 221.755416 
L 540.62784 219.561899 
L 550.10304 219.561899 
L 551.99808 217.930822 
L 555.78816 217.930822 
L 557.6832 216.299745 
L 559.57824 214.106228 
L 561.47328 214.106228 
L 563.36832 212.475151 
L 572.84352 212.475151 
L 574.73856 208.650557 
L 576.6336 208.650557 
L 578.52864 207.01948 
L 582.31872 207.01948 
L 586.1088 203.757326 
L 595.584 203.757326 
L 597.47904 202.126249 
L 601.26912 202.126249 
L 603.16416 200.495172 
L 605.0592 200.495172 
L 606.95424 198.301655 
L 608.84928 198.301655 
L 610.74432 196.108138 
L 612.63936 194.477061 
L 635.37984 194.477061 
L 637.27488 192.845984 
L 642.96 192.845984 
L 642.96 192.845984 
" clip-path="url(#pbc260b87a3)" style="fill: none; stroke-dasharray: 4.995,2.16; stroke-dashoffset: 0; stroke: #c38a19; stroke-width: 1.35"/>
   </g>
   <g id="line2d_30">
    <path d="M 74.448 348.192 
L 85.81824 348.192 
L 87.71328 346.560923 
L 123.71904 346.560923 
L 127.50912 343.298769 
L 133.19424 343.298769 
L 135.08928 341.667692 
L 148.35456 341.667692 
L 150.2496 340.036615 
L 157.82976 340.036615 
L 159.7248 338.405538 
L 165.40992 338.405538 
L 167.30496 336.774462 
L 169.2 336.774462 
L 171.09504 335.143385 
L 180.57024 335.143385 
L 182.46528 331.881231 
L 184.36032 330.250154 
L 186.25536 330.250154 
L 188.1504 326.988 
L 191.94048 326.988 
L 193.83552 325.356923 
L 197.6256 325.356923 
L 199.52064 323.725846 
L 201.41568 323.725846 
L 207.1008 318.832615 
L 210.89088 318.832615 
L 212.78592 317.201538 
L 214.68096 317.201538 
L 216.576 315.570462 
L 218.47104 311.745867 
L 220.36608 309.55235 
L 224.15616 309.55235 
L 226.0512 307.358833 
L 229.84128 307.358833 
L 231.73632 305.727756 
L 256.37184 305.727756 
L 260.16192 302.465602 
L 262.05696 297.009931 
L 263.952 297.009931 
L 265.84704 295.378854 
L 275.32224 295.378854 
L 277.21728 293.747777 
L 279.11232 293.747777 
L 281.00736 289.923183 
L 282.9024 288.292106 
L 290.48256 288.292106 
L 292.3776 286.661029 
L 303.74784 286.661029 
L 305.64288 285.029952 
L 309.43296 285.029952 
L 311.328 283.398875 
L 313.22304 281.205358 
L 315.11808 279.574281 
L 322.69824 279.574281 
L 324.59328 277.943204 
L 330.2784 277.943204 
L 332.17344 276.312127 
L 334.06848 276.312127 
L 337.85856 271.925093 
L 341.64864 271.925093 
L 343.54368 270.294016 
L 349.2288 270.294016 
L 353.01888 267.031862 
L 354.91392 267.031862 
L 356.80896 265.400785 
L 358.704 263.207268 
L 360.59904 261.576191 
L 370.07424 261.576191 
L 371.96928 256.12052 
L 383.33952 256.12052 
L 385.23456 254.489443 
L 390.91968 254.489443 
L 392.81472 252.858366 
L 396.6048 252.858366 
L 398.49984 251.227289 
L 404.18496 251.227289 
L 406.08 247.965135 
L 407.97504 245.771618 
L 411.76512 245.771618 
L 413.66016 244.140541 
L 415.5552 244.140541 
L 417.45024 241.947024 
L 428.82048 241.947024 
L 430.71552 239.753507 
L 436.40064 239.753507 
L 438.29568 238.12243 
L 440.19072 238.12243 
L 442.08576 236.491353 
L 445.87584 236.491353 
L 447.77088 234.860276 
L 451.56096 234.860276 
L 453.456 232.666759 
L 459.14112 232.666759 
L 461.03616 231.035682 
L 464.82624 231.035682 
L 466.72128 228.842164 
L 478.09152 228.842164 
L 479.98656 226.648647 
L 481.8816 225.01757 
L 483.77664 225.01757 
L 485.67168 223.386493 
L 487.56672 221.192976 
L 491.3568 217.930822 
L 500.832 217.930822 
L 502.72704 216.299745 
L 508.41216 216.299745 
L 510.3072 214.106228 
L 514.09728 214.106228 
L 515.99232 210.281634 
L 517.88736 208.650557 
L 521.67744 208.650557 
L 523.57248 207.01948 
L 531.15264 207.01948 
L 533.04768 205.388403 
L 534.94272 203.194886 
L 536.83776 201.563809 
L 538.7328 199.370292 
L 540.62784 199.370292 
L 542.52288 197.739215 
L 557.6832 197.739215 
L 559.57824 196.108138 
L 563.36832 196.108138 
L 565.26336 194.477061 
L 574.73856 194.477061 
L 576.6336 192.283544 
L 588.00384 192.283544 
L 589.89888 188.45895 
L 595.584 188.45895 
L 597.47904 186.827873 
L 599.37408 186.827873 
L 601.26912 185.196796 
L 603.16416 183.003279 
L 610.74432 183.003279 
L 614.5344 179.741125 
L 620.21952 179.741125 
L 622.11456 178.110048 
L 631.58976 178.110048 
L 633.4848 175.916531 
L 637.27488 175.916531 
L 639.16992 173.723013 
L 642.96 173.723013 
L 642.96 173.723013 
" clip-path="url(#pbc260b87a3)" style="fill: none; stroke-dasharray: 1.35,2.2275; stroke-dashoffset: 0; stroke: #7d8a92; stroke-width: 1.35"/>
   </g>
   <g id="line2d_31">
    <path d="M 74.448 348.192 
L 121.824 348.192 
L 123.71904 345.998483 
L 218.47104 345.998483 
L 220.36608 344.367406 
L 222.26112 340.542812 
L 231.73632 340.542812 
L 233.63136 338.911735 
L 248.79168 338.911735 
L 250.68672 335.649581 
L 279.11232 335.649581 
L 281.00736 334.018504 
L 301.8528 334.018504 
L 303.74784 332.387427 
L 307.53792 332.387427 
L 309.43296 330.75635 
L 315.11808 330.75635 
L 317.01312 329.125273 
L 324.59328 329.125273 
L 326.48832 326.931756 
L 332.17344 326.931756 
L 334.06848 325.300679 
L 335.96352 325.300679 
L 337.85856 323.107162 
L 368.1792 323.107162 
L 370.07424 321.476085 
L 396.6048 321.476085 
L 398.49984 319.845008 
L 419.34528 319.845008 
L 425.0304 314.951777 
L 440.19072 314.951777 
L 442.08576 313.3207 
L 461.03616 313.3207 
L 462.9312 311.689623 
L 470.51136 311.689623 
L 472.4064 308.427469 
L 514.09728 308.427469 
L 515.99232 306.796393 
L 519.7824 306.796393 
L 521.67744 305.165316 
L 527.36256 305.165316 
L 529.2576 303.534239 
L 540.62784 303.534239 
L 542.52288 301.903162 
L 555.78816 301.903162 
L 557.6832 299.709645 
L 569.05344 299.709645 
L 570.94848 296.447491 
L 580.42368 296.447491 
L 582.31872 294.816414 
L 584.21376 292.622897 
L 605.0592 292.622897 
L 606.95424 288.798302 
L 612.63936 288.798302 
L 614.5344 287.167225 
L 624.0096 287.167225 
L 625.90464 285.536149 
L 627.79968 285.536149 
L 629.69472 283.342631 
L 635.37984 283.342631 
L 637.27488 281.149114 
L 642.96 281.149114 
L 642.96 281.149114 
" clip-path="url(#pbc260b87a3)" style="fill: none; stroke-dasharray: 8.64,2.16,1.35,2.16; stroke-dashoffset: 0; stroke: #d0526a; stroke-width: 1.35"/>
   </g>
   <g id="line2d_32">
    <path d="M 74.448 348.192 
L 121.824 348.192 
L 123.71904 345.998483 
L 125.61408 345.998483 
L 127.50912 341.611448 
L 136.98432 341.611448 
L 138.87936 339.417931 
L 152.14464 339.417931 
L 154.03968 337.224414 
L 161.61984 337.224414 
L 163.51488 335.030897 
L 201.41568 335.030897 
L 203.31072 332.837379 
L 222.26112 332.837379 
L 224.15616 328.450345 
L 233.63136 328.450345 
L 237.42144 324.06331 
L 269.63712 324.06331 
L 271.53216 321.869793 
L 279.11232 321.869793 
L 281.00736 319.676276 
L 290.48256 319.676276 
L 292.3776 317.482759 
L 299.95776 317.482759 
L 301.8528 315.289241 
L 317.01312 315.289241 
L 318.90816 313.095724 
L 349.2288 313.095724 
L 351.12384 310.902207 
L 356.80896 310.902207 
L 358.704 308.70869 
L 373.86432 308.70869 
L 375.75936 306.515172 
L 377.6544 306.515172 
L 379.54944 304.321655 
L 381.44448 304.321655 
L 383.33952 302.128138 
L 402.28992 302.128138 
L 404.18496 300.497061 
L 406.08 296.672467 
L 409.87008 296.672467 
L 411.76512 294.47895 
L 419.34528 294.47895 
L 421.24032 292.285432 
L 434.5056 292.285432 
L 436.40064 290.091915 
L 438.29568 288.460838 
L 440.19072 288.460838 
L 442.08576 286.829761 
L 443.9808 286.829761 
L 445.87584 284.636244 
L 457.24608 284.636244 
L 459.14112 280.81165 
L 461.03616 280.81165 
L 462.9312 278.618133 
L 474.30144 278.618133 
L 476.19648 276.424615 
L 487.56672 276.424615 
L 489.46176 274.231098 
L 500.832 274.231098 
L 502.72704 269.844064 
L 504.62208 266.019469 
L 506.51712 266.019469 
L 508.41216 264.388393 
L 514.09728 264.388393 
L 515.99232 261.126239 
L 519.7824 261.126239 
L 523.57248 257.864085 
L 525.46752 255.670568 
L 527.36256 255.670568 
L 529.2576 254.039491 
L 538.7328 254.039491 
L 540.62784 252.408414 
L 542.52288 250.214897 
L 544.41792 248.58382 
L 546.31296 248.58382 
L 548.208 246.952743 
L 550.10304 246.952743 
L 551.99808 245.321666 
L 553.89312 245.321666 
L 555.78816 243.128149 
L 559.57824 243.128149 
L 561.47328 241.497072 
L 572.84352 241.497072 
L 574.73856 239.865995 
L 588.00384 239.865995 
L 589.89888 238.234918 
L 591.79392 236.041401 
L 593.68896 236.041401 
L 595.584 233.847883 
L 597.47904 232.216806 
L 599.37408 230.023289 
L 625.90464 230.023289 
L 627.79968 228.392212 
L 629.69472 228.392212 
L 631.58976 226.198695 
L 633.4848 226.198695 
L 635.37984 224.005178 
L 642.96 224.005178 
L 642.96 224.005178 
" clip-path="url(#pbc260b87a3)" style="fill: none; stroke-dasharray: 6.75,2.7,1.35,2.7; stroke-dashoffset: 0; stroke: #2f8f84; stroke-width: 1.35"/>
   </g>
   <g id="patch_4">
    <path d="M 74.448 348.192 
L 74.448 93.744 
" style="fill: none; stroke: #000000; stroke-width: 0.8; stroke-linejoin: miter; stroke-linecap: square"/>
   </g>
   <g id="patch_5">
    <path d="M 74.448 348.192 
L 642.96 348.192 
" style="fill: none; stroke: #000000; stroke-width: 0.8; stroke-linejoin: miter; stroke-linecap: square"/>
   </g>
  </g>
  <g id="text_16">
   <text style="font: 18px 'DejaVu Sans', 'Bitstream Vera Sans', 'Computer Modern Sans Serif', 'Lucida Grande', 'Verdana', 'Geneva', 'Lucid', 'Arial', 'Helvetica', 'Avant Garde', sans-serif; text-anchor: start" x="74.448" y="38.229188" transform="rotate(-0 74.448 38.229188)">LED-V1 Direct</text>
  </g>
  <g id="text_17">
   <text style="fill: #66747c; font: 10px 'DejaVu Sans', 'Bitstream Vera Sans', 'Computer Modern Sans Serif', 'Lucida Grande', 'Verdana', 'Geneva', 'Lucid', 'Arial', 'Helvetica', 'Avant Garde', sans-serif; text-anchor: start" x="74.448" y="64.728" transform="rotate(-0 74.448 64.728)">WOLED</text>
  </g>
  <g id="legend_1">
   <g id="line2d_33">
    <path d="M 185.17875 404.151391 
L 194.27875 404.151391 
L 203.37875 404.151391 
" style="fill: none; stroke: #252525; stroke-width: 2.5; stroke-linecap: square"/>
   </g>
   <g id="text_18">
    <text style="font: 9.1px 'DejaVu Sans', 'Bitstream Vera Sans', 'Computer Modern Sans Serif', 'Lucida Grande', 'Verdana', 'Geneva', 'Lucid', 'Arial', 'Helvetica', 'Avant Garde', sans-serif; text-anchor: start" x="210.65875" y="407.336391" transform="rotate(-0 210.65875 407.336391)">Potera CMF</text>
   </g>
   <g id="line2d_34">
    <path d="M 185.17875 417.508484 
L 194.27875 417.508484 
L 203.37875 417.508484 
" style="fill: none; stroke: #3b83b4; stroke-width: 1.35; stroke-linecap: square"/>
   </g>
   <g id="text_19">
    <text style="font: 9.1px 'DejaVu Sans', 'Bitstream Vera Sans', 'Computer Modern Sans Serif', 'Lucida Grande', 'Verdana', 'Geneva', 'Lucid', 'Arial', 'Helvetica', 'Avant Garde', sans-serif; text-anchor: start" x="210.65875" y="420.693484" transform="rotate(-0 210.65875 420.693484)">CIE 2015 2°</text>
   </g>
   <g id="line2d_35">
    <path d="M 282.931234 404.151391 
L 292.031234 404.151391 
L 301.131234 404.151391 
" style="fill: none; stroke-dasharray: 4.995,2.16; stroke-dashoffset: 0; stroke: #c38a19; stroke-width: 1.35"/>
   </g>
   <g id="text_20">
    <text style="font: 9.1px 'DejaVu Sans', 'Bitstream Vera Sans', 'Computer Modern Sans Serif', 'Lucida Grande', 'Verdana', 'Geneva', 'Lucid', 'Arial', 'Helvetica', 'Avant Garde', sans-serif; text-anchor: start" x="308.411234" y="407.336391" transform="rotate(-0 308.411234 407.336391)">CIE 2015 10°</text>
   </g>
   <g id="line2d_36">
    <path d="M 282.931234 417.508484 
L 292.031234 417.508484 
L 301.131234 417.508484 
" style="fill: none; stroke-dasharray: 1.35,2.2275; stroke-dashoffset: 0; stroke: #7d8a92; stroke-width: 1.35"/>
   </g>
   <g id="text_21">
    <text style="font: 9.1px 'DejaVu Sans', 'Bitstream Vera Sans', 'Computer Modern Sans Serif', 'Lucida Grande', 'Verdana', 'Geneva', 'Lucid', 'Arial', 'Helvetica', 'Avant Garde', sans-serif; text-anchor: start" x="308.411234" y="420.693484" transform="rotate(-0 308.411234 420.693484)">CIE 1964 10°</text>
   </g>
   <g id="line2d_37">
    <path d="M 386.473594 404.151391 
L 395.573594 404.151391 
L 404.673594 404.151391 
" style="fill: none; stroke-dasharray: 8.64,2.16,1.35,2.16; stroke-dashoffset: 0; stroke: #d0526a; stroke-width: 1.35"/>
   </g>
   <g id="text_22">
    <text style="font: 9.1px 'DejaVu Sans', 'Bitstream Vera Sans', 'Computer Modern Sans Serif', 'Lucida Grande', 'Verdana', 'Geneva', 'Lucid', 'Arial', 'Helvetica', 'Avant Garde', sans-serif; text-anchor: start" x="411.953594" y="407.336391" transform="rotate(-0 411.953594 407.336391)">CIE 1931 2°</text>
   </g>
   <g id="line2d_38">
    <path d="M 386.473594 417.508484 
L 395.573594 417.508484 
L 404.673594 417.508484 
" style="fill: none; stroke-dasharray: 6.75,2.7,1.35,2.7; stroke-dashoffset: 0; stroke: #2f8f84; stroke-width: 1.35"/>
   </g>
   <g id="text_23">
    <text style="font: 9.1px 'DejaVu Sans', 'Bitstream Vera Sans', 'Computer Modern Sans Serif', 'Lucida Grande', 'Verdana', 'Geneva', 'Lucid', 'Arial', 'Helvetica', 'Avant Garde', sans-serif; text-anchor: start" x="411.953594" y="420.693484" transform="rotate(-0 411.953594 420.693484)">Judd–Vos 1978 2°</text>
   </g>
  </g>
 </g>
 <defs>
  <clipPath id="pbc260b87a3">
   <rect x="74.448" y="93.744" width="568.512" height="254.448"/>
  </clipPath>
 </defs>
</svg>
