<?xml version="1.0" encoding="utf-8" standalone="no"?>
<!DOCTYPE svg PUBLIC "-//W3C//DTD SVG 1.1//EN"
  "http://www.w3.org/Graphics/SVG/1.1/DTD/svg11.dtd">
<svg xmlns:xlink="http://www.w3.org/1999/xlink" width="676.8pt" height="446.4pt" viewBox="0 0 676.8 446.4" xmlns="http://www.w3.org/2000/svg" version="1.1">
 <metadata>
  <rdf:RDF xmlns:dc="http://purl.org/dc/elements/1.1/" xmlns:cc="http://creativecommons.org/ns#" xmlns:rdf="http://www.w3.org/1999/02/22-rdf-syntax-ns#">
   <cc:Work>
    <dc:type rdf:resource="http://purl.org/dc/dcmitype/StillImage"/>
    <dc:date>2026-07-20T06:41:58.947136</dc:date>
    <dc:format>image/svg+xml</dc:format>
    <dc:creator>
     <cc:Agent>
      <dc:title>Matplotlib v3.9.4, https://matplotlib.org/</dc:title>
     </cc:Agent>
    </dc:creator>
   </cc:Work>
  </rdf:RDF>
 </metadata>
 <defs>
  <style type="text/css">*{stroke-linejoin: round; stroke-linecap: butt}</style>
 </defs>
 <g id="figure_1">
  <g id="patch_1">
   <path d="M 0 446.4 
L 676.8 446.4 
L 676.8 0 
L 0 0 
z
" style="fill: #ffffff"/>
  </g>
  <g id="axes_1">
   <g id="patch_2">
    <path d="M 74.448 348.192 
L 642.96 348.192 
L 642.96 93.744 
L 74.448 93.744 
z
" style="fill: #ffffff"/>
   </g>
   <g id="patch_3">
    <path d="M 169.2 348.192 
L 358.704 348.192 
L 358.704 93.744 
L 169.2 93.744 
z
" clip-path="url(#pc352155285)" style="fill: #e7f0ea; opacity: 0.58; stroke: #e7f0ea; stroke-linejoin: miter"/>
   </g>
   <g id="matplotlib.axis_1">
    <g id="xtick_1">
     <g id="line2d_1">
      <path d="M 74.448 348.192 
L 74.448 93.744 
" clip-path="url(#pc352155285)" style="fill: none; stroke: #dfe5e8; stroke-width: 0.65; stroke-linecap: square"/>
     </g>
     <g id="line2d_2">
      <defs>
       <path id="m0bae7bd8e3" d="M 0 0 
L 0 3.5 
" style="stroke: #000000; stroke-width: 0.8"/>
      </defs>
      <g>
       <use xlink:href="#m0bae7bd8e3" x="74.448" y="348.192" style="stroke: #000000; stroke-width: 0.8"/>
      </g>
     </g>
     <g id="text_1">
      <text style="font: 10px 'DejaVu Sans', 'Bitstream Vera Sans', 'Computer Modern Sans Serif', 'Lucida Grande', 'Verdana', 'Geneva', 'Lucid', 'Arial', 'Helvetica', 'Avant Garde', sans-serif; text-anchor: middle" x="74.448" y="362.790438" transform="rotate(-0 74.448 362.790438)">0</text>
     </g>
    </g>
    <g id="xtick_2">
     <g id="line2d_3">
      <path d="M 169.2 348.192 
L 169.2 93.744 
" clip-path="url(#pc352155285)" style="fill: none; stroke: #dfe5e8; stroke-width: 0.65; stroke-linecap: square"/>
     </g>
     <g id="line2d_4">
      <g>
       <use xlink:href="#m0bae7bd8e3" x="169.2" y="348.192" style="stroke: #000000; stroke-width: 0.8"/>
      </g>
     </g>
     <g id="text_2">
      <text style="font: 10px 'DejaVu Sans', 'Bitstream Vera Sans', 'Computer Modern Sans Serif', 'Lucida Grande', 'Verdana', 'Geneva', 'Lucid', 'Arial', 'Helvetica', 'Avant Garde', sans-serif; text-anchor: middle" x="169.2" y="362.790438" transform="rotate(-0 169.2 362.790438)">1</text>
     </g>
    </g>
    <g id="xtick_3">
     <g id="line2d_5">
      <path d="M 263.952 348.192 
L 263.952 93.744 
" clip-path="url(#pc352155285)" style="fill: none; stroke: #dfe5e8; stroke-width: 0.65; stroke-linecap: square"/>
     </g>
     <g id="line2d_6">
      <g>
       <use xlink:href="#m0bae7bd8e3" x="263.952" y="348.192" style="stroke: #000000; stroke-width: 0.8"/>
      </g>
     </g>
     <g id="text_3">
      <text style="font: 10px 'DejaVu Sans', 'Bitstream Vera Sans', 'Computer Modern Sans Serif', 'Lucida Grande', 'Verdana', 'Geneva', 'Lucid', 'Arial', 'Helvetica', 'Avant Garde', sans-serif; text-anchor: middle" x="263.952" y="362.790438" transform="rotate(-0 263.952 362.790438)">2</text>
     </g>
    </g>
    <g id="xtick_4">
     <g id="line2d_7">
      <path d="M 358.704 348.192 
L 358.704 93.744 
" clip-path="url(#pc352155285)" style="fill: none; stroke: #dfe5e8; stroke-width: 0.65; stroke-linecap: square"/>
     </g>
     <g id="line2d_8">
      <g>
       <use xlink:href="#m0bae7bd8e3" x="358.704" y="348.192" style="stroke: #000000; stroke-width: 0.8"/>
      </g>
     </g>
     <g id="text_4">
      <text style="font: 10px 'DejaVu Sans', 'Bitstream Vera Sans', 'Computer Modern Sans Serif', 'Lucida Grande', 'Verdana', 'Geneva', 'Lucid', 'Arial', 'Helvetica', 'Avant Garde', sans-serif; text-anchor: middle" x="358.704" y="362.790438" transform="rotate(-0 358.704 362.790438)">3</text>
     </g>
    </g>
    <g id="xtick_5">
     <g id="line2d_9">
      <path d="M 453.456 348.192 
L 453.456 93.744 
" clip-path="url(#pc352155285)" style="fill: none; stroke: #dfe5e8; stroke-width: 0.65; stroke-linecap: square"/>
     </g>
     <g id="line2d_10">
      <g>
       <use xlink:href="#m0bae7bd8e3" x="453.456" y="348.192" style="stroke: #000000; stroke-width: 0.8"/>
      </g>
     </g>
     <g id="text_5">
      <text style="font: 10px 'DejaVu Sans', 'Bitstream Vera Sans', 'Computer Modern Sans Serif', 'Lucida Grande', 'Verdana', 'Geneva', 'Lucid', 'Arial', 'Helvetica', 'Avant Garde', sans-serif; text-anchor: middle" x="453.456" y="362.790438" transform="rotate(-0 453.456 362.790438)">4</text>
     </g>
    </g>
    <g id="xtick_6">
     <g id="line2d_11">
      <path d="M 548.208 348.192 
L 548.208 93.744 
" clip-path="url(#pc352155285)" style="fill: none; stroke: #dfe5e8; stroke-width: 0.65; stroke-linecap: square"/>
     </g>
     <g id="line2d_12">
      <g>
       <use xlink:href="#m0bae7bd8e3" x="548.208" y="348.192" style="stroke: #000000; stroke-width: 0.8"/>
      </g>
     </g>
     <g id="text_6">
      <text style="font: 10px 'DejaVu Sans', 'Bitstream Vera Sans', 'Computer Modern Sans Serif', 'Lucida Grande', 'Verdana', 'Geneva', 'Lucid', 'Arial', 'Helvetica', 'Avant Garde', sans-serif; text-anchor: middle" x="548.208" y="362.790438" transform="rotate(-0 548.208 362.790438)">5</text>
     </g>
    </g>
    <g id="xtick_7">
     <g id="line2d_13">
      <path d="M 642.96 348.192 
L 642.96 93.744 
" clip-path="url(#pc352155285)" style="fill: none; stroke: #dfe5e8; stroke-width: 0.65; stroke-linecap: square"/>
     </g>
     <g id="line2d_14">
      <g>
       <use xlink:href="#m0bae7bd8e3" x="642.96" y="348.192" style="stroke: #000000; stroke-width: 0.8"/>
      </g>
     </g>
     <g id="text_7">
      <text style="font: 10px 'DejaVu Sans', 'Bitstream Vera Sans', 'Computer Modern Sans Serif', 'Lucida Grande', 'Verdana', 'Geneva', 'Lucid', 'Arial', 'Helvetica', 'Avant Garde', sans-serif; text-anchor: middle" x="642.96" y="362.790438" transform="rotate(-0 642.96 362.790438)">6</text>
     </g>
    </g>
    <g id="text_8">
     <text style="font: 10px 'DejaVu Sans', 'Bitstream Vera Sans', 'Computer Modern Sans Serif', 'Lucida Grande', 'Verdana', 'Geneva', 'Lucid', 'Arial', 'Helvetica', 'Avant Garde', sans-serif; text-anchor: middle" x="358.704" y="376.468563" transform="rotate(-0 358.704 376.468563)">sUCS dE threshold</text>
    </g>
   </g>
   <g id="matplotlib.axis_2">
    <g id="ytick_1">
     <g id="line2d_15">
      <path d="M 74.448 348.192 
L 642.96 348.192 
" clip-path="url(#pc352155285)" style="fill: none; stroke: #dfe5e8; stroke-width: 0.65; stroke-linecap: square"/>
     </g>
     <g id="line2d_16">
      <defs>
       <path id="m0f46b429ba" d="M 0 0 
L -3.5 0 
" style="stroke: #000000; stroke-width: 0.8"/>
      </defs>
      <g>
       <use xlink:href="#m0f46b429ba" x="74.448" y="348.192" style="stroke: #000000; stroke-width: 0.8"/>
      </g>
     </g>
     <g id="text_9">
      <text style="font: 10px 'DejaVu Sans', 'Bitstream Vera Sans', 'Computer Modern Sans Serif', 'Lucida Grande', 'Verdana', 'Geneva', 'Lucid', 'Arial', 'Helvetica', 'Avant Garde', sans-serif; text-anchor: end" x="67.448" y="351.991219" transform="rotate(-0 67.448 351.991219)">0</text>
     </g>
    </g>
    <g id="ytick_2">
     <g id="line2d_17">
      <path d="M 74.448 297.3024 
L 642.96 297.3024 
" clip-path="url(#pc352155285)" style="fill: none; stroke: #dfe5e8; stroke-width: 0.65; stroke-linecap: square"/>
     </g>
     <g id="line2d_18">
      <g>
       <use xlink:href="#m0f46b429ba" x="74.448" y="297.3024" style="stroke: #000000; stroke-width: 0.8"/>
      </g>
     </g>
     <g id="text_10">
      <text style="font: 10px 'DejaVu Sans', 'Bitstream Vera Sans', 'Computer Modern Sans Serif', 'Lucida Grande', 'Verdana', 'Geneva', 'Lucid', 'Arial', 'Helvetica', 'Avant Garde', sans-serif; text-anchor: end" x="67.448" y="301.101619" transform="rotate(-0 67.448 301.101619)">20</text>
     </g>
    </g>
    <g id="ytick_3">
     <g id="line2d_19">
      <path d="M 74.448 246.4128 
L 642.96 246.4128 
" clip-path="url(#pc352155285)" style="fill: none; stroke: #dfe5e8; stroke-width: 0.65; stroke-linecap: square"/>
     </g>
     <g id="line2d_20">
      <g>
       <use xlink:href="#m0f46b429ba" x="74.448" y="246.4128" style="stroke: #000000; stroke-width: 0.8"/>
      </g>
     </g>
     <g id="text_11">
      <text style="font: 10px 'DejaVu Sans', 'Bitstream Vera Sans', 'Computer Modern Sans Serif', 'Lucida Grande', 'Verdana', 'Geneva', 'Lucid', 'Arial', 'Helvetica', 'Avant Garde', sans-serif; text-anchor: end" x="67.448" y="250.212019" transform="rotate(-0 67.448 250.212019)">40</text>
     </g>
    </g>
    <g id="ytick_4">
     <g id="line2d_21">
      <path d="M 74.448 195.5232 
L 642.96 195.5232 
" clip-path="url(#pc352155285)" style="fill: none; stroke: #dfe5e8; stroke-width: 0.65; stroke-linecap: square"/>
     </g>
     <g id="line2d_22">
      <g>
       <use xlink:href="#m0f46b429ba" x="74.448" y="195.5232" style="stroke: #000000; stroke-width: 0.8"/>
      </g>
     </g>
     <g id="text_12">
      <text style="font: 10px 'DejaVu Sans', 'Bitstream Vera Sans', 'Computer Modern Sans Serif', 'Lucida Grande', 'Verdana', 'Geneva', 'Lucid', 'Arial', 'Helvetica', 'Avant Garde', sans-serif; text-anchor: end" x="67.448" y="199.322419" transform="rotate(-0 67.448 199.322419)">60</text>
     </g>
    </g>
    <g id="ytick_5">
     <g id="line2d_23">
      <path d="M 74.448 144.6336 
L 642.96 144.6336 
" clip-path="url(#pc352155285)" style="fill: none; stroke: #dfe5e8; stroke-width: 0.65; stroke-linecap: square"/>
     </g>
     <g id="line2d_24">
      <g>
       <use xlink:href="#m0f46b429ba" x="74.448" y="144.6336" style="stroke: #000000; stroke-width: 0.8"/>
      </g>
     </g>
     <g id="text_13">
      <text style="font: 10px 'DejaVu Sans', 'Bitstream Vera Sans', 'Computer Modern Sans Serif', 'Lucida Grande', 'Verdana', 'Geneva', 'Lucid', 'Arial', 'Helvetica', 'Avant Garde', sans-serif; text-anchor: end" x="67.448" y="148.432819" transform="rotate(-0 67.448 148.432819)">80</text>
     </g>
    </g>
    <g id="ytick_6">
     <g id="line2d_25">
      <path d="M 74.448 93.744 
L 642.96 93.744 
" clip-path="url(#pc352155285)" style="fill: none; stroke: #dfe5e8; stroke-width: 0.65; stroke-linecap: square"/>
     </g>
     <g id="line2d_26">
      <g>
       <use xlink:href="#m0f46b429ba" x="74.448" y="93.744" style="stroke: #000000; stroke-width: 0.8"/>
      </g>
     </g>
     <g id="text_14">
      <text style="font: 10px 'DejaVu Sans', 'Bitstream Vera Sans', 'Computer Modern Sans Serif', 'Lucida Grande', 'Verdana', 'Geneva', 'Lucid', 'Arial', 'Helvetica', 'Avant Garde', sans-serif; text-anchor: end" x="67.448" y="97.543219" transform="rotate(-0 67.448 97.543219)">100</text>
     </g>
    </g>
    <g id="text_15">
     <text style="font: 10px 'DejaVu Sans', 'Bitstream Vera Sans', 'Computer Modern Sans Serif', 'Lucida Grande', 'Verdana', 'Geneva', 'Lucid', 'Arial', 'Helvetica', 'Avant Garde', sans-serif; text-anchor: middle" x="42.280812" y="220.968" transform="rotate(-90 42.280812 220.968)">observers%</text>
    </g>
   </g>
   <g id="line2d_27">
    <path d="M 74.448 348.192 
L 83.9232 348.192 
L 87.71328 344.929846 
L 89.60832 344.929846 
L 91.50336 342.736329 
L 95.29344 339.474175 
L 97.18848 333.456064 
L 99.08352 331.262546 
L 100.97856 331.262546 
L 102.8736 329.069029 
L 104.76864 329.069029 
L 108.55872 325.806875 
L 110.45376 325.806875 
L 112.3488 322.544721 
L 114.24384 322.544721 
L 116.13888 318.157687 
L 118.03392 318.157687 
L 119.92896 316.52661 
L 121.824 316.52661 
L 123.71904 314.333093 
L 125.61408 314.333093 
L 127.50912 303.365507 
L 129.40416 296.278759 
L 133.19424 293.016605 
L 135.08928 293.016605 
L 138.87936 288.62957 
L 140.7744 284.242536 
L 146.45952 272.768753 
L 148.35456 270.575236 
L 150.2496 270.575236 
L 152.14464 265.119565 
L 154.03968 261.857411 
L 155.93472 256.96418 
L 157.82976 253.139586 
L 161.61984 249.877432 
L 163.51488 246.052838 
L 165.40992 244.421761 
L 167.30496 244.421761 
L 169.2 235.703936 
L 171.09504 235.703936 
L 172.99008 230.810706 
L 174.88512 226.423671 
L 176.78016 224.230154 
L 178.6752 214.949889 
L 180.57024 213.318812 
L 182.46528 204.038546 
L 184.36032 204.038546 
L 186.25536 200.213952 
L 188.1504 200.213952 
L 190.04544 196.389358 
L 191.94048 194.758281 
L 193.83552 192.564764 
L 195.73056 186.546653 
L 197.6256 184.915576 
L 199.52064 179.459905 
L 201.41568 175.63531 
L 203.31072 174.004233 
L 208.99584 174.004233 
L 212.78592 170.74208 
L 214.68096 170.74208 
L 216.576 166.917485 
L 218.47104 163.655332 
L 220.36608 161.461814 
L 222.26112 159.830737 
L 224.15616 154.375066 
L 226.0512 149.988032 
L 227.94624 145.094801 
L 231.73632 145.094801 
L 233.63136 140.707767 
L 235.5264 140.707767 
L 237.42144 139.07669 
L 239.31648 139.07669 
L 241.21152 133.621019 
L 243.10656 131.427501 
L 245.0016 131.427501 
L 246.89664 128.165347 
L 248.79168 128.165347 
L 250.68672 125.97183 
L 252.58176 124.340753 
L 254.4768 122.147236 
L 256.37184 122.147236 
L 258.26688 119.953719 
L 263.952 119.953719 
L 265.84704 117.760202 
L 269.63712 114.498048 
L 271.53216 114.498048 
L 273.4272 112.866971 
L 277.21728 112.866971 
L 279.11232 111.235894 
L 281.00736 111.235894 
L 282.9024 109.042377 
L 284.79744 107.4113 
L 286.69248 107.4113 
L 288.58752 105.217782 
L 292.3776 105.217782 
L 294.27264 103.024265 
L 296.16768 101.393188 
L 298.06272 99.199671 
L 299.95776 97.568594 
L 339.7536 97.568594 
L 341.64864 95.937517 
L 343.54368 93.744 
L 642.96 93.744 
L 642.96 93.744 
" clip-path="url(#pc352155285)" style="fill: none; stroke: #252525; stroke-width: 2.5; stroke-linecap: square"/>
   </g>
   <g id="line2d_28">
    <path d="M 74.448 348.192 
L 87.71328 348.192 
L 89.60832 345.998483 
L 93.3984 345.998483 
L 97.18848 341.611448 
L 102.8736 341.611448 
L 106.66368 337.224414 
L 112.3488 337.224414 
L 118.03392 330.643862 
L 119.92896 330.643862 
L 121.824 326.819268 
L 123.71904 322.432233 
L 125.61408 320.238716 
L 127.50912 315.851682 
L 129.40416 313.658164 
L 133.19424 313.658164 
L 135.08928 311.464647 
L 136.98432 307.077613 
L 144.56448 307.077613 
L 146.45952 302.690578 
L 148.35456 300.497061 
L 150.2496 300.497061 
L 152.14464 293.916509 
L 154.03968 289.529475 
L 155.93472 289.529475 
L 157.82976 287.335958 
L 159.7248 287.335958 
L 161.61984 285.14244 
L 165.40992 285.14244 
L 167.30496 282.948923 
L 169.2 282.948923 
L 171.09504 280.755406 
L 174.88512 273.106218 
L 176.78016 268.719183 
L 178.6752 266.525666 
L 180.57024 262.138631 
L 184.36032 257.751597 
L 186.25536 257.751597 
L 191.94048 252.858366 
L 193.83552 244.646737 
L 195.73056 242.45322 
L 203.31072 242.45322 
L 205.20576 238.066186 
L 207.1008 238.066186 
L 208.99584 234.241592 
L 210.89088 229.854557 
L 216.576 229.854557 
L 218.47104 226.029963 
L 220.36608 221.642928 
L 224.15616 221.642928 
L 226.0512 215.624817 
L 227.94624 215.624817 
L 229.84128 213.99374 
L 231.73632 210.731586 
L 233.63136 209.100509 
L 235.5264 209.100509 
L 243.10656 202.576202 
L 245.0016 200.382684 
L 250.68672 200.382684 
L 254.4768 197.120531 
L 256.37184 194.927013 
L 258.26688 194.927013 
L 260.16192 193.295936 
L 262.05696 189.471342 
L 265.84704 182.947034 
L 269.63712 182.947034 
L 271.53216 179.684881 
L 275.32224 176.422727 
L 277.21728 173.160573 
L 279.11232 173.160573 
L 281.00736 171.529496 
L 282.9024 168.267342 
L 284.79744 168.267342 
L 286.69248 166.636265 
L 288.58752 166.636265 
L 290.48256 161.743034 
L 292.3776 161.743034 
L 294.27264 156.849804 
L 296.16768 156.849804 
L 298.06272 153.58765 
L 299.95776 151.956573 
L 301.8528 149.763056 
L 303.74784 146.500902 
L 305.64288 146.500902 
L 307.53792 144.869825 
L 309.43296 141.607671 
L 311.328 139.976594 
L 315.11808 139.976594 
L 317.01312 136.71444 
L 318.90816 135.083363 
L 320.8032 135.083363 
L 324.59328 131.82121 
L 326.48832 131.82121 
L 330.2784 128.559056 
L 332.17344 125.296902 
L 334.06848 125.296902 
L 339.7536 120.403671 
L 343.54368 120.403671 
L 345.43872 118.772594 
L 347.33376 116.579077 
L 349.2288 111.685846 
L 354.91392 111.685846 
L 358.704 108.423692 
L 360.59904 108.423692 
L 362.49408 106.792615 
L 370.07424 106.792615 
L 371.96928 105.161538 
L 375.75936 105.161538 
L 377.6544 103.530462 
L 390.91968 103.530462 
L 392.81472 101.899385 
L 398.49984 101.899385 
L 402.28992 98.637231 
L 404.18496 98.637231 
L 406.08 97.006154 
L 417.45024 97.006154 
L 419.34528 95.375077 
L 459.14112 95.375077 
L 461.03616 93.744 
L 642.96 93.744 
L 642.96 93.744 
" clip-path="url(#pc352155285)" style="fill: none; stroke: #3b83b4; stroke-width: 1.35; stroke-linecap: square"/>
   </g>
   <g id="line2d_29">
    <path d="M 74.448 348.192 
L 85.81824 348.192 
L 89.60832 344.929846 
L 91.50336 341.667692 
L 93.3984 341.667692 
L 97.18848 338.405538 
L 100.97856 331.881231 
L 102.8736 330.250154 
L 104.76864 326.988 
L 106.66368 326.988 
L 108.55872 325.356923 
L 110.45376 320.463692 
L 112.3488 320.463692 
L 114.24384 315.570462 
L 118.03392 312.308308 
L 119.92896 312.308308 
L 121.824 308.483714 
L 123.71904 306.852637 
L 125.61408 301.959406 
L 127.50912 299.765889 
L 129.40416 292.679141 
L 131.2992 289.416987 
L 133.19424 287.223469 
L 136.98432 279.574281 
L 138.87936 274.68105 
L 140.7744 270.856456 
L 142.66944 264.332149 
L 146.45952 264.332149 
L 150.2496 261.069995 
L 152.14464 250.721093 
L 154.03968 246.896499 
L 155.93472 244.702981 
L 157.82976 239.24731 
L 159.7248 234.35408 
L 161.61984 232.160562 
L 163.51488 232.160562 
L 165.40992 228.335968 
L 169.2 228.335968 
L 171.09504 226.142451 
L 172.99008 222.880297 
L 174.88512 218.493263 
L 176.78016 216.862186 
L 178.6752 213.600032 
L 182.46528 210.337878 
L 184.36032 206.513284 
L 188.1504 203.25113 
L 191.94048 198.864095 
L 193.83552 197.233019 
L 195.73056 195.039501 
L 199.52064 195.039501 
L 201.41568 188.45895 
L 203.31072 183.003279 
L 205.20576 180.809761 
L 208.99584 177.547607 
L 210.89088 177.547607 
L 212.78592 173.160573 
L 214.68096 173.160573 
L 216.576 170.967056 
L 218.47104 169.335979 
L 220.36608 167.142462 
L 222.26112 165.511385 
L 224.15616 165.511385 
L 226.0512 163.317867 
L 229.84128 160.055714 
L 231.73632 160.055714 
L 233.63136 153.475162 
L 235.5264 153.475162 
L 237.42144 151.281645 
L 239.31648 151.281645 
L 241.21152 145.825973 
L 243.10656 143.632456 
L 245.0016 143.632456 
L 246.89664 141.438939 
L 250.68672 141.438939 
L 252.58176 139.245422 
L 254.4768 134.858387 
L 258.26688 130.471353 
L 275.32224 130.471353 
L 277.21728 128.277836 
L 279.11232 128.277836 
L 281.00736 126.646759 
L 282.9024 122.259724 
L 294.27264 122.259724 
L 296.16768 115.679172 
L 298.06272 115.679172 
L 299.95776 113.485655 
L 301.8528 113.485655 
L 303.74784 111.292138 
L 311.328 111.292138 
L 315.11808 106.905103 
L 322.69824 106.905103 
L 324.59328 104.711586 
L 326.48832 104.711586 
L 328.38336 102.518069 
L 330.2784 102.518069 
L 332.17344 100.324552 
L 347.33376 100.324552 
L 349.2288 98.131034 
L 354.91392 98.131034 
L 356.80896 95.937517 
L 394.70976 95.937517 
L 396.6048 93.744 
L 642.96 93.744 
L 642.96 93.744 
" clip-path="url(#pc352155285)" style="fill: none; stroke-dasharray: 4.995,2.16; stroke-dashoffset: 0; stroke: #c38a19; stroke-width: 1.35"/>
   </g>
   <g id="line2d_30">
    <path d="M 74.448 348.192 
L 91.50336 348.192 
L 93.3984 345.998483 
L 97.18848 345.998483 
L 99.08352 343.804966 
L 100.97856 339.980371 
L 102.8736 339.980371 
L 104.76864 337.786854 
L 106.66368 337.786854 
L 108.55872 333.96226 
L 110.45376 331.768743 
L 112.3488 331.768743 
L 114.24384 329.575225 
L 118.03392 326.313072 
L 121.824 326.313072 
L 123.71904 324.681995 
L 125.61408 324.681995 
L 129.40416 313.770653 
L 133.19424 310.508499 
L 135.08928 302.85931 
L 136.98432 299.034716 
L 138.87936 296.841199 
L 140.7744 296.841199 
L 142.66944 293.016605 
L 144.56448 286.998493 
L 146.45952 286.998493 
L 148.35456 281.542822 
L 150.2496 281.542822 
L 152.14464 276.087151 
L 154.03968 274.456074 
L 155.93472 270.06904 
L 157.82976 267.875523 
L 159.7248 267.875523 
L 161.61984 260.226334 
L 163.51488 256.40174 
L 165.40992 250.383629 
L 167.30496 245.996594 
L 169.2 244.365517 
L 171.09504 242.172 
L 172.99008 238.909846 
L 174.88512 237.278769 
L 176.78016 234.016615 
L 178.6752 232.385538 
L 180.57024 229.123385 
L 182.46528 227.492308 
L 184.36032 222.036637 
L 186.25536 219.843119 
L 188.1504 212.193931 
L 190.04544 212.193931 
L 191.94048 210.000414 
L 193.83552 204.544743 
L 195.73056 202.913666 
L 197.6256 199.089072 
L 199.52064 197.457995 
L 201.41568 194.195841 
L 203.31072 192.564764 
L 205.20576 188.74017 
L 207.1008 187.109093 
L 208.99584 180.022345 
L 210.89088 174.004233 
L 212.78592 174.004233 
L 214.68096 171.810716 
L 216.576 167.986122 
L 218.47104 166.355045 
L 220.36608 162.530451 
L 222.26112 162.530451 
L 224.15616 160.899374 
L 226.0512 153.812626 
L 229.84128 150.550472 
L 231.73632 146.163438 
L 235.5264 146.163438 
L 237.42144 141.776403 
L 239.31648 141.776403 
L 241.21152 140.145326 
L 243.10656 140.145326 
L 245.0016 135.758292 
L 246.89664 132.496138 
L 248.79168 128.671544 
L 250.68672 128.671544 
L 252.58176 125.40939 
L 254.4768 123.778313 
L 258.26688 123.778313 
L 260.16192 119.953719 
L 262.05696 113.373167 
L 267.74208 113.373167 
L 269.63712 111.74209 
L 275.32224 111.74209 
L 277.21728 110.111013 
L 279.11232 107.917496 
L 284.79744 107.917496 
L 286.69248 105.723979 
L 288.58752 105.723979 
L 290.48256 104.092902 
L 292.3776 104.092902 
L 298.06272 99.199671 
L 311.328 99.199671 
L 313.22304 97.568594 
L 322.69824 97.568594 
L 324.59328 95.375077 
L 351.12384 95.375077 
L 353.01888 93.744 
L 642.96 93.744 
L 642.96 93.744 
" clip-path="url(#pc352155285)" style="fill: none; stroke-dasharray: 1.35,2.2275; stroke-dashoffset: 0; stroke: #7d8a92; stroke-width: 1.35"/>
   </g>
   <g id="line2d_31">
    <path d="M 74.448 348.192 
L 104.76864 348.192 
L 108.55872 343.804966 
L 127.50912 343.804966 
L 129.40416 341.611448 
L 131.2992 341.611448 
L 133.19424 339.417931 
L 136.98432 339.417931 
L 138.87936 337.224414 
L 140.7744 337.224414 
L 142.66944 335.030897 
L 148.35456 335.030897 
L 150.2496 333.39982 
L 154.03968 333.39982 
L 157.82976 329.012785 
L 163.51488 329.012785 
L 165.40992 322.432233 
L 167.30496 318.045199 
L 169.2 311.464647 
L 174.88512 304.884095 
L 176.78016 304.884095 
L 178.6752 302.690578 
L 186.25536 302.690578 
L 188.1504 298.303544 
L 195.73056 298.303544 
L 197.6256 293.916509 
L 201.41568 293.916509 
L 203.31072 289.529475 
L 205.20576 289.529475 
L 207.1008 285.14244 
L 208.99584 282.948923 
L 210.89088 282.948923 
L 212.78592 281.317846 
L 214.68096 279.124329 
L 227.94624 279.124329 
L 229.84128 274.737294 
L 231.73632 274.737294 
L 235.5264 270.35026 
L 237.42144 263.769708 
L 239.31648 263.769708 
L 241.21152 261.576191 
L 243.10656 261.576191 
L 245.0016 259.382674 
L 246.89664 257.751597 
L 254.4768 257.751597 
L 256.37184 253.927003 
L 258.26688 253.927003 
L 260.16192 251.733485 
L 263.952 244.084297 
L 265.84704 241.89078 
L 267.74208 240.259703 
L 269.63712 234.804032 
L 275.32224 228.22348 
L 279.11232 228.22348 
L 281.00736 226.592403 
L 286.69248 226.592403 
L 288.58752 222.767809 
L 290.48256 222.767809 
L 292.3776 221.136732 
L 294.27264 221.136732 
L 296.16768 219.505655 
L 298.06272 216.243501 
L 299.95776 208.031873 
L 301.8528 208.031873 
L 305.64288 204.769719 
L 307.53792 204.769719 
L 309.43296 200.945125 
L 313.22304 200.945125 
L 315.11808 199.314048 
L 317.01312 199.314048 
L 318.90816 196.051894 
L 320.8032 193.858377 
L 324.59328 193.858377 
L 326.48832 192.2273 
L 328.38336 188.402706 
L 330.2784 185.140552 
L 334.06848 185.140552 
L 335.96352 181.878398 
L 339.7536 178.616244 
L 341.64864 175.35409 
L 343.54368 170.460859 
L 345.43872 168.267342 
L 347.33376 168.267342 
L 349.2288 163.374111 
L 351.12384 160.111958 
L 353.01888 160.111958 
L 354.91392 156.849804 
L 356.80896 156.849804 
L 358.704 155.218727 
L 360.59904 151.956573 
L 362.49408 147.063342 
L 364.38912 147.063342 
L 368.1792 140.539034 
L 370.07424 140.539034 
L 371.96928 138.907958 
L 373.86432 135.083363 
L 375.75936 135.083363 
L 377.6544 131.82121 
L 381.44448 131.82121 
L 383.33952 130.190133 
L 385.23456 130.190133 
L 387.1296 126.927979 
L 389.02464 125.296902 
L 390.91968 125.296902 
L 398.49984 118.772594 
L 409.87008 118.772594 
L 411.76512 113.316923 
L 413.66016 113.316923 
L 415.5552 111.685846 
L 417.45024 111.685846 
L 419.34528 110.054769 
L 421.24032 106.792615 
L 425.0304 106.792615 
L 426.92544 105.161538 
L 442.08576 105.161538 
L 443.9808 103.530462 
L 453.456 103.530462 
L 459.14112 98.637231 
L 464.82624 98.637231 
L 466.72128 97.006154 
L 478.09152 97.006154 
L 479.98656 95.375077 
L 515.99232 95.375077 
L 517.88736 93.744 
L 642.96 93.744 
L 642.96 93.744 
" clip-path="url(#pc352155285)" style="fill: none; stroke-dasharray: 8.64,2.16,1.35,2.16; stroke-dashoffset: 0; stroke: #d0526a; stroke-width: 1.35"/>
   </g>
   <g id="line2d_32">
    <path d="M 74.448 348.192 
L 100.97856 348.192 
L 102.8736 345.998483 
L 116.13888 345.998483 
L 118.03392 343.804966 
L 135.08928 343.804966 
L 136.98432 341.611448 
L 138.87936 341.611448 
L 140.7744 339.417931 
L 148.35456 339.417931 
L 150.2496 337.224414 
L 152.14464 337.224414 
L 157.82976 330.643862 
L 167.30496 330.643862 
L 169.2 328.450345 
L 171.09504 326.819268 
L 172.99008 326.819268 
L 174.88512 322.432233 
L 178.6752 322.432233 
L 180.57024 320.238716 
L 182.46528 313.658164 
L 184.36032 313.658164 
L 191.94048 304.884095 
L 195.73056 304.884095 
L 197.6256 302.690578 
L 201.41568 302.690578 
L 203.31072 300.497061 
L 207.1008 300.497061 
L 208.99584 298.303544 
L 212.78592 298.303544 
L 216.576 293.916509 
L 220.36608 293.916509 
L 222.26112 289.529475 
L 226.0512 289.529475 
L 227.94624 282.948923 
L 229.84128 282.948923 
L 231.73632 281.317846 
L 233.63136 279.124329 
L 245.0016 279.124329 
L 248.79168 274.737294 
L 252.58176 274.737294 
L 256.37184 265.963225 
L 258.26688 263.769708 
L 260.16192 263.769708 
L 263.952 259.382674 
L 265.84704 259.382674 
L 267.74208 257.751597 
L 271.53216 257.751597 
L 273.4272 255.55808 
L 275.32224 255.55808 
L 277.21728 253.927003 
L 279.11232 251.733485 
L 281.00736 246.277814 
L 282.9024 244.084297 
L 284.79744 244.084297 
L 286.69248 240.259703 
L 288.58752 236.997549 
L 290.48256 232.610515 
L 292.3776 232.610515 
L 296.16768 228.22348 
L 299.95776 228.22348 
L 301.8528 226.592403 
L 305.64288 226.592403 
L 307.53792 224.398886 
L 313.22304 219.505655 
L 315.11808 219.505655 
L 317.01312 215.681061 
L 318.90816 212.418907 
L 320.8032 208.031873 
L 322.69824 206.400796 
L 324.59328 206.400796 
L 328.38336 203.138642 
L 330.2784 200.945125 
L 332.17344 200.945125 
L 334.06848 199.314048 
L 337.85856 199.314048 
L 339.7536 193.858377 
L 343.54368 193.858377 
L 345.43872 192.2273 
L 347.33376 190.033782 
L 349.2288 185.140552 
L 353.01888 185.140552 
L 354.91392 183.509475 
L 356.80896 180.247321 
L 360.59904 176.985167 
L 362.49408 172.091936 
L 364.38912 168.829782 
L 366.28416 165.005188 
L 368.1792 161.743034 
L 370.07424 161.743034 
L 373.86432 158.480881 
L 375.75936 155.218727 
L 377.6544 153.58765 
L 379.54944 153.58765 
L 381.44448 147.063342 
L 383.33952 147.063342 
L 387.1296 143.801188 
L 390.91968 137.276881 
L 392.81472 137.276881 
L 394.70976 133.452286 
L 396.6048 131.82121 
L 402.28992 131.82121 
L 404.18496 128.559056 
L 406.08 128.559056 
L 407.97504 125.296902 
L 409.87008 125.296902 
L 411.76512 123.665825 
L 413.66016 120.403671 
L 415.5552 120.403671 
L 417.45024 118.772594 
L 426.92544 118.772594 
L 428.82048 117.141517 
L 430.71552 117.141517 
L 432.61056 113.316923 
L 434.5056 111.685846 
L 436.40064 111.685846 
L 443.9808 105.161538 
L 461.03616 105.161538 
L 462.9312 103.530462 
L 470.51136 103.530462 
L 472.4064 101.899385 
L 474.30144 101.899385 
L 476.19648 98.637231 
L 483.77664 98.637231 
L 485.67168 97.006154 
L 497.04192 97.006154 
L 498.93696 95.375077 
L 534.94272 95.375077 
L 536.83776 93.744 
L 642.96 93.744 
L 642.96 93.744 
" clip-path="url(#pc352155285)" style="fill: none; stroke-dasharray: 6.75,2.7,1.35,2.7; stroke-dashoffset: 0; stroke: #2f8f84; stroke-width: 1.35"/>
   </g>
   <g id="patch_4">
    <path d="M 74.448 348.192 
L 74.448 93.744 
" style="fill: none; stroke: #000000; stroke-width: 0.8; stroke-linejoin: miter; stroke-linecap: square"/>
   </g>
   <g id="patch_5">
    <path d="M 74.448 348.192 
L 642.96 348.192 
" style="fill: none; stroke: #000000; stroke-width: 0.8; stroke-linejoin: miter; stroke-linecap: square"/>
   </g>
  </g>
  <g id="text_16">
   <text style="font: 18px 'DejaVu Sans', 'Bitstream Vera Sans', 'Computer Modern Sans Serif', 'Lucida Grande', 'Verdana', 'Geneva', 'Lucid', 'Arial', 'Helvetica', 'Avant Garde', sans-serif; text-anchor: start" x="74.448" y="38.229188" transform="rotate(-0 74.448 38.229188)">WOLED → WLED LCD</text>
  </g>
  <g id="text_17">
   <text style="fill: #66747c; font: 10px 'DejaVu Sans', 'Bitstream Vera Sans', 'Computer Modern Sans Serif', 'Lucida Grande', 'Verdana', 'Geneva', 'Lucid', 'Arial', 'Helvetica', 'Avant Garde', sans-serif; text-anchor: start" x="74.448" y="64.728" transform="rotate(-0 74.448 64.728)">All illuminants</text>
  </g>
  <g id="legend_1">
   <g id="line2d_33">
    <path d="M 185.17875 404.151391 
L 194.27875 404.151391 
L 203.37875 404.151391 
" style="fill: none; stroke: #252525; stroke-width: 2.5; stroke-linecap: square"/>
   </g>
   <g id="text_18">
    <text style="font: 9.1px 'DejaVu Sans', 'Bitstream Vera Sans', 'Computer Modern Sans Serif', 'Lucida Grande', 'Verdana', 'Geneva', 'Lucid', 'Arial', 'Helvetica', 'Avant Garde', sans-serif; text-anchor: start" x="210.65875" y="407.336391" transform="rotate(-0 210.65875 407.336391)">Potera CMF</text>
   </g>
   <g id="line2d_34">
    <path d="M 185.17875 417.508484 
L 194.27875 417.508484 
L 203.37875 417.508484 
" style="fill: none; stroke: #3b83b4; stroke-width: 1.35; stroke-linecap: square"/>
   </g>
   <g id="text_19">
    <text style="font: 9.1px 'DejaVu Sans', 'Bitstream Vera Sans', 'Computer Modern Sans Serif', 'Lucida Grande', 'Verdana', 'Geneva', 'Lucid', 'Arial', 'Helvetica', 'Avant Garde', sans-serif; text-anchor: start" x="210.65875" y="420.693484" transform="rotate(-0 210.65875 420.693484)">CIE 2015 2°</text>
   </g>
   <g id="line2d_35">
    <path d="M 282.931234 404.151391 
L 292.031234 404.151391 
L 301.131234 404.151391 
" style="fill: none; stroke-dasharray: 4.995,2.16; stroke-dashoffset: 0; stroke: #c38a19; stroke-width: 1.35"/>
   </g>
   <g id="text_20">
    <text style="font: 9.1px 'DejaVu Sans', 'Bitstream Vera Sans', 'Computer Modern Sans Serif', 'Lucida Grande', 'Verdana', 'Geneva', 'Lucid', 'Arial', 'Helvetica', 'Avant Garde', sans-serif; text-anchor: start" x="308.411234" y="407.336391" transform="rotate(-0 308.411234 407.336391)">CIE 2015 10°</text>
   </g>
   <g id="line2d_36">
    <path d="M 282.931234 417.508484 
L 292.031234 417.508484 
L 301.131234 417.508484 
" style="fill: none; stroke-dasharray: 1.35,2.2275; stroke-dashoffset: 0; stroke: #7d8a92; stroke-width: 1.35"/>
   </g>
   <g id="text_21">
    <text style="font: 9.1px 'DejaVu Sans', 'Bitstream Vera Sans', 'Computer Modern Sans Serif', 'Lucida Grande', 'Verdana', 'Geneva', 'Lucid', 'Arial', 'Helvetica', 'Avant Garde', sans-serif; text-anchor: start" x="308.411234" y="420.693484" transform="rotate(-0 308.411234 420.693484)">CIE 1964 10°</text>
   </g>
   <g id="line2d_37">
    <path d="M 386.473594 404.151391 
L 395.573594 404.151391 
L 404.673594 404.151391 
" style="fill: none; stroke-dasharray: 8.64,2.16,1.35,2.16; stroke-dashoffset: 0; stroke: #d0526a; stroke-width: 1.35"/>
   </g>
   <g id="text_22">
    <text style="font: 9.1px 'DejaVu Sans', 'Bitstream Vera Sans', 'Computer Modern Sans Serif', 'Lucida Grande', 'Verdana', 'Geneva', 'Lucid', 'Arial', 'Helvetica', 'Avant Garde', sans-serif; text-anchor: start" x="411.953594" y="407.336391" transform="rotate(-0 411.953594 407.336391)">CIE 1931 2°</text>
   </g>
   <g id="line2d_38">
    <path d="M 386.473594 417.508484 
L 395.573594 417.508484 
L 404.673594 417.508484 
" style="fill: none; stroke-dasharray: 6.75,2.7,1.35,2.7; stroke-dashoffset: 0; stroke: #2f8f84; stroke-width: 1.35"/>
   </g>
   <g id="text_23">
    <text style="font: 9.1px 'DejaVu Sans', 'Bitstream Vera Sans', 'Computer Modern Sans Serif', 'Lucida Grande', 'Verdana', 'Geneva', 'Lucid', 'Arial', 'Helvetica', 'Avant Garde', sans-serif; text-anchor: start" x="411.953594" y="420.693484" transform="rotate(-0 411.953594 420.693484)">Judd–Vos 1978 2°</text>
   </g>
  </g>
 </g>
 <defs>
  <clipPath id="pc352155285">
   <rect x="74.448" y="93.744" width="568.512" height="254.448"/>
  </clipPath>
 </defs>
</svg>
