<?xml version="1.0" encoding="utf-8" standalone="no"?>
<!DOCTYPE svg PUBLIC "-//W3C//DTD SVG 1.1//EN"
  "http://www.w3.org/Graphics/SVG/1.1/DTD/svg11.dtd">
<svg xmlns:xlink="http://www.w3.org/1999/xlink" width="676.8pt" height="446.4pt" viewBox="0 0 676.8 446.4" xmlns="http://www.w3.org/2000/svg" version="1.1">
 <metadata>
  <rdf:RDF xmlns:dc="http://purl.org/dc/elements/1.1/" xmlns:cc="http://creativecommons.org/ns#" xmlns:rdf="http://www.w3.org/1999/02/22-rdf-syntax-ns#">
   <cc:Work>
    <dc:type rdf:resource="http://purl.org/dc/dcmitype/StillImage"/>
    <dc:date>2026-07-20T06:41:59.143749</dc:date>
    <dc:format>image/svg+xml</dc:format>
    <dc:creator>
     <cc:Agent>
      <dc:title>Matplotlib v3.9.4, https://matplotlib.org/</dc:title>
     </cc:Agent>
    </dc:creator>
   </cc:Work>
  </rdf:RDF>
 </metadata>
 <defs>
  <style type="text/css">*{stroke-linejoin: round; stroke-linecap: butt}</style>
 </defs>
 <g id="figure_1">
  <g id="patch_1">
   <path d="M 0 446.4 
L 676.8 446.4 
L 676.8 0 
L 0 0 
z
" style="fill: #ffffff"/>
  </g>
  <g id="axes_1">
   <g id="patch_2">
    <path d="M 74.448 348.192 
L 642.96 348.192 
L 642.96 93.744 
L 74.448 93.744 
z
" style="fill: #ffffff"/>
   </g>
   <g id="patch_3">
    <path d="M 169.2 348.192 
L 358.704 348.192 
L 358.704 93.744 
L 169.2 93.744 
z
" clip-path="url(#p99e464e499)" style="fill: #e7f0ea; opacity: 0.58; stroke: #e7f0ea; stroke-linejoin: miter"/>
   </g>
   <g id="matplotlib.axis_1">
    <g id="xtick_1">
     <g id="line2d_1">
      <path d="M 74.448 348.192 
L 74.448 93.744 
" clip-path="url(#p99e464e499)" style="fill: none; stroke: #dfe5e8; stroke-width: 0.65; stroke-linecap: square"/>
     </g>
     <g id="line2d_2">
      <defs>
       <path id="m6079e1444b" d="M 0 0 
L 0 3.5 
" style="stroke: #000000; stroke-width: 0.8"/>
      </defs>
      <g>
       <use xlink:href="#m6079e1444b" x="74.448" y="348.192" style="stroke: #000000; stroke-width: 0.8"/>
      </g>
     </g>
     <g id="text_1">
      <text style="font: 10px 'DejaVu Sans', 'Bitstream Vera Sans', 'Computer Modern Sans Serif', 'Lucida Grande', 'Verdana', 'Geneva', 'Lucid', 'Arial', 'Helvetica', 'Avant Garde', sans-serif; text-anchor: middle" x="74.448" y="362.790438" transform="rotate(-0 74.448 362.790438)">0</text>
     </g>
    </g>
    <g id="xtick_2">
     <g id="line2d_3">
      <path d="M 169.2 348.192 
L 169.2 93.744 
" clip-path="url(#p99e464e499)" style="fill: none; stroke: #dfe5e8; stroke-width: 0.65; stroke-linecap: square"/>
     </g>
     <g id="line2d_4">
      <g>
       <use xlink:href="#m6079e1444b" x="169.2" y="348.192" style="stroke: #000000; stroke-width: 0.8"/>
      </g>
     </g>
     <g id="text_2">
      <text style="font: 10px 'DejaVu Sans', 'Bitstream Vera Sans', 'Computer Modern Sans Serif', 'Lucida Grande', 'Verdana', 'Geneva', 'Lucid', 'Arial', 'Helvetica', 'Avant Garde', sans-serif; text-anchor: middle" x="169.2" y="362.790438" transform="rotate(-0 169.2 362.790438)">1</text>
     </g>
    </g>
    <g id="xtick_3">
     <g id="line2d_5">
      <path d="M 263.952 348.192 
L 263.952 93.744 
" clip-path="url(#p99e464e499)" style="fill: none; stroke: #dfe5e8; stroke-width: 0.65; stroke-linecap: square"/>
     </g>
     <g id="line2d_6">
      <g>
       <use xlink:href="#m6079e1444b" x="263.952" y="348.192" style="stroke: #000000; stroke-width: 0.8"/>
      </g>
     </g>
     <g id="text_3">
      <text style="font: 10px 'DejaVu Sans', 'Bitstream Vera Sans', 'Computer Modern Sans Serif', 'Lucida Grande', 'Verdana', 'Geneva', 'Lucid', 'Arial', 'Helvetica', 'Avant Garde', sans-serif; text-anchor: middle" x="263.952" y="362.790438" transform="rotate(-0 263.952 362.790438)">2</text>
     </g>
    </g>
    <g id="xtick_4">
     <g id="line2d_7">
      <path d="M 358.704 348.192 
L 358.704 93.744 
" clip-path="url(#p99e464e499)" style="fill: none; stroke: #dfe5e8; stroke-width: 0.65; stroke-linecap: square"/>
     </g>
     <g id="line2d_8">
      <g>
       <use xlink:href="#m6079e1444b" x="358.704" y="348.192" style="stroke: #000000; stroke-width: 0.8"/>
      </g>
     </g>
     <g id="text_4">
      <text style="font: 10px 'DejaVu Sans', 'Bitstream Vera Sans', 'Computer Modern Sans Serif', 'Lucida Grande', 'Verdana', 'Geneva', 'Lucid', 'Arial', 'Helvetica', 'Avant Garde', sans-serif; text-anchor: middle" x="358.704" y="362.790438" transform="rotate(-0 358.704 362.790438)">3</text>
     </g>
    </g>
    <g id="xtick_5">
     <g id="line2d_9">
      <path d="M 453.456 348.192 
L 453.456 93.744 
" clip-path="url(#p99e464e499)" style="fill: none; stroke: #dfe5e8; stroke-width: 0.65; stroke-linecap: square"/>
     </g>
     <g id="line2d_10">
      <g>
       <use xlink:href="#m6079e1444b" x="453.456" y="348.192" style="stroke: #000000; stroke-width: 0.8"/>
      </g>
     </g>
     <g id="text_5">
      <text style="font: 10px 'DejaVu Sans', 'Bitstream Vera Sans', 'Computer Modern Sans Serif', 'Lucida Grande', 'Verdana', 'Geneva', 'Lucid', 'Arial', 'Helvetica', 'Avant Garde', sans-serif; text-anchor: middle" x="453.456" y="362.790438" transform="rotate(-0 453.456 362.790438)">4</text>
     </g>
    </g>
    <g id="xtick_6">
     <g id="line2d_11">
      <path d="M 548.208 348.192 
L 548.208 93.744 
" clip-path="url(#p99e464e499)" style="fill: none; stroke: #dfe5e8; stroke-width: 0.65; stroke-linecap: square"/>
     </g>
     <g id="line2d_12">
      <g>
       <use xlink:href="#m6079e1444b" x="548.208" y="348.192" style="stroke: #000000; stroke-width: 0.8"/>
      </g>
     </g>
     <g id="text_6">
      <text style="font: 10px 'DejaVu Sans', 'Bitstream Vera Sans', 'Computer Modern Sans Serif', 'Lucida Grande', 'Verdana', 'Geneva', 'Lucid', 'Arial', 'Helvetica', 'Avant Garde', sans-serif; text-anchor: middle" x="548.208" y="362.790438" transform="rotate(-0 548.208 362.790438)">5</text>
     </g>
    </g>
    <g id="xtick_7">
     <g id="line2d_13">
      <path d="M 642.96 348.192 
L 642.96 93.744 
" clip-path="url(#p99e464e499)" style="fill: none; stroke: #dfe5e8; stroke-width: 0.65; stroke-linecap: square"/>
     </g>
     <g id="line2d_14">
      <g>
       <use xlink:href="#m6079e1444b" x="642.96" y="348.192" style="stroke: #000000; stroke-width: 0.8"/>
      </g>
     </g>
     <g id="text_7">
      <text style="font: 10px 'DejaVu Sans', 'Bitstream Vera Sans', 'Computer Modern Sans Serif', 'Lucida Grande', 'Verdana', 'Geneva', 'Lucid', 'Arial', 'Helvetica', 'Avant Garde', sans-serif; text-anchor: middle" x="642.96" y="362.790438" transform="rotate(-0 642.96 362.790438)">6</text>
     </g>
    </g>
    <g id="text_8">
     <text style="font: 10px 'DejaVu Sans', 'Bitstream Vera Sans', 'Computer Modern Sans Serif', 'Lucida Grande', 'Verdana', 'Geneva', 'Lucid', 'Arial', 'Helvetica', 'Avant Garde', sans-serif; text-anchor: middle" x="358.704" y="376.468563" transform="rotate(-0 358.704 376.468563)">sUCS dE threshold</text>
    </g>
   </g>
   <g id="matplotlib.axis_2">
    <g id="ytick_1">
     <g id="line2d_15">
      <path d="M 74.448 348.192 
L 642.96 348.192 
" clip-path="url(#p99e464e499)" style="fill: none; stroke: #dfe5e8; stroke-width: 0.65; stroke-linecap: square"/>
     </g>
     <g id="line2d_16">
      <defs>
       <path id="m83e44d0888" d="M 0 0 
L -3.5 0 
" style="stroke: #000000; stroke-width: 0.8"/>
      </defs>
      <g>
       <use xlink:href="#m83e44d0888" x="74.448" y="348.192" style="stroke: #000000; stroke-width: 0.8"/>
      </g>
     </g>
     <g id="text_9">
      <text style="font: 10px 'DejaVu Sans', 'Bitstream Vera Sans', 'Computer Modern Sans Serif', 'Lucida Grande', 'Verdana', 'Geneva', 'Lucid', 'Arial', 'Helvetica', 'Avant Garde', sans-serif; text-anchor: end" x="67.448" y="351.991219" transform="rotate(-0 67.448 351.991219)">0</text>
     </g>
    </g>
    <g id="ytick_2">
     <g id="line2d_17">
      <path d="M 74.448 297.3024 
L 642.96 297.3024 
" clip-path="url(#p99e464e499)" style="fill: none; stroke: #dfe5e8; stroke-width: 0.65; stroke-linecap: square"/>
     </g>
     <g id="line2d_18">
      <g>
       <use xlink:href="#m83e44d0888" x="74.448" y="297.3024" style="stroke: #000000; stroke-width: 0.8"/>
      </g>
     </g>
     <g id="text_10">
      <text style="font: 10px 'DejaVu Sans', 'Bitstream Vera Sans', 'Computer Modern Sans Serif', 'Lucida Grande', 'Verdana', 'Geneva', 'Lucid', 'Arial', 'Helvetica', 'Avant Garde', sans-serif; text-anchor: end" x="67.448" y="301.101619" transform="rotate(-0 67.448 301.101619)">20</text>
     </g>
    </g>
    <g id="ytick_3">
     <g id="line2d_19">
      <path d="M 74.448 246.4128 
L 642.96 246.4128 
" clip-path="url(#p99e464e499)" style="fill: none; stroke: #dfe5e8; stroke-width: 0.65; stroke-linecap: square"/>
     </g>
     <g id="line2d_20">
      <g>
       <use xlink:href="#m83e44d0888" x="74.448" y="246.4128" style="stroke: #000000; stroke-width: 0.8"/>
      </g>
     </g>
     <g id="text_11">
      <text style="font: 10px 'DejaVu Sans', 'Bitstream Vera Sans', 'Computer Modern Sans Serif', 'Lucida Grande', 'Verdana', 'Geneva', 'Lucid', 'Arial', 'Helvetica', 'Avant Garde', sans-serif; text-anchor: end" x="67.448" y="250.212019" transform="rotate(-0 67.448 250.212019)">40</text>
     </g>
    </g>
    <g id="ytick_4">
     <g id="line2d_21">
      <path d="M 74.448 195.5232 
L 642.96 195.5232 
" clip-path="url(#p99e464e499)" style="fill: none; stroke: #dfe5e8; stroke-width: 0.65; stroke-linecap: square"/>
     </g>
     <g id="line2d_22">
      <g>
       <use xlink:href="#m83e44d0888" x="74.448" y="195.5232" style="stroke: #000000; stroke-width: 0.8"/>
      </g>
     </g>
     <g id="text_12">
      <text style="font: 10px 'DejaVu Sans', 'Bitstream Vera Sans', 'Computer Modern Sans Serif', 'Lucida Grande', 'Verdana', 'Geneva', 'Lucid', 'Arial', 'Helvetica', 'Avant Garde', sans-serif; text-anchor: end" x="67.448" y="199.322419" transform="rotate(-0 67.448 199.322419)">60</text>
     </g>
    </g>
    <g id="ytick_5">
     <g id="line2d_23">
      <path d="M 74.448 144.6336 
L 642.96 144.6336 
" clip-path="url(#p99e464e499)" style="fill: none; stroke: #dfe5e8; stroke-width: 0.65; stroke-linecap: square"/>
     </g>
     <g id="line2d_24">
      <g>
       <use xlink:href="#m83e44d0888" x="74.448" y="144.6336" style="stroke: #000000; stroke-width: 0.8"/>
      </g>
     </g>
     <g id="text_13">
      <text style="font: 10px 'DejaVu Sans', 'Bitstream Vera Sans', 'Computer Modern Sans Serif', 'Lucida Grande', 'Verdana', 'Geneva', 'Lucid', 'Arial', 'Helvetica', 'Avant Garde', sans-serif; text-anchor: end" x="67.448" y="148.432819" transform="rotate(-0 67.448 148.432819)">80</text>
     </g>
    </g>
    <g id="ytick_6">
     <g id="line2d_25">
      <path d="M 74.448 93.744 
L 642.96 93.744 
" clip-path="url(#p99e464e499)" style="fill: none; stroke: #dfe5e8; stroke-width: 0.65; stroke-linecap: square"/>
     </g>
     <g id="line2d_26">
      <g>
       <use xlink:href="#m83e44d0888" x="74.448" y="93.744" style="stroke: #000000; stroke-width: 0.8"/>
      </g>
     </g>
     <g id="text_14">
      <text style="font: 10px 'DejaVu Sans', 'Bitstream Vera Sans', 'Computer Modern Sans Serif', 'Lucida Grande', 'Verdana', 'Geneva', 'Lucid', 'Arial', 'Helvetica', 'Avant Garde', sans-serif; text-anchor: end" x="67.448" y="97.543219" transform="rotate(-0 67.448 97.543219)">100</text>
     </g>
    </g>
    <g id="text_15">
     <text style="font: 10px 'DejaVu Sans', 'Bitstream Vera Sans', 'Computer Modern Sans Serif', 'Lucida Grande', 'Verdana', 'Geneva', 'Lucid', 'Arial', 'Helvetica', 'Avant Garde', sans-serif; text-anchor: middle" x="42.280812" y="220.968" transform="rotate(-90 42.280812 220.968)">observers%</text>
    </g>
   </g>
   <g id="line2d_27">
    <path d="M 74.448 348.192 
L 82.02816 348.192 
L 83.9232 345.998483 
L 85.81824 342.736329 
L 87.71328 342.736329 
L 89.60832 341.105252 
L 91.50336 338.911735 
L 93.3984 337.280658 
L 97.18848 337.280658 
L 102.8736 325.806875 
L 104.76864 323.613358 
L 108.55872 320.351204 
L 110.45376 320.351204 
L 112.3488 318.157687 
L 118.03392 318.157687 
L 119.92896 315.96417 
L 121.824 314.333093 
L 123.71904 314.333093 
L 125.61408 310.508499 
L 127.50912 304.490387 
L 129.40416 300.665793 
L 131.2992 298.472276 
L 133.19424 294.085241 
L 135.08928 294.085241 
L 136.98432 292.454164 
L 138.87936 288.06713 
L 140.7744 288.06713 
L 142.66944 284.242536 
L 144.56448 280.980382 
L 146.45952 279.349305 
L 148.35456 279.349305 
L 150.2496 277.718228 
L 152.14464 271.700117 
L 154.03968 271.700117 
L 155.93472 268.437963 
L 157.82976 262.982292 
L 159.7248 256.96418 
L 161.61984 252.07095 
L 165.40992 252.07095 
L 167.30496 248.808796 
L 169.2 242.790684 
L 171.09504 240.597167 
L 172.99008 233.510419 
L 174.88512 228.054748 
L 176.78016 223.161517 
L 178.6752 218.774483 
L 180.57024 217.143406 
L 182.46528 217.143406 
L 186.25536 212.756371 
L 188.1504 211.125294 
L 190.04544 208.931777 
L 191.94048 207.3007 
L 193.83552 204.038546 
L 195.73056 200.213952 
L 197.6256 196.951798 
L 199.52064 196.951798 
L 201.41568 190.933687 
L 203.31072 188.74017 
L 207.1008 181.090981 
L 208.99584 179.459905 
L 210.89088 179.459905 
L 212.78592 175.63531 
L 214.68096 175.63531 
L 216.576 174.004233 
L 220.36608 174.004233 
L 222.26112 165.848849 
L 224.15616 165.848849 
L 226.0512 159.830737 
L 227.94624 159.830737 
L 229.84128 158.19966 
L 233.63136 150.550472 
L 237.42144 147.288318 
L 241.21152 147.288318 
L 243.10656 141.270207 
L 245.0016 141.270207 
L 246.89664 137.445613 
L 248.79168 135.252095 
L 252.58176 131.989942 
L 254.4768 131.989942 
L 256.37184 130.358865 
L 260.16192 130.358865 
L 262.05696 125.97183 
L 263.952 125.97183 
L 265.84704 124.340753 
L 269.63712 124.340753 
L 271.53216 118.885082 
L 273.4272 118.885082 
L 275.32224 116.691565 
L 281.00736 116.691565 
L 282.9024 115.060488 
L 286.69248 115.060488 
L 288.58752 112.866971 
L 290.48256 112.866971 
L 292.3776 109.042377 
L 294.27264 106.848859 
L 296.16768 106.848859 
L 298.06272 103.024265 
L 299.95776 103.024265 
L 301.8528 101.393188 
L 305.64288 101.393188 
L 307.53792 99.199671 
L 317.01312 99.199671 
L 318.90816 97.568594 
L 351.12384 97.568594 
L 353.01888 95.937517 
L 362.49408 95.937517 
L 364.38912 93.744 
L 642.96 93.744 
L 642.96 93.744 
" clip-path="url(#p99e464e499)" style="fill: none; stroke: #252525; stroke-width: 2.5; stroke-linecap: square"/>
   </g>
   <g id="line2d_28">
    <path d="M 74.448 348.192 
L 83.9232 348.192 
L 85.81824 345.998483 
L 89.60832 345.998483 
L 91.50336 343.804966 
L 95.29344 343.804966 
L 99.08352 339.417931 
L 112.3488 339.417931 
L 114.24384 337.224414 
L 116.13888 337.224414 
L 118.03392 332.837379 
L 119.92896 330.643862 
L 121.824 326.256828 
L 125.61408 326.256828 
L 127.50912 321.869793 
L 129.40416 319.676276 
L 131.2992 319.676276 
L 133.19424 313.658164 
L 135.08928 311.464647 
L 140.7744 311.464647 
L 142.66944 307.077613 
L 146.45952 302.690578 
L 152.14464 302.690578 
L 154.03968 300.497061 
L 155.93472 296.110027 
L 157.82976 296.110027 
L 161.61984 291.722992 
L 163.51488 285.14244 
L 165.40992 280.755406 
L 167.30496 280.755406 
L 169.2 278.561889 
L 171.09504 278.561889 
L 180.57024 267.594302 
L 182.46528 263.769708 
L 184.36032 261.576191 
L 188.1504 261.576191 
L 190.04544 259.945114 
L 193.83552 259.945114 
L 199.52064 253.364562 
L 201.41568 251.733485 
L 203.31072 246.277814 
L 205.20576 242.45322 
L 207.1008 240.822143 
L 214.68096 232.048074 
L 216.576 232.048074 
L 220.36608 227.66104 
L 222.26112 226.029963 
L 224.15616 223.836446 
L 226.0512 220.011851 
L 233.63136 220.011851 
L 235.5264 217.818334 
L 237.42144 212.362663 
L 239.31648 210.731586 
L 243.10656 210.731586 
L 245.0016 209.100509 
L 250.68672 209.100509 
L 252.58176 205.838355 
L 256.37184 201.451321 
L 258.26688 198.189167 
L 262.05696 194.927013 
L 271.53216 194.927013 
L 273.4272 193.295936 
L 275.32224 190.033782 
L 277.21728 190.033782 
L 279.11232 187.840265 
L 281.00736 186.209188 
L 284.79744 179.684881 
L 286.69248 179.684881 
L 290.48256 176.422727 
L 294.27264 169.898419 
L 296.16768 169.898419 
L 298.06272 168.267342 
L 299.95776 168.267342 
L 303.74784 165.005188 
L 305.64288 158.480881 
L 307.53792 156.849804 
L 317.01312 156.849804 
L 318.90816 153.02521 
L 320.8032 153.02521 
L 324.59328 149.763056 
L 326.48832 144.869825 
L 328.38336 143.238748 
L 330.2784 139.976594 
L 332.17344 138.345517 
L 335.96352 138.345517 
L 337.85856 136.71444 
L 339.7536 136.71444 
L 341.64864 135.083363 
L 343.54368 131.82121 
L 345.43872 130.190133 
L 347.33376 130.190133 
L 351.12384 126.927979 
L 353.01888 123.665825 
L 354.91392 123.665825 
L 356.80896 120.403671 
L 358.704 118.772594 
L 366.28416 118.772594 
L 368.1792 117.141517 
L 370.07424 117.141517 
L 373.86432 113.879363 
L 375.75936 113.879363 
L 377.6544 112.248286 
L 379.54944 110.054769 
L 383.33952 106.792615 
L 392.81472 106.792615 
L 394.70976 105.161538 
L 396.6048 105.161538 
L 398.49984 103.530462 
L 413.66016 103.530462 
L 415.5552 101.899385 
L 419.34528 101.899385 
L 421.24032 100.268308 
L 423.13536 100.268308 
L 425.0304 98.637231 
L 430.71552 98.637231 
L 432.61056 97.006154 
L 447.77088 97.006154 
L 449.66592 95.375077 
L 481.8816 95.375077 
L 483.77664 93.744 
L 642.96 93.744 
L 642.96 93.744 
" clip-path="url(#p99e464e499)" style="fill: none; stroke: #3b83b4; stroke-width: 1.35; stroke-linecap: square"/>
   </g>
   <g id="line2d_29">
    <path d="M 74.448 348.192 
L 85.81824 348.192 
L 89.60832 341.667692 
L 93.3984 341.667692 
L 95.29344 335.143385 
L 97.18848 335.143385 
L 99.08352 333.512308 
L 100.97856 333.512308 
L 102.8736 330.250154 
L 110.45376 323.725846 
L 112.3488 323.725846 
L 114.24384 320.463692 
L 116.13888 315.570462 
L 118.03392 313.939385 
L 119.92896 310.11479 
L 125.61408 310.11479 
L 129.40416 306.852637 
L 131.2992 301.396966 
L 133.19424 297.572371 
L 135.08928 291.048064 
L 136.98432 281.767798 
L 138.87936 276.312127 
L 140.7744 274.11861 
L 142.66944 270.294016 
L 144.56448 268.662939 
L 146.45952 265.400785 
L 148.35456 265.400785 
L 150.2496 262.138631 
L 152.14464 262.138631 
L 154.03968 258.314037 
L 157.82976 247.402695 
L 159.7248 242.509464 
L 161.61984 239.24731 
L 163.51488 237.616233 
L 165.40992 235.422716 
L 167.30496 228.335968 
L 169.2 226.704891 
L 171.09504 226.704891 
L 172.99008 224.511374 
L 174.88512 224.511374 
L 176.78016 222.880297 
L 180.57024 222.880297 
L 182.46528 220.68678 
L 184.36032 215.231109 
L 186.25536 211.968955 
L 190.04544 208.706801 
L 191.94048 201.057613 
L 193.83552 199.426536 
L 195.73056 199.426536 
L 201.41568 192.845984 
L 203.31072 192.845984 
L 205.20576 190.652467 
L 207.1008 185.196796 
L 210.89088 185.196796 
L 212.78592 179.178684 
L 214.68096 176.985167 
L 220.36608 176.985167 
L 222.26112 173.160573 
L 224.15616 170.967056 
L 226.0512 170.967056 
L 227.94624 167.142462 
L 229.84128 162.755427 
L 231.73632 158.930833 
L 239.31648 158.930833 
L 241.21152 151.281645 
L 243.10656 149.088127 
L 248.79168 149.088127 
L 250.68672 147.45705 
L 252.58176 147.45705 
L 256.37184 143.070016 
L 258.26688 143.070016 
L 260.16192 139.245422 
L 262.05696 137.051905 
L 265.84704 137.051905 
L 271.53216 130.471353 
L 284.79744 130.471353 
L 286.69248 128.277836 
L 292.3776 128.277836 
L 294.27264 126.646759 
L 296.16768 126.646759 
L 298.06272 120.066207 
L 303.74784 120.066207 
L 305.64288 117.87269 
L 307.53792 117.87269 
L 309.43296 113.485655 
L 317.01312 113.485655 
L 318.90816 111.292138 
L 330.2784 111.292138 
L 332.17344 106.905103 
L 334.06848 106.905103 
L 337.85856 102.518069 
L 351.12384 102.518069 
L 353.01888 98.131034 
L 364.38912 98.131034 
L 366.28416 95.937517 
L 411.76512 95.937517 
L 413.66016 93.744 
L 642.96 93.744 
L 642.96 93.744 
" clip-path="url(#p99e464e499)" style="fill: none; stroke-dasharray: 4.995,2.16; stroke-dashoffset: 0; stroke: #c38a19; stroke-width: 1.35"/>
   </g>
   <g id="line2d_30">
    <path d="M 74.448 348.192 
L 91.50336 348.192 
L 93.3984 345.998483 
L 97.18848 345.998483 
L 100.97856 341.611448 
L 102.8736 339.980371 
L 104.76864 337.786854 
L 108.55872 337.786854 
L 110.45376 335.593337 
L 112.3488 335.593337 
L 114.24384 332.331183 
L 116.13888 328.506589 
L 118.03392 326.313072 
L 121.824 326.313072 
L 123.71904 323.050918 
L 125.61408 323.050918 
L 129.40416 319.788764 
L 131.2992 319.788764 
L 133.19424 315.96417 
L 135.08928 313.770653 
L 136.98432 306.121464 
L 140.7744 299.597156 
L 142.66944 299.597156 
L 146.45952 291.947968 
L 150.2496 291.947968 
L 152.14464 288.123374 
L 154.03968 285.929857 
L 155.93472 282.105263 
L 157.82976 271.137676 
L 159.7248 269.506599 
L 161.61984 269.506599 
L 163.51488 265.682005 
L 165.40992 261.294971 
L 167.30496 257.470377 
L 169.2 254.208223 
L 172.99008 246.559034 
L 174.88512 244.365517 
L 176.78016 241.103363 
L 182.46528 236.210133 
L 184.36032 232.947979 
L 186.25536 229.123385 
L 188.1504 229.123385 
L 190.04544 227.492308 
L 191.94048 222.599077 
L 193.83552 218.212042 
L 197.6256 218.212042 
L 199.52064 216.580966 
L 201.41568 216.580966 
L 203.31072 212.193931 
L 205.20576 210.562854 
L 207.1008 200.720149 
L 210.89088 194.195841 
L 212.78592 188.74017 
L 214.68096 188.74017 
L 216.576 185.478016 
L 218.47104 181.653422 
L 220.36608 173.441793 
L 222.26112 167.986122 
L 224.15616 167.986122 
L 226.0512 164.723968 
L 227.94624 164.723968 
L 229.84128 162.530451 
L 235.5264 157.63722 
L 237.42144 153.812626 
L 239.31648 152.181549 
L 241.21152 148.356955 
L 243.10656 148.356955 
L 245.0016 146.163438 
L 248.79168 146.163438 
L 250.68672 142.338844 
L 252.58176 140.707767 
L 254.4768 140.707767 
L 256.37184 136.883172 
L 258.26688 136.883172 
L 260.16192 135.252095 
L 262.05696 129.233984 
L 263.952 125.40939 
L 265.84704 121.022355 
L 267.74208 117.197761 
L 271.53216 117.197761 
L 273.4272 115.566684 
L 277.21728 115.566684 
L 279.11232 113.935607 
L 281.00736 111.74209 
L 284.79744 111.74209 
L 286.69248 109.548573 
L 294.27264 109.548573 
L 296.16768 105.723979 
L 298.06272 105.723979 
L 299.95776 104.092902 
L 301.8528 104.092902 
L 303.74784 102.461825 
L 313.22304 102.461825 
L 315.11808 99.199671 
L 334.06848 99.199671 
L 335.96352 97.568594 
L 337.85856 97.568594 
L 339.7536 95.375077 
L 366.28416 95.375077 
L 368.1792 93.744 
L 642.96 93.744 
L 642.96 93.744 
" clip-path="url(#p99e464e499)" style="fill: none; stroke-dasharray: 1.35,2.2275; stroke-dashoffset: 0; stroke: #7d8a92; stroke-width: 1.35"/>
   </g>
   <g id="line2d_31">
    <path d="M 74.448 348.192 
L 108.55872 348.192 
L 110.45376 341.611448 
L 148.35456 341.611448 
L 152.14464 337.224414 
L 159.7248 337.224414 
L 161.61984 335.593337 
L 165.40992 326.819268 
L 167.30496 324.625751 
L 169.2 324.625751 
L 171.09504 322.432233 
L 178.6752 322.432233 
L 184.36032 315.851682 
L 186.25536 311.464647 
L 193.83552 302.690578 
L 195.73056 302.690578 
L 197.6256 300.497061 
L 201.41568 300.497061 
L 203.31072 298.303544 
L 207.1008 298.303544 
L 208.99584 296.110027 
L 210.89088 296.110027 
L 214.68096 291.722992 
L 216.576 291.722992 
L 218.47104 287.335958 
L 226.0512 287.335958 
L 227.94624 281.317846 
L 231.73632 281.317846 
L 233.63136 279.124329 
L 237.42144 279.124329 
L 239.31648 276.930812 
L 243.10656 276.930812 
L 245.0016 274.737294 
L 250.68672 274.737294 
L 252.58176 272.543777 
L 256.37184 272.543777 
L 258.26688 265.963225 
L 262.05696 265.963225 
L 263.952 261.576191 
L 265.84704 259.945114 
L 269.63712 259.945114 
L 271.53216 258.314037 
L 273.4272 256.12052 
L 275.32224 256.12052 
L 277.21728 254.489443 
L 279.11232 252.295926 
L 281.00736 246.277814 
L 282.9024 244.084297 
L 286.69248 244.084297 
L 288.58752 241.89078 
L 290.48256 241.89078 
L 292.3776 236.997549 
L 294.27264 236.997549 
L 296.16768 235.366472 
L 299.95776 226.592403 
L 301.8528 224.398886 
L 305.64288 224.398886 
L 307.53792 222.767809 
L 309.43296 217.312138 
L 311.328 217.312138 
L 313.22304 215.118621 
L 315.11808 215.118621 
L 317.01312 213.487544 
L 318.90816 213.487544 
L 320.8032 211.856467 
L 322.69824 209.66295 
L 324.59328 206.400796 
L 328.38336 203.138642 
L 334.06848 203.138642 
L 335.96352 199.314048 
L 341.64864 199.314048 
L 343.54368 193.295936 
L 347.33376 193.295936 
L 351.12384 190.033782 
L 353.01888 186.771629 
L 354.91392 181.878398 
L 358.704 178.616244 
L 360.59904 178.616244 
L 362.49408 175.35409 
L 364.38912 175.35409 
L 368.1792 172.091936 
L 370.07424 168.829782 
L 371.96928 168.829782 
L 373.86432 165.567629 
L 375.75936 161.743034 
L 377.6544 158.480881 
L 379.54944 156.849804 
L 383.33952 156.849804 
L 385.23456 153.58765 
L 387.1296 153.58765 
L 390.91968 150.325496 
L 394.70976 140.539034 
L 398.49984 140.539034 
L 400.39488 138.907958 
L 402.28992 135.083363 
L 406.08 135.083363 
L 407.97504 133.452286 
L 409.87008 133.452286 
L 411.76512 130.190133 
L 413.66016 130.190133 
L 419.34528 125.296902 
L 421.24032 122.034748 
L 425.0304 122.034748 
L 428.82048 118.772594 
L 432.61056 118.772594 
L 434.5056 117.141517 
L 440.19072 117.141517 
L 442.08576 115.51044 
L 443.9808 115.51044 
L 449.66592 110.61721 
L 451.56096 108.423692 
L 453.456 106.792615 
L 457.24608 106.792615 
L 459.14112 105.161538 
L 474.30144 105.161538 
L 478.09152 101.899385 
L 485.67168 101.899385 
L 487.56672 100.268308 
L 493.25184 100.268308 
L 495.14688 98.637231 
L 498.93696 98.637231 
L 500.832 97.006154 
L 517.88736 97.006154 
L 519.7824 95.375077 
L 550.10304 95.375077 
L 551.99808 93.744 
L 642.96 93.744 
L 642.96 93.744 
" clip-path="url(#p99e464e499)" style="fill: none; stroke-dasharray: 8.64,2.16,1.35,2.16; stroke-dashoffset: 0; stroke: #d0526a; stroke-width: 1.35"/>
   </g>
   <g id="line2d_32">
    <path d="M 74.448 348.192 
L 106.66368 348.192 
L 108.55872 345.998483 
L 112.3488 345.998483 
L 114.24384 343.804966 
L 116.13888 343.804966 
L 118.03392 341.611448 
L 148.35456 341.611448 
L 150.2496 339.417931 
L 152.14464 339.417931 
L 154.03968 335.030897 
L 155.93472 335.030897 
L 157.82976 332.837379 
L 161.61984 332.837379 
L 163.51488 328.450345 
L 171.09504 328.450345 
L 172.99008 326.819268 
L 178.6752 326.819268 
L 180.57024 322.432233 
L 182.46528 322.432233 
L 184.36032 320.238716 
L 186.25536 315.851682 
L 188.1504 313.658164 
L 190.04544 313.658164 
L 195.73056 307.077613 
L 197.6256 307.077613 
L 203.31072 300.497061 
L 210.89088 300.497061 
L 212.78592 298.303544 
L 218.47104 298.303544 
L 220.36608 296.110027 
L 222.26112 296.110027 
L 224.15616 291.722992 
L 226.0512 291.722992 
L 227.94624 287.335958 
L 233.63136 287.335958 
L 237.42144 282.948923 
L 239.31648 281.317846 
L 243.10656 281.317846 
L 245.0016 276.930812 
L 254.4768 276.930812 
L 256.37184 274.737294 
L 260.16192 274.737294 
L 262.05696 270.35026 
L 265.84704 270.35026 
L 267.74208 268.156743 
L 269.63712 263.769708 
L 271.53216 263.769708 
L 273.4272 261.576191 
L 277.21728 261.576191 
L 279.11232 257.751597 
L 281.00736 255.55808 
L 282.9024 253.927003 
L 286.69248 253.927003 
L 288.58752 252.295926 
L 290.48256 252.295926 
L 292.3776 246.277814 
L 294.27264 241.89078 
L 299.95776 241.89078 
L 301.8528 239.697263 
L 303.74784 234.804032 
L 305.64288 233.172955 
L 307.53792 233.172955 
L 311.328 224.398886 
L 315.11808 224.398886 
L 317.01312 222.205369 
L 318.90816 220.574292 
L 320.8032 217.312138 
L 322.69824 217.312138 
L 324.59328 215.118621 
L 326.48832 215.118621 
L 328.38336 213.487544 
L 330.2784 213.487544 
L 332.17344 209.66295 
L 334.06848 209.66295 
L 335.96352 206.400796 
L 339.7536 203.138642 
L 341.64864 203.138642 
L 343.54368 200.945125 
L 345.43872 200.945125 
L 347.33376 199.314048 
L 351.12384 199.314048 
L 353.01888 194.927013 
L 354.91392 193.295936 
L 358.704 193.295936 
L 362.49408 190.033782 
L 364.38912 190.033782 
L 366.28416 183.509475 
L 371.96928 178.616244 
L 373.86432 175.35409 
L 375.75936 175.35409 
L 379.54944 172.091936 
L 381.44448 168.829782 
L 383.33952 168.829782 
L 385.23456 167.198706 
L 387.1296 160.111958 
L 389.02464 158.480881 
L 390.91968 158.480881 
L 392.81472 156.849804 
L 394.70976 156.849804 
L 396.6048 155.218727 
L 398.49984 151.956573 
L 400.39488 151.956573 
L 402.28992 150.325496 
L 406.08 140.539034 
L 409.87008 140.539034 
L 411.76512 138.907958 
L 413.66016 135.083363 
L 417.45024 135.083363 
L 419.34528 133.452286 
L 421.24032 133.452286 
L 423.13536 130.190133 
L 426.92544 130.190133 
L 428.82048 128.559056 
L 430.71552 125.296902 
L 434.5056 122.034748 
L 436.40064 122.034748 
L 438.29568 120.403671 
L 440.19072 120.403671 
L 442.08576 118.772594 
L 443.9808 118.772594 
L 445.87584 117.141517 
L 451.56096 117.141517 
L 453.456 115.51044 
L 457.24608 115.51044 
L 459.14112 112.248286 
L 461.03616 112.248286 
L 462.9312 110.61721 
L 464.82624 106.792615 
L 468.61632 106.792615 
L 470.51136 105.161538 
L 487.56672 105.161538 
L 489.46176 101.899385 
L 497.04192 101.899385 
L 498.93696 100.268308 
L 506.51712 100.268308 
L 508.41216 98.637231 
L 510.3072 98.637231 
L 512.20224 97.006154 
L 529.2576 97.006154 
L 531.15264 95.375077 
L 561.47328 95.375077 
L 563.36832 93.744 
L 642.96 93.744 
L 642.96 93.744 
" clip-path="url(#p99e464e499)" style="fill: none; stroke-dasharray: 6.75,2.7,1.35,2.7; stroke-dashoffset: 0; stroke: #2f8f84; stroke-width: 1.35"/>
   </g>
   <g id="patch_4">
    <path d="M 74.448 348.192 
L 74.448 93.744 
" style="fill: none; stroke: #000000; stroke-width: 0.8; stroke-linejoin: miter; stroke-linecap: square"/>
   </g>
   <g id="patch_5">
    <path d="M 74.448 348.192 
L 642.96 348.192 
" style="fill: none; stroke: #000000; stroke-width: 0.8; stroke-linejoin: miter; stroke-linecap: square"/>
   </g>
  </g>
  <g id="text_16">
   <text style="font: 18px 'DejaVu Sans', 'Bitstream Vera Sans', 'Computer Modern Sans Serif', 'Lucida Grande', 'Verdana', 'Geneva', 'Lucid', 'Arial', 'Helvetica', 'Avant Garde', sans-serif; text-anchor: start" x="74.448" y="38.229188" transform="rotate(-0 74.448 38.229188)">WOLED → WLED LCD</text>
  </g>
  <g id="text_17">
   <text style="fill: #66747c; font: 10px 'DejaVu Sans', 'Bitstream Vera Sans', 'Computer Modern Sans Serif', 'Lucida Grande', 'Verdana', 'Geneva', 'Lucid', 'Arial', 'Helvetica', 'Avant Garde', sans-serif; text-anchor: start" x="74.448" y="64.728" transform="rotate(-0 74.448 64.728)">D55</text>
  </g>
  <g id="legend_1">
   <g id="line2d_33">
    <path d="M 185.17875 404.151391 
L 194.27875 404.151391 
L 203.37875 404.151391 
" style="fill: none; stroke: #252525; stroke-width: 2.5; stroke-linecap: square"/>
   </g>
   <g id="text_18">
    <text style="font: 9.1px 'DejaVu Sans', 'Bitstream Vera Sans', 'Computer Modern Sans Serif', 'Lucida Grande', 'Verdana', 'Geneva', 'Lucid', 'Arial', 'Helvetica', 'Avant Garde', sans-serif; text-anchor: start" x="210.65875" y="407.336391" transform="rotate(-0 210.65875 407.336391)">Potera CMF</text>
   </g>
   <g id="line2d_34">
    <path d="M 185.17875 417.508484 
L 194.27875 417.508484 
L 203.37875 417.508484 
" style="fill: none; stroke: #3b83b4; stroke-width: 1.35; stroke-linecap: square"/>
   </g>
   <g id="text_19">
    <text style="font: 9.1px 'DejaVu Sans', 'Bitstream Vera Sans', 'Computer Modern Sans Serif', 'Lucida Grande', 'Verdana', 'Geneva', 'Lucid', 'Arial', 'Helvetica', 'Avant Garde', sans-serif; text-anchor: start" x="210.65875" y="420.693484" transform="rotate(-0 210.65875 420.693484)">CIE 2015 2°</text>
   </g>
   <g id="line2d_35">
    <path d="M 282.931234 404.151391 
L 292.031234 404.151391 
L 301.131234 404.151391 
" style="fill: none; stroke-dasharray: 4.995,2.16; stroke-dashoffset: 0; stroke: #c38a19; stroke-width: 1.35"/>
   </g>
   <g id="text_20">
    <text style="font: 9.1px 'DejaVu Sans', 'Bitstream Vera Sans', 'Computer Modern Sans Serif', 'Lucida Grande', 'Verdana', 'Geneva', 'Lucid', 'Arial', 'Helvetica', 'Avant Garde', sans-serif; text-anchor: start" x="308.411234" y="407.336391" transform="rotate(-0 308.411234 407.336391)">CIE 2015 10°</text>
   </g>
   <g id="line2d_36">
    <path d="M 282.931234 417.508484 
L 292.031234 417.508484 
L 301.131234 417.508484 
" style="fill: none; stroke-dasharray: 1.35,2.2275; stroke-dashoffset: 0; stroke: #7d8a92; stroke-width: 1.35"/>
   </g>
   <g id="text_21">
    <text style="font: 9.1px 'DejaVu Sans', 'Bitstream Vera Sans', 'Computer Modern Sans Serif', 'Lucida Grande', 'Verdana', 'Geneva', 'Lucid', 'Arial', 'Helvetica', 'Avant Garde', sans-serif; text-anchor: start" x="308.411234" y="420.693484" transform="rotate(-0 308.411234 420.693484)">CIE 1964 10°</text>
   </g>
   <g id="line2d_37">
    <path d="M 386.473594 404.151391 
L 395.573594 404.151391 
L 404.673594 404.151391 
" style="fill: none; stroke-dasharray: 8.64,2.16,1.35,2.16; stroke-dashoffset: 0; stroke: #d0526a; stroke-width: 1.35"/>
   </g>
   <g id="text_22">
    <text style="font: 9.1px 'DejaVu Sans', 'Bitstream Vera Sans', 'Computer Modern Sans Serif', 'Lucida Grande', 'Verdana', 'Geneva', 'Lucid', 'Arial', 'Helvetica', 'Avant Garde', sans-serif; text-anchor: start" x="411.953594" y="407.336391" transform="rotate(-0 411.953594 407.336391)">CIE 1931 2°</text>
   </g>
   <g id="line2d_38">
    <path d="M 386.473594 417.508484 
L 395.573594 417.508484 
L 404.673594 417.508484 
" style="fill: none; stroke-dasharray: 6.75,2.7,1.35,2.7; stroke-dashoffset: 0; stroke: #2f8f84; stroke-width: 1.35"/>
   </g>
   <g id="text_23">
    <text style="font: 9.1px 'DejaVu Sans', 'Bitstream Vera Sans', 'Computer Modern Sans Serif', 'Lucida Grande', 'Verdana', 'Geneva', 'Lucid', 'Arial', 'Helvetica', 'Avant Garde', sans-serif; text-anchor: start" x="411.953594" y="420.693484" transform="rotate(-0 411.953594 420.693484)">Judd–Vos 1978 2°</text>
   </g>
  </g>
 </g>
 <defs>
  <clipPath id="p99e464e499">
   <rect x="74.448" y="93.744" width="568.512" height="254.448"/>
  </clipPath>
 </defs>
</svg>
