<?xml version="1.0" encoding="utf-8" standalone="no"?>
<!DOCTYPE svg PUBLIC "-//W3C//DTD SVG 1.1//EN"
  "http://www.w3.org/Graphics/SVG/1.1/DTD/svg11.dtd">
<svg xmlns:xlink="http://www.w3.org/1999/xlink" width="676.8pt" height="446.4pt" viewBox="0 0 676.8 446.4" xmlns="http://www.w3.org/2000/svg" version="1.1">
 <metadata>
  <rdf:RDF xmlns:dc="http://purl.org/dc/elements/1.1/" xmlns:cc="http://creativecommons.org/ns#" xmlns:rdf="http://www.w3.org/1999/02/22-rdf-syntax-ns#">
   <cc:Work>
    <dc:type rdf:resource="http://purl.org/dc/dcmitype/StillImage"/>
    <dc:date>2026-07-20T06:41:58.982507</dc:date>
    <dc:format>image/svg+xml</dc:format>
    <dc:creator>
     <cc:Agent>
      <dc:title>Matplotlib v3.9.4, https://matplotlib.org/</dc:title>
     </cc:Agent>
    </dc:creator>
   </cc:Work>
  </rdf:RDF>
 </metadata>
 <defs>
  <style type="text/css">*{stroke-linejoin: round; stroke-linecap: butt}</style>
 </defs>
 <g id="figure_1">
  <g id="patch_1">
   <path d="M 0 446.4 
L 676.8 446.4 
L 676.8 0 
L 0 0 
z
" style="fill: #ffffff"/>
  </g>
  <g id="axes_1">
   <g id="patch_2">
    <path d="M 74.448 348.192 
L 642.96 348.192 
L 642.96 93.744 
L 74.448 93.744 
z
" style="fill: #ffffff"/>
   </g>
   <g id="patch_3">
    <path d="M 169.2 348.192 
L 358.704 348.192 
L 358.704 93.744 
L 169.2 93.744 
z
" clip-path="url(#p58fbfe6ff5)" style="fill: #e7f0ea; opacity: 0.58; stroke: #e7f0ea; stroke-linejoin: miter"/>
   </g>
   <g id="matplotlib.axis_1">
    <g id="xtick_1">
     <g id="line2d_1">
      <path d="M 74.448 348.192 
L 74.448 93.744 
" clip-path="url(#p58fbfe6ff5)" style="fill: none; stroke: #dfe5e8; stroke-width: 0.65; stroke-linecap: square"/>
     </g>
     <g id="line2d_2">
      <defs>
       <path id="m43c8b1aa48" d="M 0 0 
L 0 3.5 
" style="stroke: #000000; stroke-width: 0.8"/>
      </defs>
      <g>
       <use xlink:href="#m43c8b1aa48" x="74.448" y="348.192" style="stroke: #000000; stroke-width: 0.8"/>
      </g>
     </g>
     <g id="text_1">
      <text style="font: 10px 'DejaVu Sans', 'Bitstream Vera Sans', 'Computer Modern Sans Serif', 'Lucida Grande', 'Verdana', 'Geneva', 'Lucid', 'Arial', 'Helvetica', 'Avant Garde', sans-serif; text-anchor: middle" x="74.448" y="362.790438" transform="rotate(-0 74.448 362.790438)">0</text>
     </g>
    </g>
    <g id="xtick_2">
     <g id="line2d_3">
      <path d="M 169.2 348.192 
L 169.2 93.744 
" clip-path="url(#p58fbfe6ff5)" style="fill: none; stroke: #dfe5e8; stroke-width: 0.65; stroke-linecap: square"/>
     </g>
     <g id="line2d_4">
      <g>
       <use xlink:href="#m43c8b1aa48" x="169.2" y="348.192" style="stroke: #000000; stroke-width: 0.8"/>
      </g>
     </g>
     <g id="text_2">
      <text style="font: 10px 'DejaVu Sans', 'Bitstream Vera Sans', 'Computer Modern Sans Serif', 'Lucida Grande', 'Verdana', 'Geneva', 'Lucid', 'Arial', 'Helvetica', 'Avant Garde', sans-serif; text-anchor: middle" x="169.2" y="362.790438" transform="rotate(-0 169.2 362.790438)">1</text>
     </g>
    </g>
    <g id="xtick_3">
     <g id="line2d_5">
      <path d="M 263.952 348.192 
L 263.952 93.744 
" clip-path="url(#p58fbfe6ff5)" style="fill: none; stroke: #dfe5e8; stroke-width: 0.65; stroke-linecap: square"/>
     </g>
     <g id="line2d_6">
      <g>
       <use xlink:href="#m43c8b1aa48" x="263.952" y="348.192" style="stroke: #000000; stroke-width: 0.8"/>
      </g>
     </g>
     <g id="text_3">
      <text style="font: 10px 'DejaVu Sans', 'Bitstream Vera Sans', 'Computer Modern Sans Serif', 'Lucida Grande', 'Verdana', 'Geneva', 'Lucid', 'Arial', 'Helvetica', 'Avant Garde', sans-serif; text-anchor: middle" x="263.952" y="362.790438" transform="rotate(-0 263.952 362.790438)">2</text>
     </g>
    </g>
    <g id="xtick_4">
     <g id="line2d_7">
      <path d="M 358.704 348.192 
L 358.704 93.744 
" clip-path="url(#p58fbfe6ff5)" style="fill: none; stroke: #dfe5e8; stroke-width: 0.65; stroke-linecap: square"/>
     </g>
     <g id="line2d_8">
      <g>
       <use xlink:href="#m43c8b1aa48" x="358.704" y="348.192" style="stroke: #000000; stroke-width: 0.8"/>
      </g>
     </g>
     <g id="text_4">
      <text style="font: 10px 'DejaVu Sans', 'Bitstream Vera Sans', 'Computer Modern Sans Serif', 'Lucida Grande', 'Verdana', 'Geneva', 'Lucid', 'Arial', 'Helvetica', 'Avant Garde', sans-serif; text-anchor: middle" x="358.704" y="362.790438" transform="rotate(-0 358.704 362.790438)">3</text>
     </g>
    </g>
    <g id="xtick_5">
     <g id="line2d_9">
      <path d="M 453.456 348.192 
L 453.456 93.744 
" clip-path="url(#p58fbfe6ff5)" style="fill: none; stroke: #dfe5e8; stroke-width: 0.65; stroke-linecap: square"/>
     </g>
     <g id="line2d_10">
      <g>
       <use xlink:href="#m43c8b1aa48" x="453.456" y="348.192" style="stroke: #000000; stroke-width: 0.8"/>
      </g>
     </g>
     <g id="text_5">
      <text style="font: 10px 'DejaVu Sans', 'Bitstream Vera Sans', 'Computer Modern Sans Serif', 'Lucida Grande', 'Verdana', 'Geneva', 'Lucid', 'Arial', 'Helvetica', 'Avant Garde', sans-serif; text-anchor: middle" x="453.456" y="362.790438" transform="rotate(-0 453.456 362.790438)">4</text>
     </g>
    </g>
    <g id="xtick_6">
     <g id="line2d_11">
      <path d="M 548.208 348.192 
L 548.208 93.744 
" clip-path="url(#p58fbfe6ff5)" style="fill: none; stroke: #dfe5e8; stroke-width: 0.65; stroke-linecap: square"/>
     </g>
     <g id="line2d_12">
      <g>
       <use xlink:href="#m43c8b1aa48" x="548.208" y="348.192" style="stroke: #000000; stroke-width: 0.8"/>
      </g>
     </g>
     <g id="text_6">
      <text style="font: 10px 'DejaVu Sans', 'Bitstream Vera Sans', 'Computer Modern Sans Serif', 'Lucida Grande', 'Verdana', 'Geneva', 'Lucid', 'Arial', 'Helvetica', 'Avant Garde', sans-serif; text-anchor: middle" x="548.208" y="362.790438" transform="rotate(-0 548.208 362.790438)">5</text>
     </g>
    </g>
    <g id="xtick_7">
     <g id="line2d_13">
      <path d="M 642.96 348.192 
L 642.96 93.744 
" clip-path="url(#p58fbfe6ff5)" style="fill: none; stroke: #dfe5e8; stroke-width: 0.65; stroke-linecap: square"/>
     </g>
     <g id="line2d_14">
      <g>
       <use xlink:href="#m43c8b1aa48" x="642.96" y="348.192" style="stroke: #000000; stroke-width: 0.8"/>
      </g>
     </g>
     <g id="text_7">
      <text style="font: 10px 'DejaVu Sans', 'Bitstream Vera Sans', 'Computer Modern Sans Serif', 'Lucida Grande', 'Verdana', 'Geneva', 'Lucid', 'Arial', 'Helvetica', 'Avant Garde', sans-serif; text-anchor: middle" x="642.96" y="362.790438" transform="rotate(-0 642.96 362.790438)">6</text>
     </g>
    </g>
    <g id="text_8">
     <text style="font: 10px 'DejaVu Sans', 'Bitstream Vera Sans', 'Computer Modern Sans Serif', 'Lucida Grande', 'Verdana', 'Geneva', 'Lucid', 'Arial', 'Helvetica', 'Avant Garde', sans-serif; text-anchor: middle" x="358.704" y="376.468563" transform="rotate(-0 358.704 376.468563)">sUCS dE threshold</text>
    </g>
   </g>
   <g id="matplotlib.axis_2">
    <g id="ytick_1">
     <g id="line2d_15">
      <path d="M 74.448 348.192 
L 642.96 348.192 
" clip-path="url(#p58fbfe6ff5)" style="fill: none; stroke: #dfe5e8; stroke-width: 0.65; stroke-linecap: square"/>
     </g>
     <g id="line2d_16">
      <defs>
       <path id="m1bcfb134f0" d="M 0 0 
L -3.5 0 
" style="stroke: #000000; stroke-width: 0.8"/>
      </defs>
      <g>
       <use xlink:href="#m1bcfb134f0" x="74.448" y="348.192" style="stroke: #000000; stroke-width: 0.8"/>
      </g>
     </g>
     <g id="text_9">
      <text style="font: 10px 'DejaVu Sans', 'Bitstream Vera Sans', 'Computer Modern Sans Serif', 'Lucida Grande', 'Verdana', 'Geneva', 'Lucid', 'Arial', 'Helvetica', 'Avant Garde', sans-serif; text-anchor: end" x="67.448" y="351.991219" transform="rotate(-0 67.448 351.991219)">0</text>
     </g>
    </g>
    <g id="ytick_2">
     <g id="line2d_17">
      <path d="M 74.448 297.3024 
L 642.96 297.3024 
" clip-path="url(#p58fbfe6ff5)" style="fill: none; stroke: #dfe5e8; stroke-width: 0.65; stroke-linecap: square"/>
     </g>
     <g id="line2d_18">
      <g>
       <use xlink:href="#m1bcfb134f0" x="74.448" y="297.3024" style="stroke: #000000; stroke-width: 0.8"/>
      </g>
     </g>
     <g id="text_10">
      <text style="font: 10px 'DejaVu Sans', 'Bitstream Vera Sans', 'Computer Modern Sans Serif', 'Lucida Grande', 'Verdana', 'Geneva', 'Lucid', 'Arial', 'Helvetica', 'Avant Garde', sans-serif; text-anchor: end" x="67.448" y="301.101619" transform="rotate(-0 67.448 301.101619)">20</text>
     </g>
    </g>
    <g id="ytick_3">
     <g id="line2d_19">
      <path d="M 74.448 246.4128 
L 642.96 246.4128 
" clip-path="url(#p58fbfe6ff5)" style="fill: none; stroke: #dfe5e8; stroke-width: 0.65; stroke-linecap: square"/>
     </g>
     <g id="line2d_20">
      <g>
       <use xlink:href="#m1bcfb134f0" x="74.448" y="246.4128" style="stroke: #000000; stroke-width: 0.8"/>
      </g>
     </g>
     <g id="text_11">
      <text style="font: 10px 'DejaVu Sans', 'Bitstream Vera Sans', 'Computer Modern Sans Serif', 'Lucida Grande', 'Verdana', 'Geneva', 'Lucid', 'Arial', 'Helvetica', 'Avant Garde', sans-serif; text-anchor: end" x="67.448" y="250.212019" transform="rotate(-0 67.448 250.212019)">40</text>
     </g>
    </g>
    <g id="ytick_4">
     <g id="line2d_21">
      <path d="M 74.448 195.5232 
L 642.96 195.5232 
" clip-path="url(#p58fbfe6ff5)" style="fill: none; stroke: #dfe5e8; stroke-width: 0.65; stroke-linecap: square"/>
     </g>
     <g id="line2d_22">
      <g>
       <use xlink:href="#m1bcfb134f0" x="74.448" y="195.5232" style="stroke: #000000; stroke-width: 0.8"/>
      </g>
     </g>
     <g id="text_12">
      <text style="font: 10px 'DejaVu Sans', 'Bitstream Vera Sans', 'Computer Modern Sans Serif', 'Lucida Grande', 'Verdana', 'Geneva', 'Lucid', 'Arial', 'Helvetica', 'Avant Garde', sans-serif; text-anchor: end" x="67.448" y="199.322419" transform="rotate(-0 67.448 199.322419)">60</text>
     </g>
    </g>
    <g id="ytick_5">
     <g id="line2d_23">
      <path d="M 74.448 144.6336 
L 642.96 144.6336 
" clip-path="url(#p58fbfe6ff5)" style="fill: none; stroke: #dfe5e8; stroke-width: 0.65; stroke-linecap: square"/>
     </g>
     <g id="line2d_24">
      <g>
       <use xlink:href="#m1bcfb134f0" x="74.448" y="144.6336" style="stroke: #000000; stroke-width: 0.8"/>
      </g>
     </g>
     <g id="text_13">
      <text style="font: 10px 'DejaVu Sans', 'Bitstream Vera Sans', 'Computer Modern Sans Serif', 'Lucida Grande', 'Verdana', 'Geneva', 'Lucid', 'Arial', 'Helvetica', 'Avant Garde', sans-serif; text-anchor: end" x="67.448" y="148.432819" transform="rotate(-0 67.448 148.432819)">80</text>
     </g>
    </g>
    <g id="ytick_6">
     <g id="line2d_25">
      <path d="M 74.448 93.744 
L 642.96 93.744 
" clip-path="url(#p58fbfe6ff5)" style="fill: none; stroke: #dfe5e8; stroke-width: 0.65; stroke-linecap: square"/>
     </g>
     <g id="line2d_26">
      <g>
       <use xlink:href="#m1bcfb134f0" x="74.448" y="93.744" style="stroke: #000000; stroke-width: 0.8"/>
      </g>
     </g>
     <g id="text_14">
      <text style="font: 10px 'DejaVu Sans', 'Bitstream Vera Sans', 'Computer Modern Sans Serif', 'Lucida Grande', 'Verdana', 'Geneva', 'Lucid', 'Arial', 'Helvetica', 'Avant Garde', sans-serif; text-anchor: end" x="67.448" y="97.543219" transform="rotate(-0 67.448 97.543219)">100</text>
     </g>
    </g>
    <g id="text_15">
     <text style="font: 10px 'DejaVu Sans', 'Bitstream Vera Sans', 'Computer Modern Sans Serif', 'Lucida Grande', 'Verdana', 'Geneva', 'Lucid', 'Arial', 'Helvetica', 'Avant Garde', sans-serif; text-anchor: middle" x="42.280812" y="220.968" transform="rotate(-90 42.280812 220.968)">observers%</text>
    </g>
   </g>
   <g id="line2d_27">
    <path d="M 74.448 348.192 
L 82.02816 348.192 
L 83.9232 344.367406 
L 87.71328 344.367406 
L 89.60832 342.736329 
L 91.50336 338.911735 
L 93.3984 337.280658 
L 95.29344 337.280658 
L 97.18848 335.649581 
L 99.08352 333.456064 
L 100.97856 333.456064 
L 102.8736 328.000393 
L 104.76864 321.982281 
L 106.66368 321.982281 
L 108.55872 320.351204 
L 114.24384 320.351204 
L 118.03392 315.96417 
L 119.92896 315.96417 
L 121.824 314.333093 
L 123.71904 314.333093 
L 125.61408 309.946058 
L 127.50912 306.121464 
L 129.40416 304.490387 
L 131.2992 300.665793 
L 133.19424 296.278759 
L 136.98432 296.278759 
L 138.87936 294.085241 
L 142.66944 290.823088 
L 144.56448 286.436053 
L 146.45952 280.980382 
L 148.35456 280.980382 
L 150.2496 279.349305 
L 152.14464 279.349305 
L 154.03968 276.087151 
L 155.93472 273.893634 
L 157.82976 270.63148 
L 159.7248 266.806886 
L 161.61984 266.806886 
L 163.51488 261.913655 
L 165.40992 256.457984 
L 167.30496 250.439873 
L 169.2 248.246355 
L 171.09504 244.984202 
L 172.99008 238.96609 
L 174.88512 237.335013 
L 176.78016 235.141496 
L 178.6752 230.248265 
L 180.57024 224.230154 
L 182.46528 220.968 
L 184.36032 219.336923 
L 188.1504 214.949889 
L 190.04544 214.949889 
L 191.94048 212.756371 
L 193.83552 212.756371 
L 195.73056 209.494218 
L 197.6256 207.863141 
L 199.52064 205.669623 
L 201.41568 204.038546 
L 203.31072 198.582875 
L 205.20576 196.951798 
L 207.1008 194.758281 
L 208.99584 193.127204 
L 210.89088 193.127204 
L 212.78592 188.74017 
L 214.68096 185.478016 
L 216.576 179.459905 
L 222.26112 179.459905 
L 224.15616 172.373156 
L 226.0512 172.373156 
L 227.94624 169.111003 
L 229.84128 167.479926 
L 233.63136 159.830737 
L 237.42144 156.568584 
L 239.31648 152.743989 
L 241.21152 149.481836 
L 243.10656 147.288318 
L 250.68672 147.288318 
L 252.58176 144.026164 
L 254.4768 141.832647 
L 256.37184 141.832647 
L 258.26688 137.445613 
L 260.16192 133.621019 
L 262.05696 131.989942 
L 263.952 131.989942 
L 265.84704 130.358865 
L 271.53216 130.358865 
L 273.4272 128.165347 
L 275.32224 124.340753 
L 279.11232 121.078599 
L 282.9024 121.078599 
L 284.79744 118.885082 
L 288.58752 118.885082 
L 290.48256 116.691565 
L 292.3776 115.060488 
L 296.16768 115.060488 
L 298.06272 112.866971 
L 299.95776 112.866971 
L 301.8528 110.673454 
L 303.74784 107.4113 
L 307.53792 107.4113 
L 309.43296 103.024265 
L 313.22304 103.024265 
L 315.11808 101.393188 
L 318.90816 101.393188 
L 320.8032 99.199671 
L 330.2784 99.199671 
L 332.17344 97.568594 
L 362.49408 97.568594 
L 364.38912 95.937517 
L 375.75936 95.937517 
L 377.6544 93.744 
L 642.96 93.744 
L 642.96 93.744 
" clip-path="url(#p58fbfe6ff5)" style="fill: none; stroke: #252525; stroke-width: 2.5; stroke-linecap: square"/>
   </g>
   <g id="line2d_28">
    <path d="M 74.448 348.192 
L 82.02816 348.192 
L 83.9232 345.998483 
L 93.3984 345.998483 
L 99.08352 339.417931 
L 116.13888 339.417931 
L 118.03392 337.224414 
L 119.92896 332.837379 
L 123.71904 328.450345 
L 125.61408 328.450345 
L 127.50912 324.06331 
L 129.40416 321.869793 
L 135.08928 321.869793 
L 136.98432 317.482759 
L 138.87936 311.464647 
L 144.56448 311.464647 
L 146.45952 309.27113 
L 148.35456 302.690578 
L 154.03968 302.690578 
L 155.93472 300.497061 
L 157.82976 296.110027 
L 159.7248 296.110027 
L 163.51488 287.335958 
L 165.40992 287.335958 
L 167.30496 285.14244 
L 171.09504 285.14244 
L 172.99008 278.561889 
L 174.88512 278.561889 
L 176.78016 274.174854 
L 178.6752 271.981337 
L 182.46528 271.981337 
L 184.36032 269.78782 
L 186.25536 263.207268 
L 188.1504 263.207268 
L 190.04544 261.576191 
L 191.94048 261.576191 
L 193.83552 259.382674 
L 195.73056 259.382674 
L 197.6256 257.189156 
L 199.52064 257.189156 
L 201.41568 255.55808 
L 203.31072 253.364562 
L 205.20576 253.364562 
L 208.99584 250.102408 
L 210.89088 250.102408 
L 216.576 238.628626 
L 218.47104 238.628626 
L 222.26112 234.241592 
L 224.15616 229.854557 
L 226.0512 226.029963 
L 229.84128 226.029963 
L 231.73632 223.836446 
L 233.63136 222.205369 
L 235.5264 220.011851 
L 239.31648 220.011851 
L 241.21152 217.818334 
L 243.10656 217.818334 
L 245.0016 210.731586 
L 256.37184 210.731586 
L 258.26688 209.100509 
L 260.16192 209.100509 
L 263.952 201.451321 
L 267.74208 201.451321 
L 271.53216 194.927013 
L 279.11232 194.927013 
L 281.00736 193.295936 
L 284.79744 193.295936 
L 286.69248 191.664859 
L 288.58752 188.402706 
L 290.48256 188.402706 
L 292.3776 184.578111 
L 296.16768 181.315958 
L 298.06272 178.053804 
L 301.8528 178.053804 
L 303.74784 176.422727 
L 307.53792 169.898419 
L 309.43296 169.898419 
L 311.328 166.636265 
L 313.22304 165.005188 
L 315.11808 165.005188 
L 317.01312 160.111958 
L 320.8032 160.111958 
L 322.69824 156.849804 
L 330.2784 156.849804 
L 332.17344 154.656286 
L 334.06848 153.02521 
L 335.96352 149.763056 
L 339.7536 149.763056 
L 343.54368 143.238748 
L 345.43872 141.607671 
L 347.33376 141.607671 
L 349.2288 138.345517 
L 354.91392 138.345517 
L 356.80896 136.71444 
L 358.704 131.82121 
L 360.59904 131.82121 
L 364.38912 128.559056 
L 366.28416 125.296902 
L 368.1792 123.665825 
L 370.07424 123.665825 
L 375.75936 118.772594 
L 381.44448 118.772594 
L 383.33952 117.141517 
L 389.02464 117.141517 
L 390.91968 115.51044 
L 392.81472 112.248286 
L 398.49984 112.248286 
L 400.39488 108.423692 
L 402.28992 108.423692 
L 404.18496 106.792615 
L 409.87008 106.792615 
L 411.76512 105.161538 
L 413.66016 105.161538 
L 415.5552 103.530462 
L 430.71552 103.530462 
L 432.61056 101.899385 
L 436.40064 101.899385 
L 438.29568 100.268308 
L 442.08576 100.268308 
L 443.9808 98.637231 
L 451.56096 98.637231 
L 453.456 97.006154 
L 470.51136 97.006154 
L 472.4064 95.375077 
L 502.72704 95.375077 
L 504.62208 93.744 
L 642.96 93.744 
L 642.96 93.744 
" clip-path="url(#p58fbfe6ff5)" style="fill: none; stroke: #3b83b4; stroke-width: 1.35; stroke-linecap: square"/>
   </g>
   <g id="line2d_29">
    <path d="M 74.448 348.192 
L 85.81824 348.192 
L 87.71328 346.560923 
L 91.50336 340.036615 
L 100.97856 331.881231 
L 104.76864 331.881231 
L 106.66368 330.250154 
L 108.55872 326.988 
L 110.45376 326.988 
L 112.3488 325.356923 
L 114.24384 325.356923 
L 116.13888 322.094769 
L 118.03392 315.008021 
L 123.71904 310.11479 
L 127.50912 310.11479 
L 131.2992 306.852637 
L 133.19424 306.852637 
L 135.08928 299.765889 
L 136.98432 296.503735 
L 138.87936 286.661029 
L 140.7744 279.574281 
L 142.66944 271.925093 
L 144.56448 271.925093 
L 146.45952 270.294016 
L 148.35456 267.031862 
L 150.2496 267.031862 
L 152.14464 265.400785 
L 154.03968 265.400785 
L 155.93472 259.382674 
L 157.82976 252.295926 
L 161.61984 245.771618 
L 163.51488 244.140541 
L 165.40992 240.878387 
L 169.2 237.616233 
L 171.09504 235.422716 
L 172.99008 231.598122 
L 174.88512 229.967045 
L 176.78016 224.511374 
L 178.6752 222.880297 
L 182.46528 222.880297 
L 184.36032 221.24922 
L 186.25536 221.24922 
L 188.1504 217.424626 
L 190.04544 215.231109 
L 191.94048 211.968955 
L 193.83552 208.144361 
L 197.6256 204.882207 
L 199.52064 204.882207 
L 201.41568 199.426536 
L 205.20576 195.039501 
L 207.1008 195.039501 
L 208.99584 192.845984 
L 210.89088 191.214907 
L 212.78592 185.196796 
L 214.68096 185.196796 
L 216.576 183.003279 
L 218.47104 183.003279 
L 220.36608 179.178684 
L 224.15616 179.178684 
L 227.94624 174.79165 
L 229.84128 173.160573 
L 231.73632 168.773538 
L 233.63136 166.580021 
L 237.42144 158.930833 
L 245.0016 158.930833 
L 248.79168 154.543798 
L 250.68672 152.912721 
L 252.58176 149.088127 
L 256.37184 149.088127 
L 258.26688 147.45705 
L 260.16192 147.45705 
L 262.05696 145.263533 
L 265.84704 145.263533 
L 267.74208 143.070016 
L 269.63712 143.070016 
L 271.53216 140.876499 
L 273.4272 139.245422 
L 275.32224 139.245422 
L 281.00736 132.66487 
L 282.9024 132.66487 
L 284.79744 130.471353 
L 292.3776 130.471353 
L 294.27264 128.277836 
L 301.8528 128.277836 
L 303.74784 126.646759 
L 305.64288 126.646759 
L 307.53792 124.453241 
L 309.43296 124.453241 
L 311.328 122.259724 
L 313.22304 122.259724 
L 317.01312 117.87269 
L 318.90816 117.87269 
L 322.69824 113.485655 
L 334.06848 113.485655 
L 335.96352 111.292138 
L 345.43872 111.292138 
L 349.2288 102.518069 
L 358.704 102.518069 
L 360.59904 100.324552 
L 370.07424 100.324552 
L 371.96928 98.131034 
L 375.75936 98.131034 
L 377.6544 95.937517 
L 425.0304 95.937517 
L 426.92544 93.744 
L 642.96 93.744 
L 642.96 93.744 
" clip-path="url(#p58fbfe6ff5)" style="fill: none; stroke-dasharray: 4.995,2.16; stroke-dashoffset: 0; stroke: #c38a19; stroke-width: 1.35"/>
   </g>
   <g id="line2d_30">
    <path d="M 74.448 348.192 
L 95.29344 348.192 
L 100.97856 341.611448 
L 102.8736 341.611448 
L 104.76864 339.980371 
L 106.66368 337.786854 
L 112.3488 337.786854 
L 114.24384 333.96226 
L 116.13888 333.96226 
L 118.03392 330.700106 
L 119.92896 330.700106 
L 121.824 325.244435 
L 125.61408 325.244435 
L 127.50912 323.050918 
L 129.40416 321.419841 
L 131.2992 321.419841 
L 133.19424 319.788764 
L 135.08928 317.595247 
L 136.98432 317.595247 
L 138.87936 312.139576 
L 140.7744 305.052828 
L 142.66944 301.228233 
L 144.56448 297.96608 
L 146.45952 297.96608 
L 148.35456 294.141485 
L 150.2496 291.947968 
L 154.03968 291.947968 
L 155.93472 290.316891 
L 157.82976 285.929857 
L 159.7248 280.474186 
L 161.61984 280.474186 
L 163.51488 273.893634 
L 165.40992 269.506599 
L 167.30496 269.506599 
L 169.2 262.419851 
L 171.09504 262.419851 
L 172.99008 254.208223 
L 174.88512 252.014706 
L 176.78016 248.190111 
L 178.6752 246.559034 
L 180.57024 241.103363 
L 188.1504 234.579056 
L 190.04544 229.123385 
L 191.94048 229.123385 
L 193.83552 227.492308 
L 195.73056 227.492308 
L 197.6256 223.667714 
L 199.52064 220.40556 
L 205.20576 220.40556 
L 207.1008 218.212042 
L 210.89088 210.562854 
L 212.78592 208.931777 
L 214.68096 204.038546 
L 216.576 196.389358 
L 218.47104 193.127204 
L 220.36608 188.74017 
L 222.26112 187.109093 
L 224.15616 184.915576 
L 226.0512 177.828828 
L 227.94624 171.810716 
L 231.73632 168.548562 
L 233.63136 166.355045 
L 235.5264 164.723968 
L 237.42144 164.723968 
L 239.31648 161.461814 
L 241.21152 161.461814 
L 243.10656 159.830737 
L 245.0016 157.63722 
L 246.89664 154.375066 
L 248.79168 152.181549 
L 250.68672 152.181549 
L 254.4768 144.532361 
L 260.16192 144.532361 
L 262.05696 141.270207 
L 265.84704 141.270207 
L 267.74208 135.252095 
L 269.63712 133.058578 
L 271.53216 131.427501 
L 273.4272 129.233984 
L 277.21728 121.584796 
L 279.11232 119.391279 
L 281.00736 115.566684 
L 286.69248 115.566684 
L 288.58752 111.74209 
L 303.74784 111.74209 
L 307.53792 104.092902 
L 311.328 104.092902 
L 313.22304 102.461825 
L 324.59328 102.461825 
L 328.38336 99.199671 
L 347.33376 99.199671 
L 349.2288 97.568594 
L 351.12384 95.375077 
L 377.6544 95.375077 
L 379.54944 93.744 
L 642.96 93.744 
L 642.96 93.744 
" clip-path="url(#p58fbfe6ff5)" style="fill: none; stroke-dasharray: 1.35,2.2275; stroke-dashoffset: 0; stroke: #7d8a92; stroke-width: 1.35"/>
   </g>
   <g id="line2d_31">
    <path d="M 74.448 348.192 
L 100.97856 348.192 
L 102.8736 345.998483 
L 116.13888 345.998483 
L 118.03392 341.611448 
L 157.82976 341.611448 
L 161.61984 337.224414 
L 163.51488 337.224414 
L 165.40992 335.030897 
L 167.30496 335.030897 
L 169.2 329.012785 
L 171.09504 326.819268 
L 172.99008 326.819268 
L 176.78016 322.432233 
L 188.1504 322.432233 
L 191.94048 313.658164 
L 195.73056 309.27113 
L 199.52064 309.27113 
L 201.41568 307.077613 
L 203.31072 302.690578 
L 205.20576 302.690578 
L 207.1008 300.497061 
L 208.99584 300.497061 
L 210.89088 298.303544 
L 212.78592 298.303544 
L 214.68096 296.110027 
L 216.576 296.110027 
L 218.47104 293.916509 
L 222.26112 293.916509 
L 224.15616 289.529475 
L 226.0512 287.335958 
L 233.63136 287.335958 
L 235.5264 285.14244 
L 237.42144 279.124329 
L 248.79168 279.124329 
L 250.68672 276.930812 
L 252.58176 276.930812 
L 254.4768 274.737294 
L 260.16192 274.737294 
L 262.05696 272.543777 
L 265.84704 272.543777 
L 267.74208 270.35026 
L 269.63712 265.963225 
L 271.53216 264.332149 
L 275.32224 259.945114 
L 282.9024 259.945114 
L 284.79744 258.314037 
L 286.69248 258.314037 
L 288.58752 254.489443 
L 290.48256 250.102408 
L 292.3776 246.277814 
L 294.27264 244.084297 
L 296.16768 244.084297 
L 299.95776 239.697263 
L 301.8528 238.066186 
L 303.74784 238.066186 
L 305.64288 234.804032 
L 309.43296 234.804032 
L 311.328 230.979438 
L 315.11808 226.592403 
L 317.01312 222.767809 
L 318.90816 221.136732 
L 320.8032 221.136732 
L 322.69824 215.118621 
L 326.48832 215.118621 
L 328.38336 213.487544 
L 332.17344 213.487544 
L 334.06848 211.294027 
L 335.96352 209.66295 
L 337.85856 204.769719 
L 339.7536 204.769719 
L 341.64864 203.138642 
L 345.43872 203.138642 
L 347.33376 200.945125 
L 349.2288 200.945125 
L 351.12384 199.314048 
L 353.01888 197.120531 
L 354.91392 193.295936 
L 362.49408 193.295936 
L 364.38912 190.033782 
L 366.28416 185.140552 
L 368.1792 185.140552 
L 370.07424 183.509475 
L 371.96928 178.616244 
L 375.75936 178.616244 
L 389.02464 167.198706 
L 392.81472 160.674398 
L 394.70976 158.480881 
L 396.6048 156.849804 
L 400.39488 156.849804 
L 402.28992 155.218727 
L 404.18496 151.956573 
L 407.97504 151.956573 
L 409.87008 145.432265 
L 411.76512 142.170111 
L 413.66016 142.170111 
L 417.45024 138.907958 
L 419.34528 136.71444 
L 421.24032 136.71444 
L 423.13536 135.083363 
L 426.92544 135.083363 
L 428.82048 131.82121 
L 430.71552 131.82121 
L 432.61056 130.190133 
L 434.5056 126.927979 
L 438.29568 126.927979 
L 440.19072 123.665825 
L 442.08576 122.034748 
L 447.77088 122.034748 
L 449.66592 117.141517 
L 459.14112 117.141517 
L 461.03616 115.51044 
L 464.82624 115.51044 
L 466.72128 113.879363 
L 468.61632 110.61721 
L 472.4064 110.61721 
L 474.30144 108.986133 
L 476.19648 106.792615 
L 479.98656 106.792615 
L 481.8816 105.161538 
L 493.25184 105.161538 
L 495.14688 103.530462 
L 498.93696 103.530462 
L 500.832 101.899385 
L 506.51712 101.899385 
L 508.41216 100.268308 
L 517.88736 100.268308 
L 519.7824 98.637231 
L 521.67744 98.637231 
L 523.57248 97.006154 
L 542.52288 97.006154 
L 544.41792 95.375077 
L 572.84352 95.375077 
L 574.73856 93.744 
L 642.96 93.744 
L 642.96 93.744 
" clip-path="url(#p58fbfe6ff5)" style="fill: none; stroke-dasharray: 8.64,2.16,1.35,2.16; stroke-dashoffset: 0; stroke: #d0526a; stroke-width: 1.35"/>
   </g>
   <g id="line2d_32">
    <path d="M 74.448 348.192 
L 104.76864 348.192 
L 106.66368 345.998483 
L 108.55872 345.998483 
L 110.45376 343.804966 
L 119.92896 343.804966 
L 121.824 341.611448 
L 154.03968 341.611448 
L 155.93472 337.224414 
L 157.82976 335.030897 
L 159.7248 335.030897 
L 161.61984 330.643862 
L 167.30496 330.643862 
L 169.2 328.450345 
L 176.78016 328.450345 
L 178.6752 326.819268 
L 180.57024 324.625751 
L 184.36032 324.625751 
L 191.94048 315.851682 
L 193.83552 311.464647 
L 195.73056 311.464647 
L 201.41568 304.884095 
L 207.1008 304.884095 
L 208.99584 300.497061 
L 214.68096 300.497061 
L 216.576 298.303544 
L 224.15616 298.303544 
L 233.63136 287.335958 
L 239.31648 287.335958 
L 243.10656 282.948923 
L 245.0016 282.948923 
L 246.89664 280.755406 
L 248.79168 279.124329 
L 250.68672 279.124329 
L 252.58176 276.930812 
L 262.05696 276.930812 
L 263.952 274.737294 
L 265.84704 274.737294 
L 267.74208 270.35026 
L 271.53216 270.35026 
L 275.32224 265.963225 
L 277.21728 265.963225 
L 279.11232 263.769708 
L 281.00736 263.769708 
L 282.9024 259.945114 
L 286.69248 259.945114 
L 288.58752 257.751597 
L 290.48256 257.751597 
L 292.3776 255.55808 
L 294.27264 253.927003 
L 298.06272 253.927003 
L 299.95776 245.715374 
L 301.8528 241.89078 
L 303.74784 239.697263 
L 307.53792 239.697263 
L 309.43296 238.066186 
L 313.22304 238.066186 
L 317.01312 234.804032 
L 318.90816 230.979438 
L 320.8032 228.78592 
L 322.69824 228.78592 
L 324.59328 226.592403 
L 326.48832 222.767809 
L 328.38336 220.574292 
L 330.2784 216.749698 
L 332.17344 215.118621 
L 335.96352 215.118621 
L 337.85856 213.487544 
L 339.7536 213.487544 
L 341.64864 211.294027 
L 343.54368 211.294027 
L 345.43872 208.031873 
L 347.33376 208.031873 
L 349.2288 204.769719 
L 351.12384 204.769719 
L 353.01888 203.138642 
L 354.91392 200.945125 
L 358.704 200.945125 
L 360.59904 197.120531 
L 362.49408 197.120531 
L 364.38912 193.295936 
L 371.96928 193.295936 
L 373.86432 191.664859 
L 375.75936 188.402706 
L 377.6544 186.771629 
L 379.54944 183.509475 
L 381.44448 183.509475 
L 383.33952 180.247321 
L 385.23456 178.616244 
L 387.1296 178.616244 
L 389.02464 175.35409 
L 390.91968 173.723013 
L 392.81472 173.723013 
L 394.70976 172.091936 
L 396.6048 168.829782 
L 398.49984 167.198706 
L 400.39488 163.936552 
L 402.28992 161.743034 
L 404.18496 160.111958 
L 406.08 156.849804 
L 409.87008 156.849804 
L 413.66016 153.58765 
L 415.5552 153.58765 
L 417.45024 150.325496 
L 419.34528 148.694419 
L 423.13536 142.170111 
L 425.0304 140.539034 
L 426.92544 140.539034 
L 428.82048 136.71444 
L 430.71552 136.71444 
L 432.61056 135.083363 
L 436.40064 135.083363 
L 440.19072 131.82121 
L 442.08576 131.82121 
L 449.66592 125.296902 
L 451.56096 122.034748 
L 457.24608 122.034748 
L 459.14112 118.772594 
L 461.03616 117.141517 
L 466.72128 117.141517 
L 468.61632 115.51044 
L 474.30144 115.51044 
L 476.19648 113.879363 
L 478.09152 113.879363 
L 479.98656 110.61721 
L 483.77664 110.61721 
L 485.67168 108.986133 
L 487.56672 106.792615 
L 489.46176 106.792615 
L 491.3568 105.161538 
L 504.62208 105.161538 
L 506.51712 103.530462 
L 508.41216 103.530462 
L 510.3072 101.899385 
L 517.88736 101.899385 
L 519.7824 100.268308 
L 529.2576 100.268308 
L 533.04768 97.006154 
L 553.89312 97.006154 
L 555.78816 95.375077 
L 584.21376 95.375077 
L 586.1088 93.744 
L 642.96 93.744 
L 642.96 93.744 
" clip-path="url(#p58fbfe6ff5)" style="fill: none; stroke-dasharray: 6.75,2.7,1.35,2.7; stroke-dashoffset: 0; stroke: #2f8f84; stroke-width: 1.35"/>
   </g>
   <g id="patch_4">
    <path d="M 74.448 348.192 
L 74.448 93.744 
" style="fill: none; stroke: #000000; stroke-width: 0.8; stroke-linejoin: miter; stroke-linecap: square"/>
   </g>
   <g id="patch_5">
    <path d="M 74.448 348.192 
L 642.96 348.192 
" style="fill: none; stroke: #000000; stroke-width: 0.8; stroke-linejoin: miter; stroke-linecap: square"/>
   </g>
  </g>
  <g id="text_16">
   <text style="font: 18px 'DejaVu Sans', 'Bitstream Vera Sans', 'Computer Modern Sans Serif', 'Lucida Grande', 'Verdana', 'Geneva', 'Lucid', 'Arial', 'Helvetica', 'Avant Garde', sans-serif; text-anchor: start" x="74.448" y="38.229188" transform="rotate(-0 74.448 38.229188)">WOLED → WLED LCD</text>
  </g>
  <g id="text_17">
   <text style="fill: #66747c; font: 10px 'DejaVu Sans', 'Bitstream Vera Sans', 'Computer Modern Sans Serif', 'Lucida Grande', 'Verdana', 'Geneva', 'Lucid', 'Arial', 'Helvetica', 'Avant Garde', sans-serif; text-anchor: start" x="74.448" y="64.728" transform="rotate(-0 74.448 64.728)">D65</text>
  </g>
  <g id="legend_1">
   <g id="line2d_33">
    <path d="M 185.17875 404.151391 
L 194.27875 404.151391 
L 203.37875 404.151391 
" style="fill: none; stroke: #252525; stroke-width: 2.5; stroke-linecap: square"/>
   </g>
   <g id="text_18">
    <text style="font: 9.1px 'DejaVu Sans', 'Bitstream Vera Sans', 'Computer Modern Sans Serif', 'Lucida Grande', 'Verdana', 'Geneva', 'Lucid', 'Arial', 'Helvetica', 'Avant Garde', sans-serif; text-anchor: start" x="210.65875" y="407.336391" transform="rotate(-0 210.65875 407.336391)">Potera CMF</text>
   </g>
   <g id="line2d_34">
    <path d="M 185.17875 417.508484 
L 194.27875 417.508484 
L 203.37875 417.508484 
" style="fill: none; stroke: #3b83b4; stroke-width: 1.35; stroke-linecap: square"/>
   </g>
   <g id="text_19">
    <text style="font: 9.1px 'DejaVu Sans', 'Bitstream Vera Sans', 'Computer Modern Sans Serif', 'Lucida Grande', 'Verdana', 'Geneva', 'Lucid', 'Arial', 'Helvetica', 'Avant Garde', sans-serif; text-anchor: start" x="210.65875" y="420.693484" transform="rotate(-0 210.65875 420.693484)">CIE 2015 2°</text>
   </g>
   <g id="line2d_35">
    <path d="M 282.931234 404.151391 
L 292.031234 404.151391 
L 301.131234 404.151391 
" style="fill: none; stroke-dasharray: 4.995,2.16; stroke-dashoffset: 0; stroke: #c38a19; stroke-width: 1.35"/>
   </g>
   <g id="text_20">
    <text style="font: 9.1px 'DejaVu Sans', 'Bitstream Vera Sans', 'Computer Modern Sans Serif', 'Lucida Grande', 'Verdana', 'Geneva', 'Lucid', 'Arial', 'Helvetica', 'Avant Garde', sans-serif; text-anchor: start" x="308.411234" y="407.336391" transform="rotate(-0 308.411234 407.336391)">CIE 2015 10°</text>
   </g>
   <g id="line2d_36">
    <path d="M 282.931234 417.508484 
L 292.031234 417.508484 
L 301.131234 417.508484 
" style="fill: none; stroke-dasharray: 1.35,2.2275; stroke-dashoffset: 0; stroke: #7d8a92; stroke-width: 1.35"/>
   </g>
   <g id="text_21">
    <text style="font: 9.1px 'DejaVu Sans', 'Bitstream Vera Sans', 'Computer Modern Sans Serif', 'Lucida Grande', 'Verdana', 'Geneva', 'Lucid', 'Arial', 'Helvetica', 'Avant Garde', sans-serif; text-anchor: start" x="308.411234" y="420.693484" transform="rotate(-0 308.411234 420.693484)">CIE 1964 10°</text>
   </g>
   <g id="line2d_37">
    <path d="M 386.473594 404.151391 
L 395.573594 404.151391 
L 404.673594 404.151391 
" style="fill: none; stroke-dasharray: 8.64,2.16,1.35,2.16; stroke-dashoffset: 0; stroke: #d0526a; stroke-width: 1.35"/>
   </g>
   <g id="text_22">
    <text style="font: 9.1px 'DejaVu Sans', 'Bitstream Vera Sans', 'Computer Modern Sans Serif', 'Lucida Grande', 'Verdana', 'Geneva', 'Lucid', 'Arial', 'Helvetica', 'Avant Garde', sans-serif; text-anchor: start" x="411.953594" y="407.336391" transform="rotate(-0 411.953594 407.336391)">CIE 1931 2°</text>
   </g>
   <g id="line2d_38">
    <path d="M 386.473594 417.508484 
L 395.573594 417.508484 
L 404.673594 417.508484 
" style="fill: none; stroke-dasharray: 6.75,2.7,1.35,2.7; stroke-dashoffset: 0; stroke: #2f8f84; stroke-width: 1.35"/>
   </g>
   <g id="text_23">
    <text style="font: 9.1px 'DejaVu Sans', 'Bitstream Vera Sans', 'Computer Modern Sans Serif', 'Lucida Grande', 'Verdana', 'Geneva', 'Lucid', 'Arial', 'Helvetica', 'Avant Garde', sans-serif; text-anchor: start" x="411.953594" y="420.693484" transform="rotate(-0 411.953594 420.693484)">Judd–Vos 1978 2°</text>
   </g>
  </g>
 </g>
 <defs>
  <clipPath id="p58fbfe6ff5">
   <rect x="74.448" y="93.744" width="568.512" height="254.448"/>
  </clipPath>
 </defs>
</svg>
