<?xml version="1.0" encoding="utf-8" standalone="no"?>
<!DOCTYPE svg PUBLIC "-//W3C//DTD SVG 1.1//EN"
  "http://www.w3.org/Graphics/SVG/1.1/DTD/svg11.dtd">
<svg xmlns:xlink="http://www.w3.org/1999/xlink" width="676.8pt" height="446.4pt" viewBox="0 0 676.8 446.4" xmlns="http://www.w3.org/2000/svg" version="1.1">
 <metadata>
  <rdf:RDF xmlns:dc="http://purl.org/dc/elements/1.1/" xmlns:cc="http://creativecommons.org/ns#" xmlns:rdf="http://www.w3.org/1999/02/22-rdf-syntax-ns#">
   <cc:Work>
    <dc:type rdf:resource="http://purl.org/dc/dcmitype/StillImage"/>
    <dc:date>2026-07-20T06:41:59.296997</dc:date>
    <dc:format>image/svg+xml</dc:format>
    <dc:creator>
     <cc:Agent>
      <dc:title>Matplotlib v3.9.4, https://matplotlib.org/</dc:title>
     </cc:Agent>
    </dc:creator>
   </cc:Work>
  </rdf:RDF>
 </metadata>
 <defs>
  <style type="text/css">*{stroke-linejoin: round; stroke-linecap: butt}</style>
 </defs>
 <g id="figure_1">
  <g id="patch_1">
   <path d="M 0 446.4 
L 676.8 446.4 
L 676.8 0 
L 0 0 
z
" style="fill: #ffffff"/>
  </g>
  <g id="axes_1">
   <g id="patch_2">
    <path d="M 74.448 348.192 
L 642.96 348.192 
L 642.96 93.744 
L 74.448 93.744 
z
" style="fill: #ffffff"/>
   </g>
   <g id="patch_3">
    <path d="M 169.2 348.192 
L 358.704 348.192 
L 358.704 93.744 
L 169.2 93.744 
z
" clip-path="url(#pa6d9592b90)" style="fill: #e7f0ea; opacity: 0.58; stroke: #e7f0ea; stroke-linejoin: miter"/>
   </g>
   <g id="matplotlib.axis_1">
    <g id="xtick_1">
     <g id="line2d_1">
      <path d="M 74.448 348.192 
L 74.448 93.744 
" clip-path="url(#pa6d9592b90)" style="fill: none; stroke: #dfe5e8; stroke-width: 0.65; stroke-linecap: square"/>
     </g>
     <g id="line2d_2">
      <defs>
       <path id="mb63ca3b17e" d="M 0 0 
L 0 3.5 
" style="stroke: #000000; stroke-width: 0.8"/>
      </defs>
      <g>
       <use xlink:href="#mb63ca3b17e" x="74.448" y="348.192" style="stroke: #000000; stroke-width: 0.8"/>
      </g>
     </g>
     <g id="text_1">
      <text style="font: 10px 'DejaVu Sans', 'Bitstream Vera Sans', 'Computer Modern Sans Serif', 'Lucida Grande', 'Verdana', 'Geneva', 'Lucid', 'Arial', 'Helvetica', 'Avant Garde', sans-serif; text-anchor: middle" x="74.448" y="362.790438" transform="rotate(-0 74.448 362.790438)">0</text>
     </g>
    </g>
    <g id="xtick_2">
     <g id="line2d_3">
      <path d="M 169.2 348.192 
L 169.2 93.744 
" clip-path="url(#pa6d9592b90)" style="fill: none; stroke: #dfe5e8; stroke-width: 0.65; stroke-linecap: square"/>
     </g>
     <g id="line2d_4">
      <g>
       <use xlink:href="#mb63ca3b17e" x="169.2" y="348.192" style="stroke: #000000; stroke-width: 0.8"/>
      </g>
     </g>
     <g id="text_2">
      <text style="font: 10px 'DejaVu Sans', 'Bitstream Vera Sans', 'Computer Modern Sans Serif', 'Lucida Grande', 'Verdana', 'Geneva', 'Lucid', 'Arial', 'Helvetica', 'Avant Garde', sans-serif; text-anchor: middle" x="169.2" y="362.790438" transform="rotate(-0 169.2 362.790438)">1</text>
     </g>
    </g>
    <g id="xtick_3">
     <g id="line2d_5">
      <path d="M 263.952 348.192 
L 263.952 93.744 
" clip-path="url(#pa6d9592b90)" style="fill: none; stroke: #dfe5e8; stroke-width: 0.65; stroke-linecap: square"/>
     </g>
     <g id="line2d_6">
      <g>
       <use xlink:href="#mb63ca3b17e" x="263.952" y="348.192" style="stroke: #000000; stroke-width: 0.8"/>
      </g>
     </g>
     <g id="text_3">
      <text style="font: 10px 'DejaVu Sans', 'Bitstream Vera Sans', 'Computer Modern Sans Serif', 'Lucida Grande', 'Verdana', 'Geneva', 'Lucid', 'Arial', 'Helvetica', 'Avant Garde', sans-serif; text-anchor: middle" x="263.952" y="362.790438" transform="rotate(-0 263.952 362.790438)">2</text>
     </g>
    </g>
    <g id="xtick_4">
     <g id="line2d_7">
      <path d="M 358.704 348.192 
L 358.704 93.744 
" clip-path="url(#pa6d9592b90)" style="fill: none; stroke: #dfe5e8; stroke-width: 0.65; stroke-linecap: square"/>
     </g>
     <g id="line2d_8">
      <g>
       <use xlink:href="#mb63ca3b17e" x="358.704" y="348.192" style="stroke: #000000; stroke-width: 0.8"/>
      </g>
     </g>
     <g id="text_4">
      <text style="font: 10px 'DejaVu Sans', 'Bitstream Vera Sans', 'Computer Modern Sans Serif', 'Lucida Grande', 'Verdana', 'Geneva', 'Lucid', 'Arial', 'Helvetica', 'Avant Garde', sans-serif; text-anchor: middle" x="358.704" y="362.790438" transform="rotate(-0 358.704 362.790438)">3</text>
     </g>
    </g>
    <g id="xtick_5">
     <g id="line2d_9">
      <path d="M 453.456 348.192 
L 453.456 93.744 
" clip-path="url(#pa6d9592b90)" style="fill: none; stroke: #dfe5e8; stroke-width: 0.65; stroke-linecap: square"/>
     </g>
     <g id="line2d_10">
      <g>
       <use xlink:href="#mb63ca3b17e" x="453.456" y="348.192" style="stroke: #000000; stroke-width: 0.8"/>
      </g>
     </g>
     <g id="text_5">
      <text style="font: 10px 'DejaVu Sans', 'Bitstream Vera Sans', 'Computer Modern Sans Serif', 'Lucida Grande', 'Verdana', 'Geneva', 'Lucid', 'Arial', 'Helvetica', 'Avant Garde', sans-serif; text-anchor: middle" x="453.456" y="362.790438" transform="rotate(-0 453.456 362.790438)">4</text>
     </g>
    </g>
    <g id="xtick_6">
     <g id="line2d_11">
      <path d="M 548.208 348.192 
L 548.208 93.744 
" clip-path="url(#pa6d9592b90)" style="fill: none; stroke: #dfe5e8; stroke-width: 0.65; stroke-linecap: square"/>
     </g>
     <g id="line2d_12">
      <g>
       <use xlink:href="#mb63ca3b17e" x="548.208" y="348.192" style="stroke: #000000; stroke-width: 0.8"/>
      </g>
     </g>
     <g id="text_6">
      <text style="font: 10px 'DejaVu Sans', 'Bitstream Vera Sans', 'Computer Modern Sans Serif', 'Lucida Grande', 'Verdana', 'Geneva', 'Lucid', 'Arial', 'Helvetica', 'Avant Garde', sans-serif; text-anchor: middle" x="548.208" y="362.790438" transform="rotate(-0 548.208 362.790438)">5</text>
     </g>
    </g>
    <g id="xtick_7">
     <g id="line2d_13">
      <path d="M 642.96 348.192 
L 642.96 93.744 
" clip-path="url(#pa6d9592b90)" style="fill: none; stroke: #dfe5e8; stroke-width: 0.65; stroke-linecap: square"/>
     </g>
     <g id="line2d_14">
      <g>
       <use xlink:href="#mb63ca3b17e" x="642.96" y="348.192" style="stroke: #000000; stroke-width: 0.8"/>
      </g>
     </g>
     <g id="text_7">
      <text style="font: 10px 'DejaVu Sans', 'Bitstream Vera Sans', 'Computer Modern Sans Serif', 'Lucida Grande', 'Verdana', 'Geneva', 'Lucid', 'Arial', 'Helvetica', 'Avant Garde', sans-serif; text-anchor: middle" x="642.96" y="362.790438" transform="rotate(-0 642.96 362.790438)">6</text>
     </g>
    </g>
    <g id="text_8">
     <text style="font: 10px 'DejaVu Sans', 'Bitstream Vera Sans', 'Computer Modern Sans Serif', 'Lucida Grande', 'Verdana', 'Geneva', 'Lucid', 'Arial', 'Helvetica', 'Avant Garde', sans-serif; text-anchor: middle" x="358.704" y="376.468563" transform="rotate(-0 358.704 376.468563)">sUCS dE threshold</text>
    </g>
   </g>
   <g id="matplotlib.axis_2">
    <g id="ytick_1">
     <g id="line2d_15">
      <path d="M 74.448 348.192 
L 642.96 348.192 
" clip-path="url(#pa6d9592b90)" style="fill: none; stroke: #dfe5e8; stroke-width: 0.65; stroke-linecap: square"/>
     </g>
     <g id="line2d_16">
      <defs>
       <path id="mb82e4dceeb" d="M 0 0 
L -3.5 0 
" style="stroke: #000000; stroke-width: 0.8"/>
      </defs>
      <g>
       <use xlink:href="#mb82e4dceeb" x="74.448" y="348.192" style="stroke: #000000; stroke-width: 0.8"/>
      </g>
     </g>
     <g id="text_9">
      <text style="font: 10px 'DejaVu Sans', 'Bitstream Vera Sans', 'Computer Modern Sans Serif', 'Lucida Grande', 'Verdana', 'Geneva', 'Lucid', 'Arial', 'Helvetica', 'Avant Garde', sans-serif; text-anchor: end" x="67.448" y="351.991219" transform="rotate(-0 67.448 351.991219)">0</text>
     </g>
    </g>
    <g id="ytick_2">
     <g id="line2d_17">
      <path d="M 74.448 297.3024 
L 642.96 297.3024 
" clip-path="url(#pa6d9592b90)" style="fill: none; stroke: #dfe5e8; stroke-width: 0.65; stroke-linecap: square"/>
     </g>
     <g id="line2d_18">
      <g>
       <use xlink:href="#mb82e4dceeb" x="74.448" y="297.3024" style="stroke: #000000; stroke-width: 0.8"/>
      </g>
     </g>
     <g id="text_10">
      <text style="font: 10px 'DejaVu Sans', 'Bitstream Vera Sans', 'Computer Modern Sans Serif', 'Lucida Grande', 'Verdana', 'Geneva', 'Lucid', 'Arial', 'Helvetica', 'Avant Garde', sans-serif; text-anchor: end" x="67.448" y="301.101619" transform="rotate(-0 67.448 301.101619)">20</text>
     </g>
    </g>
    <g id="ytick_3">
     <g id="line2d_19">
      <path d="M 74.448 246.4128 
L 642.96 246.4128 
" clip-path="url(#pa6d9592b90)" style="fill: none; stroke: #dfe5e8; stroke-width: 0.65; stroke-linecap: square"/>
     </g>
     <g id="line2d_20">
      <g>
       <use xlink:href="#mb82e4dceeb" x="74.448" y="246.4128" style="stroke: #000000; stroke-width: 0.8"/>
      </g>
     </g>
     <g id="text_11">
      <text style="font: 10px 'DejaVu Sans', 'Bitstream Vera Sans', 'Computer Modern Sans Serif', 'Lucida Grande', 'Verdana', 'Geneva', 'Lucid', 'Arial', 'Helvetica', 'Avant Garde', sans-serif; text-anchor: end" x="67.448" y="250.212019" transform="rotate(-0 67.448 250.212019)">40</text>
     </g>
    </g>
    <g id="ytick_4">
     <g id="line2d_21">
      <path d="M 74.448 195.5232 
L 642.96 195.5232 
" clip-path="url(#pa6d9592b90)" style="fill: none; stroke: #dfe5e8; stroke-width: 0.65; stroke-linecap: square"/>
     </g>
     <g id="line2d_22">
      <g>
       <use xlink:href="#mb82e4dceeb" x="74.448" y="195.5232" style="stroke: #000000; stroke-width: 0.8"/>
      </g>
     </g>
     <g id="text_12">
      <text style="font: 10px 'DejaVu Sans', 'Bitstream Vera Sans', 'Computer Modern Sans Serif', 'Lucida Grande', 'Verdana', 'Geneva', 'Lucid', 'Arial', 'Helvetica', 'Avant Garde', sans-serif; text-anchor: end" x="67.448" y="199.322419" transform="rotate(-0 67.448 199.322419)">60</text>
     </g>
    </g>
    <g id="ytick_5">
     <g id="line2d_23">
      <path d="M 74.448 144.6336 
L 642.96 144.6336 
" clip-path="url(#pa6d9592b90)" style="fill: none; stroke: #dfe5e8; stroke-width: 0.65; stroke-linecap: square"/>
     </g>
     <g id="line2d_24">
      <g>
       <use xlink:href="#mb82e4dceeb" x="74.448" y="144.6336" style="stroke: #000000; stroke-width: 0.8"/>
      </g>
     </g>
     <g id="text_13">
      <text style="font: 10px 'DejaVu Sans', 'Bitstream Vera Sans', 'Computer Modern Sans Serif', 'Lucida Grande', 'Verdana', 'Geneva', 'Lucid', 'Arial', 'Helvetica', 'Avant Garde', sans-serif; text-anchor: end" x="67.448" y="148.432819" transform="rotate(-0 67.448 148.432819)">80</text>
     </g>
    </g>
    <g id="ytick_6">
     <g id="line2d_25">
      <path d="M 74.448 93.744 
L 642.96 93.744 
" clip-path="url(#pa6d9592b90)" style="fill: none; stroke: #dfe5e8; stroke-width: 0.65; stroke-linecap: square"/>
     </g>
     <g id="line2d_26">
      <g>
       <use xlink:href="#mb82e4dceeb" x="74.448" y="93.744" style="stroke: #000000; stroke-width: 0.8"/>
      </g>
     </g>
     <g id="text_14">
      <text style="font: 10px 'DejaVu Sans', 'Bitstream Vera Sans', 'Computer Modern Sans Serif', 'Lucida Grande', 'Verdana', 'Geneva', 'Lucid', 'Arial', 'Helvetica', 'Avant Garde', sans-serif; text-anchor: end" x="67.448" y="97.543219" transform="rotate(-0 67.448 97.543219)">100</text>
     </g>
    </g>
    <g id="text_15">
     <text style="font: 10px 'DejaVu Sans', 'Bitstream Vera Sans', 'Computer Modern Sans Serif', 'Lucida Grande', 'Verdana', 'Geneva', 'Lucid', 'Arial', 'Helvetica', 'Avant Garde', sans-serif; text-anchor: middle" x="42.280812" y="220.968" transform="rotate(-90 42.280812 220.968)">observers%</text>
    </g>
   </g>
   <g id="line2d_27">
    <path d="M 74.448 348.192 
L 83.9232 348.192 
L 85.81824 344.929846 
L 87.71328 343.298769 
L 91.50336 338.911735 
L 93.3984 338.911735 
L 95.29344 337.280658 
L 97.18848 333.456064 
L 99.08352 331.262546 
L 100.97856 331.262546 
L 102.8736 329.069029 
L 106.66368 325.806875 
L 108.55872 325.806875 
L 110.45376 323.613358 
L 112.3488 318.157687 
L 118.03392 318.157687 
L 119.92896 316.52661 
L 121.824 316.52661 
L 123.71904 314.333093 
L 125.61408 307.752541 
L 127.50912 301.73443 
L 129.40416 294.647682 
L 131.2992 294.647682 
L 133.19424 290.823088 
L 138.87936 284.242536 
L 140.7744 284.242536 
L 142.66944 282.611459 
L 144.56448 272.768753 
L 146.45952 272.768753 
L 148.35456 270.575236 
L 150.2496 265.119565 
L 152.14464 263.488488 
L 154.03968 258.595257 
L 155.93472 255.333103 
L 157.82976 251.508509 
L 159.7248 251.508509 
L 161.61984 246.052838 
L 165.40992 242.790684 
L 167.30496 237.335013 
L 169.2 233.510419 
L 171.09504 226.423671 
L 172.99008 226.423671 
L 174.88512 224.230154 
L 176.78016 214.949889 
L 178.6752 209.494218 
L 180.57024 205.669623 
L 182.46528 204.038546 
L 184.36032 204.038546 
L 186.25536 200.213952 
L 188.1504 194.195841 
L 190.04544 192.564764 
L 191.94048 192.564764 
L 193.83552 188.177729 
L 195.73056 180.528541 
L 197.6256 177.266387 
L 201.41568 174.004233 
L 207.1008 174.004233 
L 210.89088 170.74208 
L 212.78592 170.74208 
L 214.68096 166.917485 
L 216.576 163.655332 
L 218.47104 159.268297 
L 220.36608 157.63722 
L 222.26112 152.181549 
L 224.15616 150.550472 
L 226.0512 145.094801 
L 227.94624 145.094801 
L 229.84128 140.707767 
L 233.63136 140.707767 
L 235.5264 139.07669 
L 237.42144 136.883172 
L 239.31648 131.427501 
L 241.21152 131.427501 
L 245.0016 128.165347 
L 246.89664 125.97183 
L 248.79168 125.97183 
L 250.68672 124.340753 
L 254.4768 119.953719 
L 263.952 119.953719 
L 265.84704 114.498048 
L 269.63712 114.498048 
L 271.53216 112.866971 
L 273.4272 112.866971 
L 275.32224 111.235894 
L 277.21728 109.042377 
L 281.00736 109.042377 
L 282.9024 107.4113 
L 286.69248 103.024265 
L 290.48256 103.024265 
L 292.3776 101.393188 
L 294.27264 99.199671 
L 296.16768 99.199671 
L 298.06272 97.568594 
L 335.96352 97.568594 
L 337.85856 95.937517 
L 341.64864 95.937517 
L 343.54368 93.744 
L 642.96 93.744 
L 642.96 93.744 
" clip-path="url(#pa6d9592b90)" style="fill: none; stroke: #252525; stroke-width: 2.5; stroke-linecap: square"/>
   </g>
   <g id="line2d_28">
    <path d="M 74.448 348.192 
L 83.9232 348.192 
L 85.81824 345.998483 
L 91.50336 345.998483 
L 95.29344 341.611448 
L 102.8736 341.611448 
L 104.76864 337.224414 
L 108.55872 337.224414 
L 110.45376 335.030897 
L 112.3488 335.030897 
L 114.24384 332.837379 
L 116.13888 332.837379 
L 118.03392 330.643862 
L 119.92896 326.256828 
L 121.824 326.256828 
L 123.71904 322.432233 
L 125.61408 318.045199 
L 127.50912 315.851682 
L 129.40416 311.464647 
L 133.19424 311.464647 
L 135.08928 307.077613 
L 142.66944 307.077613 
L 144.56448 302.690578 
L 146.45952 302.690578 
L 148.35456 300.497061 
L 150.2496 300.497061 
L 152.14464 293.916509 
L 154.03968 289.529475 
L 155.93472 287.335958 
L 157.82976 287.335958 
L 159.7248 285.14244 
L 161.61984 285.14244 
L 163.51488 282.948923 
L 167.30496 282.948923 
L 171.09504 278.561889 
L 172.99008 270.9127 
L 174.88512 268.719183 
L 176.78016 264.332149 
L 180.57024 259.945114 
L 182.46528 259.945114 
L 184.36032 257.751597 
L 190.04544 252.858366 
L 191.94048 246.277814 
L 193.83552 242.45322 
L 199.52064 242.45322 
L 203.31072 238.066186 
L 205.20576 232.048074 
L 207.1008 232.048074 
L 208.99584 229.854557 
L 210.89088 229.854557 
L 214.68096 225.467523 
L 216.576 223.836446 
L 218.47104 221.642928 
L 220.36608 221.642928 
L 222.26112 220.011851 
L 226.0512 215.624817 
L 227.94624 213.99374 
L 229.84128 210.731586 
L 231.73632 209.100509 
L 233.63136 209.100509 
L 241.21152 202.576202 
L 243.10656 200.382684 
L 250.68672 200.382684 
L 252.58176 194.927013 
L 254.4768 194.927013 
L 256.37184 193.295936 
L 258.26688 191.102419 
L 262.05696 187.840265 
L 263.952 182.947034 
L 265.84704 182.947034 
L 273.4272 176.422727 
L 275.32224 173.160573 
L 281.00736 168.267342 
L 282.9024 168.267342 
L 286.69248 165.005188 
L 290.48256 158.480881 
L 292.3776 156.849804 
L 294.27264 156.849804 
L 296.16768 153.58765 
L 298.06272 149.763056 
L 301.8528 146.500902 
L 303.74784 146.500902 
L 305.64288 143.238748 
L 309.43296 139.976594 
L 311.328 139.976594 
L 317.01312 135.083363 
L 318.90816 135.083363 
L 320.8032 131.82121 
L 322.69824 131.82121 
L 326.48832 128.559056 
L 328.38336 125.296902 
L 330.2784 125.296902 
L 332.17344 123.665825 
L 334.06848 123.665825 
L 335.96352 120.403671 
L 339.7536 120.403671 
L 343.54368 117.141517 
L 345.43872 113.316923 
L 347.33376 111.685846 
L 353.01888 111.685846 
L 354.91392 108.423692 
L 356.80896 108.423692 
L 358.704 106.792615 
L 368.1792 106.792615 
L 370.07424 105.161538 
L 371.96928 105.161538 
L 373.86432 103.530462 
L 389.02464 103.530462 
L 390.91968 101.899385 
L 394.70976 101.899385 
L 398.49984 98.637231 
L 400.39488 98.637231 
L 402.28992 97.006154 
L 413.66016 97.006154 
L 415.5552 95.375077 
L 453.456 95.375077 
L 455.35104 93.744 
L 642.96 93.744 
L 642.96 93.744 
" clip-path="url(#pa6d9592b90)" style="fill: none; stroke: #3b83b4; stroke-width: 1.35; stroke-linecap: square"/>
   </g>
   <g id="line2d_29">
    <path d="M 74.448 348.192 
L 85.81824 348.192 
L 87.71328 344.929846 
L 89.60832 344.929846 
L 91.50336 340.036615 
L 93.3984 338.405538 
L 95.29344 338.405538 
L 97.18848 336.774462 
L 99.08352 330.250154 
L 100.97856 330.250154 
L 104.76864 326.988 
L 106.66368 326.988 
L 108.55872 323.725846 
L 110.45376 322.094769 
L 112.3488 317.201538 
L 118.03392 312.308308 
L 119.92896 312.308308 
L 121.824 308.483714 
L 123.71904 301.396966 
L 125.61408 299.765889 
L 127.50912 297.572371 
L 129.40416 291.048064 
L 131.2992 289.416987 
L 133.19424 285.029952 
L 135.08928 279.574281 
L 136.98432 273.049973 
L 138.87936 270.856456 
L 140.7744 264.332149 
L 146.45952 264.332149 
L 148.35456 261.069995 
L 152.14464 246.896499 
L 154.03968 242.509464 
L 155.93472 242.509464 
L 157.82976 235.985156 
L 159.7248 232.160562 
L 161.61984 229.967045 
L 163.51488 228.335968 
L 167.30496 228.335968 
L 169.2 224.511374 
L 171.09504 222.317857 
L 172.99008 220.68678 
L 174.88512 218.493263 
L 178.6752 211.968955 
L 180.57024 210.337878 
L 182.46528 206.513284 
L 186.25536 203.25113 
L 188.1504 201.057613 
L 190.04544 197.233019 
L 191.94048 197.233019 
L 193.83552 195.039501 
L 197.6256 195.039501 
L 199.52064 190.652467 
L 201.41568 183.003279 
L 203.31072 179.178684 
L 207.1008 179.178684 
L 208.99584 177.547607 
L 210.89088 173.160573 
L 212.78592 170.967056 
L 214.68096 170.967056 
L 216.576 167.142462 
L 220.36608 167.142462 
L 222.26112 163.317867 
L 224.15616 163.317867 
L 226.0512 160.055714 
L 227.94624 160.055714 
L 229.84128 155.668679 
L 231.73632 153.475162 
L 233.63136 153.475162 
L 235.5264 149.088127 
L 239.31648 149.088127 
L 241.21152 143.632456 
L 243.10656 141.438939 
L 245.0016 141.438939 
L 246.89664 139.245422 
L 248.79168 139.245422 
L 250.68672 134.858387 
L 252.58176 134.858387 
L 254.4768 130.471353 
L 273.4272 130.471353 
L 277.21728 126.084318 
L 279.11232 122.259724 
L 288.58752 122.259724 
L 290.48256 120.066207 
L 292.3776 115.679172 
L 294.27264 115.679172 
L 296.16768 113.485655 
L 298.06272 113.485655 
L 299.95776 111.292138 
L 307.53792 111.292138 
L 311.328 106.905103 
L 313.22304 106.905103 
L 315.11808 104.711586 
L 324.59328 104.711586 
L 326.48832 100.324552 
L 343.54368 100.324552 
L 345.43872 98.131034 
L 349.2288 98.131034 
L 351.12384 95.937517 
L 392.81472 95.937517 
L 394.70976 93.744 
L 642.96 93.744 
L 642.96 93.744 
" clip-path="url(#pa6d9592b90)" style="fill: none; stroke-dasharray: 4.995,2.16; stroke-dashoffset: 0; stroke: #c38a19; stroke-width: 1.35"/>
   </g>
   <g id="line2d_30">
    <path d="M 74.448 348.192 
L 87.71328 348.192 
L 89.60832 345.998483 
L 97.18848 345.998483 
L 99.08352 341.611448 
L 100.97856 339.980371 
L 106.66368 333.39982 
L 108.55872 331.768743 
L 110.45376 329.575225 
L 112.3488 329.575225 
L 116.13888 326.313072 
L 121.824 326.313072 
L 123.71904 324.681995 
L 125.61408 319.226324 
L 129.40416 315.96417 
L 131.2992 308.314981 
L 133.19424 306.683905 
L 135.08928 300.665793 
L 136.98432 296.841199 
L 140.7744 296.841199 
L 142.66944 293.016605 
L 144.56448 286.998493 
L 146.45952 283.173899 
L 150.2496 279.911745 
L 152.14464 275.524711 
L 154.03968 273.893634 
L 155.93472 265.682005 
L 157.82976 265.682005 
L 159.7248 257.470377 
L 163.51488 254.208223 
L 165.40992 250.383629 
L 167.30496 245.996594 
L 169.2 242.172 
L 171.09504 240.540923 
L 172.99008 237.278769 
L 174.88512 235.647692 
L 176.78016 232.385538 
L 178.6752 232.385538 
L 180.57024 227.492308 
L 184.36032 219.843119 
L 186.25536 213.825008 
L 188.1504 212.193931 
L 191.94048 207.806897 
L 193.83552 204.544743 
L 195.73056 202.913666 
L 197.6256 199.089072 
L 199.52064 197.457995 
L 201.41568 194.195841 
L 203.31072 192.564764 
L 205.20576 186.546653 
L 207.1008 181.653422 
L 208.99584 176.197751 
L 210.89088 171.810716 
L 212.78592 169.617199 
L 214.68096 165.792605 
L 216.576 165.792605 
L 218.47104 164.161528 
L 220.36608 160.336934 
L 222.26112 157.07478 
L 224.15616 155.443703 
L 226.0512 152.181549 
L 227.94624 147.794515 
L 229.84128 146.163438 
L 231.73632 146.163438 
L 233.63136 143.96992 
L 235.5264 143.96992 
L 237.42144 141.776403 
L 239.31648 140.145326 
L 241.21152 137.951809 
L 243.10656 137.951809 
L 245.0016 133.564775 
L 246.89664 128.671544 
L 248.79168 128.671544 
L 250.68672 124.84695 
L 252.58176 121.584796 
L 254.4768 121.584796 
L 256.37184 117.197761 
L 258.26688 115.004244 
L 260.16192 113.373167 
L 263.952 113.373167 
L 265.84704 111.74209 
L 275.32224 111.74209 
L 277.21728 107.917496 
L 279.11232 107.917496 
L 281.00736 105.723979 
L 286.69248 105.723979 
L 288.58752 104.092902 
L 292.3776 104.092902 
L 294.27264 100.830748 
L 296.16768 99.199671 
L 311.328 99.199671 
L 313.22304 97.568594 
L 320.8032 97.568594 
L 322.69824 95.375077 
L 349.2288 95.375077 
L 351.12384 93.744 
L 642.96 93.744 
L 642.96 93.744 
" clip-path="url(#pa6d9592b90)" style="fill: none; stroke-dasharray: 1.35,2.2275; stroke-dashoffset: 0; stroke: #7d8a92; stroke-width: 1.35"/>
   </g>
   <g id="line2d_31">
    <path d="M 74.448 348.192 
L 97.18848 348.192 
L 99.08352 343.804966 
L 129.40416 343.804966 
L 135.08928 337.224414 
L 140.7744 337.224414 
L 142.66944 335.030897 
L 148.35456 335.030897 
L 150.2496 333.39982 
L 152.14464 333.39982 
L 154.03968 331.206302 
L 159.7248 331.206302 
L 161.61984 329.012785 
L 163.51488 329.012785 
L 165.40992 324.625751 
L 167.30496 318.045199 
L 169.2 315.851682 
L 171.09504 309.27113 
L 172.99008 307.077613 
L 174.88512 307.077613 
L 176.78016 304.884095 
L 178.6752 304.884095 
L 180.57024 302.690578 
L 184.36032 302.690578 
L 186.25536 300.497061 
L 188.1504 300.497061 
L 190.04544 298.303544 
L 195.73056 298.303544 
L 199.52064 293.916509 
L 203.31072 293.916509 
L 205.20576 287.335958 
L 207.1008 287.335958 
L 210.89088 282.948923 
L 212.78592 281.317846 
L 216.576 281.317846 
L 218.47104 279.124329 
L 226.0512 279.124329 
L 227.94624 276.930812 
L 229.84128 276.930812 
L 231.73632 274.737294 
L 235.5264 274.737294 
L 239.31648 265.963225 
L 241.21152 265.963225 
L 243.10656 261.576191 
L 245.0016 261.576191 
L 246.89664 257.751597 
L 256.37184 257.751597 
L 258.26688 253.927003 
L 260.16192 253.927003 
L 262.05696 246.277814 
L 263.952 244.084297 
L 265.84704 244.084297 
L 267.74208 241.89078 
L 269.63712 236.997549 
L 271.53216 234.804032 
L 273.4272 230.416997 
L 275.32224 230.416997 
L 277.21728 228.22348 
L 279.11232 228.22348 
L 281.00736 226.592403 
L 284.79744 226.592403 
L 286.69248 224.398886 
L 288.58752 224.398886 
L 294.27264 219.505655 
L 296.16768 217.312138 
L 298.06272 214.049984 
L 299.95776 208.031873 
L 301.8528 208.031873 
L 305.64288 204.769719 
L 307.53792 204.769719 
L 309.43296 203.138642 
L 311.328 200.945125 
L 313.22304 199.314048 
L 318.90816 199.314048 
L 320.8032 193.858377 
L 322.69824 193.858377 
L 324.59328 192.2273 
L 326.48832 190.033782 
L 328.38336 188.402706 
L 330.2784 185.140552 
L 334.06848 185.140552 
L 337.85856 178.616244 
L 341.64864 175.35409 
L 343.54368 172.091936 
L 345.43872 168.267342 
L 349.2288 161.743034 
L 351.12384 161.743034 
L 353.01888 160.111958 
L 354.91392 156.849804 
L 356.80896 156.849804 
L 358.704 155.218727 
L 360.59904 151.956573 
L 362.49408 147.063342 
L 370.07424 140.539034 
L 371.96928 137.276881 
L 373.86432 135.083363 
L 377.6544 131.82121 
L 383.33952 131.82121 
L 385.23456 128.559056 
L 387.1296 128.559056 
L 389.02464 125.296902 
L 390.91968 125.296902 
L 392.81472 122.034748 
L 394.70976 120.403671 
L 396.6048 120.403671 
L 398.49984 118.772594 
L 409.87008 118.772594 
L 411.76512 115.51044 
L 413.66016 111.685846 
L 415.5552 111.685846 
L 421.24032 106.792615 
L 423.13536 106.792615 
L 425.0304 105.161538 
L 442.08576 105.161538 
L 443.9808 103.530462 
L 449.66592 103.530462 
L 451.56096 101.899385 
L 453.456 101.899385 
L 457.24608 98.637231 
L 462.9312 98.637231 
L 464.82624 97.006154 
L 478.09152 97.006154 
L 479.98656 95.375077 
L 514.09728 95.375077 
L 515.99232 93.744 
L 642.96 93.744 
L 642.96 93.744 
" clip-path="url(#pa6d9592b90)" style="fill: none; stroke-dasharray: 8.64,2.16,1.35,2.16; stroke-dashoffset: 0; stroke: #d0526a; stroke-width: 1.35"/>
   </g>
   <g id="line2d_32">
    <path d="M 74.448 348.192 
L 99.08352 348.192 
L 100.97856 345.998483 
L 114.24384 345.998483 
L 116.13888 343.804966 
L 131.2992 343.804966 
L 133.19424 341.611448 
L 138.87936 341.611448 
L 140.7744 339.417931 
L 148.35456 339.417931 
L 150.2496 337.224414 
L 152.14464 337.224414 
L 154.03968 332.837379 
L 155.93472 330.643862 
L 165.40992 330.643862 
L 167.30496 329.012785 
L 169.2 324.625751 
L 172.99008 324.625751 
L 174.88512 322.432233 
L 176.78016 322.432233 
L 178.6752 320.238716 
L 180.57024 315.851682 
L 182.46528 313.658164 
L 184.36032 313.658164 
L 186.25536 311.464647 
L 188.1504 304.884095 
L 193.83552 304.884095 
L 195.73056 302.690578 
L 197.6256 302.690578 
L 199.52064 300.497061 
L 203.31072 300.497061 
L 205.20576 298.303544 
L 210.89088 298.303544 
L 214.68096 293.916509 
L 218.47104 293.916509 
L 220.36608 291.722992 
L 222.26112 287.335958 
L 224.15616 287.335958 
L 226.0512 282.948923 
L 227.94624 281.317846 
L 229.84128 281.317846 
L 231.73632 279.124329 
L 243.10656 279.124329 
L 246.89664 274.737294 
L 250.68672 274.737294 
L 252.58176 268.156743 
L 254.4768 268.156743 
L 256.37184 265.963225 
L 258.26688 261.576191 
L 260.16192 259.382674 
L 262.05696 259.382674 
L 263.952 257.751597 
L 269.63712 257.751597 
L 271.53216 255.55808 
L 275.32224 252.295926 
L 277.21728 250.102408 
L 279.11232 244.084297 
L 281.00736 244.084297 
L 282.9024 241.89078 
L 284.79744 238.628626 
L 286.69248 234.804032 
L 290.48256 230.416997 
L 292.3776 230.416997 
L 294.27264 228.22348 
L 296.16768 228.22348 
L 298.06272 226.592403 
L 299.95776 226.592403 
L 301.8528 224.398886 
L 303.74784 224.398886 
L 305.64288 222.767809 
L 307.53792 218.943215 
L 309.43296 217.312138 
L 311.328 217.312138 
L 313.22304 215.681061 
L 315.11808 210.22539 
L 317.01312 208.031873 
L 318.90816 208.031873 
L 322.69824 204.769719 
L 324.59328 204.769719 
L 326.48832 200.945125 
L 328.38336 200.945125 
L 330.2784 199.314048 
L 334.06848 199.314048 
L 335.96352 196.051894 
L 337.85856 193.858377 
L 339.7536 193.858377 
L 341.64864 192.2273 
L 343.54368 190.033782 
L 345.43872 186.771629 
L 347.33376 185.140552 
L 349.2288 185.140552 
L 351.12384 183.509475 
L 354.91392 176.985167 
L 356.80896 176.985167 
L 358.704 172.091936 
L 360.59904 166.636265 
L 362.49408 163.374111 
L 364.38912 161.743034 
L 366.28416 161.743034 
L 370.07424 158.480881 
L 371.96928 155.218727 
L 373.86432 153.58765 
L 375.75936 153.58765 
L 377.6544 147.063342 
L 379.54944 147.063342 
L 383.33952 143.801188 
L 387.1296 137.276881 
L 389.02464 137.276881 
L 390.91968 133.452286 
L 392.81472 133.452286 
L 394.70976 131.82121 
L 398.49984 131.82121 
L 400.39488 128.559056 
L 402.28992 128.559056 
L 404.18496 125.296902 
L 406.08 125.296902 
L 407.97504 122.034748 
L 409.87008 120.403671 
L 411.76512 120.403671 
L 413.66016 118.772594 
L 425.0304 118.772594 
L 426.92544 115.51044 
L 428.82048 111.685846 
L 432.61056 111.685846 
L 436.40064 108.423692 
L 438.29568 105.161538 
L 457.24608 105.161538 
L 459.14112 103.530462 
L 464.82624 103.530462 
L 466.72128 101.899385 
L 468.61632 101.899385 
L 472.4064 98.637231 
L 479.98656 98.637231 
L 481.8816 97.006154 
L 493.25184 97.006154 
L 495.14688 95.375077 
L 529.2576 95.375077 
L 531.15264 93.744 
L 642.96 93.744 
L 642.96 93.744 
" clip-path="url(#pa6d9592b90)" style="fill: none; stroke-dasharray: 6.75,2.7,1.35,2.7; stroke-dashoffset: 0; stroke: #2f8f84; stroke-width: 1.35"/>
   </g>
   <g id="patch_4">
    <path d="M 74.448 348.192 
L 74.448 93.744 
" style="fill: none; stroke: #000000; stroke-width: 0.8; stroke-linejoin: miter; stroke-linecap: square"/>
   </g>
   <g id="patch_5">
    <path d="M 74.448 348.192 
L 642.96 348.192 
" style="fill: none; stroke: #000000; stroke-width: 0.8; stroke-linejoin: miter; stroke-linecap: square"/>
   </g>
  </g>
  <g id="text_16">
   <text style="font: 18px 'DejaVu Sans', 'Bitstream Vera Sans', 'Computer Modern Sans Serif', 'Lucida Grande', 'Verdana', 'Geneva', 'Lucid', 'Arial', 'Helvetica', 'Avant Garde', sans-serif; text-anchor: start" x="74.448" y="38.229188" transform="rotate(-0 74.448 38.229188)">WOLED → WLED LCD</text>
  </g>
  <g id="text_17">
   <text style="fill: #66747c; font: 10px 'DejaVu Sans', 'Bitstream Vera Sans', 'Computer Modern Sans Serif', 'Lucida Grande', 'Verdana', 'Geneva', 'Lucid', 'Arial', 'Helvetica', 'Avant Garde', sans-serif; text-anchor: start" x="74.448" y="64.728" transform="rotate(-0 74.448 64.728)">LED-V2</text>
  </g>
  <g id="legend_1">
   <g id="line2d_33">
    <path d="M 185.17875 404.151391 
L 194.27875 404.151391 
L 203.37875 404.151391 
" style="fill: none; stroke: #252525; stroke-width: 2.5; stroke-linecap: square"/>
   </g>
   <g id="text_18">
    <text style="font: 9.1px 'DejaVu Sans', 'Bitstream Vera Sans', 'Computer Modern Sans Serif', 'Lucida Grande', 'Verdana', 'Geneva', 'Lucid', 'Arial', 'Helvetica', 'Avant Garde', sans-serif; text-anchor: start" x="210.65875" y="407.336391" transform="rotate(-0 210.65875 407.336391)">Potera CMF</text>
   </g>
   <g id="line2d_34">
    <path d="M 185.17875 417.508484 
L 194.27875 417.508484 
L 203.37875 417.508484 
" style="fill: none; stroke: #3b83b4; stroke-width: 1.35; stroke-linecap: square"/>
   </g>
   <g id="text_19">
    <text style="font: 9.1px 'DejaVu Sans', 'Bitstream Vera Sans', 'Computer Modern Sans Serif', 'Lucida Grande', 'Verdana', 'Geneva', 'Lucid', 'Arial', 'Helvetica', 'Avant Garde', sans-serif; text-anchor: start" x="210.65875" y="420.693484" transform="rotate(-0 210.65875 420.693484)">CIE 2015 2°</text>
   </g>
   <g id="line2d_35">
    <path d="M 282.931234 404.151391 
L 292.031234 404.151391 
L 301.131234 404.151391 
" style="fill: none; stroke-dasharray: 4.995,2.16; stroke-dashoffset: 0; stroke: #c38a19; stroke-width: 1.35"/>
   </g>
   <g id="text_20">
    <text style="font: 9.1px 'DejaVu Sans', 'Bitstream Vera Sans', 'Computer Modern Sans Serif', 'Lucida Grande', 'Verdana', 'Geneva', 'Lucid', 'Arial', 'Helvetica', 'Avant Garde', sans-serif; text-anchor: start" x="308.411234" y="407.336391" transform="rotate(-0 308.411234 407.336391)">CIE 2015 10°</text>
   </g>
   <g id="line2d_36">
    <path d="M 282.931234 417.508484 
L 292.031234 417.508484 
L 301.131234 417.508484 
" style="fill: none; stroke-dasharray: 1.35,2.2275; stroke-dashoffset: 0; stroke: #7d8a92; stroke-width: 1.35"/>
   </g>
   <g id="text_21">
    <text style="font: 9.1px 'DejaVu Sans', 'Bitstream Vera Sans', 'Computer Modern Sans Serif', 'Lucida Grande', 'Verdana', 'Geneva', 'Lucid', 'Arial', 'Helvetica', 'Avant Garde', sans-serif; text-anchor: start" x="308.411234" y="420.693484" transform="rotate(-0 308.411234 420.693484)">CIE 1964 10°</text>
   </g>
   <g id="line2d_37">
    <path d="M 386.473594 404.151391 
L 395.573594 404.151391 
L 404.673594 404.151391 
" style="fill: none; stroke-dasharray: 8.64,2.16,1.35,2.16; stroke-dashoffset: 0; stroke: #d0526a; stroke-width: 1.35"/>
   </g>
   <g id="text_22">
    <text style="font: 9.1px 'DejaVu Sans', 'Bitstream Vera Sans', 'Computer Modern Sans Serif', 'Lucida Grande', 'Verdana', 'Geneva', 'Lucid', 'Arial', 'Helvetica', 'Avant Garde', sans-serif; text-anchor: start" x="411.953594" y="407.336391" transform="rotate(-0 411.953594 407.336391)">CIE 1931 2°</text>
   </g>
   <g id="line2d_38">
    <path d="M 386.473594 417.508484 
L 395.573594 417.508484 
L 404.673594 417.508484 
" style="fill: none; stroke-dasharray: 6.75,2.7,1.35,2.7; stroke-dashoffset: 0; stroke: #2f8f84; stroke-width: 1.35"/>
   </g>
   <g id="text_23">
    <text style="font: 9.1px 'DejaVu Sans', 'Bitstream Vera Sans', 'Computer Modern Sans Serif', 'Lucida Grande', 'Verdana', 'Geneva', 'Lucid', 'Arial', 'Helvetica', 'Avant Garde', sans-serif; text-anchor: start" x="411.953594" y="420.693484" transform="rotate(-0 411.953594 420.693484)">Judd–Vos 1978 2°</text>
   </g>
  </g>
 </g>
 <defs>
  <clipPath id="pa6d9592b90">
   <rect x="74.448" y="93.744" width="568.512" height="254.448"/>
  </clipPath>
 </defs>
</svg>
