<?xml version="1.0" encoding="utf-8" standalone="no"?>
<!DOCTYPE svg PUBLIC "-//W3C//DTD SVG 1.1//EN"
  "http://www.w3.org/Graphics/SVG/1.1/DTD/svg11.dtd">
<svg xmlns:xlink="http://www.w3.org/1999/xlink" width="676.8pt" height="446.4pt" viewBox="0 0 676.8 446.4" xmlns="http://www.w3.org/2000/svg" version="1.1">
 <metadata>
  <rdf:RDF xmlns:dc="http://purl.org/dc/elements/1.1/" xmlns:cc="http://creativecommons.org/ns#" xmlns:rdf="http://www.w3.org/1999/02/22-rdf-syntax-ns#">
   <cc:Work>
    <dc:type rdf:resource="http://purl.org/dc/dcmitype/StillImage"/>
    <dc:date>2026-07-20T06:41:57.140684</dc:date>
    <dc:format>image/svg+xml</dc:format>
    <dc:creator>
     <cc:Agent>
      <dc:title>Matplotlib v3.9.4, https://matplotlib.org/</dc:title>
     </cc:Agent>
    </dc:creator>
   </cc:Work>
  </rdf:RDF>
 </metadata>
 <defs>
  <style type="text/css">*{stroke-linejoin: round; stroke-linecap: butt}</style>
 </defs>
 <g id="figure_1">
  <g id="patch_1">
   <path d="M 0 446.4 
L 676.8 446.4 
L 676.8 0 
L 0 0 
z
" style="fill: #ffffff"/>
  </g>
  <g id="axes_1">
   <g id="patch_2">
    <path d="M 74.448 348.192 
L 642.96 348.192 
L 642.96 93.744 
L 74.448 93.744 
z
" style="fill: #ffffff"/>
   </g>
   <g id="patch_3">
    <path d="M 169.2 348.192 
L 358.704 348.192 
L 358.704 93.744 
L 169.2 93.744 
z
" clip-path="url(#p814bd0e42d)" style="fill: #e7f0ea; opacity: 0.58; stroke: #e7f0ea; stroke-linejoin: miter"/>
   </g>
   <g id="matplotlib.axis_1">
    <g id="xtick_1">
     <g id="line2d_1">
      <path d="M 74.448 348.192 
L 74.448 93.744 
" clip-path="url(#p814bd0e42d)" style="fill: none; stroke: #dfe5e8; stroke-width: 0.65; stroke-linecap: square"/>
     </g>
     <g id="line2d_2">
      <defs>
       <path id="m24a1134217" d="M 0 0 
L 0 3.5 
" style="stroke: #000000; stroke-width: 0.8"/>
      </defs>
      <g>
       <use xlink:href="#m24a1134217" x="74.448" y="348.192" style="stroke: #000000; stroke-width: 0.8"/>
      </g>
     </g>
     <g id="text_1">
      <text style="font: 10px 'DejaVu Sans', 'Bitstream Vera Sans', 'Computer Modern Sans Serif', 'Lucida Grande', 'Verdana', 'Geneva', 'Lucid', 'Arial', 'Helvetica', 'Avant Garde', sans-serif; text-anchor: middle" x="74.448" y="362.790438" transform="rotate(-0 74.448 362.790438)">0</text>
     </g>
    </g>
    <g id="xtick_2">
     <g id="line2d_3">
      <path d="M 169.2 348.192 
L 169.2 93.744 
" clip-path="url(#p814bd0e42d)" style="fill: none; stroke: #dfe5e8; stroke-width: 0.65; stroke-linecap: square"/>
     </g>
     <g id="line2d_4">
      <g>
       <use xlink:href="#m24a1134217" x="169.2" y="348.192" style="stroke: #000000; stroke-width: 0.8"/>
      </g>
     </g>
     <g id="text_2">
      <text style="font: 10px 'DejaVu Sans', 'Bitstream Vera Sans', 'Computer Modern Sans Serif', 'Lucida Grande', 'Verdana', 'Geneva', 'Lucid', 'Arial', 'Helvetica', 'Avant Garde', sans-serif; text-anchor: middle" x="169.2" y="362.790438" transform="rotate(-0 169.2 362.790438)">1</text>
     </g>
    </g>
    <g id="xtick_3">
     <g id="line2d_5">
      <path d="M 263.952 348.192 
L 263.952 93.744 
" clip-path="url(#p814bd0e42d)" style="fill: none; stroke: #dfe5e8; stroke-width: 0.65; stroke-linecap: square"/>
     </g>
     <g id="line2d_6">
      <g>
       <use xlink:href="#m24a1134217" x="263.952" y="348.192" style="stroke: #000000; stroke-width: 0.8"/>
      </g>
     </g>
     <g id="text_3">
      <text style="font: 10px 'DejaVu Sans', 'Bitstream Vera Sans', 'Computer Modern Sans Serif', 'Lucida Grande', 'Verdana', 'Geneva', 'Lucid', 'Arial', 'Helvetica', 'Avant Garde', sans-serif; text-anchor: middle" x="263.952" y="362.790438" transform="rotate(-0 263.952 362.790438)">2</text>
     </g>
    </g>
    <g id="xtick_4">
     <g id="line2d_7">
      <path d="M 358.704 348.192 
L 358.704 93.744 
" clip-path="url(#p814bd0e42d)" style="fill: none; stroke: #dfe5e8; stroke-width: 0.65; stroke-linecap: square"/>
     </g>
     <g id="line2d_8">
      <g>
       <use xlink:href="#m24a1134217" x="358.704" y="348.192" style="stroke: #000000; stroke-width: 0.8"/>
      </g>
     </g>
     <g id="text_4">
      <text style="font: 10px 'DejaVu Sans', 'Bitstream Vera Sans', 'Computer Modern Sans Serif', 'Lucida Grande', 'Verdana', 'Geneva', 'Lucid', 'Arial', 'Helvetica', 'Avant Garde', sans-serif; text-anchor: middle" x="358.704" y="362.790438" transform="rotate(-0 358.704 362.790438)">3</text>
     </g>
    </g>
    <g id="xtick_5">
     <g id="line2d_9">
      <path d="M 453.456 348.192 
L 453.456 93.744 
" clip-path="url(#p814bd0e42d)" style="fill: none; stroke: #dfe5e8; stroke-width: 0.65; stroke-linecap: square"/>
     </g>
     <g id="line2d_10">
      <g>
       <use xlink:href="#m24a1134217" x="453.456" y="348.192" style="stroke: #000000; stroke-width: 0.8"/>
      </g>
     </g>
     <g id="text_5">
      <text style="font: 10px 'DejaVu Sans', 'Bitstream Vera Sans', 'Computer Modern Sans Serif', 'Lucida Grande', 'Verdana', 'Geneva', 'Lucid', 'Arial', 'Helvetica', 'Avant Garde', sans-serif; text-anchor: middle" x="453.456" y="362.790438" transform="rotate(-0 453.456 362.790438)">4</text>
     </g>
    </g>
    <g id="xtick_6">
     <g id="line2d_11">
      <path d="M 548.208 348.192 
L 548.208 93.744 
" clip-path="url(#p814bd0e42d)" style="fill: none; stroke: #dfe5e8; stroke-width: 0.65; stroke-linecap: square"/>
     </g>
     <g id="line2d_12">
      <g>
       <use xlink:href="#m24a1134217" x="548.208" y="348.192" style="stroke: #000000; stroke-width: 0.8"/>
      </g>
     </g>
     <g id="text_6">
      <text style="font: 10px 'DejaVu Sans', 'Bitstream Vera Sans', 'Computer Modern Sans Serif', 'Lucida Grande', 'Verdana', 'Geneva', 'Lucid', 'Arial', 'Helvetica', 'Avant Garde', sans-serif; text-anchor: middle" x="548.208" y="362.790438" transform="rotate(-0 548.208 362.790438)">5</text>
     </g>
    </g>
    <g id="xtick_7">
     <g id="line2d_13">
      <path d="M 642.96 348.192 
L 642.96 93.744 
" clip-path="url(#p814bd0e42d)" style="fill: none; stroke: #dfe5e8; stroke-width: 0.65; stroke-linecap: square"/>
     </g>
     <g id="line2d_14">
      <g>
       <use xlink:href="#m24a1134217" x="642.96" y="348.192" style="stroke: #000000; stroke-width: 0.8"/>
      </g>
     </g>
     <g id="text_7">
      <text style="font: 10px 'DejaVu Sans', 'Bitstream Vera Sans', 'Computer Modern Sans Serif', 'Lucida Grande', 'Verdana', 'Geneva', 'Lucid', 'Arial', 'Helvetica', 'Avant Garde', sans-serif; text-anchor: middle" x="642.96" y="362.790438" transform="rotate(-0 642.96 362.790438)">6</text>
     </g>
    </g>
    <g id="text_8">
     <text style="font: 10px 'DejaVu Sans', 'Bitstream Vera Sans', 'Computer Modern Sans Serif', 'Lucida Grande', 'Verdana', 'Geneva', 'Lucid', 'Arial', 'Helvetica', 'Avant Garde', sans-serif; text-anchor: middle" x="358.704" y="376.468563" transform="rotate(-0 358.704 376.468563)">sUCS dE threshold</text>
    </g>
   </g>
   <g id="matplotlib.axis_2">
    <g id="ytick_1">
     <g id="line2d_15">
      <path d="M 74.448 348.192 
L 642.96 348.192 
" clip-path="url(#p814bd0e42d)" style="fill: none; stroke: #dfe5e8; stroke-width: 0.65; stroke-linecap: square"/>
     </g>
     <g id="line2d_16">
      <defs>
       <path id="m1f48a2a8de" d="M 0 0 
L -3.5 0 
" style="stroke: #000000; stroke-width: 0.8"/>
      </defs>
      <g>
       <use xlink:href="#m1f48a2a8de" x="74.448" y="348.192" style="stroke: #000000; stroke-width: 0.8"/>
      </g>
     </g>
     <g id="text_9">
      <text style="font: 10px 'DejaVu Sans', 'Bitstream Vera Sans', 'Computer Modern Sans Serif', 'Lucida Grande', 'Verdana', 'Geneva', 'Lucid', 'Arial', 'Helvetica', 'Avant Garde', sans-serif; text-anchor: end" x="67.448" y="351.991219" transform="rotate(-0 67.448 351.991219)">0</text>
     </g>
    </g>
    <g id="ytick_2">
     <g id="line2d_17">
      <path d="M 74.448 297.3024 
L 642.96 297.3024 
" clip-path="url(#p814bd0e42d)" style="fill: none; stroke: #dfe5e8; stroke-width: 0.65; stroke-linecap: square"/>
     </g>
     <g id="line2d_18">
      <g>
       <use xlink:href="#m1f48a2a8de" x="74.448" y="297.3024" style="stroke: #000000; stroke-width: 0.8"/>
      </g>
     </g>
     <g id="text_10">
      <text style="font: 10px 'DejaVu Sans', 'Bitstream Vera Sans', 'Computer Modern Sans Serif', 'Lucida Grande', 'Verdana', 'Geneva', 'Lucid', 'Arial', 'Helvetica', 'Avant Garde', sans-serif; text-anchor: end" x="67.448" y="301.101619" transform="rotate(-0 67.448 301.101619)">20</text>
     </g>
    </g>
    <g id="ytick_3">
     <g id="line2d_19">
      <path d="M 74.448 246.4128 
L 642.96 246.4128 
" clip-path="url(#p814bd0e42d)" style="fill: none; stroke: #dfe5e8; stroke-width: 0.65; stroke-linecap: square"/>
     </g>
     <g id="line2d_20">
      <g>
       <use xlink:href="#m1f48a2a8de" x="74.448" y="246.4128" style="stroke: #000000; stroke-width: 0.8"/>
      </g>
     </g>
     <g id="text_11">
      <text style="font: 10px 'DejaVu Sans', 'Bitstream Vera Sans', 'Computer Modern Sans Serif', 'Lucida Grande', 'Verdana', 'Geneva', 'Lucid', 'Arial', 'Helvetica', 'Avant Garde', sans-serif; text-anchor: end" x="67.448" y="250.212019" transform="rotate(-0 67.448 250.212019)">40</text>
     </g>
    </g>
    <g id="ytick_4">
     <g id="line2d_21">
      <path d="M 74.448 195.5232 
L 642.96 195.5232 
" clip-path="url(#p814bd0e42d)" style="fill: none; stroke: #dfe5e8; stroke-width: 0.65; stroke-linecap: square"/>
     </g>
     <g id="line2d_22">
      <g>
       <use xlink:href="#m1f48a2a8de" x="74.448" y="195.5232" style="stroke: #000000; stroke-width: 0.8"/>
      </g>
     </g>
     <g id="text_12">
      <text style="font: 10px 'DejaVu Sans', 'Bitstream Vera Sans', 'Computer Modern Sans Serif', 'Lucida Grande', 'Verdana', 'Geneva', 'Lucid', 'Arial', 'Helvetica', 'Avant Garde', sans-serif; text-anchor: end" x="67.448" y="199.322419" transform="rotate(-0 67.448 199.322419)">60</text>
     </g>
    </g>
    <g id="ytick_5">
     <g id="line2d_23">
      <path d="M 74.448 144.6336 
L 642.96 144.6336 
" clip-path="url(#p814bd0e42d)" style="fill: none; stroke: #dfe5e8; stroke-width: 0.65; stroke-linecap: square"/>
     </g>
     <g id="line2d_24">
      <g>
       <use xlink:href="#m1f48a2a8de" x="74.448" y="144.6336" style="stroke: #000000; stroke-width: 0.8"/>
      </g>
     </g>
     <g id="text_13">
      <text style="font: 10px 'DejaVu Sans', 'Bitstream Vera Sans', 'Computer Modern Sans Serif', 'Lucida Grande', 'Verdana', 'Geneva', 'Lucid', 'Arial', 'Helvetica', 'Avant Garde', sans-serif; text-anchor: end" x="67.448" y="148.432819" transform="rotate(-0 67.448 148.432819)">80</text>
     </g>
    </g>
    <g id="ytick_6">
     <g id="line2d_25">
      <path d="M 74.448 93.744 
L 642.96 93.744 
" clip-path="url(#p814bd0e42d)" style="fill: none; stroke: #dfe5e8; stroke-width: 0.65; stroke-linecap: square"/>
     </g>
     <g id="line2d_26">
      <g>
       <use xlink:href="#m1f48a2a8de" x="74.448" y="93.744" style="stroke: #000000; stroke-width: 0.8"/>
      </g>
     </g>
     <g id="text_14">
      <text style="font: 10px 'DejaVu Sans', 'Bitstream Vera Sans', 'Computer Modern Sans Serif', 'Lucida Grande', 'Verdana', 'Geneva', 'Lucid', 'Arial', 'Helvetica', 'Avant Garde', sans-serif; text-anchor: end" x="67.448" y="97.543219" transform="rotate(-0 67.448 97.543219)">100</text>
     </g>
    </g>
    <g id="text_15">
     <text style="font: 10px 'DejaVu Sans', 'Bitstream Vera Sans', 'Computer Modern Sans Serif', 'Lucida Grande', 'Verdana', 'Geneva', 'Lucid', 'Arial', 'Helvetica', 'Avant Garde', sans-serif; text-anchor: middle" x="42.280812" y="220.968" transform="rotate(-90 42.280812 220.968)">observers%</text>
    </g>
   </g>
   <g id="line2d_27">
    <path d="M 74.448 348.192 
L 146.45952 348.192 
L 148.35456 346.560923 
L 155.93472 346.560923 
L 157.82976 344.367406 
L 167.30496 344.367406 
L 169.2 342.736329 
L 174.88512 342.736329 
L 178.6752 339.474175 
L 180.57024 339.474175 
L 182.46528 337.843098 
L 193.83552 337.843098 
L 195.73056 335.649581 
L 197.6256 335.649581 
L 201.41568 332.387427 
L 203.31072 332.387427 
L 205.20576 330.75635 
L 207.1008 330.75635 
L 208.99584 326.369316 
L 214.68096 326.369316 
L 216.576 324.738239 
L 218.47104 324.738239 
L 220.36608 322.544721 
L 227.94624 322.544721 
L 229.84128 318.720127 
L 231.73632 318.720127 
L 233.63136 314.895533 
L 235.5264 312.702016 
L 237.42144 312.702016 
L 239.31648 311.070939 
L 241.21152 311.070939 
L 243.10656 308.877422 
L 246.89664 308.877422 
L 248.79168 306.683905 
L 250.68672 306.683905 
L 252.58176 305.052828 
L 256.37184 305.052828 
L 258.26688 303.421751 
L 260.16192 299.597156 
L 265.84704 299.597156 
L 267.74208 297.96608 
L 271.53216 297.96608 
L 273.4272 296.335003 
L 281.00736 296.335003 
L 282.9024 294.703926 
L 284.79744 294.703926 
L 286.69248 293.072849 
L 290.48256 293.072849 
L 292.3776 291.441772 
L 294.27264 289.248255 
L 296.16768 289.248255 
L 298.06272 287.054737 
L 299.95776 287.054737 
L 307.53792 280.53043 
L 309.43296 276.143395 
L 311.328 274.512318 
L 313.22304 274.512318 
L 315.11808 272.881241 
L 317.01312 272.881241 
L 320.8032 269.619088 
L 322.69824 269.619088 
L 328.38336 263.038536 
L 339.7536 263.038536 
L 341.64864 259.213942 
L 343.54368 259.213942 
L 345.43872 257.582865 
L 347.33376 253.19583 
L 349.2288 253.19583 
L 351.12384 251.564753 
L 354.91392 251.564753 
L 356.80896 249.933676 
L 358.704 247.740159 
L 360.59904 246.109082 
L 362.49408 246.109082 
L 364.38912 243.915565 
L 368.1792 243.915565 
L 370.07424 242.284488 
L 371.96928 242.284488 
L 373.86432 240.653411 
L 375.75936 236.828817 
L 377.6544 234.6353 
L 379.54944 233.004223 
L 381.44448 230.810706 
L 383.33952 229.179629 
L 385.23456 229.179629 
L 387.1296 226.986111 
L 396.6048 226.986111 
L 398.49984 225.355034 
L 400.39488 223.161517 
L 402.28992 223.161517 
L 404.18496 221.53044 
L 406.08 219.336923 
L 407.97504 219.336923 
L 409.87008 217.143406 
L 411.76512 213.318812 
L 421.24032 213.318812 
L 423.13536 211.687735 
L 425.0304 211.687735 
L 426.92544 210.056658 
L 428.82048 210.056658 
L 430.71552 207.863141 
L 432.61056 207.863141 
L 434.5056 205.669623 
L 436.40064 205.669623 
L 438.29568 204.038546 
L 442.08576 199.651512 
L 443.9808 198.020435 
L 447.77088 193.633401 
L 455.35104 193.633401 
L 457.24608 189.808806 
L 461.03616 186.546653 
L 464.82624 186.546653 
L 466.72128 184.915576 
L 468.61632 181.090981 
L 472.4064 181.090981 
L 474.30144 179.459905 
L 476.19648 176.197751 
L 491.3568 176.197751 
L 493.25184 169.673443 
L 495.14688 167.479926 
L 497.04192 167.479926 
L 498.93696 165.848849 
L 502.72704 165.848849 
L 504.62208 163.655332 
L 506.51712 160.393178 
L 512.20224 160.393178 
L 514.09728 158.19966 
L 517.88736 158.19966 
L 519.7824 154.937507 
L 529.2576 154.937507 
L 531.15264 152.743989 
L 536.83776 152.743989 
L 538.7328 150.550472 
L 540.62784 150.550472 
L 542.52288 148.356955 
L 563.36832 148.356955 
L 565.26336 146.725878 
L 569.05344 142.338844 
L 574.73856 142.338844 
L 576.6336 140.707767 
L 578.52864 138.514249 
L 582.31872 138.514249 
L 584.21376 136.883172 
L 586.1088 134.689655 
L 589.89888 134.689655 
L 591.79392 133.058578 
L 601.26912 133.058578 
L 603.16416 131.427501 
L 612.63936 131.427501 
L 614.5344 129.796424 
L 616.42944 129.796424 
L 618.32448 127.602907 
L 620.21952 125.97183 
L 639.16992 125.97183 
L 642.96 121.584796 
L 642.96 121.584796 
" clip-path="url(#p814bd0e42d)" style="fill: none; stroke: #252525; stroke-width: 2.5; stroke-linecap: square"/>
   </g>
   <g id="line2d_28">
    <path d="M 74.448 348.192 
L 199.52064 348.192 
L 201.41568 345.998483 
L 203.31072 345.998483 
L 205.20576 343.804966 
L 224.15616 343.804966 
L 226.0512 341.611448 
L 237.42144 341.611448 
L 239.31648 339.417931 
L 248.79168 339.417931 
L 250.68672 337.224414 
L 256.37184 337.224414 
L 258.26688 335.030897 
L 262.05696 335.030897 
L 263.952 332.837379 
L 265.84704 332.837379 
L 267.74208 330.643862 
L 284.79744 330.643862 
L 286.69248 328.450345 
L 290.48256 328.450345 
L 292.3776 324.06331 
L 294.27264 324.06331 
L 296.16768 321.869793 
L 298.06272 318.045199 
L 305.64288 318.045199 
L 307.53792 315.851682 
L 309.43296 315.851682 
L 311.328 313.658164 
L 313.22304 309.27113 
L 317.01312 309.27113 
L 318.90816 304.884095 
L 322.69824 300.497061 
L 324.59328 300.497061 
L 326.48832 298.865984 
L 328.38336 294.47895 
L 330.2784 294.47895 
L 332.17344 292.285432 
L 334.06848 292.285432 
L 335.96352 290.091915 
L 337.85856 290.091915 
L 339.7536 287.898398 
L 349.2288 287.898398 
L 351.12384 283.511363 
L 353.01888 281.317846 
L 354.91392 281.317846 
L 356.80896 277.493252 
L 358.704 275.299735 
L 360.59904 275.299735 
L 364.38912 270.9127 
L 366.28416 270.9127 
L 371.96928 264.332149 
L 373.86432 264.332149 
L 375.75936 262.138631 
L 377.6544 262.138631 
L 381.44448 257.751597 
L 383.33952 257.751597 
L 385.23456 256.12052 
L 387.1296 256.12052 
L 389.02464 251.733485 
L 394.70976 251.733485 
L 396.6048 250.102408 
L 402.28992 250.102408 
L 404.18496 247.908891 
L 415.5552 247.908891 
L 417.45024 245.715374 
L 419.34528 245.715374 
L 421.24032 244.084297 
L 445.87584 244.084297 
L 447.77088 241.89078 
L 449.66592 241.89078 
L 451.56096 239.697263 
L 461.03616 239.697263 
L 462.9312 238.066186 
L 491.3568 238.066186 
L 493.25184 235.872668 
L 495.14688 232.048074 
L 500.832 232.048074 
L 502.72704 229.854557 
L 504.62208 228.22348 
L 506.51712 226.029963 
L 510.3072 226.029963 
L 512.20224 223.836446 
L 531.15264 223.836446 
L 533.04768 222.205369 
L 538.7328 222.205369 
L 540.62784 220.011851 
L 542.52288 220.011851 
L 544.41792 218.380775 
L 555.78816 218.380775 
L 557.6832 215.118621 
L 563.36832 215.118621 
L 565.26336 213.487544 
L 570.94848 213.487544 
L 572.84352 210.22539 
L 578.52864 210.22539 
L 582.31872 206.963236 
L 584.21376 204.769719 
L 610.74432 204.769719 
L 612.63936 203.138642 
L 614.5344 203.138642 
L 616.42944 201.507565 
L 625.90464 201.507565 
L 627.79968 199.314048 
L 642.96 199.314048 
L 642.96 199.314048 
" clip-path="url(#p814bd0e42d)" style="fill: none; stroke: #3b83b4; stroke-width: 1.35; stroke-linecap: square"/>
   </g>
   <g id="line2d_29">
    <path d="M 74.448 348.192 
L 136.98432 348.192 
L 138.87936 346.560923 
L 144.56448 346.560923 
L 146.45952 344.929846 
L 154.03968 344.929846 
L 155.93472 343.298769 
L 171.09504 343.298769 
L 172.99008 341.667692 
L 186.25536 341.667692 
L 188.1504 340.036615 
L 190.04544 340.036615 
L 193.83552 336.774462 
L 197.6256 336.774462 
L 199.52064 335.143385 
L 203.31072 335.143385 
L 205.20576 333.512308 
L 212.78592 333.512308 
L 214.68096 331.881231 
L 222.26112 331.881231 
L 224.15616 330.250154 
L 229.84128 330.250154 
L 231.73632 328.619077 
L 233.63136 328.619077 
L 235.5264 326.988 
L 239.31648 326.988 
L 241.21152 325.356923 
L 245.0016 325.356923 
L 246.89664 321.532329 
L 260.16192 321.532329 
L 263.952 318.270175 
L 265.84704 313.376944 
L 267.74208 311.745867 
L 275.32224 311.745867 
L 277.21728 309.55235 
L 279.11232 309.55235 
L 281.00736 307.358833 
L 282.9024 305.727756 
L 292.3776 305.727756 
L 298.06272 300.834525 
L 299.95776 300.834525 
L 301.8528 299.203448 
L 303.74784 299.203448 
L 305.64288 295.941294 
L 309.43296 292.679141 
L 311.328 289.416987 
L 313.22304 285.592393 
L 315.11808 280.136721 
L 318.90816 273.612414 
L 320.8032 271.418897 
L 322.69824 271.418897 
L 324.59328 269.78782 
L 328.38336 269.78782 
L 330.2784 268.156743 
L 334.06848 268.156743 
L 335.96352 264.332149 
L 337.85856 262.701072 
L 339.7536 259.438918 
L 347.33376 259.438918 
L 349.2288 254.545687 
L 351.12384 252.91461 
L 353.01888 250.721093 
L 354.91392 249.090016 
L 358.704 249.090016 
L 360.59904 247.458939 
L 362.49408 247.458939 
L 364.38912 245.265422 
L 368.1792 242.003268 
L 370.07424 238.178674 
L 375.75936 238.178674 
L 377.6544 236.547597 
L 379.54944 234.35408 
L 381.44448 232.723003 
L 387.1296 232.723003 
L 389.02464 231.091926 
L 390.91968 226.704891 
L 396.6048 226.704891 
L 398.49984 224.511374 
L 404.18496 224.511374 
L 407.97504 221.24922 
L 413.66016 221.24922 
L 417.45024 216.862186 
L 419.34528 215.231109 
L 425.0304 215.231109 
L 426.92544 213.600032 
L 440.19072 213.600032 
L 443.9808 209.212997 
L 449.66592 209.212997 
L 451.56096 205.388403 
L 455.35104 205.388403 
L 457.24608 203.757326 
L 464.82624 203.757326 
L 466.72128 202.126249 
L 470.51136 202.126249 
L 472.4064 200.495172 
L 485.67168 200.495172 
L 487.56672 198.301655 
L 491.3568 198.301655 
L 493.25184 196.670578 
L 495.14688 194.477061 
L 497.04192 192.845984 
L 502.72704 192.845984 
L 504.62208 191.214907 
L 506.51712 191.214907 
L 508.41216 189.58383 
L 512.20224 189.58383 
L 514.09728 185.196796 
L 519.7824 185.196796 
L 523.57248 180.809761 
L 531.15264 180.809761 
L 533.04768 179.178684 
L 534.94272 176.985167 
L 536.83776 176.985167 
L 538.7328 174.79165 
L 546.31296 174.79165 
L 548.208 173.160573 
L 551.99808 173.160573 
L 553.89312 170.967056 
L 557.6832 170.967056 
L 559.57824 166.580021 
L 565.26336 166.580021 
L 567.1584 164.386504 
L 569.05344 164.386504 
L 570.94848 162.755427 
L 580.42368 162.755427 
L 584.21376 159.493273 
L 586.1088 159.493273 
L 588.00384 157.299756 
L 589.89888 157.299756 
L 591.79392 155.106239 
L 599.37408 155.106239 
L 601.26912 153.475162 
L 606.95424 153.475162 
L 608.84928 151.281645 
L 610.74432 151.281645 
L 614.5344 142.507576 
L 625.90464 142.507576 
L 627.79968 140.314058 
L 642.96 140.314058 
L 642.96 140.314058 
" clip-path="url(#p814bd0e42d)" style="fill: none; stroke-dasharray: 4.995,2.16; stroke-dashoffset: 0; stroke: #c38a19; stroke-width: 1.35"/>
   </g>
   <g id="line2d_30">
    <path d="M 74.448 348.192 
L 138.87936 348.192 
L 140.7744 346.560923 
L 155.93472 346.560923 
L 157.82976 344.929846 
L 159.7248 344.929846 
L 161.61984 343.298769 
L 214.68096 343.298769 
L 216.576 341.667692 
L 243.10656 341.667692 
L 245.0016 340.036615 
L 252.58176 340.036615 
L 254.4768 338.405538 
L 256.37184 335.143385 
L 258.26688 331.31879 
L 260.16192 331.31879 
L 262.05696 329.687714 
L 263.952 329.687714 
L 265.84704 328.056637 
L 269.63712 328.056637 
L 273.4272 323.669602 
L 282.9024 323.669602 
L 286.69248 320.407448 
L 290.48256 320.407448 
L 292.3776 318.776371 
L 294.27264 314.951777 
L 296.16768 314.951777 
L 298.06272 309.496106 
L 299.95776 309.496106 
L 301.8528 307.302589 
L 309.43296 307.302589 
L 311.328 305.109072 
L 313.22304 305.109072 
L 315.11808 300.215841 
L 318.90816 300.215841 
L 320.8032 298.584764 
L 322.69824 294.76017 
L 324.59328 293.129093 
L 330.2784 293.129093 
L 332.17344 291.498016 
L 334.06848 291.498016 
L 335.96352 286.042345 
L 337.85856 286.042345 
L 339.7536 284.411268 
L 356.80896 284.411268 
L 358.704 282.780191 
L 362.49408 282.780191 
L 364.38912 278.393156 
L 366.28416 274.568562 
L 370.07424 274.568562 
L 371.96928 272.937485 
L 375.75936 272.937485 
L 377.6544 270.743968 
L 379.54944 267.481814 
L 381.44448 265.850737 
L 383.33952 262.026143 
L 387.1296 262.026143 
L 389.02464 258.201549 
L 390.91968 258.201549 
L 396.6048 253.308318 
L 398.49984 253.308318 
L 400.39488 251.677241 
L 404.18496 245.152934 
L 411.76512 245.152934 
L 413.66016 240.259703 
L 417.45024 240.259703 
L 419.34528 236.435109 
L 423.13536 236.435109 
L 425.0304 234.241592 
L 426.92544 234.241592 
L 430.71552 230.979438 
L 434.5056 230.979438 
L 436.40064 227.717284 
L 438.29568 223.89269 
L 440.19072 223.89269 
L 442.08576 221.699172 
L 443.9808 221.699172 
L 445.87584 220.068095 
L 447.77088 216.243501 
L 449.66592 214.049984 
L 451.56096 210.78783 
L 455.35104 210.78783 
L 461.03616 205.894599 
L 464.82624 205.894599 
L 466.72128 204.263523 
L 479.98656 204.263523 
L 481.8816 202.632446 
L 485.67168 198.245411 
L 491.3568 198.245411 
L 493.25184 196.614334 
L 498.93696 196.614334 
L 500.832 194.983257 
L 508.41216 194.983257 
L 510.3072 192.78974 
L 512.20224 191.158663 
L 515.99232 182.384594 
L 517.88736 180.191077 
L 519.7824 176.366483 
L 521.67744 174.172966 
L 534.94272 174.172966 
L 536.83776 171.979448 
L 542.52288 171.979448 
L 544.41792 170.348371 
L 548.208 170.348371 
L 550.10304 168.154854 
L 561.47328 168.154854 
L 563.36832 165.961337 
L 569.05344 165.961337 
L 570.94848 163.76782 
L 572.84352 162.136743 
L 576.6336 157.749708 
L 584.21376 157.749708 
L 588.00384 154.487554 
L 589.89888 154.487554 
L 591.79392 152.856477 
L 593.68896 150.66296 
L 595.584 150.66296 
L 597.47904 148.469443 
L 599.37408 146.838366 
L 603.16416 146.838366 
L 605.0592 144.644849 
L 627.79968 144.644849 
L 629.69472 142.451332 
L 637.27488 142.451332 
L 641.06496 138.064297 
L 642.96 138.064297 
L 642.96 138.064297 
" clip-path="url(#p814bd0e42d)" style="fill: none; stroke-dasharray: 1.35,2.2275; stroke-dashoffset: 0; stroke: #7d8a92; stroke-width: 1.35"/>
   </g>
   <g id="line2d_31">
    <path d="M 74.448 348.192 
L 263.952 348.192 
L 265.84704 345.998483 
L 375.75936 345.998483 
L 377.6544 343.804966 
L 390.91968 343.804966 
L 392.81472 342.173889 
L 428.82048 342.173889 
L 430.71552 339.980371 
L 447.77088 339.980371 
L 449.66592 337.786854 
L 455.35104 337.786854 
L 457.24608 335.593337 
L 466.72128 335.593337 
L 468.61632 333.39982 
L 491.3568 333.39982 
L 493.25184 331.206302 
L 515.99232 331.206302 
L 517.88736 329.575225 
L 519.7824 325.750631 
L 529.2576 325.750631 
L 531.15264 323.557114 
L 533.04768 323.557114 
L 534.94272 321.363597 
L 542.52288 321.363597 
L 544.41792 319.17008 
L 548.208 319.17008 
L 550.10304 314.783045 
L 551.99808 312.589528 
L 555.78816 312.589528 
L 559.57824 308.202493 
L 561.47328 304.377899 
L 563.36832 302.746822 
L 567.1584 302.746822 
L 569.05344 298.359788 
L 570.94848 298.359788 
L 572.84352 296.728711 
L 574.73856 294.535194 
L 576.6336 294.535194 
L 578.52864 292.341676 
L 582.31872 292.341676 
L 584.21376 290.148159 
L 589.89888 290.148159 
L 595.584 283.567607 
L 612.63936 283.567607 
L 614.5344 281.37409 
L 622.11456 281.37409 
L 624.0096 279.180573 
L 627.79968 279.180573 
L 629.69472 274.793538 
L 631.58976 274.793538 
L 633.4848 272.600021 
L 635.37984 266.019469 
L 637.27488 263.825952 
L 639.16992 263.825952 
L 642.96 259.438918 
L 642.96 259.438918 
" clip-path="url(#p814bd0e42d)" style="fill: none; stroke-dasharray: 8.64,2.16,1.35,2.16; stroke-dashoffset: 0; stroke: #d0526a; stroke-width: 1.35"/>
   </g>
   <g id="line2d_32">
    <path d="M 74.448 348.192 
L 201.41568 348.192 
L 203.31072 345.998483 
L 214.68096 345.998483 
L 216.576 343.804966 
L 258.26688 343.804966 
L 262.05696 339.417931 
L 265.84704 339.417931 
L 267.74208 337.224414 
L 275.32224 337.224414 
L 277.21728 335.030897 
L 281.00736 335.030897 
L 282.9024 332.837379 
L 284.79744 332.837379 
L 286.69248 330.643862 
L 290.48256 330.643862 
L 292.3776 328.450345 
L 294.27264 328.450345 
L 296.16768 326.256828 
L 301.8528 326.256828 
L 303.74784 321.869793 
L 305.64288 321.869793 
L 311.328 315.289241 
L 313.22304 315.289241 
L 322.69824 304.321655 
L 330.2784 304.321655 
L 332.17344 302.128138 
L 334.06848 302.128138 
L 335.96352 299.934621 
L 337.85856 299.934621 
L 339.7536 297.741103 
L 341.64864 297.741103 
L 345.43872 293.354069 
L 347.33376 293.354069 
L 349.2288 291.722992 
L 351.12384 291.722992 
L 353.01888 289.529475 
L 354.91392 289.529475 
L 356.80896 285.704881 
L 358.704 285.704881 
L 360.59904 283.511363 
L 362.49408 283.511363 
L 364.38912 279.686769 
L 368.1792 279.686769 
L 370.07424 277.493252 
L 371.96928 277.493252 
L 375.75936 273.106218 
L 377.6544 268.719183 
L 379.54944 266.525666 
L 381.44448 266.525666 
L 383.33952 264.894589 
L 385.23456 262.701072 
L 387.1296 262.701072 
L 389.02464 260.507554 
L 390.91968 260.507554 
L 392.81472 258.876477 
L 400.39488 258.876477 
L 402.28992 256.68296 
L 404.18496 256.68296 
L 406.08 254.489443 
L 407.97504 250.102408 
L 411.76512 250.102408 
L 413.66016 248.471332 
L 421.24032 248.471332 
L 425.0304 244.084297 
L 447.77088 244.084297 
L 449.66592 241.89078 
L 455.35104 241.89078 
L 457.24608 240.259703 
L 462.9312 240.259703 
L 464.82624 238.066186 
L 479.98656 238.066186 
L 481.8816 235.872668 
L 483.77664 232.048074 
L 498.93696 232.048074 
L 500.832 229.854557 
L 502.72704 228.22348 
L 504.62208 226.029963 
L 506.51712 224.398886 
L 510.3072 224.398886 
L 512.20224 222.205369 
L 517.88736 222.205369 
L 519.7824 220.574292 
L 523.57248 220.574292 
L 525.46752 218.380775 
L 529.2576 215.118621 
L 538.7328 215.118621 
L 540.62784 212.925103 
L 544.41792 212.925103 
L 546.31296 209.66295 
L 550.10304 209.66295 
L 551.99808 208.031873 
L 555.78816 208.031873 
L 557.6832 204.769719 
L 584.21376 204.769719 
L 586.1088 203.138642 
L 588.00384 203.138642 
L 589.89888 201.507565 
L 597.47904 201.507565 
L 599.37408 199.314048 
L 616.42944 199.314048 
L 618.32448 197.682971 
L 620.21952 197.682971 
L 622.11456 196.051894 
L 624.0096 192.2273 
L 631.58976 192.2273 
L 633.4848 190.033782 
L 637.27488 190.033782 
L 641.06496 186.771629 
L 642.96 186.771629 
L 642.96 186.771629 
" clip-path="url(#p814bd0e42d)" style="fill: none; stroke-dasharray: 6.75,2.7,1.35,2.7; stroke-dashoffset: 0; stroke: #2f8f84; stroke-width: 1.35"/>
   </g>
   <g id="patch_4">
    <path d="M 74.448 348.192 
L 74.448 93.744 
" style="fill: none; stroke: #000000; stroke-width: 0.8; stroke-linejoin: miter; stroke-linecap: square"/>
   </g>
   <g id="patch_5">
    <path d="M 74.448 348.192 
L 642.96 348.192 
" style="fill: none; stroke: #000000; stroke-width: 0.8; stroke-linejoin: miter; stroke-linecap: square"/>
   </g>
  </g>
  <g id="text_16">
   <text style="font: 18px 'DejaVu Sans', 'Bitstream Vera Sans', 'Computer Modern Sans Serif', 'Lucida Grande', 'Verdana', 'Geneva', 'Lucid', 'Arial', 'Helvetica', 'Avant Garde', sans-serif; text-anchor: start" x="74.448" y="38.229188" transform="rotate(-0 74.448 38.229188)">LED-BH1 Direct</text>
  </g>
  <g id="text_17">
   <text style="fill: #66747c; font: 10px 'DejaVu Sans', 'Bitstream Vera Sans', 'Computer Modern Sans Serif', 'Lucida Grande', 'Verdana', 'Geneva', 'Lucid', 'Arial', 'Helvetica', 'Avant Garde', sans-serif; text-anchor: start" x="74.448" y="64.728" transform="rotate(-0 74.448 64.728)">All devices</text>
  </g>
  <g id="legend_1">
   <g id="line2d_33">
    <path d="M 185.17875 404.151391 
L 194.27875 404.151391 
L 203.37875 404.151391 
" style="fill: none; stroke: #252525; stroke-width: 2.5; stroke-linecap: square"/>
   </g>
   <g id="text_18">
    <text style="font: 9.1px 'DejaVu Sans', 'Bitstream Vera Sans', 'Computer Modern Sans Serif', 'Lucida Grande', 'Verdana', 'Geneva', 'Lucid', 'Arial', 'Helvetica', 'Avant Garde', sans-serif; text-anchor: start" x="210.65875" y="407.336391" transform="rotate(-0 210.65875 407.336391)">Potera CMF</text>
   </g>
   <g id="line2d_34">
    <path d="M 185.17875 417.508484 
L 194.27875 417.508484 
L 203.37875 417.508484 
" style="fill: none; stroke: #3b83b4; stroke-width: 1.35; stroke-linecap: square"/>
   </g>
   <g id="text_19">
    <text style="font: 9.1px 'DejaVu Sans', 'Bitstream Vera Sans', 'Computer Modern Sans Serif', 'Lucida Grande', 'Verdana', 'Geneva', 'Lucid', 'Arial', 'Helvetica', 'Avant Garde', sans-serif; text-anchor: start" x="210.65875" y="420.693484" transform="rotate(-0 210.65875 420.693484)">CIE 2015 2°</text>
   </g>
   <g id="line2d_35">
    <path d="M 282.931234 404.151391 
L 292.031234 404.151391 
L 301.131234 404.151391 
" style="fill: none; stroke-dasharray: 4.995,2.16; stroke-dashoffset: 0; stroke: #c38a19; stroke-width: 1.35"/>
   </g>
   <g id="text_20">
    <text style="font: 9.1px 'DejaVu Sans', 'Bitstream Vera Sans', 'Computer Modern Sans Serif', 'Lucida Grande', 'Verdana', 'Geneva', 'Lucid', 'Arial', 'Helvetica', 'Avant Garde', sans-serif; text-anchor: start" x="308.411234" y="407.336391" transform="rotate(-0 308.411234 407.336391)">CIE 2015 10°</text>
   </g>
   <g id="line2d_36">
    <path d="M 282.931234 417.508484 
L 292.031234 417.508484 
L 301.131234 417.508484 
" style="fill: none; stroke-dasharray: 1.35,2.2275; stroke-dashoffset: 0; stroke: #7d8a92; stroke-width: 1.35"/>
   </g>
   <g id="text_21">
    <text style="font: 9.1px 'DejaVu Sans', 'Bitstream Vera Sans', 'Computer Modern Sans Serif', 'Lucida Grande', 'Verdana', 'Geneva', 'Lucid', 'Arial', 'Helvetica', 'Avant Garde', sans-serif; text-anchor: start" x="308.411234" y="420.693484" transform="rotate(-0 308.411234 420.693484)">CIE 1964 10°</text>
   </g>
   <g id="line2d_37">
    <path d="M 386.473594 404.151391 
L 395.573594 404.151391 
L 404.673594 404.151391 
" style="fill: none; stroke-dasharray: 8.64,2.16,1.35,2.16; stroke-dashoffset: 0; stroke: #d0526a; stroke-width: 1.35"/>
   </g>
   <g id="text_22">
    <text style="font: 9.1px 'DejaVu Sans', 'Bitstream Vera Sans', 'Computer Modern Sans Serif', 'Lucida Grande', 'Verdana', 'Geneva', 'Lucid', 'Arial', 'Helvetica', 'Avant Garde', sans-serif; text-anchor: start" x="411.953594" y="407.336391" transform="rotate(-0 411.953594 407.336391)">CIE 1931 2°</text>
   </g>
   <g id="line2d_38">
    <path d="M 386.473594 417.508484 
L 395.573594 417.508484 
L 404.673594 417.508484 
" style="fill: none; stroke-dasharray: 6.75,2.7,1.35,2.7; stroke-dashoffset: 0; stroke: #2f8f84; stroke-width: 1.35"/>
   </g>
   <g id="text_23">
    <text style="font: 9.1px 'DejaVu Sans', 'Bitstream Vera Sans', 'Computer Modern Sans Serif', 'Lucida Grande', 'Verdana', 'Geneva', 'Lucid', 'Arial', 'Helvetica', 'Avant Garde', sans-serif; text-anchor: start" x="411.953594" y="420.693484" transform="rotate(-0 411.953594 420.693484)">Judd–Vos 1978 2°</text>
   </g>
  </g>
 </g>
 <defs>
  <clipPath id="p814bd0e42d">
   <rect x="74.448" y="93.744" width="568.512" height="254.448"/>
  </clipPath>
 </defs>
</svg>
