<?xml version="1.0" encoding="utf-8" standalone="no"?>
<!DOCTYPE svg PUBLIC "-//W3C//DTD SVG 1.1//EN"
  "http://www.w3.org/Graphics/SVG/1.1/DTD/svg11.dtd">
<svg xmlns:xlink="http://www.w3.org/1999/xlink" width="676.8pt" height="446.4pt" viewBox="0 0 676.8 446.4" xmlns="http://www.w3.org/2000/svg" version="1.1">
 <metadata>
  <rdf:RDF xmlns:dc="http://purl.org/dc/elements/1.1/" xmlns:cc="http://creativecommons.org/ns#" xmlns:rdf="http://www.w3.org/1999/02/22-rdf-syntax-ns#">
   <cc:Work>
    <dc:type rdf:resource="http://purl.org/dc/dcmitype/StillImage"/>
    <dc:date>2026-07-20T06:41:57.415083</dc:date>
    <dc:format>image/svg+xml</dc:format>
    <dc:creator>
     <cc:Agent>
      <dc:title>Matplotlib v3.9.4, https://matplotlib.org/</dc:title>
     </cc:Agent>
    </dc:creator>
   </cc:Work>
  </rdf:RDF>
 </metadata>
 <defs>
  <style type="text/css">*{stroke-linejoin: round; stroke-linecap: butt}</style>
 </defs>
 <g id="figure_1">
  <g id="patch_1">
   <path d="M 0 446.4 
L 676.8 446.4 
L 676.8 0 
L 0 0 
z
" style="fill: #ffffff"/>
  </g>
  <g id="axes_1">
   <g id="patch_2">
    <path d="M 74.448 348.192 
L 642.96 348.192 
L 642.96 93.744 
L 74.448 93.744 
z
" style="fill: #ffffff"/>
   </g>
   <g id="patch_3">
    <path d="M 169.2 348.192 
L 358.704 348.192 
L 358.704 93.744 
L 169.2 93.744 
z
" clip-path="url(#p4ef3e7d169)" style="fill: #e7f0ea; opacity: 0.58; stroke: #e7f0ea; stroke-linejoin: miter"/>
   </g>
   <g id="matplotlib.axis_1">
    <g id="xtick_1">
     <g id="line2d_1">
      <path d="M 74.448 348.192 
L 74.448 93.744 
" clip-path="url(#p4ef3e7d169)" style="fill: none; stroke: #dfe5e8; stroke-width: 0.65; stroke-linecap: square"/>
     </g>
     <g id="line2d_2">
      <defs>
       <path id="m2b5c5829ea" d="M 0 0 
L 0 3.5 
" style="stroke: #000000; stroke-width: 0.8"/>
      </defs>
      <g>
       <use xlink:href="#m2b5c5829ea" x="74.448" y="348.192" style="stroke: #000000; stroke-width: 0.8"/>
      </g>
     </g>
     <g id="text_1">
      <text style="font: 10px 'DejaVu Sans', 'Bitstream Vera Sans', 'Computer Modern Sans Serif', 'Lucida Grande', 'Verdana', 'Geneva', 'Lucid', 'Arial', 'Helvetica', 'Avant Garde', sans-serif; text-anchor: middle" x="74.448" y="362.790438" transform="rotate(-0 74.448 362.790438)">0</text>
     </g>
    </g>
    <g id="xtick_2">
     <g id="line2d_3">
      <path d="M 169.2 348.192 
L 169.2 93.744 
" clip-path="url(#p4ef3e7d169)" style="fill: none; stroke: #dfe5e8; stroke-width: 0.65; stroke-linecap: square"/>
     </g>
     <g id="line2d_4">
      <g>
       <use xlink:href="#m2b5c5829ea" x="169.2" y="348.192" style="stroke: #000000; stroke-width: 0.8"/>
      </g>
     </g>
     <g id="text_2">
      <text style="font: 10px 'DejaVu Sans', 'Bitstream Vera Sans', 'Computer Modern Sans Serif', 'Lucida Grande', 'Verdana', 'Geneva', 'Lucid', 'Arial', 'Helvetica', 'Avant Garde', sans-serif; text-anchor: middle" x="169.2" y="362.790438" transform="rotate(-0 169.2 362.790438)">1</text>
     </g>
    </g>
    <g id="xtick_3">
     <g id="line2d_5">
      <path d="M 263.952 348.192 
L 263.952 93.744 
" clip-path="url(#p4ef3e7d169)" style="fill: none; stroke: #dfe5e8; stroke-width: 0.65; stroke-linecap: square"/>
     </g>
     <g id="line2d_6">
      <g>
       <use xlink:href="#m2b5c5829ea" x="263.952" y="348.192" style="stroke: #000000; stroke-width: 0.8"/>
      </g>
     </g>
     <g id="text_3">
      <text style="font: 10px 'DejaVu Sans', 'Bitstream Vera Sans', 'Computer Modern Sans Serif', 'Lucida Grande', 'Verdana', 'Geneva', 'Lucid', 'Arial', 'Helvetica', 'Avant Garde', sans-serif; text-anchor: middle" x="263.952" y="362.790438" transform="rotate(-0 263.952 362.790438)">2</text>
     </g>
    </g>
    <g id="xtick_4">
     <g id="line2d_7">
      <path d="M 358.704 348.192 
L 358.704 93.744 
" clip-path="url(#p4ef3e7d169)" style="fill: none; stroke: #dfe5e8; stroke-width: 0.65; stroke-linecap: square"/>
     </g>
     <g id="line2d_8">
      <g>
       <use xlink:href="#m2b5c5829ea" x="358.704" y="348.192" style="stroke: #000000; stroke-width: 0.8"/>
      </g>
     </g>
     <g id="text_4">
      <text style="font: 10px 'DejaVu Sans', 'Bitstream Vera Sans', 'Computer Modern Sans Serif', 'Lucida Grande', 'Verdana', 'Geneva', 'Lucid', 'Arial', 'Helvetica', 'Avant Garde', sans-serif; text-anchor: middle" x="358.704" y="362.790438" transform="rotate(-0 358.704 362.790438)">3</text>
     </g>
    </g>
    <g id="xtick_5">
     <g id="line2d_9">
      <path d="M 453.456 348.192 
L 453.456 93.744 
" clip-path="url(#p4ef3e7d169)" style="fill: none; stroke: #dfe5e8; stroke-width: 0.65; stroke-linecap: square"/>
     </g>
     <g id="line2d_10">
      <g>
       <use xlink:href="#m2b5c5829ea" x="453.456" y="348.192" style="stroke: #000000; stroke-width: 0.8"/>
      </g>
     </g>
     <g id="text_5">
      <text style="font: 10px 'DejaVu Sans', 'Bitstream Vera Sans', 'Computer Modern Sans Serif', 'Lucida Grande', 'Verdana', 'Geneva', 'Lucid', 'Arial', 'Helvetica', 'Avant Garde', sans-serif; text-anchor: middle" x="453.456" y="362.790438" transform="rotate(-0 453.456 362.790438)">4</text>
     </g>
    </g>
    <g id="xtick_6">
     <g id="line2d_11">
      <path d="M 548.208 348.192 
L 548.208 93.744 
" clip-path="url(#p4ef3e7d169)" style="fill: none; stroke: #dfe5e8; stroke-width: 0.65; stroke-linecap: square"/>
     </g>
     <g id="line2d_12">
      <g>
       <use xlink:href="#m2b5c5829ea" x="548.208" y="348.192" style="stroke: #000000; stroke-width: 0.8"/>
      </g>
     </g>
     <g id="text_6">
      <text style="font: 10px 'DejaVu Sans', 'Bitstream Vera Sans', 'Computer Modern Sans Serif', 'Lucida Grande', 'Verdana', 'Geneva', 'Lucid', 'Arial', 'Helvetica', 'Avant Garde', sans-serif; text-anchor: middle" x="548.208" y="362.790438" transform="rotate(-0 548.208 362.790438)">5</text>
     </g>
    </g>
    <g id="xtick_7">
     <g id="line2d_13">
      <path d="M 642.96 348.192 
L 642.96 93.744 
" clip-path="url(#p4ef3e7d169)" style="fill: none; stroke: #dfe5e8; stroke-width: 0.65; stroke-linecap: square"/>
     </g>
     <g id="line2d_14">
      <g>
       <use xlink:href="#m2b5c5829ea" x="642.96" y="348.192" style="stroke: #000000; stroke-width: 0.8"/>
      </g>
     </g>
     <g id="text_7">
      <text style="font: 10px 'DejaVu Sans', 'Bitstream Vera Sans', 'Computer Modern Sans Serif', 'Lucida Grande', 'Verdana', 'Geneva', 'Lucid', 'Arial', 'Helvetica', 'Avant Garde', sans-serif; text-anchor: middle" x="642.96" y="362.790438" transform="rotate(-0 642.96 362.790438)">6</text>
     </g>
    </g>
    <g id="text_8">
     <text style="font: 10px 'DejaVu Sans', 'Bitstream Vera Sans', 'Computer Modern Sans Serif', 'Lucida Grande', 'Verdana', 'Geneva', 'Lucid', 'Arial', 'Helvetica', 'Avant Garde', sans-serif; text-anchor: middle" x="358.704" y="376.468563" transform="rotate(-0 358.704 376.468563)">sUCS dE threshold</text>
    </g>
   </g>
   <g id="matplotlib.axis_2">
    <g id="ytick_1">
     <g id="line2d_15">
      <path d="M 74.448 348.192 
L 642.96 348.192 
" clip-path="url(#p4ef3e7d169)" style="fill: none; stroke: #dfe5e8; stroke-width: 0.65; stroke-linecap: square"/>
     </g>
     <g id="line2d_16">
      <defs>
       <path id="mc71ae288e7" d="M 0 0 
L -3.5 0 
" style="stroke: #000000; stroke-width: 0.8"/>
      </defs>
      <g>
       <use xlink:href="#mc71ae288e7" x="74.448" y="348.192" style="stroke: #000000; stroke-width: 0.8"/>
      </g>
     </g>
     <g id="text_9">
      <text style="font: 10px 'DejaVu Sans', 'Bitstream Vera Sans', 'Computer Modern Sans Serif', 'Lucida Grande', 'Verdana', 'Geneva', 'Lucid', 'Arial', 'Helvetica', 'Avant Garde', sans-serif; text-anchor: end" x="67.448" y="351.991219" transform="rotate(-0 67.448 351.991219)">0</text>
     </g>
    </g>
    <g id="ytick_2">
     <g id="line2d_17">
      <path d="M 74.448 297.3024 
L 642.96 297.3024 
" clip-path="url(#p4ef3e7d169)" style="fill: none; stroke: #dfe5e8; stroke-width: 0.65; stroke-linecap: square"/>
     </g>
     <g id="line2d_18">
      <g>
       <use xlink:href="#mc71ae288e7" x="74.448" y="297.3024" style="stroke: #000000; stroke-width: 0.8"/>
      </g>
     </g>
     <g id="text_10">
      <text style="font: 10px 'DejaVu Sans', 'Bitstream Vera Sans', 'Computer Modern Sans Serif', 'Lucida Grande', 'Verdana', 'Geneva', 'Lucid', 'Arial', 'Helvetica', 'Avant Garde', sans-serif; text-anchor: end" x="67.448" y="301.101619" transform="rotate(-0 67.448 301.101619)">20</text>
     </g>
    </g>
    <g id="ytick_3">
     <g id="line2d_19">
      <path d="M 74.448 246.4128 
L 642.96 246.4128 
" clip-path="url(#p4ef3e7d169)" style="fill: none; stroke: #dfe5e8; stroke-width: 0.65; stroke-linecap: square"/>
     </g>
     <g id="line2d_20">
      <g>
       <use xlink:href="#mc71ae288e7" x="74.448" y="246.4128" style="stroke: #000000; stroke-width: 0.8"/>
      </g>
     </g>
     <g id="text_11">
      <text style="font: 10px 'DejaVu Sans', 'Bitstream Vera Sans', 'Computer Modern Sans Serif', 'Lucida Grande', 'Verdana', 'Geneva', 'Lucid', 'Arial', 'Helvetica', 'Avant Garde', sans-serif; text-anchor: end" x="67.448" y="250.212019" transform="rotate(-0 67.448 250.212019)">40</text>
     </g>
    </g>
    <g id="ytick_4">
     <g id="line2d_21">
      <path d="M 74.448 195.5232 
L 642.96 195.5232 
" clip-path="url(#p4ef3e7d169)" style="fill: none; stroke: #dfe5e8; stroke-width: 0.65; stroke-linecap: square"/>
     </g>
     <g id="line2d_22">
      <g>
       <use xlink:href="#mc71ae288e7" x="74.448" y="195.5232" style="stroke: #000000; stroke-width: 0.8"/>
      </g>
     </g>
     <g id="text_12">
      <text style="font: 10px 'DejaVu Sans', 'Bitstream Vera Sans', 'Computer Modern Sans Serif', 'Lucida Grande', 'Verdana', 'Geneva', 'Lucid', 'Arial', 'Helvetica', 'Avant Garde', sans-serif; text-anchor: end" x="67.448" y="199.322419" transform="rotate(-0 67.448 199.322419)">60</text>
     </g>
    </g>
    <g id="ytick_5">
     <g id="line2d_23">
      <path d="M 74.448 144.6336 
L 642.96 144.6336 
" clip-path="url(#p4ef3e7d169)" style="fill: none; stroke: #dfe5e8; stroke-width: 0.65; stroke-linecap: square"/>
     </g>
     <g id="line2d_24">
      <g>
       <use xlink:href="#mc71ae288e7" x="74.448" y="144.6336" style="stroke: #000000; stroke-width: 0.8"/>
      </g>
     </g>
     <g id="text_13">
      <text style="font: 10px 'DejaVu Sans', 'Bitstream Vera Sans', 'Computer Modern Sans Serif', 'Lucida Grande', 'Verdana', 'Geneva', 'Lucid', 'Arial', 'Helvetica', 'Avant Garde', sans-serif; text-anchor: end" x="67.448" y="148.432819" transform="rotate(-0 67.448 148.432819)">80</text>
     </g>
    </g>
    <g id="ytick_6">
     <g id="line2d_25">
      <path d="M 74.448 93.744 
L 642.96 93.744 
" clip-path="url(#p4ef3e7d169)" style="fill: none; stroke: #dfe5e8; stroke-width: 0.65; stroke-linecap: square"/>
     </g>
     <g id="line2d_26">
      <g>
       <use xlink:href="#mc71ae288e7" x="74.448" y="93.744" style="stroke: #000000; stroke-width: 0.8"/>
      </g>
     </g>
     <g id="text_14">
      <text style="font: 10px 'DejaVu Sans', 'Bitstream Vera Sans', 'Computer Modern Sans Serif', 'Lucida Grande', 'Verdana', 'Geneva', 'Lucid', 'Arial', 'Helvetica', 'Avant Garde', sans-serif; text-anchor: end" x="67.448" y="97.543219" transform="rotate(-0 67.448 97.543219)">100</text>
     </g>
    </g>
    <g id="text_15">
     <text style="font: 10px 'DejaVu Sans', 'Bitstream Vera Sans', 'Computer Modern Sans Serif', 'Lucida Grande', 'Verdana', 'Geneva', 'Lucid', 'Arial', 'Helvetica', 'Avant Garde', sans-serif; text-anchor: middle" x="42.280812" y="220.968" transform="rotate(-90 42.280812 220.968)">observers%</text>
    </g>
   </g>
   <g id="line2d_27">
    <path d="M 74.448 348.192 
L 108.55872 348.192 
L 110.45376 346.560923 
L 125.61408 346.560923 
L 127.50912 344.367406 
L 142.66944 344.367406 
L 144.56448 342.736329 
L 159.7248 342.736329 
L 161.61984 340.542812 
L 163.51488 338.911735 
L 165.40992 338.911735 
L 167.30496 337.280658 
L 169.2 337.280658 
L 172.99008 334.018504 
L 174.88512 334.018504 
L 176.78016 332.387427 
L 178.6752 332.387427 
L 180.57024 329.125273 
L 182.46528 327.494196 
L 191.94048 327.494196 
L 197.6256 322.600966 
L 199.52064 322.600966 
L 201.41568 320.969889 
L 205.20576 320.969889 
L 207.1008 319.338812 
L 208.99584 316.076658 
L 210.89088 314.445581 
L 216.576 314.445581 
L 220.36608 311.183427 
L 224.15616 303.534239 
L 229.84128 303.534239 
L 231.73632 298.078568 
L 233.63136 293.691533 
L 237.42144 293.691533 
L 239.31648 291.498016 
L 243.10656 291.498016 
L 245.0016 289.304499 
L 246.89664 289.304499 
L 248.79168 286.042345 
L 250.68672 286.042345 
L 252.58176 282.217751 
L 256.37184 282.217751 
L 258.26688 280.024233 
L 279.11232 280.024233 
L 281.00736 277.830716 
L 282.9024 277.830716 
L 286.69248 273.443682 
L 288.58752 271.812605 
L 292.3776 271.812605 
L 294.27264 270.181528 
L 299.95776 270.181528 
L 301.8528 268.550451 
L 307.53792 268.550451 
L 309.43296 266.919374 
L 313.22304 266.919374 
L 317.01312 263.65722 
L 318.90816 261.463703 
L 330.2784 261.463703 
L 332.17344 259.832626 
L 339.7536 259.832626 
L 343.54368 256.570472 
L 345.43872 254.376955 
L 347.33376 252.745878 
L 349.2288 252.745878 
L 351.12384 251.114801 
L 353.01888 251.114801 
L 354.91392 248.921284 
L 356.80896 247.290207 
L 358.704 245.09669 
L 371.96928 245.09669 
L 373.86432 242.903172 
L 375.75936 239.078578 
L 377.6544 236.885061 
L 379.54944 236.885061 
L 381.44448 234.691544 
L 383.33952 233.060467 
L 385.23456 233.060467 
L 387.1296 229.235873 
L 389.02464 223.780202 
L 394.70976 223.780202 
L 396.6048 220.518048 
L 407.97504 220.518048 
L 409.87008 218.324531 
L 411.76512 216.693454 
L 413.66016 216.693454 
L 415.5552 215.062377 
L 417.45024 215.062377 
L 419.34528 213.4313 
L 423.13536 213.4313 
L 425.0304 209.606706 
L 426.92544 207.413188 
L 432.61056 207.413188 
L 436.40064 203.026154 
L 438.29568 203.026154 
L 440.19072 200.832637 
L 442.08576 200.832637 
L 443.9808 198.639119 
L 453.456 198.639119 
L 455.35104 196.445602 
L 459.14112 193.183448 
L 461.03616 193.183448 
L 462.9312 191.552371 
L 466.72128 191.552371 
L 468.61632 189.921294 
L 470.51136 189.921294 
L 472.4064 187.727777 
L 474.30144 186.0967 
L 476.19648 186.0967 
L 478.09152 184.465623 
L 481.8816 184.465623 
L 483.77664 182.272106 
L 489.46176 182.272106 
L 491.3568 180.078589 
L 495.14688 180.078589 
L 497.04192 178.447512 
L 498.93696 178.447512 
L 500.832 176.816435 
L 502.72704 172.991841 
L 504.62208 171.360764 
L 510.3072 171.360764 
L 512.20224 169.167247 
L 517.88736 169.167247 
L 521.67744 164.780212 
L 523.57248 163.149135 
L 525.46752 160.955618 
L 527.36256 155.499947 
L 529.2576 151.112912 
L 533.04768 147.850759 
L 534.94272 147.850759 
L 536.83776 145.657241 
L 540.62784 145.657241 
L 542.52288 144.026164 
L 550.10304 144.026164 
L 551.99808 141.832647 
L 569.05344 141.832647 
L 570.94848 139.63913 
L 572.84352 138.008053 
L 586.1088 138.008053 
L 588.00384 135.814536 
L 589.89888 135.814536 
L 591.79392 134.183459 
L 599.37408 134.183459 
L 603.16416 129.796424 
L 616.42944 129.796424 
L 618.32448 127.602907 
L 627.79968 127.602907 
L 629.69472 125.40939 
L 641.06496 125.40939 
L 642.96 123.215873 
L 642.96 123.215873 
" clip-path="url(#p4ef3e7d169)" style="fill: none; stroke: #252525; stroke-width: 2.5; stroke-linecap: square"/>
   </g>
   <g id="line2d_28">
    <path d="M 74.448 348.192 
L 110.45376 348.192 
L 112.3488 346.560923 
L 142.66944 346.560923 
L 144.56448 344.367406 
L 152.14464 344.367406 
L 154.03968 339.980371 
L 182.46528 339.980371 
L 184.36032 338.349294 
L 186.25536 338.349294 
L 188.1504 333.96226 
L 193.83552 333.96226 
L 195.73056 331.768743 
L 197.6256 330.137666 
L 199.52064 327.944149 
L 201.41568 327.944149 
L 203.31072 323.557114 
L 216.576 323.557114 
L 218.47104 321.363597 
L 222.26112 321.363597 
L 224.15616 319.17008 
L 226.0512 315.345485 
L 229.84128 315.345485 
L 231.73632 313.151968 
L 237.42144 313.151968 
L 239.31648 308.764934 
L 241.21152 308.764934 
L 243.10656 307.133857 
L 248.79168 307.133857 
L 250.68672 304.94034 
L 262.05696 304.94034 
L 263.952 300.553305 
L 265.84704 298.359788 
L 267.74208 294.535194 
L 269.63712 292.341676 
L 271.53216 292.341676 
L 273.4272 290.148159 
L 275.32224 290.148159 
L 277.21728 287.954642 
L 284.79744 287.954642 
L 288.58752 283.567607 
L 290.48256 283.567607 
L 292.3776 281.936531 
L 294.27264 281.936531 
L 296.16768 279.743013 
L 303.74784 279.743013 
L 305.64288 277.549496 
L 307.53792 277.549496 
L 309.43296 275.918419 
L 311.328 273.724902 
L 315.11808 273.724902 
L 318.90816 270.462748 
L 320.8032 268.269231 
L 330.2784 268.269231 
L 332.17344 263.882196 
L 334.06848 262.251119 
L 354.91392 262.251119 
L 356.80896 260.057602 
L 362.49408 260.057602 
L 364.38912 257.864085 
L 370.07424 257.864085 
L 371.96928 256.233008 
L 373.86432 254.039491 
L 377.6544 254.039491 
L 379.54944 250.214897 
L 383.33952 245.827862 
L 385.23456 245.827862 
L 387.1296 243.634345 
L 389.02464 242.003268 
L 390.91968 239.809751 
L 394.70976 239.809751 
L 396.6048 237.616233 
L 398.49984 237.616233 
L 400.39488 235.422716 
L 411.76512 235.422716 
L 413.66016 233.229199 
L 417.45024 233.229199 
L 419.34528 231.598122 
L 421.24032 231.598122 
L 423.13536 227.773528 
L 425.0304 227.773528 
L 428.82048 224.511374 
L 443.9808 224.511374 
L 445.87584 220.68678 
L 451.56096 220.68678 
L 453.456 215.231109 
L 459.14112 215.231109 
L 461.03616 211.968955 
L 462.9312 211.968955 
L 464.82624 210.337878 
L 466.72128 210.337878 
L 468.61632 208.144361 
L 470.51136 208.144361 
L 474.30144 204.882207 
L 478.09152 204.882207 
L 479.98656 203.25113 
L 491.3568 203.25113 
L 493.25184 201.620053 
L 495.14688 199.426536 
L 498.93696 199.426536 
L 500.832 197.795459 
L 502.72704 195.601942 
L 504.62208 191.777347 
L 523.57248 191.777347 
L 525.46752 189.58383 
L 531.15264 189.58383 
L 533.04768 187.952753 
L 563.36832 187.952753 
L 565.26336 186.321676 
L 567.1584 184.128159 
L 576.6336 184.128159 
L 578.52864 182.497082 
L 582.31872 182.497082 
L 584.21376 178.672488 
L 589.89888 178.672488 
L 591.79392 177.041411 
L 606.95424 177.041411 
L 608.84928 175.410334 
L 616.42944 175.410334 
L 618.32448 173.779257 
L 620.21952 173.779257 
L 622.11456 172.14818 
L 629.69472 172.14818 
L 631.58976 170.517103 
L 633.4848 170.517103 
L 635.37984 168.886027 
L 642.96 168.886027 
L 642.96 168.886027 
" clip-path="url(#p4ef3e7d169)" style="fill: none; stroke: #3b83b4; stroke-width: 1.35; stroke-linecap: square"/>
   </g>
   <g id="line2d_29">
    <path d="M 74.448 348.192 
L 82.02816 348.192 
L 83.9232 346.560923 
L 125.61408 346.560923 
L 127.50912 344.929846 
L 144.56448 344.929846 
L 148.35456 341.667692 
L 150.2496 341.667692 
L 154.03968 338.405538 
L 167.30496 338.405538 
L 171.09504 335.143385 
L 172.99008 331.881231 
L 188.1504 331.881231 
L 190.04544 330.250154 
L 191.94048 326.988 
L 203.31072 326.988 
L 205.20576 325.356923 
L 208.99584 325.356923 
L 210.89088 323.725846 
L 216.576 323.725846 
L 218.47104 320.463692 
L 222.26112 320.463692 
L 224.15616 315.008021 
L 227.94624 315.008021 
L 231.73632 311.745867 
L 239.31648 311.745867 
L 241.21152 308.483714 
L 243.10656 306.852637 
L 250.68672 306.852637 
L 252.58176 305.22156 
L 254.4768 305.22156 
L 258.26688 301.959406 
L 260.16192 301.959406 
L 262.05696 300.328329 
L 263.952 300.328329 
L 265.84704 298.697252 
L 269.63712 298.697252 
L 271.53216 297.066175 
L 273.4272 292.172944 
L 275.32224 292.172944 
L 277.21728 290.541867 
L 282.9024 290.541867 
L 284.79744 288.91079 
L 286.69248 288.91079 
L 288.58752 285.086196 
L 292.3776 285.086196 
L 294.27264 283.455119 
L 296.16768 283.455119 
L 298.06272 281.824042 
L 299.95776 281.824042 
L 301.8528 277.999448 
L 311.328 277.999448 
L 313.22304 275.805931 
L 317.01312 275.805931 
L 318.90816 271.981337 
L 320.8032 271.981337 
L 322.69824 270.35026 
L 324.59328 270.35026 
L 326.48832 268.719183 
L 332.17344 268.719183 
L 334.06848 267.088106 
L 335.96352 263.825952 
L 337.85856 263.825952 
L 339.7536 262.194875 
L 341.64864 258.932721 
L 343.54368 258.932721 
L 345.43872 257.301645 
L 351.12384 257.301645 
L 353.01888 255.670568 
L 356.80896 255.670568 
L 358.704 254.039491 
L 360.59904 254.039491 
L 362.49408 251.845973 
L 368.1792 251.845973 
L 371.96928 248.58382 
L 373.86432 248.58382 
L 375.75936 246.390302 
L 377.6544 244.759225 
L 379.54944 244.759225 
L 381.44448 240.934631 
L 383.33952 240.934631 
L 385.23456 239.303554 
L 387.1296 239.303554 
L 389.02464 237.672477 
L 390.91968 237.672477 
L 392.81472 233.847883 
L 394.70976 233.847883 
L 396.6048 232.216806 
L 398.49984 232.216806 
L 400.39488 228.392212 
L 404.18496 228.392212 
L 406.08 226.761135 
L 407.97504 226.761135 
L 409.87008 222.936541 
L 413.66016 218.549507 
L 415.5552 218.549507 
L 417.45024 216.355989 
L 426.92544 216.355989 
L 428.82048 214.162472 
L 430.71552 212.531395 
L 434.5056 212.531395 
L 436.40064 210.337878 
L 443.9808 210.337878 
L 445.87584 208.706801 
L 447.77088 206.513284 
L 449.66592 204.882207 
L 451.56096 202.68869 
L 453.456 202.68869 
L 455.35104 201.057613 
L 457.24608 196.670578 
L 472.4064 196.670578 
L 474.30144 194.477061 
L 476.19648 194.477061 
L 478.09152 192.845984 
L 514.09728 192.845984 
L 517.88736 188.45895 
L 519.7824 186.827873 
L 525.46752 186.827873 
L 527.36256 180.247321 
L 533.04768 180.247321 
L 534.94272 178.616244 
L 536.83776 176.422727 
L 538.7328 176.422727 
L 540.62784 174.22921 
L 544.41792 174.22921 
L 548.208 169.842175 
L 555.78816 169.842175 
L 557.6832 167.648658 
L 563.36832 167.648658 
L 565.26336 165.455141 
L 574.73856 165.455141 
L 576.6336 163.261623 
L 591.79392 163.261623 
L 593.68896 161.068106 
L 595.584 161.068106 
L 597.47904 159.437029 
L 603.16416 159.437029 
L 605.0592 155.612435 
L 606.95424 153.418918 
L 624.0096 153.418918 
L 625.90464 151.225401 
L 629.69472 151.225401 
L 631.58976 149.031883 
L 637.27488 149.031883 
L 639.16992 147.400806 
L 641.06496 145.207289 
L 642.96 145.207289 
L 642.96 145.207289 
" clip-path="url(#p4ef3e7d169)" style="fill: none; stroke-dasharray: 4.995,2.16; stroke-dashoffset: 0; stroke: #c38a19; stroke-width: 1.35"/>
   </g>
   <g id="line2d_30">
    <path d="M 74.448 348.192 
L 121.824 348.192 
L 123.71904 344.929846 
L 136.98432 344.929846 
L 138.87936 343.298769 
L 140.7744 343.298769 
L 142.66944 341.667692 
L 150.2496 341.667692 
L 152.14464 340.036615 
L 157.82976 340.036615 
L 159.7248 338.405538 
L 163.51488 338.405538 
L 165.40992 336.774462 
L 167.30496 334.580944 
L 178.6752 334.580944 
L 180.57024 332.949867 
L 182.46528 332.949867 
L 184.36032 331.31879 
L 191.94048 331.31879 
L 193.83552 329.687714 
L 207.1008 329.687714 
L 208.99584 328.056637 
L 210.89088 328.056637 
L 212.78592 324.794483 
L 214.68096 324.794483 
L 216.576 323.163406 
L 218.47104 323.163406 
L 220.36608 321.532329 
L 222.26112 321.532329 
L 226.0512 318.270175 
L 227.94624 315.008021 
L 233.63136 315.008021 
L 235.5264 311.745867 
L 237.42144 310.11479 
L 241.21152 310.11479 
L 245.0016 306.852637 
L 246.89664 306.852637 
L 248.79168 305.22156 
L 250.68672 305.22156 
L 252.58176 303.590483 
L 254.4768 303.590483 
L 256.37184 301.396966 
L 260.16192 301.396966 
L 262.05696 297.572371 
L 265.84704 297.572371 
L 267.74208 295.941294 
L 271.53216 295.941294 
L 273.4272 293.747777 
L 275.32224 293.747777 
L 279.11232 290.485623 
L 281.00736 290.485623 
L 284.79744 283.961316 
L 286.69248 282.330239 
L 294.27264 282.330239 
L 296.16768 279.068085 
L 299.95776 279.068085 
L 301.8528 277.437008 
L 303.74784 277.437008 
L 305.64288 275.805931 
L 307.53792 275.805931 
L 309.43296 274.174854 
L 322.69824 274.174854 
L 324.59328 271.981337 
L 326.48832 268.156743 
L 330.2784 264.894589 
L 332.17344 264.894589 
L 334.06848 263.263512 
L 335.96352 263.263512 
L 337.85856 259.438918 
L 339.7536 259.438918 
L 341.64864 255.614324 
L 345.43872 255.614324 
L 347.33376 253.420806 
L 349.2288 253.420806 
L 353.01888 250.158653 
L 358.704 250.158653 
L 360.59904 247.965135 
L 362.49408 247.965135 
L 366.28416 243.578101 
L 370.07424 243.578101 
L 373.86432 239.191066 
L 379.54944 239.191066 
L 381.44448 237.559989 
L 385.23456 237.559989 
L 387.1296 232.104318 
L 389.02464 228.842164 
L 390.91968 228.842164 
L 392.81472 226.648647 
L 394.70976 225.01757 
L 396.6048 222.824053 
L 400.39488 219.561899 
L 407.97504 219.561899 
L 409.87008 217.368382 
L 419.34528 217.368382 
L 421.24032 214.106228 
L 423.13536 214.106228 
L 425.0304 211.912711 
L 426.92544 211.912711 
L 428.82048 210.281634 
L 434.5056 210.281634 
L 438.29568 207.01948 
L 440.19072 207.01948 
L 442.08576 205.388403 
L 443.9808 205.388403 
L 445.87584 203.757326 
L 447.77088 203.757326 
L 449.66592 202.126249 
L 451.56096 202.126249 
L 453.456 200.495172 
L 464.82624 200.495172 
L 466.72128 196.670578 
L 468.61632 195.039501 
L 472.4064 195.039501 
L 476.19648 190.652467 
L 479.98656 190.652467 
L 481.8816 188.45895 
L 483.77664 188.45895 
L 485.67168 184.071915 
L 487.56672 184.071915 
L 489.46176 181.878398 
L 491.3568 181.878398 
L 493.25184 179.684881 
L 495.14688 179.684881 
L 497.04192 178.053804 
L 506.51712 178.053804 
L 510.3072 173.666769 
L 512.20224 173.666769 
L 514.09728 171.473252 
L 536.83776 171.473252 
L 538.7328 169.279735 
L 548.208 169.279735 
L 550.10304 167.086218 
L 551.99808 162.699183 
L 572.84352 162.699183 
L 574.73856 160.505666 
L 584.21376 160.505666 
L 586.1088 158.312149 
L 588.00384 158.312149 
L 589.89888 153.925114 
L 591.79392 150.10052 
L 593.68896 150.10052 
L 595.584 147.907003 
L 603.16416 147.907003 
L 605.0592 145.713485 
L 614.5344 145.713485 
L 616.42944 143.519968 
L 622.11456 143.519968 
L 624.0096 141.326451 
L 635.37984 141.326451 
L 637.27488 137.501857 
L 639.16992 135.30834 
L 641.06496 135.30834 
L 642.96 133.114822 
L 642.96 133.114822 
" clip-path="url(#p4ef3e7d169)" style="fill: none; stroke-dasharray: 1.35,2.2275; stroke-dashoffset: 0; stroke: #7d8a92; stroke-width: 1.35"/>
   </g>
   <g id="line2d_31">
    <path d="M 74.448 348.192 
L 169.2 348.192 
L 171.09504 345.998483 
L 199.52064 345.998483 
L 201.41568 344.367406 
L 216.576 344.367406 
L 218.47104 342.173889 
L 231.73632 342.173889 
L 233.63136 340.542812 
L 256.37184 340.542812 
L 258.26688 338.911735 
L 267.74208 338.911735 
L 269.63712 336.718218 
L 271.53216 336.718218 
L 273.4272 334.5247 
L 279.11232 334.5247 
L 281.00736 332.331183 
L 284.79744 332.331183 
L 286.69248 328.506589 
L 288.58752 326.313072 
L 290.48256 324.681995 
L 305.64288 324.681995 
L 307.53792 323.050918 
L 309.43296 323.050918 
L 315.11808 316.470366 
L 317.01312 316.470366 
L 318.90816 314.276849 
L 326.48832 314.276849 
L 328.38336 312.083332 
L 339.7536 312.083332 
L 341.64864 310.452255 
L 343.54368 310.452255 
L 345.43872 308.258737 
L 349.2288 308.258737 
L 351.12384 306.62766 
L 358.704 306.62766 
L 360.59904 304.996584 
L 364.38912 304.996584 
L 366.28416 303.365507 
L 373.86432 303.365507 
L 377.6544 298.978472 
L 400.39488 298.978472 
L 404.18496 294.591438 
L 406.08 292.960361 
L 411.76512 292.960361 
L 413.66016 288.573326 
L 415.5552 286.379809 
L 417.45024 286.379809 
L 419.34528 281.992775 
L 421.24032 279.799257 
L 423.13536 279.799257 
L 425.0304 278.16818 
L 428.82048 273.781146 
L 436.40064 273.781146 
L 438.29568 271.587629 
L 442.08576 271.587629 
L 443.9808 269.956552 
L 449.66592 269.956552 
L 451.56096 266.131958 
L 453.456 263.93844 
L 455.35104 263.93844 
L 457.24608 262.307363 
L 459.14112 260.113846 
L 461.03616 260.113846 
L 462.9312 257.920329 
L 464.82624 257.920329 
L 466.72128 256.289252 
L 468.61632 256.289252 
L 470.51136 254.095735 
L 472.4064 252.464658 
L 474.30144 250.271141 
L 476.19648 248.640064 
L 481.8816 248.640064 
L 483.77664 244.253029 
L 485.67168 242.621952 
L 487.56672 242.621952 
L 489.46176 238.797358 
L 491.3568 234.410324 
L 500.832 234.410324 
L 502.72704 232.779247 
L 510.3072 232.779247 
L 512.20224 226.254939 
L 515.99232 226.254939 
L 517.88736 222.992785 
L 519.7824 221.361708 
L 523.57248 216.974674 
L 525.46752 216.974674 
L 527.36256 215.343597 
L 531.15264 215.343597 
L 533.04768 213.15008 
L 534.94272 213.15008 
L 536.83776 210.956562 
L 542.52288 210.956562 
L 544.41792 209.325485 
L 546.31296 205.500891 
L 551.99808 205.500891 
L 555.78816 201.113857 
L 574.73856 201.113857 
L 576.6336 197.851703 
L 591.79392 197.851703 
L 593.68896 195.658186 
L 595.584 195.658186 
L 597.47904 192.396032 
L 612.63936 192.396032 
L 614.5344 190.202515 
L 616.42944 190.202515 
L 618.32448 184.746844 
L 635.37984 184.746844 
L 637.27488 180.922249 
L 639.16992 179.291172 
L 642.96 179.291172 
L 642.96 179.291172 
" clip-path="url(#p4ef3e7d169)" style="fill: none; stroke-dasharray: 8.64,2.16,1.35,2.16; stroke-dashoffset: 0; stroke: #d0526a; stroke-width: 1.35"/>
   </g>
   <g id="line2d_32">
    <path d="M 74.448 348.192 
L 127.50912 348.192 
L 129.40416 345.998483 
L 148.35456 345.998483 
L 150.2496 343.804966 
L 161.61984 343.804966 
L 163.51488 341.611448 
L 165.40992 341.611448 
L 167.30496 339.980371 
L 171.09504 339.980371 
L 172.99008 337.786854 
L 184.36032 337.786854 
L 186.25536 333.96226 
L 188.1504 333.96226 
L 190.04544 332.331183 
L 191.94048 330.137666 
L 203.31072 330.137666 
L 205.20576 327.944149 
L 208.99584 327.944149 
L 210.89088 325.750631 
L 212.78592 325.750631 
L 214.68096 323.557114 
L 216.576 323.557114 
L 218.47104 321.926037 
L 220.36608 321.926037 
L 226.0512 315.345485 
L 227.94624 310.958451 
L 231.73632 310.958451 
L 233.63136 308.764934 
L 246.89664 308.764934 
L 248.79168 307.133857 
L 250.68672 307.133857 
L 252.58176 302.746822 
L 254.4768 302.746822 
L 256.37184 298.922228 
L 263.952 298.922228 
L 265.84704 297.291151 
L 267.74208 297.291151 
L 271.53216 292.904117 
L 273.4272 289.079523 
L 279.11232 289.079523 
L 281.00736 285.254928 
L 282.9024 285.254928 
L 284.79744 283.623851 
L 286.69248 281.430334 
L 288.58752 279.799257 
L 290.48256 277.60574 
L 292.3776 275.974663 
L 294.27264 272.150069 
L 301.8528 272.150069 
L 303.74784 270.518992 
L 307.53792 270.518992 
L 309.43296 268.325475 
L 311.328 268.325475 
L 313.22304 266.694398 
L 315.11808 262.307363 
L 317.01312 262.307363 
L 318.90816 260.113846 
L 320.8032 260.113846 
L 322.69824 257.920329 
L 324.59328 251.902218 
L 326.48832 250.271141 
L 328.38336 245.884106 
L 330.2784 242.621952 
L 334.06848 242.621952 
L 335.96352 240.428435 
L 341.64864 240.428435 
L 343.54368 234.972764 
L 345.43872 234.972764 
L 347.33376 232.779247 
L 349.2288 231.14817 
L 351.12384 228.954653 
L 353.01888 227.323576 
L 354.91392 227.323576 
L 356.80896 225.130058 
L 358.704 223.498981 
L 360.59904 223.498981 
L 362.49408 221.867905 
L 364.38912 221.867905 
L 366.28416 219.674387 
L 370.07424 219.674387 
L 371.96928 217.48087 
L 383.33952 217.48087 
L 385.23456 215.287353 
L 392.81472 215.287353 
L 394.70976 213.656276 
L 396.6048 213.656276 
L 398.49984 212.025199 
L 404.18496 212.025199 
L 406.08 208.200605 
L 411.76512 208.200605 
L 413.66016 206.007088 
L 421.24032 206.007088 
L 423.13536 204.376011 
L 438.29568 204.376011 
L 440.19072 202.182493 
L 449.66592 202.182493 
L 451.56096 199.988976 
L 461.03616 199.988976 
L 462.9312 197.795459 
L 464.82624 196.164382 
L 468.61632 196.164382 
L 470.51136 194.533305 
L 472.4064 194.533305 
L 474.30144 192.902228 
L 479.98656 192.902228 
L 481.8816 191.271151 
L 483.77664 191.271151 
L 485.67168 189.640074 
L 500.832 189.640074 
L 502.72704 187.446557 
L 512.20224 187.446557 
L 514.09728 185.25304 
L 523.57248 185.25304 
L 525.46752 183.621963 
L 531.15264 183.621963 
L 533.04768 179.797369 
L 534.94272 179.797369 
L 536.83776 178.166292 
L 538.7328 178.166292 
L 540.62784 176.535215 
L 546.31296 176.535215 
L 548.208 174.904138 
L 550.10304 174.904138 
L 551.99808 172.710621 
L 553.89312 172.710621 
L 555.78816 171.079544 
L 557.6832 171.079544 
L 559.57824 167.81739 
L 569.05344 167.81739 
L 570.94848 164.555236 
L 572.84352 159.662005 
L 574.73856 158.030928 
L 576.6336 158.030928 
L 578.52864 155.837411 
L 589.89888 155.837411 
L 591.79392 152.575257 
L 597.47904 152.575257 
L 599.37408 150.38174 
L 601.26912 150.38174 
L 603.16416 148.188223 
L 605.0592 148.188223 
L 606.95424 146.557146 
L 612.63936 146.557146 
L 614.5344 144.926069 
L 616.42944 144.926069 
L 618.32448 143.294992 
L 635.37984 143.294992 
L 641.06496 138.401761 
L 642.96 138.401761 
L 642.96 138.401761 
" clip-path="url(#p4ef3e7d169)" style="fill: none; stroke-dasharray: 6.75,2.7,1.35,2.7; stroke-dashoffset: 0; stroke: #2f8f84; stroke-width: 1.35"/>
   </g>
   <g id="patch_4">
    <path d="M 74.448 348.192 
L 74.448 93.744 
" style="fill: none; stroke: #000000; stroke-width: 0.8; stroke-linejoin: miter; stroke-linecap: square"/>
   </g>
   <g id="patch_5">
    <path d="M 74.448 348.192 
L 642.96 348.192 
" style="fill: none; stroke: #000000; stroke-width: 0.8; stroke-linejoin: miter; stroke-linecap: square"/>
   </g>
  </g>
  <g id="text_16">
   <text style="font: 18px 'DejaVu Sans', 'Bitstream Vera Sans', 'Computer Modern Sans Serif', 'Lucida Grande', 'Verdana', 'Geneva', 'Lucid', 'Arial', 'Helvetica', 'Avant Garde', sans-serif; text-anchor: start" x="74.448" y="38.229188" transform="rotate(-0 74.448 38.229188)">LED-BH1 Direct</text>
  </g>
  <g id="text_17">
   <text style="fill: #66747c; font: 10px 'DejaVu Sans', 'Bitstream Vera Sans', 'Computer Modern Sans Serif', 'Lucida Grande', 'Verdana', 'Geneva', 'Lucid', 'Arial', 'Helvetica', 'Avant Garde', sans-serif; text-anchor: start" x="74.448" y="64.728" transform="rotate(-0 74.448 64.728)">QDEF LCD</text>
  </g>
  <g id="legend_1">
   <g id="line2d_33">
    <path d="M 185.17875 404.151391 
L 194.27875 404.151391 
L 203.37875 404.151391 
" style="fill: none; stroke: #252525; stroke-width: 2.5; stroke-linecap: square"/>
   </g>
   <g id="text_18">
    <text style="font: 9.1px 'DejaVu Sans', 'Bitstream Vera Sans', 'Computer Modern Sans Serif', 'Lucida Grande', 'Verdana', 'Geneva', 'Lucid', 'Arial', 'Helvetica', 'Avant Garde', sans-serif; text-anchor: start" x="210.65875" y="407.336391" transform="rotate(-0 210.65875 407.336391)">Potera CMF</text>
   </g>
   <g id="line2d_34">
    <path d="M 185.17875 417.508484 
L 194.27875 417.508484 
L 203.37875 417.508484 
" style="fill: none; stroke: #3b83b4; stroke-width: 1.35; stroke-linecap: square"/>
   </g>
   <g id="text_19">
    <text style="font: 9.1px 'DejaVu Sans', 'Bitstream Vera Sans', 'Computer Modern Sans Serif', 'Lucida Grande', 'Verdana', 'Geneva', 'Lucid', 'Arial', 'Helvetica', 'Avant Garde', sans-serif; text-anchor: start" x="210.65875" y="420.693484" transform="rotate(-0 210.65875 420.693484)">CIE 2015 2°</text>
   </g>
   <g id="line2d_35">
    <path d="M 282.931234 404.151391 
L 292.031234 404.151391 
L 301.131234 404.151391 
" style="fill: none; stroke-dasharray: 4.995,2.16; stroke-dashoffset: 0; stroke: #c38a19; stroke-width: 1.35"/>
   </g>
   <g id="text_20">
    <text style="font: 9.1px 'DejaVu Sans', 'Bitstream Vera Sans', 'Computer Modern Sans Serif', 'Lucida Grande', 'Verdana', 'Geneva', 'Lucid', 'Arial', 'Helvetica', 'Avant Garde', sans-serif; text-anchor: start" x="308.411234" y="407.336391" transform="rotate(-0 308.411234 407.336391)">CIE 2015 10°</text>
   </g>
   <g id="line2d_36">
    <path d="M 282.931234 417.508484 
L 292.031234 417.508484 
L 301.131234 417.508484 
" style="fill: none; stroke-dasharray: 1.35,2.2275; stroke-dashoffset: 0; stroke: #7d8a92; stroke-width: 1.35"/>
   </g>
   <g id="text_21">
    <text style="font: 9.1px 'DejaVu Sans', 'Bitstream Vera Sans', 'Computer Modern Sans Serif', 'Lucida Grande', 'Verdana', 'Geneva', 'Lucid', 'Arial', 'Helvetica', 'Avant Garde', sans-serif; text-anchor: start" x="308.411234" y="420.693484" transform="rotate(-0 308.411234 420.693484)">CIE 1964 10°</text>
   </g>
   <g id="line2d_37">
    <path d="M 386.473594 404.151391 
L 395.573594 404.151391 
L 404.673594 404.151391 
" style="fill: none; stroke-dasharray: 8.64,2.16,1.35,2.16; stroke-dashoffset: 0; stroke: #d0526a; stroke-width: 1.35"/>
   </g>
   <g id="text_22">
    <text style="font: 9.1px 'DejaVu Sans', 'Bitstream Vera Sans', 'Computer Modern Sans Serif', 'Lucida Grande', 'Verdana', 'Geneva', 'Lucid', 'Arial', 'Helvetica', 'Avant Garde', sans-serif; text-anchor: start" x="411.953594" y="407.336391" transform="rotate(-0 411.953594 407.336391)">CIE 1931 2°</text>
   </g>
   <g id="line2d_38">
    <path d="M 386.473594 417.508484 
L 395.573594 417.508484 
L 404.673594 417.508484 
" style="fill: none; stroke-dasharray: 6.75,2.7,1.35,2.7; stroke-dashoffset: 0; stroke: #2f8f84; stroke-width: 1.35"/>
   </g>
   <g id="text_23">
    <text style="font: 9.1px 'DejaVu Sans', 'Bitstream Vera Sans', 'Computer Modern Sans Serif', 'Lucida Grande', 'Verdana', 'Geneva', 'Lucid', 'Arial', 'Helvetica', 'Avant Garde', sans-serif; text-anchor: start" x="411.953594" y="420.693484" transform="rotate(-0 411.953594 420.693484)">Judd–Vos 1978 2°</text>
   </g>
  </g>
 </g>
 <defs>
  <clipPath id="p4ef3e7d169">
   <rect x="74.448" y="93.744" width="568.512" height="254.448"/>
  </clipPath>
 </defs>
</svg>
