<?xml version="1.0" encoding="utf-8" standalone="no"?>
<!DOCTYPE svg PUBLIC "-//W3C//DTD SVG 1.1//EN"
  "http://www.w3.org/Graphics/SVG/1.1/DTD/svg11.dtd">
<svg xmlns:xlink="http://www.w3.org/1999/xlink" width="676.8pt" height="446.4pt" viewBox="0 0 676.8 446.4" xmlns="http://www.w3.org/2000/svg" version="1.1">
 <metadata>
  <rdf:RDF xmlns:dc="http://purl.org/dc/elements/1.1/" xmlns:cc="http://creativecommons.org/ns#" xmlns:rdf="http://www.w3.org/1999/02/22-rdf-syntax-ns#">
   <cc:Work>
    <dc:type rdf:resource="http://purl.org/dc/dcmitype/StillImage"/>
    <dc:date>2026-07-20T06:41:57.484286</dc:date>
    <dc:format>image/svg+xml</dc:format>
    <dc:creator>
     <cc:Agent>
      <dc:title>Matplotlib v3.9.4, https://matplotlib.org/</dc:title>
     </cc:Agent>
    </dc:creator>
   </cc:Work>
  </rdf:RDF>
 </metadata>
 <defs>
  <style type="text/css">*{stroke-linejoin: round; stroke-linecap: butt}</style>
 </defs>
 <g id="figure_1">
  <g id="patch_1">
   <path d="M 0 446.4 
L 676.8 446.4 
L 676.8 0 
L 0 0 
z
" style="fill: #ffffff"/>
  </g>
  <g id="axes_1">
   <g id="patch_2">
    <path d="M 74.448 348.192 
L 642.96 348.192 
L 642.96 93.744 
L 74.448 93.744 
z
" style="fill: #ffffff"/>
   </g>
   <g id="patch_3">
    <path d="M 169.2 348.192 
L 358.704 348.192 
L 358.704 93.744 
L 169.2 93.744 
z
" clip-path="url(#pe9c3c0774e)" style="fill: #e7f0ea; opacity: 0.58; stroke: #e7f0ea; stroke-linejoin: miter"/>
   </g>
   <g id="matplotlib.axis_1">
    <g id="xtick_1">
     <g id="line2d_1">
      <path d="M 74.448 348.192 
L 74.448 93.744 
" clip-path="url(#pe9c3c0774e)" style="fill: none; stroke: #dfe5e8; stroke-width: 0.65; stroke-linecap: square"/>
     </g>
     <g id="line2d_2">
      <defs>
       <path id="mdc7b6a2f96" d="M 0 0 
L 0 3.5 
" style="stroke: #000000; stroke-width: 0.8"/>
      </defs>
      <g>
       <use xlink:href="#mdc7b6a2f96" x="74.448" y="348.192" style="stroke: #000000; stroke-width: 0.8"/>
      </g>
     </g>
     <g id="text_1">
      <text style="font: 10px 'DejaVu Sans', 'Bitstream Vera Sans', 'Computer Modern Sans Serif', 'Lucida Grande', 'Verdana', 'Geneva', 'Lucid', 'Arial', 'Helvetica', 'Avant Garde', sans-serif; text-anchor: middle" x="74.448" y="362.790438" transform="rotate(-0 74.448 362.790438)">0</text>
     </g>
    </g>
    <g id="xtick_2">
     <g id="line2d_3">
      <path d="M 169.2 348.192 
L 169.2 93.744 
" clip-path="url(#pe9c3c0774e)" style="fill: none; stroke: #dfe5e8; stroke-width: 0.65; stroke-linecap: square"/>
     </g>
     <g id="line2d_4">
      <g>
       <use xlink:href="#mdc7b6a2f96" x="169.2" y="348.192" style="stroke: #000000; stroke-width: 0.8"/>
      </g>
     </g>
     <g id="text_2">
      <text style="font: 10px 'DejaVu Sans', 'Bitstream Vera Sans', 'Computer Modern Sans Serif', 'Lucida Grande', 'Verdana', 'Geneva', 'Lucid', 'Arial', 'Helvetica', 'Avant Garde', sans-serif; text-anchor: middle" x="169.2" y="362.790438" transform="rotate(-0 169.2 362.790438)">1</text>
     </g>
    </g>
    <g id="xtick_3">
     <g id="line2d_5">
      <path d="M 263.952 348.192 
L 263.952 93.744 
" clip-path="url(#pe9c3c0774e)" style="fill: none; stroke: #dfe5e8; stroke-width: 0.65; stroke-linecap: square"/>
     </g>
     <g id="line2d_6">
      <g>
       <use xlink:href="#mdc7b6a2f96" x="263.952" y="348.192" style="stroke: #000000; stroke-width: 0.8"/>
      </g>
     </g>
     <g id="text_3">
      <text style="font: 10px 'DejaVu Sans', 'Bitstream Vera Sans', 'Computer Modern Sans Serif', 'Lucida Grande', 'Verdana', 'Geneva', 'Lucid', 'Arial', 'Helvetica', 'Avant Garde', sans-serif; text-anchor: middle" x="263.952" y="362.790438" transform="rotate(-0 263.952 362.790438)">2</text>
     </g>
    </g>
    <g id="xtick_4">
     <g id="line2d_7">
      <path d="M 358.704 348.192 
L 358.704 93.744 
" clip-path="url(#pe9c3c0774e)" style="fill: none; stroke: #dfe5e8; stroke-width: 0.65; stroke-linecap: square"/>
     </g>
     <g id="line2d_8">
      <g>
       <use xlink:href="#mdc7b6a2f96" x="358.704" y="348.192" style="stroke: #000000; stroke-width: 0.8"/>
      </g>
     </g>
     <g id="text_4">
      <text style="font: 10px 'DejaVu Sans', 'Bitstream Vera Sans', 'Computer Modern Sans Serif', 'Lucida Grande', 'Verdana', 'Geneva', 'Lucid', 'Arial', 'Helvetica', 'Avant Garde', sans-serif; text-anchor: middle" x="358.704" y="362.790438" transform="rotate(-0 358.704 362.790438)">3</text>
     </g>
    </g>
    <g id="xtick_5">
     <g id="line2d_9">
      <path d="M 453.456 348.192 
L 453.456 93.744 
" clip-path="url(#pe9c3c0774e)" style="fill: none; stroke: #dfe5e8; stroke-width: 0.65; stroke-linecap: square"/>
     </g>
     <g id="line2d_10">
      <g>
       <use xlink:href="#mdc7b6a2f96" x="453.456" y="348.192" style="stroke: #000000; stroke-width: 0.8"/>
      </g>
     </g>
     <g id="text_5">
      <text style="font: 10px 'DejaVu Sans', 'Bitstream Vera Sans', 'Computer Modern Sans Serif', 'Lucida Grande', 'Verdana', 'Geneva', 'Lucid', 'Arial', 'Helvetica', 'Avant Garde', sans-serif; text-anchor: middle" x="453.456" y="362.790438" transform="rotate(-0 453.456 362.790438)">4</text>
     </g>
    </g>
    <g id="xtick_6">
     <g id="line2d_11">
      <path d="M 548.208 348.192 
L 548.208 93.744 
" clip-path="url(#pe9c3c0774e)" style="fill: none; stroke: #dfe5e8; stroke-width: 0.65; stroke-linecap: square"/>
     </g>
     <g id="line2d_12">
      <g>
       <use xlink:href="#mdc7b6a2f96" x="548.208" y="348.192" style="stroke: #000000; stroke-width: 0.8"/>
      </g>
     </g>
     <g id="text_6">
      <text style="font: 10px 'DejaVu Sans', 'Bitstream Vera Sans', 'Computer Modern Sans Serif', 'Lucida Grande', 'Verdana', 'Geneva', 'Lucid', 'Arial', 'Helvetica', 'Avant Garde', sans-serif; text-anchor: middle" x="548.208" y="362.790438" transform="rotate(-0 548.208 362.790438)">5</text>
     </g>
    </g>
    <g id="xtick_7">
     <g id="line2d_13">
      <path d="M 642.96 348.192 
L 642.96 93.744 
" clip-path="url(#pe9c3c0774e)" style="fill: none; stroke: #dfe5e8; stroke-width: 0.65; stroke-linecap: square"/>
     </g>
     <g id="line2d_14">
      <g>
       <use xlink:href="#mdc7b6a2f96" x="642.96" y="348.192" style="stroke: #000000; stroke-width: 0.8"/>
      </g>
     </g>
     <g id="text_7">
      <text style="font: 10px 'DejaVu Sans', 'Bitstream Vera Sans', 'Computer Modern Sans Serif', 'Lucida Grande', 'Verdana', 'Geneva', 'Lucid', 'Arial', 'Helvetica', 'Avant Garde', sans-serif; text-anchor: middle" x="642.96" y="362.790438" transform="rotate(-0 642.96 362.790438)">6</text>
     </g>
    </g>
    <g id="text_8">
     <text style="font: 10px 'DejaVu Sans', 'Bitstream Vera Sans', 'Computer Modern Sans Serif', 'Lucida Grande', 'Verdana', 'Geneva', 'Lucid', 'Arial', 'Helvetica', 'Avant Garde', sans-serif; text-anchor: middle" x="358.704" y="376.468563" transform="rotate(-0 358.704 376.468563)">sUCS dE threshold</text>
    </g>
   </g>
   <g id="matplotlib.axis_2">
    <g id="ytick_1">
     <g id="line2d_15">
      <path d="M 74.448 348.192 
L 642.96 348.192 
" clip-path="url(#pe9c3c0774e)" style="fill: none; stroke: #dfe5e8; stroke-width: 0.65; stroke-linecap: square"/>
     </g>
     <g id="line2d_16">
      <defs>
       <path id="m1bc6f56341" d="M 0 0 
L -3.5 0 
" style="stroke: #000000; stroke-width: 0.8"/>
      </defs>
      <g>
       <use xlink:href="#m1bc6f56341" x="74.448" y="348.192" style="stroke: #000000; stroke-width: 0.8"/>
      </g>
     </g>
     <g id="text_9">
      <text style="font: 10px 'DejaVu Sans', 'Bitstream Vera Sans', 'Computer Modern Sans Serif', 'Lucida Grande', 'Verdana', 'Geneva', 'Lucid', 'Arial', 'Helvetica', 'Avant Garde', sans-serif; text-anchor: end" x="67.448" y="351.991219" transform="rotate(-0 67.448 351.991219)">0</text>
     </g>
    </g>
    <g id="ytick_2">
     <g id="line2d_17">
      <path d="M 74.448 297.3024 
L 642.96 297.3024 
" clip-path="url(#pe9c3c0774e)" style="fill: none; stroke: #dfe5e8; stroke-width: 0.65; stroke-linecap: square"/>
     </g>
     <g id="line2d_18">
      <g>
       <use xlink:href="#m1bc6f56341" x="74.448" y="297.3024" style="stroke: #000000; stroke-width: 0.8"/>
      </g>
     </g>
     <g id="text_10">
      <text style="font: 10px 'DejaVu Sans', 'Bitstream Vera Sans', 'Computer Modern Sans Serif', 'Lucida Grande', 'Verdana', 'Geneva', 'Lucid', 'Arial', 'Helvetica', 'Avant Garde', sans-serif; text-anchor: end" x="67.448" y="301.101619" transform="rotate(-0 67.448 301.101619)">20</text>
     </g>
    </g>
    <g id="ytick_3">
     <g id="line2d_19">
      <path d="M 74.448 246.4128 
L 642.96 246.4128 
" clip-path="url(#pe9c3c0774e)" style="fill: none; stroke: #dfe5e8; stroke-width: 0.65; stroke-linecap: square"/>
     </g>
     <g id="line2d_20">
      <g>
       <use xlink:href="#m1bc6f56341" x="74.448" y="246.4128" style="stroke: #000000; stroke-width: 0.8"/>
      </g>
     </g>
     <g id="text_11">
      <text style="font: 10px 'DejaVu Sans', 'Bitstream Vera Sans', 'Computer Modern Sans Serif', 'Lucida Grande', 'Verdana', 'Geneva', 'Lucid', 'Arial', 'Helvetica', 'Avant Garde', sans-serif; text-anchor: end" x="67.448" y="250.212019" transform="rotate(-0 67.448 250.212019)">40</text>
     </g>
    </g>
    <g id="ytick_4">
     <g id="line2d_21">
      <path d="M 74.448 195.5232 
L 642.96 195.5232 
" clip-path="url(#pe9c3c0774e)" style="fill: none; stroke: #dfe5e8; stroke-width: 0.65; stroke-linecap: square"/>
     </g>
     <g id="line2d_22">
      <g>
       <use xlink:href="#m1bc6f56341" x="74.448" y="195.5232" style="stroke: #000000; stroke-width: 0.8"/>
      </g>
     </g>
     <g id="text_12">
      <text style="font: 10px 'DejaVu Sans', 'Bitstream Vera Sans', 'Computer Modern Sans Serif', 'Lucida Grande', 'Verdana', 'Geneva', 'Lucid', 'Arial', 'Helvetica', 'Avant Garde', sans-serif; text-anchor: end" x="67.448" y="199.322419" transform="rotate(-0 67.448 199.322419)">60</text>
     </g>
    </g>
    <g id="ytick_5">
     <g id="line2d_23">
      <path d="M 74.448 144.6336 
L 642.96 144.6336 
" clip-path="url(#pe9c3c0774e)" style="fill: none; stroke: #dfe5e8; stroke-width: 0.65; stroke-linecap: square"/>
     </g>
     <g id="line2d_24">
      <g>
       <use xlink:href="#m1bc6f56341" x="74.448" y="144.6336" style="stroke: #000000; stroke-width: 0.8"/>
      </g>
     </g>
     <g id="text_13">
      <text style="font: 10px 'DejaVu Sans', 'Bitstream Vera Sans', 'Computer Modern Sans Serif', 'Lucida Grande', 'Verdana', 'Geneva', 'Lucid', 'Arial', 'Helvetica', 'Avant Garde', sans-serif; text-anchor: end" x="67.448" y="148.432819" transform="rotate(-0 67.448 148.432819)">80</text>
     </g>
    </g>
    <g id="ytick_6">
     <g id="line2d_25">
      <path d="M 74.448 93.744 
L 642.96 93.744 
" clip-path="url(#pe9c3c0774e)" style="fill: none; stroke: #dfe5e8; stroke-width: 0.65; stroke-linecap: square"/>
     </g>
     <g id="line2d_26">
      <g>
       <use xlink:href="#m1bc6f56341" x="74.448" y="93.744" style="stroke: #000000; stroke-width: 0.8"/>
      </g>
     </g>
     <g id="text_14">
      <text style="font: 10px 'DejaVu Sans', 'Bitstream Vera Sans', 'Computer Modern Sans Serif', 'Lucida Grande', 'Verdana', 'Geneva', 'Lucid', 'Arial', 'Helvetica', 'Avant Garde', sans-serif; text-anchor: end" x="67.448" y="97.543219" transform="rotate(-0 67.448 97.543219)">100</text>
     </g>
    </g>
    <g id="text_15">
     <text style="font: 10px 'DejaVu Sans', 'Bitstream Vera Sans', 'Computer Modern Sans Serif', 'Lucida Grande', 'Verdana', 'Geneva', 'Lucid', 'Arial', 'Helvetica', 'Avant Garde', sans-serif; text-anchor: middle" x="42.280812" y="220.968" transform="rotate(-90 42.280812 220.968)">observers%</text>
    </g>
   </g>
   <g id="line2d_27">
    <path d="M 74.448 348.192 
L 108.55872 348.192 
L 110.45376 345.998483 
L 129.40416 345.998483 
L 131.2992 344.367406 
L 135.08928 344.367406 
L 136.98432 342.173889 
L 144.56448 342.173889 
L 146.45952 340.542812 
L 154.03968 340.542812 
L 155.93472 338.911735 
L 157.82976 338.911735 
L 159.7248 334.5247 
L 163.51488 334.5247 
L 165.40992 332.893623 
L 169.2 332.893623 
L 171.09504 330.700106 
L 172.99008 329.069029 
L 186.25536 329.069029 
L 188.1504 326.875512 
L 190.04544 326.875512 
L 193.83552 322.488477 
L 195.73056 322.488477 
L 197.6256 320.857401 
L 201.41568 320.857401 
L 203.31072 318.663883 
L 207.1008 318.663883 
L 208.99584 314.839289 
L 210.89088 313.208212 
L 218.47104 313.208212 
L 220.36608 311.577135 
L 224.15616 311.577135 
L 227.94624 308.314981 
L 229.84128 308.314981 
L 231.73632 304.490387 
L 235.5264 304.490387 
L 237.42144 302.29687 
L 245.0016 302.29687 
L 246.89664 300.103353 
L 248.79168 298.472276 
L 252.58176 298.472276 
L 254.4768 296.841199 
L 263.952 296.841199 
L 265.84704 295.210122 
L 271.53216 295.210122 
L 273.4272 291.385528 
L 277.21728 291.385528 
L 279.11232 289.192011 
L 284.79744 289.192011 
L 286.69248 284.804976 
L 299.95776 284.804976 
L 301.8528 283.173899 
L 303.74784 279.349305 
L 309.43296 279.349305 
L 311.328 277.718228 
L 317.01312 277.718228 
L 320.8032 274.456074 
L 324.59328 274.456074 
L 326.48832 272.262557 
L 328.38336 266.806886 
L 334.06848 266.806886 
L 335.96352 265.175809 
L 337.85856 262.982292 
L 339.7536 259.157698 
L 341.64864 259.157698 
L 343.54368 256.96418 
L 345.43872 251.508509 
L 356.80896 251.508509 
L 358.704 249.314992 
L 360.59904 249.314992 
L 362.49408 247.121475 
L 366.28416 247.121475 
L 370.07424 243.859321 
L 375.75936 243.859321 
L 377.6544 241.665804 
L 385.23456 241.665804 
L 387.1296 239.472286 
L 389.02464 233.454175 
L 394.70976 233.454175 
L 396.6048 231.260658 
L 398.49984 229.629581 
L 400.39488 227.436064 
L 402.28992 227.436064 
L 406.08 223.049029 
L 407.97504 217.593358 
L 411.76512 214.331204 
L 413.66016 211.06905 
L 415.5552 211.06905 
L 417.45024 209.437973 
L 421.24032 209.437973 
L 425.0304 206.17582 
L 426.92544 200.720149 
L 428.82048 196.333114 
L 432.61056 196.333114 
L 434.5056 193.07096 
L 438.29568 193.07096 
L 440.19072 189.808806 
L 443.9808 189.808806 
L 445.87584 187.615289 
L 457.24608 187.615289 
L 459.14112 185.984212 
L 474.30144 185.984212 
L 476.19648 182.159618 
L 479.98656 182.159618 
L 481.8816 179.966101 
L 487.56672 179.966101 
L 491.3568 176.703947 
L 498.93696 176.703947 
L 500.832 173.441793 
L 504.62208 173.441793 
L 506.51712 171.810716 
L 512.20224 171.810716 
L 514.09728 170.179639 
L 521.67744 170.179639 
L 523.57248 168.548562 
L 525.46752 168.548562 
L 527.36256 166.917485 
L 536.83776 166.917485 
L 544.41792 160.393178 
L 546.31296 158.19966 
L 555.78816 158.19966 
L 557.6832 156.006143 
L 574.73856 156.006143 
L 576.6336 152.743989 
L 578.52864 152.743989 
L 580.42368 151.112912 
L 586.1088 151.112912 
L 588.00384 149.481836 
L 589.89888 149.481836 
L 591.79392 147.850759 
L 593.68896 145.657241 
L 595.584 145.657241 
L 597.47904 143.463724 
L 603.16416 143.463724 
L 605.0592 141.832647 
L 612.63936 141.832647 
L 614.5344 139.63913 
L 616.42944 138.008053 
L 625.90464 138.008053 
L 627.79968 136.376976 
L 639.16992 136.376976 
L 641.06496 134.183459 
L 642.96 132.552382 
L 642.96 132.552382 
" clip-path="url(#pe9c3c0774e)" style="fill: none; stroke: #252525; stroke-width: 2.5; stroke-linecap: square"/>
   </g>
   <g id="line2d_28">
    <path d="M 74.448 348.192 
L 178.6752 348.192 
L 182.46528 343.804966 
L 207.1008 343.804966 
L 208.99584 341.611448 
L 216.576 341.611448 
L 218.47104 339.417931 
L 231.73632 339.417931 
L 233.63136 337.224414 
L 243.10656 337.224414 
L 245.0016 335.030897 
L 252.58176 335.030897 
L 256.37184 330.643862 
L 260.16192 330.643862 
L 263.952 326.256828 
L 269.63712 326.256828 
L 271.53216 324.06331 
L 273.4272 324.06331 
L 275.32224 321.869793 
L 294.27264 321.869793 
L 298.06272 313.095724 
L 299.95776 310.902207 
L 317.01312 310.902207 
L 318.90816 308.70869 
L 328.38336 308.70869 
L 330.2784 302.128138 
L 347.33376 302.128138 
L 349.2288 297.741103 
L 360.59904 297.741103 
L 362.49408 291.160552 
L 368.1792 291.160552 
L 370.07424 288.967034 
L 375.75936 288.967034 
L 377.6544 286.773517 
L 390.91968 286.773517 
L 392.81472 284.58 
L 394.70976 284.58 
L 398.49984 280.192966 
L 400.39488 273.612414 
L 402.28992 273.612414 
L 404.18496 271.418897 
L 407.97504 271.418897 
L 411.76512 267.031862 
L 415.5552 267.031862 
L 419.34528 262.644828 
L 426.92544 262.644828 
L 430.71552 258.257793 
L 432.61056 254.995639 
L 434.5056 254.995639 
L 436.40064 253.364562 
L 438.29568 251.171045 
L 457.24608 251.171045 
L 461.03616 246.784011 
L 462.9312 245.152934 
L 464.82624 242.959416 
L 466.72128 242.959416 
L 468.61632 241.32834 
L 472.4064 241.32834 
L 474.30144 239.134822 
L 481.8816 239.134822 
L 483.77664 237.503745 
L 491.3568 237.503745 
L 493.25184 235.310228 
L 504.62208 235.310228 
L 506.51712 233.116711 
L 508.41216 233.116711 
L 510.3072 230.923194 
L 512.20224 230.923194 
L 514.09728 228.729676 
L 521.67744 228.729676 
L 523.57248 226.536159 
L 529.2576 226.536159 
L 531.15264 224.342642 
L 559.57824 224.342642 
L 561.47328 222.711565 
L 576.6336 222.711565 
L 578.52864 221.080488 
L 582.31872 221.080488 
L 584.21376 218.886971 
L 589.89888 218.886971 
L 591.79392 217.255894 
L 595.584 217.255894 
L 597.47904 215.062377 
L 610.74432 215.062377 
L 612.63936 213.4313 
L 614.5344 213.4313 
L 616.42944 211.800223 
L 618.32448 211.800223 
L 620.21952 207.975629 
L 622.11456 207.975629 
L 624.0096 206.344552 
L 631.58976 206.344552 
L 633.4848 204.713475 
L 642.96 204.713475 
L 642.96 204.713475 
" clip-path="url(#pe9c3c0774e)" style="fill: none; stroke: #3b83b4; stroke-width: 1.35; stroke-linecap: square"/>
   </g>
   <g id="line2d_29">
    <path d="M 74.448 348.192 
L 125.61408 348.192 
L 127.50912 346.560923 
L 161.61984 346.560923 
L 163.51488 344.929846 
L 171.09504 344.929846 
L 172.99008 343.298769 
L 174.88512 343.298769 
L 176.78016 341.667692 
L 182.46528 341.667692 
L 184.36032 340.036615 
L 186.25536 337.843098 
L 188.1504 336.212021 
L 195.73056 336.212021 
L 197.6256 334.018504 
L 205.20576 334.018504 
L 207.1008 331.824987 
L 208.99584 331.824987 
L 210.89088 326.931756 
L 224.15616 326.931756 
L 226.0512 325.300679 
L 227.94624 322.038525 
L 229.84128 320.407448 
L 231.73632 320.407448 
L 233.63136 317.145294 
L 235.5264 317.145294 
L 239.31648 313.883141 
L 243.10656 313.883141 
L 245.0016 312.252064 
L 260.16192 312.252064 
L 262.05696 310.058546 
L 263.952 308.427469 
L 265.84704 308.427469 
L 267.74208 306.796393 
L 269.63712 303.534239 
L 271.53216 303.534239 
L 273.4272 300.272085 
L 275.32224 298.641008 
L 277.21728 296.447491 
L 279.11232 296.447491 
L 281.00736 294.816414 
L 294.27264 294.816414 
L 296.16768 292.622897 
L 298.06272 290.99182 
L 299.95776 290.99182 
L 303.74784 287.729666 
L 307.53792 287.729666 
L 311.328 284.467512 
L 313.22304 284.467512 
L 315.11808 282.836435 
L 317.01312 282.836435 
L 318.90816 281.205358 
L 322.69824 281.205358 
L 324.59328 279.574281 
L 326.48832 276.312127 
L 328.38336 274.68105 
L 330.2784 274.68105 
L 332.17344 273.049973 
L 334.06848 269.78782 
L 335.96352 269.78782 
L 337.85856 268.156743 
L 339.7536 268.156743 
L 341.64864 265.963225 
L 343.54368 265.963225 
L 345.43872 264.332149 
L 347.33376 259.945114 
L 349.2288 258.314037 
L 351.12384 254.489443 
L 353.01888 252.858366 
L 354.91392 252.858366 
L 360.59904 247.965135 
L 362.49408 245.771618 
L 364.38912 245.771618 
L 366.28416 240.878387 
L 368.1792 239.24731 
L 370.07424 239.24731 
L 371.96928 237.616233 
L 375.75936 233.229199 
L 381.44448 233.229199 
L 383.33952 231.035682 
L 385.23456 227.211088 
L 389.02464 223.948934 
L 404.18496 223.948934 
L 406.08 221.755416 
L 411.76512 221.755416 
L 413.66016 220.12434 
L 415.5552 220.12434 
L 417.45024 218.493263 
L 426.92544 218.493263 
L 428.82048 216.299745 
L 430.71552 216.299745 
L 432.61056 214.668668 
L 440.19072 214.668668 
L 442.08576 213.037592 
L 445.87584 213.037592 
L 447.77088 211.406515 
L 449.66592 211.406515 
L 451.56096 209.775438 
L 455.35104 209.775438 
L 457.24608 205.950844 
L 466.72128 205.950844 
L 472.4064 201.057613 
L 476.19648 201.057613 
L 478.09152 198.864095 
L 479.98656 197.233019 
L 481.8816 197.233019 
L 485.67168 193.970865 
L 487.56672 193.970865 
L 489.46176 192.339788 
L 491.3568 190.146271 
L 508.41216 190.146271 
L 510.3072 188.515194 
L 512.20224 184.128159 
L 519.7824 184.128159 
L 521.67744 180.866005 
L 523.57248 176.478971 
L 525.46752 174.285454 
L 529.2576 174.285454 
L 531.15264 172.091936 
L 550.10304 172.091936 
L 551.99808 169.898419 
L 553.89312 169.898419 
L 555.78816 167.704902 
L 572.84352 167.704902 
L 574.73856 163.317867 
L 576.6336 161.12435 
L 580.42368 161.12435 
L 582.31872 159.493273 
L 584.21376 157.299756 
L 591.79392 157.299756 
L 595.584 152.912721 
L 599.37408 152.912721 
L 601.26912 148.525687 
L 606.95424 148.525687 
L 608.84928 146.33217 
L 614.5344 146.33217 
L 616.42944 144.701093 
L 618.32448 144.701093 
L 620.21952 142.507576 
L 625.90464 142.507576 
L 627.79968 140.314058 
L 642.96 140.314058 
L 642.96 140.314058 
" clip-path="url(#pe9c3c0774e)" style="fill: none; stroke-dasharray: 4.995,2.16; stroke-dashoffset: 0; stroke: #c38a19; stroke-width: 1.35"/>
   </g>
   <g id="line2d_30">
    <path d="M 74.448 348.192 
L 131.2992 348.192 
L 133.19424 345.998483 
L 135.08928 345.998483 
L 136.98432 344.367406 
L 154.03968 344.367406 
L 155.93472 342.736329 
L 167.30496 342.736329 
L 169.2 341.105252 
L 188.1504 341.105252 
L 190.04544 338.911735 
L 191.94048 337.280658 
L 216.576 337.280658 
L 218.47104 335.087141 
L 231.73632 335.087141 
L 237.42144 330.19391 
L 248.79168 330.19391 
L 250.68672 328.000393 
L 267.74208 328.000393 
L 271.53216 323.613358 
L 273.4272 321.982281 
L 275.32224 321.982281 
L 277.21728 319.788764 
L 281.00736 319.788764 
L 282.9024 318.157687 
L 286.69248 318.157687 
L 288.58752 315.96417 
L 296.16768 315.96417 
L 298.06272 314.333093 
L 299.95776 311.070939 
L 301.8528 311.070939 
L 303.74784 306.683905 
L 305.64288 305.052828 
L 307.53792 305.052828 
L 309.43296 301.790674 
L 311.328 299.597156 
L 315.11808 299.597156 
L 317.01312 297.403639 
L 318.90816 297.403639 
L 320.8032 295.210122 
L 328.38336 295.210122 
L 330.2784 293.579045 
L 332.17344 293.579045 
L 334.06848 290.316891 
L 335.96352 285.42366 
L 341.64864 285.42366 
L 343.54368 283.792584 
L 347.33376 283.792584 
L 349.2288 282.161507 
L 353.01888 275.637199 
L 362.49408 275.637199 
L 364.38912 273.443682 
L 370.07424 273.443682 
L 371.96928 271.812605 
L 373.86432 266.356934 
L 392.81472 266.356934 
L 394.70976 264.163416 
L 396.6048 262.53234 
L 402.28992 262.53234 
L 404.18496 260.901263 
L 409.87008 260.901263 
L 413.66016 257.639109 
L 425.0304 257.639109 
L 426.92544 256.008032 
L 428.82048 253.814515 
L 430.71552 252.183438 
L 432.61056 249.98992 
L 434.5056 248.358844 
L 436.40064 248.358844 
L 442.08576 243.465613 
L 443.9808 238.009942 
L 447.77088 238.009942 
L 449.66592 234.185347 
L 453.456 229.798313 
L 455.35104 229.798313 
L 457.24608 227.604796 
L 461.03616 227.604796 
L 462.9312 222.711565 
L 464.82624 222.711565 
L 466.72128 221.080488 
L 470.51136 221.080488 
L 472.4064 217.255894 
L 476.19648 213.99374 
L 478.09152 211.800223 
L 479.98656 211.800223 
L 481.8816 209.606706 
L 487.56672 209.606706 
L 489.46176 202.519958 
L 491.3568 202.519958 
L 493.25184 194.870769 
L 495.14688 191.046175 
L 497.04192 189.415098 
L 498.93696 189.415098 
L 500.832 187.784021 
L 510.3072 187.784021 
L 512.20224 186.152944 
L 531.15264 186.152944 
L 533.04768 183.959427 
L 534.94272 183.959427 
L 536.83776 180.697273 
L 540.62784 180.697273 
L 544.41792 176.310239 
L 546.31296 176.310239 
L 548.208 171.923204 
L 551.99808 171.923204 
L 553.89312 170.292127 
L 557.6832 170.292127 
L 559.57824 168.66105 
L 569.05344 168.66105 
L 570.94848 164.836456 
L 574.73856 160.449422 
L 576.6336 160.449422 
L 582.31872 155.556191 
L 591.79392 155.556191 
L 593.68896 153.925114 
L 595.584 151.731597 
L 597.47904 147.907003 
L 606.95424 147.907003 
L 608.84928 145.713485 
L 610.74432 145.713485 
L 614.5344 142.451332 
L 624.0096 142.451332 
L 625.90464 140.820255 
L 629.69472 140.820255 
L 631.58976 139.189178 
L 642.96 139.189178 
L 642.96 139.189178 
" clip-path="url(#pe9c3c0774e)" style="fill: none; stroke-dasharray: 1.35,2.2275; stroke-dashoffset: 0; stroke: #7d8a92; stroke-width: 1.35"/>
   </g>
   <g id="line2d_31">
    <path d="M 74.448 348.192 
L 180.57024 348.192 
L 182.46528 345.998483 
L 417.45024 345.998483 
L 419.34528 343.804966 
L 426.92544 343.804966 
L 428.82048 339.980371 
L 438.29568 339.980371 
L 440.19072 337.786854 
L 462.9312 337.786854 
L 464.82624 335.593337 
L 500.832 335.593337 
L 502.72704 333.39982 
L 523.57248 333.39982 
L 525.46752 331.206302 
L 529.2576 331.206302 
L 531.15264 329.012785 
L 546.31296 329.012785 
L 548.208 326.819268 
L 559.57824 326.819268 
L 561.47328 324.625751 
L 582.31872 324.625751 
L 584.21376 322.432233 
L 601.26912 322.432233 
L 603.16416 320.238716 
L 618.32448 320.238716 
L 622.11456 315.851682 
L 624.0096 315.851682 
L 625.90464 313.658164 
L 627.79968 313.658164 
L 629.69472 311.464647 
L 642.96 311.464647 
L 642.96 311.464647 
" clip-path="url(#pe9c3c0774e)" style="fill: none; stroke-dasharray: 8.64,2.16,1.35,2.16; stroke-dashoffset: 0; stroke: #d0526a; stroke-width: 1.35"/>
   </g>
   <g id="line2d_32">
    <path d="M 74.448 348.192 
L 220.36608 348.192 
L 222.26112 345.998483 
L 231.73632 345.998483 
L 233.63136 343.804966 
L 245.0016 343.804966 
L 246.89664 339.417931 
L 265.84704 339.417931 
L 269.63712 335.030897 
L 279.11232 335.030897 
L 281.00736 332.837379 
L 290.48256 332.837379 
L 292.3776 330.643862 
L 326.48832 330.643862 
L 328.38336 328.450345 
L 335.96352 328.450345 
L 337.85856 326.256828 
L 339.7536 326.256828 
L 341.64864 324.06331 
L 343.54368 324.06331 
L 345.43872 321.869793 
L 347.33376 321.869793 
L 349.2288 317.482759 
L 370.07424 317.482759 
L 373.86432 313.095724 
L 375.75936 313.095724 
L 377.6544 310.902207 
L 379.54944 310.902207 
L 383.33952 306.515172 
L 385.23456 306.515172 
L 387.1296 304.321655 
L 389.02464 304.321655 
L 392.81472 299.934621 
L 398.49984 299.934621 
L 400.39488 297.741103 
L 411.76512 297.741103 
L 413.66016 295.547586 
L 421.24032 295.547586 
L 423.13536 293.354069 
L 426.92544 293.354069 
L 428.82048 291.160552 
L 430.71552 291.160552 
L 432.61056 289.529475 
L 436.40064 289.529475 
L 442.08576 282.948923 
L 449.66592 282.948923 
L 451.56096 280.755406 
L 453.456 280.755406 
L 455.35104 278.561889 
L 462.9312 278.561889 
L 464.82624 274.737294 
L 468.61632 274.737294 
L 470.51136 272.543777 
L 472.4064 272.543777 
L 476.19648 268.156743 
L 479.98656 268.156743 
L 481.8816 265.963225 
L 485.67168 265.963225 
L 487.56672 263.769708 
L 489.46176 259.945114 
L 493.25184 255.55808 
L 495.14688 255.55808 
L 497.04192 253.364562 
L 502.72704 253.364562 
L 504.62208 251.171045 
L 506.51712 249.539968 
L 515.99232 249.539968 
L 519.7824 246.277814 
L 521.67744 246.277814 
L 523.57248 244.084297 
L 531.15264 244.084297 
L 533.04768 241.89078 
L 550.10304 241.89078 
L 551.99808 239.697263 
L 559.57824 239.697263 
L 561.47328 237.503745 
L 565.26336 237.503745 
L 567.1584 235.310228 
L 572.84352 235.310228 
L 576.6336 230.923194 
L 586.1088 230.923194 
L 588.00384 228.729676 
L 599.37408 228.729676 
L 601.26912 226.536159 
L 603.16416 226.536159 
L 605.0592 224.905082 
L 616.42944 224.905082 
L 618.32448 222.711565 
L 624.0096 222.711565 
L 625.90464 220.518048 
L 629.69472 220.518048 
L 633.4848 217.255894 
L 635.37984 215.062377 
L 642.96 215.062377 
L 642.96 215.062377 
" clip-path="url(#pe9c3c0774e)" style="fill: none; stroke-dasharray: 6.75,2.7,1.35,2.7; stroke-dashoffset: 0; stroke: #2f8f84; stroke-width: 1.35"/>
   </g>
   <g id="patch_4">
    <path d="M 74.448 348.192 
L 74.448 93.744 
" style="fill: none; stroke: #000000; stroke-width: 0.8; stroke-linejoin: miter; stroke-linecap: square"/>
   </g>
   <g id="patch_5">
    <path d="M 74.448 348.192 
L 642.96 348.192 
" style="fill: none; stroke: #000000; stroke-width: 0.8; stroke-linejoin: miter; stroke-linecap: square"/>
   </g>
  </g>
  <g id="text_16">
   <text style="font: 18px 'DejaVu Sans', 'Bitstream Vera Sans', 'Computer Modern Sans Serif', 'Lucida Grande', 'Verdana', 'Geneva', 'Lucid', 'Arial', 'Helvetica', 'Avant Garde', sans-serif; text-anchor: start" x="74.448" y="38.229188" transform="rotate(-0 74.448 38.229188)">LED-BH1 Direct</text>
  </g>
  <g id="text_17">
   <text style="fill: #66747c; font: 10px 'DejaVu Sans', 'Bitstream Vera Sans', 'Computer Modern Sans Serif', 'Lucida Grande', 'Verdana', 'Geneva', 'Lucid', 'Arial', 'Helvetica', 'Avant Garde', sans-serif; text-anchor: start" x="74.448" y="64.728" transform="rotate(-0 74.448 64.728)">WLED LCD</text>
  </g>
  <g id="legend_1">
   <g id="line2d_33">
    <path d="M 185.17875 404.151391 
L 194.27875 404.151391 
L 203.37875 404.151391 
" style="fill: none; stroke: #252525; stroke-width: 2.5; stroke-linecap: square"/>
   </g>
   <g id="text_18">
    <text style="font: 9.1px 'DejaVu Sans', 'Bitstream Vera Sans', 'Computer Modern Sans Serif', 'Lucida Grande', 'Verdana', 'Geneva', 'Lucid', 'Arial', 'Helvetica', 'Avant Garde', sans-serif; text-anchor: start" x="210.65875" y="407.336391" transform="rotate(-0 210.65875 407.336391)">Potera CMF</text>
   </g>
   <g id="line2d_34">
    <path d="M 185.17875 417.508484 
L 194.27875 417.508484 
L 203.37875 417.508484 
" style="fill: none; stroke: #3b83b4; stroke-width: 1.35; stroke-linecap: square"/>
   </g>
   <g id="text_19">
    <text style="font: 9.1px 'DejaVu Sans', 'Bitstream Vera Sans', 'Computer Modern Sans Serif', 'Lucida Grande', 'Verdana', 'Geneva', 'Lucid', 'Arial', 'Helvetica', 'Avant Garde', sans-serif; text-anchor: start" x="210.65875" y="420.693484" transform="rotate(-0 210.65875 420.693484)">CIE 2015 2°</text>
   </g>
   <g id="line2d_35">
    <path d="M 282.931234 404.151391 
L 292.031234 404.151391 
L 301.131234 404.151391 
" style="fill: none; stroke-dasharray: 4.995,2.16; stroke-dashoffset: 0; stroke: #c38a19; stroke-width: 1.35"/>
   </g>
   <g id="text_20">
    <text style="font: 9.1px 'DejaVu Sans', 'Bitstream Vera Sans', 'Computer Modern Sans Serif', 'Lucida Grande', 'Verdana', 'Geneva', 'Lucid', 'Arial', 'Helvetica', 'Avant Garde', sans-serif; text-anchor: start" x="308.411234" y="407.336391" transform="rotate(-0 308.411234 407.336391)">CIE 2015 10°</text>
   </g>
   <g id="line2d_36">
    <path d="M 282.931234 417.508484 
L 292.031234 417.508484 
L 301.131234 417.508484 
" style="fill: none; stroke-dasharray: 1.35,2.2275; stroke-dashoffset: 0; stroke: #7d8a92; stroke-width: 1.35"/>
   </g>
   <g id="text_21">
    <text style="font: 9.1px 'DejaVu Sans', 'Bitstream Vera Sans', 'Computer Modern Sans Serif', 'Lucida Grande', 'Verdana', 'Geneva', 'Lucid', 'Arial', 'Helvetica', 'Avant Garde', sans-serif; text-anchor: start" x="308.411234" y="420.693484" transform="rotate(-0 308.411234 420.693484)">CIE 1964 10°</text>
   </g>
   <g id="line2d_37">
    <path d="M 386.473594 404.151391 
L 395.573594 404.151391 
L 404.673594 404.151391 
" style="fill: none; stroke-dasharray: 8.64,2.16,1.35,2.16; stroke-dashoffset: 0; stroke: #d0526a; stroke-width: 1.35"/>
   </g>
   <g id="text_22">
    <text style="font: 9.1px 'DejaVu Sans', 'Bitstream Vera Sans', 'Computer Modern Sans Serif', 'Lucida Grande', 'Verdana', 'Geneva', 'Lucid', 'Arial', 'Helvetica', 'Avant Garde', sans-serif; text-anchor: start" x="411.953594" y="407.336391" transform="rotate(-0 411.953594 407.336391)">CIE 1931 2°</text>
   </g>
   <g id="line2d_38">
    <path d="M 386.473594 417.508484 
L 395.573594 417.508484 
L 404.673594 417.508484 
" style="fill: none; stroke-dasharray: 6.75,2.7,1.35,2.7; stroke-dashoffset: 0; stroke: #2f8f84; stroke-width: 1.35"/>
   </g>
   <g id="text_23">
    <text style="font: 9.1px 'DejaVu Sans', 'Bitstream Vera Sans', 'Computer Modern Sans Serif', 'Lucida Grande', 'Verdana', 'Geneva', 'Lucid', 'Arial', 'Helvetica', 'Avant Garde', sans-serif; text-anchor: start" x="411.953594" y="420.693484" transform="rotate(-0 411.953594 420.693484)">Judd–Vos 1978 2°</text>
   </g>
  </g>
 </g>
 <defs>
  <clipPath id="pe9c3c0774e">
   <rect x="74.448" y="93.744" width="568.512" height="254.448"/>
  </clipPath>
 </defs>
</svg>
