<?xml version="1.0" encoding="utf-8" standalone="no"?>
<!DOCTYPE svg PUBLIC "-//W3C//DTD SVG 1.1//EN"
  "http://www.w3.org/Graphics/SVG/1.1/DTD/svg11.dtd">
<svg xmlns:xlink="http://www.w3.org/1999/xlink" width="676.8pt" height="446.4pt" viewBox="0 0 676.8 446.4" xmlns="http://www.w3.org/2000/svg" version="1.1">
 <metadata>
  <rdf:RDF xmlns:dc="http://purl.org/dc/elements/1.1/" xmlns:cc="http://creativecommons.org/ns#" xmlns:rdf="http://www.w3.org/1999/02/22-rdf-syntax-ns#">
   <cc:Work>
    <dc:type rdf:resource="http://purl.org/dc/dcmitype/StillImage"/>
    <dc:date>2026-07-20T06:41:57.348284</dc:date>
    <dc:format>image/svg+xml</dc:format>
    <dc:creator>
     <cc:Agent>
      <dc:title>Matplotlib v3.9.4, https://matplotlib.org/</dc:title>
     </cc:Agent>
    </dc:creator>
   </cc:Work>
  </rdf:RDF>
 </metadata>
 <defs>
  <style type="text/css">*{stroke-linejoin: round; stroke-linecap: butt}</style>
 </defs>
 <g id="figure_1">
  <g id="patch_1">
   <path d="M 0 446.4 
L 676.8 446.4 
L 676.8 0 
L 0 0 
z
" style="fill: #ffffff"/>
  </g>
  <g id="axes_1">
   <g id="patch_2">
    <path d="M 74.448 348.192 
L 642.96 348.192 
L 642.96 93.744 
L 74.448 93.744 
z
" style="fill: #ffffff"/>
   </g>
   <g id="patch_3">
    <path d="M 169.2 348.192 
L 358.704 348.192 
L 358.704 93.744 
L 169.2 93.744 
z
" clip-path="url(#pcd529bca83)" style="fill: #e7f0ea; opacity: 0.58; stroke: #e7f0ea; stroke-linejoin: miter"/>
   </g>
   <g id="matplotlib.axis_1">
    <g id="xtick_1">
     <g id="line2d_1">
      <path d="M 74.448 348.192 
L 74.448 93.744 
" clip-path="url(#pcd529bca83)" style="fill: none; stroke: #dfe5e8; stroke-width: 0.65; stroke-linecap: square"/>
     </g>
     <g id="line2d_2">
      <defs>
       <path id="m56a48fcab1" d="M 0 0 
L 0 3.5 
" style="stroke: #000000; stroke-width: 0.8"/>
      </defs>
      <g>
       <use xlink:href="#m56a48fcab1" x="74.448" y="348.192" style="stroke: #000000; stroke-width: 0.8"/>
      </g>
     </g>
     <g id="text_1">
      <text style="font: 10px 'DejaVu Sans', 'Bitstream Vera Sans', 'Computer Modern Sans Serif', 'Lucida Grande', 'Verdana', 'Geneva', 'Lucid', 'Arial', 'Helvetica', 'Avant Garde', sans-serif; text-anchor: middle" x="74.448" y="362.790438" transform="rotate(-0 74.448 362.790438)">0</text>
     </g>
    </g>
    <g id="xtick_2">
     <g id="line2d_3">
      <path d="M 169.2 348.192 
L 169.2 93.744 
" clip-path="url(#pcd529bca83)" style="fill: none; stroke: #dfe5e8; stroke-width: 0.65; stroke-linecap: square"/>
     </g>
     <g id="line2d_4">
      <g>
       <use xlink:href="#m56a48fcab1" x="169.2" y="348.192" style="stroke: #000000; stroke-width: 0.8"/>
      </g>
     </g>
     <g id="text_2">
      <text style="font: 10px 'DejaVu Sans', 'Bitstream Vera Sans', 'Computer Modern Sans Serif', 'Lucida Grande', 'Verdana', 'Geneva', 'Lucid', 'Arial', 'Helvetica', 'Avant Garde', sans-serif; text-anchor: middle" x="169.2" y="362.790438" transform="rotate(-0 169.2 362.790438)">1</text>
     </g>
    </g>
    <g id="xtick_3">
     <g id="line2d_5">
      <path d="M 263.952 348.192 
L 263.952 93.744 
" clip-path="url(#pcd529bca83)" style="fill: none; stroke: #dfe5e8; stroke-width: 0.65; stroke-linecap: square"/>
     </g>
     <g id="line2d_6">
      <g>
       <use xlink:href="#m56a48fcab1" x="263.952" y="348.192" style="stroke: #000000; stroke-width: 0.8"/>
      </g>
     </g>
     <g id="text_3">
      <text style="font: 10px 'DejaVu Sans', 'Bitstream Vera Sans', 'Computer Modern Sans Serif', 'Lucida Grande', 'Verdana', 'Geneva', 'Lucid', 'Arial', 'Helvetica', 'Avant Garde', sans-serif; text-anchor: middle" x="263.952" y="362.790438" transform="rotate(-0 263.952 362.790438)">2</text>
     </g>
    </g>
    <g id="xtick_4">
     <g id="line2d_7">
      <path d="M 358.704 348.192 
L 358.704 93.744 
" clip-path="url(#pcd529bca83)" style="fill: none; stroke: #dfe5e8; stroke-width: 0.65; stroke-linecap: square"/>
     </g>
     <g id="line2d_8">
      <g>
       <use xlink:href="#m56a48fcab1" x="358.704" y="348.192" style="stroke: #000000; stroke-width: 0.8"/>
      </g>
     </g>
     <g id="text_4">
      <text style="font: 10px 'DejaVu Sans', 'Bitstream Vera Sans', 'Computer Modern Sans Serif', 'Lucida Grande', 'Verdana', 'Geneva', 'Lucid', 'Arial', 'Helvetica', 'Avant Garde', sans-serif; text-anchor: middle" x="358.704" y="362.790438" transform="rotate(-0 358.704 362.790438)">3</text>
     </g>
    </g>
    <g id="xtick_5">
     <g id="line2d_9">
      <path d="M 453.456 348.192 
L 453.456 93.744 
" clip-path="url(#pcd529bca83)" style="fill: none; stroke: #dfe5e8; stroke-width: 0.65; stroke-linecap: square"/>
     </g>
     <g id="line2d_10">
      <g>
       <use xlink:href="#m56a48fcab1" x="453.456" y="348.192" style="stroke: #000000; stroke-width: 0.8"/>
      </g>
     </g>
     <g id="text_5">
      <text style="font: 10px 'DejaVu Sans', 'Bitstream Vera Sans', 'Computer Modern Sans Serif', 'Lucida Grande', 'Verdana', 'Geneva', 'Lucid', 'Arial', 'Helvetica', 'Avant Garde', sans-serif; text-anchor: middle" x="453.456" y="362.790438" transform="rotate(-0 453.456 362.790438)">4</text>
     </g>
    </g>
    <g id="xtick_6">
     <g id="line2d_11">
      <path d="M 548.208 348.192 
L 548.208 93.744 
" clip-path="url(#pcd529bca83)" style="fill: none; stroke: #dfe5e8; stroke-width: 0.65; stroke-linecap: square"/>
     </g>
     <g id="line2d_12">
      <g>
       <use xlink:href="#m56a48fcab1" x="548.208" y="348.192" style="stroke: #000000; stroke-width: 0.8"/>
      </g>
     </g>
     <g id="text_6">
      <text style="font: 10px 'DejaVu Sans', 'Bitstream Vera Sans', 'Computer Modern Sans Serif', 'Lucida Grande', 'Verdana', 'Geneva', 'Lucid', 'Arial', 'Helvetica', 'Avant Garde', sans-serif; text-anchor: middle" x="548.208" y="362.790438" transform="rotate(-0 548.208 362.790438)">5</text>
     </g>
    </g>
    <g id="xtick_7">
     <g id="line2d_13">
      <path d="M 642.96 348.192 
L 642.96 93.744 
" clip-path="url(#pcd529bca83)" style="fill: none; stroke: #dfe5e8; stroke-width: 0.65; stroke-linecap: square"/>
     </g>
     <g id="line2d_14">
      <g>
       <use xlink:href="#m56a48fcab1" x="642.96" y="348.192" style="stroke: #000000; stroke-width: 0.8"/>
      </g>
     </g>
     <g id="text_7">
      <text style="font: 10px 'DejaVu Sans', 'Bitstream Vera Sans', 'Computer Modern Sans Serif', 'Lucida Grande', 'Verdana', 'Geneva', 'Lucid', 'Arial', 'Helvetica', 'Avant Garde', sans-serif; text-anchor: middle" x="642.96" y="362.790438" transform="rotate(-0 642.96 362.790438)">6</text>
     </g>
    </g>
    <g id="text_8">
     <text style="font: 10px 'DejaVu Sans', 'Bitstream Vera Sans', 'Computer Modern Sans Serif', 'Lucida Grande', 'Verdana', 'Geneva', 'Lucid', 'Arial', 'Helvetica', 'Avant Garde', sans-serif; text-anchor: middle" x="358.704" y="376.468563" transform="rotate(-0 358.704 376.468563)">sUCS dE threshold</text>
    </g>
   </g>
   <g id="matplotlib.axis_2">
    <g id="ytick_1">
     <g id="line2d_15">
      <path d="M 74.448 348.192 
L 642.96 348.192 
" clip-path="url(#pcd529bca83)" style="fill: none; stroke: #dfe5e8; stroke-width: 0.65; stroke-linecap: square"/>
     </g>
     <g id="line2d_16">
      <defs>
       <path id="m9b9279866b" d="M 0 0 
L -3.5 0 
" style="stroke: #000000; stroke-width: 0.8"/>
      </defs>
      <g>
       <use xlink:href="#m9b9279866b" x="74.448" y="348.192" style="stroke: #000000; stroke-width: 0.8"/>
      </g>
     </g>
     <g id="text_9">
      <text style="font: 10px 'DejaVu Sans', 'Bitstream Vera Sans', 'Computer Modern Sans Serif', 'Lucida Grande', 'Verdana', 'Geneva', 'Lucid', 'Arial', 'Helvetica', 'Avant Garde', sans-serif; text-anchor: end" x="67.448" y="351.991219" transform="rotate(-0 67.448 351.991219)">0</text>
     </g>
    </g>
    <g id="ytick_2">
     <g id="line2d_17">
      <path d="M 74.448 297.3024 
L 642.96 297.3024 
" clip-path="url(#pcd529bca83)" style="fill: none; stroke: #dfe5e8; stroke-width: 0.65; stroke-linecap: square"/>
     </g>
     <g id="line2d_18">
      <g>
       <use xlink:href="#m9b9279866b" x="74.448" y="297.3024" style="stroke: #000000; stroke-width: 0.8"/>
      </g>
     </g>
     <g id="text_10">
      <text style="font: 10px 'DejaVu Sans', 'Bitstream Vera Sans', 'Computer Modern Sans Serif', 'Lucida Grande', 'Verdana', 'Geneva', 'Lucid', 'Arial', 'Helvetica', 'Avant Garde', sans-serif; text-anchor: end" x="67.448" y="301.101619" transform="rotate(-0 67.448 301.101619)">20</text>
     </g>
    </g>
    <g id="ytick_3">
     <g id="line2d_19">
      <path d="M 74.448 246.4128 
L 642.96 246.4128 
" clip-path="url(#pcd529bca83)" style="fill: none; stroke: #dfe5e8; stroke-width: 0.65; stroke-linecap: square"/>
     </g>
     <g id="line2d_20">
      <g>
       <use xlink:href="#m9b9279866b" x="74.448" y="246.4128" style="stroke: #000000; stroke-width: 0.8"/>
      </g>
     </g>
     <g id="text_11">
      <text style="font: 10px 'DejaVu Sans', 'Bitstream Vera Sans', 'Computer Modern Sans Serif', 'Lucida Grande', 'Verdana', 'Geneva', 'Lucid', 'Arial', 'Helvetica', 'Avant Garde', sans-serif; text-anchor: end" x="67.448" y="250.212019" transform="rotate(-0 67.448 250.212019)">40</text>
     </g>
    </g>
    <g id="ytick_4">
     <g id="line2d_21">
      <path d="M 74.448 195.5232 
L 642.96 195.5232 
" clip-path="url(#pcd529bca83)" style="fill: none; stroke: #dfe5e8; stroke-width: 0.65; stroke-linecap: square"/>
     </g>
     <g id="line2d_22">
      <g>
       <use xlink:href="#m9b9279866b" x="74.448" y="195.5232" style="stroke: #000000; stroke-width: 0.8"/>
      </g>
     </g>
     <g id="text_12">
      <text style="font: 10px 'DejaVu Sans', 'Bitstream Vera Sans', 'Computer Modern Sans Serif', 'Lucida Grande', 'Verdana', 'Geneva', 'Lucid', 'Arial', 'Helvetica', 'Avant Garde', sans-serif; text-anchor: end" x="67.448" y="199.322419" transform="rotate(-0 67.448 199.322419)">60</text>
     </g>
    </g>
    <g id="ytick_5">
     <g id="line2d_23">
      <path d="M 74.448 144.6336 
L 642.96 144.6336 
" clip-path="url(#pcd529bca83)" style="fill: none; stroke: #dfe5e8; stroke-width: 0.65; stroke-linecap: square"/>
     </g>
     <g id="line2d_24">
      <g>
       <use xlink:href="#m9b9279866b" x="74.448" y="144.6336" style="stroke: #000000; stroke-width: 0.8"/>
      </g>
     </g>
     <g id="text_13">
      <text style="font: 10px 'DejaVu Sans', 'Bitstream Vera Sans', 'Computer Modern Sans Serif', 'Lucida Grande', 'Verdana', 'Geneva', 'Lucid', 'Arial', 'Helvetica', 'Avant Garde', sans-serif; text-anchor: end" x="67.448" y="148.432819" transform="rotate(-0 67.448 148.432819)">80</text>
     </g>
    </g>
    <g id="ytick_6">
     <g id="line2d_25">
      <path d="M 74.448 93.744 
L 642.96 93.744 
" clip-path="url(#pcd529bca83)" style="fill: none; stroke: #dfe5e8; stroke-width: 0.65; stroke-linecap: square"/>
     </g>
     <g id="line2d_26">
      <g>
       <use xlink:href="#m9b9279866b" x="74.448" y="93.744" style="stroke: #000000; stroke-width: 0.8"/>
      </g>
     </g>
     <g id="text_14">
      <text style="font: 10px 'DejaVu Sans', 'Bitstream Vera Sans', 'Computer Modern Sans Serif', 'Lucida Grande', 'Verdana', 'Geneva', 'Lucid', 'Arial', 'Helvetica', 'Avant Garde', sans-serif; text-anchor: end" x="67.448" y="97.543219" transform="rotate(-0 67.448 97.543219)">100</text>
     </g>
    </g>
    <g id="text_15">
     <text style="font: 10px 'DejaVu Sans', 'Bitstream Vera Sans', 'Computer Modern Sans Serif', 'Lucida Grande', 'Verdana', 'Geneva', 'Lucid', 'Arial', 'Helvetica', 'Avant Garde', sans-serif; text-anchor: middle" x="42.280812" y="220.968" transform="rotate(-90 42.280812 220.968)">observers%</text>
    </g>
   </g>
   <g id="line2d_27">
    <path d="M 74.448 348.192 
L 108.55872 348.192 
L 110.45376 346.560923 
L 114.24384 346.560923 
L 116.13888 344.929846 
L 123.71904 344.929846 
L 125.61408 343.298769 
L 142.66944 343.298769 
L 146.45952 340.036615 
L 148.35456 337.843098 
L 154.03968 337.843098 
L 155.93472 335.649581 
L 157.82976 335.649581 
L 159.7248 333.456064 
L 161.61984 331.824987 
L 163.51488 329.631469 
L 167.30496 329.631469 
L 169.2 328.000393 
L 171.09504 325.806875 
L 172.99008 322.544721 
L 174.88512 322.544721 
L 176.78016 320.913645 
L 178.6752 316.52661 
L 180.57024 314.895533 
L 182.46528 314.895533 
L 184.36032 313.264456 
L 188.1504 313.264456 
L 190.04544 311.070939 
L 191.94048 311.070939 
L 195.73056 303.421751 
L 210.89088 303.421751 
L 214.68096 299.034716 
L 216.576 299.034716 
L 220.36608 294.647682 
L 227.94624 294.647682 
L 229.84128 293.016605 
L 231.73632 293.016605 
L 235.5264 289.754451 
L 239.31648 289.754451 
L 241.21152 288.123374 
L 245.0016 288.123374 
L 248.79168 283.73634 
L 250.68672 280.474186 
L 252.58176 278.280668 
L 254.4768 276.649592 
L 256.37184 276.649592 
L 260.16192 272.262557 
L 262.05696 270.63148 
L 263.952 270.63148 
L 265.84704 267.369326 
L 267.74208 267.369326 
L 269.63712 263.544732 
L 273.4272 260.282578 
L 277.21728 260.282578 
L 279.11232 258.651501 
L 281.00736 258.651501 
L 284.79744 255.389347 
L 286.69248 255.389347 
L 288.58752 252.127194 
L 290.48256 252.127194 
L 292.3776 247.740159 
L 298.06272 247.740159 
L 303.74784 241.159607 
L 305.64288 239.528531 
L 307.53792 234.072859 
L 309.43296 234.072859 
L 311.328 232.441782 
L 313.22304 230.248265 
L 315.11808 228.617188 
L 317.01312 228.617188 
L 318.90816 223.161517 
L 324.59328 223.161517 
L 326.48832 219.899363 
L 330.2784 216.63721 
L 332.17344 212.812615 
L 334.06848 210.619098 
L 335.96352 208.988021 
L 337.85856 208.988021 
L 339.7536 207.356944 
L 341.64864 202.96991 
L 345.43872 202.96991 
L 347.33376 201.338833 
L 349.2288 197.514239 
L 353.01888 194.252085 
L 356.80896 194.252085 
L 360.59904 189.86505 
L 364.38912 189.86505 
L 366.28416 186.040456 
L 368.1792 183.846939 
L 370.07424 180.022345 
L 383.33952 180.022345 
L 385.23456 178.391268 
L 387.1296 178.391268 
L 389.02464 176.197751 
L 392.81472 172.935597 
L 394.70976 169.673443 
L 396.6048 168.042366 
L 398.49984 168.042366 
L 400.39488 165.848849 
L 402.28992 165.848849 
L 404.18496 163.655332 
L 407.97504 163.655332 
L 409.87008 160.393178 
L 415.5552 160.393178 
L 417.45024 157.131024 
L 423.13536 157.131024 
L 425.0304 154.937507 
L 426.92544 154.937507 
L 428.82048 153.30643 
L 443.9808 153.30643 
L 445.87584 151.675353 
L 453.456 151.675353 
L 455.35104 150.044276 
L 457.24608 150.044276 
L 459.14112 147.850759 
L 466.72128 147.850759 
L 468.61632 146.219682 
L 470.51136 146.219682 
L 474.30144 141.832647 
L 478.09152 141.832647 
L 479.98656 138.570493 
L 483.77664 138.570493 
L 485.67168 135.30834 
L 487.56672 135.30834 
L 489.46176 133.677263 
L 495.14688 133.677263 
L 497.04192 131.483745 
L 498.93696 131.483745 
L 500.832 129.290228 
L 510.3072 129.290228 
L 512.20224 127.659151 
L 514.09728 127.659151 
L 515.99232 126.028074 
L 527.36256 126.028074 
L 529.2576 123.834557 
L 533.04768 123.834557 
L 536.83776 119.447523 
L 538.7328 119.447523 
L 540.62784 117.254005 
L 546.31296 117.254005 
L 548.208 115.060488 
L 553.89312 115.060488 
L 555.78816 111.235894 
L 561.47328 111.235894 
L 563.36832 109.604817 
L 595.584 109.604817 
L 597.47904 107.4113 
L 599.37408 107.4113 
L 601.26912 105.217782 
L 622.11456 105.217782 
L 625.90464 100.830748 
L 642.96 100.830748 
L 642.96 100.830748 
" clip-path="url(#pcd529bca83)" style="fill: none; stroke: #252525; stroke-width: 2.5; stroke-linecap: square"/>
   </g>
   <g id="line2d_28">
    <path d="M 74.448 348.192 
L 155.93472 348.192 
L 157.82976 345.998483 
L 172.99008 345.998483 
L 174.88512 343.804966 
L 199.52064 343.804966 
L 201.41568 341.611448 
L 205.20576 341.611448 
L 207.1008 339.417931 
L 210.89088 339.417931 
L 212.78592 337.224414 
L 218.47104 337.224414 
L 220.36608 335.030897 
L 229.84128 335.030897 
L 231.73632 332.837379 
L 241.21152 332.837379 
L 243.10656 326.256828 
L 245.0016 324.06331 
L 246.89664 324.06331 
L 248.79168 319.676276 
L 250.68672 319.676276 
L 252.58176 317.482759 
L 262.05696 317.482759 
L 263.952 313.095724 
L 271.53216 313.095724 
L 273.4272 310.902207 
L 277.21728 310.902207 
L 279.11232 308.70869 
L 281.00736 308.70869 
L 282.9024 304.321655 
L 284.79744 304.321655 
L 288.58752 299.934621 
L 290.48256 295.547586 
L 292.3776 295.547586 
L 294.27264 293.354069 
L 296.16768 293.354069 
L 298.06272 286.773517 
L 301.8528 286.773517 
L 303.74784 280.192966 
L 305.64288 277.999448 
L 313.22304 277.999448 
L 315.11808 275.805931 
L 317.01312 275.805931 
L 318.90816 273.612414 
L 320.8032 273.612414 
L 324.59328 269.225379 
L 328.38336 269.225379 
L 330.2784 267.031862 
L 332.17344 262.644828 
L 334.06848 260.45131 
L 335.96352 256.064276 
L 337.85856 254.433199 
L 339.7536 252.239682 
L 349.2288 252.239682 
L 351.12384 248.415088 
L 354.91392 248.415088 
L 356.80896 246.784011 
L 366.28416 246.784011 
L 368.1792 242.959416 
L 371.96928 238.572382 
L 379.54944 238.572382 
L 381.44448 236.941305 
L 396.6048 236.941305 
L 398.49984 234.747788 
L 406.08 234.747788 
L 407.97504 233.116711 
L 421.24032 233.116711 
L 423.13536 230.923194 
L 440.19072 230.923194 
L 445.87584 226.029963 
L 447.77088 226.029963 
L 449.66592 224.398886 
L 459.14112 224.398886 
L 462.9312 220.011851 
L 464.82624 216.749698 
L 466.72128 216.749698 
L 468.61632 215.118621 
L 474.30144 215.118621 
L 476.19648 212.925103 
L 495.14688 212.925103 
L 497.04192 210.731586 
L 506.51712 210.731586 
L 510.3072 206.344552 
L 512.20224 206.344552 
L 514.09728 204.713475 
L 519.7824 204.713475 
L 521.67744 202.519958 
L 523.57248 202.519958 
L 525.46752 199.257804 
L 531.15264 199.257804 
L 533.04768 197.626727 
L 540.62784 197.626727 
L 542.52288 195.99565 
L 576.6336 195.99565 
L 578.52864 194.364573 
L 580.42368 194.364573 
L 582.31872 192.171056 
L 584.21376 190.539979 
L 586.1088 190.539979 
L 588.00384 187.277825 
L 589.89888 187.277825 
L 591.79392 185.646748 
L 597.47904 185.646748 
L 599.37408 184.015671 
L 601.26912 181.822154 
L 606.95424 181.822154 
L 608.84928 178.56 
L 610.74432 176.928923 
L 618.32448 176.928923 
L 620.21952 173.666769 
L 622.11456 172.035692 
L 625.90464 172.035692 
L 627.79968 170.404615 
L 635.37984 170.404615 
L 639.16992 167.142462 
L 642.96 167.142462 
L 642.96 167.142462 
" clip-path="url(#pcd529bca83)" style="fill: none; stroke: #3b83b4; stroke-width: 1.35; stroke-linecap: square"/>
   </g>
   <g id="line2d_29">
    <path d="M 74.448 348.192 
L 106.66368 348.192 
L 108.55872 346.560923 
L 138.87936 346.560923 
L 140.7744 344.367406 
L 146.45952 344.367406 
L 148.35456 341.105252 
L 150.2496 341.105252 
L 152.14464 338.911735 
L 154.03968 337.280658 
L 161.61984 337.280658 
L 163.51488 335.649581 
L 167.30496 335.649581 
L 169.2 334.018504 
L 180.57024 334.018504 
L 182.46528 332.387427 
L 190.04544 332.387427 
L 193.83552 329.125273 
L 195.73056 329.125273 
L 199.52064 322.600966 
L 205.20576 322.600966 
L 207.1008 320.969889 
L 212.78592 320.969889 
L 216.576 317.707735 
L 218.47104 317.707735 
L 222.26112 314.445581 
L 224.15616 312.252064 
L 229.84128 307.358833 
L 231.73632 305.165316 
L 233.63136 300.272085 
L 235.5264 298.641008 
L 239.31648 298.641008 
L 241.21152 295.378854 
L 243.10656 293.747777 
L 245.0016 293.747777 
L 246.89664 289.923183 
L 248.79168 288.292106 
L 250.68672 288.292106 
L 252.58176 286.661029 
L 256.37184 286.661029 
L 258.26688 283.398875 
L 262.05696 283.398875 
L 263.952 277.943204 
L 265.84704 277.943204 
L 267.74208 274.68105 
L 271.53216 274.68105 
L 273.4272 273.049973 
L 275.32224 273.049973 
L 277.21728 269.78782 
L 279.11232 269.78782 
L 281.00736 266.525666 
L 286.69248 261.632435 
L 288.58752 261.632435 
L 290.48256 255.614324 
L 292.3776 253.983247 
L 294.27264 251.789729 
L 296.16768 251.789729 
L 298.06272 250.158653 
L 299.95776 250.158653 
L 301.8528 246.334058 
L 303.74784 244.140541 
L 307.53792 240.878387 
L 309.43296 240.878387 
L 311.328 237.616233 
L 313.22304 235.985156 
L 315.11808 232.160562 
L 317.01312 232.160562 
L 318.90816 230.529485 
L 320.8032 224.511374 
L 324.59328 224.511374 
L 326.48832 220.68678 
L 330.2784 220.68678 
L 334.06848 217.424626 
L 337.85856 217.424626 
L 339.7536 215.793549 
L 341.64864 215.793549 
L 343.54368 214.162472 
L 347.33376 214.162472 
L 349.2288 212.531395 
L 358.704 212.531395 
L 360.59904 210.900318 
L 366.28416 210.900318 
L 368.1792 208.706801 
L 370.07424 207.075724 
L 373.86432 207.075724 
L 375.75936 205.444647 
L 377.6544 203.25113 
L 379.54944 203.25113 
L 381.44448 201.057613 
L 383.33952 201.057613 
L 385.23456 199.426536 
L 387.1296 197.233019 
L 389.02464 193.408424 
L 394.70976 193.408424 
L 396.6048 191.214907 
L 407.97504 191.214907 
L 409.87008 189.58383 
L 413.66016 189.58383 
L 415.5552 187.390313 
L 419.34528 187.390313 
L 421.24032 185.196796 
L 423.13536 185.196796 
L 425.0304 183.565719 
L 426.92544 179.178684 
L 430.71552 179.178684 
L 432.61056 176.985167 
L 434.5056 173.160573 
L 438.29568 173.160573 
L 440.19072 170.967056 
L 443.9808 170.967056 
L 445.87584 167.142462 
L 455.35104 167.142462 
L 457.24608 163.317867 
L 459.14112 161.68679 
L 461.03616 161.68679 
L 462.9312 157.862196 
L 468.61632 157.862196 
L 470.51136 155.668679 
L 478.09152 155.668679 
L 479.98656 153.475162 
L 481.8816 153.475162 
L 485.67168 149.088127 
L 495.14688 149.088127 
L 500.832 142.507576 
L 510.3072 142.507576 
L 512.20224 140.314058 
L 519.7824 140.314058 
L 521.67744 138.120541 
L 525.46752 138.120541 
L 529.2576 133.733507 
L 553.89312 133.733507 
L 555.78816 129.908912 
L 576.6336 129.908912 
L 578.52864 128.277836 
L 588.00384 128.277836 
L 589.89888 126.084318 
L 597.47904 126.084318 
L 599.37408 123.890801 
L 620.21952 123.890801 
L 622.11456 121.697284 
L 627.79968 121.697284 
L 629.69472 119.503767 
L 635.37984 119.503767 
L 637.27488 117.87269 
L 642.96 117.87269 
L 642.96 117.87269 
" clip-path="url(#pcd529bca83)" style="fill: none; stroke-dasharray: 4.995,2.16; stroke-dashoffset: 0; stroke: #c38a19; stroke-width: 1.35"/>
   </g>
   <g id="line2d_30">
    <path d="M 74.448 348.192 
L 112.3488 348.192 
L 114.24384 346.560923 
L 142.66944 346.560923 
L 144.56448 344.929846 
L 146.45952 344.929846 
L 148.35456 343.298769 
L 150.2496 343.298769 
L 152.14464 341.667692 
L 180.57024 341.667692 
L 182.46528 339.474175 
L 186.25536 339.474175 
L 188.1504 337.280658 
L 199.52064 337.280658 
L 201.41568 334.018504 
L 212.78592 334.018504 
L 214.68096 332.387427 
L 218.47104 332.387427 
L 220.36608 330.75635 
L 224.15616 330.75635 
L 226.0512 327.494196 
L 227.94624 327.494196 
L 229.84128 325.863119 
L 231.73632 325.863119 
L 233.63136 324.232042 
L 237.42144 324.232042 
L 239.31648 322.600966 
L 243.10656 322.600966 
L 245.0016 320.407448 
L 248.79168 317.145294 
L 250.68672 314.951777 
L 254.4768 311.689623 
L 256.37184 308.427469 
L 258.26688 306.796393 
L 260.16192 306.796393 
L 262.05696 305.165316 
L 263.952 305.165316 
L 265.84704 301.340721 
L 267.74208 299.147204 
L 271.53216 295.88505 
L 273.4272 291.498016 
L 277.21728 291.498016 
L 281.00736 288.235862 
L 282.9024 288.235862 
L 284.79744 284.973708 
L 286.69248 283.342631 
L 288.58752 281.149114 
L 290.48256 281.149114 
L 292.3776 277.88696 
L 294.27264 275.693443 
L 296.16768 275.693443 
L 298.06272 273.499926 
L 299.95776 273.499926 
L 301.8528 269.675332 
L 303.74784 268.044255 
L 307.53792 268.044255 
L 309.43296 266.413178 
L 311.328 264.21966 
L 313.22304 262.588584 
L 315.11808 262.588584 
L 317.01312 258.763989 
L 328.38336 248.977528 
L 330.2784 248.977528 
L 332.17344 247.346451 
L 334.06848 247.346451 
L 335.96352 245.152934 
L 337.85856 241.89078 
L 339.7536 240.259703 
L 341.64864 240.259703 
L 345.43872 236.997549 
L 347.33376 236.997549 
L 349.2288 235.366472 
L 354.91392 235.366472 
L 356.80896 230.473241 
L 360.59904 230.473241 
L 362.49408 226.648647 
L 366.28416 223.386493 
L 368.1792 221.192976 
L 373.86432 221.192976 
L 375.75936 217.930822 
L 377.6544 211.350271 
L 379.54944 211.350271 
L 383.33952 208.088117 
L 385.23456 208.088117 
L 387.1296 204.825963 
L 394.70976 204.825963 
L 396.6048 203.194886 
L 398.49984 203.194886 
L 400.39488 201.563809 
L 402.28992 197.739215 
L 404.18496 196.108138 
L 406.08 196.108138 
L 407.97504 189.527586 
L 411.76512 189.527586 
L 415.5552 185.140552 
L 419.34528 181.878398 
L 421.24032 179.684881 
L 426.92544 179.684881 
L 428.82048 177.491363 
L 432.61056 177.491363 
L 434.5056 175.297846 
L 436.40064 171.473252 
L 440.19072 171.473252 
L 442.08576 169.842175 
L 455.35104 169.842175 
L 457.24608 168.211098 
L 462.9312 168.211098 
L 466.72128 163.824064 
L 468.61632 163.824064 
L 470.51136 161.630546 
L 474.30144 161.630546 
L 476.19648 157.243512 
L 481.8816 157.243512 
L 483.77664 155.612435 
L 489.46176 155.612435 
L 491.3568 153.418918 
L 493.25184 147.400806 
L 495.14688 145.207289 
L 498.93696 145.207289 
L 500.832 143.013772 
L 502.72704 143.013772 
L 506.51712 139.751618 
L 508.41216 137.558101 
L 510.3072 137.558101 
L 512.20224 135.927024 
L 523.57248 135.927024 
L 525.46752 133.733507 
L 542.52288 133.733507 
L 544.41792 131.539989 
L 576.6336 131.539989 
L 578.52864 127.152955 
L 597.47904 127.152955 
L 599.37408 124.959438 
L 603.16416 124.959438 
L 605.0592 123.328361 
L 610.74432 123.328361 
L 612.63936 121.134844 
L 616.42944 121.134844 
L 620.21952 116.747809 
L 625.90464 116.747809 
L 627.79968 114.554292 
L 629.69472 114.554292 
L 631.58976 110.729698 
L 633.4848 108.53618 
L 642.96 108.53618 
L 642.96 108.53618 
" clip-path="url(#pcd529bca83)" style="fill: none; stroke-dasharray: 1.35,2.2275; stroke-dashoffset: 0; stroke: #7d8a92; stroke-width: 1.35"/>
   </g>
   <g id="line2d_31">
    <path d="M 74.448 348.192 
L 241.21152 348.192 
L 243.10656 345.998483 
L 260.16192 345.998483 
L 262.05696 343.804966 
L 379.54944 343.804966 
L 381.44448 342.173889 
L 383.33952 342.173889 
L 385.23456 339.980371 
L 396.6048 339.980371 
L 398.49984 337.786854 
L 428.82048 337.786854 
L 430.71552 335.593337 
L 445.87584 335.593337 
L 447.77088 331.206302 
L 468.61632 331.206302 
L 472.4064 326.819268 
L 500.832 326.819268 
L 502.72704 322.994674 
L 504.62208 322.994674 
L 506.51712 320.801156 
L 510.3072 320.801156 
L 514.09728 316.414122 
L 527.36256 316.414122 
L 529.2576 309.83357 
L 538.7328 309.83357 
L 542.52288 301.059501 
L 546.31296 301.059501 
L 550.10304 296.672467 
L 559.57824 296.672467 
L 563.36832 292.285432 
L 565.26336 292.285432 
L 569.05344 284.636244 
L 570.94848 282.442727 
L 572.84352 278.618133 
L 580.42368 269.844064 
L 584.21376 269.844064 
L 586.1088 263.263512 
L 597.47904 263.263512 
L 603.16416 256.68296 
L 605.0592 255.051883 
L 606.95424 255.051883 
L 608.84928 252.858366 
L 612.63936 252.858366 
L 614.5344 246.277814 
L 625.90464 246.277814 
L 627.79968 244.084297 
L 629.69472 244.084297 
L 631.58976 242.45322 
L 633.4848 240.259703 
L 642.96 240.259703 
L 642.96 240.259703 
" clip-path="url(#pcd529bca83)" style="fill: none; stroke-dasharray: 8.64,2.16,1.35,2.16; stroke-dashoffset: 0; stroke: #d0526a; stroke-width: 1.35"/>
   </g>
   <g id="line2d_32">
    <path d="M 74.448 348.192 
L 157.82976 348.192 
L 159.7248 345.998483 
L 171.09504 345.998483 
L 172.99008 343.804966 
L 199.52064 343.804966 
L 201.41568 341.611448 
L 203.31072 341.611448 
L 207.1008 337.224414 
L 218.47104 337.224414 
L 222.26112 332.837379 
L 233.63136 332.837379 
L 241.21152 324.06331 
L 243.10656 324.06331 
L 245.0016 321.869793 
L 246.89664 321.869793 
L 250.68672 317.482759 
L 256.37184 317.482759 
L 258.26688 315.289241 
L 263.952 315.289241 
L 265.84704 313.095724 
L 269.63712 313.095724 
L 273.4272 308.70869 
L 275.32224 308.70869 
L 277.21728 306.515172 
L 279.11232 306.515172 
L 282.9024 302.128138 
L 284.79744 295.547586 
L 286.69248 295.547586 
L 288.58752 291.160552 
L 290.48256 291.160552 
L 292.3776 288.967034 
L 294.27264 288.967034 
L 296.16768 284.58 
L 298.06272 282.386483 
L 303.74784 282.386483 
L 307.53792 277.999448 
L 315.11808 277.999448 
L 318.90816 273.612414 
L 320.8032 269.225379 
L 322.69824 269.225379 
L 324.59328 267.031862 
L 326.48832 267.031862 
L 328.38336 264.838345 
L 330.2784 258.257793 
L 332.17344 258.257793 
L 334.06848 253.870759 
L 335.96352 252.239682 
L 343.54368 252.239682 
L 345.43872 250.046164 
L 347.33376 250.046164 
L 349.2288 248.415088 
L 353.01888 248.415088 
L 354.91392 246.22157 
L 356.80896 244.590493 
L 362.49408 244.590493 
L 366.28416 240.203459 
L 368.1792 240.203459 
L 370.07424 238.572382 
L 379.54944 238.572382 
L 381.44448 236.941305 
L 392.81472 236.941305 
L 394.70976 234.747788 
L 400.39488 234.747788 
L 402.28992 233.116711 
L 417.45024 233.116711 
L 419.34528 230.923194 
L 436.40064 230.923194 
L 438.29568 229.292117 
L 440.19072 229.292117 
L 442.08576 227.66104 
L 445.87584 227.66104 
L 447.77088 226.029963 
L 449.66592 226.029963 
L 451.56096 224.398886 
L 453.456 224.398886 
L 457.24608 220.011851 
L 459.14112 218.380775 
L 461.03616 218.380775 
L 462.9312 216.749698 
L 464.82624 216.749698 
L 466.72128 215.118621 
L 470.51136 215.118621 
L 472.4064 212.925103 
L 489.46176 212.925103 
L 491.3568 210.731586 
L 498.93696 210.731586 
L 500.832 208.538069 
L 506.51712 208.538069 
L 508.41216 206.344552 
L 510.3072 206.344552 
L 512.20224 204.713475 
L 517.88736 204.713475 
L 519.7824 202.519958 
L 523.57248 199.257804 
L 527.36256 199.257804 
L 529.2576 197.626727 
L 536.83776 197.626727 
L 538.7328 195.99565 
L 572.84352 195.99565 
L 574.73856 194.364573 
L 576.6336 194.364573 
L 578.52864 192.171056 
L 580.42368 190.539979 
L 582.31872 190.539979 
L 586.1088 187.277825 
L 588.00384 187.277825 
L 589.89888 185.646748 
L 593.68896 185.646748 
L 595.584 181.822154 
L 603.16416 181.822154 
L 608.84928 176.928923 
L 614.5344 176.928923 
L 620.21952 172.035692 
L 622.11456 172.035692 
L 624.0096 170.404615 
L 631.58976 170.404615 
L 635.37984 167.142462 
L 642.96 167.142462 
L 642.96 167.142462 
" clip-path="url(#pcd529bca83)" style="fill: none; stroke-dasharray: 6.75,2.7,1.35,2.7; stroke-dashoffset: 0; stroke: #2f8f84; stroke-width: 1.35"/>
   </g>
   <g id="patch_4">
    <path d="M 74.448 348.192 
L 74.448 93.744 
" style="fill: none; stroke: #000000; stroke-width: 0.8; stroke-linejoin: miter; stroke-linecap: square"/>
   </g>
   <g id="patch_5">
    <path d="M 74.448 348.192 
L 642.96 348.192 
" style="fill: none; stroke: #000000; stroke-width: 0.8; stroke-linejoin: miter; stroke-linecap: square"/>
   </g>
  </g>
  <g id="text_16">
   <text style="font: 18px 'DejaVu Sans', 'Bitstream Vera Sans', 'Computer Modern Sans Serif', 'Lucida Grande', 'Verdana', 'Geneva', 'Lucid', 'Arial', 'Helvetica', 'Avant Garde', sans-serif; text-anchor: start" x="74.448" y="38.229188" transform="rotate(-0 74.448 38.229188)">LED-BH1 Direct</text>
  </g>
  <g id="text_17">
   <text style="fill: #66747c; font: 10px 'DejaVu Sans', 'Bitstream Vera Sans', 'Computer Modern Sans Serif', 'Lucida Grande', 'Verdana', 'Geneva', 'Lucid', 'Arial', 'Helvetica', 'Avant Garde', sans-serif; text-anchor: start" x="74.448" y="64.728" transform="rotate(-0 74.448 64.728)">WOLED</text>
  </g>
  <g id="legend_1">
   <g id="line2d_33">
    <path d="M 185.17875 404.151391 
L 194.27875 404.151391 
L 203.37875 404.151391 
" style="fill: none; stroke: #252525; stroke-width: 2.5; stroke-linecap: square"/>
   </g>
   <g id="text_18">
    <text style="font: 9.1px 'DejaVu Sans', 'Bitstream Vera Sans', 'Computer Modern Sans Serif', 'Lucida Grande', 'Verdana', 'Geneva', 'Lucid', 'Arial', 'Helvetica', 'Avant Garde', sans-serif; text-anchor: start" x="210.65875" y="407.336391" transform="rotate(-0 210.65875 407.336391)">Potera CMF</text>
   </g>
   <g id="line2d_34">
    <path d="M 185.17875 417.508484 
L 194.27875 417.508484 
L 203.37875 417.508484 
" style="fill: none; stroke: #3b83b4; stroke-width: 1.35; stroke-linecap: square"/>
   </g>
   <g id="text_19">
    <text style="font: 9.1px 'DejaVu Sans', 'Bitstream Vera Sans', 'Computer Modern Sans Serif', 'Lucida Grande', 'Verdana', 'Geneva', 'Lucid', 'Arial', 'Helvetica', 'Avant Garde', sans-serif; text-anchor: start" x="210.65875" y="420.693484" transform="rotate(-0 210.65875 420.693484)">CIE 2015 2°</text>
   </g>
   <g id="line2d_35">
    <path d="M 282.931234 404.151391 
L 292.031234 404.151391 
L 301.131234 404.151391 
" style="fill: none; stroke-dasharray: 4.995,2.16; stroke-dashoffset: 0; stroke: #c38a19; stroke-width: 1.35"/>
   </g>
   <g id="text_20">
    <text style="font: 9.1px 'DejaVu Sans', 'Bitstream Vera Sans', 'Computer Modern Sans Serif', 'Lucida Grande', 'Verdana', 'Geneva', 'Lucid', 'Arial', 'Helvetica', 'Avant Garde', sans-serif; text-anchor: start" x="308.411234" y="407.336391" transform="rotate(-0 308.411234 407.336391)">CIE 2015 10°</text>
   </g>
   <g id="line2d_36">
    <path d="M 282.931234 417.508484 
L 292.031234 417.508484 
L 301.131234 417.508484 
" style="fill: none; stroke-dasharray: 1.35,2.2275; stroke-dashoffset: 0; stroke: #7d8a92; stroke-width: 1.35"/>
   </g>
   <g id="text_21">
    <text style="font: 9.1px 'DejaVu Sans', 'Bitstream Vera Sans', 'Computer Modern Sans Serif', 'Lucida Grande', 'Verdana', 'Geneva', 'Lucid', 'Arial', 'Helvetica', 'Avant Garde', sans-serif; text-anchor: start" x="308.411234" y="420.693484" transform="rotate(-0 308.411234 420.693484)">CIE 1964 10°</text>
   </g>
   <g id="line2d_37">
    <path d="M 386.473594 404.151391 
L 395.573594 404.151391 
L 404.673594 404.151391 
" style="fill: none; stroke-dasharray: 8.64,2.16,1.35,2.16; stroke-dashoffset: 0; stroke: #d0526a; stroke-width: 1.35"/>
   </g>
   <g id="text_22">
    <text style="font: 9.1px 'DejaVu Sans', 'Bitstream Vera Sans', 'Computer Modern Sans Serif', 'Lucida Grande', 'Verdana', 'Geneva', 'Lucid', 'Arial', 'Helvetica', 'Avant Garde', sans-serif; text-anchor: start" x="411.953594" y="407.336391" transform="rotate(-0 411.953594 407.336391)">CIE 1931 2°</text>
   </g>
   <g id="line2d_38">
    <path d="M 386.473594 417.508484 
L 395.573594 417.508484 
L 404.673594 417.508484 
" style="fill: none; stroke-dasharray: 6.75,2.7,1.35,2.7; stroke-dashoffset: 0; stroke: #2f8f84; stroke-width: 1.35"/>
   </g>
   <g id="text_23">
    <text style="font: 9.1px 'DejaVu Sans', 'Bitstream Vera Sans', 'Computer Modern Sans Serif', 'Lucida Grande', 'Verdana', 'Geneva', 'Lucid', 'Arial', 'Helvetica', 'Avant Garde', sans-serif; text-anchor: start" x="411.953594" y="420.693484" transform="rotate(-0 411.953594 420.693484)">Judd–Vos 1978 2°</text>
   </g>
  </g>
 </g>
 <defs>
  <clipPath id="pcd529bca83">
   <rect x="74.448" y="93.744" width="568.512" height="254.448"/>
  </clipPath>
 </defs>
</svg>
