<?xml version="1.0" encoding="utf-8" standalone="no"?>
<!DOCTYPE svg PUBLIC "-//W3C//DTD SVG 1.1//EN"
  "http://www.w3.org/Graphics/SVG/1.1/DTD/svg11.dtd">
<svg xmlns:xlink="http://www.w3.org/1999/xlink" width="676.8pt" height="446.4pt" viewBox="0 0 676.8 446.4" xmlns="http://www.w3.org/2000/svg" version="1.1">
 <metadata>
  <rdf:RDF xmlns:dc="http://purl.org/dc/elements/1.1/" xmlns:cc="http://creativecommons.org/ns#" xmlns:rdf="http://www.w3.org/1999/02/22-rdf-syntax-ns#">
   <cc:Work>
    <dc:type rdf:resource="http://purl.org/dc/dcmitype/StillImage"/>
    <dc:date>2026-07-20T06:42:01.572058</dc:date>
    <dc:format>image/svg+xml</dc:format>
    <dc:creator>
     <cc:Agent>
      <dc:title>Matplotlib v3.9.4, https://matplotlib.org/</dc:title>
     </cc:Agent>
    </dc:creator>
   </cc:Work>
  </rdf:RDF>
 </metadata>
 <defs>
  <style type="text/css">*{stroke-linejoin: round; stroke-linecap: butt}</style>
 </defs>
 <g id="figure_1">
  <g id="patch_1">
   <path d="M 0 446.4 
L 676.8 446.4 
L 676.8 0 
L 0 0 
z
" style="fill: #ffffff"/>
  </g>
  <g id="axes_1">
   <g id="patch_2">
    <path d="M 74.448 348.192 
L 642.96 348.192 
L 642.96 93.744 
L 74.448 93.744 
z
" style="fill: #ffffff"/>
   </g>
   <g id="patch_3">
    <path d="M 169.2 348.192 
L 358.704 348.192 
L 358.704 93.744 
L 169.2 93.744 
z
" clip-path="url(#p0fe08cfbe3)" style="fill: #e7f0ea; opacity: 0.58; stroke: #e7f0ea; stroke-linejoin: miter"/>
   </g>
   <g id="matplotlib.axis_1">
    <g id="xtick_1">
     <g id="line2d_1">
      <path d="M 74.448 348.192 
L 74.448 93.744 
" clip-path="url(#p0fe08cfbe3)" style="fill: none; stroke: #dfe5e8; stroke-width: 0.65; stroke-linecap: square"/>
     </g>
     <g id="line2d_2">
      <defs>
       <path id="m37ea7dbf48" d="M 0 0 
L 0 3.5 
" style="stroke: #000000; stroke-width: 0.8"/>
      </defs>
      <g>
       <use xlink:href="#m37ea7dbf48" x="74.448" y="348.192" style="stroke: #000000; stroke-width: 0.8"/>
      </g>
     </g>
     <g id="text_1">
      <text style="font: 10px 'DejaVu Sans', 'Bitstream Vera Sans', 'Computer Modern Sans Serif', 'Lucida Grande', 'Verdana', 'Geneva', 'Lucid', 'Arial', 'Helvetica', 'Avant Garde', sans-serif; text-anchor: middle" x="74.448" y="362.790438" transform="rotate(-0 74.448 362.790438)">0</text>
     </g>
    </g>
    <g id="xtick_2">
     <g id="line2d_3">
      <path d="M 169.2 348.192 
L 169.2 93.744 
" clip-path="url(#p0fe08cfbe3)" style="fill: none; stroke: #dfe5e8; stroke-width: 0.65; stroke-linecap: square"/>
     </g>
     <g id="line2d_4">
      <g>
       <use xlink:href="#m37ea7dbf48" x="169.2" y="348.192" style="stroke: #000000; stroke-width: 0.8"/>
      </g>
     </g>
     <g id="text_2">
      <text style="font: 10px 'DejaVu Sans', 'Bitstream Vera Sans', 'Computer Modern Sans Serif', 'Lucida Grande', 'Verdana', 'Geneva', 'Lucid', 'Arial', 'Helvetica', 'Avant Garde', sans-serif; text-anchor: middle" x="169.2" y="362.790438" transform="rotate(-0 169.2 362.790438)">1</text>
     </g>
    </g>
    <g id="xtick_3">
     <g id="line2d_5">
      <path d="M 263.952 348.192 
L 263.952 93.744 
" clip-path="url(#p0fe08cfbe3)" style="fill: none; stroke: #dfe5e8; stroke-width: 0.65; stroke-linecap: square"/>
     </g>
     <g id="line2d_6">
      <g>
       <use xlink:href="#m37ea7dbf48" x="263.952" y="348.192" style="stroke: #000000; stroke-width: 0.8"/>
      </g>
     </g>
     <g id="text_3">
      <text style="font: 10px 'DejaVu Sans', 'Bitstream Vera Sans', 'Computer Modern Sans Serif', 'Lucida Grande', 'Verdana', 'Geneva', 'Lucid', 'Arial', 'Helvetica', 'Avant Garde', sans-serif; text-anchor: middle" x="263.952" y="362.790438" transform="rotate(-0 263.952 362.790438)">2</text>
     </g>
    </g>
    <g id="xtick_4">
     <g id="line2d_7">
      <path d="M 358.704 348.192 
L 358.704 93.744 
" clip-path="url(#p0fe08cfbe3)" style="fill: none; stroke: #dfe5e8; stroke-width: 0.65; stroke-linecap: square"/>
     </g>
     <g id="line2d_8">
      <g>
       <use xlink:href="#m37ea7dbf48" x="358.704" y="348.192" style="stroke: #000000; stroke-width: 0.8"/>
      </g>
     </g>
     <g id="text_4">
      <text style="font: 10px 'DejaVu Sans', 'Bitstream Vera Sans', 'Computer Modern Sans Serif', 'Lucida Grande', 'Verdana', 'Geneva', 'Lucid', 'Arial', 'Helvetica', 'Avant Garde', sans-serif; text-anchor: middle" x="358.704" y="362.790438" transform="rotate(-0 358.704 362.790438)">3</text>
     </g>
    </g>
    <g id="xtick_5">
     <g id="line2d_9">
      <path d="M 453.456 348.192 
L 453.456 93.744 
" clip-path="url(#p0fe08cfbe3)" style="fill: none; stroke: #dfe5e8; stroke-width: 0.65; stroke-linecap: square"/>
     </g>
     <g id="line2d_10">
      <g>
       <use xlink:href="#m37ea7dbf48" x="453.456" y="348.192" style="stroke: #000000; stroke-width: 0.8"/>
      </g>
     </g>
     <g id="text_5">
      <text style="font: 10px 'DejaVu Sans', 'Bitstream Vera Sans', 'Computer Modern Sans Serif', 'Lucida Grande', 'Verdana', 'Geneva', 'Lucid', 'Arial', 'Helvetica', 'Avant Garde', sans-serif; text-anchor: middle" x="453.456" y="362.790438" transform="rotate(-0 453.456 362.790438)">4</text>
     </g>
    </g>
    <g id="xtick_6">
     <g id="line2d_11">
      <path d="M 548.208 348.192 
L 548.208 93.744 
" clip-path="url(#p0fe08cfbe3)" style="fill: none; stroke: #dfe5e8; stroke-width: 0.65; stroke-linecap: square"/>
     </g>
     <g id="line2d_12">
      <g>
       <use xlink:href="#m37ea7dbf48" x="548.208" y="348.192" style="stroke: #000000; stroke-width: 0.8"/>
      </g>
     </g>
     <g id="text_6">
      <text style="font: 10px 'DejaVu Sans', 'Bitstream Vera Sans', 'Computer Modern Sans Serif', 'Lucida Grande', 'Verdana', 'Geneva', 'Lucid', 'Arial', 'Helvetica', 'Avant Garde', sans-serif; text-anchor: middle" x="548.208" y="362.790438" transform="rotate(-0 548.208 362.790438)">5</text>
     </g>
    </g>
    <g id="xtick_7">
     <g id="line2d_13">
      <path d="M 642.96 348.192 
L 642.96 93.744 
" clip-path="url(#p0fe08cfbe3)" style="fill: none; stroke: #dfe5e8; stroke-width: 0.65; stroke-linecap: square"/>
     </g>
     <g id="line2d_14">
      <g>
       <use xlink:href="#m37ea7dbf48" x="642.96" y="348.192" style="stroke: #000000; stroke-width: 0.8"/>
      </g>
     </g>
     <g id="text_7">
      <text style="font: 10px 'DejaVu Sans', 'Bitstream Vera Sans', 'Computer Modern Sans Serif', 'Lucida Grande', 'Verdana', 'Geneva', 'Lucid', 'Arial', 'Helvetica', 'Avant Garde', sans-serif; text-anchor: middle" x="642.96" y="362.790438" transform="rotate(-0 642.96 362.790438)">6</text>
     </g>
    </g>
    <g id="text_8">
     <text style="font: 10px 'DejaVu Sans', 'Bitstream Vera Sans', 'Computer Modern Sans Serif', 'Lucida Grande', 'Verdana', 'Geneva', 'Lucid', 'Arial', 'Helvetica', 'Avant Garde', sans-serif; text-anchor: middle" x="358.704" y="376.468563" transform="rotate(-0 358.704 376.468563)">sUCS dE threshold</text>
    </g>
   </g>
   <g id="matplotlib.axis_2">
    <g id="ytick_1">
     <g id="line2d_15">
      <path d="M 74.448 348.192 
L 642.96 348.192 
" clip-path="url(#p0fe08cfbe3)" style="fill: none; stroke: #dfe5e8; stroke-width: 0.65; stroke-linecap: square"/>
     </g>
     <g id="line2d_16">
      <defs>
       <path id="m8c5e6b732f" d="M 0 0 
L -3.5 0 
" style="stroke: #000000; stroke-width: 0.8"/>
      </defs>
      <g>
       <use xlink:href="#m8c5e6b732f" x="74.448" y="348.192" style="stroke: #000000; stroke-width: 0.8"/>
      </g>
     </g>
     <g id="text_9">
      <text style="font: 10px 'DejaVu Sans', 'Bitstream Vera Sans', 'Computer Modern Sans Serif', 'Lucida Grande', 'Verdana', 'Geneva', 'Lucid', 'Arial', 'Helvetica', 'Avant Garde', sans-serif; text-anchor: end" x="67.448" y="351.991219" transform="rotate(-0 67.448 351.991219)">0</text>
     </g>
    </g>
    <g id="ytick_2">
     <g id="line2d_17">
      <path d="M 74.448 297.3024 
L 642.96 297.3024 
" clip-path="url(#p0fe08cfbe3)" style="fill: none; stroke: #dfe5e8; stroke-width: 0.65; stroke-linecap: square"/>
     </g>
     <g id="line2d_18">
      <g>
       <use xlink:href="#m8c5e6b732f" x="74.448" y="297.3024" style="stroke: #000000; stroke-width: 0.8"/>
      </g>
     </g>
     <g id="text_10">
      <text style="font: 10px 'DejaVu Sans', 'Bitstream Vera Sans', 'Computer Modern Sans Serif', 'Lucida Grande', 'Verdana', 'Geneva', 'Lucid', 'Arial', 'Helvetica', 'Avant Garde', sans-serif; text-anchor: end" x="67.448" y="301.101619" transform="rotate(-0 67.448 301.101619)">20</text>
     </g>
    </g>
    <g id="ytick_3">
     <g id="line2d_19">
      <path d="M 74.448 246.4128 
L 642.96 246.4128 
" clip-path="url(#p0fe08cfbe3)" style="fill: none; stroke: #dfe5e8; stroke-width: 0.65; stroke-linecap: square"/>
     </g>
     <g id="line2d_20">
      <g>
       <use xlink:href="#m8c5e6b732f" x="74.448" y="246.4128" style="stroke: #000000; stroke-width: 0.8"/>
      </g>
     </g>
     <g id="text_11">
      <text style="font: 10px 'DejaVu Sans', 'Bitstream Vera Sans', 'Computer Modern Sans Serif', 'Lucida Grande', 'Verdana', 'Geneva', 'Lucid', 'Arial', 'Helvetica', 'Avant Garde', sans-serif; text-anchor: end" x="67.448" y="250.212019" transform="rotate(-0 67.448 250.212019)">40</text>
     </g>
    </g>
    <g id="ytick_4">
     <g id="line2d_21">
      <path d="M 74.448 195.5232 
L 642.96 195.5232 
" clip-path="url(#p0fe08cfbe3)" style="fill: none; stroke: #dfe5e8; stroke-width: 0.65; stroke-linecap: square"/>
     </g>
     <g id="line2d_22">
      <g>
       <use xlink:href="#m8c5e6b732f" x="74.448" y="195.5232" style="stroke: #000000; stroke-width: 0.8"/>
      </g>
     </g>
     <g id="text_12">
      <text style="font: 10px 'DejaVu Sans', 'Bitstream Vera Sans', 'Computer Modern Sans Serif', 'Lucida Grande', 'Verdana', 'Geneva', 'Lucid', 'Arial', 'Helvetica', 'Avant Garde', sans-serif; text-anchor: end" x="67.448" y="199.322419" transform="rotate(-0 67.448 199.322419)">60</text>
     </g>
    </g>
    <g id="ytick_5">
     <g id="line2d_23">
      <path d="M 74.448 144.6336 
L 642.96 144.6336 
" clip-path="url(#p0fe08cfbe3)" style="fill: none; stroke: #dfe5e8; stroke-width: 0.65; stroke-linecap: square"/>
     </g>
     <g id="line2d_24">
      <g>
       <use xlink:href="#m8c5e6b732f" x="74.448" y="144.6336" style="stroke: #000000; stroke-width: 0.8"/>
      </g>
     </g>
     <g id="text_13">
      <text style="font: 10px 'DejaVu Sans', 'Bitstream Vera Sans', 'Computer Modern Sans Serif', 'Lucida Grande', 'Verdana', 'Geneva', 'Lucid', 'Arial', 'Helvetica', 'Avant Garde', sans-serif; text-anchor: end" x="67.448" y="148.432819" transform="rotate(-0 67.448 148.432819)">80</text>
     </g>
    </g>
    <g id="ytick_6">
     <g id="line2d_25">
      <path d="M 74.448 93.744 
L 642.96 93.744 
" clip-path="url(#p0fe08cfbe3)" style="fill: none; stroke: #dfe5e8; stroke-width: 0.65; stroke-linecap: square"/>
     </g>
     <g id="line2d_26">
      <g>
       <use xlink:href="#m8c5e6b732f" x="74.448" y="93.744" style="stroke: #000000; stroke-width: 0.8"/>
      </g>
     </g>
     <g id="text_14">
      <text style="font: 10px 'DejaVu Sans', 'Bitstream Vera Sans', 'Computer Modern Sans Serif', 'Lucida Grande', 'Verdana', 'Geneva', 'Lucid', 'Arial', 'Helvetica', 'Avant Garde', sans-serif; text-anchor: end" x="67.448" y="97.543219" transform="rotate(-0 67.448 97.543219)">100</text>
     </g>
    </g>
    <g id="text_15">
     <text style="font: 10px 'DejaVu Sans', 'Bitstream Vera Sans', 'Computer Modern Sans Serif', 'Lucida Grande', 'Verdana', 'Geneva', 'Lucid', 'Arial', 'Helvetica', 'Avant Garde', sans-serif; text-anchor: middle" x="42.280812" y="220.968" transform="rotate(-90 42.280812 220.968)">observers%</text>
    </g>
   </g>
   <g id="line2d_27">
    <path d="M 74.448 348.192 
L 97.18848 348.192 
L 99.08352 346.560923 
L 106.66368 346.560923 
L 108.55872 344.929846 
L 114.24384 344.929846 
L 116.13888 341.667692 
L 118.03392 340.036615 
L 131.2992 340.036615 
L 133.19424 338.405538 
L 135.08928 338.405538 
L 136.98432 333.512308 
L 138.87936 333.512308 
L 140.7744 331.881231 
L 142.66944 326.42556 
L 144.56448 324.794483 
L 146.45952 324.794483 
L 148.35456 323.163406 
L 150.2496 319.901252 
L 152.14464 316.076658 
L 154.03968 316.076658 
L 155.93472 312.814504 
L 157.82976 312.814504 
L 159.7248 310.620987 
L 161.61984 310.620987 
L 163.51488 308.98991 
L 165.40992 308.98991 
L 169.2 298.078568 
L 171.09504 295.88505 
L 176.78016 295.88505 
L 178.6752 294.253973 
L 180.57024 294.253973 
L 182.46528 290.429379 
L 184.36032 290.429379 
L 186.25536 288.798302 
L 188.1504 284.973708 
L 193.83552 284.973708 
L 195.73056 283.342631 
L 197.6256 281.149114 
L 199.52064 281.149114 
L 201.41568 279.518037 
L 207.1008 279.518037 
L 208.99584 277.88696 
L 210.89088 277.88696 
L 212.78592 270.237772 
L 214.68096 268.044255 
L 218.47104 268.044255 
L 220.36608 266.413178 
L 222.26112 263.151024 
L 224.15616 261.519947 
L 226.0512 259.32643 
L 227.94624 259.32643 
L 229.84128 252.239682 
L 231.73632 252.239682 
L 233.63136 246.784011 
L 235.5264 246.784011 
L 237.42144 242.959416 
L 239.31648 242.959416 
L 241.21152 239.697263 
L 245.0016 236.435109 
L 246.89664 236.435109 
L 248.79168 234.241592 
L 250.68672 229.854557 
L 252.58176 224.961326 
L 254.4768 221.136732 
L 258.26688 217.874578 
L 260.16192 215.681061 
L 263.952 215.681061 
L 265.84704 211.856467 
L 267.74208 211.856467 
L 269.63712 210.22539 
L 273.4272 210.22539 
L 275.32224 208.031873 
L 277.21728 208.031873 
L 279.11232 204.207279 
L 281.00736 204.207279 
L 282.9024 200.945125 
L 288.58752 200.945125 
L 290.48256 197.682971 
L 292.3776 197.682971 
L 294.27264 196.051894 
L 296.16768 196.051894 
L 298.06272 190.596223 
L 299.95776 190.596223 
L 301.8528 188.965146 
L 303.74784 188.965146 
L 305.64288 186.771629 
L 315.11808 186.771629 
L 318.90816 180.247321 
L 320.8032 176.422727 
L 324.59328 172.035692 
L 328.38336 172.035692 
L 330.2784 169.842175 
L 334.06848 169.842175 
L 335.96352 168.211098 
L 345.43872 168.211098 
L 347.33376 166.017581 
L 351.12384 166.017581 
L 353.01888 163.824064 
L 354.91392 163.824064 
L 356.80896 162.192987 
L 358.704 159.999469 
L 360.59904 159.999469 
L 366.28416 153.418918 
L 373.86432 153.418918 
L 375.75936 151.225401 
L 377.6544 147.400806 
L 383.33952 147.400806 
L 385.23456 145.207289 
L 394.70976 145.207289 
L 396.6048 143.013772 
L 398.49984 141.382695 
L 402.28992 141.382695 
L 404.18496 139.189178 
L 421.24032 139.189178 
L 423.13536 136.99566 
L 434.5056 136.99566 
L 438.29568 132.608626 
L 443.9808 132.608626 
L 445.87584 130.415109 
L 457.24608 130.415109 
L 459.14112 128.221592 
L 461.03616 128.221592 
L 464.82624 123.834557 
L 468.61632 123.834557 
L 470.51136 121.64104 
L 479.98656 121.64104 
L 481.8816 117.816446 
L 485.67168 117.816446 
L 487.56672 116.185369 
L 504.62208 116.185369 
L 506.51712 114.554292 
L 510.3072 114.554292 
L 512.20224 112.360775 
L 514.09728 112.360775 
L 515.99232 110.167257 
L 519.7824 110.167257 
L 521.67744 108.53618 
L 523.57248 108.53618 
L 525.46752 106.342663 
L 536.83776 106.342663 
L 538.7328 104.149146 
L 548.208 104.149146 
L 550.10304 101.955629 
L 551.99808 101.955629 
L 553.89312 99.762111 
L 586.1088 99.762111 
L 588.00384 98.131034 
L 642.96 98.131034 
L 642.96 98.131034 
" clip-path="url(#p0fe08cfbe3)" style="fill: none; stroke: #252525; stroke-width: 2.5; stroke-linecap: square"/>
   </g>
   <g id="line2d_28">
    <path d="M 74.448 348.192 
L 91.50336 348.192 
L 93.3984 345.998483 
L 110.45376 345.998483 
L 112.3488 343.804966 
L 118.03392 343.804966 
L 121.824 339.417931 
L 133.19424 339.417931 
L 135.08928 337.786854 
L 136.98432 333.96226 
L 142.66944 333.96226 
L 144.56448 331.768743 
L 146.45952 331.768743 
L 148.35456 329.575225 
L 159.7248 329.575225 
L 161.61984 327.381708 
L 165.40992 327.381708 
L 167.30496 325.188191 
L 169.2 325.188191 
L 171.09504 322.994674 
L 188.1504 322.994674 
L 190.04544 320.801156 
L 193.83552 317.539003 
L 195.73056 313.714408 
L 197.6256 313.714408 
L 201.41568 310.452255 
L 208.99584 310.452255 
L 210.89088 308.258737 
L 212.78592 306.62766 
L 214.68096 304.434143 
L 218.47104 304.434143 
L 220.36608 302.803066 
L 222.26112 302.803066 
L 224.15616 296.222515 
L 226.0512 291.83548 
L 229.84128 291.83548 
L 231.73632 288.010886 
L 233.63136 288.010886 
L 235.5264 286.379809 
L 237.42144 286.379809 
L 239.31648 284.186292 
L 241.21152 280.361698 
L 243.10656 278.730621 
L 245.0016 273.27495 
L 250.68672 266.694398 
L 254.4768 263.432244 
L 256.37184 259.60765 
L 258.26688 254.151979 
L 260.16192 251.958462 
L 262.05696 250.327385 
L 265.84704 250.327385 
L 269.63712 243.803077 
L 271.53216 243.803077 
L 273.4272 239.978483 
L 275.32224 237.784966 
L 277.21728 233.960371 
L 279.11232 233.960371 
L 281.00736 230.135777 
L 282.9024 228.5047 
L 284.79744 226.311183 
L 286.69248 224.680106 
L 288.58752 222.486589 
L 292.3776 219.224435 
L 294.27264 219.224435 
L 296.16768 217.593358 
L 298.06272 217.593358 
L 299.95776 215.962281 
L 301.8528 215.962281 
L 303.74784 212.700127 
L 305.64288 207.244456 
L 307.53792 203.982302 
L 309.43296 203.982302 
L 311.328 202.351225 
L 313.22304 200.157708 
L 315.11808 195.770674 
L 318.90816 195.770674 
L 320.8032 191.94608 
L 322.69824 190.315003 
L 328.38336 190.315003 
L 330.2784 188.683926 
L 335.96352 188.683926 
L 339.7536 182.159618 
L 341.64864 180.528541 
L 343.54368 178.335024 
L 345.43872 176.703947 
L 353.01888 176.703947 
L 354.91392 175.07287 
L 356.80896 175.07287 
L 360.59904 170.685836 
L 362.49408 170.685836 
L 366.28416 167.423682 
L 368.1792 161.40557 
L 370.07424 158.143416 
L 371.96928 158.143416 
L 373.86432 152.687745 
L 375.75936 151.056668 
L 377.6544 151.056668 
L 379.54944 147.794515 
L 383.33952 147.794515 
L 385.23456 143.96992 
L 387.1296 143.96992 
L 389.02464 140.145326 
L 392.81472 140.145326 
L 394.70976 138.514249 
L 396.6048 135.252095 
L 398.49984 133.058578 
L 404.18496 133.058578 
L 406.08 131.427501 
L 411.76512 131.427501 
L 413.66016 129.233984 
L 425.0304 129.233984 
L 426.92544 127.602907 
L 428.82048 125.40939 
L 442.08576 125.40939 
L 445.87584 122.147236 
L 449.66592 122.147236 
L 451.56096 120.516159 
L 455.35104 120.516159 
L 457.24608 116.691565 
L 462.9312 116.691565 
L 464.82624 113.429411 
L 478.09152 113.429411 
L 479.98656 111.235894 
L 481.8816 109.604817 
L 485.67168 109.604817 
L 487.56672 107.4113 
L 489.46176 105.780223 
L 540.62784 105.780223 
L 542.52288 104.149146 
L 572.84352 104.149146 
L 574.73856 101.955629 
L 578.52864 101.955629 
L 580.42368 99.762111 
L 614.5344 99.762111 
L 616.42944 98.131034 
L 642.96 98.131034 
L 642.96 98.131034 
" clip-path="url(#p0fe08cfbe3)" style="fill: none; stroke: #3b83b4; stroke-width: 1.35; stroke-linecap: square"/>
   </g>
   <g id="line2d_29">
    <path d="M 74.448 348.192 
L 85.81824 348.192 
L 87.71328 346.560923 
L 95.29344 346.560923 
L 99.08352 343.298769 
L 112.3488 343.298769 
L 116.13888 340.036615 
L 118.03392 340.036615 
L 119.92896 337.843098 
L 121.824 334.580944 
L 127.50912 334.580944 
L 129.40416 332.949867 
L 131.2992 329.687714 
L 136.98432 329.687714 
L 138.87936 326.42556 
L 140.7744 326.42556 
L 142.66944 322.600966 
L 144.56448 322.600966 
L 146.45952 320.969889 
L 150.2496 320.969889 
L 155.93472 316.076658 
L 159.7248 316.076658 
L 161.61984 312.814504 
L 163.51488 311.183427 
L 167.30496 311.183427 
L 169.2 309.55235 
L 171.09504 306.290196 
L 174.88512 306.290196 
L 176.78016 303.028042 
L 178.6752 300.834525 
L 180.57024 300.834525 
L 182.46528 299.203448 
L 184.36032 299.203448 
L 186.25536 297.572371 
L 188.1504 295.378854 
L 190.04544 293.747777 
L 191.94048 293.747777 
L 193.83552 289.923183 
L 195.73056 289.923183 
L 197.6256 285.536149 
L 205.20576 279.011841 
L 208.99584 279.011841 
L 212.78592 275.749687 
L 214.68096 271.362653 
L 216.576 269.731576 
L 218.47104 269.731576 
L 220.36608 265.906981 
L 222.26112 263.713464 
L 224.15616 263.713464 
L 226.0512 261.519947 
L 227.94624 256.626716 
L 229.84128 254.995639 
L 231.73632 251.171045 
L 235.5264 251.171045 
L 237.42144 249.539968 
L 239.31648 246.277814 
L 241.21152 242.45322 
L 243.10656 240.259703 
L 248.79168 240.259703 
L 250.68672 232.610515 
L 252.58176 230.979438 
L 254.4768 230.979438 
L 256.37184 227.717284 
L 258.26688 227.717284 
L 260.16192 225.523767 
L 265.84704 225.523767 
L 267.74208 220.068095 
L 271.53216 220.068095 
L 273.4272 214.612424 
L 275.32224 210.78783 
L 277.21728 210.78783 
L 279.11232 209.156753 
L 281.00736 206.963236 
L 284.79744 206.963236 
L 288.58752 202.576202 
L 294.27264 197.682971 
L 296.16768 197.682971 
L 298.06272 196.051894 
L 299.95776 196.051894 
L 301.8528 192.2273 
L 303.74784 190.596223 
L 305.64288 190.596223 
L 307.53792 188.965146 
L 311.328 188.965146 
L 313.22304 187.334069 
L 315.11808 187.334069 
L 317.01312 185.702992 
L 320.8032 185.702992 
L 322.69824 184.071915 
L 328.38336 177.491363 
L 341.64864 177.491363 
L 345.43872 169.842175 
L 347.33376 168.211098 
L 351.12384 168.211098 
L 353.01888 166.017581 
L 356.80896 166.017581 
L 358.704 163.824064 
L 362.49408 163.824064 
L 364.38912 161.630546 
L 379.54944 161.630546 
L 381.44448 159.437029 
L 383.33952 153.418918 
L 385.23456 153.418918 
L 389.02464 149.031883 
L 394.70976 149.031883 
L 396.6048 146.838366 
L 402.28992 146.838366 
L 404.18496 145.207289 
L 406.08 143.013772 
L 411.76512 143.013772 
L 413.66016 140.820255 
L 423.13536 140.820255 
L 425.0304 139.189178 
L 432.61056 139.189178 
L 434.5056 134.802143 
L 445.87584 134.802143 
L 449.66592 130.415109 
L 451.56096 130.415109 
L 453.456 128.221592 
L 455.35104 126.590515 
L 457.24608 124.396997 
L 459.14112 122.76592 
L 462.9312 122.76592 
L 464.82624 118.378886 
L 478.09152 118.378886 
L 479.98656 116.747809 
L 485.67168 116.747809 
L 487.56672 114.554292 
L 497.04192 114.554292 
L 500.832 110.167257 
L 529.2576 110.167257 
L 534.94272 103.586706 
L 546.31296 103.586706 
L 548.208 101.955629 
L 551.99808 101.955629 
L 553.89312 99.762111 
L 561.47328 99.762111 
L 563.36832 98.131034 
L 642.96 98.131034 
L 642.96 98.131034 
" clip-path="url(#p0fe08cfbe3)" style="fill: none; stroke-dasharray: 4.995,2.16; stroke-dashoffset: 0; stroke: #c38a19; stroke-width: 1.35"/>
   </g>
   <g id="line2d_30">
    <path d="M 74.448 348.192 
L 102.8736 348.192 
L 106.66368 344.929846 
L 114.24384 344.929846 
L 118.03392 341.667692 
L 123.71904 341.667692 
L 125.61408 338.405538 
L 127.50912 336.212021 
L 129.40416 336.212021 
L 131.2992 334.580944 
L 135.08928 334.580944 
L 136.98432 331.31879 
L 138.87936 329.125273 
L 140.7744 329.125273 
L 142.66944 327.494196 
L 148.35456 327.494196 
L 150.2496 325.863119 
L 155.93472 325.863119 
L 157.82976 322.038525 
L 161.61984 318.776371 
L 163.51488 315.514218 
L 165.40992 313.3207 
L 172.99008 313.3207 
L 176.78016 310.058546 
L 178.6752 310.058546 
L 180.57024 307.865029 
L 184.36032 300.215841 
L 186.25536 300.215841 
L 188.1504 296.953687 
L 190.04544 294.76017 
L 191.94048 294.76017 
L 193.83552 289.304499 
L 195.73056 287.673422 
L 197.6256 287.673422 
L 199.52064 285.479905 
L 201.41568 277.830716 
L 203.31072 275.637199 
L 205.20576 275.637199 
L 207.1008 274.006122 
L 208.99584 274.006122 
L 210.89088 265.850737 
L 212.78592 260.395066 
L 214.68096 258.763989 
L 216.576 258.763989 
L 218.47104 254.939395 
L 220.36608 254.939395 
L 222.26112 253.308318 
L 226.0512 253.308318 
L 227.94624 247.290207 
L 229.84128 245.65913 
L 233.63136 245.65913 
L 235.5264 243.465613 
L 239.31648 243.465613 
L 241.21152 241.834536 
L 243.10656 239.641019 
L 245.0016 238.009942 
L 246.89664 238.009942 
L 250.68672 234.747788 
L 252.58176 232.554271 
L 256.37184 229.292117 
L 258.26688 229.292117 
L 260.16192 227.66104 
L 262.05696 225.467523 
L 263.952 221.642928 
L 267.74208 221.642928 
L 269.63712 218.380775 
L 273.4272 215.118621 
L 275.32224 215.118621 
L 277.21728 213.487544 
L 279.11232 213.487544 
L 281.00736 211.856467 
L 282.9024 209.66295 
L 286.69248 206.400796 
L 288.58752 202.576202 
L 290.48256 202.576202 
L 292.3776 200.945125 
L 294.27264 198.751607 
L 299.95776 198.751607 
L 301.8528 193.858377 
L 303.74784 189.471342 
L 305.64288 189.471342 
L 307.53792 187.840265 
L 311.328 187.840265 
L 313.22304 185.646748 
L 315.11808 185.646748 
L 318.90816 181.259714 
L 320.8032 181.259714 
L 322.69824 179.066196 
L 324.59328 177.435119 
L 326.48832 174.172966 
L 328.38336 174.172966 
L 330.2784 171.979448 
L 334.06848 171.979448 
L 335.96352 170.348371 
L 337.85856 170.348371 
L 339.7536 168.154854 
L 345.43872 168.154854 
L 347.33376 163.76782 
L 349.2288 162.136743 
L 353.01888 162.136743 
L 354.91392 160.505666 
L 356.80896 160.505666 
L 358.704 156.681072 
L 360.59904 152.294037 
L 368.1792 152.294037 
L 370.07424 148.469443 
L 371.96928 146.275926 
L 389.02464 146.275926 
L 390.91968 144.082408 
L 392.81472 144.082408 
L 394.70976 141.888891 
L 396.6048 141.888891 
L 398.49984 140.257814 
L 400.39488 140.257814 
L 402.28992 138.064297 
L 406.08 138.064297 
L 407.97504 135.87078 
L 413.66016 135.87078 
L 415.5552 133.677263 
L 417.45024 133.677263 
L 419.34528 129.852668 
L 428.82048 129.852668 
L 430.71552 127.659151 
L 438.29568 127.659151 
L 442.08576 124.396997 
L 451.56096 124.396997 
L 453.456 122.76592 
L 457.24608 122.76592 
L 459.14112 118.378886 
L 461.03616 118.378886 
L 462.9312 116.747809 
L 464.82624 114.554292 
L 466.72128 114.554292 
L 468.61632 112.360775 
L 487.56672 112.360775 
L 489.46176 110.167257 
L 497.04192 110.167257 
L 498.93696 107.97374 
L 502.72704 107.97374 
L 504.62208 105.780223 
L 510.3072 105.780223 
L 512.20224 103.586706 
L 544.41792 103.586706 
L 546.31296 101.955629 
L 557.6832 101.955629 
L 559.57824 99.762111 
L 565.26336 99.762111 
L 567.1584 98.131034 
L 642.96 98.131034 
L 642.96 98.131034 
" clip-path="url(#p0fe08cfbe3)" style="fill: none; stroke-dasharray: 1.35,2.2275; stroke-dashoffset: 0; stroke: #7d8a92; stroke-width: 1.35"/>
   </g>
   <g id="line2d_31">
    <path d="M 74.448 348.192 
L 112.3488 348.192 
L 114.24384 345.998483 
L 142.66944 345.998483 
L 144.56448 343.804966 
L 150.2496 343.804966 
L 152.14464 341.611448 
L 167.30496 341.611448 
L 169.2 337.224414 
L 172.99008 337.224414 
L 174.88512 335.030897 
L 178.6752 335.030897 
L 180.57024 332.837379 
L 182.46528 332.837379 
L 186.25536 328.450345 
L 188.1504 328.450345 
L 190.04544 326.819268 
L 191.94048 324.625751 
L 195.73056 324.625751 
L 197.6256 320.238716 
L 203.31072 320.238716 
L 205.20576 318.045199 
L 207.1008 318.045199 
L 208.99584 316.414122 
L 212.78592 316.414122 
L 214.68096 314.220605 
L 216.576 314.220605 
L 220.36608 309.83357 
L 229.84128 309.83357 
L 235.5264 303.253019 
L 245.0016 303.253019 
L 248.79168 298.865984 
L 250.68672 298.865984 
L 252.58176 296.672467 
L 258.26688 296.672467 
L 260.16192 295.04139 
L 262.05696 292.847873 
L 282.9024 292.847873 
L 286.69248 289.585719 
L 288.58752 287.392202 
L 290.48256 283.567607 
L 292.3776 280.305454 
L 296.16768 275.918419 
L 298.06272 275.918419 
L 299.95776 273.724902 
L 303.74784 270.462748 
L 305.64288 270.462748 
L 309.43296 266.075714 
L 311.328 266.075714 
L 313.22304 264.444637 
L 315.11808 264.444637 
L 317.01312 262.251119 
L 318.90816 254.039491 
L 320.8032 250.214897 
L 322.69824 250.214897 
L 324.59328 246.390302 
L 328.38336 246.390302 
L 330.2784 243.128149 
L 334.06848 243.128149 
L 335.96352 241.497072 
L 337.85856 233.847883 
L 339.7536 231.654366 
L 345.43872 231.654366 
L 347.33376 227.829772 
L 349.2288 227.829772 
L 354.91392 222.936541 
L 356.80896 220.743024 
L 358.704 215.849793 
L 362.49408 215.849793 
L 364.38912 214.218716 
L 366.28416 210.394122 
L 368.1792 208.200605 
L 370.07424 204.938451 
L 371.96928 204.938451 
L 373.86432 202.744934 
L 377.6544 199.48278 
L 379.54944 199.48278 
L 383.33952 196.220626 
L 385.23456 194.027109 
L 387.1296 190.202515 
L 389.02464 190.202515 
L 392.81472 186.940361 
L 404.18496 186.940361 
L 406.08 185.309284 
L 407.97504 182.04713 
L 409.87008 180.416053 
L 411.76512 180.416053 
L 415.5552 177.153899 
L 417.45024 173.329305 
L 421.24032 173.329305 
L 430.71552 165.17392 
L 432.61056 165.17392 
L 434.5056 162.980403 
L 436.40064 162.980403 
L 438.29568 161.349326 
L 442.08576 161.349326 
L 443.9808 159.718249 
L 449.66592 159.718249 
L 451.56096 155.893655 
L 455.35104 155.893655 
L 457.24608 151.506621 
L 461.03616 148.244467 
L 462.9312 148.244467 
L 464.82624 144.982313 
L 466.72128 143.351236 
L 468.61632 138.458005 
L 470.51136 136.826928 
L 476.19648 136.826928 
L 479.98656 133.564775 
L 481.8816 133.564775 
L 483.77664 131.933698 
L 487.56672 131.933698 
L 489.46176 130.302621 
L 491.3568 130.302621 
L 493.25184 127.040467 
L 495.14688 127.040467 
L 497.04192 125.40939 
L 498.93696 123.215873 
L 500.832 121.584796 
L 514.09728 121.584796 
L 515.99232 119.953719 
L 525.46752 119.953719 
L 529.2576 116.691565 
L 533.04768 116.691565 
L 534.94272 115.060488 
L 540.62784 115.060488 
L 542.52288 113.429411 
L 544.41792 111.235894 
L 548.208 111.235894 
L 550.10304 109.604817 
L 551.99808 109.604817 
L 553.89312 107.97374 
L 559.57824 107.97374 
L 561.47328 105.780223 
L 563.36832 104.149146 
L 635.37984 104.149146 
L 637.27488 101.955629 
L 642.96 101.955629 
L 642.96 101.955629 
" clip-path="url(#p0fe08cfbe3)" style="fill: none; stroke-dasharray: 8.64,2.16,1.35,2.16; stroke-dashoffset: 0; stroke: #d0526a; stroke-width: 1.35"/>
   </g>
   <g id="line2d_32">
    <path d="M 74.448 348.192 
L 127.50912 348.192 
L 129.40416 345.998483 
L 157.82976 345.998483 
L 159.7248 343.804966 
L 182.46528 343.804966 
L 184.36032 341.611448 
L 186.25536 341.611448 
L 188.1504 339.417931 
L 193.83552 339.417931 
L 201.41568 330.643862 
L 203.31072 330.643862 
L 205.20576 328.450345 
L 207.1008 328.450345 
L 208.99584 326.256828 
L 212.78592 326.256828 
L 214.68096 324.06331 
L 229.84128 324.06331 
L 231.73632 321.869793 
L 237.42144 321.869793 
L 239.31648 319.676276 
L 256.37184 319.676276 
L 258.26688 315.289241 
L 263.952 315.289241 
L 265.84704 313.658164 
L 269.63712 313.658164 
L 273.4272 309.27113 
L 275.32224 309.27113 
L 279.11232 304.884095 
L 281.00736 304.884095 
L 282.9024 302.690578 
L 286.69248 302.690578 
L 288.58752 300.497061 
L 292.3776 300.497061 
L 294.27264 298.865984 
L 298.06272 298.865984 
L 301.8528 294.47895 
L 305.64288 294.47895 
L 313.22304 285.704881 
L 324.59328 285.704881 
L 326.48832 281.880286 
L 328.38336 280.24921 
L 334.06848 280.24921 
L 335.96352 278.055692 
L 339.7536 278.055692 
L 341.64864 275.862175 
L 349.2288 275.862175 
L 351.12384 272.600021 
L 370.07424 272.600021 
L 375.75936 267.70679 
L 377.6544 262.251119 
L 379.54944 262.251119 
L 381.44448 256.795448 
L 383.33952 252.970854 
L 385.23456 252.970854 
L 387.1296 249.14626 
L 394.70976 249.14626 
L 396.6048 247.515183 
L 398.49984 247.515183 
L 400.39488 245.321666 
L 402.28992 245.321666 
L 404.18496 239.303554 
L 406.08 237.672477 
L 409.87008 237.672477 
L 411.76512 236.041401 
L 415.5552 231.654366 
L 417.45024 230.023289 
L 423.13536 230.023289 
L 425.0304 224.567618 
L 428.82048 224.567618 
L 430.71552 222.374101 
L 432.61056 220.743024 
L 434.5056 218.549507 
L 436.40064 216.91843 
L 440.19072 216.91843 
L 443.9808 213.656276 
L 447.77088 213.656276 
L 449.66592 208.763045 
L 451.56096 204.938451 
L 453.456 204.938451 
L 455.35104 203.307374 
L 457.24608 203.307374 
L 459.14112 201.676297 
L 461.03616 199.48278 
L 464.82624 196.220626 
L 466.72128 196.220626 
L 468.61632 192.396032 
L 470.51136 189.133878 
L 472.4064 189.133878 
L 474.30144 185.871724 
L 476.19648 184.240647 
L 478.09152 182.04713 
L 479.98656 182.04713 
L 481.8816 179.853613 
L 489.46176 179.853613 
L 491.3568 178.222536 
L 493.25184 178.222536 
L 498.93696 173.329305 
L 500.832 173.329305 
L 504.62208 166.804997 
L 506.51712 166.804997 
L 508.41216 165.17392 
L 512.20224 165.17392 
L 514.09728 163.542844 
L 515.99232 160.28069 
L 517.88736 158.649613 
L 523.57248 158.649613 
L 527.36256 155.387459 
L 529.2576 153.193942 
L 531.15264 151.562865 
L 533.04768 151.562865 
L 534.94272 149.931788 
L 540.62784 149.931788 
L 542.52288 147.738271 
L 544.41792 146.107194 
L 546.31296 143.913676 
L 550.10304 143.913676 
L 551.99808 142.282599 
L 553.89312 140.089082 
L 555.78816 138.458005 
L 557.6832 138.458005 
L 559.57824 136.826928 
L 561.47328 136.826928 
L 565.26336 133.564775 
L 567.1584 133.564775 
L 569.05344 130.302621 
L 574.73856 130.302621 
L 576.6336 128.671544 
L 584.21376 128.671544 
L 586.1088 125.40939 
L 589.89888 117.760202 
L 591.79392 116.129125 
L 618.32448 116.129125 
L 620.21952 114.498048 
L 622.11456 114.498048 
L 624.0096 112.866971 
L 627.79968 112.866971 
L 629.69472 110.673454 
L 635.37984 110.673454 
L 637.27488 109.042377 
L 641.06496 109.042377 
L 642.96 107.4113 
L 642.96 107.4113 
" clip-path="url(#p0fe08cfbe3)" style="fill: none; stroke-dasharray: 6.75,2.7,1.35,2.7; stroke-dashoffset: 0; stroke: #2f8f84; stroke-width: 1.35"/>
   </g>
   <g id="patch_4">
    <path d="M 74.448 348.192 
L 74.448 93.744 
" style="fill: none; stroke: #000000; stroke-width: 0.8; stroke-linejoin: miter; stroke-linecap: square"/>
   </g>
   <g id="patch_5">
    <path d="M 74.448 348.192 
L 642.96 348.192 
" style="fill: none; stroke: #000000; stroke-width: 0.8; stroke-linejoin: miter; stroke-linecap: square"/>
   </g>
  </g>
  <g id="text_16">
   <text style="font: 18px 'DejaVu Sans', 'Bitstream Vera Sans', 'Computer Modern Sans Serif', 'Lucida Grande', 'Verdana', 'Geneva', 'Lucid', 'Arial', 'Helvetica', 'Avant Garde', sans-serif; text-anchor: start" x="74.448" y="38.229188" transform="rotate(-0 74.448 38.229188)">QD-OLED → WLED LCD</text>
  </g>
  <g id="text_17">
   <text style="fill: #66747c; font: 10px 'DejaVu Sans', 'Bitstream Vera Sans', 'Computer Modern Sans Serif', 'Lucida Grande', 'Verdana', 'Geneva', 'Lucid', 'Arial', 'Helvetica', 'Avant Garde', sans-serif; text-anchor: start" x="74.448" y="64.728" transform="rotate(-0 74.448 64.728)">All illuminants</text>
  </g>
  <g id="legend_1">
   <g id="line2d_33">
    <path d="M 185.17875 404.151391 
L 194.27875 404.151391 
L 203.37875 404.151391 
" style="fill: none; stroke: #252525; stroke-width: 2.5; stroke-linecap: square"/>
   </g>
   <g id="text_18">
    <text style="font: 9.1px 'DejaVu Sans', 'Bitstream Vera Sans', 'Computer Modern Sans Serif', 'Lucida Grande', 'Verdana', 'Geneva', 'Lucid', 'Arial', 'Helvetica', 'Avant Garde', sans-serif; text-anchor: start" x="210.65875" y="407.336391" transform="rotate(-0 210.65875 407.336391)">Potera CMF</text>
   </g>
   <g id="line2d_34">
    <path d="M 185.17875 417.508484 
L 194.27875 417.508484 
L 203.37875 417.508484 
" style="fill: none; stroke: #3b83b4; stroke-width: 1.35; stroke-linecap: square"/>
   </g>
   <g id="text_19">
    <text style="font: 9.1px 'DejaVu Sans', 'Bitstream Vera Sans', 'Computer Modern Sans Serif', 'Lucida Grande', 'Verdana', 'Geneva', 'Lucid', 'Arial', 'Helvetica', 'Avant Garde', sans-serif; text-anchor: start" x="210.65875" y="420.693484" transform="rotate(-0 210.65875 420.693484)">CIE 2015 2°</text>
   </g>
   <g id="line2d_35">
    <path d="M 282.931234 404.151391 
L 292.031234 404.151391 
L 301.131234 404.151391 
" style="fill: none; stroke-dasharray: 4.995,2.16; stroke-dashoffset: 0; stroke: #c38a19; stroke-width: 1.35"/>
   </g>
   <g id="text_20">
    <text style="font: 9.1px 'DejaVu Sans', 'Bitstream Vera Sans', 'Computer Modern Sans Serif', 'Lucida Grande', 'Verdana', 'Geneva', 'Lucid', 'Arial', 'Helvetica', 'Avant Garde', sans-serif; text-anchor: start" x="308.411234" y="407.336391" transform="rotate(-0 308.411234 407.336391)">CIE 2015 10°</text>
   </g>
   <g id="line2d_36">
    <path d="M 282.931234 417.508484 
L 292.031234 417.508484 
L 301.131234 417.508484 
" style="fill: none; stroke-dasharray: 1.35,2.2275; stroke-dashoffset: 0; stroke: #7d8a92; stroke-width: 1.35"/>
   </g>
   <g id="text_21">
    <text style="font: 9.1px 'DejaVu Sans', 'Bitstream Vera Sans', 'Computer Modern Sans Serif', 'Lucida Grande', 'Verdana', 'Geneva', 'Lucid', 'Arial', 'Helvetica', 'Avant Garde', sans-serif; text-anchor: start" x="308.411234" y="420.693484" transform="rotate(-0 308.411234 420.693484)">CIE 1964 10°</text>
   </g>
   <g id="line2d_37">
    <path d="M 386.473594 404.151391 
L 395.573594 404.151391 
L 404.673594 404.151391 
" style="fill: none; stroke-dasharray: 8.64,2.16,1.35,2.16; stroke-dashoffset: 0; stroke: #d0526a; stroke-width: 1.35"/>
   </g>
   <g id="text_22">
    <text style="font: 9.1px 'DejaVu Sans', 'Bitstream Vera Sans', 'Computer Modern Sans Serif', 'Lucida Grande', 'Verdana', 'Geneva', 'Lucid', 'Arial', 'Helvetica', 'Avant Garde', sans-serif; text-anchor: start" x="411.953594" y="407.336391" transform="rotate(-0 411.953594 407.336391)">CIE 1931 2°</text>
   </g>
   <g id="line2d_38">
    <path d="M 386.473594 417.508484 
L 395.573594 417.508484 
L 404.673594 417.508484 
" style="fill: none; stroke-dasharray: 6.75,2.7,1.35,2.7; stroke-dashoffset: 0; stroke: #2f8f84; stroke-width: 1.35"/>
   </g>
   <g id="text_23">
    <text style="font: 9.1px 'DejaVu Sans', 'Bitstream Vera Sans', 'Computer Modern Sans Serif', 'Lucida Grande', 'Verdana', 'Geneva', 'Lucid', 'Arial', 'Helvetica', 'Avant Garde', sans-serif; text-anchor: start" x="411.953594" y="420.693484" transform="rotate(-0 411.953594 420.693484)">Judd–Vos 1978 2°</text>
   </g>
  </g>
 </g>
 <defs>
  <clipPath id="p0fe08cfbe3">
   <rect x="74.448" y="93.744" width="568.512" height="254.448"/>
  </clipPath>
 </defs>
</svg>
