<?xml version="1.0" encoding="utf-8" standalone="no"?>
<!DOCTYPE svg PUBLIC "-//W3C//DTD SVG 1.1//EN"
  "http://www.w3.org/Graphics/SVG/1.1/DTD/svg11.dtd">
<svg xmlns:xlink="http://www.w3.org/1999/xlink" width="676.8pt" height="446.4pt" viewBox="0 0 676.8 446.4" xmlns="http://www.w3.org/2000/svg" version="1.1">
 <metadata>
  <rdf:RDF xmlns:dc="http://purl.org/dc/elements/1.1/" xmlns:cc="http://creativecommons.org/ns#" xmlns:rdf="http://www.w3.org/1999/02/22-rdf-syntax-ns#">
   <cc:Work>
    <dc:type rdf:resource="http://purl.org/dc/dcmitype/StillImage"/>
    <dc:date>2026-07-20T06:42:01.670887</dc:date>
    <dc:format>image/svg+xml</dc:format>
    <dc:creator>
     <cc:Agent>
      <dc:title>Matplotlib v3.9.4, https://matplotlib.org/</dc:title>
     </cc:Agent>
    </dc:creator>
   </cc:Work>
  </rdf:RDF>
 </metadata>
 <defs>
  <style type="text/css">*{stroke-linejoin: round; stroke-linecap: butt}</style>
 </defs>
 <g id="figure_1">
  <g id="patch_1">
   <path d="M 0 446.4 
L 676.8 446.4 
L 676.8 0 
L 0 0 
z
" style="fill: #ffffff"/>
  </g>
  <g id="axes_1">
   <g id="patch_2">
    <path d="M 74.448 348.192 
L 642.96 348.192 
L 642.96 93.744 
L 74.448 93.744 
z
" style="fill: #ffffff"/>
   </g>
   <g id="patch_3">
    <path d="M 169.2 348.192 
L 358.704 348.192 
L 358.704 93.744 
L 169.2 93.744 
z
" clip-path="url(#p1f4f59b389)" style="fill: #e7f0ea; opacity: 0.58; stroke: #e7f0ea; stroke-linejoin: miter"/>
   </g>
   <g id="matplotlib.axis_1">
    <g id="xtick_1">
     <g id="line2d_1">
      <path d="M 74.448 348.192 
L 74.448 93.744 
" clip-path="url(#p1f4f59b389)" style="fill: none; stroke: #dfe5e8; stroke-width: 0.65; stroke-linecap: square"/>
     </g>
     <g id="line2d_2">
      <defs>
       <path id="ma325d7ee25" d="M 0 0 
L 0 3.5 
" style="stroke: #000000; stroke-width: 0.8"/>
      </defs>
      <g>
       <use xlink:href="#ma325d7ee25" x="74.448" y="348.192" style="stroke: #000000; stroke-width: 0.8"/>
      </g>
     </g>
     <g id="text_1">
      <text style="font: 10px 'DejaVu Sans', 'Bitstream Vera Sans', 'Computer Modern Sans Serif', 'Lucida Grande', 'Verdana', 'Geneva', 'Lucid', 'Arial', 'Helvetica', 'Avant Garde', sans-serif; text-anchor: middle" x="74.448" y="362.790438" transform="rotate(-0 74.448 362.790438)">0</text>
     </g>
    </g>
    <g id="xtick_2">
     <g id="line2d_3">
      <path d="M 169.2 348.192 
L 169.2 93.744 
" clip-path="url(#p1f4f59b389)" style="fill: none; stroke: #dfe5e8; stroke-width: 0.65; stroke-linecap: square"/>
     </g>
     <g id="line2d_4">
      <g>
       <use xlink:href="#ma325d7ee25" x="169.2" y="348.192" style="stroke: #000000; stroke-width: 0.8"/>
      </g>
     </g>
     <g id="text_2">
      <text style="font: 10px 'DejaVu Sans', 'Bitstream Vera Sans', 'Computer Modern Sans Serif', 'Lucida Grande', 'Verdana', 'Geneva', 'Lucid', 'Arial', 'Helvetica', 'Avant Garde', sans-serif; text-anchor: middle" x="169.2" y="362.790438" transform="rotate(-0 169.2 362.790438)">1</text>
     </g>
    </g>
    <g id="xtick_3">
     <g id="line2d_5">
      <path d="M 263.952 348.192 
L 263.952 93.744 
" clip-path="url(#p1f4f59b389)" style="fill: none; stroke: #dfe5e8; stroke-width: 0.65; stroke-linecap: square"/>
     </g>
     <g id="line2d_6">
      <g>
       <use xlink:href="#ma325d7ee25" x="263.952" y="348.192" style="stroke: #000000; stroke-width: 0.8"/>
      </g>
     </g>
     <g id="text_3">
      <text style="font: 10px 'DejaVu Sans', 'Bitstream Vera Sans', 'Computer Modern Sans Serif', 'Lucida Grande', 'Verdana', 'Geneva', 'Lucid', 'Arial', 'Helvetica', 'Avant Garde', sans-serif; text-anchor: middle" x="263.952" y="362.790438" transform="rotate(-0 263.952 362.790438)">2</text>
     </g>
    </g>
    <g id="xtick_4">
     <g id="line2d_7">
      <path d="M 358.704 348.192 
L 358.704 93.744 
" clip-path="url(#p1f4f59b389)" style="fill: none; stroke: #dfe5e8; stroke-width: 0.65; stroke-linecap: square"/>
     </g>
     <g id="line2d_8">
      <g>
       <use xlink:href="#ma325d7ee25" x="358.704" y="348.192" style="stroke: #000000; stroke-width: 0.8"/>
      </g>
     </g>
     <g id="text_4">
      <text style="font: 10px 'DejaVu Sans', 'Bitstream Vera Sans', 'Computer Modern Sans Serif', 'Lucida Grande', 'Verdana', 'Geneva', 'Lucid', 'Arial', 'Helvetica', 'Avant Garde', sans-serif; text-anchor: middle" x="358.704" y="362.790438" transform="rotate(-0 358.704 362.790438)">3</text>
     </g>
    </g>
    <g id="xtick_5">
     <g id="line2d_9">
      <path d="M 453.456 348.192 
L 453.456 93.744 
" clip-path="url(#p1f4f59b389)" style="fill: none; stroke: #dfe5e8; stroke-width: 0.65; stroke-linecap: square"/>
     </g>
     <g id="line2d_10">
      <g>
       <use xlink:href="#ma325d7ee25" x="453.456" y="348.192" style="stroke: #000000; stroke-width: 0.8"/>
      </g>
     </g>
     <g id="text_5">
      <text style="font: 10px 'DejaVu Sans', 'Bitstream Vera Sans', 'Computer Modern Sans Serif', 'Lucida Grande', 'Verdana', 'Geneva', 'Lucid', 'Arial', 'Helvetica', 'Avant Garde', sans-serif; text-anchor: middle" x="453.456" y="362.790438" transform="rotate(-0 453.456 362.790438)">4</text>
     </g>
    </g>
    <g id="xtick_6">
     <g id="line2d_11">
      <path d="M 548.208 348.192 
L 548.208 93.744 
" clip-path="url(#p1f4f59b389)" style="fill: none; stroke: #dfe5e8; stroke-width: 0.65; stroke-linecap: square"/>
     </g>
     <g id="line2d_12">
      <g>
       <use xlink:href="#ma325d7ee25" x="548.208" y="348.192" style="stroke: #000000; stroke-width: 0.8"/>
      </g>
     </g>
     <g id="text_6">
      <text style="font: 10px 'DejaVu Sans', 'Bitstream Vera Sans', 'Computer Modern Sans Serif', 'Lucida Grande', 'Verdana', 'Geneva', 'Lucid', 'Arial', 'Helvetica', 'Avant Garde', sans-serif; text-anchor: middle" x="548.208" y="362.790438" transform="rotate(-0 548.208 362.790438)">5</text>
     </g>
    </g>
    <g id="xtick_7">
     <g id="line2d_13">
      <path d="M 642.96 348.192 
L 642.96 93.744 
" clip-path="url(#p1f4f59b389)" style="fill: none; stroke: #dfe5e8; stroke-width: 0.65; stroke-linecap: square"/>
     </g>
     <g id="line2d_14">
      <g>
       <use xlink:href="#ma325d7ee25" x="642.96" y="348.192" style="stroke: #000000; stroke-width: 0.8"/>
      </g>
     </g>
     <g id="text_7">
      <text style="font: 10px 'DejaVu Sans', 'Bitstream Vera Sans', 'Computer Modern Sans Serif', 'Lucida Grande', 'Verdana', 'Geneva', 'Lucid', 'Arial', 'Helvetica', 'Avant Garde', sans-serif; text-anchor: middle" x="642.96" y="362.790438" transform="rotate(-0 642.96 362.790438)">6</text>
     </g>
    </g>
    <g id="text_8">
     <text style="font: 10px 'DejaVu Sans', 'Bitstream Vera Sans', 'Computer Modern Sans Serif', 'Lucida Grande', 'Verdana', 'Geneva', 'Lucid', 'Arial', 'Helvetica', 'Avant Garde', sans-serif; text-anchor: middle" x="358.704" y="376.468563" transform="rotate(-0 358.704 376.468563)">sUCS dE threshold</text>
    </g>
   </g>
   <g id="matplotlib.axis_2">
    <g id="ytick_1">
     <g id="line2d_15">
      <path d="M 74.448 348.192 
L 642.96 348.192 
" clip-path="url(#p1f4f59b389)" style="fill: none; stroke: #dfe5e8; stroke-width: 0.65; stroke-linecap: square"/>
     </g>
     <g id="line2d_16">
      <defs>
       <path id="ma1f387141c" d="M 0 0 
L -3.5 0 
" style="stroke: #000000; stroke-width: 0.8"/>
      </defs>
      <g>
       <use xlink:href="#ma1f387141c" x="74.448" y="348.192" style="stroke: #000000; stroke-width: 0.8"/>
      </g>
     </g>
     <g id="text_9">
      <text style="font: 10px 'DejaVu Sans', 'Bitstream Vera Sans', 'Computer Modern Sans Serif', 'Lucida Grande', 'Verdana', 'Geneva', 'Lucid', 'Arial', 'Helvetica', 'Avant Garde', sans-serif; text-anchor: end" x="67.448" y="351.991219" transform="rotate(-0 67.448 351.991219)">0</text>
     </g>
    </g>
    <g id="ytick_2">
     <g id="line2d_17">
      <path d="M 74.448 297.3024 
L 642.96 297.3024 
" clip-path="url(#p1f4f59b389)" style="fill: none; stroke: #dfe5e8; stroke-width: 0.65; stroke-linecap: square"/>
     </g>
     <g id="line2d_18">
      <g>
       <use xlink:href="#ma1f387141c" x="74.448" y="297.3024" style="stroke: #000000; stroke-width: 0.8"/>
      </g>
     </g>
     <g id="text_10">
      <text style="font: 10px 'DejaVu Sans', 'Bitstream Vera Sans', 'Computer Modern Sans Serif', 'Lucida Grande', 'Verdana', 'Geneva', 'Lucid', 'Arial', 'Helvetica', 'Avant Garde', sans-serif; text-anchor: end" x="67.448" y="301.101619" transform="rotate(-0 67.448 301.101619)">20</text>
     </g>
    </g>
    <g id="ytick_3">
     <g id="line2d_19">
      <path d="M 74.448 246.4128 
L 642.96 246.4128 
" clip-path="url(#p1f4f59b389)" style="fill: none; stroke: #dfe5e8; stroke-width: 0.65; stroke-linecap: square"/>
     </g>
     <g id="line2d_20">
      <g>
       <use xlink:href="#ma1f387141c" x="74.448" y="246.4128" style="stroke: #000000; stroke-width: 0.8"/>
      </g>
     </g>
     <g id="text_11">
      <text style="font: 10px 'DejaVu Sans', 'Bitstream Vera Sans', 'Computer Modern Sans Serif', 'Lucida Grande', 'Verdana', 'Geneva', 'Lucid', 'Arial', 'Helvetica', 'Avant Garde', sans-serif; text-anchor: end" x="67.448" y="250.212019" transform="rotate(-0 67.448 250.212019)">40</text>
     </g>
    </g>
    <g id="ytick_4">
     <g id="line2d_21">
      <path d="M 74.448 195.5232 
L 642.96 195.5232 
" clip-path="url(#p1f4f59b389)" style="fill: none; stroke: #dfe5e8; stroke-width: 0.65; stroke-linecap: square"/>
     </g>
     <g id="line2d_22">
      <g>
       <use xlink:href="#ma1f387141c" x="74.448" y="195.5232" style="stroke: #000000; stroke-width: 0.8"/>
      </g>
     </g>
     <g id="text_12">
      <text style="font: 10px 'DejaVu Sans', 'Bitstream Vera Sans', 'Computer Modern Sans Serif', 'Lucida Grande', 'Verdana', 'Geneva', 'Lucid', 'Arial', 'Helvetica', 'Avant Garde', sans-serif; text-anchor: end" x="67.448" y="199.322419" transform="rotate(-0 67.448 199.322419)">60</text>
     </g>
    </g>
    <g id="ytick_5">
     <g id="line2d_23">
      <path d="M 74.448 144.6336 
L 642.96 144.6336 
" clip-path="url(#p1f4f59b389)" style="fill: none; stroke: #dfe5e8; stroke-width: 0.65; stroke-linecap: square"/>
     </g>
     <g id="line2d_24">
      <g>
       <use xlink:href="#ma1f387141c" x="74.448" y="144.6336" style="stroke: #000000; stroke-width: 0.8"/>
      </g>
     </g>
     <g id="text_13">
      <text style="font: 10px 'DejaVu Sans', 'Bitstream Vera Sans', 'Computer Modern Sans Serif', 'Lucida Grande', 'Verdana', 'Geneva', 'Lucid', 'Arial', 'Helvetica', 'Avant Garde', sans-serif; text-anchor: end" x="67.448" y="148.432819" transform="rotate(-0 67.448 148.432819)">80</text>
     </g>
    </g>
    <g id="ytick_6">
     <g id="line2d_25">
      <path d="M 74.448 93.744 
L 642.96 93.744 
" clip-path="url(#p1f4f59b389)" style="fill: none; stroke: #dfe5e8; stroke-width: 0.65; stroke-linecap: square"/>
     </g>
     <g id="line2d_26">
      <g>
       <use xlink:href="#ma1f387141c" x="74.448" y="93.744" style="stroke: #000000; stroke-width: 0.8"/>
      </g>
     </g>
     <g id="text_14">
      <text style="font: 10px 'DejaVu Sans', 'Bitstream Vera Sans', 'Computer Modern Sans Serif', 'Lucida Grande', 'Verdana', 'Geneva', 'Lucid', 'Arial', 'Helvetica', 'Avant Garde', sans-serif; text-anchor: end" x="67.448" y="97.543219" transform="rotate(-0 67.448 97.543219)">100</text>
     </g>
    </g>
    <g id="text_15">
     <text style="font: 10px 'DejaVu Sans', 'Bitstream Vera Sans', 'Computer Modern Sans Serif', 'Lucida Grande', 'Verdana', 'Geneva', 'Lucid', 'Arial', 'Helvetica', 'Avant Garde', sans-serif; text-anchor: middle" x="42.280812" y="220.968" transform="rotate(-90 42.280812 220.968)">observers%</text>
    </g>
   </g>
   <g id="line2d_27">
    <path d="M 74.448 348.192 
L 95.29344 348.192 
L 97.18848 346.560923 
L 99.08352 346.560923 
L 100.97856 343.298769 
L 108.55872 343.298769 
L 114.24384 338.405538 
L 116.13888 338.405538 
L 118.03392 336.774462 
L 127.50912 336.774462 
L 129.40416 334.580944 
L 133.19424 331.31879 
L 136.98432 331.31879 
L 138.87936 329.687714 
L 140.7744 329.687714 
L 142.66944 326.42556 
L 144.56448 324.794483 
L 146.45952 322.600966 
L 148.35456 319.338812 
L 152.14464 319.338812 
L 154.03968 314.445581 
L 157.82976 311.183427 
L 159.7248 311.183427 
L 163.51488 307.921273 
L 165.40992 302.465602 
L 167.30496 295.88505 
L 169.2 293.691533 
L 171.09504 292.060456 
L 172.99008 292.060456 
L 176.78016 284.411268 
L 178.6752 284.411268 
L 180.57024 282.780191 
L 184.36032 282.780191 
L 190.04544 277.88696 
L 191.94048 275.693443 
L 199.52064 275.693443 
L 201.41568 274.062366 
L 203.31072 270.800212 
L 205.20576 269.169135 
L 207.1008 269.169135 
L 208.99584 265.906981 
L 210.89088 262.082387 
L 212.78592 262.082387 
L 214.68096 257.695353 
L 222.26112 257.695353 
L 224.15616 254.433199 
L 226.0512 254.433199 
L 227.94624 248.977528 
L 229.84128 242.959416 
L 231.73632 237.503745 
L 233.63136 237.503745 
L 237.42144 226.592403 
L 239.31648 226.592403 
L 241.21152 224.398886 
L 245.0016 224.398886 
L 246.89664 222.767809 
L 250.68672 222.767809 
L 252.58176 221.136732 
L 254.4768 218.943215 
L 256.37184 215.681061 
L 260.16192 215.681061 
L 262.05696 212.418907 
L 263.952 212.418907 
L 265.84704 210.22539 
L 267.74208 208.594313 
L 269.63712 199.876488 
L 271.53216 199.876488 
L 273.4272 198.245411 
L 277.21728 198.245411 
L 279.11232 196.051894 
L 281.00736 196.051894 
L 282.9024 192.2273 
L 284.79744 192.2273 
L 286.69248 190.596223 
L 288.58752 190.596223 
L 290.48256 188.965146 
L 294.27264 188.965146 
L 296.16768 187.334069 
L 299.95776 182.947034 
L 303.74784 182.947034 
L 305.64288 181.315958 
L 307.53792 178.053804 
L 315.11808 178.053804 
L 317.01312 175.860286 
L 320.8032 172.598133 
L 322.69824 172.598133 
L 324.59328 170.404615 
L 328.38336 170.404615 
L 330.2784 168.211098 
L 332.17344 168.211098 
L 334.06848 166.580021 
L 339.7536 159.999469 
L 345.43872 159.999469 
L 347.33376 157.805952 
L 349.2288 157.805952 
L 351.12384 153.418918 
L 364.38912 153.418918 
L 366.28416 149.031883 
L 370.07424 149.031883 
L 371.96928 146.838366 
L 375.75936 146.838366 
L 377.6544 145.207289 
L 394.70976 145.207289 
L 396.6048 143.576212 
L 398.49984 143.576212 
L 400.39488 141.382695 
L 404.18496 141.382695 
L 407.97504 136.99566 
L 409.87008 136.99566 
L 411.76512 134.802143 
L 415.5552 134.802143 
L 417.45024 132.608626 
L 442.08576 132.608626 
L 445.87584 129.346472 
L 449.66592 129.346472 
L 451.56096 127.152955 
L 464.82624 127.152955 
L 466.72128 123.328361 
L 470.51136 118.941326 
L 472.4064 118.941326 
L 476.19648 114.554292 
L 497.04192 114.554292 
L 498.93696 112.360775 
L 504.62208 112.360775 
L 506.51712 110.167257 
L 508.41216 110.167257 
L 510.3072 108.53618 
L 517.88736 108.53618 
L 519.7824 104.149146 
L 525.46752 104.149146 
L 527.36256 101.955629 
L 536.83776 101.955629 
L 538.7328 99.762111 
L 570.94848 99.762111 
L 572.84352 98.131034 
L 642.96 98.131034 
L 642.96 98.131034 
" clip-path="url(#p1f4f59b389)" style="fill: none; stroke: #252525; stroke-width: 2.5; stroke-linecap: square"/>
   </g>
   <g id="line2d_28">
    <path d="M 74.448 348.192 
L 87.71328 348.192 
L 89.60832 346.560923 
L 91.50336 344.367406 
L 108.55872 344.367406 
L 112.3488 339.980371 
L 118.03392 339.980371 
L 119.92896 337.786854 
L 127.50912 337.786854 
L 129.40416 333.96226 
L 144.56448 333.96226 
L 146.45952 331.768743 
L 154.03968 331.768743 
L 155.93472 329.575225 
L 159.7248 329.575225 
L 163.51488 325.188191 
L 169.2 325.188191 
L 171.09504 322.994674 
L 172.99008 322.994674 
L 174.88512 320.801156 
L 178.6752 320.801156 
L 180.57024 319.17008 
L 190.04544 319.17008 
L 193.83552 315.907926 
L 197.6256 311.520891 
L 199.52064 311.520891 
L 201.41568 309.327374 
L 203.31072 305.50278 
L 205.20576 303.309263 
L 207.1008 303.309263 
L 208.99584 301.678186 
L 210.89088 297.853592 
L 212.78592 297.853592 
L 214.68096 290.766844 
L 216.576 288.573326 
L 224.15616 288.573326 
L 226.0512 284.186292 
L 227.94624 280.924138 
L 229.84128 277.099544 
L 231.73632 277.099544 
L 235.5264 269.450355 
L 237.42144 267.256838 
L 239.31648 267.256838 
L 241.21152 265.063321 
L 245.0016 261.801167 
L 246.89664 261.801167 
L 248.79168 254.151979 
L 250.68672 249.764944 
L 252.58176 248.133867 
L 254.4768 248.133867 
L 256.37184 245.94035 
L 258.26688 242.678196 
L 260.16192 242.678196 
L 262.05696 241.047119 
L 263.952 238.853602 
L 265.84704 235.591448 
L 269.63712 235.591448 
L 271.53216 233.397931 
L 275.32224 230.135777 
L 279.11232 230.135777 
L 281.00736 228.5047 
L 282.9024 222.486589 
L 284.79744 222.486589 
L 286.69248 220.855512 
L 288.58752 217.593358 
L 292.3776 217.593358 
L 294.27264 212.137687 
L 296.16768 209.94417 
L 303.74784 209.94417 
L 305.64288 207.750653 
L 311.328 202.857422 
L 313.22304 199.595268 
L 315.11808 199.595268 
L 317.01312 197.964191 
L 318.90816 194.139597 
L 320.8032 192.50852 
L 322.69824 190.315003 
L 324.59328 188.683926 
L 326.48832 188.683926 
L 328.38336 187.052849 
L 330.2784 183.228255 
L 334.06848 179.966101 
L 335.96352 179.966101 
L 337.85856 178.335024 
L 339.7536 178.335024 
L 341.64864 176.703947 
L 343.54368 174.51043 
L 349.2288 174.51043 
L 351.12384 172.879353 
L 353.01888 168.492318 
L 354.91392 165.230164 
L 356.80896 165.230164 
L 358.704 160.84313 
L 364.38912 160.84313 
L 368.1792 157.580976 
L 371.96928 157.580976 
L 375.75936 154.318822 
L 377.6544 150.494228 
L 379.54944 150.494228 
L 381.44448 148.300711 
L 383.33952 146.669634 
L 385.23456 146.669634 
L 387.1296 145.038557 
L 389.02464 141.213963 
L 390.91968 141.213963 
L 392.81472 137.389369 
L 396.6048 134.127215 
L 406.08 134.127215 
L 407.97504 130.865061 
L 409.87008 129.233984 
L 413.66016 129.233984 
L 415.5552 127.602907 
L 421.24032 127.602907 
L 423.13536 123.778313 
L 425.0304 123.778313 
L 426.92544 121.584796 
L 430.71552 121.584796 
L 432.61056 118.322642 
L 436.40064 118.322642 
L 438.29568 116.691565 
L 457.24608 116.691565 
L 459.14112 115.060488 
L 462.9312 115.060488 
L 464.82624 113.429411 
L 472.4064 113.429411 
L 474.30144 111.235894 
L 479.98656 111.235894 
L 481.8816 109.604817 
L 485.67168 109.604817 
L 487.56672 107.4113 
L 497.04192 107.4113 
L 498.93696 105.780223 
L 508.41216 105.780223 
L 510.3072 104.149146 
L 567.1584 104.149146 
L 569.05344 101.955629 
L 591.79392 101.955629 
L 593.68896 99.762111 
L 616.42944 99.762111 
L 618.32448 98.131034 
L 642.96 98.131034 
L 642.96 98.131034 
" clip-path="url(#p1f4f59b389)" style="fill: none; stroke: #3b83b4; stroke-width: 1.35; stroke-linecap: square"/>
   </g>
   <g id="line2d_29">
    <path d="M 74.448 348.192 
L 80.13312 348.192 
L 82.02816 346.560923 
L 91.50336 346.560923 
L 95.29344 343.298769 
L 99.08352 343.298769 
L 100.97856 341.667692 
L 112.3488 341.667692 
L 114.24384 337.843098 
L 116.13888 336.212021 
L 118.03392 336.212021 
L 121.824 332.949867 
L 123.71904 329.687714 
L 125.61408 329.687714 
L 127.50912 328.056637 
L 138.87936 328.056637 
L 140.7744 326.42556 
L 148.35456 326.42556 
L 150.2496 321.532329 
L 152.14464 319.901252 
L 154.03968 319.901252 
L 155.93472 317.707735 
L 159.7248 317.707735 
L 161.61984 316.076658 
L 163.51488 310.620987 
L 165.40992 308.98991 
L 167.30496 304.096679 
L 169.2 304.096679 
L 171.09504 300.834525 
L 172.99008 299.203448 
L 174.88512 299.203448 
L 178.6752 295.941294 
L 180.57024 295.941294 
L 182.46528 293.747777 
L 184.36032 285.536149 
L 186.25536 283.342631 
L 188.1504 281.711554 
L 190.04544 281.711554 
L 191.94048 278.449401 
L 193.83552 274.624806 
L 205.20576 274.624806 
L 207.1008 269.731576 
L 208.99584 268.100499 
L 210.89088 262.644828 
L 216.576 262.644828 
L 218.47104 261.013751 
L 220.36608 254.995639 
L 224.15616 254.995639 
L 227.94624 247.346451 
L 229.84128 247.346451 
L 231.73632 245.715374 
L 233.63136 241.89078 
L 235.5264 240.259703 
L 239.31648 240.259703 
L 241.21152 236.997549 
L 243.10656 230.979438 
L 245.0016 227.154844 
L 246.89664 225.523767 
L 250.68672 221.136732 
L 252.58176 221.136732 
L 254.4768 219.505655 
L 256.37184 216.243501 
L 258.26688 212.418907 
L 260.16192 212.418907 
L 262.05696 210.78783 
L 267.74208 210.78783 
L 271.53216 207.525676 
L 273.4272 207.525676 
L 275.32224 205.332159 
L 277.21728 205.332159 
L 279.11232 203.138642 
L 282.9024 199.876488 
L 284.79744 196.051894 
L 286.69248 193.858377 
L 288.58752 188.402706 
L 290.48256 188.402706 
L 292.3776 186.771629 
L 307.53792 186.771629 
L 309.43296 185.140552 
L 313.22304 185.140552 
L 315.11808 183.509475 
L 317.01312 179.684881 
L 318.90816 179.684881 
L 320.8032 177.491363 
L 322.69824 175.860286 
L 332.17344 175.860286 
L 335.96352 172.598133 
L 337.85856 170.404615 
L 339.7536 170.404615 
L 341.64864 166.017581 
L 343.54368 166.017581 
L 345.43872 163.824064 
L 349.2288 163.824064 
L 351.12384 159.999469 
L 353.01888 159.999469 
L 354.91392 157.805952 
L 358.704 157.805952 
L 360.59904 155.612435 
L 366.28416 155.612435 
L 371.96928 149.031883 
L 375.75936 149.031883 
L 377.6544 146.838366 
L 392.81472 146.838366 
L 394.70976 145.207289 
L 402.28992 145.207289 
L 406.08 140.820255 
L 411.76512 140.820255 
L 413.66016 139.189178 
L 415.5552 139.189178 
L 417.45024 136.99566 
L 423.13536 136.99566 
L 425.0304 133.171066 
L 428.82048 133.171066 
L 430.71552 129.346472 
L 443.9808 129.346472 
L 445.87584 127.152955 
L 449.66592 127.152955 
L 451.56096 125.521878 
L 461.03616 125.521878 
L 466.72128 118.941326 
L 468.61632 118.941326 
L 470.51136 116.747809 
L 478.09152 116.747809 
L 479.98656 114.554292 
L 498.93696 114.554292 
L 500.832 112.360775 
L 510.3072 112.360775 
L 512.20224 110.167257 
L 515.99232 110.167257 
L 517.88736 105.780223 
L 519.7824 103.586706 
L 523.57248 103.586706 
L 525.46752 101.955629 
L 527.36256 101.955629 
L 529.2576 99.762111 
L 555.78816 99.762111 
L 557.6832 98.131034 
L 642.96 98.131034 
L 642.96 98.131034 
" clip-path="url(#p1f4f59b389)" style="fill: none; stroke-dasharray: 4.995,2.16; stroke-dashoffset: 0; stroke: #c38a19; stroke-width: 1.35"/>
   </g>
   <g id="line2d_30">
    <path d="M 74.448 348.192 
L 99.08352 348.192 
L 100.97856 346.560923 
L 108.55872 346.560923 
L 110.45376 343.298769 
L 112.3488 341.667692 
L 119.92896 341.667692 
L 121.824 339.474175 
L 123.71904 337.843098 
L 125.61408 337.843098 
L 127.50912 334.580944 
L 129.40416 334.580944 
L 131.2992 332.949867 
L 133.19424 332.949867 
L 135.08928 329.687714 
L 144.56448 329.687714 
L 146.45952 325.863119 
L 148.35456 325.863119 
L 150.2496 323.669602 
L 155.93472 323.669602 
L 157.82976 318.213931 
L 159.7248 314.951777 
L 165.40992 314.951777 
L 167.30496 311.127183 
L 169.2 309.496106 
L 174.88512 309.496106 
L 176.78016 307.302589 
L 178.6752 303.477995 
L 180.57024 301.846918 
L 182.46528 298.022324 
L 184.36032 298.022324 
L 186.25536 293.635289 
L 188.1504 289.810695 
L 190.04544 284.917464 
L 191.94048 280.53043 
L 195.73056 280.53043 
L 197.6256 278.899353 
L 199.52064 274.006122 
L 201.41568 266.919374 
L 203.31072 266.919374 
L 205.20576 265.288297 
L 207.1008 263.09478 
L 208.99584 259.270186 
L 210.89088 257.639109 
L 212.78592 252.745878 
L 214.68096 248.921284 
L 216.576 246.727767 
L 218.47104 246.727767 
L 222.26112 243.465613 
L 224.15616 243.465613 
L 226.0512 238.572382 
L 227.94624 238.572382 
L 229.84128 236.941305 
L 231.73632 234.747788 
L 233.63136 230.923194 
L 235.5264 230.923194 
L 237.42144 228.729676 
L 241.21152 225.467523 
L 246.89664 225.467523 
L 248.79168 223.836446 
L 250.68672 223.836446 
L 252.58176 222.205369 
L 254.4768 222.205369 
L 256.37184 220.574292 
L 258.26688 217.312138 
L 260.16192 217.312138 
L 262.05696 212.925103 
L 271.53216 212.925103 
L 273.4272 209.66295 
L 275.32224 209.66295 
L 277.21728 203.644838 
L 279.11232 203.644838 
L 281.00736 201.451321 
L 282.9024 201.451321 
L 284.79744 199.820244 
L 286.69248 199.820244 
L 288.58752 196.55809 
L 290.48256 194.927013 
L 292.3776 190.539979 
L 296.16768 190.539979 
L 299.95776 187.277825 
L 301.8528 187.277825 
L 303.74784 185.084308 
L 305.64288 180.697273 
L 309.43296 180.697273 
L 313.22304 177.435119 
L 317.01312 177.435119 
L 320.8032 174.172966 
L 322.69824 171.979448 
L 324.59328 171.979448 
L 326.48832 165.398897 
L 328.38336 161.574302 
L 332.17344 161.574302 
L 334.06848 159.943225 
L 335.96352 159.943225 
L 337.85856 157.749708 
L 351.12384 157.749708 
L 354.91392 154.487554 
L 356.80896 152.294037 
L 358.704 152.294037 
L 360.59904 147.907003 
L 362.49408 147.907003 
L 364.38912 146.275926 
L 366.28416 146.275926 
L 368.1792 142.451332 
L 370.07424 142.451332 
L 371.96928 140.257814 
L 402.28992 140.257814 
L 404.18496 138.064297 
L 411.76512 138.064297 
L 417.45024 133.171066 
L 421.24032 133.171066 
L 425.0304 128.784032 
L 426.92544 128.784032 
L 428.82048 126.590515 
L 430.71552 126.590515 
L 432.61056 121.134844 
L 434.5056 121.134844 
L 436.40064 116.747809 
L 457.24608 116.747809 
L 459.14112 114.554292 
L 472.4064 114.554292 
L 474.30144 110.167257 
L 479.98656 110.167257 
L 481.8816 107.97374 
L 495.14688 107.97374 
L 497.04192 105.780223 
L 506.51712 105.780223 
L 508.41216 103.586706 
L 525.46752 103.586706 
L 527.36256 101.393188 
L 536.83776 101.393188 
L 538.7328 99.762111 
L 546.31296 99.762111 
L 548.208 98.131034 
L 642.96 98.131034 
L 642.96 98.131034 
" clip-path="url(#p1f4f59b389)" style="fill: none; stroke-dasharray: 1.35,2.2275; stroke-dashoffset: 0; stroke: #7d8a92; stroke-width: 1.35"/>
   </g>
   <g id="line2d_31">
    <path d="M 74.448 348.192 
L 114.24384 348.192 
L 116.13888 345.998483 
L 133.19424 345.998483 
L 135.08928 343.804966 
L 146.45952 343.804966 
L 150.2496 339.417931 
L 154.03968 339.417931 
L 155.93472 337.224414 
L 157.82976 337.224414 
L 159.7248 335.030897 
L 176.78016 335.030897 
L 178.6752 332.837379 
L 180.57024 332.837379 
L 184.36032 328.450345 
L 190.04544 328.450345 
L 191.94048 326.256828 
L 193.83552 326.256828 
L 195.73056 324.06331 
L 197.6256 320.238716 
L 199.52064 320.238716 
L 201.41568 318.045199 
L 212.78592 318.045199 
L 214.68096 315.851682 
L 216.576 311.464647 
L 218.47104 309.27113 
L 220.36608 309.27113 
L 222.26112 307.077613 
L 227.94624 307.077613 
L 229.84128 305.446536 
L 233.63136 305.446536 
L 235.5264 303.253019 
L 237.42144 303.253019 
L 239.31648 301.059501 
L 245.0016 301.059501 
L 246.89664 298.865984 
L 252.58176 298.865984 
L 254.4768 296.672467 
L 256.37184 295.04139 
L 262.05696 295.04139 
L 263.952 290.654355 
L 267.74208 290.654355 
L 269.63712 289.023279 
L 271.53216 286.829761 
L 275.32224 286.829761 
L 277.21728 284.636244 
L 281.00736 284.636244 
L 282.9024 279.180573 
L 290.48256 279.180573 
L 292.3776 276.987056 
L 294.27264 276.987056 
L 296.16768 269.337867 
L 298.06272 267.14435 
L 299.95776 267.14435 
L 301.8528 264.950833 
L 305.64288 261.688679 
L 307.53792 256.233008 
L 311.328 256.233008 
L 315.11808 248.58382 
L 317.01312 242.565708 
L 324.59328 242.565708 
L 326.48832 240.934631 
L 328.38336 238.741114 
L 330.2784 237.110037 
L 332.17344 237.110037 
L 334.06848 234.91652 
L 335.96352 233.285443 
L 337.85856 230.023289 
L 341.64864 226.761135 
L 343.54368 224.567618 
L 345.43872 224.567618 
L 347.33376 220.180584 
L 354.91392 220.180584 
L 356.80896 216.355989 
L 358.704 214.724912 
L 362.49408 214.724912 
L 364.38912 213.093836 
L 366.28416 213.093836 
L 368.1792 207.638164 
L 370.07424 206.007088 
L 373.86432 206.007088 
L 377.6544 202.744934 
L 379.54944 200.551416 
L 381.44448 198.92034 
L 383.33952 198.92034 
L 385.23456 196.726822 
L 387.1296 196.726822 
L 389.02464 194.533305 
L 390.91968 192.902228 
L 392.81472 189.640074 
L 396.6048 189.640074 
L 398.49984 186.37792 
L 400.39488 184.746844 
L 407.97504 184.746844 
L 413.66016 179.853613 
L 415.5552 179.853613 
L 417.45024 178.222536 
L 421.24032 171.698228 
L 423.13536 170.067151 
L 425.0304 166.242557 
L 428.82048 162.980403 
L 436.40064 162.980403 
L 442.08576 158.087172 
L 445.87584 158.087172 
L 447.77088 156.456095 
L 449.66592 154.262578 
L 451.56096 154.262578 
L 453.456 148.806907 
L 455.35104 148.806907 
L 457.24608 147.17583 
L 462.9312 147.17583 
L 464.82624 145.544753 
L 468.61632 145.544753 
L 470.51136 141.720159 
L 474.30144 141.720159 
L 476.19648 136.826928 
L 479.98656 136.826928 
L 483.77664 133.564775 
L 485.67168 133.564775 
L 487.56672 131.933698 
L 489.46176 131.933698 
L 491.3568 130.302621 
L 493.25184 130.302621 
L 495.14688 128.671544 
L 498.93696 128.671544 
L 502.72704 125.40939 
L 506.51712 125.40939 
L 508.41216 123.215873 
L 510.3072 123.215873 
L 512.20224 119.953719 
L 515.99232 119.953719 
L 517.88736 118.322642 
L 523.57248 118.322642 
L 525.46752 116.691565 
L 533.04768 116.691565 
L 534.94272 115.060488 
L 540.62784 115.060488 
L 542.52288 112.866971 
L 555.78816 112.866971 
L 557.6832 111.235894 
L 563.36832 111.235894 
L 565.26336 109.042377 
L 569.05344 105.780223 
L 580.42368 105.780223 
L 582.31872 104.149146 
L 625.90464 104.149146 
L 627.79968 101.955629 
L 633.4848 101.955629 
L 635.37984 99.762111 
L 642.96 99.762111 
L 642.96 99.762111 
" clip-path="url(#p1f4f59b389)" style="fill: none; stroke-dasharray: 8.64,2.16,1.35,2.16; stroke-dashoffset: 0; stroke: #d0526a; stroke-width: 1.35"/>
   </g>
   <g id="line2d_32">
    <path d="M 74.448 348.192 
L 112.3488 348.192 
L 114.24384 345.998483 
L 154.03968 345.998483 
L 155.93472 343.804966 
L 174.88512 343.804966 
L 180.57024 337.224414 
L 184.36032 337.224414 
L 186.25536 335.030897 
L 190.04544 335.030897 
L 191.94048 330.643862 
L 195.73056 326.256828 
L 208.99584 326.256828 
L 210.89088 324.06331 
L 224.15616 324.06331 
L 226.0512 321.869793 
L 229.84128 321.869793 
L 231.73632 319.676276 
L 241.21152 319.676276 
L 245.0016 315.289241 
L 254.4768 315.289241 
L 256.37184 313.095724 
L 260.16192 313.095724 
L 262.05696 310.902207 
L 265.84704 310.902207 
L 267.74208 308.70869 
L 271.53216 308.70869 
L 273.4272 306.515172 
L 275.32224 302.690578 
L 277.21728 298.303544 
L 279.11232 296.110027 
L 281.00736 296.110027 
L 282.9024 293.916509 
L 284.79744 293.916509 
L 286.69248 291.722992 
L 294.27264 291.722992 
L 296.16768 289.529475 
L 299.95776 289.529475 
L 303.74784 285.14244 
L 309.43296 285.14244 
L 313.22304 281.880286 
L 315.11808 279.686769 
L 317.01312 278.055692 
L 324.59328 278.055692 
L 326.48832 276.424615 
L 335.96352 276.424615 
L 337.85856 274.793538 
L 339.7536 274.793538 
L 341.64864 272.600021 
L 349.2288 272.600021 
L 351.12384 268.775427 
L 354.91392 268.775427 
L 356.80896 266.58191 
L 358.704 266.58191 
L 360.59904 262.757316 
L 364.38912 259.495162 
L 366.28416 259.495162 
L 373.86432 252.970854 
L 375.75936 250.777337 
L 377.6544 250.777337 
L 379.54944 248.58382 
L 381.44448 248.58382 
L 383.33952 246.952743 
L 385.23456 242.565708 
L 387.1296 240.372191 
L 389.02464 240.372191 
L 390.91968 238.741114 
L 392.81472 238.741114 
L 394.70976 237.110037 
L 396.6048 233.285443 
L 400.39488 233.285443 
L 402.28992 227.829772 
L 406.08 227.829772 
L 409.87008 224.567618 
L 411.76512 224.567618 
L 413.66016 222.374101 
L 417.45024 219.111947 
L 425.0304 219.111947 
L 428.82048 214.724912 
L 430.71552 213.093836 
L 432.61056 209.831682 
L 434.5056 209.831682 
L 436.40064 206.007088 
L 442.08576 201.113857 
L 445.87584 201.113857 
L 447.77088 197.289263 
L 455.35104 197.289263 
L 457.24608 193.464668 
L 459.14112 191.833592 
L 464.82624 191.833592 
L 466.72128 190.202515 
L 468.61632 188.008997 
L 474.30144 183.115767 
L 476.19648 183.115767 
L 479.98656 179.853613 
L 483.77664 179.853613 
L 485.67168 176.591459 
L 489.46176 173.329305 
L 491.3568 170.067151 
L 493.25184 170.067151 
L 497.04192 166.804997 
L 498.93696 166.804997 
L 500.832 165.17392 
L 502.72704 165.17392 
L 504.62208 163.542844 
L 506.51712 159.718249 
L 508.41216 159.718249 
L 510.3072 158.087172 
L 512.20224 158.087172 
L 514.09728 156.456095 
L 515.99232 153.193942 
L 517.88736 151.562865 
L 523.57248 151.562865 
L 525.46752 149.931788 
L 529.2576 145.544753 
L 534.94272 145.544753 
L 536.83776 143.913676 
L 548.208 143.913676 
L 550.10304 140.089082 
L 551.99808 140.089082 
L 553.89312 136.826928 
L 555.78816 136.826928 
L 557.6832 135.195851 
L 559.57824 135.195851 
L 563.36832 131.933698 
L 565.26336 129.74018 
L 569.05344 126.478027 
L 574.73856 126.478027 
L 576.6336 124.84695 
L 578.52864 124.84695 
L 580.42368 123.215873 
L 584.21376 123.215873 
L 586.1088 121.022355 
L 589.89888 121.022355 
L 591.79392 117.760202 
L 595.584 117.760202 
L 597.47904 116.129125 
L 603.16416 116.129125 
L 605.0592 114.498048 
L 614.5344 114.498048 
L 616.42944 110.673454 
L 635.37984 110.673454 
L 637.27488 109.042377 
L 639.16992 109.042377 
L 641.06496 106.848859 
L 642.96 106.848859 
L 642.96 106.848859 
" clip-path="url(#p1f4f59b389)" style="fill: none; stroke-dasharray: 6.75,2.7,1.35,2.7; stroke-dashoffset: 0; stroke: #2f8f84; stroke-width: 1.35"/>
   </g>
   <g id="patch_4">
    <path d="M 74.448 348.192 
L 74.448 93.744 
" style="fill: none; stroke: #000000; stroke-width: 0.8; stroke-linejoin: miter; stroke-linecap: square"/>
   </g>
   <g id="patch_5">
    <path d="M 74.448 348.192 
L 642.96 348.192 
" style="fill: none; stroke: #000000; stroke-width: 0.8; stroke-linejoin: miter; stroke-linecap: square"/>
   </g>
  </g>
  <g id="text_16">
   <text style="font: 18px 'DejaVu Sans', 'Bitstream Vera Sans', 'Computer Modern Sans Serif', 'Lucida Grande', 'Verdana', 'Geneva', 'Lucid', 'Arial', 'Helvetica', 'Avant Garde', sans-serif; text-anchor: start" x="74.448" y="38.229188" transform="rotate(-0 74.448 38.229188)">QD-OLED → WLED LCD</text>
  </g>
  <g id="text_17">
   <text style="fill: #66747c; font: 10px 'DejaVu Sans', 'Bitstream Vera Sans', 'Computer Modern Sans Serif', 'Lucida Grande', 'Verdana', 'Geneva', 'Lucid', 'Arial', 'Helvetica', 'Avant Garde', sans-serif; text-anchor: start" x="74.448" y="64.728" transform="rotate(-0 74.448 64.728)">D50</text>
  </g>
  <g id="legend_1">
   <g id="line2d_33">
    <path d="M 185.17875 404.151391 
L 194.27875 404.151391 
L 203.37875 404.151391 
" style="fill: none; stroke: #252525; stroke-width: 2.5; stroke-linecap: square"/>
   </g>
   <g id="text_18">
    <text style="font: 9.1px 'DejaVu Sans', 'Bitstream Vera Sans', 'Computer Modern Sans Serif', 'Lucida Grande', 'Verdana', 'Geneva', 'Lucid', 'Arial', 'Helvetica', 'Avant Garde', sans-serif; text-anchor: start" x="210.65875" y="407.336391" transform="rotate(-0 210.65875 407.336391)">Potera CMF</text>
   </g>
   <g id="line2d_34">
    <path d="M 185.17875 417.508484 
L 194.27875 417.508484 
L 203.37875 417.508484 
" style="fill: none; stroke: #3b83b4; stroke-width: 1.35; stroke-linecap: square"/>
   </g>
   <g id="text_19">
    <text style="font: 9.1px 'DejaVu Sans', 'Bitstream Vera Sans', 'Computer Modern Sans Serif', 'Lucida Grande', 'Verdana', 'Geneva', 'Lucid', 'Arial', 'Helvetica', 'Avant Garde', sans-serif; text-anchor: start" x="210.65875" y="420.693484" transform="rotate(-0 210.65875 420.693484)">CIE 2015 2°</text>
   </g>
   <g id="line2d_35">
    <path d="M 282.931234 404.151391 
L 292.031234 404.151391 
L 301.131234 404.151391 
" style="fill: none; stroke-dasharray: 4.995,2.16; stroke-dashoffset: 0; stroke: #c38a19; stroke-width: 1.35"/>
   </g>
   <g id="text_20">
    <text style="font: 9.1px 'DejaVu Sans', 'Bitstream Vera Sans', 'Computer Modern Sans Serif', 'Lucida Grande', 'Verdana', 'Geneva', 'Lucid', 'Arial', 'Helvetica', 'Avant Garde', sans-serif; text-anchor: start" x="308.411234" y="407.336391" transform="rotate(-0 308.411234 407.336391)">CIE 2015 10°</text>
   </g>
   <g id="line2d_36">
    <path d="M 282.931234 417.508484 
L 292.031234 417.508484 
L 301.131234 417.508484 
" style="fill: none; stroke-dasharray: 1.35,2.2275; stroke-dashoffset: 0; stroke: #7d8a92; stroke-width: 1.35"/>
   </g>
   <g id="text_21">
    <text style="font: 9.1px 'DejaVu Sans', 'Bitstream Vera Sans', 'Computer Modern Sans Serif', 'Lucida Grande', 'Verdana', 'Geneva', 'Lucid', 'Arial', 'Helvetica', 'Avant Garde', sans-serif; text-anchor: start" x="308.411234" y="420.693484" transform="rotate(-0 308.411234 420.693484)">CIE 1964 10°</text>
   </g>
   <g id="line2d_37">
    <path d="M 386.473594 404.151391 
L 395.573594 404.151391 
L 404.673594 404.151391 
" style="fill: none; stroke-dasharray: 8.64,2.16,1.35,2.16; stroke-dashoffset: 0; stroke: #d0526a; stroke-width: 1.35"/>
   </g>
   <g id="text_22">
    <text style="font: 9.1px 'DejaVu Sans', 'Bitstream Vera Sans', 'Computer Modern Sans Serif', 'Lucida Grande', 'Verdana', 'Geneva', 'Lucid', 'Arial', 'Helvetica', 'Avant Garde', sans-serif; text-anchor: start" x="411.953594" y="407.336391" transform="rotate(-0 411.953594 407.336391)">CIE 1931 2°</text>
   </g>
   <g id="line2d_38">
    <path d="M 386.473594 417.508484 
L 395.573594 417.508484 
L 404.673594 417.508484 
" style="fill: none; stroke-dasharray: 6.75,2.7,1.35,2.7; stroke-dashoffset: 0; stroke: #2f8f84; stroke-width: 1.35"/>
   </g>
   <g id="text_23">
    <text style="font: 9.1px 'DejaVu Sans', 'Bitstream Vera Sans', 'Computer Modern Sans Serif', 'Lucida Grande', 'Verdana', 'Geneva', 'Lucid', 'Arial', 'Helvetica', 'Avant Garde', sans-serif; text-anchor: start" x="411.953594" y="420.693484" transform="rotate(-0 411.953594 420.693484)">Judd–Vos 1978 2°</text>
   </g>
  </g>
 </g>
 <defs>
  <clipPath id="p1f4f59b389">
   <rect x="74.448" y="93.744" width="568.512" height="254.448"/>
  </clipPath>
 </defs>
</svg>
