<?xml version="1.0" encoding="utf-8" standalone="no"?>
<!DOCTYPE svg PUBLIC "-//W3C//DTD SVG 1.1//EN"
  "http://www.w3.org/Graphics/SVG/1.1/DTD/svg11.dtd">
<svg xmlns:xlink="http://www.w3.org/1999/xlink" width="676.8pt" height="446.4pt" viewBox="0 0 676.8 446.4" xmlns="http://www.w3.org/2000/svg" version="1.1">
 <metadata>
  <rdf:RDF xmlns:dc="http://purl.org/dc/elements/1.1/" xmlns:cc="http://creativecommons.org/ns#" xmlns:rdf="http://www.w3.org/1999/02/22-rdf-syntax-ns#">
   <cc:Work>
    <dc:type rdf:resource="http://purl.org/dc/dcmitype/StillImage"/>
    <dc:date>2026-07-20T06:42:01.738281</dc:date>
    <dc:format>image/svg+xml</dc:format>
    <dc:creator>
     <cc:Agent>
      <dc:title>Matplotlib v3.9.4, https://matplotlib.org/</dc:title>
     </cc:Agent>
    </dc:creator>
   </cc:Work>
  </rdf:RDF>
 </metadata>
 <defs>
  <style type="text/css">*{stroke-linejoin: round; stroke-linecap: butt}</style>
 </defs>
 <g id="figure_1">
  <g id="patch_1">
   <path d="M 0 446.4 
L 676.8 446.4 
L 676.8 0 
L 0 0 
z
" style="fill: #ffffff"/>
  </g>
  <g id="axes_1">
   <g id="patch_2">
    <path d="M 74.448 348.192 
L 642.96 348.192 
L 642.96 93.744 
L 74.448 93.744 
z
" style="fill: #ffffff"/>
   </g>
   <g id="patch_3">
    <path d="M 169.2 348.192 
L 358.704 348.192 
L 358.704 93.744 
L 169.2 93.744 
z
" clip-path="url(#p22a6281540)" style="fill: #e7f0ea; opacity: 0.58; stroke: #e7f0ea; stroke-linejoin: miter"/>
   </g>
   <g id="matplotlib.axis_1">
    <g id="xtick_1">
     <g id="line2d_1">
      <path d="M 74.448 348.192 
L 74.448 93.744 
" clip-path="url(#p22a6281540)" style="fill: none; stroke: #dfe5e8; stroke-width: 0.65; stroke-linecap: square"/>
     </g>
     <g id="line2d_2">
      <defs>
       <path id="m50b5d265bf" d="M 0 0 
L 0 3.5 
" style="stroke: #000000; stroke-width: 0.8"/>
      </defs>
      <g>
       <use xlink:href="#m50b5d265bf" x="74.448" y="348.192" style="stroke: #000000; stroke-width: 0.8"/>
      </g>
     </g>
     <g id="text_1">
      <text style="font: 10px 'DejaVu Sans', 'Bitstream Vera Sans', 'Computer Modern Sans Serif', 'Lucida Grande', 'Verdana', 'Geneva', 'Lucid', 'Arial', 'Helvetica', 'Avant Garde', sans-serif; text-anchor: middle" x="74.448" y="362.790438" transform="rotate(-0 74.448 362.790438)">0</text>
     </g>
    </g>
    <g id="xtick_2">
     <g id="line2d_3">
      <path d="M 169.2 348.192 
L 169.2 93.744 
" clip-path="url(#p22a6281540)" style="fill: none; stroke: #dfe5e8; stroke-width: 0.65; stroke-linecap: square"/>
     </g>
     <g id="line2d_4">
      <g>
       <use xlink:href="#m50b5d265bf" x="169.2" y="348.192" style="stroke: #000000; stroke-width: 0.8"/>
      </g>
     </g>
     <g id="text_2">
      <text style="font: 10px 'DejaVu Sans', 'Bitstream Vera Sans', 'Computer Modern Sans Serif', 'Lucida Grande', 'Verdana', 'Geneva', 'Lucid', 'Arial', 'Helvetica', 'Avant Garde', sans-serif; text-anchor: middle" x="169.2" y="362.790438" transform="rotate(-0 169.2 362.790438)">1</text>
     </g>
    </g>
    <g id="xtick_3">
     <g id="line2d_5">
      <path d="M 263.952 348.192 
L 263.952 93.744 
" clip-path="url(#p22a6281540)" style="fill: none; stroke: #dfe5e8; stroke-width: 0.65; stroke-linecap: square"/>
     </g>
     <g id="line2d_6">
      <g>
       <use xlink:href="#m50b5d265bf" x="263.952" y="348.192" style="stroke: #000000; stroke-width: 0.8"/>
      </g>
     </g>
     <g id="text_3">
      <text style="font: 10px 'DejaVu Sans', 'Bitstream Vera Sans', 'Computer Modern Sans Serif', 'Lucida Grande', 'Verdana', 'Geneva', 'Lucid', 'Arial', 'Helvetica', 'Avant Garde', sans-serif; text-anchor: middle" x="263.952" y="362.790438" transform="rotate(-0 263.952 362.790438)">2</text>
     </g>
    </g>
    <g id="xtick_4">
     <g id="line2d_7">
      <path d="M 358.704 348.192 
L 358.704 93.744 
" clip-path="url(#p22a6281540)" style="fill: none; stroke: #dfe5e8; stroke-width: 0.65; stroke-linecap: square"/>
     </g>
     <g id="line2d_8">
      <g>
       <use xlink:href="#m50b5d265bf" x="358.704" y="348.192" style="stroke: #000000; stroke-width: 0.8"/>
      </g>
     </g>
     <g id="text_4">
      <text style="font: 10px 'DejaVu Sans', 'Bitstream Vera Sans', 'Computer Modern Sans Serif', 'Lucida Grande', 'Verdana', 'Geneva', 'Lucid', 'Arial', 'Helvetica', 'Avant Garde', sans-serif; text-anchor: middle" x="358.704" y="362.790438" transform="rotate(-0 358.704 362.790438)">3</text>
     </g>
    </g>
    <g id="xtick_5">
     <g id="line2d_9">
      <path d="M 453.456 348.192 
L 453.456 93.744 
" clip-path="url(#p22a6281540)" style="fill: none; stroke: #dfe5e8; stroke-width: 0.65; stroke-linecap: square"/>
     </g>
     <g id="line2d_10">
      <g>
       <use xlink:href="#m50b5d265bf" x="453.456" y="348.192" style="stroke: #000000; stroke-width: 0.8"/>
      </g>
     </g>
     <g id="text_5">
      <text style="font: 10px 'DejaVu Sans', 'Bitstream Vera Sans', 'Computer Modern Sans Serif', 'Lucida Grande', 'Verdana', 'Geneva', 'Lucid', 'Arial', 'Helvetica', 'Avant Garde', sans-serif; text-anchor: middle" x="453.456" y="362.790438" transform="rotate(-0 453.456 362.790438)">4</text>
     </g>
    </g>
    <g id="xtick_6">
     <g id="line2d_11">
      <path d="M 548.208 348.192 
L 548.208 93.744 
" clip-path="url(#p22a6281540)" style="fill: none; stroke: #dfe5e8; stroke-width: 0.65; stroke-linecap: square"/>
     </g>
     <g id="line2d_12">
      <g>
       <use xlink:href="#m50b5d265bf" x="548.208" y="348.192" style="stroke: #000000; stroke-width: 0.8"/>
      </g>
     </g>
     <g id="text_6">
      <text style="font: 10px 'DejaVu Sans', 'Bitstream Vera Sans', 'Computer Modern Sans Serif', 'Lucida Grande', 'Verdana', 'Geneva', 'Lucid', 'Arial', 'Helvetica', 'Avant Garde', sans-serif; text-anchor: middle" x="548.208" y="362.790438" transform="rotate(-0 548.208 362.790438)">5</text>
     </g>
    </g>
    <g id="xtick_7">
     <g id="line2d_13">
      <path d="M 642.96 348.192 
L 642.96 93.744 
" clip-path="url(#p22a6281540)" style="fill: none; stroke: #dfe5e8; stroke-width: 0.65; stroke-linecap: square"/>
     </g>
     <g id="line2d_14">
      <g>
       <use xlink:href="#m50b5d265bf" x="642.96" y="348.192" style="stroke: #000000; stroke-width: 0.8"/>
      </g>
     </g>
     <g id="text_7">
      <text style="font: 10px 'DejaVu Sans', 'Bitstream Vera Sans', 'Computer Modern Sans Serif', 'Lucida Grande', 'Verdana', 'Geneva', 'Lucid', 'Arial', 'Helvetica', 'Avant Garde', sans-serif; text-anchor: middle" x="642.96" y="362.790438" transform="rotate(-0 642.96 362.790438)">6</text>
     </g>
    </g>
    <g id="text_8">
     <text style="font: 10px 'DejaVu Sans', 'Bitstream Vera Sans', 'Computer Modern Sans Serif', 'Lucida Grande', 'Verdana', 'Geneva', 'Lucid', 'Arial', 'Helvetica', 'Avant Garde', sans-serif; text-anchor: middle" x="358.704" y="376.468563" transform="rotate(-0 358.704 376.468563)">sUCS dE threshold</text>
    </g>
   </g>
   <g id="matplotlib.axis_2">
    <g id="ytick_1">
     <g id="line2d_15">
      <path d="M 74.448 348.192 
L 642.96 348.192 
" clip-path="url(#p22a6281540)" style="fill: none; stroke: #dfe5e8; stroke-width: 0.65; stroke-linecap: square"/>
     </g>
     <g id="line2d_16">
      <defs>
       <path id="mcc444a2cfc" d="M 0 0 
L -3.5 0 
" style="stroke: #000000; stroke-width: 0.8"/>
      </defs>
      <g>
       <use xlink:href="#mcc444a2cfc" x="74.448" y="348.192" style="stroke: #000000; stroke-width: 0.8"/>
      </g>
     </g>
     <g id="text_9">
      <text style="font: 10px 'DejaVu Sans', 'Bitstream Vera Sans', 'Computer Modern Sans Serif', 'Lucida Grande', 'Verdana', 'Geneva', 'Lucid', 'Arial', 'Helvetica', 'Avant Garde', sans-serif; text-anchor: end" x="67.448" y="351.991219" transform="rotate(-0 67.448 351.991219)">0</text>
     </g>
    </g>
    <g id="ytick_2">
     <g id="line2d_17">
      <path d="M 74.448 297.3024 
L 642.96 297.3024 
" clip-path="url(#p22a6281540)" style="fill: none; stroke: #dfe5e8; stroke-width: 0.65; stroke-linecap: square"/>
     </g>
     <g id="line2d_18">
      <g>
       <use xlink:href="#mcc444a2cfc" x="74.448" y="297.3024" style="stroke: #000000; stroke-width: 0.8"/>
      </g>
     </g>
     <g id="text_10">
      <text style="font: 10px 'DejaVu Sans', 'Bitstream Vera Sans', 'Computer Modern Sans Serif', 'Lucida Grande', 'Verdana', 'Geneva', 'Lucid', 'Arial', 'Helvetica', 'Avant Garde', sans-serif; text-anchor: end" x="67.448" y="301.101619" transform="rotate(-0 67.448 301.101619)">20</text>
     </g>
    </g>
    <g id="ytick_3">
     <g id="line2d_19">
      <path d="M 74.448 246.4128 
L 642.96 246.4128 
" clip-path="url(#p22a6281540)" style="fill: none; stroke: #dfe5e8; stroke-width: 0.65; stroke-linecap: square"/>
     </g>
     <g id="line2d_20">
      <g>
       <use xlink:href="#mcc444a2cfc" x="74.448" y="246.4128" style="stroke: #000000; stroke-width: 0.8"/>
      </g>
     </g>
     <g id="text_11">
      <text style="font: 10px 'DejaVu Sans', 'Bitstream Vera Sans', 'Computer Modern Sans Serif', 'Lucida Grande', 'Verdana', 'Geneva', 'Lucid', 'Arial', 'Helvetica', 'Avant Garde', sans-serif; text-anchor: end" x="67.448" y="250.212019" transform="rotate(-0 67.448 250.212019)">40</text>
     </g>
    </g>
    <g id="ytick_4">
     <g id="line2d_21">
      <path d="M 74.448 195.5232 
L 642.96 195.5232 
" clip-path="url(#p22a6281540)" style="fill: none; stroke: #dfe5e8; stroke-width: 0.65; stroke-linecap: square"/>
     </g>
     <g id="line2d_22">
      <g>
       <use xlink:href="#mcc444a2cfc" x="74.448" y="195.5232" style="stroke: #000000; stroke-width: 0.8"/>
      </g>
     </g>
     <g id="text_12">
      <text style="font: 10px 'DejaVu Sans', 'Bitstream Vera Sans', 'Computer Modern Sans Serif', 'Lucida Grande', 'Verdana', 'Geneva', 'Lucid', 'Arial', 'Helvetica', 'Avant Garde', sans-serif; text-anchor: end" x="67.448" y="199.322419" transform="rotate(-0 67.448 199.322419)">60</text>
     </g>
    </g>
    <g id="ytick_5">
     <g id="line2d_23">
      <path d="M 74.448 144.6336 
L 642.96 144.6336 
" clip-path="url(#p22a6281540)" style="fill: none; stroke: #dfe5e8; stroke-width: 0.65; stroke-linecap: square"/>
     </g>
     <g id="line2d_24">
      <g>
       <use xlink:href="#mcc444a2cfc" x="74.448" y="144.6336" style="stroke: #000000; stroke-width: 0.8"/>
      </g>
     </g>
     <g id="text_13">
      <text style="font: 10px 'DejaVu Sans', 'Bitstream Vera Sans', 'Computer Modern Sans Serif', 'Lucida Grande', 'Verdana', 'Geneva', 'Lucid', 'Arial', 'Helvetica', 'Avant Garde', sans-serif; text-anchor: end" x="67.448" y="148.432819" transform="rotate(-0 67.448 148.432819)">80</text>
     </g>
    </g>
    <g id="ytick_6">
     <g id="line2d_25">
      <path d="M 74.448 93.744 
L 642.96 93.744 
" clip-path="url(#p22a6281540)" style="fill: none; stroke: #dfe5e8; stroke-width: 0.65; stroke-linecap: square"/>
     </g>
     <g id="line2d_26">
      <g>
       <use xlink:href="#mcc444a2cfc" x="74.448" y="93.744" style="stroke: #000000; stroke-width: 0.8"/>
      </g>
     </g>
     <g id="text_14">
      <text style="font: 10px 'DejaVu Sans', 'Bitstream Vera Sans', 'Computer Modern Sans Serif', 'Lucida Grande', 'Verdana', 'Geneva', 'Lucid', 'Arial', 'Helvetica', 'Avant Garde', sans-serif; text-anchor: end" x="67.448" y="97.543219" transform="rotate(-0 67.448 97.543219)">100</text>
     </g>
    </g>
    <g id="text_15">
     <text style="font: 10px 'DejaVu Sans', 'Bitstream Vera Sans', 'Computer Modern Sans Serif', 'Lucida Grande', 'Verdana', 'Geneva', 'Lucid', 'Arial', 'Helvetica', 'Avant Garde', sans-serif; text-anchor: middle" x="42.280812" y="220.968" transform="rotate(-90 42.280812 220.968)">observers%</text>
    </g>
   </g>
   <g id="line2d_27">
    <path d="M 74.448 348.192 
L 95.29344 348.192 
L 97.18848 344.929846 
L 99.08352 344.929846 
L 100.97856 343.298769 
L 106.66368 343.298769 
L 114.24384 336.774462 
L 125.61408 336.774462 
L 127.50912 334.580944 
L 129.40416 332.949867 
L 131.2992 329.687714 
L 136.98432 329.687714 
L 138.87936 328.056637 
L 142.66944 328.056637 
L 144.56448 325.863119 
L 148.35456 319.338812 
L 152.14464 319.338812 
L 155.93472 316.076658 
L 157.82976 316.076658 
L 159.7248 309.55235 
L 161.61984 309.55235 
L 163.51488 306.290196 
L 167.30496 297.516127 
L 169.2 291.498016 
L 171.09504 291.498016 
L 172.99008 288.235862 
L 174.88512 286.604785 
L 176.78016 282.780191 
L 182.46528 282.780191 
L 186.25536 279.518037 
L 188.1504 279.518037 
L 190.04544 277.32452 
L 191.94048 277.32452 
L 193.83552 275.693443 
L 195.73056 275.693443 
L 197.6256 274.062366 
L 199.52064 269.169135 
L 203.31072 269.169135 
L 207.1008 265.906981 
L 208.99584 262.082387 
L 212.78592 262.082387 
L 214.68096 259.88887 
L 216.576 256.064276 
L 218.47104 254.433199 
L 222.26112 254.433199 
L 224.15616 252.802122 
L 226.0512 246.784011 
L 227.94624 242.959416 
L 229.84128 241.32834 
L 231.73632 239.134822 
L 233.63136 234.241592 
L 235.5264 234.241592 
L 237.42144 224.398886 
L 243.10656 224.398886 
L 245.0016 222.767809 
L 246.89664 222.767809 
L 250.68672 219.505655 
L 252.58176 219.505655 
L 254.4768 217.312138 
L 256.37184 217.312138 
L 258.26688 210.22539 
L 260.16192 206.963236 
L 262.05696 205.332159 
L 265.84704 205.332159 
L 267.74208 201.507565 
L 269.63712 201.507565 
L 271.53216 199.876488 
L 273.4272 199.876488 
L 275.32224 198.245411 
L 279.11232 198.245411 
L 282.9024 190.596223 
L 288.58752 190.596223 
L 290.48256 188.965146 
L 292.3776 188.965146 
L 294.27264 184.578111 
L 298.06272 181.315958 
L 299.95776 181.315958 
L 301.8528 179.684881 
L 309.43296 179.684881 
L 311.328 178.053804 
L 313.22304 178.053804 
L 315.11808 175.860286 
L 317.01312 175.860286 
L 318.90816 174.22921 
L 320.8032 174.22921 
L 322.69824 170.404615 
L 326.48832 170.404615 
L 328.38336 166.580021 
L 330.2784 164.386504 
L 332.17344 164.386504 
L 334.06848 162.192987 
L 339.7536 162.192987 
L 341.64864 159.999469 
L 343.54368 159.999469 
L 345.43872 155.612435 
L 347.33376 153.418918 
L 360.59904 153.418918 
L 364.38912 149.031883 
L 371.96928 149.031883 
L 373.86432 146.838366 
L 377.6544 146.838366 
L 379.54944 145.207289 
L 394.70976 145.207289 
L 396.6048 143.576212 
L 398.49984 143.576212 
L 402.28992 139.189178 
L 404.18496 139.189178 
L 406.08 136.99566 
L 407.97504 136.99566 
L 411.76512 132.608626 
L 428.82048 132.608626 
L 430.71552 130.977549 
L 434.5056 130.977549 
L 436.40064 129.346472 
L 451.56096 129.346472 
L 453.456 127.152955 
L 455.35104 125.521878 
L 464.82624 125.521878 
L 468.61632 121.134844 
L 470.51136 121.134844 
L 472.4064 118.941326 
L 474.30144 118.941326 
L 476.19648 114.554292 
L 489.46176 114.554292 
L 491.3568 112.360775 
L 502.72704 112.360775 
L 504.62208 110.167257 
L 506.51712 108.53618 
L 512.20224 108.53618 
L 514.09728 106.342663 
L 517.88736 106.342663 
L 519.7824 101.955629 
L 533.04768 101.955629 
L 534.94272 99.762111 
L 565.26336 99.762111 
L 567.1584 98.131034 
L 631.58976 98.131034 
L 633.4848 95.937517 
L 642.96 95.937517 
L 642.96 95.937517 
" clip-path="url(#p22a6281540)" style="fill: none; stroke: #252525; stroke-width: 2.5; stroke-linecap: square"/>
   </g>
   <g id="line2d_28">
    <path d="M 74.448 348.192 
L 89.60832 348.192 
L 91.50336 345.998483 
L 97.18848 345.998483 
L 99.08352 344.367406 
L 108.55872 344.367406 
L 110.45376 339.980371 
L 119.92896 339.980371 
L 121.824 337.786854 
L 125.61408 337.786854 
L 127.50912 335.593337 
L 138.87936 335.593337 
L 140.7744 333.96226 
L 144.56448 333.96226 
L 146.45952 331.768743 
L 152.14464 331.768743 
L 154.03968 329.575225 
L 159.7248 329.575225 
L 161.61984 327.381708 
L 163.51488 327.381708 
L 165.40992 325.188191 
L 167.30496 325.188191 
L 169.2 322.994674 
L 172.99008 322.994674 
L 174.88512 320.801156 
L 176.78016 320.801156 
L 178.6752 319.17008 
L 190.04544 319.17008 
L 191.94048 315.345485 
L 193.83552 313.714408 
L 195.73056 311.520891 
L 197.6256 311.520891 
L 199.52064 309.327374 
L 201.41568 305.50278 
L 203.31072 303.309263 
L 205.20576 303.309263 
L 207.1008 299.484668 
L 208.99584 297.853592 
L 210.89088 295.660074 
L 214.68096 292.39792 
L 216.576 288.573326 
L 218.47104 288.573326 
L 220.36608 286.942249 
L 222.26112 283.117655 
L 226.0512 278.730621 
L 227.94624 274.906027 
L 229.84128 274.906027 
L 231.73632 273.27495 
L 233.63136 267.819279 
L 235.5264 265.625761 
L 237.42144 265.625761 
L 239.31648 263.432244 
L 241.21152 259.60765 
L 243.10656 257.414133 
L 245.0016 255.783056 
L 246.89664 255.783056 
L 250.68672 252.520902 
L 252.58176 248.133867 
L 254.4768 246.50279 
L 256.37184 244.309273 
L 258.26688 242.678196 
L 260.16192 242.678196 
L 262.05696 240.484679 
L 263.952 240.484679 
L 265.84704 235.029008 
L 267.74208 233.397931 
L 273.4272 233.397931 
L 275.32224 230.135777 
L 281.00736 225.242546 
L 282.9024 223.049029 
L 284.79744 219.224435 
L 286.69248 219.224435 
L 288.58752 217.030918 
L 292.3776 217.030918 
L 294.27264 214.837401 
L 296.16768 211.575247 
L 299.95776 211.575247 
L 301.8528 209.94417 
L 303.74784 207.750653 
L 305.64288 207.750653 
L 307.53792 206.119576 
L 311.328 206.119576 
L 313.22304 204.488499 
L 315.11808 201.226345 
L 317.01312 201.226345 
L 318.90816 197.964191 
L 320.8032 194.139597 
L 322.69824 188.683926 
L 324.59328 187.052849 
L 326.48832 187.052849 
L 328.38336 184.859332 
L 334.06848 184.859332 
L 335.96352 177.772584 
L 337.85856 176.141507 
L 341.64864 176.141507 
L 343.54368 174.51043 
L 347.33376 174.51043 
L 349.2288 172.879353 
L 351.12384 164.667724 
L 353.01888 163.036647 
L 354.91392 160.84313 
L 364.38912 160.84313 
L 366.28416 159.212053 
L 370.07424 159.212053 
L 371.96928 157.580976 
L 373.86432 157.580976 
L 375.75936 155.949899 
L 377.6544 155.949899 
L 379.54944 149.931788 
L 381.44448 147.738271 
L 383.33952 146.107194 
L 385.23456 143.913676 
L 389.02464 140.651523 
L 390.91968 140.651523 
L 394.70976 134.127215 
L 396.6048 134.127215 
L 398.49984 130.865061 
L 411.76512 130.865061 
L 413.66016 129.233984 
L 415.5552 129.233984 
L 417.45024 127.602907 
L 419.34528 125.40939 
L 421.24032 125.40939 
L 423.13536 123.778313 
L 425.0304 121.584796 
L 426.92544 121.584796 
L 428.82048 119.953719 
L 432.61056 119.953719 
L 436.40064 116.691565 
L 459.14112 116.691565 
L 461.03616 115.060488 
L 468.61632 115.060488 
L 470.51136 113.429411 
L 472.4064 111.235894 
L 483.77664 111.235894 
L 485.67168 109.604817 
L 487.56672 107.4113 
L 498.93696 107.4113 
L 502.72704 104.149146 
L 563.36832 104.149146 
L 565.26336 101.955629 
L 595.584 101.955629 
L 597.47904 99.762111 
L 618.32448 99.762111 
L 620.21952 98.131034 
L 642.96 98.131034 
L 642.96 98.131034 
" clip-path="url(#p22a6281540)" style="fill: none; stroke: #3b83b4; stroke-width: 1.35; stroke-linecap: square"/>
   </g>
   <g id="line2d_29">
    <path d="M 74.448 348.192 
L 80.13312 348.192 
L 82.02816 346.560923 
L 95.29344 346.560923 
L 97.18848 341.667692 
L 110.45376 341.667692 
L 112.3488 340.036615 
L 114.24384 337.843098 
L 125.61408 328.056637 
L 140.7744 328.056637 
L 142.66944 326.42556 
L 148.35456 326.42556 
L 150.2496 324.794483 
L 152.14464 319.901252 
L 157.82976 319.901252 
L 159.7248 315.514218 
L 161.61984 313.883141 
L 163.51488 308.98991 
L 167.30496 302.465602 
L 171.09504 302.465602 
L 174.88512 299.203448 
L 176.78016 295.941294 
L 178.6752 295.941294 
L 180.57024 291.55426 
L 182.46528 285.536149 
L 184.36032 281.711554 
L 186.25536 279.518037 
L 191.94048 274.624806 
L 199.52064 274.624806 
L 201.41568 272.993729 
L 203.31072 269.731576 
L 205.20576 267.538058 
L 210.89088 262.644828 
L 212.78592 262.644828 
L 214.68096 259.382674 
L 218.47104 259.382674 
L 220.36608 254.995639 
L 222.26112 252.802122 
L 226.0512 252.802122 
L 227.94624 249.539968 
L 229.84128 247.908891 
L 231.73632 245.715374 
L 233.63136 241.89078 
L 235.5264 240.259703 
L 237.42144 236.997549 
L 239.31648 233.172955 
L 241.21152 228.78592 
L 243.10656 225.523767 
L 245.0016 223.330249 
L 246.89664 220.068095 
L 248.79168 218.437019 
L 250.68672 216.243501 
L 252.58176 216.243501 
L 254.4768 212.418907 
L 263.952 212.418907 
L 265.84704 210.78783 
L 267.74208 210.78783 
L 269.63712 207.525676 
L 273.4272 207.525676 
L 275.32224 205.332159 
L 277.21728 203.701082 
L 279.11232 199.876488 
L 282.9024 195.489454 
L 284.79744 192.2273 
L 286.69248 192.2273 
L 288.58752 188.402706 
L 290.48256 186.771629 
L 303.74784 186.771629 
L 305.64288 185.140552 
L 307.53792 185.140552 
L 309.43296 182.947034 
L 311.328 181.315958 
L 315.11808 181.315958 
L 318.90816 178.053804 
L 320.8032 175.860286 
L 330.2784 175.860286 
L 332.17344 172.598133 
L 335.96352 172.598133 
L 339.7536 168.211098 
L 341.64864 164.386504 
L 345.43872 159.999469 
L 347.33376 159.999469 
L 349.2288 157.805952 
L 354.91392 157.805952 
L 356.80896 155.612435 
L 358.704 155.612435 
L 360.59904 153.418918 
L 368.1792 153.418918 
L 370.07424 151.225401 
L 371.96928 146.838366 
L 390.91968 146.838366 
L 392.81472 145.207289 
L 404.18496 145.207289 
L 407.97504 140.820255 
L 409.87008 139.189178 
L 411.76512 139.189178 
L 413.66016 136.99566 
L 415.5552 133.171066 
L 419.34528 133.171066 
L 421.24032 130.977549 
L 423.13536 129.346472 
L 442.08576 129.346472 
L 443.9808 127.715395 
L 447.77088 127.715395 
L 449.66592 125.521878 
L 459.14112 125.521878 
L 461.03616 123.328361 
L 466.72128 123.328361 
L 470.51136 118.941326 
L 472.4064 118.941326 
L 474.30144 116.747809 
L 478.09152 116.747809 
L 479.98656 114.554292 
L 498.93696 114.554292 
L 500.832 112.360775 
L 504.62208 112.360775 
L 506.51712 110.167257 
L 512.20224 110.167257 
L 514.09728 105.780223 
L 515.99232 103.586706 
L 517.88736 103.586706 
L 519.7824 101.955629 
L 525.46752 101.955629 
L 527.36256 99.762111 
L 553.89312 99.762111 
L 555.78816 98.131034 
L 642.96 98.131034 
L 642.96 98.131034 
" clip-path="url(#p22a6281540)" style="fill: none; stroke-dasharray: 4.995,2.16; stroke-dashoffset: 0; stroke: #c38a19; stroke-width: 1.35"/>
   </g>
   <g id="line2d_30">
    <path d="M 74.448 348.192 
L 102.8736 348.192 
L 104.76864 346.560923 
L 110.45376 346.560923 
L 112.3488 343.298769 
L 114.24384 341.667692 
L 118.03392 341.667692 
L 119.92896 339.474175 
L 121.824 337.843098 
L 125.61408 337.843098 
L 127.50912 334.580944 
L 129.40416 334.580944 
L 131.2992 332.949867 
L 133.19424 332.949867 
L 135.08928 331.31879 
L 136.98432 331.31879 
L 138.87936 329.687714 
L 144.56448 329.687714 
L 146.45952 325.863119 
L 148.35456 323.669602 
L 154.03968 323.669602 
L 155.93472 321.476085 
L 157.82976 318.213931 
L 159.7248 316.582854 
L 161.61984 312.75826 
L 163.51488 312.75826 
L 165.40992 311.127183 
L 167.30496 311.127183 
L 169.2 309.496106 
L 174.88512 309.496106 
L 176.78016 304.040435 
L 178.6752 299.653401 
L 182.46528 292.004212 
L 184.36032 289.810695 
L 186.25536 289.810695 
L 188.1504 287.617178 
L 191.94048 284.355024 
L 193.83552 280.53043 
L 197.6256 274.006122 
L 199.52064 274.006122 
L 201.41568 269.619088 
L 203.31072 266.356934 
L 205.20576 261.463703 
L 207.1008 261.463703 
L 208.99584 257.639109 
L 210.89088 251.620997 
L 212.78592 249.98992 
L 214.68096 246.727767 
L 216.576 245.09669 
L 218.47104 245.09669 
L 220.36608 241.834536 
L 222.26112 236.941305 
L 224.15616 236.941305 
L 226.0512 234.747788 
L 229.84128 234.747788 
L 231.73632 233.116711 
L 233.63136 233.116711 
L 235.5264 231.485634 
L 237.42144 229.292117 
L 239.31648 223.836446 
L 245.0016 223.836446 
L 246.89664 222.205369 
L 252.58176 222.205369 
L 254.4768 218.380775 
L 256.37184 215.118621 
L 258.26688 215.118621 
L 260.16192 212.925103 
L 265.84704 212.925103 
L 269.63712 208.538069 
L 273.4272 205.275915 
L 277.21728 205.275915 
L 279.11232 201.451321 
L 284.79744 196.55809 
L 286.69248 194.364573 
L 288.58752 194.364573 
L 290.48256 192.733496 
L 294.27264 192.733496 
L 296.16768 188.908902 
L 298.06272 188.908902 
L 299.95776 186.715385 
L 301.8528 180.697273 
L 303.74784 180.697273 
L 305.64288 179.066196 
L 315.11808 179.066196 
L 317.01312 173.048085 
L 318.90816 171.417008 
L 320.8032 167.592414 
L 322.69824 167.592414 
L 324.59328 165.398897 
L 326.48832 165.398897 
L 328.38336 162.136743 
L 332.17344 157.749708 
L 351.12384 157.749708 
L 353.01888 153.925114 
L 354.91392 153.925114 
L 356.80896 152.294037 
L 358.704 150.10052 
L 360.59904 146.275926 
L 362.49408 144.644849 
L 364.38912 142.451332 
L 366.28416 142.451332 
L 368.1792 140.257814 
L 404.18496 140.257814 
L 406.08 138.626737 
L 407.97504 134.802143 
L 409.87008 134.802143 
L 411.76512 133.171066 
L 421.24032 133.171066 
L 423.13536 129.346472 
L 425.0304 129.346472 
L 426.92544 127.152955 
L 428.82048 122.76592 
L 430.71552 121.134844 
L 434.5056 116.747809 
L 457.24608 116.747809 
L 459.14112 114.554292 
L 468.61632 114.554292 
L 470.51136 112.360775 
L 474.30144 112.360775 
L 476.19648 107.97374 
L 491.3568 107.97374 
L 493.25184 105.780223 
L 506.51712 105.780223 
L 508.41216 103.586706 
L 515.99232 103.586706 
L 517.88736 101.393188 
L 533.04768 101.393188 
L 534.94272 99.762111 
L 540.62784 99.762111 
L 542.52288 98.131034 
L 642.96 98.131034 
L 642.96 98.131034 
" clip-path="url(#p22a6281540)" style="fill: none; stroke-dasharray: 1.35,2.2275; stroke-dashoffset: 0; stroke: #7d8a92; stroke-width: 1.35"/>
   </g>
   <g id="line2d_31">
    <path d="M 74.448 348.192 
L 118.03392 348.192 
L 119.92896 345.998483 
L 129.40416 345.998483 
L 131.2992 343.804966 
L 138.87936 343.804966 
L 140.7744 341.611448 
L 144.56448 341.611448 
L 146.45952 339.417931 
L 155.93472 339.417931 
L 157.82976 335.030897 
L 178.6752 335.030897 
L 182.46528 330.643862 
L 184.36032 330.643862 
L 186.25536 328.450345 
L 188.1504 328.450345 
L 190.04544 326.256828 
L 195.73056 326.256828 
L 201.41568 319.676276 
L 205.20576 319.676276 
L 207.1008 318.045199 
L 208.99584 318.045199 
L 210.89088 315.851682 
L 212.78592 315.851682 
L 214.68096 311.464647 
L 216.576 309.27113 
L 220.36608 309.27113 
L 222.26112 307.077613 
L 229.84128 307.077613 
L 231.73632 304.884095 
L 237.42144 304.884095 
L 239.31648 302.690578 
L 241.21152 301.059501 
L 243.10656 298.865984 
L 252.58176 298.865984 
L 254.4768 296.672467 
L 256.37184 292.847873 
L 265.84704 292.847873 
L 267.74208 286.829761 
L 271.53216 286.829761 
L 273.4272 284.636244 
L 277.21728 284.636244 
L 279.11232 282.442727 
L 282.9024 279.180573 
L 284.79744 279.180573 
L 286.69248 276.987056 
L 288.58752 276.987056 
L 290.48256 274.793538 
L 292.3776 274.793538 
L 294.27264 272.600021 
L 296.16768 270.968944 
L 298.06272 267.14435 
L 299.95776 264.950833 
L 301.8528 264.950833 
L 303.74784 260.057602 
L 305.64288 257.864085 
L 307.53792 254.039491 
L 309.43296 254.039491 
L 311.328 251.845973 
L 313.22304 248.021379 
L 315.11808 248.021379 
L 317.01312 245.827862 
L 318.90816 242.003268 
L 322.69824 242.003268 
L 324.59328 238.741114 
L 332.17344 238.741114 
L 334.06848 234.91652 
L 335.96352 233.285443 
L 337.85856 233.285443 
L 339.7536 228.392212 
L 341.64864 224.567618 
L 343.54368 222.374101 
L 349.2288 222.374101 
L 351.12384 220.180584 
L 353.01888 218.549507 
L 354.91392 218.549507 
L 356.80896 216.355989 
L 360.59904 216.355989 
L 362.49408 212.531395 
L 364.38912 212.531395 
L 366.28416 210.900318 
L 370.07424 210.900318 
L 373.86432 204.376011 
L 375.75936 202.182493 
L 379.54944 202.182493 
L 381.44448 199.988976 
L 383.33952 196.726822 
L 387.1296 196.726822 
L 389.02464 194.533305 
L 390.91968 194.533305 
L 392.81472 191.271151 
L 396.6048 191.271151 
L 398.49984 189.640074 
L 400.39488 184.746844 
L 402.28992 184.746844 
L 404.18496 183.115767 
L 409.87008 183.115767 
L 413.66016 179.853613 
L 415.5552 179.853613 
L 419.34528 176.591459 
L 421.24032 176.591459 
L 423.13536 169.504711 
L 425.0304 166.242557 
L 428.82048 166.242557 
L 432.61056 162.980403 
L 440.19072 162.980403 
L 442.08576 161.349326 
L 443.9808 158.087172 
L 445.87584 158.087172 
L 447.77088 155.893655 
L 449.66592 155.893655 
L 451.56096 153.700138 
L 453.456 147.17583 
L 455.35104 147.17583 
L 457.24608 145.544753 
L 470.51136 145.544753 
L 472.4064 143.351236 
L 474.30144 140.089082 
L 476.19648 140.089082 
L 478.09152 136.826928 
L 485.67168 136.826928 
L 487.56672 133.564775 
L 489.46176 133.564775 
L 497.04192 127.040467 
L 502.72704 127.040467 
L 504.62208 125.40939 
L 508.41216 125.40939 
L 510.3072 123.215873 
L 515.99232 123.215873 
L 517.88736 119.953719 
L 521.67744 119.953719 
L 525.46752 116.691565 
L 536.83776 116.691565 
L 538.7328 115.060488 
L 540.62784 112.866971 
L 557.6832 112.866971 
L 559.57824 111.235894 
L 563.36832 111.235894 
L 565.26336 109.042377 
L 570.94848 109.042377 
L 574.73856 105.780223 
L 584.21376 105.780223 
L 586.1088 104.149146 
L 616.42944 104.149146 
L 618.32448 101.955629 
L 631.58976 101.955629 
L 633.4848 99.762111 
L 642.96 99.762111 
L 642.96 99.762111 
" clip-path="url(#p22a6281540)" style="fill: none; stroke-dasharray: 8.64,2.16,1.35,2.16; stroke-dashoffset: 0; stroke: #d0526a; stroke-width: 1.35"/>
   </g>
   <g id="line2d_32">
    <path d="M 74.448 348.192 
L 110.45376 348.192 
L 112.3488 345.998483 
L 155.93472 345.998483 
L 157.82976 343.804966 
L 171.09504 343.804966 
L 172.99008 339.417931 
L 176.78016 339.417931 
L 178.6752 337.224414 
L 180.57024 337.224414 
L 182.46528 335.030897 
L 190.04544 335.030897 
L 191.94048 328.450345 
L 193.83552 326.256828 
L 208.99584 326.256828 
L 210.89088 324.06331 
L 222.26112 324.06331 
L 224.15616 321.869793 
L 229.84128 321.869793 
L 231.73632 319.676276 
L 239.31648 319.676276 
L 243.10656 315.289241 
L 248.79168 315.289241 
L 250.68672 313.095724 
L 258.26688 313.095724 
L 260.16192 310.902207 
L 263.952 310.902207 
L 265.84704 308.70869 
L 267.74208 308.70869 
L 269.63712 306.515172 
L 271.53216 299.934621 
L 275.32224 299.934621 
L 277.21728 297.741103 
L 279.11232 293.354069 
L 281.00736 291.722992 
L 290.48256 291.722992 
L 292.3776 289.529475 
L 296.16768 289.529475 
L 299.95776 285.14244 
L 307.53792 285.14244 
L 309.43296 282.948923 
L 311.328 281.317846 
L 315.11808 281.317846 
L 317.01312 278.055692 
L 322.69824 278.055692 
L 324.59328 276.424615 
L 334.06848 276.424615 
L 335.96352 274.793538 
L 341.64864 274.793538 
L 343.54368 270.406504 
L 345.43872 270.406504 
L 347.33376 268.775427 
L 349.2288 266.58191 
L 351.12384 266.58191 
L 353.01888 264.388393 
L 354.91392 264.388393 
L 358.704 261.126239 
L 360.59904 261.126239 
L 362.49408 259.495162 
L 364.38912 259.495162 
L 371.96928 252.970854 
L 373.86432 250.777337 
L 375.75936 246.390302 
L 377.6544 246.390302 
L 379.54944 244.759225 
L 383.33952 240.372191 
L 385.23456 240.372191 
L 387.1296 238.178674 
L 390.91968 238.178674 
L 396.6048 233.285443 
L 398.49984 230.023289 
L 400.39488 227.829772 
L 402.28992 226.198695 
L 404.18496 226.198695 
L 406.08 224.567618 
L 407.97504 224.567618 
L 409.87008 222.374101 
L 411.76512 220.743024 
L 415.5552 220.743024 
L 417.45024 219.111947 
L 419.34528 216.91843 
L 421.24032 215.287353 
L 425.0304 215.287353 
L 426.92544 213.093836 
L 428.82048 213.093836 
L 430.71552 211.462759 
L 432.61056 208.200605 
L 434.5056 206.007088 
L 436.40064 204.376011 
L 438.29568 202.182493 
L 440.19072 200.551416 
L 442.08576 200.551416 
L 443.9808 198.92034 
L 445.87584 198.92034 
L 447.77088 197.289263 
L 455.35104 197.289263 
L 457.24608 193.464668 
L 459.14112 191.833592 
L 462.9312 191.833592 
L 464.82624 189.640074 
L 468.61632 186.37792 
L 472.4064 186.37792 
L 474.30144 183.115767 
L 476.19648 183.115767 
L 478.09152 178.222536 
L 481.8816 178.222536 
L 487.56672 173.329305 
L 489.46176 173.329305 
L 493.25184 170.067151 
L 495.14688 170.067151 
L 498.93696 166.804997 
L 500.832 162.980403 
L 504.62208 162.980403 
L 506.51712 159.718249 
L 508.41216 159.718249 
L 514.09728 154.825019 
L 515.99232 151.562865 
L 519.7824 151.562865 
L 521.67744 149.369347 
L 523.57248 149.369347 
L 525.46752 147.17583 
L 527.36256 145.544753 
L 531.15264 145.544753 
L 533.04768 143.913676 
L 546.31296 143.913676 
L 548.208 142.282599 
L 550.10304 138.458005 
L 551.99808 136.826928 
L 553.89312 136.826928 
L 555.78816 135.195851 
L 557.6832 133.002334 
L 559.57824 133.002334 
L 563.36832 129.74018 
L 565.26336 129.74018 
L 567.1584 128.109103 
L 569.05344 128.109103 
L 570.94848 126.478027 
L 572.84352 126.478027 
L 574.73856 124.84695 
L 578.52864 124.84695 
L 580.42368 123.215873 
L 582.31872 123.215873 
L 584.21376 121.022355 
L 591.79392 121.022355 
L 593.68896 117.760202 
L 597.47904 117.760202 
L 601.26912 114.498048 
L 610.74432 114.498048 
L 612.63936 112.304531 
L 614.5344 110.673454 
L 635.37984 110.673454 
L 637.27488 106.848859 
L 642.96 106.848859 
L 642.96 106.848859 
" clip-path="url(#p22a6281540)" style="fill: none; stroke-dasharray: 6.75,2.7,1.35,2.7; stroke-dashoffset: 0; stroke: #2f8f84; stroke-width: 1.35"/>
   </g>
   <g id="patch_4">
    <path d="M 74.448 348.192 
L 74.448 93.744 
" style="fill: none; stroke: #000000; stroke-width: 0.8; stroke-linejoin: miter; stroke-linecap: square"/>
   </g>
   <g id="patch_5">
    <path d="M 74.448 348.192 
L 642.96 348.192 
" style="fill: none; stroke: #000000; stroke-width: 0.8; stroke-linejoin: miter; stroke-linecap: square"/>
   </g>
  </g>
  <g id="text_16">
   <text style="font: 18px 'DejaVu Sans', 'Bitstream Vera Sans', 'Computer Modern Sans Serif', 'Lucida Grande', 'Verdana', 'Geneva', 'Lucid', 'Arial', 'Helvetica', 'Avant Garde', sans-serif; text-anchor: start" x="74.448" y="38.229188" transform="rotate(-0 74.448 38.229188)">QD-OLED → WLED LCD</text>
  </g>
  <g id="text_17">
   <text style="fill: #66747c; font: 10px 'DejaVu Sans', 'Bitstream Vera Sans', 'Computer Modern Sans Serif', 'Lucida Grande', 'Verdana', 'Geneva', 'Lucid', 'Arial', 'Helvetica', 'Avant Garde', sans-serif; text-anchor: start" x="74.448" y="64.728" transform="rotate(-0 74.448 64.728)">D55</text>
  </g>
  <g id="legend_1">
   <g id="line2d_33">
    <path d="M 185.17875 404.151391 
L 194.27875 404.151391 
L 203.37875 404.151391 
" style="fill: none; stroke: #252525; stroke-width: 2.5; stroke-linecap: square"/>
   </g>
   <g id="text_18">
    <text style="font: 9.1px 'DejaVu Sans', 'Bitstream Vera Sans', 'Computer Modern Sans Serif', 'Lucida Grande', 'Verdana', 'Geneva', 'Lucid', 'Arial', 'Helvetica', 'Avant Garde', sans-serif; text-anchor: start" x="210.65875" y="407.336391" transform="rotate(-0 210.65875 407.336391)">Potera CMF</text>
   </g>
   <g id="line2d_34">
    <path d="M 185.17875 417.508484 
L 194.27875 417.508484 
L 203.37875 417.508484 
" style="fill: none; stroke: #3b83b4; stroke-width: 1.35; stroke-linecap: square"/>
   </g>
   <g id="text_19">
    <text style="font: 9.1px 'DejaVu Sans', 'Bitstream Vera Sans', 'Computer Modern Sans Serif', 'Lucida Grande', 'Verdana', 'Geneva', 'Lucid', 'Arial', 'Helvetica', 'Avant Garde', sans-serif; text-anchor: start" x="210.65875" y="420.693484" transform="rotate(-0 210.65875 420.693484)">CIE 2015 2°</text>
   </g>
   <g id="line2d_35">
    <path d="M 282.931234 404.151391 
L 292.031234 404.151391 
L 301.131234 404.151391 
" style="fill: none; stroke-dasharray: 4.995,2.16; stroke-dashoffset: 0; stroke: #c38a19; stroke-width: 1.35"/>
   </g>
   <g id="text_20">
    <text style="font: 9.1px 'DejaVu Sans', 'Bitstream Vera Sans', 'Computer Modern Sans Serif', 'Lucida Grande', 'Verdana', 'Geneva', 'Lucid', 'Arial', 'Helvetica', 'Avant Garde', sans-serif; text-anchor: start" x="308.411234" y="407.336391" transform="rotate(-0 308.411234 407.336391)">CIE 2015 10°</text>
   </g>
   <g id="line2d_36">
    <path d="M 282.931234 417.508484 
L 292.031234 417.508484 
L 301.131234 417.508484 
" style="fill: none; stroke-dasharray: 1.35,2.2275; stroke-dashoffset: 0; stroke: #7d8a92; stroke-width: 1.35"/>
   </g>
   <g id="text_21">
    <text style="font: 9.1px 'DejaVu Sans', 'Bitstream Vera Sans', 'Computer Modern Sans Serif', 'Lucida Grande', 'Verdana', 'Geneva', 'Lucid', 'Arial', 'Helvetica', 'Avant Garde', sans-serif; text-anchor: start" x="308.411234" y="420.693484" transform="rotate(-0 308.411234 420.693484)">CIE 1964 10°</text>
   </g>
   <g id="line2d_37">
    <path d="M 386.473594 404.151391 
L 395.573594 404.151391 
L 404.673594 404.151391 
" style="fill: none; stroke-dasharray: 8.64,2.16,1.35,2.16; stroke-dashoffset: 0; stroke: #d0526a; stroke-width: 1.35"/>
   </g>
   <g id="text_22">
    <text style="font: 9.1px 'DejaVu Sans', 'Bitstream Vera Sans', 'Computer Modern Sans Serif', 'Lucida Grande', 'Verdana', 'Geneva', 'Lucid', 'Arial', 'Helvetica', 'Avant Garde', sans-serif; text-anchor: start" x="411.953594" y="407.336391" transform="rotate(-0 411.953594 407.336391)">CIE 1931 2°</text>
   </g>
   <g id="line2d_38">
    <path d="M 386.473594 417.508484 
L 395.573594 417.508484 
L 404.673594 417.508484 
" style="fill: none; stroke-dasharray: 6.75,2.7,1.35,2.7; stroke-dashoffset: 0; stroke: #2f8f84; stroke-width: 1.35"/>
   </g>
   <g id="text_23">
    <text style="font: 9.1px 'DejaVu Sans', 'Bitstream Vera Sans', 'Computer Modern Sans Serif', 'Lucida Grande', 'Verdana', 'Geneva', 'Lucid', 'Arial', 'Helvetica', 'Avant Garde', sans-serif; text-anchor: start" x="411.953594" y="420.693484" transform="rotate(-0 411.953594 420.693484)">Judd–Vos 1978 2°</text>
   </g>
  </g>
 </g>
 <defs>
  <clipPath id="p22a6281540">
   <rect x="74.448" y="93.744" width="568.512" height="254.448"/>
  </clipPath>
 </defs>
</svg>
