<?xml version="1.0" encoding="utf-8" standalone="no"?>
<!DOCTYPE svg PUBLIC "-//W3C//DTD SVG 1.1//EN"
  "http://www.w3.org/Graphics/SVG/1.1/DTD/svg11.dtd">
<svg xmlns:xlink="http://www.w3.org/1999/xlink" width="676.8pt" height="446.4pt" viewBox="0 0 676.8 446.4" xmlns="http://www.w3.org/2000/svg" version="1.1">
 <metadata>
  <rdf:RDF xmlns:dc="http://purl.org/dc/elements/1.1/" xmlns:cc="http://creativecommons.org/ns#" xmlns:rdf="http://www.w3.org/1999/02/22-rdf-syntax-ns#">
   <cc:Work>
    <dc:type rdf:resource="http://purl.org/dc/dcmitype/StillImage"/>
    <dc:date>2026-07-20T06:42:01.605692</dc:date>
    <dc:format>image/svg+xml</dc:format>
    <dc:creator>
     <cc:Agent>
      <dc:title>Matplotlib v3.9.4, https://matplotlib.org/</dc:title>
     </cc:Agent>
    </dc:creator>
   </cc:Work>
  </rdf:RDF>
 </metadata>
 <defs>
  <style type="text/css">*{stroke-linejoin: round; stroke-linecap: butt}</style>
 </defs>
 <g id="figure_1">
  <g id="patch_1">
   <path d="M 0 446.4 
L 676.8 446.4 
L 676.8 0 
L 0 0 
z
" style="fill: #ffffff"/>
  </g>
  <g id="axes_1">
   <g id="patch_2">
    <path d="M 74.448 348.192 
L 642.96 348.192 
L 642.96 93.744 
L 74.448 93.744 
z
" style="fill: #ffffff"/>
   </g>
   <g id="patch_3">
    <path d="M 169.2 348.192 
L 358.704 348.192 
L 358.704 93.744 
L 169.2 93.744 
z
" clip-path="url(#pccdd6e24e1)" style="fill: #e7f0ea; opacity: 0.58; stroke: #e7f0ea; stroke-linejoin: miter"/>
   </g>
   <g id="matplotlib.axis_1">
    <g id="xtick_1">
     <g id="line2d_1">
      <path d="M 74.448 348.192 
L 74.448 93.744 
" clip-path="url(#pccdd6e24e1)" style="fill: none; stroke: #dfe5e8; stroke-width: 0.65; stroke-linecap: square"/>
     </g>
     <g id="line2d_2">
      <defs>
       <path id="m7cf811ff87" d="M 0 0 
L 0 3.5 
" style="stroke: #000000; stroke-width: 0.8"/>
      </defs>
      <g>
       <use xlink:href="#m7cf811ff87" x="74.448" y="348.192" style="stroke: #000000; stroke-width: 0.8"/>
      </g>
     </g>
     <g id="text_1">
      <text style="font: 10px 'DejaVu Sans', 'Bitstream Vera Sans', 'Computer Modern Sans Serif', 'Lucida Grande', 'Verdana', 'Geneva', 'Lucid', 'Arial', 'Helvetica', 'Avant Garde', sans-serif; text-anchor: middle" x="74.448" y="362.790438" transform="rotate(-0 74.448 362.790438)">0</text>
     </g>
    </g>
    <g id="xtick_2">
     <g id="line2d_3">
      <path d="M 169.2 348.192 
L 169.2 93.744 
" clip-path="url(#pccdd6e24e1)" style="fill: none; stroke: #dfe5e8; stroke-width: 0.65; stroke-linecap: square"/>
     </g>
     <g id="line2d_4">
      <g>
       <use xlink:href="#m7cf811ff87" x="169.2" y="348.192" style="stroke: #000000; stroke-width: 0.8"/>
      </g>
     </g>
     <g id="text_2">
      <text style="font: 10px 'DejaVu Sans', 'Bitstream Vera Sans', 'Computer Modern Sans Serif', 'Lucida Grande', 'Verdana', 'Geneva', 'Lucid', 'Arial', 'Helvetica', 'Avant Garde', sans-serif; text-anchor: middle" x="169.2" y="362.790438" transform="rotate(-0 169.2 362.790438)">1</text>
     </g>
    </g>
    <g id="xtick_3">
     <g id="line2d_5">
      <path d="M 263.952 348.192 
L 263.952 93.744 
" clip-path="url(#pccdd6e24e1)" style="fill: none; stroke: #dfe5e8; stroke-width: 0.65; stroke-linecap: square"/>
     </g>
     <g id="line2d_6">
      <g>
       <use xlink:href="#m7cf811ff87" x="263.952" y="348.192" style="stroke: #000000; stroke-width: 0.8"/>
      </g>
     </g>
     <g id="text_3">
      <text style="font: 10px 'DejaVu Sans', 'Bitstream Vera Sans', 'Computer Modern Sans Serif', 'Lucida Grande', 'Verdana', 'Geneva', 'Lucid', 'Arial', 'Helvetica', 'Avant Garde', sans-serif; text-anchor: middle" x="263.952" y="362.790438" transform="rotate(-0 263.952 362.790438)">2</text>
     </g>
    </g>
    <g id="xtick_4">
     <g id="line2d_7">
      <path d="M 358.704 348.192 
L 358.704 93.744 
" clip-path="url(#pccdd6e24e1)" style="fill: none; stroke: #dfe5e8; stroke-width: 0.65; stroke-linecap: square"/>
     </g>
     <g id="line2d_8">
      <g>
       <use xlink:href="#m7cf811ff87" x="358.704" y="348.192" style="stroke: #000000; stroke-width: 0.8"/>
      </g>
     </g>
     <g id="text_4">
      <text style="font: 10px 'DejaVu Sans', 'Bitstream Vera Sans', 'Computer Modern Sans Serif', 'Lucida Grande', 'Verdana', 'Geneva', 'Lucid', 'Arial', 'Helvetica', 'Avant Garde', sans-serif; text-anchor: middle" x="358.704" y="362.790438" transform="rotate(-0 358.704 362.790438)">3</text>
     </g>
    </g>
    <g id="xtick_5">
     <g id="line2d_9">
      <path d="M 453.456 348.192 
L 453.456 93.744 
" clip-path="url(#pccdd6e24e1)" style="fill: none; stroke: #dfe5e8; stroke-width: 0.65; stroke-linecap: square"/>
     </g>
     <g id="line2d_10">
      <g>
       <use xlink:href="#m7cf811ff87" x="453.456" y="348.192" style="stroke: #000000; stroke-width: 0.8"/>
      </g>
     </g>
     <g id="text_5">
      <text style="font: 10px 'DejaVu Sans', 'Bitstream Vera Sans', 'Computer Modern Sans Serif', 'Lucida Grande', 'Verdana', 'Geneva', 'Lucid', 'Arial', 'Helvetica', 'Avant Garde', sans-serif; text-anchor: middle" x="453.456" y="362.790438" transform="rotate(-0 453.456 362.790438)">4</text>
     </g>
    </g>
    <g id="xtick_6">
     <g id="line2d_11">
      <path d="M 548.208 348.192 
L 548.208 93.744 
" clip-path="url(#pccdd6e24e1)" style="fill: none; stroke: #dfe5e8; stroke-width: 0.65; stroke-linecap: square"/>
     </g>
     <g id="line2d_12">
      <g>
       <use xlink:href="#m7cf811ff87" x="548.208" y="348.192" style="stroke: #000000; stroke-width: 0.8"/>
      </g>
     </g>
     <g id="text_6">
      <text style="font: 10px 'DejaVu Sans', 'Bitstream Vera Sans', 'Computer Modern Sans Serif', 'Lucida Grande', 'Verdana', 'Geneva', 'Lucid', 'Arial', 'Helvetica', 'Avant Garde', sans-serif; text-anchor: middle" x="548.208" y="362.790438" transform="rotate(-0 548.208 362.790438)">5</text>
     </g>
    </g>
    <g id="xtick_7">
     <g id="line2d_13">
      <path d="M 642.96 348.192 
L 642.96 93.744 
" clip-path="url(#pccdd6e24e1)" style="fill: none; stroke: #dfe5e8; stroke-width: 0.65; stroke-linecap: square"/>
     </g>
     <g id="line2d_14">
      <g>
       <use xlink:href="#m7cf811ff87" x="642.96" y="348.192" style="stroke: #000000; stroke-width: 0.8"/>
      </g>
     </g>
     <g id="text_7">
      <text style="font: 10px 'DejaVu Sans', 'Bitstream Vera Sans', 'Computer Modern Sans Serif', 'Lucida Grande', 'Verdana', 'Geneva', 'Lucid', 'Arial', 'Helvetica', 'Avant Garde', sans-serif; text-anchor: middle" x="642.96" y="362.790438" transform="rotate(-0 642.96 362.790438)">6</text>
     </g>
    </g>
    <g id="text_8">
     <text style="font: 10px 'DejaVu Sans', 'Bitstream Vera Sans', 'Computer Modern Sans Serif', 'Lucida Grande', 'Verdana', 'Geneva', 'Lucid', 'Arial', 'Helvetica', 'Avant Garde', sans-serif; text-anchor: middle" x="358.704" y="376.468563" transform="rotate(-0 358.704 376.468563)">sUCS dE threshold</text>
    </g>
   </g>
   <g id="matplotlib.axis_2">
    <g id="ytick_1">
     <g id="line2d_15">
      <path d="M 74.448 348.192 
L 642.96 348.192 
" clip-path="url(#pccdd6e24e1)" style="fill: none; stroke: #dfe5e8; stroke-width: 0.65; stroke-linecap: square"/>
     </g>
     <g id="line2d_16">
      <defs>
       <path id="m24cb53dc1e" d="M 0 0 
L -3.5 0 
" style="stroke: #000000; stroke-width: 0.8"/>
      </defs>
      <g>
       <use xlink:href="#m24cb53dc1e" x="74.448" y="348.192" style="stroke: #000000; stroke-width: 0.8"/>
      </g>
     </g>
     <g id="text_9">
      <text style="font: 10px 'DejaVu Sans', 'Bitstream Vera Sans', 'Computer Modern Sans Serif', 'Lucida Grande', 'Verdana', 'Geneva', 'Lucid', 'Arial', 'Helvetica', 'Avant Garde', sans-serif; text-anchor: end" x="67.448" y="351.991219" transform="rotate(-0 67.448 351.991219)">0</text>
     </g>
    </g>
    <g id="ytick_2">
     <g id="line2d_17">
      <path d="M 74.448 297.3024 
L 642.96 297.3024 
" clip-path="url(#pccdd6e24e1)" style="fill: none; stroke: #dfe5e8; stroke-width: 0.65; stroke-linecap: square"/>
     </g>
     <g id="line2d_18">
      <g>
       <use xlink:href="#m24cb53dc1e" x="74.448" y="297.3024" style="stroke: #000000; stroke-width: 0.8"/>
      </g>
     </g>
     <g id="text_10">
      <text style="font: 10px 'DejaVu Sans', 'Bitstream Vera Sans', 'Computer Modern Sans Serif', 'Lucida Grande', 'Verdana', 'Geneva', 'Lucid', 'Arial', 'Helvetica', 'Avant Garde', sans-serif; text-anchor: end" x="67.448" y="301.101619" transform="rotate(-0 67.448 301.101619)">20</text>
     </g>
    </g>
    <g id="ytick_3">
     <g id="line2d_19">
      <path d="M 74.448 246.4128 
L 642.96 246.4128 
" clip-path="url(#pccdd6e24e1)" style="fill: none; stroke: #dfe5e8; stroke-width: 0.65; stroke-linecap: square"/>
     </g>
     <g id="line2d_20">
      <g>
       <use xlink:href="#m24cb53dc1e" x="74.448" y="246.4128" style="stroke: #000000; stroke-width: 0.8"/>
      </g>
     </g>
     <g id="text_11">
      <text style="font: 10px 'DejaVu Sans', 'Bitstream Vera Sans', 'Computer Modern Sans Serif', 'Lucida Grande', 'Verdana', 'Geneva', 'Lucid', 'Arial', 'Helvetica', 'Avant Garde', sans-serif; text-anchor: end" x="67.448" y="250.212019" transform="rotate(-0 67.448 250.212019)">40</text>
     </g>
    </g>
    <g id="ytick_4">
     <g id="line2d_21">
      <path d="M 74.448 195.5232 
L 642.96 195.5232 
" clip-path="url(#pccdd6e24e1)" style="fill: none; stroke: #dfe5e8; stroke-width: 0.65; stroke-linecap: square"/>
     </g>
     <g id="line2d_22">
      <g>
       <use xlink:href="#m24cb53dc1e" x="74.448" y="195.5232" style="stroke: #000000; stroke-width: 0.8"/>
      </g>
     </g>
     <g id="text_12">
      <text style="font: 10px 'DejaVu Sans', 'Bitstream Vera Sans', 'Computer Modern Sans Serif', 'Lucida Grande', 'Verdana', 'Geneva', 'Lucid', 'Arial', 'Helvetica', 'Avant Garde', sans-serif; text-anchor: end" x="67.448" y="199.322419" transform="rotate(-0 67.448 199.322419)">60</text>
     </g>
    </g>
    <g id="ytick_5">
     <g id="line2d_23">
      <path d="M 74.448 144.6336 
L 642.96 144.6336 
" clip-path="url(#pccdd6e24e1)" style="fill: none; stroke: #dfe5e8; stroke-width: 0.65; stroke-linecap: square"/>
     </g>
     <g id="line2d_24">
      <g>
       <use xlink:href="#m24cb53dc1e" x="74.448" y="144.6336" style="stroke: #000000; stroke-width: 0.8"/>
      </g>
     </g>
     <g id="text_13">
      <text style="font: 10px 'DejaVu Sans', 'Bitstream Vera Sans', 'Computer Modern Sans Serif', 'Lucida Grande', 'Verdana', 'Geneva', 'Lucid', 'Arial', 'Helvetica', 'Avant Garde', sans-serif; text-anchor: end" x="67.448" y="148.432819" transform="rotate(-0 67.448 148.432819)">80</text>
     </g>
    </g>
    <g id="ytick_6">
     <g id="line2d_25">
      <path d="M 74.448 93.744 
L 642.96 93.744 
" clip-path="url(#pccdd6e24e1)" style="fill: none; stroke: #dfe5e8; stroke-width: 0.65; stroke-linecap: square"/>
     </g>
     <g id="line2d_26">
      <g>
       <use xlink:href="#m24cb53dc1e" x="74.448" y="93.744" style="stroke: #000000; stroke-width: 0.8"/>
      </g>
     </g>
     <g id="text_14">
      <text style="font: 10px 'DejaVu Sans', 'Bitstream Vera Sans', 'Computer Modern Sans Serif', 'Lucida Grande', 'Verdana', 'Geneva', 'Lucid', 'Arial', 'Helvetica', 'Avant Garde', sans-serif; text-anchor: end" x="67.448" y="97.543219" transform="rotate(-0 67.448 97.543219)">100</text>
     </g>
    </g>
    <g id="text_15">
     <text style="font: 10px 'DejaVu Sans', 'Bitstream Vera Sans', 'Computer Modern Sans Serif', 'Lucida Grande', 'Verdana', 'Geneva', 'Lucid', 'Arial', 'Helvetica', 'Avant Garde', sans-serif; text-anchor: middle" x="42.280812" y="220.968" transform="rotate(-90 42.280812 220.968)">observers%</text>
    </g>
   </g>
   <g id="line2d_27">
    <path d="M 74.448 348.192 
L 91.50336 348.192 
L 93.3984 346.560923 
L 99.08352 346.560923 
L 106.66368 340.036615 
L 110.45376 340.036615 
L 112.3488 338.405538 
L 114.24384 338.405538 
L 116.13888 336.774462 
L 119.92896 336.774462 
L 121.824 331.31879 
L 129.40416 331.31879 
L 131.2992 328.056637 
L 140.7744 328.056637 
L 142.66944 325.863119 
L 144.56448 325.863119 
L 148.35456 322.600966 
L 150.2496 319.338812 
L 152.14464 319.338812 
L 154.03968 317.707735 
L 155.93472 317.707735 
L 157.82976 314.445581 
L 159.7248 310.620987 
L 161.61984 310.620987 
L 163.51488 308.427469 
L 167.30496 297.516127 
L 169.2 293.691533 
L 171.09504 291.498016 
L 172.99008 289.866939 
L 174.88512 282.780191 
L 178.6752 282.780191 
L 184.36032 277.88696 
L 186.25536 277.88696 
L 188.1504 275.693443 
L 190.04544 275.693443 
L 191.94048 272.431289 
L 193.83552 272.431289 
L 201.41568 265.906981 
L 203.31072 265.906981 
L 205.20576 262.082387 
L 210.89088 262.082387 
L 212.78592 258.820233 
L 216.576 251.171045 
L 218.47104 248.977528 
L 220.36608 248.977528 
L 222.26112 246.784011 
L 224.15616 246.784011 
L 226.0512 244.590493 
L 227.94624 242.959416 
L 231.73632 235.310228 
L 235.5264 232.048074 
L 237.42144 232.048074 
L 239.31648 219.505655 
L 243.10656 216.243501 
L 246.89664 216.243501 
L 248.79168 214.049984 
L 252.58176 214.049984 
L 254.4768 212.418907 
L 256.37184 210.22539 
L 258.26688 206.963236 
L 262.05696 206.963236 
L 265.84704 203.701082 
L 267.74208 201.507565 
L 271.53216 201.507565 
L 275.32224 198.245411 
L 281.00736 198.245411 
L 282.9024 196.614334 
L 284.79744 190.596223 
L 286.69248 188.965146 
L 290.48256 184.578111 
L 292.3776 182.947034 
L 294.27264 182.947034 
L 296.16768 179.684881 
L 309.43296 179.684881 
L 311.328 177.491363 
L 317.01312 177.491363 
L 318.90816 172.598133 
L 320.8032 168.211098 
L 322.69824 166.580021 
L 326.48832 162.192987 
L 332.17344 162.192987 
L 334.06848 159.999469 
L 339.7536 159.999469 
L 343.54368 155.612435 
L 345.43872 155.612435 
L 347.33376 153.418918 
L 353.01888 153.418918 
L 354.91392 151.225401 
L 360.59904 151.225401 
L 362.49408 149.031883 
L 373.86432 149.031883 
L 375.75936 146.838366 
L 377.6544 146.838366 
L 379.54944 145.207289 
L 392.81472 145.207289 
L 394.70976 143.013772 
L 396.6048 139.189178 
L 398.49984 139.189178 
L 400.39488 136.99566 
L 402.28992 136.99566 
L 404.18496 134.802143 
L 409.87008 134.802143 
L 411.76512 133.171066 
L 413.66016 130.977549 
L 419.34528 130.977549 
L 421.24032 129.346472 
L 436.40064 129.346472 
L 438.29568 127.715395 
L 455.35104 127.715395 
L 457.24608 125.521878 
L 459.14112 125.521878 
L 461.03616 123.328361 
L 468.61632 123.328361 
L 470.51136 121.134844 
L 472.4064 121.134844 
L 474.30144 118.941326 
L 476.19648 118.941326 
L 481.8816 112.360775 
L 498.93696 112.360775 
L 500.832 108.53618 
L 504.62208 108.53618 
L 506.51712 106.342663 
L 508.41216 106.342663 
L 510.3072 104.149146 
L 517.88736 104.149146 
L 519.7824 101.955629 
L 525.46752 101.955629 
L 527.36256 99.762111 
L 557.6832 99.762111 
L 559.57824 98.131034 
L 616.42944 98.131034 
L 618.32448 95.937517 
L 642.96 95.937517 
L 642.96 95.937517 
" clip-path="url(#pccdd6e24e1)" style="fill: none; stroke: #252525; stroke-width: 2.5; stroke-linecap: square"/>
   </g>
   <g id="line2d_28">
    <path d="M 74.448 348.192 
L 89.60832 348.192 
L 91.50336 345.998483 
L 106.66368 345.998483 
L 110.45376 341.611448 
L 114.24384 341.611448 
L 116.13888 339.980371 
L 119.92896 339.980371 
L 121.824 337.786854 
L 123.71904 337.786854 
L 125.61408 335.593337 
L 144.56448 335.593337 
L 148.35456 331.206302 
L 155.93472 331.206302 
L 157.82976 327.381708 
L 159.7248 325.188191 
L 169.2 325.188191 
L 171.09504 322.994674 
L 172.99008 321.363597 
L 176.78016 321.363597 
L 178.6752 319.17008 
L 182.46528 319.17008 
L 186.25536 314.783045 
L 190.04544 314.783045 
L 191.94048 310.958451 
L 193.83552 309.327374 
L 195.73056 309.327374 
L 197.6256 307.696297 
L 199.52064 305.50278 
L 201.41568 302.240626 
L 203.31072 300.047109 
L 205.20576 294.028997 
L 207.1008 294.028997 
L 208.99584 292.39792 
L 210.89088 292.39792 
L 212.78592 290.204403 
L 214.68096 284.186292 
L 216.576 284.186292 
L 218.47104 281.992775 
L 220.36608 280.361698 
L 222.26112 280.361698 
L 224.15616 276.537103 
L 227.94624 276.537103 
L 229.84128 270.518992 
L 233.63136 259.60765 
L 235.5264 259.60765 
L 237.42144 257.414133 
L 239.31648 254.151979 
L 248.79168 254.151979 
L 250.68672 252.520902 
L 252.58176 250.327385 
L 254.4768 250.327385 
L 256.37184 248.133867 
L 258.26688 239.922239 
L 260.16192 239.922239 
L 267.74208 233.397931 
L 271.53216 233.397931 
L 273.4272 230.135777 
L 275.32224 230.135777 
L 277.21728 228.5047 
L 279.11232 224.680106 
L 281.00736 224.680106 
L 282.9024 222.486589 
L 286.69248 222.486589 
L 288.58752 217.030918 
L 290.48256 214.837401 
L 299.95776 214.837401 
L 301.8528 211.012806 
L 303.74784 211.012806 
L 305.64288 207.750653 
L 309.43296 207.750653 
L 311.328 206.119576 
L 313.22304 206.119576 
L 315.11808 204.488499 
L 317.01312 201.226345 
L 318.90816 201.226345 
L 320.8032 195.770674 
L 322.69824 191.94608 
L 324.59328 187.559045 
L 328.38336 184.296891 
L 330.2784 184.296891 
L 332.17344 182.665814 
L 334.06848 182.665814 
L 335.96352 181.034737 
L 337.85856 181.034737 
L 339.7536 177.210143 
L 341.64864 175.579066 
L 345.43872 175.579066 
L 347.33376 169.560955 
L 349.2288 162.474207 
L 351.12384 160.84313 
L 358.704 160.84313 
L 360.59904 159.212053 
L 364.38912 159.212053 
L 366.28416 157.018536 
L 370.07424 157.018536 
L 373.86432 153.756382 
L 375.75936 151.562865 
L 377.6544 151.562865 
L 379.54944 149.931788 
L 383.33952 142.282599 
L 389.02464 142.282599 
L 390.91968 140.651523 
L 392.81472 140.651523 
L 394.70976 134.127215 
L 396.6048 134.127215 
L 402.28992 129.233984 
L 404.18496 127.040467 
L 421.24032 127.040467 
L 423.13536 125.40939 
L 425.0304 125.40939 
L 426.92544 123.215873 
L 430.71552 123.215873 
L 432.61056 121.584796 
L 434.5056 118.322642 
L 436.40064 118.322642 
L 438.29568 116.691565 
L 464.82624 116.691565 
L 466.72128 115.060488 
L 468.61632 112.866971 
L 476.19648 112.866971 
L 478.09152 111.235894 
L 485.67168 111.235894 
L 487.56672 107.4113 
L 491.3568 107.4113 
L 493.25184 105.780223 
L 506.51712 105.780223 
L 508.41216 104.149146 
L 559.57824 104.149146 
L 561.47328 101.955629 
L 603.16416 101.955629 
L 605.0592 99.762111 
L 618.32448 99.762111 
L 620.21952 98.131034 
L 642.96 98.131034 
L 642.96 98.131034 
" clip-path="url(#pccdd6e24e1)" style="fill: none; stroke: #3b83b4; stroke-width: 1.35; stroke-linecap: square"/>
   </g>
   <g id="line2d_29">
    <path d="M 74.448 348.192 
L 80.13312 348.192 
L 82.02816 346.560923 
L 91.50336 346.560923 
L 93.3984 344.929846 
L 97.18848 344.929846 
L 99.08352 343.298769 
L 100.97856 343.298769 
L 102.8736 341.667692 
L 108.55872 341.667692 
L 110.45376 340.036615 
L 112.3488 337.843098 
L 114.24384 337.843098 
L 116.13888 336.212021 
L 118.03392 331.31879 
L 121.824 331.31879 
L 125.61408 328.056637 
L 142.66944 328.056637 
L 144.56448 326.42556 
L 146.45952 326.42556 
L 148.35456 324.794483 
L 150.2496 324.794483 
L 152.14464 323.163406 
L 154.03968 320.969889 
L 155.93472 316.076658 
L 157.82976 316.076658 
L 159.7248 312.814504 
L 163.51488 309.55235 
L 165.40992 305.727756 
L 167.30496 304.096679 
L 171.09504 304.096679 
L 172.99008 300.272085 
L 174.88512 297.009931 
L 176.78016 289.923183 
L 178.6752 285.536149 
L 180.57024 283.342631 
L 182.46528 280.080477 
L 184.36032 277.88696 
L 186.25536 276.255883 
L 188.1504 276.255883 
L 193.83552 271.362653 
L 197.6256 271.362653 
L 199.52064 267.538058 
L 201.41568 265.906981 
L 207.1008 265.906981 
L 208.99584 264.275905 
L 210.89088 261.013751 
L 212.78592 259.382674 
L 216.576 259.382674 
L 218.47104 257.189156 
L 220.36608 257.189156 
L 222.26112 253.364562 
L 224.15616 251.171045 
L 226.0512 251.171045 
L 227.94624 247.346451 
L 229.84128 244.084297 
L 231.73632 242.45322 
L 233.63136 235.366472 
L 235.5264 232.104318 
L 237.42144 225.523767 
L 239.31648 223.330249 
L 241.21152 223.330249 
L 243.10656 220.068095 
L 245.0016 218.437019 
L 246.89664 216.243501 
L 248.79168 214.612424 
L 256.37184 214.612424 
L 258.26688 212.418907 
L 260.16192 212.418907 
L 262.05696 210.22539 
L 263.952 210.22539 
L 269.63712 205.332159 
L 271.53216 202.070005 
L 273.4272 202.070005 
L 275.32224 200.438928 
L 277.21728 198.245411 
L 282.9024 198.245411 
L 284.79744 196.051894 
L 286.69248 190.033782 
L 290.48256 186.771629 
L 298.06272 186.771629 
L 299.95776 184.578111 
L 301.8528 184.578111 
L 305.64288 181.315958 
L 307.53792 181.315958 
L 309.43296 179.684881 
L 317.01312 179.684881 
L 318.90816 177.491363 
L 320.8032 177.491363 
L 322.69824 175.860286 
L 324.59328 175.860286 
L 326.48832 174.22921 
L 328.38336 170.967056 
L 330.2784 168.773538 
L 332.17344 168.773538 
L 334.06848 164.386504 
L 335.96352 164.386504 
L 337.85856 162.192987 
L 339.7536 162.192987 
L 341.64864 159.999469 
L 345.43872 159.999469 
L 349.2288 155.612435 
L 351.12384 155.612435 
L 353.01888 153.418918 
L 362.49408 153.418918 
L 364.38912 151.225401 
L 366.28416 151.225401 
L 368.1792 149.031883 
L 375.75936 149.031883 
L 377.6544 146.838366 
L 387.1296 146.838366 
L 389.02464 145.207289 
L 398.49984 145.207289 
L 400.39488 143.576212 
L 402.28992 143.576212 
L 404.18496 141.382695 
L 406.08 139.751618 
L 407.97504 133.171066 
L 411.76512 133.171066 
L 413.66016 129.346472 
L 428.82048 129.346472 
L 430.71552 127.715395 
L 453.456 127.715395 
L 455.35104 125.521878 
L 457.24608 125.521878 
L 459.14112 123.328361 
L 472.4064 123.328361 
L 474.30144 118.941326 
L 476.19648 116.747809 
L 479.98656 116.747809 
L 481.8816 114.554292 
L 489.46176 114.554292 
L 491.3568 112.360775 
L 498.93696 112.360775 
L 500.832 110.167257 
L 506.51712 110.167257 
L 508.41216 105.780223 
L 510.3072 104.149146 
L 517.88736 104.149146 
L 519.7824 101.955629 
L 521.67744 101.955629 
L 523.57248 99.762111 
L 550.10304 99.762111 
L 551.99808 98.131034 
L 625.90464 98.131034 
L 627.79968 95.937517 
L 642.96 95.937517 
L 642.96 95.937517 
" clip-path="url(#pccdd6e24e1)" style="fill: none; stroke-dasharray: 4.995,2.16; stroke-dashoffset: 0; stroke: #c38a19; stroke-width: 1.35"/>
   </g>
   <g id="line2d_30">
    <path d="M 74.448 348.192 
L 108.55872 348.192 
L 110.45376 344.929846 
L 112.3488 344.929846 
L 114.24384 343.298769 
L 116.13888 341.105252 
L 119.92896 337.843098 
L 125.61408 337.843098 
L 127.50912 336.212021 
L 129.40416 332.949867 
L 133.19424 332.949867 
L 135.08928 331.31879 
L 142.66944 331.31879 
L 144.56448 327.494196 
L 146.45952 325.863119 
L 152.14464 325.863119 
L 154.03968 319.282568 
L 155.93472 316.020414 
L 157.82976 316.020414 
L 159.7248 312.75826 
L 161.61984 312.75826 
L 163.51488 311.127183 
L 165.40992 308.933666 
L 167.30496 308.933666 
L 169.2 307.302589 
L 171.09504 307.302589 
L 172.99008 304.040435 
L 174.88512 300.215841 
L 176.78016 300.215841 
L 178.6752 291.441772 
L 182.46528 291.441772 
L 184.36032 289.810695 
L 188.1504 289.810695 
L 190.04544 282.723947 
L 191.94048 282.723947 
L 193.83552 278.899353 
L 195.73056 278.899353 
L 197.6256 271.812605 
L 199.52064 267.988011 
L 201.41568 265.794493 
L 203.31072 262.53234 
L 205.20576 258.707745 
L 207.1008 257.076668 
L 210.89088 250.552361 
L 212.78592 250.552361 
L 214.68096 243.465613 
L 216.576 241.834536 
L 218.47104 236.378865 
L 222.26112 236.378865 
L 229.84128 229.854557 
L 235.5264 229.854557 
L 239.31648 226.592403 
L 241.21152 224.398886 
L 243.10656 220.011851 
L 246.89664 220.011851 
L 248.79168 218.380775 
L 250.68672 218.380775 
L 252.58176 214.55618 
L 256.37184 214.55618 
L 258.26688 210.731586 
L 260.16192 208.538069 
L 267.74208 208.538069 
L 269.63712 206.906992 
L 271.53216 206.906992 
L 273.4272 205.275915 
L 275.32224 199.257804 
L 277.21728 199.257804 
L 282.9024 194.364573 
L 288.58752 194.364573 
L 290.48256 192.733496 
L 292.3776 192.733496 
L 294.27264 190.539979 
L 296.16768 188.908902 
L 298.06272 186.715385 
L 299.95776 182.89079 
L 301.8528 182.89079 
L 305.64288 178.503756 
L 307.53792 176.872679 
L 311.328 172.485645 
L 315.11808 172.485645 
L 317.01312 170.854568 
L 318.90816 167.592414 
L 320.8032 165.398897 
L 322.69824 163.76782 
L 324.59328 161.574302 
L 326.48832 159.943225 
L 332.17344 159.943225 
L 334.06848 157.749708 
L 343.54368 157.749708 
L 345.43872 155.556191 
L 347.33376 151.731597 
L 349.2288 150.10052 
L 358.704 150.10052 
L 360.59904 144.082408 
L 362.49408 142.451332 
L 368.1792 142.451332 
L 370.07424 140.257814 
L 389.02464 140.257814 
L 390.91968 138.626737 
L 392.81472 138.626737 
L 394.70976 136.99566 
L 406.08 136.99566 
L 409.87008 133.733507 
L 411.76512 131.539989 
L 413.66016 131.539989 
L 415.5552 129.346472 
L 417.45024 129.346472 
L 419.34528 124.959438 
L 425.0304 124.959438 
L 426.92544 123.328361 
L 430.71552 123.328361 
L 432.61056 121.134844 
L 436.40064 121.134844 
L 438.29568 116.747809 
L 457.24608 116.747809 
L 459.14112 114.554292 
L 461.03616 114.554292 
L 462.9312 112.360775 
L 466.72128 112.360775 
L 468.61632 110.167257 
L 478.09152 110.167257 
L 479.98656 107.97374 
L 487.56672 107.97374 
L 489.46176 105.780223 
L 500.832 105.780223 
L 502.72704 103.586706 
L 504.62208 103.586706 
L 506.51712 101.393188 
L 529.2576 101.393188 
L 531.15264 99.762111 
L 533.04768 99.762111 
L 534.94272 98.131034 
L 642.96 98.131034 
L 642.96 98.131034 
" clip-path="url(#pccdd6e24e1)" style="fill: none; stroke-dasharray: 1.35,2.2275; stroke-dashoffset: 0; stroke: #7d8a92; stroke-width: 1.35"/>
   </g>
   <g id="line2d_31">
    <path d="M 74.448 348.192 
L 123.71904 348.192 
L 129.40416 341.611448 
L 138.87936 341.611448 
L 140.7744 339.417931 
L 157.82976 339.417931 
L 159.7248 335.030897 
L 180.57024 335.030897 
L 186.25536 328.450345 
L 188.1504 328.450345 
L 190.04544 326.256828 
L 195.73056 326.256828 
L 203.31072 317.482759 
L 205.20576 317.482759 
L 207.1008 315.289241 
L 210.89088 315.289241 
L 212.78592 313.095724 
L 214.68096 313.095724 
L 216.576 310.902207 
L 218.47104 310.902207 
L 220.36608 309.27113 
L 222.26112 309.27113 
L 224.15616 307.077613 
L 226.0512 307.077613 
L 227.94624 304.884095 
L 235.5264 304.884095 
L 237.42144 302.690578 
L 241.21152 302.690578 
L 243.10656 300.497061 
L 245.0016 300.497061 
L 246.89664 298.303544 
L 252.58176 298.303544 
L 254.4768 296.110027 
L 258.26688 292.847873 
L 262.05696 292.847873 
L 265.84704 288.460838 
L 267.74208 286.829761 
L 271.53216 286.829761 
L 273.4272 282.442727 
L 275.32224 280.24921 
L 277.21728 278.618133 
L 281.00736 278.618133 
L 282.9024 276.424615 
L 284.79744 274.793538 
L 288.58752 274.793538 
L 292.3776 270.406504 
L 296.16768 270.406504 
L 298.06272 268.775427 
L 299.95776 264.950833 
L 301.8528 263.319756 
L 303.74784 255.108127 
L 307.53792 251.845973 
L 309.43296 247.458939 
L 311.328 245.827862 
L 315.11808 245.827862 
L 317.01312 243.634345 
L 318.90816 243.634345 
L 320.8032 242.003268 
L 326.48832 242.003268 
L 328.38336 240.372191 
L 330.2784 240.372191 
L 332.17344 235.985156 
L 339.7536 229.460849 
L 341.64864 226.198695 
L 343.54368 224.567618 
L 345.43872 222.374101 
L 347.33376 220.743024 
L 353.01888 220.743024 
L 354.91392 216.355989 
L 356.80896 214.162472 
L 362.49408 214.162472 
L 364.38912 211.968955 
L 366.28416 211.968955 
L 370.07424 208.706801 
L 371.96928 208.706801 
L 377.6544 203.81357 
L 379.54944 203.81357 
L 383.33952 200.551416 
L 385.23456 196.726822 
L 387.1296 195.095745 
L 389.02464 192.902228 
L 390.91968 192.902228 
L 392.81472 191.271151 
L 396.6048 191.271151 
L 400.39488 188.008997 
L 404.18496 188.008997 
L 407.97504 184.746844 
L 409.87008 184.746844 
L 411.76512 181.48469 
L 413.66016 179.853613 
L 417.45024 179.853613 
L 419.34528 177.660095 
L 421.24032 177.660095 
L 425.0304 174.397942 
L 426.92544 174.397942 
L 428.82048 172.766865 
L 430.71552 169.504711 
L 432.61056 167.873634 
L 434.5056 164.61148 
L 436.40064 162.980403 
L 438.29568 162.980403 
L 440.19072 161.349326 
L 443.9808 161.349326 
L 447.77088 153.700138 
L 449.66592 152.069061 
L 451.56096 152.069061 
L 457.24608 147.17583 
L 459.14112 147.17583 
L 461.03616 145.544753 
L 468.61632 145.544753 
L 470.51136 143.913676 
L 474.30144 143.913676 
L 476.19648 141.720159 
L 478.09152 140.089082 
L 479.98656 140.089082 
L 481.8816 136.826928 
L 483.77664 135.195851 
L 491.3568 135.195851 
L 500.832 127.040467 
L 506.51712 127.040467 
L 508.41216 125.40939 
L 510.3072 125.40939 
L 512.20224 123.215873 
L 521.67744 123.215873 
L 523.57248 119.953719 
L 525.46752 119.953719 
L 527.36256 118.322642 
L 533.04768 118.322642 
L 534.94272 116.691565 
L 536.83776 116.691565 
L 538.7328 114.498048 
L 540.62784 114.498048 
L 542.52288 112.866971 
L 563.36832 112.866971 
L 565.26336 109.042377 
L 576.6336 109.042377 
L 578.52864 107.4113 
L 580.42368 107.4113 
L 582.31872 105.780223 
L 591.79392 105.780223 
L 593.68896 104.149146 
L 601.26912 104.149146 
L 603.16416 101.955629 
L 627.79968 101.955629 
L 629.69472 99.762111 
L 642.96 99.762111 
L 642.96 99.762111 
" clip-path="url(#pccdd6e24e1)" style="fill: none; stroke-dasharray: 8.64,2.16,1.35,2.16; stroke-dashoffset: 0; stroke: #d0526a; stroke-width: 1.35"/>
   </g>
   <g id="line2d_32">
    <path d="M 74.448 348.192 
L 110.45376 348.192 
L 112.3488 345.998483 
L 155.93472 345.998483 
L 157.82976 343.804966 
L 161.61984 343.804966 
L 163.51488 341.611448 
L 165.40992 341.611448 
L 167.30496 339.417931 
L 172.99008 339.417931 
L 174.88512 337.224414 
L 176.78016 337.224414 
L 178.6752 335.030897 
L 182.46528 335.030897 
L 184.36032 332.837379 
L 186.25536 332.837379 
L 188.1504 330.643862 
L 191.94048 330.643862 
L 193.83552 328.450345 
L 195.73056 328.450345 
L 197.6256 326.256828 
L 210.89088 326.256828 
L 212.78592 324.06331 
L 218.47104 324.06331 
L 220.36608 321.869793 
L 227.94624 321.869793 
L 229.84128 319.676276 
L 233.63136 319.676276 
L 237.42144 315.289241 
L 239.31648 315.289241 
L 241.21152 313.095724 
L 254.4768 313.095724 
L 258.26688 308.70869 
L 260.16192 308.70869 
L 263.952 304.321655 
L 265.84704 304.321655 
L 269.63712 299.934621 
L 271.53216 295.547586 
L 273.4272 295.547586 
L 275.32224 293.354069 
L 286.69248 293.354069 
L 288.58752 288.967034 
L 290.48256 287.335958 
L 294.27264 287.335958 
L 296.16768 285.14244 
L 301.8528 285.14244 
L 303.74784 282.948923 
L 307.53792 282.948923 
L 309.43296 281.317846 
L 313.22304 281.317846 
L 315.11808 279.686769 
L 320.8032 279.686769 
L 322.69824 278.055692 
L 326.48832 278.055692 
L 328.38336 276.424615 
L 330.2784 276.424615 
L 332.17344 272.600021 
L 335.96352 272.600021 
L 337.85856 270.406504 
L 341.64864 270.406504 
L 343.54368 266.019469 
L 345.43872 264.388393 
L 351.12384 264.388393 
L 354.91392 261.126239 
L 356.80896 261.126239 
L 358.704 259.495162 
L 362.49408 259.495162 
L 364.38912 257.301645 
L 366.28416 248.58382 
L 370.07424 248.58382 
L 371.96928 246.390302 
L 373.86432 242.565708 
L 375.75936 242.565708 
L 377.6544 238.178674 
L 379.54944 236.547597 
L 390.91968 236.547597 
L 392.81472 233.285443 
L 394.70976 231.091926 
L 396.6048 229.460849 
L 400.39488 229.460849 
L 402.28992 227.829772 
L 404.18496 224.005178 
L 406.08 220.743024 
L 407.97504 216.91843 
L 411.76512 216.91843 
L 413.66016 215.287353 
L 423.13536 215.287353 
L 426.92544 207.638164 
L 428.82048 205.444647 
L 432.61056 205.444647 
L 436.40064 202.182493 
L 438.29568 202.182493 
L 440.19072 200.551416 
L 445.87584 200.551416 
L 451.56096 195.658186 
L 453.456 195.658186 
L 455.35104 193.464668 
L 457.24608 191.833592 
L 459.14112 191.833592 
L 461.03616 189.640074 
L 466.72128 184.746844 
L 474.30144 184.746844 
L 476.19648 183.115767 
L 478.09152 179.853613 
L 479.98656 179.853613 
L 481.8816 176.591459 
L 483.77664 176.591459 
L 487.56672 173.329305 
L 491.3568 173.329305 
L 493.25184 169.504711 
L 497.04192 169.504711 
L 500.832 166.242557 
L 502.72704 162.980403 
L 504.62208 162.980403 
L 506.51712 161.349326 
L 508.41216 158.087172 
L 510.3072 158.087172 
L 512.20224 154.825019 
L 514.09728 153.193942 
L 517.88736 148.806907 
L 519.7824 147.17583 
L 525.46752 147.17583 
L 527.36256 145.544753 
L 529.2576 145.544753 
L 531.15264 143.913676 
L 538.7328 143.913676 
L 540.62784 142.282599 
L 544.41792 142.282599 
L 546.31296 140.089082 
L 548.208 138.458005 
L 550.10304 136.264488 
L 551.99808 136.264488 
L 555.78816 133.002334 
L 559.57824 133.002334 
L 561.47328 131.371257 
L 565.26336 131.371257 
L 569.05344 128.109103 
L 570.94848 124.84695 
L 578.52864 124.84695 
L 580.42368 123.215873 
L 582.31872 121.022355 
L 591.79392 121.022355 
L 597.47904 116.129125 
L 603.16416 116.129125 
L 605.0592 114.498048 
L 606.95424 112.304531 
L 612.63936 112.304531 
L 614.5344 110.673454 
L 631.58976 110.673454 
L 633.4848 108.479936 
L 635.37984 108.479936 
L 637.27488 106.848859 
L 642.96 106.848859 
L 642.96 106.848859 
" clip-path="url(#pccdd6e24e1)" style="fill: none; stroke-dasharray: 6.75,2.7,1.35,2.7; stroke-dashoffset: 0; stroke: #2f8f84; stroke-width: 1.35"/>
   </g>
   <g id="patch_4">
    <path d="M 74.448 348.192 
L 74.448 93.744 
" style="fill: none; stroke: #000000; stroke-width: 0.8; stroke-linejoin: miter; stroke-linecap: square"/>
   </g>
   <g id="patch_5">
    <path d="M 74.448 348.192 
L 642.96 348.192 
" style="fill: none; stroke: #000000; stroke-width: 0.8; stroke-linejoin: miter; stroke-linecap: square"/>
   </g>
  </g>
  <g id="text_16">
   <text style="font: 18px 'DejaVu Sans', 'Bitstream Vera Sans', 'Computer Modern Sans Serif', 'Lucida Grande', 'Verdana', 'Geneva', 'Lucid', 'Arial', 'Helvetica', 'Avant Garde', sans-serif; text-anchor: start" x="74.448" y="38.229188" transform="rotate(-0 74.448 38.229188)">QD-OLED → WLED LCD</text>
  </g>
  <g id="text_17">
   <text style="fill: #66747c; font: 10px 'DejaVu Sans', 'Bitstream Vera Sans', 'Computer Modern Sans Serif', 'Lucida Grande', 'Verdana', 'Geneva', 'Lucid', 'Arial', 'Helvetica', 'Avant Garde', sans-serif; text-anchor: start" x="74.448" y="64.728" transform="rotate(-0 74.448 64.728)">D65</text>
  </g>
  <g id="legend_1">
   <g id="line2d_33">
    <path d="M 185.17875 404.151391 
L 194.27875 404.151391 
L 203.37875 404.151391 
" style="fill: none; stroke: #252525; stroke-width: 2.5; stroke-linecap: square"/>
   </g>
   <g id="text_18">
    <text style="font: 9.1px 'DejaVu Sans', 'Bitstream Vera Sans', 'Computer Modern Sans Serif', 'Lucida Grande', 'Verdana', 'Geneva', 'Lucid', 'Arial', 'Helvetica', 'Avant Garde', sans-serif; text-anchor: start" x="210.65875" y="407.336391" transform="rotate(-0 210.65875 407.336391)">Potera CMF</text>
   </g>
   <g id="line2d_34">
    <path d="M 185.17875 417.508484 
L 194.27875 417.508484 
L 203.37875 417.508484 
" style="fill: none; stroke: #3b83b4; stroke-width: 1.35; stroke-linecap: square"/>
   </g>
   <g id="text_19">
    <text style="font: 9.1px 'DejaVu Sans', 'Bitstream Vera Sans', 'Computer Modern Sans Serif', 'Lucida Grande', 'Verdana', 'Geneva', 'Lucid', 'Arial', 'Helvetica', 'Avant Garde', sans-serif; text-anchor: start" x="210.65875" y="420.693484" transform="rotate(-0 210.65875 420.693484)">CIE 2015 2°</text>
   </g>
   <g id="line2d_35">
    <path d="M 282.931234 404.151391 
L 292.031234 404.151391 
L 301.131234 404.151391 
" style="fill: none; stroke-dasharray: 4.995,2.16; stroke-dashoffset: 0; stroke: #c38a19; stroke-width: 1.35"/>
   </g>
   <g id="text_20">
    <text style="font: 9.1px 'DejaVu Sans', 'Bitstream Vera Sans', 'Computer Modern Sans Serif', 'Lucida Grande', 'Verdana', 'Geneva', 'Lucid', 'Arial', 'Helvetica', 'Avant Garde', sans-serif; text-anchor: start" x="308.411234" y="407.336391" transform="rotate(-0 308.411234 407.336391)">CIE 2015 10°</text>
   </g>
   <g id="line2d_36">
    <path d="M 282.931234 417.508484 
L 292.031234 417.508484 
L 301.131234 417.508484 
" style="fill: none; stroke-dasharray: 1.35,2.2275; stroke-dashoffset: 0; stroke: #7d8a92; stroke-width: 1.35"/>
   </g>
   <g id="text_21">
    <text style="font: 9.1px 'DejaVu Sans', 'Bitstream Vera Sans', 'Computer Modern Sans Serif', 'Lucida Grande', 'Verdana', 'Geneva', 'Lucid', 'Arial', 'Helvetica', 'Avant Garde', sans-serif; text-anchor: start" x="308.411234" y="420.693484" transform="rotate(-0 308.411234 420.693484)">CIE 1964 10°</text>
   </g>
   <g id="line2d_37">
    <path d="M 386.473594 404.151391 
L 395.573594 404.151391 
L 404.673594 404.151391 
" style="fill: none; stroke-dasharray: 8.64,2.16,1.35,2.16; stroke-dashoffset: 0; stroke: #d0526a; stroke-width: 1.35"/>
   </g>
   <g id="text_22">
    <text style="font: 9.1px 'DejaVu Sans', 'Bitstream Vera Sans', 'Computer Modern Sans Serif', 'Lucida Grande', 'Verdana', 'Geneva', 'Lucid', 'Arial', 'Helvetica', 'Avant Garde', sans-serif; text-anchor: start" x="411.953594" y="407.336391" transform="rotate(-0 411.953594 407.336391)">CIE 1931 2°</text>
   </g>
   <g id="line2d_38">
    <path d="M 386.473594 417.508484 
L 395.573594 417.508484 
L 404.673594 417.508484 
" style="fill: none; stroke-dasharray: 6.75,2.7,1.35,2.7; stroke-dashoffset: 0; stroke: #2f8f84; stroke-width: 1.35"/>
   </g>
   <g id="text_23">
    <text style="font: 9.1px 'DejaVu Sans', 'Bitstream Vera Sans', 'Computer Modern Sans Serif', 'Lucida Grande', 'Verdana', 'Geneva', 'Lucid', 'Arial', 'Helvetica', 'Avant Garde', sans-serif; text-anchor: start" x="411.953594" y="420.693484" transform="rotate(-0 411.953594 420.693484)">Judd–Vos 1978 2°</text>
   </g>
  </g>
 </g>
 <defs>
  <clipPath id="pccdd6e24e1">
   <rect x="74.448" y="93.744" width="568.512" height="254.448"/>
  </clipPath>
 </defs>
</svg>
