<?xml version="1.0" encoding="utf-8" standalone="no"?>
<!DOCTYPE svg PUBLIC "-//W3C//DTD SVG 1.1//EN"
  "http://www.w3.org/Graphics/SVG/1.1/DTD/svg11.dtd">
<svg xmlns:xlink="http://www.w3.org/1999/xlink" width="676.8pt" height="446.4pt" viewBox="0 0 676.8 446.4" xmlns="http://www.w3.org/2000/svg" version="1.1">
 <metadata>
  <rdf:RDF xmlns:dc="http://purl.org/dc/elements/1.1/" xmlns:cc="http://creativecommons.org/ns#" xmlns:rdf="http://www.w3.org/1999/02/22-rdf-syntax-ns#">
   <cc:Work>
    <dc:type rdf:resource="http://purl.org/dc/dcmitype/StillImage"/>
    <dc:date>2026-07-20T06:42:01.868115</dc:date>
    <dc:format>image/svg+xml</dc:format>
    <dc:creator>
     <cc:Agent>
      <dc:title>Matplotlib v3.9.4, https://matplotlib.org/</dc:title>
     </cc:Agent>
    </dc:creator>
   </cc:Work>
  </rdf:RDF>
 </metadata>
 <defs>
  <style type="text/css">*{stroke-linejoin: round; stroke-linecap: butt}</style>
 </defs>
 <g id="figure_1">
  <g id="patch_1">
   <path d="M 0 446.4 
L 676.8 446.4 
L 676.8 0 
L 0 0 
z
" style="fill: #ffffff"/>
  </g>
  <g id="axes_1">
   <g id="patch_2">
    <path d="M 74.448 348.192 
L 642.96 348.192 
L 642.96 93.744 
L 74.448 93.744 
z
" style="fill: #ffffff"/>
   </g>
   <g id="patch_3">
    <path d="M 169.2 348.192 
L 358.704 348.192 
L 358.704 93.744 
L 169.2 93.744 
z
" clip-path="url(#p4eb7590344)" style="fill: #e7f0ea; opacity: 0.58; stroke: #e7f0ea; stroke-linejoin: miter"/>
   </g>
   <g id="matplotlib.axis_1">
    <g id="xtick_1">
     <g id="line2d_1">
      <path d="M 74.448 348.192 
L 74.448 93.744 
" clip-path="url(#p4eb7590344)" style="fill: none; stroke: #dfe5e8; stroke-width: 0.65; stroke-linecap: square"/>
     </g>
     <g id="line2d_2">
      <defs>
       <path id="m2f651114f9" d="M 0 0 
L 0 3.5 
" style="stroke: #000000; stroke-width: 0.8"/>
      </defs>
      <g>
       <use xlink:href="#m2f651114f9" x="74.448" y="348.192" style="stroke: #000000; stroke-width: 0.8"/>
      </g>
     </g>
     <g id="text_1">
      <text style="font: 10px 'DejaVu Sans', 'Bitstream Vera Sans', 'Computer Modern Sans Serif', 'Lucida Grande', 'Verdana', 'Geneva', 'Lucid', 'Arial', 'Helvetica', 'Avant Garde', sans-serif; text-anchor: middle" x="74.448" y="362.790438" transform="rotate(-0 74.448 362.790438)">0</text>
     </g>
    </g>
    <g id="xtick_2">
     <g id="line2d_3">
      <path d="M 169.2 348.192 
L 169.2 93.744 
" clip-path="url(#p4eb7590344)" style="fill: none; stroke: #dfe5e8; stroke-width: 0.65; stroke-linecap: square"/>
     </g>
     <g id="line2d_4">
      <g>
       <use xlink:href="#m2f651114f9" x="169.2" y="348.192" style="stroke: #000000; stroke-width: 0.8"/>
      </g>
     </g>
     <g id="text_2">
      <text style="font: 10px 'DejaVu Sans', 'Bitstream Vera Sans', 'Computer Modern Sans Serif', 'Lucida Grande', 'Verdana', 'Geneva', 'Lucid', 'Arial', 'Helvetica', 'Avant Garde', sans-serif; text-anchor: middle" x="169.2" y="362.790438" transform="rotate(-0 169.2 362.790438)">1</text>
     </g>
    </g>
    <g id="xtick_3">
     <g id="line2d_5">
      <path d="M 263.952 348.192 
L 263.952 93.744 
" clip-path="url(#p4eb7590344)" style="fill: none; stroke: #dfe5e8; stroke-width: 0.65; stroke-linecap: square"/>
     </g>
     <g id="line2d_6">
      <g>
       <use xlink:href="#m2f651114f9" x="263.952" y="348.192" style="stroke: #000000; stroke-width: 0.8"/>
      </g>
     </g>
     <g id="text_3">
      <text style="font: 10px 'DejaVu Sans', 'Bitstream Vera Sans', 'Computer Modern Sans Serif', 'Lucida Grande', 'Verdana', 'Geneva', 'Lucid', 'Arial', 'Helvetica', 'Avant Garde', sans-serif; text-anchor: middle" x="263.952" y="362.790438" transform="rotate(-0 263.952 362.790438)">2</text>
     </g>
    </g>
    <g id="xtick_4">
     <g id="line2d_7">
      <path d="M 358.704 348.192 
L 358.704 93.744 
" clip-path="url(#p4eb7590344)" style="fill: none; stroke: #dfe5e8; stroke-width: 0.65; stroke-linecap: square"/>
     </g>
     <g id="line2d_8">
      <g>
       <use xlink:href="#m2f651114f9" x="358.704" y="348.192" style="stroke: #000000; stroke-width: 0.8"/>
      </g>
     </g>
     <g id="text_4">
      <text style="font: 10px 'DejaVu Sans', 'Bitstream Vera Sans', 'Computer Modern Sans Serif', 'Lucida Grande', 'Verdana', 'Geneva', 'Lucid', 'Arial', 'Helvetica', 'Avant Garde', sans-serif; text-anchor: middle" x="358.704" y="362.790438" transform="rotate(-0 358.704 362.790438)">3</text>
     </g>
    </g>
    <g id="xtick_5">
     <g id="line2d_9">
      <path d="M 453.456 348.192 
L 453.456 93.744 
" clip-path="url(#p4eb7590344)" style="fill: none; stroke: #dfe5e8; stroke-width: 0.65; stroke-linecap: square"/>
     </g>
     <g id="line2d_10">
      <g>
       <use xlink:href="#m2f651114f9" x="453.456" y="348.192" style="stroke: #000000; stroke-width: 0.8"/>
      </g>
     </g>
     <g id="text_5">
      <text style="font: 10px 'DejaVu Sans', 'Bitstream Vera Sans', 'Computer Modern Sans Serif', 'Lucida Grande', 'Verdana', 'Geneva', 'Lucid', 'Arial', 'Helvetica', 'Avant Garde', sans-serif; text-anchor: middle" x="453.456" y="362.790438" transform="rotate(-0 453.456 362.790438)">4</text>
     </g>
    </g>
    <g id="xtick_6">
     <g id="line2d_11">
      <path d="M 548.208 348.192 
L 548.208 93.744 
" clip-path="url(#p4eb7590344)" style="fill: none; stroke: #dfe5e8; stroke-width: 0.65; stroke-linecap: square"/>
     </g>
     <g id="line2d_12">
      <g>
       <use xlink:href="#m2f651114f9" x="548.208" y="348.192" style="stroke: #000000; stroke-width: 0.8"/>
      </g>
     </g>
     <g id="text_6">
      <text style="font: 10px 'DejaVu Sans', 'Bitstream Vera Sans', 'Computer Modern Sans Serif', 'Lucida Grande', 'Verdana', 'Geneva', 'Lucid', 'Arial', 'Helvetica', 'Avant Garde', sans-serif; text-anchor: middle" x="548.208" y="362.790438" transform="rotate(-0 548.208 362.790438)">5</text>
     </g>
    </g>
    <g id="xtick_7">
     <g id="line2d_13">
      <path d="M 642.96 348.192 
L 642.96 93.744 
" clip-path="url(#p4eb7590344)" style="fill: none; stroke: #dfe5e8; stroke-width: 0.65; stroke-linecap: square"/>
     </g>
     <g id="line2d_14">
      <g>
       <use xlink:href="#m2f651114f9" x="642.96" y="348.192" style="stroke: #000000; stroke-width: 0.8"/>
      </g>
     </g>
     <g id="text_7">
      <text style="font: 10px 'DejaVu Sans', 'Bitstream Vera Sans', 'Computer Modern Sans Serif', 'Lucida Grande', 'Verdana', 'Geneva', 'Lucid', 'Arial', 'Helvetica', 'Avant Garde', sans-serif; text-anchor: middle" x="642.96" y="362.790438" transform="rotate(-0 642.96 362.790438)">6</text>
     </g>
    </g>
    <g id="text_8">
     <text style="font: 10px 'DejaVu Sans', 'Bitstream Vera Sans', 'Computer Modern Sans Serif', 'Lucida Grande', 'Verdana', 'Geneva', 'Lucid', 'Arial', 'Helvetica', 'Avant Garde', sans-serif; text-anchor: middle" x="358.704" y="376.468563" transform="rotate(-0 358.704 376.468563)">sUCS dE threshold</text>
    </g>
   </g>
   <g id="matplotlib.axis_2">
    <g id="ytick_1">
     <g id="line2d_15">
      <path d="M 74.448 348.192 
L 642.96 348.192 
" clip-path="url(#p4eb7590344)" style="fill: none; stroke: #dfe5e8; stroke-width: 0.65; stroke-linecap: square"/>
     </g>
     <g id="line2d_16">
      <defs>
       <path id="mf387d43119" d="M 0 0 
L -3.5 0 
" style="stroke: #000000; stroke-width: 0.8"/>
      </defs>
      <g>
       <use xlink:href="#mf387d43119" x="74.448" y="348.192" style="stroke: #000000; stroke-width: 0.8"/>
      </g>
     </g>
     <g id="text_9">
      <text style="font: 10px 'DejaVu Sans', 'Bitstream Vera Sans', 'Computer Modern Sans Serif', 'Lucida Grande', 'Verdana', 'Geneva', 'Lucid', 'Arial', 'Helvetica', 'Avant Garde', sans-serif; text-anchor: end" x="67.448" y="351.991219" transform="rotate(-0 67.448 351.991219)">0</text>
     </g>
    </g>
    <g id="ytick_2">
     <g id="line2d_17">
      <path d="M 74.448 297.3024 
L 642.96 297.3024 
" clip-path="url(#p4eb7590344)" style="fill: none; stroke: #dfe5e8; stroke-width: 0.65; stroke-linecap: square"/>
     </g>
     <g id="line2d_18">
      <g>
       <use xlink:href="#mf387d43119" x="74.448" y="297.3024" style="stroke: #000000; stroke-width: 0.8"/>
      </g>
     </g>
     <g id="text_10">
      <text style="font: 10px 'DejaVu Sans', 'Bitstream Vera Sans', 'Computer Modern Sans Serif', 'Lucida Grande', 'Verdana', 'Geneva', 'Lucid', 'Arial', 'Helvetica', 'Avant Garde', sans-serif; text-anchor: end" x="67.448" y="301.101619" transform="rotate(-0 67.448 301.101619)">20</text>
     </g>
    </g>
    <g id="ytick_3">
     <g id="line2d_19">
      <path d="M 74.448 246.4128 
L 642.96 246.4128 
" clip-path="url(#p4eb7590344)" style="fill: none; stroke: #dfe5e8; stroke-width: 0.65; stroke-linecap: square"/>
     </g>
     <g id="line2d_20">
      <g>
       <use xlink:href="#mf387d43119" x="74.448" y="246.4128" style="stroke: #000000; stroke-width: 0.8"/>
      </g>
     </g>
     <g id="text_11">
      <text style="font: 10px 'DejaVu Sans', 'Bitstream Vera Sans', 'Computer Modern Sans Serif', 'Lucida Grande', 'Verdana', 'Geneva', 'Lucid', 'Arial', 'Helvetica', 'Avant Garde', sans-serif; text-anchor: end" x="67.448" y="250.212019" transform="rotate(-0 67.448 250.212019)">40</text>
     </g>
    </g>
    <g id="ytick_4">
     <g id="line2d_21">
      <path d="M 74.448 195.5232 
L 642.96 195.5232 
" clip-path="url(#p4eb7590344)" style="fill: none; stroke: #dfe5e8; stroke-width: 0.65; stroke-linecap: square"/>
     </g>
     <g id="line2d_22">
      <g>
       <use xlink:href="#mf387d43119" x="74.448" y="195.5232" style="stroke: #000000; stroke-width: 0.8"/>
      </g>
     </g>
     <g id="text_12">
      <text style="font: 10px 'DejaVu Sans', 'Bitstream Vera Sans', 'Computer Modern Sans Serif', 'Lucida Grande', 'Verdana', 'Geneva', 'Lucid', 'Arial', 'Helvetica', 'Avant Garde', sans-serif; text-anchor: end" x="67.448" y="199.322419" transform="rotate(-0 67.448 199.322419)">60</text>
     </g>
    </g>
    <g id="ytick_5">
     <g id="line2d_23">
      <path d="M 74.448 144.6336 
L 642.96 144.6336 
" clip-path="url(#p4eb7590344)" style="fill: none; stroke: #dfe5e8; stroke-width: 0.65; stroke-linecap: square"/>
     </g>
     <g id="line2d_24">
      <g>
       <use xlink:href="#mf387d43119" x="74.448" y="144.6336" style="stroke: #000000; stroke-width: 0.8"/>
      </g>
     </g>
     <g id="text_13">
      <text style="font: 10px 'DejaVu Sans', 'Bitstream Vera Sans', 'Computer Modern Sans Serif', 'Lucida Grande', 'Verdana', 'Geneva', 'Lucid', 'Arial', 'Helvetica', 'Avant Garde', sans-serif; text-anchor: end" x="67.448" y="148.432819" transform="rotate(-0 67.448 148.432819)">80</text>
     </g>
    </g>
    <g id="ytick_6">
     <g id="line2d_25">
      <path d="M 74.448 93.744 
L 642.96 93.744 
" clip-path="url(#p4eb7590344)" style="fill: none; stroke: #dfe5e8; stroke-width: 0.65; stroke-linecap: square"/>
     </g>
     <g id="line2d_26">
      <g>
       <use xlink:href="#mf387d43119" x="74.448" y="93.744" style="stroke: #000000; stroke-width: 0.8"/>
      </g>
     </g>
     <g id="text_14">
      <text style="font: 10px 'DejaVu Sans', 'Bitstream Vera Sans', 'Computer Modern Sans Serif', 'Lucida Grande', 'Verdana', 'Geneva', 'Lucid', 'Arial', 'Helvetica', 'Avant Garde', sans-serif; text-anchor: end" x="67.448" y="97.543219" transform="rotate(-0 67.448 97.543219)">100</text>
     </g>
    </g>
    <g id="text_15">
     <text style="font: 10px 'DejaVu Sans', 'Bitstream Vera Sans', 'Computer Modern Sans Serif', 'Lucida Grande', 'Verdana', 'Geneva', 'Lucid', 'Arial', 'Helvetica', 'Avant Garde', sans-serif; text-anchor: middle" x="42.280812" y="220.968" transform="rotate(-90 42.280812 220.968)">observers%</text>
    </g>
   </g>
   <g id="line2d_27">
    <path d="M 74.448 348.192 
L 97.18848 348.192 
L 99.08352 346.560923 
L 102.8736 346.560923 
L 104.76864 344.929846 
L 106.66368 344.929846 
L 112.3488 340.036615 
L 121.824 340.036615 
L 123.71904 338.405538 
L 131.2992 338.405538 
L 133.19424 335.143385 
L 136.98432 331.881231 
L 138.87936 328.056637 
L 140.7744 326.42556 
L 142.66944 326.42556 
L 144.56448 323.163406 
L 146.45952 323.163406 
L 148.35456 321.532329 
L 150.2496 316.076658 
L 152.14464 316.076658 
L 157.82976 311.183427 
L 159.7248 311.183427 
L 161.61984 308.98991 
L 163.51488 307.358833 
L 165.40992 299.709645 
L 167.30496 298.078568 
L 169.2 295.88505 
L 174.88512 295.88505 
L 176.78016 292.060456 
L 178.6752 290.429379 
L 180.57024 284.973708 
L 188.1504 284.973708 
L 190.04544 283.342631 
L 193.83552 283.342631 
L 195.73056 281.149114 
L 197.6256 281.149114 
L 199.52064 275.693443 
L 203.31072 275.693443 
L 205.20576 274.062366 
L 207.1008 274.062366 
L 208.99584 272.431289 
L 212.78592 268.044255 
L 214.68096 268.044255 
L 216.576 266.413178 
L 218.47104 263.151024 
L 220.36608 259.32643 
L 222.26112 257.695353 
L 224.15616 257.695353 
L 226.0512 254.433199 
L 227.94624 252.802122 
L 229.84128 250.608605 
L 231.73632 250.608605 
L 233.63136 244.590493 
L 235.5264 244.590493 
L 237.42144 241.32834 
L 239.31648 233.679151 
L 241.21152 232.048074 
L 243.10656 232.048074 
L 245.0016 230.416997 
L 248.79168 222.767809 
L 250.68672 222.767809 
L 252.58176 221.136732 
L 254.4768 217.312138 
L 256.37184 215.681061 
L 263.952 215.681061 
L 265.84704 214.049984 
L 267.74208 210.22539 
L 271.53216 210.22539 
L 273.4272 208.031873 
L 275.32224 204.769719 
L 277.21728 204.769719 
L 279.11232 202.576202 
L 282.9024 199.314048 
L 286.69248 199.314048 
L 288.58752 195.489454 
L 290.48256 193.858377 
L 294.27264 193.858377 
L 296.16768 190.596223 
L 298.06272 188.965146 
L 301.8528 188.965146 
L 303.74784 187.334069 
L 305.64288 185.140552 
L 307.53792 183.509475 
L 311.328 183.509475 
L 313.22304 181.315958 
L 315.11808 181.315958 
L 318.90816 178.053804 
L 320.8032 174.22921 
L 322.69824 174.22921 
L 324.59328 172.035692 
L 326.48832 172.035692 
L 328.38336 170.404615 
L 330.2784 168.211098 
L 335.96352 168.211098 
L 337.85856 166.017581 
L 347.33376 166.017581 
L 349.2288 163.824064 
L 351.12384 159.999469 
L 354.91392 159.999469 
L 358.704 155.612435 
L 362.49408 155.612435 
L 364.38912 153.418918 
L 366.28416 153.418918 
L 368.1792 151.225401 
L 370.07424 151.225401 
L 371.96928 149.031883 
L 375.75936 149.031883 
L 377.6544 145.207289 
L 394.70976 145.207289 
L 396.6048 143.013772 
L 398.49984 139.189178 
L 417.45024 139.189178 
L 419.34528 136.99566 
L 426.92544 136.99566 
L 430.71552 132.608626 
L 443.9808 132.608626 
L 445.87584 130.415109 
L 459.14112 130.415109 
L 464.82624 123.834557 
L 468.61632 123.834557 
L 470.51136 121.64104 
L 472.4064 120.009963 
L 476.19648 120.009963 
L 478.09152 116.185369 
L 495.14688 116.185369 
L 497.04192 114.554292 
L 504.62208 114.554292 
L 506.51712 112.360775 
L 514.09728 112.360775 
L 515.99232 110.167257 
L 517.88736 110.167257 
L 519.7824 106.342663 
L 529.2576 106.342663 
L 531.15264 104.149146 
L 540.62784 104.149146 
L 542.52288 101.955629 
L 548.208 101.955629 
L 550.10304 99.762111 
L 584.21376 99.762111 
L 586.1088 98.131034 
L 642.96 98.131034 
L 642.96 98.131034 
" clip-path="url(#p4eb7590344)" style="fill: none; stroke: #252525; stroke-width: 2.5; stroke-linecap: square"/>
   </g>
   <g id="line2d_28">
    <path d="M 74.448 348.192 
L 89.60832 348.192 
L 91.50336 345.998483 
L 97.18848 345.998483 
L 99.08352 344.367406 
L 100.97856 344.367406 
L 102.8736 342.736329 
L 108.55872 342.736329 
L 110.45376 340.542812 
L 118.03392 340.542812 
L 119.92896 336.155777 
L 133.19424 336.155777 
L 135.08928 333.96226 
L 144.56448 333.96226 
L 146.45952 331.768743 
L 148.35456 331.768743 
L 150.2496 329.575225 
L 161.61984 329.575225 
L 165.40992 325.188191 
L 167.30496 325.188191 
L 169.2 322.994674 
L 188.1504 322.994674 
L 190.04544 316.976562 
L 191.94048 313.714408 
L 193.83552 313.714408 
L 197.6256 310.452255 
L 205.20576 310.452255 
L 207.1008 306.62766 
L 208.99584 306.62766 
L 210.89088 304.434143 
L 214.68096 304.434143 
L 216.576 300.609549 
L 218.47104 298.416032 
L 220.36608 294.028997 
L 222.26112 294.028997 
L 224.15616 292.39792 
L 226.0512 290.204403 
L 227.94624 286.379809 
L 229.84128 286.379809 
L 231.73632 284.748732 
L 233.63136 284.748732 
L 235.5264 283.117655 
L 237.42144 279.293061 
L 241.21152 274.906027 
L 243.10656 273.27495 
L 245.0016 271.081432 
L 246.89664 265.625761 
L 248.79168 261.238727 
L 250.68672 257.414133 
L 252.58176 257.414133 
L 254.4768 255.783056 
L 256.37184 250.327385 
L 258.26688 248.696308 
L 262.05696 248.696308 
L 263.952 245.434154 
L 265.84704 243.803077 
L 271.53216 232.329294 
L 273.4272 230.698218 
L 275.32224 226.873623 
L 277.21728 226.873623 
L 279.11232 225.242546 
L 281.00736 223.049029 
L 282.9024 223.049029 
L 284.79744 220.855512 
L 286.69248 219.224435 
L 296.16768 219.224435 
L 298.06272 215.962281 
L 299.95776 211.06905 
L 301.8528 211.06905 
L 303.74784 208.875533 
L 305.64288 203.982302 
L 307.53792 202.351225 
L 309.43296 197.964191 
L 311.328 196.333114 
L 313.22304 196.333114 
L 315.11808 194.139597 
L 317.01312 194.139597 
L 318.90816 190.877443 
L 320.8032 189.246366 
L 322.69824 187.052849 
L 328.38336 187.052849 
L 330.2784 183.790695 
L 332.17344 182.159618 
L 334.06848 182.159618 
L 335.96352 180.528541 
L 337.85856 178.335024 
L 347.33376 178.335024 
L 351.12384 175.07287 
L 353.01888 175.07287 
L 354.91392 172.879353 
L 356.80896 172.879353 
L 358.704 169.054759 
L 360.59904 167.423682 
L 362.49408 163.599088 
L 364.38912 160.336934 
L 366.28416 160.336934 
L 368.1792 154.318822 
L 370.07424 152.687745 
L 371.96928 152.687745 
L 373.86432 149.425592 
L 375.75936 145.600997 
L 385.23456 145.600997 
L 387.1296 141.776403 
L 389.02464 140.145326 
L 390.91968 140.145326 
L 392.81472 136.883172 
L 394.70976 136.883172 
L 396.6048 133.058578 
L 407.97504 133.058578 
L 409.87008 131.427501 
L 413.66016 131.427501 
L 417.45024 127.040467 
L 423.13536 127.040467 
L 425.0304 125.40939 
L 440.19072 125.40939 
L 443.9808 122.147236 
L 445.87584 122.147236 
L 447.77088 120.516159 
L 449.66592 116.691565 
L 451.56096 115.060488 
L 466.72128 115.060488 
L 468.61632 113.429411 
L 472.4064 113.429411 
L 474.30144 111.798334 
L 476.19648 111.798334 
L 478.09152 109.604817 
L 483.77664 109.604817 
L 485.67168 107.97374 
L 487.56672 105.780223 
L 533.04768 105.780223 
L 534.94272 104.149146 
L 572.84352 104.149146 
L 574.73856 101.955629 
L 578.52864 101.955629 
L 580.42368 99.762111 
L 614.5344 99.762111 
L 616.42944 98.131034 
L 642.96 98.131034 
L 642.96 98.131034 
" clip-path="url(#p4eb7590344)" style="fill: none; stroke: #3b83b4; stroke-width: 1.35; stroke-linecap: square"/>
   </g>
   <g id="line2d_29">
    <path d="M 74.448 348.192 
L 82.02816 348.192 
L 85.81824 344.929846 
L 89.60832 344.929846 
L 91.50336 343.298769 
L 108.55872 343.298769 
L 110.45376 341.667692 
L 114.24384 341.667692 
L 116.13888 340.036615 
L 118.03392 337.843098 
L 119.92896 334.580944 
L 123.71904 334.580944 
L 125.61408 332.949867 
L 127.50912 332.949867 
L 129.40416 329.687714 
L 133.19424 329.687714 
L 135.08928 328.056637 
L 136.98432 328.056637 
L 138.87936 326.42556 
L 140.7744 326.42556 
L 142.66944 324.794483 
L 144.56448 320.969889 
L 146.45952 319.338812 
L 152.14464 319.338812 
L 154.03968 317.707735 
L 155.93472 317.707735 
L 157.82976 314.445581 
L 159.7248 314.445581 
L 161.61984 312.814504 
L 163.51488 312.814504 
L 167.30496 309.55235 
L 169.2 306.290196 
L 171.09504 306.290196 
L 172.99008 304.096679 
L 180.57024 297.572371 
L 182.46528 297.572371 
L 184.36032 295.378854 
L 188.1504 292.1167 
L 193.83552 285.536149 
L 195.73056 283.905072 
L 197.6256 283.905072 
L 199.52064 280.080477 
L 201.41568 278.449401 
L 203.31072 275.187247 
L 207.1008 275.187247 
L 208.99584 273.55617 
L 212.78592 273.55617 
L 214.68096 271.925093 
L 216.576 269.731576 
L 218.47104 263.713464 
L 220.36608 263.713464 
L 224.15616 256.064276 
L 226.0512 254.433199 
L 227.94624 251.171045 
L 229.84128 247.346451 
L 231.73632 247.346451 
L 233.63136 245.715374 
L 235.5264 245.715374 
L 237.42144 244.084297 
L 239.31648 241.89078 
L 241.21152 238.066186 
L 243.10656 235.872668 
L 248.79168 230.979438 
L 250.68672 230.979438 
L 254.4768 227.717284 
L 256.37184 227.717284 
L 258.26688 225.523767 
L 260.16192 221.136732 
L 262.05696 221.136732 
L 263.952 219.505655 
L 265.84704 216.243501 
L 267.74208 216.243501 
L 271.53216 211.856467 
L 277.21728 206.963236 
L 279.11232 206.963236 
L 281.00736 204.769719 
L 284.79744 201.507565 
L 286.69248 199.314048 
L 290.48256 199.314048 
L 294.27264 196.051894 
L 296.16768 196.051894 
L 298.06272 190.596223 
L 301.8528 190.596223 
L 303.74784 188.965146 
L 309.43296 188.965146 
L 311.328 187.334069 
L 313.22304 185.140552 
L 315.11808 183.509475 
L 318.90816 183.509475 
L 320.8032 181.878398 
L 324.59328 177.491363 
L 332.17344 177.491363 
L 334.06848 175.297846 
L 339.7536 175.297846 
L 341.64864 169.842175 
L 343.54368 168.211098 
L 351.12384 168.211098 
L 353.01888 166.017581 
L 354.91392 161.630546 
L 370.07424 161.630546 
L 371.96928 157.243512 
L 373.86432 155.049995 
L 375.75936 151.225401 
L 387.1296 151.225401 
L 389.02464 146.838366 
L 394.70976 146.838366 
L 396.6048 144.644849 
L 400.39488 144.644849 
L 402.28992 143.013772 
L 404.18496 140.820255 
L 421.24032 140.820255 
L 423.13536 139.189178 
L 425.0304 136.99566 
L 432.61056 136.99566 
L 434.5056 134.802143 
L 442.08576 134.802143 
L 443.9808 132.608626 
L 447.77088 132.608626 
L 449.66592 128.784032 
L 451.56096 127.152955 
L 453.456 127.152955 
L 455.35104 122.76592 
L 457.24608 120.572403 
L 461.03616 120.572403 
L 462.9312 118.378886 
L 472.4064 118.378886 
L 474.30144 116.747809 
L 483.77664 116.747809 
L 485.67168 114.554292 
L 493.25184 114.554292 
L 495.14688 112.360775 
L 500.832 112.360775 
L 502.72704 110.167257 
L 521.67744 110.167257 
L 523.57248 107.97374 
L 525.46752 107.97374 
L 527.36256 105.780223 
L 529.2576 105.780223 
L 531.15264 103.586706 
L 540.62784 103.586706 
L 542.52288 101.955629 
L 544.41792 99.762111 
L 559.57824 99.762111 
L 561.47328 98.131034 
L 642.96 98.131034 
L 642.96 98.131034 
" clip-path="url(#p4eb7590344)" style="fill: none; stroke-dasharray: 4.995,2.16; stroke-dashoffset: 0; stroke: #c38a19; stroke-width: 1.35"/>
   </g>
   <g id="line2d_30">
    <path d="M 74.448 348.192 
L 93.3984 348.192 
L 95.29344 346.560923 
L 104.76864 346.560923 
L 108.55872 343.298769 
L 112.3488 343.298769 
L 114.24384 341.667692 
L 121.824 341.667692 
L 125.61408 338.405538 
L 127.50912 334.580944 
L 129.40416 334.580944 
L 131.2992 332.949867 
L 133.19424 332.949867 
L 135.08928 331.31879 
L 136.98432 331.31879 
L 138.87936 327.494196 
L 146.45952 327.494196 
L 148.35456 325.863119 
L 152.14464 325.863119 
L 154.03968 323.669602 
L 155.93472 323.669602 
L 157.82976 322.038525 
L 161.61984 315.514218 
L 163.51488 313.3207 
L 172.99008 313.3207 
L 174.88512 309.496106 
L 176.78016 309.496106 
L 178.6752 307.865029 
L 180.57024 304.040435 
L 182.46528 300.778281 
L 184.36032 300.778281 
L 186.25536 296.391247 
L 188.1504 294.197729 
L 190.04544 290.373135 
L 191.94048 288.742058 
L 193.83552 288.742058 
L 195.73056 279.461793 
L 197.6256 279.461793 
L 199.52064 277.830716 
L 201.41568 275.637199 
L 203.31072 271.812605 
L 205.20576 271.812605 
L 207.1008 266.919374 
L 210.89088 263.65722 
L 212.78592 255.501836 
L 218.47104 255.501836 
L 220.36608 253.308318 
L 222.26112 253.308318 
L 224.15616 247.852647 
L 229.84128 241.272095 
L 233.63136 241.272095 
L 235.5264 239.641019 
L 237.42144 239.641019 
L 239.31648 235.816424 
L 241.21152 235.816424 
L 243.10656 234.185347 
L 245.0016 234.185347 
L 246.89664 230.923194 
L 248.79168 230.923194 
L 250.68672 228.729676 
L 252.58176 225.467523 
L 258.26688 225.467523 
L 260.16192 223.836446 
L 262.05696 223.836446 
L 263.952 220.011851 
L 265.84704 220.011851 
L 267.74208 216.749698 
L 269.63712 216.749698 
L 271.53216 213.487544 
L 273.4272 213.487544 
L 277.21728 210.22539 
L 279.11232 208.031873 
L 282.9024 208.031873 
L 284.79744 202.013761 
L 286.69248 202.013761 
L 290.48256 198.751607 
L 294.27264 198.751607 
L 296.16768 196.55809 
L 299.95776 193.295936 
L 301.8528 191.102419 
L 303.74784 187.840265 
L 305.64288 187.840265 
L 307.53792 185.646748 
L 311.328 185.646748 
L 313.22304 183.453231 
L 315.11808 179.066196 
L 317.01312 179.066196 
L 318.90816 176.872679 
L 320.8032 175.241602 
L 322.69824 175.241602 
L 326.48832 171.979448 
L 328.38336 171.979448 
L 330.2784 169.785931 
L 332.17344 168.154854 
L 334.06848 168.154854 
L 335.96352 165.961337 
L 345.43872 165.961337 
L 349.2288 158.312149 
L 353.01888 153.925114 
L 356.80896 153.925114 
L 358.704 152.294037 
L 360.59904 152.294037 
L 362.49408 150.10052 
L 364.38912 150.10052 
L 366.28416 147.907003 
L 368.1792 146.275926 
L 381.44448 146.275926 
L 383.33952 144.082408 
L 389.02464 144.082408 
L 390.91968 142.451332 
L 392.81472 142.451332 
L 394.70976 138.064297 
L 407.97504 138.064297 
L 409.87008 135.87078 
L 413.66016 135.87078 
L 415.5552 133.677263 
L 417.45024 132.046186 
L 421.24032 132.046186 
L 423.13536 129.852668 
L 425.0304 129.852668 
L 426.92544 127.659151 
L 434.5056 127.659151 
L 438.29568 124.396997 
L 443.9808 124.396997 
L 445.87584 122.76592 
L 451.56096 122.76592 
L 453.456 120.572403 
L 455.35104 118.941326 
L 457.24608 116.747809 
L 459.14112 116.747809 
L 461.03616 114.554292 
L 464.82624 114.554292 
L 466.72128 112.360775 
L 479.98656 112.360775 
L 481.8816 110.167257 
L 489.46176 110.167257 
L 491.3568 107.97374 
L 500.832 107.97374 
L 502.72704 105.780223 
L 508.41216 105.780223 
L 510.3072 103.586706 
L 542.52288 103.586706 
L 544.41792 101.955629 
L 550.10304 101.955629 
L 551.99808 99.762111 
L 561.47328 99.762111 
L 563.36832 98.131034 
L 642.96 98.131034 
L 642.96 98.131034 
" clip-path="url(#p4eb7590344)" style="fill: none; stroke-dasharray: 1.35,2.2275; stroke-dashoffset: 0; stroke: #7d8a92; stroke-width: 1.35"/>
   </g>
   <g id="line2d_31">
    <path d="M 74.448 348.192 
L 108.55872 348.192 
L 110.45376 345.998483 
L 138.87936 345.998483 
L 140.7744 343.804966 
L 150.2496 343.804966 
L 152.14464 341.611448 
L 161.61984 341.611448 
L 163.51488 337.224414 
L 167.30496 337.224414 
L 169.2 335.030897 
L 172.99008 335.030897 
L 174.88512 332.837379 
L 176.78016 332.837379 
L 178.6752 331.206302 
L 182.46528 331.206302 
L 186.25536 326.819268 
L 191.94048 326.819268 
L 193.83552 324.625751 
L 195.73056 320.238716 
L 201.41568 320.238716 
L 203.31072 318.045199 
L 205.20576 316.414122 
L 212.78592 316.414122 
L 214.68096 314.220605 
L 216.576 314.220605 
L 218.47104 309.83357 
L 226.0512 309.83357 
L 227.94624 307.640053 
L 229.84128 307.640053 
L 233.63136 303.253019 
L 241.21152 303.253019 
L 243.10656 301.059501 
L 250.68672 301.059501 
L 252.58176 296.672467 
L 254.4768 292.847873 
L 273.4272 292.847873 
L 275.32224 291.216796 
L 279.11232 291.216796 
L 281.00736 287.392202 
L 282.9024 287.392202 
L 284.79744 285.198684 
L 288.58752 285.198684 
L 290.48256 277.549496 
L 292.3776 277.549496 
L 294.27264 275.355979 
L 296.16768 273.724902 
L 298.06272 273.724902 
L 299.95776 268.831671 
L 301.8528 268.831671 
L 303.74784 266.638154 
L 305.64288 266.638154 
L 307.53792 262.81356 
L 309.43296 262.81356 
L 311.328 261.182483 
L 315.11808 252.408414 
L 317.01312 252.408414 
L 318.90816 250.214897 
L 320.8032 246.952743 
L 322.69824 244.759225 
L 324.59328 243.128149 
L 326.48832 243.128149 
L 328.38336 240.934631 
L 330.2784 239.303554 
L 332.17344 239.303554 
L 335.96352 236.041401 
L 339.7536 228.392212 
L 341.64864 228.392212 
L 343.54368 226.198695 
L 347.33376 226.198695 
L 351.12384 222.936541 
L 353.01888 222.936541 
L 354.91392 216.91843 
L 360.59904 212.025199 
L 362.49408 212.025199 
L 364.38912 208.200605 
L 368.1792 208.200605 
L 370.07424 204.376011 
L 371.96928 204.376011 
L 373.86432 199.48278 
L 377.6544 199.48278 
L 379.54944 195.658186 
L 381.44448 194.027109 
L 383.33952 194.027109 
L 385.23456 188.571438 
L 387.1296 188.571438 
L 389.02464 186.940361 
L 402.28992 186.940361 
L 406.08 183.678207 
L 407.97504 179.853613 
L 409.87008 176.591459 
L 411.76512 176.591459 
L 413.66016 173.329305 
L 417.45024 170.067151 
L 421.24032 170.067151 
L 425.0304 166.804997 
L 426.92544 166.804997 
L 428.82048 164.61148 
L 432.61056 161.349326 
L 436.40064 161.349326 
L 438.29568 159.718249 
L 445.87584 159.718249 
L 447.77088 157.524732 
L 449.66592 155.893655 
L 451.56096 155.893655 
L 453.456 154.262578 
L 455.35104 147.738271 
L 459.14112 143.351236 
L 462.9312 143.351236 
L 468.61632 138.458005 
L 472.4064 138.458005 
L 474.30144 135.195851 
L 476.19648 135.195851 
L 478.09152 131.933698 
L 487.56672 131.933698 
L 491.3568 128.671544 
L 495.14688 128.671544 
L 497.04192 125.40939 
L 498.93696 123.778313 
L 500.832 119.953719 
L 523.57248 119.953719 
L 525.46752 116.691565 
L 527.36256 115.060488 
L 542.52288 115.060488 
L 544.41792 111.235894 
L 550.10304 111.235894 
L 553.89312 107.97374 
L 559.57824 107.97374 
L 561.47328 105.780223 
L 567.1584 105.780223 
L 569.05344 104.149146 
L 637.27488 104.149146 
L 639.16992 101.955629 
L 642.96 101.955629 
L 642.96 101.955629 
" clip-path="url(#p4eb7590344)" style="fill: none; stroke-dasharray: 8.64,2.16,1.35,2.16; stroke-dashoffset: 0; stroke: #d0526a; stroke-width: 1.35"/>
   </g>
   <g id="line2d_32">
    <path d="M 74.448 348.192 
L 118.03392 348.192 
L 119.92896 345.998483 
L 154.03968 345.998483 
L 155.93472 343.804966 
L 182.46528 343.804966 
L 184.36032 341.611448 
L 186.25536 337.224414 
L 191.94048 337.224414 
L 195.73056 332.837379 
L 197.6256 328.450345 
L 207.1008 328.450345 
L 208.99584 324.06331 
L 227.94624 324.06331 
L 229.84128 321.869793 
L 231.73632 321.869793 
L 233.63136 319.676276 
L 248.79168 319.676276 
L 252.58176 315.289241 
L 258.26688 315.289241 
L 260.16192 313.658164 
L 265.84704 313.658164 
L 267.74208 311.464647 
L 269.63712 311.464647 
L 273.4272 307.077613 
L 275.32224 307.077613 
L 277.21728 302.690578 
L 282.9024 302.690578 
L 284.79744 300.497061 
L 288.58752 300.497061 
L 290.48256 298.865984 
L 294.27264 294.47895 
L 298.06272 294.47895 
L 303.74784 287.898398 
L 305.64288 287.898398 
L 307.53792 285.704881 
L 313.22304 285.704881 
L 315.11808 283.511363 
L 317.01312 283.511363 
L 318.90816 280.24921 
L 322.69824 280.24921 
L 324.59328 278.055692 
L 332.17344 278.055692 
L 334.06848 276.424615 
L 335.96352 276.424615 
L 337.85856 274.231098 
L 339.7536 274.231098 
L 341.64864 272.600021 
L 358.704 272.600021 
L 360.59904 270.968944 
L 364.38912 270.968944 
L 366.28416 269.337867 
L 368.1792 266.075714 
L 370.07424 264.444637 
L 371.96928 262.251119 
L 373.86432 258.988966 
L 375.75936 256.795448 
L 377.6544 252.408414 
L 379.54944 252.408414 
L 381.44448 250.777337 
L 383.33952 247.515183 
L 389.02464 247.515183 
L 390.91968 245.321666 
L 392.81472 241.497072 
L 396.6048 241.497072 
L 398.49984 237.672477 
L 400.39488 236.041401 
L 402.28992 233.847883 
L 406.08 233.847883 
L 407.97504 232.216806 
L 409.87008 230.023289 
L 413.66016 230.023289 
L 415.5552 228.392212 
L 417.45024 222.374101 
L 419.34528 220.743024 
L 425.0304 220.743024 
L 426.92544 218.549507 
L 428.82048 216.91843 
L 432.61056 216.91843 
L 434.5056 213.656276 
L 438.29568 213.656276 
L 440.19072 210.394122 
L 442.08576 206.569528 
L 443.9808 204.938451 
L 445.87584 204.938451 
L 447.77088 203.307374 
L 451.56096 203.307374 
L 453.456 201.113857 
L 455.35104 199.48278 
L 457.24608 195.658186 
L 459.14112 190.764955 
L 461.03616 190.764955 
L 462.9312 189.133878 
L 464.82624 189.133878 
L 466.72128 185.309284 
L 470.51136 185.309284 
L 472.4064 181.48469 
L 474.30144 179.853613 
L 479.98656 179.853613 
L 481.8816 178.222536 
L 485.67168 178.222536 
L 487.56672 176.591459 
L 489.46176 173.329305 
L 497.04192 166.804997 
L 502.72704 166.804997 
L 504.62208 165.17392 
L 506.51712 165.17392 
L 508.41216 160.28069 
L 510.3072 160.28069 
L 515.99232 155.387459 
L 517.88736 153.193942 
L 521.67744 149.931788 
L 534.94272 149.931788 
L 536.83776 145.544753 
L 538.7328 145.544753 
L 542.52288 142.282599 
L 546.31296 142.282599 
L 548.208 140.089082 
L 551.99808 140.089082 
L 553.89312 136.826928 
L 557.6832 133.564775 
L 559.57824 133.564775 
L 561.47328 131.933698 
L 563.36832 131.933698 
L 565.26336 128.671544 
L 576.6336 128.671544 
L 578.52864 125.40939 
L 580.42368 125.40939 
L 582.31872 123.215873 
L 584.21376 116.129125 
L 610.74432 116.129125 
L 614.5344 112.866971 
L 622.11456 112.866971 
L 624.0096 110.673454 
L 629.69472 110.673454 
L 631.58976 109.042377 
L 637.27488 109.042377 
L 639.16992 105.780223 
L 642.96 105.780223 
L 642.96 105.780223 
" clip-path="url(#p4eb7590344)" style="fill: none; stroke-dasharray: 6.75,2.7,1.35,2.7; stroke-dashoffset: 0; stroke: #2f8f84; stroke-width: 1.35"/>
   </g>
   <g id="patch_4">
    <path d="M 74.448 348.192 
L 74.448 93.744 
" style="fill: none; stroke: #000000; stroke-width: 0.8; stroke-linejoin: miter; stroke-linecap: square"/>
   </g>
   <g id="patch_5">
    <path d="M 74.448 348.192 
L 642.96 348.192 
" style="fill: none; stroke: #000000; stroke-width: 0.8; stroke-linejoin: miter; stroke-linecap: square"/>
   </g>
  </g>
  <g id="text_16">
   <text style="font: 18px 'DejaVu Sans', 'Bitstream Vera Sans', 'Computer Modern Sans Serif', 'Lucida Grande', 'Verdana', 'Geneva', 'Lucid', 'Arial', 'Helvetica', 'Avant Garde', sans-serif; text-anchor: start" x="74.448" y="38.229188" transform="rotate(-0 74.448 38.229188)">QD-OLED → WLED LCD</text>
  </g>
  <g id="text_17">
   <text style="fill: #66747c; font: 10px 'DejaVu Sans', 'Bitstream Vera Sans', 'Computer Modern Sans Serif', 'Lucida Grande', 'Verdana', 'Geneva', 'Lucid', 'Arial', 'Helvetica', 'Avant Garde', sans-serif; text-anchor: start" x="74.448" y="64.728" transform="rotate(-0 74.448 64.728)">LED-V2</text>
  </g>
  <g id="legend_1">
   <g id="line2d_33">
    <path d="M 185.17875 404.151391 
L 194.27875 404.151391 
L 203.37875 404.151391 
" style="fill: none; stroke: #252525; stroke-width: 2.5; stroke-linecap: square"/>
   </g>
   <g id="text_18">
    <text style="font: 9.1px 'DejaVu Sans', 'Bitstream Vera Sans', 'Computer Modern Sans Serif', 'Lucida Grande', 'Verdana', 'Geneva', 'Lucid', 'Arial', 'Helvetica', 'Avant Garde', sans-serif; text-anchor: start" x="210.65875" y="407.336391" transform="rotate(-0 210.65875 407.336391)">Potera CMF</text>
   </g>
   <g id="line2d_34">
    <path d="M 185.17875 417.508484 
L 194.27875 417.508484 
L 203.37875 417.508484 
" style="fill: none; stroke: #3b83b4; stroke-width: 1.35; stroke-linecap: square"/>
   </g>
   <g id="text_19">
    <text style="font: 9.1px 'DejaVu Sans', 'Bitstream Vera Sans', 'Computer Modern Sans Serif', 'Lucida Grande', 'Verdana', 'Geneva', 'Lucid', 'Arial', 'Helvetica', 'Avant Garde', sans-serif; text-anchor: start" x="210.65875" y="420.693484" transform="rotate(-0 210.65875 420.693484)">CIE 2015 2°</text>
   </g>
   <g id="line2d_35">
    <path d="M 282.931234 404.151391 
L 292.031234 404.151391 
L 301.131234 404.151391 
" style="fill: none; stroke-dasharray: 4.995,2.16; stroke-dashoffset: 0; stroke: #c38a19; stroke-width: 1.35"/>
   </g>
   <g id="text_20">
    <text style="font: 9.1px 'DejaVu Sans', 'Bitstream Vera Sans', 'Computer Modern Sans Serif', 'Lucida Grande', 'Verdana', 'Geneva', 'Lucid', 'Arial', 'Helvetica', 'Avant Garde', sans-serif; text-anchor: start" x="308.411234" y="407.336391" transform="rotate(-0 308.411234 407.336391)">CIE 2015 10°</text>
   </g>
   <g id="line2d_36">
    <path d="M 282.931234 417.508484 
L 292.031234 417.508484 
L 301.131234 417.508484 
" style="fill: none; stroke-dasharray: 1.35,2.2275; stroke-dashoffset: 0; stroke: #7d8a92; stroke-width: 1.35"/>
   </g>
   <g id="text_21">
    <text style="font: 9.1px 'DejaVu Sans', 'Bitstream Vera Sans', 'Computer Modern Sans Serif', 'Lucida Grande', 'Verdana', 'Geneva', 'Lucid', 'Arial', 'Helvetica', 'Avant Garde', sans-serif; text-anchor: start" x="308.411234" y="420.693484" transform="rotate(-0 308.411234 420.693484)">CIE 1964 10°</text>
   </g>
   <g id="line2d_37">
    <path d="M 386.473594 404.151391 
L 395.573594 404.151391 
L 404.673594 404.151391 
" style="fill: none; stroke-dasharray: 8.64,2.16,1.35,2.16; stroke-dashoffset: 0; stroke: #d0526a; stroke-width: 1.35"/>
   </g>
   <g id="text_22">
    <text style="font: 9.1px 'DejaVu Sans', 'Bitstream Vera Sans', 'Computer Modern Sans Serif', 'Lucida Grande', 'Verdana', 'Geneva', 'Lucid', 'Arial', 'Helvetica', 'Avant Garde', sans-serif; text-anchor: start" x="411.953594" y="407.336391" transform="rotate(-0 411.953594 407.336391)">CIE 1931 2°</text>
   </g>
   <g id="line2d_38">
    <path d="M 386.473594 417.508484 
L 395.573594 417.508484 
L 404.673594 417.508484 
" style="fill: none; stroke-dasharray: 6.75,2.7,1.35,2.7; stroke-dashoffset: 0; stroke: #2f8f84; stroke-width: 1.35"/>
   </g>
   <g id="text_23">
    <text style="font: 9.1px 'DejaVu Sans', 'Bitstream Vera Sans', 'Computer Modern Sans Serif', 'Lucida Grande', 'Verdana', 'Geneva', 'Lucid', 'Arial', 'Helvetica', 'Avant Garde', sans-serif; text-anchor: start" x="411.953594" y="420.693484" transform="rotate(-0 411.953594 420.693484)">Judd–Vos 1978 2°</text>
   </g>
  </g>
 </g>
 <defs>
  <clipPath id="p4eb7590344">
   <rect x="74.448" y="93.744" width="568.512" height="254.448"/>
  </clipPath>
 </defs>
</svg>
