<?xml version="1.0" encoding="utf-8" standalone="no"?>
<!DOCTYPE svg PUBLIC "-//W3C//DTD SVG 1.1//EN"
  "http://www.w3.org/Graphics/SVG/1.1/DTD/svg11.dtd">
<svg xmlns:xlink="http://www.w3.org/1999/xlink" width="676.8pt" height="446.4pt" viewBox="0 0 676.8 446.4" xmlns="http://www.w3.org/2000/svg" version="1.1">
 <metadata>
  <rdf:RDF xmlns:dc="http://purl.org/dc/elements/1.1/" xmlns:cc="http://creativecommons.org/ns#" xmlns:rdf="http://www.w3.org/1999/02/22-rdf-syntax-ns#">
   <cc:Work>
    <dc:type rdf:resource="http://purl.org/dc/dcmitype/StillImage"/>
    <dc:date>2026-07-20T06:42:01.803054</dc:date>
    <dc:format>image/svg+xml</dc:format>
    <dc:creator>
     <cc:Agent>
      <dc:title>Matplotlib v3.9.4, https://matplotlib.org/</dc:title>
     </cc:Agent>
    </dc:creator>
   </cc:Work>
  </rdf:RDF>
 </metadata>
 <defs>
  <style type="text/css">*{stroke-linejoin: round; stroke-linecap: butt}</style>
 </defs>
 <g id="figure_1">
  <g id="patch_1">
   <path d="M 0 446.4 
L 676.8 446.4 
L 676.8 0 
L 0 0 
z
" style="fill: #ffffff"/>
  </g>
  <g id="axes_1">
   <g id="patch_2">
    <path d="M 74.448 348.192 
L 642.96 348.192 
L 642.96 93.744 
L 74.448 93.744 
z
" style="fill: #ffffff"/>
   </g>
   <g id="patch_3">
    <path d="M 169.2 348.192 
L 358.704 348.192 
L 358.704 93.744 
L 169.2 93.744 
z
" clip-path="url(#paa5288d86c)" style="fill: #e7f0ea; opacity: 0.58; stroke: #e7f0ea; stroke-linejoin: miter"/>
   </g>
   <g id="matplotlib.axis_1">
    <g id="xtick_1">
     <g id="line2d_1">
      <path d="M 74.448 348.192 
L 74.448 93.744 
" clip-path="url(#paa5288d86c)" style="fill: none; stroke: #dfe5e8; stroke-width: 0.65; stroke-linecap: square"/>
     </g>
     <g id="line2d_2">
      <defs>
       <path id="ma5181db47b" d="M 0 0 
L 0 3.5 
" style="stroke: #000000; stroke-width: 0.8"/>
      </defs>
      <g>
       <use xlink:href="#ma5181db47b" x="74.448" y="348.192" style="stroke: #000000; stroke-width: 0.8"/>
      </g>
     </g>
     <g id="text_1">
      <text style="font: 10px 'DejaVu Sans', 'Bitstream Vera Sans', 'Computer Modern Sans Serif', 'Lucida Grande', 'Verdana', 'Geneva', 'Lucid', 'Arial', 'Helvetica', 'Avant Garde', sans-serif; text-anchor: middle" x="74.448" y="362.790438" transform="rotate(-0 74.448 362.790438)">0</text>
     </g>
    </g>
    <g id="xtick_2">
     <g id="line2d_3">
      <path d="M 169.2 348.192 
L 169.2 93.744 
" clip-path="url(#paa5288d86c)" style="fill: none; stroke: #dfe5e8; stroke-width: 0.65; stroke-linecap: square"/>
     </g>
     <g id="line2d_4">
      <g>
       <use xlink:href="#ma5181db47b" x="169.2" y="348.192" style="stroke: #000000; stroke-width: 0.8"/>
      </g>
     </g>
     <g id="text_2">
      <text style="font: 10px 'DejaVu Sans', 'Bitstream Vera Sans', 'Computer Modern Sans Serif', 'Lucida Grande', 'Verdana', 'Geneva', 'Lucid', 'Arial', 'Helvetica', 'Avant Garde', sans-serif; text-anchor: middle" x="169.2" y="362.790438" transform="rotate(-0 169.2 362.790438)">1</text>
     </g>
    </g>
    <g id="xtick_3">
     <g id="line2d_5">
      <path d="M 263.952 348.192 
L 263.952 93.744 
" clip-path="url(#paa5288d86c)" style="fill: none; stroke: #dfe5e8; stroke-width: 0.65; stroke-linecap: square"/>
     </g>
     <g id="line2d_6">
      <g>
       <use xlink:href="#ma5181db47b" x="263.952" y="348.192" style="stroke: #000000; stroke-width: 0.8"/>
      </g>
     </g>
     <g id="text_3">
      <text style="font: 10px 'DejaVu Sans', 'Bitstream Vera Sans', 'Computer Modern Sans Serif', 'Lucida Grande', 'Verdana', 'Geneva', 'Lucid', 'Arial', 'Helvetica', 'Avant Garde', sans-serif; text-anchor: middle" x="263.952" y="362.790438" transform="rotate(-0 263.952 362.790438)">2</text>
     </g>
    </g>
    <g id="xtick_4">
     <g id="line2d_7">
      <path d="M 358.704 348.192 
L 358.704 93.744 
" clip-path="url(#paa5288d86c)" style="fill: none; stroke: #dfe5e8; stroke-width: 0.65; stroke-linecap: square"/>
     </g>
     <g id="line2d_8">
      <g>
       <use xlink:href="#ma5181db47b" x="358.704" y="348.192" style="stroke: #000000; stroke-width: 0.8"/>
      </g>
     </g>
     <g id="text_4">
      <text style="font: 10px 'DejaVu Sans', 'Bitstream Vera Sans', 'Computer Modern Sans Serif', 'Lucida Grande', 'Verdana', 'Geneva', 'Lucid', 'Arial', 'Helvetica', 'Avant Garde', sans-serif; text-anchor: middle" x="358.704" y="362.790438" transform="rotate(-0 358.704 362.790438)">3</text>
     </g>
    </g>
    <g id="xtick_5">
     <g id="line2d_9">
      <path d="M 453.456 348.192 
L 453.456 93.744 
" clip-path="url(#paa5288d86c)" style="fill: none; stroke: #dfe5e8; stroke-width: 0.65; stroke-linecap: square"/>
     </g>
     <g id="line2d_10">
      <g>
       <use xlink:href="#ma5181db47b" x="453.456" y="348.192" style="stroke: #000000; stroke-width: 0.8"/>
      </g>
     </g>
     <g id="text_5">
      <text style="font: 10px 'DejaVu Sans', 'Bitstream Vera Sans', 'Computer Modern Sans Serif', 'Lucida Grande', 'Verdana', 'Geneva', 'Lucid', 'Arial', 'Helvetica', 'Avant Garde', sans-serif; text-anchor: middle" x="453.456" y="362.790438" transform="rotate(-0 453.456 362.790438)">4</text>
     </g>
    </g>
    <g id="xtick_6">
     <g id="line2d_11">
      <path d="M 548.208 348.192 
L 548.208 93.744 
" clip-path="url(#paa5288d86c)" style="fill: none; stroke: #dfe5e8; stroke-width: 0.65; stroke-linecap: square"/>
     </g>
     <g id="line2d_12">
      <g>
       <use xlink:href="#ma5181db47b" x="548.208" y="348.192" style="stroke: #000000; stroke-width: 0.8"/>
      </g>
     </g>
     <g id="text_6">
      <text style="font: 10px 'DejaVu Sans', 'Bitstream Vera Sans', 'Computer Modern Sans Serif', 'Lucida Grande', 'Verdana', 'Geneva', 'Lucid', 'Arial', 'Helvetica', 'Avant Garde', sans-serif; text-anchor: middle" x="548.208" y="362.790438" transform="rotate(-0 548.208 362.790438)">5</text>
     </g>
    </g>
    <g id="xtick_7">
     <g id="line2d_13">
      <path d="M 642.96 348.192 
L 642.96 93.744 
" clip-path="url(#paa5288d86c)" style="fill: none; stroke: #dfe5e8; stroke-width: 0.65; stroke-linecap: square"/>
     </g>
     <g id="line2d_14">
      <g>
       <use xlink:href="#ma5181db47b" x="642.96" y="348.192" style="stroke: #000000; stroke-width: 0.8"/>
      </g>
     </g>
     <g id="text_7">
      <text style="font: 10px 'DejaVu Sans', 'Bitstream Vera Sans', 'Computer Modern Sans Serif', 'Lucida Grande', 'Verdana', 'Geneva', 'Lucid', 'Arial', 'Helvetica', 'Avant Garde', sans-serif; text-anchor: middle" x="642.96" y="362.790438" transform="rotate(-0 642.96 362.790438)">6</text>
     </g>
    </g>
    <g id="text_8">
     <text style="font: 10px 'DejaVu Sans', 'Bitstream Vera Sans', 'Computer Modern Sans Serif', 'Lucida Grande', 'Verdana', 'Geneva', 'Lucid', 'Arial', 'Helvetica', 'Avant Garde', sans-serif; text-anchor: middle" x="358.704" y="376.468563" transform="rotate(-0 358.704 376.468563)">sUCS dE threshold</text>
    </g>
   </g>
   <g id="matplotlib.axis_2">
    <g id="ytick_1">
     <g id="line2d_15">
      <path d="M 74.448 348.192 
L 642.96 348.192 
" clip-path="url(#paa5288d86c)" style="fill: none; stroke: #dfe5e8; stroke-width: 0.65; stroke-linecap: square"/>
     </g>
     <g id="line2d_16">
      <defs>
       <path id="m927320ff65" d="M 0 0 
L -3.5 0 
" style="stroke: #000000; stroke-width: 0.8"/>
      </defs>
      <g>
       <use xlink:href="#m927320ff65" x="74.448" y="348.192" style="stroke: #000000; stroke-width: 0.8"/>
      </g>
     </g>
     <g id="text_9">
      <text style="font: 10px 'DejaVu Sans', 'Bitstream Vera Sans', 'Computer Modern Sans Serif', 'Lucida Grande', 'Verdana', 'Geneva', 'Lucid', 'Arial', 'Helvetica', 'Avant Garde', sans-serif; text-anchor: end" x="67.448" y="351.991219" transform="rotate(-0 67.448 351.991219)">0</text>
     </g>
    </g>
    <g id="ytick_2">
     <g id="line2d_17">
      <path d="M 74.448 297.3024 
L 642.96 297.3024 
" clip-path="url(#paa5288d86c)" style="fill: none; stroke: #dfe5e8; stroke-width: 0.65; stroke-linecap: square"/>
     </g>
     <g id="line2d_18">
      <g>
       <use xlink:href="#m927320ff65" x="74.448" y="297.3024" style="stroke: #000000; stroke-width: 0.8"/>
      </g>
     </g>
     <g id="text_10">
      <text style="font: 10px 'DejaVu Sans', 'Bitstream Vera Sans', 'Computer Modern Sans Serif', 'Lucida Grande', 'Verdana', 'Geneva', 'Lucid', 'Arial', 'Helvetica', 'Avant Garde', sans-serif; text-anchor: end" x="67.448" y="301.101619" transform="rotate(-0 67.448 301.101619)">20</text>
     </g>
    </g>
    <g id="ytick_3">
     <g id="line2d_19">
      <path d="M 74.448 246.4128 
L 642.96 246.4128 
" clip-path="url(#paa5288d86c)" style="fill: none; stroke: #dfe5e8; stroke-width: 0.65; stroke-linecap: square"/>
     </g>
     <g id="line2d_20">
      <g>
       <use xlink:href="#m927320ff65" x="74.448" y="246.4128" style="stroke: #000000; stroke-width: 0.8"/>
      </g>
     </g>
     <g id="text_11">
      <text style="font: 10px 'DejaVu Sans', 'Bitstream Vera Sans', 'Computer Modern Sans Serif', 'Lucida Grande', 'Verdana', 'Geneva', 'Lucid', 'Arial', 'Helvetica', 'Avant Garde', sans-serif; text-anchor: end" x="67.448" y="250.212019" transform="rotate(-0 67.448 250.212019)">40</text>
     </g>
    </g>
    <g id="ytick_4">
     <g id="line2d_21">
      <path d="M 74.448 195.5232 
L 642.96 195.5232 
" clip-path="url(#paa5288d86c)" style="fill: none; stroke: #dfe5e8; stroke-width: 0.65; stroke-linecap: square"/>
     </g>
     <g id="line2d_22">
      <g>
       <use xlink:href="#m927320ff65" x="74.448" y="195.5232" style="stroke: #000000; stroke-width: 0.8"/>
      </g>
     </g>
     <g id="text_12">
      <text style="font: 10px 'DejaVu Sans', 'Bitstream Vera Sans', 'Computer Modern Sans Serif', 'Lucida Grande', 'Verdana', 'Geneva', 'Lucid', 'Arial', 'Helvetica', 'Avant Garde', sans-serif; text-anchor: end" x="67.448" y="199.322419" transform="rotate(-0 67.448 199.322419)">60</text>
     </g>
    </g>
    <g id="ytick_5">
     <g id="line2d_23">
      <path d="M 74.448 144.6336 
L 642.96 144.6336 
" clip-path="url(#paa5288d86c)" style="fill: none; stroke: #dfe5e8; stroke-width: 0.65; stroke-linecap: square"/>
     </g>
     <g id="line2d_24">
      <g>
       <use xlink:href="#m927320ff65" x="74.448" y="144.6336" style="stroke: #000000; stroke-width: 0.8"/>
      </g>
     </g>
     <g id="text_13">
      <text style="font: 10px 'DejaVu Sans', 'Bitstream Vera Sans', 'Computer Modern Sans Serif', 'Lucida Grande', 'Verdana', 'Geneva', 'Lucid', 'Arial', 'Helvetica', 'Avant Garde', sans-serif; text-anchor: end" x="67.448" y="148.432819" transform="rotate(-0 67.448 148.432819)">80</text>
     </g>
    </g>
    <g id="ytick_6">
     <g id="line2d_25">
      <path d="M 74.448 93.744 
L 642.96 93.744 
" clip-path="url(#paa5288d86c)" style="fill: none; stroke: #dfe5e8; stroke-width: 0.65; stroke-linecap: square"/>
     </g>
     <g id="line2d_26">
      <g>
       <use xlink:href="#m927320ff65" x="74.448" y="93.744" style="stroke: #000000; stroke-width: 0.8"/>
      </g>
     </g>
     <g id="text_14">
      <text style="font: 10px 'DejaVu Sans', 'Bitstream Vera Sans', 'Computer Modern Sans Serif', 'Lucida Grande', 'Verdana', 'Geneva', 'Lucid', 'Arial', 'Helvetica', 'Avant Garde', sans-serif; text-anchor: end" x="67.448" y="97.543219" transform="rotate(-0 67.448 97.543219)">100</text>
     </g>
    </g>
    <g id="text_15">
     <text style="font: 10px 'DejaVu Sans', 'Bitstream Vera Sans', 'Computer Modern Sans Serif', 'Lucida Grande', 'Verdana', 'Geneva', 'Lucid', 'Arial', 'Helvetica', 'Avant Garde', sans-serif; text-anchor: middle" x="42.280812" y="220.968" transform="rotate(-90 42.280812 220.968)">observers%</text>
    </g>
   </g>
   <g id="line2d_27">
    <path d="M 74.448 348.192 
L 93.3984 348.192 
L 95.29344 346.560923 
L 106.66368 346.560923 
L 108.55872 344.929846 
L 112.3488 344.929846 
L 114.24384 343.298769 
L 118.03392 343.298769 
L 119.92896 341.667692 
L 123.71904 341.667692 
L 127.50912 338.405538 
L 129.40416 338.405538 
L 131.2992 336.774462 
L 133.19424 336.774462 
L 135.08928 333.512308 
L 138.87936 333.512308 
L 140.7744 331.881231 
L 146.45952 331.881231 
L 148.35456 328.619077 
L 150.2496 328.619077 
L 152.14464 326.42556 
L 154.03968 324.794483 
L 155.93472 321.532329 
L 157.82976 319.901252 
L 159.7248 317.707735 
L 161.61984 317.707735 
L 163.51488 313.883141 
L 165.40992 313.883141 
L 167.30496 312.252064 
L 169.2 312.252064 
L 171.09504 308.427469 
L 172.99008 306.796393 
L 174.88512 299.147204 
L 176.78016 297.516127 
L 182.46528 297.516127 
L 184.36032 295.88505 
L 191.94048 295.88505 
L 193.83552 294.253973 
L 195.73056 290.429379 
L 201.41568 290.429379 
L 203.31072 288.798302 
L 205.20576 286.604785 
L 207.1008 286.604785 
L 208.99584 284.411268 
L 212.78592 281.149114 
L 214.68096 277.32452 
L 216.576 271.868849 
L 218.47104 270.237772 
L 222.26112 270.237772 
L 224.15616 268.606695 
L 226.0512 268.606695 
L 227.94624 266.413178 
L 229.84128 263.151024 
L 233.63136 263.151024 
L 235.5264 260.957507 
L 237.42144 257.695353 
L 239.31648 256.064276 
L 241.21152 256.064276 
L 243.10656 250.046164 
L 245.0016 250.046164 
L 246.89664 248.415088 
L 248.79168 246.22157 
L 250.68672 244.590493 
L 252.58176 244.590493 
L 256.37184 238.066186 
L 258.26688 234.241592 
L 260.16192 234.241592 
L 262.05696 230.416997 
L 263.952 230.416997 
L 265.84704 228.78592 
L 267.74208 228.78592 
L 269.63712 227.154844 
L 271.53216 223.330249 
L 275.32224 223.330249 
L 279.11232 220.068095 
L 281.00736 215.681061 
L 282.9024 213.487544 
L 284.79744 209.100509 
L 286.69248 207.469432 
L 288.58752 207.469432 
L 290.48256 205.838355 
L 292.3776 202.576202 
L 298.06272 197.682971 
L 313.22304 197.682971 
L 315.11808 194.420817 
L 317.01312 192.2273 
L 318.90816 192.2273 
L 320.8032 186.771629 
L 322.69824 185.140552 
L 334.06848 185.140552 
L 335.96352 179.12244 
L 337.85856 176.928923 
L 345.43872 176.928923 
L 347.33376 173.104329 
L 358.704 173.104329 
L 360.59904 170.910812 
L 370.07424 170.910812 
L 371.96928 167.086218 
L 373.86432 164.8927 
L 377.6544 161.630546 
L 379.54944 161.630546 
L 381.44448 159.999469 
L 383.33952 159.999469 
L 385.23456 158.368393 
L 389.02464 158.368393 
L 390.91968 156.174875 
L 392.81472 156.174875 
L 394.70976 153.981358 
L 396.6048 153.981358 
L 398.49984 147.963247 
L 406.08 147.963247 
L 409.87008 143.576212 
L 411.76512 143.576212 
L 413.66016 141.382695 
L 421.24032 141.382695 
L 423.13536 139.189178 
L 440.19072 139.189178 
L 442.08576 136.99566 
L 447.77088 136.99566 
L 449.66592 134.802143 
L 457.24608 134.802143 
L 459.14112 132.608626 
L 461.03616 132.608626 
L 462.9312 130.415109 
L 464.82624 126.028074 
L 470.51136 126.028074 
L 472.4064 123.834557 
L 478.09152 123.834557 
L 479.98656 121.64104 
L 512.20224 121.64104 
L 514.09728 119.447523 
L 521.67744 119.447523 
L 523.57248 117.254005 
L 525.46752 117.254005 
L 527.36256 115.622928 
L 534.94272 115.622928 
L 536.83776 113.429411 
L 540.62784 113.429411 
L 544.41792 110.167257 
L 555.78816 110.167257 
L 557.6832 107.97374 
L 559.57824 107.97374 
L 561.47328 106.342663 
L 578.52864 106.342663 
L 582.31872 101.955629 
L 595.584 101.955629 
L 597.47904 99.762111 
L 610.74432 99.762111 
L 612.63936 98.131034 
L 642.96 98.131034 
L 642.96 98.131034 
" clip-path="url(#paa5288d86c)" style="fill: none; stroke: #252525; stroke-width: 2.5; stroke-linecap: square"/>
   </g>
   <g id="line2d_28">
    <path d="M 74.448 348.192 
L 93.3984 348.192 
L 95.29344 345.998483 
L 116.13888 345.998483 
L 118.03392 343.804966 
L 119.92896 343.804966 
L 121.824 341.611448 
L 131.2992 341.611448 
L 133.19424 337.224414 
L 136.98432 337.224414 
L 138.87936 335.593337 
L 142.66944 335.593337 
L 146.45952 331.206302 
L 148.35456 331.206302 
L 150.2496 329.012785 
L 163.51488 329.012785 
L 165.40992 327.381708 
L 172.99008 327.381708 
L 174.88512 325.750631 
L 178.6752 325.750631 
L 180.57024 323.557114 
L 182.46528 319.17008 
L 190.04544 319.17008 
L 193.83552 315.907926 
L 203.31072 315.907926 
L 205.20576 314.276849 
L 222.26112 314.276849 
L 224.15616 312.645772 
L 226.0512 310.452255 
L 227.94624 310.452255 
L 229.84128 306.62766 
L 231.73632 304.434143 
L 233.63136 304.434143 
L 235.5264 302.240626 
L 237.42144 300.609549 
L 239.31648 296.784955 
L 241.21152 296.784955 
L 243.10656 293.522801 
L 245.0016 291.329284 
L 246.89664 285.873613 
L 248.79168 285.873613 
L 250.68672 282.049019 
L 256.37184 275.468467 
L 258.26688 272.206313 
L 260.16192 266.750642 
L 262.05696 266.750642 
L 263.952 262.926048 
L 265.84704 256.907936 
L 267.74208 252.520902 
L 273.4272 252.520902 
L 275.32224 250.889825 
L 281.00736 250.889825 
L 282.9024 249.258748 
L 284.79744 245.996594 
L 286.69248 240.540923 
L 288.58752 240.540923 
L 290.48256 236.716329 
L 292.3776 236.716329 
L 296.16768 233.454175 
L 298.06272 231.260658 
L 299.95776 229.629581 
L 301.8528 226.367427 
L 305.64288 226.367427 
L 307.53792 222.542833 
L 309.43296 222.542833 
L 311.328 220.349316 
L 313.22304 216.524721 
L 315.11808 214.331204 
L 317.01312 214.331204 
L 318.90816 211.06905 
L 320.8032 208.875533 
L 324.59328 201.226345 
L 326.48832 201.226345 
L 328.38336 199.032828 
L 332.17344 199.032828 
L 334.06848 197.401751 
L 335.96352 194.139597 
L 337.85856 194.139597 
L 339.7536 192.50852 
L 341.64864 192.50852 
L 343.54368 190.877443 
L 347.33376 190.877443 
L 349.2288 187.052849 
L 351.12384 183.790695 
L 356.80896 183.790695 
L 358.704 182.159618 
L 360.59904 182.159618 
L 362.49408 180.528541 
L 364.38912 180.528541 
L 366.28416 178.897464 
L 368.1792 174.51043 
L 370.07424 169.617199 
L 371.96928 167.423682 
L 373.86432 167.423682 
L 375.75936 161.968011 
L 377.6544 161.968011 
L 379.54944 160.336934 
L 381.44448 160.336934 
L 383.33952 158.705857 
L 387.1296 158.705857 
L 389.02464 157.07478 
L 392.81472 157.07478 
L 394.70976 153.812626 
L 396.6048 153.812626 
L 398.49984 150.550472 
L 400.39488 148.919395 
L 404.18496 144.532361 
L 406.08 142.901284 
L 407.97504 138.514249 
L 409.87008 136.883172 
L 411.76512 134.689655 
L 413.66016 133.058578 
L 417.45024 133.058578 
L 419.34528 131.427501 
L 428.82048 131.427501 
L 430.71552 129.233984 
L 436.40064 129.233984 
L 438.29568 127.602907 
L 440.19072 127.602907 
L 442.08576 125.97183 
L 449.66592 125.97183 
L 453.456 122.709676 
L 455.35104 122.709676 
L 457.24608 121.078599 
L 468.61632 121.078599 
L 470.51136 119.447523 
L 481.8816 119.447523 
L 483.77664 117.254005 
L 489.46176 117.254005 
L 493.25184 112.866971 
L 497.04192 112.866971 
L 498.93696 110.673454 
L 517.88736 110.673454 
L 519.7824 109.042377 
L 533.04768 109.042377 
L 534.94272 107.4113 
L 559.57824 107.4113 
L 561.47328 105.780223 
L 570.94848 105.780223 
L 572.84352 103.586706 
L 584.21376 103.586706 
L 586.1088 101.955629 
L 588.00384 99.762111 
L 622.11456 99.762111 
L 624.0096 98.131034 
L 642.96 98.131034 
L 642.96 98.131034 
" clip-path="url(#paa5288d86c)" style="fill: none; stroke: #3b83b4; stroke-width: 1.35; stroke-linecap: square"/>
   </g>
   <g id="line2d_29">
    <path d="M 74.448 348.192 
L 91.50336 348.192 
L 93.3984 346.560923 
L 97.18848 346.560923 
L 100.97856 343.298769 
L 118.03392 343.298769 
L 121.824 340.036615 
L 123.71904 340.036615 
L 127.50912 335.649581 
L 129.40416 334.018504 
L 131.2992 334.018504 
L 133.19424 332.387427 
L 135.08928 327.494196 
L 138.87936 327.494196 
L 140.7744 322.600966 
L 142.66944 320.969889 
L 148.35456 320.969889 
L 150.2496 319.338812 
L 152.14464 319.338812 
L 154.03968 317.707735 
L 155.93472 314.445581 
L 159.7248 314.445581 
L 161.61984 312.814504 
L 163.51488 312.814504 
L 165.40992 311.183427 
L 172.99008 311.183427 
L 180.57024 304.659119 
L 188.1504 304.659119 
L 190.04544 301.396966 
L 191.94048 301.396966 
L 195.73056 298.134812 
L 197.6256 293.747777 
L 199.52064 293.747777 
L 201.41568 291.55426 
L 203.31072 291.55426 
L 205.20576 289.923183 
L 207.1008 287.729666 
L 208.99584 287.729666 
L 210.89088 286.098589 
L 212.78592 282.273995 
L 214.68096 282.273995 
L 216.576 280.080477 
L 218.47104 280.080477 
L 220.36608 278.449401 
L 222.26112 275.187247 
L 224.15616 272.993729 
L 226.0512 271.362653 
L 227.94624 267.538058 
L 229.84128 265.906981 
L 235.5264 265.906981 
L 237.42144 258.257793 
L 239.31648 258.257793 
L 241.21152 254.995639 
L 243.10656 254.995639 
L 245.0016 253.364562 
L 246.89664 248.977528 
L 248.79168 246.784011 
L 250.68672 246.784011 
L 252.58176 245.152934 
L 254.4768 245.152934 
L 256.37184 243.521857 
L 260.16192 243.521857 
L 262.05696 234.241592 
L 263.952 232.610515 
L 267.74208 232.610515 
L 269.63712 230.979438 
L 273.4272 230.979438 
L 275.32224 229.348361 
L 277.21728 229.348361 
L 279.11232 227.154844 
L 282.9024 223.89269 
L 284.79744 220.068095 
L 290.48256 215.174865 
L 294.27264 215.174865 
L 296.16768 213.543788 
L 299.95776 213.543788 
L 301.8528 211.350271 
L 303.74784 211.350271 
L 305.64288 209.156753 
L 307.53792 209.156753 
L 309.43296 207.525676 
L 311.328 207.525676 
L 313.22304 205.894599 
L 315.11808 203.701082 
L 317.01312 202.070005 
L 318.90816 202.070005 
L 320.8032 196.051894 
L 322.69824 196.051894 
L 326.48832 191.664859 
L 335.96352 183.509475 
L 337.85856 183.509475 
L 339.7536 181.315958 
L 343.54368 181.315958 
L 345.43872 177.491363 
L 354.91392 177.491363 
L 356.80896 175.860286 
L 358.704 172.035692 
L 373.86432 172.035692 
L 375.75936 169.842175 
L 377.6544 168.211098 
L 381.44448 163.824064 
L 383.33952 163.824064 
L 385.23456 161.630546 
L 392.81472 161.630546 
L 394.70976 159.437029 
L 411.76512 159.437029 
L 413.66016 157.243512 
L 415.5552 153.418918 
L 421.24032 153.418918 
L 423.13536 151.225401 
L 425.0304 151.225401 
L 426.92544 149.594324 
L 428.82048 143.013772 
L 434.5056 143.013772 
L 436.40064 140.820255 
L 438.29568 140.820255 
L 440.19072 136.99566 
L 442.08576 136.99566 
L 443.9808 134.802143 
L 447.77088 134.802143 
L 451.56096 130.415109 
L 466.72128 130.415109 
L 468.61632 128.221592 
L 481.8816 128.221592 
L 483.77664 126.028074 
L 485.67168 126.028074 
L 487.56672 122.20348 
L 497.04192 122.20348 
L 500.832 117.816446 
L 502.72704 116.185369 
L 504.62208 116.185369 
L 506.51712 113.991851 
L 515.99232 113.991851 
L 517.88736 111.798334 
L 519.7824 111.798334 
L 521.67744 110.167257 
L 546.31296 110.167257 
L 548.208 107.97374 
L 563.36832 107.97374 
L 565.26336 105.780223 
L 569.05344 105.780223 
L 570.94848 103.586706 
L 572.84352 101.955629 
L 580.42368 101.955629 
L 582.31872 100.324552 
L 597.47904 100.324552 
L 599.37408 98.131034 
L 642.96 98.131034 
L 642.96 98.131034 
" clip-path="url(#paa5288d86c)" style="fill: none; stroke-dasharray: 4.995,2.16; stroke-dashoffset: 0; stroke: #c38a19; stroke-width: 1.35"/>
   </g>
   <g id="line2d_30">
    <path d="M 74.448 348.192 
L 100.97856 348.192 
L 104.76864 344.929846 
L 119.92896 344.929846 
L 121.824 343.298769 
L 125.61408 336.774462 
L 129.40416 336.774462 
L 131.2992 334.580944 
L 135.08928 334.580944 
L 136.98432 332.387427 
L 140.7744 332.387427 
L 142.66944 330.75635 
L 150.2496 330.75635 
L 154.03968 327.494196 
L 155.93472 327.494196 
L 157.82976 325.863119 
L 159.7248 320.969889 
L 163.51488 320.969889 
L 167.30496 317.707735 
L 169.2 312.252064 
L 171.09504 310.058546 
L 174.88512 310.058546 
L 176.78016 304.602875 
L 180.57024 304.602875 
L 182.46528 302.971798 
L 186.25536 302.971798 
L 188.1504 299.147204 
L 190.04544 299.147204 
L 191.94048 297.516127 
L 193.83552 295.32261 
L 195.73056 290.935576 
L 199.52064 290.935576 
L 201.41568 289.304499 
L 203.31072 284.411268 
L 207.1008 280.024233 
L 208.99584 280.024233 
L 212.78592 276.76208 
L 214.68096 273.499926 
L 220.36608 273.499926 
L 222.26112 266.919374 
L 224.15616 262.026143 
L 226.0512 262.026143 
L 227.94624 258.201549 
L 239.31648 258.201549 
L 243.10656 254.939395 
L 245.0016 248.921284 
L 246.89664 247.290207 
L 248.79168 247.290207 
L 250.68672 245.65913 
L 260.16192 245.65913 
L 262.05696 244.028053 
L 263.952 244.028053 
L 265.84704 240.203459 
L 267.74208 236.941305 
L 269.63712 234.747788 
L 271.53216 234.747788 
L 273.4272 229.854557 
L 275.32224 228.22348 
L 277.21728 228.22348 
L 279.11232 226.029963 
L 282.9024 226.029963 
L 284.79744 224.398886 
L 286.69248 221.136732 
L 290.48256 217.874578 
L 292.3776 217.874578 
L 296.16768 214.612424 
L 298.06272 210.78783 
L 301.8528 210.78783 
L 305.64288 206.400796 
L 307.53792 200.382684 
L 313.22304 200.382684 
L 315.11808 198.751607 
L 317.01312 198.751607 
L 318.90816 194.927013 
L 322.69824 194.927013 
L 324.59328 193.295936 
L 328.38336 193.295936 
L 332.17344 190.033782 
L 334.06848 184.578111 
L 337.85856 180.191077 
L 343.54368 180.191077 
L 345.43872 177.99756 
L 347.33376 177.99756 
L 353.01888 173.104329 
L 358.704 173.104329 
L 360.59904 170.910812 
L 362.49408 170.910812 
L 364.38912 168.717294 
L 366.28416 168.717294 
L 368.1792 167.086218 
L 370.07424 167.086218 
L 371.96928 162.699183 
L 377.6544 162.699183 
L 381.44448 159.437029 
L 383.33952 157.243512 
L 385.23456 157.243512 
L 387.1296 155.049995 
L 389.02464 155.049995 
L 390.91968 152.856477 
L 392.81472 152.856477 
L 396.6048 148.469443 
L 398.49984 148.469443 
L 404.18496 141.888891 
L 409.87008 141.888891 
L 413.66016 137.501857 
L 425.0304 137.501857 
L 426.92544 135.30834 
L 428.82048 133.677263 
L 434.5056 133.677263 
L 436.40064 132.046186 
L 442.08576 132.046186 
L 443.9808 129.852668 
L 449.66592 129.852668 
L 451.56096 128.221592 
L 453.456 126.028074 
L 462.9312 126.028074 
L 464.82624 123.834557 
L 476.19648 123.834557 
L 478.09152 122.20348 
L 479.98656 120.009963 
L 489.46176 120.009963 
L 491.3568 117.816446 
L 498.93696 117.816446 
L 500.832 116.185369 
L 504.62208 116.185369 
L 506.51712 113.991851 
L 508.41216 112.360775 
L 519.7824 112.360775 
L 521.67744 107.97374 
L 525.46752 107.97374 
L 527.36256 105.780223 
L 534.94272 105.780223 
L 536.83776 103.586706 
L 557.6832 103.586706 
L 559.57824 101.955629 
L 595.584 101.955629 
L 597.47904 100.324552 
L 599.37408 100.324552 
L 601.26912 98.131034 
L 642.96 98.131034 
L 642.96 98.131034 
" clip-path="url(#paa5288d86c)" style="fill: none; stroke-dasharray: 1.35,2.2275; stroke-dashoffset: 0; stroke: #7d8a92; stroke-width: 1.35"/>
   </g>
   <g id="line2d_31">
    <path d="M 74.448 348.192 
L 100.97856 348.192 
L 102.8736 345.998483 
L 148.35456 345.998483 
L 150.2496 343.804966 
L 163.51488 343.804966 
L 165.40992 341.611448 
L 169.2 341.611448 
L 171.09504 339.417931 
L 174.88512 339.417931 
L 176.78016 337.786854 
L 178.6752 333.96226 
L 182.46528 333.96226 
L 184.36032 331.768743 
L 186.25536 331.768743 
L 188.1504 327.381708 
L 193.83552 327.381708 
L 195.73056 325.188191 
L 197.6256 325.188191 
L 199.52064 322.994674 
L 203.31072 322.994674 
L 205.20576 320.801156 
L 210.89088 320.801156 
L 212.78592 318.607639 
L 214.68096 318.607639 
L 218.47104 314.220605 
L 224.15616 314.220605 
L 226.0512 309.83357 
L 227.94624 307.640053 
L 233.63136 307.640053 
L 235.5264 305.446536 
L 248.79168 305.446536 
L 250.68672 303.253019 
L 252.58176 303.253019 
L 256.37184 298.865984 
L 262.05696 298.865984 
L 263.952 296.672467 
L 265.84704 295.04139 
L 267.74208 295.04139 
L 269.63712 293.410313 
L 281.00736 293.410313 
L 282.9024 291.216796 
L 284.79744 289.585719 
L 286.69248 289.585719 
L 288.58752 285.761125 
L 292.3776 285.761125 
L 296.16768 282.498971 
L 301.8528 282.498971 
L 303.74784 280.867894 
L 309.43296 280.867894 
L 311.328 279.236817 
L 313.22304 279.236817 
L 315.11808 277.0433 
L 320.8032 277.0433 
L 322.69824 274.849782 
L 324.59328 274.849782 
L 326.48832 267.200594 
L 330.2784 258.426525 
L 332.17344 258.426525 
L 334.06848 256.233008 
L 335.96352 254.601931 
L 337.85856 254.601931 
L 339.7536 248.58382 
L 341.64864 246.390302 
L 345.43872 236.603841 
L 347.33376 231.14817 
L 349.2288 231.14817 
L 353.01888 227.886016 
L 356.80896 223.498981 
L 358.704 221.867905 
L 360.59904 219.674387 
L 364.38912 219.674387 
L 366.28416 217.48087 
L 370.07424 214.218716 
L 371.96928 210.956562 
L 373.86432 210.956562 
L 375.75936 209.325485 
L 377.6544 206.063332 
L 381.44448 206.063332 
L 383.33952 204.432255 
L 385.23456 200.60766 
L 387.1296 200.60766 
L 389.02464 198.976584 
L 396.6048 198.976584 
L 398.49984 196.783066 
L 400.39488 191.889836 
L 404.18496 188.627682 
L 406.08 188.627682 
L 407.97504 185.365528 
L 413.66016 185.365528 
L 415.5552 180.978493 
L 417.45024 180.978493 
L 419.34528 177.153899 
L 421.24032 173.891745 
L 432.61056 173.891745 
L 436.40064 170.629592 
L 440.19072 170.629592 
L 442.08576 168.998515 
L 445.87584 168.998515 
L 447.77088 167.367438 
L 451.56096 167.367438 
L 455.35104 164.105284 
L 457.24608 157.524732 
L 459.14112 157.524732 
L 461.03616 155.893655 
L 462.9312 152.631501 
L 464.82624 151.000424 
L 468.61632 146.61339 
L 470.51136 146.61339 
L 472.4064 144.982313 
L 474.30144 144.982313 
L 476.19648 141.720159 
L 478.09152 141.720159 
L 479.98656 138.458005 
L 481.8816 136.826928 
L 487.56672 136.826928 
L 491.3568 133.564775 
L 493.25184 131.371257 
L 495.14688 131.371257 
L 497.04192 129.74018 
L 498.93696 126.478027 
L 510.3072 126.478027 
L 512.20224 124.84695 
L 523.57248 124.84695 
L 527.36256 121.584796 
L 536.83776 121.584796 
L 538.7328 115.060488 
L 548.208 115.060488 
L 551.99808 111.798334 
L 553.89312 109.604817 
L 563.36832 109.604817 
L 565.26336 107.4113 
L 572.84352 107.4113 
L 574.73856 105.780223 
L 578.52864 105.780223 
L 580.42368 104.149146 
L 642.96 104.149146 
L 642.96 104.149146 
" clip-path="url(#paa5288d86c)" style="fill: none; stroke-dasharray: 8.64,2.16,1.35,2.16; stroke-dashoffset: 0; stroke: #d0526a; stroke-width: 1.35"/>
   </g>
   <g id="line2d_32">
    <path d="M 74.448 348.192 
L 144.56448 348.192 
L 146.45952 345.998483 
L 167.30496 345.998483 
L 169.2 343.804966 
L 172.99008 343.804966 
L 174.88512 341.611448 
L 197.6256 341.611448 
L 199.52064 339.417931 
L 207.1008 339.417931 
L 208.99584 335.030897 
L 216.576 335.030897 
L 218.47104 332.837379 
L 220.36608 332.837379 
L 222.26112 330.643862 
L 226.0512 330.643862 
L 227.94624 328.450345 
L 235.5264 328.450345 
L 237.42144 326.256828 
L 239.31648 326.256828 
L 241.21152 321.869793 
L 258.26688 321.869793 
L 260.16192 319.676276 
L 262.05696 319.676276 
L 263.952 318.045199 
L 275.32224 318.045199 
L 277.21728 315.851682 
L 284.79744 315.851682 
L 286.69248 314.220605 
L 290.48256 309.83357 
L 292.3776 309.83357 
L 294.27264 307.640053 
L 299.95776 307.640053 
L 301.8528 303.253019 
L 303.74784 303.253019 
L 307.53792 298.865984 
L 330.2784 298.865984 
L 332.17344 296.672467 
L 335.96352 296.672467 
L 339.7536 292.285432 
L 341.64864 292.285432 
L 345.43872 287.898398 
L 347.33376 287.898398 
L 349.2288 285.704881 
L 351.12384 285.704881 
L 353.01888 284.073804 
L 354.91392 284.073804 
L 356.80896 281.880286 
L 358.704 281.880286 
L 360.59904 280.24921 
L 373.86432 280.24921 
L 375.75936 278.055692 
L 377.6544 278.055692 
L 379.54944 275.862175 
L 381.44448 275.862175 
L 387.1296 270.968944 
L 394.70976 270.968944 
L 396.6048 267.70679 
L 402.28992 267.70679 
L 404.18496 263.882196 
L 409.87008 263.882196 
L 411.76512 260.620042 
L 413.66016 258.988966 
L 415.5552 255.164371 
L 417.45024 252.970854 
L 419.34528 251.339777 
L 430.71552 251.339777 
L 432.61056 249.7087 
L 434.5056 245.321666 
L 436.40064 243.690589 
L 438.29568 241.497072 
L 442.08576 241.497072 
L 443.9808 239.303554 
L 445.87584 236.041401 
L 447.77088 236.041401 
L 449.66592 232.779247 
L 451.56096 232.779247 
L 453.456 230.585729 
L 455.35104 226.198695 
L 457.24608 226.198695 
L 464.82624 219.674387 
L 466.72128 216.412233 
L 468.61632 216.412233 
L 470.51136 214.781156 
L 472.4064 210.956562 
L 474.30144 209.325485 
L 478.09152 209.325485 
L 479.98656 207.694408 
L 481.8816 207.694408 
L 483.77664 203.869814 
L 485.67168 203.869814 
L 487.56672 202.238737 
L 489.46176 202.238737 
L 491.3568 200.04522 
L 493.25184 200.04522 
L 495.14688 196.783066 
L 497.04192 195.151989 
L 498.93696 195.151989 
L 500.832 193.520912 
L 508.41216 193.520912 
L 510.3072 191.327395 
L 514.09728 191.327395 
L 515.99232 188.065241 
L 517.88736 183.172011 
L 519.7824 183.172011 
L 521.67744 179.909857 
L 523.57248 177.71634 
L 525.46752 176.085263 
L 527.36256 176.085263 
L 529.2576 174.454186 
L 531.15264 174.454186 
L 533.04768 170.629592 
L 536.83776 170.629592 
L 538.7328 168.998515 
L 540.62784 166.804997 
L 542.52288 163.542844 
L 544.41792 161.911767 
L 550.10304 161.911767 
L 551.99808 160.28069 
L 557.6832 160.28069 
L 563.36832 155.387459 
L 569.05344 155.387459 
L 570.94848 153.756382 
L 572.84352 153.756382 
L 574.73856 152.125305 
L 576.6336 149.931788 
L 578.52864 148.300711 
L 580.42368 148.300711 
L 582.31872 143.913676 
L 584.21376 143.913676 
L 586.1088 140.651523 
L 588.00384 140.651523 
L 589.89888 138.458005 
L 591.79392 138.458005 
L 593.68896 136.826928 
L 595.584 136.826928 
L 599.37408 133.564775 
L 601.26912 130.302621 
L 605.0592 127.040467 
L 608.84928 127.040467 
L 610.74432 124.84695 
L 616.42944 124.84695 
L 618.32448 123.215873 
L 620.21952 121.022355 
L 624.0096 117.760202 
L 633.4848 117.760202 
L 635.37984 116.129125 
L 642.96 116.129125 
L 642.96 116.129125 
" clip-path="url(#paa5288d86c)" style="fill: none; stroke-dasharray: 6.75,2.7,1.35,2.7; stroke-dashoffset: 0; stroke: #2f8f84; stroke-width: 1.35"/>
   </g>
   <g id="patch_4">
    <path d="M 74.448 348.192 
L 74.448 93.744 
" style="fill: none; stroke: #000000; stroke-width: 0.8; stroke-linejoin: miter; stroke-linecap: square"/>
   </g>
   <g id="patch_5">
    <path d="M 74.448 348.192 
L 642.96 348.192 
" style="fill: none; stroke: #000000; stroke-width: 0.8; stroke-linejoin: miter; stroke-linecap: square"/>
   </g>
  </g>
  <g id="text_16">
   <text style="font: 18px 'DejaVu Sans', 'Bitstream Vera Sans', 'Computer Modern Sans Serif', 'Lucida Grande', 'Verdana', 'Geneva', 'Lucid', 'Arial', 'Helvetica', 'Avant Garde', sans-serif; text-anchor: start" x="74.448" y="38.229188" transform="rotate(-0 74.448 38.229188)">QD-OLED → WLED LCD</text>
  </g>
  <g id="text_17">
   <text style="fill: #66747c; font: 10px 'DejaVu Sans', 'Bitstream Vera Sans', 'Computer Modern Sans Serif', 'Lucida Grande', 'Verdana', 'Geneva', 'Lucid', 'Arial', 'Helvetica', 'Avant Garde', sans-serif; text-anchor: start" x="74.448" y="64.728" transform="rotate(-0 74.448 64.728)">LED-RGB1</text>
  </g>
  <g id="legend_1">
   <g id="line2d_33">
    <path d="M 185.17875 404.151391 
L 194.27875 404.151391 
L 203.37875 404.151391 
" style="fill: none; stroke: #252525; stroke-width: 2.5; stroke-linecap: square"/>
   </g>
   <g id="text_18">
    <text style="font: 9.1px 'DejaVu Sans', 'Bitstream Vera Sans', 'Computer Modern Sans Serif', 'Lucida Grande', 'Verdana', 'Geneva', 'Lucid', 'Arial', 'Helvetica', 'Avant Garde', sans-serif; text-anchor: start" x="210.65875" y="407.336391" transform="rotate(-0 210.65875 407.336391)">Potera CMF</text>
   </g>
   <g id="line2d_34">
    <path d="M 185.17875 417.508484 
L 194.27875 417.508484 
L 203.37875 417.508484 
" style="fill: none; stroke: #3b83b4; stroke-width: 1.35; stroke-linecap: square"/>
   </g>
   <g id="text_19">
    <text style="font: 9.1px 'DejaVu Sans', 'Bitstream Vera Sans', 'Computer Modern Sans Serif', 'Lucida Grande', 'Verdana', 'Geneva', 'Lucid', 'Arial', 'Helvetica', 'Avant Garde', sans-serif; text-anchor: start" x="210.65875" y="420.693484" transform="rotate(-0 210.65875 420.693484)">CIE 2015 2°</text>
   </g>
   <g id="line2d_35">
    <path d="M 282.931234 404.151391 
L 292.031234 404.151391 
L 301.131234 404.151391 
" style="fill: none; stroke-dasharray: 4.995,2.16; stroke-dashoffset: 0; stroke: #c38a19; stroke-width: 1.35"/>
   </g>
   <g id="text_20">
    <text style="font: 9.1px 'DejaVu Sans', 'Bitstream Vera Sans', 'Computer Modern Sans Serif', 'Lucida Grande', 'Verdana', 'Geneva', 'Lucid', 'Arial', 'Helvetica', 'Avant Garde', sans-serif; text-anchor: start" x="308.411234" y="407.336391" transform="rotate(-0 308.411234 407.336391)">CIE 2015 10°</text>
   </g>
   <g id="line2d_36">
    <path d="M 282.931234 417.508484 
L 292.031234 417.508484 
L 301.131234 417.508484 
" style="fill: none; stroke-dasharray: 1.35,2.2275; stroke-dashoffset: 0; stroke: #7d8a92; stroke-width: 1.35"/>
   </g>
   <g id="text_21">
    <text style="font: 9.1px 'DejaVu Sans', 'Bitstream Vera Sans', 'Computer Modern Sans Serif', 'Lucida Grande', 'Verdana', 'Geneva', 'Lucid', 'Arial', 'Helvetica', 'Avant Garde', sans-serif; text-anchor: start" x="308.411234" y="420.693484" transform="rotate(-0 308.411234 420.693484)">CIE 1964 10°</text>
   </g>
   <g id="line2d_37">
    <path d="M 386.473594 404.151391 
L 395.573594 404.151391 
L 404.673594 404.151391 
" style="fill: none; stroke-dasharray: 8.64,2.16,1.35,2.16; stroke-dashoffset: 0; stroke: #d0526a; stroke-width: 1.35"/>
   </g>
   <g id="text_22">
    <text style="font: 9.1px 'DejaVu Sans', 'Bitstream Vera Sans', 'Computer Modern Sans Serif', 'Lucida Grande', 'Verdana', 'Geneva', 'Lucid', 'Arial', 'Helvetica', 'Avant Garde', sans-serif; text-anchor: start" x="411.953594" y="407.336391" transform="rotate(-0 411.953594 407.336391)">CIE 1931 2°</text>
   </g>
   <g id="line2d_38">
    <path d="M 386.473594 417.508484 
L 395.573594 417.508484 
L 404.673594 417.508484 
" style="fill: none; stroke-dasharray: 6.75,2.7,1.35,2.7; stroke-dashoffset: 0; stroke: #2f8f84; stroke-width: 1.35"/>
   </g>
   <g id="text_23">
    <text style="font: 9.1px 'DejaVu Sans', 'Bitstream Vera Sans', 'Computer Modern Sans Serif', 'Lucida Grande', 'Verdana', 'Geneva', 'Lucid', 'Arial', 'Helvetica', 'Avant Garde', sans-serif; text-anchor: start" x="411.953594" y="420.693484" transform="rotate(-0 411.953594 420.693484)">Judd–Vos 1978 2°</text>
   </g>
  </g>
 </g>
 <defs>
  <clipPath id="paa5288d86c">
   <rect x="74.448" y="93.744" width="568.512" height="254.448"/>
  </clipPath>
 </defs>
</svg>
