<?xml version="1.0" encoding="utf-8" standalone="no"?>
<!DOCTYPE svg PUBLIC "-//W3C//DTD SVG 1.1//EN"
  "http://www.w3.org/Graphics/SVG/1.1/DTD/svg11.dtd">
<svg xmlns:xlink="http://www.w3.org/1999/xlink" width="676.8pt" height="446.4pt" viewBox="0 0 676.8 446.4" xmlns="http://www.w3.org/2000/svg" version="1.1">
 <metadata>
  <rdf:RDF xmlns:dc="http://purl.org/dc/elements/1.1/" xmlns:cc="http://creativecommons.org/ns#" xmlns:rdf="http://www.w3.org/1999/02/22-rdf-syntax-ns#">
   <cc:Work>
    <dc:type rdf:resource="http://purl.org/dc/dcmitype/StillImage"/>
    <dc:date>2026-07-20T06:42:01.953804</dc:date>
    <dc:format>image/svg+xml</dc:format>
    <dc:creator>
     <cc:Agent>
      <dc:title>Matplotlib v3.9.4, https://matplotlib.org/</dc:title>
     </cc:Agent>
    </dc:creator>
   </cc:Work>
  </rdf:RDF>
 </metadata>
 <defs>
  <style type="text/css">*{stroke-linejoin: round; stroke-linecap: butt}</style>
 </defs>
 <g id="figure_1">
  <g id="patch_1">
   <path d="M 0 446.4 
L 676.8 446.4 
L 676.8 0 
L 0 0 
z
" style="fill: #ffffff"/>
  </g>
  <g id="axes_1">
   <g id="patch_2">
    <path d="M 74.448 348.192 
L 642.96 348.192 
L 642.96 93.744 
L 74.448 93.744 
z
" style="fill: #ffffff"/>
   </g>
   <g id="patch_3">
    <path d="M 169.2 348.192 
L 358.704 348.192 
L 358.704 93.744 
L 169.2 93.744 
z
" clip-path="url(#pf5a72e3ae4)" style="fill: #e7f0ea; opacity: 0.58; stroke: #e7f0ea; stroke-linejoin: miter"/>
   </g>
   <g id="matplotlib.axis_1">
    <g id="xtick_1">
     <g id="line2d_1">
      <path d="M 74.448 348.192 
L 74.448 93.744 
" clip-path="url(#pf5a72e3ae4)" style="fill: none; stroke: #dfe5e8; stroke-width: 0.65; stroke-linecap: square"/>
     </g>
     <g id="line2d_2">
      <defs>
       <path id="mf07091a461" d="M 0 0 
L 0 3.5 
" style="stroke: #000000; stroke-width: 0.8"/>
      </defs>
      <g>
       <use xlink:href="#mf07091a461" x="74.448" y="348.192" style="stroke: #000000; stroke-width: 0.8"/>
      </g>
     </g>
     <g id="text_1">
      <text style="font: 10px 'DejaVu Sans', 'Bitstream Vera Sans', 'Computer Modern Sans Serif', 'Lucida Grande', 'Verdana', 'Geneva', 'Lucid', 'Arial', 'Helvetica', 'Avant Garde', sans-serif; text-anchor: middle" x="74.448" y="362.790438" transform="rotate(-0 74.448 362.790438)">0</text>
     </g>
    </g>
    <g id="xtick_2">
     <g id="line2d_3">
      <path d="M 169.2 348.192 
L 169.2 93.744 
" clip-path="url(#pf5a72e3ae4)" style="fill: none; stroke: #dfe5e8; stroke-width: 0.65; stroke-linecap: square"/>
     </g>
     <g id="line2d_4">
      <g>
       <use xlink:href="#mf07091a461" x="169.2" y="348.192" style="stroke: #000000; stroke-width: 0.8"/>
      </g>
     </g>
     <g id="text_2">
      <text style="font: 10px 'DejaVu Sans', 'Bitstream Vera Sans', 'Computer Modern Sans Serif', 'Lucida Grande', 'Verdana', 'Geneva', 'Lucid', 'Arial', 'Helvetica', 'Avant Garde', sans-serif; text-anchor: middle" x="169.2" y="362.790438" transform="rotate(-0 169.2 362.790438)">1</text>
     </g>
    </g>
    <g id="xtick_3">
     <g id="line2d_5">
      <path d="M 263.952 348.192 
L 263.952 93.744 
" clip-path="url(#pf5a72e3ae4)" style="fill: none; stroke: #dfe5e8; stroke-width: 0.65; stroke-linecap: square"/>
     </g>
     <g id="line2d_6">
      <g>
       <use xlink:href="#mf07091a461" x="263.952" y="348.192" style="stroke: #000000; stroke-width: 0.8"/>
      </g>
     </g>
     <g id="text_3">
      <text style="font: 10px 'DejaVu Sans', 'Bitstream Vera Sans', 'Computer Modern Sans Serif', 'Lucida Grande', 'Verdana', 'Geneva', 'Lucid', 'Arial', 'Helvetica', 'Avant Garde', sans-serif; text-anchor: middle" x="263.952" y="362.790438" transform="rotate(-0 263.952 362.790438)">2</text>
     </g>
    </g>
    <g id="xtick_4">
     <g id="line2d_7">
      <path d="M 358.704 348.192 
L 358.704 93.744 
" clip-path="url(#pf5a72e3ae4)" style="fill: none; stroke: #dfe5e8; stroke-width: 0.65; stroke-linecap: square"/>
     </g>
     <g id="line2d_8">
      <g>
       <use xlink:href="#mf07091a461" x="358.704" y="348.192" style="stroke: #000000; stroke-width: 0.8"/>
      </g>
     </g>
     <g id="text_4">
      <text style="font: 10px 'DejaVu Sans', 'Bitstream Vera Sans', 'Computer Modern Sans Serif', 'Lucida Grande', 'Verdana', 'Geneva', 'Lucid', 'Arial', 'Helvetica', 'Avant Garde', sans-serif; text-anchor: middle" x="358.704" y="362.790438" transform="rotate(-0 358.704 362.790438)">3</text>
     </g>
    </g>
    <g id="xtick_5">
     <g id="line2d_9">
      <path d="M 453.456 348.192 
L 453.456 93.744 
" clip-path="url(#pf5a72e3ae4)" style="fill: none; stroke: #dfe5e8; stroke-width: 0.65; stroke-linecap: square"/>
     </g>
     <g id="line2d_10">
      <g>
       <use xlink:href="#mf07091a461" x="453.456" y="348.192" style="stroke: #000000; stroke-width: 0.8"/>
      </g>
     </g>
     <g id="text_5">
      <text style="font: 10px 'DejaVu Sans', 'Bitstream Vera Sans', 'Computer Modern Sans Serif', 'Lucida Grande', 'Verdana', 'Geneva', 'Lucid', 'Arial', 'Helvetica', 'Avant Garde', sans-serif; text-anchor: middle" x="453.456" y="362.790438" transform="rotate(-0 453.456 362.790438)">4</text>
     </g>
    </g>
    <g id="xtick_6">
     <g id="line2d_11">
      <path d="M 548.208 348.192 
L 548.208 93.744 
" clip-path="url(#pf5a72e3ae4)" style="fill: none; stroke: #dfe5e8; stroke-width: 0.65; stroke-linecap: square"/>
     </g>
     <g id="line2d_12">
      <g>
       <use xlink:href="#mf07091a461" x="548.208" y="348.192" style="stroke: #000000; stroke-width: 0.8"/>
      </g>
     </g>
     <g id="text_6">
      <text style="font: 10px 'DejaVu Sans', 'Bitstream Vera Sans', 'Computer Modern Sans Serif', 'Lucida Grande', 'Verdana', 'Geneva', 'Lucid', 'Arial', 'Helvetica', 'Avant Garde', sans-serif; text-anchor: middle" x="548.208" y="362.790438" transform="rotate(-0 548.208 362.790438)">5</text>
     </g>
    </g>
    <g id="xtick_7">
     <g id="line2d_13">
      <path d="M 642.96 348.192 
L 642.96 93.744 
" clip-path="url(#pf5a72e3ae4)" style="fill: none; stroke: #dfe5e8; stroke-width: 0.65; stroke-linecap: square"/>
     </g>
     <g id="line2d_14">
      <g>
       <use xlink:href="#mf07091a461" x="642.96" y="348.192" style="stroke: #000000; stroke-width: 0.8"/>
      </g>
     </g>
     <g id="text_7">
      <text style="font: 10px 'DejaVu Sans', 'Bitstream Vera Sans', 'Computer Modern Sans Serif', 'Lucida Grande', 'Verdana', 'Geneva', 'Lucid', 'Arial', 'Helvetica', 'Avant Garde', sans-serif; text-anchor: middle" x="642.96" y="362.790438" transform="rotate(-0 642.96 362.790438)">6</text>
     </g>
    </g>
    <g id="text_8">
     <text style="font: 10px 'DejaVu Sans', 'Bitstream Vera Sans', 'Computer Modern Sans Serif', 'Lucida Grande', 'Verdana', 'Geneva', 'Lucid', 'Arial', 'Helvetica', 'Avant Garde', sans-serif; text-anchor: middle" x="358.704" y="376.468563" transform="rotate(-0 358.704 376.468563)">sUCS dE threshold</text>
    </g>
   </g>
   <g id="matplotlib.axis_2">
    <g id="ytick_1">
     <g id="line2d_15">
      <path d="M 74.448 348.192 
L 642.96 348.192 
" clip-path="url(#pf5a72e3ae4)" style="fill: none; stroke: #dfe5e8; stroke-width: 0.65; stroke-linecap: square"/>
     </g>
     <g id="line2d_16">
      <defs>
       <path id="m21e7d83d19" d="M 0 0 
L -3.5 0 
" style="stroke: #000000; stroke-width: 0.8"/>
      </defs>
      <g>
       <use xlink:href="#m21e7d83d19" x="74.448" y="348.192" style="stroke: #000000; stroke-width: 0.8"/>
      </g>
     </g>
     <g id="text_9">
      <text style="font: 10px 'DejaVu Sans', 'Bitstream Vera Sans', 'Computer Modern Sans Serif', 'Lucida Grande', 'Verdana', 'Geneva', 'Lucid', 'Arial', 'Helvetica', 'Avant Garde', sans-serif; text-anchor: end" x="67.448" y="351.991219" transform="rotate(-0 67.448 351.991219)">0</text>
     </g>
    </g>
    <g id="ytick_2">
     <g id="line2d_17">
      <path d="M 74.448 297.3024 
L 642.96 297.3024 
" clip-path="url(#pf5a72e3ae4)" style="fill: none; stroke: #dfe5e8; stroke-width: 0.65; stroke-linecap: square"/>
     </g>
     <g id="line2d_18">
      <g>
       <use xlink:href="#m21e7d83d19" x="74.448" y="297.3024" style="stroke: #000000; stroke-width: 0.8"/>
      </g>
     </g>
     <g id="text_10">
      <text style="font: 10px 'DejaVu Sans', 'Bitstream Vera Sans', 'Computer Modern Sans Serif', 'Lucida Grande', 'Verdana', 'Geneva', 'Lucid', 'Arial', 'Helvetica', 'Avant Garde', sans-serif; text-anchor: end" x="67.448" y="301.101619" transform="rotate(-0 67.448 301.101619)">20</text>
     </g>
    </g>
    <g id="ytick_3">
     <g id="line2d_19">
      <path d="M 74.448 246.4128 
L 642.96 246.4128 
" clip-path="url(#pf5a72e3ae4)" style="fill: none; stroke: #dfe5e8; stroke-width: 0.65; stroke-linecap: square"/>
     </g>
     <g id="line2d_20">
      <g>
       <use xlink:href="#m21e7d83d19" x="74.448" y="246.4128" style="stroke: #000000; stroke-width: 0.8"/>
      </g>
     </g>
     <g id="text_11">
      <text style="font: 10px 'DejaVu Sans', 'Bitstream Vera Sans', 'Computer Modern Sans Serif', 'Lucida Grande', 'Verdana', 'Geneva', 'Lucid', 'Arial', 'Helvetica', 'Avant Garde', sans-serif; text-anchor: end" x="67.448" y="250.212019" transform="rotate(-0 67.448 250.212019)">40</text>
     </g>
    </g>
    <g id="ytick_4">
     <g id="line2d_21">
      <path d="M 74.448 195.5232 
L 642.96 195.5232 
" clip-path="url(#pf5a72e3ae4)" style="fill: none; stroke: #dfe5e8; stroke-width: 0.65; stroke-linecap: square"/>
     </g>
     <g id="line2d_22">
      <g>
       <use xlink:href="#m21e7d83d19" x="74.448" y="195.5232" style="stroke: #000000; stroke-width: 0.8"/>
      </g>
     </g>
     <g id="text_12">
      <text style="font: 10px 'DejaVu Sans', 'Bitstream Vera Sans', 'Computer Modern Sans Serif', 'Lucida Grande', 'Verdana', 'Geneva', 'Lucid', 'Arial', 'Helvetica', 'Avant Garde', sans-serif; text-anchor: end" x="67.448" y="199.322419" transform="rotate(-0 67.448 199.322419)">60</text>
     </g>
    </g>
    <g id="ytick_5">
     <g id="line2d_23">
      <path d="M 74.448 144.6336 
L 642.96 144.6336 
" clip-path="url(#pf5a72e3ae4)" style="fill: none; stroke: #dfe5e8; stroke-width: 0.65; stroke-linecap: square"/>
     </g>
     <g id="line2d_24">
      <g>
       <use xlink:href="#m21e7d83d19" x="74.448" y="144.6336" style="stroke: #000000; stroke-width: 0.8"/>
      </g>
     </g>
     <g id="text_13">
      <text style="font: 10px 'DejaVu Sans', 'Bitstream Vera Sans', 'Computer Modern Sans Serif', 'Lucida Grande', 'Verdana', 'Geneva', 'Lucid', 'Arial', 'Helvetica', 'Avant Garde', sans-serif; text-anchor: end" x="67.448" y="148.432819" transform="rotate(-0 67.448 148.432819)">80</text>
     </g>
    </g>
    <g id="ytick_6">
     <g id="line2d_25">
      <path d="M 74.448 93.744 
L 642.96 93.744 
" clip-path="url(#pf5a72e3ae4)" style="fill: none; stroke: #dfe5e8; stroke-width: 0.65; stroke-linecap: square"/>
     </g>
     <g id="line2d_26">
      <g>
       <use xlink:href="#m21e7d83d19" x="74.448" y="93.744" style="stroke: #000000; stroke-width: 0.8"/>
      </g>
     </g>
     <g id="text_14">
      <text style="font: 10px 'DejaVu Sans', 'Bitstream Vera Sans', 'Computer Modern Sans Serif', 'Lucida Grande', 'Verdana', 'Geneva', 'Lucid', 'Arial', 'Helvetica', 'Avant Garde', sans-serif; text-anchor: end" x="67.448" y="97.543219" transform="rotate(-0 67.448 97.543219)">100</text>
     </g>
    </g>
    <g id="text_15">
     <text style="font: 10px 'DejaVu Sans', 'Bitstream Vera Sans', 'Computer Modern Sans Serif', 'Lucida Grande', 'Verdana', 'Geneva', 'Lucid', 'Arial', 'Helvetica', 'Avant Garde', sans-serif; text-anchor: middle" x="42.280812" y="220.968" transform="rotate(-90 42.280812 220.968)">observers%</text>
    </g>
   </g>
   <g id="line2d_27">
    <path d="M 74.448 348.192 
L 93.3984 348.192 
L 95.29344 346.560923 
L 102.8736 346.560923 
L 104.76864 344.929846 
L 106.66368 344.929846 
L 108.55872 343.298769 
L 114.24384 343.298769 
L 116.13888 341.667692 
L 121.824 341.667692 
L 125.61408 338.405538 
L 127.50912 335.143385 
L 136.98432 335.143385 
L 138.87936 331.881231 
L 146.45952 331.881231 
L 148.35456 326.988 
L 150.2496 326.988 
L 152.14464 324.794483 
L 154.03968 324.794483 
L 155.93472 323.163406 
L 157.82976 323.163406 
L 159.7248 321.532329 
L 165.40992 310.058546 
L 167.30496 308.427469 
L 172.99008 308.427469 
L 174.88512 306.233952 
L 176.78016 299.147204 
L 178.6752 299.147204 
L 180.57024 297.516127 
L 184.36032 297.516127 
L 186.25536 295.88505 
L 188.1504 295.88505 
L 190.04544 292.060456 
L 199.52064 292.060456 
L 203.31072 288.798302 
L 205.20576 283.905072 
L 207.1008 277.88696 
L 208.99584 275.693443 
L 214.68096 275.693443 
L 216.576 274.062366 
L 218.47104 268.606695 
L 220.36608 266.975618 
L 224.15616 266.975618 
L 226.0512 263.151024 
L 227.94624 259.88887 
L 229.84128 257.695353 
L 233.63136 257.695353 
L 235.5264 255.501836 
L 237.42144 251.677241 
L 239.31648 251.677241 
L 241.21152 250.046164 
L 243.10656 247.852647 
L 245.0016 247.852647 
L 248.79168 244.590493 
L 250.68672 240.765899 
L 256.37184 240.765899 
L 258.26688 239.134822 
L 262.05696 232.610515 
L 265.84704 232.610515 
L 267.74208 228.78592 
L 271.53216 228.78592 
L 273.4272 227.154844 
L 275.32224 223.330249 
L 277.21728 221.699172 
L 279.11232 216.243501 
L 281.00736 214.049984 
L 282.9024 214.049984 
L 284.79744 210.22539 
L 286.69248 208.594313 
L 288.58752 204.207279 
L 290.48256 202.576202 
L 292.3776 202.576202 
L 294.27264 200.945125 
L 298.06272 200.945125 
L 299.95776 197.120531 
L 303.74784 197.120531 
L 305.64288 195.489454 
L 313.22304 195.489454 
L 317.01312 192.2273 
L 318.90816 192.2273 
L 320.8032 188.402706 
L 322.69824 186.771629 
L 324.59328 186.771629 
L 326.48832 185.140552 
L 330.2784 185.140552 
L 332.17344 182.947034 
L 337.85856 182.947034 
L 339.7536 181.315958 
L 343.54368 176.928923 
L 345.43872 176.928923 
L 347.33376 174.735406 
L 351.12384 174.735406 
L 353.01888 170.910812 
L 354.91392 168.717294 
L 366.28416 168.717294 
L 368.1792 166.523777 
L 371.96928 166.523777 
L 373.86432 162.699183 
L 377.6544 162.699183 
L 379.54944 160.505666 
L 381.44448 158.874589 
L 387.1296 158.874589 
L 389.02464 156.681072 
L 390.91968 149.594324 
L 396.6048 149.594324 
L 398.49984 147.963247 
L 400.39488 147.963247 
L 402.28992 145.769729 
L 404.18496 145.769729 
L 407.97504 141.382695 
L 417.45024 141.382695 
L 419.34528 139.189178 
L 430.71552 139.189178 
L 434.5056 134.802143 
L 440.19072 134.802143 
L 442.08576 132.608626 
L 445.87584 132.608626 
L 447.77088 130.415109 
L 453.456 130.415109 
L 457.24608 126.028074 
L 462.9312 126.028074 
L 464.82624 123.834557 
L 470.51136 123.834557 
L 472.4064 121.64104 
L 491.3568 121.64104 
L 493.25184 119.447523 
L 500.832 119.447523 
L 502.72704 117.254005 
L 508.41216 117.254005 
L 510.3072 115.060488 
L 534.94272 115.060488 
L 538.7328 111.798334 
L 555.78816 111.798334 
L 557.6832 110.167257 
L 559.57824 107.97374 
L 563.36832 107.97374 
L 565.26336 105.780223 
L 567.1584 104.149146 
L 570.94848 104.149146 
L 572.84352 101.955629 
L 578.52864 101.955629 
L 580.42368 99.762111 
L 612.63936 99.762111 
L 614.5344 98.131034 
L 642.96 98.131034 
L 642.96 98.131034 
" clip-path="url(#pf5a72e3ae4)" style="fill: none; stroke: #252525; stroke-width: 2.5; stroke-linecap: square"/>
   </g>
   <g id="line2d_28">
    <path d="M 74.448 348.192 
L 93.3984 348.192 
L 95.29344 345.998483 
L 110.45376 345.998483 
L 112.3488 343.804966 
L 116.13888 343.804966 
L 118.03392 341.611448 
L 121.824 341.611448 
L 123.71904 339.417931 
L 133.19424 339.417931 
L 135.08928 337.224414 
L 140.7744 337.224414 
L 142.66944 332.837379 
L 146.45952 332.837379 
L 148.35456 330.643862 
L 152.14464 330.643862 
L 154.03968 329.012785 
L 155.93472 329.012785 
L 157.82976 327.381708 
L 174.88512 327.381708 
L 176.78016 325.188191 
L 184.36032 325.188191 
L 186.25536 319.17008 
L 190.04544 315.907926 
L 195.73056 315.907926 
L 197.6256 314.276849 
L 218.47104 314.276849 
L 220.36608 312.083332 
L 222.26112 310.452255 
L 224.15616 306.62766 
L 226.0512 301.171989 
L 227.94624 298.978472 
L 229.84128 291.891724 
L 231.73632 289.698207 
L 235.5264 286.436053 
L 237.42144 284.242536 
L 243.10656 284.242536 
L 245.0016 282.049019 
L 246.89664 282.049019 
L 248.79168 280.417942 
L 250.68672 277.155788 
L 254.4768 272.768753 
L 256.37184 267.313082 
L 258.26688 259.663894 
L 260.16192 257.470377 
L 263.952 257.470377 
L 267.74208 253.083342 
L 269.63712 249.258748 
L 271.53216 247.627671 
L 275.32224 247.627671 
L 277.21728 245.996594 
L 279.11232 245.996594 
L 281.00736 242.172 
L 282.9024 238.909846 
L 286.69248 235.647692 
L 288.58752 232.385538 
L 290.48256 230.192021 
L 292.3776 228.560944 
L 294.27264 228.560944 
L 296.16768 224.17391 
L 299.95776 220.911756 
L 301.8528 220.911756 
L 303.74784 219.280679 
L 305.64288 217.087162 
L 307.53792 217.087162 
L 311.328 213.825008 
L 313.22304 213.825008 
L 317.01312 209.437973 
L 318.90816 205.613379 
L 322.69824 201.226345 
L 324.59328 201.226345 
L 326.48832 199.032828 
L 328.38336 199.032828 
L 330.2784 195.770674 
L 332.17344 194.139597 
L 334.06848 194.139597 
L 335.96352 192.50852 
L 339.7536 192.50852 
L 341.64864 189.246366 
L 343.54368 187.615289 
L 347.33376 179.966101 
L 349.2288 176.703947 
L 351.12384 175.07287 
L 353.01888 175.07287 
L 354.91392 169.617199 
L 356.80896 167.986122 
L 358.704 167.986122 
L 360.59904 164.161528 
L 362.49408 164.161528 
L 364.38912 162.530451 
L 366.28416 162.530451 
L 368.1792 160.899374 
L 370.07424 157.63722 
L 371.96928 155.443703 
L 373.86432 152.181549 
L 379.54944 152.181549 
L 381.44448 150.550472 
L 385.23456 150.550472 
L 387.1296 148.919395 
L 389.02464 148.919395 
L 390.91968 145.094801 
L 396.6048 145.094801 
L 398.49984 140.707767 
L 404.18496 140.707767 
L 406.08 138.514249 
L 407.97504 138.514249 
L 409.87008 134.689655 
L 411.76512 134.689655 
L 413.66016 131.427501 
L 417.45024 131.427501 
L 419.34528 128.165347 
L 423.13536 128.165347 
L 425.0304 125.97183 
L 426.92544 124.340753 
L 430.71552 124.340753 
L 432.61056 122.709676 
L 445.87584 122.709676 
L 447.77088 121.078599 
L 449.66592 121.078599 
L 451.56096 119.447523 
L 479.98656 119.447523 
L 483.77664 115.060488 
L 485.67168 115.060488 
L 487.56672 112.866971 
L 504.62208 112.866971 
L 506.51712 110.673454 
L 534.94272 110.673454 
L 536.83776 109.042377 
L 546.31296 109.042377 
L 548.208 106.848859 
L 550.10304 106.848859 
L 551.99808 105.217782 
L 578.52864 105.217782 
L 580.42368 103.586706 
L 582.31872 103.586706 
L 584.21376 101.393188 
L 593.68896 101.393188 
L 595.584 99.762111 
L 601.26912 99.762111 
L 603.16416 98.131034 
L 642.96 98.131034 
L 642.96 98.131034 
" clip-path="url(#pf5a72e3ae4)" style="fill: none; stroke: #3b83b4; stroke-width: 1.35; stroke-linecap: square"/>
   </g>
   <g id="line2d_29">
    <path d="M 74.448 348.192 
L 93.3984 348.192 
L 95.29344 346.560923 
L 100.97856 346.560923 
L 104.76864 343.298769 
L 114.24384 343.298769 
L 116.13888 341.667692 
L 121.824 341.667692 
L 123.71904 337.843098 
L 125.61408 337.843098 
L 127.50912 335.649581 
L 129.40416 335.649581 
L 131.2992 334.018504 
L 133.19424 329.125273 
L 135.08928 329.125273 
L 136.98432 325.863119 
L 138.87936 324.232042 
L 140.7744 324.232042 
L 142.66944 320.969889 
L 144.56448 319.338812 
L 148.35456 319.338812 
L 150.2496 316.076658 
L 157.82976 316.076658 
L 159.7248 314.445581 
L 161.61984 311.183427 
L 174.88512 311.183427 
L 178.6752 304.659119 
L 186.25536 304.659119 
L 191.94048 299.765889 
L 193.83552 297.572371 
L 195.73056 295.941294 
L 197.6256 293.747777 
L 199.52064 293.747777 
L 201.41568 289.923183 
L 203.31072 287.729666 
L 205.20576 286.098589 
L 208.99584 286.098589 
L 210.89088 284.467512 
L 214.68096 284.467512 
L 218.47104 276.818324 
L 220.36608 276.818324 
L 222.26112 272.993729 
L 224.15616 268.606695 
L 226.0512 268.606695 
L 229.84128 260.957507 
L 231.73632 260.957507 
L 233.63136 256.064276 
L 235.5264 256.064276 
L 239.31648 252.802122 
L 241.21152 252.802122 
L 243.10656 249.539968 
L 245.0016 249.539968 
L 246.89664 247.346451 
L 248.79168 247.346451 
L 250.68672 245.152934 
L 252.58176 245.152934 
L 254.4768 243.521857 
L 256.37184 238.066186 
L 258.26688 238.066186 
L 260.16192 235.872668 
L 262.05696 235.872668 
L 263.952 234.241592 
L 265.84704 234.241592 
L 267.74208 230.979438 
L 277.21728 230.979438 
L 279.11232 229.348361 
L 282.9024 222.824053 
L 284.79744 220.630536 
L 286.69248 220.630536 
L 288.58752 218.437019 
L 292.3776 215.174865 
L 296.16768 215.174865 
L 298.06272 213.543788 
L 299.95776 213.543788 
L 301.8528 209.719194 
L 309.43296 209.719194 
L 313.22304 206.45704 
L 315.11808 206.45704 
L 318.90816 202.070005 
L 320.8032 202.070005 
L 322.69824 198.245411 
L 324.59328 193.858377 
L 330.2784 193.858377 
L 332.17344 186.209188 
L 334.06848 186.209188 
L 335.96352 180.191077 
L 337.85856 178.56 
L 345.43872 178.56 
L 347.33376 176.928923 
L 349.2288 176.928923 
L 351.12384 175.297846 
L 354.91392 175.297846 
L 356.80896 173.666769 
L 358.704 169.842175 
L 383.33952 169.842175 
L 385.23456 166.017581 
L 387.1296 161.630546 
L 389.02464 159.437029 
L 392.81472 159.437029 
L 394.70976 157.243512 
L 406.08 157.243512 
L 407.97504 155.049995 
L 409.87008 155.049995 
L 411.76512 150.66296 
L 415.5552 150.66296 
L 417.45024 149.031883 
L 419.34528 146.838366 
L 423.13536 146.838366 
L 425.0304 144.644849 
L 426.92544 138.064297 
L 432.61056 138.064297 
L 434.5056 135.87078 
L 436.40064 134.239703 
L 440.19072 134.239703 
L 442.08576 132.608626 
L 449.66592 132.608626 
L 451.56096 130.415109 
L 459.14112 130.415109 
L 462.9312 126.028074 
L 472.4064 126.028074 
L 474.30144 123.834557 
L 483.77664 123.834557 
L 485.67168 121.64104 
L 491.3568 121.64104 
L 493.25184 117.816446 
L 495.14688 115.622928 
L 512.20224 115.622928 
L 514.09728 113.991851 
L 515.99232 113.991851 
L 517.88736 111.798334 
L 521.67744 111.798334 
L 523.57248 110.167257 
L 534.94272 110.167257 
L 536.83776 107.97374 
L 538.7328 107.97374 
L 540.62784 105.780223 
L 546.31296 105.780223 
L 548.208 103.586706 
L 569.05344 103.586706 
L 570.94848 101.955629 
L 580.42368 101.955629 
L 582.31872 100.324552 
L 608.84928 100.324552 
L 610.74432 98.131034 
L 642.96 98.131034 
L 642.96 98.131034 
" clip-path="url(#pf5a72e3ae4)" style="fill: none; stroke-dasharray: 4.995,2.16; stroke-dashoffset: 0; stroke: #c38a19; stroke-width: 1.35"/>
   </g>
   <g id="line2d_30">
    <path d="M 74.448 348.192 
L 100.97856 348.192 
L 102.8736 346.560923 
L 106.66368 346.560923 
L 108.55872 344.929846 
L 119.92896 344.929846 
L 121.824 338.405538 
L 123.71904 338.405538 
L 125.61408 336.774462 
L 127.50912 334.580944 
L 138.87936 334.580944 
L 140.7744 332.387427 
L 142.66944 330.75635 
L 150.2496 330.75635 
L 154.03968 327.494196 
L 157.82976 320.969889 
L 159.7248 320.969889 
L 161.61984 319.338812 
L 163.51488 319.338812 
L 165.40992 316.076658 
L 167.30496 314.445581 
L 169.2 308.427469 
L 171.09504 306.796393 
L 176.78016 306.796393 
L 178.6752 302.971798 
L 180.57024 302.971798 
L 182.46528 301.340721 
L 184.36032 301.340721 
L 186.25536 296.953687 
L 188.1504 296.953687 
L 190.04544 294.76017 
L 191.94048 290.373135 
L 193.83552 287.110981 
L 195.73056 285.479905 
L 201.41568 285.479905 
L 205.20576 282.217751 
L 207.1008 282.217751 
L 208.99584 278.955597 
L 210.89088 275.131003 
L 212.78592 272.937485 
L 214.68096 272.937485 
L 216.576 269.675332 
L 218.47104 269.675332 
L 220.36608 267.481814 
L 224.15616 267.481814 
L 226.0512 265.850737 
L 227.94624 261.463703 
L 229.84128 261.463703 
L 231.73632 258.201549 
L 233.63136 256.570472 
L 241.21152 256.570472 
L 243.10656 254.939395 
L 245.0016 251.677241 
L 248.79168 251.677241 
L 250.68672 247.852647 
L 256.37184 247.852647 
L 258.26688 244.028053 
L 260.16192 240.765899 
L 262.05696 240.765899 
L 263.952 238.572382 
L 265.84704 231.485634 
L 269.63712 231.485634 
L 271.53216 229.854557 
L 273.4272 229.854557 
L 277.21728 226.592403 
L 279.11232 224.398886 
L 281.00736 224.398886 
L 282.9024 222.767809 
L 284.79744 222.767809 
L 286.69248 221.136732 
L 288.58752 214.049984 
L 290.48256 212.418907 
L 296.16768 212.418907 
L 298.06272 210.78783 
L 301.8528 206.400796 
L 303.74784 206.400796 
L 305.64288 204.769719 
L 309.43296 204.769719 
L 311.328 200.945125 
L 313.22304 200.945125 
L 315.11808 198.751607 
L 318.90816 198.751607 
L 320.8032 196.55809 
L 322.69824 192.733496 
L 330.2784 192.733496 
L 332.17344 188.908902 
L 334.06848 185.646748 
L 335.96352 184.015671 
L 337.85856 184.015671 
L 339.7536 182.384594 
L 343.54368 174.735406 
L 347.33376 174.735406 
L 349.2288 170.910812 
L 364.38912 170.910812 
L 366.28416 169.279735 
L 371.96928 162.699183 
L 373.86432 162.699183 
L 375.75936 160.505666 
L 377.6544 158.874589 
L 381.44448 158.874589 
L 383.33952 154.487554 
L 385.23456 152.294037 
L 387.1296 150.66296 
L 389.02464 148.469443 
L 390.91968 148.469443 
L 392.81472 144.082408 
L 394.70976 144.082408 
L 396.6048 141.888891 
L 404.18496 141.888891 
L 406.08 139.695374 
L 409.87008 139.695374 
L 413.66016 135.30834 
L 425.0304 135.30834 
L 426.92544 133.677263 
L 428.82048 133.677263 
L 430.71552 131.483745 
L 440.19072 131.483745 
L 442.08576 129.290228 
L 443.9808 127.659151 
L 447.77088 127.659151 
L 449.66592 125.465634 
L 451.56096 123.834557 
L 455.35104 123.834557 
L 457.24608 121.64104 
L 483.77664 121.64104 
L 485.67168 120.009963 
L 495.14688 120.009963 
L 497.04192 117.816446 
L 502.72704 117.816446 
L 504.62208 115.622928 
L 510.3072 115.622928 
L 512.20224 112.360775 
L 514.09728 107.97374 
L 515.99232 107.97374 
L 517.88736 103.586706 
L 557.6832 103.586706 
L 559.57824 101.955629 
L 593.68896 101.955629 
L 595.584 100.324552 
L 610.74432 100.324552 
L 612.63936 98.131034 
L 642.96 98.131034 
L 642.96 98.131034 
" clip-path="url(#pf5a72e3ae4)" style="fill: none; stroke-dasharray: 1.35,2.2275; stroke-dashoffset: 0; stroke: #7d8a92; stroke-width: 1.35"/>
   </g>
   <g id="line2d_31">
    <path d="M 74.448 348.192 
L 108.55872 348.192 
L 110.45376 345.998483 
L 144.56448 345.998483 
L 146.45952 343.804966 
L 155.93472 343.804966 
L 157.82976 341.611448 
L 165.40992 341.611448 
L 167.30496 339.417931 
L 171.09504 339.417931 
L 172.99008 337.786854 
L 178.6752 337.786854 
L 180.57024 336.155777 
L 188.1504 327.381708 
L 195.73056 327.381708 
L 199.52064 322.994674 
L 205.20576 322.994674 
L 207.1008 320.801156 
L 208.99584 320.801156 
L 210.89088 316.414122 
L 212.78592 314.220605 
L 222.26112 314.220605 
L 224.15616 309.83357 
L 226.0512 309.83357 
L 227.94624 305.446536 
L 248.79168 305.446536 
L 250.68672 303.253019 
L 254.4768 303.253019 
L 256.37184 299.428424 
L 260.16192 299.428424 
L 262.05696 295.60383 
L 265.84704 295.60383 
L 267.74208 293.410313 
L 269.63712 293.410313 
L 271.53216 291.779236 
L 273.4272 291.779236 
L 275.32224 289.585719 
L 279.11232 289.585719 
L 281.00736 287.954642 
L 282.9024 284.130048 
L 284.79744 284.130048 
L 286.69248 282.498971 
L 299.95776 282.498971 
L 301.8528 280.867894 
L 307.53792 280.867894 
L 311.328 277.60574 
L 313.22304 277.60574 
L 315.11808 273.218706 
L 317.01312 269.394111 
L 318.90816 263.93844 
L 320.8032 260.113846 
L 324.59328 260.113846 
L 328.38336 252.464658 
L 330.2784 244.815469 
L 332.17344 244.815469 
L 334.06848 243.184393 
L 335.96352 240.990875 
L 337.85856 235.535204 
L 339.7536 231.71061 
L 341.64864 230.079533 
L 343.54368 227.886016 
L 345.43872 227.886016 
L 347.33376 225.692499 
L 349.2288 225.692499 
L 351.12384 223.498981 
L 353.01888 221.867905 
L 354.91392 219.674387 
L 356.80896 219.674387 
L 358.704 216.412233 
L 360.59904 216.412233 
L 362.49408 214.218716 
L 366.28416 210.956562 
L 368.1792 207.131968 
L 371.96928 207.131968 
L 373.86432 203.869814 
L 375.75936 203.869814 
L 377.6544 200.60766 
L 379.54944 196.783066 
L 381.44448 191.889836 
L 383.33952 190.258759 
L 385.23456 190.258759 
L 389.02464 186.996605 
L 396.6048 186.996605 
L 402.28992 182.103374 
L 407.97504 182.103374 
L 409.87008 176.085263 
L 411.76512 176.085263 
L 413.66016 174.454186 
L 423.13536 174.454186 
L 425.0304 172.260668 
L 426.92544 170.629592 
L 428.82048 166.804997 
L 432.61056 163.542844 
L 434.5056 163.542844 
L 438.29568 160.28069 
L 440.19072 160.28069 
L 442.08576 156.456095 
L 443.9808 156.456095 
L 445.87584 154.825019 
L 447.77088 151.000424 
L 451.56096 147.738271 
L 453.456 147.738271 
L 457.24608 144.476117 
L 459.14112 144.476117 
L 461.03616 142.84504 
L 462.9312 140.651523 
L 464.82624 140.651523 
L 466.72128 136.826928 
L 468.61632 133.564775 
L 472.4064 130.302621 
L 478.09152 130.302621 
L 479.98656 128.109103 
L 483.77664 128.109103 
L 485.67168 124.84695 
L 504.62208 124.84695 
L 506.51712 123.215873 
L 508.41216 123.215873 
L 510.3072 121.584796 
L 512.20224 121.584796 
L 514.09728 119.953719 
L 517.88736 119.953719 
L 519.7824 118.322642 
L 523.57248 118.322642 
L 527.36256 115.060488 
L 538.7328 115.060488 
L 540.62784 113.429411 
L 542.52288 113.429411 
L 544.41792 109.604817 
L 548.208 109.604817 
L 550.10304 107.4113 
L 584.21376 107.4113 
L 586.1088 105.780223 
L 593.68896 105.780223 
L 595.584 104.149146 
L 635.37984 104.149146 
L 639.16992 99.762111 
L 642.96 99.762111 
L 642.96 99.762111 
" clip-path="url(#pf5a72e3ae4)" style="fill: none; stroke-dasharray: 8.64,2.16,1.35,2.16; stroke-dashoffset: 0; stroke: #d0526a; stroke-width: 1.35"/>
   </g>
   <g id="line2d_32">
    <path d="M 74.448 348.192 
L 148.35456 348.192 
L 150.2496 345.998483 
L 159.7248 345.998483 
L 161.61984 343.804966 
L 167.30496 343.804966 
L 169.2 341.611448 
L 199.52064 341.611448 
L 201.41568 337.224414 
L 203.31072 337.224414 
L 205.20576 335.030897 
L 208.99584 335.030897 
L 210.89088 332.837379 
L 216.576 332.837379 
L 220.36608 328.450345 
L 237.42144 328.450345 
L 239.31648 326.256828 
L 241.21152 324.625751 
L 243.10656 320.238716 
L 245.0016 320.238716 
L 246.89664 318.045199 
L 256.37184 318.045199 
L 258.26688 316.414122 
L 271.53216 316.414122 
L 275.32224 312.027088 
L 277.21728 312.027088 
L 279.11232 309.83357 
L 281.00736 309.83357 
L 282.9024 307.640053 
L 284.79744 307.640053 
L 288.58752 303.253019 
L 298.06272 303.253019 
L 299.95776 301.059501 
L 309.43296 301.059501 
L 311.328 298.865984 
L 318.90816 298.865984 
L 320.8032 296.672467 
L 322.69824 292.285432 
L 330.2784 292.285432 
L 332.17344 286.267321 
L 339.7536 286.267321 
L 341.64864 284.636244 
L 345.43872 284.636244 
L 347.33376 282.442727 
L 349.2288 282.442727 
L 351.12384 280.24921 
L 354.91392 280.24921 
L 356.80896 274.231098 
L 358.704 274.231098 
L 360.59904 272.600021 
L 362.49408 272.600021 
L 364.38912 270.968944 
L 373.86432 270.968944 
L 375.75936 267.70679 
L 381.44448 267.70679 
L 383.33952 265.513273 
L 385.23456 262.251119 
L 390.91968 262.251119 
L 392.81472 258.988966 
L 394.70976 257.357889 
L 400.39488 257.357889 
L 404.18496 254.095735 
L 407.97504 254.095735 
L 411.76512 249.7087 
L 417.45024 249.7087 
L 421.24032 246.446546 
L 423.13536 240.428435 
L 425.0304 237.166281 
L 426.92544 231.14817 
L 428.82048 225.692499 
L 430.71552 218.605751 
L 432.61056 216.974674 
L 434.5056 214.781156 
L 436.40064 214.781156 
L 438.29568 213.15008 
L 442.08576 213.15008 
L 443.9808 211.519003 
L 445.87584 211.519003 
L 447.77088 209.887926 
L 449.66592 209.887926 
L 451.56096 207.694408 
L 455.35104 207.694408 
L 457.24608 205.500891 
L 461.03616 205.500891 
L 462.9312 200.60766 
L 464.82624 195.151989 
L 468.61632 195.151989 
L 470.51136 193.520912 
L 478.09152 193.520912 
L 479.98656 188.065241 
L 481.8816 188.065241 
L 483.77664 186.434164 
L 485.67168 186.434164 
L 487.56672 184.803088 
L 489.46176 179.347416 
L 497.04192 179.347416 
L 500.832 176.085263 
L 504.62208 176.085263 
L 506.51712 172.823109 
L 508.41216 172.823109 
L 510.3072 171.192032 
L 512.20224 167.929878 
L 514.09728 165.736361 
L 517.88736 165.736361 
L 519.7824 163.542844 
L 521.67744 163.542844 
L 523.57248 161.911767 
L 525.46752 161.911767 
L 529.2576 158.649613 
L 534.94272 158.649613 
L 540.62784 153.756382 
L 542.52288 151.562865 
L 548.208 151.562865 
L 550.10304 149.931788 
L 551.99808 144.476117 
L 553.89312 144.476117 
L 555.78816 142.84504 
L 557.6832 137.389369 
L 559.57824 135.195851 
L 567.1584 128.671544 
L 574.73856 128.671544 
L 576.6336 125.40939 
L 582.31872 125.40939 
L 584.21376 123.778313 
L 586.1088 121.584796 
L 593.68896 121.584796 
L 595.584 119.953719 
L 597.47904 119.953719 
L 599.37408 118.322642 
L 616.42944 118.322642 
L 618.32448 116.691565 
L 620.21952 114.498048 
L 622.11456 111.235894 
L 625.90464 111.235894 
L 627.79968 109.604817 
L 629.69472 109.604817 
L 633.4848 106.342663 
L 641.06496 106.342663 
L 642.96 104.149146 
L 642.96 104.149146 
" clip-path="url(#pf5a72e3ae4)" style="fill: none; stroke-dasharray: 6.75,2.7,1.35,2.7; stroke-dashoffset: 0; stroke: #2f8f84; stroke-width: 1.35"/>
   </g>
   <g id="patch_4">
    <path d="M 74.448 348.192 
L 74.448 93.744 
" style="fill: none; stroke: #000000; stroke-width: 0.8; stroke-linejoin: miter; stroke-linecap: square"/>
   </g>
   <g id="patch_5">
    <path d="M 74.448 348.192 
L 642.96 348.192 
" style="fill: none; stroke: #000000; stroke-width: 0.8; stroke-linejoin: miter; stroke-linecap: square"/>
   </g>
  </g>
  <g id="text_16">
   <text style="font: 18px 'DejaVu Sans', 'Bitstream Vera Sans', 'Computer Modern Sans Serif', 'Lucida Grande', 'Verdana', 'Geneva', 'Lucid', 'Arial', 'Helvetica', 'Avant Garde', sans-serif; text-anchor: start" x="74.448" y="38.229188" transform="rotate(-0 74.448 38.229188)">QD-OLED → WLED LCD</text>
  </g>
  <g id="text_17">
   <text style="fill: #66747c; font: 10px 'DejaVu Sans', 'Bitstream Vera Sans', 'Computer Modern Sans Serif', 'Lucida Grande', 'Verdana', 'Geneva', 'Lucid', 'Arial', 'Helvetica', 'Avant Garde', sans-serif; text-anchor: start" x="74.448" y="64.728" transform="rotate(-0 74.448 64.728)">LED-V1</text>
  </g>
  <g id="legend_1">
   <g id="line2d_33">
    <path d="M 185.17875 404.151391 
L 194.27875 404.151391 
L 203.37875 404.151391 
" style="fill: none; stroke: #252525; stroke-width: 2.5; stroke-linecap: square"/>
   </g>
   <g id="text_18">
    <text style="font: 9.1px 'DejaVu Sans', 'Bitstream Vera Sans', 'Computer Modern Sans Serif', 'Lucida Grande', 'Verdana', 'Geneva', 'Lucid', 'Arial', 'Helvetica', 'Avant Garde', sans-serif; text-anchor: start" x="210.65875" y="407.336391" transform="rotate(-0 210.65875 407.336391)">Potera CMF</text>
   </g>
   <g id="line2d_34">
    <path d="M 185.17875 417.508484 
L 194.27875 417.508484 
L 203.37875 417.508484 
" style="fill: none; stroke: #3b83b4; stroke-width: 1.35; stroke-linecap: square"/>
   </g>
   <g id="text_19">
    <text style="font: 9.1px 'DejaVu Sans', 'Bitstream Vera Sans', 'Computer Modern Sans Serif', 'Lucida Grande', 'Verdana', 'Geneva', 'Lucid', 'Arial', 'Helvetica', 'Avant Garde', sans-serif; text-anchor: start" x="210.65875" y="420.693484" transform="rotate(-0 210.65875 420.693484)">CIE 2015 2°</text>
   </g>
   <g id="line2d_35">
    <path d="M 282.931234 404.151391 
L 292.031234 404.151391 
L 301.131234 404.151391 
" style="fill: none; stroke-dasharray: 4.995,2.16; stroke-dashoffset: 0; stroke: #c38a19; stroke-width: 1.35"/>
   </g>
   <g id="text_20">
    <text style="font: 9.1px 'DejaVu Sans', 'Bitstream Vera Sans', 'Computer Modern Sans Serif', 'Lucida Grande', 'Verdana', 'Geneva', 'Lucid', 'Arial', 'Helvetica', 'Avant Garde', sans-serif; text-anchor: start" x="308.411234" y="407.336391" transform="rotate(-0 308.411234 407.336391)">CIE 2015 10°</text>
   </g>
   <g id="line2d_36">
    <path d="M 282.931234 417.508484 
L 292.031234 417.508484 
L 301.131234 417.508484 
" style="fill: none; stroke-dasharray: 1.35,2.2275; stroke-dashoffset: 0; stroke: #7d8a92; stroke-width: 1.35"/>
   </g>
   <g id="text_21">
    <text style="font: 9.1px 'DejaVu Sans', 'Bitstream Vera Sans', 'Computer Modern Sans Serif', 'Lucida Grande', 'Verdana', 'Geneva', 'Lucid', 'Arial', 'Helvetica', 'Avant Garde', sans-serif; text-anchor: start" x="308.411234" y="420.693484" transform="rotate(-0 308.411234 420.693484)">CIE 1964 10°</text>
   </g>
   <g id="line2d_37">
    <path d="M 386.473594 404.151391 
L 395.573594 404.151391 
L 404.673594 404.151391 
" style="fill: none; stroke-dasharray: 8.64,2.16,1.35,2.16; stroke-dashoffset: 0; stroke: #d0526a; stroke-width: 1.35"/>
   </g>
   <g id="text_22">
    <text style="font: 9.1px 'DejaVu Sans', 'Bitstream Vera Sans', 'Computer Modern Sans Serif', 'Lucida Grande', 'Verdana', 'Geneva', 'Lucid', 'Arial', 'Helvetica', 'Avant Garde', sans-serif; text-anchor: start" x="411.953594" y="407.336391" transform="rotate(-0 411.953594 407.336391)">CIE 1931 2°</text>
   </g>
   <g id="line2d_38">
    <path d="M 386.473594 417.508484 
L 395.573594 417.508484 
L 404.673594 417.508484 
" style="fill: none; stroke-dasharray: 6.75,2.7,1.35,2.7; stroke-dashoffset: 0; stroke: #2f8f84; stroke-width: 1.35"/>
   </g>
   <g id="text_23">
    <text style="font: 9.1px 'DejaVu Sans', 'Bitstream Vera Sans', 'Computer Modern Sans Serif', 'Lucida Grande', 'Verdana', 'Geneva', 'Lucid', 'Arial', 'Helvetica', 'Avant Garde', sans-serif; text-anchor: start" x="411.953594" y="420.693484" transform="rotate(-0 411.953594 420.693484)">Judd–Vos 1978 2°</text>
   </g>
  </g>
 </g>
 <defs>
  <clipPath id="pf5a72e3ae4">
   <rect x="74.448" y="93.744" width="568.512" height="254.448"/>
  </clipPath>
 </defs>
</svg>
