<?xml version="1.0" encoding="utf-8" standalone="no"?>
<!DOCTYPE svg PUBLIC "-//W3C//DTD SVG 1.1//EN"
  "http://www.w3.org/Graphics/SVG/1.1/DTD/svg11.dtd">
<svg xmlns:xlink="http://www.w3.org/1999/xlink" width="676.8pt" height="446.4pt" viewBox="0 0 676.8 446.4" xmlns="http://www.w3.org/2000/svg" version="1.1">
 <metadata>
  <rdf:RDF xmlns:dc="http://purl.org/dc/elements/1.1/" xmlns:cc="http://creativecommons.org/ns#" xmlns:rdf="http://www.w3.org/1999/02/22-rdf-syntax-ns#">
   <cc:Work>
    <dc:type rdf:resource="http://purl.org/dc/dcmitype/StillImage"/>
    <dc:date>2026-07-20T06:42:02.020751</dc:date>
    <dc:format>image/svg+xml</dc:format>
    <dc:creator>
     <cc:Agent>
      <dc:title>Matplotlib v3.9.4, https://matplotlib.org/</dc:title>
     </cc:Agent>
    </dc:creator>
   </cc:Work>
  </rdf:RDF>
 </metadata>
 <defs>
  <style type="text/css">*{stroke-linejoin: round; stroke-linecap: butt}</style>
 </defs>
 <g id="figure_1">
  <g id="patch_1">
   <path d="M 0 446.4 
L 676.8 446.4 
L 676.8 0 
L 0 0 
z
" style="fill: #ffffff"/>
  </g>
  <g id="axes_1">
   <g id="patch_2">
    <path d="M 74.448 348.192 
L 642.96 348.192 
L 642.96 93.744 
L 74.448 93.744 
z
" style="fill: #ffffff"/>
   </g>
   <g id="patch_3">
    <path d="M 169.2 348.192 
L 358.704 348.192 
L 358.704 93.744 
L 169.2 93.744 
z
" clip-path="url(#pa7fbe96d4c)" style="fill: #e7f0ea; opacity: 0.58; stroke: #e7f0ea; stroke-linejoin: miter"/>
   </g>
   <g id="matplotlib.axis_1">
    <g id="xtick_1">
     <g id="line2d_1">
      <path d="M 74.448 348.192 
L 74.448 93.744 
" clip-path="url(#pa7fbe96d4c)" style="fill: none; stroke: #dfe5e8; stroke-width: 0.65; stroke-linecap: square"/>
     </g>
     <g id="line2d_2">
      <defs>
       <path id="m9c1adbb73b" d="M 0 0 
L 0 3.5 
" style="stroke: #000000; stroke-width: 0.8"/>
      </defs>
      <g>
       <use xlink:href="#m9c1adbb73b" x="74.448" y="348.192" style="stroke: #000000; stroke-width: 0.8"/>
      </g>
     </g>
     <g id="text_1">
      <text style="font: 10px 'DejaVu Sans', 'Bitstream Vera Sans', 'Computer Modern Sans Serif', 'Lucida Grande', 'Verdana', 'Geneva', 'Lucid', 'Arial', 'Helvetica', 'Avant Garde', sans-serif; text-anchor: middle" x="74.448" y="362.790438" transform="rotate(-0 74.448 362.790438)">0</text>
     </g>
    </g>
    <g id="xtick_2">
     <g id="line2d_3">
      <path d="M 169.2 348.192 
L 169.2 93.744 
" clip-path="url(#pa7fbe96d4c)" style="fill: none; stroke: #dfe5e8; stroke-width: 0.65; stroke-linecap: square"/>
     </g>
     <g id="line2d_4">
      <g>
       <use xlink:href="#m9c1adbb73b" x="169.2" y="348.192" style="stroke: #000000; stroke-width: 0.8"/>
      </g>
     </g>
     <g id="text_2">
      <text style="font: 10px 'DejaVu Sans', 'Bitstream Vera Sans', 'Computer Modern Sans Serif', 'Lucida Grande', 'Verdana', 'Geneva', 'Lucid', 'Arial', 'Helvetica', 'Avant Garde', sans-serif; text-anchor: middle" x="169.2" y="362.790438" transform="rotate(-0 169.2 362.790438)">1</text>
     </g>
    </g>
    <g id="xtick_3">
     <g id="line2d_5">
      <path d="M 263.952 348.192 
L 263.952 93.744 
" clip-path="url(#pa7fbe96d4c)" style="fill: none; stroke: #dfe5e8; stroke-width: 0.65; stroke-linecap: square"/>
     </g>
     <g id="line2d_6">
      <g>
       <use xlink:href="#m9c1adbb73b" x="263.952" y="348.192" style="stroke: #000000; stroke-width: 0.8"/>
      </g>
     </g>
     <g id="text_3">
      <text style="font: 10px 'DejaVu Sans', 'Bitstream Vera Sans', 'Computer Modern Sans Serif', 'Lucida Grande', 'Verdana', 'Geneva', 'Lucid', 'Arial', 'Helvetica', 'Avant Garde', sans-serif; text-anchor: middle" x="263.952" y="362.790438" transform="rotate(-0 263.952 362.790438)">2</text>
     </g>
    </g>
    <g id="xtick_4">
     <g id="line2d_7">
      <path d="M 358.704 348.192 
L 358.704 93.744 
" clip-path="url(#pa7fbe96d4c)" style="fill: none; stroke: #dfe5e8; stroke-width: 0.65; stroke-linecap: square"/>
     </g>
     <g id="line2d_8">
      <g>
       <use xlink:href="#m9c1adbb73b" x="358.704" y="348.192" style="stroke: #000000; stroke-width: 0.8"/>
      </g>
     </g>
     <g id="text_4">
      <text style="font: 10px 'DejaVu Sans', 'Bitstream Vera Sans', 'Computer Modern Sans Serif', 'Lucida Grande', 'Verdana', 'Geneva', 'Lucid', 'Arial', 'Helvetica', 'Avant Garde', sans-serif; text-anchor: middle" x="358.704" y="362.790438" transform="rotate(-0 358.704 362.790438)">3</text>
     </g>
    </g>
    <g id="xtick_5">
     <g id="line2d_9">
      <path d="M 453.456 348.192 
L 453.456 93.744 
" clip-path="url(#pa7fbe96d4c)" style="fill: none; stroke: #dfe5e8; stroke-width: 0.65; stroke-linecap: square"/>
     </g>
     <g id="line2d_10">
      <g>
       <use xlink:href="#m9c1adbb73b" x="453.456" y="348.192" style="stroke: #000000; stroke-width: 0.8"/>
      </g>
     </g>
     <g id="text_5">
      <text style="font: 10px 'DejaVu Sans', 'Bitstream Vera Sans', 'Computer Modern Sans Serif', 'Lucida Grande', 'Verdana', 'Geneva', 'Lucid', 'Arial', 'Helvetica', 'Avant Garde', sans-serif; text-anchor: middle" x="453.456" y="362.790438" transform="rotate(-0 453.456 362.790438)">4</text>
     </g>
    </g>
    <g id="xtick_6">
     <g id="line2d_11">
      <path d="M 548.208 348.192 
L 548.208 93.744 
" clip-path="url(#pa7fbe96d4c)" style="fill: none; stroke: #dfe5e8; stroke-width: 0.65; stroke-linecap: square"/>
     </g>
     <g id="line2d_12">
      <g>
       <use xlink:href="#m9c1adbb73b" x="548.208" y="348.192" style="stroke: #000000; stroke-width: 0.8"/>
      </g>
     </g>
     <g id="text_6">
      <text style="font: 10px 'DejaVu Sans', 'Bitstream Vera Sans', 'Computer Modern Sans Serif', 'Lucida Grande', 'Verdana', 'Geneva', 'Lucid', 'Arial', 'Helvetica', 'Avant Garde', sans-serif; text-anchor: middle" x="548.208" y="362.790438" transform="rotate(-0 548.208 362.790438)">5</text>
     </g>
    </g>
    <g id="xtick_7">
     <g id="line2d_13">
      <path d="M 642.96 348.192 
L 642.96 93.744 
" clip-path="url(#pa7fbe96d4c)" style="fill: none; stroke: #dfe5e8; stroke-width: 0.65; stroke-linecap: square"/>
     </g>
     <g id="line2d_14">
      <g>
       <use xlink:href="#m9c1adbb73b" x="642.96" y="348.192" style="stroke: #000000; stroke-width: 0.8"/>
      </g>
     </g>
     <g id="text_7">
      <text style="font: 10px 'DejaVu Sans', 'Bitstream Vera Sans', 'Computer Modern Sans Serif', 'Lucida Grande', 'Verdana', 'Geneva', 'Lucid', 'Arial', 'Helvetica', 'Avant Garde', sans-serif; text-anchor: middle" x="642.96" y="362.790438" transform="rotate(-0 642.96 362.790438)">6</text>
     </g>
    </g>
    <g id="text_8">
     <text style="font: 10px 'DejaVu Sans', 'Bitstream Vera Sans', 'Computer Modern Sans Serif', 'Lucida Grande', 'Verdana', 'Geneva', 'Lucid', 'Arial', 'Helvetica', 'Avant Garde', sans-serif; text-anchor: middle" x="358.704" y="376.468563" transform="rotate(-0 358.704 376.468563)">sUCS dE threshold</text>
    </g>
   </g>
   <g id="matplotlib.axis_2">
    <g id="ytick_1">
     <g id="line2d_15">
      <path d="M 74.448 348.192 
L 642.96 348.192 
" clip-path="url(#pa7fbe96d4c)" style="fill: none; stroke: #dfe5e8; stroke-width: 0.65; stroke-linecap: square"/>
     </g>
     <g id="line2d_16">
      <defs>
       <path id="m1920601a30" d="M 0 0 
L -3.5 0 
" style="stroke: #000000; stroke-width: 0.8"/>
      </defs>
      <g>
       <use xlink:href="#m1920601a30" x="74.448" y="348.192" style="stroke: #000000; stroke-width: 0.8"/>
      </g>
     </g>
     <g id="text_9">
      <text style="font: 10px 'DejaVu Sans', 'Bitstream Vera Sans', 'Computer Modern Sans Serif', 'Lucida Grande', 'Verdana', 'Geneva', 'Lucid', 'Arial', 'Helvetica', 'Avant Garde', sans-serif; text-anchor: end" x="67.448" y="351.991219" transform="rotate(-0 67.448 351.991219)">0</text>
     </g>
    </g>
    <g id="ytick_2">
     <g id="line2d_17">
      <path d="M 74.448 297.3024 
L 642.96 297.3024 
" clip-path="url(#pa7fbe96d4c)" style="fill: none; stroke: #dfe5e8; stroke-width: 0.65; stroke-linecap: square"/>
     </g>
     <g id="line2d_18">
      <g>
       <use xlink:href="#m1920601a30" x="74.448" y="297.3024" style="stroke: #000000; stroke-width: 0.8"/>
      </g>
     </g>
     <g id="text_10">
      <text style="font: 10px 'DejaVu Sans', 'Bitstream Vera Sans', 'Computer Modern Sans Serif', 'Lucida Grande', 'Verdana', 'Geneva', 'Lucid', 'Arial', 'Helvetica', 'Avant Garde', sans-serif; text-anchor: end" x="67.448" y="301.101619" transform="rotate(-0 67.448 301.101619)">20</text>
     </g>
    </g>
    <g id="ytick_3">
     <g id="line2d_19">
      <path d="M 74.448 246.4128 
L 642.96 246.4128 
" clip-path="url(#pa7fbe96d4c)" style="fill: none; stroke: #dfe5e8; stroke-width: 0.65; stroke-linecap: square"/>
     </g>
     <g id="line2d_20">
      <g>
       <use xlink:href="#m1920601a30" x="74.448" y="246.4128" style="stroke: #000000; stroke-width: 0.8"/>
      </g>
     </g>
     <g id="text_11">
      <text style="font: 10px 'DejaVu Sans', 'Bitstream Vera Sans', 'Computer Modern Sans Serif', 'Lucida Grande', 'Verdana', 'Geneva', 'Lucid', 'Arial', 'Helvetica', 'Avant Garde', sans-serif; text-anchor: end" x="67.448" y="250.212019" transform="rotate(-0 67.448 250.212019)">40</text>
     </g>
    </g>
    <g id="ytick_4">
     <g id="line2d_21">
      <path d="M 74.448 195.5232 
L 642.96 195.5232 
" clip-path="url(#pa7fbe96d4c)" style="fill: none; stroke: #dfe5e8; stroke-width: 0.65; stroke-linecap: square"/>
     </g>
     <g id="line2d_22">
      <g>
       <use xlink:href="#m1920601a30" x="74.448" y="195.5232" style="stroke: #000000; stroke-width: 0.8"/>
      </g>
     </g>
     <g id="text_12">
      <text style="font: 10px 'DejaVu Sans', 'Bitstream Vera Sans', 'Computer Modern Sans Serif', 'Lucida Grande', 'Verdana', 'Geneva', 'Lucid', 'Arial', 'Helvetica', 'Avant Garde', sans-serif; text-anchor: end" x="67.448" y="199.322419" transform="rotate(-0 67.448 199.322419)">60</text>
     </g>
    </g>
    <g id="ytick_5">
     <g id="line2d_23">
      <path d="M 74.448 144.6336 
L 642.96 144.6336 
" clip-path="url(#pa7fbe96d4c)" style="fill: none; stroke: #dfe5e8; stroke-width: 0.65; stroke-linecap: square"/>
     </g>
     <g id="line2d_24">
      <g>
       <use xlink:href="#m1920601a30" x="74.448" y="144.6336" style="stroke: #000000; stroke-width: 0.8"/>
      </g>
     </g>
     <g id="text_13">
      <text style="font: 10px 'DejaVu Sans', 'Bitstream Vera Sans', 'Computer Modern Sans Serif', 'Lucida Grande', 'Verdana', 'Geneva', 'Lucid', 'Arial', 'Helvetica', 'Avant Garde', sans-serif; text-anchor: end" x="67.448" y="148.432819" transform="rotate(-0 67.448 148.432819)">80</text>
     </g>
    </g>
    <g id="ytick_6">
     <g id="line2d_25">
      <path d="M 74.448 93.744 
L 642.96 93.744 
" clip-path="url(#pa7fbe96d4c)" style="fill: none; stroke: #dfe5e8; stroke-width: 0.65; stroke-linecap: square"/>
     </g>
     <g id="line2d_26">
      <g>
       <use xlink:href="#m1920601a30" x="74.448" y="93.744" style="stroke: #000000; stroke-width: 0.8"/>
      </g>
     </g>
     <g id="text_14">
      <text style="font: 10px 'DejaVu Sans', 'Bitstream Vera Sans', 'Computer Modern Sans Serif', 'Lucida Grande', 'Verdana', 'Geneva', 'Lucid', 'Arial', 'Helvetica', 'Avant Garde', sans-serif; text-anchor: end" x="67.448" y="97.543219" transform="rotate(-0 67.448 97.543219)">100</text>
     </g>
    </g>
    <g id="text_15">
     <text style="font: 10px 'DejaVu Sans', 'Bitstream Vera Sans', 'Computer Modern Sans Serif', 'Lucida Grande', 'Verdana', 'Geneva', 'Lucid', 'Arial', 'Helvetica', 'Avant Garde', sans-serif; text-anchor: middle" x="42.280812" y="220.968" transform="rotate(-90 42.280812 220.968)">observers%</text>
    </g>
   </g>
   <g id="line2d_27">
    <path d="M 74.448 348.192 
L 93.3984 348.192 
L 95.29344 346.560923 
L 104.76864 346.560923 
L 106.66368 344.929846 
L 112.3488 344.929846 
L 116.13888 341.667692 
L 121.824 341.667692 
L 129.40416 335.143385 
L 133.19424 335.143385 
L 135.08928 333.512308 
L 138.87936 333.512308 
L 142.66944 330.250154 
L 146.45952 330.250154 
L 148.35456 326.988 
L 150.2496 326.988 
L 152.14464 324.794483 
L 154.03968 324.794483 
L 155.93472 321.532329 
L 157.82976 319.901252 
L 161.61984 315.514218 
L 165.40992 312.252064 
L 167.30496 310.058546 
L 172.99008 305.165316 
L 174.88512 299.147204 
L 176.78016 297.516127 
L 180.57024 297.516127 
L 182.46528 295.88505 
L 188.1504 295.88505 
L 190.04544 292.060456 
L 195.73056 292.060456 
L 197.6256 290.429379 
L 199.52064 290.429379 
L 201.41568 288.798302 
L 203.31072 288.798302 
L 205.20576 284.973708 
L 207.1008 281.711554 
L 208.99584 277.88696 
L 210.89088 271.868849 
L 214.68096 271.868849 
L 216.576 270.237772 
L 220.36608 270.237772 
L 222.26112 268.606695 
L 224.15616 268.606695 
L 226.0512 265.344541 
L 227.94624 263.151024 
L 229.84128 257.695353 
L 235.5264 257.695353 
L 237.42144 253.870759 
L 239.31648 252.239682 
L 241.21152 250.046164 
L 243.10656 250.046164 
L 245.0016 247.852647 
L 246.89664 246.22157 
L 248.79168 240.765899 
L 250.68672 240.765899 
L 252.58176 239.134822 
L 254.4768 239.134822 
L 256.37184 235.872668 
L 258.26688 235.872668 
L 260.16192 230.979438 
L 262.05696 228.78592 
L 267.74208 228.78592 
L 269.63712 227.154844 
L 271.53216 221.136732 
L 275.32224 221.136732 
L 277.21728 219.505655 
L 279.11232 211.856467 
L 281.00736 210.22539 
L 284.79744 205.838355 
L 286.69248 205.838355 
L 288.58752 202.576202 
L 290.48256 202.576202 
L 296.16768 197.682971 
L 305.64288 197.682971 
L 307.53792 195.489454 
L 313.22304 195.489454 
L 315.11808 193.858377 
L 317.01312 190.596223 
L 318.90816 186.771629 
L 320.8032 186.771629 
L 322.69824 185.140552 
L 330.2784 185.140552 
L 332.17344 182.947034 
L 335.96352 182.947034 
L 337.85856 179.12244 
L 339.7536 176.928923 
L 343.54368 176.928923 
L 345.43872 175.297846 
L 349.2288 170.910812 
L 356.80896 170.910812 
L 358.704 168.717294 
L 362.49408 168.717294 
L 364.38912 166.523777 
L 371.96928 166.523777 
L 373.86432 163.261623 
L 377.6544 163.261623 
L 379.54944 159.999469 
L 383.33952 155.612435 
L 385.23456 151.787841 
L 387.1296 149.594324 
L 394.70976 149.594324 
L 396.6048 147.400806 
L 398.49984 145.769729 
L 404.18496 145.769729 
L 407.97504 141.382695 
L 409.87008 141.382695 
L 411.76512 139.189178 
L 434.5056 139.189178 
L 436.40064 136.99566 
L 440.19072 136.99566 
L 443.9808 132.608626 
L 447.77088 132.608626 
L 449.66592 130.415109 
L 455.35104 130.415109 
L 457.24608 128.221592 
L 461.03616 128.221592 
L 462.9312 123.834557 
L 464.82624 123.834557 
L 466.72128 121.64104 
L 493.25184 121.64104 
L 495.14688 119.447523 
L 506.51712 119.447523 
L 508.41216 117.254005 
L 512.20224 117.254005 
L 514.09728 115.060488 
L 527.36256 115.060488 
L 529.2576 113.429411 
L 536.83776 113.429411 
L 538.7328 111.798334 
L 544.41792 111.798334 
L 546.31296 110.167257 
L 555.78816 110.167257 
L 557.6832 108.53618 
L 561.47328 104.149146 
L 570.94848 104.149146 
L 572.84352 101.955629 
L 576.6336 101.955629 
L 578.52864 99.762111 
L 608.84928 99.762111 
L 610.74432 98.131034 
L 642.96 98.131034 
L 642.96 98.131034 
" clip-path="url(#pa7fbe96d4c)" style="fill: none; stroke: #252525; stroke-width: 2.5; stroke-linecap: square"/>
   </g>
   <g id="line2d_28">
    <path d="M 74.448 348.192 
L 93.3984 348.192 
L 95.29344 345.998483 
L 112.3488 345.998483 
L 114.24384 343.804966 
L 116.13888 343.804966 
L 118.03392 341.611448 
L 127.50912 341.611448 
L 129.40416 339.417931 
L 131.2992 339.417931 
L 133.19424 337.224414 
L 138.87936 337.224414 
L 140.7744 335.593337 
L 142.66944 335.593337 
L 144.56448 333.39982 
L 146.45952 329.012785 
L 161.61984 329.012785 
L 163.51488 327.381708 
L 174.88512 327.381708 
L 176.78016 325.750631 
L 178.6752 323.557114 
L 180.57024 323.557114 
L 182.46528 319.17008 
L 186.25536 319.17008 
L 188.1504 315.907926 
L 195.73056 315.907926 
L 197.6256 314.276849 
L 218.47104 314.276849 
L 220.36608 312.645772 
L 222.26112 312.645772 
L 224.15616 306.62766 
L 227.94624 302.240626 
L 229.84128 298.416032 
L 231.73632 296.222515 
L 235.5264 286.436053 
L 237.42144 286.436053 
L 239.31648 284.242536 
L 241.21152 284.242536 
L 243.10656 282.049019 
L 246.89664 282.049019 
L 248.79168 279.855501 
L 252.58176 273.331194 
L 254.4768 266.750642 
L 256.37184 265.119565 
L 258.26688 261.294971 
L 260.16192 259.101454 
L 262.05696 255.276859 
L 265.84704 250.889825 
L 271.53216 250.889825 
L 275.32224 247.627671 
L 277.21728 247.627671 
L 281.00736 244.365517 
L 282.9024 242.172 
L 286.69248 235.647692 
L 288.58752 230.192021 
L 290.48256 227.998504 
L 292.3776 222.542833 
L 301.8528 222.542833 
L 305.64288 219.280679 
L 307.53792 219.280679 
L 309.43296 217.087162 
L 311.328 213.262568 
L 313.22304 211.06905 
L 315.11808 209.437973 
L 317.01312 205.613379 
L 318.90816 203.419862 
L 320.8032 199.032828 
L 326.48832 199.032828 
L 328.38336 197.401751 
L 330.2784 197.401751 
L 334.06848 194.139597 
L 337.85856 194.139597 
L 339.7536 189.246366 
L 341.64864 185.984212 
L 343.54368 182.159618 
L 349.2288 182.159618 
L 351.12384 179.966101 
L 353.01888 176.703947 
L 354.91392 168.548562 
L 356.80896 166.355045 
L 360.59904 166.355045 
L 362.49408 164.161528 
L 364.38912 162.530451 
L 366.28416 162.530451 
L 368.1792 160.899374 
L 370.07424 160.899374 
L 371.96928 158.705857 
L 373.86432 158.705857 
L 375.75936 157.07478 
L 377.6544 153.812626 
L 379.54944 153.812626 
L 381.44448 152.181549 
L 385.23456 152.181549 
L 387.1296 148.919395 
L 389.02464 148.919395 
L 390.91968 145.094801 
L 396.6048 145.094801 
L 398.49984 142.901284 
L 400.39488 141.270207 
L 402.28992 136.883172 
L 404.18496 136.883172 
L 406.08 135.252095 
L 407.97504 135.252095 
L 409.87008 133.058578 
L 413.66016 133.058578 
L 417.45024 129.796424 
L 419.34528 127.602907 
L 425.0304 127.602907 
L 428.82048 124.340753 
L 440.19072 124.340753 
L 442.08576 122.709676 
L 447.77088 122.709676 
L 449.66592 121.078599 
L 457.24608 121.078599 
L 459.14112 119.447523 
L 474.30144 119.447523 
L 476.19648 117.254005 
L 483.77664 117.254005 
L 487.56672 112.866971 
L 497.04192 112.866971 
L 498.93696 110.673454 
L 521.67744 110.673454 
L 523.57248 109.042377 
L 534.94272 109.042377 
L 536.83776 107.4113 
L 555.78816 107.4113 
L 557.6832 105.217782 
L 563.36832 105.217782 
L 565.26336 103.586706 
L 582.31872 103.586706 
L 584.21376 101.393188 
L 586.1088 101.393188 
L 588.00384 99.762111 
L 606.95424 99.762111 
L 608.84928 98.131034 
L 642.96 98.131034 
L 642.96 98.131034 
" clip-path="url(#pa7fbe96d4c)" style="fill: none; stroke: #3b83b4; stroke-width: 1.35; stroke-linecap: square"/>
   </g>
   <g id="line2d_29">
    <path d="M 74.448 348.192 
L 91.50336 348.192 
L 93.3984 346.560923 
L 97.18848 346.560923 
L 99.08352 344.929846 
L 100.97856 344.929846 
L 102.8736 343.298769 
L 114.24384 343.298769 
L 116.13888 341.667692 
L 119.92896 341.667692 
L 121.824 340.036615 
L 123.71904 340.036615 
L 125.61408 335.649581 
L 127.50912 335.649581 
L 129.40416 334.018504 
L 131.2992 334.018504 
L 133.19424 329.125273 
L 135.08928 327.494196 
L 136.98432 327.494196 
L 138.87936 325.863119 
L 140.7744 320.969889 
L 146.45952 320.969889 
L 152.14464 316.076658 
L 155.93472 316.076658 
L 157.82976 314.445581 
L 159.7248 314.445581 
L 161.61984 311.183427 
L 172.99008 311.183427 
L 174.88512 309.55235 
L 176.78016 306.290196 
L 178.6752 304.659119 
L 186.25536 304.659119 
L 188.1504 303.028042 
L 190.04544 299.765889 
L 193.83552 299.765889 
L 195.73056 295.941294 
L 201.41568 289.360743 
L 205.20576 286.098589 
L 210.89088 286.098589 
L 212.78592 284.467512 
L 216.576 276.818324 
L 218.47104 274.624806 
L 220.36608 274.624806 
L 222.26112 271.362653 
L 224.15616 269.169135 
L 226.0512 269.169135 
L 227.94624 266.975618 
L 229.84128 261.519947 
L 231.73632 259.88887 
L 233.63136 259.88887 
L 235.5264 258.257793 
L 237.42144 252.802122 
L 239.31648 251.171045 
L 243.10656 251.171045 
L 245.0016 249.539968 
L 246.89664 247.346451 
L 248.79168 247.346451 
L 250.68672 243.521857 
L 254.4768 239.134822 
L 256.37184 237.503745 
L 258.26688 237.503745 
L 260.16192 235.872668 
L 262.05696 232.610515 
L 263.952 230.979438 
L 273.4272 230.979438 
L 275.32224 227.717284 
L 277.21728 226.086207 
L 279.11232 226.086207 
L 281.00736 220.630536 
L 282.9024 220.630536 
L 284.79744 218.437019 
L 286.69248 218.437019 
L 288.58752 215.174865 
L 294.27264 215.174865 
L 296.16768 213.543788 
L 301.8528 213.543788 
L 303.74784 209.719194 
L 305.64288 208.088117 
L 307.53792 203.701082 
L 311.328 203.701082 
L 313.22304 202.070005 
L 315.11808 199.876488 
L 317.01312 199.876488 
L 318.90816 198.245411 
L 320.8032 196.051894 
L 322.69824 196.051894 
L 326.48832 191.664859 
L 330.2784 188.402706 
L 332.17344 184.578111 
L 334.06848 182.947034 
L 335.96352 180.753517 
L 337.85856 179.12244 
L 339.7536 179.12244 
L 341.64864 175.297846 
L 354.91392 175.297846 
L 356.80896 172.035692 
L 366.28416 172.035692 
L 368.1792 169.842175 
L 375.75936 169.842175 
L 377.6544 167.648658 
L 379.54944 163.824064 
L 381.44448 161.630546 
L 387.1296 161.630546 
L 390.91968 157.243512 
L 406.08 157.243512 
L 407.97504 155.049995 
L 413.66016 155.049995 
L 415.5552 151.225401 
L 417.45024 151.225401 
L 419.34528 146.838366 
L 423.13536 142.451332 
L 425.0304 142.451332 
L 426.92544 138.626737 
L 430.71552 138.626737 
L 434.5056 134.239703 
L 438.29568 134.239703 
L 440.19072 132.608626 
L 449.66592 132.608626 
L 453.456 128.221592 
L 464.82624 128.221592 
L 466.72128 126.028074 
L 479.98656 126.028074 
L 481.8816 123.834557 
L 483.77664 123.834557 
L 485.67168 121.64104 
L 487.56672 120.009963 
L 491.3568 120.009963 
L 495.14688 115.622928 
L 502.72704 115.622928 
L 504.62208 113.991851 
L 506.51712 113.991851 
L 508.41216 111.798334 
L 515.99232 111.798334 
L 517.88736 110.167257 
L 536.83776 110.167257 
L 538.7328 107.97374 
L 542.52288 107.97374 
L 544.41792 105.780223 
L 548.208 105.780223 
L 550.10304 103.586706 
L 569.05344 103.586706 
L 570.94848 101.955629 
L 576.6336 101.955629 
L 578.52864 100.324552 
L 599.37408 100.324552 
L 601.26912 98.131034 
L 642.96 98.131034 
L 642.96 98.131034 
" clip-path="url(#pa7fbe96d4c)" style="fill: none; stroke-dasharray: 4.995,2.16; stroke-dashoffset: 0; stroke: #c38a19; stroke-width: 1.35"/>
   </g>
   <g id="line2d_30">
    <path d="M 74.448 348.192 
L 100.97856 348.192 
L 104.76864 344.929846 
L 118.03392 344.929846 
L 119.92896 343.298769 
L 123.71904 336.774462 
L 127.50912 336.774462 
L 129.40416 334.580944 
L 136.98432 334.580944 
L 138.87936 332.387427 
L 140.7744 330.75635 
L 148.35456 330.75635 
L 152.14464 327.494196 
L 154.03968 327.494196 
L 155.93472 324.232042 
L 161.61984 319.338812 
L 163.51488 319.338812 
L 165.40992 317.707735 
L 167.30496 314.445581 
L 169.2 312.252064 
L 171.09504 308.427469 
L 172.99008 308.427469 
L 174.88512 306.796393 
L 176.78016 304.602875 
L 180.57024 304.602875 
L 182.46528 301.340721 
L 184.36032 299.147204 
L 188.1504 299.147204 
L 190.04544 292.566653 
L 191.94048 290.935576 
L 195.73056 290.935576 
L 197.6256 285.479905 
L 199.52064 285.479905 
L 203.31072 282.217751 
L 207.1008 282.217751 
L 208.99584 278.393156 
L 210.89088 275.131003 
L 212.78592 273.499926 
L 214.68096 271.306408 
L 216.576 269.675332 
L 218.47104 267.481814 
L 220.36608 267.481814 
L 222.26112 265.288297 
L 224.15616 261.463703 
L 227.94624 258.201549 
L 231.73632 258.201549 
L 233.63136 256.570472 
L 237.42144 256.570472 
L 239.31648 253.308318 
L 241.21152 251.677241 
L 245.0016 251.677241 
L 246.89664 247.290207 
L 250.68672 247.290207 
L 252.58176 244.028053 
L 256.37184 244.028053 
L 258.26688 242.396976 
L 262.05696 242.396976 
L 263.952 237.503745 
L 265.84704 233.116711 
L 267.74208 229.854557 
L 269.63712 229.854557 
L 271.53216 227.66104 
L 273.4272 226.029963 
L 279.11232 226.029963 
L 281.00736 224.398886 
L 282.9024 224.398886 
L 284.79744 222.767809 
L 286.69248 219.505655 
L 288.58752 214.612424 
L 290.48256 214.612424 
L 292.3776 212.981347 
L 294.27264 210.78783 
L 298.06272 210.78783 
L 299.95776 206.400796 
L 301.8528 206.400796 
L 303.74784 204.207279 
L 305.64288 198.751607 
L 307.53792 198.751607 
L 309.43296 196.55809 
L 317.01312 196.55809 
L 318.90816 194.927013 
L 320.8032 194.927013 
L 322.69824 193.295936 
L 326.48832 193.295936 
L 330.2784 188.908902 
L 332.17344 187.277825 
L 334.06848 180.191077 
L 335.96352 180.191077 
L 337.85856 176.366483 
L 339.7536 176.366483 
L 341.64864 174.735406 
L 343.54368 174.735406 
L 345.43872 173.104329 
L 349.2288 173.104329 
L 351.12384 170.910812 
L 358.704 170.910812 
L 362.49408 166.523777 
L 364.38912 166.523777 
L 366.28416 164.8927 
L 371.96928 164.8927 
L 373.86432 162.699183 
L 375.75936 162.699183 
L 377.6544 156.681072 
L 379.54944 156.681072 
L 381.44448 155.049995 
L 385.23456 150.66296 
L 387.1296 150.66296 
L 389.02464 146.275926 
L 394.70976 146.275926 
L 398.49984 141.888891 
L 402.28992 141.888891 
L 404.18496 137.501857 
L 409.87008 137.501857 
L 411.76512 135.30834 
L 425.0304 135.30834 
L 426.92544 133.677263 
L 432.61056 133.677263 
L 434.5056 131.483745 
L 436.40064 131.483745 
L 438.29568 129.852668 
L 445.87584 129.852668 
L 447.77088 127.659151 
L 449.66592 123.834557 
L 455.35104 123.834557 
L 457.24608 121.64104 
L 476.19648 121.64104 
L 478.09152 120.009963 
L 489.46176 120.009963 
L 491.3568 117.816446 
L 500.832 117.816446 
L 504.62208 114.554292 
L 508.41216 110.167257 
L 512.20224 110.167257 
L 515.99232 105.780223 
L 517.88736 105.780223 
L 519.7824 103.586706 
L 555.78816 103.586706 
L 557.6832 101.955629 
L 589.89888 101.955629 
L 591.79392 100.324552 
L 601.26912 100.324552 
L 603.16416 98.131034 
L 642.96 98.131034 
L 642.96 98.131034 
" clip-path="url(#pa7fbe96d4c)" style="fill: none; stroke-dasharray: 1.35,2.2275; stroke-dashoffset: 0; stroke: #7d8a92; stroke-width: 1.35"/>
   </g>
   <g id="line2d_31">
    <path d="M 74.448 348.192 
L 104.76864 348.192 
L 106.66368 345.998483 
L 144.56448 345.998483 
L 146.45952 343.804966 
L 154.03968 343.804966 
L 155.93472 341.611448 
L 165.40992 341.611448 
L 167.30496 339.417931 
L 171.09504 339.417931 
L 174.88512 336.155777 
L 176.78016 336.155777 
L 178.6752 333.96226 
L 184.36032 333.96226 
L 186.25536 329.575225 
L 188.1504 327.381708 
L 191.94048 327.381708 
L 193.83552 325.188191 
L 195.73056 325.188191 
L 197.6256 322.994674 
L 203.31072 322.994674 
L 205.20576 320.801156 
L 208.99584 320.801156 
L 210.89088 316.414122 
L 212.78592 314.220605 
L 220.36608 314.220605 
L 222.26112 312.027088 
L 224.15616 312.027088 
L 226.0512 307.640053 
L 227.94624 307.640053 
L 229.84128 305.446536 
L 250.68672 305.446536 
L 252.58176 301.059501 
L 256.37184 301.059501 
L 258.26688 298.865984 
L 260.16192 298.865984 
L 262.05696 295.60383 
L 263.952 293.410313 
L 273.4272 293.410313 
L 275.32224 291.779236 
L 277.21728 289.585719 
L 279.11232 289.585719 
L 281.00736 287.392202 
L 286.69248 282.498971 
L 299.95776 282.498971 
L 303.74784 279.236817 
L 309.43296 279.236817 
L 311.328 277.0433 
L 315.11808 277.0433 
L 317.01312 275.412223 
L 318.90816 267.200594 
L 320.8032 262.81356 
L 324.59328 262.81356 
L 326.48832 258.988966 
L 328.38336 251.339777 
L 330.2784 249.14626 
L 334.06848 245.884106 
L 335.96352 238.797358 
L 337.85856 233.341687 
L 339.7536 233.341687 
L 341.64864 227.886016 
L 347.33376 227.886016 
L 349.2288 225.692499 
L 351.12384 225.692499 
L 356.80896 219.111947 
L 358.704 219.111947 
L 360.59904 214.218716 
L 364.38912 210.956562 
L 366.28416 207.131968 
L 371.96928 202.238737 
L 375.75936 202.238737 
L 377.6544 198.976584 
L 381.44448 198.976584 
L 383.33952 196.783066 
L 385.23456 195.151989 
L 387.1296 191.889836 
L 389.02464 191.889836 
L 392.81472 188.627682 
L 394.70976 188.627682 
L 398.49984 185.365528 
L 402.28992 185.365528 
L 404.18496 183.734451 
L 406.08 179.909857 
L 407.97504 177.71634 
L 409.87008 177.71634 
L 411.76512 176.085263 
L 415.5552 176.085263 
L 417.45024 173.891745 
L 421.24032 173.891745 
L 423.13536 172.260668 
L 428.82048 172.260668 
L 430.71552 167.367438 
L 432.61056 167.367438 
L 434.5056 165.736361 
L 436.40064 165.736361 
L 438.29568 161.911767 
L 440.19072 160.28069 
L 442.08576 160.28069 
L 443.9808 158.087172 
L 445.87584 158.087172 
L 447.77088 156.456095 
L 449.66592 156.456095 
L 451.56096 154.262578 
L 453.456 151.000424 
L 457.24608 147.738271 
L 459.14112 145.544753 
L 461.03616 143.913676 
L 462.9312 141.720159 
L 464.82624 140.089082 
L 466.72128 135.195851 
L 474.30144 135.195851 
L 481.8816 128.671544 
L 483.77664 126.478027 
L 489.46176 126.478027 
L 491.3568 124.84695 
L 512.20224 124.84695 
L 514.09728 123.215873 
L 517.88736 123.215873 
L 519.7824 121.584796 
L 521.67744 121.584796 
L 523.57248 119.953719 
L 525.46752 119.953719 
L 527.36256 118.322642 
L 529.2576 115.060488 
L 531.15264 113.429411 
L 534.94272 113.429411 
L 536.83776 111.798334 
L 544.41792 111.798334 
L 546.31296 109.604817 
L 553.89312 109.604817 
L 555.78816 107.4113 
L 574.73856 107.4113 
L 576.6336 105.780223 
L 580.42368 105.780223 
L 582.31872 104.149146 
L 639.16992 104.149146 
L 641.06496 101.955629 
L 642.96 101.955629 
L 642.96 101.955629 
" clip-path="url(#pa7fbe96d4c)" style="fill: none; stroke-dasharray: 8.64,2.16,1.35,2.16; stroke-dashoffset: 0; stroke: #d0526a; stroke-width: 1.35"/>
   </g>
   <g id="line2d_32">
    <path d="M 74.448 348.192 
L 144.56448 348.192 
L 146.45952 345.998483 
L 161.61984 345.998483 
L 163.51488 343.804966 
L 171.09504 343.804966 
L 172.99008 341.611448 
L 197.6256 341.611448 
L 201.41568 337.224414 
L 203.31072 337.224414 
L 205.20576 335.030897 
L 210.89088 335.030897 
L 212.78592 332.837379 
L 214.68096 332.837379 
L 218.47104 328.450345 
L 237.42144 328.450345 
L 239.31648 326.256828 
L 241.21152 321.869793 
L 243.10656 319.676276 
L 245.0016 318.045199 
L 263.952 318.045199 
L 265.84704 316.414122 
L 271.53216 316.414122 
L 275.32224 312.027088 
L 277.21728 312.027088 
L 279.11232 309.83357 
L 282.9024 309.83357 
L 286.69248 305.446536 
L 288.58752 305.446536 
L 290.48256 303.253019 
L 296.16768 303.253019 
L 298.06272 301.059501 
L 303.74784 301.059501 
L 305.64288 298.865984 
L 320.8032 298.865984 
L 322.69824 294.47895 
L 324.59328 292.285432 
L 326.48832 292.285432 
L 328.38336 290.091915 
L 332.17344 290.091915 
L 334.06848 288.460838 
L 335.96352 288.460838 
L 337.85856 286.267321 
L 339.7536 284.636244 
L 341.64864 282.442727 
L 345.43872 282.442727 
L 347.33376 280.24921 
L 349.2288 280.24921 
L 351.12384 278.055692 
L 354.91392 278.055692 
L 356.80896 275.862175 
L 358.704 275.862175 
L 360.59904 274.231098 
L 364.38912 274.231098 
L 366.28416 272.600021 
L 370.07424 272.600021 
L 371.96928 270.968944 
L 375.75936 270.968944 
L 377.6544 269.337867 
L 379.54944 266.075714 
L 383.33952 266.075714 
L 385.23456 263.882196 
L 387.1296 263.882196 
L 389.02464 262.251119 
L 392.81472 262.251119 
L 394.70976 257.357889 
L 398.49984 257.357889 
L 400.39488 255.726812 
L 406.08 255.726812 
L 407.97504 251.902218 
L 413.66016 251.902218 
L 415.5552 247.515183 
L 417.45024 247.515183 
L 419.34528 245.884106 
L 421.24032 245.884106 
L 423.13536 242.059512 
L 425.0304 236.603841 
L 426.92544 232.779247 
L 428.82048 232.779247 
L 430.71552 228.392212 
L 434.5056 225.130058 
L 436.40064 221.305464 
L 440.19072 218.04331 
L 442.08576 214.781156 
L 443.9808 214.781156 
L 447.77088 211.519003 
L 449.66592 209.325485 
L 451.56096 209.325485 
L 453.456 207.694408 
L 461.03616 207.694408 
L 462.9312 205.500891 
L 464.82624 205.500891 
L 466.72128 200.04522 
L 470.51136 193.520912 
L 476.19648 193.520912 
L 478.09152 191.327395 
L 485.67168 191.327395 
L 487.56672 188.065241 
L 489.46176 188.065241 
L 491.3568 186.434164 
L 493.25184 182.60957 
L 497.04192 179.347416 
L 500.832 179.347416 
L 504.62208 176.085263 
L 506.51712 176.085263 
L 510.3072 172.823109 
L 512.20224 170.629592 
L 514.09728 168.998515 
L 515.99232 165.17392 
L 517.88736 161.911767 
L 525.46752 161.911767 
L 527.36256 160.28069 
L 531.15264 160.28069 
L 534.94272 157.018536 
L 540.62784 157.018536 
L 542.52288 155.387459 
L 546.31296 155.387459 
L 548.208 153.756382 
L 550.10304 151.562865 
L 551.99808 149.931788 
L 553.89312 147.738271 
L 555.78816 147.738271 
L 557.6832 142.84504 
L 561.47328 138.458005 
L 563.36832 135.195851 
L 565.26336 133.564775 
L 567.1584 133.564775 
L 569.05344 131.933698 
L 570.94848 131.933698 
L 572.84352 130.302621 
L 574.73856 130.302621 
L 576.6336 128.671544 
L 582.31872 128.671544 
L 588.00384 123.778313 
L 589.89888 121.584796 
L 591.79392 119.953719 
L 597.47904 119.953719 
L 599.37408 118.322642 
L 614.5344 118.322642 
L 616.42944 116.129125 
L 624.0096 116.129125 
L 625.90464 114.498048 
L 629.69472 114.498048 
L 631.58976 111.235894 
L 633.4848 111.235894 
L 637.27488 107.97374 
L 641.06496 107.97374 
L 642.96 106.342663 
L 642.96 106.342663 
" clip-path="url(#pa7fbe96d4c)" style="fill: none; stroke-dasharray: 6.75,2.7,1.35,2.7; stroke-dashoffset: 0; stroke: #2f8f84; stroke-width: 1.35"/>
   </g>
   <g id="patch_4">
    <path d="M 74.448 348.192 
L 74.448 93.744 
" style="fill: none; stroke: #000000; stroke-width: 0.8; stroke-linejoin: miter; stroke-linecap: square"/>
   </g>
   <g id="patch_5">
    <path d="M 74.448 348.192 
L 642.96 348.192 
" style="fill: none; stroke: #000000; stroke-width: 0.8; stroke-linejoin: miter; stroke-linecap: square"/>
   </g>
  </g>
  <g id="text_16">
   <text style="font: 18px 'DejaVu Sans', 'Bitstream Vera Sans', 'Computer Modern Sans Serif', 'Lucida Grande', 'Verdana', 'Geneva', 'Lucid', 'Arial', 'Helvetica', 'Avant Garde', sans-serif; text-anchor: start" x="74.448" y="38.229188" transform="rotate(-0 74.448 38.229188)">QD-OLED → WLED LCD</text>
  </g>
  <g id="text_17">
   <text style="fill: #66747c; font: 10px 'DejaVu Sans', 'Bitstream Vera Sans', 'Computer Modern Sans Serif', 'Lucida Grande', 'Verdana', 'Geneva', 'Lucid', 'Arial', 'Helvetica', 'Avant Garde', sans-serif; text-anchor: start" x="74.448" y="64.728" transform="rotate(-0 74.448 64.728)">LED-BH1</text>
  </g>
  <g id="legend_1">
   <g id="line2d_33">
    <path d="M 185.17875 404.151391 
L 194.27875 404.151391 
L 203.37875 404.151391 
" style="fill: none; stroke: #252525; stroke-width: 2.5; stroke-linecap: square"/>
   </g>
   <g id="text_18">
    <text style="font: 9.1px 'DejaVu Sans', 'Bitstream Vera Sans', 'Computer Modern Sans Serif', 'Lucida Grande', 'Verdana', 'Geneva', 'Lucid', 'Arial', 'Helvetica', 'Avant Garde', sans-serif; text-anchor: start" x="210.65875" y="407.336391" transform="rotate(-0 210.65875 407.336391)">Potera CMF</text>
   </g>
   <g id="line2d_34">
    <path d="M 185.17875 417.508484 
L 194.27875 417.508484 
L 203.37875 417.508484 
" style="fill: none; stroke: #3b83b4; stroke-width: 1.35; stroke-linecap: square"/>
   </g>
   <g id="text_19">
    <text style="font: 9.1px 'DejaVu Sans', 'Bitstream Vera Sans', 'Computer Modern Sans Serif', 'Lucida Grande', 'Verdana', 'Geneva', 'Lucid', 'Arial', 'Helvetica', 'Avant Garde', sans-serif; text-anchor: start" x="210.65875" y="420.693484" transform="rotate(-0 210.65875 420.693484)">CIE 2015 2°</text>
   </g>
   <g id="line2d_35">
    <path d="M 282.931234 404.151391 
L 292.031234 404.151391 
L 301.131234 404.151391 
" style="fill: none; stroke-dasharray: 4.995,2.16; stroke-dashoffset: 0; stroke: #c38a19; stroke-width: 1.35"/>
   </g>
   <g id="text_20">
    <text style="font: 9.1px 'DejaVu Sans', 'Bitstream Vera Sans', 'Computer Modern Sans Serif', 'Lucida Grande', 'Verdana', 'Geneva', 'Lucid', 'Arial', 'Helvetica', 'Avant Garde', sans-serif; text-anchor: start" x="308.411234" y="407.336391" transform="rotate(-0 308.411234 407.336391)">CIE 2015 10°</text>
   </g>
   <g id="line2d_36">
    <path d="M 282.931234 417.508484 
L 292.031234 417.508484 
L 301.131234 417.508484 
" style="fill: none; stroke-dasharray: 1.35,2.2275; stroke-dashoffset: 0; stroke: #7d8a92; stroke-width: 1.35"/>
   </g>
   <g id="text_21">
    <text style="font: 9.1px 'DejaVu Sans', 'Bitstream Vera Sans', 'Computer Modern Sans Serif', 'Lucida Grande', 'Verdana', 'Geneva', 'Lucid', 'Arial', 'Helvetica', 'Avant Garde', sans-serif; text-anchor: start" x="308.411234" y="420.693484" transform="rotate(-0 308.411234 420.693484)">CIE 1964 10°</text>
   </g>
   <g id="line2d_37">
    <path d="M 386.473594 404.151391 
L 395.573594 404.151391 
L 404.673594 404.151391 
" style="fill: none; stroke-dasharray: 8.64,2.16,1.35,2.16; stroke-dashoffset: 0; stroke: #d0526a; stroke-width: 1.35"/>
   </g>
   <g id="text_22">
    <text style="font: 9.1px 'DejaVu Sans', 'Bitstream Vera Sans', 'Computer Modern Sans Serif', 'Lucida Grande', 'Verdana', 'Geneva', 'Lucid', 'Arial', 'Helvetica', 'Avant Garde', sans-serif; text-anchor: start" x="411.953594" y="407.336391" transform="rotate(-0 411.953594 407.336391)">CIE 1931 2°</text>
   </g>
   <g id="line2d_38">
    <path d="M 386.473594 417.508484 
L 395.573594 417.508484 
L 404.673594 417.508484 
" style="fill: none; stroke-dasharray: 6.75,2.7,1.35,2.7; stroke-dashoffset: 0; stroke: #2f8f84; stroke-width: 1.35"/>
   </g>
   <g id="text_23">
    <text style="font: 9.1px 'DejaVu Sans', 'Bitstream Vera Sans', 'Computer Modern Sans Serif', 'Lucida Grande', 'Verdana', 'Geneva', 'Lucid', 'Arial', 'Helvetica', 'Avant Garde', sans-serif; text-anchor: start" x="411.953594" y="420.693484" transform="rotate(-0 411.953594 420.693484)">Judd–Vos 1978 2°</text>
   </g>
  </g>
 </g>
 <defs>
  <clipPath id="pa7fbe96d4c">
   <rect x="74.448" y="93.744" width="568.512" height="254.448"/>
  </clipPath>
 </defs>
</svg>
